<?xml version="1.0" encoding="utf-8" standalone="no"?>
<!DOCTYPE svg PUBLIC "-//W3C//DTD SVG 1.1//EN"
  "http://www.w3.org/Graphics/SVG/1.1/DTD/svg11.dtd">
<svg height="345.6pt" version="1.1" viewBox="0 0 460.8 345.6" width="460.8pt" xmlns="http://www.w3.org/2000/svg" xmlns:xlink="http://www.w3.org/1999/xlink">
 <metadata>
  <rdf:RDF xmlns:cc="http://creativecommons.org/ns#" xmlns:dc="http://purl.org/dc/elements/1.1/" xmlns:rdf="http://www.w3.org/1999/02/22-rdf-syntax-ns#">
   <cc:Work>
    <dc:type rdf:resource="http://purl.org/dc/dcmitype/StillImage"/>
    <dc:date>2022-01-20T16:22:44.161270</dc:date>
    <dc:format>image/svg+xml</dc:format>
    <dc:creator>
     <cc:Agent>
      <dc:title>Matplotlib v3.4.3, https://matplotlib.org/</dc:title>
     </cc:Agent>
    </dc:creator>
   </cc:Work>
  </rdf:RDF>
 </metadata>
 <defs>
  <style type="text/css">*{stroke-linecap:butt;stroke-linejoin:round;}</style>
 </defs>
 <g id="figure_1">
  <g id="patch_1">
   <path d="M 0 345.6 
L 460.8 345.6 
L 460.8 0 
L 0 0 
z
" style="fill:#ffffff;"/>
  </g>
  <g id="axes_1">
   <g id="patch_2">
    <path d="M 57.6 99.322435 
L 162.635294 99.322435 
L 162.635294 41.472 
L 57.6 41.472 
z
" style="fill:#ffffff;"/>
   </g>
   <g id="patch_3">
    <path clip-path="url(#pae0206f000)" d="M 62.374332 99.322435 
L 78.28877 99.322435 
L 78.28877 49.736348 
L 62.374332 49.736348 
z
" style="fill:#1f77b4;"/>
   </g>
   <g id="patch_4">
    <path clip-path="url(#pae0206f000)" d="M 82.26738 99.322435 
L 98.181818 99.322435 
L 98.181818 98.176668 
L 82.26738 98.176668 
z
" style="fill:#1f77b4;"/>
   </g>
   <g id="patch_5">
    <path clip-path="url(#pae0206f000)" d="M 102.160428 99.322435 
L 118.074866 99.322435 
L 118.074866 96.767867 
L 102.160428 96.767867 
z
"/>
   </g>
   <g id="patch_6">
    <path clip-path="url(#pae0206f000)" d="M 122.053476 99.322435 
L 137.967914 99.322435 
L 137.967914 97.4694 
L 122.053476 97.4694 
z
"/>
   </g>
   <g id="patch_7">
    <path clip-path="url(#pae0206f000)" d="M 141.946524 99.322435 
L 157.860963 99.322435 
L 157.860963 96.029512 
L 141.946524 96.029512 
z
"/>
   </g>
   <g id="patch_8">
    <path clip-path="url(#pae0206f000)" d="M 62.374332 49.736348 
L 78.28877 49.736348 
L 78.28877 44.226783 
L 62.374332 44.226783 
z
" style="fill:#aec7e8;"/>
   </g>
   <g id="patch_9">
    <path clip-path="url(#pae0206f000)" d="M 82.26738 98.176668 
L 98.181818 98.176668 
L 98.181818 98.04936 
L 82.26738 98.04936 
z
"/>
   </g>
   <g id="patch_10">
    <path clip-path="url(#pae0206f000)" d="M 102.160428 96.767867 
L 118.074866 96.767867 
L 118.074866 96.484027 
L 102.160428 96.484027 
z
" style="fill:#aec7e8;"/>
   </g>
   <g id="patch_11">
    <path clip-path="url(#pae0206f000)" d="M 122.053476 97.4694 
L 137.967914 97.4694 
L 137.967914 97.263507 
L 122.053476 97.263507 
z
" style="fill:#aec7e8;"/>
   </g>
   <g id="patch_12">
    <path clip-path="url(#pae0206f000)" d="M 141.946524 96.029512 
L 157.860963 96.029512 
L 157.860963 95.663632 
L 141.946524 95.663632 
z
" style="fill:#1f77b4;"/>
   </g>
   <g id="matplotlib.axis_1"/>
   <g id="matplotlib.axis_2">
    <g id="ytick_1">
     <g id="line2d_1">
      <defs>
       <path d="M 0 0 
L -3.5 0 
" id="me30ccaf364" style="stroke:#000000;stroke-width:0.8;"/>
      </defs>
      <g>
       <use style="stroke:#000000;stroke-width:0.8;" x="57.6" xlink:href="#me30ccaf364" y="99.322435"/>
      </g>
     </g>
     <g id="text_1">
      <!-- 0.0 -->
      <g transform="translate(34.696875 103.121654)scale(0.1 -0.1)">
       <defs>
        <path d="M 2034 4250 
Q 1547 4250 1301 3770 
Q 1056 3291 1056 2328 
Q 1056 1369 1301 889 
Q 1547 409 2034 409 
Q 2525 409 2770 889 
Q 3016 1369 3016 2328 
Q 3016 3291 2770 3770 
Q 2525 4250 2034 4250 
z
M 2034 4750 
Q 2819 4750 3233 4129 
Q 3647 3509 3647 2328 
Q 3647 1150 3233 529 
Q 2819 -91 2034 -91 
Q 1250 -91 836 529 
Q 422 1150 422 2328 
Q 422 3509 836 4129 
Q 1250 4750 2034 4750 
z
" id="DejaVuSans-30" transform="scale(0.015625)"/>
        <path d="M 684 794 
L 1344 794 
L 1344 0 
L 684 0 
L 684 794 
z
" id="DejaVuSans-2e" transform="scale(0.015625)"/>
       </defs>
       <use xlink:href="#DejaVuSans-30"/>
       <use x="63.623047" xlink:href="#DejaVuSans-2e"/>
       <use x="95.410156" xlink:href="#DejaVuSans-30"/>
      </g>
     </g>
    </g>
    <g id="ytick_2">
     <g id="line2d_2">
      <g>
       <use style="stroke:#000000;stroke-width:0.8;" x="57.6" xlink:href="#me30ccaf364" y="63.501167"/>
      </g>
     </g>
     <g id="text_2">
      <!-- 0.5 -->
      <g transform="translate(34.696875 67.300386)scale(0.1 -0.1)">
       <defs>
        <path d="M 691 4666 
L 3169 4666 
L 3169 4134 
L 1269 4134 
L 1269 2991 
Q 1406 3038 1543 3061 
Q 1681 3084 1819 3084 
Q 2600 3084 3056 2656 
Q 3513 2228 3513 1497 
Q 3513 744 3044 326 
Q 2575 -91 1722 -91 
Q 1428 -91 1123 -41 
Q 819 9 494 109 
L 494 744 
Q 775 591 1075 516 
Q 1375 441 1709 441 
Q 2250 441 2565 725 
Q 2881 1009 2881 1497 
Q 2881 1984 2565 2268 
Q 2250 2553 1709 2553 
Q 1456 2553 1204 2497 
Q 953 2441 691 2322 
L 691 4666 
z
" id="DejaVuSans-35" transform="scale(0.015625)"/>
       </defs>
       <use xlink:href="#DejaVuSans-30"/>
       <use x="63.623047" xlink:href="#DejaVuSans-2e"/>
       <use x="95.410156" xlink:href="#DejaVuSans-35"/>
      </g>
     </g>
    </g>
   </g>
   <g id="patch_13">
    <path d="M 57.6 99.322435 
L 57.6 41.472 
" style="fill:none;stroke:#000000;stroke-linecap:square;stroke-linejoin:miter;stroke-width:0.8;"/>
   </g>
   <g id="patch_14">
    <path d="M 162.635294 99.322435 
L 162.635294 41.472 
" style="fill:none;stroke:#000000;stroke-linecap:square;stroke-linejoin:miter;stroke-width:0.8;"/>
   </g>
   <g id="patch_15">
    <path d="M 57.6 99.322435 
L 162.635294 99.322435 
" style="fill:none;stroke:#000000;stroke-linecap:square;stroke-linejoin:miter;stroke-width:0.8;"/>
   </g>
   <g id="patch_16">
    <path d="M 57.6 41.472 
L 162.635294 41.472 
" style="fill:none;stroke:#000000;stroke-linecap:square;stroke-linejoin:miter;stroke-width:0.8;"/>
   </g>
  </g>
  <g id="axes_2">
   <g id="patch_17">
    <path d="M 183.642353 99.322435 
L 288.677647 99.322435 
L 288.677647 41.472 
L 183.642353 41.472 
z
" style="fill:#ffffff;"/>
   </g>
   <g id="patch_18">
    <path clip-path="url(#pacc4c039dd)" d="M 188.416684 99.322435 
L 204.331123 99.322435 
L 204.331123 53.928735 
L 188.416684 53.928735 
z
" style="fill:#1f77b4;"/>
   </g>
   <g id="patch_19">
    <path clip-path="url(#pacc4c039dd)" d="M 208.309733 99.322435 
L 224.224171 99.322435 
L 224.224171 99.172432 
L 208.309733 99.172432 
z
" style="fill:#1f77b4;"/>
   </g>
   <g id="patch_20">
    <path clip-path="url(#pacc4c039dd)" d="M 228.202781 99.322435 
L 244.117219 99.322435 
L 244.117219 97.724973 
L 228.202781 97.724973 
z
"/>
   </g>
   <g id="patch_21">
    <path clip-path="url(#pacc4c039dd)" d="M 248.095829 99.322435 
L 264.010267 99.322435 
L 264.010267 99.13091 
L 248.095829 99.13091 
z
"/>
   </g>
   <g id="patch_22">
    <path clip-path="url(#pacc4c039dd)" d="M 267.988877 99.322435 
L 283.903316 99.322435 
L 283.903316 97.03723 
L 267.988877 97.03723 
z
"/>
   </g>
   <g id="patch_23">
    <path clip-path="url(#pacc4c039dd)" d="M 188.416684 53.928735 
L 204.331123 53.928735 
L 204.331123 48.88499 
L 188.416684 48.88499 
z
" style="fill:#aec7e8;"/>
   </g>
   <g id="patch_24">
    <path clip-path="url(#pacc4c039dd)" d="M 208.309733 99.172432 
L 224.224171 99.172432 
L 224.224171 99.155765 
L 208.309733 99.155765 
z
"/>
   </g>
   <g id="patch_25">
    <path clip-path="url(#pacc4c039dd)" d="M 228.202781 97.724973 
L 244.117219 97.724973 
L 244.117219 97.547477 
L 228.202781 97.547477 
z
" style="fill:#aec7e8;"/>
   </g>
   <g id="patch_26">
    <path clip-path="url(#pacc4c039dd)" d="M 248.095829 99.13091 
L 264.010267 99.13091 
L 264.010267 99.10963 
L 248.095829 99.10963 
z
" style="fill:#aec7e8;"/>
   </g>
   <g id="patch_27">
    <path clip-path="url(#pacc4c039dd)" d="M 267.988877 97.03723 
L 283.903316 97.03723 
L 283.903316 96.783319 
L 267.988877 96.783319 
z
" style="fill:#1f77b4;"/>
   </g>
   <g id="matplotlib.axis_3"/>
   <g id="matplotlib.axis_4">
    <g id="ytick_3">
     <g id="line2d_3">
      <g>
       <use style="stroke:#000000;stroke-width:0.8;" x="183.642353" xlink:href="#me30ccaf364" y="99.322435"/>
      </g>
     </g>
    </g>
    <g id="ytick_4">
     <g id="line2d_4">
      <g>
       <use style="stroke:#000000;stroke-width:0.8;" x="183.642353" xlink:href="#me30ccaf364" y="63.501167"/>
      </g>
     </g>
    </g>
   </g>
   <g id="patch_28">
    <path d="M 183.642353 99.322435 
L 183.642353 41.472 
" style="fill:none;stroke:#000000;stroke-linecap:square;stroke-linejoin:miter;stroke-width:0.8;"/>
   </g>
   <g id="patch_29">
    <path d="M 288.677647 99.322435 
L 288.677647 41.472 
" style="fill:none;stroke:#000000;stroke-linecap:square;stroke-linejoin:miter;stroke-width:0.8;"/>
   </g>
   <g id="patch_30">
    <path d="M 183.642353 99.322435 
L 288.677647 99.322435 
" style="fill:none;stroke:#000000;stroke-linecap:square;stroke-linejoin:miter;stroke-width:0.8;"/>
   </g>
   <g id="patch_31">
    <path d="M 183.642353 41.472 
L 288.677647 41.472 
" style="fill:none;stroke:#000000;stroke-linecap:square;stroke-linejoin:miter;stroke-width:0.8;"/>
   </g>
  </g>
  <g id="axes_3">
   <g id="patch_32">
    <path d="M 309.684706 99.322435 
L 414.72 99.322435 
L 414.72 41.472 
L 309.684706 41.472 
z
" style="fill:#ffffff;"/>
   </g>
   <g id="patch_33">
    <path clip-path="url(#p006ae734d3)" d="M 314.459037 99.322435 
L 341.740932 99.322435 
L 341.740932 57.492134 
L 314.459037 57.492134 
z
" style="fill:#aec7e8;"/>
   </g>
   <g id="patch_34">
    <path clip-path="url(#p006ae734d3)" d="M 348.561406 99.322435 
L 375.8433 99.322435 
L 375.8433 94.809913 
L 348.561406 94.809913 
z
" style="fill:#aec7e8;"/>
   </g>
   <g id="patch_35">
    <path clip-path="url(#p006ae734d3)" d="M 382.663774 99.322435 
L 409.945668 99.322435 
L 409.945668 95.487393 
L 382.663774 95.487393 
z
"/>
   </g>
   <g id="patch_36">
    <path clip-path="url(#p006ae734d3)" d="M 314.459037 57.492134 
L 341.740932 57.492134 
L 341.740932 52.844323 
L 314.459037 52.844323 
z
" style="fill:#1f77b4;"/>
   </g>
   <g id="patch_37">
    <path clip-path="url(#p006ae734d3)" d="M 348.561406 94.809913 
L 375.8433 94.809913 
L 375.8433 94.308522 
L 348.561406 94.308522 
z
"/>
   </g>
   <g id="patch_38">
    <path clip-path="url(#p006ae734d3)" d="M 382.663774 95.487393 
L 409.945668 95.487393 
L 409.945668 95.061277 
L 382.663774 95.061277 
z
" style="fill:#1f77b4;"/>
   </g>
   <g id="matplotlib.axis_5"/>
   <g id="matplotlib.axis_6">
    <g id="ytick_5">
     <g id="line2d_5">
      <g>
       <use style="stroke:#000000;stroke-width:0.8;" x="309.684706" xlink:href="#me30ccaf364" y="99.322435"/>
      </g>
     </g>
    </g>
    <g id="ytick_6">
     <g id="line2d_6">
      <g>
       <use style="stroke:#000000;stroke-width:0.8;" x="309.684706" xlink:href="#me30ccaf364" y="63.501167"/>
      </g>
     </g>
    </g>
   </g>
   <g id="patch_39">
    <path d="M 309.684706 99.322435 
L 309.684706 41.472 
" style="fill:none;stroke:#000000;stroke-linecap:square;stroke-linejoin:miter;stroke-width:0.8;"/>
   </g>
   <g id="patch_40">
    <path d="M 414.72 99.322435 
L 414.72 41.472 
" style="fill:none;stroke:#000000;stroke-linecap:square;stroke-linejoin:miter;stroke-width:0.8;"/>
   </g>
   <g id="patch_41">
    <path d="M 309.684706 99.322435 
L 414.72 99.322435 
" style="fill:none;stroke:#000000;stroke-linecap:square;stroke-linejoin:miter;stroke-width:0.8;"/>
   </g>
   <g id="patch_42">
    <path d="M 309.684706 41.472 
L 414.72 41.472 
" style="fill:none;stroke:#000000;stroke-linecap:square;stroke-linejoin:miter;stroke-width:0.8;"/>
   </g>
  </g>
  <g id="axes_4">
   <g id="patch_43">
    <path d="M 57.6 168.742957 
L 162.635294 168.742957 
L 162.635294 110.892522 
L 57.6 110.892522 
z
" style="fill:#ffffff;"/>
   </g>
   <g id="patch_44">
    <path clip-path="url(#pa7cc352660)" d="M 62.374332 168.742957 
L 78.28877 168.742957 
L 78.28877 129.892929 
L 62.374332 129.892929 
z
" style="fill:#1f77b4;"/>
   </g>
   <g id="patch_45">
    <path clip-path="url(#pa7cc352660)" d="M 82.26738 168.742957 
L 98.181818 168.742957 
L 98.181818 168.317023 
L 82.26738 168.317023 
z
" style="fill:#1f77b4;"/>
   </g>
   <g id="patch_46">
    <path clip-path="url(#pa7cc352660)" d="M 102.160428 168.742957 
L 118.074866 168.742957 
L 118.074866 166.500775 
L 102.160428 166.500775 
z
"/>
   </g>
   <g id="patch_47">
    <path clip-path="url(#pa7cc352660)" d="M 122.053476 168.742957 
L 137.967914 168.742957 
L 137.967914 166.859129 
L 122.053476 166.859129 
z
"/>
   </g>
   <g id="patch_48">
    <path clip-path="url(#pa7cc352660)" d="M 141.946524 168.742957 
L 157.860963 168.742957 
L 157.860963 163.89773 
L 141.946524 163.89773 
z
"/>
   </g>
   <g id="patch_49">
    <path clip-path="url(#pa7cc352660)" d="M 62.374332 129.892929 
L 78.28877 129.892929 
L 78.28877 125.57626 
L 62.374332 125.57626 
z
" style="fill:#aec7e8;"/>
   </g>
   <g id="patch_50">
    <path clip-path="url(#pa7cc352660)" d="M 82.26738 168.317023 
L 98.181818 168.317023 
L 98.181818 168.269697 
L 82.26738 168.269697 
z
"/>
   </g>
   <g id="patch_51">
    <path clip-path="url(#pa7cc352660)" d="M 102.160428 166.500775 
L 118.074866 166.500775 
L 118.074866 166.251644 
L 102.160428 166.251644 
z
" style="fill:#aec7e8;"/>
   </g>
   <g id="patch_52">
    <path clip-path="url(#pa7cc352660)" d="M 122.053476 166.859129 
L 137.967914 166.859129 
L 137.967914 166.649815 
L 122.053476 166.649815 
z
" style="fill:#aec7e8;"/>
   </g>
   <g id="patch_53">
    <path clip-path="url(#pa7cc352660)" d="M 141.946524 163.89773 
L 157.860963 163.89773 
L 157.860963 163.359372 
L 141.946524 163.359372 
z
" style="fill:#1f77b4;"/>
   </g>
   <g id="matplotlib.axis_7"/>
   <g id="matplotlib.axis_8">
    <g id="ytick_7">
     <g id="line2d_7">
      <g>
       <use style="stroke:#000000;stroke-width:0.8;" x="57.6" xlink:href="#me30ccaf364" y="168.742957"/>
      </g>
     </g>
     <g id="text_3">
      <!-- 0.0 -->
      <g transform="translate(34.696875 172.542175)scale(0.1 -0.1)">
       <use xlink:href="#DejaVuSans-30"/>
       <use x="63.623047" xlink:href="#DejaVuSans-2e"/>
       <use x="95.410156" xlink:href="#DejaVuSans-30"/>
      </g>
     </g>
    </g>
    <g id="ytick_8">
     <g id="line2d_8">
      <g>
       <use style="stroke:#000000;stroke-width:0.8;" x="57.6" xlink:href="#me30ccaf364" y="132.921689"/>
      </g>
     </g>
     <g id="text_4">
      <!-- 0.5 -->
      <g transform="translate(34.696875 136.720907)scale(0.1 -0.1)">
       <use xlink:href="#DejaVuSans-30"/>
       <use x="63.623047" xlink:href="#DejaVuSans-2e"/>
       <use x="95.410156" xlink:href="#DejaVuSans-35"/>
      </g>
     </g>
    </g>
   </g>
   <g id="patch_54">
    <path d="M 57.6 168.742957 
L 57.6 110.892522 
" style="fill:none;stroke:#000000;stroke-linecap:square;stroke-linejoin:miter;stroke-width:0.8;"/>
   </g>
   <g id="patch_55">
    <path d="M 162.635294 168.742957 
L 162.635294 110.892522 
" style="fill:none;stroke:#000000;stroke-linecap:square;stroke-linejoin:miter;stroke-width:0.8;"/>
   </g>
   <g id="patch_56">
    <path d="M 57.6 168.742957 
L 162.635294 168.742957 
" style="fill:none;stroke:#000000;stroke-linecap:square;stroke-linejoin:miter;stroke-width:0.8;"/>
   </g>
   <g id="patch_57">
    <path d="M 57.6 110.892522 
L 162.635294 110.892522 
" style="fill:none;stroke:#000000;stroke-linecap:square;stroke-linejoin:miter;stroke-width:0.8;"/>
   </g>
  </g>
  <g id="axes_5">
   <g id="patch_58">
    <path d="M 183.642353 168.742957 
L 288.677647 168.742957 
L 288.677647 110.892522 
L 183.642353 110.892522 
z
" style="fill:#ffffff;"/>
   </g>
   <g id="patch_59">
    <path clip-path="url(#p965fe11bc6)" d="M 188.416684 168.742957 
L 204.331123 168.742957 
L 204.331123 129.406053 
L 188.416684 129.406053 
z
" style="fill:#1f77b4;"/>
   </g>
   <g id="patch_60">
    <path clip-path="url(#p965fe11bc6)" d="M 208.309733 168.742957 
L 224.224171 168.742957 
L 224.224171 168.089836 
L 208.309733 168.089836 
z
" style="fill:#1f77b4;"/>
   </g>
   <g id="patch_61">
    <path clip-path="url(#p965fe11bc6)" d="M 228.202781 168.742957 
L 244.117219 168.742957 
L 244.117219 165.194384 
L 228.202781 165.194384 
z
"/>
   </g>
   <g id="patch_62">
    <path clip-path="url(#p965fe11bc6)" d="M 248.095829 168.742957 
L 264.010267 168.742957 
L 264.010267 165.31685 
L 248.095829 165.31685 
z
"/>
   </g>
   <g id="patch_63">
    <path clip-path="url(#p965fe11bc6)" d="M 267.988877 168.742957 
L 283.903316 168.742957 
L 283.903316 164.164472 
L 267.988877 164.164472 
z
"/>
   </g>
   <g id="patch_64">
    <path clip-path="url(#p965fe11bc6)" d="M 188.416684 129.406053 
L 204.331123 129.406053 
L 204.331123 125.035285 
L 188.416684 125.035285 
z
" style="fill:#aec7e8;"/>
   </g>
   <g id="patch_65">
    <path clip-path="url(#p965fe11bc6)" d="M 208.309733 168.089836 
L 224.224171 168.089836 
L 224.224171 168.017268 
L 208.309733 168.017268 
z
"/>
   </g>
   <g id="patch_66">
    <path clip-path="url(#p965fe11bc6)" d="M 228.202781 165.194384 
L 244.117219 165.194384 
L 244.117219 164.800098 
L 228.202781 164.800098 
z
" style="fill:#aec7e8;"/>
   </g>
   <g id="patch_67">
    <path clip-path="url(#p965fe11bc6)" d="M 248.095829 165.31685 
L 264.010267 165.31685 
L 264.010267 164.936171 
L 248.095829 164.936171 
z
" style="fill:#aec7e8;"/>
   </g>
   <g id="patch_68">
    <path clip-path="url(#p965fe11bc6)" d="M 267.988877 164.164472 
L 283.903316 164.164472 
L 283.903316 163.655751 
L 267.988877 163.655751 
z
" style="fill:#1f77b4;"/>
   </g>
   <g id="matplotlib.axis_9"/>
   <g id="matplotlib.axis_10">
    <g id="ytick_9">
     <g id="line2d_9">
      <g>
       <use style="stroke:#000000;stroke-width:0.8;" x="183.642353" xlink:href="#me30ccaf364" y="168.742957"/>
      </g>
     </g>
    </g>
    <g id="ytick_10">
     <g id="line2d_10">
      <g>
       <use style="stroke:#000000;stroke-width:0.8;" x="183.642353" xlink:href="#me30ccaf364" y="132.921689"/>
      </g>
     </g>
    </g>
   </g>
   <g id="patch_69">
    <path d="M 183.642353 168.742957 
L 183.642353 110.892522 
" style="fill:none;stroke:#000000;stroke-linecap:square;stroke-linejoin:miter;stroke-width:0.8;"/>
   </g>
   <g id="patch_70">
    <path d="M 288.677647 168.742957 
L 288.677647 110.892522 
" style="fill:none;stroke:#000000;stroke-linecap:square;stroke-linejoin:miter;stroke-width:0.8;"/>
   </g>
   <g id="patch_71">
    <path d="M 183.642353 168.742957 
L 288.677647 168.742957 
" style="fill:none;stroke:#000000;stroke-linecap:square;stroke-linejoin:miter;stroke-width:0.8;"/>
   </g>
   <g id="patch_72">
    <path d="M 183.642353 110.892522 
L 288.677647 110.892522 
" style="fill:none;stroke:#000000;stroke-linecap:square;stroke-linejoin:miter;stroke-width:0.8;"/>
   </g>
  </g>
  <g id="axes_6">
   <g id="patch_73">
    <path d="M 309.684706 168.742957 
L 414.72 168.742957 
L 414.72 110.892522 
L 309.684706 110.892522 
z
" style="fill:#ffffff;"/>
   </g>
   <g id="patch_74">
    <path clip-path="url(#p5b4284498e)" d="M 314.459037 168.742957 
L 330.373476 168.742957 
L 330.373476 129.590012 
L 314.459037 129.590012 
z
" style="fill:#1f77b4;"/>
   </g>
   <g id="patch_75">
    <path clip-path="url(#p5b4284498e)" d="M 334.352086 168.742957 
L 350.266524 168.742957 
L 350.266524 165.574454 
L 334.352086 165.574454 
z
" style="fill:#1f77b4;"/>
   </g>
   <g id="patch_76">
    <path clip-path="url(#p5b4284498e)" d="M 354.245134 168.742957 
L 370.159572 168.742957 
L 370.159572 164.997131 
L 354.245134 164.997131 
z
"/>
   </g>
   <g id="patch_77">
    <path clip-path="url(#p5b4284498e)" d="M 374.138182 168.742957 
L 390.05262 168.742957 
L 390.05262 168.434555 
L 374.138182 168.434555 
z
"/>
   </g>
   <g id="patch_78">
    <path clip-path="url(#p5b4284498e)" d="M 394.03123 168.742957 
L 409.945668 168.742957 
L 409.945668 155.964185 
L 394.03123 155.964185 
z
"/>
   </g>
   <g id="patch_79">
    <path clip-path="url(#p5b4284498e)" d="M 314.459037 129.590012 
L 330.373476 129.590012 
L 330.373476 125.239685 
L 314.459037 125.239685 
z
" style="fill:#aec7e8;"/>
   </g>
   <g id="patch_80">
    <path clip-path="url(#p5b4284498e)" d="M 334.352086 165.574454 
L 350.266524 165.574454 
L 350.266524 165.222398 
L 334.352086 165.222398 
z
"/>
   </g>
   <g id="patch_81">
    <path clip-path="url(#p5b4284498e)" d="M 354.245134 164.997131 
L 370.159572 164.997131 
L 370.159572 164.580928 
L 354.245134 164.580928 
z
" style="fill:#aec7e8;"/>
   </g>
   <g id="patch_82">
    <path clip-path="url(#p5b4284498e)" d="M 374.138182 168.434555 
L 390.05262 168.434555 
L 390.05262 168.400288 
L 374.138182 168.400288 
z
" style="fill:#aec7e8;"/>
   </g>
   <g id="patch_83">
    <path clip-path="url(#p5b4284498e)" d="M 394.03123 155.964185 
L 409.945668 155.964185 
L 409.945668 154.544321 
L 394.03123 154.544321 
z
" style="fill:#1f77b4;"/>
   </g>
   <g id="matplotlib.axis_11"/>
   <g id="matplotlib.axis_12">
    <g id="ytick_11">
     <g id="line2d_11">
      <g>
       <use style="stroke:#000000;stroke-width:0.8;" x="309.684706" xlink:href="#me30ccaf364" y="168.742957"/>
      </g>
     </g>
    </g>
    <g id="ytick_12">
     <g id="line2d_12">
      <g>
       <use style="stroke:#000000;stroke-width:0.8;" x="309.684706" xlink:href="#me30ccaf364" y="132.921689"/>
      </g>
     </g>
    </g>
   </g>
   <g id="patch_84">
    <path d="M 309.684706 168.742957 
L 309.684706 110.892522 
" style="fill:none;stroke:#000000;stroke-linecap:square;stroke-linejoin:miter;stroke-width:0.8;"/>
   </g>
   <g id="patch_85">
    <path d="M 414.72 168.742957 
L 414.72 110.892522 
" style="fill:none;stroke:#000000;stroke-linecap:square;stroke-linejoin:miter;stroke-width:0.8;"/>
   </g>
   <g id="patch_86">
    <path d="M 309.684706 168.742957 
L 414.72 168.742957 
" style="fill:none;stroke:#000000;stroke-linecap:square;stroke-linejoin:miter;stroke-width:0.8;"/>
   </g>
   <g id="patch_87">
    <path d="M 309.684706 110.892522 
L 414.72 110.892522 
" style="fill:none;stroke:#000000;stroke-linecap:square;stroke-linejoin:miter;stroke-width:0.8;"/>
   </g>
  </g>
  <g id="axes_7">
   <g id="patch_88">
    <path d="M 57.6 238.163478 
L 162.635294 238.163478 
L 162.635294 180.313043 
L 57.6 180.313043 
z
" style="fill:#ffffff;"/>
   </g>
   <g id="patch_89">
    <path clip-path="url(#pa3d5eef109)" d="M 62.374332 238.163478 
L 89.656226 238.163478 
L 89.656226 193.336675 
L 62.374332 193.336675 
z
" style="fill:#1f77b4;"/>
   </g>
   <g id="patch_90">
    <path clip-path="url(#pa3d5eef109)" d="M 96.4767 238.163478 
L 123.758594 238.163478 
L 123.758594 221.856848 
L 96.4767 221.856848 
z
" style="fill:#1f77b4;"/>
   </g>
   <g id="patch_91">
    <path clip-path="url(#pa3d5eef109)" d="M 130.579068 238.163478 
L 157.860963 238.163478 
L 157.860963 226.562621 
L 130.579068 226.562621 
z
"/>
   </g>
   <g id="patch_92">
    <path clip-path="url(#pa3d5eef109)" d="M 62.374332 193.336675 
L 89.656226 193.336675 
L 89.656226 188.355919 
L 62.374332 188.355919 
z
" style="fill:#aec7e8;"/>
   </g>
   <g id="patch_93">
    <path clip-path="url(#pa3d5eef109)" d="M 96.4767 221.856848 
L 123.758594 221.856848 
L 123.758594 220.045 
L 96.4767 220.045 
z
"/>
   </g>
   <g id="patch_94">
    <path clip-path="url(#pa3d5eef109)" d="M 130.579068 226.562621 
L 157.860963 226.562621 
L 157.860963 225.273637 
L 130.579068 225.273637 
z
" style="fill:#aec7e8;"/>
   </g>
   <g id="matplotlib.axis_13"/>
   <g id="matplotlib.axis_14">
    <g id="ytick_13">
     <g id="line2d_13">
      <g>
       <use style="stroke:#000000;stroke-width:0.8;" x="57.6" xlink:href="#me30ccaf364" y="238.163478"/>
      </g>
     </g>
     <g id="text_5">
      <!-- 0.0 -->
      <g transform="translate(34.696875 241.962697)scale(0.1 -0.1)">
       <use xlink:href="#DejaVuSans-30"/>
       <use x="63.623047" xlink:href="#DejaVuSans-2e"/>
       <use x="95.410156" xlink:href="#DejaVuSans-30"/>
      </g>
     </g>
    </g>
    <g id="ytick_14">
     <g id="line2d_14">
      <g>
       <use style="stroke:#000000;stroke-width:0.8;" x="57.6" xlink:href="#me30ccaf364" y="202.34221"/>
      </g>
     </g>
     <g id="text_6">
      <!-- 0.5 -->
      <g transform="translate(34.696875 206.141429)scale(0.1 -0.1)">
       <use xlink:href="#DejaVuSans-30"/>
       <use x="63.623047" xlink:href="#DejaVuSans-2e"/>
       <use x="95.410156" xlink:href="#DejaVuSans-35"/>
      </g>
     </g>
    </g>
   </g>
   <g id="patch_95">
    <path d="M 57.6 238.163478 
L 57.6 180.313043 
" style="fill:none;stroke:#000000;stroke-linecap:square;stroke-linejoin:miter;stroke-width:0.8;"/>
   </g>
   <g id="patch_96">
    <path d="M 162.635294 238.163478 
L 162.635294 180.313043 
" style="fill:none;stroke:#000000;stroke-linecap:square;stroke-linejoin:miter;stroke-width:0.8;"/>
   </g>
   <g id="patch_97">
    <path d="M 57.6 238.163478 
L 162.635294 238.163478 
" style="fill:none;stroke:#000000;stroke-linecap:square;stroke-linejoin:miter;stroke-width:0.8;"/>
   </g>
   <g id="patch_98">
    <path d="M 57.6 180.313043 
L 162.635294 180.313043 
" style="fill:none;stroke:#000000;stroke-linecap:square;stroke-linejoin:miter;stroke-width:0.8;"/>
   </g>
  </g>
  <g id="axes_8">
   <g id="patch_99">
    <path d="M 183.642353 238.163478 
L 288.677647 238.163478 
L 288.677647 180.313043 
L 183.642353 180.313043 
z
" style="fill:#ffffff;"/>
   </g>
   <g id="patch_100">
    <path clip-path="url(#p30c7c88cc2)" d="M 188.416684 238.163478 
L 204.331123 238.163478 
L 204.331123 201.900483 
L 188.416684 201.900483 
z
" style="fill:#1f77b4;"/>
   </g>
   <g id="patch_101">
    <path clip-path="url(#p30c7c88cc2)" d="M 208.309733 238.163478 
L 224.224171 238.163478 
L 224.224171 237.841388 
L 208.309733 237.841388 
z
" style="fill:#1f77b4;"/>
   </g>
   <g id="patch_102">
    <path clip-path="url(#p30c7c88cc2)" d="M 228.202781 238.163478 
L 244.117219 238.163478 
L 244.117219 234.998316 
L 228.202781 234.998316 
z
"/>
   </g>
   <g id="patch_103">
    <path clip-path="url(#p30c7c88cc2)" d="M 248.095829 238.163478 
L 264.010267 238.163478 
L 264.010267 237.933257 
L 248.095829 237.933257 
z
"/>
   </g>
   <g id="patch_104">
    <path clip-path="url(#p30c7c88cc2)" d="M 267.988877 238.163478 
L 283.903316 238.163478 
L 283.903316 229.494478 
L 267.988877 229.494478 
z
"/>
   </g>
   <g id="patch_105">
    <path clip-path="url(#p30c7c88cc2)" d="M 188.416684 201.900483 
L 204.331123 201.900483 
L 204.331123 197.871262 
L 188.416684 197.871262 
z
" style="fill:#aec7e8;"/>
   </g>
   <g id="patch_106">
    <path clip-path="url(#p30c7c88cc2)" d="M 208.309733 237.841388 
L 224.224171 237.841388 
L 224.224171 237.8056 
L 208.309733 237.8056 
z
"/>
   </g>
   <g id="patch_107">
    <path clip-path="url(#p30c7c88cc2)" d="M 228.202781 234.998316 
L 244.117219 234.998316 
L 244.117219 234.646631 
L 228.202781 234.646631 
z
" style="fill:#aec7e8;"/>
   </g>
   <g id="patch_108">
    <path clip-path="url(#p30c7c88cc2)" d="M 248.095829 237.933257 
L 264.010267 237.933257 
L 264.010267 237.907677 
L 248.095829 237.907677 
z
" style="fill:#aec7e8;"/>
   </g>
   <g id="patch_109">
    <path clip-path="url(#p30c7c88cc2)" d="M 267.988877 229.494478 
L 283.903316 229.494478 
L 283.903316 228.531255 
L 267.988877 228.531255 
z
" style="fill:#1f77b4;"/>
   </g>
   <g id="matplotlib.axis_15"/>
   <g id="matplotlib.axis_16">
    <g id="ytick_15">
     <g id="line2d_15">
      <g>
       <use style="stroke:#000000;stroke-width:0.8;" x="183.642353" xlink:href="#me30ccaf364" y="238.163478"/>
      </g>
     </g>
    </g>
    <g id="ytick_16">
     <g id="line2d_16">
      <g>
       <use style="stroke:#000000;stroke-width:0.8;" x="183.642353" xlink:href="#me30ccaf364" y="202.34221"/>
      </g>
     </g>
    </g>
   </g>
   <g id="patch_110">
    <path d="M 183.642353 238.163478 
L 183.642353 180.313043 
" style="fill:none;stroke:#000000;stroke-linecap:square;stroke-linejoin:miter;stroke-width:0.8;"/>
   </g>
   <g id="patch_111">
    <path d="M 288.677647 238.163478 
L 288.677647 180.313043 
" style="fill:none;stroke:#000000;stroke-linecap:square;stroke-linejoin:miter;stroke-width:0.8;"/>
   </g>
   <g id="patch_112">
    <path d="M 183.642353 238.163478 
L 288.677647 238.163478 
" style="fill:none;stroke:#000000;stroke-linecap:square;stroke-linejoin:miter;stroke-width:0.8;"/>
   </g>
   <g id="patch_113">
    <path d="M 183.642353 180.313043 
L 288.677647 180.313043 
" style="fill:none;stroke:#000000;stroke-linecap:square;stroke-linejoin:miter;stroke-width:0.8;"/>
   </g>
  </g>
  <g id="axes_9">
   <g id="patch_114">
    <path d="M 309.684706 238.163478 
L 414.72 238.163478 
L 414.72 180.313043 
L 309.684706 180.313043 
z
" style="fill:#ffffff;"/>
   </g>
   <g id="patch_115">
    <path clip-path="url(#p49986756cb)" d="M 314.459037 238.163478 
L 341.740932 238.163478 
L 341.740932 198.404661 
L 314.459037 198.404661 
z
" style="fill:#1f77b4;"/>
   </g>
   <g id="patch_116">
    <path clip-path="url(#p49986756cb)" d="M 348.561406 238.163478 
L 375.8433 238.163478 
L 375.8433 228.088674 
L 348.561406 228.088674 
z
" style="fill:#1f77b4;"/>
   </g>
   <g id="patch_117">
    <path clip-path="url(#p49986756cb)" d="M 382.663774 238.163478 
L 409.945668 238.163478 
L 409.945668 231.465421 
L 382.663774 231.465421 
z
"/>
   </g>
   <g id="patch_118">
    <path clip-path="url(#p49986756cb)" d="M 314.459037 198.404661 
L 341.740932 198.404661 
L 341.740932 193.987014 
L 314.459037 193.987014 
z
" style="fill:#aec7e8;"/>
   </g>
   <g id="patch_119">
    <path clip-path="url(#p49986756cb)" d="M 348.561406 228.088674 
L 375.8433 228.088674 
L 375.8433 226.969251 
L 348.561406 226.969251 
z
"/>
   </g>
   <g id="patch_120">
    <path clip-path="url(#p49986756cb)" d="M 382.663774 231.465421 
L 409.945668 231.465421 
L 409.945668 230.721193 
L 382.663774 230.721193 
z
" style="fill:#aec7e8;"/>
   </g>
   <g id="matplotlib.axis_17"/>
   <g id="matplotlib.axis_18">
    <g id="ytick_17">
     <g id="line2d_17">
      <g>
       <use style="stroke:#000000;stroke-width:0.8;" x="309.684706" xlink:href="#me30ccaf364" y="238.163478"/>
      </g>
     </g>
    </g>
    <g id="ytick_18">
     <g id="line2d_18">
      <g>
       <use style="stroke:#000000;stroke-width:0.8;" x="309.684706" xlink:href="#me30ccaf364" y="202.34221"/>
      </g>
     </g>
    </g>
   </g>
   <g id="patch_121">
    <path d="M 309.684706 238.163478 
L 309.684706 180.313043 
" style="fill:none;stroke:#000000;stroke-linecap:square;stroke-linejoin:miter;stroke-width:0.8;"/>
   </g>
   <g id="patch_122">
    <path d="M 414.72 238.163478 
L 414.72 180.313043 
" style="fill:none;stroke:#000000;stroke-linecap:square;stroke-linejoin:miter;stroke-width:0.8;"/>
   </g>
   <g id="patch_123">
    <path d="M 309.684706 238.163478 
L 414.72 238.163478 
" style="fill:none;stroke:#000000;stroke-linecap:square;stroke-linejoin:miter;stroke-width:0.8;"/>
   </g>
   <g id="patch_124">
    <path d="M 309.684706 180.313043 
L 414.72 180.313043 
" style="fill:none;stroke:#000000;stroke-linecap:square;stroke-linejoin:miter;stroke-width:0.8;"/>
   </g>
  </g>
  <g id="axes_10">
   <g id="patch_125">
    <path d="M 57.6 307.584 
L 162.635294 307.584 
L 162.635294 249.733565 
L 57.6 249.733565 
z
" style="fill:#ffffff;"/>
   </g>
   <g id="patch_126">
    <path clip-path="url(#p782fc57b15)" d="M 62.374332 307.584 
L 78.28877 307.584 
L 78.28877 270.521018 
L 62.374332 270.521018 
z
" style="fill:#aec7e8;"/>
   </g>
   <g id="patch_127">
    <path clip-path="url(#p782fc57b15)" d="M 82.26738 307.584 
L 98.181818 307.584 
L 98.181818 305.110792 
L 82.26738 305.110792 
z
" style="fill:#aec7e8;"/>
   </g>
   <g id="patch_128">
    <path clip-path="url(#p782fc57b15)" d="M 102.160428 307.584 
L 118.074866 307.584 
L 118.074866 302.713267 
L 102.160428 302.713267 
z
"/>
   </g>
   <g id="patch_129">
    <path clip-path="url(#p782fc57b15)" d="M 122.053476 307.584 
L 137.967914 307.584 
L 137.967914 303.569661 
L 122.053476 303.569661 
z
"/>
   </g>
   <g id="patch_130">
    <path clip-path="url(#p782fc57b15)" d="M 141.946524 307.584 
L 157.860963 307.584 
L 157.860963 304.76323 
L 141.946524 304.76323 
z
"/>
   </g>
   <g id="patch_131">
    <path clip-path="url(#p782fc57b15)" d="M 62.374332 270.521018 
L 78.28877 270.521018 
L 78.28877 266.402908 
L 62.374332 266.402908 
z
" style="fill:#1f77b4;"/>
   </g>
   <g id="patch_132">
    <path clip-path="url(#p782fc57b15)" d="M 82.26738 305.110792 
L 98.181818 305.110792 
L 98.181818 304.835991 
L 82.26738 304.835991 
z
"/>
   </g>
   <g id="patch_133">
    <path clip-path="url(#p782fc57b15)" d="M 102.160428 302.713267 
L 118.074866 302.713267 
L 118.074866 302.172075 
L 102.160428 302.172075 
z
" style="fill:#aec7e8;"/>
   </g>
   <g id="patch_134">
    <path clip-path="url(#p782fc57b15)" d="M 122.053476 303.569661 
L 137.967914 303.569661 
L 137.967914 303.123624 
L 122.053476 303.123624 
z
" style="fill:#1f77b4;"/>
   </g>
   <g id="patch_135">
    <path clip-path="url(#p782fc57b15)" d="M 141.946524 304.76323 
L 157.860963 304.76323 
L 157.860963 304.449811 
L 141.946524 304.449811 
z
" style="fill:#1f77b4;"/>
   </g>
   <g id="matplotlib.axis_19"/>
   <g id="matplotlib.axis_20">
    <g id="ytick_19">
     <g id="line2d_19">
      <g>
       <use style="stroke:#000000;stroke-width:0.8;" x="57.6" xlink:href="#me30ccaf364" y="307.584"/>
      </g>
     </g>
     <g id="text_7">
      <!-- 0.0 -->
      <g transform="translate(34.696875 311.383219)scale(0.1 -0.1)">
       <use xlink:href="#DejaVuSans-30"/>
       <use x="63.623047" xlink:href="#DejaVuSans-2e"/>
       <use x="95.410156" xlink:href="#DejaVuSans-30"/>
      </g>
     </g>
    </g>
    <g id="ytick_20">
     <g id="line2d_20">
      <g>
       <use style="stroke:#000000;stroke-width:0.8;" x="57.6" xlink:href="#me30ccaf364" y="271.762732"/>
      </g>
     </g>
     <g id="text_8">
      <!-- 0.5 -->
      <g transform="translate(34.696875 275.561951)scale(0.1 -0.1)">
       <use xlink:href="#DejaVuSans-30"/>
       <use x="63.623047" xlink:href="#DejaVuSans-2e"/>
       <use x="95.410156" xlink:href="#DejaVuSans-35"/>
      </g>
     </g>
    </g>
   </g>
   <g id="patch_136">
    <path d="M 57.6 307.584 
L 57.6 249.733565 
" style="fill:none;stroke:#000000;stroke-linecap:square;stroke-linejoin:miter;stroke-width:0.8;"/>
   </g>
   <g id="patch_137">
    <path d="M 162.635294 307.584 
L 162.635294 249.733565 
" style="fill:none;stroke:#000000;stroke-linecap:square;stroke-linejoin:miter;stroke-width:0.8;"/>
   </g>
   <g id="patch_138">
    <path d="M 57.6 307.584 
L 162.635294 307.584 
" style="fill:none;stroke:#000000;stroke-linecap:square;stroke-linejoin:miter;stroke-width:0.8;"/>
   </g>
   <g id="patch_139">
    <path d="M 57.6 249.733565 
L 162.635294 249.733565 
" style="fill:none;stroke:#000000;stroke-linecap:square;stroke-linejoin:miter;stroke-width:0.8;"/>
   </g>
  </g>
  <g id="axes_11">
   <g id="patch_140">
    <path d="M 183.642353 307.584 
L 288.677647 307.584 
L 288.677647 249.733565 
L 183.642353 249.733565 
z
" style="fill:#ffffff;"/>
   </g>
   <g id="matplotlib.axis_21"/>
   <g id="matplotlib.axis_22">
    <g id="ytick_21">
     <g id="line2d_21">
      <g>
       <use style="stroke:#000000;stroke-width:0.8;" x="183.642353" xlink:href="#me30ccaf364" y="307.584"/>
      </g>
     </g>
    </g>
    <g id="ytick_22">
     <g id="line2d_22">
      <g>
       <use style="stroke:#000000;stroke-width:0.8;" x="183.642353" xlink:href="#me30ccaf364" y="271.762732"/>
      </g>
     </g>
    </g>
   </g>
   <g id="patch_141">
    <path d="M 183.642353 307.584 
L 183.642353 249.733565 
" style="fill:none;stroke:#000000;stroke-linecap:square;stroke-linejoin:miter;stroke-width:0.8;"/>
   </g>
   <g id="patch_142">
    <path d="M 288.677647 307.584 
L 288.677647 249.733565 
" style="fill:none;stroke:#000000;stroke-linecap:square;stroke-linejoin:miter;stroke-width:0.8;"/>
   </g>
   <g id="patch_143">
    <path d="M 183.642353 307.584 
L 288.677647 307.584 
" style="fill:none;stroke:#000000;stroke-linecap:square;stroke-linejoin:miter;stroke-width:0.8;"/>
   </g>
   <g id="patch_144">
    <path d="M 183.642353 249.733565 
L 288.677647 249.733565 
" style="fill:none;stroke:#000000;stroke-linecap:square;stroke-linejoin:miter;stroke-width:0.8;"/>
   </g>
  </g>
  <g id="axes_12">
   <g id="patch_145">
    <path d="M 309.684706 307.584 
L 414.72 307.584 
L 414.72 249.733565 
L 309.684706 249.733565 
z
" style="fill:#ffffff;"/>
   </g>
   <g id="matplotlib.axis_23"/>
   <g id="matplotlib.axis_24">
    <g id="ytick_23">
     <g id="line2d_23">
      <g>
       <use style="stroke:#000000;stroke-width:0.8;" x="309.684706" xlink:href="#me30ccaf364" y="307.584"/>
      </g>
     </g>
    </g>
    <g id="ytick_24">
     <g id="line2d_24">
      <g>
       <use style="stroke:#000000;stroke-width:0.8;" x="309.684706" xlink:href="#me30ccaf364" y="271.762732"/>
      </g>
     </g>
    </g>
   </g>
   <g id="patch_146">
    <path d="M 309.684706 307.584 
L 309.684706 249.733565 
" style="fill:none;stroke:#000000;stroke-linecap:square;stroke-linejoin:miter;stroke-width:0.8;"/>
   </g>
   <g id="patch_147">
    <path d="M 414.72 307.584 
L 414.72 249.733565 
" style="fill:none;stroke:#000000;stroke-linecap:square;stroke-linejoin:miter;stroke-width:0.8;"/>
   </g>
   <g id="patch_148">
    <path d="M 309.684706 307.584 
L 414.72 307.584 
" style="fill:none;stroke:#000000;stroke-linecap:square;stroke-linejoin:miter;stroke-width:0.8;"/>
   </g>
   <g id="patch_149">
    <path d="M 309.684706 249.733565 
L 414.72 249.733565 
" style="fill:none;stroke:#000000;stroke-linecap:square;stroke-linejoin:miter;stroke-width:0.8;"/>
   </g>
  </g>
  <g id="axes_13">
   <g id="matplotlib.axis_25">
    <g id="xtick_1">
     <g id="text_9">
      <!-- 0.0 -->
      <g style="opacity:0;" transform="translate(49.648438 322.182437)scale(0.1 -0.1)">
       <use xlink:href="#DejaVuSans-30"/>
       <use x="63.623047" xlink:href="#DejaVuSans-2e"/>
       <use x="95.410156" xlink:href="#DejaVuSans-30"/>
      </g>
     </g>
    </g>
    <g id="xtick_2">
     <g id="text_10">
      <!-- 0.2 -->
      <g style="opacity:0;" transform="translate(121.072438 322.182437)scale(0.1 -0.1)">
       <defs>
        <path d="M 1228 531 
L 3431 531 
L 3431 0 
L 469 0 
L 469 531 
Q 828 903 1448 1529 
Q 2069 2156 2228 2338 
Q 2531 2678 2651 2914 
Q 2772 3150 2772 3378 
Q 2772 3750 2511 3984 
Q 2250 4219 1831 4219 
Q 1534 4219 1204 4116 
Q 875 4013 500 3803 
L 500 4441 
Q 881 4594 1212 4672 
Q 1544 4750 1819 4750 
Q 2544 4750 2975 4387 
Q 3406 4025 3406 3419 
Q 3406 3131 3298 2873 
Q 3191 2616 2906 2266 
Q 2828 2175 2409 1742 
Q 1991 1309 1228 531 
z
" id="DejaVuSans-32" transform="scale(0.015625)"/>
       </defs>
       <use xlink:href="#DejaVuSans-30"/>
       <use x="63.623047" xlink:href="#DejaVuSans-2e"/>
       <use x="95.410156" xlink:href="#DejaVuSans-32"/>
      </g>
     </g>
    </g>
    <g id="xtick_3">
     <g id="text_11">
      <!-- 0.4 -->
      <g style="opacity:0;" transform="translate(192.496438 322.182437)scale(0.1 -0.1)">
       <defs>
        <path d="M 2419 4116 
L 825 1625 
L 2419 1625 
L 2419 4116 
z
M 2253 4666 
L 3047 4666 
L 3047 1625 
L 3713 1625 
L 3713 1100 
L 3047 1100 
L 3047 0 
L 2419 0 
L 2419 1100 
L 313 1100 
L 313 1709 
L 2253 4666 
z
" id="DejaVuSans-34" transform="scale(0.015625)"/>
       </defs>
       <use xlink:href="#DejaVuSans-30"/>
       <use x="63.623047" xlink:href="#DejaVuSans-2e"/>
       <use x="95.410156" xlink:href="#DejaVuSans-34"/>
      </g>
     </g>
    </g>
    <g id="xtick_4">
     <g id="text_12">
      <!-- 0.6 -->
      <g style="opacity:0;" transform="translate(263.920438 322.182437)scale(0.1 -0.1)">
       <defs>
        <path d="M 2113 2584 
Q 1688 2584 1439 2293 
Q 1191 2003 1191 1497 
Q 1191 994 1439 701 
Q 1688 409 2113 409 
Q 2538 409 2786 701 
Q 3034 994 3034 1497 
Q 3034 2003 2786 2293 
Q 2538 2584 2113 2584 
z
M 3366 4563 
L 3366 3988 
Q 3128 4100 2886 4159 
Q 2644 4219 2406 4219 
Q 1781 4219 1451 3797 
Q 1122 3375 1075 2522 
Q 1259 2794 1537 2939 
Q 1816 3084 2150 3084 
Q 2853 3084 3261 2657 
Q 3669 2231 3669 1497 
Q 3669 778 3244 343 
Q 2819 -91 2113 -91 
Q 1303 -91 875 529 
Q 447 1150 447 2328 
Q 447 3434 972 4092 
Q 1497 4750 2381 4750 
Q 2619 4750 2861 4703 
Q 3103 4656 3366 4563 
z
" id="DejaVuSans-36" transform="scale(0.015625)"/>
       </defs>
       <use xlink:href="#DejaVuSans-30"/>
       <use x="63.623047" xlink:href="#DejaVuSans-2e"/>
       <use x="95.410156" xlink:href="#DejaVuSans-36"/>
      </g>
     </g>
    </g>
    <g id="xtick_5">
     <g id="text_13">
      <!-- 0.8 -->
      <g style="opacity:0;" transform="translate(335.344438 322.182437)scale(0.1 -0.1)">
       <defs>
        <path d="M 2034 2216 
Q 1584 2216 1326 1975 
Q 1069 1734 1069 1313 
Q 1069 891 1326 650 
Q 1584 409 2034 409 
Q 2484 409 2743 651 
Q 3003 894 3003 1313 
Q 3003 1734 2745 1975 
Q 2488 2216 2034 2216 
z
M 1403 2484 
Q 997 2584 770 2862 
Q 544 3141 544 3541 
Q 544 4100 942 4425 
Q 1341 4750 2034 4750 
Q 2731 4750 3128 4425 
Q 3525 4100 3525 3541 
Q 3525 3141 3298 2862 
Q 3072 2584 2669 2484 
Q 3125 2378 3379 2068 
Q 3634 1759 3634 1313 
Q 3634 634 3220 271 
Q 2806 -91 2034 -91 
Q 1263 -91 848 271 
Q 434 634 434 1313 
Q 434 1759 690 2068 
Q 947 2378 1403 2484 
z
M 1172 3481 
Q 1172 3119 1398 2916 
Q 1625 2713 2034 2713 
Q 2441 2713 2670 2916 
Q 2900 3119 2900 3481 
Q 2900 3844 2670 4047 
Q 2441 4250 2034 4250 
Q 1625 4250 1398 4047 
Q 1172 3844 1172 3481 
z
" id="DejaVuSans-38" transform="scale(0.015625)"/>
       </defs>
       <use xlink:href="#DejaVuSans-30"/>
       <use x="63.623047" xlink:href="#DejaVuSans-2e"/>
       <use x="95.410156" xlink:href="#DejaVuSans-38"/>
      </g>
     </g>
    </g>
    <g id="xtick_6">
     <g id="text_14">
      <!-- 1.0 -->
      <g style="opacity:0;" transform="translate(406.768438 322.182437)scale(0.1 -0.1)">
       <defs>
        <path d="M 794 531 
L 1825 531 
L 1825 4091 
L 703 3866 
L 703 4441 
L 1819 4666 
L 2450 4666 
L 2450 531 
L 3481 531 
L 3481 0 
L 794 0 
L 794 531 
z
" id="DejaVuSans-31" transform="scale(0.015625)"/>
       </defs>
       <use xlink:href="#DejaVuSans-31"/>
       <use x="63.623047" xlink:href="#DejaVuSans-2e"/>
       <use x="95.410156" xlink:href="#DejaVuSans-30"/>
      </g>
     </g>
    </g>
   </g>
   <g id="matplotlib.axis_26">
    <g id="ytick_25">
     <g id="text_15">
      <!-- 0.0 -->
      <g style="opacity:0;" transform="translate(34.696875 311.383219)scale(0.1 -0.1)">
       <use xlink:href="#DejaVuSans-30"/>
       <use x="63.623047" xlink:href="#DejaVuSans-2e"/>
       <use x="95.410156" xlink:href="#DejaVuSans-30"/>
      </g>
     </g>
    </g>
    <g id="ytick_26">
     <g id="text_16">
      <!-- 0.2 -->
      <g style="opacity:0;" transform="translate(34.696875 258.160819)scale(0.1 -0.1)">
       <use xlink:href="#DejaVuSans-30"/>
       <use x="63.623047" xlink:href="#DejaVuSans-2e"/>
       <use x="95.410156" xlink:href="#DejaVuSans-32"/>
      </g>
     </g>
    </g>
    <g id="ytick_27">
     <g id="text_17">
      <!-- 0.4 -->
      <g style="opacity:0;" transform="translate(34.696875 204.938419)scale(0.1 -0.1)">
       <use xlink:href="#DejaVuSans-30"/>
       <use x="63.623047" xlink:href="#DejaVuSans-2e"/>
       <use x="95.410156" xlink:href="#DejaVuSans-34"/>
      </g>
     </g>
    </g>
    <g id="ytick_28">
     <g id="text_18">
      <!-- 0.6 -->
      <g style="opacity:0;" transform="translate(34.696875 151.716019)scale(0.1 -0.1)">
       <use xlink:href="#DejaVuSans-30"/>
       <use x="63.623047" xlink:href="#DejaVuSans-2e"/>
       <use x="95.410156" xlink:href="#DejaVuSans-36"/>
      </g>
     </g>
    </g>
    <g id="ytick_29">
     <g id="text_19">
      <!-- 0.8 -->
      <g style="opacity:0;" transform="translate(34.696875 98.493619)scale(0.1 -0.1)">
       <use xlink:href="#DejaVuSans-30"/>
       <use x="63.623047" xlink:href="#DejaVuSans-2e"/>
       <use x="95.410156" xlink:href="#DejaVuSans-38"/>
      </g>
     </g>
    </g>
    <g id="ytick_30">
     <g id="text_20">
      <!-- 1.0 -->
      <g style="opacity:0;" transform="translate(34.696875 45.271219)scale(0.1 -0.1)">
       <use xlink:href="#DejaVuSans-31"/>
       <use x="63.623047" xlink:href="#DejaVuSans-2e"/>
       <use x="95.410156" xlink:href="#DejaVuSans-30"/>
      </g>
     </g>
    </g>
    <g id="text_21">
     <!-- Pearsons correlation -->
     <g transform="translate(28.617187 225.410812)rotate(-90)scale(0.1 -0.1)">
      <defs>
       <path d="M 1259 4147 
L 1259 2394 
L 2053 2394 
Q 2494 2394 2734 2622 
Q 2975 2850 2975 3272 
Q 2975 3691 2734 3919 
Q 2494 4147 2053 4147 
L 1259 4147 
z
M 628 4666 
L 2053 4666 
Q 2838 4666 3239 4311 
Q 3641 3956 3641 3272 
Q 3641 2581 3239 2228 
Q 2838 1875 2053 1875 
L 1259 1875 
L 1259 0 
L 628 0 
L 628 4666 
z
" id="DejaVuSans-50" transform="scale(0.015625)"/>
       <path d="M 3597 1894 
L 3597 1613 
L 953 1613 
Q 991 1019 1311 708 
Q 1631 397 2203 397 
Q 2534 397 2845 478 
Q 3156 559 3463 722 
L 3463 178 
Q 3153 47 2828 -22 
Q 2503 -91 2169 -91 
Q 1331 -91 842 396 
Q 353 884 353 1716 
Q 353 2575 817 3079 
Q 1281 3584 2069 3584 
Q 2775 3584 3186 3129 
Q 3597 2675 3597 1894 
z
M 3022 2063 
Q 3016 2534 2758 2815 
Q 2500 3097 2075 3097 
Q 1594 3097 1305 2825 
Q 1016 2553 972 2059 
L 3022 2063 
z
" id="DejaVuSans-65" transform="scale(0.015625)"/>
       <path d="M 2194 1759 
Q 1497 1759 1228 1600 
Q 959 1441 959 1056 
Q 959 750 1161 570 
Q 1363 391 1709 391 
Q 2188 391 2477 730 
Q 2766 1069 2766 1631 
L 2766 1759 
L 2194 1759 
z
M 3341 1997 
L 3341 0 
L 2766 0 
L 2766 531 
Q 2569 213 2275 61 
Q 1981 -91 1556 -91 
Q 1019 -91 701 211 
Q 384 513 384 1019 
Q 384 1609 779 1909 
Q 1175 2209 1959 2209 
L 2766 2209 
L 2766 2266 
Q 2766 2663 2505 2880 
Q 2244 3097 1772 3097 
Q 1472 3097 1187 3025 
Q 903 2953 641 2809 
L 641 3341 
Q 956 3463 1253 3523 
Q 1550 3584 1831 3584 
Q 2591 3584 2966 3190 
Q 3341 2797 3341 1997 
z
" id="DejaVuSans-61" transform="scale(0.015625)"/>
       <path d="M 2631 2963 
Q 2534 3019 2420 3045 
Q 2306 3072 2169 3072 
Q 1681 3072 1420 2755 
Q 1159 2438 1159 1844 
L 1159 0 
L 581 0 
L 581 3500 
L 1159 3500 
L 1159 2956 
Q 1341 3275 1631 3429 
Q 1922 3584 2338 3584 
Q 2397 3584 2469 3576 
Q 2541 3569 2628 3553 
L 2631 2963 
z
" id="DejaVuSans-72" transform="scale(0.015625)"/>
       <path d="M 2834 3397 
L 2834 2853 
Q 2591 2978 2328 3040 
Q 2066 3103 1784 3103 
Q 1356 3103 1142 2972 
Q 928 2841 928 2578 
Q 928 2378 1081 2264 
Q 1234 2150 1697 2047 
L 1894 2003 
Q 2506 1872 2764 1633 
Q 3022 1394 3022 966 
Q 3022 478 2636 193 
Q 2250 -91 1575 -91 
Q 1294 -91 989 -36 
Q 684 19 347 128 
L 347 722 
Q 666 556 975 473 
Q 1284 391 1588 391 
Q 1994 391 2212 530 
Q 2431 669 2431 922 
Q 2431 1156 2273 1281 
Q 2116 1406 1581 1522 
L 1381 1569 
Q 847 1681 609 1914 
Q 372 2147 372 2553 
Q 372 3047 722 3315 
Q 1072 3584 1716 3584 
Q 2034 3584 2315 3537 
Q 2597 3491 2834 3397 
z
" id="DejaVuSans-73" transform="scale(0.015625)"/>
       <path d="M 1959 3097 
Q 1497 3097 1228 2736 
Q 959 2375 959 1747 
Q 959 1119 1226 758 
Q 1494 397 1959 397 
Q 2419 397 2687 759 
Q 2956 1122 2956 1747 
Q 2956 2369 2687 2733 
Q 2419 3097 1959 3097 
z
M 1959 3584 
Q 2709 3584 3137 3096 
Q 3566 2609 3566 1747 
Q 3566 888 3137 398 
Q 2709 -91 1959 -91 
Q 1206 -91 779 398 
Q 353 888 353 1747 
Q 353 2609 779 3096 
Q 1206 3584 1959 3584 
z
" id="DejaVuSans-6f" transform="scale(0.015625)"/>
       <path d="M 3513 2113 
L 3513 0 
L 2938 0 
L 2938 2094 
Q 2938 2591 2744 2837 
Q 2550 3084 2163 3084 
Q 1697 3084 1428 2787 
Q 1159 2491 1159 1978 
L 1159 0 
L 581 0 
L 581 3500 
L 1159 3500 
L 1159 2956 
Q 1366 3272 1645 3428 
Q 1925 3584 2291 3584 
Q 2894 3584 3203 3211 
Q 3513 2838 3513 2113 
z
" id="DejaVuSans-6e" transform="scale(0.015625)"/>
       <path id="DejaVuSans-20" transform="scale(0.015625)"/>
       <path d="M 3122 3366 
L 3122 2828 
Q 2878 2963 2633 3030 
Q 2388 3097 2138 3097 
Q 1578 3097 1268 2742 
Q 959 2388 959 1747 
Q 959 1106 1268 751 
Q 1578 397 2138 397 
Q 2388 397 2633 464 
Q 2878 531 3122 666 
L 3122 134 
Q 2881 22 2623 -34 
Q 2366 -91 2075 -91 
Q 1284 -91 818 406 
Q 353 903 353 1747 
Q 353 2603 823 3093 
Q 1294 3584 2113 3584 
Q 2378 3584 2631 3529 
Q 2884 3475 3122 3366 
z
" id="DejaVuSans-63" transform="scale(0.015625)"/>
       <path d="M 603 4863 
L 1178 4863 
L 1178 0 
L 603 0 
L 603 4863 
z
" id="DejaVuSans-6c" transform="scale(0.015625)"/>
       <path d="M 1172 4494 
L 1172 3500 
L 2356 3500 
L 2356 3053 
L 1172 3053 
L 1172 1153 
Q 1172 725 1289 603 
Q 1406 481 1766 481 
L 2356 481 
L 2356 0 
L 1766 0 
Q 1100 0 847 248 
Q 594 497 594 1153 
L 594 3053 
L 172 3053 
L 172 3500 
L 594 3500 
L 594 4494 
L 1172 4494 
z
" id="DejaVuSans-74" transform="scale(0.015625)"/>
       <path d="M 603 3500 
L 1178 3500 
L 1178 0 
L 603 0 
L 603 3500 
z
M 603 4863 
L 1178 4863 
L 1178 4134 
L 603 4134 
L 603 4863 
z
" id="DejaVuSans-69" transform="scale(0.015625)"/>
      </defs>
      <use xlink:href="#DejaVuSans-50"/>
      <use x="56.677734" xlink:href="#DejaVuSans-65"/>
      <use x="118.201172" xlink:href="#DejaVuSans-61"/>
      <use x="179.480469" xlink:href="#DejaVuSans-72"/>
      <use x="220.59375" xlink:href="#DejaVuSans-73"/>
      <use x="272.693359" xlink:href="#DejaVuSans-6f"/>
      <use x="333.875" xlink:href="#DejaVuSans-6e"/>
      <use x="397.253906" xlink:href="#DejaVuSans-73"/>
      <use x="449.353516" xlink:href="#DejaVuSans-20"/>
      <use x="481.140625" xlink:href="#DejaVuSans-63"/>
      <use x="536.121094" xlink:href="#DejaVuSans-6f"/>
      <use x="597.302734" xlink:href="#DejaVuSans-72"/>
      <use x="636.666016" xlink:href="#DejaVuSans-72"/>
      <use x="675.529297" xlink:href="#DejaVuSans-65"/>
      <use x="737.052734" xlink:href="#DejaVuSans-6c"/>
      <use x="764.835938" xlink:href="#DejaVuSans-61"/>
      <use x="826.115234" xlink:href="#DejaVuSans-74"/>
      <use x="865.324219" xlink:href="#DejaVuSans-69"/>
      <use x="893.107422" xlink:href="#DejaVuSans-6f"/>
      <use x="954.289062" xlink:href="#DejaVuSans-6e"/>
     </g>
    </g>
   </g>
  </g>
  <g id="legend_1">
   <g id="patch_150">
    <path d="M 592.645 88.594375 
L 640.12 88.594375 
Q 642.12 88.594375 642.12 86.594375 
L 642.12 43.56 
Q 642.12 41.56 640.12 41.56 
L 592.645 41.56 
Q 590.645 41.56 590.645 43.56 
L 590.645 86.594375 
Q 590.645 88.594375 592.645 88.594375 
z
" style="fill:#4c4c4c;opacity:0.5;stroke:#4c4c4c;stroke-linejoin:miter;"/>
   </g>
   <g id="patch_151">
    <path d="M 590.645 86.594375 
L 638.12 86.594375 
Q 640.12 86.594375 640.12 84.594375 
L 640.12 41.56 
Q 640.12 39.56 638.12 39.56 
L 590.645 39.56 
Q 588.645 39.56 588.645 41.56 
L 588.645 84.594375 
Q 588.645 86.594375 590.645 86.594375 
z
" style="fill:#ffffff;stroke:#cccccc;stroke-linejoin:miter;"/>
   </g>
   <g id="patch_152">
    <path d="M 592.645 51.158437 
L 612.645 51.158437 
L 612.645 44.158437 
L 592.645 44.158437 
z
" style="stroke:#000000;stroke-linejoin:miter;"/>
   </g>
   <g id="text_22">
    <!-- big -->
    <g transform="translate(620.645 51.158437)scale(0.1 -0.1)">
     <defs>
      <path d="M 3116 1747 
Q 3116 2381 2855 2742 
Q 2594 3103 2138 3103 
Q 1681 3103 1420 2742 
Q 1159 2381 1159 1747 
Q 1159 1113 1420 752 
Q 1681 391 2138 391 
Q 2594 391 2855 752 
Q 3116 1113 3116 1747 
z
M 1159 2969 
Q 1341 3281 1617 3432 
Q 1894 3584 2278 3584 
Q 2916 3584 3314 3078 
Q 3713 2572 3713 1747 
Q 3713 922 3314 415 
Q 2916 -91 2278 -91 
Q 1894 -91 1617 61 
Q 1341 213 1159 525 
L 1159 0 
L 581 0 
L 581 4863 
L 1159 4863 
L 1159 2969 
z
" id="DejaVuSans-62" transform="scale(0.015625)"/>
      <path d="M 2906 1791 
Q 2906 2416 2648 2759 
Q 2391 3103 1925 3103 
Q 1463 3103 1205 2759 
Q 947 2416 947 1791 
Q 947 1169 1205 825 
Q 1463 481 1925 481 
Q 2391 481 2648 825 
Q 2906 1169 2906 1791 
z
M 3481 434 
Q 3481 -459 3084 -895 
Q 2688 -1331 1869 -1331 
Q 1566 -1331 1297 -1286 
Q 1028 -1241 775 -1147 
L 775 -588 
Q 1028 -725 1275 -790 
Q 1522 -856 1778 -856 
Q 2344 -856 2625 -561 
Q 2906 -266 2906 331 
L 2906 616 
Q 2728 306 2450 153 
Q 2172 0 1784 0 
Q 1141 0 747 490 
Q 353 981 353 1791 
Q 353 2603 747 3093 
Q 1141 3584 1784 3584 
Q 2172 3584 2450 3431 
Q 2728 3278 2906 2969 
L 2906 3500 
L 3481 3500 
L 3481 434 
z
" id="DejaVuSans-67" transform="scale(0.015625)"/>
     </defs>
     <use xlink:href="#DejaVuSans-62"/>
     <use x="63.476562" xlink:href="#DejaVuSans-69"/>
     <use x="91.259766" xlink:href="#DejaVuSans-67"/>
    </g>
   </g>
   <g id="patch_153">
    <path d="M 592.645 65.836563 
L 612.645 65.836563 
L 612.645 58.836563 
L 592.645 58.836563 
z
" style="fill:#1f77b4;stroke:#1f77b4;stroke-linejoin:miter;"/>
   </g>
   <g id="text_23">
    <!-- 2 -->
    <g transform="translate(620.645 65.836563)scale(0.1 -0.1)">
     <use xlink:href="#DejaVuSans-32"/>
    </g>
   </g>
   <g id="patch_154">
    <path d="M 592.645 80.514687 
L 612.645 80.514687 
L 612.645 73.514687 
L 592.645 73.514687 
z
" style="fill:#aec7e8;stroke:#aec7e8;stroke-linejoin:miter;"/>
   </g>
   <g id="text_24">
    <!-- 1 -->
    <g transform="translate(620.645 80.514687)scale(0.1 -0.1)">
     <use xlink:href="#DejaVuSans-31"/>
    </g>
   </g>
  </g>
 </g>
 <defs>
  <clipPath id="pae0206f000">
   <rect height="57.850435" width="105.035294" x="57.6" y="41.472"/>
  </clipPath>
  <clipPath id="pacc4c039dd">
   <rect height="57.850435" width="105.035294" x="183.642353" y="41.472"/>
  </clipPath>
  <clipPath id="p006ae734d3">
   <rect height="57.850435" width="105.035294" x="309.684706" y="41.472"/>
  </clipPath>
  <clipPath id="pa7cc352660">
   <rect height="57.850435" width="105.035294" x="57.6" y="110.892522"/>
  </clipPath>
  <clipPath id="p965fe11bc6">
   <rect height="57.850435" width="105.035294" x="183.642353" y="110.892522"/>
  </clipPath>
  <clipPath id="p5b4284498e">
   <rect height="57.850435" width="105.035294" x="309.684706" y="110.892522"/>
  </clipPath>
  <clipPath id="pa3d5eef109">
   <rect height="57.850435" width="105.035294" x="57.6" y="180.313043"/>
  </clipPath>
  <clipPath id="p30c7c88cc2">
   <rect height="57.850435" width="105.035294" x="183.642353" y="180.313043"/>
  </clipPath>
  <clipPath id="p49986756cb">
   <rect height="57.850435" width="105.035294" x="309.684706" y="180.313043"/>
  </clipPath>
  <clipPath id="p782fc57b15">
   <rect height="57.850435" width="105.035294" x="57.6" y="249.733565"/>
  </clipPath>
 </defs>
</svg>
