<?xml version="1.0" encoding="utf-8" standalone="no"?>
<!DOCTYPE svg PUBLIC "-//W3C//DTD SVG 1.1//EN"
  "http://www.w3.org/Graphics/SVG/1.1/DTD/svg11.dtd">
<svg height="300.989344pt" version="1.1" viewBox="0 0 633.50125 300.989344" width="633.50125pt" xmlns="http://www.w3.org/2000/svg" xmlns:xlink="http://www.w3.org/1999/xlink">
 <metadata>
  <rdf:RDF xmlns:cc="http://creativecommons.org/ns#" xmlns:dc="http://purl.org/dc/elements/1.1/" xmlns:rdf="http://www.w3.org/1999/02/22-rdf-syntax-ns#">
   <cc:Work>
    <dc:type rdf:resource="http://purl.org/dc/dcmitype/StillImage"/>
    <dc:date>2021-12-06T10:12:47.677237</dc:date>
    <dc:format>image/svg+xml</dc:format>
    <dc:creator>
     <cc:Agent>
      <dc:title>Matplotlib v3.4.3, https://matplotlib.org/</dc:title>
     </cc:Agent>
    </dc:creator>
   </cc:Work>
  </rdf:RDF>
 </metadata>
 <defs>
  <style type="text/css">*{stroke-linecap:butt;stroke-linejoin:round;}</style>
 </defs>
 <g id="figure_1">
  <g id="patch_1">
   <path d="M 0 300.989344 
L 633.50125 300.989344 
L 633.50125 0 
L 0 0 
z
" style="fill:#ffffff;"/>
  </g>
  <g id="axes_1">
   <g id="patch_2">
    <path d="M 43.78125 89.267454 
L 206.108523 89.267454 
L 206.108523 10.999219 
L 43.78125 10.999219 
z
" style="fill:#ffffff;"/>
   </g>
   <g id="patch_3">
    <path clip-path="url(#p258dbb09f2)" d="M 51.159762 89.267454 
L 71.514279 89.267454 
L 71.514279 88.245705 
L 51.159762 88.245705 
z
"/>
   </g>
   <g id="patch_4">
    <path clip-path="url(#p258dbb09f2)" d="M 76.602909 89.267454 
L 96.957426 89.267454 
L 96.957426 85.811275 
L 76.602909 85.811275 
z
"/>
   </g>
   <g id="patch_5">
    <path clip-path="url(#p258dbb09f2)" d="M 102.046055 89.267454 
L 122.400572 89.267454 
L 122.400572 86.760407 
L 102.046055 86.760407 
z
"/>
   </g>
   <g id="patch_6">
    <path clip-path="url(#p258dbb09f2)" d="M 127.489201 89.267454 
L 147.843718 89.267454 
L 147.843718 84.812324 
L 127.489201 84.812324 
z
"/>
   </g>
   <g id="patch_7">
    <path clip-path="url(#p258dbb09f2)" d="M 152.932347 89.267454 
L 173.286864 89.267454 
L 173.286864 87.717299 
L 152.932347 87.717299 
z
" style="fill:#aec7e8;"/>
   </g>
   <g id="patch_8">
    <path clip-path="url(#p258dbb09f2)" d="M 178.375493 89.267454 
L 198.73001 89.267454 
L 198.73001 22.180395 
L 178.375493 22.180395 
z
" style="fill:#aec7e8;"/>
   </g>
   <g id="patch_9">
    <path clip-path="url(#p258dbb09f2)" d="M 51.159762 88.245705 
L 71.514279 88.245705 
L 71.514279 88.132178 
L 51.159762 88.132178 
z
"/>
   </g>
   <g id="patch_10">
    <path clip-path="url(#p258dbb09f2)" d="M 76.602909 85.811275 
L 96.957426 85.811275 
L 96.957426 85.427255 
L 76.602909 85.427255 
z
" style="fill:#1f77b4;"/>
   </g>
   <g id="patch_11">
    <path clip-path="url(#p258dbb09f2)" d="M 102.046055 86.760407 
L 122.400572 86.760407 
L 122.400572 86.481846 
L 102.046055 86.481846 
z
" style="fill:#1f77b4;"/>
   </g>
   <g id="patch_12">
    <path clip-path="url(#p258dbb09f2)" d="M 127.489201 84.812324 
L 147.843718 84.812324 
L 147.843718 84.317309 
L 127.489201 84.317309 
z
" style="fill:#aec7e8;"/>
   </g>
   <g id="patch_13">
    <path clip-path="url(#p258dbb09f2)" d="M 152.932347 87.717299 
L 173.286864 87.717299 
L 173.286864 87.545059 
L 152.932347 87.545059 
z
"/>
   </g>
   <g id="patch_14">
    <path clip-path="url(#p258dbb09f2)" d="M 178.375493 22.180395 
L 198.73001 22.180395 
L 198.73001 14.726278 
L 178.375493 14.726278 
z
" style="fill:#1f77b4;"/>
   </g>
   <g id="matplotlib.axis_1"/>
   <g id="matplotlib.axis_2">
    <g id="ytick_1">
     <g id="line2d_1">
      <defs>
       <path d="M 0 0 
L -3.5 0 
" id="m9b87a919cc" style="stroke:#000000;stroke-width:0.8;"/>
      </defs>
      <g>
       <use style="stroke:#000000;stroke-width:0.8;" x="43.78125" xlink:href="#m9b87a919cc" y="89.267454"/>
      </g>
     </g>
     <g id="text_1">
      <!-- 0.0 -->
      <g transform="translate(20.878125 93.066673)scale(0.1 -0.1)">
       <defs>
        <path d="M 2034 4250 
Q 1547 4250 1301 3770 
Q 1056 3291 1056 2328 
Q 1056 1369 1301 889 
Q 1547 409 2034 409 
Q 2525 409 2770 889 
Q 3016 1369 3016 2328 
Q 3016 3291 2770 3770 
Q 2525 4250 2034 4250 
z
M 2034 4750 
Q 2819 4750 3233 4129 
Q 3647 3509 3647 2328 
Q 3647 1150 3233 529 
Q 2819 -91 2034 -91 
Q 1250 -91 836 529 
Q 422 1150 422 2328 
Q 422 3509 836 4129 
Q 1250 4750 2034 4750 
z
" id="DejaVuSans-30" transform="scale(0.015625)"/>
        <path d="M 684 794 
L 1344 794 
L 1344 0 
L 684 0 
L 684 794 
z
" id="DejaVuSans-2e" transform="scale(0.015625)"/>
       </defs>
       <use xlink:href="#DejaVuSans-30"/>
       <use x="63.623047" xlink:href="#DejaVuSans-2e"/>
       <use x="95.410156" xlink:href="#DejaVuSans-30"/>
      </g>
     </g>
    </g>
    <g id="ytick_2">
     <g id="line2d_2">
      <g>
       <use style="stroke:#000000;stroke-width:0.8;" x="43.78125" xlink:href="#m9b87a919cc" y="40.803386"/>
      </g>
     </g>
     <g id="text_2">
      <!-- 0.5 -->
      <g transform="translate(20.878125 44.602605)scale(0.1 -0.1)">
       <defs>
        <path d="M 691 4666 
L 3169 4666 
L 3169 4134 
L 1269 4134 
L 1269 2991 
Q 1406 3038 1543 3061 
Q 1681 3084 1819 3084 
Q 2600 3084 3056 2656 
Q 3513 2228 3513 1497 
Q 3513 744 3044 326 
Q 2575 -91 1722 -91 
Q 1428 -91 1123 -41 
Q 819 9 494 109 
L 494 744 
Q 775 591 1075 516 
Q 1375 441 1709 441 
Q 2250 441 2565 725 
Q 2881 1009 2881 1497 
Q 2881 1984 2565 2268 
Q 2250 2553 1709 2553 
Q 1456 2553 1204 2497 
Q 953 2441 691 2322 
L 691 4666 
z
" id="DejaVuSans-35" transform="scale(0.015625)"/>
       </defs>
       <use xlink:href="#DejaVuSans-30"/>
       <use x="63.623047" xlink:href="#DejaVuSans-2e"/>
       <use x="95.410156" xlink:href="#DejaVuSans-35"/>
      </g>
     </g>
    </g>
   </g>
   <g id="patch_15">
    <path d="M 43.78125 89.267454 
L 43.78125 10.999219 
" style="fill:none;stroke:#000000;stroke-linecap:square;stroke-linejoin:miter;stroke-width:0.8;"/>
   </g>
   <g id="patch_16">
    <path d="M 206.108523 89.267454 
L 206.108523 10.999219 
" style="fill:none;stroke:#000000;stroke-linecap:square;stroke-linejoin:miter;stroke-width:0.8;"/>
   </g>
   <g id="patch_17">
    <path d="M 43.78125 89.267454 
L 206.108523 89.267454 
" style="fill:none;stroke:#000000;stroke-linecap:square;stroke-linejoin:miter;stroke-width:0.8;"/>
   </g>
   <g id="patch_18">
    <path d="M 43.78125 10.999219 
L 206.108523 10.999219 
" style="fill:none;stroke:#000000;stroke-linecap:square;stroke-linejoin:miter;stroke-width:0.8;"/>
   </g>
  </g>
  <g id="axes_2">
   <g id="patch_19">
    <path d="M 238.573977 89.267454 
L 400.90125 89.267454 
L 400.90125 10.999219 
L 238.573977 10.999219 
z
" style="fill:#ffffff;"/>
   </g>
   <g id="patch_20">
    <path clip-path="url(#p7becdc5612)" d="M 245.95249 89.267454 
L 266.307007 89.267454 
L 266.307007 89.000172 
L 245.95249 89.000172 
z
"/>
   </g>
   <g id="patch_21">
    <path clip-path="url(#p7becdc5612)" d="M 271.395636 89.267454 
L 291.750153 89.267454 
L 291.750153 87.106182 
L 271.395636 87.106182 
z
"/>
   </g>
   <g id="patch_22">
    <path clip-path="url(#p7becdc5612)" d="M 296.838782 89.267454 
L 317.193299 89.267454 
L 317.193299 86.175707 
L 296.838782 86.175707 
z
"/>
   </g>
   <g id="patch_23">
    <path clip-path="url(#p7becdc5612)" d="M 322.281928 89.267454 
L 342.636445 89.267454 
L 342.636445 89.064509 
L 322.281928 89.064509 
z
"/>
   </g>
   <g id="patch_24">
    <path clip-path="url(#p7becdc5612)" d="M 347.725074 89.267454 
L 368.079591 89.267454 
L 368.079591 89.008333 
L 347.725074 89.008333 
z
" style="fill:#1f77b4;"/>
   </g>
   <g id="patch_25">
    <path clip-path="url(#p7becdc5612)" d="M 373.168221 89.267454 
L 393.522738 89.267454 
L 393.522738 27.852448 
L 373.168221 27.852448 
z
" style="fill:#1f77b4;"/>
   </g>
   <g id="patch_26">
    <path clip-path="url(#p7becdc5612)" d="M 245.95249 89.000172 
L 266.307007 89.000172 
L 266.307007 88.970474 
L 245.95249 88.970474 
z
"/>
   </g>
   <g id="patch_27">
    <path clip-path="url(#p7becdc5612)" d="M 271.395636 87.106182 
L 291.750153 87.106182 
L 291.750153 86.86604 
L 271.395636 86.86604 
z
" style="fill:#1f77b4;"/>
   </g>
   <g id="patch_28">
    <path clip-path="url(#p7becdc5612)" d="M 296.838782 86.175707 
L 317.193299 86.175707 
L 317.193299 85.83218 
L 296.838782 85.83218 
z
" style="fill:#aec7e8;"/>
   </g>
   <g id="patch_29">
    <path clip-path="url(#p7becdc5612)" d="M 322.281928 89.064509 
L 342.636445 89.064509 
L 342.636445 89.04196 
L 322.281928 89.04196 
z
" style="fill:#aec7e8;"/>
   </g>
   <g id="patch_30">
    <path clip-path="url(#p7becdc5612)" d="M 347.725074 89.008333 
L 368.079591 89.008333 
L 368.079591 88.979541 
L 347.725074 88.979541 
z
"/>
   </g>
   <g id="patch_31">
    <path clip-path="url(#p7becdc5612)" d="M 373.168221 27.852448 
L 393.522738 27.852448 
L 393.522738 21.028559 
L 373.168221 21.028559 
z
" style="fill:#aec7e8;"/>
   </g>
   <g id="matplotlib.axis_3"/>
   <g id="matplotlib.axis_4">
    <g id="ytick_3">
     <g id="line2d_3">
      <g>
       <use style="stroke:#000000;stroke-width:0.8;" x="238.573977" xlink:href="#m9b87a919cc" y="89.267454"/>
      </g>
     </g>
    </g>
    <g id="ytick_4">
     <g id="line2d_4">
      <g>
       <use style="stroke:#000000;stroke-width:0.8;" x="238.573977" xlink:href="#m9b87a919cc" y="40.803386"/>
      </g>
     </g>
    </g>
   </g>
   <g id="patch_32">
    <path d="M 238.573977 89.267454 
L 238.573977 10.999219 
" style="fill:none;stroke:#000000;stroke-linecap:square;stroke-linejoin:miter;stroke-width:0.8;"/>
   </g>
   <g id="patch_33">
    <path d="M 400.90125 89.267454 
L 400.90125 10.999219 
" style="fill:none;stroke:#000000;stroke-linecap:square;stroke-linejoin:miter;stroke-width:0.8;"/>
   </g>
   <g id="patch_34">
    <path d="M 238.573977 89.267454 
L 400.90125 89.267454 
" style="fill:none;stroke:#000000;stroke-linecap:square;stroke-linejoin:miter;stroke-width:0.8;"/>
   </g>
   <g id="patch_35">
    <path d="M 238.573977 10.999219 
L 400.90125 10.999219 
" style="fill:none;stroke:#000000;stroke-linecap:square;stroke-linejoin:miter;stroke-width:0.8;"/>
   </g>
  </g>
  <g id="axes_3">
   <g id="patch_36">
    <path d="M 43.78125 183.189336 
L 206.108523 183.189336 
L 206.108523 104.921101 
L 43.78125 104.921101 
z
" style="fill:#ffffff;"/>
   </g>
   <g id="patch_37">
    <path clip-path="url(#pabd066eb5d)" d="M 51.159762 183.189336 
L 93.32269 183.189336 
L 93.32269 178.00075 
L 51.159762 178.00075 
z
"/>
   </g>
   <g id="patch_38">
    <path clip-path="url(#pabd066eb5d)" d="M 103.863422 183.189336 
L 146.02635 183.189336 
L 146.02635 177.08416 
L 103.863422 177.08416 
z
" style="fill:#1f77b4;"/>
   </g>
   <g id="patch_39">
    <path clip-path="url(#pabd066eb5d)" d="M 156.567082 183.189336 
L 198.73001 183.189336 
L 198.73001 126.595401 
L 156.567082 126.595401 
z
" style="fill:#1f77b4;"/>
   </g>
   <g id="patch_40">
    <path clip-path="url(#pabd066eb5d)" d="M 51.159762 178.00075 
L 93.32269 178.00075 
L 93.32269 177.42424 
L 51.159762 177.42424 
z
" style="fill:#aec7e8;"/>
   </g>
   <g id="patch_41">
    <path clip-path="url(#pabd066eb5d)" d="M 103.863422 177.08416 
L 146.02635 177.08416 
L 146.02635 176.405807 
L 103.863422 176.405807 
z
"/>
   </g>
   <g id="patch_42">
    <path clip-path="url(#pabd066eb5d)" d="M 156.567082 126.595401 
L 198.73001 126.595401 
L 198.73001 120.307186 
L 156.567082 120.307186 
z
" style="fill:#aec7e8;"/>
   </g>
   <g id="matplotlib.axis_5"/>
   <g id="matplotlib.axis_6">
    <g id="ytick_5">
     <g id="line2d_5">
      <g>
       <use style="stroke:#000000;stroke-width:0.8;" x="43.78125" xlink:href="#m9b87a919cc" y="183.189336"/>
      </g>
     </g>
     <g id="text_3">
      <!-- 0.0 -->
      <g transform="translate(20.878125 186.988555)scale(0.1 -0.1)">
       <use xlink:href="#DejaVuSans-30"/>
       <use x="63.623047" xlink:href="#DejaVuSans-2e"/>
       <use x="95.410156" xlink:href="#DejaVuSans-30"/>
      </g>
     </g>
    </g>
    <g id="ytick_6">
     <g id="line2d_6">
      <g>
       <use style="stroke:#000000;stroke-width:0.8;" x="43.78125" xlink:href="#m9b87a919cc" y="134.725268"/>
      </g>
     </g>
     <g id="text_4">
      <!-- 0.5 -->
      <g transform="translate(20.878125 138.524487)scale(0.1 -0.1)">
       <use xlink:href="#DejaVuSans-30"/>
       <use x="63.623047" xlink:href="#DejaVuSans-2e"/>
       <use x="95.410156" xlink:href="#DejaVuSans-35"/>
      </g>
     </g>
    </g>
   </g>
   <g id="patch_43">
    <path d="M 43.78125 183.189336 
L 43.78125 104.921101 
" style="fill:none;stroke:#000000;stroke-linecap:square;stroke-linejoin:miter;stroke-width:0.8;"/>
   </g>
   <g id="patch_44">
    <path d="M 206.108523 183.189336 
L 206.108523 104.921101 
" style="fill:none;stroke:#000000;stroke-linecap:square;stroke-linejoin:miter;stroke-width:0.8;"/>
   </g>
   <g id="patch_45">
    <path d="M 43.78125 183.189336 
L 206.108523 183.189336 
" style="fill:none;stroke:#000000;stroke-linecap:square;stroke-linejoin:miter;stroke-width:0.8;"/>
   </g>
   <g id="patch_46">
    <path d="M 43.78125 104.921101 
L 206.108523 104.921101 
" style="fill:none;stroke:#000000;stroke-linecap:square;stroke-linejoin:miter;stroke-width:0.8;"/>
   </g>
  </g>
  <g id="axes_4">
   <g id="patch_47">
    <path d="M 238.573977 183.189336 
L 400.90125 183.189336 
L 400.90125 104.921101 
L 238.573977 104.921101 
z
" style="fill:#ffffff;"/>
   </g>
   <g id="patch_48">
    <path clip-path="url(#p98b5243257)" d="M 245.95249 183.189336 
L 266.307007 183.189336 
L 266.307007 182.625185 
L 245.95249 182.625185 
z
"/>
   </g>
   <g id="patch_49">
    <path clip-path="url(#p98b5243257)" d="M 271.395636 183.189336 
L 291.750153 183.189336 
L 291.750153 178.388326 
L 271.395636 178.388326 
z
"/>
   </g>
   <g id="patch_50">
    <path clip-path="url(#p98b5243257)" d="M 296.838782 183.189336 
L 317.193299 183.189336 
L 317.193299 178.554016 
L 296.838782 178.554016 
z
"/>
   </g>
   <g id="patch_51">
    <path clip-path="url(#p98b5243257)" d="M 322.281928 183.189336 
L 342.636445 183.189336 
L 342.636445 176.994916 
L 322.281928 176.994916 
z
"/>
   </g>
   <g id="patch_52">
    <path clip-path="url(#p98b5243257)" d="M 347.725074 183.189336 
L 368.079591 183.189336 
L 368.079591 182.305703 
L 347.725074 182.305703 
z
" style="fill:#aec7e8;"/>
   </g>
   <g id="patch_53">
    <path clip-path="url(#p98b5243257)" d="M 373.168221 183.189336 
L 393.522738 183.189336 
L 393.522738 129.968819 
L 373.168221 129.968819 
z
" style="fill:#aec7e8;"/>
   </g>
   <g id="patch_54">
    <path clip-path="url(#p98b5243257)" d="M 245.95249 182.625185 
L 266.307007 182.625185 
L 266.307007 182.562502 
L 245.95249 182.562502 
z
"/>
   </g>
   <g id="patch_55">
    <path clip-path="url(#p98b5243257)" d="M 271.395636 178.388326 
L 291.750153 178.388326 
L 291.750153 177.854881 
L 271.395636 177.854881 
z
" style="fill:#1f77b4;"/>
   </g>
   <g id="patch_56">
    <path clip-path="url(#p98b5243257)" d="M 296.838782 178.554016 
L 317.193299 178.554016 
L 317.193299 178.03898 
L 296.838782 178.03898 
z
" style="fill:#1f77b4;"/>
   </g>
   <g id="patch_57">
    <path clip-path="url(#p98b5243257)" d="M 322.281928 176.994916 
L 342.636445 176.994916 
L 342.636445 176.306647 
L 322.281928 176.306647 
z
" style="fill:#aec7e8;"/>
   </g>
   <g id="patch_58">
    <path clip-path="url(#p98b5243257)" d="M 347.725074 182.305703 
L 368.079591 182.305703 
L 368.079591 182.207522 
L 347.725074 182.207522 
z
"/>
   </g>
   <g id="patch_59">
    <path clip-path="url(#p98b5243257)" d="M 373.168221 129.968819 
L 393.522738 129.968819 
L 393.522738 124.055428 
L 373.168221 124.055428 
z
" style="fill:#1f77b4;"/>
   </g>
   <g id="matplotlib.axis_7"/>
   <g id="matplotlib.axis_8">
    <g id="ytick_7">
     <g id="line2d_7">
      <g>
       <use style="stroke:#000000;stroke-width:0.8;" x="238.573977" xlink:href="#m9b87a919cc" y="183.189336"/>
      </g>
     </g>
    </g>
    <g id="ytick_8">
     <g id="line2d_8">
      <g>
       <use style="stroke:#000000;stroke-width:0.8;" x="238.573977" xlink:href="#m9b87a919cc" y="134.725268"/>
      </g>
     </g>
    </g>
   </g>
   <g id="patch_60">
    <path d="M 238.573977 183.189336 
L 238.573977 104.921101 
" style="fill:none;stroke:#000000;stroke-linecap:square;stroke-linejoin:miter;stroke-width:0.8;"/>
   </g>
   <g id="patch_61">
    <path d="M 400.90125 183.189336 
L 400.90125 104.921101 
" style="fill:none;stroke:#000000;stroke-linecap:square;stroke-linejoin:miter;stroke-width:0.8;"/>
   </g>
   <g id="patch_62">
    <path d="M 238.573977 183.189336 
L 400.90125 183.189336 
" style="fill:none;stroke:#000000;stroke-linecap:square;stroke-linejoin:miter;stroke-width:0.8;"/>
   </g>
   <g id="patch_63">
    <path d="M 238.573977 104.921101 
L 400.90125 104.921101 
" style="fill:none;stroke:#000000;stroke-linecap:square;stroke-linejoin:miter;stroke-width:0.8;"/>
   </g>
  </g>
  <g id="axes_5">
   <g id="patch_64">
    <path d="M 43.78125 277.111219 
L 206.108523 277.111219 
L 206.108523 198.842983 
L 43.78125 198.842983 
z
" style="fill:#ffffff;"/>
   </g>
   <g id="patch_65">
    <path clip-path="url(#p37c91585b3)" d="M 51.159762 277.111219 
L 71.514279 277.111219 
L 71.514279 274.727025 
L 51.159762 274.727025 
z
"/>
   </g>
   <g id="patch_66">
    <path clip-path="url(#p37c91585b3)" d="M 76.602909 277.111219 
L 96.957426 277.111219 
L 96.957426 274.077679 
L 76.602909 274.077679 
z
"/>
   </g>
   <g id="patch_67">
    <path clip-path="url(#p37c91585b3)" d="M 102.046055 277.111219 
L 122.400572 277.111219 
L 122.400572 274.562511 
L 102.046055 274.562511 
z
"/>
   </g>
   <g id="patch_68">
    <path clip-path="url(#p37c91585b3)" d="M 127.489201 277.111219 
L 147.843718 277.111219 
L 147.843718 270.555912 
L 127.489201 270.555912 
z
"/>
   </g>
   <g id="patch_69">
    <path clip-path="url(#p37c91585b3)" d="M 152.932347 277.111219 
L 173.286864 277.111219 
L 173.286864 276.534955 
L 152.932347 276.534955 
z
" style="fill:#aec7e8;"/>
   </g>
   <g id="patch_70">
    <path clip-path="url(#p37c91585b3)" d="M 178.375493 277.111219 
L 198.73001 277.111219 
L 198.73001 224.549417 
L 178.375493 224.549417 
z
" style="fill:#aec7e8;"/>
   </g>
   <g id="patch_71">
    <path clip-path="url(#p37c91585b3)" d="M 51.159762 274.727025 
L 71.514279 274.727025 
L 71.514279 274.462115 
L 51.159762 274.462115 
z
"/>
   </g>
   <g id="patch_72">
    <path clip-path="url(#p37c91585b3)" d="M 76.602909 274.077679 
L 96.957426 274.077679 
L 96.957426 273.740619 
L 76.602909 273.740619 
z
" style="fill:#1f77b4;"/>
   </g>
   <g id="patch_73">
    <path clip-path="url(#p37c91585b3)" d="M 102.046055 274.562511 
L 122.400572 274.562511 
L 122.400572 274.279321 
L 102.046055 274.279321 
z
" style="fill:#1f77b4;"/>
   </g>
   <g id="patch_74">
    <path clip-path="url(#p37c91585b3)" d="M 127.489201 270.555912 
L 147.843718 270.555912 
L 147.843718 269.827545 
L 127.489201 269.827545 
z
" style="fill:#aec7e8;"/>
   </g>
   <g id="patch_75">
    <path clip-path="url(#p37c91585b3)" d="M 152.932347 276.534955 
L 173.286864 276.534955 
L 173.286864 276.470926 
L 152.932347 276.470926 
z
"/>
   </g>
   <g id="patch_76">
    <path clip-path="url(#p37c91585b3)" d="M 178.375493 224.549417 
L 198.73001 224.549417 
L 198.73001 218.709217 
L 178.375493 218.709217 
z
" style="fill:#1f77b4;"/>
   </g>
   <g id="matplotlib.axis_9"/>
   <g id="matplotlib.axis_10">
    <g id="ytick_9">
     <g id="line2d_9">
      <g>
       <use style="stroke:#000000;stroke-width:0.8;" x="43.78125" xlink:href="#m9b87a919cc" y="277.111219"/>
      </g>
     </g>
     <g id="text_5">
      <!-- 0.0 -->
      <g transform="translate(20.878125 280.910437)scale(0.1 -0.1)">
       <use xlink:href="#DejaVuSans-30"/>
       <use x="63.623047" xlink:href="#DejaVuSans-2e"/>
       <use x="95.410156" xlink:href="#DejaVuSans-30"/>
      </g>
     </g>
    </g>
    <g id="ytick_10">
     <g id="line2d_10">
      <g>
       <use style="stroke:#000000;stroke-width:0.8;" x="43.78125" xlink:href="#m9b87a919cc" y="228.64715"/>
      </g>
     </g>
     <g id="text_6">
      <!-- 0.5 -->
      <g transform="translate(20.878125 232.446369)scale(0.1 -0.1)">
       <use xlink:href="#DejaVuSans-30"/>
       <use x="63.623047" xlink:href="#DejaVuSans-2e"/>
       <use x="95.410156" xlink:href="#DejaVuSans-35"/>
      </g>
     </g>
    </g>
   </g>
   <g id="patch_77">
    <path d="M 43.78125 277.111219 
L 43.78125 198.842983 
" style="fill:none;stroke:#000000;stroke-linecap:square;stroke-linejoin:miter;stroke-width:0.8;"/>
   </g>
   <g id="patch_78">
    <path d="M 206.108523 277.111219 
L 206.108523 198.842983 
" style="fill:none;stroke:#000000;stroke-linecap:square;stroke-linejoin:miter;stroke-width:0.8;"/>
   </g>
   <g id="patch_79">
    <path d="M 43.78125 277.111219 
L 206.108523 277.111219 
" style="fill:none;stroke:#000000;stroke-linecap:square;stroke-linejoin:miter;stroke-width:0.8;"/>
   </g>
   <g id="patch_80">
    <path d="M 43.78125 198.842983 
L 206.108523 198.842983 
" style="fill:none;stroke:#000000;stroke-linecap:square;stroke-linejoin:miter;stroke-width:0.8;"/>
   </g>
  </g>
  <g id="axes_6">
   <g id="patch_81">
    <path d="M 238.573977 277.111219 
L 400.90125 277.111219 
L 400.90125 198.842983 
L 238.573977 198.842983 
z
" style="fill:#ffffff;"/>
   </g>
   <g id="matplotlib.axis_11"/>
   <g id="matplotlib.axis_12">
    <g id="ytick_11">
     <g id="line2d_11">
      <g>
       <use style="stroke:#000000;stroke-width:0.8;" x="238.573977" xlink:href="#m9b87a919cc" y="277.111219"/>
      </g>
     </g>
    </g>
    <g id="ytick_12">
     <g id="line2d_12">
      <g>
       <use style="stroke:#000000;stroke-width:0.8;" x="238.573977" xlink:href="#m9b87a919cc" y="228.64715"/>
      </g>
     </g>
    </g>
   </g>
   <g id="patch_82">
    <path d="M 238.573977 277.111219 
L 238.573977 198.842983 
" style="fill:none;stroke:#000000;stroke-linecap:square;stroke-linejoin:miter;stroke-width:0.8;"/>
   </g>
   <g id="patch_83">
    <path d="M 400.90125 277.111219 
L 400.90125 198.842983 
" style="fill:none;stroke:#000000;stroke-linecap:square;stroke-linejoin:miter;stroke-width:0.8;"/>
   </g>
   <g id="patch_84">
    <path d="M 238.573977 277.111219 
L 400.90125 277.111219 
" style="fill:none;stroke:#000000;stroke-linecap:square;stroke-linejoin:miter;stroke-width:0.8;"/>
   </g>
   <g id="patch_85">
    <path d="M 238.573977 198.842983 
L 400.90125 198.842983 
" style="fill:none;stroke:#000000;stroke-linecap:square;stroke-linejoin:miter;stroke-width:0.8;"/>
   </g>
  </g>
  <g id="axes_7">
   <g id="matplotlib.axis_13">
    <g id="xtick_1">
     <g id="text_7">
      <!-- 0.0 -->
      <g style="opacity:0;" transform="translate(35.829688 291.709656)scale(0.1 -0.1)">
       <use xlink:href="#DejaVuSans-30"/>
       <use x="63.623047" xlink:href="#DejaVuSans-2e"/>
       <use x="95.410156" xlink:href="#DejaVuSans-30"/>
      </g>
     </g>
    </g>
    <g id="xtick_2">
     <g id="text_8">
      <!-- 0.2 -->
      <g style="opacity:0;" transform="translate(107.253688 291.709656)scale(0.1 -0.1)">
       <defs>
        <path d="M 1228 531 
L 3431 531 
L 3431 0 
L 469 0 
L 469 531 
Q 828 903 1448 1529 
Q 2069 2156 2228 2338 
Q 2531 2678 2651 2914 
Q 2772 3150 2772 3378 
Q 2772 3750 2511 3984 
Q 2250 4219 1831 4219 
Q 1534 4219 1204 4116 
Q 875 4013 500 3803 
L 500 4441 
Q 881 4594 1212 4672 
Q 1544 4750 1819 4750 
Q 2544 4750 2975 4387 
Q 3406 4025 3406 3419 
Q 3406 3131 3298 2873 
Q 3191 2616 2906 2266 
Q 2828 2175 2409 1742 
Q 1991 1309 1228 531 
z
" id="DejaVuSans-32" transform="scale(0.015625)"/>
       </defs>
       <use xlink:href="#DejaVuSans-30"/>
       <use x="63.623047" xlink:href="#DejaVuSans-2e"/>
       <use x="95.410156" xlink:href="#DejaVuSans-32"/>
      </g>
     </g>
    </g>
    <g id="xtick_3">
     <g id="text_9">
      <!-- 0.4 -->
      <g style="opacity:0;" transform="translate(178.677688 291.709656)scale(0.1 -0.1)">
       <defs>
        <path d="M 2419 4116 
L 825 1625 
L 2419 1625 
L 2419 4116 
z
M 2253 4666 
L 3047 4666 
L 3047 1625 
L 3713 1625 
L 3713 1100 
L 3047 1100 
L 3047 0 
L 2419 0 
L 2419 1100 
L 313 1100 
L 313 1709 
L 2253 4666 
z
" id="DejaVuSans-34" transform="scale(0.015625)"/>
       </defs>
       <use xlink:href="#DejaVuSans-30"/>
       <use x="63.623047" xlink:href="#DejaVuSans-2e"/>
       <use x="95.410156" xlink:href="#DejaVuSans-34"/>
      </g>
     </g>
    </g>
    <g id="xtick_4">
     <g id="text_10">
      <!-- 0.6 -->
      <g style="opacity:0;" transform="translate(250.101688 291.709656)scale(0.1 -0.1)">
       <defs>
        <path d="M 2113 2584 
Q 1688 2584 1439 2293 
Q 1191 2003 1191 1497 
Q 1191 994 1439 701 
Q 1688 409 2113 409 
Q 2538 409 2786 701 
Q 3034 994 3034 1497 
Q 3034 2003 2786 2293 
Q 2538 2584 2113 2584 
z
M 3366 4563 
L 3366 3988 
Q 3128 4100 2886 4159 
Q 2644 4219 2406 4219 
Q 1781 4219 1451 3797 
Q 1122 3375 1075 2522 
Q 1259 2794 1537 2939 
Q 1816 3084 2150 3084 
Q 2853 3084 3261 2657 
Q 3669 2231 3669 1497 
Q 3669 778 3244 343 
Q 2819 -91 2113 -91 
Q 1303 -91 875 529 
Q 447 1150 447 2328 
Q 447 3434 972 4092 
Q 1497 4750 2381 4750 
Q 2619 4750 2861 4703 
Q 3103 4656 3366 4563 
z
" id="DejaVuSans-36" transform="scale(0.015625)"/>
       </defs>
       <use xlink:href="#DejaVuSans-30"/>
       <use x="63.623047" xlink:href="#DejaVuSans-2e"/>
       <use x="95.410156" xlink:href="#DejaVuSans-36"/>
      </g>
     </g>
    </g>
    <g id="xtick_5">
     <g id="text_11">
      <!-- 0.8 -->
      <g style="opacity:0;" transform="translate(321.525688 291.709656)scale(0.1 -0.1)">
       <defs>
        <path d="M 2034 2216 
Q 1584 2216 1326 1975 
Q 1069 1734 1069 1313 
Q 1069 891 1326 650 
Q 1584 409 2034 409 
Q 2484 409 2743 651 
Q 3003 894 3003 1313 
Q 3003 1734 2745 1975 
Q 2488 2216 2034 2216 
z
M 1403 2484 
Q 997 2584 770 2862 
Q 544 3141 544 3541 
Q 544 4100 942 4425 
Q 1341 4750 2034 4750 
Q 2731 4750 3128 4425 
Q 3525 4100 3525 3541 
Q 3525 3141 3298 2862 
Q 3072 2584 2669 2484 
Q 3125 2378 3379 2068 
Q 3634 1759 3634 1313 
Q 3634 634 3220 271 
Q 2806 -91 2034 -91 
Q 1263 -91 848 271 
Q 434 634 434 1313 
Q 434 1759 690 2068 
Q 947 2378 1403 2484 
z
M 1172 3481 
Q 1172 3119 1398 2916 
Q 1625 2713 2034 2713 
Q 2441 2713 2670 2916 
Q 2900 3119 2900 3481 
Q 2900 3844 2670 4047 
Q 2441 4250 2034 4250 
Q 1625 4250 1398 4047 
Q 1172 3844 1172 3481 
z
" id="DejaVuSans-38" transform="scale(0.015625)"/>
       </defs>
       <use xlink:href="#DejaVuSans-30"/>
       <use x="63.623047" xlink:href="#DejaVuSans-2e"/>
       <use x="95.410156" xlink:href="#DejaVuSans-38"/>
      </g>
     </g>
    </g>
    <g id="xtick_6">
     <g id="text_12">
      <!-- 1.0 -->
      <g style="opacity:0;" transform="translate(392.949688 291.709656)scale(0.1 -0.1)">
       <defs>
        <path d="M 794 531 
L 1825 531 
L 1825 4091 
L 703 3866 
L 703 4441 
L 1819 4666 
L 2450 4666 
L 2450 531 
L 3481 531 
L 3481 0 
L 794 0 
L 794 531 
z
" id="DejaVuSans-31" transform="scale(0.015625)"/>
       </defs>
       <use xlink:href="#DejaVuSans-31"/>
       <use x="63.623047" xlink:href="#DejaVuSans-2e"/>
       <use x="95.410156" xlink:href="#DejaVuSans-30"/>
      </g>
     </g>
    </g>
   </g>
   <g id="matplotlib.axis_14">
    <g id="ytick_13">
     <g id="text_13">
      <!-- 0.0 -->
      <g style="opacity:0;" transform="translate(20.878125 280.910437)scale(0.1 -0.1)">
       <use xlink:href="#DejaVuSans-30"/>
       <use x="63.623047" xlink:href="#DejaVuSans-2e"/>
       <use x="95.410156" xlink:href="#DejaVuSans-30"/>
      </g>
     </g>
    </g>
    <g id="ytick_14">
     <g id="text_14">
      <!-- 0.2 -->
      <g style="opacity:0;" transform="translate(20.878125 227.688037)scale(0.1 -0.1)">
       <use xlink:href="#DejaVuSans-30"/>
       <use x="63.623047" xlink:href="#DejaVuSans-2e"/>
       <use x="95.410156" xlink:href="#DejaVuSans-32"/>
      </g>
     </g>
    </g>
    <g id="ytick_15">
     <g id="text_15">
      <!-- 0.4 -->
      <g style="opacity:0;" transform="translate(20.878125 174.465637)scale(0.1 -0.1)">
       <use xlink:href="#DejaVuSans-30"/>
       <use x="63.623047" xlink:href="#DejaVuSans-2e"/>
       <use x="95.410156" xlink:href="#DejaVuSans-34"/>
      </g>
     </g>
    </g>
    <g id="ytick_16">
     <g id="text_16">
      <!-- 0.6 -->
      <g style="opacity:0;" transform="translate(20.878125 121.243237)scale(0.1 -0.1)">
       <use xlink:href="#DejaVuSans-30"/>
       <use x="63.623047" xlink:href="#DejaVuSans-2e"/>
       <use x="95.410156" xlink:href="#DejaVuSans-36"/>
      </g>
     </g>
    </g>
    <g id="ytick_17">
     <g id="text_17">
      <!-- 0.8 -->
      <g style="opacity:0;" transform="translate(20.878125 68.020837)scale(0.1 -0.1)">
       <use xlink:href="#DejaVuSans-30"/>
       <use x="63.623047" xlink:href="#DejaVuSans-2e"/>
       <use x="95.410156" xlink:href="#DejaVuSans-38"/>
      </g>
     </g>
    </g>
    <g id="ytick_18">
     <g id="text_18">
      <!-- 1.0 -->
      <g style="opacity:0;" transform="translate(20.878125 14.798437)scale(0.1 -0.1)">
       <use xlink:href="#DejaVuSans-31"/>
       <use x="63.623047" xlink:href="#DejaVuSans-2e"/>
       <use x="95.410156" xlink:href="#DejaVuSans-30"/>
      </g>
     </g>
    </g>
    <g id="text_19">
     <!-- Pearsons correlation -->
     <g transform="translate(14.798438 194.938031)rotate(-90)scale(0.1 -0.1)">
      <defs>
       <path d="M 1259 4147 
L 1259 2394 
L 2053 2394 
Q 2494 2394 2734 2622 
Q 2975 2850 2975 3272 
Q 2975 3691 2734 3919 
Q 2494 4147 2053 4147 
L 1259 4147 
z
M 628 4666 
L 2053 4666 
Q 2838 4666 3239 4311 
Q 3641 3956 3641 3272 
Q 3641 2581 3239 2228 
Q 2838 1875 2053 1875 
L 1259 1875 
L 1259 0 
L 628 0 
L 628 4666 
z
" id="DejaVuSans-50" transform="scale(0.015625)"/>
       <path d="M 3597 1894 
L 3597 1613 
L 953 1613 
Q 991 1019 1311 708 
Q 1631 397 2203 397 
Q 2534 397 2845 478 
Q 3156 559 3463 722 
L 3463 178 
Q 3153 47 2828 -22 
Q 2503 -91 2169 -91 
Q 1331 -91 842 396 
Q 353 884 353 1716 
Q 353 2575 817 3079 
Q 1281 3584 2069 3584 
Q 2775 3584 3186 3129 
Q 3597 2675 3597 1894 
z
M 3022 2063 
Q 3016 2534 2758 2815 
Q 2500 3097 2075 3097 
Q 1594 3097 1305 2825 
Q 1016 2553 972 2059 
L 3022 2063 
z
" id="DejaVuSans-65" transform="scale(0.015625)"/>
       <path d="M 2194 1759 
Q 1497 1759 1228 1600 
Q 959 1441 959 1056 
Q 959 750 1161 570 
Q 1363 391 1709 391 
Q 2188 391 2477 730 
Q 2766 1069 2766 1631 
L 2766 1759 
L 2194 1759 
z
M 3341 1997 
L 3341 0 
L 2766 0 
L 2766 531 
Q 2569 213 2275 61 
Q 1981 -91 1556 -91 
Q 1019 -91 701 211 
Q 384 513 384 1019 
Q 384 1609 779 1909 
Q 1175 2209 1959 2209 
L 2766 2209 
L 2766 2266 
Q 2766 2663 2505 2880 
Q 2244 3097 1772 3097 
Q 1472 3097 1187 3025 
Q 903 2953 641 2809 
L 641 3341 
Q 956 3463 1253 3523 
Q 1550 3584 1831 3584 
Q 2591 3584 2966 3190 
Q 3341 2797 3341 1997 
z
" id="DejaVuSans-61" transform="scale(0.015625)"/>
       <path d="M 2631 2963 
Q 2534 3019 2420 3045 
Q 2306 3072 2169 3072 
Q 1681 3072 1420 2755 
Q 1159 2438 1159 1844 
L 1159 0 
L 581 0 
L 581 3500 
L 1159 3500 
L 1159 2956 
Q 1341 3275 1631 3429 
Q 1922 3584 2338 3584 
Q 2397 3584 2469 3576 
Q 2541 3569 2628 3553 
L 2631 2963 
z
" id="DejaVuSans-72" transform="scale(0.015625)"/>
       <path d="M 2834 3397 
L 2834 2853 
Q 2591 2978 2328 3040 
Q 2066 3103 1784 3103 
Q 1356 3103 1142 2972 
Q 928 2841 928 2578 
Q 928 2378 1081 2264 
Q 1234 2150 1697 2047 
L 1894 2003 
Q 2506 1872 2764 1633 
Q 3022 1394 3022 966 
Q 3022 478 2636 193 
Q 2250 -91 1575 -91 
Q 1294 -91 989 -36 
Q 684 19 347 128 
L 347 722 
Q 666 556 975 473 
Q 1284 391 1588 391 
Q 1994 391 2212 530 
Q 2431 669 2431 922 
Q 2431 1156 2273 1281 
Q 2116 1406 1581 1522 
L 1381 1569 
Q 847 1681 609 1914 
Q 372 2147 372 2553 
Q 372 3047 722 3315 
Q 1072 3584 1716 3584 
Q 2034 3584 2315 3537 
Q 2597 3491 2834 3397 
z
" id="DejaVuSans-73" transform="scale(0.015625)"/>
       <path d="M 1959 3097 
Q 1497 3097 1228 2736 
Q 959 2375 959 1747 
Q 959 1119 1226 758 
Q 1494 397 1959 397 
Q 2419 397 2687 759 
Q 2956 1122 2956 1747 
Q 2956 2369 2687 2733 
Q 2419 3097 1959 3097 
z
M 1959 3584 
Q 2709 3584 3137 3096 
Q 3566 2609 3566 1747 
Q 3566 888 3137 398 
Q 2709 -91 1959 -91 
Q 1206 -91 779 398 
Q 353 888 353 1747 
Q 353 2609 779 3096 
Q 1206 3584 1959 3584 
z
" id="DejaVuSans-6f" transform="scale(0.015625)"/>
       <path d="M 3513 2113 
L 3513 0 
L 2938 0 
L 2938 2094 
Q 2938 2591 2744 2837 
Q 2550 3084 2163 3084 
Q 1697 3084 1428 2787 
Q 1159 2491 1159 1978 
L 1159 0 
L 581 0 
L 581 3500 
L 1159 3500 
L 1159 2956 
Q 1366 3272 1645 3428 
Q 1925 3584 2291 3584 
Q 2894 3584 3203 3211 
Q 3513 2838 3513 2113 
z
" id="DejaVuSans-6e" transform="scale(0.015625)"/>
       <path id="DejaVuSans-20" transform="scale(0.015625)"/>
       <path d="M 3122 3366 
L 3122 2828 
Q 2878 2963 2633 3030 
Q 2388 3097 2138 3097 
Q 1578 3097 1268 2742 
Q 959 2388 959 1747 
Q 959 1106 1268 751 
Q 1578 397 2138 397 
Q 2388 397 2633 464 
Q 2878 531 3122 666 
L 3122 134 
Q 2881 22 2623 -34 
Q 2366 -91 2075 -91 
Q 1284 -91 818 406 
Q 353 903 353 1747 
Q 353 2603 823 3093 
Q 1294 3584 2113 3584 
Q 2378 3584 2631 3529 
Q 2884 3475 3122 3366 
z
" id="DejaVuSans-63" transform="scale(0.015625)"/>
       <path d="M 603 4863 
L 1178 4863 
L 1178 0 
L 603 0 
L 603 4863 
z
" id="DejaVuSans-6c" transform="scale(0.015625)"/>
       <path d="M 1172 4494 
L 1172 3500 
L 2356 3500 
L 2356 3053 
L 1172 3053 
L 1172 1153 
Q 1172 725 1289 603 
Q 1406 481 1766 481 
L 2356 481 
L 2356 0 
L 1766 0 
Q 1100 0 847 248 
Q 594 497 594 1153 
L 594 3053 
L 172 3053 
L 172 3500 
L 594 3500 
L 594 4494 
L 1172 4494 
z
" id="DejaVuSans-74" transform="scale(0.015625)"/>
       <path d="M 603 3500 
L 1178 3500 
L 1178 0 
L 603 0 
L 603 3500 
z
M 603 4863 
L 1178 4863 
L 1178 4134 
L 603 4134 
L 603 4863 
z
" id="DejaVuSans-69" transform="scale(0.015625)"/>
      </defs>
      <use xlink:href="#DejaVuSans-50"/>
      <use x="56.677734" xlink:href="#DejaVuSans-65"/>
      <use x="118.201172" xlink:href="#DejaVuSans-61"/>
      <use x="179.480469" xlink:href="#DejaVuSans-72"/>
      <use x="220.59375" xlink:href="#DejaVuSans-73"/>
      <use x="272.693359" xlink:href="#DejaVuSans-6f"/>
      <use x="333.875" xlink:href="#DejaVuSans-6e"/>
      <use x="397.253906" xlink:href="#DejaVuSans-73"/>
      <use x="449.353516" xlink:href="#DejaVuSans-20"/>
      <use x="481.140625" xlink:href="#DejaVuSans-63"/>
      <use x="536.121094" xlink:href="#DejaVuSans-6f"/>
      <use x="597.302734" xlink:href="#DejaVuSans-72"/>
      <use x="636.666016" xlink:href="#DejaVuSans-72"/>
      <use x="675.529297" xlink:href="#DejaVuSans-65"/>
      <use x="737.052734" xlink:href="#DejaVuSans-6c"/>
      <use x="764.835938" xlink:href="#DejaVuSans-61"/>
      <use x="826.115234" xlink:href="#DejaVuSans-74"/>
      <use x="865.324219" xlink:href="#DejaVuSans-69"/>
      <use x="893.107422" xlink:href="#DejaVuSans-6f"/>
      <use x="954.289062" xlink:href="#DejaVuSans-6e"/>
     </g>
    </g>
   </g>
  </g>
  <g id="legend_1">
   <g id="patch_86">
    <path d="M 578.82625 58.121594 
L 626.30125 58.121594 
Q 628.30125 58.121594 628.30125 56.121594 
L 628.30125 13.087219 
Q 628.30125 11.087219 626.30125 11.087219 
L 578.82625 11.087219 
Q 576.82625 11.087219 576.82625 13.087219 
L 576.82625 56.121594 
Q 576.82625 58.121594 578.82625 58.121594 
z
" style="fill:#4c4c4c;opacity:0.5;stroke:#4c4c4c;stroke-linejoin:miter;"/>
   </g>
   <g id="patch_87">
    <path d="M 576.82625 56.121594 
L 624.30125 56.121594 
Q 626.30125 56.121594 626.30125 54.121594 
L 626.30125 11.087219 
Q 626.30125 9.087219 624.30125 9.087219 
L 576.82625 9.087219 
Q 574.82625 9.087219 574.82625 11.087219 
L 574.82625 54.121594 
Q 574.82625 56.121594 576.82625 56.121594 
z
" style="fill:#ffffff;stroke:#cccccc;stroke-linejoin:miter;"/>
   </g>
   <g id="patch_88">
    <path d="M 578.82625 20.685656 
L 598.82625 20.685656 
L 598.82625 13.685656 
L 578.82625 13.685656 
z
" style="stroke:#000000;stroke-linejoin:miter;"/>
   </g>
   <g id="text_20">
    <!-- big -->
    <g transform="translate(606.82625 20.685656)scale(0.1 -0.1)">
     <defs>
      <path d="M 3116 1747 
Q 3116 2381 2855 2742 
Q 2594 3103 2138 3103 
Q 1681 3103 1420 2742 
Q 1159 2381 1159 1747 
Q 1159 1113 1420 752 
Q 1681 391 2138 391 
Q 2594 391 2855 752 
Q 3116 1113 3116 1747 
z
M 1159 2969 
Q 1341 3281 1617 3432 
Q 1894 3584 2278 3584 
Q 2916 3584 3314 3078 
Q 3713 2572 3713 1747 
Q 3713 922 3314 415 
Q 2916 -91 2278 -91 
Q 1894 -91 1617 61 
Q 1341 213 1159 525 
L 1159 0 
L 581 0 
L 581 4863 
L 1159 4863 
L 1159 2969 
z
" id="DejaVuSans-62" transform="scale(0.015625)"/>
      <path d="M 2906 1791 
Q 2906 2416 2648 2759 
Q 2391 3103 1925 3103 
Q 1463 3103 1205 2759 
Q 947 2416 947 1791 
Q 947 1169 1205 825 
Q 1463 481 1925 481 
Q 2391 481 2648 825 
Q 2906 1169 2906 1791 
z
M 3481 434 
Q 3481 -459 3084 -895 
Q 2688 -1331 1869 -1331 
Q 1566 -1331 1297 -1286 
Q 1028 -1241 775 -1147 
L 775 -588 
Q 1028 -725 1275 -790 
Q 1522 -856 1778 -856 
Q 2344 -856 2625 -561 
Q 2906 -266 2906 331 
L 2906 616 
Q 2728 306 2450 153 
Q 2172 0 1784 0 
Q 1141 0 747 490 
Q 353 981 353 1791 
Q 353 2603 747 3093 
Q 1141 3584 1784 3584 
Q 2172 3584 2450 3431 
Q 2728 3278 2906 2969 
L 2906 3500 
L 3481 3500 
L 3481 434 
z
" id="DejaVuSans-67" transform="scale(0.015625)"/>
     </defs>
     <use xlink:href="#DejaVuSans-62"/>
     <use x="63.476562" xlink:href="#DejaVuSans-69"/>
     <use x="91.259766" xlink:href="#DejaVuSans-67"/>
    </g>
   </g>
   <g id="patch_89">
    <path d="M 578.82625 35.363781 
L 598.82625 35.363781 
L 598.82625 28.363781 
L 578.82625 28.363781 
z
" style="fill:#1f77b4;stroke:#1f77b4;stroke-linejoin:miter;"/>
   </g>
   <g id="text_21">
    <!-- s1 -->
    <g transform="translate(606.82625 35.363781)scale(0.1 -0.1)">
     <use xlink:href="#DejaVuSans-73"/>
     <use x="52.099609" xlink:href="#DejaVuSans-31"/>
    </g>
   </g>
   <g id="patch_90">
    <path d="M 578.82625 50.041906 
L 598.82625 50.041906 
L 598.82625 43.041906 
L 578.82625 43.041906 
z
" style="fill:#aec7e8;stroke:#aec7e8;stroke-linejoin:miter;"/>
   </g>
   <g id="text_22">
    <!-- s2 -->
    <g transform="translate(606.82625 50.041906)scale(0.1 -0.1)">
     <use xlink:href="#DejaVuSans-73"/>
     <use x="52.099609" xlink:href="#DejaVuSans-32"/>
    </g>
   </g>
  </g>
 </g>
 <defs>
  <clipPath id="p258dbb09f2">
   <rect height="78.268235" width="162.327273" x="43.78125" y="10.999219"/>
  </clipPath>
  <clipPath id="p7becdc5612">
   <rect height="78.268235" width="162.327273" x="238.573977" y="10.999219"/>
  </clipPath>
  <clipPath id="pabd066eb5d">
   <rect height="78.268235" width="162.327273" x="43.78125" y="104.921101"/>
  </clipPath>
  <clipPath id="p98b5243257">
   <rect height="78.268235" width="162.327273" x="238.573977" y="104.921101"/>
  </clipPath>
  <clipPath id="p37c91585b3">
   <rect height="78.268235" width="162.327273" x="43.78125" y="198.842983"/>
  </clipPath>
 </defs>
</svg>
