<?xml version="1.0" encoding="utf-8" standalone="no"?>
<!DOCTYPE svg PUBLIC "-//W3C//DTD SVG 1.1//EN"
  "http://www.w3.org/Graphics/SVG/1.1/DTD/svg11.dtd">
<svg height="345.6pt" version="1.1" viewBox="0 0 460.8 345.6" width="460.8pt" xmlns="http://www.w3.org/2000/svg" xmlns:xlink="http://www.w3.org/1999/xlink">
 <metadata>
  <rdf:RDF xmlns:cc="http://creativecommons.org/ns#" xmlns:dc="http://purl.org/dc/elements/1.1/" xmlns:rdf="http://www.w3.org/1999/02/22-rdf-syntax-ns#">
   <cc:Work>
    <dc:type rdf:resource="http://purl.org/dc/dcmitype/StillImage"/>
    <dc:date>2021-11-24T22:48:33.761045</dc:date>
    <dc:format>image/svg+xml</dc:format>
    <dc:creator>
     <cc:Agent>
      <dc:title>Matplotlib v3.4.3, https://matplotlib.org/</dc:title>
     </cc:Agent>
    </dc:creator>
   </cc:Work>
  </rdf:RDF>
 </metadata>
 <defs>
  <style type="text/css">*{stroke-linecap:butt;stroke-linejoin:round;}</style>
 </defs>
 <g id="figure_1">
  <g id="patch_1">
   <path d="M 0 345.6 
L 460.8 345.6 
L 460.8 0 
L 0 0 
z
" style="fill:#ffffff;"/>
  </g>
  <g id="axes_1">
   <g id="patch_2">
    <path d="M 47.81 303.64 
L 442.035 303.64 
L 442.035 37.968 
L 47.81 37.968 
z
" style="fill:#ffffff;"/>
   </g>
   <g id="PolyCollection_1">
    <path clip-path="url(#p4dc026706f)" d="M -24.26491 303.312129 
L -24.26491 303.64 
L -21.321785 303.64 
L -18.37866 303.64 
L -15.435536 303.64 
L -12.492411 303.64 
L -9.549286 303.64 
L -6.606162 303.64 
L -3.663037 303.64 
L -0.719912 303.64 
L 2.223213 303.64 
L 5.166337 303.64 
L 8.109462 303.64 
L 11.052587 303.64 
L 13.995712 303.64 
L 16.938836 303.64 
L 19.881961 303.64 
L 22.825086 303.64 
L 25.76821 303.64 
L 28.711335 303.64 
L 31.65446 303.64 
L 34.597585 303.64 
L 37.540709 303.64 
L 40.483834 303.64 
L 43.426959 303.64 
L 46.370083 303.64 
L 49.313208 303.64 
L 52.256333 303.64 
L 55.199458 303.64 
L 58.142582 303.64 
L 61.085707 303.64 
L 64.028832 303.64 
L 66.971957 303.64 
L 69.915081 303.64 
L 72.858206 303.64 
L 75.801331 303.64 
L 78.744455 303.64 
L 81.68758 303.64 
L 84.630705 303.64 
L 87.57383 303.64 
L 90.516954 303.64 
L 93.460079 303.64 
L 96.403204 303.64 
L 99.346328 303.64 
L 102.289453 303.64 
L 105.232578 303.64 
L 108.175703 303.64 
L 111.118827 303.64 
L 114.061952 303.64 
L 117.005077 303.64 
L 119.948202 303.64 
L 122.891326 303.64 
L 125.834451 303.64 
L 128.777576 303.64 
L 131.7207 303.64 
L 134.663825 303.64 
L 137.60695 303.64 
L 140.550075 303.64 
L 143.493199 303.64 
L 146.436324 303.64 
L 149.379449 303.64 
L 152.322573 303.64 
L 155.265698 303.64 
L 158.208823 303.64 
L 161.151948 303.64 
L 164.095072 303.64 
L 167.038197 303.64 
L 169.981322 303.64 
L 172.924447 303.64 
L 175.867571 303.64 
L 178.810696 303.64 
L 181.753821 303.64 
L 184.696945 303.64 
L 187.64007 303.64 
L 190.583195 303.64 
L 193.52632 303.64 
L 196.469444 303.64 
L 199.412569 303.64 
L 202.355694 303.64 
L 205.298818 303.64 
L 208.241943 303.64 
L 211.185068 303.64 
L 214.128193 303.64 
L 217.071317 303.64 
L 220.014442 303.64 
L 222.957567 303.64 
L 225.900692 303.64 
L 228.843816 303.64 
L 231.786941 303.64 
L 234.730066 303.64 
L 237.67319 303.64 
L 240.616315 303.64 
L 243.55944 303.64 
L 246.502565 303.64 
L 249.445689 303.64 
L 252.388814 303.64 
L 255.331939 303.64 
L 258.275063 303.64 
L 261.218188 303.64 
L 264.161313 303.64 
L 267.104438 303.64 
L 270.047562 303.64 
L 272.990687 303.64 
L 275.933812 303.64 
L 278.876937 303.64 
L 281.820061 303.64 
L 284.763186 303.64 
L 287.706311 303.64 
L 290.649435 303.64 
L 293.59256 303.64 
L 296.535685 303.64 
L 299.47881 303.64 
L 302.421934 303.64 
L 305.365059 303.64 
L 308.308184 303.64 
L 311.251308 303.64 
L 314.194433 303.64 
L 317.137558 303.64 
L 320.080683 303.64 
L 323.023807 303.64 
L 325.966932 303.64 
L 328.910057 303.64 
L 331.853182 303.64 
L 334.796306 303.64 
L 337.739431 303.64 
L 340.682556 303.64 
L 343.62568 303.64 
L 346.568805 303.64 
L 349.51193 303.64 
L 352.455055 303.64 
L 355.398179 303.64 
L 358.341304 303.64 
L 361.284429 303.64 
L 364.227553 303.64 
L 367.170678 303.64 
L 370.113803 303.64 
L 373.056928 303.64 
L 376.000052 303.64 
L 378.943177 303.64 
L 381.886302 303.64 
L 384.829427 303.64 
L 387.772551 303.64 
L 390.715676 303.64 
L 393.658801 303.64 
L 396.601925 303.64 
L 399.54505 303.64 
L 402.488175 303.64 
L 405.4313 303.64 
L 408.374424 303.64 
L 411.317549 303.64 
L 414.260674 303.64 
L 417.203798 303.64 
L 420.146923 303.64 
L 423.090048 303.64 
L 426.033173 303.64 
L 428.976297 303.64 
L 431.919422 303.64 
L 434.862547 303.64 
L 437.805672 303.64 
L 440.748796 303.64 
L 443.691921 303.64 
L 446.635046 303.64 
L 449.57817 303.64 
L 452.521295 303.64 
L 455.46442 303.64 
L 458.407545 303.64 
L 461.350669 303.64 
L 464.293794 303.64 
L 467.236919 303.64 
L 470.180043 303.64 
L 473.123168 303.64 
L 476.066293 303.64 
L 479.009418 303.64 
L 481.952542 303.64 
L 484.895667 303.64 
L 487.838792 303.64 
L 490.781917 303.64 
L 493.725041 303.64 
L 496.668166 303.64 
L 499.611291 303.64 
L 502.554415 303.64 
L 505.49754 303.64 
L 508.440665 303.64 
L 511.38379 303.64 
L 514.326914 303.64 
L 517.270039 303.64 
L 520.213164 303.64 
L 523.156288 303.64 
L 526.099413 303.64 
L 529.042538 303.64 
L 531.985663 303.64 
L 534.928787 303.64 
L 537.871912 303.64 
L 540.815037 303.64 
L 543.758162 303.64 
L 546.701286 303.64 
L 549.644411 303.64 
L 552.587536 303.64 
L 555.53066 303.64 
L 558.473785 303.64 
L 561.41691 303.64 
L 561.41691 302.8463 
L 561.41691 302.8463 
L 558.473785 302.644491 
L 555.53066 302.397907 
L 552.587536 302.098348 
L 549.644411 301.736532 
L 546.701286 301.302051 
L 543.758162 300.783341 
L 540.815037 300.167681 
L 537.871912 299.441226 
L 534.928787 298.589068 
L 531.985663 297.595353 
L 529.042538 296.443431 
L 526.099413 295.116066 
L 523.156288 293.595696 
L 520.213164 291.864745 
L 517.270039 289.905993 
L 514.326914 287.702991 
L 511.38379 285.240523 
L 508.440665 282.505105 
L 505.49754 279.485504 
L 502.554415 276.173274 
L 499.611291 272.563285 
L 496.668166 268.654234 
L 493.725041 264.44911 
L 490.781917 259.955606 
L 487.838792 255.186446 
L 484.895667 250.159616 
L 481.952542 244.898482 
L 479.009418 239.431771 
L 476.066293 233.793423 
L 473.123168 228.022288 
L 470.180043 222.161677 
L 467.236919 216.258768 
L 464.293794 210.363881 
L 461.350669 204.529623 
L 458.407545 198.809944 
L 455.46442 193.259109 
L 452.521295 187.930624 
L 449.57817 182.876144 
L 446.635046 178.144403 
L 443.691921 173.780182 
L 440.748796 169.823365 
L 437.805672 166.308103 
L 434.862547 163.262114 
L 431.919422 160.706133 
L 428.976297 158.653542 
L 426.033173 157.110176 
L 423.090048 156.074317 
L 420.146923 155.536863 
L 417.203798 155.481674 
L 414.260674 155.886068 
L 411.317549 156.721463 
L 408.374424 157.954123 
L 405.4313 159.545999 
L 402.488175 161.455621 
L 399.54505 163.639034 
L 396.601925 166.050734 
L 393.658801 168.64458 
L 390.715676 171.374674 
L 387.772551 174.196175 
L 384.829427 177.066034 
L 381.886302 179.943644 
L 378.943177 182.791391 
L 376.000052 185.575106 
L 373.056928 188.26441 
L 370.113803 190.832959 
L 367.170678 193.258594 
L 364.227553 195.523397 
L 361.284429 197.613662 
L 358.341304 199.519798 
L 355.398179 201.236151 
L 352.455055 202.760786 
L 349.51193 204.095207 
L 346.568805 205.244049 
L 343.62568 206.214732 
L 340.682556 207.017102 
L 337.739431 207.663055 
L 334.796306 208.166157 
L 331.853182 208.541269 
L 328.910057 208.804179 
L 325.966932 208.971254 
L 323.023807 209.059107 
L 320.080683 209.084302 
L 317.137558 209.06308 
L 314.194433 209.011121 
L 311.251308 208.943348 
L 308.308184 208.873762 
L 305.365059 208.815318 
L 302.421934 208.779831 
L 299.47881 208.777923 
L 296.535685 208.818994 
L 293.59256 208.911219 
L 290.649435 209.061567 
L 287.706311 209.275832 
L 284.763186 209.558682 
L 281.820061 209.9137 
L 278.876937 210.343438 
L 275.933812 210.849464 
L 272.990687 211.432398 
L 270.047562 212.091947 
L 267.104438 212.82693 
L 264.161313 213.635296 
L 261.218188 214.514138 
L 258.275063 215.459699 
L 255.331939 216.467383 
L 252.388814 217.53177 
L 249.445689 218.646635 
L 246.502565 219.804985 
L 243.55944 220.999098 
L 240.616315 222.220594 
L 237.67319 223.460512 
L 234.730066 224.709409 
L 231.786941 225.95748 
L 228.843816 227.194691 
L 225.900692 228.410922 
L 222.957567 229.596127 
L 220.014442 230.740491 
L 217.071317 231.834596 
L 214.128193 232.869575 
L 211.185068 233.837265 
L 208.241943 234.73034 
L 205.298818 235.542434 
L 202.355694 236.268242 
L 199.412569 236.903604 
L 196.469444 237.445563 
L 193.52632 237.892408 
L 190.583195 238.243695 
L 187.64007 238.500254 
L 184.696945 238.664172 
L 181.753821 238.738781 
L 178.810696 238.728615 
L 175.867571 238.639383 
L 172.924447 238.477916 
L 169.981322 238.252126 
L 167.038197 237.970956 
L 164.095072 237.644324 
L 161.151948 237.283066 
L 158.208823 236.898876 
L 155.265698 236.504223 
L 152.322573 236.112274 
L 149.379449 235.736785 
L 146.436324 235.391987 
L 143.493199 235.092438 
L 140.550075 234.852864 
L 137.60695 234.687969 
L 134.663825 234.612226 
L 131.7207 234.639648 
L 128.777576 234.78354 
L 125.834451 235.056242 
L 122.891326 235.468866 
L 119.948202 236.031039 
L 117.005077 236.750653 
L 114.061952 237.63364 
L 111.118827 238.683775 
L 108.175703 239.902516 
L 105.232578 241.288894 
L 102.289453 242.839453 
L 99.346328 244.548243 
L 96.403204 246.406882 
L 93.460079 248.404672 
L 90.516954 250.528772 
L 87.57383 252.764432 
L 84.630705 255.095269 
L 81.68758 257.503587 
L 78.744455 259.970726 
L 75.801331 262.477434 
L 72.858206 265.004241 
L 69.915081 267.53184 
L 66.971957 270.041445 
L 64.028832 272.515132 
L 61.085707 274.936142 
L 58.142582 277.289142 
L 55.199458 279.560445 
L 52.256333 281.738175 
L 49.313208 283.812377 
L 46.370083 285.775075 
L 43.426959 287.620285 
L 40.483834 289.34397 
L 37.540709 290.943963 
L 34.597585 292.419841 
L 31.65446 293.772779 
L 28.711335 295.005375 
L 25.76821 296.121461 
L 22.825086 297.125906 
L 19.881961 298.024414 
L 16.938836 298.823326 
L 13.995712 299.529435 
L 11.052587 300.149804 
L 8.109462 300.691616 
L 5.166337 301.162025 
L 2.223213 301.568039 
L -0.719912 301.91642 
L -3.663037 302.213604 
L -6.606162 302.465638 
L -9.549286 302.67814 
L -12.492411 302.856275 
L -15.435536 303.004737 
L -18.37866 303.127757 
L -21.321785 303.229108 
L -24.26491 303.312129 
z
" style="fill:#1f77b4;fill-opacity:0.4;stroke:#1f77b4;"/>
   </g>
   <g id="PolyCollection_2">
    <path clip-path="url(#p4dc026706f)" d="M 3.072423 303.518374 
L 3.072423 303.64 
L 5.820041 303.64 
L 8.56766 303.64 
L 11.315279 303.64 
L 14.062898 303.64 
L 16.810517 303.64 
L 19.558136 303.64 
L 22.305755 303.64 
L 25.053374 303.64 
L 27.800992 303.64 
L 30.548611 303.64 
L 33.29623 303.64 
L 36.043849 303.64 
L 38.791468 303.64 
L 41.539087 303.64 
L 44.286706 303.64 
L 47.034324 303.64 
L 49.781943 303.64 
L 52.529562 303.64 
L 55.277181 303.64 
L 58.0248 303.64 
L 60.772419 303.64 
L 63.520038 303.64 
L 66.267657 303.64 
L 69.015275 303.64 
L 71.762894 303.64 
L 74.510513 303.64 
L 77.258132 303.64 
L 80.005751 303.64 
L 82.75337 303.64 
L 85.500989 303.64 
L 88.248607 303.64 
L 90.996226 303.64 
L 93.743845 303.64 
L 96.491464 303.64 
L 99.239083 303.64 
L 101.986702 303.64 
L 104.734321 303.64 
L 107.48194 303.64 
L 110.229558 303.64 
L 112.977177 303.64 
L 115.724796 303.64 
L 118.472415 303.64 
L 121.220034 303.64 
L 123.967653 303.64 
L 126.715272 303.64 
L 129.462891 303.64 
L 132.210509 303.64 
L 134.958128 303.64 
L 137.705747 303.64 
L 140.453366 303.64 
L 143.200985 303.64 
L 145.948604 303.64 
L 148.696223 303.64 
L 151.443841 303.64 
L 154.19146 303.64 
L 156.939079 303.64 
L 159.686698 303.64 
L 162.434317 303.64 
L 165.181936 303.64 
L 167.929555 303.64 
L 170.677174 303.64 
L 173.424792 303.64 
L 176.172411 303.64 
L 178.92003 303.64 
L 181.667649 303.64 
L 184.415268 303.64 
L 187.162887 303.64 
L 189.910506 303.64 
L 192.658125 303.64 
L 195.405743 303.64 
L 198.153362 303.64 
L 200.900981 303.64 
L 203.6486 303.64 
L 206.396219 303.64 
L 209.143838 303.64 
L 211.891457 303.64 
L 214.639075 303.64 
L 217.386694 303.64 
L 220.134313 303.64 
L 222.881932 303.64 
L 225.629551 303.64 
L 228.37717 303.64 
L 231.124789 303.64 
L 233.872408 303.64 
L 236.620026 303.64 
L 239.367645 303.64 
L 242.115264 303.64 
L 244.862883 303.64 
L 247.610502 303.64 
L 250.358121 303.64 
L 253.10574 303.64 
L 255.853358 303.64 
L 258.600977 303.64 
L 261.348596 303.64 
L 264.096215 303.64 
L 266.843834 303.64 
L 269.591453 303.64 
L 272.339072 303.64 
L 275.086691 303.64 
L 277.834309 303.64 
L 280.581928 303.64 
L 283.329547 303.64 
L 286.077166 303.64 
L 288.824785 303.64 
L 291.572404 303.64 
L 294.320023 303.64 
L 297.067642 303.64 
L 299.81526 303.64 
L 302.562879 303.64 
L 305.310498 303.64 
L 308.058117 303.64 
L 310.805736 303.64 
L 313.553355 303.64 
L 316.300974 303.64 
L 319.048592 303.64 
L 321.796211 303.64 
L 324.54383 303.64 
L 327.291449 303.64 
L 330.039068 303.64 
L 332.786687 303.64 
L 335.534306 303.64 
L 338.281925 303.64 
L 341.029543 303.64 
L 343.777162 303.64 
L 346.524781 303.64 
L 349.2724 303.64 
L 352.020019 303.64 
L 354.767638 303.64 
L 357.515257 303.64 
L 360.262875 303.64 
L 363.010494 303.64 
L 365.758113 303.64 
L 368.505732 303.64 
L 371.253351 303.64 
L 374.00097 303.64 
L 376.748589 303.64 
L 379.496208 303.64 
L 382.243826 303.64 
L 384.991445 303.64 
L 387.739064 303.64 
L 390.486683 303.64 
L 393.234302 303.64 
L 395.981921 303.64 
L 398.72954 303.64 
L 401.477159 303.64 
L 404.224777 303.64 
L 406.972396 303.64 
L 409.720015 303.64 
L 412.467634 303.64 
L 415.215253 303.64 
L 417.962872 303.64 
L 420.710491 303.64 
L 423.458109 303.64 
L 426.205728 303.64 
L 428.953347 303.64 
L 431.700966 303.64 
L 434.448585 303.64 
L 437.196204 303.64 
L 439.943823 303.64 
L 442.691442 303.64 
L 445.43906 303.64 
L 448.186679 303.64 
L 450.934298 303.64 
L 453.681917 303.64 
L 456.429536 303.64 
L 459.177155 303.64 
L 461.924774 303.64 
L 464.672393 303.64 
L 467.420011 303.64 
L 470.16763 303.64 
L 472.915249 303.64 
L 475.662868 303.64 
L 478.410487 303.64 
L 481.158106 303.64 
L 483.905725 303.64 
L 486.653343 303.64 
L 489.400962 303.64 
L 492.148581 303.64 
L 494.8962 303.64 
L 497.643819 303.64 
L 500.391438 303.64 
L 503.139057 303.64 
L 505.886676 303.64 
L 508.634294 303.64 
L 511.381913 303.64 
L 514.129532 303.64 
L 516.877151 303.64 
L 519.62477 303.64 
L 522.372389 303.64 
L 525.120008 303.64 
L 527.867626 303.64 
L 530.615245 303.64 
L 533.362864 303.64 
L 536.110483 303.64 
L 538.858102 303.64 
L 541.605721 303.64 
L 544.35334 303.64 
L 547.100959 303.64 
L 549.848577 303.64 
L 549.848577 302.075266 
L 549.848577 302.075266 
L 547.100959 301.666939 
L 544.35334 301.166076 
L 541.605721 300.555526 
L 538.858102 299.815908 
L 536.110483 298.925544 
L 533.362864 297.86044 
L 530.615245 296.594335 
L 527.867626 295.098829 
L 525.120008 293.343596 
L 522.372389 291.296699 
L 519.62477 288.925023 
L 516.877151 286.194806 
L 514.129532 283.072305 
L 511.381913 279.524564 
L 508.634294 275.520299 
L 505.886676 271.030868 
L 503.139057 266.03132 
L 500.391438 260.501493 
L 497.643819 254.427131 
L 494.8962 247.800971 
L 492.148581 240.623786 
L 489.400962 232.905306 
L 486.653343 224.665007 
L 483.905725 215.932694 
L 481.158106 206.748857 
L 478.410487 197.164752 
L 475.662868 187.242195 
L 472.915249 177.053029 
L 470.16763 166.678271 
L 467.420011 156.206947 
L 464.672393 145.734621 
L 461.924774 135.361662 
L 459.177155 125.191285 
L 456.429536 115.327434 
L 453.681917 105.872555 
L 450.934298 96.925354 
L 448.186679 88.578596 
L 445.43906 80.917032 
L 442.691442 74.01553 
L 439.943823 67.937469 
L 437.196204 62.733453 
L 434.448585 58.440396 
L 431.700966 55.081003 
L 428.953347 52.66365 
L 426.205728 51.182676 
L 423.458109 50.619048 
L 420.710491 50.941373 
L 417.962872 52.107207 
L 415.215253 54.064585 
L 412.467634 56.753731 
L 409.720015 60.108848 
L 406.972396 64.059938 
L 404.224777 68.534564 
L 401.477159 73.459518 
L 398.72954 78.762307 
L 395.981921 84.372459 
L 393.234302 90.22258 
L 390.486683 96.249182 
L 387.739064 102.393255 
L 384.991445 108.600616 
L 382.243826 114.822042 
L 379.496208 121.013224 
L 376.748589 127.134581 
L 374.00097 133.15097 
L 371.253351 139.031333 
L 368.505732 144.748329 
L 365.758113 150.277973 
L 363.010494 155.599318 
L 360.262875 160.694202 
L 357.515257 165.547078 
L 354.767638 170.144914 
L 352.020019 174.477186 
L 349.2724 178.535938 
L 346.524781 182.315888 
L 343.777162 185.814581 
L 341.029543 189.032544 
L 338.281925 191.973429 
L 335.534306 194.644124 
L 332.786687 197.054802 
L 330.039068 199.218899 
L 327.291449 201.153001 
L 324.54383 202.876642 
L 321.796211 204.412007 
L 319.048592 205.783542 
L 316.300974 207.017489 
L 313.553355 208.141358 
L 310.805736 209.183347 
L 308.058117 210.171742 
L 305.310498 211.134319 
L 302.562879 212.097758 
L 299.81526 213.087104 
L 297.067642 214.125286 
L 294.320023 215.232713 
L 291.572404 216.426953 
L 288.824785 217.722513 
L 286.077166 219.130705 
L 283.329547 220.659615 
L 280.581928 222.314156 
L 277.834309 224.096199 
L 275.086691 226.004776 
L 272.339072 228.036331 
L 269.591453 230.185012 
L 266.843834 232.442985 
L 264.096215 234.800762 
L 261.348596 237.247523 
L 258.600977 239.771422 
L 255.853358 242.359878 
L 253.10574 244.999835 
L 250.358121 247.677984 
L 247.610502 250.380968 
L 244.862883 253.095541 
L 242.115264 255.808702 
L 239.367645 258.507808 
L 236.620026 261.180657 
L 233.872408 263.815562 
L 231.124789 266.401405 
L 228.37717 268.927683 
L 225.629551 271.384553 
L 222.881932 273.762867 
L 220.134313 276.054203 
L 217.386694 278.250901 
L 214.639075 280.34609 
L 211.891457 282.333713 
L 209.143838 284.208551 
L 206.396219 285.966235 
L 203.6486 287.603261 
L 200.900981 289.116989 
L 198.153362 290.505636 
L 195.405743 291.768268 
L 192.658125 292.904778 
L 189.910506 293.91586 
L 187.162887 294.802981 
L 184.415268 295.568344 
L 181.667649 296.214859 
L 178.92003 296.746106 
L 176.172411 297.166304 
L 173.424792 297.480279 
L 170.677174 297.693437 
L 167.929555 297.811742 
L 165.181936 297.841686 
L 162.434317 297.790272 
L 159.686698 297.664983 
L 156.939079 297.473758 
L 154.19146 297.224949 
L 151.443841 296.927278 
L 148.696223 296.589784 
L 145.948604 296.221749 
L 143.200985 295.832615 
L 140.453366 295.431886 
L 137.705747 295.029021 
L 134.958128 294.633303 
L 132.210509 294.253712 
L 129.462891 293.898785 
L 126.715272 293.576475 
L 123.967653 293.29401 
L 121.220034 293.057769 
L 118.472415 292.873163 
L 115.724796 292.744532 
L 112.977177 292.675074 
L 110.229558 292.666794 
L 107.48194 292.720479 
L 104.734321 292.835706 
L 101.986702 293.010886 
L 99.239083 293.243326 
L 96.491464 293.52933 
L 93.743845 293.864316 
L 90.996226 294.242958 
L 88.248607 294.65934 
L 85.500989 295.10712 
L 82.75337 295.579701 
L 80.005751 296.070395 
L 77.258132 296.572585 
L 74.510513 297.079872 
L 71.762894 297.586206 
L 69.015275 298.085997 
L 66.267657 298.574208 
L 63.520038 299.046424 
L 60.772419 299.498891 
L 58.0248 299.928543 
L 55.277181 300.333002 
L 52.529562 300.710556 
L 49.781943 301.060128 
L 47.034324 301.381226 
L 44.286706 301.673885 
L 41.539087 301.938599 
L 38.791468 302.176254 
L 36.043849 302.388052 
L 33.29623 302.575444 
L 30.548611 302.740063 
L 27.800992 302.88366 
L 25.053374 303.008049 
L 22.305755 303.115058 
L 19.558136 303.206489 
L 16.810517 303.284081 
L 14.062898 303.349489 
L 11.315279 303.404258 
L 8.56766 303.449817 
L 5.820041 303.487466 
L 3.072423 303.518374 
z
" style="fill:#ff7f0e;fill-opacity:0.4;stroke:#ff7f0e;"/>
   </g>
   <g id="matplotlib.axis_1">
    <g id="xtick_1">
     <g id="line2d_1">
      <defs>
       <path d="M 0 0 
L 0 3.5 
" id="m74f5f41731" style="stroke:#000000;stroke-width:0.8;"/>
      </defs>
      <g>
       <use style="stroke:#000000;stroke-width:0.8;" x="47.81" xlink:href="#m74f5f41731" y="303.64"/>
      </g>
     </g>
     <g id="text_1">
      <!-- 0.0 -->
      <g transform="translate(39.858438 318.238437)scale(0.1 -0.1)">
       <defs>
        <path d="M 2034 4250 
Q 1547 4250 1301 3770 
Q 1056 3291 1056 2328 
Q 1056 1369 1301 889 
Q 1547 409 2034 409 
Q 2525 409 2770 889 
Q 3016 1369 3016 2328 
Q 3016 3291 2770 3770 
Q 2525 4250 2034 4250 
z
M 2034 4750 
Q 2819 4750 3233 4129 
Q 3647 3509 3647 2328 
Q 3647 1150 3233 529 
Q 2819 -91 2034 -91 
Q 1250 -91 836 529 
Q 422 1150 422 2328 
Q 422 3509 836 4129 
Q 1250 4750 2034 4750 
z
" id="DejaVuSans-30" transform="scale(0.015625)"/>
        <path d="M 684 794 
L 1344 794 
L 1344 0 
L 684 0 
L 684 794 
z
" id="DejaVuSans-2e" transform="scale(0.015625)"/>
       </defs>
       <use xlink:href="#DejaVuSans-30"/>
       <use x="63.623047" xlink:href="#DejaVuSans-2e"/>
       <use x="95.410156" xlink:href="#DejaVuSans-30"/>
      </g>
     </g>
    </g>
    <g id="xtick_2">
     <g id="line2d_2">
      <g>
       <use style="stroke:#000000;stroke-width:0.8;" x="126.655" xlink:href="#m74f5f41731" y="303.64"/>
      </g>
     </g>
     <g id="text_2">
      <!-- 0.2 -->
      <g transform="translate(118.703438 318.238437)scale(0.1 -0.1)">
       <defs>
        <path d="M 1228 531 
L 3431 531 
L 3431 0 
L 469 0 
L 469 531 
Q 828 903 1448 1529 
Q 2069 2156 2228 2338 
Q 2531 2678 2651 2914 
Q 2772 3150 2772 3378 
Q 2772 3750 2511 3984 
Q 2250 4219 1831 4219 
Q 1534 4219 1204 4116 
Q 875 4013 500 3803 
L 500 4441 
Q 881 4594 1212 4672 
Q 1544 4750 1819 4750 
Q 2544 4750 2975 4387 
Q 3406 4025 3406 3419 
Q 3406 3131 3298 2873 
Q 3191 2616 2906 2266 
Q 2828 2175 2409 1742 
Q 1991 1309 1228 531 
z
" id="DejaVuSans-32" transform="scale(0.015625)"/>
       </defs>
       <use xlink:href="#DejaVuSans-30"/>
       <use x="63.623047" xlink:href="#DejaVuSans-2e"/>
       <use x="95.410156" xlink:href="#DejaVuSans-32"/>
      </g>
     </g>
    </g>
    <g id="xtick_3">
     <g id="line2d_3">
      <g>
       <use style="stroke:#000000;stroke-width:0.8;" x="205.5" xlink:href="#m74f5f41731" y="303.64"/>
      </g>
     </g>
     <g id="text_3">
      <!-- 0.4 -->
      <g transform="translate(197.548438 318.238437)scale(0.1 -0.1)">
       <defs>
        <path d="M 2419 4116 
L 825 1625 
L 2419 1625 
L 2419 4116 
z
M 2253 4666 
L 3047 4666 
L 3047 1625 
L 3713 1625 
L 3713 1100 
L 3047 1100 
L 3047 0 
L 2419 0 
L 2419 1100 
L 313 1100 
L 313 1709 
L 2253 4666 
z
" id="DejaVuSans-34" transform="scale(0.015625)"/>
       </defs>
       <use xlink:href="#DejaVuSans-30"/>
       <use x="63.623047" xlink:href="#DejaVuSans-2e"/>
       <use x="95.410156" xlink:href="#DejaVuSans-34"/>
      </g>
     </g>
    </g>
    <g id="xtick_4">
     <g id="line2d_4">
      <g>
       <use style="stroke:#000000;stroke-width:0.8;" x="284.345" xlink:href="#m74f5f41731" y="303.64"/>
      </g>
     </g>
     <g id="text_4">
      <!-- 0.6 -->
      <g transform="translate(276.393438 318.238437)scale(0.1 -0.1)">
       <defs>
        <path d="M 2113 2584 
Q 1688 2584 1439 2293 
Q 1191 2003 1191 1497 
Q 1191 994 1439 701 
Q 1688 409 2113 409 
Q 2538 409 2786 701 
Q 3034 994 3034 1497 
Q 3034 2003 2786 2293 
Q 2538 2584 2113 2584 
z
M 3366 4563 
L 3366 3988 
Q 3128 4100 2886 4159 
Q 2644 4219 2406 4219 
Q 1781 4219 1451 3797 
Q 1122 3375 1075 2522 
Q 1259 2794 1537 2939 
Q 1816 3084 2150 3084 
Q 2853 3084 3261 2657 
Q 3669 2231 3669 1497 
Q 3669 778 3244 343 
Q 2819 -91 2113 -91 
Q 1303 -91 875 529 
Q 447 1150 447 2328 
Q 447 3434 972 4092 
Q 1497 4750 2381 4750 
Q 2619 4750 2861 4703 
Q 3103 4656 3366 4563 
z
" id="DejaVuSans-36" transform="scale(0.015625)"/>
       </defs>
       <use xlink:href="#DejaVuSans-30"/>
       <use x="63.623047" xlink:href="#DejaVuSans-2e"/>
       <use x="95.410156" xlink:href="#DejaVuSans-36"/>
      </g>
     </g>
    </g>
    <g id="xtick_5">
     <g id="line2d_5">
      <g>
       <use style="stroke:#000000;stroke-width:0.8;" x="363.19" xlink:href="#m74f5f41731" y="303.64"/>
      </g>
     </g>
     <g id="text_5">
      <!-- 0.8 -->
      <g transform="translate(355.238437 318.238437)scale(0.1 -0.1)">
       <defs>
        <path d="M 2034 2216 
Q 1584 2216 1326 1975 
Q 1069 1734 1069 1313 
Q 1069 891 1326 650 
Q 1584 409 2034 409 
Q 2484 409 2743 651 
Q 3003 894 3003 1313 
Q 3003 1734 2745 1975 
Q 2488 2216 2034 2216 
z
M 1403 2484 
Q 997 2584 770 2862 
Q 544 3141 544 3541 
Q 544 4100 942 4425 
Q 1341 4750 2034 4750 
Q 2731 4750 3128 4425 
Q 3525 4100 3525 3541 
Q 3525 3141 3298 2862 
Q 3072 2584 2669 2484 
Q 3125 2378 3379 2068 
Q 3634 1759 3634 1313 
Q 3634 634 3220 271 
Q 2806 -91 2034 -91 
Q 1263 -91 848 271 
Q 434 634 434 1313 
Q 434 1759 690 2068 
Q 947 2378 1403 2484 
z
M 1172 3481 
Q 1172 3119 1398 2916 
Q 1625 2713 2034 2713 
Q 2441 2713 2670 2916 
Q 2900 3119 2900 3481 
Q 2900 3844 2670 4047 
Q 2441 4250 2034 4250 
Q 1625 4250 1398 4047 
Q 1172 3844 1172 3481 
z
" id="DejaVuSans-38" transform="scale(0.015625)"/>
       </defs>
       <use xlink:href="#DejaVuSans-30"/>
       <use x="63.623047" xlink:href="#DejaVuSans-2e"/>
       <use x="95.410156" xlink:href="#DejaVuSans-38"/>
      </g>
     </g>
    </g>
    <g id="xtick_6">
     <g id="line2d_6">
      <g>
       <use style="stroke:#000000;stroke-width:0.8;" x="442.035" xlink:href="#m74f5f41731" y="303.64"/>
      </g>
     </g>
     <g id="text_6">
      <!-- 1.0 -->
      <g transform="translate(434.083437 318.238437)scale(0.1 -0.1)">
       <defs>
        <path d="M 794 531 
L 1825 531 
L 1825 4091 
L 703 3866 
L 703 4441 
L 1819 4666 
L 2450 4666 
L 2450 531 
L 3481 531 
L 3481 0 
L 794 0 
L 794 531 
z
" id="DejaVuSans-31" transform="scale(0.015625)"/>
       </defs>
       <use xlink:href="#DejaVuSans-31"/>
       <use x="63.623047" xlink:href="#DejaVuSans-2e"/>
       <use x="95.410156" xlink:href="#DejaVuSans-30"/>
      </g>
     </g>
    </g>
    <g id="text_7">
     <!-- Credibility index -->
     <g transform="translate(204.317812 331.916562)scale(0.1 -0.1)">
      <defs>
       <path d="M 4122 4306 
L 4122 3641 
Q 3803 3938 3442 4084 
Q 3081 4231 2675 4231 
Q 1875 4231 1450 3742 
Q 1025 3253 1025 2328 
Q 1025 1406 1450 917 
Q 1875 428 2675 428 
Q 3081 428 3442 575 
Q 3803 722 4122 1019 
L 4122 359 
Q 3791 134 3420 21 
Q 3050 -91 2638 -91 
Q 1578 -91 968 557 
Q 359 1206 359 2328 
Q 359 3453 968 4101 
Q 1578 4750 2638 4750 
Q 3056 4750 3426 4639 
Q 3797 4528 4122 4306 
z
" id="DejaVuSans-43" transform="scale(0.015625)"/>
       <path d="M 2631 2963 
Q 2534 3019 2420 3045 
Q 2306 3072 2169 3072 
Q 1681 3072 1420 2755 
Q 1159 2438 1159 1844 
L 1159 0 
L 581 0 
L 581 3500 
L 1159 3500 
L 1159 2956 
Q 1341 3275 1631 3429 
Q 1922 3584 2338 3584 
Q 2397 3584 2469 3576 
Q 2541 3569 2628 3553 
L 2631 2963 
z
" id="DejaVuSans-72" transform="scale(0.015625)"/>
       <path d="M 3597 1894 
L 3597 1613 
L 953 1613 
Q 991 1019 1311 708 
Q 1631 397 2203 397 
Q 2534 397 2845 478 
Q 3156 559 3463 722 
L 3463 178 
Q 3153 47 2828 -22 
Q 2503 -91 2169 -91 
Q 1331 -91 842 396 
Q 353 884 353 1716 
Q 353 2575 817 3079 
Q 1281 3584 2069 3584 
Q 2775 3584 3186 3129 
Q 3597 2675 3597 1894 
z
M 3022 2063 
Q 3016 2534 2758 2815 
Q 2500 3097 2075 3097 
Q 1594 3097 1305 2825 
Q 1016 2553 972 2059 
L 3022 2063 
z
" id="DejaVuSans-65" transform="scale(0.015625)"/>
       <path d="M 2906 2969 
L 2906 4863 
L 3481 4863 
L 3481 0 
L 2906 0 
L 2906 525 
Q 2725 213 2448 61 
Q 2172 -91 1784 -91 
Q 1150 -91 751 415 
Q 353 922 353 1747 
Q 353 2572 751 3078 
Q 1150 3584 1784 3584 
Q 2172 3584 2448 3432 
Q 2725 3281 2906 2969 
z
M 947 1747 
Q 947 1113 1208 752 
Q 1469 391 1925 391 
Q 2381 391 2643 752 
Q 2906 1113 2906 1747 
Q 2906 2381 2643 2742 
Q 2381 3103 1925 3103 
Q 1469 3103 1208 2742 
Q 947 2381 947 1747 
z
" id="DejaVuSans-64" transform="scale(0.015625)"/>
       <path d="M 603 3500 
L 1178 3500 
L 1178 0 
L 603 0 
L 603 3500 
z
M 603 4863 
L 1178 4863 
L 1178 4134 
L 603 4134 
L 603 4863 
z
" id="DejaVuSans-69" transform="scale(0.015625)"/>
       <path d="M 3116 1747 
Q 3116 2381 2855 2742 
Q 2594 3103 2138 3103 
Q 1681 3103 1420 2742 
Q 1159 2381 1159 1747 
Q 1159 1113 1420 752 
Q 1681 391 2138 391 
Q 2594 391 2855 752 
Q 3116 1113 3116 1747 
z
M 1159 2969 
Q 1341 3281 1617 3432 
Q 1894 3584 2278 3584 
Q 2916 3584 3314 3078 
Q 3713 2572 3713 1747 
Q 3713 922 3314 415 
Q 2916 -91 2278 -91 
Q 1894 -91 1617 61 
Q 1341 213 1159 525 
L 1159 0 
L 581 0 
L 581 4863 
L 1159 4863 
L 1159 2969 
z
" id="DejaVuSans-62" transform="scale(0.015625)"/>
       <path d="M 603 4863 
L 1178 4863 
L 1178 0 
L 603 0 
L 603 4863 
z
" id="DejaVuSans-6c" transform="scale(0.015625)"/>
       <path d="M 1172 4494 
L 1172 3500 
L 2356 3500 
L 2356 3053 
L 1172 3053 
L 1172 1153 
Q 1172 725 1289 603 
Q 1406 481 1766 481 
L 2356 481 
L 2356 0 
L 1766 0 
Q 1100 0 847 248 
Q 594 497 594 1153 
L 594 3053 
L 172 3053 
L 172 3500 
L 594 3500 
L 594 4494 
L 1172 4494 
z
" id="DejaVuSans-74" transform="scale(0.015625)"/>
       <path d="M 2059 -325 
Q 1816 -950 1584 -1140 
Q 1353 -1331 966 -1331 
L 506 -1331 
L 506 -850 
L 844 -850 
Q 1081 -850 1212 -737 
Q 1344 -625 1503 -206 
L 1606 56 
L 191 3500 
L 800 3500 
L 1894 763 
L 2988 3500 
L 3597 3500 
L 2059 -325 
z
" id="DejaVuSans-79" transform="scale(0.015625)"/>
       <path id="DejaVuSans-20" transform="scale(0.015625)"/>
       <path d="M 3513 2113 
L 3513 0 
L 2938 0 
L 2938 2094 
Q 2938 2591 2744 2837 
Q 2550 3084 2163 3084 
Q 1697 3084 1428 2787 
Q 1159 2491 1159 1978 
L 1159 0 
L 581 0 
L 581 3500 
L 1159 3500 
L 1159 2956 
Q 1366 3272 1645 3428 
Q 1925 3584 2291 3584 
Q 2894 3584 3203 3211 
Q 3513 2838 3513 2113 
z
" id="DejaVuSans-6e" transform="scale(0.015625)"/>
       <path d="M 3513 3500 
L 2247 1797 
L 3578 0 
L 2900 0 
L 1881 1375 
L 863 0 
L 184 0 
L 1544 1831 
L 300 3500 
L 978 3500 
L 1906 2253 
L 2834 3500 
L 3513 3500 
z
" id="DejaVuSans-78" transform="scale(0.015625)"/>
      </defs>
      <use xlink:href="#DejaVuSans-43"/>
      <use x="69.824219" xlink:href="#DejaVuSans-72"/>
      <use x="108.6875" xlink:href="#DejaVuSans-65"/>
      <use x="170.210938" xlink:href="#DejaVuSans-64"/>
      <use x="233.6875" xlink:href="#DejaVuSans-69"/>
      <use x="261.470703" xlink:href="#DejaVuSans-62"/>
      <use x="324.947266" xlink:href="#DejaVuSans-69"/>
      <use x="352.730469" xlink:href="#DejaVuSans-6c"/>
      <use x="380.513672" xlink:href="#DejaVuSans-69"/>
      <use x="408.296875" xlink:href="#DejaVuSans-74"/>
      <use x="447.505859" xlink:href="#DejaVuSans-79"/>
      <use x="506.685547" xlink:href="#DejaVuSans-20"/>
      <use x="538.472656" xlink:href="#DejaVuSans-69"/>
      <use x="566.255859" xlink:href="#DejaVuSans-6e"/>
      <use x="629.634766" xlink:href="#DejaVuSans-64"/>
      <use x="693.111328" xlink:href="#DejaVuSans-65"/>
      <use x="752.884766" xlink:href="#DejaVuSans-78"/>
     </g>
    </g>
   </g>
   <g id="matplotlib.axis_2">
    <g id="ytick_1">
     <g id="line2d_7">
      <defs>
       <path d="M 0 0 
L -3.5 0 
" id="m6892ea8613" style="stroke:#000000;stroke-width:0.8;"/>
      </defs>
      <g>
       <use style="stroke:#000000;stroke-width:0.8;" x="47.81" xlink:href="#m6892ea8613" y="303.64"/>
      </g>
     </g>
     <g id="text_8">
      <!-- 0.0 -->
      <g transform="translate(24.906875 307.439219)scale(0.1 -0.1)">
       <use xlink:href="#DejaVuSans-30"/>
       <use x="63.623047" xlink:href="#DejaVuSans-2e"/>
       <use x="95.410156" xlink:href="#DejaVuSans-30"/>
      </g>
     </g>
    </g>
    <g id="ytick_2">
     <g id="line2d_8">
      <g>
       <use style="stroke:#000000;stroke-width:0.8;" x="47.81" xlink:href="#m6892ea8613" y="253.604486"/>
      </g>
     </g>
     <g id="text_9">
      <!-- 0.5 -->
      <g transform="translate(24.906875 257.403705)scale(0.1 -0.1)">
       <defs>
        <path d="M 691 4666 
L 3169 4666 
L 3169 4134 
L 1269 4134 
L 1269 2991 
Q 1406 3038 1543 3061 
Q 1681 3084 1819 3084 
Q 2600 3084 3056 2656 
Q 3513 2228 3513 1497 
Q 3513 744 3044 326 
Q 2575 -91 1722 -91 
Q 1428 -91 1123 -41 
Q 819 9 494 109 
L 494 744 
Q 775 591 1075 516 
Q 1375 441 1709 441 
Q 2250 441 2565 725 
Q 2881 1009 2881 1497 
Q 2881 1984 2565 2268 
Q 2250 2553 1709 2553 
Q 1456 2553 1204 2497 
Q 953 2441 691 2322 
L 691 4666 
z
" id="DejaVuSans-35" transform="scale(0.015625)"/>
       </defs>
       <use xlink:href="#DejaVuSans-30"/>
       <use x="63.623047" xlink:href="#DejaVuSans-2e"/>
       <use x="95.410156" xlink:href="#DejaVuSans-35"/>
      </g>
     </g>
    </g>
    <g id="ytick_3">
     <g id="line2d_9">
      <g>
       <use style="stroke:#000000;stroke-width:0.8;" x="47.81" xlink:href="#m6892ea8613" y="203.568973"/>
      </g>
     </g>
     <g id="text_10">
      <!-- 1.0 -->
      <g transform="translate(24.906875 207.368191)scale(0.1 -0.1)">
       <use xlink:href="#DejaVuSans-31"/>
       <use x="63.623047" xlink:href="#DejaVuSans-2e"/>
       <use x="95.410156" xlink:href="#DejaVuSans-30"/>
      </g>
     </g>
    </g>
    <g id="ytick_4">
     <g id="line2d_10">
      <g>
       <use style="stroke:#000000;stroke-width:0.8;" x="47.81" xlink:href="#m6892ea8613" y="153.533459"/>
      </g>
     </g>
     <g id="text_11">
      <!-- 1.5 -->
      <g transform="translate(24.906875 157.332678)scale(0.1 -0.1)">
       <use xlink:href="#DejaVuSans-31"/>
       <use x="63.623047" xlink:href="#DejaVuSans-2e"/>
       <use x="95.410156" xlink:href="#DejaVuSans-35"/>
      </g>
     </g>
    </g>
    <g id="ytick_5">
     <g id="line2d_11">
      <g>
       <use style="stroke:#000000;stroke-width:0.8;" x="47.81" xlink:href="#m6892ea8613" y="103.497945"/>
      </g>
     </g>
     <g id="text_12">
      <!-- 2.0 -->
      <g transform="translate(24.906875 107.297164)scale(0.1 -0.1)">
       <use xlink:href="#DejaVuSans-32"/>
       <use x="63.623047" xlink:href="#DejaVuSans-2e"/>
       <use x="95.410156" xlink:href="#DejaVuSans-30"/>
      </g>
     </g>
    </g>
    <g id="ytick_6">
     <g id="line2d_12">
      <g>
       <use style="stroke:#000000;stroke-width:0.8;" x="47.81" xlink:href="#m6892ea8613" y="53.462432"/>
      </g>
     </g>
     <g id="text_13">
      <!-- 2.5 -->
      <g transform="translate(24.906875 57.261651)scale(0.1 -0.1)">
       <use xlink:href="#DejaVuSans-32"/>
       <use x="63.623047" xlink:href="#DejaVuSans-2e"/>
       <use x="95.410156" xlink:href="#DejaVuSans-35"/>
      </g>
     </g>
    </g>
    <g id="text_14">
     <!-- Density -->
     <g transform="translate(18.827187 189.812594)rotate(-90)scale(0.1 -0.1)">
      <defs>
       <path d="M 1259 4147 
L 1259 519 
L 2022 519 
Q 2988 519 3436 956 
Q 3884 1394 3884 2338 
Q 3884 3275 3436 3711 
Q 2988 4147 2022 4147 
L 1259 4147 
z
M 628 4666 
L 1925 4666 
Q 3281 4666 3915 4102 
Q 4550 3538 4550 2338 
Q 4550 1131 3912 565 
Q 3275 0 1925 0 
L 628 0 
L 628 4666 
z
" id="DejaVuSans-44" transform="scale(0.015625)"/>
       <path d="M 2834 3397 
L 2834 2853 
Q 2591 2978 2328 3040 
Q 2066 3103 1784 3103 
Q 1356 3103 1142 2972 
Q 928 2841 928 2578 
Q 928 2378 1081 2264 
Q 1234 2150 1697 2047 
L 1894 2003 
Q 2506 1872 2764 1633 
Q 3022 1394 3022 966 
Q 3022 478 2636 193 
Q 2250 -91 1575 -91 
Q 1294 -91 989 -36 
Q 684 19 347 128 
L 347 722 
Q 666 556 975 473 
Q 1284 391 1588 391 
Q 1994 391 2212 530 
Q 2431 669 2431 922 
Q 2431 1156 2273 1281 
Q 2116 1406 1581 1522 
L 1381 1569 
Q 847 1681 609 1914 
Q 372 2147 372 2553 
Q 372 3047 722 3315 
Q 1072 3584 1716 3584 
Q 2034 3584 2315 3537 
Q 2597 3491 2834 3397 
z
" id="DejaVuSans-73" transform="scale(0.015625)"/>
      </defs>
      <use xlink:href="#DejaVuSans-44"/>
      <use x="77.001953" xlink:href="#DejaVuSans-65"/>
      <use x="138.525391" xlink:href="#DejaVuSans-6e"/>
      <use x="201.904297" xlink:href="#DejaVuSans-73"/>
      <use x="254.003906" xlink:href="#DejaVuSans-69"/>
      <use x="281.787109" xlink:href="#DejaVuSans-74"/>
      <use x="320.996094" xlink:href="#DejaVuSans-79"/>
     </g>
    </g>
   </g>
   <g id="patch_3">
    <path d="M 47.81 303.64 
L 47.81 37.968 
" style="fill:none;stroke:#000000;stroke-linecap:square;stroke-linejoin:miter;stroke-width:0.8;"/>
   </g>
   <g id="patch_4">
    <path d="M 442.035 303.64 
L 442.035 37.968 
" style="fill:none;stroke:#000000;stroke-linecap:square;stroke-linejoin:miter;stroke-width:0.8;"/>
   </g>
   <g id="patch_5">
    <path d="M 47.81 303.64 
L 442.035 303.64 
" style="fill:none;stroke:#000000;stroke-linecap:square;stroke-linejoin:miter;stroke-width:0.8;"/>
   </g>
   <g id="patch_6">
    <path d="M 47.81 37.968 
L 442.035 37.968 
" style="fill:none;stroke:#000000;stroke-linecap:square;stroke-linejoin:miter;stroke-width:0.8;"/>
   </g>
   <g id="text_15">
    <!-- Credibility index consensus vs non consensus  -->
    <g transform="translate(105.81625 18.530625)scale(0.12 -0.12)">
     <defs>
      <path d="M 3122 3366 
L 3122 2828 
Q 2878 2963 2633 3030 
Q 2388 3097 2138 3097 
Q 1578 3097 1268 2742 
Q 959 2388 959 1747 
Q 959 1106 1268 751 
Q 1578 397 2138 397 
Q 2388 397 2633 464 
Q 2878 531 3122 666 
L 3122 134 
Q 2881 22 2623 -34 
Q 2366 -91 2075 -91 
Q 1284 -91 818 406 
Q 353 903 353 1747 
Q 353 2603 823 3093 
Q 1294 3584 2113 3584 
Q 2378 3584 2631 3529 
Q 2884 3475 3122 3366 
z
" id="DejaVuSans-63" transform="scale(0.015625)"/>
      <path d="M 1959 3097 
Q 1497 3097 1228 2736 
Q 959 2375 959 1747 
Q 959 1119 1226 758 
Q 1494 397 1959 397 
Q 2419 397 2687 759 
Q 2956 1122 2956 1747 
Q 2956 2369 2687 2733 
Q 2419 3097 1959 3097 
z
M 1959 3584 
Q 2709 3584 3137 3096 
Q 3566 2609 3566 1747 
Q 3566 888 3137 398 
Q 2709 -91 1959 -91 
Q 1206 -91 779 398 
Q 353 888 353 1747 
Q 353 2609 779 3096 
Q 1206 3584 1959 3584 
z
" id="DejaVuSans-6f" transform="scale(0.015625)"/>
      <path d="M 544 1381 
L 544 3500 
L 1119 3500 
L 1119 1403 
Q 1119 906 1312 657 
Q 1506 409 1894 409 
Q 2359 409 2629 706 
Q 2900 1003 2900 1516 
L 2900 3500 
L 3475 3500 
L 3475 0 
L 2900 0 
L 2900 538 
Q 2691 219 2414 64 
Q 2138 -91 1772 -91 
Q 1169 -91 856 284 
Q 544 659 544 1381 
z
M 1991 3584 
L 1991 3584 
z
" id="DejaVuSans-75" transform="scale(0.015625)"/>
      <path d="M 191 3500 
L 800 3500 
L 1894 563 
L 2988 3500 
L 3597 3500 
L 2284 0 
L 1503 0 
L 191 3500 
z
" id="DejaVuSans-76" transform="scale(0.015625)"/>
     </defs>
     <use xlink:href="#DejaVuSans-43"/>
     <use x="69.824219" xlink:href="#DejaVuSans-72"/>
     <use x="108.6875" xlink:href="#DejaVuSans-65"/>
     <use x="170.210938" xlink:href="#DejaVuSans-64"/>
     <use x="233.6875" xlink:href="#DejaVuSans-69"/>
     <use x="261.470703" xlink:href="#DejaVuSans-62"/>
     <use x="324.947266" xlink:href="#DejaVuSans-69"/>
     <use x="352.730469" xlink:href="#DejaVuSans-6c"/>
     <use x="380.513672" xlink:href="#DejaVuSans-69"/>
     <use x="408.296875" xlink:href="#DejaVuSans-74"/>
     <use x="447.505859" xlink:href="#DejaVuSans-79"/>
     <use x="506.685547" xlink:href="#DejaVuSans-20"/>
     <use x="538.472656" xlink:href="#DejaVuSans-69"/>
     <use x="566.255859" xlink:href="#DejaVuSans-6e"/>
     <use x="629.634766" xlink:href="#DejaVuSans-64"/>
     <use x="693.111328" xlink:href="#DejaVuSans-65"/>
     <use x="752.884766" xlink:href="#DejaVuSans-78"/>
     <use x="812.064453" xlink:href="#DejaVuSans-20"/>
     <use x="843.851562" xlink:href="#DejaVuSans-63"/>
     <use x="898.832031" xlink:href="#DejaVuSans-6f"/>
     <use x="960.013672" xlink:href="#DejaVuSans-6e"/>
     <use x="1023.392578" xlink:href="#DejaVuSans-73"/>
     <use x="1075.492188" xlink:href="#DejaVuSans-65"/>
     <use x="1137.015625" xlink:href="#DejaVuSans-6e"/>
     <use x="1200.394531" xlink:href="#DejaVuSans-73"/>
     <use x="1252.494141" xlink:href="#DejaVuSans-75"/>
     <use x="1315.873047" xlink:href="#DejaVuSans-73"/>
     <use x="1367.972656" xlink:href="#DejaVuSans-20"/>
     <use x="1399.759766" xlink:href="#DejaVuSans-76"/>
     <use x="1458.939453" xlink:href="#DejaVuSans-73"/>
     <use x="1511.039062" xlink:href="#DejaVuSans-20"/>
     <use x="1542.826172" xlink:href="#DejaVuSans-6e"/>
     <use x="1606.205078" xlink:href="#DejaVuSans-6f"/>
     <use x="1667.386719" xlink:href="#DejaVuSans-6e"/>
     <use x="1730.765625" xlink:href="#DejaVuSans-20"/>
     <use x="1762.552734" xlink:href="#DejaVuSans-63"/>
     <use x="1817.533203" xlink:href="#DejaVuSans-6f"/>
     <use x="1878.714844" xlink:href="#DejaVuSans-6e"/>
     <use x="1942.09375" xlink:href="#DejaVuSans-73"/>
     <use x="1994.193359" xlink:href="#DejaVuSans-65"/>
     <use x="2055.716797" xlink:href="#DejaVuSans-6e"/>
     <use x="2119.095703" xlink:href="#DejaVuSans-73"/>
     <use x="2171.195312" xlink:href="#DejaVuSans-75"/>
     <use x="2234.574219" xlink:href="#DejaVuSans-73"/>
     <use x="2286.673828" xlink:href="#DejaVuSans-20"/>
    </g>
    <!-- Set s2 -->
    <g transform="translate(226.219375 31.968)scale(0.12 -0.12)">
     <defs>
      <path d="M 3425 4513 
L 3425 3897 
Q 3066 4069 2747 4153 
Q 2428 4238 2131 4238 
Q 1616 4238 1336 4038 
Q 1056 3838 1056 3469 
Q 1056 3159 1242 3001 
Q 1428 2844 1947 2747 
L 2328 2669 
Q 3034 2534 3370 2195 
Q 3706 1856 3706 1288 
Q 3706 609 3251 259 
Q 2797 -91 1919 -91 
Q 1588 -91 1214 -16 
Q 841 59 441 206 
L 441 856 
Q 825 641 1194 531 
Q 1563 422 1919 422 
Q 2459 422 2753 634 
Q 3047 847 3047 1241 
Q 3047 1584 2836 1778 
Q 2625 1972 2144 2069 
L 1759 2144 
Q 1053 2284 737 2584 
Q 422 2884 422 3419 
Q 422 4038 858 4394 
Q 1294 4750 2059 4750 
Q 2388 4750 2728 4690 
Q 3069 4631 3425 4513 
z
" id="DejaVuSans-53" transform="scale(0.015625)"/>
     </defs>
     <use xlink:href="#DejaVuSans-53"/>
     <use x="63.476562" xlink:href="#DejaVuSans-65"/>
     <use x="125" xlink:href="#DejaVuSans-74"/>
     <use x="164.208984" xlink:href="#DejaVuSans-20"/>
     <use x="195.996094" xlink:href="#DejaVuSans-73"/>
     <use x="248.095703" xlink:href="#DejaVuSans-32"/>
    </g>
   </g>
   <g id="legend_1">
    <g id="patch_7">
     <path d="M 54.81 97.719875 
L 225.352188 97.719875 
Q 227.352188 97.719875 227.352188 95.719875 
L 227.352188 44.968 
Q 227.352188 42.968 225.352188 42.968 
L 54.81 42.968 
Q 52.81 42.968 52.81 44.968 
L 52.81 95.719875 
Q 52.81 97.719875 54.81 97.719875 
z
" style="fill:#ffffff;opacity:0.8;stroke:#cccccc;stroke-linejoin:miter;"/>
    </g>
    <g id="patch_8">
     <path d="M 56.81 61.205187 
L 76.81 61.205187 
L 76.81 54.205187 
L 56.81 54.205187 
z
" style="fill:#1f77b4;fill-opacity:0.4;stroke:#1f77b4;stroke-linejoin:miter;"/>
    </g>
    <g id="text_16">
     <!-- Correlation higher than 0  -->
     <g transform="translate(84.81 54.566437)scale(0.1 -0.1)">
      <defs>
       <path d="M 2194 1759 
Q 1497 1759 1228 1600 
Q 959 1441 959 1056 
Q 959 750 1161 570 
Q 1363 391 1709 391 
Q 2188 391 2477 730 
Q 2766 1069 2766 1631 
L 2766 1759 
L 2194 1759 
z
M 3341 1997 
L 3341 0 
L 2766 0 
L 2766 531 
Q 2569 213 2275 61 
Q 1981 -91 1556 -91 
Q 1019 -91 701 211 
Q 384 513 384 1019 
Q 384 1609 779 1909 
Q 1175 2209 1959 2209 
L 2766 2209 
L 2766 2266 
Q 2766 2663 2505 2880 
Q 2244 3097 1772 3097 
Q 1472 3097 1187 3025 
Q 903 2953 641 2809 
L 641 3341 
Q 956 3463 1253 3523 
Q 1550 3584 1831 3584 
Q 2591 3584 2966 3190 
Q 3341 2797 3341 1997 
z
" id="DejaVuSans-61" transform="scale(0.015625)"/>
       <path d="M 3513 2113 
L 3513 0 
L 2938 0 
L 2938 2094 
Q 2938 2591 2744 2837 
Q 2550 3084 2163 3084 
Q 1697 3084 1428 2787 
Q 1159 2491 1159 1978 
L 1159 0 
L 581 0 
L 581 4863 
L 1159 4863 
L 1159 2956 
Q 1366 3272 1645 3428 
Q 1925 3584 2291 3584 
Q 2894 3584 3203 3211 
Q 3513 2838 3513 2113 
z
" id="DejaVuSans-68" transform="scale(0.015625)"/>
       <path d="M 2906 1791 
Q 2906 2416 2648 2759 
Q 2391 3103 1925 3103 
Q 1463 3103 1205 2759 
Q 947 2416 947 1791 
Q 947 1169 1205 825 
Q 1463 481 1925 481 
Q 2391 481 2648 825 
Q 2906 1169 2906 1791 
z
M 3481 434 
Q 3481 -459 3084 -895 
Q 2688 -1331 1869 -1331 
Q 1566 -1331 1297 -1286 
Q 1028 -1241 775 -1147 
L 775 -588 
Q 1028 -725 1275 -790 
Q 1522 -856 1778 -856 
Q 2344 -856 2625 -561 
Q 2906 -266 2906 331 
L 2906 616 
Q 2728 306 2450 153 
Q 2172 0 1784 0 
Q 1141 0 747 490 
Q 353 981 353 1791 
Q 353 2603 747 3093 
Q 1141 3584 1784 3584 
Q 2172 3584 2450 3431 
Q 2728 3278 2906 2969 
L 2906 3500 
L 3481 3500 
L 3481 434 
z
" id="DejaVuSans-67" transform="scale(0.015625)"/>
      </defs>
      <use xlink:href="#DejaVuSans-43"/>
      <use x="69.824219" xlink:href="#DejaVuSans-6f"/>
      <use x="131.005859" xlink:href="#DejaVuSans-72"/>
      <use x="170.369141" xlink:href="#DejaVuSans-72"/>
      <use x="209.232422" xlink:href="#DejaVuSans-65"/>
      <use x="270.755859" xlink:href="#DejaVuSans-6c"/>
      <use x="298.539062" xlink:href="#DejaVuSans-61"/>
      <use x="359.818359" xlink:href="#DejaVuSans-74"/>
      <use x="399.027344" xlink:href="#DejaVuSans-69"/>
      <use x="426.810547" xlink:href="#DejaVuSans-6f"/>
      <use x="487.992188" xlink:href="#DejaVuSans-6e"/>
      <use x="551.371094" xlink:href="#DejaVuSans-20"/>
      <use x="583.158203" xlink:href="#DejaVuSans-68"/>
      <use x="646.537109" xlink:href="#DejaVuSans-69"/>
      <use x="674.320312" xlink:href="#DejaVuSans-67"/>
      <use x="737.796875" xlink:href="#DejaVuSans-68"/>
      <use x="801.175781" xlink:href="#DejaVuSans-65"/>
      <use x="862.699219" xlink:href="#DejaVuSans-72"/>
      <use x="903.8125" xlink:href="#DejaVuSans-20"/>
      <use x="935.599609" xlink:href="#DejaVuSans-74"/>
      <use x="974.808594" xlink:href="#DejaVuSans-68"/>
      <use x="1038.1875" xlink:href="#DejaVuSans-61"/>
      <use x="1099.466797" xlink:href="#DejaVuSans-6e"/>
      <use x="1162.845703" xlink:href="#DejaVuSans-20"/>
      <use x="1194.632812" xlink:href="#DejaVuSans-30"/>
      <use x="1258.255859" xlink:href="#DejaVuSans-20"/>
     </g>
     <!-- n=214 -->
     <g transform="translate(84.81 65.76425)scale(0.1 -0.1)">
      <defs>
       <path d="M 678 2906 
L 4684 2906 
L 4684 2381 
L 678 2381 
L 678 2906 
z
M 678 1631 
L 4684 1631 
L 4684 1100 
L 678 1100 
L 678 1631 
z
" id="DejaVuSans-3d" transform="scale(0.015625)"/>
      </defs>
      <use xlink:href="#DejaVuSans-6e"/>
      <use x="63.378906" xlink:href="#DejaVuSans-3d"/>
      <use x="147.167969" xlink:href="#DejaVuSans-32"/>
      <use x="210.791016" xlink:href="#DejaVuSans-31"/>
      <use x="274.414062" xlink:href="#DejaVuSans-34"/>
     </g>
    </g>
    <g id="patch_9">
     <path d="M 56.81 87.081125 
L 76.81 87.081125 
L 76.81 80.081125 
L 56.81 80.081125 
z
" style="fill:#ff7f0e;fill-opacity:0.4;stroke:#ff7f0e;stroke-linejoin:miter;"/>
    </g>
    <g id="text_17">
     <!-- Correlation higher than 0.8  -->
     <g transform="translate(84.81 80.442375)scale(0.1 -0.1)">
      <use xlink:href="#DejaVuSans-43"/>
      <use x="69.824219" xlink:href="#DejaVuSans-6f"/>
      <use x="131.005859" xlink:href="#DejaVuSans-72"/>
      <use x="170.369141" xlink:href="#DejaVuSans-72"/>
      <use x="209.232422" xlink:href="#DejaVuSans-65"/>
      <use x="270.755859" xlink:href="#DejaVuSans-6c"/>
      <use x="298.539062" xlink:href="#DejaVuSans-61"/>
      <use x="359.818359" xlink:href="#DejaVuSans-74"/>
      <use x="399.027344" xlink:href="#DejaVuSans-69"/>
      <use x="426.810547" xlink:href="#DejaVuSans-6f"/>
      <use x="487.992188" xlink:href="#DejaVuSans-6e"/>
      <use x="551.371094" xlink:href="#DejaVuSans-20"/>
      <use x="583.158203" xlink:href="#DejaVuSans-68"/>
      <use x="646.537109" xlink:href="#DejaVuSans-69"/>
      <use x="674.320312" xlink:href="#DejaVuSans-67"/>
      <use x="737.796875" xlink:href="#DejaVuSans-68"/>
      <use x="801.175781" xlink:href="#DejaVuSans-65"/>
      <use x="862.699219" xlink:href="#DejaVuSans-72"/>
      <use x="903.8125" xlink:href="#DejaVuSans-20"/>
      <use x="935.599609" xlink:href="#DejaVuSans-74"/>
      <use x="974.808594" xlink:href="#DejaVuSans-68"/>
      <use x="1038.1875" xlink:href="#DejaVuSans-61"/>
      <use x="1099.466797" xlink:href="#DejaVuSans-6e"/>
      <use x="1162.845703" xlink:href="#DejaVuSans-20"/>
      <use x="1194.632812" xlink:href="#DejaVuSans-30"/>
      <use x="1258.255859" xlink:href="#DejaVuSans-2e"/>
      <use x="1290.042969" xlink:href="#DejaVuSans-38"/>
      <use x="1353.666016" xlink:href="#DejaVuSans-20"/>
     </g>
     <!-- n=40 -->
     <g transform="translate(84.81 91.640187)scale(0.1 -0.1)">
      <use xlink:href="#DejaVuSans-6e"/>
      <use x="63.378906" xlink:href="#DejaVuSans-3d"/>
      <use x="147.167969" xlink:href="#DejaVuSans-34"/>
      <use x="210.791016" xlink:href="#DejaVuSans-30"/>
     </g>
    </g>
   </g>
  </g>
 </g>
 <defs>
  <clipPath id="p4dc026706f">
   <rect height="265.672" width="394.225" x="47.81" y="37.968"/>
  </clipPath>
 </defs>
</svg>
