<?xml version="1.0" encoding="utf-8" standalone="no"?>
<!DOCTYPE svg PUBLIC "-//W3C//DTD SVG 1.1//EN"
  "http://www.w3.org/Graphics/SVG/1.1/DTD/svg11.dtd">
<svg height="345.6pt" version="1.1" viewBox="0 0 460.8 345.6" width="460.8pt" xmlns="http://www.w3.org/2000/svg" xmlns:xlink="http://www.w3.org/1999/xlink">
 <metadata>
  <rdf:RDF xmlns:cc="http://creativecommons.org/ns#" xmlns:dc="http://purl.org/dc/elements/1.1/" xmlns:rdf="http://www.w3.org/1999/02/22-rdf-syntax-ns#">
   <cc:Work>
    <dc:type rdf:resource="http://purl.org/dc/dcmitype/StillImage"/>
    <dc:date>2021-11-24T22:48:34.009737</dc:date>
    <dc:format>image/svg+xml</dc:format>
    <dc:creator>
     <cc:Agent>
      <dc:title>Matplotlib v3.4.3, https://matplotlib.org/</dc:title>
     </cc:Agent>
    </dc:creator>
   </cc:Work>
  </rdf:RDF>
 </metadata>
 <defs>
  <style type="text/css">*{stroke-linecap:butt;stroke-linejoin:round;}</style>
 </defs>
 <g id="figure_1">
  <g id="patch_1">
   <path d="M 0 345.6 
L 460.8 345.6 
L 460.8 0 
L 0 0 
z
" style="fill:#ffffff;"/>
  </g>
  <g id="axes_1">
   <g id="patch_2">
    <path d="M 54.2 303.64 
L 442.035 303.64 
L 442.035 37.968 
L 54.2 37.968 
z
" style="fill:#ffffff;"/>
   </g>
   <g id="PolyCollection_1">
    <path clip-path="url(#p72ca5da3fe)" d="M -14.17591 303.396837 
L -14.17591 303.64 
L -11.305925 303.64 
L -8.43594 303.64 
L -5.565955 303.64 
L -2.69597 303.64 
L 0.174015 303.64 
L 3.044 303.64 
L 5.913985 303.64 
L 8.78397 303.64 
L 11.653955 303.64 
L 14.52394 303.64 
L 17.393925 303.64 
L 20.263911 303.64 
L 23.133896 303.64 
L 26.003881 303.64 
L 28.873866 303.64 
L 31.743851 303.64 
L 34.613836 303.64 
L 37.483821 303.64 
L 40.353806 303.64 
L 43.223791 303.64 
L 46.093776 303.64 
L 48.963761 303.64 
L 51.833746 303.64 
L 54.703731 303.64 
L 57.573716 303.64 
L 60.443701 303.64 
L 63.313686 303.64 
L 66.183671 303.64 
L 69.053656 303.64 
L 71.923641 303.64 
L 74.793626 303.64 
L 77.663611 303.64 
L 80.533596 303.64 
L 83.403581 303.64 
L 86.273566 303.64 
L 89.143551 303.64 
L 92.013536 303.64 
L 94.883521 303.64 
L 97.753506 303.64 
L 100.623491 303.64 
L 103.493476 303.64 
L 106.363461 303.64 
L 109.233446 303.64 
L 112.103431 303.64 
L 114.973416 303.64 
L 117.843401 303.64 
L 120.713386 303.64 
L 123.583371 303.64 
L 126.453356 303.64 
L 129.323341 303.64 
L 132.193326 303.64 
L 135.063311 303.64 
L 137.933296 303.64 
L 140.803281 303.64 
L 143.673266 303.64 
L 146.543252 303.64 
L 149.413237 303.64 
L 152.283222 303.64 
L 155.153207 303.64 
L 158.023192 303.64 
L 160.893177 303.64 
L 163.763162 303.64 
L 166.633147 303.64 
L 169.503132 303.64 
L 172.373117 303.64 
L 175.243102 303.64 
L 178.113087 303.64 
L 180.983072 303.64 
L 183.853057 303.64 
L 186.723042 303.64 
L 189.593027 303.64 
L 192.463012 303.64 
L 195.332997 303.64 
L 198.202982 303.64 
L 201.072967 303.64 
L 203.942952 303.64 
L 206.812937 303.64 
L 209.682922 303.64 
L 212.552907 303.64 
L 215.422892 303.64 
L 218.292877 303.64 
L 221.162862 303.64 
L 224.032847 303.64 
L 226.902832 303.64 
L 229.772817 303.64 
L 232.642802 303.64 
L 235.512787 303.64 
L 238.382772 303.64 
L 241.252757 303.64 
L 244.122742 303.64 
L 246.992727 303.64 
L 249.862712 303.64 
L 252.732697 303.64 
L 255.602682 303.64 
L 258.472667 303.64 
L 261.342652 303.64 
L 264.212637 303.64 
L 267.082622 303.64 
L 269.952607 303.64 
L 272.822593 303.64 
L 275.692578 303.64 
L 278.562563 303.64 
L 281.432548 303.64 
L 284.302533 303.64 
L 287.172518 303.64 
L 290.042503 303.64 
L 292.912488 303.64 
L 295.782473 303.64 
L 298.652458 303.64 
L 301.522443 303.64 
L 304.392428 303.64 
L 307.262413 303.64 
L 310.132398 303.64 
L 313.002383 303.64 
L 315.872368 303.64 
L 318.742353 303.64 
L 321.612338 303.64 
L 324.482323 303.64 
L 327.352308 303.64 
L 330.222293 303.64 
L 333.092278 303.64 
L 335.962263 303.64 
L 338.832248 303.64 
L 341.702233 303.64 
L 344.572218 303.64 
L 347.442203 303.64 
L 350.312188 303.64 
L 353.182173 303.64 
L 356.052158 303.64 
L 358.922143 303.64 
L 361.792128 303.64 
L 364.662113 303.64 
L 367.532098 303.64 
L 370.402083 303.64 
L 373.272068 303.64 
L 376.142053 303.64 
L 379.012038 303.64 
L 381.882023 303.64 
L 384.752008 303.64 
L 387.621993 303.64 
L 390.491978 303.64 
L 393.361963 303.64 
L 396.231948 303.64 
L 399.101934 303.64 
L 401.971919 303.64 
L 404.841904 303.64 
L 407.711889 303.64 
L 410.581874 303.64 
L 413.451859 303.64 
L 416.321844 303.64 
L 419.191829 303.64 
L 422.061814 303.64 
L 424.931799 303.64 
L 427.801784 303.64 
L 430.671769 303.64 
L 433.541754 303.64 
L 436.411739 303.64 
L 439.281724 303.64 
L 442.151709 303.64 
L 445.021694 303.64 
L 447.891679 303.64 
L 450.761664 303.64 
L 453.631649 303.64 
L 456.501634 303.64 
L 459.371619 303.64 
L 462.241604 303.64 
L 465.111589 303.64 
L 467.981574 303.64 
L 470.851559 303.64 
L 473.721544 303.64 
L 476.591529 303.64 
L 479.461514 303.64 
L 482.331499 303.64 
L 485.201484 303.64 
L 488.071469 303.64 
L 490.941454 303.64 
L 493.811439 303.64 
L 496.681424 303.64 
L 499.551409 303.64 
L 502.421394 303.64 
L 505.291379 303.64 
L 508.161364 303.64 
L 511.031349 303.64 
L 513.901334 303.64 
L 516.771319 303.64 
L 519.641304 303.64 
L 522.511289 303.64 
L 525.381275 303.64 
L 528.25126 303.64 
L 531.121245 303.64 
L 533.99123 303.64 
L 536.861215 303.64 
L 539.7312 303.64 
L 542.601185 303.64 
L 545.47117 303.64 
L 548.341155 303.64 
L 551.21114 303.64 
L 554.081125 303.64 
L 556.95111 303.64 
L 556.95111 302.697451 
L 556.95111 302.697451 
L 554.081125 302.456247 
L 551.21114 302.16132 
L 548.341155 301.802836 
L 545.47117 301.369682 
L 542.601185 300.849414 
L 539.7312 300.228234 
L 536.861215 299.490995 
L 533.99123 298.621253 
L 531.121245 297.601352 
L 528.25126 296.41257 
L 525.381275 295.03531 
L 522.511289 293.449361 
L 519.641304 291.634207 
L 516.771319 289.569406 
L 513.901334 287.235015 
L 511.031349 284.612079 
L 508.161364 281.683148 
L 505.291379 278.432837 
L 502.421394 274.848395 
L 499.551409 270.920277 
L 496.681424 266.642697 
L 493.811439 262.014137 
L 490.941454 257.037799 
L 488.071469 251.721977 
L 485.201484 246.080318 
L 482.331499 240.13197 
L 479.461514 233.901598 
L 476.591529 227.419243 
L 473.721544 220.720049 
L 470.851559 213.843818 
L 467.981574 206.834446 
L 465.111589 199.739202 
L 462.241604 192.60792 
L 459.371619 185.492076 
L 456.501634 178.443826 
L 453.631649 171.515001 
L 450.761664 164.756108 
L 447.891679 158.215373 
L 445.021694 151.937846 
L 442.151709 145.964616 
L 439.281724 140.332145 
L 436.411739 135.071746 
L 433.541754 130.209228 
L 430.671769 125.764704 
L 427.801784 121.75256 
L 424.931799 118.18159 
L 422.061814 115.055267 
L 419.191829 112.372142 
L 416.321844 110.126338 
L 413.451859 108.308117 
L 410.581874 106.904486 
L 407.711889 105.899822 
L 404.841904 105.276471 
L 401.971919 105.015324 
L 399.101934 105.096321 
L 396.231948 105.498889 
L 393.361963 106.202303 
L 390.491978 107.185948 
L 387.621993 108.429514 
L 384.752008 109.913102 
L 381.882023 111.617271 
L 379.012038 113.523029 
L 376.142053 115.61179 
L 373.272068 117.865306 
L 370.402083 120.265596 
L 367.532098 122.794883 
L 364.662113 125.435544 
L 361.792128 128.170101 
L 358.922143 130.981228 
L 356.052158 133.851808 
L 353.182173 136.765012 
L 350.312188 139.704421 
L 347.442203 142.65416 
L 344.572218 145.599054 
L 341.702233 148.5248 
L 338.832248 151.418124 
L 335.962263 154.266942 
L 333.092278 157.0605 
L 330.222293 159.789493 
L 327.352308 162.446156 
L 324.482323 165.024327 
L 321.612338 167.519473 
L 318.742353 169.928688 
L 315.872368 172.250656 
L 313.002383 174.485581 
L 310.132398 176.635089 
L 307.262413 178.702109 
L 304.392428 180.690718 
L 301.522443 182.605979 
L 298.652458 184.453755 
L 295.782473 186.240511 
L 292.912488 187.973109 
L 290.042503 189.658599 
L 287.172518 191.304005 
L 284.302533 192.916123 
L 281.432548 194.501324 
L 278.562563 196.065374 
L 275.692578 197.613276 
L 272.822593 199.149133 
L 269.952607 200.676047 
L 267.082622 202.196048 
L 264.212637 203.710054 
L 261.342652 205.217879 
L 258.472667 206.718268 
L 255.602682 208.208966 
L 252.732697 209.686828 
L 249.862712 211.14794 
L 246.992727 212.587773 
L 244.122742 214.001338 
L 241.252757 215.383353 
L 238.382772 216.728402 
L 235.512787 218.031088 
L 232.642802 219.286167 
L 229.772817 220.488658 
L 226.902832 221.633931 
L 224.032847 222.717775 
L 221.162862 223.736425 
L 218.292877 224.686582 
L 215.422892 225.56541 
L 212.552907 226.370511 
L 209.682922 227.099909 
L 206.812937 227.752022 
L 203.942952 228.325651 
L 201.072967 228.819975 
L 198.202982 229.234575 
L 195.332997 229.56947 
L 192.463012 229.825189 
L 189.593027 230.002859 
L 186.723042 230.10432 
L 183.853057 230.132251 
L 180.983072 230.090317 
L 178.113087 229.983305 
L 175.243102 229.817264 
L 172.373117 229.59962 
L 169.503132 229.339265 
L 166.633147 229.046613 
L 163.763162 228.733604 
L 160.893177 228.413663 
L 158.023192 228.10159 
L 155.153207 227.813402 
L 152.283222 227.566114 
L 149.413237 227.377455 
L 146.543252 227.265541 
L 143.673266 227.248509 
L 140.803281 227.344112 
L 137.933296 227.569299 
L 135.063311 227.939791 
L 132.193326 228.469666 
L 129.323341 229.170965 
L 126.453356 230.053343 
L 123.583371 231.123763 
L 120.713386 232.386262 
L 117.843401 233.84178 
L 114.973416 235.488075 
L 112.103431 237.319713 
L 109.233446 239.328149 
L 106.363461 241.501884 
L 103.493476 243.826695 
L 100.623491 246.285944 
L 97.753506 248.860934 
L 94.883521 251.531316 
L 92.013536 254.27553 
L 89.143551 257.071265 
L 86.273566 259.895922 
L 83.403581 262.727068 
L 80.533596 265.542874 
L 77.663611 268.32251 
L 74.793626 271.046502 
L 71.923641 273.697039 
L 69.053656 276.258218 
L 66.183671 278.716228 
L 63.313686 281.059476 
L 60.443701 283.278648 
L 57.573716 285.366712 
L 54.703731 287.318865 
L 51.833746 289.132439 
L 48.963761 290.806756 
L 46.093776 292.342958 
L 43.223791 293.743808 
L 40.353806 295.013472 
L 37.483821 296.157299 
L 34.613836 297.18159 
L 31.743851 298.093379 
L 28.873866 298.900219 
L 26.003881 299.609987 
L 23.133896 300.230701 
L 20.263911 300.770366 
L 17.393925 301.236839 
L 14.52394 301.637708 
L 11.653955 301.980211 
L 8.78397 302.27116 
L 5.913985 302.516894 
L 3.044 302.723252 
L 0.174015 302.895551 
L -2.69597 303.038591 
L -5.565955 303.156664 
L -8.43594 303.253574 
L -11.305925 303.332661 
L -14.17591 303.396837 
z
" style="fill:#1f77b4;fill-opacity:0.4;stroke:#1f77b4;"/>
   </g>
   <g id="PolyCollection_2">
    <path clip-path="url(#p72ca5da3fe)" d="M -13.916355 303.45266 
L -13.916355 303.64 
L -10.971022 303.64 
L -8.025689 303.64 
L -5.080356 303.64 
L -2.135022 303.64 
L 0.810311 303.64 
L 3.755644 303.64 
L 6.700977 303.64 
L 9.64631 303.64 
L 12.591644 303.64 
L 15.536977 303.64 
L 18.48231 303.64 
L 21.427643 303.64 
L 24.372977 303.64 
L 27.31831 303.64 
L 30.263643 303.64 
L 33.208976 303.64 
L 36.154309 303.64 
L 39.099643 303.64 
L 42.044976 303.64 
L 44.990309 303.64 
L 47.935642 303.64 
L 50.880976 303.64 
L 53.826309 303.64 
L 56.771642 303.64 
L 59.716975 303.64 
L 62.662308 303.64 
L 65.607642 303.64 
L 68.552975 303.64 
L 71.498308 303.64 
L 74.443641 303.64 
L 77.388974 303.64 
L 80.334308 303.64 
L 83.279641 303.64 
L 86.224974 303.64 
L 89.170307 303.64 
L 92.115641 303.64 
L 95.060974 303.64 
L 98.006307 303.64 
L 100.95164 303.64 
L 103.896973 303.64 
L 106.842307 303.64 
L 109.78764 303.64 
L 112.732973 303.64 
L 115.678306 303.64 
L 118.62364 303.64 
L 121.568973 303.64 
L 124.514306 303.64 
L 127.459639 303.64 
L 130.404972 303.64 
L 133.350306 303.64 
L 136.295639 303.64 
L 139.240972 303.64 
L 142.186305 303.64 
L 145.131639 303.64 
L 148.076972 303.64 
L 151.022305 303.64 
L 153.967638 303.64 
L 156.912971 303.64 
L 159.858305 303.64 
L 162.803638 303.64 
L 165.748971 303.64 
L 168.694304 303.64 
L 171.639638 303.64 
L 174.584971 303.64 
L 177.530304 303.64 
L 180.475637 303.64 
L 183.42097 303.64 
L 186.366304 303.64 
L 189.311637 303.64 
L 192.25697 303.64 
L 195.202303 303.64 
L 198.147636 303.64 
L 201.09297 303.64 
L 204.038303 303.64 
L 206.983636 303.64 
L 209.928969 303.64 
L 212.874303 303.64 
L 215.819636 303.64 
L 218.764969 303.64 
L 221.710302 303.64 
L 224.655635 303.64 
L 227.600969 303.64 
L 230.546302 303.64 
L 233.491635 303.64 
L 236.436968 303.64 
L 239.382302 303.64 
L 242.327635 303.64 
L 245.272968 303.64 
L 248.218301 303.64 
L 251.163634 303.64 
L 254.108968 303.64 
L 257.054301 303.64 
L 259.999634 303.64 
L 262.944967 303.64 
L 265.890301 303.64 
L 268.835634 303.64 
L 271.780967 303.64 
L 274.7263 303.64 
L 277.671633 303.64 
L 280.616967 303.64 
L 283.5623 303.64 
L 286.507633 303.64 
L 289.452966 303.64 
L 292.398299 303.64 
L 295.343633 303.64 
L 298.288966 303.64 
L 301.234299 303.64 
L 304.179632 303.64 
L 307.124966 303.64 
L 310.070299 303.64 
L 313.015632 303.64 
L 315.960965 303.64 
L 318.906298 303.64 
L 321.851632 303.64 
L 324.796965 303.64 
L 327.742298 303.64 
L 330.687631 303.64 
L 333.632965 303.64 
L 336.578298 303.64 
L 339.523631 303.64 
L 342.468964 303.64 
L 345.414297 303.64 
L 348.359631 303.64 
L 351.304964 303.64 
L 354.250297 303.64 
L 357.19563 303.64 
L 360.140964 303.64 
L 363.086297 303.64 
L 366.03163 303.64 
L 368.976963 303.64 
L 371.922296 303.64 
L 374.86763 303.64 
L 377.812963 303.64 
L 380.758296 303.64 
L 383.703629 303.64 
L 386.648962 303.64 
L 389.594296 303.64 
L 392.539629 303.64 
L 395.484962 303.64 
L 398.430295 303.64 
L 401.375629 303.64 
L 404.320962 303.64 
L 407.266295 303.64 
L 410.211628 303.64 
L 413.156961 303.64 
L 416.102295 303.64 
L 419.047628 303.64 
L 421.992961 303.64 
L 424.938294 303.64 
L 427.883628 303.64 
L 430.828961 303.64 
L 433.774294 303.64 
L 436.719627 303.64 
L 439.66496 303.64 
L 442.610294 303.64 
L 445.555627 303.64 
L 448.50096 303.64 
L 451.446293 303.64 
L 454.391627 303.64 
L 457.33696 303.64 
L 460.282293 303.64 
L 463.227626 303.64 
L 466.172959 303.64 
L 469.118293 303.64 
L 472.063626 303.64 
L 475.008959 303.64 
L 477.954292 303.64 
L 480.899626 303.64 
L 483.844959 303.64 
L 486.790292 303.64 
L 489.735625 303.64 
L 492.680958 303.64 
L 495.626292 303.64 
L 498.571625 303.64 
L 501.516958 303.64 
L 504.462291 303.64 
L 507.407624 303.64 
L 510.352958 303.64 
L 513.298291 303.64 
L 516.243624 303.64 
L 519.188957 303.64 
L 522.134291 303.64 
L 525.079624 303.64 
L 528.024957 303.64 
L 530.97029 303.64 
L 533.915623 303.64 
L 536.860957 303.64 
L 539.80629 303.64 
L 542.751623 303.64 
L 545.696956 303.64 
L 548.64229 303.64 
L 551.587623 303.64 
L 554.532956 303.64 
L 557.478289 303.64 
L 560.423622 303.64 
L 563.368956 303.64 
L 566.314289 303.64 
L 569.259622 303.64 
L 572.204955 303.64 
L 572.204955 302.506212 
L 572.204955 302.506212 
L 569.259622 302.246379 
L 566.314289 301.934561 
L 563.368956 301.562169 
L 560.423622 301.11959 
L 557.478289 300.596148 
L 554.532956 299.980076 
L 551.587623 299.258507 
L 548.64229 298.417494 
L 545.696956 297.442044 
L 542.751623 296.316191 
L 539.80629 295.023099 
L 536.860957 293.545198 
L 533.915623 291.864357 
L 530.97029 289.962096 
L 528.024957 287.819834 
L 525.079624 285.419171 
L 522.134291 282.742206 
L 519.188957 279.771884 
L 516.243624 276.492362 
L 513.298291 272.889396 
L 510.352958 268.950732 
L 507.407624 264.666502 
L 504.462291 260.029602 
L 501.516958 255.03605 
L 498.571625 249.685314 
L 495.626292 243.980596 
L 492.680958 237.929056 
L 489.735625 231.54198 
L 486.790292 224.834876 
L 483.844959 217.827494 
L 480.899626 210.543758 
L 477.954292 203.011634 
L 475.008959 195.262897 
L 472.063626 187.33284 
L 469.118293 179.2599 
L 466.172959 171.085228 
L 463.227626 162.852212 
L 460.282293 154.605952 
L 457.33696 146.392716 
L 454.391627 138.259387 
L 451.446293 130.252904 
L 448.50096 122.419727 
L 445.555627 114.805324 
L 442.610294 107.453703 
L 439.66496 100.406978 
L 436.719627 93.705003 
L 433.774294 87.385053 
L 430.828961 81.48156 
L 427.883628 76.025911 
L 424.938294 71.046294 
L 421.992961 66.56759 
L 419.047628 62.611307 
L 416.102295 59.195544 
L 413.156961 56.334978 
L 410.211628 54.040873 
L 407.266295 52.321089 
L 404.320962 51.180108 
L 401.375629 50.619048 
L 398.430295 50.635683 
L 395.484962 51.224463 
L 392.539629 52.376526 
L 389.594296 54.079722 
L 386.648962 56.318641 
L 383.703629 59.074661 
L 380.758296 62.326007 
L 377.812963 66.047852 
L 374.86763 70.212442 
L 371.922296 74.789264 
L 368.976963 79.745254 
L 366.03163 85.045056 
L 363.086297 90.65132 
L 360.140964 96.525047 
L 357.19563 102.625967 
L 354.250297 108.912955 
L 351.304964 115.344466 
L 348.359631 121.878988 
L 345.414297 128.475494 
L 342.468964 135.093888 
L 339.523631 141.695435 
L 336.578298 148.243156 
L 333.632965 154.70219 
L 330.687631 161.0401 
L 327.742298 167.227134 
L 324.796965 173.236422 
L 321.851632 179.044117 
L 318.906298 184.629467 
L 315.960965 189.97484 
L 313.015632 195.065685 
L 310.070299 199.890452 
L 307.124966 204.440467 
L 304.179632 208.70977 
L 301.234299 212.694942 
L 298.288966 216.3949 
L 295.343633 219.810699 
L 292.398299 222.945327 
L 289.452966 225.803509 
L 286.507633 228.391528 
L 283.5623 230.717056 
L 280.616967 232.789012 
L 277.671633 234.617434 
L 274.7263 236.213371 
L 271.780967 237.588794 
L 268.835634 238.756517 
L 265.890301 239.730129 
L 262.944967 240.523926 
L 259.999634 241.152841 
L 257.054301 241.632375 
L 254.108968 241.978506 
L 251.163634 242.207585 
L 248.218301 242.33622 
L 245.272968 242.381134 
L 242.327635 242.359007 
L 239.382302 242.286296 
L 236.436968 242.179046 
L 233.491635 242.052689 
L 230.546302 241.921835 
L 227.600969 241.800071 
L 224.655635 241.699765 
L 221.710302 241.631893 
L 218.764969 241.605885 
L 215.819636 241.629506 
L 212.874303 241.708777 
L 209.928969 241.84794 
L 206.983636 242.049463 
L 204.038303 242.314103 
L 201.09297 242.641011 
L 198.147636 243.027884 
L 195.202303 243.471164 
L 192.25697 243.966263 
L 189.311637 244.507825 
L 186.366304 245.090001 
L 183.42097 245.706737 
L 180.475637 246.352059 
L 177.530304 247.020342 
L 174.584971 247.706562 
L 171.639638 248.406513 
L 168.694304 249.116986 
L 165.748971 249.835895 
L 162.803638 250.56236 
L 159.858305 251.296733 
L 156.912971 252.040565 
L 153.967638 252.796527 
L 151.022305 253.568279 
L 148.076972 254.360299 
L 145.131639 255.177672 
L 142.186305 256.025861 
L 139.240972 256.910452 
L 136.295639 257.836899 
L 133.350306 258.810275 
L 130.404972 259.835028 
L 127.459639 260.91477 
L 124.514306 262.052087 
L 121.568973 263.248398 
L 118.62364 264.503844 
L 115.678306 265.817226 
L 112.732973 267.185995 
L 109.78764 268.606277 
L 106.842307 270.072947 
L 103.896973 271.579742 
L 100.95164 273.119401 
L 98.006307 274.683841 
L 95.060974 276.264348 
L 92.115641 277.851779 
L 89.170307 279.436776 
L 86.224974 281.009973 
L 83.279641 282.562196 
L 80.334308 284.08465 
L 77.388974 285.569087 
L 74.443641 287.007948 
L 71.498308 288.394485 
L 68.552975 289.722848 
L 65.607642 290.988147 
L 62.662308 292.186489 
L 59.716975 293.314986 
L 56.771642 294.371734 
L 53.826309 295.355779 
L 50.880976 296.267055 
L 47.935642 297.106315 
L 44.990309 297.875045 
L 42.044976 298.57537 
L 39.099643 299.209959 
L 36.154309 299.781921 
L 33.208976 300.294715 
L 30.263643 300.752048 
L 27.31831 301.157794 
L 24.372977 301.515905 
L 21.427643 301.830348 
L 18.48231 302.105032 
L 15.536977 302.343764 
L 12.591644 302.550198 
L 9.64631 302.727805 
L 6.700977 302.879842 
L 3.755644 303.009342 
L 0.810311 303.119097 
L -2.135022 303.211657 
L -5.080356 303.289331 
L -8.025689 303.354193 
L -10.971022 303.408091 
L -13.916355 303.45266 
z
" style="fill:#ff7f0e;fill-opacity:0.4;stroke:#ff7f0e;"/>
   </g>
   <g id="matplotlib.axis_1">
    <g id="xtick_1">
     <g id="line2d_1">
      <defs>
       <path d="M 0 0 
L 0 3.5 
" id="md1fed4285d" style="stroke:#000000;stroke-width:0.8;"/>
      </defs>
      <g>
       <use style="stroke:#000000;stroke-width:0.8;" x="54.2" xlink:href="#md1fed4285d" y="303.64"/>
      </g>
     </g>
     <g id="text_1">
      <!-- 0.0 -->
      <g transform="translate(46.248438 318.238437)scale(0.1 -0.1)">
       <defs>
        <path d="M 2034 4250 
Q 1547 4250 1301 3770 
Q 1056 3291 1056 2328 
Q 1056 1369 1301 889 
Q 1547 409 2034 409 
Q 2525 409 2770 889 
Q 3016 1369 3016 2328 
Q 3016 3291 2770 3770 
Q 2525 4250 2034 4250 
z
M 2034 4750 
Q 2819 4750 3233 4129 
Q 3647 3509 3647 2328 
Q 3647 1150 3233 529 
Q 2819 -91 2034 -91 
Q 1250 -91 836 529 
Q 422 1150 422 2328 
Q 422 3509 836 4129 
Q 1250 4750 2034 4750 
z
" id="DejaVuSans-30" transform="scale(0.015625)"/>
        <path d="M 684 794 
L 1344 794 
L 1344 0 
L 684 0 
L 684 794 
z
" id="DejaVuSans-2e" transform="scale(0.015625)"/>
       </defs>
       <use xlink:href="#DejaVuSans-30"/>
       <use x="63.623047" xlink:href="#DejaVuSans-2e"/>
       <use x="95.410156" xlink:href="#DejaVuSans-30"/>
      </g>
     </g>
    </g>
    <g id="xtick_2">
     <g id="line2d_2">
      <g>
       <use style="stroke:#000000;stroke-width:0.8;" x="131.767" xlink:href="#md1fed4285d" y="303.64"/>
      </g>
     </g>
     <g id="text_2">
      <!-- 0.2 -->
      <g transform="translate(123.815438 318.238437)scale(0.1 -0.1)">
       <defs>
        <path d="M 1228 531 
L 3431 531 
L 3431 0 
L 469 0 
L 469 531 
Q 828 903 1448 1529 
Q 2069 2156 2228 2338 
Q 2531 2678 2651 2914 
Q 2772 3150 2772 3378 
Q 2772 3750 2511 3984 
Q 2250 4219 1831 4219 
Q 1534 4219 1204 4116 
Q 875 4013 500 3803 
L 500 4441 
Q 881 4594 1212 4672 
Q 1544 4750 1819 4750 
Q 2544 4750 2975 4387 
Q 3406 4025 3406 3419 
Q 3406 3131 3298 2873 
Q 3191 2616 2906 2266 
Q 2828 2175 2409 1742 
Q 1991 1309 1228 531 
z
" id="DejaVuSans-32" transform="scale(0.015625)"/>
       </defs>
       <use xlink:href="#DejaVuSans-30"/>
       <use x="63.623047" xlink:href="#DejaVuSans-2e"/>
       <use x="95.410156" xlink:href="#DejaVuSans-32"/>
      </g>
     </g>
    </g>
    <g id="xtick_3">
     <g id="line2d_3">
      <g>
       <use style="stroke:#000000;stroke-width:0.8;" x="209.334" xlink:href="#md1fed4285d" y="303.64"/>
      </g>
     </g>
     <g id="text_3">
      <!-- 0.4 -->
      <g transform="translate(201.382438 318.238437)scale(0.1 -0.1)">
       <defs>
        <path d="M 2419 4116 
L 825 1625 
L 2419 1625 
L 2419 4116 
z
M 2253 4666 
L 3047 4666 
L 3047 1625 
L 3713 1625 
L 3713 1100 
L 3047 1100 
L 3047 0 
L 2419 0 
L 2419 1100 
L 313 1100 
L 313 1709 
L 2253 4666 
z
" id="DejaVuSans-34" transform="scale(0.015625)"/>
       </defs>
       <use xlink:href="#DejaVuSans-30"/>
       <use x="63.623047" xlink:href="#DejaVuSans-2e"/>
       <use x="95.410156" xlink:href="#DejaVuSans-34"/>
      </g>
     </g>
    </g>
    <g id="xtick_4">
     <g id="line2d_4">
      <g>
       <use style="stroke:#000000;stroke-width:0.8;" x="286.901" xlink:href="#md1fed4285d" y="303.64"/>
      </g>
     </g>
     <g id="text_4">
      <!-- 0.6 -->
      <g transform="translate(278.949437 318.238437)scale(0.1 -0.1)">
       <defs>
        <path d="M 2113 2584 
Q 1688 2584 1439 2293 
Q 1191 2003 1191 1497 
Q 1191 994 1439 701 
Q 1688 409 2113 409 
Q 2538 409 2786 701 
Q 3034 994 3034 1497 
Q 3034 2003 2786 2293 
Q 2538 2584 2113 2584 
z
M 3366 4563 
L 3366 3988 
Q 3128 4100 2886 4159 
Q 2644 4219 2406 4219 
Q 1781 4219 1451 3797 
Q 1122 3375 1075 2522 
Q 1259 2794 1537 2939 
Q 1816 3084 2150 3084 
Q 2853 3084 3261 2657 
Q 3669 2231 3669 1497 
Q 3669 778 3244 343 
Q 2819 -91 2113 -91 
Q 1303 -91 875 529 
Q 447 1150 447 2328 
Q 447 3434 972 4092 
Q 1497 4750 2381 4750 
Q 2619 4750 2861 4703 
Q 3103 4656 3366 4563 
z
" id="DejaVuSans-36" transform="scale(0.015625)"/>
       </defs>
       <use xlink:href="#DejaVuSans-30"/>
       <use x="63.623047" xlink:href="#DejaVuSans-2e"/>
       <use x="95.410156" xlink:href="#DejaVuSans-36"/>
      </g>
     </g>
    </g>
    <g id="xtick_5">
     <g id="line2d_5">
      <g>
       <use style="stroke:#000000;stroke-width:0.8;" x="364.468" xlink:href="#md1fed4285d" y="303.64"/>
      </g>
     </g>
     <g id="text_5">
      <!-- 0.8 -->
      <g transform="translate(356.516437 318.238437)scale(0.1 -0.1)">
       <defs>
        <path d="M 2034 2216 
Q 1584 2216 1326 1975 
Q 1069 1734 1069 1313 
Q 1069 891 1326 650 
Q 1584 409 2034 409 
Q 2484 409 2743 651 
Q 3003 894 3003 1313 
Q 3003 1734 2745 1975 
Q 2488 2216 2034 2216 
z
M 1403 2484 
Q 997 2584 770 2862 
Q 544 3141 544 3541 
Q 544 4100 942 4425 
Q 1341 4750 2034 4750 
Q 2731 4750 3128 4425 
Q 3525 4100 3525 3541 
Q 3525 3141 3298 2862 
Q 3072 2584 2669 2484 
Q 3125 2378 3379 2068 
Q 3634 1759 3634 1313 
Q 3634 634 3220 271 
Q 2806 -91 2034 -91 
Q 1263 -91 848 271 
Q 434 634 434 1313 
Q 434 1759 690 2068 
Q 947 2378 1403 2484 
z
M 1172 3481 
Q 1172 3119 1398 2916 
Q 1625 2713 2034 2713 
Q 2441 2713 2670 2916 
Q 2900 3119 2900 3481 
Q 2900 3844 2670 4047 
Q 2441 4250 2034 4250 
Q 1625 4250 1398 4047 
Q 1172 3844 1172 3481 
z
" id="DejaVuSans-38" transform="scale(0.015625)"/>
       </defs>
       <use xlink:href="#DejaVuSans-30"/>
       <use x="63.623047" xlink:href="#DejaVuSans-2e"/>
       <use x="95.410156" xlink:href="#DejaVuSans-38"/>
      </g>
     </g>
    </g>
    <g id="xtick_6">
     <g id="line2d_6">
      <g>
       <use style="stroke:#000000;stroke-width:0.8;" x="442.035" xlink:href="#md1fed4285d" y="303.64"/>
      </g>
     </g>
     <g id="text_6">
      <!-- 1.0 -->
      <g transform="translate(434.083437 318.238437)scale(0.1 -0.1)">
       <defs>
        <path d="M 794 531 
L 1825 531 
L 1825 4091 
L 703 3866 
L 703 4441 
L 1819 4666 
L 2450 4666 
L 2450 531 
L 3481 531 
L 3481 0 
L 794 0 
L 794 531 
z
" id="DejaVuSans-31" transform="scale(0.015625)"/>
       </defs>
       <use xlink:href="#DejaVuSans-31"/>
       <use x="63.623047" xlink:href="#DejaVuSans-2e"/>
       <use x="95.410156" xlink:href="#DejaVuSans-30"/>
      </g>
     </g>
    </g>
    <g id="text_7">
     <!-- Credibility index -->
     <g transform="translate(207.512812 331.916562)scale(0.1 -0.1)">
      <defs>
       <path d="M 4122 4306 
L 4122 3641 
Q 3803 3938 3442 4084 
Q 3081 4231 2675 4231 
Q 1875 4231 1450 3742 
Q 1025 3253 1025 2328 
Q 1025 1406 1450 917 
Q 1875 428 2675 428 
Q 3081 428 3442 575 
Q 3803 722 4122 1019 
L 4122 359 
Q 3791 134 3420 21 
Q 3050 -91 2638 -91 
Q 1578 -91 968 557 
Q 359 1206 359 2328 
Q 359 3453 968 4101 
Q 1578 4750 2638 4750 
Q 3056 4750 3426 4639 
Q 3797 4528 4122 4306 
z
" id="DejaVuSans-43" transform="scale(0.015625)"/>
       <path d="M 2631 2963 
Q 2534 3019 2420 3045 
Q 2306 3072 2169 3072 
Q 1681 3072 1420 2755 
Q 1159 2438 1159 1844 
L 1159 0 
L 581 0 
L 581 3500 
L 1159 3500 
L 1159 2956 
Q 1341 3275 1631 3429 
Q 1922 3584 2338 3584 
Q 2397 3584 2469 3576 
Q 2541 3569 2628 3553 
L 2631 2963 
z
" id="DejaVuSans-72" transform="scale(0.015625)"/>
       <path d="M 3597 1894 
L 3597 1613 
L 953 1613 
Q 991 1019 1311 708 
Q 1631 397 2203 397 
Q 2534 397 2845 478 
Q 3156 559 3463 722 
L 3463 178 
Q 3153 47 2828 -22 
Q 2503 -91 2169 -91 
Q 1331 -91 842 396 
Q 353 884 353 1716 
Q 353 2575 817 3079 
Q 1281 3584 2069 3584 
Q 2775 3584 3186 3129 
Q 3597 2675 3597 1894 
z
M 3022 2063 
Q 3016 2534 2758 2815 
Q 2500 3097 2075 3097 
Q 1594 3097 1305 2825 
Q 1016 2553 972 2059 
L 3022 2063 
z
" id="DejaVuSans-65" transform="scale(0.015625)"/>
       <path d="M 2906 2969 
L 2906 4863 
L 3481 4863 
L 3481 0 
L 2906 0 
L 2906 525 
Q 2725 213 2448 61 
Q 2172 -91 1784 -91 
Q 1150 -91 751 415 
Q 353 922 353 1747 
Q 353 2572 751 3078 
Q 1150 3584 1784 3584 
Q 2172 3584 2448 3432 
Q 2725 3281 2906 2969 
z
M 947 1747 
Q 947 1113 1208 752 
Q 1469 391 1925 391 
Q 2381 391 2643 752 
Q 2906 1113 2906 1747 
Q 2906 2381 2643 2742 
Q 2381 3103 1925 3103 
Q 1469 3103 1208 2742 
Q 947 2381 947 1747 
z
" id="DejaVuSans-64" transform="scale(0.015625)"/>
       <path d="M 603 3500 
L 1178 3500 
L 1178 0 
L 603 0 
L 603 3500 
z
M 603 4863 
L 1178 4863 
L 1178 4134 
L 603 4134 
L 603 4863 
z
" id="DejaVuSans-69" transform="scale(0.015625)"/>
       <path d="M 3116 1747 
Q 3116 2381 2855 2742 
Q 2594 3103 2138 3103 
Q 1681 3103 1420 2742 
Q 1159 2381 1159 1747 
Q 1159 1113 1420 752 
Q 1681 391 2138 391 
Q 2594 391 2855 752 
Q 3116 1113 3116 1747 
z
M 1159 2969 
Q 1341 3281 1617 3432 
Q 1894 3584 2278 3584 
Q 2916 3584 3314 3078 
Q 3713 2572 3713 1747 
Q 3713 922 3314 415 
Q 2916 -91 2278 -91 
Q 1894 -91 1617 61 
Q 1341 213 1159 525 
L 1159 0 
L 581 0 
L 581 4863 
L 1159 4863 
L 1159 2969 
z
" id="DejaVuSans-62" transform="scale(0.015625)"/>
       <path d="M 603 4863 
L 1178 4863 
L 1178 0 
L 603 0 
L 603 4863 
z
" id="DejaVuSans-6c" transform="scale(0.015625)"/>
       <path d="M 1172 4494 
L 1172 3500 
L 2356 3500 
L 2356 3053 
L 1172 3053 
L 1172 1153 
Q 1172 725 1289 603 
Q 1406 481 1766 481 
L 2356 481 
L 2356 0 
L 1766 0 
Q 1100 0 847 248 
Q 594 497 594 1153 
L 594 3053 
L 172 3053 
L 172 3500 
L 594 3500 
L 594 4494 
L 1172 4494 
z
" id="DejaVuSans-74" transform="scale(0.015625)"/>
       <path d="M 2059 -325 
Q 1816 -950 1584 -1140 
Q 1353 -1331 966 -1331 
L 506 -1331 
L 506 -850 
L 844 -850 
Q 1081 -850 1212 -737 
Q 1344 -625 1503 -206 
L 1606 56 
L 191 3500 
L 800 3500 
L 1894 763 
L 2988 3500 
L 3597 3500 
L 2059 -325 
z
" id="DejaVuSans-79" transform="scale(0.015625)"/>
       <path id="DejaVuSans-20" transform="scale(0.015625)"/>
       <path d="M 3513 2113 
L 3513 0 
L 2938 0 
L 2938 2094 
Q 2938 2591 2744 2837 
Q 2550 3084 2163 3084 
Q 1697 3084 1428 2787 
Q 1159 2491 1159 1978 
L 1159 0 
L 581 0 
L 581 3500 
L 1159 3500 
L 1159 2956 
Q 1366 3272 1645 3428 
Q 1925 3584 2291 3584 
Q 2894 3584 3203 3211 
Q 3513 2838 3513 2113 
z
" id="DejaVuSans-6e" transform="scale(0.015625)"/>
       <path d="M 3513 3500 
L 2247 1797 
L 3578 0 
L 2900 0 
L 1881 1375 
L 863 0 
L 184 0 
L 1544 1831 
L 300 3500 
L 978 3500 
L 1906 2253 
L 2834 3500 
L 3513 3500 
z
" id="DejaVuSans-78" transform="scale(0.015625)"/>
      </defs>
      <use xlink:href="#DejaVuSans-43"/>
      <use x="69.824219" xlink:href="#DejaVuSans-72"/>
      <use x="108.6875" xlink:href="#DejaVuSans-65"/>
      <use x="170.210938" xlink:href="#DejaVuSans-64"/>
      <use x="233.6875" xlink:href="#DejaVuSans-69"/>
      <use x="261.470703" xlink:href="#DejaVuSans-62"/>
      <use x="324.947266" xlink:href="#DejaVuSans-69"/>
      <use x="352.730469" xlink:href="#DejaVuSans-6c"/>
      <use x="380.513672" xlink:href="#DejaVuSans-69"/>
      <use x="408.296875" xlink:href="#DejaVuSans-74"/>
      <use x="447.505859" xlink:href="#DejaVuSans-79"/>
      <use x="506.685547" xlink:href="#DejaVuSans-20"/>
      <use x="538.472656" xlink:href="#DejaVuSans-69"/>
      <use x="566.255859" xlink:href="#DejaVuSans-6e"/>
      <use x="629.634766" xlink:href="#DejaVuSans-64"/>
      <use x="693.111328" xlink:href="#DejaVuSans-65"/>
      <use x="752.884766" xlink:href="#DejaVuSans-78"/>
     </g>
    </g>
   </g>
   <g id="matplotlib.axis_2">
    <g id="ytick_1">
     <g id="line2d_7">
      <defs>
       <path d="M 0 0 
L -3.5 0 
" id="md39f252a78" style="stroke:#000000;stroke-width:0.8;"/>
      </defs>
      <g>
       <use style="stroke:#000000;stroke-width:0.8;" x="54.2" xlink:href="#md39f252a78" y="303.64"/>
      </g>
     </g>
     <g id="text_8">
      <!-- 0.00 -->
      <g transform="translate(24.934375 307.439219)scale(0.1 -0.1)">
       <use xlink:href="#DejaVuSans-30"/>
       <use x="63.623047" xlink:href="#DejaVuSans-2e"/>
       <use x="95.410156" xlink:href="#DejaVuSans-30"/>
       <use x="159.033203" xlink:href="#DejaVuSans-30"/>
      </g>
     </g>
    </g>
    <g id="ytick_2">
     <g id="line2d_8">
      <g>
       <use style="stroke:#000000;stroke-width:0.8;" x="54.2" xlink:href="#md39f252a78" y="272.342996"/>
      </g>
     </g>
     <g id="text_9">
      <!-- 0.25 -->
      <g transform="translate(24.934375 276.142215)scale(0.1 -0.1)">
       <defs>
        <path d="M 691 4666 
L 3169 4666 
L 3169 4134 
L 1269 4134 
L 1269 2991 
Q 1406 3038 1543 3061 
Q 1681 3084 1819 3084 
Q 2600 3084 3056 2656 
Q 3513 2228 3513 1497 
Q 3513 744 3044 326 
Q 2575 -91 1722 -91 
Q 1428 -91 1123 -41 
Q 819 9 494 109 
L 494 744 
Q 775 591 1075 516 
Q 1375 441 1709 441 
Q 2250 441 2565 725 
Q 2881 1009 2881 1497 
Q 2881 1984 2565 2268 
Q 2250 2553 1709 2553 
Q 1456 2553 1204 2497 
Q 953 2441 691 2322 
L 691 4666 
z
" id="DejaVuSans-35" transform="scale(0.015625)"/>
       </defs>
       <use xlink:href="#DejaVuSans-30"/>
       <use x="63.623047" xlink:href="#DejaVuSans-2e"/>
       <use x="95.410156" xlink:href="#DejaVuSans-32"/>
       <use x="159.033203" xlink:href="#DejaVuSans-35"/>
      </g>
     </g>
    </g>
    <g id="ytick_3">
     <g id="line2d_9">
      <g>
       <use style="stroke:#000000;stroke-width:0.8;" x="54.2" xlink:href="#md39f252a78" y="241.045992"/>
      </g>
     </g>
     <g id="text_10">
      <!-- 0.50 -->
      <g transform="translate(24.934375 244.84521)scale(0.1 -0.1)">
       <use xlink:href="#DejaVuSans-30"/>
       <use x="63.623047" xlink:href="#DejaVuSans-2e"/>
       <use x="95.410156" xlink:href="#DejaVuSans-35"/>
       <use x="159.033203" xlink:href="#DejaVuSans-30"/>
      </g>
     </g>
    </g>
    <g id="ytick_4">
     <g id="line2d_10">
      <g>
       <use style="stroke:#000000;stroke-width:0.8;" x="54.2" xlink:href="#md39f252a78" y="209.748988"/>
      </g>
     </g>
     <g id="text_11">
      <!-- 0.75 -->
      <g transform="translate(24.934375 213.548206)scale(0.1 -0.1)">
       <defs>
        <path d="M 525 4666 
L 3525 4666 
L 3525 4397 
L 1831 0 
L 1172 0 
L 2766 4134 
L 525 4134 
L 525 4666 
z
" id="DejaVuSans-37" transform="scale(0.015625)"/>
       </defs>
       <use xlink:href="#DejaVuSans-30"/>
       <use x="63.623047" xlink:href="#DejaVuSans-2e"/>
       <use x="95.410156" xlink:href="#DejaVuSans-37"/>
       <use x="159.033203" xlink:href="#DejaVuSans-35"/>
      </g>
     </g>
    </g>
    <g id="ytick_5">
     <g id="line2d_11">
      <g>
       <use style="stroke:#000000;stroke-width:0.8;" x="54.2" xlink:href="#md39f252a78" y="178.451983"/>
      </g>
     </g>
     <g id="text_12">
      <!-- 1.00 -->
      <g transform="translate(24.934375 182.251202)scale(0.1 -0.1)">
       <use xlink:href="#DejaVuSans-31"/>
       <use x="63.623047" xlink:href="#DejaVuSans-2e"/>
       <use x="95.410156" xlink:href="#DejaVuSans-30"/>
       <use x="159.033203" xlink:href="#DejaVuSans-30"/>
      </g>
     </g>
    </g>
    <g id="ytick_6">
     <g id="line2d_12">
      <g>
       <use style="stroke:#000000;stroke-width:0.8;" x="54.2" xlink:href="#md39f252a78" y="147.154979"/>
      </g>
     </g>
     <g id="text_13">
      <!-- 1.25 -->
      <g transform="translate(24.934375 150.954198)scale(0.1 -0.1)">
       <use xlink:href="#DejaVuSans-31"/>
       <use x="63.623047" xlink:href="#DejaVuSans-2e"/>
       <use x="95.410156" xlink:href="#DejaVuSans-32"/>
       <use x="159.033203" xlink:href="#DejaVuSans-35"/>
      </g>
     </g>
    </g>
    <g id="ytick_7">
     <g id="line2d_13">
      <g>
       <use style="stroke:#000000;stroke-width:0.8;" x="54.2" xlink:href="#md39f252a78" y="115.857975"/>
      </g>
     </g>
     <g id="text_14">
      <!-- 1.50 -->
      <g transform="translate(24.934375 119.657194)scale(0.1 -0.1)">
       <use xlink:href="#DejaVuSans-31"/>
       <use x="63.623047" xlink:href="#DejaVuSans-2e"/>
       <use x="95.410156" xlink:href="#DejaVuSans-35"/>
       <use x="159.033203" xlink:href="#DejaVuSans-30"/>
      </g>
     </g>
    </g>
    <g id="ytick_8">
     <g id="line2d_14">
      <g>
       <use style="stroke:#000000;stroke-width:0.8;" x="54.2" xlink:href="#md39f252a78" y="84.560971"/>
      </g>
     </g>
     <g id="text_15">
      <!-- 1.75 -->
      <g transform="translate(24.934375 88.36019)scale(0.1 -0.1)">
       <use xlink:href="#DejaVuSans-31"/>
       <use x="63.623047" xlink:href="#DejaVuSans-2e"/>
       <use x="95.410156" xlink:href="#DejaVuSans-37"/>
       <use x="159.033203" xlink:href="#DejaVuSans-35"/>
      </g>
     </g>
    </g>
    <g id="ytick_9">
     <g id="line2d_15">
      <g>
       <use style="stroke:#000000;stroke-width:0.8;" x="54.2" xlink:href="#md39f252a78" y="53.263967"/>
      </g>
     </g>
     <g id="text_16">
      <!-- 2.00 -->
      <g transform="translate(24.934375 57.063186)scale(0.1 -0.1)">
       <use xlink:href="#DejaVuSans-32"/>
       <use x="63.623047" xlink:href="#DejaVuSans-2e"/>
       <use x="95.410156" xlink:href="#DejaVuSans-30"/>
       <use x="159.033203" xlink:href="#DejaVuSans-30"/>
      </g>
     </g>
    </g>
    <g id="text_17">
     <!-- Density -->
     <g transform="translate(18.854688 189.812594)rotate(-90)scale(0.1 -0.1)">
      <defs>
       <path d="M 1259 4147 
L 1259 519 
L 2022 519 
Q 2988 519 3436 956 
Q 3884 1394 3884 2338 
Q 3884 3275 3436 3711 
Q 2988 4147 2022 4147 
L 1259 4147 
z
M 628 4666 
L 1925 4666 
Q 3281 4666 3915 4102 
Q 4550 3538 4550 2338 
Q 4550 1131 3912 565 
Q 3275 0 1925 0 
L 628 0 
L 628 4666 
z
" id="DejaVuSans-44" transform="scale(0.015625)"/>
       <path d="M 2834 3397 
L 2834 2853 
Q 2591 2978 2328 3040 
Q 2066 3103 1784 3103 
Q 1356 3103 1142 2972 
Q 928 2841 928 2578 
Q 928 2378 1081 2264 
Q 1234 2150 1697 2047 
L 1894 2003 
Q 2506 1872 2764 1633 
Q 3022 1394 3022 966 
Q 3022 478 2636 193 
Q 2250 -91 1575 -91 
Q 1294 -91 989 -36 
Q 684 19 347 128 
L 347 722 
Q 666 556 975 473 
Q 1284 391 1588 391 
Q 1994 391 2212 530 
Q 2431 669 2431 922 
Q 2431 1156 2273 1281 
Q 2116 1406 1581 1522 
L 1381 1569 
Q 847 1681 609 1914 
Q 372 2147 372 2553 
Q 372 3047 722 3315 
Q 1072 3584 1716 3584 
Q 2034 3584 2315 3537 
Q 2597 3491 2834 3397 
z
" id="DejaVuSans-73" transform="scale(0.015625)"/>
      </defs>
      <use xlink:href="#DejaVuSans-44"/>
      <use x="77.001953" xlink:href="#DejaVuSans-65"/>
      <use x="138.525391" xlink:href="#DejaVuSans-6e"/>
      <use x="201.904297" xlink:href="#DejaVuSans-73"/>
      <use x="254.003906" xlink:href="#DejaVuSans-69"/>
      <use x="281.787109" xlink:href="#DejaVuSans-74"/>
      <use x="320.996094" xlink:href="#DejaVuSans-79"/>
     </g>
    </g>
   </g>
   <g id="patch_3">
    <path d="M 54.2 303.64 
L 54.2 37.968 
" style="fill:none;stroke:#000000;stroke-linecap:square;stroke-linejoin:miter;stroke-width:0.8;"/>
   </g>
   <g id="patch_4">
    <path d="M 442.035 303.64 
L 442.035 37.968 
" style="fill:none;stroke:#000000;stroke-linecap:square;stroke-linejoin:miter;stroke-width:0.8;"/>
   </g>
   <g id="patch_5">
    <path d="M 54.2 303.64 
L 442.035 303.64 
" style="fill:none;stroke:#000000;stroke-linecap:square;stroke-linejoin:miter;stroke-width:0.8;"/>
   </g>
   <g id="patch_6">
    <path d="M 54.2 37.968 
L 442.035 37.968 
" style="fill:none;stroke:#000000;stroke-linecap:square;stroke-linejoin:miter;stroke-width:0.8;"/>
   </g>
   <g id="text_18">
    <!-- Credibility index consensus vs non consensus  -->
    <g transform="translate(109.01125 18.530625)scale(0.12 -0.12)">
     <defs>
      <path d="M 3122 3366 
L 3122 2828 
Q 2878 2963 2633 3030 
Q 2388 3097 2138 3097 
Q 1578 3097 1268 2742 
Q 959 2388 959 1747 
Q 959 1106 1268 751 
Q 1578 397 2138 397 
Q 2388 397 2633 464 
Q 2878 531 3122 666 
L 3122 134 
Q 2881 22 2623 -34 
Q 2366 -91 2075 -91 
Q 1284 -91 818 406 
Q 353 903 353 1747 
Q 353 2603 823 3093 
Q 1294 3584 2113 3584 
Q 2378 3584 2631 3529 
Q 2884 3475 3122 3366 
z
" id="DejaVuSans-63" transform="scale(0.015625)"/>
      <path d="M 1959 3097 
Q 1497 3097 1228 2736 
Q 959 2375 959 1747 
Q 959 1119 1226 758 
Q 1494 397 1959 397 
Q 2419 397 2687 759 
Q 2956 1122 2956 1747 
Q 2956 2369 2687 2733 
Q 2419 3097 1959 3097 
z
M 1959 3584 
Q 2709 3584 3137 3096 
Q 3566 2609 3566 1747 
Q 3566 888 3137 398 
Q 2709 -91 1959 -91 
Q 1206 -91 779 398 
Q 353 888 353 1747 
Q 353 2609 779 3096 
Q 1206 3584 1959 3584 
z
" id="DejaVuSans-6f" transform="scale(0.015625)"/>
      <path d="M 544 1381 
L 544 3500 
L 1119 3500 
L 1119 1403 
Q 1119 906 1312 657 
Q 1506 409 1894 409 
Q 2359 409 2629 706 
Q 2900 1003 2900 1516 
L 2900 3500 
L 3475 3500 
L 3475 0 
L 2900 0 
L 2900 538 
Q 2691 219 2414 64 
Q 2138 -91 1772 -91 
Q 1169 -91 856 284 
Q 544 659 544 1381 
z
M 1991 3584 
L 1991 3584 
z
" id="DejaVuSans-75" transform="scale(0.015625)"/>
      <path d="M 191 3500 
L 800 3500 
L 1894 563 
L 2988 3500 
L 3597 3500 
L 2284 0 
L 1503 0 
L 191 3500 
z
" id="DejaVuSans-76" transform="scale(0.015625)"/>
     </defs>
     <use xlink:href="#DejaVuSans-43"/>
     <use x="69.824219" xlink:href="#DejaVuSans-72"/>
     <use x="108.6875" xlink:href="#DejaVuSans-65"/>
     <use x="170.210938" xlink:href="#DejaVuSans-64"/>
     <use x="233.6875" xlink:href="#DejaVuSans-69"/>
     <use x="261.470703" xlink:href="#DejaVuSans-62"/>
     <use x="324.947266" xlink:href="#DejaVuSans-69"/>
     <use x="352.730469" xlink:href="#DejaVuSans-6c"/>
     <use x="380.513672" xlink:href="#DejaVuSans-69"/>
     <use x="408.296875" xlink:href="#DejaVuSans-74"/>
     <use x="447.505859" xlink:href="#DejaVuSans-79"/>
     <use x="506.685547" xlink:href="#DejaVuSans-20"/>
     <use x="538.472656" xlink:href="#DejaVuSans-69"/>
     <use x="566.255859" xlink:href="#DejaVuSans-6e"/>
     <use x="629.634766" xlink:href="#DejaVuSans-64"/>
     <use x="693.111328" xlink:href="#DejaVuSans-65"/>
     <use x="752.884766" xlink:href="#DejaVuSans-78"/>
     <use x="812.064453" xlink:href="#DejaVuSans-20"/>
     <use x="843.851562" xlink:href="#DejaVuSans-63"/>
     <use x="898.832031" xlink:href="#DejaVuSans-6f"/>
     <use x="960.013672" xlink:href="#DejaVuSans-6e"/>
     <use x="1023.392578" xlink:href="#DejaVuSans-73"/>
     <use x="1075.492188" xlink:href="#DejaVuSans-65"/>
     <use x="1137.015625" xlink:href="#DejaVuSans-6e"/>
     <use x="1200.394531" xlink:href="#DejaVuSans-73"/>
     <use x="1252.494141" xlink:href="#DejaVuSans-75"/>
     <use x="1315.873047" xlink:href="#DejaVuSans-73"/>
     <use x="1367.972656" xlink:href="#DejaVuSans-20"/>
     <use x="1399.759766" xlink:href="#DejaVuSans-76"/>
     <use x="1458.939453" xlink:href="#DejaVuSans-73"/>
     <use x="1511.039062" xlink:href="#DejaVuSans-20"/>
     <use x="1542.826172" xlink:href="#DejaVuSans-6e"/>
     <use x="1606.205078" xlink:href="#DejaVuSans-6f"/>
     <use x="1667.386719" xlink:href="#DejaVuSans-6e"/>
     <use x="1730.765625" xlink:href="#DejaVuSans-20"/>
     <use x="1762.552734" xlink:href="#DejaVuSans-63"/>
     <use x="1817.533203" xlink:href="#DejaVuSans-6f"/>
     <use x="1878.714844" xlink:href="#DejaVuSans-6e"/>
     <use x="1942.09375" xlink:href="#DejaVuSans-73"/>
     <use x="1994.193359" xlink:href="#DejaVuSans-65"/>
     <use x="2055.716797" xlink:href="#DejaVuSans-6e"/>
     <use x="2119.095703" xlink:href="#DejaVuSans-73"/>
     <use x="2171.195312" xlink:href="#DejaVuSans-75"/>
     <use x="2234.574219" xlink:href="#DejaVuSans-73"/>
     <use x="2286.673828" xlink:href="#DejaVuSans-20"/>
    </g>
    <!-- Set big -->
    <g transform="translate(227.0725 31.968)scale(0.12 -0.12)">
     <defs>
      <path d="M 3425 4513 
L 3425 3897 
Q 3066 4069 2747 4153 
Q 2428 4238 2131 4238 
Q 1616 4238 1336 4038 
Q 1056 3838 1056 3469 
Q 1056 3159 1242 3001 
Q 1428 2844 1947 2747 
L 2328 2669 
Q 3034 2534 3370 2195 
Q 3706 1856 3706 1288 
Q 3706 609 3251 259 
Q 2797 -91 1919 -91 
Q 1588 -91 1214 -16 
Q 841 59 441 206 
L 441 856 
Q 825 641 1194 531 
Q 1563 422 1919 422 
Q 2459 422 2753 634 
Q 3047 847 3047 1241 
Q 3047 1584 2836 1778 
Q 2625 1972 2144 2069 
L 1759 2144 
Q 1053 2284 737 2584 
Q 422 2884 422 3419 
Q 422 4038 858 4394 
Q 1294 4750 2059 4750 
Q 2388 4750 2728 4690 
Q 3069 4631 3425 4513 
z
" id="DejaVuSans-53" transform="scale(0.015625)"/>
      <path d="M 2906 1791 
Q 2906 2416 2648 2759 
Q 2391 3103 1925 3103 
Q 1463 3103 1205 2759 
Q 947 2416 947 1791 
Q 947 1169 1205 825 
Q 1463 481 1925 481 
Q 2391 481 2648 825 
Q 2906 1169 2906 1791 
z
M 3481 434 
Q 3481 -459 3084 -895 
Q 2688 -1331 1869 -1331 
Q 1566 -1331 1297 -1286 
Q 1028 -1241 775 -1147 
L 775 -588 
Q 1028 -725 1275 -790 
Q 1522 -856 1778 -856 
Q 2344 -856 2625 -561 
Q 2906 -266 2906 331 
L 2906 616 
Q 2728 306 2450 153 
Q 2172 0 1784 0 
Q 1141 0 747 490 
Q 353 981 353 1791 
Q 353 2603 747 3093 
Q 1141 3584 1784 3584 
Q 2172 3584 2450 3431 
Q 2728 3278 2906 2969 
L 2906 3500 
L 3481 3500 
L 3481 434 
z
" id="DejaVuSans-67" transform="scale(0.015625)"/>
     </defs>
     <use xlink:href="#DejaVuSans-53"/>
     <use x="63.476562" xlink:href="#DejaVuSans-65"/>
     <use x="125" xlink:href="#DejaVuSans-74"/>
     <use x="164.208984" xlink:href="#DejaVuSans-20"/>
     <use x="195.996094" xlink:href="#DejaVuSans-62"/>
     <use x="259.472656" xlink:href="#DejaVuSans-69"/>
     <use x="287.255859" xlink:href="#DejaVuSans-67"/>
    </g>
   </g>
   <g id="legend_1">
    <g id="patch_7">
     <path d="M 61.2 97.719875 
L 231.742188 97.719875 
Q 233.742188 97.719875 233.742188 95.719875 
L 233.742188 44.968 
Q 233.742188 42.968 231.742188 42.968 
L 61.2 42.968 
Q 59.2 42.968 59.2 44.968 
L 59.2 95.719875 
Q 59.2 97.719875 61.2 97.719875 
z
" style="fill:#ffffff;opacity:0.8;stroke:#cccccc;stroke-linejoin:miter;"/>
    </g>
    <g id="patch_8">
     <path d="M 63.2 61.205188 
L 83.2 61.205188 
L 83.2 54.205188 
L 63.2 54.205188 
z
" style="fill:#1f77b4;fill-opacity:0.4;stroke:#1f77b4;stroke-linejoin:miter;"/>
    </g>
    <g id="text_19">
     <!-- Correlation higher than 0  -->
     <g transform="translate(91.2 54.566438)scale(0.1 -0.1)">
      <defs>
       <path d="M 2194 1759 
Q 1497 1759 1228 1600 
Q 959 1441 959 1056 
Q 959 750 1161 570 
Q 1363 391 1709 391 
Q 2188 391 2477 730 
Q 2766 1069 2766 1631 
L 2766 1759 
L 2194 1759 
z
M 3341 1997 
L 3341 0 
L 2766 0 
L 2766 531 
Q 2569 213 2275 61 
Q 1981 -91 1556 -91 
Q 1019 -91 701 211 
Q 384 513 384 1019 
Q 384 1609 779 1909 
Q 1175 2209 1959 2209 
L 2766 2209 
L 2766 2266 
Q 2766 2663 2505 2880 
Q 2244 3097 1772 3097 
Q 1472 3097 1187 3025 
Q 903 2953 641 2809 
L 641 3341 
Q 956 3463 1253 3523 
Q 1550 3584 1831 3584 
Q 2591 3584 2966 3190 
Q 3341 2797 3341 1997 
z
" id="DejaVuSans-61" transform="scale(0.015625)"/>
       <path d="M 3513 2113 
L 3513 0 
L 2938 0 
L 2938 2094 
Q 2938 2591 2744 2837 
Q 2550 3084 2163 3084 
Q 1697 3084 1428 2787 
Q 1159 2491 1159 1978 
L 1159 0 
L 581 0 
L 581 4863 
L 1159 4863 
L 1159 2956 
Q 1366 3272 1645 3428 
Q 1925 3584 2291 3584 
Q 2894 3584 3203 3211 
Q 3513 2838 3513 2113 
z
" id="DejaVuSans-68" transform="scale(0.015625)"/>
      </defs>
      <use xlink:href="#DejaVuSans-43"/>
      <use x="69.824219" xlink:href="#DejaVuSans-6f"/>
      <use x="131.005859" xlink:href="#DejaVuSans-72"/>
      <use x="170.369141" xlink:href="#DejaVuSans-72"/>
      <use x="209.232422" xlink:href="#DejaVuSans-65"/>
      <use x="270.755859" xlink:href="#DejaVuSans-6c"/>
      <use x="298.539062" xlink:href="#DejaVuSans-61"/>
      <use x="359.818359" xlink:href="#DejaVuSans-74"/>
      <use x="399.027344" xlink:href="#DejaVuSans-69"/>
      <use x="426.810547" xlink:href="#DejaVuSans-6f"/>
      <use x="487.992188" xlink:href="#DejaVuSans-6e"/>
      <use x="551.371094" xlink:href="#DejaVuSans-20"/>
      <use x="583.158203" xlink:href="#DejaVuSans-68"/>
      <use x="646.537109" xlink:href="#DejaVuSans-69"/>
      <use x="674.320312" xlink:href="#DejaVuSans-67"/>
      <use x="737.796875" xlink:href="#DejaVuSans-68"/>
      <use x="801.175781" xlink:href="#DejaVuSans-65"/>
      <use x="862.699219" xlink:href="#DejaVuSans-72"/>
      <use x="903.8125" xlink:href="#DejaVuSans-20"/>
      <use x="935.599609" xlink:href="#DejaVuSans-74"/>
      <use x="974.808594" xlink:href="#DejaVuSans-68"/>
      <use x="1038.1875" xlink:href="#DejaVuSans-61"/>
      <use x="1099.466797" xlink:href="#DejaVuSans-6e"/>
      <use x="1162.845703" xlink:href="#DejaVuSans-20"/>
      <use x="1194.632812" xlink:href="#DejaVuSans-30"/>
      <use x="1258.255859" xlink:href="#DejaVuSans-20"/>
     </g>
     <!-- n=171 -->
     <g transform="translate(91.2 65.76425)scale(0.1 -0.1)">
      <defs>
       <path d="M 678 2906 
L 4684 2906 
L 4684 2381 
L 678 2381 
L 678 2906 
z
M 678 1631 
L 4684 1631 
L 4684 1100 
L 678 1100 
L 678 1631 
z
" id="DejaVuSans-3d" transform="scale(0.015625)"/>
      </defs>
      <use xlink:href="#DejaVuSans-6e"/>
      <use x="63.378906" xlink:href="#DejaVuSans-3d"/>
      <use x="147.167969" xlink:href="#DejaVuSans-31"/>
      <use x="210.791016" xlink:href="#DejaVuSans-37"/>
      <use x="274.414062" xlink:href="#DejaVuSans-31"/>
     </g>
    </g>
    <g id="patch_9">
     <path d="M 63.2 87.081125 
L 83.2 87.081125 
L 83.2 80.081125 
L 63.2 80.081125 
z
" style="fill:#ff7f0e;fill-opacity:0.4;stroke:#ff7f0e;stroke-linejoin:miter;"/>
    </g>
    <g id="text_20">
     <!-- Correlation higher than 0.8  -->
     <g transform="translate(91.2 80.442375)scale(0.1 -0.1)">
      <use xlink:href="#DejaVuSans-43"/>
      <use x="69.824219" xlink:href="#DejaVuSans-6f"/>
      <use x="131.005859" xlink:href="#DejaVuSans-72"/>
      <use x="170.369141" xlink:href="#DejaVuSans-72"/>
      <use x="209.232422" xlink:href="#DejaVuSans-65"/>
      <use x="270.755859" xlink:href="#DejaVuSans-6c"/>
      <use x="298.539062" xlink:href="#DejaVuSans-61"/>
      <use x="359.818359" xlink:href="#DejaVuSans-74"/>
      <use x="399.027344" xlink:href="#DejaVuSans-69"/>
      <use x="426.810547" xlink:href="#DejaVuSans-6f"/>
      <use x="487.992188" xlink:href="#DejaVuSans-6e"/>
      <use x="551.371094" xlink:href="#DejaVuSans-20"/>
      <use x="583.158203" xlink:href="#DejaVuSans-68"/>
      <use x="646.537109" xlink:href="#DejaVuSans-69"/>
      <use x="674.320312" xlink:href="#DejaVuSans-67"/>
      <use x="737.796875" xlink:href="#DejaVuSans-68"/>
      <use x="801.175781" xlink:href="#DejaVuSans-65"/>
      <use x="862.699219" xlink:href="#DejaVuSans-72"/>
      <use x="903.8125" xlink:href="#DejaVuSans-20"/>
      <use x="935.599609" xlink:href="#DejaVuSans-74"/>
      <use x="974.808594" xlink:href="#DejaVuSans-68"/>
      <use x="1038.1875" xlink:href="#DejaVuSans-61"/>
      <use x="1099.466797" xlink:href="#DejaVuSans-6e"/>
      <use x="1162.845703" xlink:href="#DejaVuSans-20"/>
      <use x="1194.632812" xlink:href="#DejaVuSans-30"/>
      <use x="1258.255859" xlink:href="#DejaVuSans-2e"/>
      <use x="1290.042969" xlink:href="#DejaVuSans-38"/>
      <use x="1353.666016" xlink:href="#DejaVuSans-20"/>
     </g>
     <!-- n=52 -->
     <g transform="translate(91.2 91.640187)scale(0.1 -0.1)">
      <use xlink:href="#DejaVuSans-6e"/>
      <use x="63.378906" xlink:href="#DejaVuSans-3d"/>
      <use x="147.167969" xlink:href="#DejaVuSans-35"/>
      <use x="210.791016" xlink:href="#DejaVuSans-32"/>
     </g>
    </g>
   </g>
  </g>
 </g>
 <defs>
  <clipPath id="p72ca5da3fe">
   <rect height="265.672" width="387.835" x="54.2" y="37.968"/>
  </clipPath>
 </defs>
</svg>
