<?xml version="1.0" encoding="utf-8" standalone="no"?>
<!DOCTYPE svg PUBLIC "-//W3C//DTD SVG 1.1//EN"
  "http://www.w3.org/Graphics/SVG/1.1/DTD/svg11.dtd">
<svg height="345.6pt" version="1.1" viewBox="0 0 460.8 345.6" width="460.8pt" xmlns="http://www.w3.org/2000/svg" xmlns:xlink="http://www.w3.org/1999/xlink">
 <metadata>
  <rdf:RDF xmlns:cc="http://creativecommons.org/ns#" xmlns:dc="http://purl.org/dc/elements/1.1/" xmlns:rdf="http://www.w3.org/1999/02/22-rdf-syntax-ns#">
   <cc:Work>
    <dc:type rdf:resource="http://purl.org/dc/dcmitype/StillImage"/>
    <dc:date>2021-11-24T22:48:33.879638</dc:date>
    <dc:format>image/svg+xml</dc:format>
    <dc:creator>
     <cc:Agent>
      <dc:title>Matplotlib v3.4.3, https://matplotlib.org/</dc:title>
     </cc:Agent>
    </dc:creator>
   </cc:Work>
  </rdf:RDF>
 </metadata>
 <defs>
  <style type="text/css">*{stroke-linecap:butt;stroke-linejoin:round;}</style>
 </defs>
 <g id="figure_1">
  <g id="patch_1">
   <path d="M 0 345.6 
L 460.8 345.6 
L 460.8 0 
L 0 0 
z
" style="fill:#ffffff;"/>
  </g>
  <g id="axes_1">
   <g id="patch_2">
    <path d="M 47.81 303.64 
L 442.035 303.64 
L 442.035 37.968 
L 47.81 37.968 
z
" style="fill:#ffffff;"/>
   </g>
   <g id="PolyCollection_1">
    <path clip-path="url(#pb8725b9c9d)" d="M -28.136123 303.42366 
L -28.136123 303.64 
L -25.154091 303.64 
L -22.17206 303.64 
L -19.190029 303.64 
L -16.207997 303.64 
L -13.225966 303.64 
L -10.243935 303.64 
L -7.261903 303.64 
L -4.279872 303.64 
L -1.29784 303.64 
L 1.684191 303.64 
L 4.666222 303.64 
L 7.648254 303.64 
L 10.630285 303.64 
L 13.612317 303.64 
L 16.594348 303.64 
L 19.576379 303.64 
L 22.558411 303.64 
L 25.540442 303.64 
L 28.522474 303.64 
L 31.504505 303.64 
L 34.486536 303.64 
L 37.468568 303.64 
L 40.450599 303.64 
L 43.43263 303.64 
L 46.414662 303.64 
L 49.396693 303.64 
L 52.378725 303.64 
L 55.360756 303.64 
L 58.342787 303.64 
L 61.324819 303.64 
L 64.30685 303.64 
L 67.288882 303.64 
L 70.270913 303.64 
L 73.252944 303.64 
L 76.234976 303.64 
L 79.217007 303.64 
L 82.199038 303.64 
L 85.18107 303.64 
L 88.163101 303.64 
L 91.145133 303.64 
L 94.127164 303.64 
L 97.109195 303.64 
L 100.091227 303.64 
L 103.073258 303.64 
L 106.05529 303.64 
L 109.037321 303.64 
L 112.019352 303.64 
L 115.001384 303.64 
L 117.983415 303.64 
L 120.965446 303.64 
L 123.947478 303.64 
L 126.929509 303.64 
L 129.911541 303.64 
L 132.893572 303.64 
L 135.875603 303.64 
L 138.857635 303.64 
L 141.839666 303.64 
L 144.821698 303.64 
L 147.803729 303.64 
L 150.78576 303.64 
L 153.767792 303.64 
L 156.749823 303.64 
L 159.731854 303.64 
L 162.713886 303.64 
L 165.695917 303.64 
L 168.677949 303.64 
L 171.65998 303.64 
L 174.642011 303.64 
L 177.624043 303.64 
L 180.606074 303.64 
L 183.588106 303.64 
L 186.570137 303.64 
L 189.552168 303.64 
L 192.5342 303.64 
L 195.516231 303.64 
L 198.498262 303.64 
L 201.480294 303.64 
L 204.462325 303.64 
L 207.444357 303.64 
L 210.426388 303.64 
L 213.408419 303.64 
L 216.390451 303.64 
L 219.372482 303.64 
L 222.354514 303.64 
L 225.336545 303.64 
L 228.318576 303.64 
L 231.300608 303.64 
L 234.282639 303.64 
L 237.26467 303.64 
L 240.246702 303.64 
L 243.228733 303.64 
L 246.210765 303.64 
L 249.192796 303.64 
L 252.174827 303.64 
L 255.156859 303.64 
L 258.13889 303.64 
L 261.120922 303.64 
L 264.102953 303.64 
L 267.084984 303.64 
L 270.067016 303.64 
L 273.049047 303.64 
L 276.031078 303.64 
L 279.01311 303.64 
L 281.995141 303.64 
L 284.977173 303.64 
L 287.959204 303.64 
L 290.941235 303.64 
L 293.923267 303.64 
L 296.905298 303.64 
L 299.88733 303.64 
L 302.869361 303.64 
L 305.851392 303.64 
L 308.833424 303.64 
L 311.815455 303.64 
L 314.797486 303.64 
L 317.779518 303.64 
L 320.761549 303.64 
L 323.743581 303.64 
L 326.725612 303.64 
L 329.707643 303.64 
L 332.689675 303.64 
L 335.671706 303.64 
L 338.653738 303.64 
L 341.635769 303.64 
L 344.6178 303.64 
L 347.599832 303.64 
L 350.581863 303.64 
L 353.563894 303.64 
L 356.545926 303.64 
L 359.527957 303.64 
L 362.509989 303.64 
L 365.49202 303.64 
L 368.474051 303.64 
L 371.456083 303.64 
L 374.438114 303.64 
L 377.420146 303.64 
L 380.402177 303.64 
L 383.384208 303.64 
L 386.36624 303.64 
L 389.348271 303.64 
L 392.330302 303.64 
L 395.312334 303.64 
L 398.294365 303.64 
L 401.276397 303.64 
L 404.258428 303.64 
L 407.240459 303.64 
L 410.222491 303.64 
L 413.204522 303.64 
L 416.186554 303.64 
L 419.168585 303.64 
L 422.150616 303.64 
L 425.132648 303.64 
L 428.114679 303.64 
L 431.09671 303.64 
L 434.078742 303.64 
L 437.060773 303.64 
L 440.042805 303.64 
L 443.024836 303.64 
L 446.006867 303.64 
L 448.988899 303.64 
L 451.97093 303.64 
L 454.952962 303.64 
L 457.934993 303.64 
L 460.917024 303.64 
L 463.899056 303.64 
L 466.881087 303.64 
L 469.863118 303.64 
L 472.84515 303.64 
L 475.827181 303.64 
L 478.809213 303.64 
L 481.791244 303.64 
L 484.773275 303.64 
L 487.755307 303.64 
L 490.737338 303.64 
L 493.71937 303.64 
L 496.701401 303.64 
L 499.683432 303.64 
L 502.665464 303.64 
L 505.647495 303.64 
L 508.629526 303.64 
L 511.611558 303.64 
L 514.593589 303.64 
L 517.575621 303.64 
L 520.557652 303.64 
L 523.539683 303.64 
L 526.521715 303.64 
L 529.503746 303.64 
L 532.485778 303.64 
L 535.467809 303.64 
L 538.44984 303.64 
L 541.431872 303.64 
L 544.413903 303.64 
L 547.395935 303.64 
L 550.377966 303.64 
L 553.359997 303.64 
L 556.342029 303.64 
L 559.32406 303.64 
L 562.306091 303.64 
L 565.288123 303.64 
L 565.288123 303.052918 
L 565.288123 303.052918 
L 562.306091 302.908662 
L 559.32406 302.733592 
L 556.342029 302.52232 
L 553.359997 302.268789 
L 550.377966 301.966263 
L 547.395935 301.607314 
L 544.413903 301.183834 
L 541.431872 300.687065 
L 538.44984 300.10765 
L 535.467809 299.435716 
L 532.485778 298.660975 
L 529.503746 297.772866 
L 526.521715 296.760715 
L 523.539683 295.613939 
L 520.557652 294.322263 
L 517.575621 292.875982 
L 514.593589 291.266225 
L 511.611558 289.485254 
L 508.629526 287.526762 
L 505.647495 285.386173 
L 502.665464 283.060943 
L 499.683432 280.550833 
L 496.701401 277.858162 
L 493.71937 274.98802 
L 490.737338 271.948424 
L 487.755307 268.750424 
L 484.773275 265.408142 
L 481.791244 261.938725 
L 478.809213 258.362232 
L 475.827181 254.701436 
L 472.84515 250.981537 
L 469.863118 247.229813 
L 466.881087 243.475185 
L 463.899056 239.747734 
L 460.917024 236.078161 
L 457.934993 232.497211 
L 454.952962 229.035088 
L 451.97093 225.720853 
L 448.988899 222.581855 
L 446.006867 219.643181 
L 443.024836 216.927166 
L 440.042805 214.452963 
L 437.060773 212.236194 
L 434.078742 210.288685 
L 431.09671 208.618304 
L 428.114679 207.228887 
L 425.132648 206.120275 
L 422.150616 205.288437 
L 419.168585 204.725688 
L 416.186554 204.420989 
L 413.204522 204.360308 
L 410.222491 204.527048 
L 407.240459 204.902508 
L 404.258428 205.466374 
L 401.276397 206.197218 
L 398.294365 207.072998 
L 395.312334 208.071537 
L 392.330302 209.170973 
L 389.348271 210.350173 
L 386.36624 211.589097 
L 383.384208 212.869107 
L 380.402177 214.17322 
L 377.420146 215.486303 
L 374.438114 216.795206 
L 371.456083 218.088837 
L 368.474051 219.358184 
L 365.49202 220.596285 
L 362.509989 221.798154 
L 359.527957 222.960666 
L 356.545926 224.08241 
L 353.563894 225.163514 
L 350.581863 226.205448 
L 347.599832 227.210817 
L 344.6178 228.183141 
L 341.635769 229.126634 
L 338.653738 230.04598 
L 335.671706 230.946126 
L 332.689675 231.832072 
L 329.707643 232.708688 
L 326.725612 233.580537 
L 323.743581 234.451731 
L 320.761549 235.325796 
L 317.779518 236.20557 
L 314.797486 237.093125 
L 311.815455 237.989716 
L 308.833424 238.895748 
L 305.851392 239.810787 
L 302.869361 240.733573 
L 299.88733 241.662077 
L 296.905298 242.593566 
L 293.923267 243.524694 
L 290.941235 244.451604 
L 287.959204 245.37004 
L 284.977173 246.27548 
L 281.995141 247.163252 
L 279.01311 248.02867 
L 276.031078 248.867152 
L 273.049047 249.674333 
L 270.067016 250.446173 
L 267.084984 251.179041 
L 264.102953 251.869785 
L 261.120922 252.515784 
L 258.13889 253.114979 
L 255.156859 253.66588 
L 252.174827 254.167562 
L 249.192796 254.619627 
L 246.210765 255.022168 
L 243.228733 255.375699 
L 240.246702 255.681089 
L 237.26467 255.939481 
L 234.282639 256.152205 
L 231.300608 256.320697 
L 228.318576 256.446416 
L 225.336545 256.530772 
L 222.354514 256.575058 
L 219.372482 256.580403 
L 216.390451 256.547738 
L 213.408419 256.477775 
L 210.426388 256.371011 
L 207.444357 256.227749 
L 204.462325 256.048138 
L 201.480294 255.832229 
L 198.498262 255.580056 
L 195.516231 255.291723 
L 192.5342 254.967506 
L 189.552168 254.607967 
L 186.570137 254.214069 
L 183.588106 253.787294 
L 180.606074 253.329758 
L 177.624043 252.844315 
L 174.642011 252.334654 
L 171.65998 251.805371 
L 168.677949 251.262026 
L 165.695917 250.711172 
L 162.713886 250.160358 
L 159.731854 249.618095 
L 156.749823 249.093795 
L 153.767792 248.597676 
L 150.78576 248.140631 
L 147.803729 247.734068 
L 144.821698 247.389718 
L 141.839666 247.119426 
L 138.857635 246.934915 
L 135.875603 246.847534 
L 132.893572 246.868011 
L 129.911541 247.006191 
L 126.929509 247.270792 
L 123.947478 247.669173 
L 120.965446 248.207125 
L 117.983415 248.888688 
L 115.001384 249.716016 
L 112.019352 250.689264 
L 109.037321 251.806539 
L 106.05529 253.063887 
L 103.073258 254.455333 
L 100.091227 255.972965 
L 97.109195 257.607072 
L 94.127164 259.346313 
L 91.145133 261.177935 
L 88.163101 263.088009 
L 85.18107 265.061708 
L 82.199038 267.083577 
L 79.217007 269.137838 
L 76.234976 271.208671 
L 73.252944 273.280504 
L 70.270913 275.338276 
L 67.288882 277.367689 
L 64.30685 279.35542 
L 61.324819 281.289308 
L 58.342787 283.158507 
L 55.360756 284.953595 
L 52.378725 286.666647 
L 49.396693 288.291274 
L 46.414662 289.822619 
L 43.43263 291.257325 
L 40.450599 292.593469 
L 37.468568 293.830473 
L 34.486536 294.968995 
L 31.504505 296.010796 
L 28.522474 296.958606 
L 25.540442 297.815977 
L 22.558411 298.587134 
L 19.576379 299.276829 
L 16.594348 299.890203 
L 13.612317 300.432651 
L 10.630285 300.909705 
L 7.648254 301.326921 
L 4.666222 301.68979 
L 1.684191 302.003653 
L -1.29784 302.273637 
L -4.279872 302.504606 
L -7.261903 302.701118 
L -10.243935 302.867402 
L -13.225966 303.007344 
L -16.207997 303.124476 
L -19.190029 303.221985 
L -22.17206 303.30272 
L -25.154091 303.369205 
L -28.136123 303.42366 
z
" style="fill:#1f77b4;fill-opacity:0.4;stroke:#1f77b4;"/>
   </g>
   <g id="PolyCollection_2">
    <defs>
     <path d="M 162.872813 -42.071284 
L 162.872813 -41.96 
L 164.648328 -41.96 
L 166.423842 -41.96 
L 168.199356 -41.96 
L 169.974871 -41.96 
L 171.750385 -41.96 
L 173.5259 -41.96 
L 175.301414 -41.96 
L 177.076929 -41.96 
L 178.852443 -41.96 
L 180.627958 -41.96 
L 182.403472 -41.96 
L 184.178986 -41.96 
L 185.954501 -41.96 
L 187.730015 -41.96 
L 189.50553 -41.96 
L 191.281044 -41.96 
L 193.056559 -41.96 
L 194.832073 -41.96 
L 196.607588 -41.96 
L 198.383102 -41.96 
L 200.158616 -41.96 
L 201.934131 -41.96 
L 203.709645 -41.96 
L 205.48516 -41.96 
L 207.260674 -41.96 
L 209.036189 -41.96 
L 210.811703 -41.96 
L 212.587217 -41.96 
L 214.362732 -41.96 
L 216.138246 -41.96 
L 217.913761 -41.96 
L 219.689275 -41.96 
L 221.46479 -41.96 
L 223.240304 -41.96 
L 225.015819 -41.96 
L 226.791333 -41.96 
L 228.566847 -41.96 
L 230.342362 -41.96 
L 232.117876 -41.96 
L 233.893391 -41.96 
L 235.668905 -41.96 
L 237.44442 -41.96 
L 239.219934 -41.96 
L 240.995449 -41.96 
L 242.770963 -41.96 
L 244.546477 -41.96 
L 246.321992 -41.96 
L 248.097506 -41.96 
L 249.873021 -41.96 
L 251.648535 -41.96 
L 253.42405 -41.96 
L 255.199564 -41.96 
L 256.975079 -41.96 
L 258.750593 -41.96 
L 260.526107 -41.96 
L 262.301622 -41.96 
L 264.077136 -41.96 
L 265.852651 -41.96 
L 267.628165 -41.96 
L 269.40368 -41.96 
L 271.179194 -41.96 
L 272.954708 -41.96 
L 274.730223 -41.96 
L 276.505737 -41.96 
L 278.281252 -41.96 
L 280.056766 -41.96 
L 281.832281 -41.96 
L 283.607795 -41.96 
L 285.38331 -41.96 
L 287.158824 -41.96 
L 288.934338 -41.96 
L 290.709853 -41.96 
L 292.485367 -41.96 
L 294.260882 -41.96 
L 296.036396 -41.96 
L 297.811911 -41.96 
L 299.587425 -41.96 
L 301.36294 -41.96 
L 303.138454 -41.96 
L 304.913968 -41.96 
L 306.689483 -41.96 
L 308.464997 -41.96 
L 310.240512 -41.96 
L 312.016026 -41.96 
L 313.791541 -41.96 
L 315.567055 -41.96 
L 317.342569 -41.96 
L 319.118084 -41.96 
L 320.893598 -41.96 
L 322.669113 -41.96 
L 324.444627 -41.96 
L 326.220142 -41.96 
L 327.995656 -41.96 
L 329.771171 -41.96 
L 331.546685 -41.96 
L 333.322199 -41.96 
L 335.097714 -41.96 
L 336.873228 -41.96 
L 338.648743 -41.96 
L 340.424257 -41.96 
L 342.199772 -41.96 
L 343.975286 -41.96 
L 345.750801 -41.96 
L 347.526315 -41.96 
L 349.301829 -41.96 
L 351.077344 -41.96 
L 352.852858 -41.96 
L 354.628373 -41.96 
L 356.403887 -41.96 
L 358.179402 -41.96 
L 359.954916 -41.96 
L 361.730431 -41.96 
L 363.505945 -41.96 
L 365.281459 -41.96 
L 367.056974 -41.96 
L 368.832488 -41.96 
L 370.608003 -41.96 
L 372.383517 -41.96 
L 374.159032 -41.96 
L 375.934546 -41.96 
L 377.71006 -41.96 
L 379.485575 -41.96 
L 381.261089 -41.96 
L 383.036604 -41.96 
L 384.812118 -41.96 
L 386.587633 -41.96 
L 388.363147 -41.96 
L 390.138662 -41.96 
L 391.914176 -41.96 
L 393.68969 -41.96 
L 395.465205 -41.96 
L 397.240719 -41.96 
L 399.016234 -41.96 
L 400.791748 -41.96 
L 402.567263 -41.96 
L 404.342777 -41.96 
L 406.118292 -41.96 
L 407.893806 -41.96 
L 409.66932 -41.96 
L 411.444835 -41.96 
L 413.220349 -41.96 
L 414.995864 -41.96 
L 416.771378 -41.96 
L 418.546893 -41.96 
L 420.322407 -41.96 
L 422.097921 -41.96 
L 423.873436 -41.96 
L 425.64895 -41.96 
L 427.424465 -41.96 
L 429.199979 -41.96 
L 430.975494 -41.96 
L 432.751008 -41.96 
L 434.526523 -41.96 
L 436.302037 -41.96 
L 438.077551 -41.96 
L 439.853066 -41.96 
L 441.62858 -41.96 
L 443.404095 -41.96 
L 445.179609 -41.96 
L 446.955124 -41.96 
L 448.730638 -41.96 
L 450.506153 -41.96 
L 452.281667 -41.96 
L 454.057181 -41.96 
L 455.832696 -41.96 
L 457.60821 -41.96 
L 459.383725 -41.96 
L 461.159239 -41.96 
L 462.934754 -41.96 
L 464.710268 -41.96 
L 466.485783 -41.96 
L 468.261297 -41.96 
L 470.036811 -41.96 
L 471.812326 -41.96 
L 473.58784 -41.96 
L 475.363355 -41.96 
L 477.138869 -41.96 
L 478.914384 -41.96 
L 480.689898 -41.96 
L 482.465412 -41.96 
L 484.240927 -41.96 
L 486.016441 -41.96 
L 487.791956 -41.96 
L 489.56747 -41.96 
L 491.342985 -41.96 
L 493.118499 -41.96 
L 494.894014 -41.96 
L 496.669528 -41.96 
L 498.445042 -41.96 
L 500.220557 -41.96 
L 501.996071 -41.96 
L 503.771586 -41.96 
L 505.5471 -41.96 
L 507.322615 -41.96 
L 509.098129 -41.96 
L 510.873644 -41.96 
L 512.649158 -41.96 
L 514.424672 -41.96 
L 516.200187 -41.96 
L 516.200187 -44.130343 
L 516.200187 -44.130343 
L 514.424672 -44.64877 
L 512.649158 -45.274125 
L 510.873644 -46.024204 
L 509.098129 -46.918788 
L 507.322615 -47.979644 
L 505.5471 -49.230488 
L 503.771586 -50.696871 
L 501.996071 -52.406009 
L 500.220557 -54.38652 
L 498.445042 -56.668083 
L 496.669528 -59.281003 
L 494.894014 -62.25568 
L 493.118499 -65.621987 
L 491.342985 -69.408561 
L 489.56747 -73.642006 
L 487.791956 -78.346042 
L 486.016441 -83.540591 
L 484.240927 -89.240844 
L 482.465412 -95.456321 
L 480.689898 -102.18997 
L 478.914384 -109.437311 
L 477.138869 -117.185693 
L 475.363355 -125.413666 
L 473.58784 -134.090533 
L 471.812326 -143.176084 
L 470.036811 -152.620564 
L 468.261297 -162.364884 
L 466.485783 -172.341086 
L 464.710268 -182.473086 
L 462.934754 -192.677664 
L 461.159239 -202.865723 
L 459.383725 -212.943756 
L 457.60821 -222.815516 
L 455.832696 -232.383838 
L 454.057181 -241.552555 
L 452.281667 -250.228464 
L 450.506153 -258.323278 
L 448.730638 -265.755497 
L 446.955124 -272.452147 
L 445.179609 -278.350322 
L 443.404095 -283.398481 
L 441.62858 -287.557465 
L 439.853066 -290.801186 
L 438.077551 -293.11698 
L 436.302037 -294.505615 
L 434.526523 -294.980952 
L 432.751008 -294.569289 
L 430.975494 -293.308396 
L 429.199979 -291.246313 
L 427.424465 -288.439927 
L 425.64895 -284.953401 
L 423.873436 -280.856515 
L 422.097921 -276.222959 
L 420.322407 -271.128662 
L 418.546893 -265.650188 
L 416.771378 -259.863259 
L 414.995864 -253.841433 
L 413.220349 -247.654988 
L 411.444835 -241.37 
L 409.66932 -235.047653 
L 407.893806 -228.743766 
L 406.118292 -222.508524 
L 404.342777 -216.386409 
L 402.567263 -210.416289 
L 400.791748 -204.631646 
L 399.016234 -199.060904 
L 397.240719 -193.727829 
L 395.465205 -188.651961 
L 393.68969 -183.84905 
L 391.914176 -179.331471 
L 390.138662 -175.10859 
L 388.363147 -171.187073 
L 386.587633 -167.571122 
L 384.812118 -164.262631 
L 383.036604 -161.261276 
L 381.261089 -158.564538 
L 379.485575 -156.167669 
L 377.71006 -154.063628 
L 375.934546 -152.242989 
L 374.159032 -150.69386 
L 372.383517 -149.401813 
L 370.608003 -148.349857 
L 368.832488 -147.518459 
L 367.056974 -146.885636 
L 365.281459 -146.427116 
L 363.505945 -146.116578 
L 361.730431 -145.925973 
L 359.954916 -145.825914 
L 358.179402 -145.78613 
L 356.403887 -145.775977 
L 354.628373 -145.764979 
L 352.852858 -145.723396 
L 351.077344 -145.622782 
L 349.301829 -145.436538 
L 347.526315 -145.140415 
L 345.750801 -144.712969 
L 343.975286 -144.135949 
L 342.199772 -143.394593 
L 340.424257 -142.477845 
L 338.648743 -141.378467 
L 336.873228 -140.093051 
L 335.097714 -138.621939 
L 333.322199 -136.969051 
L 331.546685 -135.141619 
L 329.771171 -133.149863 
L 327.995656 -131.006593 
L 326.220142 -128.726776 
L 324.444627 -126.327071 
L 322.669113 -123.825345 
L 320.893598 -121.240205 
L 319.118084 -118.590528 
L 317.342569 -115.89504 
L 315.567055 -113.171926 
L 313.791541 -110.438493 
L 312.016026 -107.710888 
L 310.240512 -105.003888 
L 308.464997 -102.330739 
L 306.689483 -99.703068 
L 304.913968 -97.130849 
L 303.138454 -94.622427 
L 301.36294 -92.184587 
L 299.587425 -89.822664 
L 297.811911 -87.540684 
L 296.036396 -85.341522 
L 294.260882 -83.22708 
L 292.485367 -81.198463 
L 290.709853 -79.256147 
L 288.934338 -77.40014 
L 287.158824 -75.630121 
L 285.38331 -73.945555 
L 283.607795 -72.345782 
L 281.832281 -70.830078 
L 280.056766 -69.397685 
L 278.281252 -68.047815 
L 276.505737 -66.779632 
L 274.730223 -65.592208 
L 272.954708 -64.484469 
L 271.179194 -63.455125 
L 269.40368 -62.502595 
L 267.628165 -61.624943 
L 265.852651 -60.819804 
L 264.077136 -60.084333 
L 262.301622 -59.415167 
L 260.526107 -58.808406 
L 258.750593 -58.259613 
L 256.975079 -57.763841 
L 255.199564 -57.315679 
L 253.42405 -56.909324 
L 251.648535 -56.538671 
L 249.873021 -56.197416 
L 248.097506 -55.879178 
L 246.321992 -55.577626 
L 244.546477 -55.286609 
L 242.770963 -55.000285 
L 240.995449 -54.713244 
L 239.219934 -54.42062 
L 237.44442 -54.118189 
L 235.668905 -53.802443 
L 233.893391 -53.470646 
L 232.117876 -53.120874 
L 230.342362 -52.752017 
L 228.566847 -52.36377 
L 226.791333 -51.956594 
L 225.015819 -51.531664 
L 223.240304 -51.090791 
L 221.46479 -50.636334 
L 219.689275 -50.171105 
L 217.913761 -49.698255 
L 216.138246 -49.221173 
L 214.362732 -48.743373 
L 212.587217 -48.268389 
L 210.811703 -47.799682 
L 209.036189 -47.340546 
L 207.260674 -46.894041 
L 205.48516 -46.462924 
L 203.709645 -46.049605 
L 201.934131 -45.65611 
L 200.158616 -45.284068 
L 198.383102 -44.934697 
L 196.607588 -44.608815 
L 194.832073 -44.306858 
L 193.056559 -44.028898 
L 191.281044 -43.774684 
L 189.50553 -43.543674 
L 187.730015 -43.33508 
L 185.954501 -43.147908 
L 184.178986 -42.980999 
L 182.403472 -42.833076 
L 180.627958 -42.70278 
L 178.852443 -42.588704 
L 177.076929 -42.48943 
L 175.301414 -42.403552 
L 173.5259 -42.329702 
L 171.750385 -42.266571 
L 169.974871 -42.212917 
L 168.199356 -42.167583 
L 166.423842 -42.129502 
L 164.648328 -42.097696 
L 162.872813 -42.071284 
z
" id="mf389f4a4ca" style="stroke:#ff7f0e;"/>
    </defs>
    <g clip-path="url(#pb8725b9c9d)">
     <use style="fill:#ff7f0e;fill-opacity:0.4;stroke:#ff7f0e;" x="0" xlink:href="#mf389f4a4ca" y="345.6"/>
    </g>
   </g>
   <g id="matplotlib.axis_1">
    <g id="xtick_1">
     <g id="line2d_1">
      <defs>
       <path d="M 0 0 
L 0 3.5 
" id="me5edd42e5d" style="stroke:#000000;stroke-width:0.8;"/>
      </defs>
      <g>
       <use style="stroke:#000000;stroke-width:0.8;" x="47.81" xlink:href="#me5edd42e5d" y="303.64"/>
      </g>
     </g>
     <g id="text_1">
      <!-- 0.0 -->
      <g transform="translate(39.858438 318.238437)scale(0.1 -0.1)">
       <defs>
        <path d="M 2034 4250 
Q 1547 4250 1301 3770 
Q 1056 3291 1056 2328 
Q 1056 1369 1301 889 
Q 1547 409 2034 409 
Q 2525 409 2770 889 
Q 3016 1369 3016 2328 
Q 3016 3291 2770 3770 
Q 2525 4250 2034 4250 
z
M 2034 4750 
Q 2819 4750 3233 4129 
Q 3647 3509 3647 2328 
Q 3647 1150 3233 529 
Q 2819 -91 2034 -91 
Q 1250 -91 836 529 
Q 422 1150 422 2328 
Q 422 3509 836 4129 
Q 1250 4750 2034 4750 
z
" id="DejaVuSans-30" transform="scale(0.015625)"/>
        <path d="M 684 794 
L 1344 794 
L 1344 0 
L 684 0 
L 684 794 
z
" id="DejaVuSans-2e" transform="scale(0.015625)"/>
       </defs>
       <use xlink:href="#DejaVuSans-30"/>
       <use x="63.623047" xlink:href="#DejaVuSans-2e"/>
       <use x="95.410156" xlink:href="#DejaVuSans-30"/>
      </g>
     </g>
    </g>
    <g id="xtick_2">
     <g id="line2d_2">
      <g>
       <use style="stroke:#000000;stroke-width:0.8;" x="126.655" xlink:href="#me5edd42e5d" y="303.64"/>
      </g>
     </g>
     <g id="text_2">
      <!-- 0.2 -->
      <g transform="translate(118.703438 318.238437)scale(0.1 -0.1)">
       <defs>
        <path d="M 1228 531 
L 3431 531 
L 3431 0 
L 469 0 
L 469 531 
Q 828 903 1448 1529 
Q 2069 2156 2228 2338 
Q 2531 2678 2651 2914 
Q 2772 3150 2772 3378 
Q 2772 3750 2511 3984 
Q 2250 4219 1831 4219 
Q 1534 4219 1204 4116 
Q 875 4013 500 3803 
L 500 4441 
Q 881 4594 1212 4672 
Q 1544 4750 1819 4750 
Q 2544 4750 2975 4387 
Q 3406 4025 3406 3419 
Q 3406 3131 3298 2873 
Q 3191 2616 2906 2266 
Q 2828 2175 2409 1742 
Q 1991 1309 1228 531 
z
" id="DejaVuSans-32" transform="scale(0.015625)"/>
       </defs>
       <use xlink:href="#DejaVuSans-30"/>
       <use x="63.623047" xlink:href="#DejaVuSans-2e"/>
       <use x="95.410156" xlink:href="#DejaVuSans-32"/>
      </g>
     </g>
    </g>
    <g id="xtick_3">
     <g id="line2d_3">
      <g>
       <use style="stroke:#000000;stroke-width:0.8;" x="205.5" xlink:href="#me5edd42e5d" y="303.64"/>
      </g>
     </g>
     <g id="text_3">
      <!-- 0.4 -->
      <g transform="translate(197.548438 318.238437)scale(0.1 -0.1)">
       <defs>
        <path d="M 2419 4116 
L 825 1625 
L 2419 1625 
L 2419 4116 
z
M 2253 4666 
L 3047 4666 
L 3047 1625 
L 3713 1625 
L 3713 1100 
L 3047 1100 
L 3047 0 
L 2419 0 
L 2419 1100 
L 313 1100 
L 313 1709 
L 2253 4666 
z
" id="DejaVuSans-34" transform="scale(0.015625)"/>
       </defs>
       <use xlink:href="#DejaVuSans-30"/>
       <use x="63.623047" xlink:href="#DejaVuSans-2e"/>
       <use x="95.410156" xlink:href="#DejaVuSans-34"/>
      </g>
     </g>
    </g>
    <g id="xtick_4">
     <g id="line2d_4">
      <g>
       <use style="stroke:#000000;stroke-width:0.8;" x="284.345" xlink:href="#me5edd42e5d" y="303.64"/>
      </g>
     </g>
     <g id="text_4">
      <!-- 0.6 -->
      <g transform="translate(276.393438 318.238437)scale(0.1 -0.1)">
       <defs>
        <path d="M 2113 2584 
Q 1688 2584 1439 2293 
Q 1191 2003 1191 1497 
Q 1191 994 1439 701 
Q 1688 409 2113 409 
Q 2538 409 2786 701 
Q 3034 994 3034 1497 
Q 3034 2003 2786 2293 
Q 2538 2584 2113 2584 
z
M 3366 4563 
L 3366 3988 
Q 3128 4100 2886 4159 
Q 2644 4219 2406 4219 
Q 1781 4219 1451 3797 
Q 1122 3375 1075 2522 
Q 1259 2794 1537 2939 
Q 1816 3084 2150 3084 
Q 2853 3084 3261 2657 
Q 3669 2231 3669 1497 
Q 3669 778 3244 343 
Q 2819 -91 2113 -91 
Q 1303 -91 875 529 
Q 447 1150 447 2328 
Q 447 3434 972 4092 
Q 1497 4750 2381 4750 
Q 2619 4750 2861 4703 
Q 3103 4656 3366 4563 
z
" id="DejaVuSans-36" transform="scale(0.015625)"/>
       </defs>
       <use xlink:href="#DejaVuSans-30"/>
       <use x="63.623047" xlink:href="#DejaVuSans-2e"/>
       <use x="95.410156" xlink:href="#DejaVuSans-36"/>
      </g>
     </g>
    </g>
    <g id="xtick_5">
     <g id="line2d_5">
      <g>
       <use style="stroke:#000000;stroke-width:0.8;" x="363.19" xlink:href="#me5edd42e5d" y="303.64"/>
      </g>
     </g>
     <g id="text_5">
      <!-- 0.8 -->
      <g transform="translate(355.238437 318.238437)scale(0.1 -0.1)">
       <defs>
        <path d="M 2034 2216 
Q 1584 2216 1326 1975 
Q 1069 1734 1069 1313 
Q 1069 891 1326 650 
Q 1584 409 2034 409 
Q 2484 409 2743 651 
Q 3003 894 3003 1313 
Q 3003 1734 2745 1975 
Q 2488 2216 2034 2216 
z
M 1403 2484 
Q 997 2584 770 2862 
Q 544 3141 544 3541 
Q 544 4100 942 4425 
Q 1341 4750 2034 4750 
Q 2731 4750 3128 4425 
Q 3525 4100 3525 3541 
Q 3525 3141 3298 2862 
Q 3072 2584 2669 2484 
Q 3125 2378 3379 2068 
Q 3634 1759 3634 1313 
Q 3634 634 3220 271 
Q 2806 -91 2034 -91 
Q 1263 -91 848 271 
Q 434 634 434 1313 
Q 434 1759 690 2068 
Q 947 2378 1403 2484 
z
M 1172 3481 
Q 1172 3119 1398 2916 
Q 1625 2713 2034 2713 
Q 2441 2713 2670 2916 
Q 2900 3119 2900 3481 
Q 2900 3844 2670 4047 
Q 2441 4250 2034 4250 
Q 1625 4250 1398 4047 
Q 1172 3844 1172 3481 
z
" id="DejaVuSans-38" transform="scale(0.015625)"/>
       </defs>
       <use xlink:href="#DejaVuSans-30"/>
       <use x="63.623047" xlink:href="#DejaVuSans-2e"/>
       <use x="95.410156" xlink:href="#DejaVuSans-38"/>
      </g>
     </g>
    </g>
    <g id="xtick_6">
     <g id="line2d_6">
      <g>
       <use style="stroke:#000000;stroke-width:0.8;" x="442.035" xlink:href="#me5edd42e5d" y="303.64"/>
      </g>
     </g>
     <g id="text_6">
      <!-- 1.0 -->
      <g transform="translate(434.083437 318.238437)scale(0.1 -0.1)">
       <defs>
        <path d="M 794 531 
L 1825 531 
L 1825 4091 
L 703 3866 
L 703 4441 
L 1819 4666 
L 2450 4666 
L 2450 531 
L 3481 531 
L 3481 0 
L 794 0 
L 794 531 
z
" id="DejaVuSans-31" transform="scale(0.015625)"/>
       </defs>
       <use xlink:href="#DejaVuSans-31"/>
       <use x="63.623047" xlink:href="#DejaVuSans-2e"/>
       <use x="95.410156" xlink:href="#DejaVuSans-30"/>
      </g>
     </g>
    </g>
    <g id="text_7">
     <!-- Credibility index -->
     <g transform="translate(204.317812 331.916562)scale(0.1 -0.1)">
      <defs>
       <path d="M 4122 4306 
L 4122 3641 
Q 3803 3938 3442 4084 
Q 3081 4231 2675 4231 
Q 1875 4231 1450 3742 
Q 1025 3253 1025 2328 
Q 1025 1406 1450 917 
Q 1875 428 2675 428 
Q 3081 428 3442 575 
Q 3803 722 4122 1019 
L 4122 359 
Q 3791 134 3420 21 
Q 3050 -91 2638 -91 
Q 1578 -91 968 557 
Q 359 1206 359 2328 
Q 359 3453 968 4101 
Q 1578 4750 2638 4750 
Q 3056 4750 3426 4639 
Q 3797 4528 4122 4306 
z
" id="DejaVuSans-43" transform="scale(0.015625)"/>
       <path d="M 2631 2963 
Q 2534 3019 2420 3045 
Q 2306 3072 2169 3072 
Q 1681 3072 1420 2755 
Q 1159 2438 1159 1844 
L 1159 0 
L 581 0 
L 581 3500 
L 1159 3500 
L 1159 2956 
Q 1341 3275 1631 3429 
Q 1922 3584 2338 3584 
Q 2397 3584 2469 3576 
Q 2541 3569 2628 3553 
L 2631 2963 
z
" id="DejaVuSans-72" transform="scale(0.015625)"/>
       <path d="M 3597 1894 
L 3597 1613 
L 953 1613 
Q 991 1019 1311 708 
Q 1631 397 2203 397 
Q 2534 397 2845 478 
Q 3156 559 3463 722 
L 3463 178 
Q 3153 47 2828 -22 
Q 2503 -91 2169 -91 
Q 1331 -91 842 396 
Q 353 884 353 1716 
Q 353 2575 817 3079 
Q 1281 3584 2069 3584 
Q 2775 3584 3186 3129 
Q 3597 2675 3597 1894 
z
M 3022 2063 
Q 3016 2534 2758 2815 
Q 2500 3097 2075 3097 
Q 1594 3097 1305 2825 
Q 1016 2553 972 2059 
L 3022 2063 
z
" id="DejaVuSans-65" transform="scale(0.015625)"/>
       <path d="M 2906 2969 
L 2906 4863 
L 3481 4863 
L 3481 0 
L 2906 0 
L 2906 525 
Q 2725 213 2448 61 
Q 2172 -91 1784 -91 
Q 1150 -91 751 415 
Q 353 922 353 1747 
Q 353 2572 751 3078 
Q 1150 3584 1784 3584 
Q 2172 3584 2448 3432 
Q 2725 3281 2906 2969 
z
M 947 1747 
Q 947 1113 1208 752 
Q 1469 391 1925 391 
Q 2381 391 2643 752 
Q 2906 1113 2906 1747 
Q 2906 2381 2643 2742 
Q 2381 3103 1925 3103 
Q 1469 3103 1208 2742 
Q 947 2381 947 1747 
z
" id="DejaVuSans-64" transform="scale(0.015625)"/>
       <path d="M 603 3500 
L 1178 3500 
L 1178 0 
L 603 0 
L 603 3500 
z
M 603 4863 
L 1178 4863 
L 1178 4134 
L 603 4134 
L 603 4863 
z
" id="DejaVuSans-69" transform="scale(0.015625)"/>
       <path d="M 3116 1747 
Q 3116 2381 2855 2742 
Q 2594 3103 2138 3103 
Q 1681 3103 1420 2742 
Q 1159 2381 1159 1747 
Q 1159 1113 1420 752 
Q 1681 391 2138 391 
Q 2594 391 2855 752 
Q 3116 1113 3116 1747 
z
M 1159 2969 
Q 1341 3281 1617 3432 
Q 1894 3584 2278 3584 
Q 2916 3584 3314 3078 
Q 3713 2572 3713 1747 
Q 3713 922 3314 415 
Q 2916 -91 2278 -91 
Q 1894 -91 1617 61 
Q 1341 213 1159 525 
L 1159 0 
L 581 0 
L 581 4863 
L 1159 4863 
L 1159 2969 
z
" id="DejaVuSans-62" transform="scale(0.015625)"/>
       <path d="M 603 4863 
L 1178 4863 
L 1178 0 
L 603 0 
L 603 4863 
z
" id="DejaVuSans-6c" transform="scale(0.015625)"/>
       <path d="M 1172 4494 
L 1172 3500 
L 2356 3500 
L 2356 3053 
L 1172 3053 
L 1172 1153 
Q 1172 725 1289 603 
Q 1406 481 1766 481 
L 2356 481 
L 2356 0 
L 1766 0 
Q 1100 0 847 248 
Q 594 497 594 1153 
L 594 3053 
L 172 3053 
L 172 3500 
L 594 3500 
L 594 4494 
L 1172 4494 
z
" id="DejaVuSans-74" transform="scale(0.015625)"/>
       <path d="M 2059 -325 
Q 1816 -950 1584 -1140 
Q 1353 -1331 966 -1331 
L 506 -1331 
L 506 -850 
L 844 -850 
Q 1081 -850 1212 -737 
Q 1344 -625 1503 -206 
L 1606 56 
L 191 3500 
L 800 3500 
L 1894 763 
L 2988 3500 
L 3597 3500 
L 2059 -325 
z
" id="DejaVuSans-79" transform="scale(0.015625)"/>
       <path id="DejaVuSans-20" transform="scale(0.015625)"/>
       <path d="M 3513 2113 
L 3513 0 
L 2938 0 
L 2938 2094 
Q 2938 2591 2744 2837 
Q 2550 3084 2163 3084 
Q 1697 3084 1428 2787 
Q 1159 2491 1159 1978 
L 1159 0 
L 581 0 
L 581 3500 
L 1159 3500 
L 1159 2956 
Q 1366 3272 1645 3428 
Q 1925 3584 2291 3584 
Q 2894 3584 3203 3211 
Q 3513 2838 3513 2113 
z
" id="DejaVuSans-6e" transform="scale(0.015625)"/>
       <path d="M 3513 3500 
L 2247 1797 
L 3578 0 
L 2900 0 
L 1881 1375 
L 863 0 
L 184 0 
L 1544 1831 
L 300 3500 
L 978 3500 
L 1906 2253 
L 2834 3500 
L 3513 3500 
z
" id="DejaVuSans-78" transform="scale(0.015625)"/>
      </defs>
      <use xlink:href="#DejaVuSans-43"/>
      <use x="69.824219" xlink:href="#DejaVuSans-72"/>
      <use x="108.6875" xlink:href="#DejaVuSans-65"/>
      <use x="170.210938" xlink:href="#DejaVuSans-64"/>
      <use x="233.6875" xlink:href="#DejaVuSans-69"/>
      <use x="261.470703" xlink:href="#DejaVuSans-62"/>
      <use x="324.947266" xlink:href="#DejaVuSans-69"/>
      <use x="352.730469" xlink:href="#DejaVuSans-6c"/>
      <use x="380.513672" xlink:href="#DejaVuSans-69"/>
      <use x="408.296875" xlink:href="#DejaVuSans-74"/>
      <use x="447.505859" xlink:href="#DejaVuSans-79"/>
      <use x="506.685547" xlink:href="#DejaVuSans-20"/>
      <use x="538.472656" xlink:href="#DejaVuSans-69"/>
      <use x="566.255859" xlink:href="#DejaVuSans-6e"/>
      <use x="629.634766" xlink:href="#DejaVuSans-64"/>
      <use x="693.111328" xlink:href="#DejaVuSans-65"/>
      <use x="752.884766" xlink:href="#DejaVuSans-78"/>
     </g>
    </g>
   </g>
   <g id="matplotlib.axis_2">
    <g id="ytick_1">
     <g id="line2d_7">
      <defs>
       <path d="M 0 0 
L -3.5 0 
" id="m0e327f3cc2" style="stroke:#000000;stroke-width:0.8;"/>
      </defs>
      <g>
       <use style="stroke:#000000;stroke-width:0.8;" x="47.81" xlink:href="#m0e327f3cc2" y="303.64"/>
      </g>
     </g>
     <g id="text_8">
      <!-- 0.0 -->
      <g transform="translate(24.906875 307.439219)scale(0.1 -0.1)">
       <use xlink:href="#DejaVuSans-30"/>
       <use x="63.623047" xlink:href="#DejaVuSans-2e"/>
       <use x="95.410156" xlink:href="#DejaVuSans-30"/>
      </g>
     </g>
    </g>
    <g id="ytick_2">
     <g id="line2d_8">
      <g>
       <use style="stroke:#000000;stroke-width:0.8;" x="47.81" xlink:href="#m0e327f3cc2" y="268.229322"/>
      </g>
     </g>
     <g id="text_9">
      <!-- 0.5 -->
      <g transform="translate(24.906875 272.028541)scale(0.1 -0.1)">
       <defs>
        <path d="M 691 4666 
L 3169 4666 
L 3169 4134 
L 1269 4134 
L 1269 2991 
Q 1406 3038 1543 3061 
Q 1681 3084 1819 3084 
Q 2600 3084 3056 2656 
Q 3513 2228 3513 1497 
Q 3513 744 3044 326 
Q 2575 -91 1722 -91 
Q 1428 -91 1123 -41 
Q 819 9 494 109 
L 494 744 
Q 775 591 1075 516 
Q 1375 441 1709 441 
Q 2250 441 2565 725 
Q 2881 1009 2881 1497 
Q 2881 1984 2565 2268 
Q 2250 2553 1709 2553 
Q 1456 2553 1204 2497 
Q 953 2441 691 2322 
L 691 4666 
z
" id="DejaVuSans-35" transform="scale(0.015625)"/>
       </defs>
       <use xlink:href="#DejaVuSans-30"/>
       <use x="63.623047" xlink:href="#DejaVuSans-2e"/>
       <use x="95.410156" xlink:href="#DejaVuSans-35"/>
      </g>
     </g>
    </g>
    <g id="ytick_3">
     <g id="line2d_9">
      <g>
       <use style="stroke:#000000;stroke-width:0.8;" x="47.81" xlink:href="#m0e327f3cc2" y="232.818645"/>
      </g>
     </g>
     <g id="text_10">
      <!-- 1.0 -->
      <g transform="translate(24.906875 236.617863)scale(0.1 -0.1)">
       <use xlink:href="#DejaVuSans-31"/>
       <use x="63.623047" xlink:href="#DejaVuSans-2e"/>
       <use x="95.410156" xlink:href="#DejaVuSans-30"/>
      </g>
     </g>
    </g>
    <g id="ytick_4">
     <g id="line2d_10">
      <g>
       <use style="stroke:#000000;stroke-width:0.8;" x="47.81" xlink:href="#m0e327f3cc2" y="197.407967"/>
      </g>
     </g>
     <g id="text_11">
      <!-- 1.5 -->
      <g transform="translate(24.906875 201.207186)scale(0.1 -0.1)">
       <use xlink:href="#DejaVuSans-31"/>
       <use x="63.623047" xlink:href="#DejaVuSans-2e"/>
       <use x="95.410156" xlink:href="#DejaVuSans-35"/>
      </g>
     </g>
    </g>
    <g id="ytick_5">
     <g id="line2d_11">
      <g>
       <use style="stroke:#000000;stroke-width:0.8;" x="47.81" xlink:href="#m0e327f3cc2" y="161.997289"/>
      </g>
     </g>
     <g id="text_12">
      <!-- 2.0 -->
      <g transform="translate(24.906875 165.796508)scale(0.1 -0.1)">
       <use xlink:href="#DejaVuSans-32"/>
       <use x="63.623047" xlink:href="#DejaVuSans-2e"/>
       <use x="95.410156" xlink:href="#DejaVuSans-30"/>
      </g>
     </g>
    </g>
    <g id="ytick_6">
     <g id="line2d_12">
      <g>
       <use style="stroke:#000000;stroke-width:0.8;" x="47.81" xlink:href="#m0e327f3cc2" y="126.586612"/>
      </g>
     </g>
     <g id="text_13">
      <!-- 2.5 -->
      <g transform="translate(24.906875 130.38583)scale(0.1 -0.1)">
       <use xlink:href="#DejaVuSans-32"/>
       <use x="63.623047" xlink:href="#DejaVuSans-2e"/>
       <use x="95.410156" xlink:href="#DejaVuSans-35"/>
      </g>
     </g>
    </g>
    <g id="ytick_7">
     <g id="line2d_13">
      <g>
       <use style="stroke:#000000;stroke-width:0.8;" x="47.81" xlink:href="#m0e327f3cc2" y="91.175934"/>
      </g>
     </g>
     <g id="text_14">
      <!-- 3.0 -->
      <g transform="translate(24.906875 94.975153)scale(0.1 -0.1)">
       <defs>
        <path d="M 2597 2516 
Q 3050 2419 3304 2112 
Q 3559 1806 3559 1356 
Q 3559 666 3084 287 
Q 2609 -91 1734 -91 
Q 1441 -91 1130 -33 
Q 819 25 488 141 
L 488 750 
Q 750 597 1062 519 
Q 1375 441 1716 441 
Q 2309 441 2620 675 
Q 2931 909 2931 1356 
Q 2931 1769 2642 2001 
Q 2353 2234 1838 2234 
L 1294 2234 
L 1294 2753 
L 1863 2753 
Q 2328 2753 2575 2939 
Q 2822 3125 2822 3475 
Q 2822 3834 2567 4026 
Q 2313 4219 1838 4219 
Q 1578 4219 1281 4162 
Q 984 4106 628 3988 
L 628 4550 
Q 988 4650 1302 4700 
Q 1616 4750 1894 4750 
Q 2613 4750 3031 4423 
Q 3450 4097 3450 3541 
Q 3450 3153 3228 2886 
Q 3006 2619 2597 2516 
z
" id="DejaVuSans-33" transform="scale(0.015625)"/>
       </defs>
       <use xlink:href="#DejaVuSans-33"/>
       <use x="63.623047" xlink:href="#DejaVuSans-2e"/>
       <use x="95.410156" xlink:href="#DejaVuSans-30"/>
      </g>
     </g>
    </g>
    <g id="ytick_8">
     <g id="line2d_14">
      <g>
       <use style="stroke:#000000;stroke-width:0.8;" x="47.81" xlink:href="#m0e327f3cc2" y="55.765256"/>
      </g>
     </g>
     <g id="text_15">
      <!-- 3.5 -->
      <g transform="translate(24.906875 59.564475)scale(0.1 -0.1)">
       <use xlink:href="#DejaVuSans-33"/>
       <use x="63.623047" xlink:href="#DejaVuSans-2e"/>
       <use x="95.410156" xlink:href="#DejaVuSans-35"/>
      </g>
     </g>
    </g>
    <g id="text_16">
     <!-- Density -->
     <g transform="translate(18.827187 189.812594)rotate(-90)scale(0.1 -0.1)">
      <defs>
       <path d="M 1259 4147 
L 1259 519 
L 2022 519 
Q 2988 519 3436 956 
Q 3884 1394 3884 2338 
Q 3884 3275 3436 3711 
Q 2988 4147 2022 4147 
L 1259 4147 
z
M 628 4666 
L 1925 4666 
Q 3281 4666 3915 4102 
Q 4550 3538 4550 2338 
Q 4550 1131 3912 565 
Q 3275 0 1925 0 
L 628 0 
L 628 4666 
z
" id="DejaVuSans-44" transform="scale(0.015625)"/>
       <path d="M 2834 3397 
L 2834 2853 
Q 2591 2978 2328 3040 
Q 2066 3103 1784 3103 
Q 1356 3103 1142 2972 
Q 928 2841 928 2578 
Q 928 2378 1081 2264 
Q 1234 2150 1697 2047 
L 1894 2003 
Q 2506 1872 2764 1633 
Q 3022 1394 3022 966 
Q 3022 478 2636 193 
Q 2250 -91 1575 -91 
Q 1294 -91 989 -36 
Q 684 19 347 128 
L 347 722 
Q 666 556 975 473 
Q 1284 391 1588 391 
Q 1994 391 2212 530 
Q 2431 669 2431 922 
Q 2431 1156 2273 1281 
Q 2116 1406 1581 1522 
L 1381 1569 
Q 847 1681 609 1914 
Q 372 2147 372 2553 
Q 372 3047 722 3315 
Q 1072 3584 1716 3584 
Q 2034 3584 2315 3537 
Q 2597 3491 2834 3397 
z
" id="DejaVuSans-73" transform="scale(0.015625)"/>
      </defs>
      <use xlink:href="#DejaVuSans-44"/>
      <use x="77.001953" xlink:href="#DejaVuSans-65"/>
      <use x="138.525391" xlink:href="#DejaVuSans-6e"/>
      <use x="201.904297" xlink:href="#DejaVuSans-73"/>
      <use x="254.003906" xlink:href="#DejaVuSans-69"/>
      <use x="281.787109" xlink:href="#DejaVuSans-74"/>
      <use x="320.996094" xlink:href="#DejaVuSans-79"/>
     </g>
    </g>
   </g>
   <g id="patch_3">
    <path d="M 47.81 303.64 
L 47.81 37.968 
" style="fill:none;stroke:#000000;stroke-linecap:square;stroke-linejoin:miter;stroke-width:0.8;"/>
   </g>
   <g id="patch_4">
    <path d="M 442.035 303.64 
L 442.035 37.968 
" style="fill:none;stroke:#000000;stroke-linecap:square;stroke-linejoin:miter;stroke-width:0.8;"/>
   </g>
   <g id="patch_5">
    <path d="M 47.81 303.64 
L 442.035 303.64 
" style="fill:none;stroke:#000000;stroke-linecap:square;stroke-linejoin:miter;stroke-width:0.8;"/>
   </g>
   <g id="patch_6">
    <path d="M 47.81 37.968 
L 442.035 37.968 
" style="fill:none;stroke:#000000;stroke-linecap:square;stroke-linejoin:miter;stroke-width:0.8;"/>
   </g>
   <g id="text_17">
    <!-- Credibility index consensus vs non consensus  -->
    <g transform="translate(105.81625 18.530625)scale(0.12 -0.12)">
     <defs>
      <path d="M 3122 3366 
L 3122 2828 
Q 2878 2963 2633 3030 
Q 2388 3097 2138 3097 
Q 1578 3097 1268 2742 
Q 959 2388 959 1747 
Q 959 1106 1268 751 
Q 1578 397 2138 397 
Q 2388 397 2633 464 
Q 2878 531 3122 666 
L 3122 134 
Q 2881 22 2623 -34 
Q 2366 -91 2075 -91 
Q 1284 -91 818 406 
Q 353 903 353 1747 
Q 353 2603 823 3093 
Q 1294 3584 2113 3584 
Q 2378 3584 2631 3529 
Q 2884 3475 3122 3366 
z
" id="DejaVuSans-63" transform="scale(0.015625)"/>
      <path d="M 1959 3097 
Q 1497 3097 1228 2736 
Q 959 2375 959 1747 
Q 959 1119 1226 758 
Q 1494 397 1959 397 
Q 2419 397 2687 759 
Q 2956 1122 2956 1747 
Q 2956 2369 2687 2733 
Q 2419 3097 1959 3097 
z
M 1959 3584 
Q 2709 3584 3137 3096 
Q 3566 2609 3566 1747 
Q 3566 888 3137 398 
Q 2709 -91 1959 -91 
Q 1206 -91 779 398 
Q 353 888 353 1747 
Q 353 2609 779 3096 
Q 1206 3584 1959 3584 
z
" id="DejaVuSans-6f" transform="scale(0.015625)"/>
      <path d="M 544 1381 
L 544 3500 
L 1119 3500 
L 1119 1403 
Q 1119 906 1312 657 
Q 1506 409 1894 409 
Q 2359 409 2629 706 
Q 2900 1003 2900 1516 
L 2900 3500 
L 3475 3500 
L 3475 0 
L 2900 0 
L 2900 538 
Q 2691 219 2414 64 
Q 2138 -91 1772 -91 
Q 1169 -91 856 284 
Q 544 659 544 1381 
z
M 1991 3584 
L 1991 3584 
z
" id="DejaVuSans-75" transform="scale(0.015625)"/>
      <path d="M 191 3500 
L 800 3500 
L 1894 563 
L 2988 3500 
L 3597 3500 
L 2284 0 
L 1503 0 
L 191 3500 
z
" id="DejaVuSans-76" transform="scale(0.015625)"/>
     </defs>
     <use xlink:href="#DejaVuSans-43"/>
     <use x="69.824219" xlink:href="#DejaVuSans-72"/>
     <use x="108.6875" xlink:href="#DejaVuSans-65"/>
     <use x="170.210938" xlink:href="#DejaVuSans-64"/>
     <use x="233.6875" xlink:href="#DejaVuSans-69"/>
     <use x="261.470703" xlink:href="#DejaVuSans-62"/>
     <use x="324.947266" xlink:href="#DejaVuSans-69"/>
     <use x="352.730469" xlink:href="#DejaVuSans-6c"/>
     <use x="380.513672" xlink:href="#DejaVuSans-69"/>
     <use x="408.296875" xlink:href="#DejaVuSans-74"/>
     <use x="447.505859" xlink:href="#DejaVuSans-79"/>
     <use x="506.685547" xlink:href="#DejaVuSans-20"/>
     <use x="538.472656" xlink:href="#DejaVuSans-69"/>
     <use x="566.255859" xlink:href="#DejaVuSans-6e"/>
     <use x="629.634766" xlink:href="#DejaVuSans-64"/>
     <use x="693.111328" xlink:href="#DejaVuSans-65"/>
     <use x="752.884766" xlink:href="#DejaVuSans-78"/>
     <use x="812.064453" xlink:href="#DejaVuSans-20"/>
     <use x="843.851562" xlink:href="#DejaVuSans-63"/>
     <use x="898.832031" xlink:href="#DejaVuSans-6f"/>
     <use x="960.013672" xlink:href="#DejaVuSans-6e"/>
     <use x="1023.392578" xlink:href="#DejaVuSans-73"/>
     <use x="1075.492188" xlink:href="#DejaVuSans-65"/>
     <use x="1137.015625" xlink:href="#DejaVuSans-6e"/>
     <use x="1200.394531" xlink:href="#DejaVuSans-73"/>
     <use x="1252.494141" xlink:href="#DejaVuSans-75"/>
     <use x="1315.873047" xlink:href="#DejaVuSans-73"/>
     <use x="1367.972656" xlink:href="#DejaVuSans-20"/>
     <use x="1399.759766" xlink:href="#DejaVuSans-76"/>
     <use x="1458.939453" xlink:href="#DejaVuSans-73"/>
     <use x="1511.039062" xlink:href="#DejaVuSans-20"/>
     <use x="1542.826172" xlink:href="#DejaVuSans-6e"/>
     <use x="1606.205078" xlink:href="#DejaVuSans-6f"/>
     <use x="1667.386719" xlink:href="#DejaVuSans-6e"/>
     <use x="1730.765625" xlink:href="#DejaVuSans-20"/>
     <use x="1762.552734" xlink:href="#DejaVuSans-63"/>
     <use x="1817.533203" xlink:href="#DejaVuSans-6f"/>
     <use x="1878.714844" xlink:href="#DejaVuSans-6e"/>
     <use x="1942.09375" xlink:href="#DejaVuSans-73"/>
     <use x="1994.193359" xlink:href="#DejaVuSans-65"/>
     <use x="2055.716797" xlink:href="#DejaVuSans-6e"/>
     <use x="2119.095703" xlink:href="#DejaVuSans-73"/>
     <use x="2171.195312" xlink:href="#DejaVuSans-75"/>
     <use x="2234.574219" xlink:href="#DejaVuSans-73"/>
     <use x="2286.673828" xlink:href="#DejaVuSans-20"/>
    </g>
    <!-- Set s1 -->
    <g transform="translate(226.219375 31.968)scale(0.12 -0.12)">
     <defs>
      <path d="M 3425 4513 
L 3425 3897 
Q 3066 4069 2747 4153 
Q 2428 4238 2131 4238 
Q 1616 4238 1336 4038 
Q 1056 3838 1056 3469 
Q 1056 3159 1242 3001 
Q 1428 2844 1947 2747 
L 2328 2669 
Q 3034 2534 3370 2195 
Q 3706 1856 3706 1288 
Q 3706 609 3251 259 
Q 2797 -91 1919 -91 
Q 1588 -91 1214 -16 
Q 841 59 441 206 
L 441 856 
Q 825 641 1194 531 
Q 1563 422 1919 422 
Q 2459 422 2753 634 
Q 3047 847 3047 1241 
Q 3047 1584 2836 1778 
Q 2625 1972 2144 2069 
L 1759 2144 
Q 1053 2284 737 2584 
Q 422 2884 422 3419 
Q 422 4038 858 4394 
Q 1294 4750 2059 4750 
Q 2388 4750 2728 4690 
Q 3069 4631 3425 4513 
z
" id="DejaVuSans-53" transform="scale(0.015625)"/>
     </defs>
     <use xlink:href="#DejaVuSans-53"/>
     <use x="63.476562" xlink:href="#DejaVuSans-65"/>
     <use x="125" xlink:href="#DejaVuSans-74"/>
     <use x="164.208984" xlink:href="#DejaVuSans-20"/>
     <use x="195.996094" xlink:href="#DejaVuSans-73"/>
     <use x="248.095703" xlink:href="#DejaVuSans-31"/>
    </g>
   </g>
   <g id="legend_1">
    <g id="patch_7">
     <path d="M 54.81 97.719875 
L 225.352188 97.719875 
Q 227.352188 97.719875 227.352188 95.719875 
L 227.352188 44.968 
Q 227.352188 42.968 225.352188 42.968 
L 54.81 42.968 
Q 52.81 42.968 52.81 44.968 
L 52.81 95.719875 
Q 52.81 97.719875 54.81 97.719875 
z
" style="fill:#ffffff;opacity:0.8;stroke:#cccccc;stroke-linejoin:miter;"/>
    </g>
    <g id="patch_8">
     <path d="M 56.81 61.205188 
L 76.81 61.205188 
L 76.81 54.205188 
L 56.81 54.205188 
z
" style="fill:#1f77b4;fill-opacity:0.4;stroke:#1f77b4;stroke-linejoin:miter;"/>
    </g>
    <g id="text_18">
     <!-- Correlation higher than 0  -->
     <g transform="translate(84.81 54.566438)scale(0.1 -0.1)">
      <defs>
       <path d="M 2194 1759 
Q 1497 1759 1228 1600 
Q 959 1441 959 1056 
Q 959 750 1161 570 
Q 1363 391 1709 391 
Q 2188 391 2477 730 
Q 2766 1069 2766 1631 
L 2766 1759 
L 2194 1759 
z
M 3341 1997 
L 3341 0 
L 2766 0 
L 2766 531 
Q 2569 213 2275 61 
Q 1981 -91 1556 -91 
Q 1019 -91 701 211 
Q 384 513 384 1019 
Q 384 1609 779 1909 
Q 1175 2209 1959 2209 
L 2766 2209 
L 2766 2266 
Q 2766 2663 2505 2880 
Q 2244 3097 1772 3097 
Q 1472 3097 1187 3025 
Q 903 2953 641 2809 
L 641 3341 
Q 956 3463 1253 3523 
Q 1550 3584 1831 3584 
Q 2591 3584 2966 3190 
Q 3341 2797 3341 1997 
z
" id="DejaVuSans-61" transform="scale(0.015625)"/>
       <path d="M 3513 2113 
L 3513 0 
L 2938 0 
L 2938 2094 
Q 2938 2591 2744 2837 
Q 2550 3084 2163 3084 
Q 1697 3084 1428 2787 
Q 1159 2491 1159 1978 
L 1159 0 
L 581 0 
L 581 4863 
L 1159 4863 
L 1159 2956 
Q 1366 3272 1645 3428 
Q 1925 3584 2291 3584 
Q 2894 3584 3203 3211 
Q 3513 2838 3513 2113 
z
" id="DejaVuSans-68" transform="scale(0.015625)"/>
       <path d="M 2906 1791 
Q 2906 2416 2648 2759 
Q 2391 3103 1925 3103 
Q 1463 3103 1205 2759 
Q 947 2416 947 1791 
Q 947 1169 1205 825 
Q 1463 481 1925 481 
Q 2391 481 2648 825 
Q 2906 1169 2906 1791 
z
M 3481 434 
Q 3481 -459 3084 -895 
Q 2688 -1331 1869 -1331 
Q 1566 -1331 1297 -1286 
Q 1028 -1241 775 -1147 
L 775 -588 
Q 1028 -725 1275 -790 
Q 1522 -856 1778 -856 
Q 2344 -856 2625 -561 
Q 2906 -266 2906 331 
L 2906 616 
Q 2728 306 2450 153 
Q 2172 0 1784 0 
Q 1141 0 747 490 
Q 353 981 353 1791 
Q 353 2603 747 3093 
Q 1141 3584 1784 3584 
Q 2172 3584 2450 3431 
Q 2728 3278 2906 2969 
L 2906 3500 
L 3481 3500 
L 3481 434 
z
" id="DejaVuSans-67" transform="scale(0.015625)"/>
      </defs>
      <use xlink:href="#DejaVuSans-43"/>
      <use x="69.824219" xlink:href="#DejaVuSans-6f"/>
      <use x="131.005859" xlink:href="#DejaVuSans-72"/>
      <use x="170.369141" xlink:href="#DejaVuSans-72"/>
      <use x="209.232422" xlink:href="#DejaVuSans-65"/>
      <use x="270.755859" xlink:href="#DejaVuSans-6c"/>
      <use x="298.539062" xlink:href="#DejaVuSans-61"/>
      <use x="359.818359" xlink:href="#DejaVuSans-74"/>
      <use x="399.027344" xlink:href="#DejaVuSans-69"/>
      <use x="426.810547" xlink:href="#DejaVuSans-6f"/>
      <use x="487.992188" xlink:href="#DejaVuSans-6e"/>
      <use x="551.371094" xlink:href="#DejaVuSans-20"/>
      <use x="583.158203" xlink:href="#DejaVuSans-68"/>
      <use x="646.537109" xlink:href="#DejaVuSans-69"/>
      <use x="674.320312" xlink:href="#DejaVuSans-67"/>
      <use x="737.796875" xlink:href="#DejaVuSans-68"/>
      <use x="801.175781" xlink:href="#DejaVuSans-65"/>
      <use x="862.699219" xlink:href="#DejaVuSans-72"/>
      <use x="903.8125" xlink:href="#DejaVuSans-20"/>
      <use x="935.599609" xlink:href="#DejaVuSans-74"/>
      <use x="974.808594" xlink:href="#DejaVuSans-68"/>
      <use x="1038.1875" xlink:href="#DejaVuSans-61"/>
      <use x="1099.466797" xlink:href="#DejaVuSans-6e"/>
      <use x="1162.845703" xlink:href="#DejaVuSans-20"/>
      <use x="1194.632812" xlink:href="#DejaVuSans-30"/>
      <use x="1258.255859" xlink:href="#DejaVuSans-20"/>
     </g>
     <!-- n=207 -->
     <g transform="translate(84.81 65.76425)scale(0.1 -0.1)">
      <defs>
       <path d="M 678 2906 
L 4684 2906 
L 4684 2381 
L 678 2381 
L 678 2906 
z
M 678 1631 
L 4684 1631 
L 4684 1100 
L 678 1100 
L 678 1631 
z
" id="DejaVuSans-3d" transform="scale(0.015625)"/>
       <path d="M 525 4666 
L 3525 4666 
L 3525 4397 
L 1831 0 
L 1172 0 
L 2766 4134 
L 525 4134 
L 525 4666 
z
" id="DejaVuSans-37" transform="scale(0.015625)"/>
      </defs>
      <use xlink:href="#DejaVuSans-6e"/>
      <use x="63.378906" xlink:href="#DejaVuSans-3d"/>
      <use x="147.167969" xlink:href="#DejaVuSans-32"/>
      <use x="210.791016" xlink:href="#DejaVuSans-30"/>
      <use x="274.414062" xlink:href="#DejaVuSans-37"/>
     </g>
    </g>
    <g id="patch_9">
     <path d="M 56.81 87.081125 
L 76.81 87.081125 
L 76.81 80.081125 
L 56.81 80.081125 
z
" style="fill:#ff7f0e;fill-opacity:0.4;stroke:#ff7f0e;stroke-linejoin:miter;"/>
    </g>
    <g id="text_19">
     <!-- Correlation higher than 0.8  -->
     <g transform="translate(84.81 80.442375)scale(0.1 -0.1)">
      <use xlink:href="#DejaVuSans-43"/>
      <use x="69.824219" xlink:href="#DejaVuSans-6f"/>
      <use x="131.005859" xlink:href="#DejaVuSans-72"/>
      <use x="170.369141" xlink:href="#DejaVuSans-72"/>
      <use x="209.232422" xlink:href="#DejaVuSans-65"/>
      <use x="270.755859" xlink:href="#DejaVuSans-6c"/>
      <use x="298.539062" xlink:href="#DejaVuSans-61"/>
      <use x="359.818359" xlink:href="#DejaVuSans-74"/>
      <use x="399.027344" xlink:href="#DejaVuSans-69"/>
      <use x="426.810547" xlink:href="#DejaVuSans-6f"/>
      <use x="487.992188" xlink:href="#DejaVuSans-6e"/>
      <use x="551.371094" xlink:href="#DejaVuSans-20"/>
      <use x="583.158203" xlink:href="#DejaVuSans-68"/>
      <use x="646.537109" xlink:href="#DejaVuSans-69"/>
      <use x="674.320312" xlink:href="#DejaVuSans-67"/>
      <use x="737.796875" xlink:href="#DejaVuSans-68"/>
      <use x="801.175781" xlink:href="#DejaVuSans-65"/>
      <use x="862.699219" xlink:href="#DejaVuSans-72"/>
      <use x="903.8125" xlink:href="#DejaVuSans-20"/>
      <use x="935.599609" xlink:href="#DejaVuSans-74"/>
      <use x="974.808594" xlink:href="#DejaVuSans-68"/>
      <use x="1038.1875" xlink:href="#DejaVuSans-61"/>
      <use x="1099.466797" xlink:href="#DejaVuSans-6e"/>
      <use x="1162.845703" xlink:href="#DejaVuSans-20"/>
      <use x="1194.632812" xlink:href="#DejaVuSans-30"/>
      <use x="1258.255859" xlink:href="#DejaVuSans-2e"/>
      <use x="1290.042969" xlink:href="#DejaVuSans-38"/>
      <use x="1353.666016" xlink:href="#DejaVuSans-20"/>
     </g>
     <!-- n=45 -->
     <g transform="translate(84.81 91.640187)scale(0.1 -0.1)">
      <use xlink:href="#DejaVuSans-6e"/>
      <use x="63.378906" xlink:href="#DejaVuSans-3d"/>
      <use x="147.167969" xlink:href="#DejaVuSans-34"/>
      <use x="210.791016" xlink:href="#DejaVuSans-35"/>
     </g>
    </g>
   </g>
  </g>
 </g>
 <defs>
  <clipPath id="pb8725b9c9d">
   <rect height="265.672" width="394.225" x="47.81" y="37.968"/>
  </clipPath>
 </defs>
</svg>
