<?xml version="1.0" encoding="utf-8" standalone="no"?>
<!DOCTYPE svg PUBLIC "-//W3C//DTD SVG 1.1//EN"
  "http://www.w3.org/Graphics/SVG/1.1/DTD/svg11.dtd">
<svg height="345.6pt" version="1.1" viewBox="0 0 460.8 345.6" width="460.8pt" xmlns="http://www.w3.org/2000/svg" xmlns:xlink="http://www.w3.org/1999/xlink">
 <metadata>
  <rdf:RDF xmlns:cc="http://creativecommons.org/ns#" xmlns:dc="http://purl.org/dc/elements/1.1/" xmlns:rdf="http://www.w3.org/1999/02/22-rdf-syntax-ns#">
   <cc:Work>
    <dc:type rdf:resource="http://purl.org/dc/dcmitype/StillImage"/>
    <dc:date>2022-01-11T14:28:32.427021</dc:date>
    <dc:format>image/svg+xml</dc:format>
    <dc:creator>
     <cc:Agent>
      <dc:title>Matplotlib v3.4.3, https://matplotlib.org/</dc:title>
     </cc:Agent>
    </dc:creator>
   </cc:Work>
  </rdf:RDF>
 </metadata>
 <defs>
  <style type="text/css">*{stroke-linecap:butt;stroke-linejoin:round;}</style>
 </defs>
 <g id="figure_1">
  <g id="patch_1">
   <path d="M 0 345.6 
L 460.8 345.6 
L 460.8 0 
L 0 0 
z
" style="fill:#ffffff;"/>
  </g>
  <g id="axes_1">
   <g id="patch_2">
    <path d="M 57.6 99.322435 
L 162.635294 99.322435 
L 162.635294 41.472 
L 57.6 41.472 
z
" style="fill:#ffffff;"/>
   </g>
   <g id="patch_3">
    <path clip-path="url(#p775170c4ba)" d="M 62.374332 99.322435 
L 78.28877 99.322435 
L 78.28877 49.736348 
L 62.374332 49.736348 
z
" style="fill:#1f77b4;"/>
   </g>
   <g id="patch_4">
    <path clip-path="url(#p775170c4ba)" d="M 82.26738 99.322435 
L 98.181818 99.322435 
L 98.181818 93.949813 
L 82.26738 93.949813 
z
" style="fill:#1f77b4;"/>
   </g>
   <g id="patch_5">
    <path clip-path="url(#p775170c4ba)" d="M 102.160428 99.322435 
L 118.074866 99.322435 
L 118.074866 93.848517 
L 102.160428 93.848517 
z
"/>
   </g>
   <g id="patch_6">
    <path clip-path="url(#p775170c4ba)" d="M 122.053476 99.322435 
L 137.967914 99.322435 
L 137.967914 94.184823 
L 122.053476 94.184823 
z
"/>
   </g>
   <g id="patch_7">
    <path clip-path="url(#p775170c4ba)" d="M 141.946524 99.322435 
L 157.860963 99.322435 
L 157.860963 92.476106 
L 141.946524 92.476106 
z
"/>
   </g>
   <g id="patch_8">
    <path clip-path="url(#p775170c4ba)" d="M 62.374332 49.736348 
L 78.28877 49.736348 
L 78.28877 44.226783 
L 62.374332 44.226783 
z
" style="fill:#aec7e8;"/>
   </g>
   <g id="patch_9">
    <path clip-path="url(#p775170c4ba)" d="M 82.26738 93.949813 
L 98.181818 93.949813 
L 98.181818 93.352855 
L 82.26738 93.352855 
z
"/>
   </g>
   <g id="patch_10">
    <path clip-path="url(#p775170c4ba)" d="M 102.160428 93.848517 
L 118.074866 93.848517 
L 118.074866 93.240304 
L 102.160428 93.240304 
z
" style="fill:#aec7e8;"/>
   </g>
   <g id="patch_11">
    <path clip-path="url(#p775170c4ba)" d="M 122.053476 94.184823 
L 137.967914 94.184823 
L 137.967914 93.613977 
L 122.053476 93.613977 
z
" style="fill:#aec7e8;"/>
   </g>
   <g id="patch_12">
    <path clip-path="url(#p775170c4ba)" d="M 141.946524 92.476106 
L 157.860963 92.476106 
L 157.860963 91.715403 
L 141.946524 91.715403 
z
" style="fill:#1f77b4;"/>
   </g>
   <g id="matplotlib.axis_1"/>
   <g id="matplotlib.axis_2">
    <g id="ytick_1">
     <g id="line2d_1">
      <defs>
       <path d="M 0 0 
L -3.5 0 
" id="m78bc82b865" style="stroke:#000000;stroke-width:0.8;"/>
      </defs>
      <g>
       <use style="stroke:#000000;stroke-width:0.8;" x="57.6" xlink:href="#m78bc82b865" y="99.322435"/>
      </g>
     </g>
     <g id="text_1">
      <!-- 0.0 -->
      <g transform="translate(34.696875 103.121654)scale(0.1 -0.1)">
       <defs>
        <path d="M 2034 4250 
Q 1547 4250 1301 3770 
Q 1056 3291 1056 2328 
Q 1056 1369 1301 889 
Q 1547 409 2034 409 
Q 2525 409 2770 889 
Q 3016 1369 3016 2328 
Q 3016 3291 2770 3770 
Q 2525 4250 2034 4250 
z
M 2034 4750 
Q 2819 4750 3233 4129 
Q 3647 3509 3647 2328 
Q 3647 1150 3233 529 
Q 2819 -91 2034 -91 
Q 1250 -91 836 529 
Q 422 1150 422 2328 
Q 422 3509 836 4129 
Q 1250 4750 2034 4750 
z
" id="DejaVuSans-30" transform="scale(0.015625)"/>
        <path d="M 684 794 
L 1344 794 
L 1344 0 
L 684 0 
L 684 794 
z
" id="DejaVuSans-2e" transform="scale(0.015625)"/>
       </defs>
       <use xlink:href="#DejaVuSans-30"/>
       <use x="63.623047" xlink:href="#DejaVuSans-2e"/>
       <use x="95.410156" xlink:href="#DejaVuSans-30"/>
      </g>
     </g>
    </g>
    <g id="ytick_2">
     <g id="line2d_2">
      <g>
       <use style="stroke:#000000;stroke-width:0.8;" x="57.6" xlink:href="#m78bc82b865" y="58.291241"/>
      </g>
     </g>
     <g id="text_2">
      <!-- 0.5 -->
      <g transform="translate(34.696875 62.09046)scale(0.1 -0.1)">
       <defs>
        <path d="M 691 4666 
L 3169 4666 
L 3169 4134 
L 1269 4134 
L 1269 2991 
Q 1406 3038 1543 3061 
Q 1681 3084 1819 3084 
Q 2600 3084 3056 2656 
Q 3513 2228 3513 1497 
Q 3513 744 3044 326 
Q 2575 -91 1722 -91 
Q 1428 -91 1123 -41 
Q 819 9 494 109 
L 494 744 
Q 775 591 1075 516 
Q 1375 441 1709 441 
Q 2250 441 2565 725 
Q 2881 1009 2881 1497 
Q 2881 1984 2565 2268 
Q 2250 2553 1709 2553 
Q 1456 2553 1204 2497 
Q 953 2441 691 2322 
L 691 4666 
z
" id="DejaVuSans-35" transform="scale(0.015625)"/>
       </defs>
       <use xlink:href="#DejaVuSans-30"/>
       <use x="63.623047" xlink:href="#DejaVuSans-2e"/>
       <use x="95.410156" xlink:href="#DejaVuSans-35"/>
      </g>
     </g>
    </g>
   </g>
   <g id="patch_13">
    <path d="M 57.6 99.322435 
L 57.6 41.472 
" style="fill:none;stroke:#000000;stroke-linecap:square;stroke-linejoin:miter;stroke-width:0.8;"/>
   </g>
   <g id="patch_14">
    <path d="M 162.635294 99.322435 
L 162.635294 41.472 
" style="fill:none;stroke:#000000;stroke-linecap:square;stroke-linejoin:miter;stroke-width:0.8;"/>
   </g>
   <g id="patch_15">
    <path d="M 57.6 99.322435 
L 162.635294 99.322435 
" style="fill:none;stroke:#000000;stroke-linecap:square;stroke-linejoin:miter;stroke-width:0.8;"/>
   </g>
   <g id="patch_16">
    <path d="M 57.6 41.472 
L 162.635294 41.472 
" style="fill:none;stroke:#000000;stroke-linecap:square;stroke-linejoin:miter;stroke-width:0.8;"/>
   </g>
  </g>
  <g id="axes_2">
   <g id="patch_17">
    <path d="M 183.642353 99.322435 
L 288.677647 99.322435 
L 288.677647 41.472 
L 183.642353 41.472 
z
" style="fill:#ffffff;"/>
   </g>
   <g id="patch_18">
    <path clip-path="url(#pbb36b8a6f0)" d="M 188.416684 99.322435 
L 204.331123 99.322435 
L 204.331123 51.461655 
L 188.416684 51.461655 
z
" style="fill:#ff7f0e;"/>
   </g>
   <g id="patch_19">
    <path clip-path="url(#pbb36b8a6f0)" d="M 208.309733 99.322435 
L 224.224171 99.322435 
L 224.224171 94.175124 
L 208.309733 94.175124 
z
" style="fill:#ff7f0e;"/>
   </g>
   <g id="patch_20">
    <path clip-path="url(#pbb36b8a6f0)" d="M 228.202781 99.322435 
L 244.117219 99.322435 
L 244.117219 93.603437 
L 228.202781 93.603437 
z
"/>
   </g>
   <g id="patch_21">
    <path clip-path="url(#pbb36b8a6f0)" d="M 248.095829 99.322435 
L 264.010267 99.322435 
L 264.010267 94.475001 
L 248.095829 94.475001 
z
"/>
   </g>
   <g id="patch_22">
    <path clip-path="url(#pbb36b8a6f0)" d="M 267.988877 99.322435 
L 283.903316 99.322435 
L 283.903316 94.662523 
L 267.988877 94.662523 
z
"/>
   </g>
   <g id="patch_23">
    <path clip-path="url(#pbb36b8a6f0)" d="M 188.416684 51.461655 
L 204.331123 51.461655 
L 204.331123 46.143791 
L 188.416684 46.143791 
z
" style="fill:#ffbb78;"/>
   </g>
   <g id="patch_24">
    <path clip-path="url(#pbb36b8a6f0)" d="M 208.309733 94.175124 
L 224.224171 94.175124 
L 224.224171 93.603201 
L 208.309733 93.603201 
z
"/>
   </g>
   <g id="patch_25">
    <path clip-path="url(#pbb36b8a6f0)" d="M 228.202781 93.603437 
L 244.117219 93.603437 
L 244.117219 92.967993 
L 228.202781 92.967993 
z
" style="fill:#ff7f0e;"/>
   </g>
   <g id="patch_26">
    <path clip-path="url(#pbb36b8a6f0)" d="M 248.095829 94.475001 
L 264.010267 94.475001 
L 264.010267 93.936397 
L 248.095829 93.936397 
z
" style="fill:#ffbb78;"/>
   </g>
   <g id="patch_27">
    <path clip-path="url(#pbb36b8a6f0)" d="M 267.988877 94.662523 
L 283.903316 94.662523 
L 283.903316 94.144756 
L 267.988877 94.144756 
z
" style="fill:#ffbb78;"/>
   </g>
   <g id="matplotlib.axis_3"/>
   <g id="matplotlib.axis_4">
    <g id="ytick_3">
     <g id="line2d_3">
      <g>
       <use style="stroke:#000000;stroke-width:0.8;" x="183.642353" xlink:href="#m78bc82b865" y="99.322435"/>
      </g>
     </g>
    </g>
    <g id="ytick_4">
     <g id="line2d_4">
      <g>
       <use style="stroke:#000000;stroke-width:0.8;" x="183.642353" xlink:href="#m78bc82b865" y="58.291241"/>
      </g>
     </g>
    </g>
   </g>
   <g id="patch_28">
    <path d="M 183.642353 99.322435 
L 183.642353 41.472 
" style="fill:none;stroke:#000000;stroke-linecap:square;stroke-linejoin:miter;stroke-width:0.8;"/>
   </g>
   <g id="patch_29">
    <path d="M 288.677647 99.322435 
L 288.677647 41.472 
" style="fill:none;stroke:#000000;stroke-linecap:square;stroke-linejoin:miter;stroke-width:0.8;"/>
   </g>
   <g id="patch_30">
    <path d="M 183.642353 99.322435 
L 288.677647 99.322435 
" style="fill:none;stroke:#000000;stroke-linecap:square;stroke-linejoin:miter;stroke-width:0.8;"/>
   </g>
   <g id="patch_31">
    <path d="M 183.642353 41.472 
L 288.677647 41.472 
" style="fill:none;stroke:#000000;stroke-linecap:square;stroke-linejoin:miter;stroke-width:0.8;"/>
   </g>
  </g>
  <g id="axes_3">
   <g id="patch_32">
    <path d="M 309.684706 99.322435 
L 414.72 99.322435 
L 414.72 41.472 
L 309.684706 41.472 
z
" style="fill:#ffffff;"/>
   </g>
   <g id="patch_33">
    <path clip-path="url(#p4738d44c64)" d="M 314.459037 99.322435 
L 330.373476 99.322435 
L 330.373476 51.673633 
L 314.459037 51.673633 
z
" style="fill:#aec7e8;"/>
   </g>
   <g id="patch_34">
    <path clip-path="url(#p4738d44c64)" d="M 334.352086 99.322435 
L 350.266524 99.322435 
L 350.266524 94.89058 
L 334.352086 94.89058 
z
" style="fill:#aec7e8;"/>
   </g>
   <g id="patch_35">
    <path clip-path="url(#p4738d44c64)" d="M 354.245134 99.322435 
L 370.159572 99.322435 
L 370.159572 94.010237 
L 354.245134 94.010237 
z
"/>
   </g>
   <g id="patch_36">
    <path clip-path="url(#p4738d44c64)" d="M 374.138182 99.322435 
L 390.05262 99.322435 
L 390.05262 99.168694 
L 374.138182 99.168694 
z
"/>
   </g>
   <g id="patch_37">
    <path clip-path="url(#p4738d44c64)" d="M 394.03123 99.322435 
L 409.945668 99.322435 
L 409.945668 93.848517 
L 394.03123 93.848517 
z
"/>
   </g>
   <g id="patch_38">
    <path clip-path="url(#p4738d44c64)" d="M 314.459037 51.673633 
L 330.373476 51.673633 
L 330.373476 46.379321 
L 314.459037 46.379321 
z
" style="fill:#2ca02c;"/>
   </g>
   <g id="patch_39">
    <path clip-path="url(#p4738d44c64)" d="M 334.352086 94.89058 
L 350.266524 94.89058 
L 350.266524 94.398151 
L 334.352086 94.398151 
z
"/>
   </g>
   <g id="patch_40">
    <path clip-path="url(#p4738d44c64)" d="M 354.245134 94.010237 
L 370.159572 94.010237 
L 370.159572 93.419993 
L 354.245134 93.419993 
z
" style="fill:#2ca02c;"/>
   </g>
   <g id="patch_41">
    <path clip-path="url(#p4738d44c64)" d="M 374.138182 99.168694 
L 390.05262 99.168694 
L 390.05262 99.151611 
L 374.138182 99.151611 
z
" style="fill:#2ca02c;"/>
   </g>
   <g id="patch_42">
    <path clip-path="url(#p4738d44c64)" d="M 394.03123 93.848517 
L 409.945668 93.848517 
L 409.945668 93.240304 
L 394.03123 93.240304 
z
" style="fill:#aec7e8;"/>
   </g>
   <g id="matplotlib.axis_5"/>
   <g id="matplotlib.axis_6">
    <g id="ytick_5">
     <g id="line2d_5">
      <g>
       <use style="stroke:#000000;stroke-width:0.8;" x="309.684706" xlink:href="#m78bc82b865" y="99.322435"/>
      </g>
     </g>
    </g>
    <g id="ytick_6">
     <g id="line2d_6">
      <g>
       <use style="stroke:#000000;stroke-width:0.8;" x="309.684706" xlink:href="#m78bc82b865" y="58.291241"/>
      </g>
     </g>
    </g>
   </g>
   <g id="patch_43">
    <path d="M 309.684706 99.322435 
L 309.684706 41.472 
" style="fill:none;stroke:#000000;stroke-linecap:square;stroke-linejoin:miter;stroke-width:0.8;"/>
   </g>
   <g id="patch_44">
    <path d="M 414.72 99.322435 
L 414.72 41.472 
" style="fill:none;stroke:#000000;stroke-linecap:square;stroke-linejoin:miter;stroke-width:0.8;"/>
   </g>
   <g id="patch_45">
    <path d="M 309.684706 99.322435 
L 414.72 99.322435 
" style="fill:none;stroke:#000000;stroke-linecap:square;stroke-linejoin:miter;stroke-width:0.8;"/>
   </g>
   <g id="patch_46">
    <path d="M 309.684706 41.472 
L 414.72 41.472 
" style="fill:none;stroke:#000000;stroke-linecap:square;stroke-linejoin:miter;stroke-width:0.8;"/>
   </g>
  </g>
  <g id="axes_4">
   <g id="patch_47">
    <path d="M 57.6 168.742957 
L 162.635294 168.742957 
L 162.635294 110.892522 
L 57.6 110.892522 
z
" style="fill:#ffffff;"/>
   </g>
   <g id="patch_48">
    <path clip-path="url(#p2e8974ad41)" d="M 62.374332 168.742957 
L 78.28877 168.742957 
L 78.28877 121.273489 
L 62.374332 121.273489 
z
" style="fill:#aec7e8;"/>
   </g>
   <g id="patch_49">
    <path clip-path="url(#p2e8974ad41)" d="M 82.26738 168.742957 
L 98.181818 168.742957 
L 98.181818 164.21856 
L 82.26738 164.21856 
z
" style="fill:#aec7e8;"/>
   </g>
   <g id="patch_50">
    <path clip-path="url(#p2e8974ad41)" d="M 102.160428 168.742957 
L 118.074866 168.742957 
L 118.074866 163.269039 
L 102.160428 163.269039 
z
"/>
   </g>
   <g id="patch_51">
    <path clip-path="url(#p2e8974ad41)" d="M 122.053476 168.742957 
L 137.967914 168.742957 
L 137.967914 163.169218 
L 122.053476 163.169218 
z
"/>
   </g>
   <g id="patch_52">
    <path clip-path="url(#p2e8974ad41)" d="M 141.946524 168.742957 
L 157.860963 168.742957 
L 157.860963 163.305513 
L 141.946524 163.305513 
z
"/>
   </g>
   <g id="patch_53">
    <path clip-path="url(#p2e8974ad41)" d="M 62.374332 121.273489 
L 78.28877 121.273489 
L 78.28877 115.999104 
L 62.374332 115.999104 
z
" style="fill:#98df8a;"/>
   </g>
   <g id="patch_54">
    <path clip-path="url(#p2e8974ad41)" d="M 82.26738 164.21856 
L 98.181818 164.21856 
L 98.181818 163.71585 
L 82.26738 163.71585 
z
"/>
   </g>
   <g id="patch_55">
    <path clip-path="url(#p2e8974ad41)" d="M 102.160428 163.269039 
L 118.074866 163.269039 
L 118.074866 162.660826 
L 102.160428 162.660826 
z
" style="fill:#aec7e8;"/>
   </g>
   <g id="patch_56">
    <path clip-path="url(#p2e8974ad41)" d="M 122.053476 163.169218 
L 137.967914 163.169218 
L 137.967914 162.549914 
L 122.053476 162.549914 
z
" style="fill:#98df8a;"/>
   </g>
   <g id="patch_57">
    <path clip-path="url(#p2e8974ad41)" d="M 141.946524 163.305513 
L 157.860963 163.305513 
L 157.860963 162.701352 
L 141.946524 162.701352 
z
" style="fill:#98df8a;"/>
   </g>
   <g id="matplotlib.axis_7"/>
   <g id="matplotlib.axis_8">
    <g id="ytick_7">
     <g id="line2d_7">
      <g>
       <use style="stroke:#000000;stroke-width:0.8;" x="57.6" xlink:href="#m78bc82b865" y="168.742957"/>
      </g>
     </g>
     <g id="text_3">
      <!-- 0.0 -->
      <g transform="translate(34.696875 172.542175)scale(0.1 -0.1)">
       <use xlink:href="#DejaVuSans-30"/>
       <use x="63.623047" xlink:href="#DejaVuSans-2e"/>
       <use x="95.410156" xlink:href="#DejaVuSans-30"/>
      </g>
     </g>
    </g>
    <g id="ytick_8">
     <g id="line2d_8">
      <g>
       <use style="stroke:#000000;stroke-width:0.8;" x="57.6" xlink:href="#m78bc82b865" y="127.711763"/>
      </g>
     </g>
     <g id="text_4">
      <!-- 0.5 -->
      <g transform="translate(34.696875 131.510982)scale(0.1 -0.1)">
       <use xlink:href="#DejaVuSans-30"/>
       <use x="63.623047" xlink:href="#DejaVuSans-2e"/>
       <use x="95.410156" xlink:href="#DejaVuSans-35"/>
      </g>
     </g>
    </g>
   </g>
   <g id="patch_58">
    <path d="M 57.6 168.742957 
L 57.6 110.892522 
" style="fill:none;stroke:#000000;stroke-linecap:square;stroke-linejoin:miter;stroke-width:0.8;"/>
   </g>
   <g id="patch_59">
    <path d="M 162.635294 168.742957 
L 162.635294 110.892522 
" style="fill:none;stroke:#000000;stroke-linecap:square;stroke-linejoin:miter;stroke-width:0.8;"/>
   </g>
   <g id="patch_60">
    <path d="M 57.6 168.742957 
L 162.635294 168.742957 
" style="fill:none;stroke:#000000;stroke-linecap:square;stroke-linejoin:miter;stroke-width:0.8;"/>
   </g>
   <g id="patch_61">
    <path d="M 57.6 110.892522 
L 162.635294 110.892522 
" style="fill:none;stroke:#000000;stroke-linecap:square;stroke-linejoin:miter;stroke-width:0.8;"/>
   </g>
  </g>
  <g id="axes_5">
   <g id="patch_62">
    <path d="M 183.642353 168.742957 
L 288.677647 168.742957 
L 288.677647 110.892522 
L 183.642353 110.892522 
z
" style="fill:#ffffff;"/>
   </g>
   <g id="patch_63">
    <path clip-path="url(#p98066d7410)" d="M 188.416684 168.742957 
L 204.331123 168.742957 
L 204.331123 121.403155 
L 188.416684 121.403155 
z
" style="fill:#ffbb78;"/>
   </g>
   <g id="patch_64">
    <path clip-path="url(#p98066d7410)" d="M 208.309733 168.742957 
L 224.224171 168.742957 
L 224.224171 164.291134 
L 208.309733 164.291134 
z
" style="fill:#ffbb78;"/>
   </g>
   <g id="patch_65">
    <path clip-path="url(#p98066d7410)" d="M 228.202781 168.742957 
L 244.117219 168.742957 
L 244.117219 163.019553 
L 228.202781 163.019553 
z
"/>
   </g>
   <g id="patch_66">
    <path clip-path="url(#p98066d7410)" d="M 248.095829 168.742957 
L 264.010267 168.742957 
L 264.010267 163.67367 
L 248.095829 163.67367 
z
"/>
   </g>
   <g id="patch_67">
    <path clip-path="url(#p98066d7410)" d="M 267.988877 168.742957 
L 283.903316 168.742957 
L 283.903316 163.895523 
L 267.988877 163.895523 
z
"/>
   </g>
   <g id="patch_68">
    <path clip-path="url(#p98066d7410)" d="M 188.416684 121.403155 
L 204.331123 121.403155 
L 204.331123 116.143177 
L 188.416684 116.143177 
z
" style="fill:#d62728;"/>
   </g>
   <g id="patch_69">
    <path clip-path="url(#p98066d7410)" d="M 208.309733 164.291134 
L 224.224171 164.291134 
L 224.224171 163.796487 
L 208.309733 163.796487 
z
"/>
   </g>
   <g id="patch_70">
    <path clip-path="url(#p98066d7410)" d="M 228.202781 163.019553 
L 244.117219 163.019553 
L 244.117219 162.383619 
L 228.202781 162.383619 
z
" style="fill:#d62728;"/>
   </g>
   <g id="patch_71">
    <path clip-path="url(#p98066d7410)" d="M 248.095829 163.67367 
L 264.010267 163.67367 
L 264.010267 163.110416 
L 248.095829 163.110416 
z
" style="fill:#d62728;"/>
   </g>
   <g id="patch_72">
    <path clip-path="url(#p98066d7410)" d="M 267.988877 163.895523 
L 283.903316 163.895523 
L 283.903316 163.356919 
L 267.988877 163.356919 
z
" style="fill:#ffbb78;"/>
   </g>
   <g id="matplotlib.axis_9"/>
   <g id="matplotlib.axis_10">
    <g id="ytick_9">
     <g id="line2d_9">
      <g>
       <use style="stroke:#000000;stroke-width:0.8;" x="183.642353" xlink:href="#m78bc82b865" y="168.742957"/>
      </g>
     </g>
    </g>
    <g id="ytick_10">
     <g id="line2d_10">
      <g>
       <use style="stroke:#000000;stroke-width:0.8;" x="183.642353" xlink:href="#m78bc82b865" y="127.711763"/>
      </g>
     </g>
    </g>
   </g>
   <g id="patch_73">
    <path d="M 183.642353 168.742957 
L 183.642353 110.892522 
" style="fill:none;stroke:#000000;stroke-linecap:square;stroke-linejoin:miter;stroke-width:0.8;"/>
   </g>
   <g id="patch_74">
    <path d="M 288.677647 168.742957 
L 288.677647 110.892522 
" style="fill:none;stroke:#000000;stroke-linecap:square;stroke-linejoin:miter;stroke-width:0.8;"/>
   </g>
   <g id="patch_75">
    <path d="M 183.642353 168.742957 
L 288.677647 168.742957 
" style="fill:none;stroke:#000000;stroke-linecap:square;stroke-linejoin:miter;stroke-width:0.8;"/>
   </g>
   <g id="patch_76">
    <path d="M 183.642353 110.892522 
L 288.677647 110.892522 
" style="fill:none;stroke:#000000;stroke-linecap:square;stroke-linejoin:miter;stroke-width:0.8;"/>
   </g>
  </g>
  <g id="axes_6">
   <g id="patch_77">
    <path d="M 309.684706 168.742957 
L 414.72 168.742957 
L 414.72 110.892522 
L 309.684706 110.892522 
z
" style="fill:#ffffff;"/>
   </g>
   <g id="patch_78">
    <path clip-path="url(#pdc3c2a835b)" d="M 314.459037 168.742957 
L 341.740932 168.742957 
L 341.740932 121.371732 
L 314.459037 121.371732 
z
" style="fill:#aec7e8;"/>
   </g>
   <g id="patch_79">
    <path clip-path="url(#pdc3c2a835b)" d="M 348.561406 168.742957 
L 375.8433 168.742957 
L 375.8433 163.269039 
L 348.561406 163.269039 
z
" style="fill:#aec7e8;"/>
   </g>
   <g id="patch_80">
    <path clip-path="url(#pdc3c2a835b)" d="M 382.663774 168.742957 
L 409.945668 168.742957 
L 409.945668 162.766339 
L 382.663774 162.766339 
z
"/>
   </g>
   <g id="patch_81">
    <path clip-path="url(#pdc3c2a835b)" d="M 314.459037 121.371732 
L 341.740932 121.371732 
L 341.740932 116.108262 
L 314.459037 116.108262 
z
" style="fill:#ff9896;"/>
   </g>
   <g id="patch_82">
    <path clip-path="url(#pdc3c2a835b)" d="M 348.561406 163.269039 
L 375.8433 163.269039 
L 375.8433 162.660826 
L 348.561406 162.660826 
z
"/>
   </g>
   <g id="patch_83">
    <path clip-path="url(#pdc3c2a835b)" d="M 382.663774 162.766339 
L 409.945668 162.766339 
L 409.945668 162.102271 
L 382.663774 162.102271 
z
" style="fill:#ff9896;"/>
   </g>
   <g id="matplotlib.axis_11"/>
   <g id="matplotlib.axis_12">
    <g id="ytick_11">
     <g id="line2d_11">
      <g>
       <use style="stroke:#000000;stroke-width:0.8;" x="309.684706" xlink:href="#m78bc82b865" y="168.742957"/>
      </g>
     </g>
    </g>
    <g id="ytick_12">
     <g id="line2d_12">
      <g>
       <use style="stroke:#000000;stroke-width:0.8;" x="309.684706" xlink:href="#m78bc82b865" y="127.711763"/>
      </g>
     </g>
    </g>
   </g>
   <g id="patch_84">
    <path d="M 309.684706 168.742957 
L 309.684706 110.892522 
" style="fill:none;stroke:#000000;stroke-linecap:square;stroke-linejoin:miter;stroke-width:0.8;"/>
   </g>
   <g id="patch_85">
    <path d="M 414.72 168.742957 
L 414.72 110.892522 
" style="fill:none;stroke:#000000;stroke-linecap:square;stroke-linejoin:miter;stroke-width:0.8;"/>
   </g>
   <g id="patch_86">
    <path d="M 309.684706 168.742957 
L 414.72 168.742957 
" style="fill:none;stroke:#000000;stroke-linecap:square;stroke-linejoin:miter;stroke-width:0.8;"/>
   </g>
   <g id="patch_87">
    <path d="M 309.684706 110.892522 
L 414.72 110.892522 
" style="fill:none;stroke:#000000;stroke-linecap:square;stroke-linejoin:miter;stroke-width:0.8;"/>
   </g>
  </g>
  <g id="axes_7">
   <g id="patch_88">
    <path d="M 57.6 238.163478 
L 162.635294 238.163478 
L 162.635294 180.313043 
L 57.6 180.313043 
z
" style="fill:#ffffff;"/>
   </g>
   <g id="patch_89">
    <path clip-path="url(#p76dcbb86f5)" d="M 62.374332 238.163478 
L 78.28877 238.163478 
L 78.28877 191.747924 
L 62.374332 191.747924 
z
" style="fill:#aec7e8;"/>
   </g>
   <g id="patch_90">
    <path clip-path="url(#p76dcbb86f5)" d="M 82.26738 238.163478 
L 98.181818 238.163478 
L 98.181818 233.639082 
L 82.26738 233.639082 
z
" style="fill:#aec7e8;"/>
   </g>
   <g id="patch_91">
    <path clip-path="url(#p76dcbb86f5)" d="M 102.160428 238.163478 
L 118.074866 238.163478 
L 118.074866 232.137228 
L 102.160428 232.137228 
z
"/>
   </g>
   <g id="patch_92">
    <path clip-path="url(#p76dcbb86f5)" d="M 122.053476 238.163478 
L 137.967914 238.163478 
L 137.967914 232.36147 
L 122.053476 232.36147 
z
"/>
   </g>
   <g id="patch_93">
    <path clip-path="url(#p76dcbb86f5)" d="M 141.946524 238.163478 
L 157.860963 238.163478 
L 157.860963 232.689561 
L 141.946524 232.689561 
z
"/>
   </g>
   <g id="patch_94">
    <path clip-path="url(#p76dcbb86f5)" d="M 62.374332 191.747924 
L 78.28877 191.747924 
L 78.28877 186.590641 
L 62.374332 186.590641 
z
" style="fill:#9467bd;"/>
   </g>
   <g id="patch_95">
    <path clip-path="url(#p76dcbb86f5)" d="M 82.26738 233.639082 
L 98.181818 233.639082 
L 98.181818 233.136371 
L 82.26738 233.136371 
z
"/>
   </g>
   <g id="patch_96">
    <path clip-path="url(#p76dcbb86f5)" d="M 102.160428 232.137228 
L 118.074866 232.137228 
L 118.074866 231.467644 
L 102.160428 231.467644 
z
" style="fill:#9467bd;"/>
   </g>
   <g id="patch_97">
    <path clip-path="url(#p76dcbb86f5)" d="M 122.053476 232.36147 
L 137.967914 232.36147 
L 137.967914 231.716802 
L 122.053476 231.716802 
z
" style="fill:#9467bd;"/>
   </g>
   <g id="patch_98">
    <path clip-path="url(#p76dcbb86f5)" d="M 141.946524 232.689561 
L 157.860963 232.689561 
L 157.860963 232.081348 
L 141.946524 232.081348 
z
" style="fill:#aec7e8;"/>
   </g>
   <g id="matplotlib.axis_13"/>
   <g id="matplotlib.axis_14">
    <g id="ytick_13">
     <g id="line2d_13">
      <g>
       <use style="stroke:#000000;stroke-width:0.8;" x="57.6" xlink:href="#m78bc82b865" y="238.163478"/>
      </g>
     </g>
     <g id="text_5">
      <!-- 0.0 -->
      <g transform="translate(34.696875 241.962697)scale(0.1 -0.1)">
       <use xlink:href="#DejaVuSans-30"/>
       <use x="63.623047" xlink:href="#DejaVuSans-2e"/>
       <use x="95.410156" xlink:href="#DejaVuSans-30"/>
      </g>
     </g>
    </g>
    <g id="ytick_14">
     <g id="line2d_14">
      <g>
       <use style="stroke:#000000;stroke-width:0.8;" x="57.6" xlink:href="#m78bc82b865" y="197.132285"/>
      </g>
     </g>
     <g id="text_6">
      <!-- 0.5 -->
      <g transform="translate(34.696875 200.931503)scale(0.1 -0.1)">
       <use xlink:href="#DejaVuSans-30"/>
       <use x="63.623047" xlink:href="#DejaVuSans-2e"/>
       <use x="95.410156" xlink:href="#DejaVuSans-35"/>
      </g>
     </g>
    </g>
   </g>
   <g id="patch_99">
    <path d="M 57.6 238.163478 
L 57.6 180.313043 
" style="fill:none;stroke:#000000;stroke-linecap:square;stroke-linejoin:miter;stroke-width:0.8;"/>
   </g>
   <g id="patch_100">
    <path d="M 162.635294 238.163478 
L 162.635294 180.313043 
" style="fill:none;stroke:#000000;stroke-linecap:square;stroke-linejoin:miter;stroke-width:0.8;"/>
   </g>
   <g id="patch_101">
    <path d="M 57.6 238.163478 
L 162.635294 238.163478 
" style="fill:none;stroke:#000000;stroke-linecap:square;stroke-linejoin:miter;stroke-width:0.8;"/>
   </g>
   <g id="patch_102">
    <path d="M 57.6 180.313043 
L 162.635294 180.313043 
" style="fill:none;stroke:#000000;stroke-linecap:square;stroke-linejoin:miter;stroke-width:0.8;"/>
   </g>
  </g>
  <g id="axes_8">
   <g id="patch_103">
    <path d="M 183.642353 238.163478 
L 288.677647 238.163478 
L 288.677647 180.313043 
L 183.642353 180.313043 
z
" style="fill:#ffffff;"/>
   </g>
   <g id="patch_104">
    <path clip-path="url(#p398eb5f958)" d="M 188.416684 238.163478 
L 204.331123 238.163478 
L 204.331123 193.369312 
L 188.416684 193.369312 
z
" style="fill:#ffbb78;"/>
   </g>
   <g id="patch_105">
    <path clip-path="url(#p398eb5f958)" d="M 208.309733 238.163478 
L 224.224171 238.163478 
L 224.224171 233.368578 
L 208.309733 233.368578 
z
" style="fill:#ffbb78;"/>
   </g>
   <g id="patch_106">
    <path clip-path="url(#p398eb5f958)" d="M 228.202781 238.163478 
L 244.117219 238.163478 
L 244.117219 233.316044 
L 228.202781 233.316044 
z
"/>
   </g>
   <g id="patch_107">
    <path clip-path="url(#p398eb5f958)" d="M 248.095829 238.163478 
L 264.010267 238.163478 
L 264.010267 232.481668 
L 248.095829 232.481668 
z
"/>
   </g>
   <g id="patch_108">
    <path clip-path="url(#p398eb5f958)" d="M 267.988877 238.163478 
L 283.903316 238.163478 
L 283.903316 235.899579 
L 267.988877 235.899579 
z
"/>
   </g>
   <g id="patch_109">
    <path clip-path="url(#p398eb5f958)" d="M 188.416684 193.369312 
L 204.331123 193.369312 
L 204.331123 188.392182 
L 188.416684 188.392182 
z
" style="fill:#c5b0d5;"/>
   </g>
   <g id="patch_110">
    <path clip-path="url(#p398eb5f958)" d="M 208.309733 233.368578 
L 224.224171 233.368578 
L 224.224171 232.835811 
L 208.309733 232.835811 
z
"/>
   </g>
   <g id="patch_111">
    <path clip-path="url(#p398eb5f958)" d="M 228.202781 233.316044 
L 244.117219 233.316044 
L 244.117219 232.77744 
L 228.202781 232.77744 
z
" style="fill:#ffbb78;"/>
   </g>
   <g id="patch_112">
    <path clip-path="url(#p398eb5f958)" d="M 248.095829 232.481668 
L 264.010267 232.481668 
L 264.010267 231.850356 
L 248.095829 231.850356 
z
" style="fill:#c5b0d5;"/>
   </g>
   <g id="patch_113">
    <path clip-path="url(#p398eb5f958)" d="M 267.988877 235.899579 
L 283.903316 235.899579 
L 283.903316 235.648034 
L 267.988877 235.648034 
z
" style="fill:#c5b0d5;"/>
   </g>
   <g id="matplotlib.axis_15"/>
   <g id="matplotlib.axis_16">
    <g id="ytick_15">
     <g id="line2d_15">
      <g>
       <use style="stroke:#000000;stroke-width:0.8;" x="183.642353" xlink:href="#m78bc82b865" y="238.163478"/>
      </g>
     </g>
    </g>
    <g id="ytick_16">
     <g id="line2d_16">
      <g>
       <use style="stroke:#000000;stroke-width:0.8;" x="183.642353" xlink:href="#m78bc82b865" y="197.132285"/>
      </g>
     </g>
    </g>
   </g>
   <g id="patch_114">
    <path d="M 183.642353 238.163478 
L 183.642353 180.313043 
" style="fill:none;stroke:#000000;stroke-linecap:square;stroke-linejoin:miter;stroke-width:0.8;"/>
   </g>
   <g id="patch_115">
    <path d="M 288.677647 238.163478 
L 288.677647 180.313043 
" style="fill:none;stroke:#000000;stroke-linecap:square;stroke-linejoin:miter;stroke-width:0.8;"/>
   </g>
   <g id="patch_116">
    <path d="M 183.642353 238.163478 
L 288.677647 238.163478 
" style="fill:none;stroke:#000000;stroke-linecap:square;stroke-linejoin:miter;stroke-width:0.8;"/>
   </g>
   <g id="patch_117">
    <path d="M 183.642353 180.313043 
L 288.677647 180.313043 
" style="fill:none;stroke:#000000;stroke-linecap:square;stroke-linejoin:miter;stroke-width:0.8;"/>
   </g>
  </g>
  <g id="axes_9">
   <g id="patch_118">
    <path d="M 309.684706 238.163478 
L 414.72 238.163478 
L 414.72 180.313043 
L 309.684706 180.313043 
z
" style="fill:#ffffff;"/>
   </g>
   <g id="patch_119">
    <path clip-path="url(#p71f2934e79)" d="M 314.459037 238.163478 
L 330.373476 238.163478 
L 330.373476 193.987012 
L 314.459037 193.987012 
z
" style="fill:#ff9896;"/>
   </g>
   <g id="patch_120">
    <path clip-path="url(#p71f2934e79)" d="M 334.352086 238.163478 
L 350.266524 238.163478 
L 350.266524 234.952428 
L 334.352086 234.952428 
z
" style="fill:#ff9896;"/>
   </g>
   <g id="patch_121">
    <path clip-path="url(#p71f2934e79)" d="M 354.245134 238.163478 
L 370.159572 238.163478 
L 370.159572 232.186861 
L 354.245134 232.186861 
z
"/>
   </g>
   <g id="patch_122">
    <path clip-path="url(#p71f2934e79)" d="M 374.138182 238.163478 
L 390.05262 238.163478 
L 390.05262 232.884879 
L 374.138182 232.884879 
z
"/>
   </g>
   <g id="patch_123">
    <path clip-path="url(#p71f2934e79)" d="M 394.03123 238.163478 
L 409.945668 238.163478 
L 409.945668 233.471768 
L 394.03123 233.471768 
z
"/>
   </g>
   <g id="patch_124">
    <path clip-path="url(#p71f2934e79)" d="M 314.459037 193.987012 
L 330.373476 193.987012 
L 330.373476 189.078515 
L 314.459037 189.078515 
z
" style="fill:#8c564b;"/>
   </g>
   <g id="patch_125">
    <path clip-path="url(#p71f2934e79)" d="M 334.352086 234.952428 
L 350.266524 234.952428 
L 350.266524 234.595645 
L 334.352086 234.595645 
z
"/>
   </g>
   <g id="patch_126">
    <path clip-path="url(#p71f2934e79)" d="M 354.245134 232.186861 
L 370.159572 232.186861 
L 370.159572 231.522793 
L 354.245134 231.522793 
z
" style="fill:#ff9896;"/>
   </g>
   <g id="patch_127">
    <path clip-path="url(#p71f2934e79)" d="M 374.138182 232.884879 
L 390.05262 232.884879 
L 390.05262 232.298368 
L 374.138182 232.298368 
z
" style="fill:#8c564b;"/>
   </g>
   <g id="patch_128">
    <path clip-path="url(#p71f2934e79)" d="M 394.03123 233.471768 
L 409.945668 233.471768 
L 409.945668 232.950467 
L 394.03123 232.950467 
z
" style="fill:#8c564b;"/>
   </g>
   <g id="matplotlib.axis_17"/>
   <g id="matplotlib.axis_18">
    <g id="ytick_17">
     <g id="line2d_17">
      <g>
       <use style="stroke:#000000;stroke-width:0.8;" x="309.684706" xlink:href="#m78bc82b865" y="238.163478"/>
      </g>
     </g>
    </g>
    <g id="ytick_18">
     <g id="line2d_18">
      <g>
       <use style="stroke:#000000;stroke-width:0.8;" x="309.684706" xlink:href="#m78bc82b865" y="197.132285"/>
      </g>
     </g>
    </g>
   </g>
   <g id="patch_129">
    <path d="M 309.684706 238.163478 
L 309.684706 180.313043 
" style="fill:none;stroke:#000000;stroke-linecap:square;stroke-linejoin:miter;stroke-width:0.8;"/>
   </g>
   <g id="patch_130">
    <path d="M 414.72 238.163478 
L 414.72 180.313043 
" style="fill:none;stroke:#000000;stroke-linecap:square;stroke-linejoin:miter;stroke-width:0.8;"/>
   </g>
   <g id="patch_131">
    <path d="M 309.684706 238.163478 
L 414.72 238.163478 
" style="fill:none;stroke:#000000;stroke-linecap:square;stroke-linejoin:miter;stroke-width:0.8;"/>
   </g>
   <g id="patch_132">
    <path d="M 309.684706 180.313043 
L 414.72 180.313043 
" style="fill:none;stroke:#000000;stroke-linecap:square;stroke-linejoin:miter;stroke-width:0.8;"/>
   </g>
  </g>
  <g id="axes_10">
   <g id="patch_133">
    <path d="M 57.6 307.584 
L 162.635294 307.584 
L 162.635294 249.733565 
L 57.6 249.733565 
z
" style="fill:#ffffff;"/>
   </g>
   <g id="patch_134">
    <path clip-path="url(#p09291429bb)" d="M 62.374332 307.584 
L 78.28877 307.584 
L 78.28877 266.01424 
L 62.374332 266.01424 
z
" style="fill:#ffbb78;"/>
   </g>
   <g id="patch_135">
    <path clip-path="url(#p09291429bb)" d="M 82.26738 307.584 
L 98.181818 307.584 
L 98.181818 304.054966 
L 82.26738 304.054966 
z
" style="fill:#ffbb78;"/>
   </g>
   <g id="patch_136">
    <path clip-path="url(#p09291429bb)" d="M 102.160428 307.584 
L 118.074866 307.584 
L 118.074866 303.223118 
L 102.160428 303.223118 
z
"/>
   </g>
   <g id="patch_137">
    <path clip-path="url(#p09291429bb)" d="M 122.053476 307.584 
L 137.967914 307.584 
L 137.967914 304.22936 
L 122.053476 304.22936 
z
"/>
   </g>
   <g id="patch_138">
    <path clip-path="url(#p09291429bb)" d="M 141.946524 307.584 
L 157.860963 307.584 
L 157.860963 303.197338 
L 141.946524 303.197338 
z
"/>
   </g>
   <g id="patch_139">
    <path clip-path="url(#p09291429bb)" d="M 62.374332 266.01424 
L 78.28877 266.01424 
L 78.28877 261.395378 
L 62.374332 261.395378 
z
" style="fill:#d62728;"/>
   </g>
   <g id="patch_140">
    <path clip-path="url(#p09291429bb)" d="M 82.26738 304.054966 
L 98.181818 304.054966 
L 98.181818 303.662851 
L 82.26738 303.662851 
z
"/>
   </g>
   <g id="patch_141">
    <path clip-path="url(#p09291429bb)" d="M 102.160428 303.223118 
L 118.074866 303.223118 
L 118.074866 302.738576 
L 102.160428 302.738576 
z
" style="fill:#d62728;"/>
   </g>
   <g id="patch_142">
    <path clip-path="url(#p09291429bb)" d="M 122.053476 304.22936 
L 137.967914 304.22936 
L 137.967914 303.856622 
L 122.053476 303.856622 
z
" style="fill:#d62728;"/>
   </g>
   <g id="patch_143">
    <path clip-path="url(#p09291429bb)" d="M 141.946524 303.197338 
L 157.860963 303.197338 
L 157.860963 302.709931 
L 141.946524 302.709931 
z
" style="fill:#ffbb78;"/>
   </g>
   <g id="matplotlib.axis_19"/>
   <g id="matplotlib.axis_20">
    <g id="ytick_19">
     <g id="line2d_19">
      <g>
       <use style="stroke:#000000;stroke-width:0.8;" x="57.6" xlink:href="#m78bc82b865" y="307.584"/>
      </g>
     </g>
     <g id="text_7">
      <!-- 0.0 -->
      <g transform="translate(34.696875 311.383219)scale(0.1 -0.1)">
       <use xlink:href="#DejaVuSans-30"/>
       <use x="63.623047" xlink:href="#DejaVuSans-2e"/>
       <use x="95.410156" xlink:href="#DejaVuSans-30"/>
      </g>
     </g>
    </g>
    <g id="ytick_20">
     <g id="line2d_20">
      <g>
       <use style="stroke:#000000;stroke-width:0.8;" x="57.6" xlink:href="#m78bc82b865" y="266.552806"/>
      </g>
     </g>
     <g id="text_8">
      <!-- 0.5 -->
      <g transform="translate(34.696875 270.352025)scale(0.1 -0.1)">
       <use xlink:href="#DejaVuSans-30"/>
       <use x="63.623047" xlink:href="#DejaVuSans-2e"/>
       <use x="95.410156" xlink:href="#DejaVuSans-35"/>
      </g>
     </g>
    </g>
   </g>
   <g id="patch_144">
    <path d="M 57.6 307.584 
L 57.6 249.733565 
" style="fill:none;stroke:#000000;stroke-linecap:square;stroke-linejoin:miter;stroke-width:0.8;"/>
   </g>
   <g id="patch_145">
    <path d="M 162.635294 307.584 
L 162.635294 249.733565 
" style="fill:none;stroke:#000000;stroke-linecap:square;stroke-linejoin:miter;stroke-width:0.8;"/>
   </g>
   <g id="patch_146">
    <path d="M 57.6 307.584 
L 162.635294 307.584 
" style="fill:none;stroke:#000000;stroke-linecap:square;stroke-linejoin:miter;stroke-width:0.8;"/>
   </g>
   <g id="patch_147">
    <path d="M 57.6 249.733565 
L 162.635294 249.733565 
" style="fill:none;stroke:#000000;stroke-linecap:square;stroke-linejoin:miter;stroke-width:0.8;"/>
   </g>
  </g>
  <g id="axes_11">
   <g id="patch_148">
    <path d="M 183.642353 307.584 
L 288.677647 307.584 
L 288.677647 249.733565 
L 183.642353 249.733565 
z
" style="fill:#ffffff;"/>
   </g>
   <g id="matplotlib.axis_21"/>
   <g id="matplotlib.axis_22">
    <g id="ytick_21">
     <g id="line2d_21">
      <g>
       <use style="stroke:#000000;stroke-width:0.8;" x="183.642353" xlink:href="#m78bc82b865" y="307.584"/>
      </g>
     </g>
    </g>
    <g id="ytick_22">
     <g id="line2d_22">
      <g>
       <use style="stroke:#000000;stroke-width:0.8;" x="183.642353" xlink:href="#m78bc82b865" y="266.552806"/>
      </g>
     </g>
    </g>
   </g>
   <g id="patch_149">
    <path d="M 183.642353 307.584 
L 183.642353 249.733565 
" style="fill:none;stroke:#000000;stroke-linecap:square;stroke-linejoin:miter;stroke-width:0.8;"/>
   </g>
   <g id="patch_150">
    <path d="M 288.677647 307.584 
L 288.677647 249.733565 
" style="fill:none;stroke:#000000;stroke-linecap:square;stroke-linejoin:miter;stroke-width:0.8;"/>
   </g>
   <g id="patch_151">
    <path d="M 183.642353 307.584 
L 288.677647 307.584 
" style="fill:none;stroke:#000000;stroke-linecap:square;stroke-linejoin:miter;stroke-width:0.8;"/>
   </g>
   <g id="patch_152">
    <path d="M 183.642353 249.733565 
L 288.677647 249.733565 
" style="fill:none;stroke:#000000;stroke-linecap:square;stroke-linejoin:miter;stroke-width:0.8;"/>
   </g>
  </g>
  <g id="axes_12">
   <g id="patch_153">
    <path d="M 309.684706 307.584 
L 414.72 307.584 
L 414.72 249.733565 
L 309.684706 249.733565 
z
" style="fill:#ffffff;"/>
   </g>
   <g id="matplotlib.axis_23"/>
   <g id="matplotlib.axis_24">
    <g id="ytick_23">
     <g id="line2d_23">
      <g>
       <use style="stroke:#000000;stroke-width:0.8;" x="309.684706" xlink:href="#m78bc82b865" y="307.584"/>
      </g>
     </g>
    </g>
    <g id="ytick_24">
     <g id="line2d_24">
      <g>
       <use style="stroke:#000000;stroke-width:0.8;" x="309.684706" xlink:href="#m78bc82b865" y="266.552806"/>
      </g>
     </g>
    </g>
   </g>
   <g id="patch_154">
    <path d="M 309.684706 307.584 
L 309.684706 249.733565 
" style="fill:none;stroke:#000000;stroke-linecap:square;stroke-linejoin:miter;stroke-width:0.8;"/>
   </g>
   <g id="patch_155">
    <path d="M 414.72 307.584 
L 414.72 249.733565 
" style="fill:none;stroke:#000000;stroke-linecap:square;stroke-linejoin:miter;stroke-width:0.8;"/>
   </g>
   <g id="patch_156">
    <path d="M 309.684706 307.584 
L 414.72 307.584 
" style="fill:none;stroke:#000000;stroke-linecap:square;stroke-linejoin:miter;stroke-width:0.8;"/>
   </g>
   <g id="patch_157">
    <path d="M 309.684706 249.733565 
L 414.72 249.733565 
" style="fill:none;stroke:#000000;stroke-linecap:square;stroke-linejoin:miter;stroke-width:0.8;"/>
   </g>
  </g>
  <g id="axes_13">
   <g id="matplotlib.axis_25">
    <g id="xtick_1">
     <g id="text_9">
      <!-- 0.0 -->
      <g style="opacity:0;" transform="translate(49.648438 322.182437)scale(0.1 -0.1)">
       <use xlink:href="#DejaVuSans-30"/>
       <use x="63.623047" xlink:href="#DejaVuSans-2e"/>
       <use x="95.410156" xlink:href="#DejaVuSans-30"/>
      </g>
     </g>
    </g>
    <g id="xtick_2">
     <g id="text_10">
      <!-- 0.2 -->
      <g style="opacity:0;" transform="translate(121.072438 322.182437)scale(0.1 -0.1)">
       <defs>
        <path d="M 1228 531 
L 3431 531 
L 3431 0 
L 469 0 
L 469 531 
Q 828 903 1448 1529 
Q 2069 2156 2228 2338 
Q 2531 2678 2651 2914 
Q 2772 3150 2772 3378 
Q 2772 3750 2511 3984 
Q 2250 4219 1831 4219 
Q 1534 4219 1204 4116 
Q 875 4013 500 3803 
L 500 4441 
Q 881 4594 1212 4672 
Q 1544 4750 1819 4750 
Q 2544 4750 2975 4387 
Q 3406 4025 3406 3419 
Q 3406 3131 3298 2873 
Q 3191 2616 2906 2266 
Q 2828 2175 2409 1742 
Q 1991 1309 1228 531 
z
" id="DejaVuSans-32" transform="scale(0.015625)"/>
       </defs>
       <use xlink:href="#DejaVuSans-30"/>
       <use x="63.623047" xlink:href="#DejaVuSans-2e"/>
       <use x="95.410156" xlink:href="#DejaVuSans-32"/>
      </g>
     </g>
    </g>
    <g id="xtick_3">
     <g id="text_11">
      <!-- 0.4 -->
      <g style="opacity:0;" transform="translate(192.496438 322.182437)scale(0.1 -0.1)">
       <defs>
        <path d="M 2419 4116 
L 825 1625 
L 2419 1625 
L 2419 4116 
z
M 2253 4666 
L 3047 4666 
L 3047 1625 
L 3713 1625 
L 3713 1100 
L 3047 1100 
L 3047 0 
L 2419 0 
L 2419 1100 
L 313 1100 
L 313 1709 
L 2253 4666 
z
" id="DejaVuSans-34" transform="scale(0.015625)"/>
       </defs>
       <use xlink:href="#DejaVuSans-30"/>
       <use x="63.623047" xlink:href="#DejaVuSans-2e"/>
       <use x="95.410156" xlink:href="#DejaVuSans-34"/>
      </g>
     </g>
    </g>
    <g id="xtick_4">
     <g id="text_12">
      <!-- 0.6 -->
      <g style="opacity:0;" transform="translate(263.920438 322.182437)scale(0.1 -0.1)">
       <defs>
        <path d="M 2113 2584 
Q 1688 2584 1439 2293 
Q 1191 2003 1191 1497 
Q 1191 994 1439 701 
Q 1688 409 2113 409 
Q 2538 409 2786 701 
Q 3034 994 3034 1497 
Q 3034 2003 2786 2293 
Q 2538 2584 2113 2584 
z
M 3366 4563 
L 3366 3988 
Q 3128 4100 2886 4159 
Q 2644 4219 2406 4219 
Q 1781 4219 1451 3797 
Q 1122 3375 1075 2522 
Q 1259 2794 1537 2939 
Q 1816 3084 2150 3084 
Q 2853 3084 3261 2657 
Q 3669 2231 3669 1497 
Q 3669 778 3244 343 
Q 2819 -91 2113 -91 
Q 1303 -91 875 529 
Q 447 1150 447 2328 
Q 447 3434 972 4092 
Q 1497 4750 2381 4750 
Q 2619 4750 2861 4703 
Q 3103 4656 3366 4563 
z
" id="DejaVuSans-36" transform="scale(0.015625)"/>
       </defs>
       <use xlink:href="#DejaVuSans-30"/>
       <use x="63.623047" xlink:href="#DejaVuSans-2e"/>
       <use x="95.410156" xlink:href="#DejaVuSans-36"/>
      </g>
     </g>
    </g>
    <g id="xtick_5">
     <g id="text_13">
      <!-- 0.8 -->
      <g style="opacity:0;" transform="translate(335.344438 322.182437)scale(0.1 -0.1)">
       <defs>
        <path d="M 2034 2216 
Q 1584 2216 1326 1975 
Q 1069 1734 1069 1313 
Q 1069 891 1326 650 
Q 1584 409 2034 409 
Q 2484 409 2743 651 
Q 3003 894 3003 1313 
Q 3003 1734 2745 1975 
Q 2488 2216 2034 2216 
z
M 1403 2484 
Q 997 2584 770 2862 
Q 544 3141 544 3541 
Q 544 4100 942 4425 
Q 1341 4750 2034 4750 
Q 2731 4750 3128 4425 
Q 3525 4100 3525 3541 
Q 3525 3141 3298 2862 
Q 3072 2584 2669 2484 
Q 3125 2378 3379 2068 
Q 3634 1759 3634 1313 
Q 3634 634 3220 271 
Q 2806 -91 2034 -91 
Q 1263 -91 848 271 
Q 434 634 434 1313 
Q 434 1759 690 2068 
Q 947 2378 1403 2484 
z
M 1172 3481 
Q 1172 3119 1398 2916 
Q 1625 2713 2034 2713 
Q 2441 2713 2670 2916 
Q 2900 3119 2900 3481 
Q 2900 3844 2670 4047 
Q 2441 4250 2034 4250 
Q 1625 4250 1398 4047 
Q 1172 3844 1172 3481 
z
" id="DejaVuSans-38" transform="scale(0.015625)"/>
       </defs>
       <use xlink:href="#DejaVuSans-30"/>
       <use x="63.623047" xlink:href="#DejaVuSans-2e"/>
       <use x="95.410156" xlink:href="#DejaVuSans-38"/>
      </g>
     </g>
    </g>
    <g id="xtick_6">
     <g id="text_14">
      <!-- 1.0 -->
      <g style="opacity:0;" transform="translate(406.768438 322.182437)scale(0.1 -0.1)">
       <defs>
        <path d="M 794 531 
L 1825 531 
L 1825 4091 
L 703 3866 
L 703 4441 
L 1819 4666 
L 2450 4666 
L 2450 531 
L 3481 531 
L 3481 0 
L 794 0 
L 794 531 
z
" id="DejaVuSans-31" transform="scale(0.015625)"/>
       </defs>
       <use xlink:href="#DejaVuSans-31"/>
       <use x="63.623047" xlink:href="#DejaVuSans-2e"/>
       <use x="95.410156" xlink:href="#DejaVuSans-30"/>
      </g>
     </g>
    </g>
   </g>
   <g id="matplotlib.axis_26">
    <g id="ytick_25">
     <g id="text_15">
      <!-- 0.0 -->
      <g style="opacity:0;" transform="translate(34.696875 311.383219)scale(0.1 -0.1)">
       <use xlink:href="#DejaVuSans-30"/>
       <use x="63.623047" xlink:href="#DejaVuSans-2e"/>
       <use x="95.410156" xlink:href="#DejaVuSans-30"/>
      </g>
     </g>
    </g>
    <g id="ytick_26">
     <g id="text_16">
      <!-- 0.2 -->
      <g style="opacity:0;" transform="translate(34.696875 258.160819)scale(0.1 -0.1)">
       <use xlink:href="#DejaVuSans-30"/>
       <use x="63.623047" xlink:href="#DejaVuSans-2e"/>
       <use x="95.410156" xlink:href="#DejaVuSans-32"/>
      </g>
     </g>
    </g>
    <g id="ytick_27">
     <g id="text_17">
      <!-- 0.4 -->
      <g style="opacity:0;" transform="translate(34.696875 204.938419)scale(0.1 -0.1)">
       <use xlink:href="#DejaVuSans-30"/>
       <use x="63.623047" xlink:href="#DejaVuSans-2e"/>
       <use x="95.410156" xlink:href="#DejaVuSans-34"/>
      </g>
     </g>
    </g>
    <g id="ytick_28">
     <g id="text_18">
      <!-- 0.6 -->
      <g style="opacity:0;" transform="translate(34.696875 151.716019)scale(0.1 -0.1)">
       <use xlink:href="#DejaVuSans-30"/>
       <use x="63.623047" xlink:href="#DejaVuSans-2e"/>
       <use x="95.410156" xlink:href="#DejaVuSans-36"/>
      </g>
     </g>
    </g>
    <g id="ytick_29">
     <g id="text_19">
      <!-- 0.8 -->
      <g style="opacity:0;" transform="translate(34.696875 98.493619)scale(0.1 -0.1)">
       <use xlink:href="#DejaVuSans-30"/>
       <use x="63.623047" xlink:href="#DejaVuSans-2e"/>
       <use x="95.410156" xlink:href="#DejaVuSans-38"/>
      </g>
     </g>
    </g>
    <g id="ytick_30">
     <g id="text_20">
      <!-- 1.0 -->
      <g style="opacity:0;" transform="translate(34.696875 45.271219)scale(0.1 -0.1)">
       <use xlink:href="#DejaVuSans-31"/>
       <use x="63.623047" xlink:href="#DejaVuSans-2e"/>
       <use x="95.410156" xlink:href="#DejaVuSans-30"/>
      </g>
     </g>
    </g>
    <g id="text_21">
     <!-- Pearsons correlation -->
     <g transform="translate(28.617187 225.410812)rotate(-90)scale(0.1 -0.1)">
      <defs>
       <path d="M 1259 4147 
L 1259 2394 
L 2053 2394 
Q 2494 2394 2734 2622 
Q 2975 2850 2975 3272 
Q 2975 3691 2734 3919 
Q 2494 4147 2053 4147 
L 1259 4147 
z
M 628 4666 
L 2053 4666 
Q 2838 4666 3239 4311 
Q 3641 3956 3641 3272 
Q 3641 2581 3239 2228 
Q 2838 1875 2053 1875 
L 1259 1875 
L 1259 0 
L 628 0 
L 628 4666 
z
" id="DejaVuSans-50" transform="scale(0.015625)"/>
       <path d="M 3597 1894 
L 3597 1613 
L 953 1613 
Q 991 1019 1311 708 
Q 1631 397 2203 397 
Q 2534 397 2845 478 
Q 3156 559 3463 722 
L 3463 178 
Q 3153 47 2828 -22 
Q 2503 -91 2169 -91 
Q 1331 -91 842 396 
Q 353 884 353 1716 
Q 353 2575 817 3079 
Q 1281 3584 2069 3584 
Q 2775 3584 3186 3129 
Q 3597 2675 3597 1894 
z
M 3022 2063 
Q 3016 2534 2758 2815 
Q 2500 3097 2075 3097 
Q 1594 3097 1305 2825 
Q 1016 2553 972 2059 
L 3022 2063 
z
" id="DejaVuSans-65" transform="scale(0.015625)"/>
       <path d="M 2194 1759 
Q 1497 1759 1228 1600 
Q 959 1441 959 1056 
Q 959 750 1161 570 
Q 1363 391 1709 391 
Q 2188 391 2477 730 
Q 2766 1069 2766 1631 
L 2766 1759 
L 2194 1759 
z
M 3341 1997 
L 3341 0 
L 2766 0 
L 2766 531 
Q 2569 213 2275 61 
Q 1981 -91 1556 -91 
Q 1019 -91 701 211 
Q 384 513 384 1019 
Q 384 1609 779 1909 
Q 1175 2209 1959 2209 
L 2766 2209 
L 2766 2266 
Q 2766 2663 2505 2880 
Q 2244 3097 1772 3097 
Q 1472 3097 1187 3025 
Q 903 2953 641 2809 
L 641 3341 
Q 956 3463 1253 3523 
Q 1550 3584 1831 3584 
Q 2591 3584 2966 3190 
Q 3341 2797 3341 1997 
z
" id="DejaVuSans-61" transform="scale(0.015625)"/>
       <path d="M 2631 2963 
Q 2534 3019 2420 3045 
Q 2306 3072 2169 3072 
Q 1681 3072 1420 2755 
Q 1159 2438 1159 1844 
L 1159 0 
L 581 0 
L 581 3500 
L 1159 3500 
L 1159 2956 
Q 1341 3275 1631 3429 
Q 1922 3584 2338 3584 
Q 2397 3584 2469 3576 
Q 2541 3569 2628 3553 
L 2631 2963 
z
" id="DejaVuSans-72" transform="scale(0.015625)"/>
       <path d="M 2834 3397 
L 2834 2853 
Q 2591 2978 2328 3040 
Q 2066 3103 1784 3103 
Q 1356 3103 1142 2972 
Q 928 2841 928 2578 
Q 928 2378 1081 2264 
Q 1234 2150 1697 2047 
L 1894 2003 
Q 2506 1872 2764 1633 
Q 3022 1394 3022 966 
Q 3022 478 2636 193 
Q 2250 -91 1575 -91 
Q 1294 -91 989 -36 
Q 684 19 347 128 
L 347 722 
Q 666 556 975 473 
Q 1284 391 1588 391 
Q 1994 391 2212 530 
Q 2431 669 2431 922 
Q 2431 1156 2273 1281 
Q 2116 1406 1581 1522 
L 1381 1569 
Q 847 1681 609 1914 
Q 372 2147 372 2553 
Q 372 3047 722 3315 
Q 1072 3584 1716 3584 
Q 2034 3584 2315 3537 
Q 2597 3491 2834 3397 
z
" id="DejaVuSans-73" transform="scale(0.015625)"/>
       <path d="M 1959 3097 
Q 1497 3097 1228 2736 
Q 959 2375 959 1747 
Q 959 1119 1226 758 
Q 1494 397 1959 397 
Q 2419 397 2687 759 
Q 2956 1122 2956 1747 
Q 2956 2369 2687 2733 
Q 2419 3097 1959 3097 
z
M 1959 3584 
Q 2709 3584 3137 3096 
Q 3566 2609 3566 1747 
Q 3566 888 3137 398 
Q 2709 -91 1959 -91 
Q 1206 -91 779 398 
Q 353 888 353 1747 
Q 353 2609 779 3096 
Q 1206 3584 1959 3584 
z
" id="DejaVuSans-6f" transform="scale(0.015625)"/>
       <path d="M 3513 2113 
L 3513 0 
L 2938 0 
L 2938 2094 
Q 2938 2591 2744 2837 
Q 2550 3084 2163 3084 
Q 1697 3084 1428 2787 
Q 1159 2491 1159 1978 
L 1159 0 
L 581 0 
L 581 3500 
L 1159 3500 
L 1159 2956 
Q 1366 3272 1645 3428 
Q 1925 3584 2291 3584 
Q 2894 3584 3203 3211 
Q 3513 2838 3513 2113 
z
" id="DejaVuSans-6e" transform="scale(0.015625)"/>
       <path id="DejaVuSans-20" transform="scale(0.015625)"/>
       <path d="M 3122 3366 
L 3122 2828 
Q 2878 2963 2633 3030 
Q 2388 3097 2138 3097 
Q 1578 3097 1268 2742 
Q 959 2388 959 1747 
Q 959 1106 1268 751 
Q 1578 397 2138 397 
Q 2388 397 2633 464 
Q 2878 531 3122 666 
L 3122 134 
Q 2881 22 2623 -34 
Q 2366 -91 2075 -91 
Q 1284 -91 818 406 
Q 353 903 353 1747 
Q 353 2603 823 3093 
Q 1294 3584 2113 3584 
Q 2378 3584 2631 3529 
Q 2884 3475 3122 3366 
z
" id="DejaVuSans-63" transform="scale(0.015625)"/>
       <path d="M 603 4863 
L 1178 4863 
L 1178 0 
L 603 0 
L 603 4863 
z
" id="DejaVuSans-6c" transform="scale(0.015625)"/>
       <path d="M 1172 4494 
L 1172 3500 
L 2356 3500 
L 2356 3053 
L 1172 3053 
L 1172 1153 
Q 1172 725 1289 603 
Q 1406 481 1766 481 
L 2356 481 
L 2356 0 
L 1766 0 
Q 1100 0 847 248 
Q 594 497 594 1153 
L 594 3053 
L 172 3053 
L 172 3500 
L 594 3500 
L 594 4494 
L 1172 4494 
z
" id="DejaVuSans-74" transform="scale(0.015625)"/>
       <path d="M 603 3500 
L 1178 3500 
L 1178 0 
L 603 0 
L 603 3500 
z
M 603 4863 
L 1178 4863 
L 1178 4134 
L 603 4134 
L 603 4863 
z
" id="DejaVuSans-69" transform="scale(0.015625)"/>
      </defs>
      <use xlink:href="#DejaVuSans-50"/>
      <use x="56.677734" xlink:href="#DejaVuSans-65"/>
      <use x="118.201172" xlink:href="#DejaVuSans-61"/>
      <use x="179.480469" xlink:href="#DejaVuSans-72"/>
      <use x="220.59375" xlink:href="#DejaVuSans-73"/>
      <use x="272.693359" xlink:href="#DejaVuSans-6f"/>
      <use x="333.875" xlink:href="#DejaVuSans-6e"/>
      <use x="397.253906" xlink:href="#DejaVuSans-73"/>
      <use x="449.353516" xlink:href="#DejaVuSans-20"/>
      <use x="481.140625" xlink:href="#DejaVuSans-63"/>
      <use x="536.121094" xlink:href="#DejaVuSans-6f"/>
      <use x="597.302734" xlink:href="#DejaVuSans-72"/>
      <use x="636.666016" xlink:href="#DejaVuSans-72"/>
      <use x="675.529297" xlink:href="#DejaVuSans-65"/>
      <use x="737.052734" xlink:href="#DejaVuSans-6c"/>
      <use x="764.835938" xlink:href="#DejaVuSans-61"/>
      <use x="826.115234" xlink:href="#DejaVuSans-74"/>
      <use x="865.324219" xlink:href="#DejaVuSans-69"/>
      <use x="893.107422" xlink:href="#DejaVuSans-6f"/>
      <use x="954.289062" xlink:href="#DejaVuSans-6e"/>
     </g>
    </g>
   </g>
  </g>
  <g id="legend_1">
   <g id="patch_158">
    <path d="M 475.495 220.6975 
L 640.12 220.6975 
Q 642.12 220.6975 642.12 218.6975 
L 642.12 43.56 
Q 642.12 41.56 640.12 41.56 
L 475.495 41.56 
Q 473.495 41.56 473.495 43.56 
L 473.495 218.6975 
Q 473.495 220.6975 475.495 220.6975 
z
" style="fill:#4c4c4c;opacity:0.5;stroke:#4c4c4c;stroke-linejoin:miter;"/>
   </g>
   <g id="patch_159">
    <path d="M 473.495 218.6975 
L 638.12 218.6975 
Q 640.12 218.6975 640.12 216.6975 
L 640.12 41.56 
Q 640.12 39.56 638.12 39.56 
L 473.495 39.56 
Q 471.495 39.56 471.495 41.56 
L 471.495 216.6975 
Q 471.495 218.6975 473.495 218.6975 
z
" style="fill:#ffffff;stroke:#cccccc;stroke-linejoin:miter;"/>
   </g>
   <g id="patch_160">
    <path d="M 475.495 51.158437 
L 495.495 51.158437 
L 495.495 44.158437 
L 475.495 44.158437 
z
" style="stroke:#000000;stroke-linejoin:miter;"/>
   </g>
   <g id="text_22">
    <!-- big -->
    <g transform="translate(503.495 51.158437)scale(0.1 -0.1)">
     <defs>
      <path d="M 3116 1747 
Q 3116 2381 2855 2742 
Q 2594 3103 2138 3103 
Q 1681 3103 1420 2742 
Q 1159 2381 1159 1747 
Q 1159 1113 1420 752 
Q 1681 391 2138 391 
Q 2594 391 2855 752 
Q 3116 1113 3116 1747 
z
M 1159 2969 
Q 1341 3281 1617 3432 
Q 1894 3584 2278 3584 
Q 2916 3584 3314 3078 
Q 3713 2572 3713 1747 
Q 3713 922 3314 415 
Q 2916 -91 2278 -91 
Q 1894 -91 1617 61 
Q 1341 213 1159 525 
L 1159 0 
L 581 0 
L 581 4863 
L 1159 4863 
L 1159 2969 
z
" id="DejaVuSans-62" transform="scale(0.015625)"/>
      <path d="M 2906 1791 
Q 2906 2416 2648 2759 
Q 2391 3103 1925 3103 
Q 1463 3103 1205 2759 
Q 947 2416 947 1791 
Q 947 1169 1205 825 
Q 1463 481 1925 481 
Q 2391 481 2648 825 
Q 2906 1169 2906 1791 
z
M 3481 434 
Q 3481 -459 3084 -895 
Q 2688 -1331 1869 -1331 
Q 1566 -1331 1297 -1286 
Q 1028 -1241 775 -1147 
L 775 -588 
Q 1028 -725 1275 -790 
Q 1522 -856 1778 -856 
Q 2344 -856 2625 -561 
Q 2906 -266 2906 331 
L 2906 616 
Q 2728 306 2450 153 
Q 2172 0 1784 0 
Q 1141 0 747 490 
Q 353 981 353 1791 
Q 353 2603 747 3093 
Q 1141 3584 1784 3584 
Q 2172 3584 2450 3431 
Q 2728 3278 2906 2969 
L 2906 3500 
L 3481 3500 
L 3481 434 
z
" id="DejaVuSans-67" transform="scale(0.015625)"/>
     </defs>
     <use xlink:href="#DejaVuSans-62"/>
     <use x="63.476562" xlink:href="#DejaVuSans-69"/>
     <use x="91.259766" xlink:href="#DejaVuSans-67"/>
    </g>
   </g>
   <g id="patch_161">
    <path d="M 475.495 65.836563 
L 495.495 65.836563 
L 495.495 58.836563 
L 475.495 58.836563 
z
" style="fill:#1f77b4;stroke:#1f77b4;stroke-linejoin:miter;"/>
   </g>
   <g id="text_23">
    <!-- Multiple myeloma -->
    <g transform="translate(503.495 65.836563)scale(0.1 -0.1)">
     <defs>
      <path d="M 628 4666 
L 1569 4666 
L 2759 1491 
L 3956 4666 
L 4897 4666 
L 4897 0 
L 4281 0 
L 4281 4097 
L 3078 897 
L 2444 897 
L 1241 4097 
L 1241 0 
L 628 0 
L 628 4666 
z
" id="DejaVuSans-4d" transform="scale(0.015625)"/>
      <path d="M 544 1381 
L 544 3500 
L 1119 3500 
L 1119 1403 
Q 1119 906 1312 657 
Q 1506 409 1894 409 
Q 2359 409 2629 706 
Q 2900 1003 2900 1516 
L 2900 3500 
L 3475 3500 
L 3475 0 
L 2900 0 
L 2900 538 
Q 2691 219 2414 64 
Q 2138 -91 1772 -91 
Q 1169 -91 856 284 
Q 544 659 544 1381 
z
M 1991 3584 
L 1991 3584 
z
" id="DejaVuSans-75" transform="scale(0.015625)"/>
      <path d="M 1159 525 
L 1159 -1331 
L 581 -1331 
L 581 3500 
L 1159 3500 
L 1159 2969 
Q 1341 3281 1617 3432 
Q 1894 3584 2278 3584 
Q 2916 3584 3314 3078 
Q 3713 2572 3713 1747 
Q 3713 922 3314 415 
Q 2916 -91 2278 -91 
Q 1894 -91 1617 61 
Q 1341 213 1159 525 
z
M 3116 1747 
Q 3116 2381 2855 2742 
Q 2594 3103 2138 3103 
Q 1681 3103 1420 2742 
Q 1159 2381 1159 1747 
Q 1159 1113 1420 752 
Q 1681 391 2138 391 
Q 2594 391 2855 752 
Q 3116 1113 3116 1747 
z
" id="DejaVuSans-70" transform="scale(0.015625)"/>
      <path d="M 3328 2828 
Q 3544 3216 3844 3400 
Q 4144 3584 4550 3584 
Q 5097 3584 5394 3201 
Q 5691 2819 5691 2113 
L 5691 0 
L 5113 0 
L 5113 2094 
Q 5113 2597 4934 2840 
Q 4756 3084 4391 3084 
Q 3944 3084 3684 2787 
Q 3425 2491 3425 1978 
L 3425 0 
L 2847 0 
L 2847 2094 
Q 2847 2600 2669 2842 
Q 2491 3084 2119 3084 
Q 1678 3084 1418 2786 
Q 1159 2488 1159 1978 
L 1159 0 
L 581 0 
L 581 3500 
L 1159 3500 
L 1159 2956 
Q 1356 3278 1631 3431 
Q 1906 3584 2284 3584 
Q 2666 3584 2933 3390 
Q 3200 3197 3328 2828 
z
" id="DejaVuSans-6d" transform="scale(0.015625)"/>
      <path d="M 2059 -325 
Q 1816 -950 1584 -1140 
Q 1353 -1331 966 -1331 
L 506 -1331 
L 506 -850 
L 844 -850 
Q 1081 -850 1212 -737 
Q 1344 -625 1503 -206 
L 1606 56 
L 191 3500 
L 800 3500 
L 1894 763 
L 2988 3500 
L 3597 3500 
L 2059 -325 
z
" id="DejaVuSans-79" transform="scale(0.015625)"/>
     </defs>
     <use xlink:href="#DejaVuSans-4d"/>
     <use x="86.279297" xlink:href="#DejaVuSans-75"/>
     <use x="149.658203" xlink:href="#DejaVuSans-6c"/>
     <use x="177.441406" xlink:href="#DejaVuSans-74"/>
     <use x="216.650391" xlink:href="#DejaVuSans-69"/>
     <use x="244.433594" xlink:href="#DejaVuSans-70"/>
     <use x="307.910156" xlink:href="#DejaVuSans-6c"/>
     <use x="335.693359" xlink:href="#DejaVuSans-65"/>
     <use x="397.216797" xlink:href="#DejaVuSans-20"/>
     <use x="429.003906" xlink:href="#DejaVuSans-6d"/>
     <use x="526.416016" xlink:href="#DejaVuSans-79"/>
     <use x="585.595703" xlink:href="#DejaVuSans-65"/>
     <use x="647.119141" xlink:href="#DejaVuSans-6c"/>
     <use x="674.902344" xlink:href="#DejaVuSans-6f"/>
     <use x="736.083984" xlink:href="#DejaVuSans-6d"/>
     <use x="833.496094" xlink:href="#DejaVuSans-61"/>
    </g>
   </g>
   <g id="patch_162">
    <path d="M 475.495 80.514687 
L 495.495 80.514687 
L 495.495 73.514687 
L 475.495 73.514687 
z
" style="fill:#aec7e8;stroke:#aec7e8;stroke-linejoin:miter;"/>
   </g>
   <g id="text_24">
    <!-- Lymphoma -->
    <g transform="translate(503.495 80.514687)scale(0.1 -0.1)">
     <defs>
      <path d="M 628 4666 
L 1259 4666 
L 1259 531 
L 3531 531 
L 3531 0 
L 628 0 
L 628 4666 
z
" id="DejaVuSans-4c" transform="scale(0.015625)"/>
      <path d="M 3513 2113 
L 3513 0 
L 2938 0 
L 2938 2094 
Q 2938 2591 2744 2837 
Q 2550 3084 2163 3084 
Q 1697 3084 1428 2787 
Q 1159 2491 1159 1978 
L 1159 0 
L 581 0 
L 581 4863 
L 1159 4863 
L 1159 2956 
Q 1366 3272 1645 3428 
Q 1925 3584 2291 3584 
Q 2894 3584 3203 3211 
Q 3513 2838 3513 2113 
z
" id="DejaVuSans-68" transform="scale(0.015625)"/>
     </defs>
     <use xlink:href="#DejaVuSans-4c"/>
     <use x="46.587891" xlink:href="#DejaVuSans-79"/>
     <use x="105.767578" xlink:href="#DejaVuSans-6d"/>
     <use x="203.179688" xlink:href="#DejaVuSans-70"/>
     <use x="266.65625" xlink:href="#DejaVuSans-68"/>
     <use x="330.035156" xlink:href="#DejaVuSans-6f"/>
     <use x="391.216797" xlink:href="#DejaVuSans-6d"/>
     <use x="488.628906" xlink:href="#DejaVuSans-61"/>
    </g>
   </g>
   <g id="patch_163">
    <path d="M 475.495 95.192813 
L 495.495 95.192813 
L 495.495 88.192813 
L 475.495 88.192813 
z
" style="fill:#ff7f0e;stroke:#ff7f0e;stroke-linejoin:miter;"/>
   </g>
   <g id="text_25">
    <!-- HCC -->
    <g transform="translate(503.495 95.192813)scale(0.1 -0.1)">
     <defs>
      <path d="M 628 4666 
L 1259 4666 
L 1259 2753 
L 3553 2753 
L 3553 4666 
L 4184 4666 
L 4184 0 
L 3553 0 
L 3553 2222 
L 1259 2222 
L 1259 0 
L 628 0 
L 628 4666 
z
" id="DejaVuSans-48" transform="scale(0.015625)"/>
      <path d="M 4122 4306 
L 4122 3641 
Q 3803 3938 3442 4084 
Q 3081 4231 2675 4231 
Q 1875 4231 1450 3742 
Q 1025 3253 1025 2328 
Q 1025 1406 1450 917 
Q 1875 428 2675 428 
Q 3081 428 3442 575 
Q 3803 722 4122 1019 
L 4122 359 
Q 3791 134 3420 21 
Q 3050 -91 2638 -91 
Q 1578 -91 968 557 
Q 359 1206 359 2328 
Q 359 3453 968 4101 
Q 1578 4750 2638 4750 
Q 3056 4750 3426 4639 
Q 3797 4528 4122 4306 
z
" id="DejaVuSans-43" transform="scale(0.015625)"/>
     </defs>
     <use xlink:href="#DejaVuSans-48"/>
     <use x="75.195312" xlink:href="#DejaVuSans-43"/>
     <use x="145.019531" xlink:href="#DejaVuSans-43"/>
    </g>
   </g>
   <g id="patch_164">
    <path d="M 475.495 109.870938 
L 495.495 109.870938 
L 495.495 102.870938 
L 475.495 102.870938 
z
" style="fill:#ffbb78;stroke:#ffbb78;stroke-linejoin:miter;"/>
   </g>
   <g id="text_26">
    <!-- Renal cancer -->
    <g transform="translate(503.495 109.870938)scale(0.1 -0.1)">
     <defs>
      <path d="M 2841 2188 
Q 3044 2119 3236 1894 
Q 3428 1669 3622 1275 
L 4263 0 
L 3584 0 
L 2988 1197 
Q 2756 1666 2539 1819 
Q 2322 1972 1947 1972 
L 1259 1972 
L 1259 0 
L 628 0 
L 628 4666 
L 2053 4666 
Q 2853 4666 3247 4331 
Q 3641 3997 3641 3322 
Q 3641 2881 3436 2590 
Q 3231 2300 2841 2188 
z
M 1259 4147 
L 1259 2491 
L 2053 2491 
Q 2509 2491 2742 2702 
Q 2975 2913 2975 3322 
Q 2975 3731 2742 3939 
Q 2509 4147 2053 4147 
L 1259 4147 
z
" id="DejaVuSans-52" transform="scale(0.015625)"/>
     </defs>
     <use xlink:href="#DejaVuSans-52"/>
     <use x="64.982422" xlink:href="#DejaVuSans-65"/>
     <use x="126.505859" xlink:href="#DejaVuSans-6e"/>
     <use x="189.884766" xlink:href="#DejaVuSans-61"/>
     <use x="251.164062" xlink:href="#DejaVuSans-6c"/>
     <use x="278.947266" xlink:href="#DejaVuSans-20"/>
     <use x="310.734375" xlink:href="#DejaVuSans-63"/>
     <use x="365.714844" xlink:href="#DejaVuSans-61"/>
     <use x="426.994141" xlink:href="#DejaVuSans-6e"/>
     <use x="490.373047" xlink:href="#DejaVuSans-63"/>
     <use x="545.353516" xlink:href="#DejaVuSans-65"/>
     <use x="606.876953" xlink:href="#DejaVuSans-72"/>
    </g>
   </g>
   <g id="patch_165">
    <path d="M 475.495 124.549062 
L 495.495 124.549062 
L 495.495 117.549062 
L 475.495 117.549062 
z
" style="fill:#2ca02c;stroke:#2ca02c;stroke-linejoin:miter;"/>
   </g>
   <g id="text_27">
    <!-- Brain cancer -->
    <g transform="translate(503.495 124.549062)scale(0.1 -0.1)">
     <defs>
      <path d="M 1259 2228 
L 1259 519 
L 2272 519 
Q 2781 519 3026 730 
Q 3272 941 3272 1375 
Q 3272 1813 3026 2020 
Q 2781 2228 2272 2228 
L 1259 2228 
z
M 1259 4147 
L 1259 2741 
L 2194 2741 
Q 2656 2741 2882 2914 
Q 3109 3088 3109 3444 
Q 3109 3797 2882 3972 
Q 2656 4147 2194 4147 
L 1259 4147 
z
M 628 4666 
L 2241 4666 
Q 2963 4666 3353 4366 
Q 3744 4066 3744 3513 
Q 3744 3084 3544 2831 
Q 3344 2578 2956 2516 
Q 3422 2416 3680 2098 
Q 3938 1781 3938 1306 
Q 3938 681 3513 340 
Q 3088 0 2303 0 
L 628 0 
L 628 4666 
z
" id="DejaVuSans-42" transform="scale(0.015625)"/>
     </defs>
     <use xlink:href="#DejaVuSans-42"/>
     <use x="68.603516" xlink:href="#DejaVuSans-72"/>
     <use x="109.716797" xlink:href="#DejaVuSans-61"/>
     <use x="170.996094" xlink:href="#DejaVuSans-69"/>
     <use x="198.779297" xlink:href="#DejaVuSans-6e"/>
     <use x="262.158203" xlink:href="#DejaVuSans-20"/>
     <use x="293.945312" xlink:href="#DejaVuSans-63"/>
     <use x="348.925781" xlink:href="#DejaVuSans-61"/>
     <use x="410.205078" xlink:href="#DejaVuSans-6e"/>
     <use x="473.583984" xlink:href="#DejaVuSans-63"/>
     <use x="528.564453" xlink:href="#DejaVuSans-65"/>
     <use x="590.087891" xlink:href="#DejaVuSans-72"/>
    </g>
   </g>
   <g id="patch_166">
    <path d="M 475.495 139.227188 
L 495.495 139.227188 
L 495.495 132.227188 
L 475.495 132.227188 
z
" style="fill:#98df8a;stroke:#98df8a;stroke-linejoin:miter;"/>
   </g>
   <g id="text_28">
    <!-- Myelodysplastic syndrome -->
    <g transform="translate(503.495 139.227188)scale(0.1 -0.1)">
     <defs>
      <path d="M 2906 2969 
L 2906 4863 
L 3481 4863 
L 3481 0 
L 2906 0 
L 2906 525 
Q 2725 213 2448 61 
Q 2172 -91 1784 -91 
Q 1150 -91 751 415 
Q 353 922 353 1747 
Q 353 2572 751 3078 
Q 1150 3584 1784 3584 
Q 2172 3584 2448 3432 
Q 2725 3281 2906 2969 
z
M 947 1747 
Q 947 1113 1208 752 
Q 1469 391 1925 391 
Q 2381 391 2643 752 
Q 2906 1113 2906 1747 
Q 2906 2381 2643 2742 
Q 2381 3103 1925 3103 
Q 1469 3103 1208 2742 
Q 947 2381 947 1747 
z
" id="DejaVuSans-64" transform="scale(0.015625)"/>
     </defs>
     <use xlink:href="#DejaVuSans-4d"/>
     <use x="86.279297" xlink:href="#DejaVuSans-79"/>
     <use x="145.458984" xlink:href="#DejaVuSans-65"/>
     <use x="206.982422" xlink:href="#DejaVuSans-6c"/>
     <use x="234.765625" xlink:href="#DejaVuSans-6f"/>
     <use x="295.947266" xlink:href="#DejaVuSans-64"/>
     <use x="359.423828" xlink:href="#DejaVuSans-79"/>
     <use x="418.603516" xlink:href="#DejaVuSans-73"/>
     <use x="470.703125" xlink:href="#DejaVuSans-70"/>
     <use x="534.179688" xlink:href="#DejaVuSans-6c"/>
     <use x="561.962891" xlink:href="#DejaVuSans-61"/>
     <use x="623.242188" xlink:href="#DejaVuSans-73"/>
     <use x="675.341797" xlink:href="#DejaVuSans-74"/>
     <use x="714.550781" xlink:href="#DejaVuSans-69"/>
     <use x="742.333984" xlink:href="#DejaVuSans-63"/>
     <use x="797.314453" xlink:href="#DejaVuSans-20"/>
     <use x="829.101562" xlink:href="#DejaVuSans-73"/>
     <use x="881.201172" xlink:href="#DejaVuSans-79"/>
     <use x="940.380859" xlink:href="#DejaVuSans-6e"/>
     <use x="1003.759766" xlink:href="#DejaVuSans-64"/>
     <use x="1067.236328" xlink:href="#DejaVuSans-72"/>
     <use x="1106.099609" xlink:href="#DejaVuSans-6f"/>
     <use x="1167.28125" xlink:href="#DejaVuSans-6d"/>
     <use x="1264.693359" xlink:href="#DejaVuSans-65"/>
    </g>
   </g>
   <g id="patch_167">
    <path d="M 475.495 153.905312 
L 495.495 153.905312 
L 495.495 146.905312 
L 475.495 146.905312 
z
" style="fill:#d62728;stroke:#d62728;stroke-linejoin:miter;"/>
   </g>
   <g id="text_29">
    <!-- Gastric cancer -->
    <g transform="translate(503.495 153.905312)scale(0.1 -0.1)">
     <defs>
      <path d="M 3809 666 
L 3809 1919 
L 2778 1919 
L 2778 2438 
L 4434 2438 
L 4434 434 
Q 4069 175 3628 42 
Q 3188 -91 2688 -91 
Q 1594 -91 976 548 
Q 359 1188 359 2328 
Q 359 3472 976 4111 
Q 1594 4750 2688 4750 
Q 3144 4750 3555 4637 
Q 3966 4525 4313 4306 
L 4313 3634 
Q 3963 3931 3569 4081 
Q 3175 4231 2741 4231 
Q 1884 4231 1454 3753 
Q 1025 3275 1025 2328 
Q 1025 1384 1454 906 
Q 1884 428 2741 428 
Q 3075 428 3337 486 
Q 3600 544 3809 666 
z
" id="DejaVuSans-47" transform="scale(0.015625)"/>
     </defs>
     <use xlink:href="#DejaVuSans-47"/>
     <use x="77.490234" xlink:href="#DejaVuSans-61"/>
     <use x="138.769531" xlink:href="#DejaVuSans-73"/>
     <use x="190.869141" xlink:href="#DejaVuSans-74"/>
     <use x="230.078125" xlink:href="#DejaVuSans-72"/>
     <use x="271.191406" xlink:href="#DejaVuSans-69"/>
     <use x="298.974609" xlink:href="#DejaVuSans-63"/>
     <use x="353.955078" xlink:href="#DejaVuSans-20"/>
     <use x="385.742188" xlink:href="#DejaVuSans-63"/>
     <use x="440.722656" xlink:href="#DejaVuSans-61"/>
     <use x="502.001953" xlink:href="#DejaVuSans-6e"/>
     <use x="565.380859" xlink:href="#DejaVuSans-63"/>
     <use x="620.361328" xlink:href="#DejaVuSans-65"/>
     <use x="681.884766" xlink:href="#DejaVuSans-72"/>
    </g>
   </g>
   <g id="patch_168">
    <path d="M 475.495 168.583438 
L 495.495 168.583438 
L 495.495 161.583438 
L 475.495 161.583438 
z
" style="fill:#ff9896;stroke:#ff9896;stroke-linejoin:miter;"/>
   </g>
   <g id="text_30">
    <!-- Melanoma -->
    <g transform="translate(503.495 168.583438)scale(0.1 -0.1)">
     <use xlink:href="#DejaVuSans-4d"/>
     <use x="86.279297" xlink:href="#DejaVuSans-65"/>
     <use x="147.802734" xlink:href="#DejaVuSans-6c"/>
     <use x="175.585938" xlink:href="#DejaVuSans-61"/>
     <use x="236.865234" xlink:href="#DejaVuSans-6e"/>
     <use x="300.244141" xlink:href="#DejaVuSans-6f"/>
     <use x="361.425781" xlink:href="#DejaVuSans-6d"/>
     <use x="458.837891" xlink:href="#DejaVuSans-61"/>
    </g>
   </g>
   <g id="patch_169">
    <path d="M 475.495 183.261562 
L 495.495 183.261562 
L 495.495 176.261562 
L 475.495 176.261562 
z
" style="fill:#9467bd;stroke:#9467bd;stroke-linejoin:miter;"/>
   </g>
   <g id="text_31">
    <!-- HNSCC -->
    <g transform="translate(503.495 183.261562)scale(0.1 -0.1)">
     <defs>
      <path d="M 628 4666 
L 1478 4666 
L 3547 763 
L 3547 4666 
L 4159 4666 
L 4159 0 
L 3309 0 
L 1241 3903 
L 1241 0 
L 628 0 
L 628 4666 
z
" id="DejaVuSans-4e" transform="scale(0.015625)"/>
      <path d="M 3425 4513 
L 3425 3897 
Q 3066 4069 2747 4153 
Q 2428 4238 2131 4238 
Q 1616 4238 1336 4038 
Q 1056 3838 1056 3469 
Q 1056 3159 1242 3001 
Q 1428 2844 1947 2747 
L 2328 2669 
Q 3034 2534 3370 2195 
Q 3706 1856 3706 1288 
Q 3706 609 3251 259 
Q 2797 -91 1919 -91 
Q 1588 -91 1214 -16 
Q 841 59 441 206 
L 441 856 
Q 825 641 1194 531 
Q 1563 422 1919 422 
Q 2459 422 2753 634 
Q 3047 847 3047 1241 
Q 3047 1584 2836 1778 
Q 2625 1972 2144 2069 
L 1759 2144 
Q 1053 2284 737 2584 
Q 422 2884 422 3419 
Q 422 4038 858 4394 
Q 1294 4750 2059 4750 
Q 2388 4750 2728 4690 
Q 3069 4631 3425 4513 
z
" id="DejaVuSans-53" transform="scale(0.015625)"/>
     </defs>
     <use xlink:href="#DejaVuSans-48"/>
     <use x="75.195312" xlink:href="#DejaVuSans-4e"/>
     <use x="150" xlink:href="#DejaVuSans-53"/>
     <use x="213.476562" xlink:href="#DejaVuSans-43"/>
     <use x="283.300781" xlink:href="#DejaVuSans-43"/>
    </g>
   </g>
   <g id="patch_170">
    <path d="M 475.495 197.939687 
L 495.495 197.939687 
L 495.495 190.939687 
L 475.495 190.939687 
z
" style="fill:#c5b0d5;stroke:#c5b0d5;stroke-linejoin:miter;"/>
   </g>
   <g id="text_32">
    <!-- Sarcoma -->
    <g transform="translate(503.495 197.939687)scale(0.1 -0.1)">
     <use xlink:href="#DejaVuSans-53"/>
     <use x="63.476562" xlink:href="#DejaVuSans-61"/>
     <use x="124.755859" xlink:href="#DejaVuSans-72"/>
     <use x="163.619141" xlink:href="#DejaVuSans-63"/>
     <use x="218.599609" xlink:href="#DejaVuSans-6f"/>
     <use x="279.78125" xlink:href="#DejaVuSans-6d"/>
     <use x="377.193359" xlink:href="#DejaVuSans-61"/>
    </g>
   </g>
   <g id="patch_171">
    <path d="M 475.495 212.617812 
L 495.495 212.617812 
L 495.495 205.617812 
L 475.495 205.617812 
z
" style="fill:#8c564b;stroke:#8c564b;stroke-linejoin:miter;"/>
   </g>
   <g id="text_33">
    <!-- Prostate cancer -->
    <g transform="translate(503.495 212.617812)scale(0.1 -0.1)">
     <use xlink:href="#DejaVuSans-50"/>
     <use x="58.552734" xlink:href="#DejaVuSans-72"/>
     <use x="97.416016" xlink:href="#DejaVuSans-6f"/>
     <use x="158.597656" xlink:href="#DejaVuSans-73"/>
     <use x="210.697266" xlink:href="#DejaVuSans-74"/>
     <use x="249.90625" xlink:href="#DejaVuSans-61"/>
     <use x="311.185547" xlink:href="#DejaVuSans-74"/>
     <use x="350.394531" xlink:href="#DejaVuSans-65"/>
     <use x="411.917969" xlink:href="#DejaVuSans-20"/>
     <use x="443.705078" xlink:href="#DejaVuSans-63"/>
     <use x="498.685547" xlink:href="#DejaVuSans-61"/>
     <use x="559.964844" xlink:href="#DejaVuSans-6e"/>
     <use x="623.34375" xlink:href="#DejaVuSans-63"/>
     <use x="678.324219" xlink:href="#DejaVuSans-65"/>
     <use x="739.847656" xlink:href="#DejaVuSans-72"/>
    </g>
   </g>
  </g>
 </g>
 <defs>
  <clipPath id="p775170c4ba">
   <rect height="57.850435" width="105.035294" x="57.6" y="41.472"/>
  </clipPath>
  <clipPath id="pbb36b8a6f0">
   <rect height="57.850435" width="105.035294" x="183.642353" y="41.472"/>
  </clipPath>
  <clipPath id="p4738d44c64">
   <rect height="57.850435" width="105.035294" x="309.684706" y="41.472"/>
  </clipPath>
  <clipPath id="p2e8974ad41">
   <rect height="57.850435" width="105.035294" x="57.6" y="110.892522"/>
  </clipPath>
  <clipPath id="p98066d7410">
   <rect height="57.850435" width="105.035294" x="183.642353" y="110.892522"/>
  </clipPath>
  <clipPath id="pdc3c2a835b">
   <rect height="57.850435" width="105.035294" x="309.684706" y="110.892522"/>
  </clipPath>
  <clipPath id="p76dcbb86f5">
   <rect height="57.850435" width="105.035294" x="57.6" y="180.313043"/>
  </clipPath>
  <clipPath id="p398eb5f958">
   <rect height="57.850435" width="105.035294" x="183.642353" y="180.313043"/>
  </clipPath>
  <clipPath id="p71f2934e79">
   <rect height="57.850435" width="105.035294" x="309.684706" y="180.313043"/>
  </clipPath>
  <clipPath id="p09291429bb">
   <rect height="57.850435" width="105.035294" x="57.6" y="249.733565"/>
  </clipPath>
 </defs>
</svg>
