<?xml version="1.0" encoding="utf-8" standalone="no"?>
<!DOCTYPE svg PUBLIC "-//W3C//DTD SVG 1.1//EN"
  "http://www.w3.org/Graphics/SVG/1.1/DTD/svg11.dtd">
<svg height="345.6pt" version="1.1" viewBox="0 0 460.8 345.6" width="460.8pt" xmlns="http://www.w3.org/2000/svg" xmlns:xlink="http://www.w3.org/1999/xlink">
 <metadata>
  <rdf:RDF xmlns:cc="http://creativecommons.org/ns#" xmlns:dc="http://purl.org/dc/elements/1.1/" xmlns:rdf="http://www.w3.org/1999/02/22-rdf-syntax-ns#">
   <cc:Work>
    <dc:type rdf:resource="http://purl.org/dc/dcmitype/StillImage"/>
    <dc:date>2021-12-01T11:31:07.411871</dc:date>
    <dc:format>image/svg+xml</dc:format>
    <dc:creator>
     <cc:Agent>
      <dc:title>Matplotlib v3.4.3, https://matplotlib.org/</dc:title>
     </cc:Agent>
    </dc:creator>
   </cc:Work>
  </rdf:RDF>
 </metadata>
 <defs>
  <style type="text/css">*{stroke-linecap:butt;stroke-linejoin:round;}</style>
 </defs>
 <g id="figure_1">
  <g id="patch_1">
   <path d="M 0 345.6 
L 460.8 345.6 
L 460.8 0 
L 0 0 
z
" style="fill:#ffffff;"/>
  </g>
  <g id="axes_1">
   <g id="patch_2">
    <path d="M 47.81 303.64 
L 442.035 303.64 
L 442.035 37.968 
L 47.81 37.968 
z
" style="fill:#ffffff;"/>
   </g>
   <g id="PolyCollection_1">
    <path clip-path="url(#p229278df81)" d="M -54.99823 302.708104 
L -54.99823 303.64 
L -51.746227 303.64 
L -48.494225 303.64 
L -45.242223 303.64 
L -41.99022 303.64 
L -38.738218 303.64 
L -35.486216 303.64 
L -32.234214 303.64 
L -28.982211 303.64 
L -25.730209 303.64 
L -22.478207 303.64 
L -19.226204 303.64 
L -15.974202 303.64 
L -12.7222 303.64 
L -9.470197 303.64 
L -6.218195 303.64 
L -2.966193 303.64 
L 0.28581 303.64 
L 3.537812 303.64 
L 6.789814 303.64 
L 10.041816 303.64 
L 13.293819 303.64 
L 16.545821 303.64 
L 19.797823 303.64 
L 23.049826 303.64 
L 26.301828 303.64 
L 29.55383 303.64 
L 32.805833 303.64 
L 36.057835 303.64 
L 39.309837 303.64 
L 42.56184 303.64 
L 45.813842 303.64 
L 49.065844 303.64 
L 52.317846 303.64 
L 55.569849 303.64 
L 58.821851 303.64 
L 62.073853 303.64 
L 65.325856 303.64 
L 68.577858 303.64 
L 71.82986 303.64 
L 75.081863 303.64 
L 78.333865 303.64 
L 81.585867 303.64 
L 84.83787 303.64 
L 88.089872 303.64 
L 91.341874 303.64 
L 94.593877 303.64 
L 97.845879 303.64 
L 101.097881 303.64 
L 104.349883 303.64 
L 107.601886 303.64 
L 110.853888 303.64 
L 114.10589 303.64 
L 117.357893 303.64 
L 120.609895 303.64 
L 123.861897 303.64 
L 127.1139 303.64 
L 130.365902 303.64 
L 133.617904 303.64 
L 136.869907 303.64 
L 140.121909 303.64 
L 143.373911 303.64 
L 146.625913 303.64 
L 149.877916 303.64 
L 153.129918 303.64 
L 156.38192 303.64 
L 159.633923 303.64 
L 162.885925 303.64 
L 166.137927 303.64 
L 169.38993 303.64 
L 172.641932 303.64 
L 175.893934 303.64 
L 179.145937 303.64 
L 182.397939 303.64 
L 185.649941 303.64 
L 188.901943 303.64 
L 192.153946 303.64 
L 195.405948 303.64 
L 198.65795 303.64 
L 201.909953 303.64 
L 205.161955 303.64 
L 208.413957 303.64 
L 211.66596 303.64 
L 214.917962 303.64 
L 218.169964 303.64 
L 221.421967 303.64 
L 224.673969 303.64 
L 227.925971 303.64 
L 231.177973 303.64 
L 234.429976 303.64 
L 237.681978 303.64 
L 240.93398 303.64 
L 244.185983 303.64 
L 247.437985 303.64 
L 250.689987 303.64 
L 253.94199 303.64 
L 257.193992 303.64 
L 260.445994 303.64 
L 263.697997 303.64 
L 266.949999 303.64 
L 270.202001 303.64 
L 273.454003 303.64 
L 276.706006 303.64 
L 279.958008 303.64 
L 283.21001 303.64 
L 286.462013 303.64 
L 289.714015 303.64 
L 292.966017 303.64 
L 296.21802 303.64 
L 299.470022 303.64 
L 302.722024 303.64 
L 305.974027 303.64 
L 309.226029 303.64 
L 312.478031 303.64 
L 315.730033 303.64 
L 318.982036 303.64 
L 322.234038 303.64 
L 325.48604 303.64 
L 328.738043 303.64 
L 331.990045 303.64 
L 335.242047 303.64 
L 338.49405 303.64 
L 341.746052 303.64 
L 344.998054 303.64 
L 348.250057 303.64 
L 351.502059 303.64 
L 354.754061 303.64 
L 358.006063 303.64 
L 361.258066 303.64 
L 364.510068 303.64 
L 367.76207 303.64 
L 371.014073 303.64 
L 374.266075 303.64 
L 377.518077 303.64 
L 380.77008 303.64 
L 384.022082 303.64 
L 387.274084 303.64 
L 390.526087 303.64 
L 393.778089 303.64 
L 397.030091 303.64 
L 400.282093 303.64 
L 403.534096 303.64 
L 406.786098 303.64 
L 410.0381 303.64 
L 413.290103 303.64 
L 416.542105 303.64 
L 419.794107 303.64 
L 423.04611 303.64 
L 426.298112 303.64 
L 429.550114 303.64 
L 432.802117 303.64 
L 436.054119 303.64 
L 439.306121 303.64 
L 442.558123 303.64 
L 445.810126 303.64 
L 449.062128 303.64 
L 452.31413 303.64 
L 455.566133 303.64 
L 458.818135 303.64 
L 462.070137 303.64 
L 465.32214 303.64 
L 468.574142 303.64 
L 471.826144 303.64 
L 475.078147 303.64 
L 478.330149 303.64 
L 481.582151 303.64 
L 484.834154 303.64 
L 488.086156 303.64 
L 491.338158 303.64 
L 494.59016 303.64 
L 497.842163 303.64 
L 501.094165 303.64 
L 504.346167 303.64 
L 507.59817 303.64 
L 510.850172 303.64 
L 514.102174 303.64 
L 517.354177 303.64 
L 520.606179 303.64 
L 523.858181 303.64 
L 527.110184 303.64 
L 530.362186 303.64 
L 533.614188 303.64 
L 536.86619 303.64 
L 540.118193 303.64 
L 543.370195 303.64 
L 546.622197 303.64 
L 549.8742 303.64 
L 553.126202 303.64 
L 556.378204 303.64 
L 559.630207 303.64 
L 562.882209 303.64 
L 566.134211 303.64 
L 569.386214 303.64 
L 572.638216 303.64 
L 575.890218 303.64 
L 579.14222 303.64 
L 582.394223 303.64 
L 585.646225 303.64 
L 588.898227 303.64 
L 592.15023 303.64 
L 592.15023 302.459137 
L 592.15023 302.459137 
L 588.898227 302.199021 
L 585.646225 301.88864 
L 582.394223 301.519898 
L 579.14222 301.083739 
L 575.890218 300.570099 
L 572.638216 299.967867 
L 569.386214 299.264865 
L 566.134211 298.447845 
L 562.882209 297.502502 
L 559.630207 296.413513 
L 556.378204 295.164606 
L 553.126202 293.738653 
L 549.8742 292.117801 
L 546.622197 290.28363 
L 543.370195 288.217354 
L 540.118193 285.900056 
L 536.86619 283.312953 
L 533.614188 280.437703 
L 530.362186 277.256739 
L 527.110184 273.753633 
L 523.858181 269.913483 
L 520.606179 265.723316 
L 517.354177 261.172501 
L 514.102174 256.253163 
L 510.850172 250.960588 
L 507.59817 245.293614 
L 504.346167 239.254985 
L 501.094165 232.851675 
L 497.842163 226.095151 
L 494.59016 219.001587 
L 491.338158 211.591996 
L 488.086156 203.892292 
L 484.834154 195.93326 
L 481.582151 187.75044 
L 478.330149 179.383908 
L 475.078147 170.877972 
L 471.826144 162.280759 
L 468.574142 153.643725 
L 465.32214 145.021065 
L 462.070137 136.469059 
L 458.818135 128.04534 
L 455.566133 119.808115 
L 452.31413 111.815339 
L 449.062128 104.123877 
L 445.810126 96.788646 
L 442.558123 89.861774 
L 439.306121 83.391789 
L 436.054119 77.422847 
L 432.802117 71.994031 
L 429.550114 67.13872 
L 426.298112 62.884054 
L 423.04611 59.250501 
L 419.794107 56.251543 
L 416.542105 53.89347 
L 413.290103 52.175317 
L 410.0381 51.088909 
L 406.786098 50.619048 
L 403.534096 50.74381 
L 400.282093 51.434966 
L 397.030091 52.658501 
L 393.778089 54.375235 
L 390.526087 56.54152 
L 387.274084 59.110009 
L 384.022082 62.030471 
L 380.77008 65.250641 
L 377.518077 68.717087 
L 374.266075 72.376077 
L 371.014073 76.174428 
L 367.76207 80.060317 
L 364.510068 83.984049 
L 361.258066 87.89876 
L 358.006063 91.761044 
L 354.754061 95.531498 
L 351.502059 99.175176 
L 348.250057 102.661941 
L 344.998054 105.96672 
L 341.746052 109.069653 
L 338.49405 111.95614 
L 335.242047 114.616797 
L 331.990045 117.047301 
L 328.738043 119.248164 
L 325.48604 121.224415 
L 322.234038 122.985215 
L 318.982036 124.54341 
L 315.730033 125.915029 
L 312.478031 127.11875 
L 309.226029 128.175327 
L 305.974027 129.107005 
L 302.722024 129.936929 
L 299.470022 130.688556 
L 296.21802 131.385083 
L 292.966017 132.048893 
L 289.714015 132.701046 
L 286.462013 133.3608 
L 283.21001 134.045186 
L 279.958008 134.768638 
L 276.706006 135.542682 
L 273.454003 136.375685 
L 270.202001 137.272679 
L 266.949999 138.235248 
L 263.697997 139.261485 
L 260.445994 140.346024 
L 257.193992 141.480136 
L 253.94199 142.651891 
L 250.689987 143.846391 
L 247.437985 145.046052 
L 244.185983 146.230952 
L 240.93398 147.379217 
L 237.681978 148.467459 
L 234.429976 149.471248 
L 231.177973 150.365605 
L 227.925971 151.125531 
L 224.673969 151.726532 
L 221.421967 152.145156 
L 218.169964 152.359532 
L 214.917962 152.349881 
L 211.66596 152.099017 
L 208.413957 151.592813 
L 205.161955 150.820634 
L 201.909953 149.775715 
L 198.65795 148.45549 
L 195.405948 146.861868 
L 192.153946 145.00143 
L 188.901943 142.885559 
L 185.649941 140.530498 
L 182.397939 137.957321 
L 179.145937 135.191823 
L 175.893934 132.264327 
L 172.641932 129.209405 
L 169.38993 126.065515 
L 166.137927 122.874561 
L 162.885925 119.681377 
L 159.633923 116.533136 
L 156.38192 113.478703 
L 153.129918 110.567939 
L 149.877916 107.850953 
L 146.625913 105.377339 
L 143.373911 103.19539 
L 140.121909 101.351313 
L 136.869907 99.888465 
L 133.617904 98.846614 
L 130.365902 98.261252 
L 127.1139 98.162966 
L 123.861897 98.576892 
L 120.609895 99.522253 
L 117.357893 101.011996 
L 114.10589 103.052549 
L 110.853888 105.643682 
L 107.601886 108.778496 
L 104.349883 112.443531 
L 101.097881 116.618993 
L 97.845879 121.279096 
L 94.593877 126.39251 
L 91.341874 131.922906 
L 88.089872 137.829581 
L 84.83787 144.06816 
L 81.585867 150.591339 
L 78.333865 157.349672 
L 75.081863 164.292373 
L 71.82986 171.368111 
L 68.577858 178.525801 
L 65.325856 185.715343 
L 62.073853 192.888325 
L 58.821851 199.998658 
L 55.569849 207.003138 
L 52.317846 213.861924 
L 49.065844 220.538934 
L 45.813842 227.002142 
L 42.56184 233.223786 
L 39.309837 239.180486 
L 36.057835 244.853271 
L 32.805833 250.227523 
L 29.55383 255.292855 
L 26.301828 260.042911 
L 23.049826 264.475118 
L 19.797823 268.59039 
L 16.545821 272.392792 
L 13.293819 275.889185 
L 10.041816 279.088851 
L 6.789814 282.003118 
L 3.537812 284.644981 
L 0.28581 287.02874 
L -2.966193 289.169652 
L -6.218195 291.08361 
L -9.470197 292.786843 
L -12.7222 294.295652 
L -15.974202 295.626174 
L -19.226204 296.794186 
L -22.478207 297.814929 
L -25.730209 298.702981 
L -28.982211 299.472144 
L -32.234214 300.135374 
L -35.486216 300.704726 
L -38.738218 301.191328 
L -41.99022 301.605373 
L -45.242223 301.956131 
L -48.494225 302.251972 
L -51.746227 302.5004 
L -54.99823 302.708104 
z
" style="fill:#1f77b4;fill-opacity:0.4;stroke:#1f77b4;"/>
   </g>
   <g id="matplotlib.axis_1">
    <g id="xtick_1">
     <g id="line2d_1">
      <defs>
       <path d="M 0 0 
L 0 3.5 
" id="m939cde7fcb" style="stroke:#000000;stroke-width:0.8;"/>
      </defs>
      <g>
       <use style="stroke:#000000;stroke-width:0.8;" x="47.81" xlink:href="#m939cde7fcb" y="303.64"/>
      </g>
     </g>
     <g id="text_1">
      <!-- 0.0 -->
      <g transform="translate(39.858438 318.238437)scale(0.1 -0.1)">
       <defs>
        <path d="M 2034 4250 
Q 1547 4250 1301 3770 
Q 1056 3291 1056 2328 
Q 1056 1369 1301 889 
Q 1547 409 2034 409 
Q 2525 409 2770 889 
Q 3016 1369 3016 2328 
Q 3016 3291 2770 3770 
Q 2525 4250 2034 4250 
z
M 2034 4750 
Q 2819 4750 3233 4129 
Q 3647 3509 3647 2328 
Q 3647 1150 3233 529 
Q 2819 -91 2034 -91 
Q 1250 -91 836 529 
Q 422 1150 422 2328 
Q 422 3509 836 4129 
Q 1250 4750 2034 4750 
z
" id="DejaVuSans-30" transform="scale(0.015625)"/>
        <path d="M 684 794 
L 1344 794 
L 1344 0 
L 684 0 
L 684 794 
z
" id="DejaVuSans-2e" transform="scale(0.015625)"/>
       </defs>
       <use xlink:href="#DejaVuSans-30"/>
       <use x="63.623047" xlink:href="#DejaVuSans-2e"/>
       <use x="95.410156" xlink:href="#DejaVuSans-30"/>
      </g>
     </g>
    </g>
    <g id="xtick_2">
     <g id="line2d_2">
      <g>
       <use style="stroke:#000000;stroke-width:0.8;" x="126.655" xlink:href="#m939cde7fcb" y="303.64"/>
      </g>
     </g>
     <g id="text_2">
      <!-- 0.2 -->
      <g transform="translate(118.703438 318.238437)scale(0.1 -0.1)">
       <defs>
        <path d="M 1228 531 
L 3431 531 
L 3431 0 
L 469 0 
L 469 531 
Q 828 903 1448 1529 
Q 2069 2156 2228 2338 
Q 2531 2678 2651 2914 
Q 2772 3150 2772 3378 
Q 2772 3750 2511 3984 
Q 2250 4219 1831 4219 
Q 1534 4219 1204 4116 
Q 875 4013 500 3803 
L 500 4441 
Q 881 4594 1212 4672 
Q 1544 4750 1819 4750 
Q 2544 4750 2975 4387 
Q 3406 4025 3406 3419 
Q 3406 3131 3298 2873 
Q 3191 2616 2906 2266 
Q 2828 2175 2409 1742 
Q 1991 1309 1228 531 
z
" id="DejaVuSans-32" transform="scale(0.015625)"/>
       </defs>
       <use xlink:href="#DejaVuSans-30"/>
       <use x="63.623047" xlink:href="#DejaVuSans-2e"/>
       <use x="95.410156" xlink:href="#DejaVuSans-32"/>
      </g>
     </g>
    </g>
    <g id="xtick_3">
     <g id="line2d_3">
      <g>
       <use style="stroke:#000000;stroke-width:0.8;" x="205.5" xlink:href="#m939cde7fcb" y="303.64"/>
      </g>
     </g>
     <g id="text_3">
      <!-- 0.4 -->
      <g transform="translate(197.548438 318.238437)scale(0.1 -0.1)">
       <defs>
        <path d="M 2419 4116 
L 825 1625 
L 2419 1625 
L 2419 4116 
z
M 2253 4666 
L 3047 4666 
L 3047 1625 
L 3713 1625 
L 3713 1100 
L 3047 1100 
L 3047 0 
L 2419 0 
L 2419 1100 
L 313 1100 
L 313 1709 
L 2253 4666 
z
" id="DejaVuSans-34" transform="scale(0.015625)"/>
       </defs>
       <use xlink:href="#DejaVuSans-30"/>
       <use x="63.623047" xlink:href="#DejaVuSans-2e"/>
       <use x="95.410156" xlink:href="#DejaVuSans-34"/>
      </g>
     </g>
    </g>
    <g id="xtick_4">
     <g id="line2d_4">
      <g>
       <use style="stroke:#000000;stroke-width:0.8;" x="284.345" xlink:href="#m939cde7fcb" y="303.64"/>
      </g>
     </g>
     <g id="text_4">
      <!-- 0.6 -->
      <g transform="translate(276.393438 318.238437)scale(0.1 -0.1)">
       <defs>
        <path d="M 2113 2584 
Q 1688 2584 1439 2293 
Q 1191 2003 1191 1497 
Q 1191 994 1439 701 
Q 1688 409 2113 409 
Q 2538 409 2786 701 
Q 3034 994 3034 1497 
Q 3034 2003 2786 2293 
Q 2538 2584 2113 2584 
z
M 3366 4563 
L 3366 3988 
Q 3128 4100 2886 4159 
Q 2644 4219 2406 4219 
Q 1781 4219 1451 3797 
Q 1122 3375 1075 2522 
Q 1259 2794 1537 2939 
Q 1816 3084 2150 3084 
Q 2853 3084 3261 2657 
Q 3669 2231 3669 1497 
Q 3669 778 3244 343 
Q 2819 -91 2113 -91 
Q 1303 -91 875 529 
Q 447 1150 447 2328 
Q 447 3434 972 4092 
Q 1497 4750 2381 4750 
Q 2619 4750 2861 4703 
Q 3103 4656 3366 4563 
z
" id="DejaVuSans-36" transform="scale(0.015625)"/>
       </defs>
       <use xlink:href="#DejaVuSans-30"/>
       <use x="63.623047" xlink:href="#DejaVuSans-2e"/>
       <use x="95.410156" xlink:href="#DejaVuSans-36"/>
      </g>
     </g>
    </g>
    <g id="xtick_5">
     <g id="line2d_5">
      <g>
       <use style="stroke:#000000;stroke-width:0.8;" x="363.19" xlink:href="#m939cde7fcb" y="303.64"/>
      </g>
     </g>
     <g id="text_5">
      <!-- 0.8 -->
      <g transform="translate(355.238437 318.238437)scale(0.1 -0.1)">
       <defs>
        <path d="M 2034 2216 
Q 1584 2216 1326 1975 
Q 1069 1734 1069 1313 
Q 1069 891 1326 650 
Q 1584 409 2034 409 
Q 2484 409 2743 651 
Q 3003 894 3003 1313 
Q 3003 1734 2745 1975 
Q 2488 2216 2034 2216 
z
M 1403 2484 
Q 997 2584 770 2862 
Q 544 3141 544 3541 
Q 544 4100 942 4425 
Q 1341 4750 2034 4750 
Q 2731 4750 3128 4425 
Q 3525 4100 3525 3541 
Q 3525 3141 3298 2862 
Q 3072 2584 2669 2484 
Q 3125 2378 3379 2068 
Q 3634 1759 3634 1313 
Q 3634 634 3220 271 
Q 2806 -91 2034 -91 
Q 1263 -91 848 271 
Q 434 634 434 1313 
Q 434 1759 690 2068 
Q 947 2378 1403 2484 
z
M 1172 3481 
Q 1172 3119 1398 2916 
Q 1625 2713 2034 2713 
Q 2441 2713 2670 2916 
Q 2900 3119 2900 3481 
Q 2900 3844 2670 4047 
Q 2441 4250 2034 4250 
Q 1625 4250 1398 4047 
Q 1172 3844 1172 3481 
z
" id="DejaVuSans-38" transform="scale(0.015625)"/>
       </defs>
       <use xlink:href="#DejaVuSans-30"/>
       <use x="63.623047" xlink:href="#DejaVuSans-2e"/>
       <use x="95.410156" xlink:href="#DejaVuSans-38"/>
      </g>
     </g>
    </g>
    <g id="xtick_6">
     <g id="line2d_6">
      <g>
       <use style="stroke:#000000;stroke-width:0.8;" x="442.035" xlink:href="#m939cde7fcb" y="303.64"/>
      </g>
     </g>
     <g id="text_6">
      <!-- 1.0 -->
      <g transform="translate(434.083437 318.238437)scale(0.1 -0.1)">
       <defs>
        <path d="M 794 531 
L 1825 531 
L 1825 4091 
L 703 3866 
L 703 4441 
L 1819 4666 
L 2450 4666 
L 2450 531 
L 3481 531 
L 3481 0 
L 794 0 
L 794 531 
z
" id="DejaVuSans-31" transform="scale(0.015625)"/>
       </defs>
       <use xlink:href="#DejaVuSans-31"/>
       <use x="63.623047" xlink:href="#DejaVuSans-2e"/>
       <use x="95.410156" xlink:href="#DejaVuSans-30"/>
      </g>
     </g>
    </g>
    <g id="text_7">
     <!-- Credibility index -->
     <g transform="translate(204.317812 331.916562)scale(0.1 -0.1)">
      <defs>
       <path d="M 4122 4306 
L 4122 3641 
Q 3803 3938 3442 4084 
Q 3081 4231 2675 4231 
Q 1875 4231 1450 3742 
Q 1025 3253 1025 2328 
Q 1025 1406 1450 917 
Q 1875 428 2675 428 
Q 3081 428 3442 575 
Q 3803 722 4122 1019 
L 4122 359 
Q 3791 134 3420 21 
Q 3050 -91 2638 -91 
Q 1578 -91 968 557 
Q 359 1206 359 2328 
Q 359 3453 968 4101 
Q 1578 4750 2638 4750 
Q 3056 4750 3426 4639 
Q 3797 4528 4122 4306 
z
" id="DejaVuSans-43" transform="scale(0.015625)"/>
       <path d="M 2631 2963 
Q 2534 3019 2420 3045 
Q 2306 3072 2169 3072 
Q 1681 3072 1420 2755 
Q 1159 2438 1159 1844 
L 1159 0 
L 581 0 
L 581 3500 
L 1159 3500 
L 1159 2956 
Q 1341 3275 1631 3429 
Q 1922 3584 2338 3584 
Q 2397 3584 2469 3576 
Q 2541 3569 2628 3553 
L 2631 2963 
z
" id="DejaVuSans-72" transform="scale(0.015625)"/>
       <path d="M 3597 1894 
L 3597 1613 
L 953 1613 
Q 991 1019 1311 708 
Q 1631 397 2203 397 
Q 2534 397 2845 478 
Q 3156 559 3463 722 
L 3463 178 
Q 3153 47 2828 -22 
Q 2503 -91 2169 -91 
Q 1331 -91 842 396 
Q 353 884 353 1716 
Q 353 2575 817 3079 
Q 1281 3584 2069 3584 
Q 2775 3584 3186 3129 
Q 3597 2675 3597 1894 
z
M 3022 2063 
Q 3016 2534 2758 2815 
Q 2500 3097 2075 3097 
Q 1594 3097 1305 2825 
Q 1016 2553 972 2059 
L 3022 2063 
z
" id="DejaVuSans-65" transform="scale(0.015625)"/>
       <path d="M 2906 2969 
L 2906 4863 
L 3481 4863 
L 3481 0 
L 2906 0 
L 2906 525 
Q 2725 213 2448 61 
Q 2172 -91 1784 -91 
Q 1150 -91 751 415 
Q 353 922 353 1747 
Q 353 2572 751 3078 
Q 1150 3584 1784 3584 
Q 2172 3584 2448 3432 
Q 2725 3281 2906 2969 
z
M 947 1747 
Q 947 1113 1208 752 
Q 1469 391 1925 391 
Q 2381 391 2643 752 
Q 2906 1113 2906 1747 
Q 2906 2381 2643 2742 
Q 2381 3103 1925 3103 
Q 1469 3103 1208 2742 
Q 947 2381 947 1747 
z
" id="DejaVuSans-64" transform="scale(0.015625)"/>
       <path d="M 603 3500 
L 1178 3500 
L 1178 0 
L 603 0 
L 603 3500 
z
M 603 4863 
L 1178 4863 
L 1178 4134 
L 603 4134 
L 603 4863 
z
" id="DejaVuSans-69" transform="scale(0.015625)"/>
       <path d="M 3116 1747 
Q 3116 2381 2855 2742 
Q 2594 3103 2138 3103 
Q 1681 3103 1420 2742 
Q 1159 2381 1159 1747 
Q 1159 1113 1420 752 
Q 1681 391 2138 391 
Q 2594 391 2855 752 
Q 3116 1113 3116 1747 
z
M 1159 2969 
Q 1341 3281 1617 3432 
Q 1894 3584 2278 3584 
Q 2916 3584 3314 3078 
Q 3713 2572 3713 1747 
Q 3713 922 3314 415 
Q 2916 -91 2278 -91 
Q 1894 -91 1617 61 
Q 1341 213 1159 525 
L 1159 0 
L 581 0 
L 581 4863 
L 1159 4863 
L 1159 2969 
z
" id="DejaVuSans-62" transform="scale(0.015625)"/>
       <path d="M 603 4863 
L 1178 4863 
L 1178 0 
L 603 0 
L 603 4863 
z
" id="DejaVuSans-6c" transform="scale(0.015625)"/>
       <path d="M 1172 4494 
L 1172 3500 
L 2356 3500 
L 2356 3053 
L 1172 3053 
L 1172 1153 
Q 1172 725 1289 603 
Q 1406 481 1766 481 
L 2356 481 
L 2356 0 
L 1766 0 
Q 1100 0 847 248 
Q 594 497 594 1153 
L 594 3053 
L 172 3053 
L 172 3500 
L 594 3500 
L 594 4494 
L 1172 4494 
z
" id="DejaVuSans-74" transform="scale(0.015625)"/>
       <path d="M 2059 -325 
Q 1816 -950 1584 -1140 
Q 1353 -1331 966 -1331 
L 506 -1331 
L 506 -850 
L 844 -850 
Q 1081 -850 1212 -737 
Q 1344 -625 1503 -206 
L 1606 56 
L 191 3500 
L 800 3500 
L 1894 763 
L 2988 3500 
L 3597 3500 
L 2059 -325 
z
" id="DejaVuSans-79" transform="scale(0.015625)"/>
       <path id="DejaVuSans-20" transform="scale(0.015625)"/>
       <path d="M 3513 2113 
L 3513 0 
L 2938 0 
L 2938 2094 
Q 2938 2591 2744 2837 
Q 2550 3084 2163 3084 
Q 1697 3084 1428 2787 
Q 1159 2491 1159 1978 
L 1159 0 
L 581 0 
L 581 3500 
L 1159 3500 
L 1159 2956 
Q 1366 3272 1645 3428 
Q 1925 3584 2291 3584 
Q 2894 3584 3203 3211 
Q 3513 2838 3513 2113 
z
" id="DejaVuSans-6e" transform="scale(0.015625)"/>
       <path d="M 3513 3500 
L 2247 1797 
L 3578 0 
L 2900 0 
L 1881 1375 
L 863 0 
L 184 0 
L 1544 1831 
L 300 3500 
L 978 3500 
L 1906 2253 
L 2834 3500 
L 3513 3500 
z
" id="DejaVuSans-78" transform="scale(0.015625)"/>
      </defs>
      <use xlink:href="#DejaVuSans-43"/>
      <use x="69.824219" xlink:href="#DejaVuSans-72"/>
      <use x="108.6875" xlink:href="#DejaVuSans-65"/>
      <use x="170.210938" xlink:href="#DejaVuSans-64"/>
      <use x="233.6875" xlink:href="#DejaVuSans-69"/>
      <use x="261.470703" xlink:href="#DejaVuSans-62"/>
      <use x="324.947266" xlink:href="#DejaVuSans-69"/>
      <use x="352.730469" xlink:href="#DejaVuSans-6c"/>
      <use x="380.513672" xlink:href="#DejaVuSans-69"/>
      <use x="408.296875" xlink:href="#DejaVuSans-74"/>
      <use x="447.505859" xlink:href="#DejaVuSans-79"/>
      <use x="506.685547" xlink:href="#DejaVuSans-20"/>
      <use x="538.472656" xlink:href="#DejaVuSans-69"/>
      <use x="566.255859" xlink:href="#DejaVuSans-6e"/>
      <use x="629.634766" xlink:href="#DejaVuSans-64"/>
      <use x="693.111328" xlink:href="#DejaVuSans-65"/>
      <use x="752.884766" xlink:href="#DejaVuSans-78"/>
     </g>
    </g>
   </g>
   <g id="matplotlib.axis_2">
    <g id="ytick_1">
     <g id="line2d_7">
      <defs>
       <path d="M 0 0 
L -3.5 0 
" id="me7051b5152" style="stroke:#000000;stroke-width:0.8;"/>
      </defs>
      <g>
       <use style="stroke:#000000;stroke-width:0.8;" x="47.81" xlink:href="#me7051b5152" y="303.64"/>
      </g>
     </g>
     <g id="text_8">
      <!-- 0.0 -->
      <g transform="translate(24.906875 307.439219)scale(0.1 -0.1)">
       <use xlink:href="#DejaVuSans-30"/>
       <use x="63.623047" xlink:href="#DejaVuSans-2e"/>
       <use x="95.410156" xlink:href="#DejaVuSans-30"/>
      </g>
     </g>
    </g>
    <g id="ytick_2">
     <g id="line2d_8">
      <g>
       <use style="stroke:#000000;stroke-width:0.8;" x="47.81" xlink:href="#me7051b5152" y="260.298668"/>
      </g>
     </g>
     <g id="text_9">
      <!-- 0.2 -->
      <g transform="translate(24.906875 264.097887)scale(0.1 -0.1)">
       <use xlink:href="#DejaVuSans-30"/>
       <use x="63.623047" xlink:href="#DejaVuSans-2e"/>
       <use x="95.410156" xlink:href="#DejaVuSans-32"/>
      </g>
     </g>
    </g>
    <g id="ytick_3">
     <g id="line2d_9">
      <g>
       <use style="stroke:#000000;stroke-width:0.8;" x="47.81" xlink:href="#me7051b5152" y="216.957336"/>
      </g>
     </g>
     <g id="text_10">
      <!-- 0.4 -->
      <g transform="translate(24.906875 220.756554)scale(0.1 -0.1)">
       <use xlink:href="#DejaVuSans-30"/>
       <use x="63.623047" xlink:href="#DejaVuSans-2e"/>
       <use x="95.410156" xlink:href="#DejaVuSans-34"/>
      </g>
     </g>
    </g>
    <g id="ytick_4">
     <g id="line2d_10">
      <g>
       <use style="stroke:#000000;stroke-width:0.8;" x="47.81" xlink:href="#me7051b5152" y="173.616003"/>
      </g>
     </g>
     <g id="text_11">
      <!-- 0.6 -->
      <g transform="translate(24.906875 177.415222)scale(0.1 -0.1)">
       <use xlink:href="#DejaVuSans-30"/>
       <use x="63.623047" xlink:href="#DejaVuSans-2e"/>
       <use x="95.410156" xlink:href="#DejaVuSans-36"/>
      </g>
     </g>
    </g>
    <g id="ytick_5">
     <g id="line2d_11">
      <g>
       <use style="stroke:#000000;stroke-width:0.8;" x="47.81" xlink:href="#me7051b5152" y="130.274671"/>
      </g>
     </g>
     <g id="text_12">
      <!-- 0.8 -->
      <g transform="translate(24.906875 134.07389)scale(0.1 -0.1)">
       <use xlink:href="#DejaVuSans-30"/>
       <use x="63.623047" xlink:href="#DejaVuSans-2e"/>
       <use x="95.410156" xlink:href="#DejaVuSans-38"/>
      </g>
     </g>
    </g>
    <g id="ytick_6">
     <g id="line2d_12">
      <g>
       <use style="stroke:#000000;stroke-width:0.8;" x="47.81" xlink:href="#me7051b5152" y="86.933339"/>
      </g>
     </g>
     <g id="text_13">
      <!-- 1.0 -->
      <g transform="translate(24.906875 90.732558)scale(0.1 -0.1)">
       <use xlink:href="#DejaVuSans-31"/>
       <use x="63.623047" xlink:href="#DejaVuSans-2e"/>
       <use x="95.410156" xlink:href="#DejaVuSans-30"/>
      </g>
     </g>
    </g>
    <g id="ytick_7">
     <g id="line2d_13">
      <g>
       <use style="stroke:#000000;stroke-width:0.8;" x="47.81" xlink:href="#me7051b5152" y="43.592007"/>
      </g>
     </g>
     <g id="text_14">
      <!-- 1.2 -->
      <g transform="translate(24.906875 47.391225)scale(0.1 -0.1)">
       <use xlink:href="#DejaVuSans-31"/>
       <use x="63.623047" xlink:href="#DejaVuSans-2e"/>
       <use x="95.410156" xlink:href="#DejaVuSans-32"/>
      </g>
     </g>
    </g>
    <g id="text_15">
     <!-- Density -->
     <g transform="translate(18.827187 189.812594)rotate(-90)scale(0.1 -0.1)">
      <defs>
       <path d="M 1259 4147 
L 1259 519 
L 2022 519 
Q 2988 519 3436 956 
Q 3884 1394 3884 2338 
Q 3884 3275 3436 3711 
Q 2988 4147 2022 4147 
L 1259 4147 
z
M 628 4666 
L 1925 4666 
Q 3281 4666 3915 4102 
Q 4550 3538 4550 2338 
Q 4550 1131 3912 565 
Q 3275 0 1925 0 
L 628 0 
L 628 4666 
z
" id="DejaVuSans-44" transform="scale(0.015625)"/>
       <path d="M 2834 3397 
L 2834 2853 
Q 2591 2978 2328 3040 
Q 2066 3103 1784 3103 
Q 1356 3103 1142 2972 
Q 928 2841 928 2578 
Q 928 2378 1081 2264 
Q 1234 2150 1697 2047 
L 1894 2003 
Q 2506 1872 2764 1633 
Q 3022 1394 3022 966 
Q 3022 478 2636 193 
Q 2250 -91 1575 -91 
Q 1294 -91 989 -36 
Q 684 19 347 128 
L 347 722 
Q 666 556 975 473 
Q 1284 391 1588 391 
Q 1994 391 2212 530 
Q 2431 669 2431 922 
Q 2431 1156 2273 1281 
Q 2116 1406 1581 1522 
L 1381 1569 
Q 847 1681 609 1914 
Q 372 2147 372 2553 
Q 372 3047 722 3315 
Q 1072 3584 1716 3584 
Q 2034 3584 2315 3537 
Q 2597 3491 2834 3397 
z
" id="DejaVuSans-73" transform="scale(0.015625)"/>
      </defs>
      <use xlink:href="#DejaVuSans-44"/>
      <use x="77.001953" xlink:href="#DejaVuSans-65"/>
      <use x="138.525391" xlink:href="#DejaVuSans-6e"/>
      <use x="201.904297" xlink:href="#DejaVuSans-73"/>
      <use x="254.003906" xlink:href="#DejaVuSans-69"/>
      <use x="281.787109" xlink:href="#DejaVuSans-74"/>
      <use x="320.996094" xlink:href="#DejaVuSans-79"/>
     </g>
    </g>
   </g>
   <g id="patch_3">
    <path d="M 47.81 303.64 
L 47.81 37.968 
" style="fill:none;stroke:#000000;stroke-linecap:square;stroke-linejoin:miter;stroke-width:0.8;"/>
   </g>
   <g id="patch_4">
    <path d="M 442.035 303.64 
L 442.035 37.968 
" style="fill:none;stroke:#000000;stroke-linecap:square;stroke-linejoin:miter;stroke-width:0.8;"/>
   </g>
   <g id="patch_5">
    <path d="M 47.81 303.64 
L 442.035 303.64 
" style="fill:none;stroke:#000000;stroke-linecap:square;stroke-linejoin:miter;stroke-width:0.8;"/>
   </g>
   <g id="patch_6">
    <path d="M 47.81 37.968 
L 442.035 37.968 
" style="fill:none;stroke:#000000;stroke-linecap:square;stroke-linejoin:miter;stroke-width:0.8;"/>
   </g>
   <g id="text_16">
    <!-- Credibility index consensus vs non consensus  -->
    <g transform="translate(105.81625 18.530625)scale(0.12 -0.12)">
     <defs>
      <path d="M 3122 3366 
L 3122 2828 
Q 2878 2963 2633 3030 
Q 2388 3097 2138 3097 
Q 1578 3097 1268 2742 
Q 959 2388 959 1747 
Q 959 1106 1268 751 
Q 1578 397 2138 397 
Q 2388 397 2633 464 
Q 2878 531 3122 666 
L 3122 134 
Q 2881 22 2623 -34 
Q 2366 -91 2075 -91 
Q 1284 -91 818 406 
Q 353 903 353 1747 
Q 353 2603 823 3093 
Q 1294 3584 2113 3584 
Q 2378 3584 2631 3529 
Q 2884 3475 3122 3366 
z
" id="DejaVuSans-63" transform="scale(0.015625)"/>
      <path d="M 1959 3097 
Q 1497 3097 1228 2736 
Q 959 2375 959 1747 
Q 959 1119 1226 758 
Q 1494 397 1959 397 
Q 2419 397 2687 759 
Q 2956 1122 2956 1747 
Q 2956 2369 2687 2733 
Q 2419 3097 1959 3097 
z
M 1959 3584 
Q 2709 3584 3137 3096 
Q 3566 2609 3566 1747 
Q 3566 888 3137 398 
Q 2709 -91 1959 -91 
Q 1206 -91 779 398 
Q 353 888 353 1747 
Q 353 2609 779 3096 
Q 1206 3584 1959 3584 
z
" id="DejaVuSans-6f" transform="scale(0.015625)"/>
      <path d="M 544 1381 
L 544 3500 
L 1119 3500 
L 1119 1403 
Q 1119 906 1312 657 
Q 1506 409 1894 409 
Q 2359 409 2629 706 
Q 2900 1003 2900 1516 
L 2900 3500 
L 3475 3500 
L 3475 0 
L 2900 0 
L 2900 538 
Q 2691 219 2414 64 
Q 2138 -91 1772 -91 
Q 1169 -91 856 284 
Q 544 659 544 1381 
z
M 1991 3584 
L 1991 3584 
z
" id="DejaVuSans-75" transform="scale(0.015625)"/>
      <path d="M 191 3500 
L 800 3500 
L 1894 563 
L 2988 3500 
L 3597 3500 
L 2284 0 
L 1503 0 
L 191 3500 
z
" id="DejaVuSans-76" transform="scale(0.015625)"/>
     </defs>
     <use xlink:href="#DejaVuSans-43"/>
     <use x="69.824219" xlink:href="#DejaVuSans-72"/>
     <use x="108.6875" xlink:href="#DejaVuSans-65"/>
     <use x="170.210938" xlink:href="#DejaVuSans-64"/>
     <use x="233.6875" xlink:href="#DejaVuSans-69"/>
     <use x="261.470703" xlink:href="#DejaVuSans-62"/>
     <use x="324.947266" xlink:href="#DejaVuSans-69"/>
     <use x="352.730469" xlink:href="#DejaVuSans-6c"/>
     <use x="380.513672" xlink:href="#DejaVuSans-69"/>
     <use x="408.296875" xlink:href="#DejaVuSans-74"/>
     <use x="447.505859" xlink:href="#DejaVuSans-79"/>
     <use x="506.685547" xlink:href="#DejaVuSans-20"/>
     <use x="538.472656" xlink:href="#DejaVuSans-69"/>
     <use x="566.255859" xlink:href="#DejaVuSans-6e"/>
     <use x="629.634766" xlink:href="#DejaVuSans-64"/>
     <use x="693.111328" xlink:href="#DejaVuSans-65"/>
     <use x="752.884766" xlink:href="#DejaVuSans-78"/>
     <use x="812.064453" xlink:href="#DejaVuSans-20"/>
     <use x="843.851562" xlink:href="#DejaVuSans-63"/>
     <use x="898.832031" xlink:href="#DejaVuSans-6f"/>
     <use x="960.013672" xlink:href="#DejaVuSans-6e"/>
     <use x="1023.392578" xlink:href="#DejaVuSans-73"/>
     <use x="1075.492188" xlink:href="#DejaVuSans-65"/>
     <use x="1137.015625" xlink:href="#DejaVuSans-6e"/>
     <use x="1200.394531" xlink:href="#DejaVuSans-73"/>
     <use x="1252.494141" xlink:href="#DejaVuSans-75"/>
     <use x="1315.873047" xlink:href="#DejaVuSans-73"/>
     <use x="1367.972656" xlink:href="#DejaVuSans-20"/>
     <use x="1399.759766" xlink:href="#DejaVuSans-76"/>
     <use x="1458.939453" xlink:href="#DejaVuSans-73"/>
     <use x="1511.039062" xlink:href="#DejaVuSans-20"/>
     <use x="1542.826172" xlink:href="#DejaVuSans-6e"/>
     <use x="1606.205078" xlink:href="#DejaVuSans-6f"/>
     <use x="1667.386719" xlink:href="#DejaVuSans-6e"/>
     <use x="1730.765625" xlink:href="#DejaVuSans-20"/>
     <use x="1762.552734" xlink:href="#DejaVuSans-63"/>
     <use x="1817.533203" xlink:href="#DejaVuSans-6f"/>
     <use x="1878.714844" xlink:href="#DejaVuSans-6e"/>
     <use x="1942.09375" xlink:href="#DejaVuSans-73"/>
     <use x="1994.193359" xlink:href="#DejaVuSans-65"/>
     <use x="2055.716797" xlink:href="#DejaVuSans-6e"/>
     <use x="2119.095703" xlink:href="#DejaVuSans-73"/>
     <use x="2171.195312" xlink:href="#DejaVuSans-75"/>
     <use x="2234.574219" xlink:href="#DejaVuSans-73"/>
     <use x="2286.673828" xlink:href="#DejaVuSans-20"/>
    </g>
    <!-- Set Leukemia -->
    <g transform="translate(204.293125 31.968)scale(0.12 -0.12)">
     <defs>
      <path d="M 3425 4513 
L 3425 3897 
Q 3066 4069 2747 4153 
Q 2428 4238 2131 4238 
Q 1616 4238 1336 4038 
Q 1056 3838 1056 3469 
Q 1056 3159 1242 3001 
Q 1428 2844 1947 2747 
L 2328 2669 
Q 3034 2534 3370 2195 
Q 3706 1856 3706 1288 
Q 3706 609 3251 259 
Q 2797 -91 1919 -91 
Q 1588 -91 1214 -16 
Q 841 59 441 206 
L 441 856 
Q 825 641 1194 531 
Q 1563 422 1919 422 
Q 2459 422 2753 634 
Q 3047 847 3047 1241 
Q 3047 1584 2836 1778 
Q 2625 1972 2144 2069 
L 1759 2144 
Q 1053 2284 737 2584 
Q 422 2884 422 3419 
Q 422 4038 858 4394 
Q 1294 4750 2059 4750 
Q 2388 4750 2728 4690 
Q 3069 4631 3425 4513 
z
" id="DejaVuSans-53" transform="scale(0.015625)"/>
      <path d="M 628 4666 
L 1259 4666 
L 1259 531 
L 3531 531 
L 3531 0 
L 628 0 
L 628 4666 
z
" id="DejaVuSans-4c" transform="scale(0.015625)"/>
      <path d="M 581 4863 
L 1159 4863 
L 1159 1991 
L 2875 3500 
L 3609 3500 
L 1753 1863 
L 3688 0 
L 2938 0 
L 1159 1709 
L 1159 0 
L 581 0 
L 581 4863 
z
" id="DejaVuSans-6b" transform="scale(0.015625)"/>
      <path d="M 3328 2828 
Q 3544 3216 3844 3400 
Q 4144 3584 4550 3584 
Q 5097 3584 5394 3201 
Q 5691 2819 5691 2113 
L 5691 0 
L 5113 0 
L 5113 2094 
Q 5113 2597 4934 2840 
Q 4756 3084 4391 3084 
Q 3944 3084 3684 2787 
Q 3425 2491 3425 1978 
L 3425 0 
L 2847 0 
L 2847 2094 
Q 2847 2600 2669 2842 
Q 2491 3084 2119 3084 
Q 1678 3084 1418 2786 
Q 1159 2488 1159 1978 
L 1159 0 
L 581 0 
L 581 3500 
L 1159 3500 
L 1159 2956 
Q 1356 3278 1631 3431 
Q 1906 3584 2284 3584 
Q 2666 3584 2933 3390 
Q 3200 3197 3328 2828 
z
" id="DejaVuSans-6d" transform="scale(0.015625)"/>
      <path d="M 2194 1759 
Q 1497 1759 1228 1600 
Q 959 1441 959 1056 
Q 959 750 1161 570 
Q 1363 391 1709 391 
Q 2188 391 2477 730 
Q 2766 1069 2766 1631 
L 2766 1759 
L 2194 1759 
z
M 3341 1997 
L 3341 0 
L 2766 0 
L 2766 531 
Q 2569 213 2275 61 
Q 1981 -91 1556 -91 
Q 1019 -91 701 211 
Q 384 513 384 1019 
Q 384 1609 779 1909 
Q 1175 2209 1959 2209 
L 2766 2209 
L 2766 2266 
Q 2766 2663 2505 2880 
Q 2244 3097 1772 3097 
Q 1472 3097 1187 3025 
Q 903 2953 641 2809 
L 641 3341 
Q 956 3463 1253 3523 
Q 1550 3584 1831 3584 
Q 2591 3584 2966 3190 
Q 3341 2797 3341 1997 
z
" id="DejaVuSans-61" transform="scale(0.015625)"/>
     </defs>
     <use xlink:href="#DejaVuSans-53"/>
     <use x="63.476562" xlink:href="#DejaVuSans-65"/>
     <use x="125" xlink:href="#DejaVuSans-74"/>
     <use x="164.208984" xlink:href="#DejaVuSans-20"/>
     <use x="195.996094" xlink:href="#DejaVuSans-4c"/>
     <use x="249.958984" xlink:href="#DejaVuSans-65"/>
     <use x="311.482422" xlink:href="#DejaVuSans-75"/>
     <use x="374.861328" xlink:href="#DejaVuSans-6b"/>
     <use x="429.146484" xlink:href="#DejaVuSans-65"/>
     <use x="490.669922" xlink:href="#DejaVuSans-6d"/>
     <use x="588.082031" xlink:href="#DejaVuSans-69"/>
     <use x="615.865234" xlink:href="#DejaVuSans-61"/>
    </g>
   </g>
   <g id="legend_1">
    <g id="patch_7">
     <path d="M 54.81 71.843937 
L 215.811563 71.843937 
Q 217.811563 71.843937 217.811563 69.843937 
L 217.811563 44.968 
Q 217.811563 42.968 215.811563 42.968 
L 54.81 42.968 
Q 52.81 42.968 52.81 44.968 
L 52.81 69.843937 
Q 52.81 71.843937 54.81 71.843937 
z
" style="fill:#ffffff;opacity:0.8;stroke:#cccccc;stroke-linejoin:miter;"/>
    </g>
    <g id="patch_8">
     <path d="M 56.81 61.205187 
L 76.81 61.205187 
L 76.81 54.205187 
L 56.81 54.205187 
z
" style="fill:#1f77b4;fill-opacity:0.4;stroke:#1f77b4;stroke-linejoin:miter;"/>
    </g>
    <g id="text_17">
     <!-- Correlation higher than 0  -->
     <g transform="translate(84.81 54.566437)scale(0.1 -0.1)">
      <defs>
       <path d="M 3513 2113 
L 3513 0 
L 2938 0 
L 2938 2094 
Q 2938 2591 2744 2837 
Q 2550 3084 2163 3084 
Q 1697 3084 1428 2787 
Q 1159 2491 1159 1978 
L 1159 0 
L 581 0 
L 581 4863 
L 1159 4863 
L 1159 2956 
Q 1366 3272 1645 3428 
Q 1925 3584 2291 3584 
Q 2894 3584 3203 3211 
Q 3513 2838 3513 2113 
z
" id="DejaVuSans-68" transform="scale(0.015625)"/>
       <path d="M 2906 1791 
Q 2906 2416 2648 2759 
Q 2391 3103 1925 3103 
Q 1463 3103 1205 2759 
Q 947 2416 947 1791 
Q 947 1169 1205 825 
Q 1463 481 1925 481 
Q 2391 481 2648 825 
Q 2906 1169 2906 1791 
z
M 3481 434 
Q 3481 -459 3084 -895 
Q 2688 -1331 1869 -1331 
Q 1566 -1331 1297 -1286 
Q 1028 -1241 775 -1147 
L 775 -588 
Q 1028 -725 1275 -790 
Q 1522 -856 1778 -856 
Q 2344 -856 2625 -561 
Q 2906 -266 2906 331 
L 2906 616 
Q 2728 306 2450 153 
Q 2172 0 1784 0 
Q 1141 0 747 490 
Q 353 981 353 1791 
Q 353 2603 747 3093 
Q 1141 3584 1784 3584 
Q 2172 3584 2450 3431 
Q 2728 3278 2906 2969 
L 2906 3500 
L 3481 3500 
L 3481 434 
z
" id="DejaVuSans-67" transform="scale(0.015625)"/>
      </defs>
      <use xlink:href="#DejaVuSans-43"/>
      <use x="69.824219" xlink:href="#DejaVuSans-6f"/>
      <use x="131.005859" xlink:href="#DejaVuSans-72"/>
      <use x="170.369141" xlink:href="#DejaVuSans-72"/>
      <use x="209.232422" xlink:href="#DejaVuSans-65"/>
      <use x="270.755859" xlink:href="#DejaVuSans-6c"/>
      <use x="298.539062" xlink:href="#DejaVuSans-61"/>
      <use x="359.818359" xlink:href="#DejaVuSans-74"/>
      <use x="399.027344" xlink:href="#DejaVuSans-69"/>
      <use x="426.810547" xlink:href="#DejaVuSans-6f"/>
      <use x="487.992188" xlink:href="#DejaVuSans-6e"/>
      <use x="551.371094" xlink:href="#DejaVuSans-20"/>
      <use x="583.158203" xlink:href="#DejaVuSans-68"/>
      <use x="646.537109" xlink:href="#DejaVuSans-69"/>
      <use x="674.320312" xlink:href="#DejaVuSans-67"/>
      <use x="737.796875" xlink:href="#DejaVuSans-68"/>
      <use x="801.175781" xlink:href="#DejaVuSans-65"/>
      <use x="862.699219" xlink:href="#DejaVuSans-72"/>
      <use x="903.8125" xlink:href="#DejaVuSans-20"/>
      <use x="935.599609" xlink:href="#DejaVuSans-74"/>
      <use x="974.808594" xlink:href="#DejaVuSans-68"/>
      <use x="1038.1875" xlink:href="#DejaVuSans-61"/>
      <use x="1099.466797" xlink:href="#DejaVuSans-6e"/>
      <use x="1162.845703" xlink:href="#DejaVuSans-20"/>
      <use x="1194.632812" xlink:href="#DejaVuSans-30"/>
      <use x="1258.255859" xlink:href="#DejaVuSans-20"/>
     </g>
     <!-- n=102 -->
     <g transform="translate(84.81 65.76425)scale(0.1 -0.1)">
      <defs>
       <path d="M 678 2906 
L 4684 2906 
L 4684 2381 
L 678 2381 
L 678 2906 
z
M 678 1631 
L 4684 1631 
L 4684 1100 
L 678 1100 
L 678 1631 
z
" id="DejaVuSans-3d" transform="scale(0.015625)"/>
      </defs>
      <use xlink:href="#DejaVuSans-6e"/>
      <use x="63.378906" xlink:href="#DejaVuSans-3d"/>
      <use x="147.167969" xlink:href="#DejaVuSans-31"/>
      <use x="210.791016" xlink:href="#DejaVuSans-30"/>
      <use x="274.414062" xlink:href="#DejaVuSans-32"/>
     </g>
    </g>
   </g>
  </g>
 </g>
 <defs>
  <clipPath id="p229278df81">
   <rect height="265.672" width="394.225" x="47.81" y="37.968"/>
  </clipPath>
 </defs>
</svg>
