<?xml version="1.0" encoding="utf-8" standalone="no"?>
<!DOCTYPE svg PUBLIC "-//W3C//DTD SVG 1.1//EN"
  "http://www.w3.org/Graphics/SVG/1.1/DTD/svg11.dtd">
<svg height="345.6pt" version="1.1" viewBox="0 0 460.8 345.6" width="460.8pt" xmlns="http://www.w3.org/2000/svg" xmlns:xlink="http://www.w3.org/1999/xlink">
 <metadata>
  <rdf:RDF xmlns:cc="http://creativecommons.org/ns#" xmlns:dc="http://purl.org/dc/elements/1.1/" xmlns:rdf="http://www.w3.org/1999/02/22-rdf-syntax-ns#">
   <cc:Work>
    <dc:type rdf:resource="http://purl.org/dc/dcmitype/StillImage"/>
    <dc:date>2021-12-01T11:31:10.220306</dc:date>
    <dc:format>image/svg+xml</dc:format>
    <dc:creator>
     <cc:Agent>
      <dc:title>Matplotlib v3.4.3, https://matplotlib.org/</dc:title>
     </cc:Agent>
    </dc:creator>
   </cc:Work>
  </rdf:RDF>
 </metadata>
 <defs>
  <style type="text/css">*{stroke-linecap:butt;stroke-linejoin:round;}</style>
 </defs>
 <g id="figure_1">
  <g id="patch_1">
   <path d="M 0 345.6 
L 460.8 345.6 
L 460.8 0 
L 0 0 
z
" style="fill:#ffffff;"/>
  </g>
  <g id="axes_1">
   <g id="patch_2">
    <path d="M 47.81 303.64 
L 442.035 303.64 
L 442.035 37.968 
L 47.81 37.968 
z
" style="fill:#ffffff;"/>
   </g>
   <g id="PolyCollection_1">
    <path clip-path="url(#p86bf9074ca)" d="M 37.946893 303.333615 
L 37.946893 303.64 
L 40.264773 303.64 
L 42.582654 303.64 
L 44.900534 303.64 
L 47.218414 303.64 
L 49.536295 303.64 
L 51.854175 303.64 
L 54.172056 303.64 
L 56.489936 303.64 
L 58.807817 303.64 
L 61.125697 303.64 
L 63.443578 303.64 
L 65.761458 303.64 
L 68.079339 303.64 
L 70.397219 303.64 
L 72.7151 303.64 
L 75.03298 303.64 
L 77.350861 303.64 
L 79.668741 303.64 
L 81.986622 303.64 
L 84.304502 303.64 
L 86.622383 303.64 
L 88.940263 303.64 
L 91.258144 303.64 
L 93.576024 303.64 
L 95.893904 303.64 
L 98.211785 303.64 
L 100.529665 303.64 
L 102.847546 303.64 
L 105.165426 303.64 
L 107.483307 303.64 
L 109.801187 303.64 
L 112.119068 303.64 
L 114.436948 303.64 
L 116.754829 303.64 
L 119.072709 303.64 
L 121.39059 303.64 
L 123.70847 303.64 
L 126.026351 303.64 
L 128.344231 303.64 
L 130.662112 303.64 
L 132.979992 303.64 
L 135.297873 303.64 
L 137.615753 303.64 
L 139.933634 303.64 
L 142.251514 303.64 
L 144.569394 303.64 
L 146.887275 303.64 
L 149.205155 303.64 
L 151.523036 303.64 
L 153.840916 303.64 
L 156.158797 303.64 
L 158.476677 303.64 
L 160.794558 303.64 
L 163.112438 303.64 
L 165.430319 303.64 
L 167.748199 303.64 
L 170.06608 303.64 
L 172.38396 303.64 
L 174.701841 303.64 
L 177.019721 303.64 
L 179.337602 303.64 
L 181.655482 303.64 
L 183.973363 303.64 
L 186.291243 303.64 
L 188.609124 303.64 
L 190.927004 303.64 
L 193.244885 303.64 
L 195.562765 303.64 
L 197.880645 303.64 
L 200.198526 303.64 
L 202.516406 303.64 
L 204.834287 303.64 
L 207.152167 303.64 
L 209.470048 303.64 
L 211.787928 303.64 
L 214.105809 303.64 
L 216.423689 303.64 
L 218.74157 303.64 
L 221.05945 303.64 
L 223.377331 303.64 
L 225.695211 303.64 
L 228.013092 303.64 
L 230.330972 303.64 
L 232.648853 303.64 
L 234.966733 303.64 
L 237.284614 303.64 
L 239.602494 303.64 
L 241.920375 303.64 
L 244.238255 303.64 
L 246.556135 303.64 
L 248.874016 303.64 
L 251.191896 303.64 
L 253.509777 303.64 
L 255.827657 303.64 
L 258.145538 303.64 
L 260.463418 303.64 
L 262.781299 303.64 
L 265.099179 303.64 
L 267.41706 303.64 
L 269.73494 303.64 
L 272.052821 303.64 
L 274.370701 303.64 
L 276.688582 303.64 
L 279.006462 303.64 
L 281.324343 303.64 
L 283.642223 303.64 
L 285.960104 303.64 
L 288.277984 303.64 
L 290.595865 303.64 
L 292.913745 303.64 
L 295.231625 303.64 
L 297.549506 303.64 
L 299.867386 303.64 
L 302.185267 303.64 
L 304.503147 303.64 
L 306.821028 303.64 
L 309.138908 303.64 
L 311.456789 303.64 
L 313.774669 303.64 
L 316.09255 303.64 
L 318.41043 303.64 
L 320.728311 303.64 
L 323.046191 303.64 
L 325.364072 303.64 
L 327.681952 303.64 
L 329.999833 303.64 
L 332.317713 303.64 
L 334.635594 303.64 
L 336.953474 303.64 
L 339.271355 303.64 
L 341.589235 303.64 
L 343.907115 303.64 
L 346.224996 303.64 
L 348.542876 303.64 
L 350.860757 303.64 
L 353.178637 303.64 
L 355.496518 303.64 
L 357.814398 303.64 
L 360.132279 303.64 
L 362.450159 303.64 
L 364.76804 303.64 
L 367.08592 303.64 
L 369.403801 303.64 
L 371.721681 303.64 
L 374.039562 303.64 
L 376.357442 303.64 
L 378.675323 303.64 
L 380.993203 303.64 
L 383.311084 303.64 
L 385.628964 303.64 
L 387.946845 303.64 
L 390.264725 303.64 
L 392.582606 303.64 
L 394.900486 303.64 
L 397.218366 303.64 
L 399.536247 303.64 
L 401.854127 303.64 
L 404.172008 303.64 
L 406.489888 303.64 
L 408.807769 303.64 
L 411.125649 303.64 
L 413.44353 303.64 
L 415.76141 303.64 
L 418.079291 303.64 
L 420.397171 303.64 
L 422.715052 303.64 
L 425.032932 303.64 
L 427.350813 303.64 
L 429.668693 303.64 
L 431.986574 303.64 
L 434.304454 303.64 
L 436.622335 303.64 
L 438.940215 303.64 
L 441.258096 303.64 
L 443.575976 303.64 
L 445.893856 303.64 
L 448.211737 303.64 
L 450.529617 303.64 
L 452.847498 303.64 
L 455.165378 303.64 
L 457.483259 303.64 
L 459.801139 303.64 
L 462.11902 303.64 
L 464.4369 303.64 
L 466.754781 303.64 
L 469.072661 303.64 
L 471.390542 303.64 
L 473.708422 303.64 
L 476.026303 303.64 
L 478.344183 303.64 
L 480.662064 303.64 
L 482.979944 303.64 
L 485.297825 303.64 
L 487.615705 303.64 
L 489.933586 303.64 
L 492.251466 303.64 
L 494.569346 303.64 
L 496.887227 303.64 
L 499.205107 303.64 
L 499.205107 303.112602 
L 499.205107 303.112602 
L 496.887227 302.87805 
L 494.569346 302.554194 
L 492.251466 302.113627 
L 489.933586 301.523093 
L 487.615705 300.743131 
L 485.297825 299.727983 
L 482.979944 298.425886 
L 480.662064 296.779797 
L 478.344183 294.728635 
L 476.026303 292.209055 
L 473.708422 289.157728 
L 471.390542 285.514075 
L 469.072661 281.22332 
L 466.754781 276.239695 
L 464.4369 270.529591 
L 462.11902 264.074412 
L 459.801139 256.872919 
L 457.483259 248.942846 
L 455.165378 240.321617 
L 452.847498 231.066096 
L 450.529617 221.251313 
L 448.211737 210.968269 
L 445.893856 200.320918 
L 443.575976 189.422559 
L 441.258096 178.391861 
L 438.940215 167.348794 
L 436.622335 156.410723 
L 434.304454 145.688892 
L 431.986574 135.28548 
L 429.668693 125.291371 
L 427.350813 115.784678 
L 425.032932 106.830048 
L 422.715052 98.478675 
L 420.397171 90.768936 
L 418.079291 83.727505 
L 415.76141 77.370816 
L 413.44353 71.706706 
L 411.125649 66.736095 
L 408.807769 62.454591 
L 406.489888 58.853899 
L 404.172008 55.922977 
L 401.854127 53.648887 
L 399.536247 52.017335 
L 397.218366 51.012909 
L 394.900486 50.619048 
L 392.582606 50.8178 
L 390.264725 51.589418 
L 387.946845 52.911868 
L 385.628964 54.760302 
L 383.311084 57.106575 
L 380.993203 59.918847 
L 378.675323 63.161328 
L 376.357442 66.794197 
L 374.039562 70.773738 
L 371.721681 75.052702 
L 369.403801 79.580901 
L 367.08592 84.306037 
L 364.76804 89.174735 
L 362.450159 94.133743 
L 360.132279 99.131255 
L 357.814398 104.118279 
L 355.496518 109.049979 
L 353.178637 113.886917 
L 350.860757 118.59609 
L 348.542876 123.151713 
L 346.224996 127.535672 
L 343.907115 131.737612 
L 341.589235 135.754642 
L 339.271355 139.590687 
L 336.953474 143.255498 
L 334.635594 146.763425 
L 332.317713 150.131998 
L 329.999833 153.380449 
L 327.681952 156.52825 
L 325.364072 159.593772 
L 323.046191 162.593149 
L 320.728311 165.539405 
L 318.41043 168.441886 
L 316.09255 171.306017 
L 313.774669 174.133357 
L 311.456789 176.921934 
L 309.138908 179.666809 
L 306.821028 182.360784 
L 304.503147 184.995205 
L 302.185267 187.56078 
L 299.867386 190.048345 
L 297.549506 192.449522 
L 295.231625 194.757254 
L 292.913745 196.966158 
L 290.595865 199.072731 
L 288.277984 201.075401 
L 285.960104 202.974442 
L 283.642223 204.771801 
L 281.324343 206.47086 
L 279.006462 208.076162 
L 276.688582 209.593138 
L 274.370701 211.027846 
L 272.052821 212.386744 
L 269.73494 213.676493 
L 267.41706 214.903799 
L 265.099179 216.075292 
L 262.781299 217.197423 
L 260.463418 218.276403 
L 258.145538 219.318154 
L 255.827657 220.328288 
L 253.509777 221.312105 
L 251.191896 222.274614 
L 248.874016 223.220566 
L 246.556135 224.154499 
L 244.238255 225.080786 
L 241.920375 226.003666 
L 239.602494 226.927254 
L 237.284614 227.855517 
L 234.966733 228.792202 
L 232.648853 229.740714 
L 230.330972 230.703953 
L 228.013092 231.684112 
L 225.695211 232.682444 
L 223.377331 233.699041 
L 221.05945 234.732623 
L 218.74157 235.780373 
L 216.423689 236.837832 
L 214.105809 237.898877 
L 211.787928 238.955776 
L 209.470048 239.999337 
L 207.152167 241.019142 
L 204.834287 242.003847 
L 202.516406 242.941546 
L 200.198526 243.820176 
L 197.880645 244.627941 
L 195.562765 245.353747 
L 193.244885 245.987621 
L 190.927004 246.521089 
L 188.609124 246.947526 
L 186.291243 247.262417 
L 183.973363 247.46356 
L 181.655482 247.551162 
L 179.337602 247.52784 
L 177.019721 247.39851 
L 174.701841 247.170168 
L 172.38396 246.85157 
L 170.06608 246.452827 
L 167.748199 245.984934 
L 165.430319 245.459268 
L 163.112438 244.887093 
L 160.794558 244.279101 
L 158.476677 243.64504 
L 156.158797 242.993443 
L 153.840916 242.331503 
L 151.523036 241.665096 
L 149.205155 240.998962 
L 146.887275 240.337028 
L 144.569394 239.682866 
L 142.251514 239.040251 
L 139.933634 238.413787 
L 137.615753 237.809559 
L 135.297873 237.235773 
L 132.979992 236.703337 
L 130.662112 236.226338 
L 128.344231 235.822356 
L 126.026351 235.512596 
L 123.70847 235.321758 
L 121.39059 235.277632 
L 119.072709 235.410385 
L 116.754829 235.751516 
L 114.436948 236.332504 
L 112.119068 237.183182 
L 109.801187 238.329914 
L 107.483307 239.79367 
L 105.165426 241.588147 
L 102.847546 243.718076 
L 100.529665 246.177886 
L 98.211785 248.950876 
L 95.893904 252.008997 
L 93.576024 255.313357 
L 91.258144 258.815422 
L 88.940263 262.458906 
L 86.622383 266.1822 
L 84.304502 269.921188 
L 81.986622 273.61224 
L 79.668741 277.195136 
L 77.350861 280.615716 
L 75.03298 283.828056 
L 72.7151 286.796027 
L 70.397219 289.494158 
L 68.079339 291.9078 
L 65.761458 294.032623 
L 63.443578 295.873572 
L 61.125697 297.443411 
L 58.807817 298.761013 
L 56.489936 299.849563 
L 54.172056 300.734813 
L 51.854175 301.443494 
L 49.536295 302.001989 
L 47.218414 302.435284 
L 44.900534 302.76623 
L 42.582654 303.015087 
L 40.264773 303.199324 
L 37.946893 303.333615 
z
" style="fill:#1f77b4;fill-opacity:0.4;stroke:#1f77b4;"/>
   </g>
   <g id="PolyCollection_2">
    <path clip-path="url(#p86bf9074ca)" d="M -186.423241 302.908375 
L -186.423241 303.64 
L -181.216455 303.64 
L -176.009669 303.64 
L -170.802882 303.64 
L -165.596096 303.64 
L -160.38931 303.64 
L -155.182523 303.64 
L -149.975737 303.64 
L -144.768951 303.64 
L -139.562164 303.64 
L -134.355378 303.64 
L -129.148592 303.64 
L -123.941805 303.64 
L -118.735019 303.64 
L -113.528233 303.64 
L -108.321446 303.64 
L -103.11466 303.64 
L -97.907873 303.64 
L -92.701087 303.64 
L -87.494301 303.64 
L -82.287514 303.64 
L -77.080728 303.64 
L -71.873942 303.64 
L -66.667155 303.64 
L -61.460369 303.64 
L -56.253583 303.64 
L -51.046796 303.64 
L -45.84001 303.64 
L -40.633224 303.64 
L -35.426437 303.64 
L -30.219651 303.64 
L -25.012865 303.64 
L -19.806078 303.64 
L -14.599292 303.64 
L -9.392506 303.64 
L -4.185719 303.64 
L 1.021067 303.64 
L 6.227853 303.64 
L 11.43464 303.64 
L 16.641426 303.64 
L 21.848212 303.64 
L 27.054999 303.64 
L 32.261785 303.64 
L 37.468572 303.64 
L 42.675358 303.64 
L 47.882144 303.64 
L 53.088931 303.64 
L 58.295717 303.64 
L 63.502503 303.64 
L 68.70929 303.64 
L 73.916076 303.64 
L 79.122862 303.64 
L 84.329649 303.64 
L 89.536435 303.64 
L 94.743221 303.64 
L 99.950008 303.64 
L 105.156794 303.64 
L 110.36358 303.64 
L 115.570367 303.64 
L 120.777153 303.64 
L 125.983939 303.64 
L 131.190726 303.64 
L 136.397512 303.64 
L 141.604298 303.64 
L 146.811085 303.64 
L 152.017871 303.64 
L 157.224657 303.64 
L 162.431444 303.64 
L 167.63823 303.64 
L 172.845016 303.64 
L 178.051803 303.64 
L 183.258589 303.64 
L 188.465376 303.64 
L 193.672162 303.64 
L 198.878948 303.64 
L 204.085735 303.64 
L 209.292521 303.64 
L 214.499307 303.64 
L 219.706094 303.64 
L 224.91288 303.64 
L 230.119666 303.64 
L 235.326453 303.64 
L 240.533239 303.64 
L 245.740025 303.64 
L 250.946812 303.64 
L 256.153598 303.64 
L 261.360384 303.64 
L 266.567171 303.64 
L 271.773957 303.64 
L 276.980743 303.64 
L 282.18753 303.64 
L 287.394316 303.64 
L 292.601102 303.64 
L 297.807889 303.64 
L 303.014675 303.64 
L 308.221461 303.64 
L 313.428248 303.64 
L 318.635034 303.64 
L 323.84182 303.64 
L 329.048607 303.64 
L 334.255393 303.64 
L 339.46218 303.64 
L 344.668966 303.64 
L 349.875752 303.64 
L 355.082539 303.64 
L 360.289325 303.64 
L 365.496111 303.64 
L 370.702898 303.64 
L 375.909684 303.64 
L 381.11647 303.64 
L 386.323257 303.64 
L 391.530043 303.64 
L 396.736829 303.64 
L 401.943616 303.64 
L 407.150402 303.64 
L 412.357188 303.64 
L 417.563975 303.64 
L 422.770761 303.64 
L 427.977547 303.64 
L 433.184334 303.64 
L 438.39112 303.64 
L 443.597906 303.64 
L 448.804693 303.64 
L 454.011479 303.64 
L 459.218265 303.64 
L 464.425052 303.64 
L 469.631838 303.64 
L 474.838624 303.64 
L 480.045411 303.64 
L 485.252197 303.64 
L 490.458984 303.64 
L 495.66577 303.64 
L 500.872556 303.64 
L 506.079343 303.64 
L 511.286129 303.64 
L 516.492915 303.64 
L 521.699702 303.64 
L 526.906488 303.64 
L 532.113274 303.64 
L 537.320061 303.64 
L 542.526847 303.64 
L 547.733633 303.64 
L 552.94042 303.64 
L 558.147206 303.64 
L 563.353992 303.64 
L 568.560779 303.64 
L 573.767565 303.64 
L 578.974351 303.64 
L 584.181138 303.64 
L 589.387924 303.64 
L 594.59471 303.64 
L 599.801497 303.64 
L 605.008283 303.64 
L 610.215069 303.64 
L 615.421856 303.64 
L 620.628642 303.64 
L 625.835428 303.64 
L 631.042215 303.64 
L 636.249001 303.64 
L 641.455788 303.64 
L 646.662574 303.64 
L 651.86936 303.64 
L 657.076147 303.64 
L 662.282933 303.64 
L 667.489719 303.64 
L 672.696506 303.64 
L 677.903292 303.64 
L 683.110078 303.64 
L 688.316865 303.64 
L 693.523651 303.64 
L 698.730437 303.64 
L 703.937224 303.64 
L 709.14401 303.64 
L 714.350796 303.64 
L 719.557583 303.64 
L 724.764369 303.64 
L 729.971155 303.64 
L 735.177942 303.64 
L 740.384728 303.64 
L 745.591514 303.64 
L 750.798301 303.64 
L 756.005087 303.64 
L 761.211873 303.64 
L 766.41866 303.64 
L 771.625446 303.64 
L 776.832233 303.64 
L 782.039019 303.64 
L 787.245805 303.64 
L 792.452592 303.64 
L 797.659378 303.64 
L 802.866164 303.64 
L 808.072951 303.64 
L 813.279737 303.64 
L 818.486523 303.64 
L 823.69331 303.64 
L 828.900096 303.64 
L 834.106882 303.64 
L 839.313669 303.64 
L 844.520455 303.64 
L 849.727241 303.64 
L 849.727241 302.908375 
L 849.727241 302.908375 
L 844.520455 302.819752 
L 839.313669 302.721734 
L 834.106882 302.613503 
L 828.900096 302.494187 
L 823.69331 302.362866 
L 818.486523 302.218567 
L 813.279737 302.060266 
L 808.072951 301.88689 
L 802.866164 301.697315 
L 797.659378 301.490369 
L 792.452592 301.264831 
L 787.245805 301.019439 
L 782.039019 300.752888 
L 776.832233 300.463834 
L 771.625446 300.150901 
L 766.41866 299.812681 
L 761.211873 299.447746 
L 756.005087 299.054647 
L 750.798301 298.631924 
L 745.591514 298.178115 
L 740.384728 297.691761 
L 735.177942 297.171415 
L 729.971155 296.615653 
L 724.764369 296.023083 
L 719.557583 295.392354 
L 714.350796 294.722169 
L 709.14401 294.011293 
L 703.937224 293.258569 
L 698.730437 292.462926 
L 693.523651 291.623392 
L 688.316865 290.739105 
L 683.110078 289.809329 
L 677.903292 288.833459 
L 672.696506 287.811038 
L 667.489719 286.741765 
L 662.282933 285.625509 
L 657.076147 284.462311 
L 651.86936 283.252404 
L 646.662574 281.996209 
L 641.455788 280.694351 
L 636.249001 279.347663 
L 631.042215 277.957184 
L 625.835428 276.52417 
L 620.628642 275.050091 
L 615.421856 273.536632 
L 610.215069 271.98569 
L 605.008283 270.399371 
L 599.801497 268.779984 
L 594.59471 267.130036 
L 589.387924 265.452219 
L 584.181138 263.749402 
L 578.974351 262.024618 
L 573.767565 260.281049 
L 568.560779 258.522011 
L 563.353992 256.750936 
L 558.147206 254.971354 
L 552.94042 253.186873 
L 547.733633 251.401161 
L 542.526847 249.617918 
L 537.320061 247.840862 
L 532.113274 246.073702 
L 526.906488 244.320115 
L 521.699702 242.583727 
L 516.492915 240.868088 
L 511.286129 239.176655 
L 506.079343 237.512764 
L 500.872556 235.879621 
L 495.66577 234.280275 
L 490.458984 232.717606 
L 485.252197 231.19431 
L 480.045411 229.712887 
L 474.838624 228.275629 
L 469.631838 226.884612 
L 464.425052 225.541691 
L 459.218265 224.248497 
L 454.011479 223.006435 
L 448.804693 221.816684 
L 443.597906 220.680204 
L 438.39112 219.597742 
L 433.184334 218.569837 
L 427.977547 217.596835 
L 422.770761 216.678901 
L 417.563975 215.816032 
L 412.357188 215.008074 
L 407.150402 214.254739 
L 401.943616 213.555628 
L 396.736829 212.910243 
L 391.530043 212.318013 
L 386.323257 211.778315 
L 381.11647 211.290487 
L 375.909684 210.853858 
L 370.702898 210.467757 
L 365.496111 210.13154 
L 360.289325 209.844602 
L 355.082539 209.606394 
L 349.875752 209.416435 
L 344.668966 209.274327 
L 339.46218 209.179764 
L 334.255393 209.132535 
L 329.048607 209.132535 
L 323.84182 209.179764 
L 318.635034 209.274327 
L 313.428248 209.416435 
L 308.221461 209.606394 
L 303.014675 209.844602 
L 297.807889 210.13154 
L 292.601102 210.467757 
L 287.394316 210.853858 
L 282.18753 211.290487 
L 276.980743 211.778315 
L 271.773957 212.318013 
L 266.567171 212.910243 
L 261.360384 213.555628 
L 256.153598 214.254739 
L 250.946812 215.008074 
L 245.740025 215.816032 
L 240.533239 216.678901 
L 235.326453 217.596835 
L 230.119666 218.569837 
L 224.91288 219.597742 
L 219.706094 220.680204 
L 214.499307 221.816684 
L 209.292521 223.006435 
L 204.085735 224.248497 
L 198.878948 225.541691 
L 193.672162 226.884612 
L 188.465376 228.275629 
L 183.258589 229.712887 
L 178.051803 231.19431 
L 172.845016 232.717606 
L 167.63823 234.280275 
L 162.431444 235.879621 
L 157.224657 237.512764 
L 152.017871 239.176655 
L 146.811085 240.868088 
L 141.604298 242.583727 
L 136.397512 244.320115 
L 131.190726 246.073702 
L 125.983939 247.840862 
L 120.777153 249.617918 
L 115.570367 251.401161 
L 110.36358 253.186873 
L 105.156794 254.971354 
L 99.950008 256.750936 
L 94.743221 258.522011 
L 89.536435 260.281049 
L 84.329649 262.024618 
L 79.122862 263.749402 
L 73.916076 265.452219 
L 68.70929 267.130036 
L 63.502503 268.779984 
L 58.295717 270.399371 
L 53.088931 271.98569 
L 47.882144 273.536632 
L 42.675358 275.050091 
L 37.468572 276.52417 
L 32.261785 277.957184 
L 27.054999 279.347663 
L 21.848212 280.694351 
L 16.641426 281.996209 
L 11.43464 283.252404 
L 6.227853 284.462311 
L 1.021067 285.625509 
L -4.185719 286.741765 
L -9.392506 287.811038 
L -14.599292 288.833459 
L -19.806078 289.809329 
L -25.012865 290.739105 
L -30.219651 291.623392 
L -35.426437 292.462926 
L -40.633224 293.258569 
L -45.84001 294.011293 
L -51.046796 294.722169 
L -56.253583 295.392354 
L -61.460369 296.023083 
L -66.667155 296.615653 
L -71.873942 297.171415 
L -77.080728 297.691761 
L -82.287514 298.178115 
L -87.494301 298.631924 
L -92.701087 299.054647 
L -97.907873 299.447746 
L -103.11466 299.812681 
L -108.321446 300.150901 
L -113.528233 300.463834 
L -118.735019 300.752888 
L -123.941805 301.019439 
L -129.148592 301.264831 
L -134.355378 301.490369 
L -139.562164 301.697315 
L -144.768951 301.88689 
L -149.975737 302.060266 
L -155.182523 302.218567 
L -160.38931 302.362866 
L -165.596096 302.494187 
L -170.802882 302.613503 
L -176.009669 302.721734 
L -181.216455 302.819752 
L -186.423241 302.908375 
z
" style="fill:#ff7f0e;fill-opacity:0.4;stroke:#ff7f0e;"/>
   </g>
   <g id="matplotlib.axis_1">
    <g id="xtick_1">
     <g id="line2d_1">
      <defs>
       <path d="M 0 0 
L 0 3.5 
" id="m7f081fa175" style="stroke:#000000;stroke-width:0.8;"/>
      </defs>
      <g>
       <use style="stroke:#000000;stroke-width:0.8;" x="47.81" xlink:href="#m7f081fa175" y="303.64"/>
      </g>
     </g>
     <g id="text_1">
      <!-- 0.0 -->
      <g transform="translate(39.858438 318.238437)scale(0.1 -0.1)">
       <defs>
        <path d="M 2034 4250 
Q 1547 4250 1301 3770 
Q 1056 3291 1056 2328 
Q 1056 1369 1301 889 
Q 1547 409 2034 409 
Q 2525 409 2770 889 
Q 3016 1369 3016 2328 
Q 3016 3291 2770 3770 
Q 2525 4250 2034 4250 
z
M 2034 4750 
Q 2819 4750 3233 4129 
Q 3647 3509 3647 2328 
Q 3647 1150 3233 529 
Q 2819 -91 2034 -91 
Q 1250 -91 836 529 
Q 422 1150 422 2328 
Q 422 3509 836 4129 
Q 1250 4750 2034 4750 
z
" id="DejaVuSans-30" transform="scale(0.015625)"/>
        <path d="M 684 794 
L 1344 794 
L 1344 0 
L 684 0 
L 684 794 
z
" id="DejaVuSans-2e" transform="scale(0.015625)"/>
       </defs>
       <use xlink:href="#DejaVuSans-30"/>
       <use x="63.623047" xlink:href="#DejaVuSans-2e"/>
       <use x="95.410156" xlink:href="#DejaVuSans-30"/>
      </g>
     </g>
    </g>
    <g id="xtick_2">
     <g id="line2d_2">
      <g>
       <use style="stroke:#000000;stroke-width:0.8;" x="126.655" xlink:href="#m7f081fa175" y="303.64"/>
      </g>
     </g>
     <g id="text_2">
      <!-- 0.2 -->
      <g transform="translate(118.703438 318.238437)scale(0.1 -0.1)">
       <defs>
        <path d="M 1228 531 
L 3431 531 
L 3431 0 
L 469 0 
L 469 531 
Q 828 903 1448 1529 
Q 2069 2156 2228 2338 
Q 2531 2678 2651 2914 
Q 2772 3150 2772 3378 
Q 2772 3750 2511 3984 
Q 2250 4219 1831 4219 
Q 1534 4219 1204 4116 
Q 875 4013 500 3803 
L 500 4441 
Q 881 4594 1212 4672 
Q 1544 4750 1819 4750 
Q 2544 4750 2975 4387 
Q 3406 4025 3406 3419 
Q 3406 3131 3298 2873 
Q 3191 2616 2906 2266 
Q 2828 2175 2409 1742 
Q 1991 1309 1228 531 
z
" id="DejaVuSans-32" transform="scale(0.015625)"/>
       </defs>
       <use xlink:href="#DejaVuSans-30"/>
       <use x="63.623047" xlink:href="#DejaVuSans-2e"/>
       <use x="95.410156" xlink:href="#DejaVuSans-32"/>
      </g>
     </g>
    </g>
    <g id="xtick_3">
     <g id="line2d_3">
      <g>
       <use style="stroke:#000000;stroke-width:0.8;" x="205.5" xlink:href="#m7f081fa175" y="303.64"/>
      </g>
     </g>
     <g id="text_3">
      <!-- 0.4 -->
      <g transform="translate(197.548438 318.238437)scale(0.1 -0.1)">
       <defs>
        <path d="M 2419 4116 
L 825 1625 
L 2419 1625 
L 2419 4116 
z
M 2253 4666 
L 3047 4666 
L 3047 1625 
L 3713 1625 
L 3713 1100 
L 3047 1100 
L 3047 0 
L 2419 0 
L 2419 1100 
L 313 1100 
L 313 1709 
L 2253 4666 
z
" id="DejaVuSans-34" transform="scale(0.015625)"/>
       </defs>
       <use xlink:href="#DejaVuSans-30"/>
       <use x="63.623047" xlink:href="#DejaVuSans-2e"/>
       <use x="95.410156" xlink:href="#DejaVuSans-34"/>
      </g>
     </g>
    </g>
    <g id="xtick_4">
     <g id="line2d_4">
      <g>
       <use style="stroke:#000000;stroke-width:0.8;" x="284.345" xlink:href="#m7f081fa175" y="303.64"/>
      </g>
     </g>
     <g id="text_4">
      <!-- 0.6 -->
      <g transform="translate(276.393438 318.238437)scale(0.1 -0.1)">
       <defs>
        <path d="M 2113 2584 
Q 1688 2584 1439 2293 
Q 1191 2003 1191 1497 
Q 1191 994 1439 701 
Q 1688 409 2113 409 
Q 2538 409 2786 701 
Q 3034 994 3034 1497 
Q 3034 2003 2786 2293 
Q 2538 2584 2113 2584 
z
M 3366 4563 
L 3366 3988 
Q 3128 4100 2886 4159 
Q 2644 4219 2406 4219 
Q 1781 4219 1451 3797 
Q 1122 3375 1075 2522 
Q 1259 2794 1537 2939 
Q 1816 3084 2150 3084 
Q 2853 3084 3261 2657 
Q 3669 2231 3669 1497 
Q 3669 778 3244 343 
Q 2819 -91 2113 -91 
Q 1303 -91 875 529 
Q 447 1150 447 2328 
Q 447 3434 972 4092 
Q 1497 4750 2381 4750 
Q 2619 4750 2861 4703 
Q 3103 4656 3366 4563 
z
" id="DejaVuSans-36" transform="scale(0.015625)"/>
       </defs>
       <use xlink:href="#DejaVuSans-30"/>
       <use x="63.623047" xlink:href="#DejaVuSans-2e"/>
       <use x="95.410156" xlink:href="#DejaVuSans-36"/>
      </g>
     </g>
    </g>
    <g id="xtick_5">
     <g id="line2d_5">
      <g>
       <use style="stroke:#000000;stroke-width:0.8;" x="363.19" xlink:href="#m7f081fa175" y="303.64"/>
      </g>
     </g>
     <g id="text_5">
      <!-- 0.8 -->
      <g transform="translate(355.238437 318.238437)scale(0.1 -0.1)">
       <defs>
        <path d="M 2034 2216 
Q 1584 2216 1326 1975 
Q 1069 1734 1069 1313 
Q 1069 891 1326 650 
Q 1584 409 2034 409 
Q 2484 409 2743 651 
Q 3003 894 3003 1313 
Q 3003 1734 2745 1975 
Q 2488 2216 2034 2216 
z
M 1403 2484 
Q 997 2584 770 2862 
Q 544 3141 544 3541 
Q 544 4100 942 4425 
Q 1341 4750 2034 4750 
Q 2731 4750 3128 4425 
Q 3525 4100 3525 3541 
Q 3525 3141 3298 2862 
Q 3072 2584 2669 2484 
Q 3125 2378 3379 2068 
Q 3634 1759 3634 1313 
Q 3634 634 3220 271 
Q 2806 -91 2034 -91 
Q 1263 -91 848 271 
Q 434 634 434 1313 
Q 434 1759 690 2068 
Q 947 2378 1403 2484 
z
M 1172 3481 
Q 1172 3119 1398 2916 
Q 1625 2713 2034 2713 
Q 2441 2713 2670 2916 
Q 2900 3119 2900 3481 
Q 2900 3844 2670 4047 
Q 2441 4250 2034 4250 
Q 1625 4250 1398 4047 
Q 1172 3844 1172 3481 
z
" id="DejaVuSans-38" transform="scale(0.015625)"/>
       </defs>
       <use xlink:href="#DejaVuSans-30"/>
       <use x="63.623047" xlink:href="#DejaVuSans-2e"/>
       <use x="95.410156" xlink:href="#DejaVuSans-38"/>
      </g>
     </g>
    </g>
    <g id="xtick_6">
     <g id="line2d_6">
      <g>
       <use style="stroke:#000000;stroke-width:0.8;" x="442.035" xlink:href="#m7f081fa175" y="303.64"/>
      </g>
     </g>
     <g id="text_6">
      <!-- 1.0 -->
      <g transform="translate(434.083437 318.238437)scale(0.1 -0.1)">
       <defs>
        <path d="M 794 531 
L 1825 531 
L 1825 4091 
L 703 3866 
L 703 4441 
L 1819 4666 
L 2450 4666 
L 2450 531 
L 3481 531 
L 3481 0 
L 794 0 
L 794 531 
z
" id="DejaVuSans-31" transform="scale(0.015625)"/>
       </defs>
       <use xlink:href="#DejaVuSans-31"/>
       <use x="63.623047" xlink:href="#DejaVuSans-2e"/>
       <use x="95.410156" xlink:href="#DejaVuSans-30"/>
      </g>
     </g>
    </g>
    <g id="text_7">
     <!-- Credibility index -->
     <g transform="translate(204.317812 331.916562)scale(0.1 -0.1)">
      <defs>
       <path d="M 4122 4306 
L 4122 3641 
Q 3803 3938 3442 4084 
Q 3081 4231 2675 4231 
Q 1875 4231 1450 3742 
Q 1025 3253 1025 2328 
Q 1025 1406 1450 917 
Q 1875 428 2675 428 
Q 3081 428 3442 575 
Q 3803 722 4122 1019 
L 4122 359 
Q 3791 134 3420 21 
Q 3050 -91 2638 -91 
Q 1578 -91 968 557 
Q 359 1206 359 2328 
Q 359 3453 968 4101 
Q 1578 4750 2638 4750 
Q 3056 4750 3426 4639 
Q 3797 4528 4122 4306 
z
" id="DejaVuSans-43" transform="scale(0.015625)"/>
       <path d="M 2631 2963 
Q 2534 3019 2420 3045 
Q 2306 3072 2169 3072 
Q 1681 3072 1420 2755 
Q 1159 2438 1159 1844 
L 1159 0 
L 581 0 
L 581 3500 
L 1159 3500 
L 1159 2956 
Q 1341 3275 1631 3429 
Q 1922 3584 2338 3584 
Q 2397 3584 2469 3576 
Q 2541 3569 2628 3553 
L 2631 2963 
z
" id="DejaVuSans-72" transform="scale(0.015625)"/>
       <path d="M 3597 1894 
L 3597 1613 
L 953 1613 
Q 991 1019 1311 708 
Q 1631 397 2203 397 
Q 2534 397 2845 478 
Q 3156 559 3463 722 
L 3463 178 
Q 3153 47 2828 -22 
Q 2503 -91 2169 -91 
Q 1331 -91 842 396 
Q 353 884 353 1716 
Q 353 2575 817 3079 
Q 1281 3584 2069 3584 
Q 2775 3584 3186 3129 
Q 3597 2675 3597 1894 
z
M 3022 2063 
Q 3016 2534 2758 2815 
Q 2500 3097 2075 3097 
Q 1594 3097 1305 2825 
Q 1016 2553 972 2059 
L 3022 2063 
z
" id="DejaVuSans-65" transform="scale(0.015625)"/>
       <path d="M 2906 2969 
L 2906 4863 
L 3481 4863 
L 3481 0 
L 2906 0 
L 2906 525 
Q 2725 213 2448 61 
Q 2172 -91 1784 -91 
Q 1150 -91 751 415 
Q 353 922 353 1747 
Q 353 2572 751 3078 
Q 1150 3584 1784 3584 
Q 2172 3584 2448 3432 
Q 2725 3281 2906 2969 
z
M 947 1747 
Q 947 1113 1208 752 
Q 1469 391 1925 391 
Q 2381 391 2643 752 
Q 2906 1113 2906 1747 
Q 2906 2381 2643 2742 
Q 2381 3103 1925 3103 
Q 1469 3103 1208 2742 
Q 947 2381 947 1747 
z
" id="DejaVuSans-64" transform="scale(0.015625)"/>
       <path d="M 603 3500 
L 1178 3500 
L 1178 0 
L 603 0 
L 603 3500 
z
M 603 4863 
L 1178 4863 
L 1178 4134 
L 603 4134 
L 603 4863 
z
" id="DejaVuSans-69" transform="scale(0.015625)"/>
       <path d="M 3116 1747 
Q 3116 2381 2855 2742 
Q 2594 3103 2138 3103 
Q 1681 3103 1420 2742 
Q 1159 2381 1159 1747 
Q 1159 1113 1420 752 
Q 1681 391 2138 391 
Q 2594 391 2855 752 
Q 3116 1113 3116 1747 
z
M 1159 2969 
Q 1341 3281 1617 3432 
Q 1894 3584 2278 3584 
Q 2916 3584 3314 3078 
Q 3713 2572 3713 1747 
Q 3713 922 3314 415 
Q 2916 -91 2278 -91 
Q 1894 -91 1617 61 
Q 1341 213 1159 525 
L 1159 0 
L 581 0 
L 581 4863 
L 1159 4863 
L 1159 2969 
z
" id="DejaVuSans-62" transform="scale(0.015625)"/>
       <path d="M 603 4863 
L 1178 4863 
L 1178 0 
L 603 0 
L 603 4863 
z
" id="DejaVuSans-6c" transform="scale(0.015625)"/>
       <path d="M 1172 4494 
L 1172 3500 
L 2356 3500 
L 2356 3053 
L 1172 3053 
L 1172 1153 
Q 1172 725 1289 603 
Q 1406 481 1766 481 
L 2356 481 
L 2356 0 
L 1766 0 
Q 1100 0 847 248 
Q 594 497 594 1153 
L 594 3053 
L 172 3053 
L 172 3500 
L 594 3500 
L 594 4494 
L 1172 4494 
z
" id="DejaVuSans-74" transform="scale(0.015625)"/>
       <path d="M 2059 -325 
Q 1816 -950 1584 -1140 
Q 1353 -1331 966 -1331 
L 506 -1331 
L 506 -850 
L 844 -850 
Q 1081 -850 1212 -737 
Q 1344 -625 1503 -206 
L 1606 56 
L 191 3500 
L 800 3500 
L 1894 763 
L 2988 3500 
L 3597 3500 
L 2059 -325 
z
" id="DejaVuSans-79" transform="scale(0.015625)"/>
       <path id="DejaVuSans-20" transform="scale(0.015625)"/>
       <path d="M 3513 2113 
L 3513 0 
L 2938 0 
L 2938 2094 
Q 2938 2591 2744 2837 
Q 2550 3084 2163 3084 
Q 1697 3084 1428 2787 
Q 1159 2491 1159 1978 
L 1159 0 
L 581 0 
L 581 3500 
L 1159 3500 
L 1159 2956 
Q 1366 3272 1645 3428 
Q 1925 3584 2291 3584 
Q 2894 3584 3203 3211 
Q 3513 2838 3513 2113 
z
" id="DejaVuSans-6e" transform="scale(0.015625)"/>
       <path d="M 3513 3500 
L 2247 1797 
L 3578 0 
L 2900 0 
L 1881 1375 
L 863 0 
L 184 0 
L 1544 1831 
L 300 3500 
L 978 3500 
L 1906 2253 
L 2834 3500 
L 3513 3500 
z
" id="DejaVuSans-78" transform="scale(0.015625)"/>
      </defs>
      <use xlink:href="#DejaVuSans-43"/>
      <use x="69.824219" xlink:href="#DejaVuSans-72"/>
      <use x="108.6875" xlink:href="#DejaVuSans-65"/>
      <use x="170.210938" xlink:href="#DejaVuSans-64"/>
      <use x="233.6875" xlink:href="#DejaVuSans-69"/>
      <use x="261.470703" xlink:href="#DejaVuSans-62"/>
      <use x="324.947266" xlink:href="#DejaVuSans-69"/>
      <use x="352.730469" xlink:href="#DejaVuSans-6c"/>
      <use x="380.513672" xlink:href="#DejaVuSans-69"/>
      <use x="408.296875" xlink:href="#DejaVuSans-74"/>
      <use x="447.505859" xlink:href="#DejaVuSans-79"/>
      <use x="506.685547" xlink:href="#DejaVuSans-20"/>
      <use x="538.472656" xlink:href="#DejaVuSans-69"/>
      <use x="566.255859" xlink:href="#DejaVuSans-6e"/>
      <use x="629.634766" xlink:href="#DejaVuSans-64"/>
      <use x="693.111328" xlink:href="#DejaVuSans-65"/>
      <use x="752.884766" xlink:href="#DejaVuSans-78"/>
     </g>
    </g>
   </g>
   <g id="matplotlib.axis_2">
    <g id="ytick_1">
     <g id="line2d_7">
      <defs>
       <path d="M 0 0 
L -3.5 0 
" id="md9b731459c" style="stroke:#000000;stroke-width:0.8;"/>
      </defs>
      <g>
       <use style="stroke:#000000;stroke-width:0.8;" x="47.81" xlink:href="#md9b731459c" y="303.64"/>
      </g>
     </g>
     <g id="text_8">
      <!-- 0.0 -->
      <g transform="translate(24.906875 307.439219)scale(0.1 -0.1)">
       <use xlink:href="#DejaVuSans-30"/>
       <use x="63.623047" xlink:href="#DejaVuSans-2e"/>
       <use x="95.410156" xlink:href="#DejaVuSans-30"/>
      </g>
     </g>
    </g>
    <g id="ytick_2">
     <g id="line2d_8">
      <g>
       <use style="stroke:#000000;stroke-width:0.8;" x="47.81" xlink:href="#md9b731459c" y="246.84842"/>
      </g>
     </g>
     <g id="text_9">
      <!-- 0.5 -->
      <g transform="translate(24.906875 250.647639)scale(0.1 -0.1)">
       <defs>
        <path d="M 691 4666 
L 3169 4666 
L 3169 4134 
L 1269 4134 
L 1269 2991 
Q 1406 3038 1543 3061 
Q 1681 3084 1819 3084 
Q 2600 3084 3056 2656 
Q 3513 2228 3513 1497 
Q 3513 744 3044 326 
Q 2575 -91 1722 -91 
Q 1428 -91 1123 -41 
Q 819 9 494 109 
L 494 744 
Q 775 591 1075 516 
Q 1375 441 1709 441 
Q 2250 441 2565 725 
Q 2881 1009 2881 1497 
Q 2881 1984 2565 2268 
Q 2250 2553 1709 2553 
Q 1456 2553 1204 2497 
Q 953 2441 691 2322 
L 691 4666 
z
" id="DejaVuSans-35" transform="scale(0.015625)"/>
       </defs>
       <use xlink:href="#DejaVuSans-30"/>
       <use x="63.623047" xlink:href="#DejaVuSans-2e"/>
       <use x="95.410156" xlink:href="#DejaVuSans-35"/>
      </g>
     </g>
    </g>
    <g id="ytick_3">
     <g id="line2d_9">
      <g>
       <use style="stroke:#000000;stroke-width:0.8;" x="47.81" xlink:href="#md9b731459c" y="190.05684"/>
      </g>
     </g>
     <g id="text_10">
      <!-- 1.0 -->
      <g transform="translate(24.906875 193.856059)scale(0.1 -0.1)">
       <use xlink:href="#DejaVuSans-31"/>
       <use x="63.623047" xlink:href="#DejaVuSans-2e"/>
       <use x="95.410156" xlink:href="#DejaVuSans-30"/>
      </g>
     </g>
    </g>
    <g id="ytick_4">
     <g id="line2d_10">
      <g>
       <use style="stroke:#000000;stroke-width:0.8;" x="47.81" xlink:href="#md9b731459c" y="133.265261"/>
      </g>
     </g>
     <g id="text_11">
      <!-- 1.5 -->
      <g transform="translate(24.906875 137.064479)scale(0.1 -0.1)">
       <use xlink:href="#DejaVuSans-31"/>
       <use x="63.623047" xlink:href="#DejaVuSans-2e"/>
       <use x="95.410156" xlink:href="#DejaVuSans-35"/>
      </g>
     </g>
    </g>
    <g id="ytick_5">
     <g id="line2d_11">
      <g>
       <use style="stroke:#000000;stroke-width:0.8;" x="47.81" xlink:href="#md9b731459c" y="76.473681"/>
      </g>
     </g>
     <g id="text_12">
      <!-- 2.0 -->
      <g transform="translate(24.906875 80.272899)scale(0.1 -0.1)">
       <use xlink:href="#DejaVuSans-32"/>
       <use x="63.623047" xlink:href="#DejaVuSans-2e"/>
       <use x="95.410156" xlink:href="#DejaVuSans-30"/>
      </g>
     </g>
    </g>
    <g id="text_13">
     <!-- Density -->
     <g transform="translate(18.827187 189.812594)rotate(-90)scale(0.1 -0.1)">
      <defs>
       <path d="M 1259 4147 
L 1259 519 
L 2022 519 
Q 2988 519 3436 956 
Q 3884 1394 3884 2338 
Q 3884 3275 3436 3711 
Q 2988 4147 2022 4147 
L 1259 4147 
z
M 628 4666 
L 1925 4666 
Q 3281 4666 3915 4102 
Q 4550 3538 4550 2338 
Q 4550 1131 3912 565 
Q 3275 0 1925 0 
L 628 0 
L 628 4666 
z
" id="DejaVuSans-44" transform="scale(0.015625)"/>
       <path d="M 2834 3397 
L 2834 2853 
Q 2591 2978 2328 3040 
Q 2066 3103 1784 3103 
Q 1356 3103 1142 2972 
Q 928 2841 928 2578 
Q 928 2378 1081 2264 
Q 1234 2150 1697 2047 
L 1894 2003 
Q 2506 1872 2764 1633 
Q 3022 1394 3022 966 
Q 3022 478 2636 193 
Q 2250 -91 1575 -91 
Q 1294 -91 989 -36 
Q 684 19 347 128 
L 347 722 
Q 666 556 975 473 
Q 1284 391 1588 391 
Q 1994 391 2212 530 
Q 2431 669 2431 922 
Q 2431 1156 2273 1281 
Q 2116 1406 1581 1522 
L 1381 1569 
Q 847 1681 609 1914 
Q 372 2147 372 2553 
Q 372 3047 722 3315 
Q 1072 3584 1716 3584 
Q 2034 3584 2315 3537 
Q 2597 3491 2834 3397 
z
" id="DejaVuSans-73" transform="scale(0.015625)"/>
      </defs>
      <use xlink:href="#DejaVuSans-44"/>
      <use x="77.001953" xlink:href="#DejaVuSans-65"/>
      <use x="138.525391" xlink:href="#DejaVuSans-6e"/>
      <use x="201.904297" xlink:href="#DejaVuSans-73"/>
      <use x="254.003906" xlink:href="#DejaVuSans-69"/>
      <use x="281.787109" xlink:href="#DejaVuSans-74"/>
      <use x="320.996094" xlink:href="#DejaVuSans-79"/>
     </g>
    </g>
   </g>
   <g id="patch_3">
    <path d="M 47.81 303.64 
L 47.81 37.968 
" style="fill:none;stroke:#000000;stroke-linecap:square;stroke-linejoin:miter;stroke-width:0.8;"/>
   </g>
   <g id="patch_4">
    <path d="M 442.035 303.64 
L 442.035 37.968 
" style="fill:none;stroke:#000000;stroke-linecap:square;stroke-linejoin:miter;stroke-width:0.8;"/>
   </g>
   <g id="patch_5">
    <path d="M 47.81 303.64 
L 442.035 303.64 
" style="fill:none;stroke:#000000;stroke-linecap:square;stroke-linejoin:miter;stroke-width:0.8;"/>
   </g>
   <g id="patch_6">
    <path d="M 47.81 37.968 
L 442.035 37.968 
" style="fill:none;stroke:#000000;stroke-linecap:square;stroke-linejoin:miter;stroke-width:0.8;"/>
   </g>
   <g id="text_14">
    <!-- Credibility index consensus vs non consensus  -->
    <g transform="translate(105.81625 18.530625)scale(0.12 -0.12)">
     <defs>
      <path d="M 3122 3366 
L 3122 2828 
Q 2878 2963 2633 3030 
Q 2388 3097 2138 3097 
Q 1578 3097 1268 2742 
Q 959 2388 959 1747 
Q 959 1106 1268 751 
Q 1578 397 2138 397 
Q 2388 397 2633 464 
Q 2878 531 3122 666 
L 3122 134 
Q 2881 22 2623 -34 
Q 2366 -91 2075 -91 
Q 1284 -91 818 406 
Q 353 903 353 1747 
Q 353 2603 823 3093 
Q 1294 3584 2113 3584 
Q 2378 3584 2631 3529 
Q 2884 3475 3122 3366 
z
" id="DejaVuSans-63" transform="scale(0.015625)"/>
      <path d="M 1959 3097 
Q 1497 3097 1228 2736 
Q 959 2375 959 1747 
Q 959 1119 1226 758 
Q 1494 397 1959 397 
Q 2419 397 2687 759 
Q 2956 1122 2956 1747 
Q 2956 2369 2687 2733 
Q 2419 3097 1959 3097 
z
M 1959 3584 
Q 2709 3584 3137 3096 
Q 3566 2609 3566 1747 
Q 3566 888 3137 398 
Q 2709 -91 1959 -91 
Q 1206 -91 779 398 
Q 353 888 353 1747 
Q 353 2609 779 3096 
Q 1206 3584 1959 3584 
z
" id="DejaVuSans-6f" transform="scale(0.015625)"/>
      <path d="M 544 1381 
L 544 3500 
L 1119 3500 
L 1119 1403 
Q 1119 906 1312 657 
Q 1506 409 1894 409 
Q 2359 409 2629 706 
Q 2900 1003 2900 1516 
L 2900 3500 
L 3475 3500 
L 3475 0 
L 2900 0 
L 2900 538 
Q 2691 219 2414 64 
Q 2138 -91 1772 -91 
Q 1169 -91 856 284 
Q 544 659 544 1381 
z
M 1991 3584 
L 1991 3584 
z
" id="DejaVuSans-75" transform="scale(0.015625)"/>
      <path d="M 191 3500 
L 800 3500 
L 1894 563 
L 2988 3500 
L 3597 3500 
L 2284 0 
L 1503 0 
L 191 3500 
z
" id="DejaVuSans-76" transform="scale(0.015625)"/>
     </defs>
     <use xlink:href="#DejaVuSans-43"/>
     <use x="69.824219" xlink:href="#DejaVuSans-72"/>
     <use x="108.6875" xlink:href="#DejaVuSans-65"/>
     <use x="170.210938" xlink:href="#DejaVuSans-64"/>
     <use x="233.6875" xlink:href="#DejaVuSans-69"/>
     <use x="261.470703" xlink:href="#DejaVuSans-62"/>
     <use x="324.947266" xlink:href="#DejaVuSans-69"/>
     <use x="352.730469" xlink:href="#DejaVuSans-6c"/>
     <use x="380.513672" xlink:href="#DejaVuSans-69"/>
     <use x="408.296875" xlink:href="#DejaVuSans-74"/>
     <use x="447.505859" xlink:href="#DejaVuSans-79"/>
     <use x="506.685547" xlink:href="#DejaVuSans-20"/>
     <use x="538.472656" xlink:href="#DejaVuSans-69"/>
     <use x="566.255859" xlink:href="#DejaVuSans-6e"/>
     <use x="629.634766" xlink:href="#DejaVuSans-64"/>
     <use x="693.111328" xlink:href="#DejaVuSans-65"/>
     <use x="752.884766" xlink:href="#DejaVuSans-78"/>
     <use x="812.064453" xlink:href="#DejaVuSans-20"/>
     <use x="843.851562" xlink:href="#DejaVuSans-63"/>
     <use x="898.832031" xlink:href="#DejaVuSans-6f"/>
     <use x="960.013672" xlink:href="#DejaVuSans-6e"/>
     <use x="1023.392578" xlink:href="#DejaVuSans-73"/>
     <use x="1075.492188" xlink:href="#DejaVuSans-65"/>
     <use x="1137.015625" xlink:href="#DejaVuSans-6e"/>
     <use x="1200.394531" xlink:href="#DejaVuSans-73"/>
     <use x="1252.494141" xlink:href="#DejaVuSans-75"/>
     <use x="1315.873047" xlink:href="#DejaVuSans-73"/>
     <use x="1367.972656" xlink:href="#DejaVuSans-20"/>
     <use x="1399.759766" xlink:href="#DejaVuSans-76"/>
     <use x="1458.939453" xlink:href="#DejaVuSans-73"/>
     <use x="1511.039062" xlink:href="#DejaVuSans-20"/>
     <use x="1542.826172" xlink:href="#DejaVuSans-6e"/>
     <use x="1606.205078" xlink:href="#DejaVuSans-6f"/>
     <use x="1667.386719" xlink:href="#DejaVuSans-6e"/>
     <use x="1730.765625" xlink:href="#DejaVuSans-20"/>
     <use x="1762.552734" xlink:href="#DejaVuSans-63"/>
     <use x="1817.533203" xlink:href="#DejaVuSans-6f"/>
     <use x="1878.714844" xlink:href="#DejaVuSans-6e"/>
     <use x="1942.09375" xlink:href="#DejaVuSans-73"/>
     <use x="1994.193359" xlink:href="#DejaVuSans-65"/>
     <use x="2055.716797" xlink:href="#DejaVuSans-6e"/>
     <use x="2119.095703" xlink:href="#DejaVuSans-73"/>
     <use x="2171.195312" xlink:href="#DejaVuSans-75"/>
     <use x="2234.574219" xlink:href="#DejaVuSans-73"/>
     <use x="2286.673828" xlink:href="#DejaVuSans-20"/>
    </g>
    <!-- Set big -->
    <g transform="translate(223.8775 31.968)scale(0.12 -0.12)">
     <defs>
      <path d="M 3425 4513 
L 3425 3897 
Q 3066 4069 2747 4153 
Q 2428 4238 2131 4238 
Q 1616 4238 1336 4038 
Q 1056 3838 1056 3469 
Q 1056 3159 1242 3001 
Q 1428 2844 1947 2747 
L 2328 2669 
Q 3034 2534 3370 2195 
Q 3706 1856 3706 1288 
Q 3706 609 3251 259 
Q 2797 -91 1919 -91 
Q 1588 -91 1214 -16 
Q 841 59 441 206 
L 441 856 
Q 825 641 1194 531 
Q 1563 422 1919 422 
Q 2459 422 2753 634 
Q 3047 847 3047 1241 
Q 3047 1584 2836 1778 
Q 2625 1972 2144 2069 
L 1759 2144 
Q 1053 2284 737 2584 
Q 422 2884 422 3419 
Q 422 4038 858 4394 
Q 1294 4750 2059 4750 
Q 2388 4750 2728 4690 
Q 3069 4631 3425 4513 
z
" id="DejaVuSans-53" transform="scale(0.015625)"/>
      <path d="M 2906 1791 
Q 2906 2416 2648 2759 
Q 2391 3103 1925 3103 
Q 1463 3103 1205 2759 
Q 947 2416 947 1791 
Q 947 1169 1205 825 
Q 1463 481 1925 481 
Q 2391 481 2648 825 
Q 2906 1169 2906 1791 
z
M 3481 434 
Q 3481 -459 3084 -895 
Q 2688 -1331 1869 -1331 
Q 1566 -1331 1297 -1286 
Q 1028 -1241 775 -1147 
L 775 -588 
Q 1028 -725 1275 -790 
Q 1522 -856 1778 -856 
Q 2344 -856 2625 -561 
Q 2906 -266 2906 331 
L 2906 616 
Q 2728 306 2450 153 
Q 2172 0 1784 0 
Q 1141 0 747 490 
Q 353 981 353 1791 
Q 353 2603 747 3093 
Q 1141 3584 1784 3584 
Q 2172 3584 2450 3431 
Q 2728 3278 2906 2969 
L 2906 3500 
L 3481 3500 
L 3481 434 
z
" id="DejaVuSans-67" transform="scale(0.015625)"/>
     </defs>
     <use xlink:href="#DejaVuSans-53"/>
     <use x="63.476562" xlink:href="#DejaVuSans-65"/>
     <use x="125" xlink:href="#DejaVuSans-74"/>
     <use x="164.208984" xlink:href="#DejaVuSans-20"/>
     <use x="195.996094" xlink:href="#DejaVuSans-62"/>
     <use x="259.472656" xlink:href="#DejaVuSans-69"/>
     <use x="287.255859" xlink:href="#DejaVuSans-67"/>
    </g>
   </g>
   <g id="legend_1">
    <g id="patch_7">
     <path d="M 54.81 97.719875 
L 225.352188 97.719875 
Q 227.352188 97.719875 227.352188 95.719875 
L 227.352188 44.968 
Q 227.352188 42.968 225.352188 42.968 
L 54.81 42.968 
Q 52.81 42.968 52.81 44.968 
L 52.81 95.719875 
Q 52.81 97.719875 54.81 97.719875 
z
" style="fill:#ffffff;opacity:0.8;stroke:#cccccc;stroke-linejoin:miter;"/>
    </g>
    <g id="patch_8">
     <path d="M 56.81 61.205188 
L 76.81 61.205188 
L 76.81 54.205188 
L 56.81 54.205188 
z
" style="fill:#1f77b4;fill-opacity:0.4;stroke:#1f77b4;stroke-linejoin:miter;"/>
    </g>
    <g id="text_15">
     <!-- Correlation higher than 0  -->
     <g transform="translate(84.81 54.566438)scale(0.1 -0.1)">
      <defs>
       <path d="M 2194 1759 
Q 1497 1759 1228 1600 
Q 959 1441 959 1056 
Q 959 750 1161 570 
Q 1363 391 1709 391 
Q 2188 391 2477 730 
Q 2766 1069 2766 1631 
L 2766 1759 
L 2194 1759 
z
M 3341 1997 
L 3341 0 
L 2766 0 
L 2766 531 
Q 2569 213 2275 61 
Q 1981 -91 1556 -91 
Q 1019 -91 701 211 
Q 384 513 384 1019 
Q 384 1609 779 1909 
Q 1175 2209 1959 2209 
L 2766 2209 
L 2766 2266 
Q 2766 2663 2505 2880 
Q 2244 3097 1772 3097 
Q 1472 3097 1187 3025 
Q 903 2953 641 2809 
L 641 3341 
Q 956 3463 1253 3523 
Q 1550 3584 1831 3584 
Q 2591 3584 2966 3190 
Q 3341 2797 3341 1997 
z
" id="DejaVuSans-61" transform="scale(0.015625)"/>
       <path d="M 3513 2113 
L 3513 0 
L 2938 0 
L 2938 2094 
Q 2938 2591 2744 2837 
Q 2550 3084 2163 3084 
Q 1697 3084 1428 2787 
Q 1159 2491 1159 1978 
L 1159 0 
L 581 0 
L 581 4863 
L 1159 4863 
L 1159 2956 
Q 1366 3272 1645 3428 
Q 1925 3584 2291 3584 
Q 2894 3584 3203 3211 
Q 3513 2838 3513 2113 
z
" id="DejaVuSans-68" transform="scale(0.015625)"/>
      </defs>
      <use xlink:href="#DejaVuSans-43"/>
      <use x="69.824219" xlink:href="#DejaVuSans-6f"/>
      <use x="131.005859" xlink:href="#DejaVuSans-72"/>
      <use x="170.369141" xlink:href="#DejaVuSans-72"/>
      <use x="209.232422" xlink:href="#DejaVuSans-65"/>
      <use x="270.755859" xlink:href="#DejaVuSans-6c"/>
      <use x="298.539062" xlink:href="#DejaVuSans-61"/>
      <use x="359.818359" xlink:href="#DejaVuSans-74"/>
      <use x="399.027344" xlink:href="#DejaVuSans-69"/>
      <use x="426.810547" xlink:href="#DejaVuSans-6f"/>
      <use x="487.992188" xlink:href="#DejaVuSans-6e"/>
      <use x="551.371094" xlink:href="#DejaVuSans-20"/>
      <use x="583.158203" xlink:href="#DejaVuSans-68"/>
      <use x="646.537109" xlink:href="#DejaVuSans-69"/>
      <use x="674.320312" xlink:href="#DejaVuSans-67"/>
      <use x="737.796875" xlink:href="#DejaVuSans-68"/>
      <use x="801.175781" xlink:href="#DejaVuSans-65"/>
      <use x="862.699219" xlink:href="#DejaVuSans-72"/>
      <use x="903.8125" xlink:href="#DejaVuSans-20"/>
      <use x="935.599609" xlink:href="#DejaVuSans-74"/>
      <use x="974.808594" xlink:href="#DejaVuSans-68"/>
      <use x="1038.1875" xlink:href="#DejaVuSans-61"/>
      <use x="1099.466797" xlink:href="#DejaVuSans-6e"/>
      <use x="1162.845703" xlink:href="#DejaVuSans-20"/>
      <use x="1194.632812" xlink:href="#DejaVuSans-30"/>
      <use x="1258.255859" xlink:href="#DejaVuSans-20"/>
     </g>
     <!-- n=3776 -->
     <g transform="translate(84.81 65.76425)scale(0.1 -0.1)">
      <defs>
       <path d="M 678 2906 
L 4684 2906 
L 4684 2381 
L 678 2381 
L 678 2906 
z
M 678 1631 
L 4684 1631 
L 4684 1100 
L 678 1100 
L 678 1631 
z
" id="DejaVuSans-3d" transform="scale(0.015625)"/>
       <path d="M 2597 2516 
Q 3050 2419 3304 2112 
Q 3559 1806 3559 1356 
Q 3559 666 3084 287 
Q 2609 -91 1734 -91 
Q 1441 -91 1130 -33 
Q 819 25 488 141 
L 488 750 
Q 750 597 1062 519 
Q 1375 441 1716 441 
Q 2309 441 2620 675 
Q 2931 909 2931 1356 
Q 2931 1769 2642 2001 
Q 2353 2234 1838 2234 
L 1294 2234 
L 1294 2753 
L 1863 2753 
Q 2328 2753 2575 2939 
Q 2822 3125 2822 3475 
Q 2822 3834 2567 4026 
Q 2313 4219 1838 4219 
Q 1578 4219 1281 4162 
Q 984 4106 628 3988 
L 628 4550 
Q 988 4650 1302 4700 
Q 1616 4750 1894 4750 
Q 2613 4750 3031 4423 
Q 3450 4097 3450 3541 
Q 3450 3153 3228 2886 
Q 3006 2619 2597 2516 
z
" id="DejaVuSans-33" transform="scale(0.015625)"/>
       <path d="M 525 4666 
L 3525 4666 
L 3525 4397 
L 1831 0 
L 1172 0 
L 2766 4134 
L 525 4134 
L 525 4666 
z
" id="DejaVuSans-37" transform="scale(0.015625)"/>
      </defs>
      <use xlink:href="#DejaVuSans-6e"/>
      <use x="63.378906" xlink:href="#DejaVuSans-3d"/>
      <use x="147.167969" xlink:href="#DejaVuSans-33"/>
      <use x="210.791016" xlink:href="#DejaVuSans-37"/>
      <use x="274.414062" xlink:href="#DejaVuSans-37"/>
      <use x="338.037109" xlink:href="#DejaVuSans-36"/>
     </g>
    </g>
    <g id="patch_9">
     <path d="M 56.81 87.081125 
L 76.81 87.081125 
L 76.81 80.081125 
L 56.81 80.081125 
z
" style="fill:#ff7f0e;fill-opacity:0.4;stroke:#ff7f0e;stroke-linejoin:miter;"/>
    </g>
    <g id="text_16">
     <!-- Correlation higher than 0.8  -->
     <g transform="translate(84.81 80.442375)scale(0.1 -0.1)">
      <use xlink:href="#DejaVuSans-43"/>
      <use x="69.824219" xlink:href="#DejaVuSans-6f"/>
      <use x="131.005859" xlink:href="#DejaVuSans-72"/>
      <use x="170.369141" xlink:href="#DejaVuSans-72"/>
      <use x="209.232422" xlink:href="#DejaVuSans-65"/>
      <use x="270.755859" xlink:href="#DejaVuSans-6c"/>
      <use x="298.539062" xlink:href="#DejaVuSans-61"/>
      <use x="359.818359" xlink:href="#DejaVuSans-74"/>
      <use x="399.027344" xlink:href="#DejaVuSans-69"/>
      <use x="426.810547" xlink:href="#DejaVuSans-6f"/>
      <use x="487.992188" xlink:href="#DejaVuSans-6e"/>
      <use x="551.371094" xlink:href="#DejaVuSans-20"/>
      <use x="583.158203" xlink:href="#DejaVuSans-68"/>
      <use x="646.537109" xlink:href="#DejaVuSans-69"/>
      <use x="674.320312" xlink:href="#DejaVuSans-67"/>
      <use x="737.796875" xlink:href="#DejaVuSans-68"/>
      <use x="801.175781" xlink:href="#DejaVuSans-65"/>
      <use x="862.699219" xlink:href="#DejaVuSans-72"/>
      <use x="903.8125" xlink:href="#DejaVuSans-20"/>
      <use x="935.599609" xlink:href="#DejaVuSans-74"/>
      <use x="974.808594" xlink:href="#DejaVuSans-68"/>
      <use x="1038.1875" xlink:href="#DejaVuSans-61"/>
      <use x="1099.466797" xlink:href="#DejaVuSans-6e"/>
      <use x="1162.845703" xlink:href="#DejaVuSans-20"/>
      <use x="1194.632812" xlink:href="#DejaVuSans-30"/>
      <use x="1258.255859" xlink:href="#DejaVuSans-2e"/>
      <use x="1290.042969" xlink:href="#DejaVuSans-38"/>
      <use x="1353.666016" xlink:href="#DejaVuSans-20"/>
     </g>
     <!-- n=2 -->
     <g transform="translate(84.81 91.640187)scale(0.1 -0.1)">
      <use xlink:href="#DejaVuSans-6e"/>
      <use x="63.378906" xlink:href="#DejaVuSans-3d"/>
      <use x="147.167969" xlink:href="#DejaVuSans-32"/>
     </g>
    </g>
   </g>
  </g>
 </g>
 <defs>
  <clipPath id="p86bf9074ca">
   <rect height="265.672" width="394.225" x="47.81" y="37.968"/>
  </clipPath>
 </defs>
</svg>
