<?xml version="1.0" encoding="utf-8" standalone="no"?>
<!DOCTYPE svg PUBLIC "-//W3C//DTD SVG 1.1//EN"
  "http://www.w3.org/Graphics/SVG/1.1/DTD/svg11.dtd">
<svg height="345.6pt" version="1.1" viewBox="0 0 460.8 345.6" width="460.8pt" xmlns="http://www.w3.org/2000/svg" xmlns:xlink="http://www.w3.org/1999/xlink">
 <metadata>
  <rdf:RDF xmlns:cc="http://creativecommons.org/ns#" xmlns:dc="http://purl.org/dc/elements/1.1/" xmlns:rdf="http://www.w3.org/1999/02/22-rdf-syntax-ns#">
   <cc:Work>
    <dc:type rdf:resource="http://purl.org/dc/dcmitype/StillImage"/>
    <dc:date>2021-12-01T13:38:39.717076</dc:date>
    <dc:format>image/svg+xml</dc:format>
    <dc:creator>
     <cc:Agent>
      <dc:title>Matplotlib v3.4.3, https://matplotlib.org/</dc:title>
     </cc:Agent>
    </dc:creator>
   </cc:Work>
  </rdf:RDF>
 </metadata>
 <defs>
  <style type="text/css">*{stroke-linecap:butt;stroke-linejoin:round;}</style>
 </defs>
 <g id="figure_1">
  <g id="patch_1">
   <path d="M 0 345.6 
L 460.8 345.6 
L 460.8 0 
L 0 0 
z
" style="fill:#ffffff;"/>
  </g>
  <g id="axes_1">
   <g id="patch_2">
    <path d="M 54.2 303.64 
L 442.035 303.64 
L 442.035 37.968 
L 54.2 37.968 
z
" style="fill:#ffffff;"/>
   </g>
   <g id="PolyCollection_1">
    <path clip-path="url(#p55fa943bf1)" d="M -32.45568 303.165305 
L -32.45568 303.64 
L -29.401979 303.64 
L -26.348277 303.64 
L -23.294576 303.64 
L -20.240875 303.64 
L -17.187174 303.64 
L -14.133472 303.64 
L -11.079771 303.64 
L -8.02607 303.64 
L -4.972368 303.64 
L -1.918667 303.64 
L 1.135034 303.64 
L 4.188736 303.64 
L 7.242437 303.64 
L 10.296138 303.64 
L 13.34984 303.64 
L 16.403541 303.64 
L 19.457242 303.64 
L 22.510943 303.64 
L 25.564645 303.64 
L 28.618346 303.64 
L 31.672047 303.64 
L 34.725749 303.64 
L 37.77945 303.64 
L 40.833151 303.64 
L 43.886853 303.64 
L 46.940554 303.64 
L 49.994255 303.64 
L 53.047957 303.64 
L 56.101658 303.64 
L 59.155359 303.64 
L 62.20906 303.64 
L 65.262762 303.64 
L 68.316463 303.64 
L 71.370164 303.64 
L 74.423866 303.64 
L 77.477567 303.64 
L 80.531268 303.64 
L 83.58497 303.64 
L 86.638671 303.64 
L 89.692372 303.64 
L 92.746074 303.64 
L 95.799775 303.64 
L 98.853476 303.64 
L 101.907177 303.64 
L 104.960879 303.64 
L 108.01458 303.64 
L 111.068281 303.64 
L 114.121983 303.64 
L 117.175684 303.64 
L 120.229385 303.64 
L 123.283087 303.64 
L 126.336788 303.64 
L 129.390489 303.64 
L 132.444191 303.64 
L 135.497892 303.64 
L 138.551593 303.64 
L 141.605294 303.64 
L 144.658996 303.64 
L 147.712697 303.64 
L 150.766398 303.64 
L 153.8201 303.64 
L 156.873801 303.64 
L 159.927502 303.64 
L 162.981204 303.64 
L 166.034905 303.64 
L 169.088606 303.64 
L 172.142308 303.64 
L 175.196009 303.64 
L 178.24971 303.64 
L 181.303411 303.64 
L 184.357113 303.64 
L 187.410814 303.64 
L 190.464515 303.64 
L 193.518217 303.64 
L 196.571918 303.64 
L 199.625619 303.64 
L 202.679321 303.64 
L 205.733022 303.64 
L 208.786723 303.64 
L 211.840425 303.64 
L 214.894126 303.64 
L 217.947827 303.64 
L 221.001528 303.64 
L 224.05523 303.64 
L 227.108931 303.64 
L 230.162632 303.64 
L 233.216334 303.64 
L 236.270035 303.64 
L 239.323736 303.64 
L 242.377438 303.64 
L 245.431139 303.64 
L 248.48484 303.64 
L 251.538542 303.64 
L 254.592243 303.64 
L 257.645944 303.64 
L 260.699645 303.64 
L 263.753347 303.64 
L 266.807048 303.64 
L 269.860749 303.64 
L 272.914451 303.64 
L 275.968152 303.64 
L 279.021853 303.64 
L 282.075555 303.64 
L 285.129256 303.64 
L 288.182957 303.64 
L 291.236658 303.64 
L 294.29036 303.64 
L 297.344061 303.64 
L 300.397762 303.64 
L 303.451464 303.64 
L 306.505165 303.64 
L 309.558866 303.64 
L 312.612568 303.64 
L 315.666269 303.64 
L 318.71997 303.64 
L 321.773672 303.64 
L 324.827373 303.64 
L 327.881074 303.64 
L 330.934775 303.64 
L 333.988477 303.64 
L 337.042178 303.64 
L 340.095879 303.64 
L 343.149581 303.64 
L 346.203282 303.64 
L 349.256983 303.64 
L 352.310685 303.64 
L 355.364386 303.64 
L 358.418087 303.64 
L 361.471789 303.64 
L 364.52549 303.64 
L 367.579191 303.64 
L 370.632892 303.64 
L 373.686594 303.64 
L 376.740295 303.64 
L 379.793996 303.64 
L 382.847698 303.64 
L 385.901399 303.64 
L 388.9551 303.64 
L 392.008802 303.64 
L 395.062503 303.64 
L 398.116204 303.64 
L 401.169906 303.64 
L 404.223607 303.64 
L 407.277308 303.64 
L 410.331009 303.64 
L 413.384711 303.64 
L 416.438412 303.64 
L 419.492113 303.64 
L 422.545815 303.64 
L 425.599516 303.64 
L 428.653217 303.64 
L 431.706919 303.64 
L 434.76062 303.64 
L 437.814321 303.64 
L 440.868023 303.64 
L 443.921724 303.64 
L 446.975425 303.64 
L 450.029126 303.64 
L 453.082828 303.64 
L 456.136529 303.64 
L 459.19023 303.64 
L 462.243932 303.64 
L 465.297633 303.64 
L 468.351334 303.64 
L 471.405036 303.64 
L 474.458737 303.64 
L 477.512438 303.64 
L 480.56614 303.64 
L 483.619841 303.64 
L 486.673542 303.64 
L 489.727243 303.64 
L 492.780945 303.64 
L 495.834646 303.64 
L 498.888347 303.64 
L 501.942049 303.64 
L 504.99575 303.64 
L 508.049451 303.64 
L 511.103153 303.64 
L 514.156854 303.64 
L 517.210555 303.64 
L 520.264257 303.64 
L 523.317958 303.64 
L 526.371659 303.64 
L 529.42536 303.64 
L 532.479062 303.64 
L 535.532763 303.64 
L 538.586464 303.64 
L 541.640166 303.64 
L 544.693867 303.64 
L 547.747568 303.64 
L 550.80127 303.64 
L 553.854971 303.64 
L 556.908672 303.64 
L 559.962374 303.64 
L 563.016075 303.64 
L 566.069776 303.64 
L 569.123477 303.64 
L 572.177179 303.64 
L 575.23088 303.64 
L 575.23088 301.977958 
L 575.23088 301.977958 
L 572.177179 301.594401 
L 569.123477 301.133914 
L 566.069776 300.58388 
L 563.016075 299.930241 
L 559.962374 299.15746 
L 556.908672 298.248519 
L 553.854971 297.184946 
L 550.80127 295.946888 
L 547.747568 294.513228 
L 544.693867 292.861752 
L 541.640166 290.969382 
L 538.586464 288.812456 
L 535.532763 286.367086 
L 532.479062 283.609568 
L 529.42536 280.516852 
L 526.371659 277.067082 
L 523.317958 273.240173 
L 520.264257 269.018432 
L 517.210555 264.387216 
L 514.156854 259.335591 
L 511.103153 253.857001 
L 508.049451 247.949909 
L 504.99575 241.618391 
L 501.942049 234.872678 
L 498.888347 227.729598 
L 495.834646 220.212922 
L 492.780945 212.353573 
L 489.727243 204.189696 
L 486.673542 195.766565 
L 483.619841 187.136317 
L 480.56614 178.357514 
L 477.512438 169.494521 
L 474.458737 160.616714 
L 471.405036 151.797526 
L 468.351334 143.113343 
L 465.297633 134.642275 
L 462.243932 126.462837 
L 459.19023 118.65255 
L 456.136529 111.286522 
L 453.082828 104.436025 
L 450.029126 98.167114 
L 446.975425 92.539336 
L 443.921724 87.604538 
L 440.868023 83.40583 
L 437.814321 79.976733 
L 434.76062 77.340509 
L 431.706919 75.509728 
L 428.653217 74.48605 
L 425.599516 74.260249 
L 422.545815 74.812466 
L 419.492113 76.112687 
L 416.438412 78.121422 
L 413.384711 80.790581 
L 410.331009 84.0645 
L 407.277308 87.881108 
L 404.223607 92.173187 
L 401.169906 96.8697 
L 398.116204 101.897157 
L 395.062503 107.18097 
L 392.008802 112.646784 
L 388.9551 118.221744 
L 385.901399 123.835671 
L 382.847698 129.422135 
L 379.793996 134.919394 
L 376.740295 140.271197 
L 373.686594 145.427434 
L 370.632892 150.344629 
L 367.579191 154.986285 
L 364.52549 159.323061 
L 361.471789 163.332819 
L 358.418087 167.00052 
L 355.364386 170.318002 
L 352.310685 173.283639 
L 349.256983 175.901908 
L 346.203282 178.182869 
L 343.149581 180.141586 
L 340.095879 181.797487 
L 337.042178 183.173704 
L 333.988477 184.296385 
L 330.934775 185.194006 
L 327.881074 185.896694 
L 324.827373 186.435569 
L 321.773672 186.842118 
L 318.71997 187.147611 
L 315.666269 187.382567 
L 312.612568 187.576267 
L 309.558866 187.756336 
L 306.505165 187.948376 
L 303.451464 188.175664 
L 300.397762 188.458915 
L 297.344061 188.816099 
L 294.29036 189.262323 
L 291.236658 189.809764 
L 288.182957 190.467653 
L 285.129256 191.242304 
L 282.075555 192.137192 
L 279.021853 193.153059 
L 275.968152 194.288059 
L 272.914451 195.537922 
L 269.860749 196.896149 
L 266.807048 198.354216 
L 263.753347 199.901798 
L 260.699645 201.526997 
L 257.645944 203.216582 
L 254.592243 204.95622 
L 251.538542 206.730723 
L 248.48484 208.524279 
L 245.431139 210.320686 
L 242.377438 212.103575 
L 239.323736 213.856635 
L 236.270035 215.563817 
L 233.216334 217.209537 
L 230.162632 218.778868 
L 227.108931 220.257721 
L 224.05523 221.633009 
L 221.001528 222.892814 
L 217.947827 224.026523 
L 214.894126 225.024969 
L 211.840425 225.880545 
L 208.786723 226.587315 
L 205.733022 227.141106 
L 202.679321 227.539582 
L 199.625619 227.782313 
L 196.571918 227.87081 
L 193.518217 227.808563 
L 190.464515 227.601038 
L 187.410814 227.255674 
L 184.357113 226.781844 
L 181.303411 226.190801 
L 178.24971 225.495599 
L 175.196009 224.710984 
L 172.142308 223.853273 
L 169.088606 222.940193 
L 166.034905 221.990706 
L 162.981204 221.024803 
L 159.927502 220.063278 
L 156.873801 219.127483 
L 153.8201 218.239056 
L 150.766398 217.419642 
L 147.712697 216.690596 
L 144.658996 216.072683 
L 141.605294 215.585769 
L 138.551593 215.24852 
L 135.497892 215.078105 
L 132.444191 215.089918 
L 129.390489 215.297314 
L 126.336788 215.711379 
L 123.283087 216.340723 
L 120.229385 217.19132 
L 117.175684 218.266382 
L 114.121983 219.566286 
L 111.068281 221.088547 
L 108.01458 222.827837 
L 104.960879 224.776069 
L 101.907177 226.922516 
L 98.853476 229.253991 
L 95.799775 231.755064 
L 92.746074 234.408328 
L 89.692372 237.194695 
L 86.638671 240.093719 
L 83.58497 243.083946 
L 80.531268 246.143269 
L 77.477567 249.249297 
L 74.423866 252.379714 
L 71.370164 255.512622 
L 68.316463 258.626876 
L 65.262762 261.70238 
L 62.20906 264.720358 
L 59.155359 267.663585 
L 56.101658 270.51657 
L 53.047957 273.265708 
L 49.994255 275.899375 
L 46.940554 278.407983 
L 43.886853 280.783991 
L 40.833151 283.021873 
L 37.77945 285.118055 
L 34.725749 287.070808 
L 31.672047 288.880124 
L 28.618346 290.547564 
L 25.564645 292.076086 
L 22.510943 293.469868 
L 19.457242 294.734122 
L 16.403541 295.874903 
L 13.34984 296.898928 
L 10.296138 297.8134 
L 7.242437 298.625839 
L 4.188736 299.343931 
L 1.135034 299.975393 
L -1.918667 300.527851 
L -4.972368 301.008738 
L -8.02607 301.425208 
L -11.079771 301.784072 
L -14.133472 302.091741 
L -17.187174 302.354194 
L -20.240875 302.576955 
L -23.294576 302.765081 
L -26.348277 302.923164 
L -29.401979 303.05534 
L -32.45568 303.165305 
z
" style="fill:#1f77b4;fill-opacity:0.4;stroke:#1f77b4;"/>
   </g>
   <g id="PolyCollection_2">
    <path clip-path="url(#p55fa943bf1)" d="M -17.587217 303.234342 
L -17.587217 303.64 
L -14.37112 303.64 
L -11.155024 303.64 
L -7.938927 303.64 
L -4.72283 303.64 
L -1.506734 303.64 
L 1.709363 303.64 
L 4.92546 303.64 
L 8.141556 303.64 
L 11.357653 303.64 
L 14.573749 303.64 
L 17.789846 303.64 
L 21.005943 303.64 
L 24.222039 303.64 
L 27.438136 303.64 
L 30.654233 303.64 
L 33.870329 303.64 
L 37.086426 303.64 
L 40.302523 303.64 
L 43.518619 303.64 
L 46.734716 303.64 
L 49.950813 303.64 
L 53.166909 303.64 
L 56.383006 303.64 
L 59.599103 303.64 
L 62.815199 303.64 
L 66.031296 303.64 
L 69.247393 303.64 
L 72.463489 303.64 
L 75.679586 303.64 
L 78.895683 303.64 
L 82.111779 303.64 
L 85.327876 303.64 
L 88.543973 303.64 
L 91.760069 303.64 
L 94.976166 303.64 
L 98.192262 303.64 
L 101.408359 303.64 
L 104.624456 303.64 
L 107.840552 303.64 
L 111.056649 303.64 
L 114.272746 303.64 
L 117.488842 303.64 
L 120.704939 303.64 
L 123.921036 303.64 
L 127.137132 303.64 
L 130.353229 303.64 
L 133.569326 303.64 
L 136.785422 303.64 
L 140.001519 303.64 
L 143.217616 303.64 
L 146.433712 303.64 
L 149.649809 303.64 
L 152.865906 303.64 
L 156.082002 303.64 
L 159.298099 303.64 
L 162.514196 303.64 
L 165.730292 303.64 
L 168.946389 303.64 
L 172.162486 303.64 
L 175.378582 303.64 
L 178.594679 303.64 
L 181.810775 303.64 
L 185.026872 303.64 
L 188.242969 303.64 
L 191.459065 303.64 
L 194.675162 303.64 
L 197.891259 303.64 
L 201.107355 303.64 
L 204.323452 303.64 
L 207.539549 303.64 
L 210.755645 303.64 
L 213.971742 303.64 
L 217.187839 303.64 
L 220.403935 303.64 
L 223.620032 303.64 
L 226.836129 303.64 
L 230.052225 303.64 
L 233.268322 303.64 
L 236.484419 303.64 
L 239.700515 303.64 
L 242.916612 303.64 
L 246.132709 303.64 
L 249.348805 303.64 
L 252.564902 303.64 
L 255.780999 303.64 
L 258.997095 303.64 
L 262.213192 303.64 
L 265.429288 303.64 
L 268.645385 303.64 
L 271.861482 303.64 
L 275.077578 303.64 
L 278.293675 303.64 
L 281.509772 303.64 
L 284.725868 303.64 
L 287.941965 303.64 
L 291.158062 303.64 
L 294.374158 303.64 
L 297.590255 303.64 
L 300.806352 303.64 
L 304.022448 303.64 
L 307.238545 303.64 
L 310.454642 303.64 
L 313.670738 303.64 
L 316.886835 303.64 
L 320.102932 303.64 
L 323.319028 303.64 
L 326.535125 303.64 
L 329.751222 303.64 
L 332.967318 303.64 
L 336.183415 303.64 
L 339.399512 303.64 
L 342.615608 303.64 
L 345.831705 303.64 
L 349.047801 303.64 
L 352.263898 303.64 
L 355.479995 303.64 
L 358.696091 303.64 
L 361.912188 303.64 
L 365.128285 303.64 
L 368.344381 303.64 
L 371.560478 303.64 
L 374.776575 303.64 
L 377.992671 303.64 
L 381.208768 303.64 
L 384.424865 303.64 
L 387.640961 303.64 
L 390.857058 303.64 
L 394.073155 303.64 
L 397.289251 303.64 
L 400.505348 303.64 
L 403.721445 303.64 
L 406.937541 303.64 
L 410.153638 303.64 
L 413.369735 303.64 
L 416.585831 303.64 
L 419.801928 303.64 
L 423.018025 303.64 
L 426.234121 303.64 
L 429.450218 303.64 
L 432.666314 303.64 
L 435.882411 303.64 
L 439.098508 303.64 
L 442.314604 303.64 
L 445.530701 303.64 
L 448.746798 303.64 
L 451.962894 303.64 
L 455.178991 303.64 
L 458.395088 303.64 
L 461.611184 303.64 
L 464.827281 303.64 
L 468.043378 303.64 
L 471.259474 303.64 
L 474.475571 303.64 
L 477.691668 303.64 
L 480.907764 303.64 
L 484.123861 303.64 
L 487.339958 303.64 
L 490.556054 303.64 
L 493.772151 303.64 
L 496.988248 303.64 
L 500.204344 303.64 
L 503.420441 303.64 
L 506.636538 303.64 
L 509.852634 303.64 
L 513.068731 303.64 
L 516.284827 303.64 
L 519.500924 303.64 
L 522.717021 303.64 
L 525.933117 303.64 
L 529.149214 303.64 
L 532.365311 303.64 
L 535.581407 303.64 
L 538.797504 303.64 
L 542.013601 303.64 
L 545.229697 303.64 
L 548.445794 303.64 
L 551.661891 303.64 
L 554.877987 303.64 
L 558.094084 303.64 
L 561.310181 303.64 
L 564.526277 303.64 
L 567.742374 303.64 
L 570.958471 303.64 
L 574.174567 303.64 
L 577.390664 303.64 
L 580.606761 303.64 
L 583.822857 303.64 
L 587.038954 303.64 
L 590.255051 303.64 
L 593.471147 303.64 
L 596.687244 303.64 
L 599.90334 303.64 
L 603.119437 303.64 
L 606.335534 303.64 
L 609.55163 303.64 
L 612.767727 303.64 
L 615.983824 303.64 
L 619.19992 303.64 
L 622.416017 303.64 
L 622.416017 301.626576 
L 622.416017 301.626576 
L 619.19992 301.272145 
L 615.983824 300.863136 
L 612.767727 300.392612 
L 609.55163 299.853006 
L 606.335534 299.236114 
L 603.119437 298.533078 
L 599.90334 297.734393 
L 596.687244 296.829913 
L 593.471147 295.808875 
L 590.255051 294.659934 
L 587.038954 293.371206 
L 583.822857 291.930334 
L 580.606761 290.324563 
L 577.390664 288.540839 
L 574.174567 286.565916 
L 570.958471 284.386489 
L 567.742374 281.989342 
L 564.526277 279.361506 
L 561.310181 276.49045 
L 558.094084 273.36427 
L 554.877987 269.971901 
L 551.661891 266.30334 
L 548.445794 262.349875 
L 545.229697 258.104325 
L 542.013601 253.561276 
L 538.797504 248.717319 
L 535.581407 243.571284 
L 532.365311 238.124461 
L 529.149214 232.380803 
L 525.933117 226.347118 
L 522.717021 220.033225 
L 519.500924 213.452084 
L 516.284827 206.619898 
L 513.068731 199.55616 
L 509.852634 192.283673 
L 506.636538 184.828513 
L 503.420441 177.219942 
L 500.204344 169.49028 
L 496.988248 161.674709 
L 493.772151 153.811038 
L 490.556054 145.939407 
L 487.339958 138.101951 
L 484.123861 130.342402 
L 480.907764 122.705669 
L 477.691668 115.237366 
L 474.475571 107.983313 
L 471.259474 100.989022 
L 468.043378 94.299154 
L 464.827281 87.956979 
L 461.611184 82.003838 
L 458.395088 76.478613 
L 455.178991 71.417217 
L 451.962894 66.852123 
L 448.746798 62.811917 
L 445.530701 59.320915 
L 442.314604 56.398826 
L 439.098508 54.060474 
L 435.882411 52.315597 
L 432.666314 51.168711 
L 429.450218 50.619048 
L 426.234121 50.660575 
L 423.018025 51.282089 
L 419.801928 52.467384 
L 416.585831 54.195493 
L 413.369735 56.440999 
L 410.153638 59.174406 
L 406.937541 62.362572 
L 403.721445 65.969186 
L 400.505348 69.955284 
L 397.289251 74.2798 
L 394.073155 78.900136 
L 390.857058 83.772742 
L 387.640961 88.853698 
L 384.424865 94.099284 
L 381.208768 99.466534 
L 377.992671 104.913762 
L 374.776575 110.401048 
L 371.560478 115.890682 
L 368.344381 121.347557 
L 365.128285 126.739506 
L 361.912188 132.037579 
L 358.696091 137.216254 
L 355.479995 142.253588 
L 352.263898 147.131295 
L 349.047801 151.83477 
L 345.831705 156.353041 
L 342.615608 160.678666 
L 339.399512 164.807578 
L 336.183415 168.738876 
L 332.967318 172.474572 
L 329.751222 176.019309 
L 326.535125 179.380036 
L 323.319028 182.565677 
L 320.102932 185.58677 
L 316.886835 188.455106 
L 313.670738 191.183374 
L 310.454642 193.784799 
L 307.238545 196.272808 
L 304.022448 198.66071 
L 300.806352 200.9614 
L 297.590255 203.1871 
L 294.374158 205.349126 
L 291.158062 207.457701 
L 287.941965 209.521799 
L 284.725868 211.549035 
L 281.509772 213.545596 
L 278.293675 215.516207 
L 275.077578 217.464142 
L 271.861482 219.391266 
L 268.645385 221.298114 
L 265.429288 223.183997 
L 262.213192 225.047138 
L 258.997095 226.884822 
L 255.780999 228.693573 
L 252.564902 230.469332 
L 249.348805 232.207647 
L 246.132709 233.903867 
L 242.916612 235.553327 
L 239.700515 237.151533 
L 236.484419 238.694324 
L 233.268322 240.178036 
L 230.052225 241.599629 
L 226.836129 242.956807 
L 223.620032 244.248107 
L 220.403935 245.47297 
L 217.187839 246.63178 
L 213.971742 247.725882 
L 210.755645 248.757574 
L 207.539549 249.730078 
L 204.323452 250.647482 
L 201.107355 251.514668 
L 197.891259 252.337219 
L 194.675162 253.121315 
L 191.459065 253.873606 
L 188.242969 254.601092 
L 185.026872 255.310981 
L 181.810775 256.010558 
L 178.594679 256.707044 
L 175.378582 257.407463 
L 172.162486 258.118522 
L 168.946389 258.846483 
L 165.730292 259.597068 
L 162.514196 260.375356 
L 159.298099 261.185716 
L 156.082002 262.031734 
L 152.865906 262.916175 
L 149.649809 263.840955 
L 146.433712 264.807125 
L 143.217616 265.814879 
L 140.001519 266.86358 
L 136.785422 267.951785 
L 133.569326 269.077306 
L 130.353229 270.237264 
L 127.137132 271.42816 
L 123.921036 272.645957 
L 120.704939 273.886165 
L 117.488842 275.143925 
L 114.272746 276.414107 
L 111.056649 277.691398 
L 107.840552 278.97039 
L 104.624456 280.245673 
L 101.408359 281.511908 
L 98.192262 282.763911 
L 94.976166 283.996718 
L 91.760069 285.205647 
L 88.543973 286.386348 
L 85.327876 287.534851 
L 82.111779 288.647595 
L 78.895683 289.721459 
L 75.679586 290.753775 
L 72.463489 291.742334 
L 69.247393 292.68539 
L 66.031296 293.581652 
L 62.815199 294.430268 
L 59.599103 295.230805 
L 56.383006 295.983229 
L 53.166909 296.687868 
L 49.950813 297.34539 
L 46.734716 297.956761 
L 43.518619 298.523214 
L 40.302523 299.046212 
L 37.086426 299.52741 
L 33.870329 299.96862 
L 30.654233 300.37178 
L 27.438136 300.738916 
L 24.222039 301.072118 
L 21.005943 301.373504 
L 17.789846 301.645201 
L 14.573749 301.889321 
L 11.357653 302.107936 
L 8.141556 302.303067 
L 4.92546 302.476667 
L 1.709363 302.630608 
L -1.506734 302.766674 
L -4.72283 302.886552 
L -7.938927 302.991828 
L -11.155024 303.083984 
L -14.37112 303.164397 
L -17.587217 303.234342 
z
" style="fill:#ff7f0e;fill-opacity:0.4;stroke:#ff7f0e;"/>
   </g>
   <g id="matplotlib.axis_1">
    <g id="xtick_1">
     <g id="line2d_1">
      <defs>
       <path d="M 0 0 
L 0 3.5 
" id="ma109d1eadc" style="stroke:#000000;stroke-width:0.8;"/>
      </defs>
      <g>
       <use style="stroke:#000000;stroke-width:0.8;" x="54.2" xlink:href="#ma109d1eadc" y="303.64"/>
      </g>
     </g>
     <g id="text_1">
      <!-- 0.0 -->
      <g transform="translate(46.248438 318.238437)scale(0.1 -0.1)">
       <defs>
        <path d="M 2034 4250 
Q 1547 4250 1301 3770 
Q 1056 3291 1056 2328 
Q 1056 1369 1301 889 
Q 1547 409 2034 409 
Q 2525 409 2770 889 
Q 3016 1369 3016 2328 
Q 3016 3291 2770 3770 
Q 2525 4250 2034 4250 
z
M 2034 4750 
Q 2819 4750 3233 4129 
Q 3647 3509 3647 2328 
Q 3647 1150 3233 529 
Q 2819 -91 2034 -91 
Q 1250 -91 836 529 
Q 422 1150 422 2328 
Q 422 3509 836 4129 
Q 1250 4750 2034 4750 
z
" id="DejaVuSans-30" transform="scale(0.015625)"/>
        <path d="M 684 794 
L 1344 794 
L 1344 0 
L 684 0 
L 684 794 
z
" id="DejaVuSans-2e" transform="scale(0.015625)"/>
       </defs>
       <use xlink:href="#DejaVuSans-30"/>
       <use x="63.623047" xlink:href="#DejaVuSans-2e"/>
       <use x="95.410156" xlink:href="#DejaVuSans-30"/>
      </g>
     </g>
    </g>
    <g id="xtick_2">
     <g id="line2d_2">
      <g>
       <use style="stroke:#000000;stroke-width:0.8;" x="131.767" xlink:href="#ma109d1eadc" y="303.64"/>
      </g>
     </g>
     <g id="text_2">
      <!-- 0.2 -->
      <g transform="translate(123.815438 318.238437)scale(0.1 -0.1)">
       <defs>
        <path d="M 1228 531 
L 3431 531 
L 3431 0 
L 469 0 
L 469 531 
Q 828 903 1448 1529 
Q 2069 2156 2228 2338 
Q 2531 2678 2651 2914 
Q 2772 3150 2772 3378 
Q 2772 3750 2511 3984 
Q 2250 4219 1831 4219 
Q 1534 4219 1204 4116 
Q 875 4013 500 3803 
L 500 4441 
Q 881 4594 1212 4672 
Q 1544 4750 1819 4750 
Q 2544 4750 2975 4387 
Q 3406 4025 3406 3419 
Q 3406 3131 3298 2873 
Q 3191 2616 2906 2266 
Q 2828 2175 2409 1742 
Q 1991 1309 1228 531 
z
" id="DejaVuSans-32" transform="scale(0.015625)"/>
       </defs>
       <use xlink:href="#DejaVuSans-30"/>
       <use x="63.623047" xlink:href="#DejaVuSans-2e"/>
       <use x="95.410156" xlink:href="#DejaVuSans-32"/>
      </g>
     </g>
    </g>
    <g id="xtick_3">
     <g id="line2d_3">
      <g>
       <use style="stroke:#000000;stroke-width:0.8;" x="209.334" xlink:href="#ma109d1eadc" y="303.64"/>
      </g>
     </g>
     <g id="text_3">
      <!-- 0.4 -->
      <g transform="translate(201.382438 318.238437)scale(0.1 -0.1)">
       <defs>
        <path d="M 2419 4116 
L 825 1625 
L 2419 1625 
L 2419 4116 
z
M 2253 4666 
L 3047 4666 
L 3047 1625 
L 3713 1625 
L 3713 1100 
L 3047 1100 
L 3047 0 
L 2419 0 
L 2419 1100 
L 313 1100 
L 313 1709 
L 2253 4666 
z
" id="DejaVuSans-34" transform="scale(0.015625)"/>
       </defs>
       <use xlink:href="#DejaVuSans-30"/>
       <use x="63.623047" xlink:href="#DejaVuSans-2e"/>
       <use x="95.410156" xlink:href="#DejaVuSans-34"/>
      </g>
     </g>
    </g>
    <g id="xtick_4">
     <g id="line2d_4">
      <g>
       <use style="stroke:#000000;stroke-width:0.8;" x="286.901" xlink:href="#ma109d1eadc" y="303.64"/>
      </g>
     </g>
     <g id="text_4">
      <!-- 0.6 -->
      <g transform="translate(278.949437 318.238437)scale(0.1 -0.1)">
       <defs>
        <path d="M 2113 2584 
Q 1688 2584 1439 2293 
Q 1191 2003 1191 1497 
Q 1191 994 1439 701 
Q 1688 409 2113 409 
Q 2538 409 2786 701 
Q 3034 994 3034 1497 
Q 3034 2003 2786 2293 
Q 2538 2584 2113 2584 
z
M 3366 4563 
L 3366 3988 
Q 3128 4100 2886 4159 
Q 2644 4219 2406 4219 
Q 1781 4219 1451 3797 
Q 1122 3375 1075 2522 
Q 1259 2794 1537 2939 
Q 1816 3084 2150 3084 
Q 2853 3084 3261 2657 
Q 3669 2231 3669 1497 
Q 3669 778 3244 343 
Q 2819 -91 2113 -91 
Q 1303 -91 875 529 
Q 447 1150 447 2328 
Q 447 3434 972 4092 
Q 1497 4750 2381 4750 
Q 2619 4750 2861 4703 
Q 3103 4656 3366 4563 
z
" id="DejaVuSans-36" transform="scale(0.015625)"/>
       </defs>
       <use xlink:href="#DejaVuSans-30"/>
       <use x="63.623047" xlink:href="#DejaVuSans-2e"/>
       <use x="95.410156" xlink:href="#DejaVuSans-36"/>
      </g>
     </g>
    </g>
    <g id="xtick_5">
     <g id="line2d_5">
      <g>
       <use style="stroke:#000000;stroke-width:0.8;" x="364.468" xlink:href="#ma109d1eadc" y="303.64"/>
      </g>
     </g>
     <g id="text_5">
      <!-- 0.8 -->
      <g transform="translate(356.516437 318.238437)scale(0.1 -0.1)">
       <defs>
        <path d="M 2034 2216 
Q 1584 2216 1326 1975 
Q 1069 1734 1069 1313 
Q 1069 891 1326 650 
Q 1584 409 2034 409 
Q 2484 409 2743 651 
Q 3003 894 3003 1313 
Q 3003 1734 2745 1975 
Q 2488 2216 2034 2216 
z
M 1403 2484 
Q 997 2584 770 2862 
Q 544 3141 544 3541 
Q 544 4100 942 4425 
Q 1341 4750 2034 4750 
Q 2731 4750 3128 4425 
Q 3525 4100 3525 3541 
Q 3525 3141 3298 2862 
Q 3072 2584 2669 2484 
Q 3125 2378 3379 2068 
Q 3634 1759 3634 1313 
Q 3634 634 3220 271 
Q 2806 -91 2034 -91 
Q 1263 -91 848 271 
Q 434 634 434 1313 
Q 434 1759 690 2068 
Q 947 2378 1403 2484 
z
M 1172 3481 
Q 1172 3119 1398 2916 
Q 1625 2713 2034 2713 
Q 2441 2713 2670 2916 
Q 2900 3119 2900 3481 
Q 2900 3844 2670 4047 
Q 2441 4250 2034 4250 
Q 1625 4250 1398 4047 
Q 1172 3844 1172 3481 
z
" id="DejaVuSans-38" transform="scale(0.015625)"/>
       </defs>
       <use xlink:href="#DejaVuSans-30"/>
       <use x="63.623047" xlink:href="#DejaVuSans-2e"/>
       <use x="95.410156" xlink:href="#DejaVuSans-38"/>
      </g>
     </g>
    </g>
    <g id="xtick_6">
     <g id="line2d_6">
      <g>
       <use style="stroke:#000000;stroke-width:0.8;" x="442.035" xlink:href="#ma109d1eadc" y="303.64"/>
      </g>
     </g>
     <g id="text_6">
      <!-- 1.0 -->
      <g transform="translate(434.083437 318.238437)scale(0.1 -0.1)">
       <defs>
        <path d="M 794 531 
L 1825 531 
L 1825 4091 
L 703 3866 
L 703 4441 
L 1819 4666 
L 2450 4666 
L 2450 531 
L 3481 531 
L 3481 0 
L 794 0 
L 794 531 
z
" id="DejaVuSans-31" transform="scale(0.015625)"/>
       </defs>
       <use xlink:href="#DejaVuSans-31"/>
       <use x="63.623047" xlink:href="#DejaVuSans-2e"/>
       <use x="95.410156" xlink:href="#DejaVuSans-30"/>
      </g>
     </g>
    </g>
    <g id="text_7">
     <!-- Credibility index -->
     <g transform="translate(207.512812 331.916562)scale(0.1 -0.1)">
      <defs>
       <path d="M 4122 4306 
L 4122 3641 
Q 3803 3938 3442 4084 
Q 3081 4231 2675 4231 
Q 1875 4231 1450 3742 
Q 1025 3253 1025 2328 
Q 1025 1406 1450 917 
Q 1875 428 2675 428 
Q 3081 428 3442 575 
Q 3803 722 4122 1019 
L 4122 359 
Q 3791 134 3420 21 
Q 3050 -91 2638 -91 
Q 1578 -91 968 557 
Q 359 1206 359 2328 
Q 359 3453 968 4101 
Q 1578 4750 2638 4750 
Q 3056 4750 3426 4639 
Q 3797 4528 4122 4306 
z
" id="DejaVuSans-43" transform="scale(0.015625)"/>
       <path d="M 2631 2963 
Q 2534 3019 2420 3045 
Q 2306 3072 2169 3072 
Q 1681 3072 1420 2755 
Q 1159 2438 1159 1844 
L 1159 0 
L 581 0 
L 581 3500 
L 1159 3500 
L 1159 2956 
Q 1341 3275 1631 3429 
Q 1922 3584 2338 3584 
Q 2397 3584 2469 3576 
Q 2541 3569 2628 3553 
L 2631 2963 
z
" id="DejaVuSans-72" transform="scale(0.015625)"/>
       <path d="M 3597 1894 
L 3597 1613 
L 953 1613 
Q 991 1019 1311 708 
Q 1631 397 2203 397 
Q 2534 397 2845 478 
Q 3156 559 3463 722 
L 3463 178 
Q 3153 47 2828 -22 
Q 2503 -91 2169 -91 
Q 1331 -91 842 396 
Q 353 884 353 1716 
Q 353 2575 817 3079 
Q 1281 3584 2069 3584 
Q 2775 3584 3186 3129 
Q 3597 2675 3597 1894 
z
M 3022 2063 
Q 3016 2534 2758 2815 
Q 2500 3097 2075 3097 
Q 1594 3097 1305 2825 
Q 1016 2553 972 2059 
L 3022 2063 
z
" id="DejaVuSans-65" transform="scale(0.015625)"/>
       <path d="M 2906 2969 
L 2906 4863 
L 3481 4863 
L 3481 0 
L 2906 0 
L 2906 525 
Q 2725 213 2448 61 
Q 2172 -91 1784 -91 
Q 1150 -91 751 415 
Q 353 922 353 1747 
Q 353 2572 751 3078 
Q 1150 3584 1784 3584 
Q 2172 3584 2448 3432 
Q 2725 3281 2906 2969 
z
M 947 1747 
Q 947 1113 1208 752 
Q 1469 391 1925 391 
Q 2381 391 2643 752 
Q 2906 1113 2906 1747 
Q 2906 2381 2643 2742 
Q 2381 3103 1925 3103 
Q 1469 3103 1208 2742 
Q 947 2381 947 1747 
z
" id="DejaVuSans-64" transform="scale(0.015625)"/>
       <path d="M 603 3500 
L 1178 3500 
L 1178 0 
L 603 0 
L 603 3500 
z
M 603 4863 
L 1178 4863 
L 1178 4134 
L 603 4134 
L 603 4863 
z
" id="DejaVuSans-69" transform="scale(0.015625)"/>
       <path d="M 3116 1747 
Q 3116 2381 2855 2742 
Q 2594 3103 2138 3103 
Q 1681 3103 1420 2742 
Q 1159 2381 1159 1747 
Q 1159 1113 1420 752 
Q 1681 391 2138 391 
Q 2594 391 2855 752 
Q 3116 1113 3116 1747 
z
M 1159 2969 
Q 1341 3281 1617 3432 
Q 1894 3584 2278 3584 
Q 2916 3584 3314 3078 
Q 3713 2572 3713 1747 
Q 3713 922 3314 415 
Q 2916 -91 2278 -91 
Q 1894 -91 1617 61 
Q 1341 213 1159 525 
L 1159 0 
L 581 0 
L 581 4863 
L 1159 4863 
L 1159 2969 
z
" id="DejaVuSans-62" transform="scale(0.015625)"/>
       <path d="M 603 4863 
L 1178 4863 
L 1178 0 
L 603 0 
L 603 4863 
z
" id="DejaVuSans-6c" transform="scale(0.015625)"/>
       <path d="M 1172 4494 
L 1172 3500 
L 2356 3500 
L 2356 3053 
L 1172 3053 
L 1172 1153 
Q 1172 725 1289 603 
Q 1406 481 1766 481 
L 2356 481 
L 2356 0 
L 1766 0 
Q 1100 0 847 248 
Q 594 497 594 1153 
L 594 3053 
L 172 3053 
L 172 3500 
L 594 3500 
L 594 4494 
L 1172 4494 
z
" id="DejaVuSans-74" transform="scale(0.015625)"/>
       <path d="M 2059 -325 
Q 1816 -950 1584 -1140 
Q 1353 -1331 966 -1331 
L 506 -1331 
L 506 -850 
L 844 -850 
Q 1081 -850 1212 -737 
Q 1344 -625 1503 -206 
L 1606 56 
L 191 3500 
L 800 3500 
L 1894 763 
L 2988 3500 
L 3597 3500 
L 2059 -325 
z
" id="DejaVuSans-79" transform="scale(0.015625)"/>
       <path id="DejaVuSans-20" transform="scale(0.015625)"/>
       <path d="M 3513 2113 
L 3513 0 
L 2938 0 
L 2938 2094 
Q 2938 2591 2744 2837 
Q 2550 3084 2163 3084 
Q 1697 3084 1428 2787 
Q 1159 2491 1159 1978 
L 1159 0 
L 581 0 
L 581 3500 
L 1159 3500 
L 1159 2956 
Q 1366 3272 1645 3428 
Q 1925 3584 2291 3584 
Q 2894 3584 3203 3211 
Q 3513 2838 3513 2113 
z
" id="DejaVuSans-6e" transform="scale(0.015625)"/>
       <path d="M 3513 3500 
L 2247 1797 
L 3578 0 
L 2900 0 
L 1881 1375 
L 863 0 
L 184 0 
L 1544 1831 
L 300 3500 
L 978 3500 
L 1906 2253 
L 2834 3500 
L 3513 3500 
z
" id="DejaVuSans-78" transform="scale(0.015625)"/>
      </defs>
      <use xlink:href="#DejaVuSans-43"/>
      <use x="69.824219" xlink:href="#DejaVuSans-72"/>
      <use x="108.6875" xlink:href="#DejaVuSans-65"/>
      <use x="170.210938" xlink:href="#DejaVuSans-64"/>
      <use x="233.6875" xlink:href="#DejaVuSans-69"/>
      <use x="261.470703" xlink:href="#DejaVuSans-62"/>
      <use x="324.947266" xlink:href="#DejaVuSans-69"/>
      <use x="352.730469" xlink:href="#DejaVuSans-6c"/>
      <use x="380.513672" xlink:href="#DejaVuSans-69"/>
      <use x="408.296875" xlink:href="#DejaVuSans-74"/>
      <use x="447.505859" xlink:href="#DejaVuSans-79"/>
      <use x="506.685547" xlink:href="#DejaVuSans-20"/>
      <use x="538.472656" xlink:href="#DejaVuSans-69"/>
      <use x="566.255859" xlink:href="#DejaVuSans-6e"/>
      <use x="629.634766" xlink:href="#DejaVuSans-64"/>
      <use x="693.111328" xlink:href="#DejaVuSans-65"/>
      <use x="752.884766" xlink:href="#DejaVuSans-78"/>
     </g>
    </g>
   </g>
   <g id="matplotlib.axis_2">
    <g id="ytick_1">
     <g id="line2d_7">
      <defs>
       <path d="M 0 0 
L -3.5 0 
" id="m0a9be5c9ba" style="stroke:#000000;stroke-width:0.8;"/>
      </defs>
      <g>
       <use style="stroke:#000000;stroke-width:0.8;" x="54.2" xlink:href="#m0a9be5c9ba" y="303.64"/>
      </g>
     </g>
     <g id="text_8">
      <!-- 0.00 -->
      <g transform="translate(24.934375 307.439219)scale(0.1 -0.1)">
       <use xlink:href="#DejaVuSans-30"/>
       <use x="63.623047" xlink:href="#DejaVuSans-2e"/>
       <use x="95.410156" xlink:href="#DejaVuSans-30"/>
       <use x="159.033203" xlink:href="#DejaVuSans-30"/>
      </g>
     </g>
    </g>
    <g id="ytick_2">
     <g id="line2d_8">
      <g>
       <use style="stroke:#000000;stroke-width:0.8;" x="54.2" xlink:href="#m0a9be5c9ba" y="268.174581"/>
      </g>
     </g>
     <g id="text_9">
      <!-- 0.25 -->
      <g transform="translate(24.934375 271.9738)scale(0.1 -0.1)">
       <defs>
        <path d="M 691 4666 
L 3169 4666 
L 3169 4134 
L 1269 4134 
L 1269 2991 
Q 1406 3038 1543 3061 
Q 1681 3084 1819 3084 
Q 2600 3084 3056 2656 
Q 3513 2228 3513 1497 
Q 3513 744 3044 326 
Q 2575 -91 1722 -91 
Q 1428 -91 1123 -41 
Q 819 9 494 109 
L 494 744 
Q 775 591 1075 516 
Q 1375 441 1709 441 
Q 2250 441 2565 725 
Q 2881 1009 2881 1497 
Q 2881 1984 2565 2268 
Q 2250 2553 1709 2553 
Q 1456 2553 1204 2497 
Q 953 2441 691 2322 
L 691 4666 
z
" id="DejaVuSans-35" transform="scale(0.015625)"/>
       </defs>
       <use xlink:href="#DejaVuSans-30"/>
       <use x="63.623047" xlink:href="#DejaVuSans-2e"/>
       <use x="95.410156" xlink:href="#DejaVuSans-32"/>
       <use x="159.033203" xlink:href="#DejaVuSans-35"/>
      </g>
     </g>
    </g>
    <g id="ytick_3">
     <g id="line2d_9">
      <g>
       <use style="stroke:#000000;stroke-width:0.8;" x="54.2" xlink:href="#m0a9be5c9ba" y="232.709162"/>
      </g>
     </g>
     <g id="text_10">
      <!-- 0.50 -->
      <g transform="translate(24.934375 236.508381)scale(0.1 -0.1)">
       <use xlink:href="#DejaVuSans-30"/>
       <use x="63.623047" xlink:href="#DejaVuSans-2e"/>
       <use x="95.410156" xlink:href="#DejaVuSans-35"/>
       <use x="159.033203" xlink:href="#DejaVuSans-30"/>
      </g>
     </g>
    </g>
    <g id="ytick_4">
     <g id="line2d_10">
      <g>
       <use style="stroke:#000000;stroke-width:0.8;" x="54.2" xlink:href="#m0a9be5c9ba" y="197.243743"/>
      </g>
     </g>
     <g id="text_11">
      <!-- 0.75 -->
      <g transform="translate(24.934375 201.042962)scale(0.1 -0.1)">
       <defs>
        <path d="M 525 4666 
L 3525 4666 
L 3525 4397 
L 1831 0 
L 1172 0 
L 2766 4134 
L 525 4134 
L 525 4666 
z
" id="DejaVuSans-37" transform="scale(0.015625)"/>
       </defs>
       <use xlink:href="#DejaVuSans-30"/>
       <use x="63.623047" xlink:href="#DejaVuSans-2e"/>
       <use x="95.410156" xlink:href="#DejaVuSans-37"/>
       <use x="159.033203" xlink:href="#DejaVuSans-35"/>
      </g>
     </g>
    </g>
    <g id="ytick_5">
     <g id="line2d_11">
      <g>
       <use style="stroke:#000000;stroke-width:0.8;" x="54.2" xlink:href="#m0a9be5c9ba" y="161.778324"/>
      </g>
     </g>
     <g id="text_12">
      <!-- 1.00 -->
      <g transform="translate(24.934375 165.577543)scale(0.1 -0.1)">
       <use xlink:href="#DejaVuSans-31"/>
       <use x="63.623047" xlink:href="#DejaVuSans-2e"/>
       <use x="95.410156" xlink:href="#DejaVuSans-30"/>
       <use x="159.033203" xlink:href="#DejaVuSans-30"/>
      </g>
     </g>
    </g>
    <g id="ytick_6">
     <g id="line2d_12">
      <g>
       <use style="stroke:#000000;stroke-width:0.8;" x="54.2" xlink:href="#m0a9be5c9ba" y="126.312905"/>
      </g>
     </g>
     <g id="text_13">
      <!-- 1.25 -->
      <g transform="translate(24.934375 130.112124)scale(0.1 -0.1)">
       <use xlink:href="#DejaVuSans-31"/>
       <use x="63.623047" xlink:href="#DejaVuSans-2e"/>
       <use x="95.410156" xlink:href="#DejaVuSans-32"/>
       <use x="159.033203" xlink:href="#DejaVuSans-35"/>
      </g>
     </g>
    </g>
    <g id="ytick_7">
     <g id="line2d_13">
      <g>
       <use style="stroke:#000000;stroke-width:0.8;" x="54.2" xlink:href="#m0a9be5c9ba" y="90.847486"/>
      </g>
     </g>
     <g id="text_14">
      <!-- 1.50 -->
      <g transform="translate(24.934375 94.646705)scale(0.1 -0.1)">
       <use xlink:href="#DejaVuSans-31"/>
       <use x="63.623047" xlink:href="#DejaVuSans-2e"/>
       <use x="95.410156" xlink:href="#DejaVuSans-35"/>
       <use x="159.033203" xlink:href="#DejaVuSans-30"/>
      </g>
     </g>
    </g>
    <g id="ytick_8">
     <g id="line2d_14">
      <g>
       <use style="stroke:#000000;stroke-width:0.8;" x="54.2" xlink:href="#m0a9be5c9ba" y="55.382068"/>
      </g>
     </g>
     <g id="text_15">
      <!-- 1.75 -->
      <g transform="translate(24.934375 59.181286)scale(0.1 -0.1)">
       <use xlink:href="#DejaVuSans-31"/>
       <use x="63.623047" xlink:href="#DejaVuSans-2e"/>
       <use x="95.410156" xlink:href="#DejaVuSans-37"/>
       <use x="159.033203" xlink:href="#DejaVuSans-35"/>
      </g>
     </g>
    </g>
    <g id="text_16">
     <!-- Density -->
     <g transform="translate(18.854688 189.812594)rotate(-90)scale(0.1 -0.1)">
      <defs>
       <path d="M 1259 4147 
L 1259 519 
L 2022 519 
Q 2988 519 3436 956 
Q 3884 1394 3884 2338 
Q 3884 3275 3436 3711 
Q 2988 4147 2022 4147 
L 1259 4147 
z
M 628 4666 
L 1925 4666 
Q 3281 4666 3915 4102 
Q 4550 3538 4550 2338 
Q 4550 1131 3912 565 
Q 3275 0 1925 0 
L 628 0 
L 628 4666 
z
" id="DejaVuSans-44" transform="scale(0.015625)"/>
       <path d="M 2834 3397 
L 2834 2853 
Q 2591 2978 2328 3040 
Q 2066 3103 1784 3103 
Q 1356 3103 1142 2972 
Q 928 2841 928 2578 
Q 928 2378 1081 2264 
Q 1234 2150 1697 2047 
L 1894 2003 
Q 2506 1872 2764 1633 
Q 3022 1394 3022 966 
Q 3022 478 2636 193 
Q 2250 -91 1575 -91 
Q 1294 -91 989 -36 
Q 684 19 347 128 
L 347 722 
Q 666 556 975 473 
Q 1284 391 1588 391 
Q 1994 391 2212 530 
Q 2431 669 2431 922 
Q 2431 1156 2273 1281 
Q 2116 1406 1581 1522 
L 1381 1569 
Q 847 1681 609 1914 
Q 372 2147 372 2553 
Q 372 3047 722 3315 
Q 1072 3584 1716 3584 
Q 2034 3584 2315 3537 
Q 2597 3491 2834 3397 
z
" id="DejaVuSans-73" transform="scale(0.015625)"/>
      </defs>
      <use xlink:href="#DejaVuSans-44"/>
      <use x="77.001953" xlink:href="#DejaVuSans-65"/>
      <use x="138.525391" xlink:href="#DejaVuSans-6e"/>
      <use x="201.904297" xlink:href="#DejaVuSans-73"/>
      <use x="254.003906" xlink:href="#DejaVuSans-69"/>
      <use x="281.787109" xlink:href="#DejaVuSans-74"/>
      <use x="320.996094" xlink:href="#DejaVuSans-79"/>
     </g>
    </g>
   </g>
   <g id="patch_3">
    <path d="M 54.2 303.64 
L 54.2 37.968 
" style="fill:none;stroke:#000000;stroke-linecap:square;stroke-linejoin:miter;stroke-width:0.8;"/>
   </g>
   <g id="patch_4">
    <path d="M 442.035 303.64 
L 442.035 37.968 
" style="fill:none;stroke:#000000;stroke-linecap:square;stroke-linejoin:miter;stroke-width:0.8;"/>
   </g>
   <g id="patch_5">
    <path d="M 54.2 303.64 
L 442.035 303.64 
" style="fill:none;stroke:#000000;stroke-linecap:square;stroke-linejoin:miter;stroke-width:0.8;"/>
   </g>
   <g id="patch_6">
    <path d="M 54.2 37.968 
L 442.035 37.968 
" style="fill:none;stroke:#000000;stroke-linecap:square;stroke-linejoin:miter;stroke-width:0.8;"/>
   </g>
   <g id="text_17">
    <!-- Credibility index consensus vs non consensus  -->
    <g transform="translate(109.01125 18.530625)scale(0.12 -0.12)">
     <defs>
      <path d="M 3122 3366 
L 3122 2828 
Q 2878 2963 2633 3030 
Q 2388 3097 2138 3097 
Q 1578 3097 1268 2742 
Q 959 2388 959 1747 
Q 959 1106 1268 751 
Q 1578 397 2138 397 
Q 2388 397 2633 464 
Q 2878 531 3122 666 
L 3122 134 
Q 2881 22 2623 -34 
Q 2366 -91 2075 -91 
Q 1284 -91 818 406 
Q 353 903 353 1747 
Q 353 2603 823 3093 
Q 1294 3584 2113 3584 
Q 2378 3584 2631 3529 
Q 2884 3475 3122 3366 
z
" id="DejaVuSans-63" transform="scale(0.015625)"/>
      <path d="M 1959 3097 
Q 1497 3097 1228 2736 
Q 959 2375 959 1747 
Q 959 1119 1226 758 
Q 1494 397 1959 397 
Q 2419 397 2687 759 
Q 2956 1122 2956 1747 
Q 2956 2369 2687 2733 
Q 2419 3097 1959 3097 
z
M 1959 3584 
Q 2709 3584 3137 3096 
Q 3566 2609 3566 1747 
Q 3566 888 3137 398 
Q 2709 -91 1959 -91 
Q 1206 -91 779 398 
Q 353 888 353 1747 
Q 353 2609 779 3096 
Q 1206 3584 1959 3584 
z
" id="DejaVuSans-6f" transform="scale(0.015625)"/>
      <path d="M 544 1381 
L 544 3500 
L 1119 3500 
L 1119 1403 
Q 1119 906 1312 657 
Q 1506 409 1894 409 
Q 2359 409 2629 706 
Q 2900 1003 2900 1516 
L 2900 3500 
L 3475 3500 
L 3475 0 
L 2900 0 
L 2900 538 
Q 2691 219 2414 64 
Q 2138 -91 1772 -91 
Q 1169 -91 856 284 
Q 544 659 544 1381 
z
M 1991 3584 
L 1991 3584 
z
" id="DejaVuSans-75" transform="scale(0.015625)"/>
      <path d="M 191 3500 
L 800 3500 
L 1894 563 
L 2988 3500 
L 3597 3500 
L 2284 0 
L 1503 0 
L 191 3500 
z
" id="DejaVuSans-76" transform="scale(0.015625)"/>
     </defs>
     <use xlink:href="#DejaVuSans-43"/>
     <use x="69.824219" xlink:href="#DejaVuSans-72"/>
     <use x="108.6875" xlink:href="#DejaVuSans-65"/>
     <use x="170.210938" xlink:href="#DejaVuSans-64"/>
     <use x="233.6875" xlink:href="#DejaVuSans-69"/>
     <use x="261.470703" xlink:href="#DejaVuSans-62"/>
     <use x="324.947266" xlink:href="#DejaVuSans-69"/>
     <use x="352.730469" xlink:href="#DejaVuSans-6c"/>
     <use x="380.513672" xlink:href="#DejaVuSans-69"/>
     <use x="408.296875" xlink:href="#DejaVuSans-74"/>
     <use x="447.505859" xlink:href="#DejaVuSans-79"/>
     <use x="506.685547" xlink:href="#DejaVuSans-20"/>
     <use x="538.472656" xlink:href="#DejaVuSans-69"/>
     <use x="566.255859" xlink:href="#DejaVuSans-6e"/>
     <use x="629.634766" xlink:href="#DejaVuSans-64"/>
     <use x="693.111328" xlink:href="#DejaVuSans-65"/>
     <use x="752.884766" xlink:href="#DejaVuSans-78"/>
     <use x="812.064453" xlink:href="#DejaVuSans-20"/>
     <use x="843.851562" xlink:href="#DejaVuSans-63"/>
     <use x="898.832031" xlink:href="#DejaVuSans-6f"/>
     <use x="960.013672" xlink:href="#DejaVuSans-6e"/>
     <use x="1023.392578" xlink:href="#DejaVuSans-73"/>
     <use x="1075.492188" xlink:href="#DejaVuSans-65"/>
     <use x="1137.015625" xlink:href="#DejaVuSans-6e"/>
     <use x="1200.394531" xlink:href="#DejaVuSans-73"/>
     <use x="1252.494141" xlink:href="#DejaVuSans-75"/>
     <use x="1315.873047" xlink:href="#DejaVuSans-73"/>
     <use x="1367.972656" xlink:href="#DejaVuSans-20"/>
     <use x="1399.759766" xlink:href="#DejaVuSans-76"/>
     <use x="1458.939453" xlink:href="#DejaVuSans-73"/>
     <use x="1511.039062" xlink:href="#DejaVuSans-20"/>
     <use x="1542.826172" xlink:href="#DejaVuSans-6e"/>
     <use x="1606.205078" xlink:href="#DejaVuSans-6f"/>
     <use x="1667.386719" xlink:href="#DejaVuSans-6e"/>
     <use x="1730.765625" xlink:href="#DejaVuSans-20"/>
     <use x="1762.552734" xlink:href="#DejaVuSans-63"/>
     <use x="1817.533203" xlink:href="#DejaVuSans-6f"/>
     <use x="1878.714844" xlink:href="#DejaVuSans-6e"/>
     <use x="1942.09375" xlink:href="#DejaVuSans-73"/>
     <use x="1994.193359" xlink:href="#DejaVuSans-65"/>
     <use x="2055.716797" xlink:href="#DejaVuSans-6e"/>
     <use x="2119.095703" xlink:href="#DejaVuSans-73"/>
     <use x="2171.195312" xlink:href="#DejaVuSans-75"/>
     <use x="2234.574219" xlink:href="#DejaVuSans-73"/>
     <use x="2286.673828" xlink:href="#DejaVuSans-20"/>
    </g>
    <!-- Set s1 -->
    <g transform="translate(229.414375 31.968)scale(0.12 -0.12)">
     <defs>
      <path d="M 3425 4513 
L 3425 3897 
Q 3066 4069 2747 4153 
Q 2428 4238 2131 4238 
Q 1616 4238 1336 4038 
Q 1056 3838 1056 3469 
Q 1056 3159 1242 3001 
Q 1428 2844 1947 2747 
L 2328 2669 
Q 3034 2534 3370 2195 
Q 3706 1856 3706 1288 
Q 3706 609 3251 259 
Q 2797 -91 1919 -91 
Q 1588 -91 1214 -16 
Q 841 59 441 206 
L 441 856 
Q 825 641 1194 531 
Q 1563 422 1919 422 
Q 2459 422 2753 634 
Q 3047 847 3047 1241 
Q 3047 1584 2836 1778 
Q 2625 1972 2144 2069 
L 1759 2144 
Q 1053 2284 737 2584 
Q 422 2884 422 3419 
Q 422 4038 858 4394 
Q 1294 4750 2059 4750 
Q 2388 4750 2728 4690 
Q 3069 4631 3425 4513 
z
" id="DejaVuSans-53" transform="scale(0.015625)"/>
     </defs>
     <use xlink:href="#DejaVuSans-53"/>
     <use x="63.476562" xlink:href="#DejaVuSans-65"/>
     <use x="125" xlink:href="#DejaVuSans-74"/>
     <use x="164.208984" xlink:href="#DejaVuSans-20"/>
     <use x="195.996094" xlink:href="#DejaVuSans-73"/>
     <use x="248.095703" xlink:href="#DejaVuSans-31"/>
    </g>
   </g>
   <g id="legend_1">
    <g id="patch_7">
     <path d="M 61.2 97.719875 
L 231.742188 97.719875 
Q 233.742188 97.719875 233.742188 95.719875 
L 233.742188 44.968 
Q 233.742188 42.968 231.742188 42.968 
L 61.2 42.968 
Q 59.2 42.968 59.2 44.968 
L 59.2 95.719875 
Q 59.2 97.719875 61.2 97.719875 
z
" style="fill:#ffffff;opacity:0.8;stroke:#cccccc;stroke-linejoin:miter;"/>
    </g>
    <g id="patch_8">
     <path d="M 63.2 61.205187 
L 83.2 61.205187 
L 83.2 54.205187 
L 63.2 54.205187 
z
" style="fill:#1f77b4;fill-opacity:0.4;stroke:#1f77b4;stroke-linejoin:miter;"/>
    </g>
    <g id="text_18">
     <!-- Correlation higher than 0  -->
     <g transform="translate(91.2 54.566437)scale(0.1 -0.1)">
      <defs>
       <path d="M 2194 1759 
Q 1497 1759 1228 1600 
Q 959 1441 959 1056 
Q 959 750 1161 570 
Q 1363 391 1709 391 
Q 2188 391 2477 730 
Q 2766 1069 2766 1631 
L 2766 1759 
L 2194 1759 
z
M 3341 1997 
L 3341 0 
L 2766 0 
L 2766 531 
Q 2569 213 2275 61 
Q 1981 -91 1556 -91 
Q 1019 -91 701 211 
Q 384 513 384 1019 
Q 384 1609 779 1909 
Q 1175 2209 1959 2209 
L 2766 2209 
L 2766 2266 
Q 2766 2663 2505 2880 
Q 2244 3097 1772 3097 
Q 1472 3097 1187 3025 
Q 903 2953 641 2809 
L 641 3341 
Q 956 3463 1253 3523 
Q 1550 3584 1831 3584 
Q 2591 3584 2966 3190 
Q 3341 2797 3341 1997 
z
" id="DejaVuSans-61" transform="scale(0.015625)"/>
       <path d="M 3513 2113 
L 3513 0 
L 2938 0 
L 2938 2094 
Q 2938 2591 2744 2837 
Q 2550 3084 2163 3084 
Q 1697 3084 1428 2787 
Q 1159 2491 1159 1978 
L 1159 0 
L 581 0 
L 581 4863 
L 1159 4863 
L 1159 2956 
Q 1366 3272 1645 3428 
Q 1925 3584 2291 3584 
Q 2894 3584 3203 3211 
Q 3513 2838 3513 2113 
z
" id="DejaVuSans-68" transform="scale(0.015625)"/>
       <path d="M 2906 1791 
Q 2906 2416 2648 2759 
Q 2391 3103 1925 3103 
Q 1463 3103 1205 2759 
Q 947 2416 947 1791 
Q 947 1169 1205 825 
Q 1463 481 1925 481 
Q 2391 481 2648 825 
Q 2906 1169 2906 1791 
z
M 3481 434 
Q 3481 -459 3084 -895 
Q 2688 -1331 1869 -1331 
Q 1566 -1331 1297 -1286 
Q 1028 -1241 775 -1147 
L 775 -588 
Q 1028 -725 1275 -790 
Q 1522 -856 1778 -856 
Q 2344 -856 2625 -561 
Q 2906 -266 2906 331 
L 2906 616 
Q 2728 306 2450 153 
Q 2172 0 1784 0 
Q 1141 0 747 490 
Q 353 981 353 1791 
Q 353 2603 747 3093 
Q 1141 3584 1784 3584 
Q 2172 3584 2450 3431 
Q 2728 3278 2906 2969 
L 2906 3500 
L 3481 3500 
L 3481 434 
z
" id="DejaVuSans-67" transform="scale(0.015625)"/>
      </defs>
      <use xlink:href="#DejaVuSans-43"/>
      <use x="69.824219" xlink:href="#DejaVuSans-6f"/>
      <use x="131.005859" xlink:href="#DejaVuSans-72"/>
      <use x="170.369141" xlink:href="#DejaVuSans-72"/>
      <use x="209.232422" xlink:href="#DejaVuSans-65"/>
      <use x="270.755859" xlink:href="#DejaVuSans-6c"/>
      <use x="298.539062" xlink:href="#DejaVuSans-61"/>
      <use x="359.818359" xlink:href="#DejaVuSans-74"/>
      <use x="399.027344" xlink:href="#DejaVuSans-69"/>
      <use x="426.810547" xlink:href="#DejaVuSans-6f"/>
      <use x="487.992188" xlink:href="#DejaVuSans-6e"/>
      <use x="551.371094" xlink:href="#DejaVuSans-20"/>
      <use x="583.158203" xlink:href="#DejaVuSans-68"/>
      <use x="646.537109" xlink:href="#DejaVuSans-69"/>
      <use x="674.320312" xlink:href="#DejaVuSans-67"/>
      <use x="737.796875" xlink:href="#DejaVuSans-68"/>
      <use x="801.175781" xlink:href="#DejaVuSans-65"/>
      <use x="862.699219" xlink:href="#DejaVuSans-72"/>
      <use x="903.8125" xlink:href="#DejaVuSans-20"/>
      <use x="935.599609" xlink:href="#DejaVuSans-74"/>
      <use x="974.808594" xlink:href="#DejaVuSans-68"/>
      <use x="1038.1875" xlink:href="#DejaVuSans-61"/>
      <use x="1099.466797" xlink:href="#DejaVuSans-6e"/>
      <use x="1162.845703" xlink:href="#DejaVuSans-20"/>
      <use x="1194.632812" xlink:href="#DejaVuSans-30"/>
      <use x="1258.255859" xlink:href="#DejaVuSans-20"/>
     </g>
     <!-- n=143 -->
     <g transform="translate(91.2 65.76425)scale(0.1 -0.1)">
      <defs>
       <path d="M 678 2906 
L 4684 2906 
L 4684 2381 
L 678 2381 
L 678 2906 
z
M 678 1631 
L 4684 1631 
L 4684 1100 
L 678 1100 
L 678 1631 
z
" id="DejaVuSans-3d" transform="scale(0.015625)"/>
       <path d="M 2597 2516 
Q 3050 2419 3304 2112 
Q 3559 1806 3559 1356 
Q 3559 666 3084 287 
Q 2609 -91 1734 -91 
Q 1441 -91 1130 -33 
Q 819 25 488 141 
L 488 750 
Q 750 597 1062 519 
Q 1375 441 1716 441 
Q 2309 441 2620 675 
Q 2931 909 2931 1356 
Q 2931 1769 2642 2001 
Q 2353 2234 1838 2234 
L 1294 2234 
L 1294 2753 
L 1863 2753 
Q 2328 2753 2575 2939 
Q 2822 3125 2822 3475 
Q 2822 3834 2567 4026 
Q 2313 4219 1838 4219 
Q 1578 4219 1281 4162 
Q 984 4106 628 3988 
L 628 4550 
Q 988 4650 1302 4700 
Q 1616 4750 1894 4750 
Q 2613 4750 3031 4423 
Q 3450 4097 3450 3541 
Q 3450 3153 3228 2886 
Q 3006 2619 2597 2516 
z
" id="DejaVuSans-33" transform="scale(0.015625)"/>
      </defs>
      <use xlink:href="#DejaVuSans-6e"/>
      <use x="63.378906" xlink:href="#DejaVuSans-3d"/>
      <use x="147.167969" xlink:href="#DejaVuSans-31"/>
      <use x="210.791016" xlink:href="#DejaVuSans-34"/>
      <use x="274.414062" xlink:href="#DejaVuSans-33"/>
     </g>
    </g>
    <g id="patch_9">
     <path d="M 63.2 87.081125 
L 83.2 87.081125 
L 83.2 80.081125 
L 63.2 80.081125 
z
" style="fill:#ff7f0e;fill-opacity:0.4;stroke:#ff7f0e;stroke-linejoin:miter;"/>
    </g>
    <g id="text_19">
     <!-- Correlation higher than 0.8  -->
     <g transform="translate(91.2 80.442375)scale(0.1 -0.1)">
      <use xlink:href="#DejaVuSans-43"/>
      <use x="69.824219" xlink:href="#DejaVuSans-6f"/>
      <use x="131.005859" xlink:href="#DejaVuSans-72"/>
      <use x="170.369141" xlink:href="#DejaVuSans-72"/>
      <use x="209.232422" xlink:href="#DejaVuSans-65"/>
      <use x="270.755859" xlink:href="#DejaVuSans-6c"/>
      <use x="298.539062" xlink:href="#DejaVuSans-61"/>
      <use x="359.818359" xlink:href="#DejaVuSans-74"/>
      <use x="399.027344" xlink:href="#DejaVuSans-69"/>
      <use x="426.810547" xlink:href="#DejaVuSans-6f"/>
      <use x="487.992188" xlink:href="#DejaVuSans-6e"/>
      <use x="551.371094" xlink:href="#DejaVuSans-20"/>
      <use x="583.158203" xlink:href="#DejaVuSans-68"/>
      <use x="646.537109" xlink:href="#DejaVuSans-69"/>
      <use x="674.320312" xlink:href="#DejaVuSans-67"/>
      <use x="737.796875" xlink:href="#DejaVuSans-68"/>
      <use x="801.175781" xlink:href="#DejaVuSans-65"/>
      <use x="862.699219" xlink:href="#DejaVuSans-72"/>
      <use x="903.8125" xlink:href="#DejaVuSans-20"/>
      <use x="935.599609" xlink:href="#DejaVuSans-74"/>
      <use x="974.808594" xlink:href="#DejaVuSans-68"/>
      <use x="1038.1875" xlink:href="#DejaVuSans-61"/>
      <use x="1099.466797" xlink:href="#DejaVuSans-6e"/>
      <use x="1162.845703" xlink:href="#DejaVuSans-20"/>
      <use x="1194.632812" xlink:href="#DejaVuSans-30"/>
      <use x="1258.255859" xlink:href="#DejaVuSans-2e"/>
      <use x="1290.042969" xlink:href="#DejaVuSans-38"/>
      <use x="1353.666016" xlink:href="#DejaVuSans-20"/>
     </g>
     <!-- n=10 -->
     <g transform="translate(91.2 91.640187)scale(0.1 -0.1)">
      <use xlink:href="#DejaVuSans-6e"/>
      <use x="63.378906" xlink:href="#DejaVuSans-3d"/>
      <use x="147.167969" xlink:href="#DejaVuSans-31"/>
      <use x="210.791016" xlink:href="#DejaVuSans-30"/>
     </g>
    </g>
   </g>
  </g>
 </g>
 <defs>
  <clipPath id="p55fa943bf1">
   <rect height="265.672" width="387.835" x="54.2" y="37.968"/>
  </clipPath>
 </defs>
</svg>
