<?xml version="1.0" encoding="utf-8" standalone="no"?>
<!DOCTYPE svg PUBLIC "-//W3C//DTD SVG 1.1//EN"
  "http://www.w3.org/Graphics/SVG/1.1/DTD/svg11.dtd">
<svg height="345.6pt" version="1.1" viewBox="0 0 460.8 345.6" width="460.8pt" xmlns="http://www.w3.org/2000/svg" xmlns:xlink="http://www.w3.org/1999/xlink">
 <metadata>
  <rdf:RDF xmlns:cc="http://creativecommons.org/ns#" xmlns:dc="http://purl.org/dc/elements/1.1/" xmlns:rdf="http://www.w3.org/1999/02/22-rdf-syntax-ns#">
   <cc:Work>
    <dc:type rdf:resource="http://purl.org/dc/dcmitype/StillImage"/>
    <dc:date>2021-11-24T22:48:01.555995</dc:date>
    <dc:format>image/svg+xml</dc:format>
    <dc:creator>
     <cc:Agent>
      <dc:title>Matplotlib v3.4.3, https://matplotlib.org/</dc:title>
     </cc:Agent>
    </dc:creator>
   </cc:Work>
  </rdf:RDF>
 </metadata>
 <defs>
  <style type="text/css">*{stroke-linecap:butt;stroke-linejoin:round;}</style>
 </defs>
 <g id="figure_1">
  <g id="patch_1">
   <path d="M 0 345.6 
L 460.8 345.6 
L 460.8 0 
L 0 0 
z
" style="fill:#ffffff;"/>
  </g>
  <g id="axes_1">
   <g id="patch_2">
    <path d="M 54.2 303.64 
L 442.035 303.64 
L 442.035 37.968 
L 54.2 37.968 
z
" style="fill:#ffffff;"/>
   </g>
   <g id="PolyCollection_1">
    <path clip-path="url(#p8e91fac537)" d="M -14.17591 303.393079 
L -14.17591 303.64 
L -11.305925 303.64 
L -8.43594 303.64 
L -5.565955 303.64 
L -2.69597 303.64 
L 0.174015 303.64 
L 3.044 303.64 
L 5.913985 303.64 
L 8.78397 303.64 
L 11.653955 303.64 
L 14.52394 303.64 
L 17.393925 303.64 
L 20.263911 303.64 
L 23.133896 303.64 
L 26.003881 303.64 
L 28.873866 303.64 
L 31.743851 303.64 
L 34.613836 303.64 
L 37.483821 303.64 
L 40.353806 303.64 
L 43.223791 303.64 
L 46.093776 303.64 
L 48.963761 303.64 
L 51.833746 303.64 
L 54.703731 303.64 
L 57.573716 303.64 
L 60.443701 303.64 
L 63.313686 303.64 
L 66.183671 303.64 
L 69.053656 303.64 
L 71.923641 303.64 
L 74.793626 303.64 
L 77.663611 303.64 
L 80.533596 303.64 
L 83.403581 303.64 
L 86.273566 303.64 
L 89.143551 303.64 
L 92.013536 303.64 
L 94.883521 303.64 
L 97.753506 303.64 
L 100.623491 303.64 
L 103.493476 303.64 
L 106.363461 303.64 
L 109.233446 303.64 
L 112.103431 303.64 
L 114.973416 303.64 
L 117.843401 303.64 
L 120.713386 303.64 
L 123.583371 303.64 
L 126.453356 303.64 
L 129.323341 303.64 
L 132.193326 303.64 
L 135.063311 303.64 
L 137.933296 303.64 
L 140.803281 303.64 
L 143.673266 303.64 
L 146.543252 303.64 
L 149.413237 303.64 
L 152.283222 303.64 
L 155.153207 303.64 
L 158.023192 303.64 
L 160.893177 303.64 
L 163.763162 303.64 
L 166.633147 303.64 
L 169.503132 303.64 
L 172.373117 303.64 
L 175.243102 303.64 
L 178.113087 303.64 
L 180.983072 303.64 
L 183.853057 303.64 
L 186.723042 303.64 
L 189.593027 303.64 
L 192.463012 303.64 
L 195.332997 303.64 
L 198.202982 303.64 
L 201.072967 303.64 
L 203.942952 303.64 
L 206.812937 303.64 
L 209.682922 303.64 
L 212.552907 303.64 
L 215.422892 303.64 
L 218.292877 303.64 
L 221.162862 303.64 
L 224.032847 303.64 
L 226.902832 303.64 
L 229.772817 303.64 
L 232.642802 303.64 
L 235.512787 303.64 
L 238.382772 303.64 
L 241.252757 303.64 
L 244.122742 303.64 
L 246.992727 303.64 
L 249.862712 303.64 
L 252.732697 303.64 
L 255.602682 303.64 
L 258.472667 303.64 
L 261.342652 303.64 
L 264.212637 303.64 
L 267.082622 303.64 
L 269.952607 303.64 
L 272.822593 303.64 
L 275.692578 303.64 
L 278.562563 303.64 
L 281.432548 303.64 
L 284.302533 303.64 
L 287.172518 303.64 
L 290.042503 303.64 
L 292.912488 303.64 
L 295.782473 303.64 
L 298.652458 303.64 
L 301.522443 303.64 
L 304.392428 303.64 
L 307.262413 303.64 
L 310.132398 303.64 
L 313.002383 303.64 
L 315.872368 303.64 
L 318.742353 303.64 
L 321.612338 303.64 
L 324.482323 303.64 
L 327.352308 303.64 
L 330.222293 303.64 
L 333.092278 303.64 
L 335.962263 303.64 
L 338.832248 303.64 
L 341.702233 303.64 
L 344.572218 303.64 
L 347.442203 303.64 
L 350.312188 303.64 
L 353.182173 303.64 
L 356.052158 303.64 
L 358.922143 303.64 
L 361.792128 303.64 
L 364.662113 303.64 
L 367.532098 303.64 
L 370.402083 303.64 
L 373.272068 303.64 
L 376.142053 303.64 
L 379.012038 303.64 
L 381.882023 303.64 
L 384.752008 303.64 
L 387.621993 303.64 
L 390.491978 303.64 
L 393.361963 303.64 
L 396.231948 303.64 
L 399.101934 303.64 
L 401.971919 303.64 
L 404.841904 303.64 
L 407.711889 303.64 
L 410.581874 303.64 
L 413.451859 303.64 
L 416.321844 303.64 
L 419.191829 303.64 
L 422.061814 303.64 
L 424.931799 303.64 
L 427.801784 303.64 
L 430.671769 303.64 
L 433.541754 303.64 
L 436.411739 303.64 
L 439.281724 303.64 
L 442.151709 303.64 
L 445.021694 303.64 
L 447.891679 303.64 
L 450.761664 303.64 
L 453.631649 303.64 
L 456.501634 303.64 
L 459.371619 303.64 
L 462.241604 303.64 
L 465.111589 303.64 
L 467.981574 303.64 
L 470.851559 303.64 
L 473.721544 303.64 
L 476.591529 303.64 
L 479.461514 303.64 
L 482.331499 303.64 
L 485.201484 303.64 
L 488.071469 303.64 
L 490.941454 303.64 
L 493.811439 303.64 
L 496.681424 303.64 
L 499.551409 303.64 
L 502.421394 303.64 
L 505.291379 303.64 
L 508.161364 303.64 
L 511.031349 303.64 
L 513.901334 303.64 
L 516.771319 303.64 
L 519.641304 303.64 
L 522.511289 303.64 
L 525.381275 303.64 
L 528.25126 303.64 
L 531.121245 303.64 
L 533.99123 303.64 
L 536.861215 303.64 
L 539.7312 303.64 
L 542.601185 303.64 
L 545.47117 303.64 
L 548.341155 303.64 
L 551.21114 303.64 
L 554.081125 303.64 
L 556.95111 303.64 
L 556.95111 302.682885 
L 556.95111 302.682885 
L 554.081125 302.437954 
L 551.21114 302.138468 
L 548.341155 301.774444 
L 545.47117 301.334596 
L 542.601185 300.806288 
L 539.7312 300.175508 
L 536.861215 299.426876 
L 533.99123 298.543693 
L 531.121245 297.508031 
L 528.25126 296.300876 
L 525.381275 294.902332 
L 522.511289 293.291874 
L 519.641304 291.448669 
L 516.771319 289.351958 
L 513.901334 286.981491 
L 511.031349 284.31802 
L 508.161364 281.343825 
L 505.291379 278.043283 
L 502.421394 274.403447 
L 499.551409 270.414624 
L 496.681424 266.070938 
L 493.811439 261.370847 
L 490.941454 256.317605 
L 488.071469 250.919632 
L 485.201484 245.190786 
L 482.331499 239.150512 
L 479.461514 232.823855 
L 476.591529 226.241322 
L 473.721544 219.438597 
L 470.851559 212.456101 
L 467.981574 205.338404 
L 465.111589 198.133511 
L 462.241604 190.892021 
L 459.371619 183.666208 
L 456.501634 176.509034 
L 453.631649 169.47313 
L 450.761664 162.609785 
L 447.891679 155.967968 
L 445.021694 149.593428 
L 442.151709 143.527888 
L 439.281724 137.808372 
L 436.411739 132.466678 
L 433.541754 127.529015 
L 430.671769 123.015804 
L 427.801784 118.941657 
L 424.931799 115.3155 
L 422.061814 112.140863 
L 419.191829 109.416273 
L 416.321844 107.135762 
L 413.451859 105.289441 
L 410.581874 103.864119 
L 407.711889 102.843929 
L 404.841904 102.210945 
L 401.971919 101.945762 
L 399.101934 102.02801 
L 396.231948 102.4368 
L 393.361963 103.151084 
L 390.491978 104.149931 
L 387.621993 105.412715 
L 384.752008 106.91923 
L 381.882023 108.649736 
L 379.012038 110.584946 
L 376.142053 112.705987 
L 373.272068 114.994329 
L 370.402083 117.431713 
L 367.532098 120.000087 
L 364.662113 122.681558 
L 361.792128 125.458375 
L 358.922143 128.312945 
L 356.052158 131.227887 
L 353.182173 134.186113 
L 350.312188 137.170947 
L 347.442203 140.166271 
L 344.572218 143.156677 
L 341.702233 146.127637 
L 338.832248 149.065675 
L 335.962263 151.958519 
L 333.092278 154.795249 
L 330.222293 157.566416 
L 327.352308 160.264135 
L 324.482323 162.882149 
L 321.612338 165.415855 
L 318.742353 167.862302 
L 315.872368 170.220154 
L 313.002383 172.489617 
L 310.132398 174.672345 
L 307.262413 176.771309 
L 304.392428 178.79065 
L 301.522443 180.73551 
L 298.652458 182.611841 
L 295.782473 184.426209 
L 292.912488 186.185584 
L 290.042503 187.897121 
L 287.172518 189.567955 
L 284.302533 191.204987 
L 281.432548 192.814686 
L 278.562563 194.402907 
L 275.692578 195.97473 
L 272.822593 197.534322 
L 269.952607 199.084834 
L 267.082622 200.628324 
L 264.212637 202.165728 
L 261.342652 203.696856 
L 258.472667 205.220431 
L 255.602682 206.734167 
L 252.732697 208.234868 
L 249.862712 209.71856 
L 246.992727 211.180645 
L 244.122742 212.616055 
L 241.252757 214.019427 
L 238.382772 215.385263 
L 235.512787 216.708081 
L 232.642802 217.982556 
L 229.772817 219.20363 
L 226.902832 220.366603 
L 224.032847 221.467196 
L 221.162862 222.501588 
L 218.292877 223.46643 
L 215.422892 224.358839 
L 212.552907 225.176382 
L 209.682922 225.917052 
L 206.812937 226.579243 
L 203.942952 227.161737 
L 201.072967 227.6637 
L 198.202982 228.084707 
L 195.332997 228.424778 
L 192.463012 228.684449 
L 189.593027 228.864865 
L 186.723042 228.967893 
L 183.853057 228.996256 
L 180.983072 228.953674 
L 178.113087 228.845009 
L 175.243102 228.676402 
L 172.373117 228.455394 
L 169.503132 228.191015 
L 166.633147 227.89384 
L 163.763162 227.575995 
L 160.893177 227.251109 
L 158.023192 226.934213 
L 155.153207 226.641572 
L 152.283222 226.390462 
L 149.413237 226.198887 
L 146.543252 226.085244 
L 143.673266 226.067949 
L 140.803281 226.165029 
L 137.933296 226.393696 
L 135.063311 226.769914 
L 132.193326 227.307977 
L 129.323341 228.020114 
L 126.453356 228.916128 
L 123.583371 230.003091 
L 120.713386 231.285101 
L 117.843401 232.763113 
L 114.973416 234.43485 
L 112.103431 236.294794 
L 109.233446 238.334269 
L 106.363461 240.541596 
L 103.493476 242.902335 
L 100.623491 245.39959 
L 97.753506 248.014373 
L 94.883521 250.726024 
L 92.013536 253.512647 
L 89.143551 256.351588 
L 86.273566 259.219897 
L 83.403581 262.094796 
L 80.533596 264.954118 
L 77.663611 267.77671 
L 74.793626 270.542799 
L 71.923641 273.234298 
L 69.053656 275.835058 
L 66.183671 278.331054 
L 63.313686 280.710515 
L 60.443701 282.963982 
L 57.573716 285.084315 
L 54.703731 287.066637 
L 51.833746 288.908238 
L 48.963761 290.60843 
L 46.093776 292.168373 
L 43.223791 293.590871 
L 40.353806 294.880157 
L 37.483821 296.041661 
L 34.613836 297.081782 
L 31.743851 298.007661 
L 28.873866 298.82697 
L 26.003881 299.547706 
L 23.133896 300.178013 
L 20.263911 300.726019 
L 17.393925 301.1997 
L 14.52394 301.606765 
L 11.653955 301.95456 
L 8.78397 302.250005 
L 5.913985 302.499538 
L 3.044 302.709084 
L 0.174015 302.884046 
L -2.69597 303.029296 
L -5.565955 303.149194 
L -8.43594 303.247602 
L -11.305925 303.327911 
L -14.17591 303.393079 
z
" style="fill:#1f77b4;fill-opacity:0.4;stroke:#1f77b4;"/>
   </g>
   <g id="PolyCollection_2">
    <path clip-path="url(#p8e91fac537)" d="M 7.722385 303.297018 
L 7.722385 303.64 
L 10.450243 303.64 
L 13.178102 303.64 
L 15.90596 303.64 
L 18.633818 303.64 
L 21.361677 303.64 
L 24.089535 303.64 
L 26.817394 303.64 
L 29.545252 303.64 
L 32.273111 303.64 
L 35.000969 303.64 
L 37.728828 303.64 
L 40.456686 303.64 
L 43.184544 303.64 
L 45.912403 303.64 
L 48.640261 303.64 
L 51.36812 303.64 
L 54.095978 303.64 
L 56.823837 303.64 
L 59.551695 303.64 
L 62.279554 303.64 
L 65.007412 303.64 
L 67.73527 303.64 
L 70.463129 303.64 
L 73.190987 303.64 
L 75.918846 303.64 
L 78.646704 303.64 
L 81.374563 303.64 
L 84.102421 303.64 
L 86.83028 303.64 
L 89.558138 303.64 
L 92.285996 303.64 
L 95.013855 303.64 
L 97.741713 303.64 
L 100.469572 303.64 
L 103.19743 303.64 
L 105.925289 303.64 
L 108.653147 303.64 
L 111.381006 303.64 
L 114.108864 303.64 
L 116.836723 303.64 
L 119.564581 303.64 
L 122.292439 303.64 
L 125.020298 303.64 
L 127.748156 303.64 
L 130.476015 303.64 
L 133.203873 303.64 
L 135.931732 303.64 
L 138.65959 303.64 
L 141.387449 303.64 
L 144.115307 303.64 
L 146.843165 303.64 
L 149.571024 303.64 
L 152.298882 303.64 
L 155.026741 303.64 
L 157.754599 303.64 
L 160.482458 303.64 
L 163.210316 303.64 
L 165.938175 303.64 
L 168.666033 303.64 
L 171.393891 303.64 
L 174.12175 303.64 
L 176.849608 303.64 
L 179.577467 303.64 
L 182.305325 303.64 
L 185.033184 303.64 
L 187.761042 303.64 
L 190.488901 303.64 
L 193.216759 303.64 
L 195.944617 303.64 
L 198.672476 303.64 
L 201.400334 303.64 
L 204.128193 303.64 
L 206.856051 303.64 
L 209.58391 303.64 
L 212.311768 303.64 
L 215.039627 303.64 
L 217.767485 303.64 
L 220.495343 303.64 
L 223.223202 303.64 
L 225.95106 303.64 
L 228.678919 303.64 
L 231.406777 303.64 
L 234.134636 303.64 
L 236.862494 303.64 
L 239.590353 303.64 
L 242.318211 303.64 
L 245.046069 303.64 
L 247.773928 303.64 
L 250.501786 303.64 
L 253.229645 303.64 
L 255.957503 303.64 
L 258.685362 303.64 
L 261.41322 303.64 
L 264.141079 303.64 
L 266.868937 303.64 
L 269.596795 303.64 
L 272.324654 303.64 
L 275.052512 303.64 
L 277.780371 303.64 
L 280.508229 303.64 
L 283.236088 303.64 
L 285.963946 303.64 
L 288.691805 303.64 
L 291.419663 303.64 
L 294.147521 303.64 
L 296.87538 303.64 
L 299.603238 303.64 
L 302.331097 303.64 
L 305.058955 303.64 
L 307.786814 303.64 
L 310.514672 303.64 
L 313.242531 303.64 
L 315.970389 303.64 
L 318.698247 303.64 
L 321.426106 303.64 
L 324.153964 303.64 
L 326.881823 303.64 
L 329.609681 303.64 
L 332.33754 303.64 
L 335.065398 303.64 
L 337.793257 303.64 
L 340.521115 303.64 
L 343.248973 303.64 
L 345.976832 303.64 
L 348.70469 303.64 
L 351.432549 303.64 
L 354.160407 303.64 
L 356.888266 303.64 
L 359.616124 303.64 
L 362.343983 303.64 
L 365.071841 303.64 
L 367.799699 303.64 
L 370.527558 303.64 
L 373.255416 303.64 
L 375.983275 303.64 
L 378.711133 303.64 
L 381.438992 303.64 
L 384.16685 303.64 
L 386.894709 303.64 
L 389.622567 303.64 
L 392.350425 303.64 
L 395.078284 303.64 
L 397.806142 303.64 
L 400.534001 303.64 
L 403.261859 303.64 
L 405.989718 303.64 
L 408.717576 303.64 
L 411.445435 303.64 
L 414.173293 303.64 
L 416.901151 303.64 
L 419.62901 303.64 
L 422.356868 303.64 
L 425.084727 303.64 
L 427.812585 303.64 
L 430.540444 303.64 
L 433.268302 303.64 
L 435.996161 303.64 
L 438.724019 303.64 
L 441.451877 303.64 
L 444.179736 303.64 
L 446.907594 303.64 
L 449.635453 303.64 
L 452.363311 303.64 
L 455.09117 303.64 
L 457.819028 303.64 
L 460.546887 303.64 
L 463.274745 303.64 
L 466.002604 303.64 
L 468.730462 303.64 
L 471.45832 303.64 
L 474.186179 303.64 
L 476.914037 303.64 
L 479.641896 303.64 
L 482.369754 303.64 
L 485.097613 303.64 
L 487.825471 303.64 
L 490.55333 303.64 
L 493.281188 303.64 
L 496.009046 303.64 
L 498.736905 303.64 
L 501.464763 303.64 
L 504.192622 303.64 
L 506.92048 303.64 
L 509.648339 303.64 
L 512.376197 303.64 
L 515.104056 303.64 
L 517.831914 303.64 
L 520.559772 303.64 
L 523.287631 303.64 
L 526.015489 303.64 
L 528.743348 303.64 
L 531.471206 303.64 
L 534.199065 303.64 
L 536.926923 303.64 
L 539.654782 303.64 
L 542.38264 303.64 
L 545.110498 303.64 
L 547.838357 303.64 
L 550.566215 303.64 
L 550.566215 302.389302 
L 550.566215 302.389302 
L 547.838357 302.06762 
L 545.110498 301.673996 
L 542.38264 301.195234 
L 539.654782 300.616428 
L 536.926923 299.920894 
L 534.199065 299.09015 
L 531.471206 298.103932 
L 528.743348 296.94027 
L 526.015489 295.575618 
L 523.287631 293.985063 
L 520.559772 292.142603 
L 517.831914 290.021505 
L 515.104056 287.594751 
L 512.376197 284.835558 
L 509.648339 281.717973 
L 506.92048 278.217544 
L 504.192622 274.312031 
L 501.464763 269.982167 
L 498.736905 265.212431 
L 496.009046 259.991812 
L 493.281188 254.314539 
L 490.55333 248.180752 
L 487.825471 241.597078 
L 485.097613 234.577083 
L 482.369754 227.14158 
L 479.641896 219.318762 
L 476.914037 211.144148 
L 474.186179 202.660324 
L 471.45832 193.916478 
L 468.730462 184.967729 
L 466.002604 175.874262 
L 463.274745 166.700302 
L 460.546887 157.512925 
L 457.819028 148.380781 
L 455.09117 139.372739 
L 452.363311 130.556514 
L 449.635453 121.997328 
L 446.907594 113.756633 
L 444.179736 105.890971 
L 441.451877 98.450982 
L 438.724019 91.480613 
L 435.996161 85.016544 
L 433.268302 79.08785 
L 430.540444 73.715902 
L 427.812585 68.914501 
L 425.084727 64.690226 
L 422.356868 61.042976 
L 419.62901 57.966667 
L 416.901151 55.450044 
L 414.173293 53.47757 
L 411.445435 52.030339 
L 408.717576 51.086978 
L 405.989718 50.624498 
L 403.261859 50.619048 
L 400.534001 51.046564 
L 397.806142 51.883281 
L 395.078284 53.106098 
L 392.350425 54.692808 
L 389.622567 56.622188 
L 386.894709 58.873969 
L 384.16685 61.428711 
L 381.438992 64.267602 
L 378.711133 67.372214 
L 375.983275 70.724242 
L 373.255416 74.305253 
L 370.527558 78.096468 
L 367.799699 82.078597 
L 365.071841 86.231746 
L 362.343983 90.535389 
L 359.616124 94.968422 
L 356.888266 99.509291 
L 354.160407 104.136181 
L 351.432549 108.827252 
L 348.70469 113.560919 
L 345.976832 118.31614 
L 343.248973 123.07271 
L 340.521115 127.811538 
L 337.793257 132.514893 
L 335.065398 137.166602 
L 332.33754 141.752212 
L 329.609681 146.259075 
L 326.881823 150.6764 
L 324.153964 154.995234 
L 321.426106 159.208401 
L 318.698247 163.3104 
L 315.970389 167.297268 
L 313.242531 171.166417 
L 310.514672 174.916465 
L 307.786814 178.547055 
L 305.058955 182.058677 
L 302.331097 185.452499 
L 299.603238 188.730218 
L 296.87538 191.893921 
L 294.147521 194.945963 
L 291.419663 197.888876 
L 288.691805 200.725282 
L 285.963946 203.45784 
L 283.236088 206.089196 
L 280.508229 208.621958 
L 277.780371 211.058681 
L 275.052512 213.401865 
L 272.324654 215.653967 
L 269.596795 217.81742 
L 266.868937 219.894664 
L 264.141079 221.888186 
L 261.41322 223.800561 
L 258.685362 225.634503 
L 255.957503 227.392914 
L 253.229645 229.078928 
L 250.501786 230.695958 
L 247.773928 232.24772 
L 245.046069 233.738253 
L 242.318211 235.171912 
L 239.590353 236.553344 
L 236.862494 237.887435 
L 234.134636 239.179234 
L 231.406777 240.433841 
L 228.678919 241.65628 
L 225.95106 242.851344 
L 223.223202 244.023421 
L 220.495343 245.176317 
L 217.767485 246.313068 
L 215.039627 247.435769 
L 212.311768 248.545413 
L 209.58391 249.641761 
L 206.856051 250.723255 
L 204.128193 251.786968 
L 201.400334 252.828618 
L 198.672476 253.842636 
L 195.944617 254.822296 
L 193.216759 255.759912 
L 190.488901 256.64709 
L 187.761042 257.475034 
L 185.033184 258.234901 
L 182.305325 258.918179 
L 179.577467 259.517097 
L 176.849608 260.025026 
L 174.12175 260.436872 
L 171.393891 260.749445 
L 168.666033 260.961768 
L 165.938175 261.075334 
L 163.210316 261.094284 
L 160.482458 261.025499 
L 157.754599 260.878594 
L 155.026741 260.665824 
L 152.298882 260.401875 
L 149.571024 260.103579 
L 146.843165 259.789526 
L 144.115307 259.479617 
L 141.387449 259.194538 
L 138.65959 258.955215 
L 135.931732 258.782223 
L 133.203873 258.695214 
L 130.476015 258.71235 
L 127.748156 258.849783 
L 125.020298 259.121193 
L 122.292439 259.537403 
L 119.564581 260.106078 
L 116.836723 260.83153 
L 114.108864 261.714622 
L 111.381006 262.752781 
L 108.653147 263.940112 
L 105.925289 265.267618 
L 103.19743 266.723493 
L 100.469572 268.2935 
L 97.741713 269.961402 
L 95.013855 271.709436 
L 92.285996 273.518808 
L 89.558138 275.370197 
L 86.83028 277.244237 
L 84.102421 279.121988 
L 81.374563 280.985345 
L 78.646704 282.817415 
L 75.918846 284.602816 
L 73.190987 286.327918 
L 70.463129 287.981018 
L 67.73527 289.552438 
L 65.007412 291.034568 
L 62.279554 292.421836 
L 59.551695 293.710639 
L 56.823837 294.899216 
L 54.095978 295.987494 
L 51.36812 296.976898 
L 48.640261 297.870151 
L 45.912403 298.671061 
L 43.184544 299.384304 
L 40.456686 300.015217 
L 37.728828 300.5696 
L 35.000969 301.053534 
L 32.273111 301.473221 
L 29.545252 301.834837 
L 26.817394 302.144419 
L 24.089535 302.407766 
L 21.361677 302.630366 
L 18.633818 302.81734 
L 15.90596 302.973406 
L 13.178102 303.102864 
L 10.450243 303.209584 
L 7.722385 303.297018 
z
" style="fill:#ff7f0e;fill-opacity:0.4;stroke:#ff7f0e;"/>
   </g>
   <g id="matplotlib.axis_1">
    <g id="xtick_1">
     <g id="line2d_1">
      <defs>
       <path d="M 0 0 
L 0 3.5 
" id="me2a980da67" style="stroke:#000000;stroke-width:0.8;"/>
      </defs>
      <g>
       <use style="stroke:#000000;stroke-width:0.8;" x="54.2" xlink:href="#me2a980da67" y="303.64"/>
      </g>
     </g>
     <g id="text_1">
      <!-- 0.0 -->
      <g transform="translate(46.248438 318.238437)scale(0.1 -0.1)">
       <defs>
        <path d="M 2034 4250 
Q 1547 4250 1301 3770 
Q 1056 3291 1056 2328 
Q 1056 1369 1301 889 
Q 1547 409 2034 409 
Q 2525 409 2770 889 
Q 3016 1369 3016 2328 
Q 3016 3291 2770 3770 
Q 2525 4250 2034 4250 
z
M 2034 4750 
Q 2819 4750 3233 4129 
Q 3647 3509 3647 2328 
Q 3647 1150 3233 529 
Q 2819 -91 2034 -91 
Q 1250 -91 836 529 
Q 422 1150 422 2328 
Q 422 3509 836 4129 
Q 1250 4750 2034 4750 
z
" id="DejaVuSans-30" transform="scale(0.015625)"/>
        <path d="M 684 794 
L 1344 794 
L 1344 0 
L 684 0 
L 684 794 
z
" id="DejaVuSans-2e" transform="scale(0.015625)"/>
       </defs>
       <use xlink:href="#DejaVuSans-30"/>
       <use x="63.623047" xlink:href="#DejaVuSans-2e"/>
       <use x="95.410156" xlink:href="#DejaVuSans-30"/>
      </g>
     </g>
    </g>
    <g id="xtick_2">
     <g id="line2d_2">
      <g>
       <use style="stroke:#000000;stroke-width:0.8;" x="131.767" xlink:href="#me2a980da67" y="303.64"/>
      </g>
     </g>
     <g id="text_2">
      <!-- 0.2 -->
      <g transform="translate(123.815438 318.238437)scale(0.1 -0.1)">
       <defs>
        <path d="M 1228 531 
L 3431 531 
L 3431 0 
L 469 0 
L 469 531 
Q 828 903 1448 1529 
Q 2069 2156 2228 2338 
Q 2531 2678 2651 2914 
Q 2772 3150 2772 3378 
Q 2772 3750 2511 3984 
Q 2250 4219 1831 4219 
Q 1534 4219 1204 4116 
Q 875 4013 500 3803 
L 500 4441 
Q 881 4594 1212 4672 
Q 1544 4750 1819 4750 
Q 2544 4750 2975 4387 
Q 3406 4025 3406 3419 
Q 3406 3131 3298 2873 
Q 3191 2616 2906 2266 
Q 2828 2175 2409 1742 
Q 1991 1309 1228 531 
z
" id="DejaVuSans-32" transform="scale(0.015625)"/>
       </defs>
       <use xlink:href="#DejaVuSans-30"/>
       <use x="63.623047" xlink:href="#DejaVuSans-2e"/>
       <use x="95.410156" xlink:href="#DejaVuSans-32"/>
      </g>
     </g>
    </g>
    <g id="xtick_3">
     <g id="line2d_3">
      <g>
       <use style="stroke:#000000;stroke-width:0.8;" x="209.334" xlink:href="#me2a980da67" y="303.64"/>
      </g>
     </g>
     <g id="text_3">
      <!-- 0.4 -->
      <g transform="translate(201.382438 318.238437)scale(0.1 -0.1)">
       <defs>
        <path d="M 2419 4116 
L 825 1625 
L 2419 1625 
L 2419 4116 
z
M 2253 4666 
L 3047 4666 
L 3047 1625 
L 3713 1625 
L 3713 1100 
L 3047 1100 
L 3047 0 
L 2419 0 
L 2419 1100 
L 313 1100 
L 313 1709 
L 2253 4666 
z
" id="DejaVuSans-34" transform="scale(0.015625)"/>
       </defs>
       <use xlink:href="#DejaVuSans-30"/>
       <use x="63.623047" xlink:href="#DejaVuSans-2e"/>
       <use x="95.410156" xlink:href="#DejaVuSans-34"/>
      </g>
     </g>
    </g>
    <g id="xtick_4">
     <g id="line2d_4">
      <g>
       <use style="stroke:#000000;stroke-width:0.8;" x="286.901" xlink:href="#me2a980da67" y="303.64"/>
      </g>
     </g>
     <g id="text_4">
      <!-- 0.6 -->
      <g transform="translate(278.949437 318.238437)scale(0.1 -0.1)">
       <defs>
        <path d="M 2113 2584 
Q 1688 2584 1439 2293 
Q 1191 2003 1191 1497 
Q 1191 994 1439 701 
Q 1688 409 2113 409 
Q 2538 409 2786 701 
Q 3034 994 3034 1497 
Q 3034 2003 2786 2293 
Q 2538 2584 2113 2584 
z
M 3366 4563 
L 3366 3988 
Q 3128 4100 2886 4159 
Q 2644 4219 2406 4219 
Q 1781 4219 1451 3797 
Q 1122 3375 1075 2522 
Q 1259 2794 1537 2939 
Q 1816 3084 2150 3084 
Q 2853 3084 3261 2657 
Q 3669 2231 3669 1497 
Q 3669 778 3244 343 
Q 2819 -91 2113 -91 
Q 1303 -91 875 529 
Q 447 1150 447 2328 
Q 447 3434 972 4092 
Q 1497 4750 2381 4750 
Q 2619 4750 2861 4703 
Q 3103 4656 3366 4563 
z
" id="DejaVuSans-36" transform="scale(0.015625)"/>
       </defs>
       <use xlink:href="#DejaVuSans-30"/>
       <use x="63.623047" xlink:href="#DejaVuSans-2e"/>
       <use x="95.410156" xlink:href="#DejaVuSans-36"/>
      </g>
     </g>
    </g>
    <g id="xtick_5">
     <g id="line2d_5">
      <g>
       <use style="stroke:#000000;stroke-width:0.8;" x="364.468" xlink:href="#me2a980da67" y="303.64"/>
      </g>
     </g>
     <g id="text_5">
      <!-- 0.8 -->
      <g transform="translate(356.516437 318.238437)scale(0.1 -0.1)">
       <defs>
        <path d="M 2034 2216 
Q 1584 2216 1326 1975 
Q 1069 1734 1069 1313 
Q 1069 891 1326 650 
Q 1584 409 2034 409 
Q 2484 409 2743 651 
Q 3003 894 3003 1313 
Q 3003 1734 2745 1975 
Q 2488 2216 2034 2216 
z
M 1403 2484 
Q 997 2584 770 2862 
Q 544 3141 544 3541 
Q 544 4100 942 4425 
Q 1341 4750 2034 4750 
Q 2731 4750 3128 4425 
Q 3525 4100 3525 3541 
Q 3525 3141 3298 2862 
Q 3072 2584 2669 2484 
Q 3125 2378 3379 2068 
Q 3634 1759 3634 1313 
Q 3634 634 3220 271 
Q 2806 -91 2034 -91 
Q 1263 -91 848 271 
Q 434 634 434 1313 
Q 434 1759 690 2068 
Q 947 2378 1403 2484 
z
M 1172 3481 
Q 1172 3119 1398 2916 
Q 1625 2713 2034 2713 
Q 2441 2713 2670 2916 
Q 2900 3119 2900 3481 
Q 2900 3844 2670 4047 
Q 2441 4250 2034 4250 
Q 1625 4250 1398 4047 
Q 1172 3844 1172 3481 
z
" id="DejaVuSans-38" transform="scale(0.015625)"/>
       </defs>
       <use xlink:href="#DejaVuSans-30"/>
       <use x="63.623047" xlink:href="#DejaVuSans-2e"/>
       <use x="95.410156" xlink:href="#DejaVuSans-38"/>
      </g>
     </g>
    </g>
    <g id="xtick_6">
     <g id="line2d_6">
      <g>
       <use style="stroke:#000000;stroke-width:0.8;" x="442.035" xlink:href="#me2a980da67" y="303.64"/>
      </g>
     </g>
     <g id="text_6">
      <!-- 1.0 -->
      <g transform="translate(434.083437 318.238437)scale(0.1 -0.1)">
       <defs>
        <path d="M 794 531 
L 1825 531 
L 1825 4091 
L 703 3866 
L 703 4441 
L 1819 4666 
L 2450 4666 
L 2450 531 
L 3481 531 
L 3481 0 
L 794 0 
L 794 531 
z
" id="DejaVuSans-31" transform="scale(0.015625)"/>
       </defs>
       <use xlink:href="#DejaVuSans-31"/>
       <use x="63.623047" xlink:href="#DejaVuSans-2e"/>
       <use x="95.410156" xlink:href="#DejaVuSans-30"/>
      </g>
     </g>
    </g>
    <g id="text_7">
     <!-- Credibility index -->
     <g transform="translate(207.512812 331.916562)scale(0.1 -0.1)">
      <defs>
       <path d="M 4122 4306 
L 4122 3641 
Q 3803 3938 3442 4084 
Q 3081 4231 2675 4231 
Q 1875 4231 1450 3742 
Q 1025 3253 1025 2328 
Q 1025 1406 1450 917 
Q 1875 428 2675 428 
Q 3081 428 3442 575 
Q 3803 722 4122 1019 
L 4122 359 
Q 3791 134 3420 21 
Q 3050 -91 2638 -91 
Q 1578 -91 968 557 
Q 359 1206 359 2328 
Q 359 3453 968 4101 
Q 1578 4750 2638 4750 
Q 3056 4750 3426 4639 
Q 3797 4528 4122 4306 
z
" id="DejaVuSans-43" transform="scale(0.015625)"/>
       <path d="M 2631 2963 
Q 2534 3019 2420 3045 
Q 2306 3072 2169 3072 
Q 1681 3072 1420 2755 
Q 1159 2438 1159 1844 
L 1159 0 
L 581 0 
L 581 3500 
L 1159 3500 
L 1159 2956 
Q 1341 3275 1631 3429 
Q 1922 3584 2338 3584 
Q 2397 3584 2469 3576 
Q 2541 3569 2628 3553 
L 2631 2963 
z
" id="DejaVuSans-72" transform="scale(0.015625)"/>
       <path d="M 3597 1894 
L 3597 1613 
L 953 1613 
Q 991 1019 1311 708 
Q 1631 397 2203 397 
Q 2534 397 2845 478 
Q 3156 559 3463 722 
L 3463 178 
Q 3153 47 2828 -22 
Q 2503 -91 2169 -91 
Q 1331 -91 842 396 
Q 353 884 353 1716 
Q 353 2575 817 3079 
Q 1281 3584 2069 3584 
Q 2775 3584 3186 3129 
Q 3597 2675 3597 1894 
z
M 3022 2063 
Q 3016 2534 2758 2815 
Q 2500 3097 2075 3097 
Q 1594 3097 1305 2825 
Q 1016 2553 972 2059 
L 3022 2063 
z
" id="DejaVuSans-65" transform="scale(0.015625)"/>
       <path d="M 2906 2969 
L 2906 4863 
L 3481 4863 
L 3481 0 
L 2906 0 
L 2906 525 
Q 2725 213 2448 61 
Q 2172 -91 1784 -91 
Q 1150 -91 751 415 
Q 353 922 353 1747 
Q 353 2572 751 3078 
Q 1150 3584 1784 3584 
Q 2172 3584 2448 3432 
Q 2725 3281 2906 2969 
z
M 947 1747 
Q 947 1113 1208 752 
Q 1469 391 1925 391 
Q 2381 391 2643 752 
Q 2906 1113 2906 1747 
Q 2906 2381 2643 2742 
Q 2381 3103 1925 3103 
Q 1469 3103 1208 2742 
Q 947 2381 947 1747 
z
" id="DejaVuSans-64" transform="scale(0.015625)"/>
       <path d="M 603 3500 
L 1178 3500 
L 1178 0 
L 603 0 
L 603 3500 
z
M 603 4863 
L 1178 4863 
L 1178 4134 
L 603 4134 
L 603 4863 
z
" id="DejaVuSans-69" transform="scale(0.015625)"/>
       <path d="M 3116 1747 
Q 3116 2381 2855 2742 
Q 2594 3103 2138 3103 
Q 1681 3103 1420 2742 
Q 1159 2381 1159 1747 
Q 1159 1113 1420 752 
Q 1681 391 2138 391 
Q 2594 391 2855 752 
Q 3116 1113 3116 1747 
z
M 1159 2969 
Q 1341 3281 1617 3432 
Q 1894 3584 2278 3584 
Q 2916 3584 3314 3078 
Q 3713 2572 3713 1747 
Q 3713 922 3314 415 
Q 2916 -91 2278 -91 
Q 1894 -91 1617 61 
Q 1341 213 1159 525 
L 1159 0 
L 581 0 
L 581 4863 
L 1159 4863 
L 1159 2969 
z
" id="DejaVuSans-62" transform="scale(0.015625)"/>
       <path d="M 603 4863 
L 1178 4863 
L 1178 0 
L 603 0 
L 603 4863 
z
" id="DejaVuSans-6c" transform="scale(0.015625)"/>
       <path d="M 1172 4494 
L 1172 3500 
L 2356 3500 
L 2356 3053 
L 1172 3053 
L 1172 1153 
Q 1172 725 1289 603 
Q 1406 481 1766 481 
L 2356 481 
L 2356 0 
L 1766 0 
Q 1100 0 847 248 
Q 594 497 594 1153 
L 594 3053 
L 172 3053 
L 172 3500 
L 594 3500 
L 594 4494 
L 1172 4494 
z
" id="DejaVuSans-74" transform="scale(0.015625)"/>
       <path d="M 2059 -325 
Q 1816 -950 1584 -1140 
Q 1353 -1331 966 -1331 
L 506 -1331 
L 506 -850 
L 844 -850 
Q 1081 -850 1212 -737 
Q 1344 -625 1503 -206 
L 1606 56 
L 191 3500 
L 800 3500 
L 1894 763 
L 2988 3500 
L 3597 3500 
L 2059 -325 
z
" id="DejaVuSans-79" transform="scale(0.015625)"/>
       <path id="DejaVuSans-20" transform="scale(0.015625)"/>
       <path d="M 3513 2113 
L 3513 0 
L 2938 0 
L 2938 2094 
Q 2938 2591 2744 2837 
Q 2550 3084 2163 3084 
Q 1697 3084 1428 2787 
Q 1159 2491 1159 1978 
L 1159 0 
L 581 0 
L 581 3500 
L 1159 3500 
L 1159 2956 
Q 1366 3272 1645 3428 
Q 1925 3584 2291 3584 
Q 2894 3584 3203 3211 
Q 3513 2838 3513 2113 
z
" id="DejaVuSans-6e" transform="scale(0.015625)"/>
       <path d="M 3513 3500 
L 2247 1797 
L 3578 0 
L 2900 0 
L 1881 1375 
L 863 0 
L 184 0 
L 1544 1831 
L 300 3500 
L 978 3500 
L 1906 2253 
L 2834 3500 
L 3513 3500 
z
" id="DejaVuSans-78" transform="scale(0.015625)"/>
      </defs>
      <use xlink:href="#DejaVuSans-43"/>
      <use x="69.824219" xlink:href="#DejaVuSans-72"/>
      <use x="108.6875" xlink:href="#DejaVuSans-65"/>
      <use x="170.210938" xlink:href="#DejaVuSans-64"/>
      <use x="233.6875" xlink:href="#DejaVuSans-69"/>
      <use x="261.470703" xlink:href="#DejaVuSans-62"/>
      <use x="324.947266" xlink:href="#DejaVuSans-69"/>
      <use x="352.730469" xlink:href="#DejaVuSans-6c"/>
      <use x="380.513672" xlink:href="#DejaVuSans-69"/>
      <use x="408.296875" xlink:href="#DejaVuSans-74"/>
      <use x="447.505859" xlink:href="#DejaVuSans-79"/>
      <use x="506.685547" xlink:href="#DejaVuSans-20"/>
      <use x="538.472656" xlink:href="#DejaVuSans-69"/>
      <use x="566.255859" xlink:href="#DejaVuSans-6e"/>
      <use x="629.634766" xlink:href="#DejaVuSans-64"/>
      <use x="693.111328" xlink:href="#DejaVuSans-65"/>
      <use x="752.884766" xlink:href="#DejaVuSans-78"/>
     </g>
    </g>
   </g>
   <g id="matplotlib.axis_2">
    <g id="ytick_1">
     <g id="line2d_7">
      <defs>
       <path d="M 0 0 
L -3.5 0 
" id="m5146e2d9db" style="stroke:#000000;stroke-width:0.8;"/>
      </defs>
      <g>
       <use style="stroke:#000000;stroke-width:0.8;" x="54.2" xlink:href="#m5146e2d9db" y="303.64"/>
      </g>
     </g>
     <g id="text_8">
      <!-- 0.00 -->
      <g transform="translate(24.934375 307.439219)scale(0.1 -0.1)">
       <use xlink:href="#DejaVuSans-30"/>
       <use x="63.623047" xlink:href="#DejaVuSans-2e"/>
       <use x="95.410156" xlink:href="#DejaVuSans-30"/>
       <use x="159.033203" xlink:href="#DejaVuSans-30"/>
      </g>
     </g>
    </g>
    <g id="ytick_2">
     <g id="line2d_8">
      <g>
       <use style="stroke:#000000;stroke-width:0.8;" x="54.2" xlink:href="#m5146e2d9db" y="271.859329"/>
      </g>
     </g>
     <g id="text_9">
      <!-- 0.25 -->
      <g transform="translate(24.934375 275.658548)scale(0.1 -0.1)">
       <defs>
        <path d="M 691 4666 
L 3169 4666 
L 3169 4134 
L 1269 4134 
L 1269 2991 
Q 1406 3038 1543 3061 
Q 1681 3084 1819 3084 
Q 2600 3084 3056 2656 
Q 3513 2228 3513 1497 
Q 3513 744 3044 326 
Q 2575 -91 1722 -91 
Q 1428 -91 1123 -41 
Q 819 9 494 109 
L 494 744 
Q 775 591 1075 516 
Q 1375 441 1709 441 
Q 2250 441 2565 725 
Q 2881 1009 2881 1497 
Q 2881 1984 2565 2268 
Q 2250 2553 1709 2553 
Q 1456 2553 1204 2497 
Q 953 2441 691 2322 
L 691 4666 
z
" id="DejaVuSans-35" transform="scale(0.015625)"/>
       </defs>
       <use xlink:href="#DejaVuSans-30"/>
       <use x="63.623047" xlink:href="#DejaVuSans-2e"/>
       <use x="95.410156" xlink:href="#DejaVuSans-32"/>
       <use x="159.033203" xlink:href="#DejaVuSans-35"/>
      </g>
     </g>
    </g>
    <g id="ytick_3">
     <g id="line2d_9">
      <g>
       <use style="stroke:#000000;stroke-width:0.8;" x="54.2" xlink:href="#m5146e2d9db" y="240.078659"/>
      </g>
     </g>
     <g id="text_10">
      <!-- 0.50 -->
      <g transform="translate(24.934375 243.877878)scale(0.1 -0.1)">
       <use xlink:href="#DejaVuSans-30"/>
       <use x="63.623047" xlink:href="#DejaVuSans-2e"/>
       <use x="95.410156" xlink:href="#DejaVuSans-35"/>
       <use x="159.033203" xlink:href="#DejaVuSans-30"/>
      </g>
     </g>
    </g>
    <g id="ytick_4">
     <g id="line2d_10">
      <g>
       <use style="stroke:#000000;stroke-width:0.8;" x="54.2" xlink:href="#m5146e2d9db" y="208.297988"/>
      </g>
     </g>
     <g id="text_11">
      <!-- 0.75 -->
      <g transform="translate(24.934375 212.097207)scale(0.1 -0.1)">
       <defs>
        <path d="M 525 4666 
L 3525 4666 
L 3525 4397 
L 1831 0 
L 1172 0 
L 2766 4134 
L 525 4134 
L 525 4666 
z
" id="DejaVuSans-37" transform="scale(0.015625)"/>
       </defs>
       <use xlink:href="#DejaVuSans-30"/>
       <use x="63.623047" xlink:href="#DejaVuSans-2e"/>
       <use x="95.410156" xlink:href="#DejaVuSans-37"/>
       <use x="159.033203" xlink:href="#DejaVuSans-35"/>
      </g>
     </g>
    </g>
    <g id="ytick_5">
     <g id="line2d_11">
      <g>
       <use style="stroke:#000000;stroke-width:0.8;" x="54.2" xlink:href="#m5146e2d9db" y="176.517318"/>
      </g>
     </g>
     <g id="text_12">
      <!-- 1.00 -->
      <g transform="translate(24.934375 180.316536)scale(0.1 -0.1)">
       <use xlink:href="#DejaVuSans-31"/>
       <use x="63.623047" xlink:href="#DejaVuSans-2e"/>
       <use x="95.410156" xlink:href="#DejaVuSans-30"/>
       <use x="159.033203" xlink:href="#DejaVuSans-30"/>
      </g>
     </g>
    </g>
    <g id="ytick_6">
     <g id="line2d_12">
      <g>
       <use style="stroke:#000000;stroke-width:0.8;" x="54.2" xlink:href="#m5146e2d9db" y="144.736647"/>
      </g>
     </g>
     <g id="text_13">
      <!-- 1.25 -->
      <g transform="translate(24.934375 148.535866)scale(0.1 -0.1)">
       <use xlink:href="#DejaVuSans-31"/>
       <use x="63.623047" xlink:href="#DejaVuSans-2e"/>
       <use x="95.410156" xlink:href="#DejaVuSans-32"/>
       <use x="159.033203" xlink:href="#DejaVuSans-35"/>
      </g>
     </g>
    </g>
    <g id="ytick_7">
     <g id="line2d_13">
      <g>
       <use style="stroke:#000000;stroke-width:0.8;" x="54.2" xlink:href="#m5146e2d9db" y="112.955976"/>
      </g>
     </g>
     <g id="text_14">
      <!-- 1.50 -->
      <g transform="translate(24.934375 116.755195)scale(0.1 -0.1)">
       <use xlink:href="#DejaVuSans-31"/>
       <use x="63.623047" xlink:href="#DejaVuSans-2e"/>
       <use x="95.410156" xlink:href="#DejaVuSans-35"/>
       <use x="159.033203" xlink:href="#DejaVuSans-30"/>
      </g>
     </g>
    </g>
    <g id="ytick_8">
     <g id="line2d_14">
      <g>
       <use style="stroke:#000000;stroke-width:0.8;" x="54.2" xlink:href="#m5146e2d9db" y="81.175306"/>
      </g>
     </g>
     <g id="text_15">
      <!-- 1.75 -->
      <g transform="translate(24.934375 84.974524)scale(0.1 -0.1)">
       <use xlink:href="#DejaVuSans-31"/>
       <use x="63.623047" xlink:href="#DejaVuSans-2e"/>
       <use x="95.410156" xlink:href="#DejaVuSans-37"/>
       <use x="159.033203" xlink:href="#DejaVuSans-35"/>
      </g>
     </g>
    </g>
    <g id="ytick_9">
     <g id="line2d_15">
      <g>
       <use style="stroke:#000000;stroke-width:0.8;" x="54.2" xlink:href="#m5146e2d9db" y="49.394635"/>
      </g>
     </g>
     <g id="text_16">
      <!-- 2.00 -->
      <g transform="translate(24.934375 53.193854)scale(0.1 -0.1)">
       <use xlink:href="#DejaVuSans-32"/>
       <use x="63.623047" xlink:href="#DejaVuSans-2e"/>
       <use x="95.410156" xlink:href="#DejaVuSans-30"/>
       <use x="159.033203" xlink:href="#DejaVuSans-30"/>
      </g>
     </g>
    </g>
    <g id="text_17">
     <!-- Density -->
     <g transform="translate(18.854688 189.812594)rotate(-90)scale(0.1 -0.1)">
      <defs>
       <path d="M 1259 4147 
L 1259 519 
L 2022 519 
Q 2988 519 3436 956 
Q 3884 1394 3884 2338 
Q 3884 3275 3436 3711 
Q 2988 4147 2022 4147 
L 1259 4147 
z
M 628 4666 
L 1925 4666 
Q 3281 4666 3915 4102 
Q 4550 3538 4550 2338 
Q 4550 1131 3912 565 
Q 3275 0 1925 0 
L 628 0 
L 628 4666 
z
" id="DejaVuSans-44" transform="scale(0.015625)"/>
       <path d="M 2834 3397 
L 2834 2853 
Q 2591 2978 2328 3040 
Q 2066 3103 1784 3103 
Q 1356 3103 1142 2972 
Q 928 2841 928 2578 
Q 928 2378 1081 2264 
Q 1234 2150 1697 2047 
L 1894 2003 
Q 2506 1872 2764 1633 
Q 3022 1394 3022 966 
Q 3022 478 2636 193 
Q 2250 -91 1575 -91 
Q 1294 -91 989 -36 
Q 684 19 347 128 
L 347 722 
Q 666 556 975 473 
Q 1284 391 1588 391 
Q 1994 391 2212 530 
Q 2431 669 2431 922 
Q 2431 1156 2273 1281 
Q 2116 1406 1581 1522 
L 1381 1569 
Q 847 1681 609 1914 
Q 372 2147 372 2553 
Q 372 3047 722 3315 
Q 1072 3584 1716 3584 
Q 2034 3584 2315 3537 
Q 2597 3491 2834 3397 
z
" id="DejaVuSans-73" transform="scale(0.015625)"/>
      </defs>
      <use xlink:href="#DejaVuSans-44"/>
      <use x="77.001953" xlink:href="#DejaVuSans-65"/>
      <use x="138.525391" xlink:href="#DejaVuSans-6e"/>
      <use x="201.904297" xlink:href="#DejaVuSans-73"/>
      <use x="254.003906" xlink:href="#DejaVuSans-69"/>
      <use x="281.787109" xlink:href="#DejaVuSans-74"/>
      <use x="320.996094" xlink:href="#DejaVuSans-79"/>
     </g>
    </g>
   </g>
   <g id="patch_3">
    <path d="M 54.2 303.64 
L 54.2 37.968 
" style="fill:none;stroke:#000000;stroke-linecap:square;stroke-linejoin:miter;stroke-width:0.8;"/>
   </g>
   <g id="patch_4">
    <path d="M 442.035 303.64 
L 442.035 37.968 
" style="fill:none;stroke:#000000;stroke-linecap:square;stroke-linejoin:miter;stroke-width:0.8;"/>
   </g>
   <g id="patch_5">
    <path d="M 54.2 303.64 
L 442.035 303.64 
" style="fill:none;stroke:#000000;stroke-linecap:square;stroke-linejoin:miter;stroke-width:0.8;"/>
   </g>
   <g id="patch_6">
    <path d="M 54.2 37.968 
L 442.035 37.968 
" style="fill:none;stroke:#000000;stroke-linecap:square;stroke-linejoin:miter;stroke-width:0.8;"/>
   </g>
   <g id="text_18">
    <!-- Credibility index consensus vs non consensus  -->
    <g transform="translate(109.01125 18.530625)scale(0.12 -0.12)">
     <defs>
      <path d="M 3122 3366 
L 3122 2828 
Q 2878 2963 2633 3030 
Q 2388 3097 2138 3097 
Q 1578 3097 1268 2742 
Q 959 2388 959 1747 
Q 959 1106 1268 751 
Q 1578 397 2138 397 
Q 2388 397 2633 464 
Q 2878 531 3122 666 
L 3122 134 
Q 2881 22 2623 -34 
Q 2366 -91 2075 -91 
Q 1284 -91 818 406 
Q 353 903 353 1747 
Q 353 2603 823 3093 
Q 1294 3584 2113 3584 
Q 2378 3584 2631 3529 
Q 2884 3475 3122 3366 
z
" id="DejaVuSans-63" transform="scale(0.015625)"/>
      <path d="M 1959 3097 
Q 1497 3097 1228 2736 
Q 959 2375 959 1747 
Q 959 1119 1226 758 
Q 1494 397 1959 397 
Q 2419 397 2687 759 
Q 2956 1122 2956 1747 
Q 2956 2369 2687 2733 
Q 2419 3097 1959 3097 
z
M 1959 3584 
Q 2709 3584 3137 3096 
Q 3566 2609 3566 1747 
Q 3566 888 3137 398 
Q 2709 -91 1959 -91 
Q 1206 -91 779 398 
Q 353 888 353 1747 
Q 353 2609 779 3096 
Q 1206 3584 1959 3584 
z
" id="DejaVuSans-6f" transform="scale(0.015625)"/>
      <path d="M 544 1381 
L 544 3500 
L 1119 3500 
L 1119 1403 
Q 1119 906 1312 657 
Q 1506 409 1894 409 
Q 2359 409 2629 706 
Q 2900 1003 2900 1516 
L 2900 3500 
L 3475 3500 
L 3475 0 
L 2900 0 
L 2900 538 
Q 2691 219 2414 64 
Q 2138 -91 1772 -91 
Q 1169 -91 856 284 
Q 544 659 544 1381 
z
M 1991 3584 
L 1991 3584 
z
" id="DejaVuSans-75" transform="scale(0.015625)"/>
      <path d="M 191 3500 
L 800 3500 
L 1894 563 
L 2988 3500 
L 3597 3500 
L 2284 0 
L 1503 0 
L 191 3500 
z
" id="DejaVuSans-76" transform="scale(0.015625)"/>
     </defs>
     <use xlink:href="#DejaVuSans-43"/>
     <use x="69.824219" xlink:href="#DejaVuSans-72"/>
     <use x="108.6875" xlink:href="#DejaVuSans-65"/>
     <use x="170.210938" xlink:href="#DejaVuSans-64"/>
     <use x="233.6875" xlink:href="#DejaVuSans-69"/>
     <use x="261.470703" xlink:href="#DejaVuSans-62"/>
     <use x="324.947266" xlink:href="#DejaVuSans-69"/>
     <use x="352.730469" xlink:href="#DejaVuSans-6c"/>
     <use x="380.513672" xlink:href="#DejaVuSans-69"/>
     <use x="408.296875" xlink:href="#DejaVuSans-74"/>
     <use x="447.505859" xlink:href="#DejaVuSans-79"/>
     <use x="506.685547" xlink:href="#DejaVuSans-20"/>
     <use x="538.472656" xlink:href="#DejaVuSans-69"/>
     <use x="566.255859" xlink:href="#DejaVuSans-6e"/>
     <use x="629.634766" xlink:href="#DejaVuSans-64"/>
     <use x="693.111328" xlink:href="#DejaVuSans-65"/>
     <use x="752.884766" xlink:href="#DejaVuSans-78"/>
     <use x="812.064453" xlink:href="#DejaVuSans-20"/>
     <use x="843.851562" xlink:href="#DejaVuSans-63"/>
     <use x="898.832031" xlink:href="#DejaVuSans-6f"/>
     <use x="960.013672" xlink:href="#DejaVuSans-6e"/>
     <use x="1023.392578" xlink:href="#DejaVuSans-73"/>
     <use x="1075.492188" xlink:href="#DejaVuSans-65"/>
     <use x="1137.015625" xlink:href="#DejaVuSans-6e"/>
     <use x="1200.394531" xlink:href="#DejaVuSans-73"/>
     <use x="1252.494141" xlink:href="#DejaVuSans-75"/>
     <use x="1315.873047" xlink:href="#DejaVuSans-73"/>
     <use x="1367.972656" xlink:href="#DejaVuSans-20"/>
     <use x="1399.759766" xlink:href="#DejaVuSans-76"/>
     <use x="1458.939453" xlink:href="#DejaVuSans-73"/>
     <use x="1511.039062" xlink:href="#DejaVuSans-20"/>
     <use x="1542.826172" xlink:href="#DejaVuSans-6e"/>
     <use x="1606.205078" xlink:href="#DejaVuSans-6f"/>
     <use x="1667.386719" xlink:href="#DejaVuSans-6e"/>
     <use x="1730.765625" xlink:href="#DejaVuSans-20"/>
     <use x="1762.552734" xlink:href="#DejaVuSans-63"/>
     <use x="1817.533203" xlink:href="#DejaVuSans-6f"/>
     <use x="1878.714844" xlink:href="#DejaVuSans-6e"/>
     <use x="1942.09375" xlink:href="#DejaVuSans-73"/>
     <use x="1994.193359" xlink:href="#DejaVuSans-65"/>
     <use x="2055.716797" xlink:href="#DejaVuSans-6e"/>
     <use x="2119.095703" xlink:href="#DejaVuSans-73"/>
     <use x="2171.195312" xlink:href="#DejaVuSans-75"/>
     <use x="2234.574219" xlink:href="#DejaVuSans-73"/>
     <use x="2286.673828" xlink:href="#DejaVuSans-20"/>
    </g>
    <!-- Set big -->
    <g transform="translate(227.0725 31.968)scale(0.12 -0.12)">
     <defs>
      <path d="M 3425 4513 
L 3425 3897 
Q 3066 4069 2747 4153 
Q 2428 4238 2131 4238 
Q 1616 4238 1336 4038 
Q 1056 3838 1056 3469 
Q 1056 3159 1242 3001 
Q 1428 2844 1947 2747 
L 2328 2669 
Q 3034 2534 3370 2195 
Q 3706 1856 3706 1288 
Q 3706 609 3251 259 
Q 2797 -91 1919 -91 
Q 1588 -91 1214 -16 
Q 841 59 441 206 
L 441 856 
Q 825 641 1194 531 
Q 1563 422 1919 422 
Q 2459 422 2753 634 
Q 3047 847 3047 1241 
Q 3047 1584 2836 1778 
Q 2625 1972 2144 2069 
L 1759 2144 
Q 1053 2284 737 2584 
Q 422 2884 422 3419 
Q 422 4038 858 4394 
Q 1294 4750 2059 4750 
Q 2388 4750 2728 4690 
Q 3069 4631 3425 4513 
z
" id="DejaVuSans-53" transform="scale(0.015625)"/>
      <path d="M 2906 1791 
Q 2906 2416 2648 2759 
Q 2391 3103 1925 3103 
Q 1463 3103 1205 2759 
Q 947 2416 947 1791 
Q 947 1169 1205 825 
Q 1463 481 1925 481 
Q 2391 481 2648 825 
Q 2906 1169 2906 1791 
z
M 3481 434 
Q 3481 -459 3084 -895 
Q 2688 -1331 1869 -1331 
Q 1566 -1331 1297 -1286 
Q 1028 -1241 775 -1147 
L 775 -588 
Q 1028 -725 1275 -790 
Q 1522 -856 1778 -856 
Q 2344 -856 2625 -561 
Q 2906 -266 2906 331 
L 2906 616 
Q 2728 306 2450 153 
Q 2172 0 1784 0 
Q 1141 0 747 490 
Q 353 981 353 1791 
Q 353 2603 747 3093 
Q 1141 3584 1784 3584 
Q 2172 3584 2450 3431 
Q 2728 3278 2906 2969 
L 2906 3500 
L 3481 3500 
L 3481 434 
z
" id="DejaVuSans-67" transform="scale(0.015625)"/>
     </defs>
     <use xlink:href="#DejaVuSans-53"/>
     <use x="63.476562" xlink:href="#DejaVuSans-65"/>
     <use x="125" xlink:href="#DejaVuSans-74"/>
     <use x="164.208984" xlink:href="#DejaVuSans-20"/>
     <use x="195.996094" xlink:href="#DejaVuSans-62"/>
     <use x="259.472656" xlink:href="#DejaVuSans-69"/>
     <use x="287.255859" xlink:href="#DejaVuSans-67"/>
    </g>
   </g>
   <g id="legend_1">
    <g id="patch_7">
     <path d="M 61.2 97.719875 
L 231.742188 97.719875 
Q 233.742188 97.719875 233.742188 95.719875 
L 233.742188 44.968 
Q 233.742188 42.968 231.742188 42.968 
L 61.2 42.968 
Q 59.2 42.968 59.2 44.968 
L 59.2 95.719875 
Q 59.2 97.719875 61.2 97.719875 
z
" style="fill:#ffffff;opacity:0.8;stroke:#cccccc;stroke-linejoin:miter;"/>
    </g>
    <g id="patch_8">
     <path d="M 63.2 61.205188 
L 83.2 61.205188 
L 83.2 54.205188 
L 63.2 54.205188 
z
" style="fill:#1f77b4;fill-opacity:0.4;stroke:#1f77b4;stroke-linejoin:miter;"/>
    </g>
    <g id="text_19">
     <!-- Correlation higher than 0  -->
     <g transform="translate(91.2 54.566438)scale(0.1 -0.1)">
      <defs>
       <path d="M 2194 1759 
Q 1497 1759 1228 1600 
Q 959 1441 959 1056 
Q 959 750 1161 570 
Q 1363 391 1709 391 
Q 2188 391 2477 730 
Q 2766 1069 2766 1631 
L 2766 1759 
L 2194 1759 
z
M 3341 1997 
L 3341 0 
L 2766 0 
L 2766 531 
Q 2569 213 2275 61 
Q 1981 -91 1556 -91 
Q 1019 -91 701 211 
Q 384 513 384 1019 
Q 384 1609 779 1909 
Q 1175 2209 1959 2209 
L 2766 2209 
L 2766 2266 
Q 2766 2663 2505 2880 
Q 2244 3097 1772 3097 
Q 1472 3097 1187 3025 
Q 903 2953 641 2809 
L 641 3341 
Q 956 3463 1253 3523 
Q 1550 3584 1831 3584 
Q 2591 3584 2966 3190 
Q 3341 2797 3341 1997 
z
" id="DejaVuSans-61" transform="scale(0.015625)"/>
       <path d="M 3513 2113 
L 3513 0 
L 2938 0 
L 2938 2094 
Q 2938 2591 2744 2837 
Q 2550 3084 2163 3084 
Q 1697 3084 1428 2787 
Q 1159 2491 1159 1978 
L 1159 0 
L 581 0 
L 581 4863 
L 1159 4863 
L 1159 2956 
Q 1366 3272 1645 3428 
Q 1925 3584 2291 3584 
Q 2894 3584 3203 3211 
Q 3513 2838 3513 2113 
z
" id="DejaVuSans-68" transform="scale(0.015625)"/>
      </defs>
      <use xlink:href="#DejaVuSans-43"/>
      <use x="69.824219" xlink:href="#DejaVuSans-6f"/>
      <use x="131.005859" xlink:href="#DejaVuSans-72"/>
      <use x="170.369141" xlink:href="#DejaVuSans-72"/>
      <use x="209.232422" xlink:href="#DejaVuSans-65"/>
      <use x="270.755859" xlink:href="#DejaVuSans-6c"/>
      <use x="298.539062" xlink:href="#DejaVuSans-61"/>
      <use x="359.818359" xlink:href="#DejaVuSans-74"/>
      <use x="399.027344" xlink:href="#DejaVuSans-69"/>
      <use x="426.810547" xlink:href="#DejaVuSans-6f"/>
      <use x="487.992188" xlink:href="#DejaVuSans-6e"/>
      <use x="551.371094" xlink:href="#DejaVuSans-20"/>
      <use x="583.158203" xlink:href="#DejaVuSans-68"/>
      <use x="646.537109" xlink:href="#DejaVuSans-69"/>
      <use x="674.320312" xlink:href="#DejaVuSans-67"/>
      <use x="737.796875" xlink:href="#DejaVuSans-68"/>
      <use x="801.175781" xlink:href="#DejaVuSans-65"/>
      <use x="862.699219" xlink:href="#DejaVuSans-72"/>
      <use x="903.8125" xlink:href="#DejaVuSans-20"/>
      <use x="935.599609" xlink:href="#DejaVuSans-74"/>
      <use x="974.808594" xlink:href="#DejaVuSans-68"/>
      <use x="1038.1875" xlink:href="#DejaVuSans-61"/>
      <use x="1099.466797" xlink:href="#DejaVuSans-6e"/>
      <use x="1162.845703" xlink:href="#DejaVuSans-20"/>
      <use x="1194.632812" xlink:href="#DejaVuSans-30"/>
      <use x="1258.255859" xlink:href="#DejaVuSans-20"/>
     </g>
     <!-- n=171 -->
     <g transform="translate(91.2 65.76425)scale(0.1 -0.1)">
      <defs>
       <path d="M 678 2906 
L 4684 2906 
L 4684 2381 
L 678 2381 
L 678 2906 
z
M 678 1631 
L 4684 1631 
L 4684 1100 
L 678 1100 
L 678 1631 
z
" id="DejaVuSans-3d" transform="scale(0.015625)"/>
      </defs>
      <use xlink:href="#DejaVuSans-6e"/>
      <use x="63.378906" xlink:href="#DejaVuSans-3d"/>
      <use x="147.167969" xlink:href="#DejaVuSans-31"/>
      <use x="210.791016" xlink:href="#DejaVuSans-37"/>
      <use x="274.414062" xlink:href="#DejaVuSans-31"/>
     </g>
    </g>
    <g id="patch_9">
     <path d="M 63.2 87.081125 
L 83.2 87.081125 
L 83.2 80.081125 
L 63.2 80.081125 
z
" style="fill:#ff7f0e;fill-opacity:0.4;stroke:#ff7f0e;stroke-linejoin:miter;"/>
    </g>
    <g id="text_20">
     <!-- Correlation higher than 0.8  -->
     <g transform="translate(91.2 80.442375)scale(0.1 -0.1)">
      <use xlink:href="#DejaVuSans-43"/>
      <use x="69.824219" xlink:href="#DejaVuSans-6f"/>
      <use x="131.005859" xlink:href="#DejaVuSans-72"/>
      <use x="170.369141" xlink:href="#DejaVuSans-72"/>
      <use x="209.232422" xlink:href="#DejaVuSans-65"/>
      <use x="270.755859" xlink:href="#DejaVuSans-6c"/>
      <use x="298.539062" xlink:href="#DejaVuSans-61"/>
      <use x="359.818359" xlink:href="#DejaVuSans-74"/>
      <use x="399.027344" xlink:href="#DejaVuSans-69"/>
      <use x="426.810547" xlink:href="#DejaVuSans-6f"/>
      <use x="487.992188" xlink:href="#DejaVuSans-6e"/>
      <use x="551.371094" xlink:href="#DejaVuSans-20"/>
      <use x="583.158203" xlink:href="#DejaVuSans-68"/>
      <use x="646.537109" xlink:href="#DejaVuSans-69"/>
      <use x="674.320312" xlink:href="#DejaVuSans-67"/>
      <use x="737.796875" xlink:href="#DejaVuSans-68"/>
      <use x="801.175781" xlink:href="#DejaVuSans-65"/>
      <use x="862.699219" xlink:href="#DejaVuSans-72"/>
      <use x="903.8125" xlink:href="#DejaVuSans-20"/>
      <use x="935.599609" xlink:href="#DejaVuSans-74"/>
      <use x="974.808594" xlink:href="#DejaVuSans-68"/>
      <use x="1038.1875" xlink:href="#DejaVuSans-61"/>
      <use x="1099.466797" xlink:href="#DejaVuSans-6e"/>
      <use x="1162.845703" xlink:href="#DejaVuSans-20"/>
      <use x="1194.632812" xlink:href="#DejaVuSans-30"/>
      <use x="1258.255859" xlink:href="#DejaVuSans-2e"/>
      <use x="1290.042969" xlink:href="#DejaVuSans-38"/>
      <use x="1353.666016" xlink:href="#DejaVuSans-20"/>
     </g>
     <!-- n=119 -->
     <g transform="translate(91.2 91.640187)scale(0.1 -0.1)">
      <defs>
       <path d="M 703 97 
L 703 672 
Q 941 559 1184 500 
Q 1428 441 1663 441 
Q 2288 441 2617 861 
Q 2947 1281 2994 2138 
Q 2813 1869 2534 1725 
Q 2256 1581 1919 1581 
Q 1219 1581 811 2004 
Q 403 2428 403 3163 
Q 403 3881 828 4315 
Q 1253 4750 1959 4750 
Q 2769 4750 3195 4129 
Q 3622 3509 3622 2328 
Q 3622 1225 3098 567 
Q 2575 -91 1691 -91 
Q 1453 -91 1209 -44 
Q 966 3 703 97 
z
M 1959 2075 
Q 2384 2075 2632 2365 
Q 2881 2656 2881 3163 
Q 2881 3666 2632 3958 
Q 2384 4250 1959 4250 
Q 1534 4250 1286 3958 
Q 1038 3666 1038 3163 
Q 1038 2656 1286 2365 
Q 1534 2075 1959 2075 
z
" id="DejaVuSans-39" transform="scale(0.015625)"/>
      </defs>
      <use xlink:href="#DejaVuSans-6e"/>
      <use x="63.378906" xlink:href="#DejaVuSans-3d"/>
      <use x="147.167969" xlink:href="#DejaVuSans-31"/>
      <use x="210.791016" xlink:href="#DejaVuSans-31"/>
      <use x="274.414062" xlink:href="#DejaVuSans-39"/>
     </g>
    </g>
   </g>
  </g>
 </g>
 <defs>
  <clipPath id="p8e91fac537">
   <rect height="265.672" width="387.835" x="54.2" y="37.968"/>
  </clipPath>
 </defs>
</svg>
