<?xml version="1.0" encoding="utf-8" standalone="no"?>
<!DOCTYPE svg PUBLIC "-//W3C//DTD SVG 1.1//EN"
  "http://www.w3.org/Graphics/SVG/1.1/DTD/svg11.dtd">
<svg height="345.6pt" version="1.1" viewBox="0 0 460.8 345.6" width="460.8pt" xmlns="http://www.w3.org/2000/svg" xmlns:xlink="http://www.w3.org/1999/xlink">
 <metadata>
  <rdf:RDF xmlns:cc="http://creativecommons.org/ns#" xmlns:dc="http://purl.org/dc/elements/1.1/" xmlns:rdf="http://www.w3.org/1999/02/22-rdf-syntax-ns#">
   <cc:Work>
    <dc:type rdf:resource="http://purl.org/dc/dcmitype/StillImage"/>
    <dc:date>2021-11-24T22:48:01.233969</dc:date>
    <dc:format>image/svg+xml</dc:format>
    <dc:creator>
     <cc:Agent>
      <dc:title>Matplotlib v3.4.3, https://matplotlib.org/</dc:title>
     </cc:Agent>
    </dc:creator>
   </cc:Work>
  </rdf:RDF>
 </metadata>
 <defs>
  <style type="text/css">*{stroke-linecap:butt;stroke-linejoin:round;}</style>
 </defs>
 <g id="figure_1">
  <g id="patch_1">
   <path d="M 0 345.6 
L 460.8 345.6 
L 460.8 0 
L 0 0 
z
" style="fill:#ffffff;"/>
  </g>
  <g id="axes_1">
   <g id="patch_2">
    <path d="M 47.81 303.64 
L 442.035 303.64 
L 442.035 37.968 
L 47.81 37.968 
z
" style="fill:#ffffff;"/>
   </g>
   <g id="PolyCollection_1">
    <path clip-path="url(#p117c31fba8)" d="M -27.841553 303.441286 
L -27.841553 303.64 
L -24.862482 303.64 
L -21.883411 303.64 
L -18.90434 303.64 
L -15.925269 303.64 
L -12.946198 303.64 
L -9.967127 303.64 
L -6.988057 303.64 
L -4.008986 303.64 
L -1.029915 303.64 
L 1.949156 303.64 
L 4.928227 303.64 
L 7.907298 303.64 
L 10.886369 303.64 
L 13.86544 303.64 
L 16.844511 303.64 
L 19.823581 303.64 
L 22.802652 303.64 
L 25.781723 303.64 
L 28.760794 303.64 
L 31.739865 303.64 
L 34.718936 303.64 
L 37.698007 303.64 
L 40.677078 303.64 
L 43.656148 303.64 
L 46.635219 303.64 
L 49.61429 303.64 
L 52.593361 303.64 
L 55.572432 303.64 
L 58.551503 303.64 
L 61.530574 303.64 
L 64.509645 303.64 
L 67.488716 303.64 
L 70.467786 303.64 
L 73.446857 303.64 
L 76.425928 303.64 
L 79.404999 303.64 
L 82.38407 303.64 
L 85.363141 303.64 
L 88.342212 303.64 
L 91.321283 303.64 
L 94.300353 303.64 
L 97.279424 303.64 
L 100.258495 303.64 
L 103.237566 303.64 
L 106.216637 303.64 
L 109.195708 303.64 
L 112.174779 303.64 
L 115.15385 303.64 
L 118.13292 303.64 
L 121.111991 303.64 
L 124.091062 303.64 
L 127.070133 303.64 
L 130.049204 303.64 
L 133.028275 303.64 
L 136.007346 303.64 
L 138.986417 303.64 
L 141.965488 303.64 
L 144.944558 303.64 
L 147.923629 303.64 
L 150.9027 303.64 
L 153.881771 303.64 
L 156.860842 303.64 
L 159.839913 303.64 
L 162.818984 303.64 
L 165.798055 303.64 
L 168.777125 303.64 
L 171.756196 303.64 
L 174.735267 303.64 
L 177.714338 303.64 
L 180.693409 303.64 
L 183.67248 303.64 
L 186.651551 303.64 
L 189.630622 303.64 
L 192.609693 303.64 
L 195.588763 303.64 
L 198.567834 303.64 
L 201.546905 303.64 
L 204.525976 303.64 
L 207.505047 303.64 
L 210.484118 303.64 
L 213.463189 303.64 
L 216.44226 303.64 
L 219.42133 303.64 
L 222.400401 303.64 
L 225.379472 303.64 
L 228.358543 303.64 
L 231.337614 303.64 
L 234.316685 303.64 
L 237.295756 303.64 
L 240.274827 303.64 
L 243.253898 303.64 
L 246.232968 303.64 
L 249.212039 303.64 
L 252.19111 303.64 
L 255.170181 303.64 
L 258.149252 303.64 
L 261.128323 303.64 
L 264.107394 303.64 
L 267.086465 303.64 
L 270.065535 303.64 
L 273.044606 303.64 
L 276.023677 303.64 
L 279.002748 303.64 
L 281.981819 303.64 
L 284.96089 303.64 
L 287.939961 303.64 
L 290.919032 303.64 
L 293.898102 303.64 
L 296.877173 303.64 
L 299.856244 303.64 
L 302.835315 303.64 
L 305.814386 303.64 
L 308.793457 303.64 
L 311.772528 303.64 
L 314.751599 303.64 
L 317.73067 303.64 
L 320.70974 303.64 
L 323.688811 303.64 
L 326.667882 303.64 
L 329.646953 303.64 
L 332.626024 303.64 
L 335.605095 303.64 
L 338.584166 303.64 
L 341.563237 303.64 
L 344.542307 303.64 
L 347.521378 303.64 
L 350.500449 303.64 
L 353.47952 303.64 
L 356.458591 303.64 
L 359.437662 303.64 
L 362.416733 303.64 
L 365.395804 303.64 
L 368.374875 303.64 
L 371.353945 303.64 
L 374.333016 303.64 
L 377.312087 303.64 
L 380.291158 303.64 
L 383.270229 303.64 
L 386.2493 303.64 
L 389.228371 303.64 
L 392.207442 303.64 
L 395.186512 303.64 
L 398.165583 303.64 
L 401.144654 303.64 
L 404.123725 303.64 
L 407.102796 303.64 
L 410.081867 303.64 
L 413.060938 303.64 
L 416.040009 303.64 
L 419.01908 303.64 
L 421.99815 303.64 
L 424.977221 303.64 
L 427.956292 303.64 
L 430.935363 303.64 
L 433.914434 303.64 
L 436.893505 303.64 
L 439.872576 303.64 
L 442.851647 303.64 
L 445.830717 303.64 
L 448.809788 303.64 
L 451.788859 303.64 
L 454.76793 303.64 
L 457.747001 303.64 
L 460.726072 303.64 
L 463.705143 303.64 
L 466.684214 303.64 
L 469.663284 303.64 
L 472.642355 303.64 
L 475.621426 303.64 
L 478.600497 303.64 
L 481.579568 303.64 
L 484.558639 303.64 
L 487.53771 303.64 
L 490.516781 303.64 
L 493.495852 303.64 
L 496.474922 303.64 
L 499.453993 303.64 
L 502.433064 303.64 
L 505.412135 303.64 
L 508.391206 303.64 
L 511.370277 303.64 
L 514.349348 303.64 
L 517.328419 303.64 
L 520.307489 303.64 
L 523.28656 303.64 
L 526.265631 303.64 
L 529.244702 303.64 
L 532.223773 303.64 
L 535.202844 303.64 
L 538.181915 303.64 
L 541.160986 303.64 
L 544.140057 303.64 
L 547.119127 303.64 
L 550.098198 303.64 
L 553.077269 303.64 
L 556.05634 303.64 
L 559.035411 303.64 
L 562.014482 303.64 
L 564.993553 303.64 
L 564.993553 302.901062 
L 564.993553 302.901062 
L 562.014482 302.717678 
L 559.035411 302.49461 
L 556.05634 302.22478 
L 553.077269 301.900205 
L 550.098198 301.511964 
L 547.119127 301.050172 
L 544.140057 300.503986 
L 541.160986 299.861629 
L 538.181915 299.110448 
L 535.202844 298.237005 
L 532.223773 297.2272 
L 529.244702 296.066445 
L 526.265631 294.739867 
L 523.28656 293.232568 
L 520.307489 291.529914 
L 517.328419 289.617872 
L 514.349348 287.483381 
L 511.370277 285.114745 
L 508.391206 282.50206 
L 505.412135 279.637637 
L 502.433064 276.516433 
L 499.453993 273.136465 
L 496.474922 269.499194 
L 493.495852 265.609868 
L 490.516781 261.477798 
L 487.53771 257.116571 
L 484.558639 252.544168 
L 481.579568 247.782987 
L 478.600497 242.859758 
L 475.621426 237.805341 
L 472.642355 232.65442 
L 469.663284 227.445068 
L 466.684214 222.218215 
L 463.705143 217.017016 
L 460.726072 211.886135 
L 457.747001 206.870958 
L 454.76793 202.016771 
L 451.788859 197.367907 
L 448.809788 192.966899 
L 445.830717 188.853659 
L 442.851647 185.064713 
L 439.872576 181.632505 
L 436.893505 178.584804 
L 433.914434 175.944223 
L 430.935363 173.727861 
L 427.956292 171.947088 
L 424.977221 170.607469 
L 421.99815 169.708823 
L 419.01908 169.245424 
L 416.040009 169.206317 
L 413.060938 169.575752 
L 410.081867 170.333702 
L 407.102796 171.456458 
L 404.123725 172.917268 
L 401.144654 174.687008 
L 398.165583 176.734858 
L 395.186512 179.028958 
L 392.207442 181.537037 
L 389.228371 184.226982 
L 386.2493 187.067354 
L 383.270229 190.027827 
L 380.291158 193.079547 
L 377.312087 196.195415 
L 374.333016 199.350288 
L 371.353945 202.521106 
L 368.374875 205.686952 
L 365.395804 208.829049 
L 362.416733 211.930712 
L 359.437662 214.977257 
L 356.458591 217.955886 
L 353.47952 220.855551 
L 350.500449 223.666808 
L 347.521378 226.381682 
L 344.542307 228.993525 
L 341.563237 231.496897 
L 338.584166 233.887455 
L 335.605095 236.161868 
L 332.626024 238.317743 
L 329.646953 240.35357 
L 326.667882 242.268677 
L 323.688811 244.063205 
L 320.70974 245.738084 
L 317.73067 247.295009 
L 314.751599 248.736422 
L 311.772528 250.06549 
L 308.793457 251.286068 
L 305.814386 252.402662 
L 302.835315 253.420373 
L 299.856244 254.344833 
L 296.877173 255.182128 
L 293.898102 255.938708 
L 290.919032 256.621294 
L 287.939961 257.236763 
L 284.96089 257.792048 
L 281.981819 258.29402 
L 279.002748 258.749375 
L 276.023677 259.164534 
L 273.044606 259.545538 
L 270.065535 259.89796 
L 267.086465 260.226833 
L 264.107394 260.536577 
L 261.128323 260.830963 
L 258.149252 261.113073 
L 255.170181 261.385287 
L 252.19111 261.649287 
L 249.212039 261.906065 
L 246.232968 262.155958 
L 243.253898 262.398684 
L 240.274827 262.633394 
L 237.295756 262.858729 
L 234.316685 263.072886 
L 231.337614 263.273687 
L 228.358543 263.458649 
L 225.379472 263.625059 
L 222.400401 263.770047 
L 219.42133 263.890659 
L 216.44226 263.983929 
L 213.463189 264.046953 
L 210.484118 264.076956 
L 207.505047 264.071366 
L 204.525976 264.027879 
L 201.546905 263.94453 
L 198.567834 263.819761 
L 195.588763 263.652489 
L 192.609693 263.442172 
L 189.630622 263.188878 
L 186.651551 262.893342 
L 183.67248 262.557029 
L 180.693409 262.182187 
L 177.714338 261.771886 
L 174.735267 261.33006 
L 171.756196 260.861521 
L 168.777125 260.37197 
L 165.798055 259.867983 
L 162.818984 259.356981 
L 159.839913 258.847175 
L 156.860842 258.347495 
L 153.881771 257.867488 
L 150.9027 257.417201 
L 147.923629 257.007035 
L 144.944558 256.647587 
L 141.965488 256.349468 
L 138.986417 256.123112 
L 136.007346 255.978576 
L 133.028275 255.925333 
L 130.049204 255.972069 
L 127.070133 256.126485 
L 124.091062 256.395112 
L 121.111991 256.783145 
L 118.13292 257.294302 
L 115.15385 257.930702 
L 112.174779 258.692793 
L 109.195708 259.579295 
L 106.216637 260.587198 
L 103.237566 261.711786 
L 100.258495 262.946706 
L 97.279424 264.284075 
L 94.300353 265.714614 
L 91.321283 267.227819 
L 88.342212 268.812158 
L 85.363141 270.455286 
L 82.38407 272.144276 
L 79.404999 273.865858 
L 76.425928 275.60666 
L 73.446857 277.353446 
L 70.467786 279.09334 
L 67.488716 280.814037 
L 64.509645 282.503991 
L 61.530574 284.15258 
L 58.551503 285.750238 
L 55.572432 287.28856 
L 52.593361 288.760379 
L 49.61429 290.159803 
L 46.635219 291.48223 
L 43.656148 292.724328 
L 40.677078 293.883991 
L 37.698007 294.960277 
L 34.718936 295.953315 
L 31.739865 296.864212 
L 28.760794 297.694935 
L 25.781723 298.448193 
L 22.802652 299.127313 
L 19.823581 299.736119 
L 16.844511 300.278811 
L 13.86544 300.759848 
L 10.886369 301.18385 
L 7.907298 301.555494 
L 4.928227 301.879435 
L 1.949156 302.160231 
L -1.029915 302.402284 
L -4.008986 302.609788 
L -6.988057 302.786696 
L -9.967127 302.936691 
L -12.946198 303.063171 
L -15.925269 303.169239 
L -18.90434 303.257703 
L -21.883411 303.331083 
L -24.862482 303.391618 
L -27.841553 303.441286 
z
" style="fill:#1f77b4;fill-opacity:0.4;stroke:#1f77b4;"/>
   </g>
   <g id="PolyCollection_2">
    <path clip-path="url(#p117c31fba8)" d="M 48.895774 303.595537 
L 48.895774 303.64 
L 51.262098 303.64 
L 53.628422 303.64 
L 55.994745 303.64 
L 58.361069 303.64 
L 60.727393 303.64 
L 63.093717 303.64 
L 65.460041 303.64 
L 67.826365 303.64 
L 70.192689 303.64 
L 72.559013 303.64 
L 74.925337 303.64 
L 77.29166 303.64 
L 79.657984 303.64 
L 82.024308 303.64 
L 84.390632 303.64 
L 86.756956 303.64 
L 89.12328 303.64 
L 91.489604 303.64 
L 93.855928 303.64 
L 96.222251 303.64 
L 98.588575 303.64 
L 100.954899 303.64 
L 103.321223 303.64 
L 105.687547 303.64 
L 108.053871 303.64 
L 110.420195 303.64 
L 112.786519 303.64 
L 115.152843 303.64 
L 117.519166 303.64 
L 119.88549 303.64 
L 122.251814 303.64 
L 124.618138 303.64 
L 126.984462 303.64 
L 129.350786 303.64 
L 131.71711 303.64 
L 134.083434 303.64 
L 136.449757 303.64 
L 138.816081 303.64 
L 141.182405 303.64 
L 143.548729 303.64 
L 145.915053 303.64 
L 148.281377 303.64 
L 150.647701 303.64 
L 153.014025 303.64 
L 155.380348 303.64 
L 157.746672 303.64 
L 160.112996 303.64 
L 162.47932 303.64 
L 164.845644 303.64 
L 167.211968 303.64 
L 169.578292 303.64 
L 171.944616 303.64 
L 174.31094 303.64 
L 176.677263 303.64 
L 179.043587 303.64 
L 181.409911 303.64 
L 183.776235 303.64 
L 186.142559 303.64 
L 188.508883 303.64 
L 190.875207 303.64 
L 193.241531 303.64 
L 195.607854 303.64 
L 197.974178 303.64 
L 200.340502 303.64 
L 202.706826 303.64 
L 205.07315 303.64 
L 207.439474 303.64 
L 209.805798 303.64 
L 212.172122 303.64 
L 214.538446 303.64 
L 216.904769 303.64 
L 219.271093 303.64 
L 221.637417 303.64 
L 224.003741 303.64 
L 226.370065 303.64 
L 228.736389 303.64 
L 231.102713 303.64 
L 233.469037 303.64 
L 235.83536 303.64 
L 238.201684 303.64 
L 240.568008 303.64 
L 242.934332 303.64 
L 245.300656 303.64 
L 247.66698 303.64 
L 250.033304 303.64 
L 252.399628 303.64 
L 254.765951 303.64 
L 257.132275 303.64 
L 259.498599 303.64 
L 261.864923 303.64 
L 264.231247 303.64 
L 266.597571 303.64 
L 268.963895 303.64 
L 271.330219 303.64 
L 273.696543 303.64 
L 276.062866 303.64 
L 278.42919 303.64 
L 280.795514 303.64 
L 283.161838 303.64 
L 285.528162 303.64 
L 287.894486 303.64 
L 290.26081 303.64 
L 292.627134 303.64 
L 294.993457 303.64 
L 297.359781 303.64 
L 299.726105 303.64 
L 302.092429 303.64 
L 304.458753 303.64 
L 306.825077 303.64 
L 309.191401 303.64 
L 311.557725 303.64 
L 313.924049 303.64 
L 316.290372 303.64 
L 318.656696 303.64 
L 321.02302 303.64 
L 323.389344 303.64 
L 325.755668 303.64 
L 328.121992 303.64 
L 330.488316 303.64 
L 332.85464 303.64 
L 335.220963 303.64 
L 337.587287 303.64 
L 339.953611 303.64 
L 342.319935 303.64 
L 344.686259 303.64 
L 347.052583 303.64 
L 349.418907 303.64 
L 351.785231 303.64 
L 354.151554 303.64 
L 356.517878 303.64 
L 358.884202 303.64 
L 361.250526 303.64 
L 363.61685 303.64 
L 365.983174 303.64 
L 368.349498 303.64 
L 370.715822 303.64 
L 373.082146 303.64 
L 375.448469 303.64 
L 377.814793 303.64 
L 380.181117 303.64 
L 382.547441 303.64 
L 384.913765 303.64 
L 387.280089 303.64 
L 389.646413 303.64 
L 392.012737 303.64 
L 394.37906 303.64 
L 396.745384 303.64 
L 399.111708 303.64 
L 401.478032 303.64 
L 403.844356 303.64 
L 406.21068 303.64 
L 408.577004 303.64 
L 410.943328 303.64 
L 413.309652 303.64 
L 415.675975 303.64 
L 418.042299 303.64 
L 420.408623 303.64 
L 422.774947 303.64 
L 425.141271 303.64 
L 427.507595 303.64 
L 429.873919 303.64 
L 432.240243 303.64 
L 434.606566 303.64 
L 436.97289 303.64 
L 439.339214 303.64 
L 441.705538 303.64 
L 444.071862 303.64 
L 446.438186 303.64 
L 448.80451 303.64 
L 451.170834 303.64 
L 453.537157 303.64 
L 455.903481 303.64 
L 458.269805 303.64 
L 460.636129 303.64 
L 463.002453 303.64 
L 465.368777 303.64 
L 467.735101 303.64 
L 470.101425 303.64 
L 472.467749 303.64 
L 474.834072 303.64 
L 477.200396 303.64 
L 479.56672 303.64 
L 481.933044 303.64 
L 484.299368 303.64 
L 486.665692 303.64 
L 489.032016 303.64 
L 491.39834 303.64 
L 493.764663 303.64 
L 496.130987 303.64 
L 498.497311 303.64 
L 500.863635 303.64 
L 503.229959 303.64 
L 505.596283 303.64 
L 507.962607 303.64 
L 510.328931 303.64 
L 512.695255 303.64 
L 515.061578 303.64 
L 517.427902 303.64 
L 519.794226 303.64 
L 519.794226 302.126209 
L 519.794226 302.126209 
L 517.427902 301.646681 
L 515.061578 301.036216 
L 512.695255 300.2659 
L 510.328931 299.302448 
L 507.962607 298.108106 
L 505.596283 296.640693 
L 503.229959 294.853857 
L 500.863635 292.697556 
L 498.497311 290.118824 
L 496.130987 287.062817 
L 493.764663 283.474176 
L 491.39834 279.298704 
L 489.032016 274.485312 
L 486.665692 268.988233 
L 484.299368 262.7694 
L 481.933044 255.800938 
L 479.56672 248.067642 
L 477.200396 239.569333 
L 474.834072 230.322953 
L 472.467749 220.364274 
L 470.101425 209.749073 
L 467.735101 198.553673 
L 465.368777 186.874748 
L 463.002453 174.828317 
L 460.636129 162.547916 
L 458.269805 150.181957 
L 455.903481 137.890331 
L 453.537157 125.840364 
L 451.170834 114.202271 
L 448.80451 103.144292 
L 446.438186 92.82771 
L 444.071862 83.401961 
L 441.705538 75.000081 
L 439.339214 67.734656 
L 436.97289 61.694502 
L 434.606566 56.942176 
L 432.240243 53.512461 
L 429.873919 51.411848 
L 427.507595 50.619048 
L 425.141271 51.086456 
L 422.774947 52.742512 
L 420.408623 55.494795 
L 418.042299 59.233726 
L 415.675975 63.836669 
L 413.309652 69.172275 
L 410.943328 75.104859 
L 408.577004 81.498643 
L 406.21068 88.221719 
L 403.844356 95.149579 
L 401.478032 102.168122 
L 399.111708 109.176059 
L 396.745384 116.086665 
L 394.37906 122.828873 
L 392.012737 129.347724 
L 389.646413 135.604192 
L 387.280089 141.574462 
L 384.913765 147.248723 
L 382.547441 152.629565 
L 380.181117 157.730072 
L 377.814793 162.571708 
L 375.448469 167.182102 
L 373.082146 171.592819 
L 370.715822 175.837206 
L 368.349498 179.948399 
L 365.983174 183.957559 
L 363.61685 187.892378 
L 361.250526 191.775912 
L 358.884202 195.625755 
L 356.517878 199.453553 
L 354.151554 203.264863 
L 351.785231 207.05933 
L 349.418907 210.831134 
L 347.052583 214.569682 
L 344.686259 218.260476 
L 342.319935 221.886109 
L 339.953611 225.42733 
L 337.587287 228.864132 
L 335.220963 232.176796 
L 332.85464 235.346867 
L 330.488316 238.358008 
L 328.121992 241.196725 
L 325.755668 243.852927 
L 323.389344 246.320316 
L 321.02302 248.596616 
L 318.656696 250.683626 
L 316.290372 252.587121 
L 313.924049 254.31661 
L 311.557725 255.884968 
L 309.191401 257.307965 
L 306.825077 258.603713 
L 304.458753 259.792047 
L 302.092429 260.893873 
L 299.726105 261.930509 
L 297.359781 262.923022 
L 294.993457 263.891607 
L 292.627134 264.855013 
L 290.26081 265.830039 
L 287.894486 266.831112 
L 285.528162 267.869962 
L 283.161838 268.955398 
L 280.795514 270.093191 
L 278.42919 271.286062 
L 276.062866 272.533759 
L 273.696543 273.833238 
L 271.330219 275.1789 
L 268.963895 276.562906 
L 266.597571 277.975523 
L 264.231247 279.405498 
L 261.864923 280.840443 
L 259.498599 282.267215 
L 257.132275 283.672275 
L 254.765951 285.042025 
L 252.399628 286.363106 
L 250.033304 287.622667 
L 247.66698 288.808595 
L 245.300656 289.909712 
L 242.934332 290.915943 
L 240.568008 291.818469 
L 238.201684 292.60985 
L 235.83536 293.284143 
L 233.469037 293.837009 
L 231.102713 294.265812 
L 228.736389 294.569704 
L 226.370065 294.749707 
L 224.003741 294.808768 
L 221.637417 294.751801 
L 219.271093 294.585691 
L 216.904769 294.319255 
L 214.538446 293.963171 
L 212.172122 293.529837 
L 209.805798 293.033182 
L 207.439474 292.488416 
L 205.07315 291.91172 
L 202.706826 291.31989 
L 200.340502 290.729928 
L 197.974178 290.158608 
L 195.607854 289.622028 
L 193.241531 289.13516 
L 190.875207 288.711423 
L 188.508883 288.3623 
L 186.142559 288.097004 
L 183.776235 287.92224 
L 181.409911 287.842032 
L 179.043587 287.857673 
L 176.677263 287.967761 
L 174.31094 288.168345 
L 171.944616 288.453171 
L 169.578292 288.814006 
L 167.211968 289.241034 
L 164.845644 289.723303 
L 162.47932 290.2492 
L 160.112996 290.806925 
L 157.746672 291.38495 
L 155.380348 291.972439 
L 153.014025 292.559601 
L 150.647701 293.137976 
L 148.281377 293.700632 
L 145.915053 294.242273 
L 143.548729 294.759262 
L 141.182405 295.249552 
L 138.816081 295.712552 
L 136.449757 296.148929 
L 134.083434 296.560363 
L 131.71711 296.949282 
L 129.350786 297.318583 
L 126.984462 297.671364 
L 124.618138 298.01068 
L 122.251814 298.339328 
L 119.88549 298.659688 
L 117.519166 298.973599 
L 115.152843 299.282297 
L 112.786519 299.586395 
L 110.420195 299.88591 
L 108.053871 300.180328 
L 105.687547 300.468692 
L 103.321223 300.749715 
L 100.954899 301.021901 
L 98.588575 301.283662 
L 96.222251 301.533432 
L 93.855928 301.769767 
L 91.489604 301.991426 
L 89.12328 302.197433 
L 86.756956 302.387112 
L 84.390632 302.560107 
L 82.024308 302.716379 
L 79.657984 302.856192 
L 77.29166 302.980075 
L 74.925337 303.088788 
L 72.559013 303.183273 
L 70.192689 303.264605 
L 67.826365 303.333947 
L 65.460041 303.392506 
L 63.093717 303.441491 
L 60.727393 303.482081 
L 58.361069 303.5154 
L 55.994745 303.542496 
L 53.628422 303.564327 
L 51.262098 303.581754 
L 48.895774 303.595537 
z
" style="fill:#ff7f0e;fill-opacity:0.4;stroke:#ff7f0e;"/>
   </g>
   <g id="matplotlib.axis_1">
    <g id="xtick_1">
     <g id="line2d_1">
      <defs>
       <path d="M 0 0 
L 0 3.5 
" id="m455f326bf6" style="stroke:#000000;stroke-width:0.8;"/>
      </defs>
      <g>
       <use style="stroke:#000000;stroke-width:0.8;" x="47.81" xlink:href="#m455f326bf6" y="303.64"/>
      </g>
     </g>
     <g id="text_1">
      <!-- 0.0 -->
      <g transform="translate(39.858438 318.238437)scale(0.1 -0.1)">
       <defs>
        <path d="M 2034 4250 
Q 1547 4250 1301 3770 
Q 1056 3291 1056 2328 
Q 1056 1369 1301 889 
Q 1547 409 2034 409 
Q 2525 409 2770 889 
Q 3016 1369 3016 2328 
Q 3016 3291 2770 3770 
Q 2525 4250 2034 4250 
z
M 2034 4750 
Q 2819 4750 3233 4129 
Q 3647 3509 3647 2328 
Q 3647 1150 3233 529 
Q 2819 -91 2034 -91 
Q 1250 -91 836 529 
Q 422 1150 422 2328 
Q 422 3509 836 4129 
Q 1250 4750 2034 4750 
z
" id="DejaVuSans-30" transform="scale(0.015625)"/>
        <path d="M 684 794 
L 1344 794 
L 1344 0 
L 684 0 
L 684 794 
z
" id="DejaVuSans-2e" transform="scale(0.015625)"/>
       </defs>
       <use xlink:href="#DejaVuSans-30"/>
       <use x="63.623047" xlink:href="#DejaVuSans-2e"/>
       <use x="95.410156" xlink:href="#DejaVuSans-30"/>
      </g>
     </g>
    </g>
    <g id="xtick_2">
     <g id="line2d_2">
      <g>
       <use style="stroke:#000000;stroke-width:0.8;" x="126.655" xlink:href="#m455f326bf6" y="303.64"/>
      </g>
     </g>
     <g id="text_2">
      <!-- 0.2 -->
      <g transform="translate(118.703438 318.238437)scale(0.1 -0.1)">
       <defs>
        <path d="M 1228 531 
L 3431 531 
L 3431 0 
L 469 0 
L 469 531 
Q 828 903 1448 1529 
Q 2069 2156 2228 2338 
Q 2531 2678 2651 2914 
Q 2772 3150 2772 3378 
Q 2772 3750 2511 3984 
Q 2250 4219 1831 4219 
Q 1534 4219 1204 4116 
Q 875 4013 500 3803 
L 500 4441 
Q 881 4594 1212 4672 
Q 1544 4750 1819 4750 
Q 2544 4750 2975 4387 
Q 3406 4025 3406 3419 
Q 3406 3131 3298 2873 
Q 3191 2616 2906 2266 
Q 2828 2175 2409 1742 
Q 1991 1309 1228 531 
z
" id="DejaVuSans-32" transform="scale(0.015625)"/>
       </defs>
       <use xlink:href="#DejaVuSans-30"/>
       <use x="63.623047" xlink:href="#DejaVuSans-2e"/>
       <use x="95.410156" xlink:href="#DejaVuSans-32"/>
      </g>
     </g>
    </g>
    <g id="xtick_3">
     <g id="line2d_3">
      <g>
       <use style="stroke:#000000;stroke-width:0.8;" x="205.5" xlink:href="#m455f326bf6" y="303.64"/>
      </g>
     </g>
     <g id="text_3">
      <!-- 0.4 -->
      <g transform="translate(197.548438 318.238437)scale(0.1 -0.1)">
       <defs>
        <path d="M 2419 4116 
L 825 1625 
L 2419 1625 
L 2419 4116 
z
M 2253 4666 
L 3047 4666 
L 3047 1625 
L 3713 1625 
L 3713 1100 
L 3047 1100 
L 3047 0 
L 2419 0 
L 2419 1100 
L 313 1100 
L 313 1709 
L 2253 4666 
z
" id="DejaVuSans-34" transform="scale(0.015625)"/>
       </defs>
       <use xlink:href="#DejaVuSans-30"/>
       <use x="63.623047" xlink:href="#DejaVuSans-2e"/>
       <use x="95.410156" xlink:href="#DejaVuSans-34"/>
      </g>
     </g>
    </g>
    <g id="xtick_4">
     <g id="line2d_4">
      <g>
       <use style="stroke:#000000;stroke-width:0.8;" x="284.345" xlink:href="#m455f326bf6" y="303.64"/>
      </g>
     </g>
     <g id="text_4">
      <!-- 0.6 -->
      <g transform="translate(276.393438 318.238437)scale(0.1 -0.1)">
       <defs>
        <path d="M 2113 2584 
Q 1688 2584 1439 2293 
Q 1191 2003 1191 1497 
Q 1191 994 1439 701 
Q 1688 409 2113 409 
Q 2538 409 2786 701 
Q 3034 994 3034 1497 
Q 3034 2003 2786 2293 
Q 2538 2584 2113 2584 
z
M 3366 4563 
L 3366 3988 
Q 3128 4100 2886 4159 
Q 2644 4219 2406 4219 
Q 1781 4219 1451 3797 
Q 1122 3375 1075 2522 
Q 1259 2794 1537 2939 
Q 1816 3084 2150 3084 
Q 2853 3084 3261 2657 
Q 3669 2231 3669 1497 
Q 3669 778 3244 343 
Q 2819 -91 2113 -91 
Q 1303 -91 875 529 
Q 447 1150 447 2328 
Q 447 3434 972 4092 
Q 1497 4750 2381 4750 
Q 2619 4750 2861 4703 
Q 3103 4656 3366 4563 
z
" id="DejaVuSans-36" transform="scale(0.015625)"/>
       </defs>
       <use xlink:href="#DejaVuSans-30"/>
       <use x="63.623047" xlink:href="#DejaVuSans-2e"/>
       <use x="95.410156" xlink:href="#DejaVuSans-36"/>
      </g>
     </g>
    </g>
    <g id="xtick_5">
     <g id="line2d_5">
      <g>
       <use style="stroke:#000000;stroke-width:0.8;" x="363.19" xlink:href="#m455f326bf6" y="303.64"/>
      </g>
     </g>
     <g id="text_5">
      <!-- 0.8 -->
      <g transform="translate(355.238437 318.238437)scale(0.1 -0.1)">
       <defs>
        <path d="M 2034 2216 
Q 1584 2216 1326 1975 
Q 1069 1734 1069 1313 
Q 1069 891 1326 650 
Q 1584 409 2034 409 
Q 2484 409 2743 651 
Q 3003 894 3003 1313 
Q 3003 1734 2745 1975 
Q 2488 2216 2034 2216 
z
M 1403 2484 
Q 997 2584 770 2862 
Q 544 3141 544 3541 
Q 544 4100 942 4425 
Q 1341 4750 2034 4750 
Q 2731 4750 3128 4425 
Q 3525 4100 3525 3541 
Q 3525 3141 3298 2862 
Q 3072 2584 2669 2484 
Q 3125 2378 3379 2068 
Q 3634 1759 3634 1313 
Q 3634 634 3220 271 
Q 2806 -91 2034 -91 
Q 1263 -91 848 271 
Q 434 634 434 1313 
Q 434 1759 690 2068 
Q 947 2378 1403 2484 
z
M 1172 3481 
Q 1172 3119 1398 2916 
Q 1625 2713 2034 2713 
Q 2441 2713 2670 2916 
Q 2900 3119 2900 3481 
Q 2900 3844 2670 4047 
Q 2441 4250 2034 4250 
Q 1625 4250 1398 4047 
Q 1172 3844 1172 3481 
z
" id="DejaVuSans-38" transform="scale(0.015625)"/>
       </defs>
       <use xlink:href="#DejaVuSans-30"/>
       <use x="63.623047" xlink:href="#DejaVuSans-2e"/>
       <use x="95.410156" xlink:href="#DejaVuSans-38"/>
      </g>
     </g>
    </g>
    <g id="xtick_6">
     <g id="line2d_6">
      <g>
       <use style="stroke:#000000;stroke-width:0.8;" x="442.035" xlink:href="#m455f326bf6" y="303.64"/>
      </g>
     </g>
     <g id="text_6">
      <!-- 1.0 -->
      <g transform="translate(434.083437 318.238437)scale(0.1 -0.1)">
       <defs>
        <path d="M 794 531 
L 1825 531 
L 1825 4091 
L 703 3866 
L 703 4441 
L 1819 4666 
L 2450 4666 
L 2450 531 
L 3481 531 
L 3481 0 
L 794 0 
L 794 531 
z
" id="DejaVuSans-31" transform="scale(0.015625)"/>
       </defs>
       <use xlink:href="#DejaVuSans-31"/>
       <use x="63.623047" xlink:href="#DejaVuSans-2e"/>
       <use x="95.410156" xlink:href="#DejaVuSans-30"/>
      </g>
     </g>
    </g>
    <g id="text_7">
     <!-- Credibility index -->
     <g transform="translate(204.317812 331.916562)scale(0.1 -0.1)">
      <defs>
       <path d="M 4122 4306 
L 4122 3641 
Q 3803 3938 3442 4084 
Q 3081 4231 2675 4231 
Q 1875 4231 1450 3742 
Q 1025 3253 1025 2328 
Q 1025 1406 1450 917 
Q 1875 428 2675 428 
Q 3081 428 3442 575 
Q 3803 722 4122 1019 
L 4122 359 
Q 3791 134 3420 21 
Q 3050 -91 2638 -91 
Q 1578 -91 968 557 
Q 359 1206 359 2328 
Q 359 3453 968 4101 
Q 1578 4750 2638 4750 
Q 3056 4750 3426 4639 
Q 3797 4528 4122 4306 
z
" id="DejaVuSans-43" transform="scale(0.015625)"/>
       <path d="M 2631 2963 
Q 2534 3019 2420 3045 
Q 2306 3072 2169 3072 
Q 1681 3072 1420 2755 
Q 1159 2438 1159 1844 
L 1159 0 
L 581 0 
L 581 3500 
L 1159 3500 
L 1159 2956 
Q 1341 3275 1631 3429 
Q 1922 3584 2338 3584 
Q 2397 3584 2469 3576 
Q 2541 3569 2628 3553 
L 2631 2963 
z
" id="DejaVuSans-72" transform="scale(0.015625)"/>
       <path d="M 3597 1894 
L 3597 1613 
L 953 1613 
Q 991 1019 1311 708 
Q 1631 397 2203 397 
Q 2534 397 2845 478 
Q 3156 559 3463 722 
L 3463 178 
Q 3153 47 2828 -22 
Q 2503 -91 2169 -91 
Q 1331 -91 842 396 
Q 353 884 353 1716 
Q 353 2575 817 3079 
Q 1281 3584 2069 3584 
Q 2775 3584 3186 3129 
Q 3597 2675 3597 1894 
z
M 3022 2063 
Q 3016 2534 2758 2815 
Q 2500 3097 2075 3097 
Q 1594 3097 1305 2825 
Q 1016 2553 972 2059 
L 3022 2063 
z
" id="DejaVuSans-65" transform="scale(0.015625)"/>
       <path d="M 2906 2969 
L 2906 4863 
L 3481 4863 
L 3481 0 
L 2906 0 
L 2906 525 
Q 2725 213 2448 61 
Q 2172 -91 1784 -91 
Q 1150 -91 751 415 
Q 353 922 353 1747 
Q 353 2572 751 3078 
Q 1150 3584 1784 3584 
Q 2172 3584 2448 3432 
Q 2725 3281 2906 2969 
z
M 947 1747 
Q 947 1113 1208 752 
Q 1469 391 1925 391 
Q 2381 391 2643 752 
Q 2906 1113 2906 1747 
Q 2906 2381 2643 2742 
Q 2381 3103 1925 3103 
Q 1469 3103 1208 2742 
Q 947 2381 947 1747 
z
" id="DejaVuSans-64" transform="scale(0.015625)"/>
       <path d="M 603 3500 
L 1178 3500 
L 1178 0 
L 603 0 
L 603 3500 
z
M 603 4863 
L 1178 4863 
L 1178 4134 
L 603 4134 
L 603 4863 
z
" id="DejaVuSans-69" transform="scale(0.015625)"/>
       <path d="M 3116 1747 
Q 3116 2381 2855 2742 
Q 2594 3103 2138 3103 
Q 1681 3103 1420 2742 
Q 1159 2381 1159 1747 
Q 1159 1113 1420 752 
Q 1681 391 2138 391 
Q 2594 391 2855 752 
Q 3116 1113 3116 1747 
z
M 1159 2969 
Q 1341 3281 1617 3432 
Q 1894 3584 2278 3584 
Q 2916 3584 3314 3078 
Q 3713 2572 3713 1747 
Q 3713 922 3314 415 
Q 2916 -91 2278 -91 
Q 1894 -91 1617 61 
Q 1341 213 1159 525 
L 1159 0 
L 581 0 
L 581 4863 
L 1159 4863 
L 1159 2969 
z
" id="DejaVuSans-62" transform="scale(0.015625)"/>
       <path d="M 603 4863 
L 1178 4863 
L 1178 0 
L 603 0 
L 603 4863 
z
" id="DejaVuSans-6c" transform="scale(0.015625)"/>
       <path d="M 1172 4494 
L 1172 3500 
L 2356 3500 
L 2356 3053 
L 1172 3053 
L 1172 1153 
Q 1172 725 1289 603 
Q 1406 481 1766 481 
L 2356 481 
L 2356 0 
L 1766 0 
Q 1100 0 847 248 
Q 594 497 594 1153 
L 594 3053 
L 172 3053 
L 172 3500 
L 594 3500 
L 594 4494 
L 1172 4494 
z
" id="DejaVuSans-74" transform="scale(0.015625)"/>
       <path d="M 2059 -325 
Q 1816 -950 1584 -1140 
Q 1353 -1331 966 -1331 
L 506 -1331 
L 506 -850 
L 844 -850 
Q 1081 -850 1212 -737 
Q 1344 -625 1503 -206 
L 1606 56 
L 191 3500 
L 800 3500 
L 1894 763 
L 2988 3500 
L 3597 3500 
L 2059 -325 
z
" id="DejaVuSans-79" transform="scale(0.015625)"/>
       <path id="DejaVuSans-20" transform="scale(0.015625)"/>
       <path d="M 3513 2113 
L 3513 0 
L 2938 0 
L 2938 2094 
Q 2938 2591 2744 2837 
Q 2550 3084 2163 3084 
Q 1697 3084 1428 2787 
Q 1159 2491 1159 1978 
L 1159 0 
L 581 0 
L 581 3500 
L 1159 3500 
L 1159 2956 
Q 1366 3272 1645 3428 
Q 1925 3584 2291 3584 
Q 2894 3584 3203 3211 
Q 3513 2838 3513 2113 
z
" id="DejaVuSans-6e" transform="scale(0.015625)"/>
       <path d="M 3513 3500 
L 2247 1797 
L 3578 0 
L 2900 0 
L 1881 1375 
L 863 0 
L 184 0 
L 1544 1831 
L 300 3500 
L 978 3500 
L 1906 2253 
L 2834 3500 
L 3513 3500 
z
" id="DejaVuSans-78" transform="scale(0.015625)"/>
      </defs>
      <use xlink:href="#DejaVuSans-43"/>
      <use x="69.824219" xlink:href="#DejaVuSans-72"/>
      <use x="108.6875" xlink:href="#DejaVuSans-65"/>
      <use x="170.210938" xlink:href="#DejaVuSans-64"/>
      <use x="233.6875" xlink:href="#DejaVuSans-69"/>
      <use x="261.470703" xlink:href="#DejaVuSans-62"/>
      <use x="324.947266" xlink:href="#DejaVuSans-69"/>
      <use x="352.730469" xlink:href="#DejaVuSans-6c"/>
      <use x="380.513672" xlink:href="#DejaVuSans-69"/>
      <use x="408.296875" xlink:href="#DejaVuSans-74"/>
      <use x="447.505859" xlink:href="#DejaVuSans-79"/>
      <use x="506.685547" xlink:href="#DejaVuSans-20"/>
      <use x="538.472656" xlink:href="#DejaVuSans-69"/>
      <use x="566.255859" xlink:href="#DejaVuSans-6e"/>
      <use x="629.634766" xlink:href="#DejaVuSans-64"/>
      <use x="693.111328" xlink:href="#DejaVuSans-65"/>
      <use x="752.884766" xlink:href="#DejaVuSans-78"/>
     </g>
    </g>
   </g>
   <g id="matplotlib.axis_2">
    <g id="ytick_1">
     <g id="line2d_7">
      <defs>
       <path d="M 0 0 
L -3.5 0 
" id="mbace74a1fa" style="stroke:#000000;stroke-width:0.8;"/>
      </defs>
      <g>
       <use style="stroke:#000000;stroke-width:0.8;" x="47.81" xlink:href="#mbace74a1fa" y="303.64"/>
      </g>
     </g>
     <g id="text_8">
      <!-- 0.0 -->
      <g transform="translate(24.906875 307.439219)scale(0.1 -0.1)">
       <use xlink:href="#DejaVuSans-30"/>
       <use x="63.623047" xlink:href="#DejaVuSans-2e"/>
       <use x="95.410156" xlink:href="#DejaVuSans-30"/>
      </g>
     </g>
    </g>
    <g id="ytick_2">
     <g id="line2d_8">
      <g>
       <use style="stroke:#000000;stroke-width:0.8;" x="47.81" xlink:href="#mbace74a1fa" y="266.761786"/>
      </g>
     </g>
     <g id="text_9">
      <!-- 0.5 -->
      <g transform="translate(24.906875 270.561005)scale(0.1 -0.1)">
       <defs>
        <path d="M 691 4666 
L 3169 4666 
L 3169 4134 
L 1269 4134 
L 1269 2991 
Q 1406 3038 1543 3061 
Q 1681 3084 1819 3084 
Q 2600 3084 3056 2656 
Q 3513 2228 3513 1497 
Q 3513 744 3044 326 
Q 2575 -91 1722 -91 
Q 1428 -91 1123 -41 
Q 819 9 494 109 
L 494 744 
Q 775 591 1075 516 
Q 1375 441 1709 441 
Q 2250 441 2565 725 
Q 2881 1009 2881 1497 
Q 2881 1984 2565 2268 
Q 2250 2553 1709 2553 
Q 1456 2553 1204 2497 
Q 953 2441 691 2322 
L 691 4666 
z
" id="DejaVuSans-35" transform="scale(0.015625)"/>
       </defs>
       <use xlink:href="#DejaVuSans-30"/>
       <use x="63.623047" xlink:href="#DejaVuSans-2e"/>
       <use x="95.410156" xlink:href="#DejaVuSans-35"/>
      </g>
     </g>
    </g>
    <g id="ytick_3">
     <g id="line2d_9">
      <g>
       <use style="stroke:#000000;stroke-width:0.8;" x="47.81" xlink:href="#mbace74a1fa" y="229.883572"/>
      </g>
     </g>
     <g id="text_10">
      <!-- 1.0 -->
      <g transform="translate(24.906875 233.68279)scale(0.1 -0.1)">
       <use xlink:href="#DejaVuSans-31"/>
       <use x="63.623047" xlink:href="#DejaVuSans-2e"/>
       <use x="95.410156" xlink:href="#DejaVuSans-30"/>
      </g>
     </g>
    </g>
    <g id="ytick_4">
     <g id="line2d_10">
      <g>
       <use style="stroke:#000000;stroke-width:0.8;" x="47.81" xlink:href="#mbace74a1fa" y="193.005358"/>
      </g>
     </g>
     <g id="text_11">
      <!-- 1.5 -->
      <g transform="translate(24.906875 196.804576)scale(0.1 -0.1)">
       <use xlink:href="#DejaVuSans-31"/>
       <use x="63.623047" xlink:href="#DejaVuSans-2e"/>
       <use x="95.410156" xlink:href="#DejaVuSans-35"/>
      </g>
     </g>
    </g>
    <g id="ytick_5">
     <g id="line2d_11">
      <g>
       <use style="stroke:#000000;stroke-width:0.8;" x="47.81" xlink:href="#mbace74a1fa" y="156.127143"/>
      </g>
     </g>
     <g id="text_12">
      <!-- 2.0 -->
      <g transform="translate(24.906875 159.926362)scale(0.1 -0.1)">
       <use xlink:href="#DejaVuSans-32"/>
       <use x="63.623047" xlink:href="#DejaVuSans-2e"/>
       <use x="95.410156" xlink:href="#DejaVuSans-30"/>
      </g>
     </g>
    </g>
    <g id="ytick_6">
     <g id="line2d_12">
      <g>
       <use style="stroke:#000000;stroke-width:0.8;" x="47.81" xlink:href="#mbace74a1fa" y="119.248929"/>
      </g>
     </g>
     <g id="text_13">
      <!-- 2.5 -->
      <g transform="translate(24.906875 123.048148)scale(0.1 -0.1)">
       <use xlink:href="#DejaVuSans-32"/>
       <use x="63.623047" xlink:href="#DejaVuSans-2e"/>
       <use x="95.410156" xlink:href="#DejaVuSans-35"/>
      </g>
     </g>
    </g>
    <g id="ytick_7">
     <g id="line2d_13">
      <g>
       <use style="stroke:#000000;stroke-width:0.8;" x="47.81" xlink:href="#mbace74a1fa" y="82.370715"/>
      </g>
     </g>
     <g id="text_14">
      <!-- 3.0 -->
      <g transform="translate(24.906875 86.169934)scale(0.1 -0.1)">
       <defs>
        <path d="M 2597 2516 
Q 3050 2419 3304 2112 
Q 3559 1806 3559 1356 
Q 3559 666 3084 287 
Q 2609 -91 1734 -91 
Q 1441 -91 1130 -33 
Q 819 25 488 141 
L 488 750 
Q 750 597 1062 519 
Q 1375 441 1716 441 
Q 2309 441 2620 675 
Q 2931 909 2931 1356 
Q 2931 1769 2642 2001 
Q 2353 2234 1838 2234 
L 1294 2234 
L 1294 2753 
L 1863 2753 
Q 2328 2753 2575 2939 
Q 2822 3125 2822 3475 
Q 2822 3834 2567 4026 
Q 2313 4219 1838 4219 
Q 1578 4219 1281 4162 
Q 984 4106 628 3988 
L 628 4550 
Q 988 4650 1302 4700 
Q 1616 4750 1894 4750 
Q 2613 4750 3031 4423 
Q 3450 4097 3450 3541 
Q 3450 3153 3228 2886 
Q 3006 2619 2597 2516 
z
" id="DejaVuSans-33" transform="scale(0.015625)"/>
       </defs>
       <use xlink:href="#DejaVuSans-33"/>
       <use x="63.623047" xlink:href="#DejaVuSans-2e"/>
       <use x="95.410156" xlink:href="#DejaVuSans-30"/>
      </g>
     </g>
    </g>
    <g id="ytick_8">
     <g id="line2d_14">
      <g>
       <use style="stroke:#000000;stroke-width:0.8;" x="47.81" xlink:href="#mbace74a1fa" y="45.492501"/>
      </g>
     </g>
     <g id="text_15">
      <!-- 3.5 -->
      <g transform="translate(24.906875 49.29172)scale(0.1 -0.1)">
       <use xlink:href="#DejaVuSans-33"/>
       <use x="63.623047" xlink:href="#DejaVuSans-2e"/>
       <use x="95.410156" xlink:href="#DejaVuSans-35"/>
      </g>
     </g>
    </g>
    <g id="text_16">
     <!-- Density -->
     <g transform="translate(18.827187 189.812594)rotate(-90)scale(0.1 -0.1)">
      <defs>
       <path d="M 1259 4147 
L 1259 519 
L 2022 519 
Q 2988 519 3436 956 
Q 3884 1394 3884 2338 
Q 3884 3275 3436 3711 
Q 2988 4147 2022 4147 
L 1259 4147 
z
M 628 4666 
L 1925 4666 
Q 3281 4666 3915 4102 
Q 4550 3538 4550 2338 
Q 4550 1131 3912 565 
Q 3275 0 1925 0 
L 628 0 
L 628 4666 
z
" id="DejaVuSans-44" transform="scale(0.015625)"/>
       <path d="M 2834 3397 
L 2834 2853 
Q 2591 2978 2328 3040 
Q 2066 3103 1784 3103 
Q 1356 3103 1142 2972 
Q 928 2841 928 2578 
Q 928 2378 1081 2264 
Q 1234 2150 1697 2047 
L 1894 2003 
Q 2506 1872 2764 1633 
Q 3022 1394 3022 966 
Q 3022 478 2636 193 
Q 2250 -91 1575 -91 
Q 1294 -91 989 -36 
Q 684 19 347 128 
L 347 722 
Q 666 556 975 473 
Q 1284 391 1588 391 
Q 1994 391 2212 530 
Q 2431 669 2431 922 
Q 2431 1156 2273 1281 
Q 2116 1406 1581 1522 
L 1381 1569 
Q 847 1681 609 1914 
Q 372 2147 372 2553 
Q 372 3047 722 3315 
Q 1072 3584 1716 3584 
Q 2034 3584 2315 3537 
Q 2597 3491 2834 3397 
z
" id="DejaVuSans-73" transform="scale(0.015625)"/>
      </defs>
      <use xlink:href="#DejaVuSans-44"/>
      <use x="77.001953" xlink:href="#DejaVuSans-65"/>
      <use x="138.525391" xlink:href="#DejaVuSans-6e"/>
      <use x="201.904297" xlink:href="#DejaVuSans-73"/>
      <use x="254.003906" xlink:href="#DejaVuSans-69"/>
      <use x="281.787109" xlink:href="#DejaVuSans-74"/>
      <use x="320.996094" xlink:href="#DejaVuSans-79"/>
     </g>
    </g>
   </g>
   <g id="patch_3">
    <path d="M 47.81 303.64 
L 47.81 37.968 
" style="fill:none;stroke:#000000;stroke-linecap:square;stroke-linejoin:miter;stroke-width:0.8;"/>
   </g>
   <g id="patch_4">
    <path d="M 442.035 303.64 
L 442.035 37.968 
" style="fill:none;stroke:#000000;stroke-linecap:square;stroke-linejoin:miter;stroke-width:0.8;"/>
   </g>
   <g id="patch_5">
    <path d="M 47.81 303.64 
L 442.035 303.64 
" style="fill:none;stroke:#000000;stroke-linecap:square;stroke-linejoin:miter;stroke-width:0.8;"/>
   </g>
   <g id="patch_6">
    <path d="M 47.81 37.968 
L 442.035 37.968 
" style="fill:none;stroke:#000000;stroke-linecap:square;stroke-linejoin:miter;stroke-width:0.8;"/>
   </g>
   <g id="text_17">
    <!-- Credibility index consensus vs non consensus  -->
    <g transform="translate(105.81625 18.530625)scale(0.12 -0.12)">
     <defs>
      <path d="M 3122 3366 
L 3122 2828 
Q 2878 2963 2633 3030 
Q 2388 3097 2138 3097 
Q 1578 3097 1268 2742 
Q 959 2388 959 1747 
Q 959 1106 1268 751 
Q 1578 397 2138 397 
Q 2388 397 2633 464 
Q 2878 531 3122 666 
L 3122 134 
Q 2881 22 2623 -34 
Q 2366 -91 2075 -91 
Q 1284 -91 818 406 
Q 353 903 353 1747 
Q 353 2603 823 3093 
Q 1294 3584 2113 3584 
Q 2378 3584 2631 3529 
Q 2884 3475 3122 3366 
z
" id="DejaVuSans-63" transform="scale(0.015625)"/>
      <path d="M 1959 3097 
Q 1497 3097 1228 2736 
Q 959 2375 959 1747 
Q 959 1119 1226 758 
Q 1494 397 1959 397 
Q 2419 397 2687 759 
Q 2956 1122 2956 1747 
Q 2956 2369 2687 2733 
Q 2419 3097 1959 3097 
z
M 1959 3584 
Q 2709 3584 3137 3096 
Q 3566 2609 3566 1747 
Q 3566 888 3137 398 
Q 2709 -91 1959 -91 
Q 1206 -91 779 398 
Q 353 888 353 1747 
Q 353 2609 779 3096 
Q 1206 3584 1959 3584 
z
" id="DejaVuSans-6f" transform="scale(0.015625)"/>
      <path d="M 544 1381 
L 544 3500 
L 1119 3500 
L 1119 1403 
Q 1119 906 1312 657 
Q 1506 409 1894 409 
Q 2359 409 2629 706 
Q 2900 1003 2900 1516 
L 2900 3500 
L 3475 3500 
L 3475 0 
L 2900 0 
L 2900 538 
Q 2691 219 2414 64 
Q 2138 -91 1772 -91 
Q 1169 -91 856 284 
Q 544 659 544 1381 
z
M 1991 3584 
L 1991 3584 
z
" id="DejaVuSans-75" transform="scale(0.015625)"/>
      <path d="M 191 3500 
L 800 3500 
L 1894 563 
L 2988 3500 
L 3597 3500 
L 2284 0 
L 1503 0 
L 191 3500 
z
" id="DejaVuSans-76" transform="scale(0.015625)"/>
     </defs>
     <use xlink:href="#DejaVuSans-43"/>
     <use x="69.824219" xlink:href="#DejaVuSans-72"/>
     <use x="108.6875" xlink:href="#DejaVuSans-65"/>
     <use x="170.210938" xlink:href="#DejaVuSans-64"/>
     <use x="233.6875" xlink:href="#DejaVuSans-69"/>
     <use x="261.470703" xlink:href="#DejaVuSans-62"/>
     <use x="324.947266" xlink:href="#DejaVuSans-69"/>
     <use x="352.730469" xlink:href="#DejaVuSans-6c"/>
     <use x="380.513672" xlink:href="#DejaVuSans-69"/>
     <use x="408.296875" xlink:href="#DejaVuSans-74"/>
     <use x="447.505859" xlink:href="#DejaVuSans-79"/>
     <use x="506.685547" xlink:href="#DejaVuSans-20"/>
     <use x="538.472656" xlink:href="#DejaVuSans-69"/>
     <use x="566.255859" xlink:href="#DejaVuSans-6e"/>
     <use x="629.634766" xlink:href="#DejaVuSans-64"/>
     <use x="693.111328" xlink:href="#DejaVuSans-65"/>
     <use x="752.884766" xlink:href="#DejaVuSans-78"/>
     <use x="812.064453" xlink:href="#DejaVuSans-20"/>
     <use x="843.851562" xlink:href="#DejaVuSans-63"/>
     <use x="898.832031" xlink:href="#DejaVuSans-6f"/>
     <use x="960.013672" xlink:href="#DejaVuSans-6e"/>
     <use x="1023.392578" xlink:href="#DejaVuSans-73"/>
     <use x="1075.492188" xlink:href="#DejaVuSans-65"/>
     <use x="1137.015625" xlink:href="#DejaVuSans-6e"/>
     <use x="1200.394531" xlink:href="#DejaVuSans-73"/>
     <use x="1252.494141" xlink:href="#DejaVuSans-75"/>
     <use x="1315.873047" xlink:href="#DejaVuSans-73"/>
     <use x="1367.972656" xlink:href="#DejaVuSans-20"/>
     <use x="1399.759766" xlink:href="#DejaVuSans-76"/>
     <use x="1458.939453" xlink:href="#DejaVuSans-73"/>
     <use x="1511.039062" xlink:href="#DejaVuSans-20"/>
     <use x="1542.826172" xlink:href="#DejaVuSans-6e"/>
     <use x="1606.205078" xlink:href="#DejaVuSans-6f"/>
     <use x="1667.386719" xlink:href="#DejaVuSans-6e"/>
     <use x="1730.765625" xlink:href="#DejaVuSans-20"/>
     <use x="1762.552734" xlink:href="#DejaVuSans-63"/>
     <use x="1817.533203" xlink:href="#DejaVuSans-6f"/>
     <use x="1878.714844" xlink:href="#DejaVuSans-6e"/>
     <use x="1942.09375" xlink:href="#DejaVuSans-73"/>
     <use x="1994.193359" xlink:href="#DejaVuSans-65"/>
     <use x="2055.716797" xlink:href="#DejaVuSans-6e"/>
     <use x="2119.095703" xlink:href="#DejaVuSans-73"/>
     <use x="2171.195312" xlink:href="#DejaVuSans-75"/>
     <use x="2234.574219" xlink:href="#DejaVuSans-73"/>
     <use x="2286.673828" xlink:href="#DejaVuSans-20"/>
    </g>
    <!-- Set s2 -->
    <g transform="translate(226.219375 31.968)scale(0.12 -0.12)">
     <defs>
      <path d="M 3425 4513 
L 3425 3897 
Q 3066 4069 2747 4153 
Q 2428 4238 2131 4238 
Q 1616 4238 1336 4038 
Q 1056 3838 1056 3469 
Q 1056 3159 1242 3001 
Q 1428 2844 1947 2747 
L 2328 2669 
Q 3034 2534 3370 2195 
Q 3706 1856 3706 1288 
Q 3706 609 3251 259 
Q 2797 -91 1919 -91 
Q 1588 -91 1214 -16 
Q 841 59 441 206 
L 441 856 
Q 825 641 1194 531 
Q 1563 422 1919 422 
Q 2459 422 2753 634 
Q 3047 847 3047 1241 
Q 3047 1584 2836 1778 
Q 2625 1972 2144 2069 
L 1759 2144 
Q 1053 2284 737 2584 
Q 422 2884 422 3419 
Q 422 4038 858 4394 
Q 1294 4750 2059 4750 
Q 2388 4750 2728 4690 
Q 3069 4631 3425 4513 
z
" id="DejaVuSans-53" transform="scale(0.015625)"/>
     </defs>
     <use xlink:href="#DejaVuSans-53"/>
     <use x="63.476562" xlink:href="#DejaVuSans-65"/>
     <use x="125" xlink:href="#DejaVuSans-74"/>
     <use x="164.208984" xlink:href="#DejaVuSans-20"/>
     <use x="195.996094" xlink:href="#DejaVuSans-73"/>
     <use x="248.095703" xlink:href="#DejaVuSans-32"/>
    </g>
   </g>
   <g id="legend_1">
    <g id="patch_7">
     <path d="M 54.81 97.719875 
L 225.352188 97.719875 
Q 227.352188 97.719875 227.352188 95.719875 
L 227.352188 44.968 
Q 227.352188 42.968 225.352188 42.968 
L 54.81 42.968 
Q 52.81 42.968 52.81 44.968 
L 52.81 95.719875 
Q 52.81 97.719875 54.81 97.719875 
z
" style="fill:#ffffff;opacity:0.8;stroke:#cccccc;stroke-linejoin:miter;"/>
    </g>
    <g id="patch_8">
     <path d="M 56.81 61.205187 
L 76.81 61.205187 
L 76.81 54.205187 
L 56.81 54.205187 
z
" style="fill:#1f77b4;fill-opacity:0.4;stroke:#1f77b4;stroke-linejoin:miter;"/>
    </g>
    <g id="text_18">
     <!-- Correlation higher than 0  -->
     <g transform="translate(84.81 54.566437)scale(0.1 -0.1)">
      <defs>
       <path d="M 2194 1759 
Q 1497 1759 1228 1600 
Q 959 1441 959 1056 
Q 959 750 1161 570 
Q 1363 391 1709 391 
Q 2188 391 2477 730 
Q 2766 1069 2766 1631 
L 2766 1759 
L 2194 1759 
z
M 3341 1997 
L 3341 0 
L 2766 0 
L 2766 531 
Q 2569 213 2275 61 
Q 1981 -91 1556 -91 
Q 1019 -91 701 211 
Q 384 513 384 1019 
Q 384 1609 779 1909 
Q 1175 2209 1959 2209 
L 2766 2209 
L 2766 2266 
Q 2766 2663 2505 2880 
Q 2244 3097 1772 3097 
Q 1472 3097 1187 3025 
Q 903 2953 641 2809 
L 641 3341 
Q 956 3463 1253 3523 
Q 1550 3584 1831 3584 
Q 2591 3584 2966 3190 
Q 3341 2797 3341 1997 
z
" id="DejaVuSans-61" transform="scale(0.015625)"/>
       <path d="M 3513 2113 
L 3513 0 
L 2938 0 
L 2938 2094 
Q 2938 2591 2744 2837 
Q 2550 3084 2163 3084 
Q 1697 3084 1428 2787 
Q 1159 2491 1159 1978 
L 1159 0 
L 581 0 
L 581 4863 
L 1159 4863 
L 1159 2956 
Q 1366 3272 1645 3428 
Q 1925 3584 2291 3584 
Q 2894 3584 3203 3211 
Q 3513 2838 3513 2113 
z
" id="DejaVuSans-68" transform="scale(0.015625)"/>
       <path d="M 2906 1791 
Q 2906 2416 2648 2759 
Q 2391 3103 1925 3103 
Q 1463 3103 1205 2759 
Q 947 2416 947 1791 
Q 947 1169 1205 825 
Q 1463 481 1925 481 
Q 2391 481 2648 825 
Q 2906 1169 2906 1791 
z
M 3481 434 
Q 3481 -459 3084 -895 
Q 2688 -1331 1869 -1331 
Q 1566 -1331 1297 -1286 
Q 1028 -1241 775 -1147 
L 775 -588 
Q 1028 -725 1275 -790 
Q 1522 -856 1778 -856 
Q 2344 -856 2625 -561 
Q 2906 -266 2906 331 
L 2906 616 
Q 2728 306 2450 153 
Q 2172 0 1784 0 
Q 1141 0 747 490 
Q 353 981 353 1791 
Q 353 2603 747 3093 
Q 1141 3584 1784 3584 
Q 2172 3584 2450 3431 
Q 2728 3278 2906 2969 
L 2906 3500 
L 3481 3500 
L 3481 434 
z
" id="DejaVuSans-67" transform="scale(0.015625)"/>
      </defs>
      <use xlink:href="#DejaVuSans-43"/>
      <use x="69.824219" xlink:href="#DejaVuSans-6f"/>
      <use x="131.005859" xlink:href="#DejaVuSans-72"/>
      <use x="170.369141" xlink:href="#DejaVuSans-72"/>
      <use x="209.232422" xlink:href="#DejaVuSans-65"/>
      <use x="270.755859" xlink:href="#DejaVuSans-6c"/>
      <use x="298.539062" xlink:href="#DejaVuSans-61"/>
      <use x="359.818359" xlink:href="#DejaVuSans-74"/>
      <use x="399.027344" xlink:href="#DejaVuSans-69"/>
      <use x="426.810547" xlink:href="#DejaVuSans-6f"/>
      <use x="487.992188" xlink:href="#DejaVuSans-6e"/>
      <use x="551.371094" xlink:href="#DejaVuSans-20"/>
      <use x="583.158203" xlink:href="#DejaVuSans-68"/>
      <use x="646.537109" xlink:href="#DejaVuSans-69"/>
      <use x="674.320312" xlink:href="#DejaVuSans-67"/>
      <use x="737.796875" xlink:href="#DejaVuSans-68"/>
      <use x="801.175781" xlink:href="#DejaVuSans-65"/>
      <use x="862.699219" xlink:href="#DejaVuSans-72"/>
      <use x="903.8125" xlink:href="#DejaVuSans-20"/>
      <use x="935.599609" xlink:href="#DejaVuSans-74"/>
      <use x="974.808594" xlink:href="#DejaVuSans-68"/>
      <use x="1038.1875" xlink:href="#DejaVuSans-61"/>
      <use x="1099.466797" xlink:href="#DejaVuSans-6e"/>
      <use x="1162.845703" xlink:href="#DejaVuSans-20"/>
      <use x="1194.632812" xlink:href="#DejaVuSans-30"/>
      <use x="1258.255859" xlink:href="#DejaVuSans-20"/>
     </g>
     <!-- n=198 -->
     <g transform="translate(84.81 65.76425)scale(0.1 -0.1)">
      <defs>
       <path d="M 678 2906 
L 4684 2906 
L 4684 2381 
L 678 2381 
L 678 2906 
z
M 678 1631 
L 4684 1631 
L 4684 1100 
L 678 1100 
L 678 1631 
z
" id="DejaVuSans-3d" transform="scale(0.015625)"/>
       <path d="M 703 97 
L 703 672 
Q 941 559 1184 500 
Q 1428 441 1663 441 
Q 2288 441 2617 861 
Q 2947 1281 2994 2138 
Q 2813 1869 2534 1725 
Q 2256 1581 1919 1581 
Q 1219 1581 811 2004 
Q 403 2428 403 3163 
Q 403 3881 828 4315 
Q 1253 4750 1959 4750 
Q 2769 4750 3195 4129 
Q 3622 3509 3622 2328 
Q 3622 1225 3098 567 
Q 2575 -91 1691 -91 
Q 1453 -91 1209 -44 
Q 966 3 703 97 
z
M 1959 2075 
Q 2384 2075 2632 2365 
Q 2881 2656 2881 3163 
Q 2881 3666 2632 3958 
Q 2384 4250 1959 4250 
Q 1534 4250 1286 3958 
Q 1038 3666 1038 3163 
Q 1038 2656 1286 2365 
Q 1534 2075 1959 2075 
z
" id="DejaVuSans-39" transform="scale(0.015625)"/>
      </defs>
      <use xlink:href="#DejaVuSans-6e"/>
      <use x="63.378906" xlink:href="#DejaVuSans-3d"/>
      <use x="147.167969" xlink:href="#DejaVuSans-31"/>
      <use x="210.791016" xlink:href="#DejaVuSans-39"/>
      <use x="274.414062" xlink:href="#DejaVuSans-38"/>
     </g>
    </g>
    <g id="patch_9">
     <path d="M 56.81 87.081125 
L 76.81 87.081125 
L 76.81 80.081125 
L 56.81 80.081125 
z
" style="fill:#ff7f0e;fill-opacity:0.4;stroke:#ff7f0e;stroke-linejoin:miter;"/>
    </g>
    <g id="text_19">
     <!-- Correlation higher than 0.8  -->
     <g transform="translate(84.81 80.442375)scale(0.1 -0.1)">
      <use xlink:href="#DejaVuSans-43"/>
      <use x="69.824219" xlink:href="#DejaVuSans-6f"/>
      <use x="131.005859" xlink:href="#DejaVuSans-72"/>
      <use x="170.369141" xlink:href="#DejaVuSans-72"/>
      <use x="209.232422" xlink:href="#DejaVuSans-65"/>
      <use x="270.755859" xlink:href="#DejaVuSans-6c"/>
      <use x="298.539062" xlink:href="#DejaVuSans-61"/>
      <use x="359.818359" xlink:href="#DejaVuSans-74"/>
      <use x="399.027344" xlink:href="#DejaVuSans-69"/>
      <use x="426.810547" xlink:href="#DejaVuSans-6f"/>
      <use x="487.992188" xlink:href="#DejaVuSans-6e"/>
      <use x="551.371094" xlink:href="#DejaVuSans-20"/>
      <use x="583.158203" xlink:href="#DejaVuSans-68"/>
      <use x="646.537109" xlink:href="#DejaVuSans-69"/>
      <use x="674.320312" xlink:href="#DejaVuSans-67"/>
      <use x="737.796875" xlink:href="#DejaVuSans-68"/>
      <use x="801.175781" xlink:href="#DejaVuSans-65"/>
      <use x="862.699219" xlink:href="#DejaVuSans-72"/>
      <use x="903.8125" xlink:href="#DejaVuSans-20"/>
      <use x="935.599609" xlink:href="#DejaVuSans-74"/>
      <use x="974.808594" xlink:href="#DejaVuSans-68"/>
      <use x="1038.1875" xlink:href="#DejaVuSans-61"/>
      <use x="1099.466797" xlink:href="#DejaVuSans-6e"/>
      <use x="1162.845703" xlink:href="#DejaVuSans-20"/>
      <use x="1194.632812" xlink:href="#DejaVuSans-30"/>
      <use x="1258.255859" xlink:href="#DejaVuSans-2e"/>
      <use x="1290.042969" xlink:href="#DejaVuSans-38"/>
      <use x="1353.666016" xlink:href="#DejaVuSans-20"/>
     </g>
     <!-- n=112 -->
     <g transform="translate(84.81 91.640187)scale(0.1 -0.1)">
      <use xlink:href="#DejaVuSans-6e"/>
      <use x="63.378906" xlink:href="#DejaVuSans-3d"/>
      <use x="147.167969" xlink:href="#DejaVuSans-31"/>
      <use x="210.791016" xlink:href="#DejaVuSans-31"/>
      <use x="274.414062" xlink:href="#DejaVuSans-32"/>
     </g>
    </g>
   </g>
  </g>
 </g>
 <defs>
  <clipPath id="p117c31fba8">
   <rect height="265.672" width="394.225" x="47.81" y="37.968"/>
  </clipPath>
 </defs>
</svg>
