<?xml version="1.0" encoding="utf-8" standalone="no"?>
<!DOCTYPE svg PUBLIC "-//W3C//DTD SVG 1.1//EN"
  "http://www.w3.org/Graphics/SVG/1.1/DTD/svg11.dtd">
<svg height="300.989344pt" version="1.1" viewBox="0 0 633.50125 300.989344" width="633.50125pt" xmlns="http://www.w3.org/2000/svg" xmlns:xlink="http://www.w3.org/1999/xlink">
 <metadata>
  <rdf:RDF xmlns:cc="http://creativecommons.org/ns#" xmlns:dc="http://purl.org/dc/elements/1.1/" xmlns:rdf="http://www.w3.org/1999/02/22-rdf-syntax-ns#">
   <cc:Work>
    <dc:type rdf:resource="http://purl.org/dc/dcmitype/StillImage"/>
    <dc:date>2021-12-06T10:17:29.623109</dc:date>
    <dc:format>image/svg+xml</dc:format>
    <dc:creator>
     <cc:Agent>
      <dc:title>Matplotlib v3.4.3, https://matplotlib.org/</dc:title>
     </cc:Agent>
    </dc:creator>
   </cc:Work>
  </rdf:RDF>
 </metadata>
 <defs>
  <style type="text/css">*{stroke-linecap:butt;stroke-linejoin:round;}</style>
 </defs>
 <g id="figure_1">
  <g id="patch_1">
   <path d="M 0 300.989344 
L 633.50125 300.989344 
L 633.50125 0 
L 0 0 
z
" style="fill:#ffffff;"/>
  </g>
  <g id="axes_1">
   <g id="patch_2">
    <path d="M 43.78125 68.849654 
L 121.416033 68.849654 
L 121.416033 10.999219 
L 43.78125 10.999219 
z
" style="fill:#ffffff;"/>
   </g>
   <g id="patch_3">
    <path clip-path="url(#p2f83d4c258)" d="M 47.310104 68.849654 
L 57.044873 68.849654 
L 57.044873 67.980178 
L 47.310104 67.980178 
z
"/>
   </g>
   <g id="patch_4">
    <path clip-path="url(#p2f83d4c258)" d="M 59.478565 68.849654 
L 69.213334 68.849654 
L 69.213334 65.831716 
L 59.478565 65.831716 
z
"/>
   </g>
   <g id="patch_5">
    <path clip-path="url(#p2f83d4c258)" d="M 71.647026 68.849654 
L 81.381795 68.849654 
L 81.381795 65.845589 
L 71.647026 65.845589 
z
"/>
   </g>
   <g id="patch_6">
    <path clip-path="url(#p2f83d4c258)" d="M 83.815487 68.849654 
L 93.550256 68.849654 
L 93.550256 67.247075 
L 83.815487 67.247075 
z
"/>
   </g>
   <g id="patch_7">
    <path clip-path="url(#p2f83d4c258)" d="M 95.983949 68.849654 
L 105.718718 68.849654 
L 105.718718 67.937592 
L 95.983949 67.937592 
z
" style="fill:#1f77b4;"/>
   </g>
   <g id="patch_8">
    <path clip-path="url(#p2f83d4c258)" d="M 108.15241 68.849654 
L 117.887179 68.849654 
L 117.887179 19.435094 
L 108.15241 19.435094 
z
" style="fill:#1f77b4;"/>
   </g>
   <g id="patch_9">
    <path clip-path="url(#p2f83d4c258)" d="M 47.310104 67.980178 
L 57.044873 67.980178 
L 57.044873 67.88357 
L 47.310104 67.88357 
z
"/>
   </g>
   <g id="patch_10">
    <path clip-path="url(#p2f83d4c258)" d="M 59.478565 65.831716 
L 69.213334 65.831716 
L 69.213334 65.49639 
L 59.478565 65.49639 
z
" style="fill:#1f77b4;"/>
   </g>
   <g id="patch_11">
    <path clip-path="url(#p2f83d4c258)" d="M 71.647026 65.845589 
L 81.381795 65.845589 
L 81.381795 65.511804 
L 71.647026 65.511804 
z
" style="fill:#aec7e8;"/>
   </g>
   <g id="patch_12">
    <path clip-path="url(#p2f83d4c258)" d="M 83.815487 67.247075 
L 93.550256 67.247075 
L 93.550256 67.06901 
L 83.815487 67.06901 
z
" style="fill:#aec7e8;"/>
   </g>
   <g id="patch_13">
    <path clip-path="url(#p2f83d4c258)" d="M 95.983949 67.937592 
L 105.718718 67.937592 
L 105.718718 67.836251 
L 95.983949 67.836251 
z
"/>
   </g>
   <g id="patch_14">
    <path clip-path="url(#p2f83d4c258)" d="M 108.15241 19.435094 
L 117.887179 19.435094 
L 117.887179 13.944588 
L 108.15241 13.944588 
z
" style="fill:#aec7e8;"/>
   </g>
   <g id="matplotlib.axis_1"/>
   <g id="matplotlib.axis_2">
    <g id="ytick_1">
     <g id="line2d_1">
      <defs>
       <path d="M 0 0 
L -3.5 0 
" id="m5acbabdd23" style="stroke:#000000;stroke-width:0.8;"/>
      </defs>
      <g>
       <use style="stroke:#000000;stroke-width:0.8;" x="43.78125" xlink:href="#m5acbabdd23" y="68.849654"/>
      </g>
     </g>
     <g id="text_1">
      <!-- 0.0 -->
      <g transform="translate(20.878125 72.648872)scale(0.1 -0.1)">
       <defs>
        <path d="M 2034 4250 
Q 1547 4250 1301 3770 
Q 1056 3291 1056 2328 
Q 1056 1369 1301 889 
Q 1547 409 2034 409 
Q 2525 409 2770 889 
Q 3016 1369 3016 2328 
Q 3016 3291 2770 3770 
Q 2525 4250 2034 4250 
z
M 2034 4750 
Q 2819 4750 3233 4129 
Q 3647 3509 3647 2328 
Q 3647 1150 3233 529 
Q 2819 -91 2034 -91 
Q 1250 -91 836 529 
Q 422 1150 422 2328 
Q 422 3509 836 4129 
Q 1250 4750 2034 4750 
z
" id="DejaVuSans-30" transform="scale(0.015625)"/>
        <path d="M 684 794 
L 1344 794 
L 1344 0 
L 684 0 
L 684 794 
z
" id="DejaVuSans-2e" transform="scale(0.015625)"/>
       </defs>
       <use xlink:href="#DejaVuSans-30"/>
       <use x="63.623047" xlink:href="#DejaVuSans-2e"/>
       <use x="95.410156" xlink:href="#DejaVuSans-30"/>
      </g>
     </g>
    </g>
    <g id="ytick_2">
     <g id="line2d_2">
      <g>
       <use style="stroke:#000000;stroke-width:0.8;" x="43.78125" xlink:href="#m5acbabdd23" y="33.026508"/>
      </g>
     </g>
     <g id="text_2">
      <!-- 0.5 -->
      <g transform="translate(20.878125 36.825727)scale(0.1 -0.1)">
       <defs>
        <path d="M 691 4666 
L 3169 4666 
L 3169 4134 
L 1269 4134 
L 1269 2991 
Q 1406 3038 1543 3061 
Q 1681 3084 1819 3084 
Q 2600 3084 3056 2656 
Q 3513 2228 3513 1497 
Q 3513 744 3044 326 
Q 2575 -91 1722 -91 
Q 1428 -91 1123 -41 
Q 819 9 494 109 
L 494 744 
Q 775 591 1075 516 
Q 1375 441 1709 441 
Q 2250 441 2565 725 
Q 2881 1009 2881 1497 
Q 2881 1984 2565 2268 
Q 2250 2553 1709 2553 
Q 1456 2553 1204 2497 
Q 953 2441 691 2322 
L 691 4666 
z
" id="DejaVuSans-35" transform="scale(0.015625)"/>
       </defs>
       <use xlink:href="#DejaVuSans-30"/>
       <use x="63.623047" xlink:href="#DejaVuSans-2e"/>
       <use x="95.410156" xlink:href="#DejaVuSans-35"/>
      </g>
     </g>
    </g>
   </g>
   <g id="patch_15">
    <path d="M 43.78125 68.849654 
L 43.78125 10.999219 
" style="fill:none;stroke:#000000;stroke-linecap:square;stroke-linejoin:miter;stroke-width:0.8;"/>
   </g>
   <g id="patch_16">
    <path d="M 121.416033 68.849654 
L 121.416033 10.999219 
" style="fill:none;stroke:#000000;stroke-linecap:square;stroke-linejoin:miter;stroke-width:0.8;"/>
   </g>
   <g id="patch_17">
    <path d="M 43.78125 68.849654 
L 121.416033 68.849654 
" style="fill:none;stroke:#000000;stroke-linecap:square;stroke-linejoin:miter;stroke-width:0.8;"/>
   </g>
   <g id="patch_18">
    <path d="M 43.78125 10.999219 
L 121.416033 10.999219 
" style="fill:none;stroke:#000000;stroke-linecap:square;stroke-linejoin:miter;stroke-width:0.8;"/>
   </g>
  </g>
  <g id="axes_2">
   <g id="patch_19">
    <path d="M 136.942989 68.849654 
L 214.577772 68.849654 
L 214.577772 10.999219 
L 136.942989 10.999219 
z
" style="fill:#ffffff;"/>
   </g>
   <g id="patch_20">
    <path clip-path="url(#pc79a066d57)" d="M 140.471843 68.849654 
L 150.206612 68.849654 
L 150.206612 65.131769 
L 140.471843 65.131769 
z
"/>
   </g>
   <g id="patch_21">
    <path clip-path="url(#pc79a066d57)" d="M 152.640304 68.849654 
L 162.375073 68.849654 
L 162.375073 65.831716 
L 152.640304 65.831716 
z
"/>
   </g>
   <g id="patch_22">
    <path clip-path="url(#pc79a066d57)" d="M 164.808765 68.849654 
L 174.543534 68.849654 
L 174.543534 65.62067 
L 164.808765 65.62067 
z
"/>
   </g>
   <g id="patch_23">
    <path clip-path="url(#pc79a066d57)" d="M 176.977227 68.849654 
L 186.711996 68.849654 
L 186.711996 66.206831 
L 176.977227 66.206831 
z
"/>
   </g>
   <g id="patch_24">
    <path clip-path="url(#pc79a066d57)" d="M 189.145688 68.849654 
L 198.880457 68.849654 
L 198.880457 66.757729 
L 189.145688 66.757729 
z
" style="fill:#1f77b4;"/>
   </g>
   <g id="patch_25">
    <path clip-path="url(#pc79a066d57)" d="M 201.314149 68.849654 
L 211.048918 68.849654 
L 211.048918 19.263567 
L 201.314149 19.263567 
z
" style="fill:#1f77b4;"/>
   </g>
   <g id="patch_26">
    <path clip-path="url(#pc79a066d57)" d="M 140.471843 65.131769 
L 150.206612 65.131769 
L 150.206612 64.718671 
L 140.471843 64.718671 
z
"/>
   </g>
   <g id="patch_27">
    <path clip-path="url(#pc79a066d57)" d="M 152.640304 65.831716 
L 162.375073 65.831716 
L 162.375073 65.49639 
L 152.640304 65.49639 
z
" style="fill:#1f77b4;"/>
   </g>
   <g id="patch_28">
    <path clip-path="url(#pc79a066d57)" d="M 164.808765 65.62067 
L 174.543534 65.62067 
L 174.543534 65.261894 
L 164.808765 65.261894 
z
" style="fill:#ff7f0e;"/>
   </g>
   <g id="patch_29">
    <path clip-path="url(#pc79a066d57)" d="M 176.977227 66.206831 
L 186.711996 66.206831 
L 186.711996 65.913184 
L 176.977227 65.913184 
z
" style="fill:#ff7f0e;"/>
   </g>
   <g id="patch_30">
    <path clip-path="url(#pc79a066d57)" d="M 189.145688 66.757729 
L 198.880457 66.757729 
L 198.880457 66.525293 
L 189.145688 66.525293 
z
"/>
   </g>
   <g id="patch_31">
    <path clip-path="url(#pc79a066d57)" d="M 201.314149 19.263567 
L 211.048918 19.263567 
L 211.048918 13.754001 
L 201.314149 13.754001 
z
" style="fill:#ff7f0e;"/>
   </g>
   <g id="matplotlib.axis_3"/>
   <g id="matplotlib.axis_4">
    <g id="ytick_3">
     <g id="line2d_3">
      <g>
       <use style="stroke:#000000;stroke-width:0.8;" x="136.942989" xlink:href="#m5acbabdd23" y="68.849654"/>
      </g>
     </g>
    </g>
    <g id="ytick_4">
     <g id="line2d_4">
      <g>
       <use style="stroke:#000000;stroke-width:0.8;" x="136.942989" xlink:href="#m5acbabdd23" y="33.026508"/>
      </g>
     </g>
    </g>
   </g>
   <g id="patch_32">
    <path d="M 136.942989 68.849654 
L 136.942989 10.999219 
" style="fill:none;stroke:#000000;stroke-linecap:square;stroke-linejoin:miter;stroke-width:0.8;"/>
   </g>
   <g id="patch_33">
    <path d="M 214.577772 68.849654 
L 214.577772 10.999219 
" style="fill:none;stroke:#000000;stroke-linecap:square;stroke-linejoin:miter;stroke-width:0.8;"/>
   </g>
   <g id="patch_34">
    <path d="M 136.942989 68.849654 
L 214.577772 68.849654 
" style="fill:none;stroke:#000000;stroke-linecap:square;stroke-linejoin:miter;stroke-width:0.8;"/>
   </g>
   <g id="patch_35">
    <path d="M 136.942989 10.999219 
L 214.577772 10.999219 
" style="fill:none;stroke:#000000;stroke-linecap:square;stroke-linejoin:miter;stroke-width:0.8;"/>
   </g>
  </g>
  <g id="axes_3">
   <g id="patch_36">
    <path d="M 230.104728 68.849654 
L 307.739511 68.849654 
L 307.739511 10.999219 
L 230.104728 10.999219 
z
" style="fill:#ffffff;"/>
   </g>
   <g id="patch_37">
    <path clip-path="url(#p2a5eefc176)" d="M 233.633582 68.849654 
L 243.368351 68.849654 
L 243.368351 68.749489 
L 233.633582 68.749489 
z
"/>
   </g>
   <g id="patch_38">
    <path clip-path="url(#p2a5eefc176)" d="M 245.802043 68.849654 
L 255.536812 68.849654 
L 255.536812 67.255758 
L 245.802043 67.255758 
z
"/>
   </g>
   <g id="patch_39">
    <path clip-path="url(#p2a5eefc176)" d="M 257.970504 68.849654 
L 267.705273 68.849654 
L 267.705273 66.068329 
L 257.970504 66.068329 
z
"/>
   </g>
   <g id="patch_40">
    <path clip-path="url(#p2a5eefc176)" d="M 270.138966 68.849654 
L 279.873735 68.849654 
L 279.873735 68.400138 
L 270.138966 68.400138 
z
"/>
   </g>
   <g id="patch_41">
    <path clip-path="url(#p2a5eefc176)" d="M 282.307427 68.849654 
L 292.042196 68.849654 
L 292.042196 68.058175 
L 282.307427 68.058175 
z
" style="fill:#1f77b4;"/>
   </g>
   <g id="patch_42">
    <path clip-path="url(#p2a5eefc176)" d="M 294.475888 68.849654 
L 304.210657 68.849654 
L 304.210657 22.955107 
L 294.475888 22.955107 
z
" style="fill:#1f77b4;"/>
   </g>
   <g id="patch_43">
    <path clip-path="url(#p2a5eefc176)" d="M 233.633582 68.749489 
L 243.368351 68.749489 
L 243.368351 68.73836 
L 233.633582 68.73836 
z
"/>
   </g>
   <g id="patch_44">
    <path clip-path="url(#p2a5eefc176)" d="M 245.802043 67.255758 
L 255.536812 67.255758 
L 255.536812 67.078659 
L 245.802043 67.078659 
z
" style="fill:#1f77b4;"/>
   </g>
   <g id="patch_45">
    <path clip-path="url(#p2a5eefc176)" d="M 257.970504 66.068329 
L 267.705273 66.068329 
L 267.705273 65.759293 
L 257.970504 65.759293 
z
" style="fill:#ff7f0e;"/>
   </g>
   <g id="patch_46">
    <path clip-path="url(#p2a5eefc176)" d="M 270.138966 68.400138 
L 279.873735 68.400138 
L 279.873735 68.350192 
L 270.138966 68.350192 
z
" style="fill:#ff7f0e;"/>
   </g>
   <g id="patch_47">
    <path clip-path="url(#p2a5eefc176)" d="M 282.307427 68.058175 
L 292.042196 68.058175 
L 292.042196 67.970233 
L 282.307427 67.970233 
z
"/>
   </g>
   <g id="patch_48">
    <path clip-path="url(#p2a5eefc176)" d="M 294.475888 22.955107 
L 304.210657 22.955107 
L 304.210657 17.855713 
L 294.475888 17.855713 
z
" style="fill:#ff7f0e;"/>
   </g>
   <g id="matplotlib.axis_5"/>
   <g id="matplotlib.axis_6">
    <g id="ytick_5">
     <g id="line2d_5">
      <g>
       <use style="stroke:#000000;stroke-width:0.8;" x="230.104728" xlink:href="#m5acbabdd23" y="68.849654"/>
      </g>
     </g>
    </g>
    <g id="ytick_6">
     <g id="line2d_6">
      <g>
       <use style="stroke:#000000;stroke-width:0.8;" x="230.104728" xlink:href="#m5acbabdd23" y="33.026508"/>
      </g>
     </g>
    </g>
   </g>
   <g id="patch_49">
    <path d="M 230.104728 68.849654 
L 230.104728 10.999219 
" style="fill:none;stroke:#000000;stroke-linecap:square;stroke-linejoin:miter;stroke-width:0.8;"/>
   </g>
   <g id="patch_50">
    <path d="M 307.739511 68.849654 
L 307.739511 10.999219 
" style="fill:none;stroke:#000000;stroke-linecap:square;stroke-linejoin:miter;stroke-width:0.8;"/>
   </g>
   <g id="patch_51">
    <path d="M 230.104728 68.849654 
L 307.739511 68.849654 
" style="fill:none;stroke:#000000;stroke-linecap:square;stroke-linejoin:miter;stroke-width:0.8;"/>
   </g>
   <g id="patch_52">
    <path d="M 230.104728 10.999219 
L 307.739511 10.999219 
" style="fill:none;stroke:#000000;stroke-linecap:square;stroke-linejoin:miter;stroke-width:0.8;"/>
   </g>
  </g>
  <g id="axes_4">
   <g id="patch_53">
    <path d="M 323.266467 68.849654 
L 400.90125 68.849654 
L 400.90125 10.999219 
L 323.266467 10.999219 
z
" style="fill:#ffffff;"/>
   </g>
   <g id="patch_54">
    <path clip-path="url(#p9bf6a9e730)" d="M 326.795321 68.849654 
L 336.53009 68.849654 
L 336.53009 68.14838 
L 326.795321 68.14838 
z
"/>
   </g>
   <g id="patch_55">
    <path clip-path="url(#p9bf6a9e730)" d="M 338.963782 68.849654 
L 348.698551 68.849654 
L 348.698551 66.097788 
L 338.963782 66.097788 
z
"/>
   </g>
   <g id="patch_56">
    <path clip-path="url(#p9bf6a9e730)" d="M 351.132244 68.849654 
L 360.867013 68.849654 
L 360.867013 66.169301 
L 351.132244 66.169301 
z
"/>
   </g>
   <g id="patch_57">
    <path clip-path="url(#p9bf6a9e730)" d="M 363.300705 68.849654 
L 373.035474 68.849654 
L 373.035474 66.435997 
L 363.300705 66.435997 
z
"/>
   </g>
   <g id="patch_58">
    <path clip-path="url(#p9bf6a9e730)" d="M 375.469166 68.849654 
L 385.203935 68.849654 
L 385.203935 68.018028 
L 375.469166 68.018028 
z
" style="fill:#ff7f0e;"/>
   </g>
   <g id="patch_59">
    <path clip-path="url(#p9bf6a9e730)" d="M 387.637627 68.849654 
L 397.372396 68.849654 
L 397.372396 24.768233 
L 387.637627 24.768233 
z
" style="fill:#ff7f0e;"/>
   </g>
   <g id="patch_60">
    <path clip-path="url(#p9bf6a9e730)" d="M 326.795321 68.14838 
L 336.53009 68.14838 
L 336.53009 68.070461 
L 326.795321 68.070461 
z
"/>
   </g>
   <g id="patch_61">
    <path clip-path="url(#p9bf6a9e730)" d="M 338.963782 66.097788 
L 348.698551 66.097788 
L 348.698551 65.792025 
L 338.963782 65.792025 
z
" style="fill:#aec7e8;"/>
   </g>
   <g id="patch_62">
    <path clip-path="url(#p9bf6a9e730)" d="M 351.132244 66.169301 
L 360.867013 66.169301 
L 360.867013 65.871485 
L 351.132244 65.871485 
z
" style="fill:#aec7e8;"/>
   </g>
   <g id="patch_63">
    <path clip-path="url(#p9bf6a9e730)" d="M 363.300705 66.435997 
L 373.035474 66.435997 
L 373.035474 66.167812 
L 363.300705 66.167812 
z
" style="fill:#ff7f0e;"/>
   </g>
   <g id="patch_64">
    <path clip-path="url(#p9bf6a9e730)" d="M 375.469166 68.018028 
L 385.203935 68.018028 
L 385.203935 67.925625 
L 375.469166 67.925625 
z
"/>
   </g>
   <g id="patch_65">
    <path clip-path="url(#p9bf6a9e730)" d="M 387.637627 24.768233 
L 397.372396 24.768233 
L 397.372396 19.870297 
L 387.637627 19.870297 
z
" style="fill:#aec7e8;"/>
   </g>
   <g id="matplotlib.axis_7"/>
   <g id="matplotlib.axis_8">
    <g id="ytick_7">
     <g id="line2d_7">
      <g>
       <use style="stroke:#000000;stroke-width:0.8;" x="323.266467" xlink:href="#m5acbabdd23" y="68.849654"/>
      </g>
     </g>
    </g>
    <g id="ytick_8">
     <g id="line2d_8">
      <g>
       <use style="stroke:#000000;stroke-width:0.8;" x="323.266467" xlink:href="#m5acbabdd23" y="33.026508"/>
      </g>
     </g>
    </g>
   </g>
   <g id="patch_66">
    <path d="M 323.266467 68.849654 
L 323.266467 10.999219 
" style="fill:none;stroke:#000000;stroke-linecap:square;stroke-linejoin:miter;stroke-width:0.8;"/>
   </g>
   <g id="patch_67">
    <path d="M 400.90125 68.849654 
L 400.90125 10.999219 
" style="fill:none;stroke:#000000;stroke-linecap:square;stroke-linejoin:miter;stroke-width:0.8;"/>
   </g>
   <g id="patch_68">
    <path d="M 323.266467 68.849654 
L 400.90125 68.849654 
" style="fill:none;stroke:#000000;stroke-linecap:square;stroke-linejoin:miter;stroke-width:0.8;"/>
   </g>
   <g id="patch_69">
    <path d="M 323.266467 10.999219 
L 400.90125 10.999219 
" style="fill:none;stroke:#000000;stroke-linecap:square;stroke-linejoin:miter;stroke-width:0.8;"/>
   </g>
  </g>
  <g id="axes_5">
   <g id="patch_70">
    <path d="M 43.78125 138.270175 
L 121.416033 138.270175 
L 121.416033 80.41974 
L 43.78125 80.41974 
z
" style="fill:#ffffff;"/>
   </g>
   <g id="patch_71">
    <path clip-path="url(#p3ffb41cc7b)" d="M 47.310104 138.270175 
L 67.474982 138.270175 
L 67.474982 135.063669 
L 47.310104 135.063669 
z
"/>
   </g>
   <g id="patch_72">
    <path clip-path="url(#p3ffb41cc7b)" d="M 72.516202 138.270175 
L 92.681081 138.270175 
L 92.681081 135.856518 
L 72.516202 135.856518 
z
" style="fill:#ff7f0e;"/>
   </g>
   <g id="patch_73">
    <path clip-path="url(#p3ffb41cc7b)" d="M 97.7223 138.270175 
L 117.887179 138.270175 
L 117.887179 94.811555 
L 97.7223 94.811555 
z
" style="fill:#ff7f0e;"/>
   </g>
   <g id="patch_74">
    <path clip-path="url(#p3ffb41cc7b)" d="M 47.310104 135.063669 
L 67.474982 135.063669 
L 67.474982 134.70739 
L 47.310104 134.70739 
z
" style="fill:#1f77b4;"/>
   </g>
   <g id="patch_75">
    <path clip-path="url(#p3ffb41cc7b)" d="M 72.516202 135.856518 
L 92.681081 135.856518 
L 92.681081 135.588334 
L 72.516202 135.588334 
z
"/>
   </g>
   <g id="patch_76">
    <path clip-path="url(#p3ffb41cc7b)" d="M 97.7223 94.811555 
L 117.887179 94.811555 
L 117.887179 89.982819 
L 97.7223 89.982819 
z
" style="fill:#1f77b4;"/>
   </g>
   <g id="matplotlib.axis_9"/>
   <g id="matplotlib.axis_10">
    <g id="ytick_9">
     <g id="line2d_9">
      <g>
       <use style="stroke:#000000;stroke-width:0.8;" x="43.78125" xlink:href="#m5acbabdd23" y="138.270175"/>
      </g>
     </g>
     <g id="text_3">
      <!-- 0.0 -->
      <g transform="translate(20.878125 142.069394)scale(0.1 -0.1)">
       <use xlink:href="#DejaVuSans-30"/>
       <use x="63.623047" xlink:href="#DejaVuSans-2e"/>
       <use x="95.410156" xlink:href="#DejaVuSans-30"/>
      </g>
     </g>
    </g>
    <g id="ytick_10">
     <g id="line2d_10">
      <g>
       <use style="stroke:#000000;stroke-width:0.8;" x="43.78125" xlink:href="#m5acbabdd23" y="102.44703"/>
      </g>
     </g>
     <g id="text_4">
      <!-- 0.5 -->
      <g transform="translate(20.878125 106.246249)scale(0.1 -0.1)">
       <use xlink:href="#DejaVuSans-30"/>
       <use x="63.623047" xlink:href="#DejaVuSans-2e"/>
       <use x="95.410156" xlink:href="#DejaVuSans-35"/>
      </g>
     </g>
    </g>
   </g>
   <g id="patch_77">
    <path d="M 43.78125 138.270175 
L 43.78125 80.41974 
" style="fill:none;stroke:#000000;stroke-linecap:square;stroke-linejoin:miter;stroke-width:0.8;"/>
   </g>
   <g id="patch_78">
    <path d="M 121.416033 138.270175 
L 121.416033 80.41974 
" style="fill:none;stroke:#000000;stroke-linecap:square;stroke-linejoin:miter;stroke-width:0.8;"/>
   </g>
   <g id="patch_79">
    <path d="M 43.78125 138.270175 
L 121.416033 138.270175 
" style="fill:none;stroke:#000000;stroke-linecap:square;stroke-linejoin:miter;stroke-width:0.8;"/>
   </g>
   <g id="patch_80">
    <path d="M 43.78125 80.41974 
L 121.416033 80.41974 
" style="fill:none;stroke:#000000;stroke-linecap:square;stroke-linejoin:miter;stroke-width:0.8;"/>
   </g>
  </g>
  <g id="axes_6">
   <g id="patch_81">
    <path d="M 136.942989 138.270175 
L 214.577772 138.270175 
L 214.577772 80.41974 
L 136.942989 80.41974 
z
" style="fill:#ffffff;"/>
   </g>
   <g id="patch_82">
    <path clip-path="url(#p6c06420271)" d="M 140.471843 138.270175 
L 160.636721 138.270175 
L 160.636721 128.468893 
L 140.471843 128.468893 
z
"/>
   </g>
   <g id="patch_83">
    <path clip-path="url(#p6c06420271)" d="M 165.677941 138.270175 
L 185.84282 138.270175 
L 185.84282 129.352693 
L 165.677941 129.352693 
z
" style="fill:#ff7f0e;"/>
   </g>
   <g id="patch_84">
    <path clip-path="url(#p6c06420271)" d="M 190.884039 138.270175 
L 211.048918 138.270175 
L 211.048918 91.868343 
L 190.884039 91.868343 
z
" style="fill:#ff7f0e;"/>
   </g>
   <g id="patch_85">
    <path clip-path="url(#p6c06420271)" d="M 140.471843 128.468893 
L 160.636721 128.468893 
L 160.636721 127.379862 
L 140.471843 127.379862 
z
" style="fill:#aec7e8;"/>
   </g>
   <g id="patch_86">
    <path clip-path="url(#p6c06420271)" d="M 165.677941 129.352693 
L 185.84282 129.352693 
L 185.84282 128.361861 
L 165.677941 128.361861 
z
"/>
   </g>
   <g id="patch_87">
    <path clip-path="url(#p6c06420271)" d="M 190.884039 91.868343 
L 211.048918 91.868343 
L 211.048918 86.712584 
L 190.884039 86.712584 
z
" style="fill:#aec7e8;"/>
   </g>
   <g id="matplotlib.axis_11"/>
   <g id="matplotlib.axis_12">
    <g id="ytick_11">
     <g id="line2d_11">
      <g>
       <use style="stroke:#000000;stroke-width:0.8;" x="136.942989" xlink:href="#m5acbabdd23" y="138.270175"/>
      </g>
     </g>
    </g>
    <g id="ytick_12">
     <g id="line2d_12">
      <g>
       <use style="stroke:#000000;stroke-width:0.8;" x="136.942989" xlink:href="#m5acbabdd23" y="102.44703"/>
      </g>
     </g>
    </g>
   </g>
   <g id="patch_88">
    <path d="M 136.942989 138.270175 
L 136.942989 80.41974 
" style="fill:none;stroke:#000000;stroke-linecap:square;stroke-linejoin:miter;stroke-width:0.8;"/>
   </g>
   <g id="patch_89">
    <path d="M 214.577772 138.270175 
L 214.577772 80.41974 
" style="fill:none;stroke:#000000;stroke-linecap:square;stroke-linejoin:miter;stroke-width:0.8;"/>
   </g>
   <g id="patch_90">
    <path d="M 136.942989 138.270175 
L 214.577772 138.270175 
" style="fill:none;stroke:#000000;stroke-linecap:square;stroke-linejoin:miter;stroke-width:0.8;"/>
   </g>
   <g id="patch_91">
    <path d="M 136.942989 80.41974 
L 214.577772 80.41974 
" style="fill:none;stroke:#000000;stroke-linecap:square;stroke-linejoin:miter;stroke-width:0.8;"/>
   </g>
  </g>
  <g id="axes_7">
   <g id="patch_92">
    <path d="M 230.104728 138.270175 
L 307.739511 138.270175 
L 307.739511 80.41974 
L 230.104728 80.41974 
z
" style="fill:#ffffff;"/>
   </g>
   <g id="patch_93">
    <path clip-path="url(#pfaca4b369a)" d="M 233.633582 138.270175 
L 243.368351 138.270175 
L 243.368351 138.052537 
L 233.633582 138.052537 
z
"/>
   </g>
   <g id="patch_94">
    <path clip-path="url(#pfaca4b369a)" d="M 245.802043 138.270175 
L 255.536812 138.270175 
L 255.536812 135.728431 
L 245.802043 135.728431 
z
"/>
   </g>
   <g id="patch_95">
    <path clip-path="url(#pfaca4b369a)" d="M 257.970504 138.270175 
L 267.705273 138.270175 
L 267.705273 134.289706 
L 257.970504 134.289706 
z
"/>
   </g>
   <g id="patch_96">
    <path clip-path="url(#pfaca4b369a)" d="M 270.138966 138.270175 
L 279.873735 138.270175 
L 279.873735 136.188667 
L 270.138966 136.188667 
z
"/>
   </g>
   <g id="patch_97">
    <path clip-path="url(#pfaca4b369a)" d="M 282.307427 138.270175 
L 292.042196 138.270175 
L 292.042196 136.204612 
L 282.307427 136.204612 
z
" style="fill:#1f77b4;"/>
   </g>
   <g id="patch_98">
    <path clip-path="url(#pfaca4b369a)" d="M 294.475888 138.270175 
L 304.210657 138.270175 
L 304.210657 97.959314 
L 294.475888 97.959314 
z
" style="fill:#1f77b4;"/>
   </g>
   <g id="patch_99">
    <path clip-path="url(#pfaca4b369a)" d="M 233.633582 138.052537 
L 243.368351 138.052537 
L 243.368351 138.028354 
L 233.633582 138.028354 
z
"/>
   </g>
   <g id="patch_100">
    <path clip-path="url(#pfaca4b369a)" d="M 245.802043 135.728431 
L 255.536812 135.728431 
L 255.536812 135.446015 
L 245.802043 135.446015 
z
" style="fill:#1f77b4;"/>
   </g>
   <g id="patch_101">
    <path clip-path="url(#pfaca4b369a)" d="M 257.970504 134.289706 
L 267.705273 134.289706 
L 267.705273 133.847432 
L 257.970504 133.847432 
z
" style="fill:#aec7e8;"/>
   </g>
   <g id="patch_102">
    <path clip-path="url(#pfaca4b369a)" d="M 270.138966 136.188667 
L 279.873735 136.188667 
L 279.873735 135.957388 
L 270.138966 135.957388 
z
" style="fill:#aec7e8;"/>
   </g>
   <g id="patch_103">
    <path clip-path="url(#pfaca4b369a)" d="M 282.307427 136.204612 
L 292.042196 136.204612 
L 292.042196 135.975105 
L 282.307427 135.975105 
z
"/>
   </g>
   <g id="patch_104">
    <path clip-path="url(#pfaca4b369a)" d="M 294.475888 97.959314 
L 304.210657 97.959314 
L 304.210657 93.48033 
L 294.475888 93.48033 
z
" style="fill:#aec7e8;"/>
   </g>
   <g id="matplotlib.axis_13"/>
   <g id="matplotlib.axis_14">
    <g id="ytick_13">
     <g id="line2d_13">
      <g>
       <use style="stroke:#000000;stroke-width:0.8;" x="230.104728" xlink:href="#m5acbabdd23" y="138.270175"/>
      </g>
     </g>
    </g>
    <g id="ytick_14">
     <g id="line2d_14">
      <g>
       <use style="stroke:#000000;stroke-width:0.8;" x="230.104728" xlink:href="#m5acbabdd23" y="102.44703"/>
      </g>
     </g>
    </g>
   </g>
   <g id="patch_105">
    <path d="M 230.104728 138.270175 
L 230.104728 80.41974 
" style="fill:none;stroke:#000000;stroke-linecap:square;stroke-linejoin:miter;stroke-width:0.8;"/>
   </g>
   <g id="patch_106">
    <path d="M 307.739511 138.270175 
L 307.739511 80.41974 
" style="fill:none;stroke:#000000;stroke-linecap:square;stroke-linejoin:miter;stroke-width:0.8;"/>
   </g>
   <g id="patch_107">
    <path d="M 230.104728 138.270175 
L 307.739511 138.270175 
" style="fill:none;stroke:#000000;stroke-linecap:square;stroke-linejoin:miter;stroke-width:0.8;"/>
   </g>
   <g id="patch_108">
    <path d="M 230.104728 80.41974 
L 307.739511 80.41974 
" style="fill:none;stroke:#000000;stroke-linecap:square;stroke-linejoin:miter;stroke-width:0.8;"/>
   </g>
  </g>
  <g id="axes_8">
   <g id="patch_109">
    <path d="M 323.266467 138.270175 
L 400.90125 138.270175 
L 400.90125 80.41974 
L 323.266467 80.41974 
z
" style="fill:#ffffff;"/>
   </g>
   <g id="patch_110">
    <path clip-path="url(#pd8dcbea73f)" d="M 326.795321 138.270175 
L 346.9602 138.270175 
L 346.9602 130.923787 
L 326.795321 130.923787 
z
"/>
   </g>
   <g id="patch_111">
    <path clip-path="url(#pd8dcbea73f)" d="M 352.001419 138.270175 
L 372.166298 138.270175 
L 372.166298 128.468893 
L 352.001419 128.468893 
z
" style="fill:#aec7e8;"/>
   </g>
   <g id="patch_112">
    <path clip-path="url(#pd8dcbea73f)" d="M 377.207518 138.270175 
L 397.372396 138.270175 
L 397.372396 93.202815 
L 377.207518 93.202815 
z
" style="fill:#aec7e8;"/>
   </g>
   <g id="patch_113">
    <path clip-path="url(#pd8dcbea73f)" d="M 326.795321 130.923787 
L 346.9602 130.923787 
L 346.9602 130.107522 
L 326.795321 130.107522 
z
" style="fill:#1f77b4;"/>
   </g>
   <g id="patch_114">
    <path clip-path="url(#pd8dcbea73f)" d="M 352.001419 128.468893 
L 372.166298 128.468893 
L 372.166298 127.379862 
L 352.001419 127.379862 
z
"/>
   </g>
   <g id="patch_115">
    <path clip-path="url(#pd8dcbea73f)" d="M 377.207518 93.202815 
L 397.372396 93.202815 
L 397.372396 88.195331 
L 377.207518 88.195331 
z
" style="fill:#1f77b4;"/>
   </g>
   <g id="matplotlib.axis_15"/>
   <g id="matplotlib.axis_16">
    <g id="ytick_15">
     <g id="line2d_15">
      <g>
       <use style="stroke:#000000;stroke-width:0.8;" x="323.266467" xlink:href="#m5acbabdd23" y="138.270175"/>
      </g>
     </g>
    </g>
    <g id="ytick_16">
     <g id="line2d_16">
      <g>
       <use style="stroke:#000000;stroke-width:0.8;" x="323.266467" xlink:href="#m5acbabdd23" y="102.44703"/>
      </g>
     </g>
    </g>
   </g>
   <g id="patch_116">
    <path d="M 323.266467 138.270175 
L 323.266467 80.41974 
" style="fill:none;stroke:#000000;stroke-linecap:square;stroke-linejoin:miter;stroke-width:0.8;"/>
   </g>
   <g id="patch_117">
    <path d="M 400.90125 138.270175 
L 400.90125 80.41974 
" style="fill:none;stroke:#000000;stroke-linecap:square;stroke-linejoin:miter;stroke-width:0.8;"/>
   </g>
   <g id="patch_118">
    <path d="M 323.266467 138.270175 
L 400.90125 138.270175 
" style="fill:none;stroke:#000000;stroke-linecap:square;stroke-linejoin:miter;stroke-width:0.8;"/>
   </g>
   <g id="patch_119">
    <path d="M 323.266467 80.41974 
L 400.90125 80.41974 
" style="fill:none;stroke:#000000;stroke-linecap:square;stroke-linejoin:miter;stroke-width:0.8;"/>
   </g>
  </g>
  <g id="axes_9">
   <g id="patch_120">
    <path d="M 43.78125 207.690697 
L 121.416033 207.690697 
L 121.416033 149.840262 
L 43.78125 149.840262 
z
" style="fill:#ffffff;"/>
   </g>
   <g id="patch_121">
    <path clip-path="url(#p3a6a93cf06)" d="M 47.310104 207.690697 
L 57.044873 207.690697 
L 57.044873 207.631351 
L 47.310104 207.631351 
z
"/>
   </g>
   <g id="patch_122">
    <path clip-path="url(#p3a6a93cf06)" d="M 59.478565 207.690697 
L 69.213334 207.690697 
L 69.213334 203.309724 
L 59.478565 203.309724 
z
"/>
   </g>
   <g id="patch_123">
    <path clip-path="url(#p3a6a93cf06)" d="M 71.647026 207.690697 
L 81.381795 207.690697 
L 81.381795 205.373789 
L 71.647026 205.373789 
z
"/>
   </g>
   <g id="patch_124">
    <path clip-path="url(#p3a6a93cf06)" d="M 83.815487 207.690697 
L 93.550256 207.690697 
L 93.550256 203.395017 
L 83.815487 203.395017 
z
"/>
   </g>
   <g id="patch_125">
    <path clip-path="url(#p3a6a93cf06)" d="M 95.983949 207.690697 
L 105.718718 207.690697 
L 105.718718 205.940747 
L 95.983949 205.940747 
z
" style="fill:#aec7e8;"/>
   </g>
   <g id="patch_126">
    <path clip-path="url(#p3a6a93cf06)" d="M 108.15241 207.690697 
L 117.887179 207.690697 
L 117.887179 168.145658 
L 108.15241 168.145658 
z
" style="fill:#aec7e8;"/>
   </g>
   <g id="patch_127">
    <path clip-path="url(#p3a6a93cf06)" d="M 47.310104 207.631351 
L 57.044873 207.631351 
L 57.044873 207.624757 
L 47.310104 207.624757 
z
"/>
   </g>
   <g id="patch_128">
    <path clip-path="url(#p3a6a93cf06)" d="M 59.478565 203.309724 
L 69.213334 203.309724 
L 69.213334 202.822949 
L 59.478565 202.822949 
z
" style="fill:#1f77b4;"/>
   </g>
   <g id="patch_129">
    <path clip-path="url(#p3a6a93cf06)" d="M 71.647026 205.373789 
L 81.381795 205.373789 
L 81.381795 205.116354 
L 71.647026 205.116354 
z
" style="fill:#1f77b4;"/>
   </g>
   <g id="patch_130">
    <path clip-path="url(#p3a6a93cf06)" d="M 83.815487 203.395017 
L 93.550256 203.395017 
L 93.550256 202.917719 
L 83.815487 202.917719 
z
" style="fill:#aec7e8;"/>
   </g>
   <g id="patch_131">
    <path clip-path="url(#p3a6a93cf06)" d="M 95.983949 205.940747 
L 105.718718 205.940747 
L 105.718718 205.746308 
L 95.983949 205.746308 
z
"/>
   </g>
   <g id="patch_132">
    <path clip-path="url(#p3a6a93cf06)" d="M 108.15241 168.145658 
L 117.887179 168.145658 
L 117.887179 163.751765 
L 108.15241 163.751765 
z
" style="fill:#1f77b4;"/>
   </g>
   <g id="matplotlib.axis_17"/>
   <g id="matplotlib.axis_18">
    <g id="ytick_17">
     <g id="line2d_17">
      <g>
       <use style="stroke:#000000;stroke-width:0.8;" x="43.78125" xlink:href="#m5acbabdd23" y="207.690697"/>
      </g>
     </g>
     <g id="text_5">
      <!-- 0.0 -->
      <g transform="translate(20.878125 211.489916)scale(0.1 -0.1)">
       <use xlink:href="#DejaVuSans-30"/>
       <use x="63.623047" xlink:href="#DejaVuSans-2e"/>
       <use x="95.410156" xlink:href="#DejaVuSans-30"/>
      </g>
     </g>
    </g>
    <g id="ytick_18">
     <g id="line2d_18">
      <g>
       <use style="stroke:#000000;stroke-width:0.8;" x="43.78125" xlink:href="#m5acbabdd23" y="171.867552"/>
      </g>
     </g>
     <g id="text_6">
      <!-- 0.5 -->
      <g transform="translate(20.878125 175.666771)scale(0.1 -0.1)">
       <use xlink:href="#DejaVuSans-30"/>
       <use x="63.623047" xlink:href="#DejaVuSans-2e"/>
       <use x="95.410156" xlink:href="#DejaVuSans-35"/>
      </g>
     </g>
    </g>
   </g>
   <g id="patch_133">
    <path d="M 43.78125 207.690697 
L 43.78125 149.840262 
" style="fill:none;stroke:#000000;stroke-linecap:square;stroke-linejoin:miter;stroke-width:0.8;"/>
   </g>
   <g id="patch_134">
    <path d="M 121.416033 207.690697 
L 121.416033 149.840262 
" style="fill:none;stroke:#000000;stroke-linecap:square;stroke-linejoin:miter;stroke-width:0.8;"/>
   </g>
   <g id="patch_135">
    <path d="M 43.78125 207.690697 
L 121.416033 207.690697 
" style="fill:none;stroke:#000000;stroke-linecap:square;stroke-linejoin:miter;stroke-width:0.8;"/>
   </g>
   <g id="patch_136">
    <path d="M 43.78125 149.840262 
L 121.416033 149.840262 
" style="fill:none;stroke:#000000;stroke-linecap:square;stroke-linejoin:miter;stroke-width:0.8;"/>
   </g>
  </g>
  <g id="axes_10">
   <g id="patch_137">
    <path d="M 136.942989 207.690697 
L 214.577772 207.690697 
L 214.577772 149.840262 
L 136.942989 149.840262 
z
" style="fill:#ffffff;"/>
   </g>
   <g id="patch_138">
    <path clip-path="url(#p06fc632d88)" d="M 140.471843 207.690697 
L 160.636721 207.690697 
L 160.636721 202.441068 
L 140.471843 202.441068 
z
"/>
   </g>
   <g id="patch_139">
    <path clip-path="url(#p06fc632d88)" d="M 165.677941 207.690697 
L 185.84282 207.690697 
L 185.84282 202.342787 
L 165.677941 202.342787 
z
" style="fill:#1f77b4;"/>
   </g>
   <g id="patch_140">
    <path clip-path="url(#p06fc632d88)" d="M 190.884039 207.690697 
L 211.048918 207.690697 
L 211.048918 167.188546 
L 190.884039 167.188546 
z
" style="fill:#1f77b4;"/>
   </g>
   <g id="patch_141">
    <path clip-path="url(#p06fc632d88)" d="M 140.471843 202.441068 
L 160.636721 202.441068 
L 160.636721 201.857776 
L 140.471843 201.857776 
z
" style="fill:#aec7e8;"/>
   </g>
   <g id="patch_142">
    <path clip-path="url(#p06fc632d88)" d="M 165.677941 202.342787 
L 185.84282 202.342787 
L 185.84282 201.748575 
L 165.677941 201.748575 
z
"/>
   </g>
   <g id="patch_143">
    <path clip-path="url(#p06fc632d88)" d="M 190.884039 167.188546 
L 211.048918 167.188546 
L 211.048918 162.688307 
L 190.884039 162.688307 
z
" style="fill:#aec7e8;"/>
   </g>
   <g id="matplotlib.axis_19"/>
   <g id="matplotlib.axis_20">
    <g id="ytick_19">
     <g id="line2d_19">
      <g>
       <use style="stroke:#000000;stroke-width:0.8;" x="136.942989" xlink:href="#m5acbabdd23" y="207.690697"/>
      </g>
     </g>
    </g>
    <g id="ytick_20">
     <g id="line2d_20">
      <g>
       <use style="stroke:#000000;stroke-width:0.8;" x="136.942989" xlink:href="#m5acbabdd23" y="171.867552"/>
      </g>
     </g>
    </g>
   </g>
   <g id="patch_144">
    <path d="M 136.942989 207.690697 
L 136.942989 149.840262 
" style="fill:none;stroke:#000000;stroke-linecap:square;stroke-linejoin:miter;stroke-width:0.8;"/>
   </g>
   <g id="patch_145">
    <path d="M 214.577772 207.690697 
L 214.577772 149.840262 
" style="fill:none;stroke:#000000;stroke-linecap:square;stroke-linejoin:miter;stroke-width:0.8;"/>
   </g>
   <g id="patch_146">
    <path d="M 136.942989 207.690697 
L 214.577772 207.690697 
" style="fill:none;stroke:#000000;stroke-linecap:square;stroke-linejoin:miter;stroke-width:0.8;"/>
   </g>
   <g id="patch_147">
    <path d="M 136.942989 149.840262 
L 214.577772 149.840262 
" style="fill:none;stroke:#000000;stroke-linecap:square;stroke-linejoin:miter;stroke-width:0.8;"/>
   </g>
  </g>
  <g id="axes_11">
   <g id="patch_148">
    <path d="M 230.104728 207.690697 
L 307.739511 207.690697 
L 307.739511 149.840262 
L 230.104728 149.840262 
z
" style="fill:#ffffff;"/>
   </g>
   <g id="patch_149">
    <path clip-path="url(#pd3abebd759)" d="M 233.633582 207.690697 
L 243.368351 207.690697 
L 243.368351 207.689674 
L 233.633582 207.689674 
z
"/>
   </g>
   <g id="patch_150">
    <path clip-path="url(#pd3abebd759)" d="M 245.802043 207.690697 
L 255.536812 207.690697 
L 255.536812 204.189347 
L 245.802043 204.189347 
z
"/>
   </g>
   <g id="patch_151">
    <path clip-path="url(#pd3abebd759)" d="M 257.970504 207.690697 
L 267.705273 207.690697 
L 267.705273 205.435367 
L 257.970504 205.435367 
z
"/>
   </g>
   <g id="patch_152">
    <path clip-path="url(#pd3abebd759)" d="M 270.138966 207.690697 
L 279.873735 207.690697 
L 279.873735 201.649416 
L 270.138966 201.649416 
z
"/>
   </g>
   <g id="patch_153">
    <path clip-path="url(#pd3abebd759)" d="M 282.307427 207.690697 
L 292.042196 207.690697 
L 292.042196 203.764581 
L 282.307427 203.764581 
z
" style="fill:#aec7e8;"/>
   </g>
   <g id="patch_154">
    <path clip-path="url(#pd3abebd759)" d="M 294.475888 207.690697 
L 304.210657 207.690697 
L 304.210657 166.52303 
L 294.475888 166.52303 
z
" style="fill:#aec7e8;"/>
   </g>
   <g id="patch_155">
    <path clip-path="url(#pd3abebd759)" d="M 233.633582 207.689674 
L 243.368351 207.689674 
L 243.368351 207.689561 
L 233.633582 207.689561 
z
"/>
   </g>
   <g id="patch_156">
    <path clip-path="url(#pd3abebd759)" d="M 245.802043 204.189347 
L 255.536812 204.189347 
L 255.536812 203.800309 
L 245.802043 203.800309 
z
" style="fill:#1f77b4;"/>
   </g>
   <g id="patch_157">
    <path clip-path="url(#pd3abebd759)" d="M 257.970504 205.435367 
L 267.705273 205.435367 
L 267.705273 205.184775 
L 257.970504 205.184775 
z
" style="fill:#1f77b4;"/>
   </g>
   <g id="patch_158">
    <path clip-path="url(#pd3abebd759)" d="M 270.138966 201.649416 
L 279.873735 201.649416 
L 279.873735 200.978163 
L 270.138966 200.978163 
z
" style="fill:#aec7e8;"/>
   </g>
   <g id="patch_159">
    <path clip-path="url(#pd3abebd759)" d="M 282.307427 203.764581 
L 292.042196 203.764581 
L 292.042196 203.328346 
L 282.307427 203.328346 
z
"/>
   </g>
   <g id="patch_160">
    <path clip-path="url(#pd3abebd759)" d="M 294.475888 166.52303 
L 304.210657 166.52303 
L 304.210657 161.948845 
L 294.475888 161.948845 
z
" style="fill:#1f77b4;"/>
   </g>
   <g id="matplotlib.axis_21"/>
   <g id="matplotlib.axis_22">
    <g id="ytick_21">
     <g id="line2d_21">
      <g>
       <use style="stroke:#000000;stroke-width:0.8;" x="230.104728" xlink:href="#m5acbabdd23" y="207.690697"/>
      </g>
     </g>
    </g>
    <g id="ytick_22">
     <g id="line2d_22">
      <g>
       <use style="stroke:#000000;stroke-width:0.8;" x="230.104728" xlink:href="#m5acbabdd23" y="171.867552"/>
      </g>
     </g>
    </g>
   </g>
   <g id="patch_161">
    <path d="M 230.104728 207.690697 
L 230.104728 149.840262 
" style="fill:none;stroke:#000000;stroke-linecap:square;stroke-linejoin:miter;stroke-width:0.8;"/>
   </g>
   <g id="patch_162">
    <path d="M 307.739511 207.690697 
L 307.739511 149.840262 
" style="fill:none;stroke:#000000;stroke-linecap:square;stroke-linejoin:miter;stroke-width:0.8;"/>
   </g>
   <g id="patch_163">
    <path d="M 230.104728 207.690697 
L 307.739511 207.690697 
" style="fill:none;stroke:#000000;stroke-linecap:square;stroke-linejoin:miter;stroke-width:0.8;"/>
   </g>
   <g id="patch_164">
    <path d="M 230.104728 149.840262 
L 307.739511 149.840262 
" style="fill:none;stroke:#000000;stroke-linecap:square;stroke-linejoin:miter;stroke-width:0.8;"/>
   </g>
  </g>
  <g id="axes_12">
   <g id="patch_165">
    <path d="M 323.266467 207.690697 
L 400.90125 207.690697 
L 400.90125 149.840262 
L 323.266467 149.840262 
z
" style="fill:#ffffff;"/>
   </g>
   <g id="patch_166">
    <path clip-path="url(#pa894fdc7ec)" d="M 326.795321 207.690697 
L 336.53009 207.690697 
L 336.53009 206.518262 
L 326.795321 206.518262 
z
"/>
   </g>
   <g id="patch_167">
    <path clip-path="url(#pa894fdc7ec)" d="M 338.963782 207.690697 
L 348.698551 207.690697 
L 348.698551 203.395017 
L 338.963782 203.395017 
z
"/>
   </g>
   <g id="patch_168">
    <path clip-path="url(#pa894fdc7ec)" d="M 351.132244 207.690697 
L 360.867013 207.690697 
L 360.867013 204.247926 
L 351.132244 204.247926 
z
"/>
   </g>
   <g id="patch_169">
    <path clip-path="url(#pa894fdc7ec)" d="M 363.300705 207.690697 
L 373.035474 207.690697 
L 373.035474 204.427499 
L 363.300705 204.427499 
z
"/>
   </g>
   <g id="patch_170">
    <path clip-path="url(#pa894fdc7ec)" d="M 375.469166 207.690697 
L 385.203935 207.690697 
L 385.203935 207.093051 
L 375.469166 207.093051 
z
" style="fill:#aec7e8;"/>
   </g>
   <g id="patch_171">
    <path clip-path="url(#pa894fdc7ec)" d="M 387.637627 207.690697 
L 397.372396 207.690697 
L 397.372396 168.495244 
L 387.637627 168.495244 
z
" style="fill:#aec7e8;"/>
   </g>
   <g id="patch_172">
    <path clip-path="url(#pa894fdc7ec)" d="M 326.795321 206.518262 
L 336.53009 206.518262 
L 336.53009 206.387991 
L 326.795321 206.387991 
z
"/>
   </g>
   <g id="patch_173">
    <path clip-path="url(#pa894fdc7ec)" d="M 338.963782 203.395017 
L 348.698551 203.395017 
L 348.698551 202.917719 
L 338.963782 202.917719 
z
" style="fill:#aec7e8;"/>
   </g>
   <g id="patch_174">
    <path clip-path="url(#pa894fdc7ec)" d="M 351.132244 204.247926 
L 360.867013 204.247926 
L 360.867013 203.865396 
L 351.132244 203.865396 
z
" style="fill:#ff7f0e;"/>
   </g>
   <g id="patch_175">
    <path clip-path="url(#pa894fdc7ec)" d="M 363.300705 204.427499 
L 373.035474 204.427499 
L 373.035474 204.064921 
L 363.300705 204.064921 
z
" style="fill:#ff7f0e;"/>
   </g>
   <g id="patch_176">
    <path clip-path="url(#pa894fdc7ec)" d="M 375.469166 207.093051 
L 385.203935 207.093051 
L 385.203935 207.026646 
L 375.469166 207.026646 
z
"/>
   </g>
   <g id="patch_177">
    <path clip-path="url(#pa894fdc7ec)" d="M 387.637627 168.495244 
L 397.372396 168.495244 
L 397.372396 164.140194 
L 387.637627 164.140194 
z
" style="fill:#ff7f0e;"/>
   </g>
   <g id="matplotlib.axis_23"/>
   <g id="matplotlib.axis_24">
    <g id="ytick_23">
     <g id="line2d_23">
      <g>
       <use style="stroke:#000000;stroke-width:0.8;" x="323.266467" xlink:href="#m5acbabdd23" y="207.690697"/>
      </g>
     </g>
    </g>
    <g id="ytick_24">
     <g id="line2d_24">
      <g>
       <use style="stroke:#000000;stroke-width:0.8;" x="323.266467" xlink:href="#m5acbabdd23" y="171.867552"/>
      </g>
     </g>
    </g>
   </g>
   <g id="patch_178">
    <path d="M 323.266467 207.690697 
L 323.266467 149.840262 
" style="fill:none;stroke:#000000;stroke-linecap:square;stroke-linejoin:miter;stroke-width:0.8;"/>
   </g>
   <g id="patch_179">
    <path d="M 400.90125 207.690697 
L 400.90125 149.840262 
" style="fill:none;stroke:#000000;stroke-linecap:square;stroke-linejoin:miter;stroke-width:0.8;"/>
   </g>
   <g id="patch_180">
    <path d="M 323.266467 207.690697 
L 400.90125 207.690697 
" style="fill:none;stroke:#000000;stroke-linecap:square;stroke-linejoin:miter;stroke-width:0.8;"/>
   </g>
   <g id="patch_181">
    <path d="M 323.266467 149.840262 
L 400.90125 149.840262 
" style="fill:none;stroke:#000000;stroke-linecap:square;stroke-linejoin:miter;stroke-width:0.8;"/>
   </g>
  </g>
  <g id="axes_13">
   <g id="patch_182">
    <path d="M 43.78125 277.111219 
L 121.416033 277.111219 
L 121.416033 219.260784 
L 43.78125 219.260784 
z
" style="fill:#ffffff;"/>
   </g>
   <g id="patch_183">
    <path clip-path="url(#p213de96f91)" d="M 47.310104 277.111219 
L 67.474982 277.111219 
L 67.474982 271.683074 
L 47.310104 271.683074 
z
"/>
   </g>
   <g id="patch_184">
    <path clip-path="url(#p213de96f91)" d="M 72.516202 277.111219 
L 92.681081 277.111219 
L 92.681081 271.567621 
L 72.516202 271.567621 
z
" style="fill:#1f77b4;"/>
   </g>
   <g id="patch_185">
    <path clip-path="url(#p213de96f91)" d="M 97.7223 277.111219 
L 117.887179 277.111219 
L 117.887179 237.667793 
L 97.7223 237.667793 
z
" style="fill:#1f77b4;"/>
   </g>
   <g id="patch_186">
    <path clip-path="url(#p213de96f91)" d="M 47.310104 271.683074 
L 67.474982 271.683074 
L 67.474982 271.079946 
L 47.310104 271.079946 
z
" style="fill:#aec7e8;"/>
   </g>
   <g id="patch_187">
    <path clip-path="url(#p213de96f91)" d="M 72.516202 271.567621 
L 92.681081 271.567621 
L 92.681081 270.951666 
L 72.516202 270.951666 
z
"/>
   </g>
   <g id="patch_188">
    <path clip-path="url(#p213de96f91)" d="M 97.7223 237.667793 
L 117.887179 237.667793 
L 117.887179 233.28519 
L 97.7223 233.28519 
z
" style="fill:#aec7e8;"/>
   </g>
   <g id="matplotlib.axis_25"/>
   <g id="matplotlib.axis_26">
    <g id="ytick_25">
     <g id="line2d_25">
      <g>
       <use style="stroke:#000000;stroke-width:0.8;" x="43.78125" xlink:href="#m5acbabdd23" y="277.111219"/>
      </g>
     </g>
     <g id="text_7">
      <!-- 0.0 -->
      <g transform="translate(20.878125 280.910437)scale(0.1 -0.1)">
       <use xlink:href="#DejaVuSans-30"/>
       <use x="63.623047" xlink:href="#DejaVuSans-2e"/>
       <use x="95.410156" xlink:href="#DejaVuSans-30"/>
      </g>
     </g>
    </g>
    <g id="ytick_26">
     <g id="line2d_26">
      <g>
       <use style="stroke:#000000;stroke-width:0.8;" x="43.78125" xlink:href="#m5acbabdd23" y="241.288074"/>
      </g>
     </g>
     <g id="text_8">
      <!-- 0.5 -->
      <g transform="translate(20.878125 245.087292)scale(0.1 -0.1)">
       <use xlink:href="#DejaVuSans-30"/>
       <use x="63.623047" xlink:href="#DejaVuSans-2e"/>
       <use x="95.410156" xlink:href="#DejaVuSans-35"/>
      </g>
     </g>
    </g>
   </g>
   <g id="patch_189">
    <path d="M 43.78125 277.111219 
L 43.78125 219.260784 
" style="fill:none;stroke:#000000;stroke-linecap:square;stroke-linejoin:miter;stroke-width:0.8;"/>
   </g>
   <g id="patch_190">
    <path d="M 121.416033 277.111219 
L 121.416033 219.260784 
" style="fill:none;stroke:#000000;stroke-linecap:square;stroke-linejoin:miter;stroke-width:0.8;"/>
   </g>
   <g id="patch_191">
    <path d="M 43.78125 277.111219 
L 121.416033 277.111219 
" style="fill:none;stroke:#000000;stroke-linecap:square;stroke-linejoin:miter;stroke-width:0.8;"/>
   </g>
   <g id="patch_192">
    <path d="M 43.78125 219.260784 
L 121.416033 219.260784 
" style="fill:none;stroke:#000000;stroke-linecap:square;stroke-linejoin:miter;stroke-width:0.8;"/>
   </g>
  </g>
  <g id="axes_14">
   <g id="patch_193">
    <path d="M 136.942989 277.111219 
L 214.577772 277.111219 
L 214.577772 219.260784 
L 136.942989 219.260784 
z
" style="fill:#ffffff;"/>
   </g>
   <g id="patch_194">
    <path clip-path="url(#p0728eb82ca)" d="M 140.471843 277.111219 
L 150.206612 277.111219 
L 150.206612 276.971341 
L 140.471843 276.971341 
z
"/>
   </g>
   <g id="patch_195">
    <path clip-path="url(#p0728eb82ca)" d="M 152.640304 277.111219 
L 162.375073 277.111219 
L 162.375073 275.21622 
L 152.640304 275.21622 
z
"/>
   </g>
   <g id="patch_196">
    <path clip-path="url(#p0728eb82ca)" d="M 164.808765 277.111219 
L 174.543534 277.111219 
L 174.543534 273.773464 
L 164.808765 273.773464 
z
"/>
   </g>
   <g id="patch_197">
    <path clip-path="url(#p0728eb82ca)" d="M 176.977227 277.111219 
L 186.711996 277.111219 
L 186.711996 276.194468 
L 176.977227 276.194468 
z
"/>
   </g>
   <g id="patch_198">
    <path clip-path="url(#p0728eb82ca)" d="M 189.145688 277.111219 
L 198.880457 277.111219 
L 198.880457 277.094344 
L 189.145688 277.094344 
z
" style="fill:#aec7e8;"/>
   </g>
   <g id="patch_199">
    <path clip-path="url(#p0728eb82ca)" d="M 201.314149 277.111219 
L 211.048918 277.111219 
L 211.048918 239.984831 
L 201.314149 239.984831 
z
" style="fill:#aec7e8;"/>
   </g>
   <g id="patch_200">
    <path clip-path="url(#p0728eb82ca)" d="M 140.471843 276.971341 
L 150.206612 276.971341 
L 150.206612 276.955799 
L 140.471843 276.955799 
z
"/>
   </g>
   <g id="patch_201">
    <path clip-path="url(#p0728eb82ca)" d="M 152.640304 275.21622 
L 162.375073 275.21622 
L 162.375073 275.005665 
L 152.640304 275.005665 
z
" style="fill:#aec7e8;"/>
   </g>
   <g id="patch_202">
    <path clip-path="url(#p0728eb82ca)" d="M 164.808765 273.773464 
L 174.543534 273.773464 
L 174.543534 273.402602 
L 164.808765 273.402602 
z
" style="fill:#ff7f0e;"/>
   </g>
   <g id="patch_203">
    <path clip-path="url(#p0728eb82ca)" d="M 176.977227 276.194468 
L 186.711996 276.194468 
L 186.711996 276.092607 
L 176.977227 276.092607 
z
" style="fill:#ff7f0e;"/>
   </g>
   <g id="patch_204">
    <path clip-path="url(#p0728eb82ca)" d="M 189.145688 277.094344 
L 198.880457 277.094344 
L 198.880457 277.092469 
L 189.145688 277.092469 
z
"/>
   </g>
   <g id="patch_205">
    <path clip-path="url(#p0728eb82ca)" d="M 201.314149 239.984831 
L 211.048918 239.984831 
L 211.048918 235.859677 
L 201.314149 235.859677 
z
" style="fill:#ff7f0e;"/>
   </g>
   <g id="matplotlib.axis_27"/>
   <g id="matplotlib.axis_28">
    <g id="ytick_27">
     <g id="line2d_27">
      <g>
       <use style="stroke:#000000;stroke-width:0.8;" x="136.942989" xlink:href="#m5acbabdd23" y="277.111219"/>
      </g>
     </g>
    </g>
    <g id="ytick_28">
     <g id="line2d_28">
      <g>
       <use style="stroke:#000000;stroke-width:0.8;" x="136.942989" xlink:href="#m5acbabdd23" y="241.288074"/>
      </g>
     </g>
    </g>
   </g>
   <g id="patch_206">
    <path d="M 136.942989 277.111219 
L 136.942989 219.260784 
" style="fill:none;stroke:#000000;stroke-linecap:square;stroke-linejoin:miter;stroke-width:0.8;"/>
   </g>
   <g id="patch_207">
    <path d="M 214.577772 277.111219 
L 214.577772 219.260784 
" style="fill:none;stroke:#000000;stroke-linecap:square;stroke-linejoin:miter;stroke-width:0.8;"/>
   </g>
   <g id="patch_208">
    <path d="M 136.942989 277.111219 
L 214.577772 277.111219 
" style="fill:none;stroke:#000000;stroke-linecap:square;stroke-linejoin:miter;stroke-width:0.8;"/>
   </g>
   <g id="patch_209">
    <path d="M 136.942989 219.260784 
L 214.577772 219.260784 
" style="fill:none;stroke:#000000;stroke-linecap:square;stroke-linejoin:miter;stroke-width:0.8;"/>
   </g>
  </g>
  <g id="axes_15">
   <g id="patch_210">
    <path d="M 230.104728 277.111219 
L 307.739511 277.111219 
L 307.739511 219.260784 
L 230.104728 219.260784 
z
" style="fill:#ffffff;"/>
   </g>
   <g id="patch_211">
    <path clip-path="url(#p81867e6b94)" d="M 233.633582 277.111219 
L 243.368351 277.111219 
L 243.368351 276.468793 
L 233.633582 276.468793 
z
"/>
   </g>
   <g id="patch_212">
    <path clip-path="url(#p81867e6b94)" d="M 245.802043 277.111219 
L 255.536812 277.111219 
L 255.536812 271.763309 
L 245.802043 271.763309 
z
"/>
   </g>
   <g id="patch_213">
    <path clip-path="url(#p81867e6b94)" d="M 257.970504 277.111219 
L 267.705273 277.111219 
L 267.705273 269.927907 
L 257.970504 269.927907 
z
"/>
   </g>
   <g id="patch_214">
    <path clip-path="url(#p81867e6b94)" d="M 270.138966 277.111219 
L 279.873735 277.111219 
L 279.873735 273.310418 
L 270.138966 273.310418 
z
"/>
   </g>
   <g id="patch_215">
    <path clip-path="url(#p81867e6b94)" d="M 282.307427 277.111219 
L 292.042196 277.111219 
L 292.042196 272.646741 
L 282.307427 272.646741 
z
" style="fill:#1f77b4;"/>
   </g>
   <g id="patch_216">
    <path clip-path="url(#p81867e6b94)" d="M 294.475888 277.111219 
L 304.210657 277.111219 
L 304.210657 237.484697 
L 294.475888 237.484697 
z
" style="fill:#1f77b4;"/>
   </g>
   <g id="patch_217">
    <path clip-path="url(#p81867e6b94)" d="M 233.633582 276.468793 
L 243.368351 276.468793 
L 243.368351 276.397413 
L 233.633582 276.397413 
z
"/>
   </g>
   <g id="patch_218">
    <path clip-path="url(#p81867e6b94)" d="M 245.802043 271.763309 
L 255.536812 271.763309 
L 255.536812 271.169096 
L 245.802043 271.169096 
z
" style="fill:#1f77b4;"/>
   </g>
   <g id="patch_219">
    <path clip-path="url(#p81867e6b94)" d="M 257.970504 269.927907 
L 267.705273 269.927907 
L 267.705273 269.129761 
L 257.970504 269.129761 
z
" style="fill:#ff7f0e;"/>
   </g>
   <g id="patch_220">
    <path clip-path="url(#p81867e6b94)" d="M 270.138966 273.310418 
L 279.873735 273.310418 
L 279.873735 272.888107 
L 270.138966 272.888107 
z
" style="fill:#ff7f0e;"/>
   </g>
   <g id="patch_221">
    <path clip-path="url(#p81867e6b94)" d="M 282.307427 272.646741 
L 292.042196 272.646741 
L 292.042196 272.150688 
L 282.307427 272.150688 
z
"/>
   </g>
   <g id="patch_222">
    <path clip-path="url(#p81867e6b94)" d="M 294.475888 237.484697 
L 304.210657 237.484697 
L 304.210657 233.08175 
L 294.475888 233.08175 
z
" style="fill:#ff7f0e;"/>
   </g>
   <g id="matplotlib.axis_29"/>
   <g id="matplotlib.axis_30">
    <g id="ytick_29">
     <g id="line2d_29">
      <g>
       <use style="stroke:#000000;stroke-width:0.8;" x="230.104728" xlink:href="#m5acbabdd23" y="277.111219"/>
      </g>
     </g>
    </g>
    <g id="ytick_30">
     <g id="line2d_30">
      <g>
       <use style="stroke:#000000;stroke-width:0.8;" x="230.104728" xlink:href="#m5acbabdd23" y="241.288074"/>
      </g>
     </g>
    </g>
   </g>
   <g id="patch_223">
    <path d="M 230.104728 277.111219 
L 230.104728 219.260784 
" style="fill:none;stroke:#000000;stroke-linecap:square;stroke-linejoin:miter;stroke-width:0.8;"/>
   </g>
   <g id="patch_224">
    <path d="M 307.739511 277.111219 
L 307.739511 219.260784 
" style="fill:none;stroke:#000000;stroke-linecap:square;stroke-linejoin:miter;stroke-width:0.8;"/>
   </g>
   <g id="patch_225">
    <path d="M 230.104728 277.111219 
L 307.739511 277.111219 
" style="fill:none;stroke:#000000;stroke-linecap:square;stroke-linejoin:miter;stroke-width:0.8;"/>
   </g>
   <g id="patch_226">
    <path d="M 230.104728 219.260784 
L 307.739511 219.260784 
" style="fill:none;stroke:#000000;stroke-linecap:square;stroke-linejoin:miter;stroke-width:0.8;"/>
   </g>
  </g>
  <g id="axes_16">
   <g id="patch_227">
    <path d="M 323.266467 277.111219 
L 400.90125 277.111219 
L 400.90125 219.260784 
L 323.266467 219.260784 
z
" style="fill:#ffffff;"/>
   </g>
   <g id="matplotlib.axis_31"/>
   <g id="matplotlib.axis_32">
    <g id="ytick_31">
     <g id="line2d_31">
      <g>
       <use style="stroke:#000000;stroke-width:0.8;" x="323.266467" xlink:href="#m5acbabdd23" y="277.111219"/>
      </g>
     </g>
    </g>
    <g id="ytick_32">
     <g id="line2d_32">
      <g>
       <use style="stroke:#000000;stroke-width:0.8;" x="323.266467" xlink:href="#m5acbabdd23" y="241.288074"/>
      </g>
     </g>
    </g>
   </g>
   <g id="patch_228">
    <path d="M 323.266467 277.111219 
L 323.266467 219.260784 
" style="fill:none;stroke:#000000;stroke-linecap:square;stroke-linejoin:miter;stroke-width:0.8;"/>
   </g>
   <g id="patch_229">
    <path d="M 400.90125 277.111219 
L 400.90125 219.260784 
" style="fill:none;stroke:#000000;stroke-linecap:square;stroke-linejoin:miter;stroke-width:0.8;"/>
   </g>
   <g id="patch_230">
    <path d="M 323.266467 277.111219 
L 400.90125 277.111219 
" style="fill:none;stroke:#000000;stroke-linecap:square;stroke-linejoin:miter;stroke-width:0.8;"/>
   </g>
   <g id="patch_231">
    <path d="M 323.266467 219.260784 
L 400.90125 219.260784 
" style="fill:none;stroke:#000000;stroke-linecap:square;stroke-linejoin:miter;stroke-width:0.8;"/>
   </g>
  </g>
  <g id="axes_17">
   <g id="matplotlib.axis_33">
    <g id="xtick_1">
     <g id="text_9">
      <!-- 0.0 -->
      <g style="opacity:0;" transform="translate(35.829688 291.709656)scale(0.1 -0.1)">
       <use xlink:href="#DejaVuSans-30"/>
       <use x="63.623047" xlink:href="#DejaVuSans-2e"/>
       <use x="95.410156" xlink:href="#DejaVuSans-30"/>
      </g>
     </g>
    </g>
    <g id="xtick_2">
     <g id="text_10">
      <!-- 0.2 -->
      <g style="opacity:0;" transform="translate(107.253688 291.709656)scale(0.1 -0.1)">
       <defs>
        <path d="M 1228 531 
L 3431 531 
L 3431 0 
L 469 0 
L 469 531 
Q 828 903 1448 1529 
Q 2069 2156 2228 2338 
Q 2531 2678 2651 2914 
Q 2772 3150 2772 3378 
Q 2772 3750 2511 3984 
Q 2250 4219 1831 4219 
Q 1534 4219 1204 4116 
Q 875 4013 500 3803 
L 500 4441 
Q 881 4594 1212 4672 
Q 1544 4750 1819 4750 
Q 2544 4750 2975 4387 
Q 3406 4025 3406 3419 
Q 3406 3131 3298 2873 
Q 3191 2616 2906 2266 
Q 2828 2175 2409 1742 
Q 1991 1309 1228 531 
z
" id="DejaVuSans-32" transform="scale(0.015625)"/>
       </defs>
       <use xlink:href="#DejaVuSans-30"/>
       <use x="63.623047" xlink:href="#DejaVuSans-2e"/>
       <use x="95.410156" xlink:href="#DejaVuSans-32"/>
      </g>
     </g>
    </g>
    <g id="xtick_3">
     <g id="text_11">
      <!-- 0.4 -->
      <g style="opacity:0;" transform="translate(178.677688 291.709656)scale(0.1 -0.1)">
       <defs>
        <path d="M 2419 4116 
L 825 1625 
L 2419 1625 
L 2419 4116 
z
M 2253 4666 
L 3047 4666 
L 3047 1625 
L 3713 1625 
L 3713 1100 
L 3047 1100 
L 3047 0 
L 2419 0 
L 2419 1100 
L 313 1100 
L 313 1709 
L 2253 4666 
z
" id="DejaVuSans-34" transform="scale(0.015625)"/>
       </defs>
       <use xlink:href="#DejaVuSans-30"/>
       <use x="63.623047" xlink:href="#DejaVuSans-2e"/>
       <use x="95.410156" xlink:href="#DejaVuSans-34"/>
      </g>
     </g>
    </g>
    <g id="xtick_4">
     <g id="text_12">
      <!-- 0.6 -->
      <g style="opacity:0;" transform="translate(250.101688 291.709656)scale(0.1 -0.1)">
       <defs>
        <path d="M 2113 2584 
Q 1688 2584 1439 2293 
Q 1191 2003 1191 1497 
Q 1191 994 1439 701 
Q 1688 409 2113 409 
Q 2538 409 2786 701 
Q 3034 994 3034 1497 
Q 3034 2003 2786 2293 
Q 2538 2584 2113 2584 
z
M 3366 4563 
L 3366 3988 
Q 3128 4100 2886 4159 
Q 2644 4219 2406 4219 
Q 1781 4219 1451 3797 
Q 1122 3375 1075 2522 
Q 1259 2794 1537 2939 
Q 1816 3084 2150 3084 
Q 2853 3084 3261 2657 
Q 3669 2231 3669 1497 
Q 3669 778 3244 343 
Q 2819 -91 2113 -91 
Q 1303 -91 875 529 
Q 447 1150 447 2328 
Q 447 3434 972 4092 
Q 1497 4750 2381 4750 
Q 2619 4750 2861 4703 
Q 3103 4656 3366 4563 
z
" id="DejaVuSans-36" transform="scale(0.015625)"/>
       </defs>
       <use xlink:href="#DejaVuSans-30"/>
       <use x="63.623047" xlink:href="#DejaVuSans-2e"/>
       <use x="95.410156" xlink:href="#DejaVuSans-36"/>
      </g>
     </g>
    </g>
    <g id="xtick_5">
     <g id="text_13">
      <!-- 0.8 -->
      <g style="opacity:0;" transform="translate(321.525688 291.709656)scale(0.1 -0.1)">
       <defs>
        <path d="M 2034 2216 
Q 1584 2216 1326 1975 
Q 1069 1734 1069 1313 
Q 1069 891 1326 650 
Q 1584 409 2034 409 
Q 2484 409 2743 651 
Q 3003 894 3003 1313 
Q 3003 1734 2745 1975 
Q 2488 2216 2034 2216 
z
M 1403 2484 
Q 997 2584 770 2862 
Q 544 3141 544 3541 
Q 544 4100 942 4425 
Q 1341 4750 2034 4750 
Q 2731 4750 3128 4425 
Q 3525 4100 3525 3541 
Q 3525 3141 3298 2862 
Q 3072 2584 2669 2484 
Q 3125 2378 3379 2068 
Q 3634 1759 3634 1313 
Q 3634 634 3220 271 
Q 2806 -91 2034 -91 
Q 1263 -91 848 271 
Q 434 634 434 1313 
Q 434 1759 690 2068 
Q 947 2378 1403 2484 
z
M 1172 3481 
Q 1172 3119 1398 2916 
Q 1625 2713 2034 2713 
Q 2441 2713 2670 2916 
Q 2900 3119 2900 3481 
Q 2900 3844 2670 4047 
Q 2441 4250 2034 4250 
Q 1625 4250 1398 4047 
Q 1172 3844 1172 3481 
z
" id="DejaVuSans-38" transform="scale(0.015625)"/>
       </defs>
       <use xlink:href="#DejaVuSans-30"/>
       <use x="63.623047" xlink:href="#DejaVuSans-2e"/>
       <use x="95.410156" xlink:href="#DejaVuSans-38"/>
      </g>
     </g>
    </g>
    <g id="xtick_6">
     <g id="text_14">
      <!-- 1.0 -->
      <g style="opacity:0;" transform="translate(392.949688 291.709656)scale(0.1 -0.1)">
       <defs>
        <path d="M 794 531 
L 1825 531 
L 1825 4091 
L 703 3866 
L 703 4441 
L 1819 4666 
L 2450 4666 
L 2450 531 
L 3481 531 
L 3481 0 
L 794 0 
L 794 531 
z
" id="DejaVuSans-31" transform="scale(0.015625)"/>
       </defs>
       <use xlink:href="#DejaVuSans-31"/>
       <use x="63.623047" xlink:href="#DejaVuSans-2e"/>
       <use x="95.410156" xlink:href="#DejaVuSans-30"/>
      </g>
     </g>
    </g>
   </g>
   <g id="matplotlib.axis_34">
    <g id="ytick_33">
     <g id="text_15">
      <!-- 0.0 -->
      <g style="opacity:0;" transform="translate(20.878125 280.910437)scale(0.1 -0.1)">
       <use xlink:href="#DejaVuSans-30"/>
       <use x="63.623047" xlink:href="#DejaVuSans-2e"/>
       <use x="95.410156" xlink:href="#DejaVuSans-30"/>
      </g>
     </g>
    </g>
    <g id="ytick_34">
     <g id="text_16">
      <!-- 0.2 -->
      <g style="opacity:0;" transform="translate(20.878125 227.688037)scale(0.1 -0.1)">
       <use xlink:href="#DejaVuSans-30"/>
       <use x="63.623047" xlink:href="#DejaVuSans-2e"/>
       <use x="95.410156" xlink:href="#DejaVuSans-32"/>
      </g>
     </g>
    </g>
    <g id="ytick_35">
     <g id="text_17">
      <!-- 0.4 -->
      <g style="opacity:0;" transform="translate(20.878125 174.465637)scale(0.1 -0.1)">
       <use xlink:href="#DejaVuSans-30"/>
       <use x="63.623047" xlink:href="#DejaVuSans-2e"/>
       <use x="95.410156" xlink:href="#DejaVuSans-34"/>
      </g>
     </g>
    </g>
    <g id="ytick_36">
     <g id="text_18">
      <!-- 0.6 -->
      <g style="opacity:0;" transform="translate(20.878125 121.243237)scale(0.1 -0.1)">
       <use xlink:href="#DejaVuSans-30"/>
       <use x="63.623047" xlink:href="#DejaVuSans-2e"/>
       <use x="95.410156" xlink:href="#DejaVuSans-36"/>
      </g>
     </g>
    </g>
    <g id="ytick_37">
     <g id="text_19">
      <!-- 0.8 -->
      <g style="opacity:0;" transform="translate(20.878125 68.020837)scale(0.1 -0.1)">
       <use xlink:href="#DejaVuSans-30"/>
       <use x="63.623047" xlink:href="#DejaVuSans-2e"/>
       <use x="95.410156" xlink:href="#DejaVuSans-38"/>
      </g>
     </g>
    </g>
    <g id="ytick_38">
     <g id="text_20">
      <!-- 1.0 -->
      <g style="opacity:0;" transform="translate(20.878125 14.798437)scale(0.1 -0.1)">
       <use xlink:href="#DejaVuSans-31"/>
       <use x="63.623047" xlink:href="#DejaVuSans-2e"/>
       <use x="95.410156" xlink:href="#DejaVuSans-30"/>
      </g>
     </g>
    </g>
    <g id="text_21">
     <!-- Pearsons correlation -->
     <g transform="translate(14.798438 194.938031)rotate(-90)scale(0.1 -0.1)">
      <defs>
       <path d="M 1259 4147 
L 1259 2394 
L 2053 2394 
Q 2494 2394 2734 2622 
Q 2975 2850 2975 3272 
Q 2975 3691 2734 3919 
Q 2494 4147 2053 4147 
L 1259 4147 
z
M 628 4666 
L 2053 4666 
Q 2838 4666 3239 4311 
Q 3641 3956 3641 3272 
Q 3641 2581 3239 2228 
Q 2838 1875 2053 1875 
L 1259 1875 
L 1259 0 
L 628 0 
L 628 4666 
z
" id="DejaVuSans-50" transform="scale(0.015625)"/>
       <path d="M 3597 1894 
L 3597 1613 
L 953 1613 
Q 991 1019 1311 708 
Q 1631 397 2203 397 
Q 2534 397 2845 478 
Q 3156 559 3463 722 
L 3463 178 
Q 3153 47 2828 -22 
Q 2503 -91 2169 -91 
Q 1331 -91 842 396 
Q 353 884 353 1716 
Q 353 2575 817 3079 
Q 1281 3584 2069 3584 
Q 2775 3584 3186 3129 
Q 3597 2675 3597 1894 
z
M 3022 2063 
Q 3016 2534 2758 2815 
Q 2500 3097 2075 3097 
Q 1594 3097 1305 2825 
Q 1016 2553 972 2059 
L 3022 2063 
z
" id="DejaVuSans-65" transform="scale(0.015625)"/>
       <path d="M 2194 1759 
Q 1497 1759 1228 1600 
Q 959 1441 959 1056 
Q 959 750 1161 570 
Q 1363 391 1709 391 
Q 2188 391 2477 730 
Q 2766 1069 2766 1631 
L 2766 1759 
L 2194 1759 
z
M 3341 1997 
L 3341 0 
L 2766 0 
L 2766 531 
Q 2569 213 2275 61 
Q 1981 -91 1556 -91 
Q 1019 -91 701 211 
Q 384 513 384 1019 
Q 384 1609 779 1909 
Q 1175 2209 1959 2209 
L 2766 2209 
L 2766 2266 
Q 2766 2663 2505 2880 
Q 2244 3097 1772 3097 
Q 1472 3097 1187 3025 
Q 903 2953 641 2809 
L 641 3341 
Q 956 3463 1253 3523 
Q 1550 3584 1831 3584 
Q 2591 3584 2966 3190 
Q 3341 2797 3341 1997 
z
" id="DejaVuSans-61" transform="scale(0.015625)"/>
       <path d="M 2631 2963 
Q 2534 3019 2420 3045 
Q 2306 3072 2169 3072 
Q 1681 3072 1420 2755 
Q 1159 2438 1159 1844 
L 1159 0 
L 581 0 
L 581 3500 
L 1159 3500 
L 1159 2956 
Q 1341 3275 1631 3429 
Q 1922 3584 2338 3584 
Q 2397 3584 2469 3576 
Q 2541 3569 2628 3553 
L 2631 2963 
z
" id="DejaVuSans-72" transform="scale(0.015625)"/>
       <path d="M 2834 3397 
L 2834 2853 
Q 2591 2978 2328 3040 
Q 2066 3103 1784 3103 
Q 1356 3103 1142 2972 
Q 928 2841 928 2578 
Q 928 2378 1081 2264 
Q 1234 2150 1697 2047 
L 1894 2003 
Q 2506 1872 2764 1633 
Q 3022 1394 3022 966 
Q 3022 478 2636 193 
Q 2250 -91 1575 -91 
Q 1294 -91 989 -36 
Q 684 19 347 128 
L 347 722 
Q 666 556 975 473 
Q 1284 391 1588 391 
Q 1994 391 2212 530 
Q 2431 669 2431 922 
Q 2431 1156 2273 1281 
Q 2116 1406 1581 1522 
L 1381 1569 
Q 847 1681 609 1914 
Q 372 2147 372 2553 
Q 372 3047 722 3315 
Q 1072 3584 1716 3584 
Q 2034 3584 2315 3537 
Q 2597 3491 2834 3397 
z
" id="DejaVuSans-73" transform="scale(0.015625)"/>
       <path d="M 1959 3097 
Q 1497 3097 1228 2736 
Q 959 2375 959 1747 
Q 959 1119 1226 758 
Q 1494 397 1959 397 
Q 2419 397 2687 759 
Q 2956 1122 2956 1747 
Q 2956 2369 2687 2733 
Q 2419 3097 1959 3097 
z
M 1959 3584 
Q 2709 3584 3137 3096 
Q 3566 2609 3566 1747 
Q 3566 888 3137 398 
Q 2709 -91 1959 -91 
Q 1206 -91 779 398 
Q 353 888 353 1747 
Q 353 2609 779 3096 
Q 1206 3584 1959 3584 
z
" id="DejaVuSans-6f" transform="scale(0.015625)"/>
       <path d="M 3513 2113 
L 3513 0 
L 2938 0 
L 2938 2094 
Q 2938 2591 2744 2837 
Q 2550 3084 2163 3084 
Q 1697 3084 1428 2787 
Q 1159 2491 1159 1978 
L 1159 0 
L 581 0 
L 581 3500 
L 1159 3500 
L 1159 2956 
Q 1366 3272 1645 3428 
Q 1925 3584 2291 3584 
Q 2894 3584 3203 3211 
Q 3513 2838 3513 2113 
z
" id="DejaVuSans-6e" transform="scale(0.015625)"/>
       <path id="DejaVuSans-20" transform="scale(0.015625)"/>
       <path d="M 3122 3366 
L 3122 2828 
Q 2878 2963 2633 3030 
Q 2388 3097 2138 3097 
Q 1578 3097 1268 2742 
Q 959 2388 959 1747 
Q 959 1106 1268 751 
Q 1578 397 2138 397 
Q 2388 397 2633 464 
Q 2878 531 3122 666 
L 3122 134 
Q 2881 22 2623 -34 
Q 2366 -91 2075 -91 
Q 1284 -91 818 406 
Q 353 903 353 1747 
Q 353 2603 823 3093 
Q 1294 3584 2113 3584 
Q 2378 3584 2631 3529 
Q 2884 3475 3122 3366 
z
" id="DejaVuSans-63" transform="scale(0.015625)"/>
       <path d="M 603 4863 
L 1178 4863 
L 1178 0 
L 603 0 
L 603 4863 
z
" id="DejaVuSans-6c" transform="scale(0.015625)"/>
       <path d="M 1172 4494 
L 1172 3500 
L 2356 3500 
L 2356 3053 
L 1172 3053 
L 1172 1153 
Q 1172 725 1289 603 
Q 1406 481 1766 481 
L 2356 481 
L 2356 0 
L 1766 0 
Q 1100 0 847 248 
Q 594 497 594 1153 
L 594 3053 
L 172 3053 
L 172 3500 
L 594 3500 
L 594 4494 
L 1172 4494 
z
" id="DejaVuSans-74" transform="scale(0.015625)"/>
       <path d="M 603 3500 
L 1178 3500 
L 1178 0 
L 603 0 
L 603 3500 
z
M 603 4863 
L 1178 4863 
L 1178 4134 
L 603 4134 
L 603 4863 
z
" id="DejaVuSans-69" transform="scale(0.015625)"/>
      </defs>
      <use xlink:href="#DejaVuSans-50"/>
      <use x="56.677734" xlink:href="#DejaVuSans-65"/>
      <use x="118.201172" xlink:href="#DejaVuSans-61"/>
      <use x="179.480469" xlink:href="#DejaVuSans-72"/>
      <use x="220.59375" xlink:href="#DejaVuSans-73"/>
      <use x="272.693359" xlink:href="#DejaVuSans-6f"/>
      <use x="333.875" xlink:href="#DejaVuSans-6e"/>
      <use x="397.253906" xlink:href="#DejaVuSans-73"/>
      <use x="449.353516" xlink:href="#DejaVuSans-20"/>
      <use x="481.140625" xlink:href="#DejaVuSans-63"/>
      <use x="536.121094" xlink:href="#DejaVuSans-6f"/>
      <use x="597.302734" xlink:href="#DejaVuSans-72"/>
      <use x="636.666016" xlink:href="#DejaVuSans-72"/>
      <use x="675.529297" xlink:href="#DejaVuSans-65"/>
      <use x="737.052734" xlink:href="#DejaVuSans-6c"/>
      <use x="764.835938" xlink:href="#DejaVuSans-61"/>
      <use x="826.115234" xlink:href="#DejaVuSans-74"/>
      <use x="865.324219" xlink:href="#DejaVuSans-69"/>
      <use x="893.107422" xlink:href="#DejaVuSans-6f"/>
      <use x="954.289062" xlink:href="#DejaVuSans-6e"/>
     </g>
    </g>
   </g>
  </g>
  <g id="legend_1">
   <g id="patch_232">
    <path d="M 578.82625 72.799719 
L 626.30125 72.799719 
Q 628.30125 72.799719 628.30125 70.799719 
L 628.30125 13.087219 
Q 628.30125 11.087219 626.30125 11.087219 
L 578.82625 11.087219 
Q 576.82625 11.087219 576.82625 13.087219 
L 576.82625 70.799719 
Q 576.82625 72.799719 578.82625 72.799719 
z
" style="fill:#4c4c4c;opacity:0.5;stroke:#4c4c4c;stroke-linejoin:miter;"/>
   </g>
   <g id="patch_233">
    <path d="M 576.82625 70.799719 
L 624.30125 70.799719 
Q 626.30125 70.799719 626.30125 68.799719 
L 626.30125 11.087219 
Q 626.30125 9.087219 624.30125 9.087219 
L 576.82625 9.087219 
Q 574.82625 9.087219 574.82625 11.087219 
L 574.82625 68.799719 
Q 574.82625 70.799719 576.82625 70.799719 
z
" style="fill:#ffffff;stroke:#cccccc;stroke-linejoin:miter;"/>
   </g>
   <g id="patch_234">
    <path d="M 578.82625 20.685656 
L 598.82625 20.685656 
L 598.82625 13.685656 
L 578.82625 13.685656 
z
" style="stroke:#000000;stroke-linejoin:miter;"/>
   </g>
   <g id="text_22">
    <!-- big -->
    <g transform="translate(606.82625 20.685656)scale(0.1 -0.1)">
     <defs>
      <path d="M 3116 1747 
Q 3116 2381 2855 2742 
Q 2594 3103 2138 3103 
Q 1681 3103 1420 2742 
Q 1159 2381 1159 1747 
Q 1159 1113 1420 752 
Q 1681 391 2138 391 
Q 2594 391 2855 752 
Q 3116 1113 3116 1747 
z
M 1159 2969 
Q 1341 3281 1617 3432 
Q 1894 3584 2278 3584 
Q 2916 3584 3314 3078 
Q 3713 2572 3713 1747 
Q 3713 922 3314 415 
Q 2916 -91 2278 -91 
Q 1894 -91 1617 61 
Q 1341 213 1159 525 
L 1159 0 
L 581 0 
L 581 4863 
L 1159 4863 
L 1159 2969 
z
" id="DejaVuSans-62" transform="scale(0.015625)"/>
      <path d="M 2906 1791 
Q 2906 2416 2648 2759 
Q 2391 3103 1925 3103 
Q 1463 3103 1205 2759 
Q 947 2416 947 1791 
Q 947 1169 1205 825 
Q 1463 481 1925 481 
Q 2391 481 2648 825 
Q 2906 1169 2906 1791 
z
M 3481 434 
Q 3481 -459 3084 -895 
Q 2688 -1331 1869 -1331 
Q 1566 -1331 1297 -1286 
Q 1028 -1241 775 -1147 
L 775 -588 
Q 1028 -725 1275 -790 
Q 1522 -856 1778 -856 
Q 2344 -856 2625 -561 
Q 2906 -266 2906 331 
L 2906 616 
Q 2728 306 2450 153 
Q 2172 0 1784 0 
Q 1141 0 747 490 
Q 353 981 353 1791 
Q 353 2603 747 3093 
Q 1141 3584 1784 3584 
Q 2172 3584 2450 3431 
Q 2728 3278 2906 2969 
L 2906 3500 
L 3481 3500 
L 3481 434 
z
" id="DejaVuSans-67" transform="scale(0.015625)"/>
     </defs>
     <use xlink:href="#DejaVuSans-62"/>
     <use x="63.476562" xlink:href="#DejaVuSans-69"/>
     <use x="91.259766" xlink:href="#DejaVuSans-67"/>
    </g>
   </g>
   <g id="patch_235">
    <path d="M 578.82625 35.363781 
L 598.82625 35.363781 
L 598.82625 28.363781 
L 578.82625 28.363781 
z
" style="fill:#1f77b4;stroke:#1f77b4;stroke-linejoin:miter;"/>
   </g>
   <g id="text_23">
    <!-- s1 -->
    <g transform="translate(606.82625 35.363781)scale(0.1 -0.1)">
     <use xlink:href="#DejaVuSans-73"/>
     <use x="52.099609" xlink:href="#DejaVuSans-31"/>
    </g>
   </g>
   <g id="patch_236">
    <path d="M 578.82625 50.041906 
L 598.82625 50.041906 
L 598.82625 43.041906 
L 578.82625 43.041906 
z
" style="fill:#aec7e8;stroke:#aec7e8;stroke-linejoin:miter;"/>
   </g>
   <g id="text_24">
    <!-- s2 -->
    <g transform="translate(606.82625 50.041906)scale(0.1 -0.1)">
     <use xlink:href="#DejaVuSans-73"/>
     <use x="52.099609" xlink:href="#DejaVuSans-32"/>
    </g>
   </g>
   <g id="patch_237">
    <path d="M 578.82625 64.720031 
L 598.82625 64.720031 
L 598.82625 57.720031 
L 578.82625 57.720031 
z
" style="fill:#ff7f0e;stroke:#ff7f0e;stroke-linejoin:miter;"/>
   </g>
   <g id="text_25">
    <!-- s3 -->
    <g transform="translate(606.82625 64.720031)scale(0.1 -0.1)">
     <defs>
      <path d="M 2597 2516 
Q 3050 2419 3304 2112 
Q 3559 1806 3559 1356 
Q 3559 666 3084 287 
Q 2609 -91 1734 -91 
Q 1441 -91 1130 -33 
Q 819 25 488 141 
L 488 750 
Q 750 597 1062 519 
Q 1375 441 1716 441 
Q 2309 441 2620 675 
Q 2931 909 2931 1356 
Q 2931 1769 2642 2001 
Q 2353 2234 1838 2234 
L 1294 2234 
L 1294 2753 
L 1863 2753 
Q 2328 2753 2575 2939 
Q 2822 3125 2822 3475 
Q 2822 3834 2567 4026 
Q 2313 4219 1838 4219 
Q 1578 4219 1281 4162 
Q 984 4106 628 3988 
L 628 4550 
Q 988 4650 1302 4700 
Q 1616 4750 1894 4750 
Q 2613 4750 3031 4423 
Q 3450 4097 3450 3541 
Q 3450 3153 3228 2886 
Q 3006 2619 2597 2516 
z
" id="DejaVuSans-33" transform="scale(0.015625)"/>
     </defs>
     <use xlink:href="#DejaVuSans-73"/>
     <use x="52.099609" xlink:href="#DejaVuSans-33"/>
    </g>
   </g>
  </g>
 </g>
 <defs>
  <clipPath id="p2f83d4c258">
   <rect height="57.850435" width="77.634783" x="43.78125" y="10.999219"/>
  </clipPath>
  <clipPath id="pc79a066d57">
   <rect height="57.850435" width="77.634783" x="136.942989" y="10.999219"/>
  </clipPath>
  <clipPath id="p2a5eefc176">
   <rect height="57.850435" width="77.634783" x="230.104728" y="10.999219"/>
  </clipPath>
  <clipPath id="p9bf6a9e730">
   <rect height="57.850435" width="77.634783" x="323.266467" y="10.999219"/>
  </clipPath>
  <clipPath id="p3ffb41cc7b">
   <rect height="57.850435" width="77.634783" x="43.78125" y="80.41974"/>
  </clipPath>
  <clipPath id="p6c06420271">
   <rect height="57.850435" width="77.634783" x="136.942989" y="80.41974"/>
  </clipPath>
  <clipPath id="pfaca4b369a">
   <rect height="57.850435" width="77.634783" x="230.104728" y="80.41974"/>
  </clipPath>
  <clipPath id="pd8dcbea73f">
   <rect height="57.850435" width="77.634783" x="323.266467" y="80.41974"/>
  </clipPath>
  <clipPath id="p3a6a93cf06">
   <rect height="57.850435" width="77.634783" x="43.78125" y="149.840262"/>
  </clipPath>
  <clipPath id="p06fc632d88">
   <rect height="57.850435" width="77.634783" x="136.942989" y="149.840262"/>
  </clipPath>
  <clipPath id="pd3abebd759">
   <rect height="57.850435" width="77.634783" x="230.104728" y="149.840262"/>
  </clipPath>
  <clipPath id="pa894fdc7ec">
   <rect height="57.850435" width="77.634783" x="323.266467" y="149.840262"/>
  </clipPath>
  <clipPath id="p213de96f91">
   <rect height="57.850435" width="77.634783" x="43.78125" y="219.260784"/>
  </clipPath>
  <clipPath id="p0728eb82ca">
   <rect height="57.850435" width="77.634783" x="136.942989" y="219.260784"/>
  </clipPath>
  <clipPath id="p81867e6b94">
   <rect height="57.850435" width="77.634783" x="230.104728" y="219.260784"/>
  </clipPath>
 </defs>
</svg>
