<?xml version="1.0" encoding="utf-8" standalone="no"?>
<!DOCTYPE svg PUBLIC "-//W3C//DTD SVG 1.1//EN"
  "http://www.w3.org/Graphics/SVG/1.1/DTD/svg11.dtd">
<svg height="345.6pt" version="1.1" viewBox="0 0 460.8 345.6" width="460.8pt" xmlns="http://www.w3.org/2000/svg" xmlns:xlink="http://www.w3.org/1999/xlink">
 <metadata>
  <rdf:RDF xmlns:cc="http://creativecommons.org/ns#" xmlns:dc="http://purl.org/dc/elements/1.1/" xmlns:rdf="http://www.w3.org/1999/02/22-rdf-syntax-ns#">
   <cc:Work>
    <dc:type rdf:resource="http://purl.org/dc/dcmitype/StillImage"/>
    <dc:date>2022-01-14T10:34:07.334800</dc:date>
    <dc:format>image/svg+xml</dc:format>
    <dc:creator>
     <cc:Agent>
      <dc:title>Matplotlib v3.4.3, https://matplotlib.org/</dc:title>
     </cc:Agent>
    </dc:creator>
   </cc:Work>
  </rdf:RDF>
 </metadata>
 <defs>
  <style type="text/css">*{stroke-linecap:butt;stroke-linejoin:round;}</style>
 </defs>
 <g id="figure_1">
  <g id="patch_1">
   <path d="M 0 345.6 
L 460.8 345.6 
L 460.8 0 
L 0 0 
z
" style="fill:#ffffff;"/>
  </g>
  <g id="axes_1">
   <g id="patch_2">
    <path d="M 57.6 99.322435 
L 135.234783 99.322435 
L 135.234783 41.472 
L 57.6 41.472 
z
" style="fill:#ffffff;"/>
   </g>
   <g id="patch_3">
    <path clip-path="url(#p39fc078608)" d="M 61.128854 99.322435 
L 72.8917 99.322435 
L 72.8917 49.736348 
L 61.128854 49.736348 
z
" style="fill:#1f77b4;"/>
   </g>
   <g id="patch_4">
    <path clip-path="url(#p39fc078608)" d="M 75.832411 99.322435 
L 87.595257 99.322435 
L 87.595257 96.679612 
L 75.832411 96.679612 
z
" style="fill:#1f77b4;"/>
   </g>
   <g id="patch_5">
    <path clip-path="url(#p39fc078608)" d="M 90.535968 99.322435 
L 102.298814 99.322435 
L 102.298814 96.304498 
L 90.535968 96.304498 
z
"/>
   </g>
   <g id="patch_6">
    <path clip-path="url(#p39fc078608)" d="M 105.239526 99.322435 
L 117.002372 99.322435 
L 117.002372 97.23051 
L 105.239526 97.23051 
z
"/>
   </g>
   <g id="patch_7">
    <path clip-path="url(#p39fc078608)" d="M 119.943083 99.322435 
L 131.705929 99.322435 
L 131.705929 96.093451 
L 119.943083 96.093451 
z
"/>
   </g>
   <g id="patch_8">
    <path clip-path="url(#p39fc078608)" d="M 61.128854 49.736348 
L 72.8917 49.736348 
L 72.8917 44.226783 
L 61.128854 44.226783 
z
" style="fill:#aec7e8;"/>
   </g>
   <g id="patch_9">
    <path clip-path="url(#p39fc078608)" d="M 75.832411 96.679612 
L 87.595257 96.679612 
L 87.595257 96.385965 
L 75.832411 96.385965 
z
"/>
   </g>
   <g id="patch_10">
    <path clip-path="url(#p39fc078608)" d="M 90.535968 96.304498 
L 102.298814 96.304498 
L 102.298814 95.969171 
L 90.535968 95.969171 
z
" style="fill:#aec7e8;"/>
   </g>
   <g id="patch_11">
    <path clip-path="url(#p39fc078608)" d="M 105.239526 97.23051 
L 117.002372 97.23051 
L 117.002372 96.998074 
L 105.239526 96.998074 
z
" style="fill:#aec7e8;"/>
   </g>
   <g id="patch_12">
    <path clip-path="url(#p39fc078608)" d="M 119.943083 96.093451 
L 131.705929 96.093451 
L 131.705929 95.734675 
L 119.943083 95.734675 
z
" style="fill:#1f77b4;"/>
   </g>
   <g id="matplotlib.axis_1"/>
   <g id="matplotlib.axis_2">
    <g id="ytick_1">
     <g id="line2d_1">
      <defs>
       <path d="M 0 0 
L -3.5 0 
" id="mcc52603fe0" style="stroke:#000000;stroke-width:0.8;"/>
      </defs>
      <g>
       <use style="stroke:#000000;stroke-width:0.8;" x="57.6" xlink:href="#mcc52603fe0" y="99.322435"/>
      </g>
     </g>
     <g id="text_1">
      <!-- 0.0 -->
      <g transform="translate(34.696875 103.121654)scale(0.1 -0.1)">
       <defs>
        <path d="M 2034 4250 
Q 1547 4250 1301 3770 
Q 1056 3291 1056 2328 
Q 1056 1369 1301 889 
Q 1547 409 2034 409 
Q 2525 409 2770 889 
Q 3016 1369 3016 2328 
Q 3016 3291 2770 3770 
Q 2525 4250 2034 4250 
z
M 2034 4750 
Q 2819 4750 3233 4129 
Q 3647 3509 3647 2328 
Q 3647 1150 3233 529 
Q 2819 -91 2034 -91 
Q 1250 -91 836 529 
Q 422 1150 422 2328 
Q 422 3509 836 4129 
Q 1250 4750 2034 4750 
z
" id="DejaVuSans-30" transform="scale(0.015625)"/>
        <path d="M 684 794 
L 1344 794 
L 1344 0 
L 684 0 
L 684 794 
z
" id="DejaVuSans-2e" transform="scale(0.015625)"/>
       </defs>
       <use xlink:href="#DejaVuSans-30"/>
       <use x="63.623047" xlink:href="#DejaVuSans-2e"/>
       <use x="95.410156" xlink:href="#DejaVuSans-30"/>
      </g>
     </g>
    </g>
    <g id="ytick_2">
     <g id="line2d_2">
      <g>
       <use style="stroke:#000000;stroke-width:0.8;" x="57.6" xlink:href="#mcc52603fe0" y="63.49929"/>
      </g>
     </g>
     <g id="text_2">
      <!-- 0.5 -->
      <g transform="translate(34.696875 67.298508)scale(0.1 -0.1)">
       <defs>
        <path d="M 691 4666 
L 3169 4666 
L 3169 4134 
L 1269 4134 
L 1269 2991 
Q 1406 3038 1543 3061 
Q 1681 3084 1819 3084 
Q 2600 3084 3056 2656 
Q 3513 2228 3513 1497 
Q 3513 744 3044 326 
Q 2575 -91 1722 -91 
Q 1428 -91 1123 -41 
Q 819 9 494 109 
L 494 744 
Q 775 591 1075 516 
Q 1375 441 1709 441 
Q 2250 441 2565 725 
Q 2881 1009 2881 1497 
Q 2881 1984 2565 2268 
Q 2250 2553 1709 2553 
Q 1456 2553 1204 2497 
Q 953 2441 691 2322 
L 691 4666 
z
" id="DejaVuSans-35" transform="scale(0.015625)"/>
       </defs>
       <use xlink:href="#DejaVuSans-30"/>
       <use x="63.623047" xlink:href="#DejaVuSans-2e"/>
       <use x="95.410156" xlink:href="#DejaVuSans-35"/>
      </g>
     </g>
    </g>
   </g>
   <g id="patch_13">
    <path d="M 57.6 99.322435 
L 57.6 41.472 
" style="fill:none;stroke:#000000;stroke-linecap:square;stroke-linejoin:miter;stroke-width:0.8;"/>
   </g>
   <g id="patch_14">
    <path d="M 135.234783 99.322435 
L 135.234783 41.472 
" style="fill:none;stroke:#000000;stroke-linecap:square;stroke-linejoin:miter;stroke-width:0.8;"/>
   </g>
   <g id="patch_15">
    <path d="M 57.6 99.322435 
L 135.234783 99.322435 
" style="fill:none;stroke:#000000;stroke-linecap:square;stroke-linejoin:miter;stroke-width:0.8;"/>
   </g>
   <g id="patch_16">
    <path d="M 57.6 41.472 
L 135.234783 41.472 
" style="fill:none;stroke:#000000;stroke-linecap:square;stroke-linejoin:miter;stroke-width:0.8;"/>
   </g>
  </g>
  <g id="axes_2">
   <g id="patch_17">
    <path d="M 150.761739 99.322435 
L 228.396522 99.322435 
L 228.396522 41.472 
L 150.761739 41.472 
z
" style="fill:#ffffff;"/>
   </g>
   <g id="patch_18">
    <path clip-path="url(#p87d1b441a0)" d="M 154.290593 99.322435 
L 166.053439 99.322435 
L 166.053439 49.907876 
L 154.290593 49.907876 
z
" style="fill:#aec7e8;"/>
   </g>
   <g id="patch_19">
    <path clip-path="url(#p87d1b441a0)" d="M 168.99415 99.322435 
L 180.756996 99.322435 
L 180.756996 98.410373 
L 168.99415 98.410373 
z
" style="fill:#aec7e8;"/>
   </g>
   <g id="patch_20">
    <path clip-path="url(#p87d1b441a0)" d="M 183.697708 99.322435 
L 195.460553 99.322435 
L 195.460553 96.304498 
L 183.697708 96.304498 
z
"/>
   </g>
   <g id="patch_21">
    <path clip-path="url(#p87d1b441a0)" d="M 198.401265 99.322435 
L 210.164111 99.322435 
L 210.164111 96.31837 
L 198.401265 96.31837 
z
"/>
   </g>
   <g id="patch_22">
    <path clip-path="url(#p87d1b441a0)" d="M 213.104822 99.322435 
L 224.867668 99.322435 
L 224.867668 97.719856 
L 213.104822 97.719856 
z
"/>
   </g>
   <g id="patch_23">
    <path clip-path="url(#p87d1b441a0)" d="M 154.290593 49.907876 
L 166.053439 49.907876 
L 166.053439 44.417369 
L 154.290593 44.417369 
z
" style="fill:#ff7f0e;"/>
   </g>
   <g id="patch_24">
    <path clip-path="url(#p87d1b441a0)" d="M 168.99415 98.410373 
L 180.756996 98.410373 
L 180.756996 98.309033 
L 168.99415 98.309033 
z
"/>
   </g>
   <g id="patch_25">
    <path clip-path="url(#p87d1b441a0)" d="M 183.697708 96.304498 
L 195.460553 96.304498 
L 195.460553 95.969171 
L 183.697708 95.969171 
z
" style="fill:#aec7e8;"/>
   </g>
   <g id="patch_26">
    <path clip-path="url(#p87d1b441a0)" d="M 198.401265 96.31837 
L 210.164111 96.31837 
L 210.164111 95.984586 
L 198.401265 95.984586 
z
" style="fill:#ff7f0e;"/>
   </g>
   <g id="patch_27">
    <path clip-path="url(#p87d1b441a0)" d="M 213.104822 97.719856 
L 224.867668 97.719856 
L 224.867668 97.541792 
L 213.104822 97.541792 
z
" style="fill:#ff7f0e;"/>
   </g>
   <g id="matplotlib.axis_3"/>
   <g id="matplotlib.axis_4">
    <g id="ytick_3">
     <g id="line2d_3">
      <g>
       <use style="stroke:#000000;stroke-width:0.8;" x="150.761739" xlink:href="#mcc52603fe0" y="99.322435"/>
      </g>
     </g>
    </g>
    <g id="ytick_4">
     <g id="line2d_4">
      <g>
       <use style="stroke:#000000;stroke-width:0.8;" x="150.761739" xlink:href="#mcc52603fe0" y="63.49929"/>
      </g>
     </g>
    </g>
   </g>
   <g id="patch_28">
    <path d="M 150.761739 99.322435 
L 150.761739 41.472 
" style="fill:none;stroke:#000000;stroke-linecap:square;stroke-linejoin:miter;stroke-width:0.8;"/>
   </g>
   <g id="patch_29">
    <path d="M 228.396522 99.322435 
L 228.396522 41.472 
" style="fill:none;stroke:#000000;stroke-linecap:square;stroke-linejoin:miter;stroke-width:0.8;"/>
   </g>
   <g id="patch_30">
    <path d="M 150.761739 99.322435 
L 228.396522 99.322435 
" style="fill:none;stroke:#000000;stroke-linecap:square;stroke-linejoin:miter;stroke-width:0.8;"/>
   </g>
   <g id="patch_31">
    <path d="M 150.761739 41.472 
L 228.396522 41.472 
" style="fill:none;stroke:#000000;stroke-linecap:square;stroke-linejoin:miter;stroke-width:0.8;"/>
   </g>
  </g>
  <g id="axes_3">
   <g id="patch_32">
    <path d="M 243.923478 99.322435 
L 321.558261 99.322435 
L 321.558261 41.472 
L 243.923478 41.472 
z
" style="fill:#ffffff;"/>
   </g>
   <g id="patch_33">
    <path clip-path="url(#p6c4874637c)" d="M 247.452332 99.322435 
L 259.215178 99.322435 
L 259.215178 53.427888 
L 247.452332 53.427888 
z
" style="fill:#1f77b4;"/>
   </g>
   <g id="patch_34">
    <path clip-path="url(#p6c4874637c)" d="M 262.155889 99.322435 
L 273.918735 99.322435 
L 273.918735 98.872919 
L 262.155889 98.872919 
z
" style="fill:#1f77b4;"/>
   </g>
   <g id="patch_35">
    <path clip-path="url(#p6c4874637c)" d="M 276.859447 99.322435 
L 288.622292 99.322435 
L 288.622292 97.728539 
L 276.859447 97.728539 
z
"/>
   </g>
   <g id="patch_36">
    <path clip-path="url(#p6c4874637c)" d="M 291.563004 99.322435 
L 303.32585 99.322435 
L 303.32585 98.530956 
L 291.563004 98.530956 
z
"/>
   </g>
   <g id="patch_37">
    <path clip-path="url(#p6c4874637c)" d="M 306.266561 99.322435 
L 318.029407 99.322435 
L 318.029407 96.54111 
L 306.266561 96.54111 
z
"/>
   </g>
   <g id="patch_38">
    <path clip-path="url(#p6c4874637c)" d="M 247.452332 53.427888 
L 259.215178 53.427888 
L 259.215178 48.328494 
L 247.452332 48.328494 
z
" style="fill:#aec7e8;"/>
   </g>
   <g id="patch_39">
    <path clip-path="url(#p6c4874637c)" d="M 262.155889 98.872919 
L 273.918735 98.872919 
L 273.918735 98.822973 
L 262.155889 98.822973 
z
"/>
   </g>
   <g id="patch_40">
    <path clip-path="url(#p6c4874637c)" d="M 276.859447 97.728539 
L 288.622292 97.728539 
L 288.622292 97.55144 
L 276.859447 97.55144 
z
" style="fill:#aec7e8;"/>
   </g>
   <g id="patch_41">
    <path clip-path="url(#p6c4874637c)" d="M 291.563004 98.530956 
L 303.32585 98.530956 
L 303.32585 98.443014 
L 291.563004 98.443014 
z
" style="fill:#aec7e8;"/>
   </g>
   <g id="patch_42">
    <path clip-path="url(#p6c4874637c)" d="M 306.266561 96.54111 
L 318.029407 96.54111 
L 318.029407 96.232074 
L 306.266561 96.232074 
z
" style="fill:#1f77b4;"/>
   </g>
   <g id="matplotlib.axis_5"/>
   <g id="matplotlib.axis_6">
    <g id="ytick_5">
     <g id="line2d_5">
      <g>
       <use style="stroke:#000000;stroke-width:0.8;" x="243.923478" xlink:href="#mcc52603fe0" y="99.322435"/>
      </g>
     </g>
    </g>
    <g id="ytick_6">
     <g id="line2d_6">
      <g>
       <use style="stroke:#000000;stroke-width:0.8;" x="243.923478" xlink:href="#mcc52603fe0" y="63.49929"/>
      </g>
     </g>
    </g>
   </g>
   <g id="patch_43">
    <path d="M 243.923478 99.322435 
L 243.923478 41.472 
" style="fill:none;stroke:#000000;stroke-linecap:square;stroke-linejoin:miter;stroke-width:0.8;"/>
   </g>
   <g id="patch_44">
    <path d="M 321.558261 99.322435 
L 321.558261 41.472 
" style="fill:none;stroke:#000000;stroke-linecap:square;stroke-linejoin:miter;stroke-width:0.8;"/>
   </g>
   <g id="patch_45">
    <path d="M 243.923478 99.322435 
L 321.558261 99.322435 
" style="fill:none;stroke:#000000;stroke-linecap:square;stroke-linejoin:miter;stroke-width:0.8;"/>
   </g>
   <g id="patch_46">
    <path d="M 243.923478 41.472 
L 321.558261 41.472 
" style="fill:none;stroke:#000000;stroke-linecap:square;stroke-linejoin:miter;stroke-width:0.8;"/>
   </g>
  </g>
  <g id="axes_4">
   <g id="patch_47">
    <path d="M 337.085217 99.322435 
L 414.72 99.322435 
L 414.72 41.472 
L 337.085217 41.472 
z
" style="fill:#ffffff;"/>
   </g>
   <g id="patch_48">
    <path clip-path="url(#p27c9166c03)" d="M 340.614071 99.322435 
L 352.376917 99.322435 
L 352.376917 55.241014 
L 340.614071 55.241014 
z
" style="fill:#ff7f0e;"/>
   </g>
   <g id="patch_49">
    <path clip-path="url(#p27c9166c03)" d="M 355.317628 99.322435 
L 367.080474 99.322435 
L 367.080474 96.642083 
L 355.317628 96.642083 
z
" style="fill:#ff7f0e;"/>
   </g>
   <g id="patch_50">
    <path clip-path="url(#p27c9166c03)" d="M 370.021186 99.322435 
L 381.784032 99.322435 
L 381.784032 96.570569 
L 370.021186 96.570569 
z
"/>
   </g>
   <g id="patch_51">
    <path clip-path="url(#p27c9166c03)" d="M 384.724743 99.322435 
L 396.487589 99.322435 
L 396.487589 96.908778 
L 384.724743 96.908778 
z
"/>
   </g>
   <g id="patch_52">
    <path clip-path="url(#p27c9166c03)" d="M 399.4283 99.322435 
L 411.191146 99.322435 
L 411.191146 98.49081 
L 399.4283 98.49081 
z
"/>
   </g>
   <g id="patch_53">
    <path clip-path="url(#p27c9166c03)" d="M 340.614071 55.241014 
L 352.376917 55.241014 
L 352.376917 50.343078 
L 340.614071 50.343078 
z
" style="fill:#1f77b4;"/>
   </g>
   <g id="patch_54">
    <path clip-path="url(#p27c9166c03)" d="M 355.317628 96.642083 
L 367.080474 96.642083 
L 367.080474 96.344266 
L 355.317628 96.344266 
z
"/>
   </g>
   <g id="patch_55">
    <path clip-path="url(#p27c9166c03)" d="M 370.021186 96.570569 
L 381.784032 96.570569 
L 381.784032 96.264806 
L 370.021186 96.264806 
z
" style="fill:#ff7f0e;"/>
   </g>
   <g id="patch_56">
    <path clip-path="url(#p27c9166c03)" d="M 384.724743 96.908778 
L 396.487589 96.908778 
L 396.487589 96.640594 
L 384.724743 96.640594 
z
" style="fill:#1f77b4;"/>
   </g>
   <g id="patch_57">
    <path clip-path="url(#p27c9166c03)" d="M 399.4283 98.49081 
L 411.191146 98.49081 
L 411.191146 98.398407 
L 399.4283 98.398407 
z
" style="fill:#1f77b4;"/>
   </g>
   <g id="matplotlib.axis_7"/>
   <g id="matplotlib.axis_8">
    <g id="ytick_7">
     <g id="line2d_7">
      <g>
       <use style="stroke:#000000;stroke-width:0.8;" x="337.085217" xlink:href="#mcc52603fe0" y="99.322435"/>
      </g>
     </g>
    </g>
    <g id="ytick_8">
     <g id="line2d_8">
      <g>
       <use style="stroke:#000000;stroke-width:0.8;" x="337.085217" xlink:href="#mcc52603fe0" y="63.49929"/>
      </g>
     </g>
    </g>
   </g>
   <g id="patch_58">
    <path d="M 337.085217 99.322435 
L 337.085217 41.472 
" style="fill:none;stroke:#000000;stroke-linecap:square;stroke-linejoin:miter;stroke-width:0.8;"/>
   </g>
   <g id="patch_59">
    <path d="M 414.72 99.322435 
L 414.72 41.472 
" style="fill:none;stroke:#000000;stroke-linecap:square;stroke-linejoin:miter;stroke-width:0.8;"/>
   </g>
   <g id="patch_60">
    <path d="M 337.085217 99.322435 
L 414.72 99.322435 
" style="fill:none;stroke:#000000;stroke-linecap:square;stroke-linejoin:miter;stroke-width:0.8;"/>
   </g>
   <g id="patch_61">
    <path d="M 337.085217 41.472 
L 414.72 41.472 
" style="fill:none;stroke:#000000;stroke-linecap:square;stroke-linejoin:miter;stroke-width:0.8;"/>
   </g>
  </g>
  <g id="axes_5">
   <g id="patch_62">
    <path d="M 57.6 168.742957 
L 135.234783 168.742957 
L 135.234783 110.892522 
L 57.6 110.892522 
z
" style="fill:#ffffff;"/>
   </g>
   <g id="patch_63">
    <path clip-path="url(#p92578d2693)" d="M 61.128854 168.742957 
L 81.293732 168.742957 
L 81.293732 125.284336 
L 61.128854 125.284336 
z
" style="fill:#1f77b4;"/>
   </g>
   <g id="patch_64">
    <path clip-path="url(#p92578d2693)" d="M 86.334952 168.742957 
L 106.499831 168.742957 
L 106.499831 166.3293 
L 86.334952 166.3293 
z
" style="fill:#1f77b4;"/>
   </g>
   <g id="patch_65">
    <path clip-path="url(#p92578d2693)" d="M 111.54105 168.742957 
L 131.705929 168.742957 
L 131.705929 165.53645 
L 111.54105 165.53645 
z
"/>
   </g>
   <g id="patch_66">
    <path clip-path="url(#p92578d2693)" d="M 61.128854 125.284336 
L 81.293732 125.284336 
L 81.293732 120.4556 
L 61.128854 120.4556 
z
" style="fill:#aec7e8;"/>
   </g>
   <g id="patch_67">
    <path clip-path="url(#p92578d2693)" d="M 86.334952 166.3293 
L 106.499831 166.3293 
L 106.499831 166.061115 
L 86.334952 166.061115 
z
"/>
   </g>
   <g id="patch_68">
    <path clip-path="url(#p92578d2693)" d="M 111.54105 165.53645 
L 131.705929 165.53645 
L 131.705929 165.180172 
L 111.54105 165.180172 
z
" style="fill:#aec7e8;"/>
   </g>
   <g id="matplotlib.axis_9"/>
   <g id="matplotlib.axis_10">
    <g id="ytick_9">
     <g id="line2d_9">
      <g>
       <use style="stroke:#000000;stroke-width:0.8;" x="57.6" xlink:href="#mcc52603fe0" y="168.742957"/>
      </g>
     </g>
     <g id="text_3">
      <!-- 0.0 -->
      <g transform="translate(34.696875 172.542175)scale(0.1 -0.1)">
       <use xlink:href="#DejaVuSans-30"/>
       <use x="63.623047" xlink:href="#DejaVuSans-2e"/>
       <use x="95.410156" xlink:href="#DejaVuSans-30"/>
      </g>
     </g>
    </g>
    <g id="ytick_10">
     <g id="line2d_10">
      <g>
       <use style="stroke:#000000;stroke-width:0.8;" x="57.6" xlink:href="#mcc52603fe0" y="132.919811"/>
      </g>
     </g>
     <g id="text_4">
      <!-- 0.5 -->
      <g transform="translate(34.696875 136.71903)scale(0.1 -0.1)">
       <use xlink:href="#DejaVuSans-30"/>
       <use x="63.623047" xlink:href="#DejaVuSans-2e"/>
       <use x="95.410156" xlink:href="#DejaVuSans-35"/>
      </g>
     </g>
    </g>
   </g>
   <g id="patch_69">
    <path d="M 57.6 168.742957 
L 57.6 110.892522 
" style="fill:none;stroke:#000000;stroke-linecap:square;stroke-linejoin:miter;stroke-width:0.8;"/>
   </g>
   <g id="patch_70">
    <path d="M 135.234783 168.742957 
L 135.234783 110.892522 
" style="fill:none;stroke:#000000;stroke-linecap:square;stroke-linejoin:miter;stroke-width:0.8;"/>
   </g>
   <g id="patch_71">
    <path d="M 57.6 168.742957 
L 135.234783 168.742957 
" style="fill:none;stroke:#000000;stroke-linecap:square;stroke-linejoin:miter;stroke-width:0.8;"/>
   </g>
   <g id="patch_72">
    <path d="M 57.6 110.892522 
L 135.234783 110.892522 
" style="fill:none;stroke:#000000;stroke-linecap:square;stroke-linejoin:miter;stroke-width:0.8;"/>
   </g>
  </g>
  <g id="axes_6">
   <g id="patch_73">
    <path d="M 150.761739 168.742957 
L 228.396522 168.742957 
L 228.396522 110.892522 
L 150.761739 110.892522 
z
" style="fill:#ffffff;"/>
   </g>
   <g id="patch_74">
    <path clip-path="url(#pc4218d6837)" d="M 154.290593 168.742957 
L 166.053439 168.742957 
L 166.053439 128.432095 
L 154.290593 128.432095 
z
" style="fill:#ff7f0e;"/>
   </g>
   <g id="patch_75">
    <path clip-path="url(#pc4218d6837)" d="M 168.99415 168.742957 
L 180.756996 168.742957 
L 180.756996 166.661448 
L 168.99415 166.661448 
z
" style="fill:#ff7f0e;"/>
   </g>
   <g id="patch_76">
    <path clip-path="url(#pc4218d6837)" d="M 183.697708 168.742957 
L 195.460553 168.742957 
L 195.460553 166.201212 
L 183.697708 166.201212 
z
"/>
   </g>
   <g id="patch_77">
    <path clip-path="url(#pc4218d6837)" d="M 198.401265 168.742957 
L 210.164111 168.742957 
L 210.164111 166.677393 
L 198.401265 166.677393 
z
"/>
   </g>
   <g id="patch_78">
    <path clip-path="url(#pc4218d6837)" d="M 213.104822 168.742957 
L 224.867668 168.742957 
L 224.867668 164.762487 
L 213.104822 164.762487 
z
"/>
   </g>
   <g id="patch_79">
    <path clip-path="url(#pc4218d6837)" d="M 154.290593 128.432095 
L 166.053439 128.432095 
L 166.053439 123.953111 
L 154.290593 123.953111 
z
" style="fill:#aec7e8;"/>
   </g>
   <g id="patch_80">
    <path clip-path="url(#pc4218d6837)" d="M 168.99415 166.661448 
L 180.756996 166.661448 
L 180.756996 166.43017 
L 168.99415 166.43017 
z
"/>
   </g>
   <g id="patch_81">
    <path clip-path="url(#pc4218d6837)" d="M 183.697708 166.201212 
L 195.460553 166.201212 
L 195.460553 165.918796 
L 183.697708 165.918796 
z
" style="fill:#aec7e8;"/>
   </g>
   <g id="patch_82">
    <path clip-path="url(#pc4218d6837)" d="M 198.401265 166.677393 
L 210.164111 166.677393 
L 210.164111 166.447886 
L 198.401265 166.447886 
z
" style="fill:#aec7e8;"/>
   </g>
   <g id="patch_83">
    <path clip-path="url(#pc4218d6837)" d="M 213.104822 164.762487 
L 224.867668 164.762487 
L 224.867668 164.320213 
L 213.104822 164.320213 
z
" style="fill:#ff7f0e;"/>
   </g>
   <g id="matplotlib.axis_11"/>
   <g id="matplotlib.axis_12">
    <g id="ytick_11">
     <g id="line2d_11">
      <g>
       <use style="stroke:#000000;stroke-width:0.8;" x="150.761739" xlink:href="#mcc52603fe0" y="168.742957"/>
      </g>
     </g>
    </g>
    <g id="ytick_12">
     <g id="line2d_12">
      <g>
       <use style="stroke:#000000;stroke-width:0.8;" x="150.761739" xlink:href="#mcc52603fe0" y="132.919811"/>
      </g>
     </g>
    </g>
   </g>
   <g id="patch_84">
    <path d="M 150.761739 168.742957 
L 150.761739 110.892522 
" style="fill:none;stroke:#000000;stroke-linecap:square;stroke-linejoin:miter;stroke-width:0.8;"/>
   </g>
   <g id="patch_85">
    <path d="M 228.396522 168.742957 
L 228.396522 110.892522 
" style="fill:none;stroke:#000000;stroke-linecap:square;stroke-linejoin:miter;stroke-width:0.8;"/>
   </g>
   <g id="patch_86">
    <path d="M 150.761739 168.742957 
L 228.396522 168.742957 
" style="fill:none;stroke:#000000;stroke-linecap:square;stroke-linejoin:miter;stroke-width:0.8;"/>
   </g>
   <g id="patch_87">
    <path d="M 150.761739 110.892522 
L 228.396522 110.892522 
" style="fill:none;stroke:#000000;stroke-linecap:square;stroke-linejoin:miter;stroke-width:0.8;"/>
   </g>
  </g>
  <g id="axes_7">
   <g id="patch_88">
    <path d="M 243.923478 168.742957 
L 321.558261 168.742957 
L 321.558261 110.892522 
L 243.923478 110.892522 
z
" style="fill:#ffffff;"/>
   </g>
   <g id="patch_89">
    <path clip-path="url(#p26c7342658)" d="M 247.452332 168.742957 
L 267.617211 168.742957 
L 267.617211 123.675596 
L 247.452332 123.675596 
z
" style="fill:#ff7f0e;"/>
   </g>
   <g id="patch_90">
    <path clip-path="url(#p26c7342658)" d="M 272.65843 168.742957 
L 292.823309 168.742957 
L 292.823309 158.941674 
L 272.65843 158.941674 
z
" style="fill:#ff7f0e;"/>
   </g>
   <g id="patch_91">
    <path clip-path="url(#p26c7342658)" d="M 297.864529 168.742957 
L 318.029407 168.742957 
L 318.029407 161.396568 
L 297.864529 161.396568 
z
"/>
   </g>
   <g id="patch_92">
    <path clip-path="url(#p26c7342658)" d="M 247.452332 123.675596 
L 267.617211 123.675596 
L 267.617211 118.668112 
L 247.452332 118.668112 
z
" style="fill:#aec7e8;"/>
   </g>
   <g id="patch_93">
    <path clip-path="url(#p26c7342658)" d="M 272.65843 158.941674 
L 292.823309 158.941674 
L 292.823309 157.852643 
L 272.65843 157.852643 
z
"/>
   </g>
   <g id="patch_94">
    <path clip-path="url(#p26c7342658)" d="M 297.864529 161.396568 
L 318.029407 161.396568 
L 318.029407 160.580303 
L 297.864529 160.580303 
z
" style="fill:#aec7e8;"/>
   </g>
   <g id="matplotlib.axis_13"/>
   <g id="matplotlib.axis_14">
    <g id="ytick_13">
     <g id="line2d_13">
      <g>
       <use style="stroke:#000000;stroke-width:0.8;" x="243.923478" xlink:href="#mcc52603fe0" y="168.742957"/>
      </g>
     </g>
    </g>
    <g id="ytick_14">
     <g id="line2d_14">
      <g>
       <use style="stroke:#000000;stroke-width:0.8;" x="243.923478" xlink:href="#mcc52603fe0" y="132.919811"/>
      </g>
     </g>
    </g>
   </g>
   <g id="patch_95">
    <path d="M 243.923478 168.742957 
L 243.923478 110.892522 
" style="fill:none;stroke:#000000;stroke-linecap:square;stroke-linejoin:miter;stroke-width:0.8;"/>
   </g>
   <g id="patch_96">
    <path d="M 321.558261 168.742957 
L 321.558261 110.892522 
" style="fill:none;stroke:#000000;stroke-linecap:square;stroke-linejoin:miter;stroke-width:0.8;"/>
   </g>
   <g id="patch_97">
    <path d="M 243.923478 168.742957 
L 321.558261 168.742957 
" style="fill:none;stroke:#000000;stroke-linecap:square;stroke-linejoin:miter;stroke-width:0.8;"/>
   </g>
   <g id="patch_98">
    <path d="M 243.923478 110.892522 
L 321.558261 110.892522 
" style="fill:none;stroke:#000000;stroke-linecap:square;stroke-linejoin:miter;stroke-width:0.8;"/>
   </g>
  </g>
  <g id="axes_8">
   <g id="patch_99">
    <path d="M 337.085217 168.742957 
L 414.72 168.742957 
L 414.72 110.892522 
L 337.085217 110.892522 
z
" style="fill:#ffffff;"/>
   </g>
   <g id="patch_100">
    <path clip-path="url(#p29e9f15168)" d="M 340.614071 168.742957 
L 352.376917 168.742957 
L 352.376917 127.57529 
L 340.614071 127.57529 
z
" style="fill:#ff7f0e;"/>
   </g>
   <g id="patch_101">
    <path clip-path="url(#p29e9f15168)" d="M 355.317628 168.742957 
L 367.080474 168.742957 
L 367.080474 164.81684 
L 355.317628 164.81684 
z
" style="fill:#ff7f0e;"/>
   </g>
   <g id="patch_102">
    <path clip-path="url(#p29e9f15168)" d="M 370.021186 168.742957 
L 381.784032 168.742957 
L 381.784032 165.241607 
L 370.021186 165.241607 
z
"/>
   </g>
   <g id="patch_103">
    <path clip-path="url(#p29e9f15168)" d="M 384.724743 168.742957 
L 396.487589 168.742957 
L 396.487589 166.487627 
L 384.724743 166.487627 
z
"/>
   </g>
   <g id="patch_104">
    <path clip-path="url(#p29e9f15168)" d="M 399.4283 168.742957 
L 411.191146 168.742957 
L 411.191146 162.701676 
L 399.4283 162.701676 
z
"/>
   </g>
   <g id="patch_105">
    <path clip-path="url(#p29e9f15168)" d="M 340.614071 127.57529 
L 352.376917 127.57529 
L 352.376917 123.001105 
L 340.614071 123.001105 
z
" style="fill:#aec7e8;"/>
   </g>
   <g id="patch_106">
    <path clip-path="url(#p29e9f15168)" d="M 355.317628 164.81684 
L 367.080474 164.81684 
L 367.080474 164.380605 
L 355.317628 164.380605 
z
"/>
   </g>
   <g id="patch_107">
    <path clip-path="url(#p29e9f15168)" d="M 370.021186 165.241607 
L 381.784032 165.241607 
L 381.784032 164.852568 
L 370.021186 164.852568 
z
" style="fill:#aec7e8;"/>
   </g>
   <g id="patch_108">
    <path clip-path="url(#p29e9f15168)" d="M 384.724743 166.487627 
L 396.487589 166.487627 
L 396.487589 166.237035 
L 384.724743 166.237035 
z
" style="fill:#aec7e8;"/>
   </g>
   <g id="patch_109">
    <path clip-path="url(#p29e9f15168)" d="M 399.4283 162.701676 
L 411.191146 162.701676 
L 411.191146 162.030422 
L 399.4283 162.030422 
z
" style="fill:#ff7f0e;"/>
   </g>
   <g id="matplotlib.axis_15"/>
   <g id="matplotlib.axis_16">
    <g id="ytick_15">
     <g id="line2d_15">
      <g>
       <use style="stroke:#000000;stroke-width:0.8;" x="337.085217" xlink:href="#mcc52603fe0" y="168.742957"/>
      </g>
     </g>
    </g>
    <g id="ytick_16">
     <g id="line2d_16">
      <g>
       <use style="stroke:#000000;stroke-width:0.8;" x="337.085217" xlink:href="#mcc52603fe0" y="132.919811"/>
      </g>
     </g>
    </g>
   </g>
   <g id="patch_110">
    <path d="M 337.085217 168.742957 
L 337.085217 110.892522 
" style="fill:none;stroke:#000000;stroke-linecap:square;stroke-linejoin:miter;stroke-width:0.8;"/>
   </g>
   <g id="patch_111">
    <path d="M 414.72 168.742957 
L 414.72 110.892522 
" style="fill:none;stroke:#000000;stroke-linecap:square;stroke-linejoin:miter;stroke-width:0.8;"/>
   </g>
   <g id="patch_112">
    <path d="M 337.085217 168.742957 
L 414.72 168.742957 
" style="fill:none;stroke:#000000;stroke-linecap:square;stroke-linejoin:miter;stroke-width:0.8;"/>
   </g>
   <g id="patch_113">
    <path d="M 337.085217 110.892522 
L 414.72 110.892522 
" style="fill:none;stroke:#000000;stroke-linecap:square;stroke-linejoin:miter;stroke-width:0.8;"/>
   </g>
  </g>
  <g id="axes_9">
   <g id="patch_114">
    <path d="M 57.6 238.163478 
L 135.234783 238.163478 
L 135.234783 180.313043 
L 57.6 180.313043 
z
" style="fill:#ffffff;"/>
   </g>
   <g id="patch_115">
    <path clip-path="url(#p6686592da9)" d="M 61.128854 238.163478 
L 81.293732 238.163478 
L 81.293732 191.761646 
L 61.128854 191.761646 
z
" style="fill:#ff7f0e;"/>
   </g>
   <g id="patch_116">
    <path clip-path="url(#p6686592da9)" d="M 86.334952 238.163478 
L 106.499831 238.163478 
L 106.499831 228.362196 
L 86.334952 228.362196 
z
" style="fill:#ff7f0e;"/>
   </g>
   <g id="patch_117">
    <path clip-path="url(#p6686592da9)" d="M 111.54105 238.163478 
L 131.705929 238.163478 
L 131.705929 229.245996 
L 111.54105 229.245996 
z
"/>
   </g>
   <g id="patch_118">
    <path clip-path="url(#p6686592da9)" d="M 61.128854 191.761646 
L 81.293732 191.761646 
L 81.293732 186.605887 
L 61.128854 186.605887 
z
" style="fill:#1f77b4;"/>
   </g>
   <g id="patch_119">
    <path clip-path="url(#p6686592da9)" d="M 86.334952 228.362196 
L 106.499831 228.362196 
L 106.499831 227.273165 
L 86.334952 227.273165 
z
"/>
   </g>
   <g id="patch_120">
    <path clip-path="url(#p6686592da9)" d="M 111.54105 229.245996 
L 131.705929 229.245996 
L 131.705929 228.255164 
L 111.54105 228.255164 
z
" style="fill:#1f77b4;"/>
   </g>
   <g id="matplotlib.axis_17"/>
   <g id="matplotlib.axis_18">
    <g id="ytick_17">
     <g id="line2d_17">
      <g>
       <use style="stroke:#000000;stroke-width:0.8;" x="57.6" xlink:href="#mcc52603fe0" y="238.163478"/>
      </g>
     </g>
     <g id="text_5">
      <!-- 0.0 -->
      <g transform="translate(34.696875 241.962697)scale(0.1 -0.1)">
       <use xlink:href="#DejaVuSans-30"/>
       <use x="63.623047" xlink:href="#DejaVuSans-2e"/>
       <use x="95.410156" xlink:href="#DejaVuSans-30"/>
      </g>
     </g>
    </g>
    <g id="ytick_18">
     <g id="line2d_18">
      <g>
       <use style="stroke:#000000;stroke-width:0.8;" x="57.6" xlink:href="#mcc52603fe0" y="202.340333"/>
      </g>
     </g>
     <g id="text_6">
      <!-- 0.5 -->
      <g transform="translate(34.696875 206.139552)scale(0.1 -0.1)">
       <use xlink:href="#DejaVuSans-30"/>
       <use x="63.623047" xlink:href="#DejaVuSans-2e"/>
       <use x="95.410156" xlink:href="#DejaVuSans-35"/>
      </g>
     </g>
    </g>
   </g>
   <g id="patch_121">
    <path d="M 57.6 238.163478 
L 57.6 180.313043 
" style="fill:none;stroke:#000000;stroke-linecap:square;stroke-linejoin:miter;stroke-width:0.8;"/>
   </g>
   <g id="patch_122">
    <path d="M 135.234783 238.163478 
L 135.234783 180.313043 
" style="fill:none;stroke:#000000;stroke-linecap:square;stroke-linejoin:miter;stroke-width:0.8;"/>
   </g>
   <g id="patch_123">
    <path d="M 57.6 238.163478 
L 135.234783 238.163478 
" style="fill:none;stroke:#000000;stroke-linecap:square;stroke-linejoin:miter;stroke-width:0.8;"/>
   </g>
   <g id="patch_124">
    <path d="M 57.6 180.313043 
L 135.234783 180.313043 
" style="fill:none;stroke:#000000;stroke-linecap:square;stroke-linejoin:miter;stroke-width:0.8;"/>
   </g>
  </g>
  <g id="axes_10">
   <g id="patch_125">
    <path d="M 150.761739 238.163478 
L 228.396522 238.163478 
L 228.396522 180.313043 
L 150.761739 180.313043 
z
" style="fill:#ffffff;"/>
   </g>
   <g id="patch_126">
    <path clip-path="url(#p78c9a94cb1)" d="M 154.290593 238.163478 
L 166.053439 238.163478 
L 166.053439 198.968026 
L 154.290593 198.968026 
z
" style="fill:#ff7f0e;"/>
   </g>
   <g id="patch_127">
    <path clip-path="url(#p78c9a94cb1)" d="M 168.99415 238.163478 
L 180.756996 238.163478 
L 180.756996 237.565832 
L 168.99415 237.565832 
z
" style="fill:#ff7f0e;"/>
   </g>
   <g id="patch_128">
    <path clip-path="url(#p78c9a94cb1)" d="M 183.697708 238.163478 
L 195.460553 238.163478 
L 195.460553 233.867798 
L 183.697708 233.867798 
z
"/>
   </g>
   <g id="patch_129">
    <path clip-path="url(#p78c9a94cb1)" d="M 198.401265 238.163478 
L 210.164111 238.163478 
L 210.164111 234.720707 
L 198.401265 234.720707 
z
"/>
   </g>
   <g id="patch_130">
    <path clip-path="url(#p78c9a94cb1)" d="M 213.104822 238.163478 
L 224.867668 238.163478 
L 224.867668 234.90028 
L 213.104822 234.90028 
z
"/>
   </g>
   <g id="patch_131">
    <path clip-path="url(#p78c9a94cb1)" d="M 154.290593 198.968026 
L 166.053439 198.968026 
L 166.053439 194.612975 
L 154.290593 194.612975 
z
" style="fill:#1f77b4;"/>
   </g>
   <g id="patch_132">
    <path clip-path="url(#p78c9a94cb1)" d="M 168.99415 237.565832 
L 180.756996 237.565832 
L 180.756996 237.499427 
L 168.99415 237.499427 
z
"/>
   </g>
   <g id="patch_133">
    <path clip-path="url(#p78c9a94cb1)" d="M 183.697708 233.867798 
L 195.460553 233.867798 
L 195.460553 233.390501 
L 183.697708 233.390501 
z
" style="fill:#ff7f0e;"/>
   </g>
   <g id="patch_134">
    <path clip-path="url(#p78c9a94cb1)" d="M 198.401265 234.720707 
L 210.164111 234.720707 
L 210.164111 234.338177 
L 198.401265 234.338177 
z
" style="fill:#1f77b4;"/>
   </g>
   <g id="patch_135">
    <path clip-path="url(#p78c9a94cb1)" d="M 213.104822 234.90028 
L 224.867668 234.90028 
L 224.867668 234.537703 
L 213.104822 234.537703 
z
" style="fill:#1f77b4;"/>
   </g>
   <g id="matplotlib.axis_19"/>
   <g id="matplotlib.axis_20">
    <g id="ytick_19">
     <g id="line2d_19">
      <g>
       <use style="stroke:#000000;stroke-width:0.8;" x="150.761739" xlink:href="#mcc52603fe0" y="238.163478"/>
      </g>
     </g>
    </g>
    <g id="ytick_20">
     <g id="line2d_20">
      <g>
       <use style="stroke:#000000;stroke-width:0.8;" x="150.761739" xlink:href="#mcc52603fe0" y="202.340333"/>
      </g>
     </g>
    </g>
   </g>
   <g id="patch_136">
    <path d="M 150.761739 238.163478 
L 150.761739 180.313043 
" style="fill:none;stroke:#000000;stroke-linecap:square;stroke-linejoin:miter;stroke-width:0.8;"/>
   </g>
   <g id="patch_137">
    <path d="M 228.396522 238.163478 
L 228.396522 180.313043 
" style="fill:none;stroke:#000000;stroke-linecap:square;stroke-linejoin:miter;stroke-width:0.8;"/>
   </g>
   <g id="patch_138">
    <path d="M 150.761739 238.163478 
L 228.396522 238.163478 
" style="fill:none;stroke:#000000;stroke-linecap:square;stroke-linejoin:miter;stroke-width:0.8;"/>
   </g>
   <g id="patch_139">
    <path d="M 150.761739 180.313043 
L 228.396522 180.313043 
" style="fill:none;stroke:#000000;stroke-linecap:square;stroke-linejoin:miter;stroke-width:0.8;"/>
   </g>
  </g>
  <g id="axes_11">
   <g id="patch_140">
    <path d="M 243.923478 238.163478 
L 321.558261 238.163478 
L 321.558261 180.313043 
L 243.923478 180.313043 
z
" style="fill:#ffffff;"/>
   </g>
   <g id="patch_141">
    <path clip-path="url(#pb9d069d89d)" d="M 247.452332 238.163478 
L 267.617211 238.163478 
L 267.617211 197.661327 
L 247.452332 197.661327 
z
" style="fill:#aec7e8;"/>
   </g>
   <g id="patch_142">
    <path clip-path="url(#pb9d069d89d)" d="M 272.65843 238.163478 
L 292.823309 238.163478 
L 292.823309 232.815568 
L 272.65843 232.815568 
z
" style="fill:#aec7e8;"/>
   </g>
   <g id="patch_143">
    <path clip-path="url(#pb9d069d89d)" d="M 297.864529 238.163478 
L 318.029407 238.163478 
L 318.029407 232.913849 
L 297.864529 232.913849 
z
"/>
   </g>
   <g id="patch_144">
    <path clip-path="url(#pb9d069d89d)" d="M 247.452332 197.661327 
L 267.617211 197.661327 
L 267.617211 193.161088 
L 247.452332 193.161088 
z
" style="fill:#ff7f0e;"/>
   </g>
   <g id="patch_145">
    <path clip-path="url(#pb9d069d89d)" d="M 272.65843 232.815568 
L 292.823309 232.815568 
L 292.823309 232.221356 
L 272.65843 232.221356 
z
"/>
   </g>
   <g id="patch_146">
    <path clip-path="url(#pb9d069d89d)" d="M 297.864529 232.913849 
L 318.029407 232.913849 
L 318.029407 232.330557 
L 297.864529 232.330557 
z
" style="fill:#ff7f0e;"/>
   </g>
   <g id="matplotlib.axis_21"/>
   <g id="matplotlib.axis_22">
    <g id="ytick_21">
     <g id="line2d_21">
      <g>
       <use style="stroke:#000000;stroke-width:0.8;" x="243.923478" xlink:href="#mcc52603fe0" y="238.163478"/>
      </g>
     </g>
    </g>
    <g id="ytick_22">
     <g id="line2d_22">
      <g>
       <use style="stroke:#000000;stroke-width:0.8;" x="243.923478" xlink:href="#mcc52603fe0" y="202.340333"/>
      </g>
     </g>
    </g>
   </g>
   <g id="patch_147">
    <path d="M 243.923478 238.163478 
L 243.923478 180.313043 
" style="fill:none;stroke:#000000;stroke-linecap:square;stroke-linejoin:miter;stroke-width:0.8;"/>
   </g>
   <g id="patch_148">
    <path d="M 321.558261 238.163478 
L 321.558261 180.313043 
" style="fill:none;stroke:#000000;stroke-linecap:square;stroke-linejoin:miter;stroke-width:0.8;"/>
   </g>
   <g id="patch_149">
    <path d="M 243.923478 238.163478 
L 321.558261 238.163478 
" style="fill:none;stroke:#000000;stroke-linecap:square;stroke-linejoin:miter;stroke-width:0.8;"/>
   </g>
   <g id="patch_150">
    <path d="M 243.923478 180.313043 
L 321.558261 180.313043 
" style="fill:none;stroke:#000000;stroke-linecap:square;stroke-linejoin:miter;stroke-width:0.8;"/>
   </g>
  </g>
  <g id="axes_12">
   <g id="patch_151">
    <path d="M 337.085217 238.163478 
L 414.72 238.163478 
L 414.72 180.313043 
L 337.085217 180.313043 
z
" style="fill:#ffffff;"/>
   </g>
   <g id="patch_152">
    <path clip-path="url(#p12e6f77e19)" d="M 340.614071 238.163478 
L 352.376917 238.163478 
L 352.376917 198.618439 
L 340.614071 198.618439 
z
" style="fill:#aec7e8;"/>
   </g>
   <g id="patch_153">
    <path clip-path="url(#p12e6f77e19)" d="M 355.317628 238.163478 
L 367.080474 238.163478 
L 367.080474 235.84657 
L 355.317628 235.84657 
z
" style="fill:#aec7e8;"/>
   </g>
   <g id="patch_154">
    <path clip-path="url(#p12e6f77e19)" d="M 370.021186 238.163478 
L 381.784032 238.163478 
L 381.784032 233.782505 
L 370.021186 233.782505 
z
"/>
   </g>
   <g id="patch_155">
    <path clip-path="url(#p12e6f77e19)" d="M 384.724743 238.163478 
L 396.487589 238.163478 
L 396.487589 233.867798 
L 384.724743 233.867798 
z
"/>
   </g>
   <g id="patch_156">
    <path clip-path="url(#p12e6f77e19)" d="M 399.4283 238.163478 
L 411.191146 238.163478 
L 411.191146 236.413528 
L 399.4283 236.413528 
z
"/>
   </g>
   <g id="patch_157">
    <path clip-path="url(#p12e6f77e19)" d="M 340.614071 198.618439 
L 352.376917 198.618439 
L 352.376917 194.224546 
L 340.614071 194.224546 
z
" style="fill:#ff7f0e;"/>
   </g>
   <g id="patch_158">
    <path clip-path="url(#p12e6f77e19)" d="M 355.317628 235.84657 
L 367.080474 235.84657 
L 367.080474 235.589136 
L 355.317628 235.589136 
z
"/>
   </g>
   <g id="patch_159">
    <path clip-path="url(#p12e6f77e19)" d="M 370.021186 233.782505 
L 381.784032 233.782505 
L 381.784032 233.295731 
L 370.021186 233.295731 
z
" style="fill:#aec7e8;"/>
   </g>
   <g id="patch_160">
    <path clip-path="url(#p12e6f77e19)" d="M 384.724743 233.867798 
L 396.487589 233.867798 
L 396.487589 233.390501 
L 384.724743 233.390501 
z
" style="fill:#ff7f0e;"/>
   </g>
   <g id="patch_161">
    <path clip-path="url(#p12e6f77e19)" d="M 399.4283 236.413528 
L 411.191146 236.413528 
L 411.191146 236.219089 
L 399.4283 236.219089 
z
" style="fill:#ff7f0e;"/>
   </g>
   <g id="matplotlib.axis_23"/>
   <g id="matplotlib.axis_24">
    <g id="ytick_23">
     <g id="line2d_23">
      <g>
       <use style="stroke:#000000;stroke-width:0.8;" x="337.085217" xlink:href="#mcc52603fe0" y="238.163478"/>
      </g>
     </g>
    </g>
    <g id="ytick_24">
     <g id="line2d_24">
      <g>
       <use style="stroke:#000000;stroke-width:0.8;" x="337.085217" xlink:href="#mcc52603fe0" y="202.340333"/>
      </g>
     </g>
    </g>
   </g>
   <g id="patch_162">
    <path d="M 337.085217 238.163478 
L 337.085217 180.313043 
" style="fill:none;stroke:#000000;stroke-linecap:square;stroke-linejoin:miter;stroke-width:0.8;"/>
   </g>
   <g id="patch_163">
    <path d="M 414.72 238.163478 
L 414.72 180.313043 
" style="fill:none;stroke:#000000;stroke-linecap:square;stroke-linejoin:miter;stroke-width:0.8;"/>
   </g>
   <g id="patch_164">
    <path d="M 337.085217 238.163478 
L 414.72 238.163478 
" style="fill:none;stroke:#000000;stroke-linecap:square;stroke-linejoin:miter;stroke-width:0.8;"/>
   </g>
   <g id="patch_165">
    <path d="M 337.085217 180.313043 
L 414.72 180.313043 
" style="fill:none;stroke:#000000;stroke-linecap:square;stroke-linejoin:miter;stroke-width:0.8;"/>
   </g>
  </g>
  <g id="axes_13">
   <g id="patch_166">
    <path d="M 57.6 307.584 
L 135.234783 307.584 
L 135.234783 249.733565 
L 57.6 249.733565 
z
" style="fill:#ffffff;"/>
   </g>
   <g id="patch_167">
    <path clip-path="url(#pca03478397)" d="M 61.128854 307.584 
L 72.8917 307.584 
L 72.8917 270.457612 
L 61.128854 270.457612 
z
" style="fill:#1f77b4;"/>
   </g>
   <g id="patch_168">
    <path clip-path="url(#pca03478397)" d="M 75.832411 307.584 
L 87.595257 307.584 
L 87.595257 306.667249 
L 75.832411 306.667249 
z
" style="fill:#1f77b4;"/>
   </g>
   <g id="patch_169">
    <path clip-path="url(#pca03478397)" d="M 90.535968 307.584 
L 102.298814 307.584 
L 102.298814 305.689002 
L 90.535968 305.689002 
z
"/>
   </g>
   <g id="patch_170">
    <path clip-path="url(#pca03478397)" d="M 105.239526 307.584 
L 117.002372 307.584 
L 117.002372 307.567125 
L 105.239526 307.567125 
z
"/>
   </g>
   <g id="patch_171">
    <path clip-path="url(#pca03478397)" d="M 119.943083 307.584 
L 131.705929 307.584 
L 131.705929 304.246245 
L 119.943083 304.246245 
z
"/>
   </g>
   <g id="patch_172">
    <path clip-path="url(#pca03478397)" d="M 61.128854 270.457612 
L 72.8917 270.457612 
L 72.8917 266.332458 
L 61.128854 266.332458 
z
" style="fill:#ff7f0e;"/>
   </g>
   <g id="patch_173">
    <path clip-path="url(#pca03478397)" d="M 75.832411 306.667249 
L 87.595257 306.667249 
L 87.595257 306.565388 
L 75.832411 306.565388 
z
"/>
   </g>
   <g id="patch_174">
    <path clip-path="url(#pca03478397)" d="M 90.535968 305.689002 
L 102.298814 305.689002 
L 102.298814 305.478446 
L 90.535968 305.478446 
z
" style="fill:#ff7f0e;"/>
   </g>
   <g id="patch_175">
    <path clip-path="url(#pca03478397)" d="M 105.239526 307.567125 
L 117.002372 307.567125 
L 117.002372 307.565251 
L 105.239526 307.565251 
z
" style="fill:#ff7f0e;"/>
   </g>
   <g id="patch_176">
    <path clip-path="url(#pca03478397)" d="M 119.943083 304.246245 
L 131.705929 304.246245 
L 131.705929 303.875383 
L 119.943083 303.875383 
z
" style="fill:#1f77b4;"/>
   </g>
   <g id="matplotlib.axis_25"/>
   <g id="matplotlib.axis_26">
    <g id="ytick_25">
     <g id="line2d_25">
      <g>
       <use style="stroke:#000000;stroke-width:0.8;" x="57.6" xlink:href="#mcc52603fe0" y="307.584"/>
      </g>
     </g>
     <g id="text_7">
      <!-- 0.0 -->
      <g transform="translate(34.696875 311.383219)scale(0.1 -0.1)">
       <use xlink:href="#DejaVuSans-30"/>
       <use x="63.623047" xlink:href="#DejaVuSans-2e"/>
       <use x="95.410156" xlink:href="#DejaVuSans-30"/>
      </g>
     </g>
    </g>
    <g id="ytick_26">
     <g id="line2d_26">
      <g>
       <use style="stroke:#000000;stroke-width:0.8;" x="57.6" xlink:href="#mcc52603fe0" y="271.760855"/>
      </g>
     </g>
     <g id="text_8">
      <!-- 0.5 -->
      <g transform="translate(34.696875 275.560074)scale(0.1 -0.1)">
       <use xlink:href="#DejaVuSans-30"/>
       <use x="63.623047" xlink:href="#DejaVuSans-2e"/>
       <use x="95.410156" xlink:href="#DejaVuSans-35"/>
      </g>
     </g>
    </g>
   </g>
   <g id="patch_177">
    <path d="M 57.6 307.584 
L 57.6 249.733565 
" style="fill:none;stroke:#000000;stroke-linecap:square;stroke-linejoin:miter;stroke-width:0.8;"/>
   </g>
   <g id="patch_178">
    <path d="M 135.234783 307.584 
L 135.234783 249.733565 
" style="fill:none;stroke:#000000;stroke-linecap:square;stroke-linejoin:miter;stroke-width:0.8;"/>
   </g>
   <g id="patch_179">
    <path d="M 57.6 307.584 
L 135.234783 307.584 
" style="fill:none;stroke:#000000;stroke-linecap:square;stroke-linejoin:miter;stroke-width:0.8;"/>
   </g>
   <g id="patch_180">
    <path d="M 57.6 249.733565 
L 135.234783 249.733565 
" style="fill:none;stroke:#000000;stroke-linecap:square;stroke-linejoin:miter;stroke-width:0.8;"/>
   </g>
  </g>
  <g id="axes_14">
   <g id="patch_181">
    <path d="M 150.761739 307.584 
L 228.396522 307.584 
L 228.396522 249.733565 
L 150.761739 249.733565 
z
" style="fill:#ffffff;"/>
   </g>
   <g id="patch_182">
    <path clip-path="url(#pc66ff1818d)" d="M 154.290593 307.584 
L 174.455471 307.584 
L 174.455471 260.065465 
L 154.290593 260.065465 
z
" style="fill:#aec7e8;"/>
   </g>
   <g id="patch_183">
    <path clip-path="url(#pc66ff1818d)" d="M 179.496691 307.584 
L 199.66157 307.584 
L 199.66157 288.988765 
L 179.496691 288.988765 
z
" style="fill:#aec7e8;"/>
   </g>
   <g id="patch_184">
    <path clip-path="url(#pc66ff1818d)" d="M 204.702789 307.584 
L 224.867668 307.584 
L 224.867668 295.104992 
L 204.702789 295.104992 
z
"/>
   </g>
   <g id="patch_185">
    <path clip-path="url(#pc66ff1818d)" d="M 154.290593 260.065465 
L 174.455471 260.065465 
L 174.455471 254.785628 
L 154.290593 254.785628 
z
" style="fill:#ff7f0e;"/>
   </g>
   <g id="patch_186">
    <path clip-path="url(#pc66ff1818d)" d="M 179.496691 288.988765 
L 199.66157 288.988765 
L 199.66157 286.922628 
L 179.496691 286.922628 
z
"/>
   </g>
   <g id="patch_187">
    <path clip-path="url(#pc66ff1818d)" d="M 204.702789 295.104992 
L 224.867668 295.104992 
L 224.867668 293.718436 
L 204.702789 293.718436 
z
" style="fill:#ff7f0e;"/>
   </g>
   <g id="matplotlib.axis_27"/>
   <g id="matplotlib.axis_28">
    <g id="ytick_27">
     <g id="line2d_27">
      <g>
       <use style="stroke:#000000;stroke-width:0.8;" x="150.761739" xlink:href="#mcc52603fe0" y="307.584"/>
      </g>
     </g>
    </g>
    <g id="ytick_28">
     <g id="line2d_28">
      <g>
       <use style="stroke:#000000;stroke-width:0.8;" x="150.761739" xlink:href="#mcc52603fe0" y="271.760855"/>
      </g>
     </g>
    </g>
   </g>
   <g id="patch_188">
    <path d="M 150.761739 307.584 
L 150.761739 249.733565 
" style="fill:none;stroke:#000000;stroke-linecap:square;stroke-linejoin:miter;stroke-width:0.8;"/>
   </g>
   <g id="patch_189">
    <path d="M 228.396522 307.584 
L 228.396522 249.733565 
" style="fill:none;stroke:#000000;stroke-linecap:square;stroke-linejoin:miter;stroke-width:0.8;"/>
   </g>
   <g id="patch_190">
    <path d="M 150.761739 307.584 
L 228.396522 307.584 
" style="fill:none;stroke:#000000;stroke-linecap:square;stroke-linejoin:miter;stroke-width:0.8;"/>
   </g>
   <g id="patch_191">
    <path d="M 150.761739 249.733565 
L 228.396522 249.733565 
" style="fill:none;stroke:#000000;stroke-linecap:square;stroke-linejoin:miter;stroke-width:0.8;"/>
   </g>
  </g>
  <g id="axes_15">
   <g id="patch_192">
    <path d="M 243.923478 307.584 
L 321.558261 307.584 
L 321.558261 249.733565 
L 243.923478 249.733565 
z
" style="fill:#ffffff;"/>
   </g>
   <g id="patch_193">
    <path clip-path="url(#p75c89bb7c2)" d="M 247.452332 307.584 
L 267.617211 307.584 
L 267.617211 268.140574 
L 247.452332 268.140574 
z
" style="fill:#aec7e8;"/>
   </g>
   <g id="patch_194">
    <path clip-path="url(#p75c89bb7c2)" d="M 272.65843 307.584 
L 292.823309 307.584 
L 292.823309 302.040402 
L 272.65843 302.040402 
z
" style="fill:#aec7e8;"/>
   </g>
   <g id="patch_195">
    <path clip-path="url(#p75c89bb7c2)" d="M 297.864529 307.584 
L 318.029407 307.584 
L 318.029407 302.155855 
L 297.864529 302.155855 
z
"/>
   </g>
   <g id="patch_196">
    <path clip-path="url(#p75c89bb7c2)" d="M 247.452332 268.140574 
L 267.617211 268.140574 
L 267.617211 263.757971 
L 247.452332 263.757971 
z
" style="fill:#ff7f0e;"/>
   </g>
   <g id="patch_197">
    <path clip-path="url(#p75c89bb7c2)" d="M 272.65843 302.040402 
L 292.823309 302.040402 
L 292.823309 301.424447 
L 272.65843 301.424447 
z
"/>
   </g>
   <g id="patch_198">
    <path clip-path="url(#p75c89bb7c2)" d="M 297.864529 302.155855 
L 318.029407 302.155855 
L 318.029407 301.552728 
L 297.864529 301.552728 
z
" style="fill:#ff7f0e;"/>
   </g>
   <g id="matplotlib.axis_29"/>
   <g id="matplotlib.axis_30">
    <g id="ytick_29">
     <g id="line2d_29">
      <g>
       <use style="stroke:#000000;stroke-width:0.8;" x="243.923478" xlink:href="#mcc52603fe0" y="307.584"/>
      </g>
     </g>
    </g>
    <g id="ytick_30">
     <g id="line2d_30">
      <g>
       <use style="stroke:#000000;stroke-width:0.8;" x="243.923478" xlink:href="#mcc52603fe0" y="271.760855"/>
      </g>
     </g>
    </g>
   </g>
   <g id="patch_199">
    <path d="M 243.923478 307.584 
L 243.923478 249.733565 
" style="fill:none;stroke:#000000;stroke-linecap:square;stroke-linejoin:miter;stroke-width:0.8;"/>
   </g>
   <g id="patch_200">
    <path d="M 321.558261 307.584 
L 321.558261 249.733565 
" style="fill:none;stroke:#000000;stroke-linecap:square;stroke-linejoin:miter;stroke-width:0.8;"/>
   </g>
   <g id="patch_201">
    <path d="M 243.923478 307.584 
L 321.558261 307.584 
" style="fill:none;stroke:#000000;stroke-linecap:square;stroke-linejoin:miter;stroke-width:0.8;"/>
   </g>
   <g id="patch_202">
    <path d="M 243.923478 249.733565 
L 321.558261 249.733565 
" style="fill:none;stroke:#000000;stroke-linecap:square;stroke-linejoin:miter;stroke-width:0.8;"/>
   </g>
  </g>
  <g id="axes_16">
   <g id="patch_203">
    <path d="M 337.085217 307.584 
L 414.72 307.584 
L 414.72 249.733565 
L 337.085217 249.733565 
z
" style="fill:#ffffff;"/>
   </g>
   <g id="patch_204">
    <path clip-path="url(#p80498c034e)" d="M 340.614071 307.584 
L 352.376917 307.584 
L 352.376917 267.957478 
L 340.614071 267.957478 
z
" style="fill:#aec7e8;"/>
   </g>
   <g id="patch_205">
    <path clip-path="url(#p80498c034e)" d="M 355.317628 307.584 
L 367.080474 307.584 
L 367.080474 303.119522 
L 355.317628 303.119522 
z
" style="fill:#aec7e8;"/>
   </g>
   <g id="patch_206">
    <path clip-path="url(#p80498c034e)" d="M 370.021186 307.584 
L 381.784032 307.584 
L 381.784032 302.23609 
L 370.021186 302.23609 
z
"/>
   </g>
   <g id="patch_207">
    <path clip-path="url(#p80498c034e)" d="M 384.724743 307.584 
L 396.487589 307.584 
L 396.487589 300.400688 
L 384.724743 300.400688 
z
"/>
   </g>
   <g id="patch_208">
    <path clip-path="url(#p80498c034e)" d="M 399.4283 307.584 
L 411.191146 307.584 
L 411.191146 303.783199 
L 399.4283 303.783199 
z
"/>
   </g>
   <g id="patch_209">
    <path clip-path="url(#p80498c034e)" d="M 340.614071 267.957478 
L 352.376917 267.957478 
L 352.376917 263.554531 
L 340.614071 263.554531 
z
" style="fill:#1f77b4;"/>
   </g>
   <g id="patch_210">
    <path clip-path="url(#p80498c034e)" d="M 355.317628 303.119522 
L 367.080474 303.119522 
L 367.080474 302.623469 
L 355.317628 302.623469 
z
"/>
   </g>
   <g id="patch_211">
    <path clip-path="url(#p80498c034e)" d="M 370.021186 302.23609 
L 381.784032 302.23609 
L 381.784032 301.641878 
L 370.021186 301.641878 
z
" style="fill:#aec7e8;"/>
   </g>
   <g id="patch_212">
    <path clip-path="url(#p80498c034e)" d="M 384.724743 300.400688 
L 396.487589 300.400688 
L 396.487589 299.602542 
L 384.724743 299.602542 
z
" style="fill:#1f77b4;"/>
   </g>
   <g id="patch_213">
    <path clip-path="url(#p80498c034e)" d="M 399.4283 303.783199 
L 411.191146 303.783199 
L 411.191146 303.360888 
L 399.4283 303.360888 
z
" style="fill:#1f77b4;"/>
   </g>
   <g id="matplotlib.axis_31"/>
   <g id="matplotlib.axis_32">
    <g id="ytick_31">
     <g id="line2d_31">
      <g>
       <use style="stroke:#000000;stroke-width:0.8;" x="337.085217" xlink:href="#mcc52603fe0" y="307.584"/>
      </g>
     </g>
    </g>
    <g id="ytick_32">
     <g id="line2d_32">
      <g>
       <use style="stroke:#000000;stroke-width:0.8;" x="337.085217" xlink:href="#mcc52603fe0" y="271.760855"/>
      </g>
     </g>
    </g>
   </g>
   <g id="patch_214">
    <path d="M 337.085217 307.584 
L 337.085217 249.733565 
" style="fill:none;stroke:#000000;stroke-linecap:square;stroke-linejoin:miter;stroke-width:0.8;"/>
   </g>
   <g id="patch_215">
    <path d="M 414.72 307.584 
L 414.72 249.733565 
" style="fill:none;stroke:#000000;stroke-linecap:square;stroke-linejoin:miter;stroke-width:0.8;"/>
   </g>
   <g id="patch_216">
    <path d="M 337.085217 307.584 
L 414.72 307.584 
" style="fill:none;stroke:#000000;stroke-linecap:square;stroke-linejoin:miter;stroke-width:0.8;"/>
   </g>
   <g id="patch_217">
    <path d="M 337.085217 249.733565 
L 414.72 249.733565 
" style="fill:none;stroke:#000000;stroke-linecap:square;stroke-linejoin:miter;stroke-width:0.8;"/>
   </g>
  </g>
  <g id="axes_17">
   <g id="matplotlib.axis_33">
    <g id="xtick_1">
     <g id="text_9">
      <!-- 0.0 -->
      <g style="opacity:0;" transform="translate(49.648438 322.182437)scale(0.1 -0.1)">
       <use xlink:href="#DejaVuSans-30"/>
       <use x="63.623047" xlink:href="#DejaVuSans-2e"/>
       <use x="95.410156" xlink:href="#DejaVuSans-30"/>
      </g>
     </g>
    </g>
    <g id="xtick_2">
     <g id="text_10">
      <!-- 0.2 -->
      <g style="opacity:0;" transform="translate(121.072438 322.182437)scale(0.1 -0.1)">
       <defs>
        <path d="M 1228 531 
L 3431 531 
L 3431 0 
L 469 0 
L 469 531 
Q 828 903 1448 1529 
Q 2069 2156 2228 2338 
Q 2531 2678 2651 2914 
Q 2772 3150 2772 3378 
Q 2772 3750 2511 3984 
Q 2250 4219 1831 4219 
Q 1534 4219 1204 4116 
Q 875 4013 500 3803 
L 500 4441 
Q 881 4594 1212 4672 
Q 1544 4750 1819 4750 
Q 2544 4750 2975 4387 
Q 3406 4025 3406 3419 
Q 3406 3131 3298 2873 
Q 3191 2616 2906 2266 
Q 2828 2175 2409 1742 
Q 1991 1309 1228 531 
z
" id="DejaVuSans-32" transform="scale(0.015625)"/>
       </defs>
       <use xlink:href="#DejaVuSans-30"/>
       <use x="63.623047" xlink:href="#DejaVuSans-2e"/>
       <use x="95.410156" xlink:href="#DejaVuSans-32"/>
      </g>
     </g>
    </g>
    <g id="xtick_3">
     <g id="text_11">
      <!-- 0.4 -->
      <g style="opacity:0;" transform="translate(192.496438 322.182437)scale(0.1 -0.1)">
       <defs>
        <path d="M 2419 4116 
L 825 1625 
L 2419 1625 
L 2419 4116 
z
M 2253 4666 
L 3047 4666 
L 3047 1625 
L 3713 1625 
L 3713 1100 
L 3047 1100 
L 3047 0 
L 2419 0 
L 2419 1100 
L 313 1100 
L 313 1709 
L 2253 4666 
z
" id="DejaVuSans-34" transform="scale(0.015625)"/>
       </defs>
       <use xlink:href="#DejaVuSans-30"/>
       <use x="63.623047" xlink:href="#DejaVuSans-2e"/>
       <use x="95.410156" xlink:href="#DejaVuSans-34"/>
      </g>
     </g>
    </g>
    <g id="xtick_4">
     <g id="text_12">
      <!-- 0.6 -->
      <g style="opacity:0;" transform="translate(263.920438 322.182437)scale(0.1 -0.1)">
       <defs>
        <path d="M 2113 2584 
Q 1688 2584 1439 2293 
Q 1191 2003 1191 1497 
Q 1191 994 1439 701 
Q 1688 409 2113 409 
Q 2538 409 2786 701 
Q 3034 994 3034 1497 
Q 3034 2003 2786 2293 
Q 2538 2584 2113 2584 
z
M 3366 4563 
L 3366 3988 
Q 3128 4100 2886 4159 
Q 2644 4219 2406 4219 
Q 1781 4219 1451 3797 
Q 1122 3375 1075 2522 
Q 1259 2794 1537 2939 
Q 1816 3084 2150 3084 
Q 2853 3084 3261 2657 
Q 3669 2231 3669 1497 
Q 3669 778 3244 343 
Q 2819 -91 2113 -91 
Q 1303 -91 875 529 
Q 447 1150 447 2328 
Q 447 3434 972 4092 
Q 1497 4750 2381 4750 
Q 2619 4750 2861 4703 
Q 3103 4656 3366 4563 
z
" id="DejaVuSans-36" transform="scale(0.015625)"/>
       </defs>
       <use xlink:href="#DejaVuSans-30"/>
       <use x="63.623047" xlink:href="#DejaVuSans-2e"/>
       <use x="95.410156" xlink:href="#DejaVuSans-36"/>
      </g>
     </g>
    </g>
    <g id="xtick_5">
     <g id="text_13">
      <!-- 0.8 -->
      <g style="opacity:0;" transform="translate(335.344438 322.182437)scale(0.1 -0.1)">
       <defs>
        <path d="M 2034 2216 
Q 1584 2216 1326 1975 
Q 1069 1734 1069 1313 
Q 1069 891 1326 650 
Q 1584 409 2034 409 
Q 2484 409 2743 651 
Q 3003 894 3003 1313 
Q 3003 1734 2745 1975 
Q 2488 2216 2034 2216 
z
M 1403 2484 
Q 997 2584 770 2862 
Q 544 3141 544 3541 
Q 544 4100 942 4425 
Q 1341 4750 2034 4750 
Q 2731 4750 3128 4425 
Q 3525 4100 3525 3541 
Q 3525 3141 3298 2862 
Q 3072 2584 2669 2484 
Q 3125 2378 3379 2068 
Q 3634 1759 3634 1313 
Q 3634 634 3220 271 
Q 2806 -91 2034 -91 
Q 1263 -91 848 271 
Q 434 634 434 1313 
Q 434 1759 690 2068 
Q 947 2378 1403 2484 
z
M 1172 3481 
Q 1172 3119 1398 2916 
Q 1625 2713 2034 2713 
Q 2441 2713 2670 2916 
Q 2900 3119 2900 3481 
Q 2900 3844 2670 4047 
Q 2441 4250 2034 4250 
Q 1625 4250 1398 4047 
Q 1172 3844 1172 3481 
z
" id="DejaVuSans-38" transform="scale(0.015625)"/>
       </defs>
       <use xlink:href="#DejaVuSans-30"/>
       <use x="63.623047" xlink:href="#DejaVuSans-2e"/>
       <use x="95.410156" xlink:href="#DejaVuSans-38"/>
      </g>
     </g>
    </g>
    <g id="xtick_6">
     <g id="text_14">
      <!-- 1.0 -->
      <g style="opacity:0;" transform="translate(406.768438 322.182437)scale(0.1 -0.1)">
       <defs>
        <path d="M 794 531 
L 1825 531 
L 1825 4091 
L 703 3866 
L 703 4441 
L 1819 4666 
L 2450 4666 
L 2450 531 
L 3481 531 
L 3481 0 
L 794 0 
L 794 531 
z
" id="DejaVuSans-31" transform="scale(0.015625)"/>
       </defs>
       <use xlink:href="#DejaVuSans-31"/>
       <use x="63.623047" xlink:href="#DejaVuSans-2e"/>
       <use x="95.410156" xlink:href="#DejaVuSans-30"/>
      </g>
     </g>
    </g>
   </g>
   <g id="matplotlib.axis_34">
    <g id="ytick_33">
     <g id="text_15">
      <!-- 0.0 -->
      <g style="opacity:0;" transform="translate(34.696875 311.383219)scale(0.1 -0.1)">
       <use xlink:href="#DejaVuSans-30"/>
       <use x="63.623047" xlink:href="#DejaVuSans-2e"/>
       <use x="95.410156" xlink:href="#DejaVuSans-30"/>
      </g>
     </g>
    </g>
    <g id="ytick_34">
     <g id="text_16">
      <!-- 0.2 -->
      <g style="opacity:0;" transform="translate(34.696875 258.160819)scale(0.1 -0.1)">
       <use xlink:href="#DejaVuSans-30"/>
       <use x="63.623047" xlink:href="#DejaVuSans-2e"/>
       <use x="95.410156" xlink:href="#DejaVuSans-32"/>
      </g>
     </g>
    </g>
    <g id="ytick_35">
     <g id="text_17">
      <!-- 0.4 -->
      <g style="opacity:0;" transform="translate(34.696875 204.938419)scale(0.1 -0.1)">
       <use xlink:href="#DejaVuSans-30"/>
       <use x="63.623047" xlink:href="#DejaVuSans-2e"/>
       <use x="95.410156" xlink:href="#DejaVuSans-34"/>
      </g>
     </g>
    </g>
    <g id="ytick_36">
     <g id="text_18">
      <!-- 0.6 -->
      <g style="opacity:0;" transform="translate(34.696875 151.716019)scale(0.1 -0.1)">
       <use xlink:href="#DejaVuSans-30"/>
       <use x="63.623047" xlink:href="#DejaVuSans-2e"/>
       <use x="95.410156" xlink:href="#DejaVuSans-36"/>
      </g>
     </g>
    </g>
    <g id="ytick_37">
     <g id="text_19">
      <!-- 0.8 -->
      <g style="opacity:0;" transform="translate(34.696875 98.493619)scale(0.1 -0.1)">
       <use xlink:href="#DejaVuSans-30"/>
       <use x="63.623047" xlink:href="#DejaVuSans-2e"/>
       <use x="95.410156" xlink:href="#DejaVuSans-38"/>
      </g>
     </g>
    </g>
    <g id="ytick_38">
     <g id="text_20">
      <!-- 1.0 -->
      <g style="opacity:0;" transform="translate(34.696875 45.271219)scale(0.1 -0.1)">
       <use xlink:href="#DejaVuSans-31"/>
       <use x="63.623047" xlink:href="#DejaVuSans-2e"/>
       <use x="95.410156" xlink:href="#DejaVuSans-30"/>
      </g>
     </g>
    </g>
    <g id="text_21">
     <!-- Pearsons correlation -->
     <g transform="translate(28.617187 225.410812)rotate(-90)scale(0.1 -0.1)">
      <defs>
       <path d="M 1259 4147 
L 1259 2394 
L 2053 2394 
Q 2494 2394 2734 2622 
Q 2975 2850 2975 3272 
Q 2975 3691 2734 3919 
Q 2494 4147 2053 4147 
L 1259 4147 
z
M 628 4666 
L 2053 4666 
Q 2838 4666 3239 4311 
Q 3641 3956 3641 3272 
Q 3641 2581 3239 2228 
Q 2838 1875 2053 1875 
L 1259 1875 
L 1259 0 
L 628 0 
L 628 4666 
z
" id="DejaVuSans-50" transform="scale(0.015625)"/>
       <path d="M 3597 1894 
L 3597 1613 
L 953 1613 
Q 991 1019 1311 708 
Q 1631 397 2203 397 
Q 2534 397 2845 478 
Q 3156 559 3463 722 
L 3463 178 
Q 3153 47 2828 -22 
Q 2503 -91 2169 -91 
Q 1331 -91 842 396 
Q 353 884 353 1716 
Q 353 2575 817 3079 
Q 1281 3584 2069 3584 
Q 2775 3584 3186 3129 
Q 3597 2675 3597 1894 
z
M 3022 2063 
Q 3016 2534 2758 2815 
Q 2500 3097 2075 3097 
Q 1594 3097 1305 2825 
Q 1016 2553 972 2059 
L 3022 2063 
z
" id="DejaVuSans-65" transform="scale(0.015625)"/>
       <path d="M 2194 1759 
Q 1497 1759 1228 1600 
Q 959 1441 959 1056 
Q 959 750 1161 570 
Q 1363 391 1709 391 
Q 2188 391 2477 730 
Q 2766 1069 2766 1631 
L 2766 1759 
L 2194 1759 
z
M 3341 1997 
L 3341 0 
L 2766 0 
L 2766 531 
Q 2569 213 2275 61 
Q 1981 -91 1556 -91 
Q 1019 -91 701 211 
Q 384 513 384 1019 
Q 384 1609 779 1909 
Q 1175 2209 1959 2209 
L 2766 2209 
L 2766 2266 
Q 2766 2663 2505 2880 
Q 2244 3097 1772 3097 
Q 1472 3097 1187 3025 
Q 903 2953 641 2809 
L 641 3341 
Q 956 3463 1253 3523 
Q 1550 3584 1831 3584 
Q 2591 3584 2966 3190 
Q 3341 2797 3341 1997 
z
" id="DejaVuSans-61" transform="scale(0.015625)"/>
       <path d="M 2631 2963 
Q 2534 3019 2420 3045 
Q 2306 3072 2169 3072 
Q 1681 3072 1420 2755 
Q 1159 2438 1159 1844 
L 1159 0 
L 581 0 
L 581 3500 
L 1159 3500 
L 1159 2956 
Q 1341 3275 1631 3429 
Q 1922 3584 2338 3584 
Q 2397 3584 2469 3576 
Q 2541 3569 2628 3553 
L 2631 2963 
z
" id="DejaVuSans-72" transform="scale(0.015625)"/>
       <path d="M 2834 3397 
L 2834 2853 
Q 2591 2978 2328 3040 
Q 2066 3103 1784 3103 
Q 1356 3103 1142 2972 
Q 928 2841 928 2578 
Q 928 2378 1081 2264 
Q 1234 2150 1697 2047 
L 1894 2003 
Q 2506 1872 2764 1633 
Q 3022 1394 3022 966 
Q 3022 478 2636 193 
Q 2250 -91 1575 -91 
Q 1294 -91 989 -36 
Q 684 19 347 128 
L 347 722 
Q 666 556 975 473 
Q 1284 391 1588 391 
Q 1994 391 2212 530 
Q 2431 669 2431 922 
Q 2431 1156 2273 1281 
Q 2116 1406 1581 1522 
L 1381 1569 
Q 847 1681 609 1914 
Q 372 2147 372 2553 
Q 372 3047 722 3315 
Q 1072 3584 1716 3584 
Q 2034 3584 2315 3537 
Q 2597 3491 2834 3397 
z
" id="DejaVuSans-73" transform="scale(0.015625)"/>
       <path d="M 1959 3097 
Q 1497 3097 1228 2736 
Q 959 2375 959 1747 
Q 959 1119 1226 758 
Q 1494 397 1959 397 
Q 2419 397 2687 759 
Q 2956 1122 2956 1747 
Q 2956 2369 2687 2733 
Q 2419 3097 1959 3097 
z
M 1959 3584 
Q 2709 3584 3137 3096 
Q 3566 2609 3566 1747 
Q 3566 888 3137 398 
Q 2709 -91 1959 -91 
Q 1206 -91 779 398 
Q 353 888 353 1747 
Q 353 2609 779 3096 
Q 1206 3584 1959 3584 
z
" id="DejaVuSans-6f" transform="scale(0.015625)"/>
       <path d="M 3513 2113 
L 3513 0 
L 2938 0 
L 2938 2094 
Q 2938 2591 2744 2837 
Q 2550 3084 2163 3084 
Q 1697 3084 1428 2787 
Q 1159 2491 1159 1978 
L 1159 0 
L 581 0 
L 581 3500 
L 1159 3500 
L 1159 2956 
Q 1366 3272 1645 3428 
Q 1925 3584 2291 3584 
Q 2894 3584 3203 3211 
Q 3513 2838 3513 2113 
z
" id="DejaVuSans-6e" transform="scale(0.015625)"/>
       <path id="DejaVuSans-20" transform="scale(0.015625)"/>
       <path d="M 3122 3366 
L 3122 2828 
Q 2878 2963 2633 3030 
Q 2388 3097 2138 3097 
Q 1578 3097 1268 2742 
Q 959 2388 959 1747 
Q 959 1106 1268 751 
Q 1578 397 2138 397 
Q 2388 397 2633 464 
Q 2878 531 3122 666 
L 3122 134 
Q 2881 22 2623 -34 
Q 2366 -91 2075 -91 
Q 1284 -91 818 406 
Q 353 903 353 1747 
Q 353 2603 823 3093 
Q 1294 3584 2113 3584 
Q 2378 3584 2631 3529 
Q 2884 3475 3122 3366 
z
" id="DejaVuSans-63" transform="scale(0.015625)"/>
       <path d="M 603 4863 
L 1178 4863 
L 1178 0 
L 603 0 
L 603 4863 
z
" id="DejaVuSans-6c" transform="scale(0.015625)"/>
       <path d="M 1172 4494 
L 1172 3500 
L 2356 3500 
L 2356 3053 
L 1172 3053 
L 1172 1153 
Q 1172 725 1289 603 
Q 1406 481 1766 481 
L 2356 481 
L 2356 0 
L 1766 0 
Q 1100 0 847 248 
Q 594 497 594 1153 
L 594 3053 
L 172 3053 
L 172 3500 
L 594 3500 
L 594 4494 
L 1172 4494 
z
" id="DejaVuSans-74" transform="scale(0.015625)"/>
       <path d="M 603 3500 
L 1178 3500 
L 1178 0 
L 603 0 
L 603 3500 
z
M 603 4863 
L 1178 4863 
L 1178 4134 
L 603 4134 
L 603 4863 
z
" id="DejaVuSans-69" transform="scale(0.015625)"/>
      </defs>
      <use xlink:href="#DejaVuSans-50"/>
      <use x="56.677734" xlink:href="#DejaVuSans-65"/>
      <use x="118.201172" xlink:href="#DejaVuSans-61"/>
      <use x="179.480469" xlink:href="#DejaVuSans-72"/>
      <use x="220.59375" xlink:href="#DejaVuSans-73"/>
      <use x="272.693359" xlink:href="#DejaVuSans-6f"/>
      <use x="333.875" xlink:href="#DejaVuSans-6e"/>
      <use x="397.253906" xlink:href="#DejaVuSans-73"/>
      <use x="449.353516" xlink:href="#DejaVuSans-20"/>
      <use x="481.140625" xlink:href="#DejaVuSans-63"/>
      <use x="536.121094" xlink:href="#DejaVuSans-6f"/>
      <use x="597.302734" xlink:href="#DejaVuSans-72"/>
      <use x="636.666016" xlink:href="#DejaVuSans-72"/>
      <use x="675.529297" xlink:href="#DejaVuSans-65"/>
      <use x="737.052734" xlink:href="#DejaVuSans-6c"/>
      <use x="764.835938" xlink:href="#DejaVuSans-61"/>
      <use x="826.115234" xlink:href="#DejaVuSans-74"/>
      <use x="865.324219" xlink:href="#DejaVuSans-69"/>
      <use x="893.107422" xlink:href="#DejaVuSans-6f"/>
      <use x="954.289062" xlink:href="#DejaVuSans-6e"/>
     </g>
    </g>
   </g>
  </g>
  <g id="legend_1">
   <g id="patch_218">
    <path d="M 592.645 103.2725 
L 640.12 103.2725 
Q 642.12 103.2725 642.12 101.2725 
L 642.12 43.56 
Q 642.12 41.56 640.12 41.56 
L 592.645 41.56 
Q 590.645 41.56 590.645 43.56 
L 590.645 101.2725 
Q 590.645 103.2725 592.645 103.2725 
z
" style="fill:#4c4c4c;opacity:0.5;stroke:#4c4c4c;stroke-linejoin:miter;"/>
   </g>
   <g id="patch_219">
    <path d="M 590.645 101.2725 
L 638.12 101.2725 
Q 640.12 101.2725 640.12 99.2725 
L 640.12 41.56 
Q 640.12 39.56 638.12 39.56 
L 590.645 39.56 
Q 588.645 39.56 588.645 41.56 
L 588.645 99.2725 
Q 588.645 101.2725 590.645 101.2725 
z
" style="fill:#ffffff;stroke:#cccccc;stroke-linejoin:miter;"/>
   </g>
   <g id="patch_220">
    <path d="M 592.645 51.158437 
L 612.645 51.158437 
L 612.645 44.158437 
L 592.645 44.158437 
z
" style="stroke:#000000;stroke-linejoin:miter;"/>
   </g>
   <g id="text_22">
    <!-- big -->
    <g transform="translate(620.645 51.158437)scale(0.1 -0.1)">
     <defs>
      <path d="M 3116 1747 
Q 3116 2381 2855 2742 
Q 2594 3103 2138 3103 
Q 1681 3103 1420 2742 
Q 1159 2381 1159 1747 
Q 1159 1113 1420 752 
Q 1681 391 2138 391 
Q 2594 391 2855 752 
Q 3116 1113 3116 1747 
z
M 1159 2969 
Q 1341 3281 1617 3432 
Q 1894 3584 2278 3584 
Q 2916 3584 3314 3078 
Q 3713 2572 3713 1747 
Q 3713 922 3314 415 
Q 2916 -91 2278 -91 
Q 1894 -91 1617 61 
Q 1341 213 1159 525 
L 1159 0 
L 581 0 
L 581 4863 
L 1159 4863 
L 1159 2969 
z
" id="DejaVuSans-62" transform="scale(0.015625)"/>
      <path d="M 2906 1791 
Q 2906 2416 2648 2759 
Q 2391 3103 1925 3103 
Q 1463 3103 1205 2759 
Q 947 2416 947 1791 
Q 947 1169 1205 825 
Q 1463 481 1925 481 
Q 2391 481 2648 825 
Q 2906 1169 2906 1791 
z
M 3481 434 
Q 3481 -459 3084 -895 
Q 2688 -1331 1869 -1331 
Q 1566 -1331 1297 -1286 
Q 1028 -1241 775 -1147 
L 775 -588 
Q 1028 -725 1275 -790 
Q 1522 -856 1778 -856 
Q 2344 -856 2625 -561 
Q 2906 -266 2906 331 
L 2906 616 
Q 2728 306 2450 153 
Q 2172 0 1784 0 
Q 1141 0 747 490 
Q 353 981 353 1791 
Q 353 2603 747 3093 
Q 1141 3584 1784 3584 
Q 2172 3584 2450 3431 
Q 2728 3278 2906 2969 
L 2906 3500 
L 3481 3500 
L 3481 434 
z
" id="DejaVuSans-67" transform="scale(0.015625)"/>
     </defs>
     <use xlink:href="#DejaVuSans-62"/>
     <use x="63.476562" xlink:href="#DejaVuSans-69"/>
     <use x="91.259766" xlink:href="#DejaVuSans-67"/>
    </g>
   </g>
   <g id="patch_221">
    <path d="M 592.645 65.836563 
L 612.645 65.836563 
L 612.645 58.836563 
L 592.645 58.836563 
z
" style="fill:#1f77b4;stroke:#1f77b4;stroke-linejoin:miter;"/>
   </g>
   <g id="text_23">
    <!-- 3 -->
    <g transform="translate(620.645 65.836563)scale(0.1 -0.1)">
     <defs>
      <path d="M 2597 2516 
Q 3050 2419 3304 2112 
Q 3559 1806 3559 1356 
Q 3559 666 3084 287 
Q 2609 -91 1734 -91 
Q 1441 -91 1130 -33 
Q 819 25 488 141 
L 488 750 
Q 750 597 1062 519 
Q 1375 441 1716 441 
Q 2309 441 2620 675 
Q 2931 909 2931 1356 
Q 2931 1769 2642 2001 
Q 2353 2234 1838 2234 
L 1294 2234 
L 1294 2753 
L 1863 2753 
Q 2328 2753 2575 2939 
Q 2822 3125 2822 3475 
Q 2822 3834 2567 4026 
Q 2313 4219 1838 4219 
Q 1578 4219 1281 4162 
Q 984 4106 628 3988 
L 628 4550 
Q 988 4650 1302 4700 
Q 1616 4750 1894 4750 
Q 2613 4750 3031 4423 
Q 3450 4097 3450 3541 
Q 3450 3153 3228 2886 
Q 3006 2619 2597 2516 
z
" id="DejaVuSans-33" transform="scale(0.015625)"/>
     </defs>
     <use xlink:href="#DejaVuSans-33"/>
    </g>
   </g>
   <g id="patch_222">
    <path d="M 592.645 80.514687 
L 612.645 80.514687 
L 612.645 73.514687 
L 592.645 73.514687 
z
" style="fill:#aec7e8;stroke:#aec7e8;stroke-linejoin:miter;"/>
   </g>
   <g id="text_24">
    <!-- 1 -->
    <g transform="translate(620.645 80.514687)scale(0.1 -0.1)">
     <use xlink:href="#DejaVuSans-31"/>
    </g>
   </g>
   <g id="patch_223">
    <path d="M 592.645 95.192813 
L 612.645 95.192813 
L 612.645 88.192813 
L 592.645 88.192813 
z
" style="fill:#ff7f0e;stroke:#ff7f0e;stroke-linejoin:miter;"/>
   </g>
   <g id="text_25">
    <!-- 2 -->
    <g transform="translate(620.645 95.192813)scale(0.1 -0.1)">
     <use xlink:href="#DejaVuSans-32"/>
    </g>
   </g>
  </g>
 </g>
 <defs>
  <clipPath id="p39fc078608">
   <rect height="57.850435" width="77.634783" x="57.6" y="41.472"/>
  </clipPath>
  <clipPath id="p87d1b441a0">
   <rect height="57.850435" width="77.634783" x="150.761739" y="41.472"/>
  </clipPath>
  <clipPath id="p6c4874637c">
   <rect height="57.850435" width="77.634783" x="243.923478" y="41.472"/>
  </clipPath>
  <clipPath id="p27c9166c03">
   <rect height="57.850435" width="77.634783" x="337.085217" y="41.472"/>
  </clipPath>
  <clipPath id="p92578d2693">
   <rect height="57.850435" width="77.634783" x="57.6" y="110.892522"/>
  </clipPath>
  <clipPath id="pc4218d6837">
   <rect height="57.850435" width="77.634783" x="150.761739" y="110.892522"/>
  </clipPath>
  <clipPath id="p26c7342658">
   <rect height="57.850435" width="77.634783" x="243.923478" y="110.892522"/>
  </clipPath>
  <clipPath id="p29e9f15168">
   <rect height="57.850435" width="77.634783" x="337.085217" y="110.892522"/>
  </clipPath>
  <clipPath id="p6686592da9">
   <rect height="57.850435" width="77.634783" x="57.6" y="180.313043"/>
  </clipPath>
  <clipPath id="p78c9a94cb1">
   <rect height="57.850435" width="77.634783" x="150.761739" y="180.313043"/>
  </clipPath>
  <clipPath id="pb9d069d89d">
   <rect height="57.850435" width="77.634783" x="243.923478" y="180.313043"/>
  </clipPath>
  <clipPath id="p12e6f77e19">
   <rect height="57.850435" width="77.634783" x="337.085217" y="180.313043"/>
  </clipPath>
  <clipPath id="pca03478397">
   <rect height="57.850435" width="77.634783" x="57.6" y="249.733565"/>
  </clipPath>
  <clipPath id="pc66ff1818d">
   <rect height="57.850435" width="77.634783" x="150.761739" y="249.733565"/>
  </clipPath>
  <clipPath id="p75c89bb7c2">
   <rect height="57.850435" width="77.634783" x="243.923478" y="249.733565"/>
  </clipPath>
  <clipPath id="p80498c034e">
   <rect height="57.850435" width="77.634783" x="337.085217" y="249.733565"/>
  </clipPath>
 </defs>
</svg>
