<?xml version="1.0" encoding="utf-8" standalone="no"?>
<!DOCTYPE svg PUBLIC "-//W3C//DTD SVG 1.1//EN"
  "http://www.w3.org/Graphics/SVG/1.1/DTD/svg11.dtd">
<svg height="345.6pt" version="1.1" viewBox="0 0 460.8 345.6" width="460.8pt" xmlns="http://www.w3.org/2000/svg" xmlns:xlink="http://www.w3.org/1999/xlink">
 <metadata>
  <rdf:RDF xmlns:cc="http://creativecommons.org/ns#" xmlns:dc="http://purl.org/dc/elements/1.1/" xmlns:rdf="http://www.w3.org/1999/02/22-rdf-syntax-ns#">
   <cc:Work>
    <dc:type rdf:resource="http://purl.org/dc/dcmitype/StillImage"/>
    <dc:date>2021-11-23T22:15:31.129584</dc:date>
    <dc:format>image/svg+xml</dc:format>
    <dc:creator>
     <cc:Agent>
      <dc:title>Matplotlib v3.4.3, https://matplotlib.org/</dc:title>
     </cc:Agent>
    </dc:creator>
   </cc:Work>
  </rdf:RDF>
 </metadata>
 <defs>
  <style type="text/css">*{stroke-linecap:butt;stroke-linejoin:round;}</style>
 </defs>
 <g id="figure_1">
  <g id="patch_1">
   <path d="M 0 345.6 
L 460.8 345.6 
L 460.8 0 
L 0 0 
z
" style="fill:#ffffff;"/>
  </g>
  <g id="axes_1">
   <g id="patch_2">
    <path d="M 51.05 317.72 
L 442.035 317.72 
L 442.035 25.44 
L 51.05 25.44 
z
" style="fill:#ffffff;"/>
   </g>
   <g id="patch_3">
    <path clip-path="url(#pc887a72494)" d="M 51.05 317.72 
L 59.195521 317.72 
L 59.195521 317.72 
L 51.05 317.72 
z
" style="fill:#ff0000;fill-opacity:0.5;stroke:#000000;stroke-linejoin:miter;stroke-width:0.740502;"/>
   </g>
   <g id="patch_4">
    <path clip-path="url(#pc887a72494)" d="M 59.195521 317.72 
L 67.341042 317.72 
L 67.341042 317.72 
L 59.195521 317.72 
z
" style="fill:#ff0000;fill-opacity:0.5;stroke:#000000;stroke-linejoin:miter;stroke-width:0.740502;"/>
   </g>
   <g id="patch_5">
    <path clip-path="url(#pc887a72494)" d="M 67.341042 317.72 
L 75.486563 317.72 
L 75.486563 317.72 
L 67.341042 317.72 
z
" style="fill:#ff0000;fill-opacity:0.5;stroke:#000000;stroke-linejoin:miter;stroke-width:0.740502;"/>
   </g>
   <g id="patch_6">
    <path clip-path="url(#pc887a72494)" d="M 75.486563 317.72 
L 83.632083 317.72 
L 83.632083 317.72 
L 75.486563 317.72 
z
" style="fill:#ff0000;fill-opacity:0.5;stroke:#000000;stroke-linejoin:miter;stroke-width:0.740502;"/>
   </g>
   <g id="patch_7">
    <path clip-path="url(#pc887a72494)" d="M 83.632083 317.72 
L 91.777604 317.72 
L 91.777604 317.72 
L 83.632083 317.72 
z
" style="fill:#ff0000;fill-opacity:0.5;stroke:#000000;stroke-linejoin:miter;stroke-width:0.740502;"/>
   </g>
   <g id="patch_8">
    <path clip-path="url(#pc887a72494)" d="M 91.777604 317.72 
L 99.923125 317.72 
L 99.923125 317.72 
L 91.777604 317.72 
z
" style="fill:#ff0000;fill-opacity:0.5;stroke:#000000;stroke-linejoin:miter;stroke-width:0.740502;"/>
   </g>
   <g id="patch_9">
    <path clip-path="url(#pc887a72494)" d="M 99.923125 317.72 
L 108.068646 317.72 
L 108.068646 317.72 
L 99.923125 317.72 
z
" style="fill:#ff0000;fill-opacity:0.5;stroke:#000000;stroke-linejoin:miter;stroke-width:0.740502;"/>
   </g>
   <g id="patch_10">
    <path clip-path="url(#pc887a72494)" d="M 108.068646 317.72 
L 116.214167 317.72 
L 116.214167 317.72 
L 108.068646 317.72 
z
" style="fill:#ff0000;fill-opacity:0.5;stroke:#000000;stroke-linejoin:miter;stroke-width:0.740502;"/>
   </g>
   <g id="patch_11">
    <path clip-path="url(#pc887a72494)" d="M 116.214167 317.72 
L 124.359688 317.72 
L 124.359688 317.72 
L 116.214167 317.72 
z
" style="fill:#ff0000;fill-opacity:0.5;stroke:#000000;stroke-linejoin:miter;stroke-width:0.740502;"/>
   </g>
   <g id="patch_12">
    <path clip-path="url(#pc887a72494)" d="M 124.359688 317.72 
L 132.505208 317.72 
L 132.505208 317.72 
L 124.359688 317.72 
z
" style="fill:#ff0000;fill-opacity:0.5;stroke:#000000;stroke-linejoin:miter;stroke-width:0.740502;"/>
   </g>
   <g id="patch_13">
    <path clip-path="url(#pc887a72494)" d="M 132.505208 317.72 
L 140.650729 317.72 
L 140.650729 317.72 
L 132.505208 317.72 
z
" style="fill:#ff0000;fill-opacity:0.5;stroke:#000000;stroke-linejoin:miter;stroke-width:0.740502;"/>
   </g>
   <g id="patch_14">
    <path clip-path="url(#pc887a72494)" d="M 140.650729 317.72 
L 148.79625 317.72 
L 148.79625 317.72 
L 140.650729 317.72 
z
" style="fill:#ff0000;fill-opacity:0.5;stroke:#000000;stroke-linejoin:miter;stroke-width:0.740502;"/>
   </g>
   <g id="patch_15">
    <path clip-path="url(#pc887a72494)" d="M 148.79625 317.72 
L 156.941771 317.72 
L 156.941771 317.72 
L 148.79625 317.72 
z
" style="fill:#ff0000;fill-opacity:0.5;stroke:#000000;stroke-linejoin:miter;stroke-width:0.740502;"/>
   </g>
   <g id="patch_16">
    <path clip-path="url(#pc887a72494)" d="M 156.941771 317.72 
L 165.087292 317.72 
L 165.087292 317.72 
L 156.941771 317.72 
z
" style="fill:#ff0000;fill-opacity:0.5;stroke:#000000;stroke-linejoin:miter;stroke-width:0.740502;"/>
   </g>
   <g id="patch_17">
    <path clip-path="url(#pc887a72494)" d="M 165.087292 317.72 
L 173.232812 317.72 
L 173.232812 317.72 
L 165.087292 317.72 
z
" style="fill:#ff0000;fill-opacity:0.5;stroke:#000000;stroke-linejoin:miter;stroke-width:0.740502;"/>
   </g>
   <g id="patch_18">
    <path clip-path="url(#pc887a72494)" d="M 173.232812 317.72 
L 181.378333 317.72 
L 181.378333 317.72 
L 173.232812 317.72 
z
" style="fill:#ff0000;fill-opacity:0.5;stroke:#000000;stroke-linejoin:miter;stroke-width:0.740502;"/>
   </g>
   <g id="patch_19">
    <path clip-path="url(#pc887a72494)" d="M 181.378333 317.72 
L 189.523854 317.72 
L 189.523854 317.72 
L 181.378333 317.72 
z
" style="fill:#ff0000;fill-opacity:0.5;stroke:#000000;stroke-linejoin:miter;stroke-width:0.740502;"/>
   </g>
   <g id="patch_20">
    <path clip-path="url(#pc887a72494)" d="M 189.523854 317.72 
L 197.669375 317.72 
L 197.669375 317.72 
L 189.523854 317.72 
z
" style="fill:#ff0000;fill-opacity:0.5;stroke:#000000;stroke-linejoin:miter;stroke-width:0.740502;"/>
   </g>
   <g id="patch_21">
    <path clip-path="url(#pc887a72494)" d="M 197.669375 317.72 
L 205.814896 317.72 
L 205.814896 317.72 
L 197.669375 317.72 
z
" style="fill:#ff0000;fill-opacity:0.5;stroke:#000000;stroke-linejoin:miter;stroke-width:0.740502;"/>
   </g>
   <g id="patch_22">
    <path clip-path="url(#pc887a72494)" d="M 205.814896 317.72 
L 213.960417 317.72 
L 213.960417 317.72 
L 205.814896 317.72 
z
" style="fill:#ff0000;fill-opacity:0.5;stroke:#000000;stroke-linejoin:miter;stroke-width:0.740502;"/>
   </g>
   <g id="patch_23">
    <path clip-path="url(#pc887a72494)" d="M 213.960417 317.72 
L 222.105937 317.72 
L 222.105937 317.72 
L 213.960417 317.72 
z
" style="fill:#ff0000;fill-opacity:0.5;stroke:#000000;stroke-linejoin:miter;stroke-width:0.740502;"/>
   </g>
   <g id="patch_24">
    <path clip-path="url(#pc887a72494)" d="M 222.105937 317.72 
L 230.251458 317.72 
L 230.251458 317.72 
L 222.105937 317.72 
z
" style="fill:#ff0000;fill-opacity:0.5;stroke:#000000;stroke-linejoin:miter;stroke-width:0.740502;"/>
   </g>
   <g id="patch_25">
    <path clip-path="url(#pc887a72494)" d="M 230.251458 317.72 
L 238.396979 317.72 
L 238.396979 317.72 
L 230.251458 317.72 
z
" style="fill:#ff0000;fill-opacity:0.5;stroke:#000000;stroke-linejoin:miter;stroke-width:0.740502;"/>
   </g>
   <g id="patch_26">
    <path clip-path="url(#pc887a72494)" d="M 238.396979 317.72 
L 246.5425 317.72 
L 246.5425 317.72 
L 238.396979 317.72 
z
" style="fill:#ff0000;fill-opacity:0.5;stroke:#000000;stroke-linejoin:miter;stroke-width:0.740502;"/>
   </g>
   <g id="patch_27">
    <path clip-path="url(#pc887a72494)" d="M 246.5425 317.72 
L 254.688021 317.72 
L 254.688021 317.72 
L 246.5425 317.72 
z
" style="fill:#ff0000;fill-opacity:0.5;stroke:#000000;stroke-linejoin:miter;stroke-width:0.740502;"/>
   </g>
   <g id="patch_28">
    <path clip-path="url(#pc887a72494)" d="M 254.688021 317.72 
L 262.833542 317.72 
L 262.833542 317.72 
L 254.688021 317.72 
z
" style="fill:#ff0000;fill-opacity:0.5;stroke:#000000;stroke-linejoin:miter;stroke-width:0.740502;"/>
   </g>
   <g id="patch_29">
    <path clip-path="url(#pc887a72494)" d="M 262.833542 317.72 
L 270.979062 317.72 
L 270.979062 317.72 
L 262.833542 317.72 
z
" style="fill:#ff0000;fill-opacity:0.5;stroke:#000000;stroke-linejoin:miter;stroke-width:0.740502;"/>
   </g>
   <g id="patch_30">
    <path clip-path="url(#pc887a72494)" d="M 270.979062 317.72 
L 279.124583 317.72 
L 279.124583 317.72 
L 270.979062 317.72 
z
" style="fill:#ff0000;fill-opacity:0.5;stroke:#000000;stroke-linejoin:miter;stroke-width:0.740502;"/>
   </g>
   <g id="patch_31">
    <path clip-path="url(#pc887a72494)" d="M 279.124583 317.72 
L 287.270104 317.72 
L 287.270104 317.72 
L 279.124583 317.72 
z
" style="fill:#ff0000;fill-opacity:0.5;stroke:#000000;stroke-linejoin:miter;stroke-width:0.740502;"/>
   </g>
   <g id="patch_32">
    <path clip-path="url(#pc887a72494)" d="M 287.270104 317.72 
L 295.415625 317.72 
L 295.415625 317.72 
L 287.270104 317.72 
z
" style="fill:#ff0000;fill-opacity:0.5;stroke:#000000;stroke-linejoin:miter;stroke-width:0.740502;"/>
   </g>
   <g id="patch_33">
    <path clip-path="url(#pc887a72494)" d="M 295.415625 317.72 
L 303.561146 317.72 
L 303.561146 317.72 
L 295.415625 317.72 
z
" style="fill:#ff0000;fill-opacity:0.5;stroke:#000000;stroke-linejoin:miter;stroke-width:0.740502;"/>
   </g>
   <g id="patch_34">
    <path clip-path="url(#pc887a72494)" d="M 303.561146 317.72 
L 311.706667 317.72 
L 311.706667 317.72 
L 303.561146 317.72 
z
" style="fill:#ff0000;fill-opacity:0.5;stroke:#000000;stroke-linejoin:miter;stroke-width:0.740502;"/>
   </g>
   <g id="patch_35">
    <path clip-path="url(#pc887a72494)" d="M 311.706667 317.72 
L 319.852188 317.72 
L 319.852188 317.72 
L 311.706667 317.72 
z
" style="fill:#ff0000;fill-opacity:0.5;stroke:#000000;stroke-linejoin:miter;stroke-width:0.740502;"/>
   </g>
   <g id="patch_36">
    <path clip-path="url(#pc887a72494)" d="M 319.852187 317.72 
L 327.997708 317.72 
L 327.997708 317.72 
L 319.852187 317.72 
z
" style="fill:#ff0000;fill-opacity:0.5;stroke:#000000;stroke-linejoin:miter;stroke-width:0.740502;"/>
   </g>
   <g id="patch_37">
    <path clip-path="url(#pc887a72494)" d="M 327.997708 317.72 
L 336.143229 317.72 
L 336.143229 317.72 
L 327.997708 317.72 
z
" style="fill:#ff0000;fill-opacity:0.5;stroke:#000000;stroke-linejoin:miter;stroke-width:0.740502;"/>
   </g>
   <g id="patch_38">
    <path clip-path="url(#pc887a72494)" d="M 336.143229 317.72 
L 344.28875 317.72 
L 344.28875 317.72 
L 336.143229 317.72 
z
" style="fill:#ff0000;fill-opacity:0.5;stroke:#000000;stroke-linejoin:miter;stroke-width:0.740502;"/>
   </g>
   <g id="patch_39">
    <path clip-path="url(#pc887a72494)" d="M 344.28875 317.72 
L 352.434271 317.72 
L 352.434271 317.72 
L 344.28875 317.72 
z
" style="fill:#ff0000;fill-opacity:0.5;stroke:#000000;stroke-linejoin:miter;stroke-width:0.740502;"/>
   </g>
   <g id="patch_40">
    <path clip-path="url(#pc887a72494)" d="M 352.434271 317.72 
L 360.579792 317.72 
L 360.579792 317.72 
L 352.434271 317.72 
z
" style="fill:#ff0000;fill-opacity:0.5;stroke:#000000;stroke-linejoin:miter;stroke-width:0.740502;"/>
   </g>
   <g id="patch_41">
    <path clip-path="url(#pc887a72494)" d="M 360.579792 317.72 
L 368.725312 317.72 
L 368.725312 317.72 
L 360.579792 317.72 
z
" style="fill:#ff0000;fill-opacity:0.5;stroke:#000000;stroke-linejoin:miter;stroke-width:0.740502;"/>
   </g>
   <g id="patch_42">
    <path clip-path="url(#pc887a72494)" d="M 368.725312 317.72 
L 376.870833 317.72 
L 376.870833 317.72 
L 368.725312 317.72 
z
" style="fill:#ff0000;fill-opacity:0.5;stroke:#000000;stroke-linejoin:miter;stroke-width:0.740502;"/>
   </g>
   <g id="patch_43">
    <path clip-path="url(#pc887a72494)" d="M 376.870833 317.72 
L 385.016354 317.72 
L 385.016354 317.72 
L 376.870833 317.72 
z
" style="fill:#ff0000;fill-opacity:0.5;stroke:#000000;stroke-linejoin:miter;stroke-width:0.740502;"/>
   </g>
   <g id="patch_44">
    <path clip-path="url(#pc887a72494)" d="M 385.016354 317.72 
L 393.161875 317.72 
L 393.161875 317.72 
L 385.016354 317.72 
z
" style="fill:#ff0000;fill-opacity:0.5;stroke:#000000;stroke-linejoin:miter;stroke-width:0.740502;"/>
   </g>
   <g id="patch_45">
    <path clip-path="url(#pc887a72494)" d="M 393.161875 317.72 
L 401.307396 317.72 
L 401.307396 315.278229 
L 393.161875 315.278229 
z
" style="fill:#ff0000;fill-opacity:0.5;stroke:#000000;stroke-linejoin:miter;stroke-width:0.740502;"/>
   </g>
   <g id="patch_46">
    <path clip-path="url(#pc887a72494)" d="M 401.307396 317.72 
L 409.452917 317.72 
L 409.452917 317.72 
L 401.307396 317.72 
z
" style="fill:#ff0000;fill-opacity:0.5;stroke:#000000;stroke-linejoin:miter;stroke-width:0.740502;"/>
   </g>
   <g id="patch_47">
    <path clip-path="url(#pc887a72494)" d="M 409.452917 317.72 
L 417.598437 317.72 
L 417.598437 317.72 
L 409.452917 317.72 
z
" style="fill:#ff0000;fill-opacity:0.5;stroke:#000000;stroke-linejoin:miter;stroke-width:0.740502;"/>
   </g>
   <g id="patch_48">
    <path clip-path="url(#pc887a72494)" d="M 417.598437 317.72 
L 425.743958 317.72 
L 425.743958 317.72 
L 417.598437 317.72 
z
" style="fill:#ff0000;fill-opacity:0.5;stroke:#000000;stroke-linejoin:miter;stroke-width:0.740502;"/>
   </g>
   <g id="patch_49">
    <path clip-path="url(#pc887a72494)" d="M 425.743958 317.72 
L 433.889479 317.72 
L 433.889479 315.278229 
L 425.743958 315.278229 
z
" style="fill:#ff0000;fill-opacity:0.5;stroke:#000000;stroke-linejoin:miter;stroke-width:0.740502;"/>
   </g>
   <g id="patch_50">
    <path clip-path="url(#pc887a72494)" d="M 433.889479 317.72 
L 442.035 317.72 
L 442.035 305.511145 
L 433.889479 305.511145 
z
" style="fill:#ff0000;fill-opacity:0.5;stroke:#000000;stroke-linejoin:miter;stroke-width:0.740502;"/>
   </g>
   <g id="patch_51">
    <path clip-path="url(#pc887a72494)" d="M 51.05 317.72 
L 90.1485 317.72 
L 90.1485 317.72 
L 51.05 317.72 
z
" style="fill:#0000ff;fill-opacity:0.5;stroke:#000000;stroke-linejoin:miter;"/>
   </g>
   <g id="patch_52">
    <path clip-path="url(#pc887a72494)" d="M 90.1485 317.72 
L 129.247 317.72 
L 129.247 281.093434 
L 90.1485 281.093434 
z
" style="fill:#0000ff;fill-opacity:0.5;stroke:#000000;stroke-linejoin:miter;"/>
   </g>
   <g id="patch_53">
    <path clip-path="url(#pc887a72494)" d="M 129.247 317.72 
L 168.3455 317.72 
L 168.3455 249.350409 
L 129.247 249.350409 
z
" style="fill:#0000ff;fill-opacity:0.5;stroke:#000000;stroke-linejoin:miter;"/>
   </g>
   <g id="patch_54">
    <path clip-path="url(#pc887a72494)" d="M 168.3455 317.72 
L 207.444 317.72 
L 207.444 271.326349 
L 168.3455 271.326349 
z
" style="fill:#0000ff;fill-opacity:0.5;stroke:#000000;stroke-linejoin:miter;"/>
   </g>
   <g id="patch_55">
    <path clip-path="url(#pc887a72494)" d="M 207.444 317.72 
L 246.5425 317.72 
L 246.5425 256.675723 
L 207.444 256.675723 
z
" style="fill:#0000ff;fill-opacity:0.5;stroke:#000000;stroke-linejoin:miter;"/>
   </g>
   <g id="patch_56">
    <path clip-path="url(#pc887a72494)" d="M 246.5425 317.72 
L 285.641 317.72 
L 285.641 281.093434 
L 246.5425 281.093434 
z
" style="fill:#0000ff;fill-opacity:0.5;stroke:#000000;stroke-linejoin:miter;"/>
   </g>
   <g id="patch_57">
    <path clip-path="url(#pc887a72494)" d="M 285.641 317.72 
L 324.7395 317.72 
L 324.7395 264.001036 
L 285.641 264.001036 
z
" style="fill:#0000ff;fill-opacity:0.5;stroke:#000000;stroke-linejoin:miter;"/>
   </g>
   <g id="patch_58">
    <path clip-path="url(#pc887a72494)" d="M 324.7395 317.72 
L 363.838 317.72 
L 363.838 271.326349 
L 324.7395 271.326349 
z
" style="fill:#0000ff;fill-opacity:0.5;stroke:#000000;stroke-linejoin:miter;"/>
   </g>
   <g id="patch_59">
    <path clip-path="url(#pc887a72494)" d="M 363.838 317.72 
L 402.9365 317.72 
L 402.9365 234.699783 
L 363.838 234.699783 
z
" style="fill:#0000ff;fill-opacity:0.5;stroke:#000000;stroke-linejoin:miter;"/>
   </g>
   <g id="patch_60">
    <path clip-path="url(#pc887a72494)" d="M 402.9365 317.72 
L 442.035 317.72 
L 442.035 39.358095 
L 402.9365 39.358095 
z
" style="fill:#0000ff;fill-opacity:0.5;stroke:#000000;stroke-linejoin:miter;"/>
   </g>
   <g id="matplotlib.axis_1">
    <g id="xtick_1">
     <g id="line2d_1">
      <defs>
       <path d="M 0 0 
L 0 3.5 
" id="md690343ba7" style="stroke:#000000;stroke-width:0.8;"/>
      </defs>
      <g>
       <use style="stroke:#000000;stroke-width:0.8;" x="51.05" xlink:href="#md690343ba7" y="317.72"/>
      </g>
     </g>
     <g id="text_1">
      <!-- 0.0 -->
      <g transform="translate(43.098438 332.318437)scale(0.1 -0.1)">
       <defs>
        <path d="M 2034 4250 
Q 1547 4250 1301 3770 
Q 1056 3291 1056 2328 
Q 1056 1369 1301 889 
Q 1547 409 2034 409 
Q 2525 409 2770 889 
Q 3016 1369 3016 2328 
Q 3016 3291 2770 3770 
Q 2525 4250 2034 4250 
z
M 2034 4750 
Q 2819 4750 3233 4129 
Q 3647 3509 3647 2328 
Q 3647 1150 3233 529 
Q 2819 -91 2034 -91 
Q 1250 -91 836 529 
Q 422 1150 422 2328 
Q 422 3509 836 4129 
Q 1250 4750 2034 4750 
z
" id="DejaVuSans-30" transform="scale(0.015625)"/>
        <path d="M 684 794 
L 1344 794 
L 1344 0 
L 684 0 
L 684 794 
z
" id="DejaVuSans-2e" transform="scale(0.015625)"/>
       </defs>
       <use xlink:href="#DejaVuSans-30"/>
       <use x="63.623047" xlink:href="#DejaVuSans-2e"/>
       <use x="95.410156" xlink:href="#DejaVuSans-30"/>
      </g>
     </g>
    </g>
    <g id="xtick_2">
     <g id="line2d_2">
      <g>
       <use style="stroke:#000000;stroke-width:0.8;" x="129.247" xlink:href="#md690343ba7" y="317.72"/>
      </g>
     </g>
     <g id="text_2">
      <!-- 0.2 -->
      <g transform="translate(121.295438 332.318437)scale(0.1 -0.1)">
       <defs>
        <path d="M 1228 531 
L 3431 531 
L 3431 0 
L 469 0 
L 469 531 
Q 828 903 1448 1529 
Q 2069 2156 2228 2338 
Q 2531 2678 2651 2914 
Q 2772 3150 2772 3378 
Q 2772 3750 2511 3984 
Q 2250 4219 1831 4219 
Q 1534 4219 1204 4116 
Q 875 4013 500 3803 
L 500 4441 
Q 881 4594 1212 4672 
Q 1544 4750 1819 4750 
Q 2544 4750 2975 4387 
Q 3406 4025 3406 3419 
Q 3406 3131 3298 2873 
Q 3191 2616 2906 2266 
Q 2828 2175 2409 1742 
Q 1991 1309 1228 531 
z
" id="DejaVuSans-32" transform="scale(0.015625)"/>
       </defs>
       <use xlink:href="#DejaVuSans-30"/>
       <use x="63.623047" xlink:href="#DejaVuSans-2e"/>
       <use x="95.410156" xlink:href="#DejaVuSans-32"/>
      </g>
     </g>
    </g>
    <g id="xtick_3">
     <g id="line2d_3">
      <g>
       <use style="stroke:#000000;stroke-width:0.8;" x="207.444" xlink:href="#md690343ba7" y="317.72"/>
      </g>
     </g>
     <g id="text_3">
      <!-- 0.4 -->
      <g transform="translate(199.492438 332.318437)scale(0.1 -0.1)">
       <defs>
        <path d="M 2419 4116 
L 825 1625 
L 2419 1625 
L 2419 4116 
z
M 2253 4666 
L 3047 4666 
L 3047 1625 
L 3713 1625 
L 3713 1100 
L 3047 1100 
L 3047 0 
L 2419 0 
L 2419 1100 
L 313 1100 
L 313 1709 
L 2253 4666 
z
" id="DejaVuSans-34" transform="scale(0.015625)"/>
       </defs>
       <use xlink:href="#DejaVuSans-30"/>
       <use x="63.623047" xlink:href="#DejaVuSans-2e"/>
       <use x="95.410156" xlink:href="#DejaVuSans-34"/>
      </g>
     </g>
    </g>
    <g id="xtick_4">
     <g id="line2d_4">
      <g>
       <use style="stroke:#000000;stroke-width:0.8;" x="285.641" xlink:href="#md690343ba7" y="317.72"/>
      </g>
     </g>
     <g id="text_4">
      <!-- 0.6 -->
      <g transform="translate(277.689437 332.318437)scale(0.1 -0.1)">
       <defs>
        <path d="M 2113 2584 
Q 1688 2584 1439 2293 
Q 1191 2003 1191 1497 
Q 1191 994 1439 701 
Q 1688 409 2113 409 
Q 2538 409 2786 701 
Q 3034 994 3034 1497 
Q 3034 2003 2786 2293 
Q 2538 2584 2113 2584 
z
M 3366 4563 
L 3366 3988 
Q 3128 4100 2886 4159 
Q 2644 4219 2406 4219 
Q 1781 4219 1451 3797 
Q 1122 3375 1075 2522 
Q 1259 2794 1537 2939 
Q 1816 3084 2150 3084 
Q 2853 3084 3261 2657 
Q 3669 2231 3669 1497 
Q 3669 778 3244 343 
Q 2819 -91 2113 -91 
Q 1303 -91 875 529 
Q 447 1150 447 2328 
Q 447 3434 972 4092 
Q 1497 4750 2381 4750 
Q 2619 4750 2861 4703 
Q 3103 4656 3366 4563 
z
" id="DejaVuSans-36" transform="scale(0.015625)"/>
       </defs>
       <use xlink:href="#DejaVuSans-30"/>
       <use x="63.623047" xlink:href="#DejaVuSans-2e"/>
       <use x="95.410156" xlink:href="#DejaVuSans-36"/>
      </g>
     </g>
    </g>
    <g id="xtick_5">
     <g id="line2d_5">
      <g>
       <use style="stroke:#000000;stroke-width:0.8;" x="363.838" xlink:href="#md690343ba7" y="317.72"/>
      </g>
     </g>
     <g id="text_5">
      <!-- 0.8 -->
      <g transform="translate(355.886437 332.318437)scale(0.1 -0.1)">
       <defs>
        <path d="M 2034 2216 
Q 1584 2216 1326 1975 
Q 1069 1734 1069 1313 
Q 1069 891 1326 650 
Q 1584 409 2034 409 
Q 2484 409 2743 651 
Q 3003 894 3003 1313 
Q 3003 1734 2745 1975 
Q 2488 2216 2034 2216 
z
M 1403 2484 
Q 997 2584 770 2862 
Q 544 3141 544 3541 
Q 544 4100 942 4425 
Q 1341 4750 2034 4750 
Q 2731 4750 3128 4425 
Q 3525 4100 3525 3541 
Q 3525 3141 3298 2862 
Q 3072 2584 2669 2484 
Q 3125 2378 3379 2068 
Q 3634 1759 3634 1313 
Q 3634 634 3220 271 
Q 2806 -91 2034 -91 
Q 1263 -91 848 271 
Q 434 634 434 1313 
Q 434 1759 690 2068 
Q 947 2378 1403 2484 
z
M 1172 3481 
Q 1172 3119 1398 2916 
Q 1625 2713 2034 2713 
Q 2441 2713 2670 2916 
Q 2900 3119 2900 3481 
Q 2900 3844 2670 4047 
Q 2441 4250 2034 4250 
Q 1625 4250 1398 4047 
Q 1172 3844 1172 3481 
z
" id="DejaVuSans-38" transform="scale(0.015625)"/>
       </defs>
       <use xlink:href="#DejaVuSans-30"/>
       <use x="63.623047" xlink:href="#DejaVuSans-2e"/>
       <use x="95.410156" xlink:href="#DejaVuSans-38"/>
      </g>
     </g>
    </g>
    <g id="xtick_6">
     <g id="line2d_6">
      <g>
       <use style="stroke:#000000;stroke-width:0.8;" x="442.035" xlink:href="#md690343ba7" y="317.72"/>
      </g>
     </g>
     <g id="text_6">
      <!-- 1.0 -->
      <g transform="translate(434.083437 332.318437)scale(0.1 -0.1)">
       <defs>
        <path d="M 794 531 
L 1825 531 
L 1825 4091 
L 703 3866 
L 703 4441 
L 1819 4666 
L 2450 4666 
L 2450 531 
L 3481 531 
L 3481 0 
L 794 0 
L 794 531 
z
" id="DejaVuSans-31" transform="scale(0.015625)"/>
       </defs>
       <use xlink:href="#DejaVuSans-31"/>
       <use x="63.623047" xlink:href="#DejaVuSans-2e"/>
       <use x="95.410156" xlink:href="#DejaVuSans-30"/>
      </g>
     </g>
    </g>
   </g>
   <g id="matplotlib.axis_2">
    <g id="ytick_1">
     <g id="line2d_7">
      <defs>
       <path d="M 0 0 
L -3.5 0 
" id="m99f0b2bbd4" style="stroke:#000000;stroke-width:0.8;"/>
      </defs>
      <g>
       <use style="stroke:#000000;stroke-width:0.8;" x="51.05" xlink:href="#m99f0b2bbd4" y="317.72"/>
      </g>
     </g>
     <g id="text_7">
      <!-- 0 -->
      <g transform="translate(37.6875 321.519219)scale(0.1 -0.1)">
       <use xlink:href="#DejaVuSans-30"/>
      </g>
     </g>
    </g>
    <g id="ytick_2">
     <g id="line2d_8">
      <g>
       <use style="stroke:#000000;stroke-width:0.8;" x="51.05" xlink:href="#m99f0b2bbd4" y="268.884578"/>
      </g>
     </g>
     <g id="text_8">
      <!-- 20 -->
      <g transform="translate(31.325 272.683797)scale(0.1 -0.1)">
       <use xlink:href="#DejaVuSans-32"/>
       <use x="63.623047" xlink:href="#DejaVuSans-30"/>
      </g>
     </g>
    </g>
    <g id="ytick_3">
     <g id="line2d_9">
      <g>
       <use style="stroke:#000000;stroke-width:0.8;" x="51.05" xlink:href="#m99f0b2bbd4" y="220.049156"/>
      </g>
     </g>
     <g id="text_9">
      <!-- 40 -->
      <g transform="translate(31.325 223.848375)scale(0.1 -0.1)">
       <use xlink:href="#DejaVuSans-34"/>
       <use x="63.623047" xlink:href="#DejaVuSans-30"/>
      </g>
     </g>
    </g>
    <g id="ytick_4">
     <g id="line2d_10">
      <g>
       <use style="stroke:#000000;stroke-width:0.8;" x="51.05" xlink:href="#m99f0b2bbd4" y="171.213734"/>
      </g>
     </g>
     <g id="text_10">
      <!-- 60 -->
      <g transform="translate(31.325 175.012953)scale(0.1 -0.1)">
       <use xlink:href="#DejaVuSans-36"/>
       <use x="63.623047" xlink:href="#DejaVuSans-30"/>
      </g>
     </g>
    </g>
    <g id="ytick_5">
     <g id="line2d_11">
      <g>
       <use style="stroke:#000000;stroke-width:0.8;" x="51.05" xlink:href="#m99f0b2bbd4" y="122.378312"/>
      </g>
     </g>
     <g id="text_11">
      <!-- 80 -->
      <g transform="translate(31.325 126.177531)scale(0.1 -0.1)">
       <use xlink:href="#DejaVuSans-38"/>
       <use x="63.623047" xlink:href="#DejaVuSans-30"/>
      </g>
     </g>
    </g>
    <g id="ytick_6">
     <g id="line2d_12">
      <g>
       <use style="stroke:#000000;stroke-width:0.8;" x="51.05" xlink:href="#m99f0b2bbd4" y="73.542891"/>
      </g>
     </g>
     <g id="text_12">
      <!-- 100 -->
      <g transform="translate(24.9625 77.342109)scale(0.1 -0.1)">
       <use xlink:href="#DejaVuSans-31"/>
       <use x="63.623047" xlink:href="#DejaVuSans-30"/>
       <use x="127.246094" xlink:href="#DejaVuSans-30"/>
      </g>
     </g>
    </g>
    <g id="text_13">
     <!-- Count -->
     <g transform="translate(18.882812 186.428437)rotate(-90)scale(0.1 -0.1)">
      <defs>
       <path d="M 4122 4306 
L 4122 3641 
Q 3803 3938 3442 4084 
Q 3081 4231 2675 4231 
Q 1875 4231 1450 3742 
Q 1025 3253 1025 2328 
Q 1025 1406 1450 917 
Q 1875 428 2675 428 
Q 3081 428 3442 575 
Q 3803 722 4122 1019 
L 4122 359 
Q 3791 134 3420 21 
Q 3050 -91 2638 -91 
Q 1578 -91 968 557 
Q 359 1206 359 2328 
Q 359 3453 968 4101 
Q 1578 4750 2638 4750 
Q 3056 4750 3426 4639 
Q 3797 4528 4122 4306 
z
" id="DejaVuSans-43" transform="scale(0.015625)"/>
       <path d="M 1959 3097 
Q 1497 3097 1228 2736 
Q 959 2375 959 1747 
Q 959 1119 1226 758 
Q 1494 397 1959 397 
Q 2419 397 2687 759 
Q 2956 1122 2956 1747 
Q 2956 2369 2687 2733 
Q 2419 3097 1959 3097 
z
M 1959 3584 
Q 2709 3584 3137 3096 
Q 3566 2609 3566 1747 
Q 3566 888 3137 398 
Q 2709 -91 1959 -91 
Q 1206 -91 779 398 
Q 353 888 353 1747 
Q 353 2609 779 3096 
Q 1206 3584 1959 3584 
z
" id="DejaVuSans-6f" transform="scale(0.015625)"/>
       <path d="M 544 1381 
L 544 3500 
L 1119 3500 
L 1119 1403 
Q 1119 906 1312 657 
Q 1506 409 1894 409 
Q 2359 409 2629 706 
Q 2900 1003 2900 1516 
L 2900 3500 
L 3475 3500 
L 3475 0 
L 2900 0 
L 2900 538 
Q 2691 219 2414 64 
Q 2138 -91 1772 -91 
Q 1169 -91 856 284 
Q 544 659 544 1381 
z
M 1991 3584 
L 1991 3584 
z
" id="DejaVuSans-75" transform="scale(0.015625)"/>
       <path d="M 3513 2113 
L 3513 0 
L 2938 0 
L 2938 2094 
Q 2938 2591 2744 2837 
Q 2550 3084 2163 3084 
Q 1697 3084 1428 2787 
Q 1159 2491 1159 1978 
L 1159 0 
L 581 0 
L 581 3500 
L 1159 3500 
L 1159 2956 
Q 1366 3272 1645 3428 
Q 1925 3584 2291 3584 
Q 2894 3584 3203 3211 
Q 3513 2838 3513 2113 
z
" id="DejaVuSans-6e" transform="scale(0.015625)"/>
       <path d="M 1172 4494 
L 1172 3500 
L 2356 3500 
L 2356 3053 
L 1172 3053 
L 1172 1153 
Q 1172 725 1289 603 
Q 1406 481 1766 481 
L 2356 481 
L 2356 0 
L 1766 0 
Q 1100 0 847 248 
Q 594 497 594 1153 
L 594 3053 
L 172 3053 
L 172 3500 
L 594 3500 
L 594 4494 
L 1172 4494 
z
" id="DejaVuSans-74" transform="scale(0.015625)"/>
      </defs>
      <use xlink:href="#DejaVuSans-43"/>
      <use x="69.824219" xlink:href="#DejaVuSans-6f"/>
      <use x="131.005859" xlink:href="#DejaVuSans-75"/>
      <use x="194.384766" xlink:href="#DejaVuSans-6e"/>
      <use x="257.763672" xlink:href="#DejaVuSans-74"/>
     </g>
    </g>
   </g>
   <g id="line2d_13">
    <path clip-path="url(#pc887a72494)" d="M 395.1168 317.035748 
L 406.669523 317.088986 
L 412.799539 316.977074 
L 417.750706 316.66979 
L 422.701872 316.137816 
L 429.774968 315.113013 
L 435.433444 314.380806 
L 438.969992 314.141254 
L 442.035 314.134933 
L 442.035 314.134933 
" style="fill:none;stroke:#ff0000;stroke-linecap:square;stroke-width:1.5;"/>
   </g>
   <g id="line2d_14">
    <path clip-path="url(#pc887a72494)" d="M 97.9682 288.571333 
L 108.342073 282.795801 
L 115.257989 279.183484 
L 122.173905 275.856613 
L 127.360841 273.581967 
L 132.547778 271.511962 
L 137.734715 269.653098 
L 142.921651 268.006276 
L 148.108588 266.568341 
L 153.295525 265.333634 
L 158.482461 264.295346 
L 163.669398 263.446523 
L 168.856335 262.780655 
L 174.043271 262.291815 
L 179.230208 261.97441 
L 186.146124 261.807766 
L 193.062039 261.919075 
L 199.977955 262.286507 
L 206.89387 262.881061 
L 215.538765 263.887216 
L 225.912638 265.364979 
L 251.847322 269.241746 
L 260.492216 270.216659 
L 267.408132 270.757405 
L 274.324047 271.030682 
L 279.510984 271.033906 
L 284.697921 270.847899 
L 289.884857 270.462086 
L 295.071794 269.8699 
L 300.258731 269.068557 
L 305.445667 268.058342 
L 310.632604 266.841426 
L 315.819541 265.420265 
L 321.006477 263.795727 
L 326.193414 261.965111 
L 331.380351 259.920344 
L 336.567287 257.646629 
L 341.754224 255.121917 
L 346.941161 252.317529 
L 352.128097 249.200242 
L 357.315034 245.736072 
L 362.501971 241.895766 
L 367.688908 237.66186 
L 372.875844 233.036801 
L 378.062781 228.051387 
L 383.249718 222.772482 
L 400.539507 204.780915 
L 403.997464 201.547099 
L 407.455422 198.602885 
L 410.91338 196.026769 
L 414.371338 193.896206 
L 416.100317 193.021241 
L 417.829295 192.284814 
L 419.558274 191.695055 
L 421.287253 191.259502 
L 423.016232 190.985011 
L 424.745211 190.877681 
L 426.47419 190.942783 
L 428.203169 191.184687 
L 429.932148 191.606812 
L 431.661127 192.211571 
L 433.390106 193.000333 
L 435.119084 193.973393 
L 436.848063 195.129952 
L 438.577042 196.46811 
L 440.306021 197.984872 
L 442.035 199.676156 
L 442.035 199.676156 
" style="fill:none;stroke:#0000ff;stroke-linecap:square;stroke-width:1.5;"/>
   </g>
   <g id="patch_61">
    <path d="M 51.05 317.72 
L 51.05 25.44 
" style="fill:none;stroke:#000000;stroke-linecap:square;stroke-linejoin:miter;stroke-width:0.8;"/>
   </g>
   <g id="patch_62">
    <path d="M 442.035 317.72 
L 442.035 25.44 
" style="fill:none;stroke:#000000;stroke-linecap:square;stroke-linejoin:miter;stroke-width:0.8;"/>
   </g>
   <g id="patch_63">
    <path d="M 51.05 317.72 
L 442.035 317.72 
" style="fill:none;stroke:#000000;stroke-linecap:square;stroke-linejoin:miter;stroke-width:0.8;"/>
   </g>
   <g id="patch_64">
    <path d="M 51.05 25.44 
L 442.035 25.44 
" style="fill:none;stroke:#000000;stroke-linecap:square;stroke-linejoin:miter;stroke-width:0.8;"/>
   </g>
   <g id="text_14">
    <!-- s1 -->
    <g transform="translate(239.599375 19.44)scale(0.12 -0.12)">
     <defs>
      <path d="M 2834 3397 
L 2834 2853 
Q 2591 2978 2328 3040 
Q 2066 3103 1784 3103 
Q 1356 3103 1142 2972 
Q 928 2841 928 2578 
Q 928 2378 1081 2264 
Q 1234 2150 1697 2047 
L 1894 2003 
Q 2506 1872 2764 1633 
Q 3022 1394 3022 966 
Q 3022 478 2636 193 
Q 2250 -91 1575 -91 
Q 1294 -91 989 -36 
Q 684 19 347 128 
L 347 722 
Q 666 556 975 473 
Q 1284 391 1588 391 
Q 1994 391 2212 530 
Q 2431 669 2431 922 
Q 2431 1156 2273 1281 
Q 2116 1406 1581 1522 
L 1381 1569 
Q 847 1681 609 1914 
Q 372 2147 372 2553 
Q 372 3047 722 3315 
Q 1072 3584 1716 3584 
Q 2034 3584 2315 3537 
Q 2597 3491 2834 3397 
z
" id="DejaVuSans-73" transform="scale(0.015625)"/>
     </defs>
     <use xlink:href="#DejaVuSans-73"/>
     <use x="52.099609" xlink:href="#DejaVuSans-31"/>
    </g>
   </g>
   <g id="legend_1">
    <g id="patch_65">
     <path d="M 58.05 62.79625 
L 192.676563 62.79625 
Q 194.676563 62.79625 194.676563 60.79625 
L 194.676563 32.44 
Q 194.676563 30.44 192.676563 30.44 
L 58.05 30.44 
Q 56.05 30.44 56.05 32.44 
L 56.05 60.79625 
Q 56.05 62.79625 58.05 62.79625 
z
" style="fill:#ffffff;opacity:0.8;stroke:#cccccc;stroke-linejoin:miter;"/>
    </g>
    <g id="patch_66">
     <path d="M 60.05 42.038437 
L 80.05 42.038437 
L 80.05 35.038437 
L 60.05 35.038437 
z
" style="fill:#ff0000;fill-opacity:0.5;stroke:#000000;stroke-linejoin:miter;stroke-width:0.740502;"/>
    </g>
    <g id="text_15">
     <!-- Consensus variables -->
     <g transform="translate(88.05 42.038437)scale(0.1 -0.1)">
      <defs>
       <path d="M 3597 1894 
L 3597 1613 
L 953 1613 
Q 991 1019 1311 708 
Q 1631 397 2203 397 
Q 2534 397 2845 478 
Q 3156 559 3463 722 
L 3463 178 
Q 3153 47 2828 -22 
Q 2503 -91 2169 -91 
Q 1331 -91 842 396 
Q 353 884 353 1716 
Q 353 2575 817 3079 
Q 1281 3584 2069 3584 
Q 2775 3584 3186 3129 
Q 3597 2675 3597 1894 
z
M 3022 2063 
Q 3016 2534 2758 2815 
Q 2500 3097 2075 3097 
Q 1594 3097 1305 2825 
Q 1016 2553 972 2059 
L 3022 2063 
z
" id="DejaVuSans-65" transform="scale(0.015625)"/>
       <path id="DejaVuSans-20" transform="scale(0.015625)"/>
       <path d="M 191 3500 
L 800 3500 
L 1894 563 
L 2988 3500 
L 3597 3500 
L 2284 0 
L 1503 0 
L 191 3500 
z
" id="DejaVuSans-76" transform="scale(0.015625)"/>
       <path d="M 2194 1759 
Q 1497 1759 1228 1600 
Q 959 1441 959 1056 
Q 959 750 1161 570 
Q 1363 391 1709 391 
Q 2188 391 2477 730 
Q 2766 1069 2766 1631 
L 2766 1759 
L 2194 1759 
z
M 3341 1997 
L 3341 0 
L 2766 0 
L 2766 531 
Q 2569 213 2275 61 
Q 1981 -91 1556 -91 
Q 1019 -91 701 211 
Q 384 513 384 1019 
Q 384 1609 779 1909 
Q 1175 2209 1959 2209 
L 2766 2209 
L 2766 2266 
Q 2766 2663 2505 2880 
Q 2244 3097 1772 3097 
Q 1472 3097 1187 3025 
Q 903 2953 641 2809 
L 641 3341 
Q 956 3463 1253 3523 
Q 1550 3584 1831 3584 
Q 2591 3584 2966 3190 
Q 3341 2797 3341 1997 
z
" id="DejaVuSans-61" transform="scale(0.015625)"/>
       <path d="M 2631 2963 
Q 2534 3019 2420 3045 
Q 2306 3072 2169 3072 
Q 1681 3072 1420 2755 
Q 1159 2438 1159 1844 
L 1159 0 
L 581 0 
L 581 3500 
L 1159 3500 
L 1159 2956 
Q 1341 3275 1631 3429 
Q 1922 3584 2338 3584 
Q 2397 3584 2469 3576 
Q 2541 3569 2628 3553 
L 2631 2963 
z
" id="DejaVuSans-72" transform="scale(0.015625)"/>
       <path d="M 603 3500 
L 1178 3500 
L 1178 0 
L 603 0 
L 603 3500 
z
M 603 4863 
L 1178 4863 
L 1178 4134 
L 603 4134 
L 603 4863 
z
" id="DejaVuSans-69" transform="scale(0.015625)"/>
       <path d="M 3116 1747 
Q 3116 2381 2855 2742 
Q 2594 3103 2138 3103 
Q 1681 3103 1420 2742 
Q 1159 2381 1159 1747 
Q 1159 1113 1420 752 
Q 1681 391 2138 391 
Q 2594 391 2855 752 
Q 3116 1113 3116 1747 
z
M 1159 2969 
Q 1341 3281 1617 3432 
Q 1894 3584 2278 3584 
Q 2916 3584 3314 3078 
Q 3713 2572 3713 1747 
Q 3713 922 3314 415 
Q 2916 -91 2278 -91 
Q 1894 -91 1617 61 
Q 1341 213 1159 525 
L 1159 0 
L 581 0 
L 581 4863 
L 1159 4863 
L 1159 2969 
z
" id="DejaVuSans-62" transform="scale(0.015625)"/>
       <path d="M 603 4863 
L 1178 4863 
L 1178 0 
L 603 0 
L 603 4863 
z
" id="DejaVuSans-6c" transform="scale(0.015625)"/>
      </defs>
      <use xlink:href="#DejaVuSans-43"/>
      <use x="69.824219" xlink:href="#DejaVuSans-6f"/>
      <use x="131.005859" xlink:href="#DejaVuSans-6e"/>
      <use x="194.384766" xlink:href="#DejaVuSans-73"/>
      <use x="246.484375" xlink:href="#DejaVuSans-65"/>
      <use x="308.007812" xlink:href="#DejaVuSans-6e"/>
      <use x="371.386719" xlink:href="#DejaVuSans-73"/>
      <use x="423.486328" xlink:href="#DejaVuSans-75"/>
      <use x="486.865234" xlink:href="#DejaVuSans-73"/>
      <use x="538.964844" xlink:href="#DejaVuSans-20"/>
      <use x="570.751953" xlink:href="#DejaVuSans-76"/>
      <use x="629.931641" xlink:href="#DejaVuSans-61"/>
      <use x="691.210938" xlink:href="#DejaVuSans-72"/>
      <use x="732.324219" xlink:href="#DejaVuSans-69"/>
      <use x="760.107422" xlink:href="#DejaVuSans-61"/>
      <use x="821.386719" xlink:href="#DejaVuSans-62"/>
      <use x="884.863281" xlink:href="#DejaVuSans-6c"/>
      <use x="912.646484" xlink:href="#DejaVuSans-65"/>
      <use x="974.169922" xlink:href="#DejaVuSans-73"/>
     </g>
    </g>
    <g id="patch_67">
     <path d="M 60.05 56.716563 
L 80.05 56.716563 
L 80.05 49.716563 
L 60.05 49.716563 
z
" style="fill:#0000ff;fill-opacity:0.5;stroke:#000000;stroke-linejoin:miter;"/>
    </g>
    <g id="text_16">
     <!-- All variables -->
     <g transform="translate(88.05 56.716563)scale(0.1 -0.1)">
      <defs>
       <path d="M 2188 4044 
L 1331 1722 
L 3047 1722 
L 2188 4044 
z
M 1831 4666 
L 2547 4666 
L 4325 0 
L 3669 0 
L 3244 1197 
L 1141 1197 
L 716 0 
L 50 0 
L 1831 4666 
z
" id="DejaVuSans-41" transform="scale(0.015625)"/>
      </defs>
      <use xlink:href="#DejaVuSans-41"/>
      <use x="68.408203" xlink:href="#DejaVuSans-6c"/>
      <use x="96.191406" xlink:href="#DejaVuSans-6c"/>
      <use x="123.974609" xlink:href="#DejaVuSans-20"/>
      <use x="155.761719" xlink:href="#DejaVuSans-76"/>
      <use x="214.941406" xlink:href="#DejaVuSans-61"/>
      <use x="276.220703" xlink:href="#DejaVuSans-72"/>
      <use x="317.333984" xlink:href="#DejaVuSans-69"/>
      <use x="345.117188" xlink:href="#DejaVuSans-61"/>
      <use x="406.396484" xlink:href="#DejaVuSans-62"/>
      <use x="469.873047" xlink:href="#DejaVuSans-6c"/>
      <use x="497.65625" xlink:href="#DejaVuSans-65"/>
      <use x="559.179688" xlink:href="#DejaVuSans-73"/>
     </g>
    </g>
   </g>
  </g>
 </g>
 <defs>
  <clipPath id="pc887a72494">
   <rect height="292.28" width="390.985" x="51.05" y="25.44"/>
  </clipPath>
 </defs>
</svg>
