<?xml version="1.0" encoding="utf-8" standalone="no"?>
<!DOCTYPE svg PUBLIC "-//W3C//DTD SVG 1.1//EN"
  "http://www.w3.org/Graphics/SVG/1.1/DTD/svg11.dtd">
<svg height="345.6pt" version="1.1" viewBox="0 0 460.8 345.6" width="460.8pt" xmlns="http://www.w3.org/2000/svg" xmlns:xlink="http://www.w3.org/1999/xlink">
 <metadata>
  <rdf:RDF xmlns:cc="http://creativecommons.org/ns#" xmlns:dc="http://purl.org/dc/elements/1.1/" xmlns:rdf="http://www.w3.org/1999/02/22-rdf-syntax-ns#">
   <cc:Work>
    <dc:type rdf:resource="http://purl.org/dc/dcmitype/StillImage"/>
    <dc:date>2021-11-24T22:49:32.831522</dc:date>
    <dc:format>image/svg+xml</dc:format>
    <dc:creator>
     <cc:Agent>
      <dc:title>Matplotlib v3.4.3, https://matplotlib.org/</dc:title>
     </cc:Agent>
    </dc:creator>
   </cc:Work>
  </rdf:RDF>
 </metadata>
 <defs>
  <style type="text/css">*{stroke-linecap:butt;stroke-linejoin:round;}</style>
 </defs>
 <g id="figure_1">
  <g id="patch_1">
   <path d="M 0 345.6 
L 460.8 345.6 
L 460.8 0 
L 0 0 
z
" style="fill:#ffffff;"/>
  </g>
  <g id="axes_1">
   <g id="patch_2">
    <path d="M 44.66 303.64 
L 442.035 303.64 
L 442.035 37.968 
L 44.66 37.968 
z
" style="fill:#ffffff;"/>
   </g>
   <g id="PolyCollection_1">
    <path clip-path="url(#pfe2e081683)" d="M -19.839493 303.598071 
L -19.839493 303.64 
L -16.954774 303.64 
L -14.070055 303.64 
L -11.185337 303.64 
L -8.300618 303.64 
L -5.4159 303.64 
L -2.531181 303.64 
L 0.353537 303.64 
L 3.238256 303.64 
L 6.122974 303.64 
L 9.007693 303.64 
L 11.892411 303.64 
L 14.77713 303.64 
L 17.661848 303.64 
L 20.546567 303.64 
L 23.431285 303.64 
L 26.316004 303.64 
L 29.200722 303.64 
L 32.085441 303.64 
L 34.970159 303.64 
L 37.854878 303.64 
L 40.739596 303.64 
L 43.624315 303.64 
L 46.509033 303.64 
L 49.393752 303.64 
L 52.27847 303.64 
L 55.163189 303.64 
L 58.047907 303.64 
L 60.932626 303.64 
L 63.817345 303.64 
L 66.702063 303.64 
L 69.586782 303.64 
L 72.4715 303.64 
L 75.356219 303.64 
L 78.240937 303.64 
L 81.125656 303.64 
L 84.010374 303.64 
L 86.895093 303.64 
L 89.779811 303.64 
L 92.66453 303.64 
L 95.549248 303.64 
L 98.433967 303.64 
L 101.318685 303.64 
L 104.203404 303.64 
L 107.088122 303.64 
L 109.972841 303.64 
L 112.857559 303.64 
L 115.742278 303.64 
L 118.626996 303.64 
L 121.511715 303.64 
L 124.396433 303.64 
L 127.281152 303.64 
L 130.16587 303.64 
L 133.050589 303.64 
L 135.935307 303.64 
L 138.820026 303.64 
L 141.704744 303.64 
L 144.589463 303.64 
L 147.474182 303.64 
L 150.3589 303.64 
L 153.243619 303.64 
L 156.128337 303.64 
L 159.013056 303.64 
L 161.897774 303.64 
L 164.782493 303.64 
L 167.667211 303.64 
L 170.55193 303.64 
L 173.436648 303.64 
L 176.321367 303.64 
L 179.206085 303.64 
L 182.090804 303.64 
L 184.975522 303.64 
L 187.860241 303.64 
L 190.744959 303.64 
L 193.629678 303.64 
L 196.514396 303.64 
L 199.399115 303.64 
L 202.283833 303.64 
L 205.168552 303.64 
L 208.05327 303.64 
L 210.937989 303.64 
L 213.822707 303.64 
L 216.707426 303.64 
L 219.592144 303.64 
L 222.476863 303.64 
L 225.361581 303.64 
L 228.2463 303.64 
L 231.131019 303.64 
L 234.015737 303.64 
L 236.900456 303.64 
L 239.785174 303.64 
L 242.669893 303.64 
L 245.554611 303.64 
L 248.43933 303.64 
L 251.324048 303.64 
L 254.208767 303.64 
L 257.093485 303.64 
L 259.978204 303.64 
L 262.862922 303.64 
L 265.747641 303.64 
L 268.632359 303.64 
L 271.517078 303.64 
L 274.401796 303.64 
L 277.286515 303.64 
L 280.171233 303.64 
L 283.055952 303.64 
L 285.94067 303.64 
L 288.825389 303.64 
L 291.710107 303.64 
L 294.594826 303.64 
L 297.479544 303.64 
L 300.364263 303.64 
L 303.248981 303.64 
L 306.1337 303.64 
L 309.018419 303.64 
L 311.903137 303.64 
L 314.787856 303.64 
L 317.672574 303.64 
L 320.557293 303.64 
L 323.442011 303.64 
L 326.32673 303.64 
L 329.211448 303.64 
L 332.096167 303.64 
L 334.980885 303.64 
L 337.865604 303.64 
L 340.750322 303.64 
L 343.635041 303.64 
L 346.519759 303.64 
L 349.404478 303.64 
L 352.289196 303.64 
L 355.173915 303.64 
L 358.058633 303.64 
L 360.943352 303.64 
L 363.82807 303.64 
L 366.712789 303.64 
L 369.597507 303.64 
L 372.482226 303.64 
L 375.366944 303.64 
L 378.251663 303.64 
L 381.136381 303.64 
L 384.0211 303.64 
L 386.905818 303.64 
L 389.790537 303.64 
L 392.675256 303.64 
L 395.559974 303.64 
L 398.444693 303.64 
L 401.329411 303.64 
L 404.21413 303.64 
L 407.098848 303.64 
L 409.983567 303.64 
L 412.868285 303.64 
L 415.753004 303.64 
L 418.637722 303.64 
L 421.522441 303.64 
L 424.407159 303.64 
L 427.291878 303.64 
L 430.176596 303.64 
L 433.061315 303.64 
L 435.946033 303.64 
L 438.830752 303.64 
L 441.71547 303.64 
L 444.600189 303.64 
L 447.484907 303.64 
L 450.369626 303.64 
L 453.254344 303.64 
L 456.139063 303.64 
L 459.023781 303.64 
L 461.9085 303.64 
L 464.793218 303.64 
L 467.677937 303.64 
L 470.562655 303.64 
L 473.447374 303.64 
L 476.332093 303.64 
L 479.216811 303.64 
L 482.10153 303.64 
L 484.986248 303.64 
L 487.870967 303.64 
L 490.755685 303.64 
L 493.640404 303.64 
L 496.525122 303.64 
L 499.409841 303.64 
L 502.294559 303.64 
L 505.179278 303.64 
L 508.063996 303.64 
L 510.948715 303.64 
L 513.833433 303.64 
L 516.718152 303.64 
L 519.60287 303.64 
L 522.487589 303.64 
L 525.372307 303.64 
L 528.257026 303.64 
L 531.141744 303.64 
L 534.026463 303.64 
L 536.911181 303.64 
L 539.7959 303.64 
L 542.680618 303.64 
L 545.565337 303.64 
L 548.450055 303.64 
L 551.334774 303.64 
L 554.219493 303.64 
L 554.219493 303.332811 
L 554.219493 303.332811 
L 551.334774 303.252525 
L 548.450055 303.154076 
L 545.565337 303.034126 
L 542.680618 302.888916 
L 539.7959 302.714255 
L 536.911181 302.505525 
L 534.026463 302.257696 
L 531.141744 301.965359 
L 528.257026 301.622773 
L 525.372307 301.223941 
L 522.487589 300.762696 
L 519.60287 300.23282 
L 516.718152 299.628176 
L 513.833433 298.942867 
L 510.948715 298.171415 
L 508.063996 297.308949 
L 505.179278 296.351411 
L 502.294559 295.295766 
L 499.409841 294.14021 
L 496.525122 292.884368 
L 493.640404 291.529481 
L 490.755685 290.078564 
L 487.870967 288.536528 
L 484.986248 286.910266 
L 482.10153 285.208686 
L 479.216811 283.442689 
L 476.332093 281.625093 
L 473.447374 279.77049 
L 470.562655 277.895042 
L 467.677937 276.016225 
L 464.793218 274.152513 
L 461.9085 272.323021 
L 459.023781 270.547108 
L 456.139063 268.84396 
L 453.254344 267.232164 
L 450.369626 265.729278 
L 447.484907 264.351429 
L 444.600189 263.112935 
L 441.71547 262.025977 
L 438.830752 261.100328 
L 435.946033 260.343147 
L 433.061315 259.758847 
L 430.176596 259.349036 
L 427.291878 259.112546 
L 424.407159 259.045526 
L 421.522441 259.141614 
L 418.637722 259.392171 
L 415.753004 259.786563 
L 412.868285 260.312493 
L 409.983567 260.956357 
L 407.098848 261.703616 
L 404.21413 262.539176 
L 401.329411 263.44775 
L 398.444693 264.41421 
L 395.559974 265.423895 
L 392.675256 266.462894 
L 389.790537 267.518276 
L 386.905818 268.578272 
L 384.0211 269.63241 
L 381.136381 270.671598 
L 378.251663 271.688159 
L 375.366944 272.675825 
L 372.482226 273.629691 
L 369.597507 274.546129 
L 366.712789 275.422691 
L 363.82807 276.257973 
L 360.943352 277.051481 
L 358.058633 277.803481 
L 355.173915 278.514855 
L 352.289196 279.186951 
L 349.404478 279.821451 
L 346.519759 280.420245 
L 343.635041 280.985319 
L 340.750322 281.518663 
L 337.865604 282.022188 
L 334.980885 282.497671 
L 332.096167 282.9467 
L 329.211448 283.370656 
L 326.32673 283.770685 
L 323.442011 284.147704 
L 320.557293 284.502402 
L 317.672574 284.835261 
L 314.787856 285.146576 
L 311.903137 285.436486 
L 309.018419 285.705002 
L 306.1337 285.952049 
L 303.248981 286.177491 
L 300.364263 286.381172 
L 297.479544 286.562947 
L 294.594826 286.722707 
L 291.710107 286.860411 
L 288.825389 286.976101 
L 285.94067 287.069927 
L 283.055952 287.142152 
L 280.171233 287.193165 
L 277.286515 287.223483 
L 274.401796 287.233749 
L 271.517078 287.224729 
L 268.632359 287.197305 
L 265.747641 287.152462 
L 262.862922 287.091281 
L 259.978204 287.014918 
L 257.093485 286.924598 
L 254.208767 286.821597 
L 251.324048 286.707233 
L 248.43933 286.582849 
L 245.554611 286.449808 
L 242.669893 286.309485 
L 239.785174 286.163255 
L 236.900456 286.012493 
L 234.015737 285.858569 
L 231.131019 285.702844 
L 228.2463 285.546666 
L 225.361581 285.391372 
L 222.476863 285.238279 
L 219.592144 285.088688 
L 216.707426 284.943873 
L 213.822707 284.805078 
L 210.937989 284.673514 
L 208.05327 284.550346 
L 205.168552 284.436692 
L 202.283833 284.333611 
L 199.399115 284.242098 
L 196.514396 284.163079 
L 193.629678 284.097403 
L 190.744959 284.045844 
L 187.860241 284.009098 
L 184.975522 283.987782 
L 182.090804 283.982446 
L 179.206085 283.993572 
L 176.321367 284.021588 
L 173.436648 284.066877 
L 170.55193 284.129788 
L 167.667211 284.210648 
L 164.782493 284.309778 
L 161.897774 284.427498 
L 159.013056 284.56414 
L 156.128337 284.720052 
L 153.243619 284.895601 
L 150.3589 285.091177 
L 147.474182 285.307179 
L 144.589463 285.544014 
L 141.704744 285.802082 
L 138.820026 286.081753 
L 135.935307 286.383352 
L 133.050589 286.707133 
L 130.16587 287.053253 
L 127.281152 287.421742 
L 124.396433 287.812479 
L 121.511715 288.225163 
L 118.626996 288.659291 
L 115.742278 289.114131 
L 112.857559 289.588716 
L 109.972841 290.08182 
L 107.088122 290.591964 
L 104.203404 291.117411 
L 101.318685 291.656175 
L 98.433967 292.206043 
L 95.549248 292.764592 
L 92.66453 293.329222 
L 89.779811 293.897192 
L 86.895093 294.465662 
L 84.010374 295.031735 
L 81.125656 295.592509 
L 78.240937 296.145123 
L 75.356219 296.686807 
L 72.4715 297.214928 
L 69.586782 297.727035 
L 66.702063 298.220894 
L 63.817345 298.694528 
L 60.932626 299.146238 
L 58.047907 299.574625 
L 55.163189 299.978604 
L 52.27847 300.357404 
L 49.393752 300.71057 
L 46.509033 301.03795 
L 43.624315 301.339682 
L 40.739596 301.616168 
L 37.854878 301.868051 
L 34.970159 302.096187 
L 32.085441 302.301609 
L 29.200722 302.485496 
L 26.316004 302.64914 
L 23.431285 302.793914 
L 20.546567 302.921239 
L 17.661848 303.032557 
L 14.77713 303.129306 
L 11.892411 303.212893 
L 9.007693 303.284683 
L 6.122974 303.345972 
L 3.238256 303.397987 
L 0.353537 303.441868 
L -2.531181 303.478666 
L -5.4159 303.509341 
L -8.300618 303.534759 
L -11.185337 303.555694 
L -14.070055 303.572835 
L -16.954774 303.586786 
L -19.839493 303.598071 
z
" style="fill:#1f77b4;fill-opacity:0.4;stroke:#1f77b4;"/>
   </g>
   <g id="PolyCollection_2">
    <defs>
     <path d="M 357.711776 -42.474633 
L 357.711776 -41.96 
L 358.319622 -41.96 
L 358.927469 -41.96 
L 359.535315 -41.96 
L 360.143162 -41.96 
L 360.751008 -41.96 
L 361.358855 -41.96 
L 361.966701 -41.96 
L 362.574548 -41.96 
L 363.182394 -41.96 
L 363.790241 -41.96 
L 364.398087 -41.96 
L 365.005934 -41.96 
L 365.61378 -41.96 
L 366.221627 -41.96 
L 366.829473 -41.96 
L 367.43732 -41.96 
L 368.045166 -41.96 
L 368.653012 -41.96 
L 369.260859 -41.96 
L 369.868705 -41.96 
L 370.476552 -41.96 
L 371.084398 -41.96 
L 371.692245 -41.96 
L 372.300091 -41.96 
L 372.907938 -41.96 
L 373.515784 -41.96 
L 374.123631 -41.96 
L 374.731477 -41.96 
L 375.339324 -41.96 
L 375.94717 -41.96 
L 376.555017 -41.96 
L 377.162863 -41.96 
L 377.77071 -41.96 
L 378.378556 -41.96 
L 378.986403 -41.96 
L 379.594249 -41.96 
L 380.202095 -41.96 
L 380.809942 -41.96 
L 381.417788 -41.96 
L 382.025635 -41.96 
L 382.633481 -41.96 
L 383.241328 -41.96 
L 383.849174 -41.96 
L 384.457021 -41.96 
L 385.064867 -41.96 
L 385.672714 -41.96 
L 386.28056 -41.96 
L 386.888407 -41.96 
L 387.496253 -41.96 
L 388.1041 -41.96 
L 388.711946 -41.96 
L 389.319793 -41.96 
L 389.927639 -41.96 
L 390.535486 -41.96 
L 391.143332 -41.96 
L 391.751178 -41.96 
L 392.359025 -41.96 
L 392.966871 -41.96 
L 393.574718 -41.96 
L 394.182564 -41.96 
L 394.790411 -41.96 
L 395.398257 -41.96 
L 396.006104 -41.96 
L 396.61395 -41.96 
L 397.221797 -41.96 
L 397.829643 -41.96 
L 398.43749 -41.96 
L 399.045336 -41.96 
L 399.653183 -41.96 
L 400.261029 -41.96 
L 400.868876 -41.96 
L 401.476722 -41.96 
L 402.084568 -41.96 
L 402.692415 -41.96 
L 403.300261 -41.96 
L 403.908108 -41.96 
L 404.515954 -41.96 
L 405.123801 -41.96 
L 405.731647 -41.96 
L 406.339494 -41.96 
L 406.94734 -41.96 
L 407.555187 -41.96 
L 408.163033 -41.96 
L 408.77088 -41.96 
L 409.378726 -41.96 
L 409.986573 -41.96 
L 410.594419 -41.96 
L 411.202266 -41.96 
L 411.810112 -41.96 
L 412.417959 -41.96 
L 413.025805 -41.96 
L 413.633651 -41.96 
L 414.241498 -41.96 
L 414.849344 -41.96 
L 415.457191 -41.96 
L 416.065037 -41.96 
L 416.672884 -41.96 
L 417.28073 -41.96 
L 417.888577 -41.96 
L 418.496423 -41.96 
L 419.10427 -41.96 
L 419.712116 -41.96 
L 420.319963 -41.96 
L 420.927809 -41.96 
L 421.535656 -41.96 
L 422.143502 -41.96 
L 422.751349 -41.96 
L 423.359195 -41.96 
L 423.967041 -41.96 
L 424.574888 -41.96 
L 425.182734 -41.96 
L 425.790581 -41.96 
L 426.398427 -41.96 
L 427.006274 -41.96 
L 427.61412 -41.96 
L 428.221967 -41.96 
L 428.829813 -41.96 
L 429.43766 -41.96 
L 430.045506 -41.96 
L 430.653353 -41.96 
L 431.261199 -41.96 
L 431.869046 -41.96 
L 432.476892 -41.96 
L 433.084739 -41.96 
L 433.692585 -41.96 
L 434.300432 -41.96 
L 434.908278 -41.96 
L 435.516124 -41.96 
L 436.123971 -41.96 
L 436.731817 -41.96 
L 437.339664 -41.96 
L 437.94751 -41.96 
L 438.555357 -41.96 
L 439.163203 -41.96 
L 439.77105 -41.96 
L 440.378896 -41.96 
L 440.986743 -41.96 
L 441.594589 -41.96 
L 442.202436 -41.96 
L 442.810282 -41.96 
L 443.418129 -41.96 
L 444.025975 -41.96 
L 444.633822 -41.96 
L 445.241668 -41.96 
L 445.849514 -41.96 
L 446.457361 -41.96 
L 447.065207 -41.96 
L 447.673054 -41.96 
L 448.2809 -41.96 
L 448.888747 -41.96 
L 449.496593 -41.96 
L 450.10444 -41.96 
L 450.712286 -41.96 
L 451.320133 -41.96 
L 451.927979 -41.96 
L 452.535826 -41.96 
L 453.143672 -41.96 
L 453.751519 -41.96 
L 454.359365 -41.96 
L 454.967212 -41.96 
L 455.575058 -41.96 
L 456.182905 -41.96 
L 456.790751 -41.96 
L 457.398597 -41.96 
L 458.006444 -41.96 
L 458.61429 -41.96 
L 459.222137 -41.96 
L 459.829983 -41.96 
L 460.43783 -41.96 
L 461.045676 -41.96 
L 461.653523 -41.96 
L 462.261369 -41.96 
L 462.869216 -41.96 
L 463.477062 -41.96 
L 464.084909 -41.96 
L 464.692755 -41.96 
L 465.300602 -41.96 
L 465.908448 -41.96 
L 466.516295 -41.96 
L 467.124141 -41.96 
L 467.731988 -41.96 
L 468.339834 -41.96 
L 468.94768 -41.96 
L 469.555527 -41.96 
L 470.163373 -41.96 
L 470.77122 -41.96 
L 471.379066 -41.96 
L 471.986913 -41.96 
L 472.594759 -41.96 
L 473.202606 -41.96 
L 473.810452 -41.96 
L 474.418299 -41.96 
L 475.026145 -41.96 
L 475.633992 -41.96 
L 476.241838 -41.96 
L 476.849685 -41.96 
L 477.457531 -41.96 
L 478.065378 -41.96 
L 478.673224 -41.96 
L 478.673224 -44.537576 
L 478.673224 -44.537576 
L 478.065378 -44.949304 
L 477.457531 -45.418249 
L 476.849685 -45.950894 
L 476.241838 -46.554223 
L 475.633992 -47.235726 
L 475.026145 -48.003393 
L 474.418299 -48.865709 
L 473.810452 -49.831632 
L 473.202606 -50.91057 
L 472.594759 -52.112346 
L 471.986913 -53.447149 
L 471.379066 -54.925481 
L 470.77122 -56.558088 
L 470.163373 -58.355881 
L 469.555527 -60.329842 
L 468.94768 -62.490925 
L 468.339834 -64.849935 
L 467.731988 -67.417405 
L 467.124141 -70.203459 
L 466.516295 -73.217659 
L 465.908448 -76.468855 
L 465.300602 -79.965016 
L 464.692755 -83.713066 
L 464.084909 -87.718707 
L 463.477062 -91.986251 
L 462.869216 -96.518444 
L 462.261369 -101.316299 
L 461.653523 -106.37894 
L 461.045676 -111.703448 
L 460.43783 -117.284729 
L 459.829983 -123.115392 
L 459.222137 -129.185652 
L 458.61429 -135.483252 
L 458.006444 -141.993413 
L 457.398597 -148.698815 
L 456.790751 -155.579599 
L 456.182905 -162.613416 
L 455.575058 -169.775494 
L 454.967212 -177.038752 
L 454.359365 -184.373944 
L 453.751519 -191.749833 
L 453.143672 -199.133411 
L 452.535826 -206.490136 
L 451.927979 -213.784211 
L 451.320133 -220.978879 
L 450.712286 -228.036756 
L 450.10444 -234.920164 
L 449.496593 -241.591498 
L 448.888747 -248.013588 
L 448.2809 -254.150076 
L 447.673054 -259.965782 
L 447.065207 -265.427076 
L 446.457361 -270.502227 
L 445.849514 -275.161738 
L 445.241668 -279.378663 
L 444.633822 -283.128884 
L 444.025975 -286.391374 
L 443.418129 -289.148403 
L 442.810282 -291.385722 
L 442.202436 -293.092695 
L 441.594589 -294.262389 
L 440.986743 -294.89162 
L 440.378896 -294.980952 
L 439.77105 -294.534653 
L 439.163203 -293.560605 
L 438.555357 -292.070175 
L 437.94751 -290.078045 
L 437.339664 -287.602007 
L 436.731817 -284.66273 
L 436.123971 -281.283494 
L 435.516124 -277.489908 
L 434.908278 -273.309604 
L 434.300432 -268.771928 
L 433.692585 -263.907616 
L 433.084739 -258.748472 
L 432.476892 -253.32705 
L 431.869046 -247.676337 
L 431.261199 -241.829462 
L 430.653353 -235.819401 
L 430.045506 -229.678721 
L 429.43766 -223.43933 
L 428.829813 -217.132258 
L 428.221967 -210.787462 
L 427.61412 -204.433659 
L 427.006274 -198.098178 
L 426.398427 -191.806849 
L 425.790581 -185.583908 
L 425.182734 -179.45193 
L 424.574888 -173.43179 
L 423.967041 -167.542634 
L 423.359195 -161.801877 
L 422.751349 -156.225217 
L 422.143502 -150.826661 
L 421.535656 -145.618561 
L 420.927809 -140.611665 
L 420.319963 -135.81517 
L 419.712116 -131.236782 
L 419.10427 -126.882779 
L 418.496423 -122.758076 
L 417.888577 -118.866286 
L 417.28073 -115.209784 
L 416.672884 -111.789764 
L 416.065037 -108.6063 
L 415.457191 -105.658392 
L 414.849344 -102.944022 
L 414.241498 -100.460193 
L 413.633651 -98.202975 
L 413.025805 -96.167545 
L 412.417959 -94.348218 
L 411.810112 -92.738492 
L 411.202266 -91.331076 
L 410.594419 -90.11793 
L 409.986573 -89.090299 
L 409.378726 -88.238757 
L 408.77088 -87.553245 
L 408.163033 -87.023119 
L 407.555187 -86.6372 
L 406.94734 -86.383833 
L 406.339494 -86.250942 
L 405.731647 -86.226098 
L 405.123801 -86.296591 
L 404.515954 -86.449507 
L 403.908108 -86.671804 
L 403.300261 -86.950401 
L 402.692415 -87.272263 
L 402.084568 -87.624494 
L 401.476722 -87.994428 
L 400.868876 -88.369717 
L 400.261029 -88.738429 
L 399.653183 -89.089132 
L 399.045336 -89.410983 
L 398.43749 -89.693808 
L 397.829643 -89.928176 
L 397.221797 -90.105471 
L 396.61395 -90.217952 
L 396.006104 -90.258802 
L 395.398257 -90.222174 
L 394.790411 -90.10322 
L 394.182564 -89.898113 
L 393.574718 -89.604057 
L 392.966871 -89.219285 
L 392.359025 -88.743043 
L 391.751178 -88.175572 
L 391.143332 -87.518068 
L 390.535486 -86.772638 
L 389.927639 -85.942248 
L 389.319793 -85.03066 
L 388.711946 -84.042357 
L 388.1041 -82.982475 
L 387.496253 -81.856715 
L 386.888407 -80.671261 
L 386.28056 -79.43269 
L 385.672714 -78.147886 
L 385.064867 -76.823949 
L 384.457021 -75.468108 
L 383.849174 -74.087637 
L 383.241328 -72.689771 
L 382.633481 -71.281631 
L 382.025635 -69.870153 
L 381.417788 -68.462022 
L 380.809942 -67.063611 
L 380.202095 -65.680934 
L 379.594249 -64.319599 
L 378.986403 -62.984775 
L 378.378556 -61.681161 
L 377.77071 -60.412965 
L 377.162863 -59.183897 
L 376.555017 -57.997154 
L 375.94717 -56.85543 
L 375.339324 -55.760916 
L 374.731477 -54.71532 
L 374.123631 -53.719877 
L 373.515784 -52.775379 
L 372.907938 -51.882197 
L 372.300091 -51.04031 
L 371.692245 -50.24934 
L 371.084398 -49.508583 
L 370.476552 -48.817042 
L 369.868705 -48.173465 
L 369.260859 -47.57638 
L 368.653012 -47.024125 
L 368.045166 -46.514886 
L 367.43732 -46.046728 
L 366.829473 -45.617623 
L 366.221627 -45.22548 
L 365.61378 -44.868171 
L 365.005934 -44.543553 
L 364.398087 -44.249495 
L 363.790241 -43.983888 
L 363.182394 -43.744669 
L 362.574548 -43.529833 
L 361.966701 -43.337443 
L 361.358855 -43.165642 
L 360.751008 -43.012659 
L 360.143162 -42.876813 
L 359.535315 -42.756524 
L 358.927469 -42.650305 
L 358.319622 -42.55677 
L 357.711776 -42.474633 
z
" id="mc53c2cb0e0" style="stroke:#ff7f0e;"/>
    </defs>
    <g clip-path="url(#pfe2e081683)">
     <use style="fill:#ff7f0e;fill-opacity:0.4;stroke:#ff7f0e;" x="0" xlink:href="#mc53c2cb0e0" y="345.6"/>
    </g>
   </g>
   <g id="matplotlib.axis_1">
    <g id="xtick_1">
     <g id="line2d_1">
      <defs>
       <path d="M 0 0 
L 0 3.5 
" id="m5db5450b9e" style="stroke:#000000;stroke-width:0.8;"/>
      </defs>
      <g>
       <use style="stroke:#000000;stroke-width:0.8;" x="44.66" xlink:href="#m5db5450b9e" y="303.64"/>
      </g>
     </g>
     <g id="text_1">
      <!-- 0.0 -->
      <g transform="translate(36.708438 318.238437)scale(0.1 -0.1)">
       <defs>
        <path d="M 2034 4250 
Q 1547 4250 1301 3770 
Q 1056 3291 1056 2328 
Q 1056 1369 1301 889 
Q 1547 409 2034 409 
Q 2525 409 2770 889 
Q 3016 1369 3016 2328 
Q 3016 3291 2770 3770 
Q 2525 4250 2034 4250 
z
M 2034 4750 
Q 2819 4750 3233 4129 
Q 3647 3509 3647 2328 
Q 3647 1150 3233 529 
Q 2819 -91 2034 -91 
Q 1250 -91 836 529 
Q 422 1150 422 2328 
Q 422 3509 836 4129 
Q 1250 4750 2034 4750 
z
" id="DejaVuSans-30" transform="scale(0.015625)"/>
        <path d="M 684 794 
L 1344 794 
L 1344 0 
L 684 0 
L 684 794 
z
" id="DejaVuSans-2e" transform="scale(0.015625)"/>
       </defs>
       <use xlink:href="#DejaVuSans-30"/>
       <use x="63.623047" xlink:href="#DejaVuSans-2e"/>
       <use x="95.410156" xlink:href="#DejaVuSans-30"/>
      </g>
     </g>
    </g>
    <g id="xtick_2">
     <g id="line2d_2">
      <g>
       <use style="stroke:#000000;stroke-width:0.8;" x="124.135" xlink:href="#m5db5450b9e" y="303.64"/>
      </g>
     </g>
     <g id="text_2">
      <!-- 0.2 -->
      <g transform="translate(116.183437 318.238437)scale(0.1 -0.1)">
       <defs>
        <path d="M 1228 531 
L 3431 531 
L 3431 0 
L 469 0 
L 469 531 
Q 828 903 1448 1529 
Q 2069 2156 2228 2338 
Q 2531 2678 2651 2914 
Q 2772 3150 2772 3378 
Q 2772 3750 2511 3984 
Q 2250 4219 1831 4219 
Q 1534 4219 1204 4116 
Q 875 4013 500 3803 
L 500 4441 
Q 881 4594 1212 4672 
Q 1544 4750 1819 4750 
Q 2544 4750 2975 4387 
Q 3406 4025 3406 3419 
Q 3406 3131 3298 2873 
Q 3191 2616 2906 2266 
Q 2828 2175 2409 1742 
Q 1991 1309 1228 531 
z
" id="DejaVuSans-32" transform="scale(0.015625)"/>
       </defs>
       <use xlink:href="#DejaVuSans-30"/>
       <use x="63.623047" xlink:href="#DejaVuSans-2e"/>
       <use x="95.410156" xlink:href="#DejaVuSans-32"/>
      </g>
     </g>
    </g>
    <g id="xtick_3">
     <g id="line2d_3">
      <g>
       <use style="stroke:#000000;stroke-width:0.8;" x="203.61" xlink:href="#m5db5450b9e" y="303.64"/>
      </g>
     </g>
     <g id="text_3">
      <!-- 0.4 -->
      <g transform="translate(195.658437 318.238437)scale(0.1 -0.1)">
       <defs>
        <path d="M 2419 4116 
L 825 1625 
L 2419 1625 
L 2419 4116 
z
M 2253 4666 
L 3047 4666 
L 3047 1625 
L 3713 1625 
L 3713 1100 
L 3047 1100 
L 3047 0 
L 2419 0 
L 2419 1100 
L 313 1100 
L 313 1709 
L 2253 4666 
z
" id="DejaVuSans-34" transform="scale(0.015625)"/>
       </defs>
       <use xlink:href="#DejaVuSans-30"/>
       <use x="63.623047" xlink:href="#DejaVuSans-2e"/>
       <use x="95.410156" xlink:href="#DejaVuSans-34"/>
      </g>
     </g>
    </g>
    <g id="xtick_4">
     <g id="line2d_4">
      <g>
       <use style="stroke:#000000;stroke-width:0.8;" x="283.085" xlink:href="#m5db5450b9e" y="303.64"/>
      </g>
     </g>
     <g id="text_4">
      <!-- 0.6 -->
      <g transform="translate(275.133438 318.238437)scale(0.1 -0.1)">
       <defs>
        <path d="M 2113 2584 
Q 1688 2584 1439 2293 
Q 1191 2003 1191 1497 
Q 1191 994 1439 701 
Q 1688 409 2113 409 
Q 2538 409 2786 701 
Q 3034 994 3034 1497 
Q 3034 2003 2786 2293 
Q 2538 2584 2113 2584 
z
M 3366 4563 
L 3366 3988 
Q 3128 4100 2886 4159 
Q 2644 4219 2406 4219 
Q 1781 4219 1451 3797 
Q 1122 3375 1075 2522 
Q 1259 2794 1537 2939 
Q 1816 3084 2150 3084 
Q 2853 3084 3261 2657 
Q 3669 2231 3669 1497 
Q 3669 778 3244 343 
Q 2819 -91 2113 -91 
Q 1303 -91 875 529 
Q 447 1150 447 2328 
Q 447 3434 972 4092 
Q 1497 4750 2381 4750 
Q 2619 4750 2861 4703 
Q 3103 4656 3366 4563 
z
" id="DejaVuSans-36" transform="scale(0.015625)"/>
       </defs>
       <use xlink:href="#DejaVuSans-30"/>
       <use x="63.623047" xlink:href="#DejaVuSans-2e"/>
       <use x="95.410156" xlink:href="#DejaVuSans-36"/>
      </g>
     </g>
    </g>
    <g id="xtick_5">
     <g id="line2d_5">
      <g>
       <use style="stroke:#000000;stroke-width:0.8;" x="362.56" xlink:href="#m5db5450b9e" y="303.64"/>
      </g>
     </g>
     <g id="text_5">
      <!-- 0.8 -->
      <g transform="translate(354.608437 318.238437)scale(0.1 -0.1)">
       <defs>
        <path d="M 2034 2216 
Q 1584 2216 1326 1975 
Q 1069 1734 1069 1313 
Q 1069 891 1326 650 
Q 1584 409 2034 409 
Q 2484 409 2743 651 
Q 3003 894 3003 1313 
Q 3003 1734 2745 1975 
Q 2488 2216 2034 2216 
z
M 1403 2484 
Q 997 2584 770 2862 
Q 544 3141 544 3541 
Q 544 4100 942 4425 
Q 1341 4750 2034 4750 
Q 2731 4750 3128 4425 
Q 3525 4100 3525 3541 
Q 3525 3141 3298 2862 
Q 3072 2584 2669 2484 
Q 3125 2378 3379 2068 
Q 3634 1759 3634 1313 
Q 3634 634 3220 271 
Q 2806 -91 2034 -91 
Q 1263 -91 848 271 
Q 434 634 434 1313 
Q 434 1759 690 2068 
Q 947 2378 1403 2484 
z
M 1172 3481 
Q 1172 3119 1398 2916 
Q 1625 2713 2034 2713 
Q 2441 2713 2670 2916 
Q 2900 3119 2900 3481 
Q 2900 3844 2670 4047 
Q 2441 4250 2034 4250 
Q 1625 4250 1398 4047 
Q 1172 3844 1172 3481 
z
" id="DejaVuSans-38" transform="scale(0.015625)"/>
       </defs>
       <use xlink:href="#DejaVuSans-30"/>
       <use x="63.623047" xlink:href="#DejaVuSans-2e"/>
       <use x="95.410156" xlink:href="#DejaVuSans-38"/>
      </g>
     </g>
    </g>
    <g id="xtick_6">
     <g id="line2d_6">
      <g>
       <use style="stroke:#000000;stroke-width:0.8;" x="442.035" xlink:href="#m5db5450b9e" y="303.64"/>
      </g>
     </g>
     <g id="text_6">
      <!-- 1.0 -->
      <g transform="translate(434.083437 318.238437)scale(0.1 -0.1)">
       <defs>
        <path d="M 794 531 
L 1825 531 
L 1825 4091 
L 703 3866 
L 703 4441 
L 1819 4666 
L 2450 4666 
L 2450 531 
L 3481 531 
L 3481 0 
L 794 0 
L 794 531 
z
" id="DejaVuSans-31" transform="scale(0.015625)"/>
       </defs>
       <use xlink:href="#DejaVuSans-31"/>
       <use x="63.623047" xlink:href="#DejaVuSans-2e"/>
       <use x="95.410156" xlink:href="#DejaVuSans-30"/>
      </g>
     </g>
    </g>
    <g id="text_7">
     <!-- Credibility index -->
     <g transform="translate(202.742812 331.916562)scale(0.1 -0.1)">
      <defs>
       <path d="M 4122 4306 
L 4122 3641 
Q 3803 3938 3442 4084 
Q 3081 4231 2675 4231 
Q 1875 4231 1450 3742 
Q 1025 3253 1025 2328 
Q 1025 1406 1450 917 
Q 1875 428 2675 428 
Q 3081 428 3442 575 
Q 3803 722 4122 1019 
L 4122 359 
Q 3791 134 3420 21 
Q 3050 -91 2638 -91 
Q 1578 -91 968 557 
Q 359 1206 359 2328 
Q 359 3453 968 4101 
Q 1578 4750 2638 4750 
Q 3056 4750 3426 4639 
Q 3797 4528 4122 4306 
z
" id="DejaVuSans-43" transform="scale(0.015625)"/>
       <path d="M 2631 2963 
Q 2534 3019 2420 3045 
Q 2306 3072 2169 3072 
Q 1681 3072 1420 2755 
Q 1159 2438 1159 1844 
L 1159 0 
L 581 0 
L 581 3500 
L 1159 3500 
L 1159 2956 
Q 1341 3275 1631 3429 
Q 1922 3584 2338 3584 
Q 2397 3584 2469 3576 
Q 2541 3569 2628 3553 
L 2631 2963 
z
" id="DejaVuSans-72" transform="scale(0.015625)"/>
       <path d="M 3597 1894 
L 3597 1613 
L 953 1613 
Q 991 1019 1311 708 
Q 1631 397 2203 397 
Q 2534 397 2845 478 
Q 3156 559 3463 722 
L 3463 178 
Q 3153 47 2828 -22 
Q 2503 -91 2169 -91 
Q 1331 -91 842 396 
Q 353 884 353 1716 
Q 353 2575 817 3079 
Q 1281 3584 2069 3584 
Q 2775 3584 3186 3129 
Q 3597 2675 3597 1894 
z
M 3022 2063 
Q 3016 2534 2758 2815 
Q 2500 3097 2075 3097 
Q 1594 3097 1305 2825 
Q 1016 2553 972 2059 
L 3022 2063 
z
" id="DejaVuSans-65" transform="scale(0.015625)"/>
       <path d="M 2906 2969 
L 2906 4863 
L 3481 4863 
L 3481 0 
L 2906 0 
L 2906 525 
Q 2725 213 2448 61 
Q 2172 -91 1784 -91 
Q 1150 -91 751 415 
Q 353 922 353 1747 
Q 353 2572 751 3078 
Q 1150 3584 1784 3584 
Q 2172 3584 2448 3432 
Q 2725 3281 2906 2969 
z
M 947 1747 
Q 947 1113 1208 752 
Q 1469 391 1925 391 
Q 2381 391 2643 752 
Q 2906 1113 2906 1747 
Q 2906 2381 2643 2742 
Q 2381 3103 1925 3103 
Q 1469 3103 1208 2742 
Q 947 2381 947 1747 
z
" id="DejaVuSans-64" transform="scale(0.015625)"/>
       <path d="M 603 3500 
L 1178 3500 
L 1178 0 
L 603 0 
L 603 3500 
z
M 603 4863 
L 1178 4863 
L 1178 4134 
L 603 4134 
L 603 4863 
z
" id="DejaVuSans-69" transform="scale(0.015625)"/>
       <path d="M 3116 1747 
Q 3116 2381 2855 2742 
Q 2594 3103 2138 3103 
Q 1681 3103 1420 2742 
Q 1159 2381 1159 1747 
Q 1159 1113 1420 752 
Q 1681 391 2138 391 
Q 2594 391 2855 752 
Q 3116 1113 3116 1747 
z
M 1159 2969 
Q 1341 3281 1617 3432 
Q 1894 3584 2278 3584 
Q 2916 3584 3314 3078 
Q 3713 2572 3713 1747 
Q 3713 922 3314 415 
Q 2916 -91 2278 -91 
Q 1894 -91 1617 61 
Q 1341 213 1159 525 
L 1159 0 
L 581 0 
L 581 4863 
L 1159 4863 
L 1159 2969 
z
" id="DejaVuSans-62" transform="scale(0.015625)"/>
       <path d="M 603 4863 
L 1178 4863 
L 1178 0 
L 603 0 
L 603 4863 
z
" id="DejaVuSans-6c" transform="scale(0.015625)"/>
       <path d="M 1172 4494 
L 1172 3500 
L 2356 3500 
L 2356 3053 
L 1172 3053 
L 1172 1153 
Q 1172 725 1289 603 
Q 1406 481 1766 481 
L 2356 481 
L 2356 0 
L 1766 0 
Q 1100 0 847 248 
Q 594 497 594 1153 
L 594 3053 
L 172 3053 
L 172 3500 
L 594 3500 
L 594 4494 
L 1172 4494 
z
" id="DejaVuSans-74" transform="scale(0.015625)"/>
       <path d="M 2059 -325 
Q 1816 -950 1584 -1140 
Q 1353 -1331 966 -1331 
L 506 -1331 
L 506 -850 
L 844 -850 
Q 1081 -850 1212 -737 
Q 1344 -625 1503 -206 
L 1606 56 
L 191 3500 
L 800 3500 
L 1894 763 
L 2988 3500 
L 3597 3500 
L 2059 -325 
z
" id="DejaVuSans-79" transform="scale(0.015625)"/>
       <path id="DejaVuSans-20" transform="scale(0.015625)"/>
       <path d="M 3513 2113 
L 3513 0 
L 2938 0 
L 2938 2094 
Q 2938 2591 2744 2837 
Q 2550 3084 2163 3084 
Q 1697 3084 1428 2787 
Q 1159 2491 1159 1978 
L 1159 0 
L 581 0 
L 581 3500 
L 1159 3500 
L 1159 2956 
Q 1366 3272 1645 3428 
Q 1925 3584 2291 3584 
Q 2894 3584 3203 3211 
Q 3513 2838 3513 2113 
z
" id="DejaVuSans-6e" transform="scale(0.015625)"/>
       <path d="M 3513 3500 
L 2247 1797 
L 3578 0 
L 2900 0 
L 1881 1375 
L 863 0 
L 184 0 
L 1544 1831 
L 300 3500 
L 978 3500 
L 1906 2253 
L 2834 3500 
L 3513 3500 
z
" id="DejaVuSans-78" transform="scale(0.015625)"/>
      </defs>
      <use xlink:href="#DejaVuSans-43"/>
      <use x="69.824219" xlink:href="#DejaVuSans-72"/>
      <use x="108.6875" xlink:href="#DejaVuSans-65"/>
      <use x="170.210938" xlink:href="#DejaVuSans-64"/>
      <use x="233.6875" xlink:href="#DejaVuSans-69"/>
      <use x="261.470703" xlink:href="#DejaVuSans-62"/>
      <use x="324.947266" xlink:href="#DejaVuSans-69"/>
      <use x="352.730469" xlink:href="#DejaVuSans-6c"/>
      <use x="380.513672" xlink:href="#DejaVuSans-69"/>
      <use x="408.296875" xlink:href="#DejaVuSans-74"/>
      <use x="447.505859" xlink:href="#DejaVuSans-79"/>
      <use x="506.685547" xlink:href="#DejaVuSans-20"/>
      <use x="538.472656" xlink:href="#DejaVuSans-69"/>
      <use x="566.255859" xlink:href="#DejaVuSans-6e"/>
      <use x="629.634766" xlink:href="#DejaVuSans-64"/>
      <use x="693.111328" xlink:href="#DejaVuSans-65"/>
      <use x="752.884766" xlink:href="#DejaVuSans-78"/>
     </g>
    </g>
   </g>
   <g id="matplotlib.axis_2">
    <g id="ytick_1">
     <g id="line2d_7">
      <defs>
       <path d="M 0 0 
L -3.5 0 
" id="m5d65d360f5" style="stroke:#000000;stroke-width:0.8;"/>
      </defs>
      <g>
       <use style="stroke:#000000;stroke-width:0.8;" x="44.66" xlink:href="#m5d65d360f5" y="303.64"/>
      </g>
     </g>
     <g id="text_8">
      <!-- 0 -->
      <g transform="translate(31.2975 307.439219)scale(0.1 -0.1)">
       <use xlink:href="#DejaVuSans-30"/>
      </g>
     </g>
    </g>
    <g id="ytick_2">
     <g id="line2d_8">
      <g>
       <use style="stroke:#000000;stroke-width:0.8;" x="44.66" xlink:href="#m5d65d360f5" y="253.677119"/>
      </g>
     </g>
     <g id="text_9">
      <!-- 2 -->
      <g transform="translate(31.2975 257.476338)scale(0.1 -0.1)">
       <use xlink:href="#DejaVuSans-32"/>
      </g>
     </g>
    </g>
    <g id="ytick_3">
     <g id="line2d_9">
      <g>
       <use style="stroke:#000000;stroke-width:0.8;" x="44.66" xlink:href="#m5d65d360f5" y="203.714238"/>
      </g>
     </g>
     <g id="text_10">
      <!-- 4 -->
      <g transform="translate(31.2975 207.513457)scale(0.1 -0.1)">
       <use xlink:href="#DejaVuSans-34"/>
      </g>
     </g>
    </g>
    <g id="ytick_4">
     <g id="line2d_10">
      <g>
       <use style="stroke:#000000;stroke-width:0.8;" x="44.66" xlink:href="#m5d65d360f5" y="153.751358"/>
      </g>
     </g>
     <g id="text_11">
      <!-- 6 -->
      <g transform="translate(31.2975 157.550576)scale(0.1 -0.1)">
       <use xlink:href="#DejaVuSans-36"/>
      </g>
     </g>
    </g>
    <g id="ytick_5">
     <g id="line2d_11">
      <g>
       <use style="stroke:#000000;stroke-width:0.8;" x="44.66" xlink:href="#m5d65d360f5" y="103.788477"/>
      </g>
     </g>
     <g id="text_12">
      <!-- 8 -->
      <g transform="translate(31.2975 107.587696)scale(0.1 -0.1)">
       <use xlink:href="#DejaVuSans-38"/>
      </g>
     </g>
    </g>
    <g id="ytick_6">
     <g id="line2d_12">
      <g>
       <use style="stroke:#000000;stroke-width:0.8;" x="44.66" xlink:href="#m5d65d360f5" y="53.825596"/>
      </g>
     </g>
     <g id="text_13">
      <!-- 10 -->
      <g transform="translate(24.935 57.624815)scale(0.1 -0.1)">
       <use xlink:href="#DejaVuSans-31"/>
       <use x="63.623047" xlink:href="#DejaVuSans-30"/>
      </g>
     </g>
    </g>
    <g id="text_14">
     <!-- Density -->
     <g transform="translate(18.855313 189.812594)rotate(-90)scale(0.1 -0.1)">
      <defs>
       <path d="M 1259 4147 
L 1259 519 
L 2022 519 
Q 2988 519 3436 956 
Q 3884 1394 3884 2338 
Q 3884 3275 3436 3711 
Q 2988 4147 2022 4147 
L 1259 4147 
z
M 628 4666 
L 1925 4666 
Q 3281 4666 3915 4102 
Q 4550 3538 4550 2338 
Q 4550 1131 3912 565 
Q 3275 0 1925 0 
L 628 0 
L 628 4666 
z
" id="DejaVuSans-44" transform="scale(0.015625)"/>
       <path d="M 2834 3397 
L 2834 2853 
Q 2591 2978 2328 3040 
Q 2066 3103 1784 3103 
Q 1356 3103 1142 2972 
Q 928 2841 928 2578 
Q 928 2378 1081 2264 
Q 1234 2150 1697 2047 
L 1894 2003 
Q 2506 1872 2764 1633 
Q 3022 1394 3022 966 
Q 3022 478 2636 193 
Q 2250 -91 1575 -91 
Q 1294 -91 989 -36 
Q 684 19 347 128 
L 347 722 
Q 666 556 975 473 
Q 1284 391 1588 391 
Q 1994 391 2212 530 
Q 2431 669 2431 922 
Q 2431 1156 2273 1281 
Q 2116 1406 1581 1522 
L 1381 1569 
Q 847 1681 609 1914 
Q 372 2147 372 2553 
Q 372 3047 722 3315 
Q 1072 3584 1716 3584 
Q 2034 3584 2315 3537 
Q 2597 3491 2834 3397 
z
" id="DejaVuSans-73" transform="scale(0.015625)"/>
      </defs>
      <use xlink:href="#DejaVuSans-44"/>
      <use x="77.001953" xlink:href="#DejaVuSans-65"/>
      <use x="138.525391" xlink:href="#DejaVuSans-6e"/>
      <use x="201.904297" xlink:href="#DejaVuSans-73"/>
      <use x="254.003906" xlink:href="#DejaVuSans-69"/>
      <use x="281.787109" xlink:href="#DejaVuSans-74"/>
      <use x="320.996094" xlink:href="#DejaVuSans-79"/>
     </g>
    </g>
   </g>
   <g id="patch_3">
    <path d="M 44.66 303.64 
L 44.66 37.968 
" style="fill:none;stroke:#000000;stroke-linecap:square;stroke-linejoin:miter;stroke-width:0.8;"/>
   </g>
   <g id="patch_4">
    <path d="M 442.035 303.64 
L 442.035 37.968 
" style="fill:none;stroke:#000000;stroke-linecap:square;stroke-linejoin:miter;stroke-width:0.8;"/>
   </g>
   <g id="patch_5">
    <path d="M 44.66 303.64 
L 442.035 303.64 
" style="fill:none;stroke:#000000;stroke-linecap:square;stroke-linejoin:miter;stroke-width:0.8;"/>
   </g>
   <g id="patch_6">
    <path d="M 44.66 37.968 
L 442.035 37.968 
" style="fill:none;stroke:#000000;stroke-linecap:square;stroke-linejoin:miter;stroke-width:0.8;"/>
   </g>
   <g id="text_15">
    <!-- Credibility index consensus vs non consensus  -->
    <g transform="translate(104.24125 18.530625)scale(0.12 -0.12)">
     <defs>
      <path d="M 3122 3366 
L 3122 2828 
Q 2878 2963 2633 3030 
Q 2388 3097 2138 3097 
Q 1578 3097 1268 2742 
Q 959 2388 959 1747 
Q 959 1106 1268 751 
Q 1578 397 2138 397 
Q 2388 397 2633 464 
Q 2878 531 3122 666 
L 3122 134 
Q 2881 22 2623 -34 
Q 2366 -91 2075 -91 
Q 1284 -91 818 406 
Q 353 903 353 1747 
Q 353 2603 823 3093 
Q 1294 3584 2113 3584 
Q 2378 3584 2631 3529 
Q 2884 3475 3122 3366 
z
" id="DejaVuSans-63" transform="scale(0.015625)"/>
      <path d="M 1959 3097 
Q 1497 3097 1228 2736 
Q 959 2375 959 1747 
Q 959 1119 1226 758 
Q 1494 397 1959 397 
Q 2419 397 2687 759 
Q 2956 1122 2956 1747 
Q 2956 2369 2687 2733 
Q 2419 3097 1959 3097 
z
M 1959 3584 
Q 2709 3584 3137 3096 
Q 3566 2609 3566 1747 
Q 3566 888 3137 398 
Q 2709 -91 1959 -91 
Q 1206 -91 779 398 
Q 353 888 353 1747 
Q 353 2609 779 3096 
Q 1206 3584 1959 3584 
z
" id="DejaVuSans-6f" transform="scale(0.015625)"/>
      <path d="M 544 1381 
L 544 3500 
L 1119 3500 
L 1119 1403 
Q 1119 906 1312 657 
Q 1506 409 1894 409 
Q 2359 409 2629 706 
Q 2900 1003 2900 1516 
L 2900 3500 
L 3475 3500 
L 3475 0 
L 2900 0 
L 2900 538 
Q 2691 219 2414 64 
Q 2138 -91 1772 -91 
Q 1169 -91 856 284 
Q 544 659 544 1381 
z
M 1991 3584 
L 1991 3584 
z
" id="DejaVuSans-75" transform="scale(0.015625)"/>
      <path d="M 191 3500 
L 800 3500 
L 1894 563 
L 2988 3500 
L 3597 3500 
L 2284 0 
L 1503 0 
L 191 3500 
z
" id="DejaVuSans-76" transform="scale(0.015625)"/>
     </defs>
     <use xlink:href="#DejaVuSans-43"/>
     <use x="69.824219" xlink:href="#DejaVuSans-72"/>
     <use x="108.6875" xlink:href="#DejaVuSans-65"/>
     <use x="170.210938" xlink:href="#DejaVuSans-64"/>
     <use x="233.6875" xlink:href="#DejaVuSans-69"/>
     <use x="261.470703" xlink:href="#DejaVuSans-62"/>
     <use x="324.947266" xlink:href="#DejaVuSans-69"/>
     <use x="352.730469" xlink:href="#DejaVuSans-6c"/>
     <use x="380.513672" xlink:href="#DejaVuSans-69"/>
     <use x="408.296875" xlink:href="#DejaVuSans-74"/>
     <use x="447.505859" xlink:href="#DejaVuSans-79"/>
     <use x="506.685547" xlink:href="#DejaVuSans-20"/>
     <use x="538.472656" xlink:href="#DejaVuSans-69"/>
     <use x="566.255859" xlink:href="#DejaVuSans-6e"/>
     <use x="629.634766" xlink:href="#DejaVuSans-64"/>
     <use x="693.111328" xlink:href="#DejaVuSans-65"/>
     <use x="752.884766" xlink:href="#DejaVuSans-78"/>
     <use x="812.064453" xlink:href="#DejaVuSans-20"/>
     <use x="843.851562" xlink:href="#DejaVuSans-63"/>
     <use x="898.832031" xlink:href="#DejaVuSans-6f"/>
     <use x="960.013672" xlink:href="#DejaVuSans-6e"/>
     <use x="1023.392578" xlink:href="#DejaVuSans-73"/>
     <use x="1075.492188" xlink:href="#DejaVuSans-65"/>
     <use x="1137.015625" xlink:href="#DejaVuSans-6e"/>
     <use x="1200.394531" xlink:href="#DejaVuSans-73"/>
     <use x="1252.494141" xlink:href="#DejaVuSans-75"/>
     <use x="1315.873047" xlink:href="#DejaVuSans-73"/>
     <use x="1367.972656" xlink:href="#DejaVuSans-20"/>
     <use x="1399.759766" xlink:href="#DejaVuSans-76"/>
     <use x="1458.939453" xlink:href="#DejaVuSans-73"/>
     <use x="1511.039062" xlink:href="#DejaVuSans-20"/>
     <use x="1542.826172" xlink:href="#DejaVuSans-6e"/>
     <use x="1606.205078" xlink:href="#DejaVuSans-6f"/>
     <use x="1667.386719" xlink:href="#DejaVuSans-6e"/>
     <use x="1730.765625" xlink:href="#DejaVuSans-20"/>
     <use x="1762.552734" xlink:href="#DejaVuSans-63"/>
     <use x="1817.533203" xlink:href="#DejaVuSans-6f"/>
     <use x="1878.714844" xlink:href="#DejaVuSans-6e"/>
     <use x="1942.09375" xlink:href="#DejaVuSans-73"/>
     <use x="1994.193359" xlink:href="#DejaVuSans-65"/>
     <use x="2055.716797" xlink:href="#DejaVuSans-6e"/>
     <use x="2119.095703" xlink:href="#DejaVuSans-73"/>
     <use x="2171.195312" xlink:href="#DejaVuSans-75"/>
     <use x="2234.574219" xlink:href="#DejaVuSans-73"/>
     <use x="2286.673828" xlink:href="#DejaVuSans-20"/>
    </g>
    <!-- Set s1 -->
    <g transform="translate(224.644375 31.968)scale(0.12 -0.12)">
     <defs>
      <path d="M 3425 4513 
L 3425 3897 
Q 3066 4069 2747 4153 
Q 2428 4238 2131 4238 
Q 1616 4238 1336 4038 
Q 1056 3838 1056 3469 
Q 1056 3159 1242 3001 
Q 1428 2844 1947 2747 
L 2328 2669 
Q 3034 2534 3370 2195 
Q 3706 1856 3706 1288 
Q 3706 609 3251 259 
Q 2797 -91 1919 -91 
Q 1588 -91 1214 -16 
Q 841 59 441 206 
L 441 856 
Q 825 641 1194 531 
Q 1563 422 1919 422 
Q 2459 422 2753 634 
Q 3047 847 3047 1241 
Q 3047 1584 2836 1778 
Q 2625 1972 2144 2069 
L 1759 2144 
Q 1053 2284 737 2584 
Q 422 2884 422 3419 
Q 422 4038 858 4394 
Q 1294 4750 2059 4750 
Q 2388 4750 2728 4690 
Q 3069 4631 3425 4513 
z
" id="DejaVuSans-53" transform="scale(0.015625)"/>
     </defs>
     <use xlink:href="#DejaVuSans-53"/>
     <use x="63.476562" xlink:href="#DejaVuSans-65"/>
     <use x="125" xlink:href="#DejaVuSans-74"/>
     <use x="164.208984" xlink:href="#DejaVuSans-20"/>
     <use x="195.996094" xlink:href="#DejaVuSans-73"/>
     <use x="248.095703" xlink:href="#DejaVuSans-31"/>
    </g>
   </g>
   <g id="legend_1">
    <g id="patch_7">
     <path d="M 51.66 97.719875 
L 222.202188 97.719875 
Q 224.202188 97.719875 224.202188 95.719875 
L 224.202188 44.968 
Q 224.202188 42.968 222.202188 42.968 
L 51.66 42.968 
Q 49.66 42.968 49.66 44.968 
L 49.66 95.719875 
Q 49.66 97.719875 51.66 97.719875 
z
" style="fill:#ffffff;opacity:0.8;stroke:#cccccc;stroke-linejoin:miter;"/>
    </g>
    <g id="patch_8">
     <path d="M 53.66 61.205188 
L 73.66 61.205188 
L 73.66 54.205188 
L 53.66 54.205188 
z
" style="fill:#1f77b4;fill-opacity:0.4;stroke:#1f77b4;stroke-linejoin:miter;"/>
    </g>
    <g id="text_16">
     <!-- Correlation higher than 0  -->
     <g transform="translate(81.66 54.566438)scale(0.1 -0.1)">
      <defs>
       <path d="M 2194 1759 
Q 1497 1759 1228 1600 
Q 959 1441 959 1056 
Q 959 750 1161 570 
Q 1363 391 1709 391 
Q 2188 391 2477 730 
Q 2766 1069 2766 1631 
L 2766 1759 
L 2194 1759 
z
M 3341 1997 
L 3341 0 
L 2766 0 
L 2766 531 
Q 2569 213 2275 61 
Q 1981 -91 1556 -91 
Q 1019 -91 701 211 
Q 384 513 384 1019 
Q 384 1609 779 1909 
Q 1175 2209 1959 2209 
L 2766 2209 
L 2766 2266 
Q 2766 2663 2505 2880 
Q 2244 3097 1772 3097 
Q 1472 3097 1187 3025 
Q 903 2953 641 2809 
L 641 3341 
Q 956 3463 1253 3523 
Q 1550 3584 1831 3584 
Q 2591 3584 2966 3190 
Q 3341 2797 3341 1997 
z
" id="DejaVuSans-61" transform="scale(0.015625)"/>
       <path d="M 3513 2113 
L 3513 0 
L 2938 0 
L 2938 2094 
Q 2938 2591 2744 2837 
Q 2550 3084 2163 3084 
Q 1697 3084 1428 2787 
Q 1159 2491 1159 1978 
L 1159 0 
L 581 0 
L 581 4863 
L 1159 4863 
L 1159 2956 
Q 1366 3272 1645 3428 
Q 1925 3584 2291 3584 
Q 2894 3584 3203 3211 
Q 3513 2838 3513 2113 
z
" id="DejaVuSans-68" transform="scale(0.015625)"/>
       <path d="M 2906 1791 
Q 2906 2416 2648 2759 
Q 2391 3103 1925 3103 
Q 1463 3103 1205 2759 
Q 947 2416 947 1791 
Q 947 1169 1205 825 
Q 1463 481 1925 481 
Q 2391 481 2648 825 
Q 2906 1169 2906 1791 
z
M 3481 434 
Q 3481 -459 3084 -895 
Q 2688 -1331 1869 -1331 
Q 1566 -1331 1297 -1286 
Q 1028 -1241 775 -1147 
L 775 -588 
Q 1028 -725 1275 -790 
Q 1522 -856 1778 -856 
Q 2344 -856 2625 -561 
Q 2906 -266 2906 331 
L 2906 616 
Q 2728 306 2450 153 
Q 2172 0 1784 0 
Q 1141 0 747 490 
Q 353 981 353 1791 
Q 353 2603 747 3093 
Q 1141 3584 1784 3584 
Q 2172 3584 2450 3431 
Q 2728 3278 2906 2969 
L 2906 3500 
L 3481 3500 
L 3481 434 
z
" id="DejaVuSans-67" transform="scale(0.015625)"/>
      </defs>
      <use xlink:href="#DejaVuSans-43"/>
      <use x="69.824219" xlink:href="#DejaVuSans-6f"/>
      <use x="131.005859" xlink:href="#DejaVuSans-72"/>
      <use x="170.369141" xlink:href="#DejaVuSans-72"/>
      <use x="209.232422" xlink:href="#DejaVuSans-65"/>
      <use x="270.755859" xlink:href="#DejaVuSans-6c"/>
      <use x="298.539062" xlink:href="#DejaVuSans-61"/>
      <use x="359.818359" xlink:href="#DejaVuSans-74"/>
      <use x="399.027344" xlink:href="#DejaVuSans-69"/>
      <use x="426.810547" xlink:href="#DejaVuSans-6f"/>
      <use x="487.992188" xlink:href="#DejaVuSans-6e"/>
      <use x="551.371094" xlink:href="#DejaVuSans-20"/>
      <use x="583.158203" xlink:href="#DejaVuSans-68"/>
      <use x="646.537109" xlink:href="#DejaVuSans-69"/>
      <use x="674.320312" xlink:href="#DejaVuSans-67"/>
      <use x="737.796875" xlink:href="#DejaVuSans-68"/>
      <use x="801.175781" xlink:href="#DejaVuSans-65"/>
      <use x="862.699219" xlink:href="#DejaVuSans-72"/>
      <use x="903.8125" xlink:href="#DejaVuSans-20"/>
      <use x="935.599609" xlink:href="#DejaVuSans-74"/>
      <use x="974.808594" xlink:href="#DejaVuSans-68"/>
      <use x="1038.1875" xlink:href="#DejaVuSans-61"/>
      <use x="1099.466797" xlink:href="#DejaVuSans-6e"/>
      <use x="1162.845703" xlink:href="#DejaVuSans-20"/>
      <use x="1194.632812" xlink:href="#DejaVuSans-30"/>
      <use x="1258.255859" xlink:href="#DejaVuSans-20"/>
     </g>
     <!-- n=291 -->
     <g transform="translate(81.66 65.76425)scale(0.1 -0.1)">
      <defs>
       <path d="M 678 2906 
L 4684 2906 
L 4684 2381 
L 678 2381 
L 678 2906 
z
M 678 1631 
L 4684 1631 
L 4684 1100 
L 678 1100 
L 678 1631 
z
" id="DejaVuSans-3d" transform="scale(0.015625)"/>
       <path d="M 703 97 
L 703 672 
Q 941 559 1184 500 
Q 1428 441 1663 441 
Q 2288 441 2617 861 
Q 2947 1281 2994 2138 
Q 2813 1869 2534 1725 
Q 2256 1581 1919 1581 
Q 1219 1581 811 2004 
Q 403 2428 403 3163 
Q 403 3881 828 4315 
Q 1253 4750 1959 4750 
Q 2769 4750 3195 4129 
Q 3622 3509 3622 2328 
Q 3622 1225 3098 567 
Q 2575 -91 1691 -91 
Q 1453 -91 1209 -44 
Q 966 3 703 97 
z
M 1959 2075 
Q 2384 2075 2632 2365 
Q 2881 2656 2881 3163 
Q 2881 3666 2632 3958 
Q 2384 4250 1959 4250 
Q 1534 4250 1286 3958 
Q 1038 3666 1038 3163 
Q 1038 2656 1286 2365 
Q 1534 2075 1959 2075 
z
" id="DejaVuSans-39" transform="scale(0.015625)"/>
      </defs>
      <use xlink:href="#DejaVuSans-6e"/>
      <use x="63.378906" xlink:href="#DejaVuSans-3d"/>
      <use x="147.167969" xlink:href="#DejaVuSans-32"/>
      <use x="210.791016" xlink:href="#DejaVuSans-39"/>
      <use x="274.414062" xlink:href="#DejaVuSans-31"/>
     </g>
    </g>
    <g id="patch_9">
     <path d="M 53.66 87.081125 
L 73.66 87.081125 
L 73.66 80.081125 
L 53.66 80.081125 
z
" style="fill:#ff7f0e;fill-opacity:0.4;stroke:#ff7f0e;stroke-linejoin:miter;"/>
    </g>
    <g id="text_17">
     <!-- Correlation higher than 0.8  -->
     <g transform="translate(81.66 80.442375)scale(0.1 -0.1)">
      <use xlink:href="#DejaVuSans-43"/>
      <use x="69.824219" xlink:href="#DejaVuSans-6f"/>
      <use x="131.005859" xlink:href="#DejaVuSans-72"/>
      <use x="170.369141" xlink:href="#DejaVuSans-72"/>
      <use x="209.232422" xlink:href="#DejaVuSans-65"/>
      <use x="270.755859" xlink:href="#DejaVuSans-6c"/>
      <use x="298.539062" xlink:href="#DejaVuSans-61"/>
      <use x="359.818359" xlink:href="#DejaVuSans-74"/>
      <use x="399.027344" xlink:href="#DejaVuSans-69"/>
      <use x="426.810547" xlink:href="#DejaVuSans-6f"/>
      <use x="487.992188" xlink:href="#DejaVuSans-6e"/>
      <use x="551.371094" xlink:href="#DejaVuSans-20"/>
      <use x="583.158203" xlink:href="#DejaVuSans-68"/>
      <use x="646.537109" xlink:href="#DejaVuSans-69"/>
      <use x="674.320312" xlink:href="#DejaVuSans-67"/>
      <use x="737.796875" xlink:href="#DejaVuSans-68"/>
      <use x="801.175781" xlink:href="#DejaVuSans-65"/>
      <use x="862.699219" xlink:href="#DejaVuSans-72"/>
      <use x="903.8125" xlink:href="#DejaVuSans-20"/>
      <use x="935.599609" xlink:href="#DejaVuSans-74"/>
      <use x="974.808594" xlink:href="#DejaVuSans-68"/>
      <use x="1038.1875" xlink:href="#DejaVuSans-61"/>
      <use x="1099.466797" xlink:href="#DejaVuSans-6e"/>
      <use x="1162.845703" xlink:href="#DejaVuSans-20"/>
      <use x="1194.632812" xlink:href="#DejaVuSans-30"/>
      <use x="1258.255859" xlink:href="#DejaVuSans-2e"/>
      <use x="1290.042969" xlink:href="#DejaVuSans-38"/>
      <use x="1353.666016" xlink:href="#DejaVuSans-20"/>
     </g>
     <!-- n=7 -->
     <g transform="translate(81.66 91.640187)scale(0.1 -0.1)">
      <defs>
       <path d="M 525 4666 
L 3525 4666 
L 3525 4397 
L 1831 0 
L 1172 0 
L 2766 4134 
L 525 4134 
L 525 4666 
z
" id="DejaVuSans-37" transform="scale(0.015625)"/>
      </defs>
      <use xlink:href="#DejaVuSans-6e"/>
      <use x="63.378906" xlink:href="#DejaVuSans-3d"/>
      <use x="147.167969" xlink:href="#DejaVuSans-37"/>
     </g>
    </g>
   </g>
  </g>
 </g>
 <defs>
  <clipPath id="pfe2e081683">
   <rect height="265.672" width="397.375" x="44.66" y="37.968"/>
  </clipPath>
 </defs>
</svg>
