<?xml version="1.0" encoding="utf-8" standalone="no"?>
<!DOCTYPE svg PUBLIC "-//W3C//DTD SVG 1.1//EN"
  "http://www.w3.org/Graphics/SVG/1.1/DTD/svg11.dtd">
<svg height="345.6pt" version="1.1" viewBox="0 0 460.8 345.6" width="460.8pt" xmlns="http://www.w3.org/2000/svg" xmlns:xlink="http://www.w3.org/1999/xlink">
 <metadata>
  <rdf:RDF xmlns:cc="http://creativecommons.org/ns#" xmlns:dc="http://purl.org/dc/elements/1.1/" xmlns:rdf="http://www.w3.org/1999/02/22-rdf-syntax-ns#">
   <cc:Work>
    <dc:type rdf:resource="http://purl.org/dc/dcmitype/StillImage"/>
    <dc:date>2021-11-24T22:49:32.710027</dc:date>
    <dc:format>image/svg+xml</dc:format>
    <dc:creator>
     <cc:Agent>
      <dc:title>Matplotlib v3.4.3, https://matplotlib.org/</dc:title>
     </cc:Agent>
    </dc:creator>
   </cc:Work>
  </rdf:RDF>
 </metadata>
 <defs>
  <style type="text/css">*{stroke-linecap:butt;stroke-linejoin:round;}</style>
 </defs>
 <g id="figure_1">
  <g id="patch_1">
   <path d="M 0 345.6 
L 460.8 345.6 
L 460.8 0 
L 0 0 
z
" style="fill:#ffffff;"/>
  </g>
  <g id="axes_1">
   <g id="patch_2">
    <path d="M 47.81 303.64 
L 442.035 303.64 
L 442.035 37.968 
L 47.81 37.968 
z
" style="fill:#ffffff;"/>
   </g>
   <g id="PolyCollection_1">
    <path clip-path="url(#pa04a43db9e)" d="M -20.420444 303.403956 
L -20.420444 303.64 
L -17.515957 303.64 
L -14.611471 303.64 
L -11.706984 303.64 
L -8.802497 303.64 
L -5.89801 303.64 
L -2.993523 303.64 
L -0.089036 303.64 
L 2.815451 303.64 
L 5.719938 303.64 
L 8.624425 303.64 
L 11.528911 303.64 
L 14.433398 303.64 
L 17.337885 303.64 
L 20.242372 303.64 
L 23.146859 303.64 
L 26.051346 303.64 
L 28.955833 303.64 
L 31.86032 303.64 
L 34.764806 303.64 
L 37.669293 303.64 
L 40.57378 303.64 
L 43.478267 303.64 
L 46.382754 303.64 
L 49.287241 303.64 
L 52.191728 303.64 
L 55.096215 303.64 
L 58.000701 303.64 
L 60.905188 303.64 
L 63.809675 303.64 
L 66.714162 303.64 
L 69.618649 303.64 
L 72.523136 303.64 
L 75.427623 303.64 
L 78.33211 303.64 
L 81.236596 303.64 
L 84.141083 303.64 
L 87.04557 303.64 
L 89.950057 303.64 
L 92.854544 303.64 
L 95.759031 303.64 
L 98.663518 303.64 
L 101.568005 303.64 
L 104.472491 303.64 
L 107.376978 303.64 
L 110.281465 303.64 
L 113.185952 303.64 
L 116.090439 303.64 
L 118.994926 303.64 
L 121.899413 303.64 
L 124.8039 303.64 
L 127.708386 303.64 
L 130.612873 303.64 
L 133.51736 303.64 
L 136.421847 303.64 
L 139.326334 303.64 
L 142.230821 303.64 
L 145.135308 303.64 
L 148.039795 303.64 
L 150.944281 303.64 
L 153.848768 303.64 
L 156.753255 303.64 
L 159.657742 303.64 
L 162.562229 303.64 
L 165.466716 303.64 
L 168.371203 303.64 
L 171.27569 303.64 
L 174.180176 303.64 
L 177.084663 303.64 
L 179.98915 303.64 
L 182.893637 303.64 
L 185.798124 303.64 
L 188.702611 303.64 
L 191.607098 303.64 
L 194.511585 303.64 
L 197.416072 303.64 
L 200.320558 303.64 
L 203.225045 303.64 
L 206.129532 303.64 
L 209.034019 303.64 
L 211.938506 303.64 
L 214.842993 303.64 
L 217.74748 303.64 
L 220.651967 303.64 
L 223.556453 303.64 
L 226.46094 303.64 
L 229.365427 303.64 
L 232.269914 303.64 
L 235.174401 303.64 
L 238.078888 303.64 
L 240.983375 303.64 
L 243.887862 303.64 
L 246.792348 303.64 
L 249.696835 303.64 
L 252.601322 303.64 
L 255.505809 303.64 
L 258.410296 303.64 
L 261.314783 303.64 
L 264.21927 303.64 
L 267.123757 303.64 
L 270.028243 303.64 
L 272.93273 303.64 
L 275.837217 303.64 
L 278.741704 303.64 
L 281.646191 303.64 
L 284.550678 303.64 
L 287.455165 303.64 
L 290.359652 303.64 
L 293.264138 303.64 
L 296.168625 303.64 
L 299.073112 303.64 
L 301.977599 303.64 
L 304.882086 303.64 
L 307.786573 303.64 
L 310.69106 303.64 
L 313.595547 303.64 
L 316.500033 303.64 
L 319.40452 303.64 
L 322.309007 303.64 
L 325.213494 303.64 
L 328.117981 303.64 
L 331.022468 303.64 
L 333.926955 303.64 
L 336.831442 303.64 
L 339.735928 303.64 
L 342.640415 303.64 
L 345.544902 303.64 
L 348.449389 303.64 
L 351.353876 303.64 
L 354.258363 303.64 
L 357.16285 303.64 
L 360.067337 303.64 
L 362.971824 303.64 
L 365.87631 303.64 
L 368.780797 303.64 
L 371.685284 303.64 
L 374.589771 303.64 
L 377.494258 303.64 
L 380.398745 303.64 
L 383.303232 303.64 
L 386.207719 303.64 
L 389.112205 303.64 
L 392.016692 303.64 
L 394.921179 303.64 
L 397.825666 303.64 
L 400.730153 303.64 
L 403.63464 303.64 
L 406.539127 303.64 
L 409.443614 303.64 
L 412.3481 303.64 
L 415.252587 303.64 
L 418.157074 303.64 
L 421.061561 303.64 
L 423.966048 303.64 
L 426.870535 303.64 
L 429.775022 303.64 
L 432.679509 303.64 
L 435.583995 303.64 
L 438.488482 303.64 
L 441.392969 303.64 
L 444.297456 303.64 
L 447.201943 303.64 
L 450.10643 303.64 
L 453.010917 303.64 
L 455.915404 303.64 
L 458.81989 303.64 
L 461.724377 303.64 
L 464.628864 303.64 
L 467.533351 303.64 
L 470.437838 303.64 
L 473.342325 303.64 
L 476.246812 303.64 
L 479.151299 303.64 
L 482.055785 303.64 
L 484.960272 303.64 
L 487.864759 303.64 
L 490.769246 303.64 
L 493.673733 303.64 
L 496.57822 303.64 
L 499.482707 303.64 
L 502.387194 303.64 
L 505.29168 303.64 
L 508.196167 303.64 
L 511.100654 303.64 
L 514.005141 303.64 
L 516.909628 303.64 
L 519.814115 303.64 
L 522.718602 303.64 
L 525.623089 303.64 
L 528.527575 303.64 
L 531.432062 303.64 
L 534.336549 303.64 
L 537.241036 303.64 
L 540.145523 303.64 
L 543.05001 303.64 
L 545.954497 303.64 
L 548.858984 303.64 
L 551.763471 303.64 
L 554.667957 303.64 
L 557.572444 303.64 
L 557.572444 302.796083 
L 557.572444 302.796083 
L 554.667957 302.580915 
L 551.763471 302.318224 
L 548.858984 301.999475 
L 545.954497 301.61507 
L 543.05001 301.154336 
L 540.145523 300.60552 
L 537.241036 299.955833 
L 534.336549 299.191517 
L 531.432062 298.297964 
L 528.527575 297.259882 
L 525.623089 296.061506 
L 522.718602 294.686869 
L 519.814115 293.120123 
L 516.909628 291.345909 
L 514.005141 289.349779 
L 511.100654 287.118654 
L 508.196167 284.641315 
L 505.29168 281.908909 
L 502.387194 278.91546 
L 499.482707 275.658367 
L 496.57822 272.138871 
L 493.673733 268.362461 
L 490.769246 264.339222 
L 487.864759 260.084076 
L 484.960272 255.616932 
L 482.055785 250.962694 
L 479.151299 246.151145 
L 476.246812 241.216689 
L 473.342325 236.19794 
L 470.437838 231.137175 
L 467.533351 226.079659 
L 464.628864 221.072841 
L 461.724377 216.165464 
L 458.81989 211.406597 
L 455.915404 206.844622 
L 453.010917 202.526213 
L 450.10643 198.495329 
L 447.201943 194.792265 
L 444.297456 191.452782 
L 441.392969 188.507356 
L 438.488482 185.980552 
L 435.583995 183.890564 
L 432.679509 182.248916 
L 429.775022 181.060338 
L 426.870535 180.322816 
L 423.966048 180.027808 
L 421.061561 180.160617 
L 418.157074 180.700897 
L 415.252587 181.62327 
L 412.3481 182.898039 
L 409.443614 184.491957 
L 406.539127 186.369034 
L 403.63464 188.491351 
L 400.730153 190.819859 
L 397.825666 193.315141 
L 394.921179 195.938119 
L 392.016692 198.65069 
L 389.112205 201.416288 
L 386.207719 204.200357 
L 383.303232 206.970737 
L 380.398745 209.697975 
L 377.494258 212.355544 
L 374.589771 214.919994 
L 371.685284 217.371041 
L 368.780797 219.691594 
L 365.87631 221.867733 
L 362.971824 223.88866 
L 360.067337 225.746598 
L 357.16285 227.436684 
L 354.258363 228.956831 
L 351.353876 230.307575 
L 348.449389 231.49191 
L 345.544902 232.515112 
L 342.640415 233.384547 
L 339.735928 234.109468 
L 336.831442 234.700808 
L 333.926955 235.170945 
L 331.022468 235.533473 
L 328.117981 235.802947 
L 325.213494 235.994626 
L 322.309007 236.124205 
L 319.40452 236.207539 
L 316.500033 236.260369 
L 313.595547 236.298049 
L 310.69106 236.335274 
L 307.786573 236.38583 
L 304.882086 236.462348 
L 301.977599 236.576093 
L 299.073112 236.73677 
L 296.168625 236.952369 
L 293.264138 237.22904 
L 290.359652 237.571009 
L 287.455165 237.980539 
L 284.550678 238.457929 
L 281.646191 239.001554 
L 278.741704 239.607954 
L 275.837217 240.271955 
L 272.93273 240.986834 
L 270.028243 241.744502 
L 267.123757 242.535736 
L 264.21927 243.350408 
L 261.314783 244.177745 
L 258.410296 245.006593 
L 255.505809 245.825676 
L 252.601322 246.623858 
L 249.696835 247.390385 
L 246.792348 248.115113 
L 243.887862 248.788711 
L 240.983375 249.402837 
L 238.078888 249.950282 
L 235.174401 250.425077 
L 232.269914 250.822573 
L 229.365427 251.139475 
L 226.46094 251.373851 
L 223.556453 251.525103 
L 220.651967 251.593913 
L 217.74748 251.582154 
L 214.842993 251.492791 
L 211.938506 251.329752 
L 209.034019 251.097802 
L 206.129532 250.802393 
L 203.225045 250.449524 
L 200.320558 250.0456 
L 197.416072 249.597302 
L 194.511585 249.111462 
L 191.607098 248.594962 
L 188.702611 248.054646 
L 185.798124 247.49726 
L 182.893637 246.929404 
L 179.98915 246.357516 
L 177.084663 245.787875 
L 174.180176 245.226622 
L 171.27569 244.6798 
L 168.371203 244.153407 
L 165.466716 243.653461 
L 162.562229 243.186064 
L 159.657742 242.757466 
L 156.753255 242.374126 
L 153.848768 242.042751 
L 150.944281 241.770326 
L 148.039795 241.564109 
L 145.135308 241.431608 
L 142.230821 241.380525 
L 139.326334 241.418663 
L 136.421847 241.553812 
L 133.51736 241.793595 
L 130.612873 242.145297 
L 127.708386 242.615667 
L 124.8039 243.210712 
L 121.899413 243.935482 
L 118.994926 244.793859 
L 116.090439 245.788356 
L 113.185952 246.919942 
L 110.281465 248.187889 
L 107.376978 249.589667 
L 104.472491 251.120872 
L 101.568005 252.775214 
L 98.663518 254.544544 
L 95.759031 256.418945 
L 92.854544 258.386871 
L 89.950057 260.435327 
L 87.04557 262.550103 
L 84.141083 264.716034 
L 81.236596 266.917292 
L 78.33211 269.137689 
L 75.427623 271.360996 
L 72.523136 273.571254 
L 69.618649 275.753067 
L 66.714162 277.891884 
L 63.809675 279.974243 
L 60.905188 281.987978 
L 58.000701 283.922394 
L 55.096215 285.768385 
L 52.191728 287.518513 
L 49.287241 289.167042 
L 46.382754 290.709928 
L 43.478267 292.144766 
L 40.57378 293.470702 
L 37.669293 294.688323 
L 34.764806 295.79951 
L 31.86032 296.807284 
L 28.955833 297.715635 
L 26.051346 298.52935 
L 23.146859 299.253837 
L 20.242372 299.894956 
L 17.337885 300.458865 
L 14.433398 300.951866 
L 11.528911 301.380283 
L 8.624425 301.750343 
L 5.719938 302.068084 
L 2.815451 302.339274 
L -0.089036 302.569356 
L -2.993523 302.763403 
L -5.89801 302.926089 
L -8.802497 303.061677 
L -11.706984 303.174012 
L -14.611471 303.266535 
L -17.515957 303.342291 
L -20.420444 303.403956 
z
" style="fill:#1f77b4;fill-opacity:0.4;stroke:#1f77b4;"/>
   </g>
   <g id="PolyCollection_2">
    <defs>
     <path d="M 151.27502 -42.40199 
L 151.27502 -41.96 
L 153.325578 -41.96 
L 155.376136 -41.96 
L 157.426693 -41.96 
L 159.477251 -41.96 
L 161.527808 -41.96 
L 163.578366 -41.96 
L 165.628924 -41.96 
L 167.679481 -41.96 
L 169.730039 -41.96 
L 171.780596 -41.96 
L 173.831154 -41.96 
L 175.881711 -41.96 
L 177.932269 -41.96 
L 179.982827 -41.96 
L 182.033384 -41.96 
L 184.083942 -41.96 
L 186.134499 -41.96 
L 188.185057 -41.96 
L 190.235615 -41.96 
L 192.286172 -41.96 
L 194.33673 -41.96 
L 196.387287 -41.96 
L 198.437845 -41.96 
L 200.488402 -41.96 
L 202.53896 -41.96 
L 204.589518 -41.96 
L 206.640075 -41.96 
L 208.690633 -41.96 
L 210.74119 -41.96 
L 212.791748 -41.96 
L 214.842306 -41.96 
L 216.892863 -41.96 
L 218.943421 -41.96 
L 220.993978 -41.96 
L 223.044536 -41.96 
L 225.095093 -41.96 
L 227.145651 -41.96 
L 229.196209 -41.96 
L 231.246766 -41.96 
L 233.297324 -41.96 
L 235.347881 -41.96 
L 237.398439 -41.96 
L 239.448997 -41.96 
L 241.499554 -41.96 
L 243.550112 -41.96 
L 245.600669 -41.96 
L 247.651227 -41.96 
L 249.701784 -41.96 
L 251.752342 -41.96 
L 253.8029 -41.96 
L 255.853457 -41.96 
L 257.904015 -41.96 
L 259.954572 -41.96 
L 262.00513 -41.96 
L 264.055688 -41.96 
L 266.106245 -41.96 
L 268.156803 -41.96 
L 270.20736 -41.96 
L 272.257918 -41.96 
L 274.308475 -41.96 
L 276.359033 -41.96 
L 278.409591 -41.96 
L 280.460148 -41.96 
L 282.510706 -41.96 
L 284.561263 -41.96 
L 286.611821 -41.96 
L 288.662379 -41.96 
L 290.712936 -41.96 
L 292.763494 -41.96 
L 294.814051 -41.96 
L 296.864609 -41.96 
L 298.915166 -41.96 
L 300.965724 -41.96 
L 303.016282 -41.96 
L 305.066839 -41.96 
L 307.117397 -41.96 
L 309.167954 -41.96 
L 311.218512 -41.96 
L 313.26907 -41.96 
L 315.319627 -41.96 
L 317.370185 -41.96 
L 319.420742 -41.96 
L 321.4713 -41.96 
L 323.521857 -41.96 
L 325.572415 -41.96 
L 327.622973 -41.96 
L 329.67353 -41.96 
L 331.724088 -41.96 
L 333.774645 -41.96 
L 335.825203 -41.96 
L 337.875761 -41.96 
L 339.926318 -41.96 
L 341.976876 -41.96 
L 344.027433 -41.96 
L 346.077991 -41.96 
L 348.128548 -41.96 
L 350.179106 -41.96 
L 352.229664 -41.96 
L 354.280221 -41.96 
L 356.330779 -41.96 
L 358.381336 -41.96 
L 360.431894 -41.96 
L 362.482452 -41.96 
L 364.533009 -41.96 
L 366.583567 -41.96 
L 368.634124 -41.96 
L 370.684682 -41.96 
L 372.735239 -41.96 
L 374.785797 -41.96 
L 376.836355 -41.96 
L 378.886912 -41.96 
L 380.93747 -41.96 
L 382.988027 -41.96 
L 385.038585 -41.96 
L 387.089143 -41.96 
L 389.1397 -41.96 
L 391.190258 -41.96 
L 393.240815 -41.96 
L 395.291373 -41.96 
L 397.34193 -41.96 
L 399.392488 -41.96 
L 401.443046 -41.96 
L 403.493603 -41.96 
L 405.544161 -41.96 
L 407.594718 -41.96 
L 409.645276 -41.96 
L 411.695834 -41.96 
L 413.746391 -41.96 
L 415.796949 -41.96 
L 417.847506 -41.96 
L 419.898064 -41.96 
L 421.948621 -41.96 
L 423.999179 -41.96 
L 426.049737 -41.96 
L 428.100294 -41.96 
L 430.150852 -41.96 
L 432.201409 -41.96 
L 434.251967 -41.96 
L 436.302525 -41.96 
L 438.353082 -41.96 
L 440.40364 -41.96 
L 442.454197 -41.96 
L 444.504755 -41.96 
L 446.555312 -41.96 
L 448.60587 -41.96 
L 450.656428 -41.96 
L 452.706985 -41.96 
L 454.757543 -41.96 
L 456.8081 -41.96 
L 458.858658 -41.96 
L 460.909216 -41.96 
L 462.959773 -41.96 
L 465.010331 -41.96 
L 467.060888 -41.96 
L 469.111446 -41.96 
L 471.162003 -41.96 
L 473.212561 -41.96 
L 475.263119 -41.96 
L 477.313676 -41.96 
L 479.364234 -41.96 
L 481.414791 -41.96 
L 483.465349 -41.96 
L 485.515907 -41.96 
L 487.566464 -41.96 
L 489.617022 -41.96 
L 491.667579 -41.96 
L 493.718137 -41.96 
L 495.768694 -41.96 
L 497.819252 -41.96 
L 499.86981 -41.96 
L 501.920367 -41.96 
L 503.970925 -41.96 
L 506.021482 -41.96 
L 508.07204 -41.96 
L 510.122598 -41.96 
L 512.173155 -41.96 
L 514.223713 -41.96 
L 516.27427 -41.96 
L 518.324828 -41.96 
L 520.375385 -41.96 
L 522.425943 -41.96 
L 524.476501 -41.96 
L 526.527058 -41.96 
L 528.577616 -41.96 
L 530.628173 -41.96 
L 532.678731 -41.96 
L 534.729289 -41.96 
L 536.779846 -41.96 
L 538.830404 -41.96 
L 540.880961 -41.96 
L 542.931519 -41.96 
L 544.982076 -41.96 
L 547.032634 -41.96 
L 549.083192 -41.96 
L 551.133749 -41.96 
L 553.184307 -41.96 
L 555.234864 -41.96 
L 557.285422 -41.96 
L 559.33598 -41.96 
L 559.33598 -43.883513 
L 559.33598 -43.883513 
L 557.285422 -44.213053 
L 555.234864 -44.591971 
L 553.184307 -45.026374 
L 551.133749 -45.522906 
L 549.083192 -46.088763 
L 547.032634 -46.731696 
L 544.982076 -47.460018 
L 542.931519 -48.282589 
L 540.880961 -49.208807 
L 538.830404 -50.24858 
L 536.779846 -51.412289 
L 534.729289 -52.710741 
L 532.678731 -54.15511 
L 530.628173 -55.756866 
L 528.577616 -57.527684 
L 526.527058 -59.479348 
L 524.476501 -61.623637 
L 522.425943 -63.972197 
L 520.375385 -66.5364 
L 518.324828 -69.327193 
L 516.27427 -72.354934 
L 514.223713 -75.629217 
L 512.173155 -79.158694 
L 510.122598 -82.950882 
L 508.07204 -87.011979 
L 506.021482 -91.346667 
L 503.970925 -95.957928 
L 501.920367 -100.846855 
L 499.86981 -106.012481 
L 497.819252 -111.451619 
L 495.768694 -117.158709 
L 493.718137 -123.125701 
L 491.667579 -129.341944 
L 489.617022 -135.794111 
L 487.566464 -142.466157 
L 485.515907 -149.339294 
L 483.465349 -156.392018 
L 481.414791 -163.600159 
L 479.364234 -170.936975 
L 477.313676 -178.373282 
L 475.263119 -185.877618 
L 473.212561 -193.416452 
L 471.162003 -200.954419 
L 469.111446 -208.454596 
L 467.060888 -215.878805 
L 465.010331 -223.187939 
L 462.959773 -230.342318 
L 460.909216 -237.302061 
L 458.858658 -244.027466 
L 456.8081 -250.479401 
L 454.757543 -256.6197 
L 452.706985 -262.411553 
L 450.656428 -267.819879 
L 448.60587 -272.811697 
L 446.555312 -277.356467 
L 444.504755 -281.426404 
L 442.454197 -284.996768 
L 440.40364 -288.046116 
L 438.353082 -290.556509 
L 436.302525 -292.513691 
L 434.251967 -293.907211 
L 432.201409 -294.730509 
L 430.150852 -294.980952 
L 428.100294 -294.659827 
L 426.049737 -293.772288 
L 423.999179 -292.327258 
L 421.948621 -290.337299 
L 419.898064 -287.818434 
L 417.847506 -284.789939 
L 415.796949 -281.27411 
L 413.746391 -277.295993 
L 411.695834 -272.883103 
L 409.645276 -268.065119 
L 407.594718 -262.873571 
L 405.544161 -257.341519 
L 403.493603 -251.503222 
L 401.443046 -245.393823 
L 399.392488 -239.049023 
L 397.34193 -232.504776 
L 395.291373 -225.796994 
L 393.240815 -218.96126 
L 391.190258 -212.032573 
L 389.1397 -205.0451 
L 387.089143 -198.031961 
L 385.038585 -191.025026 
L 382.988027 -184.054748 
L 380.93747 -177.150009 
L 378.886912 -170.338002 
L 376.836355 -163.644123 
L 374.785797 -157.091899 
L 372.735239 -150.70293 
L 370.684682 -144.496857 
L 368.634124 -138.491344 
L 366.583567 -132.702083 
L 364.533009 -127.142812 
L 362.482452 -121.825347 
L 360.431894 -116.75963 
L 358.381336 -111.953781 
L 356.330779 -107.414166 
L 354.280221 -103.145467 
L 352.229664 -99.150757 
L 350.179106 -95.431583 
L 348.128548 -91.988047 
L 346.077991 -88.818889 
L 344.027433 -85.921569 
L 341.976876 -83.292353 
L 339.926318 -80.926387 
L 337.875761 -78.81778 
L 335.825203 -76.959672 
L 333.774645 -75.344314 
L 331.724088 -73.963129 
L 329.67353 -72.806779 
L 327.622973 -71.865228 
L 325.572415 -71.127804 
L 323.521857 -70.583251 
L 321.4713 -70.219794 
L 319.420742 -70.025187 
L 317.370185 -69.986772 
L 315.319627 -70.091537 
L 313.26907 -70.326171 
L 311.218512 -70.677122 
L 309.167954 -71.130664 
L 307.117397 -71.672951 
L 305.066839 -72.290095 
L 303.016282 -72.968226 
L 300.965724 -73.693567 
L 298.915166 -74.452513 
L 296.864609 -75.2317 
L 294.814051 -76.018091 
L 292.763494 -76.79905 
L 290.712936 -77.562427 
L 288.662379 -78.29663 
L 286.611821 -78.99071 
L 284.561263 -79.634427 
L 282.510706 -80.218327 
L 280.460148 -80.733802 
L 278.409591 -81.17315 
L 276.359033 -81.529624 
L 274.308475 -81.797475 
L 272.257918 -81.971984 
L 270.20736 -82.049486 
L 268.156803 -82.027377 
L 266.106245 -81.904116 
L 264.055688 -81.679214 
L 262.00513 -81.353212 
L 259.954572 -80.92764 
L 257.904015 -80.404981 
L 255.853457 -79.788609 
L 253.8029 -79.082723 
L 251.752342 -78.292279 
L 249.701784 -77.422907 
L 247.651227 -76.48082 
L 245.600669 -75.47273 
L 243.550112 -74.405749 
L 241.499554 -73.287293 
L 239.448997 -72.124987 
L 237.398439 -70.926569 
L 235.347881 -69.6998 
L 233.297324 -68.452373 
L 231.246766 -67.191828 
L 229.196209 -65.925481 
L 227.145651 -64.660347 
L 225.095093 -63.403084 
L 223.044536 -62.159932 
L 220.993978 -60.936675 
L 218.943421 -59.7386 
L 216.892863 -58.570471 
L 214.842306 -57.436512 
L 212.791748 -56.340393 
L 210.74119 -55.285233 
L 208.690633 -54.273603 
L 206.640075 -53.307537 
L 204.589518 -52.388554 
L 202.53896 -51.517682 
L 200.488402 -50.695484 
L 198.437845 -49.922092 
L 196.387287 -49.197244 
L 194.33673 -48.520319 
L 192.286172 -47.89038 
L 190.235615 -47.306206 
L 188.185057 -46.766341 
L 186.134499 -46.269125 
L 184.083942 -45.812737 
L 182.033384 -45.395224 
L 179.982827 -45.014545 
L 177.932269 -44.668592 
L 175.881711 -44.355224 
L 173.831154 -44.072294 
L 171.780596 -43.817668 
L 169.730039 -43.589249 
L 167.679481 -43.384992 
L 165.628924 -43.202919 
L 163.578366 -43.041133 
L 161.527808 -42.897823 
L 159.477251 -42.771275 
L 157.426693 -42.659875 
L 155.376136 -42.562114 
L 153.325578 -42.476586 
L 151.27502 -42.40199 
z
" id="mb479e07f21" style="stroke:#ff7f0e;"/>
    </defs>
    <g clip-path="url(#pa04a43db9e)">
     <use style="fill:#ff7f0e;fill-opacity:0.4;stroke:#ff7f0e;" x="0" xlink:href="#mb479e07f21" y="345.6"/>
    </g>
   </g>
   <g id="matplotlib.axis_1">
    <g id="xtick_1">
     <g id="line2d_1">
      <defs>
       <path d="M 0 0 
L 0 3.5 
" id="mce11f73e3b" style="stroke:#000000;stroke-width:0.8;"/>
      </defs>
      <g>
       <use style="stroke:#000000;stroke-width:0.8;" x="47.81" xlink:href="#mce11f73e3b" y="303.64"/>
      </g>
     </g>
     <g id="text_1">
      <!-- 0.0 -->
      <g transform="translate(39.858438 318.238437)scale(0.1 -0.1)">
       <defs>
        <path d="M 2034 4250 
Q 1547 4250 1301 3770 
Q 1056 3291 1056 2328 
Q 1056 1369 1301 889 
Q 1547 409 2034 409 
Q 2525 409 2770 889 
Q 3016 1369 3016 2328 
Q 3016 3291 2770 3770 
Q 2525 4250 2034 4250 
z
M 2034 4750 
Q 2819 4750 3233 4129 
Q 3647 3509 3647 2328 
Q 3647 1150 3233 529 
Q 2819 -91 2034 -91 
Q 1250 -91 836 529 
Q 422 1150 422 2328 
Q 422 3509 836 4129 
Q 1250 4750 2034 4750 
z
" id="DejaVuSans-30" transform="scale(0.015625)"/>
        <path d="M 684 794 
L 1344 794 
L 1344 0 
L 684 0 
L 684 794 
z
" id="DejaVuSans-2e" transform="scale(0.015625)"/>
       </defs>
       <use xlink:href="#DejaVuSans-30"/>
       <use x="63.623047" xlink:href="#DejaVuSans-2e"/>
       <use x="95.410156" xlink:href="#DejaVuSans-30"/>
      </g>
     </g>
    </g>
    <g id="xtick_2">
     <g id="line2d_2">
      <g>
       <use style="stroke:#000000;stroke-width:0.8;" x="126.655" xlink:href="#mce11f73e3b" y="303.64"/>
      </g>
     </g>
     <g id="text_2">
      <!-- 0.2 -->
      <g transform="translate(118.703438 318.238437)scale(0.1 -0.1)">
       <defs>
        <path d="M 1228 531 
L 3431 531 
L 3431 0 
L 469 0 
L 469 531 
Q 828 903 1448 1529 
Q 2069 2156 2228 2338 
Q 2531 2678 2651 2914 
Q 2772 3150 2772 3378 
Q 2772 3750 2511 3984 
Q 2250 4219 1831 4219 
Q 1534 4219 1204 4116 
Q 875 4013 500 3803 
L 500 4441 
Q 881 4594 1212 4672 
Q 1544 4750 1819 4750 
Q 2544 4750 2975 4387 
Q 3406 4025 3406 3419 
Q 3406 3131 3298 2873 
Q 3191 2616 2906 2266 
Q 2828 2175 2409 1742 
Q 1991 1309 1228 531 
z
" id="DejaVuSans-32" transform="scale(0.015625)"/>
       </defs>
       <use xlink:href="#DejaVuSans-30"/>
       <use x="63.623047" xlink:href="#DejaVuSans-2e"/>
       <use x="95.410156" xlink:href="#DejaVuSans-32"/>
      </g>
     </g>
    </g>
    <g id="xtick_3">
     <g id="line2d_3">
      <g>
       <use style="stroke:#000000;stroke-width:0.8;" x="205.5" xlink:href="#mce11f73e3b" y="303.64"/>
      </g>
     </g>
     <g id="text_3">
      <!-- 0.4 -->
      <g transform="translate(197.548438 318.238437)scale(0.1 -0.1)">
       <defs>
        <path d="M 2419 4116 
L 825 1625 
L 2419 1625 
L 2419 4116 
z
M 2253 4666 
L 3047 4666 
L 3047 1625 
L 3713 1625 
L 3713 1100 
L 3047 1100 
L 3047 0 
L 2419 0 
L 2419 1100 
L 313 1100 
L 313 1709 
L 2253 4666 
z
" id="DejaVuSans-34" transform="scale(0.015625)"/>
       </defs>
       <use xlink:href="#DejaVuSans-30"/>
       <use x="63.623047" xlink:href="#DejaVuSans-2e"/>
       <use x="95.410156" xlink:href="#DejaVuSans-34"/>
      </g>
     </g>
    </g>
    <g id="xtick_4">
     <g id="line2d_4">
      <g>
       <use style="stroke:#000000;stroke-width:0.8;" x="284.345" xlink:href="#mce11f73e3b" y="303.64"/>
      </g>
     </g>
     <g id="text_4">
      <!-- 0.6 -->
      <g transform="translate(276.393438 318.238437)scale(0.1 -0.1)">
       <defs>
        <path d="M 2113 2584 
Q 1688 2584 1439 2293 
Q 1191 2003 1191 1497 
Q 1191 994 1439 701 
Q 1688 409 2113 409 
Q 2538 409 2786 701 
Q 3034 994 3034 1497 
Q 3034 2003 2786 2293 
Q 2538 2584 2113 2584 
z
M 3366 4563 
L 3366 3988 
Q 3128 4100 2886 4159 
Q 2644 4219 2406 4219 
Q 1781 4219 1451 3797 
Q 1122 3375 1075 2522 
Q 1259 2794 1537 2939 
Q 1816 3084 2150 3084 
Q 2853 3084 3261 2657 
Q 3669 2231 3669 1497 
Q 3669 778 3244 343 
Q 2819 -91 2113 -91 
Q 1303 -91 875 529 
Q 447 1150 447 2328 
Q 447 3434 972 4092 
Q 1497 4750 2381 4750 
Q 2619 4750 2861 4703 
Q 3103 4656 3366 4563 
z
" id="DejaVuSans-36" transform="scale(0.015625)"/>
       </defs>
       <use xlink:href="#DejaVuSans-30"/>
       <use x="63.623047" xlink:href="#DejaVuSans-2e"/>
       <use x="95.410156" xlink:href="#DejaVuSans-36"/>
      </g>
     </g>
    </g>
    <g id="xtick_5">
     <g id="line2d_5">
      <g>
       <use style="stroke:#000000;stroke-width:0.8;" x="363.19" xlink:href="#mce11f73e3b" y="303.64"/>
      </g>
     </g>
     <g id="text_5">
      <!-- 0.8 -->
      <g transform="translate(355.238437 318.238437)scale(0.1 -0.1)">
       <defs>
        <path d="M 2034 2216 
Q 1584 2216 1326 1975 
Q 1069 1734 1069 1313 
Q 1069 891 1326 650 
Q 1584 409 2034 409 
Q 2484 409 2743 651 
Q 3003 894 3003 1313 
Q 3003 1734 2745 1975 
Q 2488 2216 2034 2216 
z
M 1403 2484 
Q 997 2584 770 2862 
Q 544 3141 544 3541 
Q 544 4100 942 4425 
Q 1341 4750 2034 4750 
Q 2731 4750 3128 4425 
Q 3525 4100 3525 3541 
Q 3525 3141 3298 2862 
Q 3072 2584 2669 2484 
Q 3125 2378 3379 2068 
Q 3634 1759 3634 1313 
Q 3634 634 3220 271 
Q 2806 -91 2034 -91 
Q 1263 -91 848 271 
Q 434 634 434 1313 
Q 434 1759 690 2068 
Q 947 2378 1403 2484 
z
M 1172 3481 
Q 1172 3119 1398 2916 
Q 1625 2713 2034 2713 
Q 2441 2713 2670 2916 
Q 2900 3119 2900 3481 
Q 2900 3844 2670 4047 
Q 2441 4250 2034 4250 
Q 1625 4250 1398 4047 
Q 1172 3844 1172 3481 
z
" id="DejaVuSans-38" transform="scale(0.015625)"/>
       </defs>
       <use xlink:href="#DejaVuSans-30"/>
       <use x="63.623047" xlink:href="#DejaVuSans-2e"/>
       <use x="95.410156" xlink:href="#DejaVuSans-38"/>
      </g>
     </g>
    </g>
    <g id="xtick_6">
     <g id="line2d_6">
      <g>
       <use style="stroke:#000000;stroke-width:0.8;" x="442.035" xlink:href="#mce11f73e3b" y="303.64"/>
      </g>
     </g>
     <g id="text_6">
      <!-- 1.0 -->
      <g transform="translate(434.083437 318.238437)scale(0.1 -0.1)">
       <defs>
        <path d="M 794 531 
L 1825 531 
L 1825 4091 
L 703 3866 
L 703 4441 
L 1819 4666 
L 2450 4666 
L 2450 531 
L 3481 531 
L 3481 0 
L 794 0 
L 794 531 
z
" id="DejaVuSans-31" transform="scale(0.015625)"/>
       </defs>
       <use xlink:href="#DejaVuSans-31"/>
       <use x="63.623047" xlink:href="#DejaVuSans-2e"/>
       <use x="95.410156" xlink:href="#DejaVuSans-30"/>
      </g>
     </g>
    </g>
    <g id="text_7">
     <!-- Credibility index -->
     <g transform="translate(204.317812 331.916562)scale(0.1 -0.1)">
      <defs>
       <path d="M 4122 4306 
L 4122 3641 
Q 3803 3938 3442 4084 
Q 3081 4231 2675 4231 
Q 1875 4231 1450 3742 
Q 1025 3253 1025 2328 
Q 1025 1406 1450 917 
Q 1875 428 2675 428 
Q 3081 428 3442 575 
Q 3803 722 4122 1019 
L 4122 359 
Q 3791 134 3420 21 
Q 3050 -91 2638 -91 
Q 1578 -91 968 557 
Q 359 1206 359 2328 
Q 359 3453 968 4101 
Q 1578 4750 2638 4750 
Q 3056 4750 3426 4639 
Q 3797 4528 4122 4306 
z
" id="DejaVuSans-43" transform="scale(0.015625)"/>
       <path d="M 2631 2963 
Q 2534 3019 2420 3045 
Q 2306 3072 2169 3072 
Q 1681 3072 1420 2755 
Q 1159 2438 1159 1844 
L 1159 0 
L 581 0 
L 581 3500 
L 1159 3500 
L 1159 2956 
Q 1341 3275 1631 3429 
Q 1922 3584 2338 3584 
Q 2397 3584 2469 3576 
Q 2541 3569 2628 3553 
L 2631 2963 
z
" id="DejaVuSans-72" transform="scale(0.015625)"/>
       <path d="M 3597 1894 
L 3597 1613 
L 953 1613 
Q 991 1019 1311 708 
Q 1631 397 2203 397 
Q 2534 397 2845 478 
Q 3156 559 3463 722 
L 3463 178 
Q 3153 47 2828 -22 
Q 2503 -91 2169 -91 
Q 1331 -91 842 396 
Q 353 884 353 1716 
Q 353 2575 817 3079 
Q 1281 3584 2069 3584 
Q 2775 3584 3186 3129 
Q 3597 2675 3597 1894 
z
M 3022 2063 
Q 3016 2534 2758 2815 
Q 2500 3097 2075 3097 
Q 1594 3097 1305 2825 
Q 1016 2553 972 2059 
L 3022 2063 
z
" id="DejaVuSans-65" transform="scale(0.015625)"/>
       <path d="M 2906 2969 
L 2906 4863 
L 3481 4863 
L 3481 0 
L 2906 0 
L 2906 525 
Q 2725 213 2448 61 
Q 2172 -91 1784 -91 
Q 1150 -91 751 415 
Q 353 922 353 1747 
Q 353 2572 751 3078 
Q 1150 3584 1784 3584 
Q 2172 3584 2448 3432 
Q 2725 3281 2906 2969 
z
M 947 1747 
Q 947 1113 1208 752 
Q 1469 391 1925 391 
Q 2381 391 2643 752 
Q 2906 1113 2906 1747 
Q 2906 2381 2643 2742 
Q 2381 3103 1925 3103 
Q 1469 3103 1208 2742 
Q 947 2381 947 1747 
z
" id="DejaVuSans-64" transform="scale(0.015625)"/>
       <path d="M 603 3500 
L 1178 3500 
L 1178 0 
L 603 0 
L 603 3500 
z
M 603 4863 
L 1178 4863 
L 1178 4134 
L 603 4134 
L 603 4863 
z
" id="DejaVuSans-69" transform="scale(0.015625)"/>
       <path d="M 3116 1747 
Q 3116 2381 2855 2742 
Q 2594 3103 2138 3103 
Q 1681 3103 1420 2742 
Q 1159 2381 1159 1747 
Q 1159 1113 1420 752 
Q 1681 391 2138 391 
Q 2594 391 2855 752 
Q 3116 1113 3116 1747 
z
M 1159 2969 
Q 1341 3281 1617 3432 
Q 1894 3584 2278 3584 
Q 2916 3584 3314 3078 
Q 3713 2572 3713 1747 
Q 3713 922 3314 415 
Q 2916 -91 2278 -91 
Q 1894 -91 1617 61 
Q 1341 213 1159 525 
L 1159 0 
L 581 0 
L 581 4863 
L 1159 4863 
L 1159 2969 
z
" id="DejaVuSans-62" transform="scale(0.015625)"/>
       <path d="M 603 4863 
L 1178 4863 
L 1178 0 
L 603 0 
L 603 4863 
z
" id="DejaVuSans-6c" transform="scale(0.015625)"/>
       <path d="M 1172 4494 
L 1172 3500 
L 2356 3500 
L 2356 3053 
L 1172 3053 
L 1172 1153 
Q 1172 725 1289 603 
Q 1406 481 1766 481 
L 2356 481 
L 2356 0 
L 1766 0 
Q 1100 0 847 248 
Q 594 497 594 1153 
L 594 3053 
L 172 3053 
L 172 3500 
L 594 3500 
L 594 4494 
L 1172 4494 
z
" id="DejaVuSans-74" transform="scale(0.015625)"/>
       <path d="M 2059 -325 
Q 1816 -950 1584 -1140 
Q 1353 -1331 966 -1331 
L 506 -1331 
L 506 -850 
L 844 -850 
Q 1081 -850 1212 -737 
Q 1344 -625 1503 -206 
L 1606 56 
L 191 3500 
L 800 3500 
L 1894 763 
L 2988 3500 
L 3597 3500 
L 2059 -325 
z
" id="DejaVuSans-79" transform="scale(0.015625)"/>
       <path id="DejaVuSans-20" transform="scale(0.015625)"/>
       <path d="M 3513 2113 
L 3513 0 
L 2938 0 
L 2938 2094 
Q 2938 2591 2744 2837 
Q 2550 3084 2163 3084 
Q 1697 3084 1428 2787 
Q 1159 2491 1159 1978 
L 1159 0 
L 581 0 
L 581 3500 
L 1159 3500 
L 1159 2956 
Q 1366 3272 1645 3428 
Q 1925 3584 2291 3584 
Q 2894 3584 3203 3211 
Q 3513 2838 3513 2113 
z
" id="DejaVuSans-6e" transform="scale(0.015625)"/>
       <path d="M 3513 3500 
L 2247 1797 
L 3578 0 
L 2900 0 
L 1881 1375 
L 863 0 
L 184 0 
L 1544 1831 
L 300 3500 
L 978 3500 
L 1906 2253 
L 2834 3500 
L 3513 3500 
z
" id="DejaVuSans-78" transform="scale(0.015625)"/>
      </defs>
      <use xlink:href="#DejaVuSans-43"/>
      <use x="69.824219" xlink:href="#DejaVuSans-72"/>
      <use x="108.6875" xlink:href="#DejaVuSans-65"/>
      <use x="170.210938" xlink:href="#DejaVuSans-64"/>
      <use x="233.6875" xlink:href="#DejaVuSans-69"/>
      <use x="261.470703" xlink:href="#DejaVuSans-62"/>
      <use x="324.947266" xlink:href="#DejaVuSans-69"/>
      <use x="352.730469" xlink:href="#DejaVuSans-6c"/>
      <use x="380.513672" xlink:href="#DejaVuSans-69"/>
      <use x="408.296875" xlink:href="#DejaVuSans-74"/>
      <use x="447.505859" xlink:href="#DejaVuSans-79"/>
      <use x="506.685547" xlink:href="#DejaVuSans-20"/>
      <use x="538.472656" xlink:href="#DejaVuSans-69"/>
      <use x="566.255859" xlink:href="#DejaVuSans-6e"/>
      <use x="629.634766" xlink:href="#DejaVuSans-64"/>
      <use x="693.111328" xlink:href="#DejaVuSans-65"/>
      <use x="752.884766" xlink:href="#DejaVuSans-78"/>
     </g>
    </g>
   </g>
   <g id="matplotlib.axis_2">
    <g id="ytick_1">
     <g id="line2d_7">
      <defs>
       <path d="M 0 0 
L -3.5 0 
" id="m025985c5f8" style="stroke:#000000;stroke-width:0.8;"/>
      </defs>
      <g>
       <use style="stroke:#000000;stroke-width:0.8;" x="47.81" xlink:href="#m025985c5f8" y="303.64"/>
      </g>
     </g>
     <g id="text_8">
      <!-- 0.0 -->
      <g transform="translate(24.906875 307.439219)scale(0.1 -0.1)">
       <use xlink:href="#DejaVuSans-30"/>
       <use x="63.623047" xlink:href="#DejaVuSans-2e"/>
       <use x="95.410156" xlink:href="#DejaVuSans-30"/>
      </g>
     </g>
    </g>
    <g id="ytick_2">
     <g id="line2d_8">
      <g>
       <use style="stroke:#000000;stroke-width:0.8;" x="47.81" xlink:href="#m025985c5f8" y="264.073879"/>
      </g>
     </g>
     <g id="text_9">
      <!-- 0.5 -->
      <g transform="translate(24.906875 267.873098)scale(0.1 -0.1)">
       <defs>
        <path d="M 691 4666 
L 3169 4666 
L 3169 4134 
L 1269 4134 
L 1269 2991 
Q 1406 3038 1543 3061 
Q 1681 3084 1819 3084 
Q 2600 3084 3056 2656 
Q 3513 2228 3513 1497 
Q 3513 744 3044 326 
Q 2575 -91 1722 -91 
Q 1428 -91 1123 -41 
Q 819 9 494 109 
L 494 744 
Q 775 591 1075 516 
Q 1375 441 1709 441 
Q 2250 441 2565 725 
Q 2881 1009 2881 1497 
Q 2881 1984 2565 2268 
Q 2250 2553 1709 2553 
Q 1456 2553 1204 2497 
Q 953 2441 691 2322 
L 691 4666 
z
" id="DejaVuSans-35" transform="scale(0.015625)"/>
       </defs>
       <use xlink:href="#DejaVuSans-30"/>
       <use x="63.623047" xlink:href="#DejaVuSans-2e"/>
       <use x="95.410156" xlink:href="#DejaVuSans-35"/>
      </g>
     </g>
    </g>
    <g id="ytick_3">
     <g id="line2d_9">
      <g>
       <use style="stroke:#000000;stroke-width:0.8;" x="47.81" xlink:href="#m025985c5f8" y="224.507758"/>
      </g>
     </g>
     <g id="text_10">
      <!-- 1.0 -->
      <g transform="translate(24.906875 228.306977)scale(0.1 -0.1)">
       <use xlink:href="#DejaVuSans-31"/>
       <use x="63.623047" xlink:href="#DejaVuSans-2e"/>
       <use x="95.410156" xlink:href="#DejaVuSans-30"/>
      </g>
     </g>
    </g>
    <g id="ytick_4">
     <g id="line2d_10">
      <g>
       <use style="stroke:#000000;stroke-width:0.8;" x="47.81" xlink:href="#m025985c5f8" y="184.941637"/>
      </g>
     </g>
     <g id="text_11">
      <!-- 1.5 -->
      <g transform="translate(24.906875 188.740855)scale(0.1 -0.1)">
       <use xlink:href="#DejaVuSans-31"/>
       <use x="63.623047" xlink:href="#DejaVuSans-2e"/>
       <use x="95.410156" xlink:href="#DejaVuSans-35"/>
      </g>
     </g>
    </g>
    <g id="ytick_5">
     <g id="line2d_11">
      <g>
       <use style="stroke:#000000;stroke-width:0.8;" x="47.81" xlink:href="#m025985c5f8" y="145.375516"/>
      </g>
     </g>
     <g id="text_12">
      <!-- 2.0 -->
      <g transform="translate(24.906875 149.174734)scale(0.1 -0.1)">
       <use xlink:href="#DejaVuSans-32"/>
       <use x="63.623047" xlink:href="#DejaVuSans-2e"/>
       <use x="95.410156" xlink:href="#DejaVuSans-30"/>
      </g>
     </g>
    </g>
    <g id="ytick_6">
     <g id="line2d_12">
      <g>
       <use style="stroke:#000000;stroke-width:0.8;" x="47.81" xlink:href="#m025985c5f8" y="105.809394"/>
      </g>
     </g>
     <g id="text_13">
      <!-- 2.5 -->
      <g transform="translate(24.906875 109.608613)scale(0.1 -0.1)">
       <use xlink:href="#DejaVuSans-32"/>
       <use x="63.623047" xlink:href="#DejaVuSans-2e"/>
       <use x="95.410156" xlink:href="#DejaVuSans-35"/>
      </g>
     </g>
    </g>
    <g id="ytick_7">
     <g id="line2d_13">
      <g>
       <use style="stroke:#000000;stroke-width:0.8;" x="47.81" xlink:href="#m025985c5f8" y="66.243273"/>
      </g>
     </g>
     <g id="text_14">
      <!-- 3.0 -->
      <g transform="translate(24.906875 70.042492)scale(0.1 -0.1)">
       <defs>
        <path d="M 2597 2516 
Q 3050 2419 3304 2112 
Q 3559 1806 3559 1356 
Q 3559 666 3084 287 
Q 2609 -91 1734 -91 
Q 1441 -91 1130 -33 
Q 819 25 488 141 
L 488 750 
Q 750 597 1062 519 
Q 1375 441 1716 441 
Q 2309 441 2620 675 
Q 2931 909 2931 1356 
Q 2931 1769 2642 2001 
Q 2353 2234 1838 2234 
L 1294 2234 
L 1294 2753 
L 1863 2753 
Q 2328 2753 2575 2939 
Q 2822 3125 2822 3475 
Q 2822 3834 2567 4026 
Q 2313 4219 1838 4219 
Q 1578 4219 1281 4162 
Q 984 4106 628 3988 
L 628 4550 
Q 988 4650 1302 4700 
Q 1616 4750 1894 4750 
Q 2613 4750 3031 4423 
Q 3450 4097 3450 3541 
Q 3450 3153 3228 2886 
Q 3006 2619 2597 2516 
z
" id="DejaVuSans-33" transform="scale(0.015625)"/>
       </defs>
       <use xlink:href="#DejaVuSans-33"/>
       <use x="63.623047" xlink:href="#DejaVuSans-2e"/>
       <use x="95.410156" xlink:href="#DejaVuSans-30"/>
      </g>
     </g>
    </g>
    <g id="text_15">
     <!-- Density -->
     <g transform="translate(18.827187 189.812594)rotate(-90)scale(0.1 -0.1)">
      <defs>
       <path d="M 1259 4147 
L 1259 519 
L 2022 519 
Q 2988 519 3436 956 
Q 3884 1394 3884 2338 
Q 3884 3275 3436 3711 
Q 2988 4147 2022 4147 
L 1259 4147 
z
M 628 4666 
L 1925 4666 
Q 3281 4666 3915 4102 
Q 4550 3538 4550 2338 
Q 4550 1131 3912 565 
Q 3275 0 1925 0 
L 628 0 
L 628 4666 
z
" id="DejaVuSans-44" transform="scale(0.015625)"/>
       <path d="M 2834 3397 
L 2834 2853 
Q 2591 2978 2328 3040 
Q 2066 3103 1784 3103 
Q 1356 3103 1142 2972 
Q 928 2841 928 2578 
Q 928 2378 1081 2264 
Q 1234 2150 1697 2047 
L 1894 2003 
Q 2506 1872 2764 1633 
Q 3022 1394 3022 966 
Q 3022 478 2636 193 
Q 2250 -91 1575 -91 
Q 1294 -91 989 -36 
Q 684 19 347 128 
L 347 722 
Q 666 556 975 473 
Q 1284 391 1588 391 
Q 1994 391 2212 530 
Q 2431 669 2431 922 
Q 2431 1156 2273 1281 
Q 2116 1406 1581 1522 
L 1381 1569 
Q 847 1681 609 1914 
Q 372 2147 372 2553 
Q 372 3047 722 3315 
Q 1072 3584 1716 3584 
Q 2034 3584 2315 3537 
Q 2597 3491 2834 3397 
z
" id="DejaVuSans-73" transform="scale(0.015625)"/>
      </defs>
      <use xlink:href="#DejaVuSans-44"/>
      <use x="77.001953" xlink:href="#DejaVuSans-65"/>
      <use x="138.525391" xlink:href="#DejaVuSans-6e"/>
      <use x="201.904297" xlink:href="#DejaVuSans-73"/>
      <use x="254.003906" xlink:href="#DejaVuSans-69"/>
      <use x="281.787109" xlink:href="#DejaVuSans-74"/>
      <use x="320.996094" xlink:href="#DejaVuSans-79"/>
     </g>
    </g>
   </g>
   <g id="patch_3">
    <path d="M 47.81 303.64 
L 47.81 37.968 
" style="fill:none;stroke:#000000;stroke-linecap:square;stroke-linejoin:miter;stroke-width:0.8;"/>
   </g>
   <g id="patch_4">
    <path d="M 442.035 303.64 
L 442.035 37.968 
" style="fill:none;stroke:#000000;stroke-linecap:square;stroke-linejoin:miter;stroke-width:0.8;"/>
   </g>
   <g id="patch_5">
    <path d="M 47.81 303.64 
L 442.035 303.64 
" style="fill:none;stroke:#000000;stroke-linecap:square;stroke-linejoin:miter;stroke-width:0.8;"/>
   </g>
   <g id="patch_6">
    <path d="M 47.81 37.968 
L 442.035 37.968 
" style="fill:none;stroke:#000000;stroke-linecap:square;stroke-linejoin:miter;stroke-width:0.8;"/>
   </g>
   <g id="text_16">
    <!-- Credibility index consensus vs non consensus  -->
    <g transform="translate(105.81625 18.530625)scale(0.12 -0.12)">
     <defs>
      <path d="M 3122 3366 
L 3122 2828 
Q 2878 2963 2633 3030 
Q 2388 3097 2138 3097 
Q 1578 3097 1268 2742 
Q 959 2388 959 1747 
Q 959 1106 1268 751 
Q 1578 397 2138 397 
Q 2388 397 2633 464 
Q 2878 531 3122 666 
L 3122 134 
Q 2881 22 2623 -34 
Q 2366 -91 2075 -91 
Q 1284 -91 818 406 
Q 353 903 353 1747 
Q 353 2603 823 3093 
Q 1294 3584 2113 3584 
Q 2378 3584 2631 3529 
Q 2884 3475 3122 3366 
z
" id="DejaVuSans-63" transform="scale(0.015625)"/>
      <path d="M 1959 3097 
Q 1497 3097 1228 2736 
Q 959 2375 959 1747 
Q 959 1119 1226 758 
Q 1494 397 1959 397 
Q 2419 397 2687 759 
Q 2956 1122 2956 1747 
Q 2956 2369 2687 2733 
Q 2419 3097 1959 3097 
z
M 1959 3584 
Q 2709 3584 3137 3096 
Q 3566 2609 3566 1747 
Q 3566 888 3137 398 
Q 2709 -91 1959 -91 
Q 1206 -91 779 398 
Q 353 888 353 1747 
Q 353 2609 779 3096 
Q 1206 3584 1959 3584 
z
" id="DejaVuSans-6f" transform="scale(0.015625)"/>
      <path d="M 544 1381 
L 544 3500 
L 1119 3500 
L 1119 1403 
Q 1119 906 1312 657 
Q 1506 409 1894 409 
Q 2359 409 2629 706 
Q 2900 1003 2900 1516 
L 2900 3500 
L 3475 3500 
L 3475 0 
L 2900 0 
L 2900 538 
Q 2691 219 2414 64 
Q 2138 -91 1772 -91 
Q 1169 -91 856 284 
Q 544 659 544 1381 
z
M 1991 3584 
L 1991 3584 
z
" id="DejaVuSans-75" transform="scale(0.015625)"/>
      <path d="M 191 3500 
L 800 3500 
L 1894 563 
L 2988 3500 
L 3597 3500 
L 2284 0 
L 1503 0 
L 191 3500 
z
" id="DejaVuSans-76" transform="scale(0.015625)"/>
     </defs>
     <use xlink:href="#DejaVuSans-43"/>
     <use x="69.824219" xlink:href="#DejaVuSans-72"/>
     <use x="108.6875" xlink:href="#DejaVuSans-65"/>
     <use x="170.210938" xlink:href="#DejaVuSans-64"/>
     <use x="233.6875" xlink:href="#DejaVuSans-69"/>
     <use x="261.470703" xlink:href="#DejaVuSans-62"/>
     <use x="324.947266" xlink:href="#DejaVuSans-69"/>
     <use x="352.730469" xlink:href="#DejaVuSans-6c"/>
     <use x="380.513672" xlink:href="#DejaVuSans-69"/>
     <use x="408.296875" xlink:href="#DejaVuSans-74"/>
     <use x="447.505859" xlink:href="#DejaVuSans-79"/>
     <use x="506.685547" xlink:href="#DejaVuSans-20"/>
     <use x="538.472656" xlink:href="#DejaVuSans-69"/>
     <use x="566.255859" xlink:href="#DejaVuSans-6e"/>
     <use x="629.634766" xlink:href="#DejaVuSans-64"/>
     <use x="693.111328" xlink:href="#DejaVuSans-65"/>
     <use x="752.884766" xlink:href="#DejaVuSans-78"/>
     <use x="812.064453" xlink:href="#DejaVuSans-20"/>
     <use x="843.851562" xlink:href="#DejaVuSans-63"/>
     <use x="898.832031" xlink:href="#DejaVuSans-6f"/>
     <use x="960.013672" xlink:href="#DejaVuSans-6e"/>
     <use x="1023.392578" xlink:href="#DejaVuSans-73"/>
     <use x="1075.492188" xlink:href="#DejaVuSans-65"/>
     <use x="1137.015625" xlink:href="#DejaVuSans-6e"/>
     <use x="1200.394531" xlink:href="#DejaVuSans-73"/>
     <use x="1252.494141" xlink:href="#DejaVuSans-75"/>
     <use x="1315.873047" xlink:href="#DejaVuSans-73"/>
     <use x="1367.972656" xlink:href="#DejaVuSans-20"/>
     <use x="1399.759766" xlink:href="#DejaVuSans-76"/>
     <use x="1458.939453" xlink:href="#DejaVuSans-73"/>
     <use x="1511.039062" xlink:href="#DejaVuSans-20"/>
     <use x="1542.826172" xlink:href="#DejaVuSans-6e"/>
     <use x="1606.205078" xlink:href="#DejaVuSans-6f"/>
     <use x="1667.386719" xlink:href="#DejaVuSans-6e"/>
     <use x="1730.765625" xlink:href="#DejaVuSans-20"/>
     <use x="1762.552734" xlink:href="#DejaVuSans-63"/>
     <use x="1817.533203" xlink:href="#DejaVuSans-6f"/>
     <use x="1878.714844" xlink:href="#DejaVuSans-6e"/>
     <use x="1942.09375" xlink:href="#DejaVuSans-73"/>
     <use x="1994.193359" xlink:href="#DejaVuSans-65"/>
     <use x="2055.716797" xlink:href="#DejaVuSans-6e"/>
     <use x="2119.095703" xlink:href="#DejaVuSans-73"/>
     <use x="2171.195312" xlink:href="#DejaVuSans-75"/>
     <use x="2234.574219" xlink:href="#DejaVuSans-73"/>
     <use x="2286.673828" xlink:href="#DejaVuSans-20"/>
    </g>
    <!-- Set s2 -->
    <g transform="translate(226.219375 31.968)scale(0.12 -0.12)">
     <defs>
      <path d="M 3425 4513 
L 3425 3897 
Q 3066 4069 2747 4153 
Q 2428 4238 2131 4238 
Q 1616 4238 1336 4038 
Q 1056 3838 1056 3469 
Q 1056 3159 1242 3001 
Q 1428 2844 1947 2747 
L 2328 2669 
Q 3034 2534 3370 2195 
Q 3706 1856 3706 1288 
Q 3706 609 3251 259 
Q 2797 -91 1919 -91 
Q 1588 -91 1214 -16 
Q 841 59 441 206 
L 441 856 
Q 825 641 1194 531 
Q 1563 422 1919 422 
Q 2459 422 2753 634 
Q 3047 847 3047 1241 
Q 3047 1584 2836 1778 
Q 2625 1972 2144 2069 
L 1759 2144 
Q 1053 2284 737 2584 
Q 422 2884 422 3419 
Q 422 4038 858 4394 
Q 1294 4750 2059 4750 
Q 2388 4750 2728 4690 
Q 3069 4631 3425 4513 
z
" id="DejaVuSans-53" transform="scale(0.015625)"/>
     </defs>
     <use xlink:href="#DejaVuSans-53"/>
     <use x="63.476562" xlink:href="#DejaVuSans-65"/>
     <use x="125" xlink:href="#DejaVuSans-74"/>
     <use x="164.208984" xlink:href="#DejaVuSans-20"/>
     <use x="195.996094" xlink:href="#DejaVuSans-73"/>
     <use x="248.095703" xlink:href="#DejaVuSans-32"/>
    </g>
   </g>
   <g id="legend_1">
    <g id="patch_7">
     <path d="M 54.81 97.719875 
L 225.352188 97.719875 
Q 227.352188 97.719875 227.352188 95.719875 
L 227.352188 44.968 
Q 227.352188 42.968 225.352188 42.968 
L 54.81 42.968 
Q 52.81 42.968 52.81 44.968 
L 52.81 95.719875 
Q 52.81 97.719875 54.81 97.719875 
z
" style="fill:#ffffff;opacity:0.8;stroke:#cccccc;stroke-linejoin:miter;"/>
    </g>
    <g id="patch_8">
     <path d="M 56.81 61.205188 
L 76.81 61.205188 
L 76.81 54.205188 
L 56.81 54.205188 
z
" style="fill:#1f77b4;fill-opacity:0.4;stroke:#1f77b4;stroke-linejoin:miter;"/>
    </g>
    <g id="text_17">
     <!-- Correlation higher than 0  -->
     <g transform="translate(84.81 54.566438)scale(0.1 -0.1)">
      <defs>
       <path d="M 2194 1759 
Q 1497 1759 1228 1600 
Q 959 1441 959 1056 
Q 959 750 1161 570 
Q 1363 391 1709 391 
Q 2188 391 2477 730 
Q 2766 1069 2766 1631 
L 2766 1759 
L 2194 1759 
z
M 3341 1997 
L 3341 0 
L 2766 0 
L 2766 531 
Q 2569 213 2275 61 
Q 1981 -91 1556 -91 
Q 1019 -91 701 211 
Q 384 513 384 1019 
Q 384 1609 779 1909 
Q 1175 2209 1959 2209 
L 2766 2209 
L 2766 2266 
Q 2766 2663 2505 2880 
Q 2244 3097 1772 3097 
Q 1472 3097 1187 3025 
Q 903 2953 641 2809 
L 641 3341 
Q 956 3463 1253 3523 
Q 1550 3584 1831 3584 
Q 2591 3584 2966 3190 
Q 3341 2797 3341 1997 
z
" id="DejaVuSans-61" transform="scale(0.015625)"/>
       <path d="M 3513 2113 
L 3513 0 
L 2938 0 
L 2938 2094 
Q 2938 2591 2744 2837 
Q 2550 3084 2163 3084 
Q 1697 3084 1428 2787 
Q 1159 2491 1159 1978 
L 1159 0 
L 581 0 
L 581 4863 
L 1159 4863 
L 1159 2956 
Q 1366 3272 1645 3428 
Q 1925 3584 2291 3584 
Q 2894 3584 3203 3211 
Q 3513 2838 3513 2113 
z
" id="DejaVuSans-68" transform="scale(0.015625)"/>
       <path d="M 2906 1791 
Q 2906 2416 2648 2759 
Q 2391 3103 1925 3103 
Q 1463 3103 1205 2759 
Q 947 2416 947 1791 
Q 947 1169 1205 825 
Q 1463 481 1925 481 
Q 2391 481 2648 825 
Q 2906 1169 2906 1791 
z
M 3481 434 
Q 3481 -459 3084 -895 
Q 2688 -1331 1869 -1331 
Q 1566 -1331 1297 -1286 
Q 1028 -1241 775 -1147 
L 775 -588 
Q 1028 -725 1275 -790 
Q 1522 -856 1778 -856 
Q 2344 -856 2625 -561 
Q 2906 -266 2906 331 
L 2906 616 
Q 2728 306 2450 153 
Q 2172 0 1784 0 
Q 1141 0 747 490 
Q 353 981 353 1791 
Q 353 2603 747 3093 
Q 1141 3584 1784 3584 
Q 2172 3584 2450 3431 
Q 2728 3278 2906 2969 
L 2906 3500 
L 3481 3500 
L 3481 434 
z
" id="DejaVuSans-67" transform="scale(0.015625)"/>
      </defs>
      <use xlink:href="#DejaVuSans-43"/>
      <use x="69.824219" xlink:href="#DejaVuSans-6f"/>
      <use x="131.005859" xlink:href="#DejaVuSans-72"/>
      <use x="170.369141" xlink:href="#DejaVuSans-72"/>
      <use x="209.232422" xlink:href="#DejaVuSans-65"/>
      <use x="270.755859" xlink:href="#DejaVuSans-6c"/>
      <use x="298.539062" xlink:href="#DejaVuSans-61"/>
      <use x="359.818359" xlink:href="#DejaVuSans-74"/>
      <use x="399.027344" xlink:href="#DejaVuSans-69"/>
      <use x="426.810547" xlink:href="#DejaVuSans-6f"/>
      <use x="487.992188" xlink:href="#DejaVuSans-6e"/>
      <use x="551.371094" xlink:href="#DejaVuSans-20"/>
      <use x="583.158203" xlink:href="#DejaVuSans-68"/>
      <use x="646.537109" xlink:href="#DejaVuSans-69"/>
      <use x="674.320312" xlink:href="#DejaVuSans-67"/>
      <use x="737.796875" xlink:href="#DejaVuSans-68"/>
      <use x="801.175781" xlink:href="#DejaVuSans-65"/>
      <use x="862.699219" xlink:href="#DejaVuSans-72"/>
      <use x="903.8125" xlink:href="#DejaVuSans-20"/>
      <use x="935.599609" xlink:href="#DejaVuSans-74"/>
      <use x="974.808594" xlink:href="#DejaVuSans-68"/>
      <use x="1038.1875" xlink:href="#DejaVuSans-61"/>
      <use x="1099.466797" xlink:href="#DejaVuSans-6e"/>
      <use x="1162.845703" xlink:href="#DejaVuSans-20"/>
      <use x="1194.632812" xlink:href="#DejaVuSans-30"/>
      <use x="1258.255859" xlink:href="#DejaVuSans-20"/>
     </g>
     <!-- n=297 -->
     <g transform="translate(84.81 65.76425)scale(0.1 -0.1)">
      <defs>
       <path d="M 678 2906 
L 4684 2906 
L 4684 2381 
L 678 2381 
L 678 2906 
z
M 678 1631 
L 4684 1631 
L 4684 1100 
L 678 1100 
L 678 1631 
z
" id="DejaVuSans-3d" transform="scale(0.015625)"/>
       <path d="M 703 97 
L 703 672 
Q 941 559 1184 500 
Q 1428 441 1663 441 
Q 2288 441 2617 861 
Q 2947 1281 2994 2138 
Q 2813 1869 2534 1725 
Q 2256 1581 1919 1581 
Q 1219 1581 811 2004 
Q 403 2428 403 3163 
Q 403 3881 828 4315 
Q 1253 4750 1959 4750 
Q 2769 4750 3195 4129 
Q 3622 3509 3622 2328 
Q 3622 1225 3098 567 
Q 2575 -91 1691 -91 
Q 1453 -91 1209 -44 
Q 966 3 703 97 
z
M 1959 2075 
Q 2384 2075 2632 2365 
Q 2881 2656 2881 3163 
Q 2881 3666 2632 3958 
Q 2384 4250 1959 4250 
Q 1534 4250 1286 3958 
Q 1038 3666 1038 3163 
Q 1038 2656 1286 2365 
Q 1534 2075 1959 2075 
z
" id="DejaVuSans-39" transform="scale(0.015625)"/>
       <path d="M 525 4666 
L 3525 4666 
L 3525 4397 
L 1831 0 
L 1172 0 
L 2766 4134 
L 525 4134 
L 525 4666 
z
" id="DejaVuSans-37" transform="scale(0.015625)"/>
      </defs>
      <use xlink:href="#DejaVuSans-6e"/>
      <use x="63.378906" xlink:href="#DejaVuSans-3d"/>
      <use x="147.167969" xlink:href="#DejaVuSans-32"/>
      <use x="210.791016" xlink:href="#DejaVuSans-39"/>
      <use x="274.414062" xlink:href="#DejaVuSans-37"/>
     </g>
    </g>
    <g id="patch_9">
     <path d="M 56.81 87.081125 
L 76.81 87.081125 
L 76.81 80.081125 
L 56.81 80.081125 
z
" style="fill:#ff7f0e;fill-opacity:0.4;stroke:#ff7f0e;stroke-linejoin:miter;"/>
    </g>
    <g id="text_18">
     <!-- Correlation higher than 0.8  -->
     <g transform="translate(84.81 80.442375)scale(0.1 -0.1)">
      <use xlink:href="#DejaVuSans-43"/>
      <use x="69.824219" xlink:href="#DejaVuSans-6f"/>
      <use x="131.005859" xlink:href="#DejaVuSans-72"/>
      <use x="170.369141" xlink:href="#DejaVuSans-72"/>
      <use x="209.232422" xlink:href="#DejaVuSans-65"/>
      <use x="270.755859" xlink:href="#DejaVuSans-6c"/>
      <use x="298.539062" xlink:href="#DejaVuSans-61"/>
      <use x="359.818359" xlink:href="#DejaVuSans-74"/>
      <use x="399.027344" xlink:href="#DejaVuSans-69"/>
      <use x="426.810547" xlink:href="#DejaVuSans-6f"/>
      <use x="487.992188" xlink:href="#DejaVuSans-6e"/>
      <use x="551.371094" xlink:href="#DejaVuSans-20"/>
      <use x="583.158203" xlink:href="#DejaVuSans-68"/>
      <use x="646.537109" xlink:href="#DejaVuSans-69"/>
      <use x="674.320312" xlink:href="#DejaVuSans-67"/>
      <use x="737.796875" xlink:href="#DejaVuSans-68"/>
      <use x="801.175781" xlink:href="#DejaVuSans-65"/>
      <use x="862.699219" xlink:href="#DejaVuSans-72"/>
      <use x="903.8125" xlink:href="#DejaVuSans-20"/>
      <use x="935.599609" xlink:href="#DejaVuSans-74"/>
      <use x="974.808594" xlink:href="#DejaVuSans-68"/>
      <use x="1038.1875" xlink:href="#DejaVuSans-61"/>
      <use x="1099.466797" xlink:href="#DejaVuSans-6e"/>
      <use x="1162.845703" xlink:href="#DejaVuSans-20"/>
      <use x="1194.632812" xlink:href="#DejaVuSans-30"/>
      <use x="1258.255859" xlink:href="#DejaVuSans-2e"/>
      <use x="1290.042969" xlink:href="#DejaVuSans-38"/>
      <use x="1353.666016" xlink:href="#DejaVuSans-20"/>
     </g>
     <!-- n=8 -->
     <g transform="translate(84.81 91.640187)scale(0.1 -0.1)">
      <use xlink:href="#DejaVuSans-6e"/>
      <use x="63.378906" xlink:href="#DejaVuSans-3d"/>
      <use x="147.167969" xlink:href="#DejaVuSans-38"/>
     </g>
    </g>
   </g>
  </g>
 </g>
 <defs>
  <clipPath id="pa04a43db9e">
   <rect height="265.672" width="394.225" x="47.81" y="37.968"/>
  </clipPath>
 </defs>
</svg>
