<?xml version="1.0" encoding="utf-8" standalone="no"?>
<!DOCTYPE svg PUBLIC "-//W3C//DTD SVG 1.1//EN"
  "http://www.w3.org/Graphics/SVG/1.1/DTD/svg11.dtd">
<svg height="345.6pt" version="1.1" viewBox="0 0 460.8 345.6" width="460.8pt" xmlns="http://www.w3.org/2000/svg" xmlns:xlink="http://www.w3.org/1999/xlink">
 <metadata>
  <rdf:RDF xmlns:cc="http://creativecommons.org/ns#" xmlns:dc="http://purl.org/dc/elements/1.1/" xmlns:rdf="http://www.w3.org/1999/02/22-rdf-syntax-ns#">
   <cc:Work>
    <dc:type rdf:resource="http://purl.org/dc/dcmitype/StillImage"/>
    <dc:date>2021-11-24T22:49:32.586095</dc:date>
    <dc:format>image/svg+xml</dc:format>
    <dc:creator>
     <cc:Agent>
      <dc:title>Matplotlib v3.4.3, https://matplotlib.org/</dc:title>
     </cc:Agent>
    </dc:creator>
   </cc:Work>
  </rdf:RDF>
 </metadata>
 <defs>
  <style type="text/css">*{stroke-linecap:butt;stroke-linejoin:round;}</style>
 </defs>
 <g id="figure_1">
  <g id="patch_1">
   <path d="M 0 345.6 
L 460.8 345.6 
L 460.8 0 
L 0 0 
z
" style="fill:#ffffff;"/>
  </g>
  <g id="axes_1">
   <g id="patch_2">
    <path d="M 47.81 303.64 
L 442.035 303.64 
L 442.035 37.968 
L 47.81 37.968 
z
" style="fill:#ffffff;"/>
   </g>
   <g id="PolyCollection_1">
    <path clip-path="url(#pcc49d01832)" d="M -16.523486 303.471853 
L -16.523486 303.64 
L -13.658164 303.64 
L -10.792843 303.64 
L -7.927521 303.64 
L -5.0622 303.64 
L -2.196878 303.64 
L 0.668443 303.64 
L 3.533764 303.64 
L 6.399086 303.64 
L 9.264407 303.64 
L 12.129729 303.64 
L 14.99505 303.64 
L 17.860372 303.64 
L 20.725693 303.64 
L 23.591015 303.64 
L 26.456336 303.64 
L 29.321658 303.64 
L 32.186979 303.64 
L 35.052301 303.64 
L 37.917622 303.64 
L 40.782943 303.64 
L 43.648265 303.64 
L 46.513586 303.64 
L 49.378908 303.64 
L 52.244229 303.64 
L 55.109551 303.64 
L 57.974872 303.64 
L 60.840194 303.64 
L 63.705515 303.64 
L 66.570837 303.64 
L 69.436158 303.64 
L 72.30148 303.64 
L 75.166801 303.64 
L 78.032123 303.64 
L 80.897444 303.64 
L 83.762765 303.64 
L 86.628087 303.64 
L 89.493408 303.64 
L 92.35873 303.64 
L 95.224051 303.64 
L 98.089373 303.64 
L 100.954694 303.64 
L 103.820016 303.64 
L 106.685337 303.64 
L 109.550659 303.64 
L 112.41598 303.64 
L 115.281302 303.64 
L 118.146623 303.64 
L 121.011945 303.64 
L 123.877266 303.64 
L 126.742587 303.64 
L 129.607909 303.64 
L 132.47323 303.64 
L 135.338552 303.64 
L 138.203873 303.64 
L 141.069195 303.64 
L 143.934516 303.64 
L 146.799838 303.64 
L 149.665159 303.64 
L 152.530481 303.64 
L 155.395802 303.64 
L 158.261124 303.64 
L 161.126445 303.64 
L 163.991767 303.64 
L 166.857088 303.64 
L 169.722409 303.64 
L 172.587731 303.64 
L 175.453052 303.64 
L 178.318374 303.64 
L 181.183695 303.64 
L 184.049017 303.64 
L 186.914338 303.64 
L 189.77966 303.64 
L 192.644981 303.64 
L 195.510303 303.64 
L 198.375624 303.64 
L 201.240946 303.64 
L 204.106267 303.64 
L 206.971588 303.64 
L 209.83691 303.64 
L 212.702231 303.64 
L 215.567553 303.64 
L 218.432874 303.64 
L 221.298196 303.64 
L 224.163517 303.64 
L 227.028839 303.64 
L 229.89416 303.64 
L 232.759482 303.64 
L 235.624803 303.64 
L 238.490125 303.64 
L 241.355446 303.64 
L 244.220768 303.64 
L 247.086089 303.64 
L 249.95141 303.64 
L 252.816732 303.64 
L 255.682053 303.64 
L 258.547375 303.64 
L 261.412696 303.64 
L 264.278018 303.64 
L 267.143339 303.64 
L 270.008661 303.64 
L 272.873982 303.64 
L 275.739304 303.64 
L 278.604625 303.64 
L 281.469947 303.64 
L 284.335268 303.64 
L 287.20059 303.64 
L 290.065911 303.64 
L 292.931232 303.64 
L 295.796554 303.64 
L 298.661875 303.64 
L 301.527197 303.64 
L 304.392518 303.64 
L 307.25784 303.64 
L 310.123161 303.64 
L 312.988483 303.64 
L 315.853804 303.64 
L 318.719126 303.64 
L 321.584447 303.64 
L 324.449769 303.64 
L 327.31509 303.64 
L 330.180412 303.64 
L 333.045733 303.64 
L 335.911054 303.64 
L 338.776376 303.64 
L 341.641697 303.64 
L 344.507019 303.64 
L 347.37234 303.64 
L 350.237662 303.64 
L 353.102983 303.64 
L 355.968305 303.64 
L 358.833626 303.64 
L 361.698948 303.64 
L 364.564269 303.64 
L 367.429591 303.64 
L 370.294912 303.64 
L 373.160233 303.64 
L 376.025555 303.64 
L 378.890876 303.64 
L 381.756198 303.64 
L 384.621519 303.64 
L 387.486841 303.64 
L 390.352162 303.64 
L 393.217484 303.64 
L 396.082805 303.64 
L 398.948127 303.64 
L 401.813448 303.64 
L 404.67877 303.64 
L 407.544091 303.64 
L 410.409413 303.64 
L 413.274734 303.64 
L 416.140055 303.64 
L 419.005377 303.64 
L 421.870698 303.64 
L 424.73602 303.64 
L 427.601341 303.64 
L 430.466663 303.64 
L 433.331984 303.64 
L 436.197306 303.64 
L 439.062627 303.64 
L 441.927949 303.64 
L 444.79327 303.64 
L 447.658592 303.64 
L 450.523913 303.64 
L 453.389235 303.64 
L 456.254556 303.64 
L 459.119877 303.64 
L 461.985199 303.64 
L 464.85052 303.64 
L 467.715842 303.64 
L 470.581163 303.64 
L 473.446485 303.64 
L 476.311806 303.64 
L 479.177128 303.64 
L 482.042449 303.64 
L 484.907771 303.64 
L 487.773092 303.64 
L 490.638414 303.64 
L 493.503735 303.64 
L 496.369057 303.64 
L 499.234378 303.64 
L 502.099699 303.64 
L 504.965021 303.64 
L 507.830342 303.64 
L 510.695664 303.64 
L 513.560985 303.64 
L 516.426307 303.64 
L 519.291628 303.64 
L 522.15695 303.64 
L 525.022271 303.64 
L 527.887593 303.64 
L 530.752914 303.64 
L 533.618236 303.64 
L 536.483557 303.64 
L 539.348878 303.64 
L 542.2142 303.64 
L 545.079521 303.64 
L 547.944843 303.64 
L 550.810164 303.64 
L 553.675486 303.64 
L 553.675486 302.876335 
L 553.675486 302.876335 
L 550.810164 302.677293 
L 547.944843 302.433359 
L 545.079521 302.136309 
L 542.2142 301.776886 
L 539.348878 301.344779 
L 536.483557 300.828634 
L 533.618236 300.216086 
L 530.752914 299.493847 
L 527.887593 298.647828 
L 525.022271 297.66331 
L 522.15695 296.525174 
L 519.291628 295.218178 
L 516.426307 293.727294 
L 513.560985 292.038096 
L 510.695664 290.13719 
L 507.830342 288.012687 
L 504.965021 285.654704 
L 502.099699 283.055877 
L 499.234378 280.211869 
L 496.369057 277.121869 
L 493.503735 273.789038 
L 490.638414 270.220897 
L 487.773092 266.429642 
L 484.907771 262.432344 
L 482.042449 258.251043 
L 479.177128 253.912697 
L 476.311806 249.448997 
L 473.446485 244.896031 
L 470.581163 240.293791 
L 467.715842 235.68555 
L 464.85052 231.117097 
L 461.985199 226.63587 
L 459.119877 222.28999 
L 456.254556 218.127242 
L 453.389235 214.194022 
L 450.523913 210.534295 
L 447.658592 207.188582 
L 444.79327 204.193033 
L 441.927949 201.578592 
L 439.062627 199.370309 
L 436.197306 197.586793 
L 433.331984 196.23985 
L 430.466663 195.334299 
L 427.601341 194.867975 
L 424.73602 194.831914 
L 421.870698 195.210717 
L 419.005377 195.983063 
L 416.140055 197.122362 
L 413.274734 198.597516 
L 410.409413 200.373758 
L 407.544091 202.413549 
L 404.67877 204.677488 
L 401.813448 207.125218 
L 398.948127 209.716297 
L 396.082805 212.41101 
L 393.217484 215.171097 
L 390.352162 217.960394 
L 387.486841 220.745361 
L 384.621519 223.495502 
L 381.756198 226.183665 
L 378.890876 228.786232 
L 376.025555 231.283204 
L 373.160233 233.658176 
L 370.294912 235.898237 
L 367.429591 237.993788 
L 364.564269 239.938297 
L 361.698948 241.728011 
L 358.833626 243.361636 
L 355.968305 244.839998 
L 353.102983 246.165699 
L 350.237662 247.342781 
L 347.37234 248.376409 
L 344.507019 249.272573 
L 341.641697 250.037833 
L 338.776376 250.67909 
L 335.911054 251.203408 
L 333.045733 251.617863 
L 330.180412 251.929445 
L 327.31509 252.144985 
L 324.449769 252.271127 
L 321.584447 252.314318 
L 318.719126 252.280828 
L 315.853804 252.176787 
L 312.988483 252.008228 
L 310.123161 251.781143 
L 307.25784 251.501534 
L 304.392518 251.175457 
L 301.527197 250.809063 
L 298.661875 250.408619 
L 295.796554 249.980523 
L 292.931232 249.531288 
L 290.065911 249.067528 
L 287.20059 248.595909 
L 284.335268 248.123106 
L 281.469947 247.655727 
L 278.604625 247.200244 
L 275.739304 246.762911 
L 272.873982 246.349684 
L 270.008661 245.966133 
L 267.143339 245.617371 
L 264.278018 245.307981 
L 261.412696 245.041959 
L 258.547375 244.822658 
L 255.682053 244.65276 
L 252.816732 244.534249 
L 249.95141 244.468398 
L 247.086089 244.455779 
L 244.220768 244.496269 
L 241.355446 244.589077 
L 238.490125 244.732776 
L 235.624803 244.925342 
L 232.759482 245.164193 
L 229.89416 245.446241 
L 227.028839 245.767942 
L 224.163517 246.125343 
L 221.298196 246.514137 
L 218.432874 246.929722 
L 215.567553 247.367249 
L 212.702231 247.82169 
L 209.83691 248.287895 
L 206.971588 248.760662 
L 204.106267 249.234805 
L 201.240946 249.705237 
L 198.375624 250.167051 
L 195.510303 250.615606 
L 192.644981 251.046627 
L 189.77966 251.456295 
L 186.914338 251.841351 
L 184.049017 252.199191 
L 181.183695 252.527961 
L 178.318374 252.826639 
L 175.453052 253.09512 
L 172.587731 253.334266 
L 169.722409 253.545961 
L 166.857088 253.733126 
L 163.991767 253.899725 
L 161.126445 254.050734 
L 158.261124 254.192095 
L 155.395802 254.330632 
L 152.530481 254.473947 
L 149.665159 254.630288 
L 146.799838 254.808394 
L 143.934516 255.017324 
L 141.069195 255.26626 
L 138.203873 255.56431 
L 135.338552 255.920295 
L 132.47323 256.342542 
L 129.607909 256.838678 
L 126.742587 257.415433 
L 123.877266 258.078461 
L 121.011945 258.832183 
L 118.146623 259.67965 
L 115.281302 260.622444 
L 112.41598 261.660605 
L 109.550659 262.792596 
L 106.685337 264.015305 
L 103.820016 265.324084 
L 100.954694 266.712821 
L 98.089373 268.174055 
L 95.224051 269.699112 
L 92.35873 271.278274 
L 89.493408 272.900977 
L 86.628087 274.556014 
L 83.762765 276.23176 
L 80.897444 277.916404 
L 78.032123 279.598167 
L 75.166801 281.265534 
L 72.30148 282.907454 
L 69.436158 284.513531 
L 66.570837 286.074199 
L 63.705515 287.580852 
L 60.840194 289.025966 
L 57.974872 290.403175 
L 55.109551 291.707322 
L 52.244229 292.934479 
L 49.378908 294.081932 
L 46.513586 295.148148 
L 43.648265 296.132706 
L 40.782943 297.036217 
L 37.917622 297.860223 
L 35.052301 298.607083 
L 32.186979 299.279853 
L 29.321658 299.882159 
L 26.456336 300.418074 
L 23.591015 300.891997 
L 20.725693 301.308536 
L 17.860372 301.672402 
L 14.99505 301.988317 
L 12.129729 302.260927 
L 9.264407 302.494734 
L 6.399086 302.694042 
L 3.533764 302.862906 
L 0.668443 303.005106 
L -2.196878 303.124125 
L -5.0622 303.223136 
L -7.927521 303.305002 
L -10.792843 303.372281 
L -13.658164 303.427236 
L -16.523486 303.471853 
z
" style="fill:#1f77b4;fill-opacity:0.4;stroke:#1f77b4;"/>
   </g>
   <g id="PolyCollection_2">
    <defs>
     <path d="M 195.133554 -42.248966 
L 195.133554 -41.96 
L 196.822563 -41.96 
L 198.511573 -41.96 
L 200.200583 -41.96 
L 201.889592 -41.96 
L 203.578602 -41.96 
L 205.267611 -41.96 
L 206.956621 -41.96 
L 208.64563 -41.96 
L 210.33464 -41.96 
L 212.023649 -41.96 
L 213.712659 -41.96 
L 215.401668 -41.96 
L 217.090678 -41.96 
L 218.779687 -41.96 
L 220.468697 -41.96 
L 222.157706 -41.96 
L 223.846716 -41.96 
L 225.535725 -41.96 
L 227.224735 -41.96 
L 228.913744 -41.96 
L 230.602754 -41.96 
L 232.291763 -41.96 
L 233.980773 -41.96 
L 235.669782 -41.96 
L 237.358792 -41.96 
L 239.047801 -41.96 
L 240.736811 -41.96 
L 242.42582 -41.96 
L 244.11483 -41.96 
L 245.803839 -41.96 
L 247.492849 -41.96 
L 249.181858 -41.96 
L 250.870868 -41.96 
L 252.559877 -41.96 
L 254.248887 -41.96 
L 255.937896 -41.96 
L 257.626906 -41.96 
L 259.315915 -41.96 
L 261.004925 -41.96 
L 262.693934 -41.96 
L 264.382944 -41.96 
L 266.071953 -41.96 
L 267.760963 -41.96 
L 269.449972 -41.96 
L 271.138982 -41.96 
L 272.827991 -41.96 
L 274.517001 -41.96 
L 276.20601 -41.96 
L 277.89502 -41.96 
L 279.584029 -41.96 
L 281.273039 -41.96 
L 282.962048 -41.96 
L 284.651058 -41.96 
L 286.340067 -41.96 
L 288.029077 -41.96 
L 289.718086 -41.96 
L 291.407096 -41.96 
L 293.096105 -41.96 
L 294.785115 -41.96 
L 296.474124 -41.96 
L 298.163134 -41.96 
L 299.852143 -41.96 
L 301.541153 -41.96 
L 303.230162 -41.96 
L 304.919172 -41.96 
L 306.608181 -41.96 
L 308.297191 -41.96 
L 309.986201 -41.96 
L 311.67521 -41.96 
L 313.36422 -41.96 
L 315.053229 -41.96 
L 316.742239 -41.96 
L 318.431248 -41.96 
L 320.120258 -41.96 
L 321.809267 -41.96 
L 323.498277 -41.96 
L 325.187286 -41.96 
L 326.876296 -41.96 
L 328.565305 -41.96 
L 330.254315 -41.96 
L 331.943324 -41.96 
L 333.632334 -41.96 
L 335.321343 -41.96 
L 337.010353 -41.96 
L 338.699362 -41.96 
L 340.388372 -41.96 
L 342.077381 -41.96 
L 343.766391 -41.96 
L 345.4554 -41.96 
L 347.14441 -41.96 
L 348.833419 -41.96 
L 350.522429 -41.96 
L 352.211438 -41.96 
L 353.900448 -41.96 
L 355.589457 -41.96 
L 357.278467 -41.96 
L 358.967476 -41.96 
L 360.656486 -41.96 
L 362.345495 -41.96 
L 364.034505 -41.96 
L 365.723514 -41.96 
L 367.412524 -41.96 
L 369.101533 -41.96 
L 370.790543 -41.96 
L 372.479552 -41.96 
L 374.168562 -41.96 
L 375.857571 -41.96 
L 377.546581 -41.96 
L 379.23559 -41.96 
L 380.9246 -41.96 
L 382.613609 -41.96 
L 384.302619 -41.96 
L 385.991628 -41.96 
L 387.680638 -41.96 
L 389.369647 -41.96 
L 391.058657 -41.96 
L 392.747666 -41.96 
L 394.436676 -41.96 
L 396.125685 -41.96 
L 397.814695 -41.96 
L 399.503704 -41.96 
L 401.192714 -41.96 
L 402.881723 -41.96 
L 404.570733 -41.96 
L 406.259742 -41.96 
L 407.948752 -41.96 
L 409.637761 -41.96 
L 411.326771 -41.96 
L 413.01578 -41.96 
L 414.70479 -41.96 
L 416.393799 -41.96 
L 418.082809 -41.96 
L 419.771819 -41.96 
L 421.460828 -41.96 
L 423.149838 -41.96 
L 424.838847 -41.96 
L 426.527857 -41.96 
L 428.216866 -41.96 
L 429.905876 -41.96 
L 431.594885 -41.96 
L 433.283895 -41.96 
L 434.972904 -41.96 
L 436.661914 -41.96 
L 438.350923 -41.96 
L 440.039933 -41.96 
L 441.728942 -41.96 
L 443.417952 -41.96 
L 445.106961 -41.96 
L 446.795971 -41.96 
L 448.48498 -41.96 
L 450.17399 -41.96 
L 451.862999 -41.96 
L 453.552009 -41.96 
L 455.241018 -41.96 
L 456.930028 -41.96 
L 458.619037 -41.96 
L 460.308047 -41.96 
L 461.997056 -41.96 
L 463.686066 -41.96 
L 465.375075 -41.96 
L 467.064085 -41.96 
L 468.753094 -41.96 
L 470.442104 -41.96 
L 472.131113 -41.96 
L 473.820123 -41.96 
L 475.509132 -41.96 
L 477.198142 -41.96 
L 478.887151 -41.96 
L 480.576161 -41.96 
L 482.26517 -41.96 
L 483.95418 -41.96 
L 485.643189 -41.96 
L 487.332199 -41.96 
L 489.021208 -41.96 
L 490.710218 -41.96 
L 492.399227 -41.96 
L 494.088237 -41.96 
L 495.777246 -41.96 
L 497.466256 -41.96 
L 499.155265 -41.96 
L 500.844275 -41.96 
L 502.533284 -41.96 
L 504.222294 -41.96 
L 505.911303 -41.96 
L 507.600313 -41.96 
L 509.289322 -41.96 
L 510.978332 -41.96 
L 512.667341 -41.96 
L 514.356351 -41.96 
L 516.04536 -41.96 
L 517.73437 -41.96 
L 519.423379 -41.96 
L 521.112389 -41.96 
L 522.801398 -41.96 
L 524.490408 -41.96 
L 526.179417 -41.96 
L 527.868427 -41.96 
L 529.557437 -41.96 
L 531.246446 -41.96 
L 531.246446 -43.578673 
L 531.246446 -43.578673 
L 529.557437 -43.884086 
L 527.868427 -44.240027 
L 526.179417 -44.653437 
L 524.490408 -45.131952 
L 522.801398 -45.683923 
L 521.112389 -46.318438 
L 519.423379 -47.045324 
L 517.73437 -47.875146 
L 516.04536 -48.819195 
L 514.356351 -49.889457 
L 512.667341 -51.098566 
L 510.978332 -52.459747 
L 509.289322 -53.986731 
L 507.600313 -55.69366 
L 505.911303 -57.594964 
L 504.222294 -59.705221 
L 502.533284 -62.038995 
L 500.844275 -64.610652 
L 499.155265 -67.434156 
L 497.466256 -70.522852 
L 495.777246 -73.889223 
L 494.088237 -77.544638 
L 492.399227 -81.49909 
L 490.710218 -85.760924 
L 489.021208 -90.336563 
L 487.332199 -95.230237 
L 485.643189 -100.443714 
L 483.95418 -105.97605 
L 482.26517 -111.823355 
L 480.576161 -117.978581 
L 478.887151 -124.431342 
L 477.198142 -131.167772 
L 475.509132 -138.170421 
L 473.820123 -145.4182 
L 472.131113 -152.886379 
L 470.442104 -160.546632 
L 468.753094 -168.367151 
L 467.064085 -176.312805 
L 465.375075 -184.345373 
L 463.686066 -192.423827 
L 461.997056 -200.50467 
L 460.308047 -208.542337 
L 458.619037 -216.489633 
L 456.930028 -224.298225 
L 455.241018 -231.919163 
L 453.552009 -239.30343 
L 451.862999 -246.402517 
L 450.17399 -253.168998 
L 448.48498 -259.557113 
L 446.795971 -265.523338 
L 445.106961 -271.026934 
L 443.417952 -276.030463 
L 441.728942 -280.500268 
L 440.039933 -284.406902 
L 438.350923 -287.725498 
L 436.661914 -290.436077 
L 434.972904 -292.523785 
L 433.283895 -293.97906 
L 431.594885 -294.797715 
L 429.905876 -294.980952 
L 428.216866 -294.535295 
L 426.527857 -293.472442 
L 424.838847 -291.809058 
L 423.149838 -289.566492 
L 421.460828 -286.770433 
L 419.771819 -283.450517 
L 418.082809 -279.639888 
L 416.393799 -275.374719 
L 414.70479 -270.693708 
L 413.01578 -265.637557 
L 411.326771 -260.24844 
L 409.637761 -254.569477 
L 407.948752 -248.644209 
L 406.259742 -242.516104 
L 404.570733 -236.228077 
L 402.881723 -229.822053 
L 401.192714 -223.338559 
L 399.503704 -216.816368 
L 397.814695 -210.292186 
L 396.125685 -203.800391 
L 394.436676 -197.372817 
L 392.747666 -191.038599 
L 391.058657 -184.824059 
L 389.369647 -178.752648 
L 387.680638 -172.844929 
L 385.991628 -167.118608 
L 384.302619 -161.588595 
L 382.613609 -156.267113 
L 380.9246 -151.163822 
L 379.23559 -146.28598 
L 377.546581 -141.63861 
L 375.857571 -137.224694 
L 374.168562 -133.045369 
L 372.479552 -129.100127 
L 370.790543 -125.387014 
L 369.101533 -121.90283 
L 367.412524 -118.643314 
L 365.723514 -115.603325 
L 364.034505 -112.777001 
L 362.345495 -110.157907 
L 360.656486 -107.73917 
L 358.967476 -105.51359 
L 357.278467 -103.473733 
L 355.589457 -101.612013 
L 353.900448 -99.920751 
L 352.211438 -98.392217 
L 350.522429 -97.018667 
L 348.833419 -95.792356 
L 347.14441 -94.705549 
L 345.4554 -93.750517 
L 343.766391 -92.91953 
L 342.077381 -92.204847 
L 340.388372 -91.5987 
L 338.699362 -91.093279 
L 337.010353 -90.680718 
L 335.321343 -90.353084 
L 333.632334 -90.102372 
L 331.943324 -89.920499 
L 330.254315 -89.79931 
L 328.565305 -89.730588 
L 326.876296 -89.706068 
L 325.187286 -89.717462 
L 323.498277 -89.756485 
L 321.809267 -89.814895 
L 320.120258 -89.884524 
L 318.431248 -89.957328 
L 316.742239 -90.025435 
L 315.053229 -90.081189 
L 313.36422 -90.117208 
L 311.67521 -90.126433 
L 309.986201 -90.102181 
L 308.297191 -90.038192 
L 306.608181 -89.928685 
L 304.919172 -89.768394 
L 303.230162 -89.552618 
L 301.541153 -89.27725 
L 299.852143 -88.938816 
L 298.163134 -88.534496 
L 296.474124 -88.062145 
L 294.785115 -87.520309 
L 293.096105 -86.908228 
L 291.407096 -86.225838 
L 289.718086 -85.473763 
L 288.029077 -84.6533 
L 286.340067 -83.7664 
L 284.651058 -82.815637 
L 282.962048 -81.804173 
L 281.273039 -80.735723 
L 279.584029 -79.6145 
L 277.89502 -78.44517 
L 276.20601 -77.232793 
L 274.517001 -75.982765 
L 272.827991 -74.700752 
L 271.138982 -73.392627 
L 269.449972 -72.064404 
L 267.760963 -70.722169 
L 266.071953 -69.372014 
L 264.382944 -68.019974 
L 262.693934 -66.671963 
L 261.004925 -65.333714 
L 259.315915 -64.010723 
L 257.626906 -62.708201 
L 255.937896 -61.431029 
L 254.248887 -60.183714 
L 252.559877 -58.97036 
L 250.870868 -57.794644 
L 249.181858 -56.65979 
L 247.492849 -55.568564 
L 245.803839 -54.523261 
L 244.11483 -53.525713 
L 242.42582 -52.577291 
L 240.736811 -51.678918 
L 239.047801 -50.831093 
L 237.358792 -50.033904 
L 235.669782 -49.287064 
L 233.980773 -48.589934 
L 232.291763 -47.941563 
L 230.602754 -47.340713 
L 228.913744 -46.785902 
L 227.224735 -46.275437 
L 225.535725 -45.807451 
L 223.846716 -45.379937 
L 222.157706 -44.990782 
L 220.468697 -44.637798 
L 218.779687 -44.318756 
L 217.090678 -44.031409 
L 215.401668 -43.773519 
L 213.712659 -43.542879 
L 212.023649 -43.337333 
L 210.33464 -43.154791 
L 208.64563 -42.993246 
L 206.956621 -42.85078 
L 205.267611 -42.725579 
L 203.578602 -42.615931 
L 201.889592 -42.520239 
L 200.200583 -42.437015 
L 198.511573 -42.364886 
L 196.822563 -42.302587 
L 195.133554 -42.248966 
z
" id="m8f5708f9f2" style="stroke:#ff7f0e;"/>
    </defs>
    <g clip-path="url(#pcc49d01832)">
     <use style="fill:#ff7f0e;fill-opacity:0.4;stroke:#ff7f0e;" x="0" xlink:href="#m8f5708f9f2" y="345.6"/>
    </g>
   </g>
   <g id="matplotlib.axis_1">
    <g id="xtick_1">
     <g id="line2d_1">
      <defs>
       <path d="M 0 0 
L 0 3.5 
" id="m9b09899ab0" style="stroke:#000000;stroke-width:0.8;"/>
      </defs>
      <g>
       <use style="stroke:#000000;stroke-width:0.8;" x="47.81" xlink:href="#m9b09899ab0" y="303.64"/>
      </g>
     </g>
     <g id="text_1">
      <!-- 0.0 -->
      <g transform="translate(39.858438 318.238437)scale(0.1 -0.1)">
       <defs>
        <path d="M 2034 4250 
Q 1547 4250 1301 3770 
Q 1056 3291 1056 2328 
Q 1056 1369 1301 889 
Q 1547 409 2034 409 
Q 2525 409 2770 889 
Q 3016 1369 3016 2328 
Q 3016 3291 2770 3770 
Q 2525 4250 2034 4250 
z
M 2034 4750 
Q 2819 4750 3233 4129 
Q 3647 3509 3647 2328 
Q 3647 1150 3233 529 
Q 2819 -91 2034 -91 
Q 1250 -91 836 529 
Q 422 1150 422 2328 
Q 422 3509 836 4129 
Q 1250 4750 2034 4750 
z
" id="DejaVuSans-30" transform="scale(0.015625)"/>
        <path d="M 684 794 
L 1344 794 
L 1344 0 
L 684 0 
L 684 794 
z
" id="DejaVuSans-2e" transform="scale(0.015625)"/>
       </defs>
       <use xlink:href="#DejaVuSans-30"/>
       <use x="63.623047" xlink:href="#DejaVuSans-2e"/>
       <use x="95.410156" xlink:href="#DejaVuSans-30"/>
      </g>
     </g>
    </g>
    <g id="xtick_2">
     <g id="line2d_2">
      <g>
       <use style="stroke:#000000;stroke-width:0.8;" x="126.655" xlink:href="#m9b09899ab0" y="303.64"/>
      </g>
     </g>
     <g id="text_2">
      <!-- 0.2 -->
      <g transform="translate(118.703438 318.238437)scale(0.1 -0.1)">
       <defs>
        <path d="M 1228 531 
L 3431 531 
L 3431 0 
L 469 0 
L 469 531 
Q 828 903 1448 1529 
Q 2069 2156 2228 2338 
Q 2531 2678 2651 2914 
Q 2772 3150 2772 3378 
Q 2772 3750 2511 3984 
Q 2250 4219 1831 4219 
Q 1534 4219 1204 4116 
Q 875 4013 500 3803 
L 500 4441 
Q 881 4594 1212 4672 
Q 1544 4750 1819 4750 
Q 2544 4750 2975 4387 
Q 3406 4025 3406 3419 
Q 3406 3131 3298 2873 
Q 3191 2616 2906 2266 
Q 2828 2175 2409 1742 
Q 1991 1309 1228 531 
z
" id="DejaVuSans-32" transform="scale(0.015625)"/>
       </defs>
       <use xlink:href="#DejaVuSans-30"/>
       <use x="63.623047" xlink:href="#DejaVuSans-2e"/>
       <use x="95.410156" xlink:href="#DejaVuSans-32"/>
      </g>
     </g>
    </g>
    <g id="xtick_3">
     <g id="line2d_3">
      <g>
       <use style="stroke:#000000;stroke-width:0.8;" x="205.5" xlink:href="#m9b09899ab0" y="303.64"/>
      </g>
     </g>
     <g id="text_3">
      <!-- 0.4 -->
      <g transform="translate(197.548438 318.238437)scale(0.1 -0.1)">
       <defs>
        <path d="M 2419 4116 
L 825 1625 
L 2419 1625 
L 2419 4116 
z
M 2253 4666 
L 3047 4666 
L 3047 1625 
L 3713 1625 
L 3713 1100 
L 3047 1100 
L 3047 0 
L 2419 0 
L 2419 1100 
L 313 1100 
L 313 1709 
L 2253 4666 
z
" id="DejaVuSans-34" transform="scale(0.015625)"/>
       </defs>
       <use xlink:href="#DejaVuSans-30"/>
       <use x="63.623047" xlink:href="#DejaVuSans-2e"/>
       <use x="95.410156" xlink:href="#DejaVuSans-34"/>
      </g>
     </g>
    </g>
    <g id="xtick_4">
     <g id="line2d_4">
      <g>
       <use style="stroke:#000000;stroke-width:0.8;" x="284.345" xlink:href="#m9b09899ab0" y="303.64"/>
      </g>
     </g>
     <g id="text_4">
      <!-- 0.6 -->
      <g transform="translate(276.393438 318.238437)scale(0.1 -0.1)">
       <defs>
        <path d="M 2113 2584 
Q 1688 2584 1439 2293 
Q 1191 2003 1191 1497 
Q 1191 994 1439 701 
Q 1688 409 2113 409 
Q 2538 409 2786 701 
Q 3034 994 3034 1497 
Q 3034 2003 2786 2293 
Q 2538 2584 2113 2584 
z
M 3366 4563 
L 3366 3988 
Q 3128 4100 2886 4159 
Q 2644 4219 2406 4219 
Q 1781 4219 1451 3797 
Q 1122 3375 1075 2522 
Q 1259 2794 1537 2939 
Q 1816 3084 2150 3084 
Q 2853 3084 3261 2657 
Q 3669 2231 3669 1497 
Q 3669 778 3244 343 
Q 2819 -91 2113 -91 
Q 1303 -91 875 529 
Q 447 1150 447 2328 
Q 447 3434 972 4092 
Q 1497 4750 2381 4750 
Q 2619 4750 2861 4703 
Q 3103 4656 3366 4563 
z
" id="DejaVuSans-36" transform="scale(0.015625)"/>
       </defs>
       <use xlink:href="#DejaVuSans-30"/>
       <use x="63.623047" xlink:href="#DejaVuSans-2e"/>
       <use x="95.410156" xlink:href="#DejaVuSans-36"/>
      </g>
     </g>
    </g>
    <g id="xtick_5">
     <g id="line2d_5">
      <g>
       <use style="stroke:#000000;stroke-width:0.8;" x="363.19" xlink:href="#m9b09899ab0" y="303.64"/>
      </g>
     </g>
     <g id="text_5">
      <!-- 0.8 -->
      <g transform="translate(355.238437 318.238437)scale(0.1 -0.1)">
       <defs>
        <path d="M 2034 2216 
Q 1584 2216 1326 1975 
Q 1069 1734 1069 1313 
Q 1069 891 1326 650 
Q 1584 409 2034 409 
Q 2484 409 2743 651 
Q 3003 894 3003 1313 
Q 3003 1734 2745 1975 
Q 2488 2216 2034 2216 
z
M 1403 2484 
Q 997 2584 770 2862 
Q 544 3141 544 3541 
Q 544 4100 942 4425 
Q 1341 4750 2034 4750 
Q 2731 4750 3128 4425 
Q 3525 4100 3525 3541 
Q 3525 3141 3298 2862 
Q 3072 2584 2669 2484 
Q 3125 2378 3379 2068 
Q 3634 1759 3634 1313 
Q 3634 634 3220 271 
Q 2806 -91 2034 -91 
Q 1263 -91 848 271 
Q 434 634 434 1313 
Q 434 1759 690 2068 
Q 947 2378 1403 2484 
z
M 1172 3481 
Q 1172 3119 1398 2916 
Q 1625 2713 2034 2713 
Q 2441 2713 2670 2916 
Q 2900 3119 2900 3481 
Q 2900 3844 2670 4047 
Q 2441 4250 2034 4250 
Q 1625 4250 1398 4047 
Q 1172 3844 1172 3481 
z
" id="DejaVuSans-38" transform="scale(0.015625)"/>
       </defs>
       <use xlink:href="#DejaVuSans-30"/>
       <use x="63.623047" xlink:href="#DejaVuSans-2e"/>
       <use x="95.410156" xlink:href="#DejaVuSans-38"/>
      </g>
     </g>
    </g>
    <g id="xtick_6">
     <g id="line2d_6">
      <g>
       <use style="stroke:#000000;stroke-width:0.8;" x="442.035" xlink:href="#m9b09899ab0" y="303.64"/>
      </g>
     </g>
     <g id="text_6">
      <!-- 1.0 -->
      <g transform="translate(434.083437 318.238437)scale(0.1 -0.1)">
       <defs>
        <path d="M 794 531 
L 1825 531 
L 1825 4091 
L 703 3866 
L 703 4441 
L 1819 4666 
L 2450 4666 
L 2450 531 
L 3481 531 
L 3481 0 
L 794 0 
L 794 531 
z
" id="DejaVuSans-31" transform="scale(0.015625)"/>
       </defs>
       <use xlink:href="#DejaVuSans-31"/>
       <use x="63.623047" xlink:href="#DejaVuSans-2e"/>
       <use x="95.410156" xlink:href="#DejaVuSans-30"/>
      </g>
     </g>
    </g>
    <g id="text_7">
     <!-- Credibility index -->
     <g transform="translate(204.317812 331.916562)scale(0.1 -0.1)">
      <defs>
       <path d="M 4122 4306 
L 4122 3641 
Q 3803 3938 3442 4084 
Q 3081 4231 2675 4231 
Q 1875 4231 1450 3742 
Q 1025 3253 1025 2328 
Q 1025 1406 1450 917 
Q 1875 428 2675 428 
Q 3081 428 3442 575 
Q 3803 722 4122 1019 
L 4122 359 
Q 3791 134 3420 21 
Q 3050 -91 2638 -91 
Q 1578 -91 968 557 
Q 359 1206 359 2328 
Q 359 3453 968 4101 
Q 1578 4750 2638 4750 
Q 3056 4750 3426 4639 
Q 3797 4528 4122 4306 
z
" id="DejaVuSans-43" transform="scale(0.015625)"/>
       <path d="M 2631 2963 
Q 2534 3019 2420 3045 
Q 2306 3072 2169 3072 
Q 1681 3072 1420 2755 
Q 1159 2438 1159 1844 
L 1159 0 
L 581 0 
L 581 3500 
L 1159 3500 
L 1159 2956 
Q 1341 3275 1631 3429 
Q 1922 3584 2338 3584 
Q 2397 3584 2469 3576 
Q 2541 3569 2628 3553 
L 2631 2963 
z
" id="DejaVuSans-72" transform="scale(0.015625)"/>
       <path d="M 3597 1894 
L 3597 1613 
L 953 1613 
Q 991 1019 1311 708 
Q 1631 397 2203 397 
Q 2534 397 2845 478 
Q 3156 559 3463 722 
L 3463 178 
Q 3153 47 2828 -22 
Q 2503 -91 2169 -91 
Q 1331 -91 842 396 
Q 353 884 353 1716 
Q 353 2575 817 3079 
Q 1281 3584 2069 3584 
Q 2775 3584 3186 3129 
Q 3597 2675 3597 1894 
z
M 3022 2063 
Q 3016 2534 2758 2815 
Q 2500 3097 2075 3097 
Q 1594 3097 1305 2825 
Q 1016 2553 972 2059 
L 3022 2063 
z
" id="DejaVuSans-65" transform="scale(0.015625)"/>
       <path d="M 2906 2969 
L 2906 4863 
L 3481 4863 
L 3481 0 
L 2906 0 
L 2906 525 
Q 2725 213 2448 61 
Q 2172 -91 1784 -91 
Q 1150 -91 751 415 
Q 353 922 353 1747 
Q 353 2572 751 3078 
Q 1150 3584 1784 3584 
Q 2172 3584 2448 3432 
Q 2725 3281 2906 2969 
z
M 947 1747 
Q 947 1113 1208 752 
Q 1469 391 1925 391 
Q 2381 391 2643 752 
Q 2906 1113 2906 1747 
Q 2906 2381 2643 2742 
Q 2381 3103 1925 3103 
Q 1469 3103 1208 2742 
Q 947 2381 947 1747 
z
" id="DejaVuSans-64" transform="scale(0.015625)"/>
       <path d="M 603 3500 
L 1178 3500 
L 1178 0 
L 603 0 
L 603 3500 
z
M 603 4863 
L 1178 4863 
L 1178 4134 
L 603 4134 
L 603 4863 
z
" id="DejaVuSans-69" transform="scale(0.015625)"/>
       <path d="M 3116 1747 
Q 3116 2381 2855 2742 
Q 2594 3103 2138 3103 
Q 1681 3103 1420 2742 
Q 1159 2381 1159 1747 
Q 1159 1113 1420 752 
Q 1681 391 2138 391 
Q 2594 391 2855 752 
Q 3116 1113 3116 1747 
z
M 1159 2969 
Q 1341 3281 1617 3432 
Q 1894 3584 2278 3584 
Q 2916 3584 3314 3078 
Q 3713 2572 3713 1747 
Q 3713 922 3314 415 
Q 2916 -91 2278 -91 
Q 1894 -91 1617 61 
Q 1341 213 1159 525 
L 1159 0 
L 581 0 
L 581 4863 
L 1159 4863 
L 1159 2969 
z
" id="DejaVuSans-62" transform="scale(0.015625)"/>
       <path d="M 603 4863 
L 1178 4863 
L 1178 0 
L 603 0 
L 603 4863 
z
" id="DejaVuSans-6c" transform="scale(0.015625)"/>
       <path d="M 1172 4494 
L 1172 3500 
L 2356 3500 
L 2356 3053 
L 1172 3053 
L 1172 1153 
Q 1172 725 1289 603 
Q 1406 481 1766 481 
L 2356 481 
L 2356 0 
L 1766 0 
Q 1100 0 847 248 
Q 594 497 594 1153 
L 594 3053 
L 172 3053 
L 172 3500 
L 594 3500 
L 594 4494 
L 1172 4494 
z
" id="DejaVuSans-74" transform="scale(0.015625)"/>
       <path d="M 2059 -325 
Q 1816 -950 1584 -1140 
Q 1353 -1331 966 -1331 
L 506 -1331 
L 506 -850 
L 844 -850 
Q 1081 -850 1212 -737 
Q 1344 -625 1503 -206 
L 1606 56 
L 191 3500 
L 800 3500 
L 1894 763 
L 2988 3500 
L 3597 3500 
L 2059 -325 
z
" id="DejaVuSans-79" transform="scale(0.015625)"/>
       <path id="DejaVuSans-20" transform="scale(0.015625)"/>
       <path d="M 3513 2113 
L 3513 0 
L 2938 0 
L 2938 2094 
Q 2938 2591 2744 2837 
Q 2550 3084 2163 3084 
Q 1697 3084 1428 2787 
Q 1159 2491 1159 1978 
L 1159 0 
L 581 0 
L 581 3500 
L 1159 3500 
L 1159 2956 
Q 1366 3272 1645 3428 
Q 1925 3584 2291 3584 
Q 2894 3584 3203 3211 
Q 3513 2838 3513 2113 
z
" id="DejaVuSans-6e" transform="scale(0.015625)"/>
       <path d="M 3513 3500 
L 2247 1797 
L 3578 0 
L 2900 0 
L 1881 1375 
L 863 0 
L 184 0 
L 1544 1831 
L 300 3500 
L 978 3500 
L 1906 2253 
L 2834 3500 
L 3513 3500 
z
" id="DejaVuSans-78" transform="scale(0.015625)"/>
      </defs>
      <use xlink:href="#DejaVuSans-43"/>
      <use x="69.824219" xlink:href="#DejaVuSans-72"/>
      <use x="108.6875" xlink:href="#DejaVuSans-65"/>
      <use x="170.210938" xlink:href="#DejaVuSans-64"/>
      <use x="233.6875" xlink:href="#DejaVuSans-69"/>
      <use x="261.470703" xlink:href="#DejaVuSans-62"/>
      <use x="324.947266" xlink:href="#DejaVuSans-69"/>
      <use x="352.730469" xlink:href="#DejaVuSans-6c"/>
      <use x="380.513672" xlink:href="#DejaVuSans-69"/>
      <use x="408.296875" xlink:href="#DejaVuSans-74"/>
      <use x="447.505859" xlink:href="#DejaVuSans-79"/>
      <use x="506.685547" xlink:href="#DejaVuSans-20"/>
      <use x="538.472656" xlink:href="#DejaVuSans-69"/>
      <use x="566.255859" xlink:href="#DejaVuSans-6e"/>
      <use x="629.634766" xlink:href="#DejaVuSans-64"/>
      <use x="693.111328" xlink:href="#DejaVuSans-65"/>
      <use x="752.884766" xlink:href="#DejaVuSans-78"/>
     </g>
    </g>
   </g>
   <g id="matplotlib.axis_2">
    <g id="ytick_1">
     <g id="line2d_7">
      <defs>
       <path d="M 0 0 
L -3.5 0 
" id="m59ec0e9a2f" style="stroke:#000000;stroke-width:0.8;"/>
      </defs>
      <g>
       <use style="stroke:#000000;stroke-width:0.8;" x="47.81" xlink:href="#m59ec0e9a2f" y="303.64"/>
      </g>
     </g>
     <g id="text_8">
      <!-- 0.0 -->
      <g transform="translate(24.906875 307.439219)scale(0.1 -0.1)">
       <use xlink:href="#DejaVuSans-30"/>
       <use x="63.623047" xlink:href="#DejaVuSans-2e"/>
       <use x="95.410156" xlink:href="#DejaVuSans-30"/>
      </g>
     </g>
    </g>
    <g id="ytick_2">
     <g id="line2d_8">
      <g>
       <use style="stroke:#000000;stroke-width:0.8;" x="47.81" xlink:href="#m59ec0e9a2f" y="270.007702"/>
      </g>
     </g>
     <g id="text_9">
      <!-- 0.5 -->
      <g transform="translate(24.906875 273.806921)scale(0.1 -0.1)">
       <defs>
        <path d="M 691 4666 
L 3169 4666 
L 3169 4134 
L 1269 4134 
L 1269 2991 
Q 1406 3038 1543 3061 
Q 1681 3084 1819 3084 
Q 2600 3084 3056 2656 
Q 3513 2228 3513 1497 
Q 3513 744 3044 326 
Q 2575 -91 1722 -91 
Q 1428 -91 1123 -41 
Q 819 9 494 109 
L 494 744 
Q 775 591 1075 516 
Q 1375 441 1709 441 
Q 2250 441 2565 725 
Q 2881 1009 2881 1497 
Q 2881 1984 2565 2268 
Q 2250 2553 1709 2553 
Q 1456 2553 1204 2497 
Q 953 2441 691 2322 
L 691 4666 
z
" id="DejaVuSans-35" transform="scale(0.015625)"/>
       </defs>
       <use xlink:href="#DejaVuSans-30"/>
       <use x="63.623047" xlink:href="#DejaVuSans-2e"/>
       <use x="95.410156" xlink:href="#DejaVuSans-35"/>
      </g>
     </g>
    </g>
    <g id="ytick_3">
     <g id="line2d_9">
      <g>
       <use style="stroke:#000000;stroke-width:0.8;" x="47.81" xlink:href="#m59ec0e9a2f" y="236.375404"/>
      </g>
     </g>
     <g id="text_10">
      <!-- 1.0 -->
      <g transform="translate(24.906875 240.174622)scale(0.1 -0.1)">
       <use xlink:href="#DejaVuSans-31"/>
       <use x="63.623047" xlink:href="#DejaVuSans-2e"/>
       <use x="95.410156" xlink:href="#DejaVuSans-30"/>
      </g>
     </g>
    </g>
    <g id="ytick_4">
     <g id="line2d_10">
      <g>
       <use style="stroke:#000000;stroke-width:0.8;" x="47.81" xlink:href="#m59ec0e9a2f" y="202.743105"/>
      </g>
     </g>
     <g id="text_11">
      <!-- 1.5 -->
      <g transform="translate(24.906875 206.542324)scale(0.1 -0.1)">
       <use xlink:href="#DejaVuSans-31"/>
       <use x="63.623047" xlink:href="#DejaVuSans-2e"/>
       <use x="95.410156" xlink:href="#DejaVuSans-35"/>
      </g>
     </g>
    </g>
    <g id="ytick_5">
     <g id="line2d_11">
      <g>
       <use style="stroke:#000000;stroke-width:0.8;" x="47.81" xlink:href="#m59ec0e9a2f" y="169.110807"/>
      </g>
     </g>
     <g id="text_12">
      <!-- 2.0 -->
      <g transform="translate(24.906875 172.910026)scale(0.1 -0.1)">
       <use xlink:href="#DejaVuSans-32"/>
       <use x="63.623047" xlink:href="#DejaVuSans-2e"/>
       <use x="95.410156" xlink:href="#DejaVuSans-30"/>
      </g>
     </g>
    </g>
    <g id="ytick_6">
     <g id="line2d_12">
      <g>
       <use style="stroke:#000000;stroke-width:0.8;" x="47.81" xlink:href="#m59ec0e9a2f" y="135.478509"/>
      </g>
     </g>
     <g id="text_13">
      <!-- 2.5 -->
      <g transform="translate(24.906875 139.277728)scale(0.1 -0.1)">
       <use xlink:href="#DejaVuSans-32"/>
       <use x="63.623047" xlink:href="#DejaVuSans-2e"/>
       <use x="95.410156" xlink:href="#DejaVuSans-35"/>
      </g>
     </g>
    </g>
    <g id="ytick_7">
     <g id="line2d_13">
      <g>
       <use style="stroke:#000000;stroke-width:0.8;" x="47.81" xlink:href="#m59ec0e9a2f" y="101.846211"/>
      </g>
     </g>
     <g id="text_14">
      <!-- 3.0 -->
      <g transform="translate(24.906875 105.64543)scale(0.1 -0.1)">
       <defs>
        <path d="M 2597 2516 
Q 3050 2419 3304 2112 
Q 3559 1806 3559 1356 
Q 3559 666 3084 287 
Q 2609 -91 1734 -91 
Q 1441 -91 1130 -33 
Q 819 25 488 141 
L 488 750 
Q 750 597 1062 519 
Q 1375 441 1716 441 
Q 2309 441 2620 675 
Q 2931 909 2931 1356 
Q 2931 1769 2642 2001 
Q 2353 2234 1838 2234 
L 1294 2234 
L 1294 2753 
L 1863 2753 
Q 2328 2753 2575 2939 
Q 2822 3125 2822 3475 
Q 2822 3834 2567 4026 
Q 2313 4219 1838 4219 
Q 1578 4219 1281 4162 
Q 984 4106 628 3988 
L 628 4550 
Q 988 4650 1302 4700 
Q 1616 4750 1894 4750 
Q 2613 4750 3031 4423 
Q 3450 4097 3450 3541 
Q 3450 3153 3228 2886 
Q 3006 2619 2597 2516 
z
" id="DejaVuSans-33" transform="scale(0.015625)"/>
       </defs>
       <use xlink:href="#DejaVuSans-33"/>
       <use x="63.623047" xlink:href="#DejaVuSans-2e"/>
       <use x="95.410156" xlink:href="#DejaVuSans-30"/>
      </g>
     </g>
    </g>
    <g id="ytick_8">
     <g id="line2d_14">
      <g>
       <use style="stroke:#000000;stroke-width:0.8;" x="47.81" xlink:href="#m59ec0e9a2f" y="68.213913"/>
      </g>
     </g>
     <g id="text_15">
      <!-- 3.5 -->
      <g transform="translate(24.906875 72.013132)scale(0.1 -0.1)">
       <use xlink:href="#DejaVuSans-33"/>
       <use x="63.623047" xlink:href="#DejaVuSans-2e"/>
       <use x="95.410156" xlink:href="#DejaVuSans-35"/>
      </g>
     </g>
    </g>
    <g id="text_16">
     <!-- Density -->
     <g transform="translate(18.827187 189.812594)rotate(-90)scale(0.1 -0.1)">
      <defs>
       <path d="M 1259 4147 
L 1259 519 
L 2022 519 
Q 2988 519 3436 956 
Q 3884 1394 3884 2338 
Q 3884 3275 3436 3711 
Q 2988 4147 2022 4147 
L 1259 4147 
z
M 628 4666 
L 1925 4666 
Q 3281 4666 3915 4102 
Q 4550 3538 4550 2338 
Q 4550 1131 3912 565 
Q 3275 0 1925 0 
L 628 0 
L 628 4666 
z
" id="DejaVuSans-44" transform="scale(0.015625)"/>
       <path d="M 2834 3397 
L 2834 2853 
Q 2591 2978 2328 3040 
Q 2066 3103 1784 3103 
Q 1356 3103 1142 2972 
Q 928 2841 928 2578 
Q 928 2378 1081 2264 
Q 1234 2150 1697 2047 
L 1894 2003 
Q 2506 1872 2764 1633 
Q 3022 1394 3022 966 
Q 3022 478 2636 193 
Q 2250 -91 1575 -91 
Q 1294 -91 989 -36 
Q 684 19 347 128 
L 347 722 
Q 666 556 975 473 
Q 1284 391 1588 391 
Q 1994 391 2212 530 
Q 2431 669 2431 922 
Q 2431 1156 2273 1281 
Q 2116 1406 1581 1522 
L 1381 1569 
Q 847 1681 609 1914 
Q 372 2147 372 2553 
Q 372 3047 722 3315 
Q 1072 3584 1716 3584 
Q 2034 3584 2315 3537 
Q 2597 3491 2834 3397 
z
" id="DejaVuSans-73" transform="scale(0.015625)"/>
      </defs>
      <use xlink:href="#DejaVuSans-44"/>
      <use x="77.001953" xlink:href="#DejaVuSans-65"/>
      <use x="138.525391" xlink:href="#DejaVuSans-6e"/>
      <use x="201.904297" xlink:href="#DejaVuSans-73"/>
      <use x="254.003906" xlink:href="#DejaVuSans-69"/>
      <use x="281.787109" xlink:href="#DejaVuSans-74"/>
      <use x="320.996094" xlink:href="#DejaVuSans-79"/>
     </g>
    </g>
   </g>
   <g id="patch_3">
    <path d="M 47.81 303.64 
L 47.81 37.968 
" style="fill:none;stroke:#000000;stroke-linecap:square;stroke-linejoin:miter;stroke-width:0.8;"/>
   </g>
   <g id="patch_4">
    <path d="M 442.035 303.64 
L 442.035 37.968 
" style="fill:none;stroke:#000000;stroke-linecap:square;stroke-linejoin:miter;stroke-width:0.8;"/>
   </g>
   <g id="patch_5">
    <path d="M 47.81 303.64 
L 442.035 303.64 
" style="fill:none;stroke:#000000;stroke-linecap:square;stroke-linejoin:miter;stroke-width:0.8;"/>
   </g>
   <g id="patch_6">
    <path d="M 47.81 37.968 
L 442.035 37.968 
" style="fill:none;stroke:#000000;stroke-linecap:square;stroke-linejoin:miter;stroke-width:0.8;"/>
   </g>
   <g id="text_17">
    <!-- Credibility index consensus vs non consensus  -->
    <g transform="translate(105.81625 18.530625)scale(0.12 -0.12)">
     <defs>
      <path d="M 3122 3366 
L 3122 2828 
Q 2878 2963 2633 3030 
Q 2388 3097 2138 3097 
Q 1578 3097 1268 2742 
Q 959 2388 959 1747 
Q 959 1106 1268 751 
Q 1578 397 2138 397 
Q 2388 397 2633 464 
Q 2878 531 3122 666 
L 3122 134 
Q 2881 22 2623 -34 
Q 2366 -91 2075 -91 
Q 1284 -91 818 406 
Q 353 903 353 1747 
Q 353 2603 823 3093 
Q 1294 3584 2113 3584 
Q 2378 3584 2631 3529 
Q 2884 3475 3122 3366 
z
" id="DejaVuSans-63" transform="scale(0.015625)"/>
      <path d="M 1959 3097 
Q 1497 3097 1228 2736 
Q 959 2375 959 1747 
Q 959 1119 1226 758 
Q 1494 397 1959 397 
Q 2419 397 2687 759 
Q 2956 1122 2956 1747 
Q 2956 2369 2687 2733 
Q 2419 3097 1959 3097 
z
M 1959 3584 
Q 2709 3584 3137 3096 
Q 3566 2609 3566 1747 
Q 3566 888 3137 398 
Q 2709 -91 1959 -91 
Q 1206 -91 779 398 
Q 353 888 353 1747 
Q 353 2609 779 3096 
Q 1206 3584 1959 3584 
z
" id="DejaVuSans-6f" transform="scale(0.015625)"/>
      <path d="M 544 1381 
L 544 3500 
L 1119 3500 
L 1119 1403 
Q 1119 906 1312 657 
Q 1506 409 1894 409 
Q 2359 409 2629 706 
Q 2900 1003 2900 1516 
L 2900 3500 
L 3475 3500 
L 3475 0 
L 2900 0 
L 2900 538 
Q 2691 219 2414 64 
Q 2138 -91 1772 -91 
Q 1169 -91 856 284 
Q 544 659 544 1381 
z
M 1991 3584 
L 1991 3584 
z
" id="DejaVuSans-75" transform="scale(0.015625)"/>
      <path d="M 191 3500 
L 800 3500 
L 1894 563 
L 2988 3500 
L 3597 3500 
L 2284 0 
L 1503 0 
L 191 3500 
z
" id="DejaVuSans-76" transform="scale(0.015625)"/>
     </defs>
     <use xlink:href="#DejaVuSans-43"/>
     <use x="69.824219" xlink:href="#DejaVuSans-72"/>
     <use x="108.6875" xlink:href="#DejaVuSans-65"/>
     <use x="170.210938" xlink:href="#DejaVuSans-64"/>
     <use x="233.6875" xlink:href="#DejaVuSans-69"/>
     <use x="261.470703" xlink:href="#DejaVuSans-62"/>
     <use x="324.947266" xlink:href="#DejaVuSans-69"/>
     <use x="352.730469" xlink:href="#DejaVuSans-6c"/>
     <use x="380.513672" xlink:href="#DejaVuSans-69"/>
     <use x="408.296875" xlink:href="#DejaVuSans-74"/>
     <use x="447.505859" xlink:href="#DejaVuSans-79"/>
     <use x="506.685547" xlink:href="#DejaVuSans-20"/>
     <use x="538.472656" xlink:href="#DejaVuSans-69"/>
     <use x="566.255859" xlink:href="#DejaVuSans-6e"/>
     <use x="629.634766" xlink:href="#DejaVuSans-64"/>
     <use x="693.111328" xlink:href="#DejaVuSans-65"/>
     <use x="752.884766" xlink:href="#DejaVuSans-78"/>
     <use x="812.064453" xlink:href="#DejaVuSans-20"/>
     <use x="843.851562" xlink:href="#DejaVuSans-63"/>
     <use x="898.832031" xlink:href="#DejaVuSans-6f"/>
     <use x="960.013672" xlink:href="#DejaVuSans-6e"/>
     <use x="1023.392578" xlink:href="#DejaVuSans-73"/>
     <use x="1075.492188" xlink:href="#DejaVuSans-65"/>
     <use x="1137.015625" xlink:href="#DejaVuSans-6e"/>
     <use x="1200.394531" xlink:href="#DejaVuSans-73"/>
     <use x="1252.494141" xlink:href="#DejaVuSans-75"/>
     <use x="1315.873047" xlink:href="#DejaVuSans-73"/>
     <use x="1367.972656" xlink:href="#DejaVuSans-20"/>
     <use x="1399.759766" xlink:href="#DejaVuSans-76"/>
     <use x="1458.939453" xlink:href="#DejaVuSans-73"/>
     <use x="1511.039062" xlink:href="#DejaVuSans-20"/>
     <use x="1542.826172" xlink:href="#DejaVuSans-6e"/>
     <use x="1606.205078" xlink:href="#DejaVuSans-6f"/>
     <use x="1667.386719" xlink:href="#DejaVuSans-6e"/>
     <use x="1730.765625" xlink:href="#DejaVuSans-20"/>
     <use x="1762.552734" xlink:href="#DejaVuSans-63"/>
     <use x="1817.533203" xlink:href="#DejaVuSans-6f"/>
     <use x="1878.714844" xlink:href="#DejaVuSans-6e"/>
     <use x="1942.09375" xlink:href="#DejaVuSans-73"/>
     <use x="1994.193359" xlink:href="#DejaVuSans-65"/>
     <use x="2055.716797" xlink:href="#DejaVuSans-6e"/>
     <use x="2119.095703" xlink:href="#DejaVuSans-73"/>
     <use x="2171.195312" xlink:href="#DejaVuSans-75"/>
     <use x="2234.574219" xlink:href="#DejaVuSans-73"/>
     <use x="2286.673828" xlink:href="#DejaVuSans-20"/>
    </g>
    <!-- Set s3 -->
    <g transform="translate(226.219375 31.968)scale(0.12 -0.12)">
     <defs>
      <path d="M 3425 4513 
L 3425 3897 
Q 3066 4069 2747 4153 
Q 2428 4238 2131 4238 
Q 1616 4238 1336 4038 
Q 1056 3838 1056 3469 
Q 1056 3159 1242 3001 
Q 1428 2844 1947 2747 
L 2328 2669 
Q 3034 2534 3370 2195 
Q 3706 1856 3706 1288 
Q 3706 609 3251 259 
Q 2797 -91 1919 -91 
Q 1588 -91 1214 -16 
Q 841 59 441 206 
L 441 856 
Q 825 641 1194 531 
Q 1563 422 1919 422 
Q 2459 422 2753 634 
Q 3047 847 3047 1241 
Q 3047 1584 2836 1778 
Q 2625 1972 2144 2069 
L 1759 2144 
Q 1053 2284 737 2584 
Q 422 2884 422 3419 
Q 422 4038 858 4394 
Q 1294 4750 2059 4750 
Q 2388 4750 2728 4690 
Q 3069 4631 3425 4513 
z
" id="DejaVuSans-53" transform="scale(0.015625)"/>
     </defs>
     <use xlink:href="#DejaVuSans-53"/>
     <use x="63.476562" xlink:href="#DejaVuSans-65"/>
     <use x="125" xlink:href="#DejaVuSans-74"/>
     <use x="164.208984" xlink:href="#DejaVuSans-20"/>
     <use x="195.996094" xlink:href="#DejaVuSans-73"/>
     <use x="248.095703" xlink:href="#DejaVuSans-33"/>
    </g>
   </g>
   <g id="legend_1">
    <g id="patch_7">
     <path d="M 54.81 97.719875 
L 225.352188 97.719875 
Q 227.352188 97.719875 227.352188 95.719875 
L 227.352188 44.968 
Q 227.352188 42.968 225.352188 42.968 
L 54.81 42.968 
Q 52.81 42.968 52.81 44.968 
L 52.81 95.719875 
Q 52.81 97.719875 54.81 97.719875 
z
" style="fill:#ffffff;opacity:0.8;stroke:#cccccc;stroke-linejoin:miter;"/>
    </g>
    <g id="patch_8">
     <path d="M 56.81 61.205187 
L 76.81 61.205187 
L 76.81 54.205187 
L 56.81 54.205187 
z
" style="fill:#1f77b4;fill-opacity:0.4;stroke:#1f77b4;stroke-linejoin:miter;"/>
    </g>
    <g id="text_18">
     <!-- Correlation higher than 0  -->
     <g transform="translate(84.81 54.566437)scale(0.1 -0.1)">
      <defs>
       <path d="M 2194 1759 
Q 1497 1759 1228 1600 
Q 959 1441 959 1056 
Q 959 750 1161 570 
Q 1363 391 1709 391 
Q 2188 391 2477 730 
Q 2766 1069 2766 1631 
L 2766 1759 
L 2194 1759 
z
M 3341 1997 
L 3341 0 
L 2766 0 
L 2766 531 
Q 2569 213 2275 61 
Q 1981 -91 1556 -91 
Q 1019 -91 701 211 
Q 384 513 384 1019 
Q 384 1609 779 1909 
Q 1175 2209 1959 2209 
L 2766 2209 
L 2766 2266 
Q 2766 2663 2505 2880 
Q 2244 3097 1772 3097 
Q 1472 3097 1187 3025 
Q 903 2953 641 2809 
L 641 3341 
Q 956 3463 1253 3523 
Q 1550 3584 1831 3584 
Q 2591 3584 2966 3190 
Q 3341 2797 3341 1997 
z
" id="DejaVuSans-61" transform="scale(0.015625)"/>
       <path d="M 3513 2113 
L 3513 0 
L 2938 0 
L 2938 2094 
Q 2938 2591 2744 2837 
Q 2550 3084 2163 3084 
Q 1697 3084 1428 2787 
Q 1159 2491 1159 1978 
L 1159 0 
L 581 0 
L 581 4863 
L 1159 4863 
L 1159 2956 
Q 1366 3272 1645 3428 
Q 1925 3584 2291 3584 
Q 2894 3584 3203 3211 
Q 3513 2838 3513 2113 
z
" id="DejaVuSans-68" transform="scale(0.015625)"/>
       <path d="M 2906 1791 
Q 2906 2416 2648 2759 
Q 2391 3103 1925 3103 
Q 1463 3103 1205 2759 
Q 947 2416 947 1791 
Q 947 1169 1205 825 
Q 1463 481 1925 481 
Q 2391 481 2648 825 
Q 2906 1169 2906 1791 
z
M 3481 434 
Q 3481 -459 3084 -895 
Q 2688 -1331 1869 -1331 
Q 1566 -1331 1297 -1286 
Q 1028 -1241 775 -1147 
L 775 -588 
Q 1028 -725 1275 -790 
Q 1522 -856 1778 -856 
Q 2344 -856 2625 -561 
Q 2906 -266 2906 331 
L 2906 616 
Q 2728 306 2450 153 
Q 2172 0 1784 0 
Q 1141 0 747 490 
Q 353 981 353 1791 
Q 353 2603 747 3093 
Q 1141 3584 1784 3584 
Q 2172 3584 2450 3431 
Q 2728 3278 2906 2969 
L 2906 3500 
L 3481 3500 
L 3481 434 
z
" id="DejaVuSans-67" transform="scale(0.015625)"/>
      </defs>
      <use xlink:href="#DejaVuSans-43"/>
      <use x="69.824219" xlink:href="#DejaVuSans-6f"/>
      <use x="131.005859" xlink:href="#DejaVuSans-72"/>
      <use x="170.369141" xlink:href="#DejaVuSans-72"/>
      <use x="209.232422" xlink:href="#DejaVuSans-65"/>
      <use x="270.755859" xlink:href="#DejaVuSans-6c"/>
      <use x="298.539062" xlink:href="#DejaVuSans-61"/>
      <use x="359.818359" xlink:href="#DejaVuSans-74"/>
      <use x="399.027344" xlink:href="#DejaVuSans-69"/>
      <use x="426.810547" xlink:href="#DejaVuSans-6f"/>
      <use x="487.992188" xlink:href="#DejaVuSans-6e"/>
      <use x="551.371094" xlink:href="#DejaVuSans-20"/>
      <use x="583.158203" xlink:href="#DejaVuSans-68"/>
      <use x="646.537109" xlink:href="#DejaVuSans-69"/>
      <use x="674.320312" xlink:href="#DejaVuSans-67"/>
      <use x="737.796875" xlink:href="#DejaVuSans-68"/>
      <use x="801.175781" xlink:href="#DejaVuSans-65"/>
      <use x="862.699219" xlink:href="#DejaVuSans-72"/>
      <use x="903.8125" xlink:href="#DejaVuSans-20"/>
      <use x="935.599609" xlink:href="#DejaVuSans-74"/>
      <use x="974.808594" xlink:href="#DejaVuSans-68"/>
      <use x="1038.1875" xlink:href="#DejaVuSans-61"/>
      <use x="1099.466797" xlink:href="#DejaVuSans-6e"/>
      <use x="1162.845703" xlink:href="#DejaVuSans-20"/>
      <use x="1194.632812" xlink:href="#DejaVuSans-30"/>
      <use x="1258.255859" xlink:href="#DejaVuSans-20"/>
     </g>
     <!-- n=313 -->
     <g transform="translate(84.81 65.76425)scale(0.1 -0.1)">
      <defs>
       <path d="M 678 2906 
L 4684 2906 
L 4684 2381 
L 678 2381 
L 678 2906 
z
M 678 1631 
L 4684 1631 
L 4684 1100 
L 678 1100 
L 678 1631 
z
" id="DejaVuSans-3d" transform="scale(0.015625)"/>
      </defs>
      <use xlink:href="#DejaVuSans-6e"/>
      <use x="63.378906" xlink:href="#DejaVuSans-3d"/>
      <use x="147.167969" xlink:href="#DejaVuSans-33"/>
      <use x="210.791016" xlink:href="#DejaVuSans-31"/>
      <use x="274.414062" xlink:href="#DejaVuSans-33"/>
     </g>
    </g>
    <g id="patch_9">
     <path d="M 56.81 87.081125 
L 76.81 87.081125 
L 76.81 80.081125 
L 56.81 80.081125 
z
" style="fill:#ff7f0e;fill-opacity:0.4;stroke:#ff7f0e;stroke-linejoin:miter;"/>
    </g>
    <g id="text_19">
     <!-- Correlation higher than 0.8  -->
     <g transform="translate(84.81 80.442375)scale(0.1 -0.1)">
      <use xlink:href="#DejaVuSans-43"/>
      <use x="69.824219" xlink:href="#DejaVuSans-6f"/>
      <use x="131.005859" xlink:href="#DejaVuSans-72"/>
      <use x="170.369141" xlink:href="#DejaVuSans-72"/>
      <use x="209.232422" xlink:href="#DejaVuSans-65"/>
      <use x="270.755859" xlink:href="#DejaVuSans-6c"/>
      <use x="298.539062" xlink:href="#DejaVuSans-61"/>
      <use x="359.818359" xlink:href="#DejaVuSans-74"/>
      <use x="399.027344" xlink:href="#DejaVuSans-69"/>
      <use x="426.810547" xlink:href="#DejaVuSans-6f"/>
      <use x="487.992188" xlink:href="#DejaVuSans-6e"/>
      <use x="551.371094" xlink:href="#DejaVuSans-20"/>
      <use x="583.158203" xlink:href="#DejaVuSans-68"/>
      <use x="646.537109" xlink:href="#DejaVuSans-69"/>
      <use x="674.320312" xlink:href="#DejaVuSans-67"/>
      <use x="737.796875" xlink:href="#DejaVuSans-68"/>
      <use x="801.175781" xlink:href="#DejaVuSans-65"/>
      <use x="862.699219" xlink:href="#DejaVuSans-72"/>
      <use x="903.8125" xlink:href="#DejaVuSans-20"/>
      <use x="935.599609" xlink:href="#DejaVuSans-74"/>
      <use x="974.808594" xlink:href="#DejaVuSans-68"/>
      <use x="1038.1875" xlink:href="#DejaVuSans-61"/>
      <use x="1099.466797" xlink:href="#DejaVuSans-6e"/>
      <use x="1162.845703" xlink:href="#DejaVuSans-20"/>
      <use x="1194.632812" xlink:href="#DejaVuSans-30"/>
      <use x="1258.255859" xlink:href="#DejaVuSans-2e"/>
      <use x="1290.042969" xlink:href="#DejaVuSans-38"/>
      <use x="1353.666016" xlink:href="#DejaVuSans-20"/>
     </g>
     <!-- n=14 -->
     <g transform="translate(84.81 91.640187)scale(0.1 -0.1)">
      <use xlink:href="#DejaVuSans-6e"/>
      <use x="63.378906" xlink:href="#DejaVuSans-3d"/>
      <use x="147.167969" xlink:href="#DejaVuSans-31"/>
      <use x="210.791016" xlink:href="#DejaVuSans-34"/>
     </g>
    </g>
   </g>
  </g>
 </g>
 <defs>
  <clipPath id="pcc49d01832">
   <rect height="265.672" width="394.225" x="47.81" y="37.968"/>
  </clipPath>
 </defs>
</svg>
