<?xml version="1.0" encoding="utf-8" standalone="no"?>
<!DOCTYPE svg PUBLIC "-//W3C//DTD SVG 1.1//EN"
  "http://www.w3.org/Graphics/SVG/1.1/DTD/svg11.dtd">
<svg height="345.6pt" version="1.1" viewBox="0 0 460.8 345.6" width="460.8pt" xmlns="http://www.w3.org/2000/svg" xmlns:xlink="http://www.w3.org/1999/xlink">
 <metadata>
  <rdf:RDF xmlns:cc="http://creativecommons.org/ns#" xmlns:dc="http://purl.org/dc/elements/1.1/" xmlns:rdf="http://www.w3.org/1999/02/22-rdf-syntax-ns#">
   <cc:Work>
    <dc:type rdf:resource="http://purl.org/dc/dcmitype/StillImage"/>
    <dc:date>2021-11-24T22:49:32.949773</dc:date>
    <dc:format>image/svg+xml</dc:format>
    <dc:creator>
     <cc:Agent>
      <dc:title>Matplotlib v3.4.3, https://matplotlib.org/</dc:title>
     </cc:Agent>
    </dc:creator>
   </cc:Work>
  </rdf:RDF>
 </metadata>
 <defs>
  <style type="text/css">*{stroke-linecap:butt;stroke-linejoin:round;}</style>
 </defs>
 <g id="figure_1">
  <g id="patch_1">
   <path d="M 0 345.6 
L 460.8 345.6 
L 460.8 0 
L 0 0 
z
" style="fill:#ffffff;"/>
  </g>
  <g id="axes_1">
   <g id="patch_2">
    <path d="M 47.81 303.64 
L 442.035 303.64 
L 442.035 37.968 
L 47.81 37.968 
z
" style="fill:#ffffff;"/>
   </g>
   <g id="PolyCollection_1">
    <path clip-path="url(#pb2b0f02f0e)" d="M -21.692477 303.330244 
L -21.692477 303.64 
L -18.775206 303.64 
L -15.857934 303.64 
L -12.940663 303.64 
L -10.023392 303.64 
L -7.106121 303.64 
L -4.18885 303.64 
L -1.271579 303.64 
L 1.645692 303.64 
L 4.562963 303.64 
L 7.480235 303.64 
L 10.397506 303.64 
L 13.314777 303.64 
L 16.232048 303.64 
L 19.149319 303.64 
L 22.06659 303.64 
L 24.983861 303.64 
L 27.901132 303.64 
L 30.818404 303.64 
L 33.735675 303.64 
L 36.652946 303.64 
L 39.570217 303.64 
L 42.487488 303.64 
L 45.404759 303.64 
L 48.32203 303.64 
L 51.239301 303.64 
L 54.156573 303.64 
L 57.073844 303.64 
L 59.991115 303.64 
L 62.908386 303.64 
L 65.825657 303.64 
L 68.742928 303.64 
L 71.660199 303.64 
L 74.57747 303.64 
L 77.494742 303.64 
L 80.412013 303.64 
L 83.329284 303.64 
L 86.246555 303.64 
L 89.163826 303.64 
L 92.081097 303.64 
L 94.998368 303.64 
L 97.915639 303.64 
L 100.83291 303.64 
L 103.750182 303.64 
L 106.667453 303.64 
L 109.584724 303.64 
L 112.501995 303.64 
L 115.419266 303.64 
L 118.336537 303.64 
L 121.253808 303.64 
L 124.171079 303.64 
L 127.088351 303.64 
L 130.005622 303.64 
L 132.922893 303.64 
L 135.840164 303.64 
L 138.757435 303.64 
L 141.674706 303.64 
L 144.591977 303.64 
L 147.509248 303.64 
L 150.42652 303.64 
L 153.343791 303.64 
L 156.261062 303.64 
L 159.178333 303.64 
L 162.095604 303.64 
L 165.012875 303.64 
L 167.930146 303.64 
L 170.847417 303.64 
L 173.764689 303.64 
L 176.68196 303.64 
L 179.599231 303.64 
L 182.516502 303.64 
L 185.433773 303.64 
L 188.351044 303.64 
L 191.268315 303.64 
L 194.185586 303.64 
L 197.102858 303.64 
L 200.020129 303.64 
L 202.9374 303.64 
L 205.854671 303.64 
L 208.771942 303.64 
L 211.689213 303.64 
L 214.606484 303.64 
L 217.523755 303.64 
L 220.441026 303.64 
L 223.358298 303.64 
L 226.275569 303.64 
L 229.19284 303.64 
L 232.110111 303.64 
L 235.027382 303.64 
L 237.944653 303.64 
L 240.861924 303.64 
L 243.779195 303.64 
L 246.696467 303.64 
L 249.613738 303.64 
L 252.531009 303.64 
L 255.44828 303.64 
L 258.365551 303.64 
L 261.282822 303.64 
L 264.200093 303.64 
L 267.117364 303.64 
L 270.034636 303.64 
L 272.951907 303.64 
L 275.869178 303.64 
L 278.786449 303.64 
L 281.70372 303.64 
L 284.620991 303.64 
L 287.538262 303.64 
L 290.455533 303.64 
L 293.372805 303.64 
L 296.290076 303.64 
L 299.207347 303.64 
L 302.124618 303.64 
L 305.041889 303.64 
L 307.95916 303.64 
L 310.876431 303.64 
L 313.793702 303.64 
L 316.710974 303.64 
L 319.628245 303.64 
L 322.545516 303.64 
L 325.462787 303.64 
L 328.380058 303.64 
L 331.297329 303.64 
L 334.2146 303.64 
L 337.131871 303.64 
L 340.049142 303.64 
L 342.966414 303.64 
L 345.883685 303.64 
L 348.800956 303.64 
L 351.718227 303.64 
L 354.635498 303.64 
L 357.552769 303.64 
L 360.47004 303.64 
L 363.387311 303.64 
L 366.304583 303.64 
L 369.221854 303.64 
L 372.139125 303.64 
L 375.056396 303.64 
L 377.973667 303.64 
L 380.890938 303.64 
L 383.808209 303.64 
L 386.72548 303.64 
L 389.642752 303.64 
L 392.560023 303.64 
L 395.477294 303.64 
L 398.394565 303.64 
L 401.311836 303.64 
L 404.229107 303.64 
L 407.146378 303.64 
L 410.063649 303.64 
L 412.980921 303.64 
L 415.898192 303.64 
L 418.815463 303.64 
L 421.732734 303.64 
L 424.650005 303.64 
L 427.567276 303.64 
L 430.484547 303.64 
L 433.401818 303.64 
L 436.31909 303.64 
L 439.236361 303.64 
L 442.153632 303.64 
L 445.070903 303.64 
L 447.988174 303.64 
L 450.905445 303.64 
L 453.822716 303.64 
L 456.739987 303.64 
L 459.657258 303.64 
L 462.57453 303.64 
L 465.491801 303.64 
L 468.409072 303.64 
L 471.326343 303.64 
L 474.243614 303.64 
L 477.160885 303.64 
L 480.078156 303.64 
L 482.995427 303.64 
L 485.912699 303.64 
L 488.82997 303.64 
L 491.747241 303.64 
L 494.664512 303.64 
L 497.581783 303.64 
L 500.499054 303.64 
L 503.416325 303.64 
L 506.333596 303.64 
L 509.250868 303.64 
L 512.168139 303.64 
L 515.08541 303.64 
L 518.002681 303.64 
L 520.919952 303.64 
L 523.837223 303.64 
L 526.754494 303.64 
L 529.671765 303.64 
L 532.589037 303.64 
L 535.506308 303.64 
L 538.423579 303.64 
L 541.34085 303.64 
L 544.258121 303.64 
L 547.175392 303.64 
L 550.092663 303.64 
L 553.009934 303.64 
L 555.927206 303.64 
L 558.844477 303.64 
L 558.844477 302.439321 
L 558.844477 302.439321 
L 555.927206 302.132059 
L 553.009934 301.756362 
L 550.092663 301.299702 
L 547.175392 300.747922 
L 544.258121 300.085171 
L 541.34085 299.293871 
L 538.423579 298.354729 
L 535.506308 297.246796 
L 532.589037 295.94758 
L 529.671765 294.433232 
L 526.754494 292.67879 
L 523.837223 290.658505 
L 520.919952 288.346245 
L 518.002681 285.715967 
L 515.08541 282.74227 
L 512.168139 279.401004 
L 509.250868 275.669942 
L 506.333596 271.529486 
L 503.416325 266.963392 
L 500.499054 261.959502 
L 497.581783 256.510444 
L 494.664512 250.614284 
L 491.747241 244.275104 
L 488.82997 237.503466 
L 485.912699 230.316756 
L 482.995427 222.739366 
L 480.078156 214.802715 
L 477.160885 206.545073 
L 474.243614 198.011205 
L 471.326343 189.251819 
L 468.409072 180.322827 
L 465.491801 171.284447 
L 462.57453 162.200158 
L 459.657258 153.135536 
L 456.739987 144.15702 
L 453.822716 135.330635 
L 450.905445 126.72072 
L 447.988174 118.388708 
L 445.070903 110.391989 
L 442.153632 102.782903 
L 439.236361 95.607897 
L 436.31909 88.90686 
L 433.401818 82.712671 
L 430.484547 77.050949 
L 427.567276 71.940021 
L 424.650005 67.391088 
L 421.732734 63.408576 
L 418.815463 59.990638 
L 415.898192 57.129787 
L 412.980921 54.813619 
L 410.063649 53.025584 
L 407.146378 51.745778 
L 404.229107 50.951714 
L 401.311836 50.619048 
L 398.394565 50.722226 
L 395.477294 51.235044 
L 392.560023 52.131097 
L 389.642752 53.384128 
L 386.72548 54.968263 
L 383.808209 56.858153 
L 380.890938 59.029034 
L 377.973667 61.456712 
L 375.056396 64.117511 
L 372.139125 66.988185 
L 369.221854 70.04583 
L 366.304583 73.267798 
L 363.387311 76.631644 
L 360.47004 80.115099 
L 357.552769 83.696095 
L 354.635498 87.352825 
L 351.718227 91.063853 
L 348.800956 94.808262 
L 345.883685 98.565829 
L 342.966414 102.317227 
L 340.049142 106.044231 
L 337.131871 109.729934 
L 334.2146 113.358943 
L 331.297329 116.917558 
L 328.380058 120.393925 
L 325.462787 123.778154 
L 322.545516 127.062395 
L 319.628245 130.240873 
L 316.710974 133.309887 
L 313.793702 136.26776 
L 310.876431 139.114751 
L 307.95916 141.852934 
L 305.041889 144.486038 
L 302.124618 147.019257 
L 299.207347 149.45904 
L 296.290076 151.812856 
L 293.372805 154.088941 
L 290.455533 156.296037 
L 287.538262 158.443123 
L 284.620991 160.539148 
L 281.70372 162.592768 
L 278.786449 164.612099 
L 275.869178 166.604487 
L 272.951907 168.576304 
L 270.034636 170.532778 
L 267.117364 172.477861 
L 264.200093 174.414135 
L 261.282822 176.342775 
L 258.365551 178.26354 
L 255.44828 180.174832 
L 252.531009 182.07378 
L 249.613738 183.956376 
L 246.696467 185.817635 
L 243.779195 187.651787 
L 240.861924 189.452478 
L 237.944653 191.212977 
L 235.027382 192.926388 
L 232.110111 194.585834 
L 229.19284 196.184635 
L 226.275569 197.716445 
L 223.358298 199.175369 
L 220.441026 200.556038 
L 217.523755 201.85366 
L 214.606484 203.064033 
L 211.689213 204.18354 
L 208.771942 205.20913 
L 205.854671 206.138284 
L 202.9374 206.968988 
L 200.020129 207.699713 
L 197.102858 208.329416 
L 194.185586 208.857559 
L 191.268315 209.284171 
L 188.351044 209.609922 
L 185.433773 209.83625 
L 182.516502 209.965497 
L 179.599231 210.001077 
L 176.68196 209.947659 
L 173.764689 209.811341 
L 170.847417 209.599827 
L 167.930146 209.322577 
L 165.012875 208.99092 
L 162.095604 208.618121 
L 159.178333 208.219391 
L 156.261062 207.811829 
L 153.343791 207.414289 
L 150.42652 207.047178 
L 147.509248 206.732167 
L 144.591977 206.49184 
L 141.674706 206.349277 
L 138.757435 206.32758 
L 135.840164 206.449366 
L 132.922893 206.736223 
L 130.005622 207.20818 
L 127.088351 207.883169 
L 124.171079 208.776529 
L 121.253808 209.900559 
L 118.336537 211.264129 
L 115.419266 212.872382 
L 112.501995 214.726516 
L 109.584724 216.823672 
L 106.667453 219.156931 
L 103.750182 221.715407 
L 100.83291 224.48445 
L 97.915639 227.445945 
L 94.998368 230.578696 
L 92.081097 233.858884 
L 89.163826 237.260589 
L 86.246555 240.756347 
L 83.329284 244.317735 
L 80.412013 247.915965 
L 77.494742 251.522462 
L 74.57747 255.109418 
L 71.660199 258.650297 
L 68.742928 262.120295 
L 65.825657 265.496721 
L 62.908386 268.759316 
L 59.991115 271.890488 
L 57.073844 274.875469 
L 54.156573 277.702394 
L 51.239301 280.362304 
L 48.32203 282.849083 
L 45.404759 285.159331 
L 42.487488 287.292184 
L 39.570217 289.249098 
L 36.652946 291.033591 
L 33.735675 292.650971 
L 30.818404 294.108052 
L 27.901132 295.41286 
L 24.983861 296.574356 
L 22.06659 297.602161 
L 19.149319 298.506308 
L 16.232048 299.297014 
L 13.314777 299.984475 
L 10.397506 300.578698 
L 7.480235 301.089351 
L 4.562963 301.525653 
L 1.645692 301.896283 
L -1.271579 302.209315 
L -4.18885 302.472187 
L -7.106121 302.691672 
L -10.023392 302.873886 
L -12.940663 303.024295 
L -15.857934 303.147745 
L -18.775206 303.248492 
L -21.692477 303.330244 
z
" style="fill:#1f77b4;fill-opacity:0.4;stroke:#1f77b4;"/>
   </g>
   <g id="PolyCollection_2">
    <path clip-path="url(#pb2b0f02f0e)" d="M -74.797795 303.15943 
L -74.797795 303.64 
L -71.18832 303.64 
L -67.578844 303.64 
L -63.969369 303.64 
L -60.359894 303.64 
L -56.750418 303.64 
L -53.140943 303.64 
L -49.531468 303.64 
L -45.921992 303.64 
L -42.312517 303.64 
L -38.703042 303.64 
L -35.093566 303.64 
L -31.484091 303.64 
L -27.874616 303.64 
L -24.26514 303.64 
L -20.655665 303.64 
L -17.04619 303.64 
L -13.436714 303.64 
L -9.827239 303.64 
L -6.217764 303.64 
L -2.608289 303.64 
L 1.001187 303.64 
L 4.610662 303.64 
L 8.220137 303.64 
L 11.829613 303.64 
L 15.439088 303.64 
L 19.048563 303.64 
L 22.658039 303.64 
L 26.267514 303.64 
L 29.876989 303.64 
L 33.486465 303.64 
L 37.09594 303.64 
L 40.705415 303.64 
L 44.314891 303.64 
L 47.924366 303.64 
L 51.533841 303.64 
L 55.143317 303.64 
L 58.752792 303.64 
L 62.362267 303.64 
L 65.971743 303.64 
L 69.581218 303.64 
L 73.190693 303.64 
L 76.800169 303.64 
L 80.409644 303.64 
L 84.019119 303.64 
L 87.628595 303.64 
L 91.23807 303.64 
L 94.847545 303.64 
L 98.457021 303.64 
L 102.066496 303.64 
L 105.675971 303.64 
L 109.285447 303.64 
L 112.894922 303.64 
L 116.504397 303.64 
L 120.113873 303.64 
L 123.723348 303.64 
L 127.332823 303.64 
L 130.942299 303.64 
L 134.551774 303.64 
L 138.161249 303.64 
L 141.770725 303.64 
L 145.3802 303.64 
L 148.989675 303.64 
L 152.599151 303.64 
L 156.208626 303.64 
L 159.818101 303.64 
L 163.427577 303.64 
L 167.037052 303.64 
L 170.646527 303.64 
L 174.256003 303.64 
L 177.865478 303.64 
L 181.474953 303.64 
L 185.084429 303.64 
L 188.693904 303.64 
L 192.303379 303.64 
L 195.912854 303.64 
L 199.52233 303.64 
L 203.131805 303.64 
L 206.74128 303.64 
L 210.350756 303.64 
L 213.960231 303.64 
L 217.569706 303.64 
L 221.179182 303.64 
L 224.788657 303.64 
L 228.398132 303.64 
L 232.007608 303.64 
L 235.617083 303.64 
L 239.226558 303.64 
L 242.836034 303.64 
L 246.445509 303.64 
L 250.054984 303.64 
L 253.66446 303.64 
L 257.273935 303.64 
L 260.88341 303.64 
L 264.492886 303.64 
L 268.102361 303.64 
L 271.711836 303.64 
L 275.321312 303.64 
L 278.930787 303.64 
L 282.540262 303.64 
L 286.149738 303.64 
L 289.759213 303.64 
L 293.368688 303.64 
L 296.978164 303.64 
L 300.587639 303.64 
L 304.197114 303.64 
L 307.80659 303.64 
L 311.416065 303.64 
L 315.02554 303.64 
L 318.635016 303.64 
L 322.244491 303.64 
L 325.853966 303.64 
L 329.463442 303.64 
L 333.072917 303.64 
L 336.682392 303.64 
L 340.291868 303.64 
L 343.901343 303.64 
L 347.510818 303.64 
L 351.120294 303.64 
L 354.729769 303.64 
L 358.339244 303.64 
L 361.94872 303.64 
L 365.558195 303.64 
L 369.16767 303.64 
L 372.777146 303.64 
L 376.386621 303.64 
L 379.996096 303.64 
L 383.605571 303.64 
L 387.215047 303.64 
L 390.824522 303.64 
L 394.433997 303.64 
L 398.043473 303.64 
L 401.652948 303.64 
L 405.262423 303.64 
L 408.871899 303.64 
L 412.481374 303.64 
L 416.090849 303.64 
L 419.700325 303.64 
L 423.3098 303.64 
L 426.919275 303.64 
L 430.528751 303.64 
L 434.138226 303.64 
L 437.747701 303.64 
L 441.357177 303.64 
L 444.966652 303.64 
L 448.576127 303.64 
L 452.185603 303.64 
L 455.795078 303.64 
L 459.404553 303.64 
L 463.014029 303.64 
L 466.623504 303.64 
L 470.232979 303.64 
L 473.842455 303.64 
L 477.45193 303.64 
L 481.061405 303.64 
L 484.670881 303.64 
L 488.280356 303.64 
L 491.889831 303.64 
L 495.499307 303.64 
L 499.108782 303.64 
L 502.718257 303.64 
L 506.327733 303.64 
L 509.937208 303.64 
L 513.546683 303.64 
L 517.156159 303.64 
L 520.765634 303.64 
L 524.375109 303.64 
L 527.984585 303.64 
L 531.59406 303.64 
L 535.203535 303.64 
L 538.813011 303.64 
L 542.422486 303.64 
L 546.031961 303.64 
L 549.641437 303.64 
L 553.250912 303.64 
L 556.860387 303.64 
L 560.469863 303.64 
L 564.079338 303.64 
L 567.688813 303.64 
L 571.298289 303.64 
L 574.907764 303.64 
L 578.517239 303.64 
L 582.126714 303.64 
L 585.73619 303.64 
L 589.345665 303.64 
L 592.95514 303.64 
L 596.564616 303.64 
L 600.174091 303.64 
L 603.783566 303.64 
L 607.393042 303.64 
L 611.002517 303.64 
L 614.611992 303.64 
L 618.221468 303.64 
L 621.830943 303.64 
L 625.440418 303.64 
L 629.049894 303.64 
L 632.659369 303.64 
L 636.268844 303.64 
L 639.87832 303.64 
L 643.487795 303.64 
L 643.487795 302.351373 
L 643.487795 302.351373 
L 639.87832 302.121327 
L 636.268844 301.855241 
L 632.659369 301.548423 
L 629.049894 301.195735 
L 625.440418 300.791581 
L 621.830943 300.329898 
L 618.221468 299.804147 
L 614.611992 299.207317 
L 611.002517 298.531933 
L 607.393042 297.77007 
L 603.783566 296.913382 
L 600.174091 295.95313 
L 596.564616 294.880236 
L 592.95514 293.685333 
L 589.345665 292.358836 
L 585.73619 290.89102 
L 582.126714 289.272118 
L 578.517239 287.49242 
L 574.907764 285.542393 
L 571.298289 283.412811 
L 567.688813 281.094889 
L 564.079338 278.580438 
L 560.469863 275.862014 
L 556.860387 272.933087 
L 553.250912 269.788201 
L 549.641437 266.423145 
L 546.031961 262.835119 
L 542.422486 259.022893 
L 538.813011 254.986963 
L 535.203535 250.729696 
L 531.59406 246.255459 
L 527.984585 241.570728 
L 524.375109 236.684186 
L 520.765634 231.606783 
L 517.156159 226.351787 
L 513.546683 220.934785 
L 509.937208 215.373672 
L 506.327733 209.688596 
L 502.718257 203.90187 
L 499.108782 198.037849 
L 495.499307 192.122776 
L 491.889831 186.184591 
L 488.280356 180.252705 
L 484.670881 174.357746 
L 481.061405 168.531278 
L 477.45193 162.805492 
L 473.842455 157.212878 
L 470.232979 151.785883 
L 466.623504 146.556554 
L 463.014029 141.556178 
L 459.404553 136.814919 
L 455.795078 132.361463 
L 452.185603 128.222672 
L 448.576127 124.423257 
L 444.966652 120.985469 
L 441.357177 117.928818 
L 437.747701 115.269831 
L 434.138226 113.021833 
L 430.528751 111.194774 
L 426.919275 109.795103 
L 423.3098 108.825673 
L 419.700325 108.285704 
L 416.090849 108.170782 
L 412.481374 108.472909 
L 408.871899 109.180598 
L 405.262423 110.279002 
L 401.652948 111.750095 
L 398.043473 113.57288 
L 394.433997 115.723634 
L 390.824522 118.176187 
L 387.215047 120.902216 
L 383.605571 123.871567 
L 379.996096 127.052592 
L 376.386621 130.41249 
L 372.777146 133.917664 
L 369.16767 137.534071 
L 365.558195 141.227572 
L 361.94872 144.964276 
L 358.339244 148.710869 
L 354.729769 152.43493 
L 351.120294 156.10523 
L 347.510818 159.692008 
L 343.901343 163.167224 
L 340.291868 166.504789 
L 336.682392 169.680769 
L 333.072917 172.673555 
L 329.463442 175.464012 
L 325.853966 178.035598 
L 322.244491 180.374451 
L 318.635016 182.469448 
L 315.02554 184.312242 
L 311.416065 185.897266 
L 307.80659 187.221708 
L 304.197114 188.285473 
L 300.587639 189.091106 
L 296.978164 189.643705 
L 293.368688 189.950805 
L 289.759213 190.022244 
L 286.149738 189.870017 
L 282.540262 189.508105 
L 278.930787 188.952295 
L 275.321312 188.219986 
L 271.711836 187.329987 
L 268.102361 186.302301 
L 264.492886 185.157911 
L 260.88341 183.91855 
L 257.273935 182.606482 
L 253.66446 181.24427 
L 250.054984 179.85456 
L 246.445509 178.459857 
L 242.836034 177.082317 
L 239.226558 175.743538 
L 235.617083 174.464376 
L 232.007608 173.264757 
L 228.398132 172.16352 
L 224.788657 171.178263 
L 221.179182 170.32521 
L 217.569706 169.619107 
L 213.960231 169.073118 
L 210.350756 168.698759 
L 206.74128 168.505842 
L 203.131805 168.502446 
L 199.52233 168.694898 
L 195.912854 169.087784 
L 192.303379 169.683976 
L 188.693904 170.484667 
L 185.084429 171.489437 
L 181.474953 172.69632 
L 177.865478 174.101891 
L 174.256003 175.701359 
L 170.646527 177.488674 
L 167.037052 179.456635 
L 163.427577 181.597007 
L 159.818101 183.900638 
L 156.208626 186.357577 
L 152.599151 188.957199 
L 148.989675 191.688313 
L 145.3802 194.539282 
L 141.770725 197.498131 
L 138.161249 200.552648 
L 134.551774 203.690487 
L 130.942299 206.899254 
L 127.332823 210.166597 
L 123.723348 213.480282 
L 120.113873 216.828265 
L 116.504397 220.198754 
L 112.894922 223.580273 
L 109.285447 226.961711 
L 105.675971 230.332366 
L 102.066496 233.681993 
L 98.457021 237.000835 
L 94.847545 240.279657 
L 91.23807 243.509772 
L 87.628595 246.68307 
L 84.019119 249.792028 
L 80.409644 252.829735 
L 76.800169 255.789903 
L 73.190693 258.666871 
L 69.581218 261.455618 
L 65.971743 264.15176 
L 62.362267 266.751553 
L 58.752792 269.251884 
L 55.143317 271.650265 
L 51.533841 273.944824 
L 47.924366 276.134284 
L 44.314891 278.217948 
L 40.705415 280.195676 
L 37.09594 282.067857 
L 33.486465 283.835385 
L 29.876989 285.49962 
L 26.267514 287.062364 
L 22.658039 288.525814 
L 19.048563 289.892532 
L 15.439088 291.165401 
L 11.829613 292.347587 
L 8.220137 293.442498 
L 4.610662 294.453741 
L 1.001187 295.385086 
L -2.608289 296.240424 
L -6.217764 297.023727 
L -9.827239 297.739019 
L -13.436714 298.390334 
L -17.04619 298.98169 
L -20.655665 299.517058 
L -24.26514 300.000335 
L -27.874616 300.435322 
L -31.484091 300.825702 
L -35.093566 301.175025 
L -38.703042 301.486694 
L -42.312517 301.76395 
L -45.921992 302.009866 
L -49.531468 302.22734 
L -53.140943 302.419093 
L -56.750418 302.587666 
L -60.359894 302.735421 
L -63.969369 302.864545 
L -67.578844 302.97705 
L -71.18832 303.074783 
L -74.797795 303.15943 
z
" style="fill:#ff7f0e;fill-opacity:0.4;stroke:#ff7f0e;"/>
   </g>
   <g id="matplotlib.axis_1">
    <g id="xtick_1">
     <g id="line2d_1">
      <defs>
       <path d="M 0 0 
L 0 3.5 
" id="mf222c8d612" style="stroke:#000000;stroke-width:0.8;"/>
      </defs>
      <g>
       <use style="stroke:#000000;stroke-width:0.8;" x="47.81" xlink:href="#mf222c8d612" y="303.64"/>
      </g>
     </g>
     <g id="text_1">
      <!-- 0.0 -->
      <g transform="translate(39.858438 318.238437)scale(0.1 -0.1)">
       <defs>
        <path d="M 2034 4250 
Q 1547 4250 1301 3770 
Q 1056 3291 1056 2328 
Q 1056 1369 1301 889 
Q 1547 409 2034 409 
Q 2525 409 2770 889 
Q 3016 1369 3016 2328 
Q 3016 3291 2770 3770 
Q 2525 4250 2034 4250 
z
M 2034 4750 
Q 2819 4750 3233 4129 
Q 3647 3509 3647 2328 
Q 3647 1150 3233 529 
Q 2819 -91 2034 -91 
Q 1250 -91 836 529 
Q 422 1150 422 2328 
Q 422 3509 836 4129 
Q 1250 4750 2034 4750 
z
" id="DejaVuSans-30" transform="scale(0.015625)"/>
        <path d="M 684 794 
L 1344 794 
L 1344 0 
L 684 0 
L 684 794 
z
" id="DejaVuSans-2e" transform="scale(0.015625)"/>
       </defs>
       <use xlink:href="#DejaVuSans-30"/>
       <use x="63.623047" xlink:href="#DejaVuSans-2e"/>
       <use x="95.410156" xlink:href="#DejaVuSans-30"/>
      </g>
     </g>
    </g>
    <g id="xtick_2">
     <g id="line2d_2">
      <g>
       <use style="stroke:#000000;stroke-width:0.8;" x="126.655" xlink:href="#mf222c8d612" y="303.64"/>
      </g>
     </g>
     <g id="text_2">
      <!-- 0.2 -->
      <g transform="translate(118.703438 318.238437)scale(0.1 -0.1)">
       <defs>
        <path d="M 1228 531 
L 3431 531 
L 3431 0 
L 469 0 
L 469 531 
Q 828 903 1448 1529 
Q 2069 2156 2228 2338 
Q 2531 2678 2651 2914 
Q 2772 3150 2772 3378 
Q 2772 3750 2511 3984 
Q 2250 4219 1831 4219 
Q 1534 4219 1204 4116 
Q 875 4013 500 3803 
L 500 4441 
Q 881 4594 1212 4672 
Q 1544 4750 1819 4750 
Q 2544 4750 2975 4387 
Q 3406 4025 3406 3419 
Q 3406 3131 3298 2873 
Q 3191 2616 2906 2266 
Q 2828 2175 2409 1742 
Q 1991 1309 1228 531 
z
" id="DejaVuSans-32" transform="scale(0.015625)"/>
       </defs>
       <use xlink:href="#DejaVuSans-30"/>
       <use x="63.623047" xlink:href="#DejaVuSans-2e"/>
       <use x="95.410156" xlink:href="#DejaVuSans-32"/>
      </g>
     </g>
    </g>
    <g id="xtick_3">
     <g id="line2d_3">
      <g>
       <use style="stroke:#000000;stroke-width:0.8;" x="205.5" xlink:href="#mf222c8d612" y="303.64"/>
      </g>
     </g>
     <g id="text_3">
      <!-- 0.4 -->
      <g transform="translate(197.548438 318.238437)scale(0.1 -0.1)">
       <defs>
        <path d="M 2419 4116 
L 825 1625 
L 2419 1625 
L 2419 4116 
z
M 2253 4666 
L 3047 4666 
L 3047 1625 
L 3713 1625 
L 3713 1100 
L 3047 1100 
L 3047 0 
L 2419 0 
L 2419 1100 
L 313 1100 
L 313 1709 
L 2253 4666 
z
" id="DejaVuSans-34" transform="scale(0.015625)"/>
       </defs>
       <use xlink:href="#DejaVuSans-30"/>
       <use x="63.623047" xlink:href="#DejaVuSans-2e"/>
       <use x="95.410156" xlink:href="#DejaVuSans-34"/>
      </g>
     </g>
    </g>
    <g id="xtick_4">
     <g id="line2d_4">
      <g>
       <use style="stroke:#000000;stroke-width:0.8;" x="284.345" xlink:href="#mf222c8d612" y="303.64"/>
      </g>
     </g>
     <g id="text_4">
      <!-- 0.6 -->
      <g transform="translate(276.393438 318.238437)scale(0.1 -0.1)">
       <defs>
        <path d="M 2113 2584 
Q 1688 2584 1439 2293 
Q 1191 2003 1191 1497 
Q 1191 994 1439 701 
Q 1688 409 2113 409 
Q 2538 409 2786 701 
Q 3034 994 3034 1497 
Q 3034 2003 2786 2293 
Q 2538 2584 2113 2584 
z
M 3366 4563 
L 3366 3988 
Q 3128 4100 2886 4159 
Q 2644 4219 2406 4219 
Q 1781 4219 1451 3797 
Q 1122 3375 1075 2522 
Q 1259 2794 1537 2939 
Q 1816 3084 2150 3084 
Q 2853 3084 3261 2657 
Q 3669 2231 3669 1497 
Q 3669 778 3244 343 
Q 2819 -91 2113 -91 
Q 1303 -91 875 529 
Q 447 1150 447 2328 
Q 447 3434 972 4092 
Q 1497 4750 2381 4750 
Q 2619 4750 2861 4703 
Q 3103 4656 3366 4563 
z
" id="DejaVuSans-36" transform="scale(0.015625)"/>
       </defs>
       <use xlink:href="#DejaVuSans-30"/>
       <use x="63.623047" xlink:href="#DejaVuSans-2e"/>
       <use x="95.410156" xlink:href="#DejaVuSans-36"/>
      </g>
     </g>
    </g>
    <g id="xtick_5">
     <g id="line2d_5">
      <g>
       <use style="stroke:#000000;stroke-width:0.8;" x="363.19" xlink:href="#mf222c8d612" y="303.64"/>
      </g>
     </g>
     <g id="text_5">
      <!-- 0.8 -->
      <g transform="translate(355.238437 318.238437)scale(0.1 -0.1)">
       <defs>
        <path d="M 2034 2216 
Q 1584 2216 1326 1975 
Q 1069 1734 1069 1313 
Q 1069 891 1326 650 
Q 1584 409 2034 409 
Q 2484 409 2743 651 
Q 3003 894 3003 1313 
Q 3003 1734 2745 1975 
Q 2488 2216 2034 2216 
z
M 1403 2484 
Q 997 2584 770 2862 
Q 544 3141 544 3541 
Q 544 4100 942 4425 
Q 1341 4750 2034 4750 
Q 2731 4750 3128 4425 
Q 3525 4100 3525 3541 
Q 3525 3141 3298 2862 
Q 3072 2584 2669 2484 
Q 3125 2378 3379 2068 
Q 3634 1759 3634 1313 
Q 3634 634 3220 271 
Q 2806 -91 2034 -91 
Q 1263 -91 848 271 
Q 434 634 434 1313 
Q 434 1759 690 2068 
Q 947 2378 1403 2484 
z
M 1172 3481 
Q 1172 3119 1398 2916 
Q 1625 2713 2034 2713 
Q 2441 2713 2670 2916 
Q 2900 3119 2900 3481 
Q 2900 3844 2670 4047 
Q 2441 4250 2034 4250 
Q 1625 4250 1398 4047 
Q 1172 3844 1172 3481 
z
" id="DejaVuSans-38" transform="scale(0.015625)"/>
       </defs>
       <use xlink:href="#DejaVuSans-30"/>
       <use x="63.623047" xlink:href="#DejaVuSans-2e"/>
       <use x="95.410156" xlink:href="#DejaVuSans-38"/>
      </g>
     </g>
    </g>
    <g id="xtick_6">
     <g id="line2d_6">
      <g>
       <use style="stroke:#000000;stroke-width:0.8;" x="442.035" xlink:href="#mf222c8d612" y="303.64"/>
      </g>
     </g>
     <g id="text_6">
      <!-- 1.0 -->
      <g transform="translate(434.083437 318.238437)scale(0.1 -0.1)">
       <defs>
        <path d="M 794 531 
L 1825 531 
L 1825 4091 
L 703 3866 
L 703 4441 
L 1819 4666 
L 2450 4666 
L 2450 531 
L 3481 531 
L 3481 0 
L 794 0 
L 794 531 
z
" id="DejaVuSans-31" transform="scale(0.015625)"/>
       </defs>
       <use xlink:href="#DejaVuSans-31"/>
       <use x="63.623047" xlink:href="#DejaVuSans-2e"/>
       <use x="95.410156" xlink:href="#DejaVuSans-30"/>
      </g>
     </g>
    </g>
    <g id="text_7">
     <!-- Credibility index -->
     <g transform="translate(204.317812 331.916562)scale(0.1 -0.1)">
      <defs>
       <path d="M 4122 4306 
L 4122 3641 
Q 3803 3938 3442 4084 
Q 3081 4231 2675 4231 
Q 1875 4231 1450 3742 
Q 1025 3253 1025 2328 
Q 1025 1406 1450 917 
Q 1875 428 2675 428 
Q 3081 428 3442 575 
Q 3803 722 4122 1019 
L 4122 359 
Q 3791 134 3420 21 
Q 3050 -91 2638 -91 
Q 1578 -91 968 557 
Q 359 1206 359 2328 
Q 359 3453 968 4101 
Q 1578 4750 2638 4750 
Q 3056 4750 3426 4639 
Q 3797 4528 4122 4306 
z
" id="DejaVuSans-43" transform="scale(0.015625)"/>
       <path d="M 2631 2963 
Q 2534 3019 2420 3045 
Q 2306 3072 2169 3072 
Q 1681 3072 1420 2755 
Q 1159 2438 1159 1844 
L 1159 0 
L 581 0 
L 581 3500 
L 1159 3500 
L 1159 2956 
Q 1341 3275 1631 3429 
Q 1922 3584 2338 3584 
Q 2397 3584 2469 3576 
Q 2541 3569 2628 3553 
L 2631 2963 
z
" id="DejaVuSans-72" transform="scale(0.015625)"/>
       <path d="M 3597 1894 
L 3597 1613 
L 953 1613 
Q 991 1019 1311 708 
Q 1631 397 2203 397 
Q 2534 397 2845 478 
Q 3156 559 3463 722 
L 3463 178 
Q 3153 47 2828 -22 
Q 2503 -91 2169 -91 
Q 1331 -91 842 396 
Q 353 884 353 1716 
Q 353 2575 817 3079 
Q 1281 3584 2069 3584 
Q 2775 3584 3186 3129 
Q 3597 2675 3597 1894 
z
M 3022 2063 
Q 3016 2534 2758 2815 
Q 2500 3097 2075 3097 
Q 1594 3097 1305 2825 
Q 1016 2553 972 2059 
L 3022 2063 
z
" id="DejaVuSans-65" transform="scale(0.015625)"/>
       <path d="M 2906 2969 
L 2906 4863 
L 3481 4863 
L 3481 0 
L 2906 0 
L 2906 525 
Q 2725 213 2448 61 
Q 2172 -91 1784 -91 
Q 1150 -91 751 415 
Q 353 922 353 1747 
Q 353 2572 751 3078 
Q 1150 3584 1784 3584 
Q 2172 3584 2448 3432 
Q 2725 3281 2906 2969 
z
M 947 1747 
Q 947 1113 1208 752 
Q 1469 391 1925 391 
Q 2381 391 2643 752 
Q 2906 1113 2906 1747 
Q 2906 2381 2643 2742 
Q 2381 3103 1925 3103 
Q 1469 3103 1208 2742 
Q 947 2381 947 1747 
z
" id="DejaVuSans-64" transform="scale(0.015625)"/>
       <path d="M 603 3500 
L 1178 3500 
L 1178 0 
L 603 0 
L 603 3500 
z
M 603 4863 
L 1178 4863 
L 1178 4134 
L 603 4134 
L 603 4863 
z
" id="DejaVuSans-69" transform="scale(0.015625)"/>
       <path d="M 3116 1747 
Q 3116 2381 2855 2742 
Q 2594 3103 2138 3103 
Q 1681 3103 1420 2742 
Q 1159 2381 1159 1747 
Q 1159 1113 1420 752 
Q 1681 391 2138 391 
Q 2594 391 2855 752 
Q 3116 1113 3116 1747 
z
M 1159 2969 
Q 1341 3281 1617 3432 
Q 1894 3584 2278 3584 
Q 2916 3584 3314 3078 
Q 3713 2572 3713 1747 
Q 3713 922 3314 415 
Q 2916 -91 2278 -91 
Q 1894 -91 1617 61 
Q 1341 213 1159 525 
L 1159 0 
L 581 0 
L 581 4863 
L 1159 4863 
L 1159 2969 
z
" id="DejaVuSans-62" transform="scale(0.015625)"/>
       <path d="M 603 4863 
L 1178 4863 
L 1178 0 
L 603 0 
L 603 4863 
z
" id="DejaVuSans-6c" transform="scale(0.015625)"/>
       <path d="M 1172 4494 
L 1172 3500 
L 2356 3500 
L 2356 3053 
L 1172 3053 
L 1172 1153 
Q 1172 725 1289 603 
Q 1406 481 1766 481 
L 2356 481 
L 2356 0 
L 1766 0 
Q 1100 0 847 248 
Q 594 497 594 1153 
L 594 3053 
L 172 3053 
L 172 3500 
L 594 3500 
L 594 4494 
L 1172 4494 
z
" id="DejaVuSans-74" transform="scale(0.015625)"/>
       <path d="M 2059 -325 
Q 1816 -950 1584 -1140 
Q 1353 -1331 966 -1331 
L 506 -1331 
L 506 -850 
L 844 -850 
Q 1081 -850 1212 -737 
Q 1344 -625 1503 -206 
L 1606 56 
L 191 3500 
L 800 3500 
L 1894 763 
L 2988 3500 
L 3597 3500 
L 2059 -325 
z
" id="DejaVuSans-79" transform="scale(0.015625)"/>
       <path id="DejaVuSans-20" transform="scale(0.015625)"/>
       <path d="M 3513 2113 
L 3513 0 
L 2938 0 
L 2938 2094 
Q 2938 2591 2744 2837 
Q 2550 3084 2163 3084 
Q 1697 3084 1428 2787 
Q 1159 2491 1159 1978 
L 1159 0 
L 581 0 
L 581 3500 
L 1159 3500 
L 1159 2956 
Q 1366 3272 1645 3428 
Q 1925 3584 2291 3584 
Q 2894 3584 3203 3211 
Q 3513 2838 3513 2113 
z
" id="DejaVuSans-6e" transform="scale(0.015625)"/>
       <path d="M 3513 3500 
L 2247 1797 
L 3578 0 
L 2900 0 
L 1881 1375 
L 863 0 
L 184 0 
L 1544 1831 
L 300 3500 
L 978 3500 
L 1906 2253 
L 2834 3500 
L 3513 3500 
z
" id="DejaVuSans-78" transform="scale(0.015625)"/>
      </defs>
      <use xlink:href="#DejaVuSans-43"/>
      <use x="69.824219" xlink:href="#DejaVuSans-72"/>
      <use x="108.6875" xlink:href="#DejaVuSans-65"/>
      <use x="170.210938" xlink:href="#DejaVuSans-64"/>
      <use x="233.6875" xlink:href="#DejaVuSans-69"/>
      <use x="261.470703" xlink:href="#DejaVuSans-62"/>
      <use x="324.947266" xlink:href="#DejaVuSans-69"/>
      <use x="352.730469" xlink:href="#DejaVuSans-6c"/>
      <use x="380.513672" xlink:href="#DejaVuSans-69"/>
      <use x="408.296875" xlink:href="#DejaVuSans-74"/>
      <use x="447.505859" xlink:href="#DejaVuSans-79"/>
      <use x="506.685547" xlink:href="#DejaVuSans-20"/>
      <use x="538.472656" xlink:href="#DejaVuSans-69"/>
      <use x="566.255859" xlink:href="#DejaVuSans-6e"/>
      <use x="629.634766" xlink:href="#DejaVuSans-64"/>
      <use x="693.111328" xlink:href="#DejaVuSans-65"/>
      <use x="752.884766" xlink:href="#DejaVuSans-78"/>
     </g>
    </g>
   </g>
   <g id="matplotlib.axis_2">
    <g id="ytick_1">
     <g id="line2d_7">
      <defs>
       <path d="M 0 0 
L -3.5 0 
" id="m27e1a21649" style="stroke:#000000;stroke-width:0.8;"/>
      </defs>
      <g>
       <use style="stroke:#000000;stroke-width:0.8;" x="47.81" xlink:href="#m27e1a21649" y="303.64"/>
      </g>
     </g>
     <g id="text_8">
      <!-- 0.0 -->
      <g transform="translate(24.906875 307.439219)scale(0.1 -0.1)">
       <use xlink:href="#DejaVuSans-30"/>
       <use x="63.623047" xlink:href="#DejaVuSans-2e"/>
       <use x="95.410156" xlink:href="#DejaVuSans-30"/>
      </g>
     </g>
    </g>
    <g id="ytick_2">
     <g id="line2d_8">
      <g>
       <use style="stroke:#000000;stroke-width:0.8;" x="47.81" xlink:href="#m27e1a21649" y="271.745482"/>
      </g>
     </g>
     <g id="text_9">
      <!-- 0.2 -->
      <g transform="translate(24.906875 275.544701)scale(0.1 -0.1)">
       <use xlink:href="#DejaVuSans-30"/>
       <use x="63.623047" xlink:href="#DejaVuSans-2e"/>
       <use x="95.410156" xlink:href="#DejaVuSans-32"/>
      </g>
     </g>
    </g>
    <g id="ytick_3">
     <g id="line2d_9">
      <g>
       <use style="stroke:#000000;stroke-width:0.8;" x="47.81" xlink:href="#m27e1a21649" y="239.850965"/>
      </g>
     </g>
     <g id="text_10">
      <!-- 0.4 -->
      <g transform="translate(24.906875 243.650183)scale(0.1 -0.1)">
       <use xlink:href="#DejaVuSans-30"/>
       <use x="63.623047" xlink:href="#DejaVuSans-2e"/>
       <use x="95.410156" xlink:href="#DejaVuSans-34"/>
      </g>
     </g>
    </g>
    <g id="ytick_4">
     <g id="line2d_10">
      <g>
       <use style="stroke:#000000;stroke-width:0.8;" x="47.81" xlink:href="#m27e1a21649" y="207.956447"/>
      </g>
     </g>
     <g id="text_11">
      <!-- 0.6 -->
      <g transform="translate(24.906875 211.755666)scale(0.1 -0.1)">
       <use xlink:href="#DejaVuSans-30"/>
       <use x="63.623047" xlink:href="#DejaVuSans-2e"/>
       <use x="95.410156" xlink:href="#DejaVuSans-36"/>
      </g>
     </g>
    </g>
    <g id="ytick_5">
     <g id="line2d_11">
      <g>
       <use style="stroke:#000000;stroke-width:0.8;" x="47.81" xlink:href="#m27e1a21649" y="176.061929"/>
      </g>
     </g>
     <g id="text_12">
      <!-- 0.8 -->
      <g transform="translate(24.906875 179.861148)scale(0.1 -0.1)">
       <use xlink:href="#DejaVuSans-30"/>
       <use x="63.623047" xlink:href="#DejaVuSans-2e"/>
       <use x="95.410156" xlink:href="#DejaVuSans-38"/>
      </g>
     </g>
    </g>
    <g id="ytick_6">
     <g id="line2d_12">
      <g>
       <use style="stroke:#000000;stroke-width:0.8;" x="47.81" xlink:href="#m27e1a21649" y="144.167412"/>
      </g>
     </g>
     <g id="text_13">
      <!-- 1.0 -->
      <g transform="translate(24.906875 147.96663)scale(0.1 -0.1)">
       <use xlink:href="#DejaVuSans-31"/>
       <use x="63.623047" xlink:href="#DejaVuSans-2e"/>
       <use x="95.410156" xlink:href="#DejaVuSans-30"/>
      </g>
     </g>
    </g>
    <g id="ytick_7">
     <g id="line2d_13">
      <g>
       <use style="stroke:#000000;stroke-width:0.8;" x="47.81" xlink:href="#m27e1a21649" y="112.272894"/>
      </g>
     </g>
     <g id="text_14">
      <!-- 1.2 -->
      <g transform="translate(24.906875 116.072113)scale(0.1 -0.1)">
       <use xlink:href="#DejaVuSans-31"/>
       <use x="63.623047" xlink:href="#DejaVuSans-2e"/>
       <use x="95.410156" xlink:href="#DejaVuSans-32"/>
      </g>
     </g>
    </g>
    <g id="ytick_8">
     <g id="line2d_14">
      <g>
       <use style="stroke:#000000;stroke-width:0.8;" x="47.81" xlink:href="#m27e1a21649" y="80.378376"/>
      </g>
     </g>
     <g id="text_15">
      <!-- 1.4 -->
      <g transform="translate(24.906875 84.177595)scale(0.1 -0.1)">
       <use xlink:href="#DejaVuSans-31"/>
       <use x="63.623047" xlink:href="#DejaVuSans-2e"/>
       <use x="95.410156" xlink:href="#DejaVuSans-34"/>
      </g>
     </g>
    </g>
    <g id="ytick_9">
     <g id="line2d_15">
      <g>
       <use style="stroke:#000000;stroke-width:0.8;" x="47.81" xlink:href="#m27e1a21649" y="48.483859"/>
      </g>
     </g>
     <g id="text_16">
      <!-- 1.6 -->
      <g transform="translate(24.906875 52.283077)scale(0.1 -0.1)">
       <use xlink:href="#DejaVuSans-31"/>
       <use x="63.623047" xlink:href="#DejaVuSans-2e"/>
       <use x="95.410156" xlink:href="#DejaVuSans-36"/>
      </g>
     </g>
    </g>
    <g id="text_17">
     <!-- Density -->
     <g transform="translate(18.827187 189.812594)rotate(-90)scale(0.1 -0.1)">
      <defs>
       <path d="M 1259 4147 
L 1259 519 
L 2022 519 
Q 2988 519 3436 956 
Q 3884 1394 3884 2338 
Q 3884 3275 3436 3711 
Q 2988 4147 2022 4147 
L 1259 4147 
z
M 628 4666 
L 1925 4666 
Q 3281 4666 3915 4102 
Q 4550 3538 4550 2338 
Q 4550 1131 3912 565 
Q 3275 0 1925 0 
L 628 0 
L 628 4666 
z
" id="DejaVuSans-44" transform="scale(0.015625)"/>
       <path d="M 2834 3397 
L 2834 2853 
Q 2591 2978 2328 3040 
Q 2066 3103 1784 3103 
Q 1356 3103 1142 2972 
Q 928 2841 928 2578 
Q 928 2378 1081 2264 
Q 1234 2150 1697 2047 
L 1894 2003 
Q 2506 1872 2764 1633 
Q 3022 1394 3022 966 
Q 3022 478 2636 193 
Q 2250 -91 1575 -91 
Q 1294 -91 989 -36 
Q 684 19 347 128 
L 347 722 
Q 666 556 975 473 
Q 1284 391 1588 391 
Q 1994 391 2212 530 
Q 2431 669 2431 922 
Q 2431 1156 2273 1281 
Q 2116 1406 1581 1522 
L 1381 1569 
Q 847 1681 609 1914 
Q 372 2147 372 2553 
Q 372 3047 722 3315 
Q 1072 3584 1716 3584 
Q 2034 3584 2315 3537 
Q 2597 3491 2834 3397 
z
" id="DejaVuSans-73" transform="scale(0.015625)"/>
      </defs>
      <use xlink:href="#DejaVuSans-44"/>
      <use x="77.001953" xlink:href="#DejaVuSans-65"/>
      <use x="138.525391" xlink:href="#DejaVuSans-6e"/>
      <use x="201.904297" xlink:href="#DejaVuSans-73"/>
      <use x="254.003906" xlink:href="#DejaVuSans-69"/>
      <use x="281.787109" xlink:href="#DejaVuSans-74"/>
      <use x="320.996094" xlink:href="#DejaVuSans-79"/>
     </g>
    </g>
   </g>
   <g id="patch_3">
    <path d="M 47.81 303.64 
L 47.81 37.968 
" style="fill:none;stroke:#000000;stroke-linecap:square;stroke-linejoin:miter;stroke-width:0.8;"/>
   </g>
   <g id="patch_4">
    <path d="M 442.035 303.64 
L 442.035 37.968 
" style="fill:none;stroke:#000000;stroke-linecap:square;stroke-linejoin:miter;stroke-width:0.8;"/>
   </g>
   <g id="patch_5">
    <path d="M 47.81 303.64 
L 442.035 303.64 
" style="fill:none;stroke:#000000;stroke-linecap:square;stroke-linejoin:miter;stroke-width:0.8;"/>
   </g>
   <g id="patch_6">
    <path d="M 47.81 37.968 
L 442.035 37.968 
" style="fill:none;stroke:#000000;stroke-linecap:square;stroke-linejoin:miter;stroke-width:0.8;"/>
   </g>
   <g id="text_18">
    <!-- Credibility index consensus vs non consensus  -->
    <g transform="translate(105.81625 18.530625)scale(0.12 -0.12)">
     <defs>
      <path d="M 3122 3366 
L 3122 2828 
Q 2878 2963 2633 3030 
Q 2388 3097 2138 3097 
Q 1578 3097 1268 2742 
Q 959 2388 959 1747 
Q 959 1106 1268 751 
Q 1578 397 2138 397 
Q 2388 397 2633 464 
Q 2878 531 3122 666 
L 3122 134 
Q 2881 22 2623 -34 
Q 2366 -91 2075 -91 
Q 1284 -91 818 406 
Q 353 903 353 1747 
Q 353 2603 823 3093 
Q 1294 3584 2113 3584 
Q 2378 3584 2631 3529 
Q 2884 3475 3122 3366 
z
" id="DejaVuSans-63" transform="scale(0.015625)"/>
      <path d="M 1959 3097 
Q 1497 3097 1228 2736 
Q 959 2375 959 1747 
Q 959 1119 1226 758 
Q 1494 397 1959 397 
Q 2419 397 2687 759 
Q 2956 1122 2956 1747 
Q 2956 2369 2687 2733 
Q 2419 3097 1959 3097 
z
M 1959 3584 
Q 2709 3584 3137 3096 
Q 3566 2609 3566 1747 
Q 3566 888 3137 398 
Q 2709 -91 1959 -91 
Q 1206 -91 779 398 
Q 353 888 353 1747 
Q 353 2609 779 3096 
Q 1206 3584 1959 3584 
z
" id="DejaVuSans-6f" transform="scale(0.015625)"/>
      <path d="M 544 1381 
L 544 3500 
L 1119 3500 
L 1119 1403 
Q 1119 906 1312 657 
Q 1506 409 1894 409 
Q 2359 409 2629 706 
Q 2900 1003 2900 1516 
L 2900 3500 
L 3475 3500 
L 3475 0 
L 2900 0 
L 2900 538 
Q 2691 219 2414 64 
Q 2138 -91 1772 -91 
Q 1169 -91 856 284 
Q 544 659 544 1381 
z
M 1991 3584 
L 1991 3584 
z
" id="DejaVuSans-75" transform="scale(0.015625)"/>
      <path d="M 191 3500 
L 800 3500 
L 1894 563 
L 2988 3500 
L 3597 3500 
L 2284 0 
L 1503 0 
L 191 3500 
z
" id="DejaVuSans-76" transform="scale(0.015625)"/>
     </defs>
     <use xlink:href="#DejaVuSans-43"/>
     <use x="69.824219" xlink:href="#DejaVuSans-72"/>
     <use x="108.6875" xlink:href="#DejaVuSans-65"/>
     <use x="170.210938" xlink:href="#DejaVuSans-64"/>
     <use x="233.6875" xlink:href="#DejaVuSans-69"/>
     <use x="261.470703" xlink:href="#DejaVuSans-62"/>
     <use x="324.947266" xlink:href="#DejaVuSans-69"/>
     <use x="352.730469" xlink:href="#DejaVuSans-6c"/>
     <use x="380.513672" xlink:href="#DejaVuSans-69"/>
     <use x="408.296875" xlink:href="#DejaVuSans-74"/>
     <use x="447.505859" xlink:href="#DejaVuSans-79"/>
     <use x="506.685547" xlink:href="#DejaVuSans-20"/>
     <use x="538.472656" xlink:href="#DejaVuSans-69"/>
     <use x="566.255859" xlink:href="#DejaVuSans-6e"/>
     <use x="629.634766" xlink:href="#DejaVuSans-64"/>
     <use x="693.111328" xlink:href="#DejaVuSans-65"/>
     <use x="752.884766" xlink:href="#DejaVuSans-78"/>
     <use x="812.064453" xlink:href="#DejaVuSans-20"/>
     <use x="843.851562" xlink:href="#DejaVuSans-63"/>
     <use x="898.832031" xlink:href="#DejaVuSans-6f"/>
     <use x="960.013672" xlink:href="#DejaVuSans-6e"/>
     <use x="1023.392578" xlink:href="#DejaVuSans-73"/>
     <use x="1075.492188" xlink:href="#DejaVuSans-65"/>
     <use x="1137.015625" xlink:href="#DejaVuSans-6e"/>
     <use x="1200.394531" xlink:href="#DejaVuSans-73"/>
     <use x="1252.494141" xlink:href="#DejaVuSans-75"/>
     <use x="1315.873047" xlink:href="#DejaVuSans-73"/>
     <use x="1367.972656" xlink:href="#DejaVuSans-20"/>
     <use x="1399.759766" xlink:href="#DejaVuSans-76"/>
     <use x="1458.939453" xlink:href="#DejaVuSans-73"/>
     <use x="1511.039062" xlink:href="#DejaVuSans-20"/>
     <use x="1542.826172" xlink:href="#DejaVuSans-6e"/>
     <use x="1606.205078" xlink:href="#DejaVuSans-6f"/>
     <use x="1667.386719" xlink:href="#DejaVuSans-6e"/>
     <use x="1730.765625" xlink:href="#DejaVuSans-20"/>
     <use x="1762.552734" xlink:href="#DejaVuSans-63"/>
     <use x="1817.533203" xlink:href="#DejaVuSans-6f"/>
     <use x="1878.714844" xlink:href="#DejaVuSans-6e"/>
     <use x="1942.09375" xlink:href="#DejaVuSans-73"/>
     <use x="1994.193359" xlink:href="#DejaVuSans-65"/>
     <use x="2055.716797" xlink:href="#DejaVuSans-6e"/>
     <use x="2119.095703" xlink:href="#DejaVuSans-73"/>
     <use x="2171.195312" xlink:href="#DejaVuSans-75"/>
     <use x="2234.574219" xlink:href="#DejaVuSans-73"/>
     <use x="2286.673828" xlink:href="#DejaVuSans-20"/>
    </g>
    <!-- Set big -->
    <g transform="translate(223.8775 31.968)scale(0.12 -0.12)">
     <defs>
      <path d="M 3425 4513 
L 3425 3897 
Q 3066 4069 2747 4153 
Q 2428 4238 2131 4238 
Q 1616 4238 1336 4038 
Q 1056 3838 1056 3469 
Q 1056 3159 1242 3001 
Q 1428 2844 1947 2747 
L 2328 2669 
Q 3034 2534 3370 2195 
Q 3706 1856 3706 1288 
Q 3706 609 3251 259 
Q 2797 -91 1919 -91 
Q 1588 -91 1214 -16 
Q 841 59 441 206 
L 441 856 
Q 825 641 1194 531 
Q 1563 422 1919 422 
Q 2459 422 2753 634 
Q 3047 847 3047 1241 
Q 3047 1584 2836 1778 
Q 2625 1972 2144 2069 
L 1759 2144 
Q 1053 2284 737 2584 
Q 422 2884 422 3419 
Q 422 4038 858 4394 
Q 1294 4750 2059 4750 
Q 2388 4750 2728 4690 
Q 3069 4631 3425 4513 
z
" id="DejaVuSans-53" transform="scale(0.015625)"/>
      <path d="M 2906 1791 
Q 2906 2416 2648 2759 
Q 2391 3103 1925 3103 
Q 1463 3103 1205 2759 
Q 947 2416 947 1791 
Q 947 1169 1205 825 
Q 1463 481 1925 481 
Q 2391 481 2648 825 
Q 2906 1169 2906 1791 
z
M 3481 434 
Q 3481 -459 3084 -895 
Q 2688 -1331 1869 -1331 
Q 1566 -1331 1297 -1286 
Q 1028 -1241 775 -1147 
L 775 -588 
Q 1028 -725 1275 -790 
Q 1522 -856 1778 -856 
Q 2344 -856 2625 -561 
Q 2906 -266 2906 331 
L 2906 616 
Q 2728 306 2450 153 
Q 2172 0 1784 0 
Q 1141 0 747 490 
Q 353 981 353 1791 
Q 353 2603 747 3093 
Q 1141 3584 1784 3584 
Q 2172 3584 2450 3431 
Q 2728 3278 2906 2969 
L 2906 3500 
L 3481 3500 
L 3481 434 
z
" id="DejaVuSans-67" transform="scale(0.015625)"/>
     </defs>
     <use xlink:href="#DejaVuSans-53"/>
     <use x="63.476562" xlink:href="#DejaVuSans-65"/>
     <use x="125" xlink:href="#DejaVuSans-74"/>
     <use x="164.208984" xlink:href="#DejaVuSans-20"/>
     <use x="195.996094" xlink:href="#DejaVuSans-62"/>
     <use x="259.472656" xlink:href="#DejaVuSans-69"/>
     <use x="287.255859" xlink:href="#DejaVuSans-67"/>
    </g>
   </g>
   <g id="legend_1">
    <g id="patch_7">
     <path d="M 54.81 97.719875 
L 225.352188 97.719875 
Q 227.352188 97.719875 227.352188 95.719875 
L 227.352188 44.968 
Q 227.352188 42.968 225.352188 42.968 
L 54.81 42.968 
Q 52.81 42.968 52.81 44.968 
L 52.81 95.719875 
Q 52.81 97.719875 54.81 97.719875 
z
" style="fill:#ffffff;opacity:0.8;stroke:#cccccc;stroke-linejoin:miter;"/>
    </g>
    <g id="patch_8">
     <path d="M 56.81 61.205188 
L 76.81 61.205188 
L 76.81 54.205188 
L 56.81 54.205188 
z
" style="fill:#1f77b4;fill-opacity:0.4;stroke:#1f77b4;stroke-linejoin:miter;"/>
    </g>
    <g id="text_19">
     <!-- Correlation higher than 0  -->
     <g transform="translate(84.81 54.566438)scale(0.1 -0.1)">
      <defs>
       <path d="M 2194 1759 
Q 1497 1759 1228 1600 
Q 959 1441 959 1056 
Q 959 750 1161 570 
Q 1363 391 1709 391 
Q 2188 391 2477 730 
Q 2766 1069 2766 1631 
L 2766 1759 
L 2194 1759 
z
M 3341 1997 
L 3341 0 
L 2766 0 
L 2766 531 
Q 2569 213 2275 61 
Q 1981 -91 1556 -91 
Q 1019 -91 701 211 
Q 384 513 384 1019 
Q 384 1609 779 1909 
Q 1175 2209 1959 2209 
L 2766 2209 
L 2766 2266 
Q 2766 2663 2505 2880 
Q 2244 3097 1772 3097 
Q 1472 3097 1187 3025 
Q 903 2953 641 2809 
L 641 3341 
Q 956 3463 1253 3523 
Q 1550 3584 1831 3584 
Q 2591 3584 2966 3190 
Q 3341 2797 3341 1997 
z
" id="DejaVuSans-61" transform="scale(0.015625)"/>
       <path d="M 3513 2113 
L 3513 0 
L 2938 0 
L 2938 2094 
Q 2938 2591 2744 2837 
Q 2550 3084 2163 3084 
Q 1697 3084 1428 2787 
Q 1159 2491 1159 1978 
L 1159 0 
L 581 0 
L 581 4863 
L 1159 4863 
L 1159 2956 
Q 1366 3272 1645 3428 
Q 1925 3584 2291 3584 
Q 2894 3584 3203 3211 
Q 3513 2838 3513 2113 
z
" id="DejaVuSans-68" transform="scale(0.015625)"/>
      </defs>
      <use xlink:href="#DejaVuSans-43"/>
      <use x="69.824219" xlink:href="#DejaVuSans-6f"/>
      <use x="131.005859" xlink:href="#DejaVuSans-72"/>
      <use x="170.369141" xlink:href="#DejaVuSans-72"/>
      <use x="209.232422" xlink:href="#DejaVuSans-65"/>
      <use x="270.755859" xlink:href="#DejaVuSans-6c"/>
      <use x="298.539062" xlink:href="#DejaVuSans-61"/>
      <use x="359.818359" xlink:href="#DejaVuSans-74"/>
      <use x="399.027344" xlink:href="#DejaVuSans-69"/>
      <use x="426.810547" xlink:href="#DejaVuSans-6f"/>
      <use x="487.992188" xlink:href="#DejaVuSans-6e"/>
      <use x="551.371094" xlink:href="#DejaVuSans-20"/>
      <use x="583.158203" xlink:href="#DejaVuSans-68"/>
      <use x="646.537109" xlink:href="#DejaVuSans-69"/>
      <use x="674.320312" xlink:href="#DejaVuSans-67"/>
      <use x="737.796875" xlink:href="#DejaVuSans-68"/>
      <use x="801.175781" xlink:href="#DejaVuSans-65"/>
      <use x="862.699219" xlink:href="#DejaVuSans-72"/>
      <use x="903.8125" xlink:href="#DejaVuSans-20"/>
      <use x="935.599609" xlink:href="#DejaVuSans-74"/>
      <use x="974.808594" xlink:href="#DejaVuSans-68"/>
      <use x="1038.1875" xlink:href="#DejaVuSans-61"/>
      <use x="1099.466797" xlink:href="#DejaVuSans-6e"/>
      <use x="1162.845703" xlink:href="#DejaVuSans-20"/>
      <use x="1194.632812" xlink:href="#DejaVuSans-30"/>
      <use x="1258.255859" xlink:href="#DejaVuSans-20"/>
     </g>
     <!-- n=171 -->
     <g transform="translate(84.81 65.76425)scale(0.1 -0.1)">
      <defs>
       <path d="M 678 2906 
L 4684 2906 
L 4684 2381 
L 678 2381 
L 678 2906 
z
M 678 1631 
L 4684 1631 
L 4684 1100 
L 678 1100 
L 678 1631 
z
" id="DejaVuSans-3d" transform="scale(0.015625)"/>
       <path d="M 525 4666 
L 3525 4666 
L 3525 4397 
L 1831 0 
L 1172 0 
L 2766 4134 
L 525 4134 
L 525 4666 
z
" id="DejaVuSans-37" transform="scale(0.015625)"/>
      </defs>
      <use xlink:href="#DejaVuSans-6e"/>
      <use x="63.378906" xlink:href="#DejaVuSans-3d"/>
      <use x="147.167969" xlink:href="#DejaVuSans-31"/>
      <use x="210.791016" xlink:href="#DejaVuSans-37"/>
      <use x="274.414062" xlink:href="#DejaVuSans-31"/>
     </g>
    </g>
    <g id="patch_9">
     <path d="M 56.81 87.081125 
L 76.81 87.081125 
L 76.81 80.081125 
L 56.81 80.081125 
z
" style="fill:#ff7f0e;fill-opacity:0.4;stroke:#ff7f0e;stroke-linejoin:miter;"/>
    </g>
    <g id="text_20">
     <!-- Correlation higher than 0.8  -->
     <g transform="translate(84.81 80.442375)scale(0.1 -0.1)">
      <use xlink:href="#DejaVuSans-43"/>
      <use x="69.824219" xlink:href="#DejaVuSans-6f"/>
      <use x="131.005859" xlink:href="#DejaVuSans-72"/>
      <use x="170.369141" xlink:href="#DejaVuSans-72"/>
      <use x="209.232422" xlink:href="#DejaVuSans-65"/>
      <use x="270.755859" xlink:href="#DejaVuSans-6c"/>
      <use x="298.539062" xlink:href="#DejaVuSans-61"/>
      <use x="359.818359" xlink:href="#DejaVuSans-74"/>
      <use x="399.027344" xlink:href="#DejaVuSans-69"/>
      <use x="426.810547" xlink:href="#DejaVuSans-6f"/>
      <use x="487.992188" xlink:href="#DejaVuSans-6e"/>
      <use x="551.371094" xlink:href="#DejaVuSans-20"/>
      <use x="583.158203" xlink:href="#DejaVuSans-68"/>
      <use x="646.537109" xlink:href="#DejaVuSans-69"/>
      <use x="674.320312" xlink:href="#DejaVuSans-67"/>
      <use x="737.796875" xlink:href="#DejaVuSans-68"/>
      <use x="801.175781" xlink:href="#DejaVuSans-65"/>
      <use x="862.699219" xlink:href="#DejaVuSans-72"/>
      <use x="903.8125" xlink:href="#DejaVuSans-20"/>
      <use x="935.599609" xlink:href="#DejaVuSans-74"/>
      <use x="974.808594" xlink:href="#DejaVuSans-68"/>
      <use x="1038.1875" xlink:href="#DejaVuSans-61"/>
      <use x="1099.466797" xlink:href="#DejaVuSans-6e"/>
      <use x="1162.845703" xlink:href="#DejaVuSans-20"/>
      <use x="1194.632812" xlink:href="#DejaVuSans-30"/>
      <use x="1258.255859" xlink:href="#DejaVuSans-2e"/>
      <use x="1290.042969" xlink:href="#DejaVuSans-38"/>
      <use x="1353.666016" xlink:href="#DejaVuSans-20"/>
     </g>
     <!-- n=18 -->
     <g transform="translate(84.81 91.640187)scale(0.1 -0.1)">
      <use xlink:href="#DejaVuSans-6e"/>
      <use x="63.378906" xlink:href="#DejaVuSans-3d"/>
      <use x="147.167969" xlink:href="#DejaVuSans-31"/>
      <use x="210.791016" xlink:href="#DejaVuSans-38"/>
     </g>
    </g>
   </g>
  </g>
 </g>
 <defs>
  <clipPath id="pb2b0f02f0e">
   <rect height="265.672" width="394.225" x="47.81" y="37.968"/>
  </clipPath>
 </defs>
</svg>
