<?xml version="1.0" encoding="utf-8" standalone="no"?>
<!DOCTYPE svg PUBLIC "-//W3C//DTD SVG 1.1//EN"
  "http://www.w3.org/Graphics/SVG/1.1/DTD/svg11.dtd">
<svg height="345.6pt" version="1.1" viewBox="0 0 460.8 345.6" width="460.8pt" xmlns="http://www.w3.org/2000/svg" xmlns:xlink="http://www.w3.org/1999/xlink">
 <metadata>
  <rdf:RDF xmlns:cc="http://creativecommons.org/ns#" xmlns:dc="http://purl.org/dc/elements/1.1/" xmlns:rdf="http://www.w3.org/1999/02/22-rdf-syntax-ns#">
   <cc:Work>
    <dc:type rdf:resource="http://purl.org/dc/dcmitype/StillImage"/>
    <dc:date>2022-01-12T10:00:33.035662</dc:date>
    <dc:format>image/svg+xml</dc:format>
    <dc:creator>
     <cc:Agent>
      <dc:title>Matplotlib v3.4.3, https://matplotlib.org/</dc:title>
     </cc:Agent>
    </dc:creator>
   </cc:Work>
  </rdf:RDF>
 </metadata>
 <defs>
  <style type="text/css">*{stroke-linecap:butt;stroke-linejoin:round;}</style>
 </defs>
 <g id="figure_1">
  <g id="patch_1">
   <path d="M 0 345.6 
L 460.8 345.6 
L 460.8 0 
L 0 0 
z
" style="fill:#ffffff;"/>
  </g>
  <g id="axes_1">
   <g id="patch_2">
    <path d="M 57.6 307.584 
L 414.72 307.584 
L 414.72 41.472 
L 57.6 41.472 
z
" style="fill:#ffffff;"/>
   </g>
   <g id="PathCollection_1">
    <defs>
     <path d="M -3 0 
L 3 0 
M 0 3 
L 0 -3 
" id="m8f53bd70c6" style="stroke:#0000ff;stroke-width:1.5;"/>
    </defs>
    <g clip-path="url(#paad876e09b)">
     <use style="fill:#0000ff;stroke:#0000ff;stroke-width:1.5;" x="89.114364" xlink:href="#m8f53bd70c6" y="285.909485"/>
     <use style="fill:#0000ff;stroke:#0000ff;stroke-width:1.5;" x="83.533416" xlink:href="#m8f53bd70c6" y="288.727205"/>
     <use style="fill:#0000ff;stroke:#0000ff;stroke-width:1.5;" x="82.646006" xlink:href="#m8f53bd70c6" y="289.927403"/>
     <use style="fill:#0000ff;stroke:#0000ff;stroke-width:1.5;" x="82.322949" xlink:href="#m8f53bd70c6" y="290.783129"/>
     <use style="fill:#0000ff;stroke:#0000ff;stroke-width:1.5;" x="80.94651" xlink:href="#m8f53bd70c6" y="289.44284"/>
     <use style="fill:#0000ff;stroke:#0000ff;stroke-width:1.5;" x="82.210962" xlink:href="#m8f53bd70c6" y="289.226777"/>
     <use style="fill:#0000ff;stroke:#0000ff;stroke-width:1.5;" x="84.258153" xlink:href="#m8f53bd70c6" y="289.281033"/>
     <use style="fill:#0000ff;stroke:#0000ff;stroke-width:1.5;" x="79.035613" xlink:href="#m8f53bd70c6" y="291.768889"/>
     <use style="fill:#0000ff;stroke:#0000ff;stroke-width:1.5;" x="83.659949" xlink:href="#m8f53bd70c6" y="288.822504"/>
     <use style="fill:#0000ff;stroke:#0000ff;stroke-width:1.5;" x="80.788948" xlink:href="#m8f53bd70c6" y="291.115054"/>
     <use style="fill:#0000ff;stroke:#0000ff;stroke-width:1.5;" x="86.346866" xlink:href="#m8f53bd70c6" y="287.400579"/>
     <use style="fill:#0000ff;stroke:#0000ff;stroke-width:1.5;" x="82.546996" xlink:href="#m8f53bd70c6" y="288.925785"/>
     <use style="fill:#0000ff;stroke:#0000ff;stroke-width:1.5;" x="89.632573" xlink:href="#m8f53bd70c6" y="287.565771"/>
     <use style="fill:#0000ff;stroke:#0000ff;stroke-width:1.5;" x="82.566833" xlink:href="#m8f53bd70c6" y="289.108619"/>
     <use style="fill:#0000ff;stroke:#0000ff;stroke-width:1.5;" x="81.318342" xlink:href="#m8f53bd70c6" y="290.114586"/>
     <use style="fill:#0000ff;stroke:#0000ff;stroke-width:1.5;" x="80.80942" xlink:href="#m8f53bd70c6" y="288.632565"/>
     <use style="fill:#0000ff;stroke:#0000ff;stroke-width:1.5;" x="80.711918" xlink:href="#m8f53bd70c6" y="288.379032"/>
     <use style="fill:#0000ff;stroke:#0000ff;stroke-width:1.5;" x="86.15392" xlink:href="#m8f53bd70c6" y="288.013628"/>
     <use style="fill:#0000ff;stroke:#0000ff;stroke-width:1.5;" x="87.455672" xlink:href="#m8f53bd70c6" y="288.797298"/>
     <use style="fill:#0000ff;stroke:#0000ff;stroke-width:1.5;" x="81.429722" xlink:href="#m8f53bd70c6" y="290.488346"/>
     <use style="fill:#0000ff;stroke:#0000ff;stroke-width:1.5;" x="83.62343" xlink:href="#m8f53bd70c6" y="288.422665"/>
     <use style="fill:#0000ff;stroke:#0000ff;stroke-width:1.5;" x="81.826554" xlink:href="#m8f53bd70c6" y="289.476962"/>
     <use style="fill:#0000ff;stroke:#0000ff;stroke-width:1.5;" x="81.74829" xlink:href="#m8f53bd70c6" y="289.779915"/>
     <use style="fill:#0000ff;stroke:#0000ff;stroke-width:1.5;" x="80.976122" xlink:href="#m8f53bd70c6" y="291.073226"/>
     <use style="fill:#0000ff;stroke:#0000ff;stroke-width:1.5;" x="81.873924" xlink:href="#m8f53bd70c6" y="289.636539"/>
     <use style="fill:#0000ff;stroke:#0000ff;stroke-width:1.5;" x="81.884498" xlink:href="#m8f53bd70c6" y="291.307169"/>
     <use style="fill:#0000ff;stroke:#0000ff;stroke-width:1.5;" x="80.348552" xlink:href="#m8f53bd70c6" y="290.162257"/>
     <use style="fill:#0000ff;stroke:#0000ff;stroke-width:1.5;" x="81.738189" xlink:href="#m8f53bd70c6" y="289.976397"/>
     <use style="fill:#0000ff;stroke:#0000ff;stroke-width:1.5;" x="82.029189" xlink:href="#m8f53bd70c6" y="291.230719"/>
     <use style="fill:#0000ff;stroke:#0000ff;stroke-width:1.5;" x="86.940384" xlink:href="#m8f53bd70c6" y="287.469681"/>
     <use style="fill:#0000ff;stroke:#0000ff;stroke-width:1.5;" x="80.969224" xlink:href="#m8f53bd70c6" y="290.520219"/>
     <use style="fill:#0000ff;stroke:#0000ff;stroke-width:1.5;" x="83.207153" xlink:href="#m8f53bd70c6" y="288.392377"/>
     <use style="fill:#0000ff;stroke:#0000ff;stroke-width:1.5;" x="136.997821" xlink:href="#m8f53bd70c6" y="264.640941"/>
     <use style="fill:#0000ff;stroke:#0000ff;stroke-width:1.5;" x="80.51997" xlink:href="#m8f53bd70c6" y="290.127796"/>
     <use style="fill:#0000ff;stroke:#0000ff;stroke-width:1.5;" x="85.175116" xlink:href="#m8f53bd70c6" y="288.834084"/>
     <use style="fill:#0000ff;stroke:#0000ff;stroke-width:1.5;" x="82.629592" xlink:href="#m8f53bd70c6" y="287.211909"/>
     <use style="fill:#0000ff;stroke:#0000ff;stroke-width:1.5;" x="104.699316" xlink:href="#m8f53bd70c6" y="281.520491"/>
     <use style="fill:#0000ff;stroke:#0000ff;stroke-width:1.5;" x="85.531971" xlink:href="#m8f53bd70c6" y="287.758757"/>
     <use style="fill:#0000ff;stroke:#0000ff;stroke-width:1.5;" x="95.248459" xlink:href="#m8f53bd70c6" y="282.004588"/>
     <use style="fill:#0000ff;stroke:#0000ff;stroke-width:1.5;" x="82.343749" xlink:href="#m8f53bd70c6" y="289.054837"/>
     <use style="fill:#0000ff;stroke:#0000ff;stroke-width:1.5;" x="78.807859" xlink:href="#m8f53bd70c6" y="291.825956"/>
     <use style="fill:#0000ff;stroke:#0000ff;stroke-width:1.5;" x="81.835845" xlink:href="#m8f53bd70c6" y="289.190269"/>
     <use style="fill:#0000ff;stroke:#0000ff;stroke-width:1.5;" x="82.020623" xlink:href="#m8f53bd70c6" y="289.515791"/>
     <use style="fill:#0000ff;stroke:#0000ff;stroke-width:1.5;" x="79.611834" xlink:href="#m8f53bd70c6" y="291.458955"/>
     <use style="fill:#0000ff;stroke:#0000ff;stroke-width:1.5;" x="88.752009" xlink:href="#m8f53bd70c6" y="286.189477"/>
     <use style="fill:#0000ff;stroke:#0000ff;stroke-width:1.5;" x="79.155874" xlink:href="#m8f53bd70c6" y="291.737035"/>
     <use style="fill:#0000ff;stroke:#0000ff;stroke-width:1.5;" x="81.626159" xlink:href="#m8f53bd70c6" y="290.034398"/>
     <use style="fill:#0000ff;stroke:#0000ff;stroke-width:1.5;" x="80.359729" xlink:href="#m8f53bd70c6" y="290.234981"/>
     <use style="fill:#0000ff;stroke:#0000ff;stroke-width:1.5;" x="84.341668" xlink:href="#m8f53bd70c6" y="285.750731"/>
     <use style="fill:#0000ff;stroke:#0000ff;stroke-width:1.5;" x="81.449221" xlink:href="#m8f53bd70c6" y="289.353529"/>
    </g>
   </g>
   <g id="matplotlib.axis_1">
    <g id="xtick_1">
     <g id="line2d_1">
      <defs>
       <path d="M 0 0 
L 0 3.5 
" id="m053a5c311e" style="stroke:#000000;stroke-width:0.8;"/>
      </defs>
      <g>
       <use style="stroke:#000000;stroke-width:0.8;" x="73.832727" xlink:href="#m053a5c311e" y="307.584"/>
      </g>
     </g>
     <g id="text_1">
      <!-- 0.0 -->
      <g transform="translate(65.881165 322.182437)scale(0.1 -0.1)">
       <defs>
        <path d="M 2034 4250 
Q 1547 4250 1301 3770 
Q 1056 3291 1056 2328 
Q 1056 1369 1301 889 
Q 1547 409 2034 409 
Q 2525 409 2770 889 
Q 3016 1369 3016 2328 
Q 3016 3291 2770 3770 
Q 2525 4250 2034 4250 
z
M 2034 4750 
Q 2819 4750 3233 4129 
Q 3647 3509 3647 2328 
Q 3647 1150 3233 529 
Q 2819 -91 2034 -91 
Q 1250 -91 836 529 
Q 422 1150 422 2328 
Q 422 3509 836 4129 
Q 1250 4750 2034 4750 
z
" id="DejaVuSans-30" transform="scale(0.015625)"/>
        <path d="M 684 794 
L 1344 794 
L 1344 0 
L 684 0 
L 684 794 
z
" id="DejaVuSans-2e" transform="scale(0.015625)"/>
       </defs>
       <use xlink:href="#DejaVuSans-30"/>
       <use x="63.623047" xlink:href="#DejaVuSans-2e"/>
       <use x="95.410156" xlink:href="#DejaVuSans-30"/>
      </g>
     </g>
    </g>
    <g id="xtick_2">
     <g id="line2d_2">
      <g>
       <use style="stroke:#000000;stroke-width:0.8;" x="138.763636" xlink:href="#m053a5c311e" y="307.584"/>
      </g>
     </g>
     <g id="text_2">
      <!-- 0.2 -->
      <g transform="translate(130.812074 322.182437)scale(0.1 -0.1)">
       <defs>
        <path d="M 1228 531 
L 3431 531 
L 3431 0 
L 469 0 
L 469 531 
Q 828 903 1448 1529 
Q 2069 2156 2228 2338 
Q 2531 2678 2651 2914 
Q 2772 3150 2772 3378 
Q 2772 3750 2511 3984 
Q 2250 4219 1831 4219 
Q 1534 4219 1204 4116 
Q 875 4013 500 3803 
L 500 4441 
Q 881 4594 1212 4672 
Q 1544 4750 1819 4750 
Q 2544 4750 2975 4387 
Q 3406 4025 3406 3419 
Q 3406 3131 3298 2873 
Q 3191 2616 2906 2266 
Q 2828 2175 2409 1742 
Q 1991 1309 1228 531 
z
" id="DejaVuSans-32" transform="scale(0.015625)"/>
       </defs>
       <use xlink:href="#DejaVuSans-30"/>
       <use x="63.623047" xlink:href="#DejaVuSans-2e"/>
       <use x="95.410156" xlink:href="#DejaVuSans-32"/>
      </g>
     </g>
    </g>
    <g id="xtick_3">
     <g id="line2d_3">
      <g>
       <use style="stroke:#000000;stroke-width:0.8;" x="203.694545" xlink:href="#m053a5c311e" y="307.584"/>
      </g>
     </g>
     <g id="text_3">
      <!-- 0.4 -->
      <g transform="translate(195.742983 322.182437)scale(0.1 -0.1)">
       <defs>
        <path d="M 2419 4116 
L 825 1625 
L 2419 1625 
L 2419 4116 
z
M 2253 4666 
L 3047 4666 
L 3047 1625 
L 3713 1625 
L 3713 1100 
L 3047 1100 
L 3047 0 
L 2419 0 
L 2419 1100 
L 313 1100 
L 313 1709 
L 2253 4666 
z
" id="DejaVuSans-34" transform="scale(0.015625)"/>
       </defs>
       <use xlink:href="#DejaVuSans-30"/>
       <use x="63.623047" xlink:href="#DejaVuSans-2e"/>
       <use x="95.410156" xlink:href="#DejaVuSans-34"/>
      </g>
     </g>
    </g>
    <g id="xtick_4">
     <g id="line2d_4">
      <g>
       <use style="stroke:#000000;stroke-width:0.8;" x="268.625455" xlink:href="#m053a5c311e" y="307.584"/>
      </g>
     </g>
     <g id="text_4">
      <!-- 0.6 -->
      <g transform="translate(260.673892 322.182437)scale(0.1 -0.1)">
       <defs>
        <path d="M 2113 2584 
Q 1688 2584 1439 2293 
Q 1191 2003 1191 1497 
Q 1191 994 1439 701 
Q 1688 409 2113 409 
Q 2538 409 2786 701 
Q 3034 994 3034 1497 
Q 3034 2003 2786 2293 
Q 2538 2584 2113 2584 
z
M 3366 4563 
L 3366 3988 
Q 3128 4100 2886 4159 
Q 2644 4219 2406 4219 
Q 1781 4219 1451 3797 
Q 1122 3375 1075 2522 
Q 1259 2794 1537 2939 
Q 1816 3084 2150 3084 
Q 2853 3084 3261 2657 
Q 3669 2231 3669 1497 
Q 3669 778 3244 343 
Q 2819 -91 2113 -91 
Q 1303 -91 875 529 
Q 447 1150 447 2328 
Q 447 3434 972 4092 
Q 1497 4750 2381 4750 
Q 2619 4750 2861 4703 
Q 3103 4656 3366 4563 
z
" id="DejaVuSans-36" transform="scale(0.015625)"/>
       </defs>
       <use xlink:href="#DejaVuSans-30"/>
       <use x="63.623047" xlink:href="#DejaVuSans-2e"/>
       <use x="95.410156" xlink:href="#DejaVuSans-36"/>
      </g>
     </g>
    </g>
    <g id="xtick_5">
     <g id="line2d_5">
      <g>
       <use style="stroke:#000000;stroke-width:0.8;" x="333.556364" xlink:href="#m053a5c311e" y="307.584"/>
      </g>
     </g>
     <g id="text_5">
      <!-- 0.8 -->
      <g transform="translate(325.604801 322.182437)scale(0.1 -0.1)">
       <defs>
        <path d="M 2034 2216 
Q 1584 2216 1326 1975 
Q 1069 1734 1069 1313 
Q 1069 891 1326 650 
Q 1584 409 2034 409 
Q 2484 409 2743 651 
Q 3003 894 3003 1313 
Q 3003 1734 2745 1975 
Q 2488 2216 2034 2216 
z
M 1403 2484 
Q 997 2584 770 2862 
Q 544 3141 544 3541 
Q 544 4100 942 4425 
Q 1341 4750 2034 4750 
Q 2731 4750 3128 4425 
Q 3525 4100 3525 3541 
Q 3525 3141 3298 2862 
Q 3072 2584 2669 2484 
Q 3125 2378 3379 2068 
Q 3634 1759 3634 1313 
Q 3634 634 3220 271 
Q 2806 -91 2034 -91 
Q 1263 -91 848 271 
Q 434 634 434 1313 
Q 434 1759 690 2068 
Q 947 2378 1403 2484 
z
M 1172 3481 
Q 1172 3119 1398 2916 
Q 1625 2713 2034 2713 
Q 2441 2713 2670 2916 
Q 2900 3119 2900 3481 
Q 2900 3844 2670 4047 
Q 2441 4250 2034 4250 
Q 1625 4250 1398 4047 
Q 1172 3844 1172 3481 
z
" id="DejaVuSans-38" transform="scale(0.015625)"/>
       </defs>
       <use xlink:href="#DejaVuSans-30"/>
       <use x="63.623047" xlink:href="#DejaVuSans-2e"/>
       <use x="95.410156" xlink:href="#DejaVuSans-38"/>
      </g>
     </g>
    </g>
    <g id="xtick_6">
     <g id="line2d_6">
      <g>
       <use style="stroke:#000000;stroke-width:0.8;" x="398.487273" xlink:href="#m053a5c311e" y="307.584"/>
      </g>
     </g>
     <g id="text_6">
      <!-- 1.0 -->
      <g transform="translate(390.53571 322.182437)scale(0.1 -0.1)">
       <defs>
        <path d="M 794 531 
L 1825 531 
L 1825 4091 
L 703 3866 
L 703 4441 
L 1819 4666 
L 2450 4666 
L 2450 531 
L 3481 531 
L 3481 0 
L 794 0 
L 794 531 
z
" id="DejaVuSans-31" transform="scale(0.015625)"/>
       </defs>
       <use xlink:href="#DejaVuSans-31"/>
       <use x="63.623047" xlink:href="#DejaVuSans-2e"/>
       <use x="95.410156" xlink:href="#DejaVuSans-30"/>
      </g>
     </g>
    </g>
    <g id="text_7">
     <!-- Original distance correlation -->
     <g transform="translate(165.402969 335.860562)scale(0.1 -0.1)">
      <defs>
       <path d="M 2522 4238 
Q 1834 4238 1429 3725 
Q 1025 3213 1025 2328 
Q 1025 1447 1429 934 
Q 1834 422 2522 422 
Q 3209 422 3611 934 
Q 4013 1447 4013 2328 
Q 4013 3213 3611 3725 
Q 3209 4238 2522 4238 
z
M 2522 4750 
Q 3503 4750 4090 4092 
Q 4678 3434 4678 2328 
Q 4678 1225 4090 567 
Q 3503 -91 2522 -91 
Q 1538 -91 948 565 
Q 359 1222 359 2328 
Q 359 3434 948 4092 
Q 1538 4750 2522 4750 
z
" id="DejaVuSans-4f" transform="scale(0.015625)"/>
       <path d="M 2631 2963 
Q 2534 3019 2420 3045 
Q 2306 3072 2169 3072 
Q 1681 3072 1420 2755 
Q 1159 2438 1159 1844 
L 1159 0 
L 581 0 
L 581 3500 
L 1159 3500 
L 1159 2956 
Q 1341 3275 1631 3429 
Q 1922 3584 2338 3584 
Q 2397 3584 2469 3576 
Q 2541 3569 2628 3553 
L 2631 2963 
z
" id="DejaVuSans-72" transform="scale(0.015625)"/>
       <path d="M 603 3500 
L 1178 3500 
L 1178 0 
L 603 0 
L 603 3500 
z
M 603 4863 
L 1178 4863 
L 1178 4134 
L 603 4134 
L 603 4863 
z
" id="DejaVuSans-69" transform="scale(0.015625)"/>
       <path d="M 2906 1791 
Q 2906 2416 2648 2759 
Q 2391 3103 1925 3103 
Q 1463 3103 1205 2759 
Q 947 2416 947 1791 
Q 947 1169 1205 825 
Q 1463 481 1925 481 
Q 2391 481 2648 825 
Q 2906 1169 2906 1791 
z
M 3481 434 
Q 3481 -459 3084 -895 
Q 2688 -1331 1869 -1331 
Q 1566 -1331 1297 -1286 
Q 1028 -1241 775 -1147 
L 775 -588 
Q 1028 -725 1275 -790 
Q 1522 -856 1778 -856 
Q 2344 -856 2625 -561 
Q 2906 -266 2906 331 
L 2906 616 
Q 2728 306 2450 153 
Q 2172 0 1784 0 
Q 1141 0 747 490 
Q 353 981 353 1791 
Q 353 2603 747 3093 
Q 1141 3584 1784 3584 
Q 2172 3584 2450 3431 
Q 2728 3278 2906 2969 
L 2906 3500 
L 3481 3500 
L 3481 434 
z
" id="DejaVuSans-67" transform="scale(0.015625)"/>
       <path d="M 3513 2113 
L 3513 0 
L 2938 0 
L 2938 2094 
Q 2938 2591 2744 2837 
Q 2550 3084 2163 3084 
Q 1697 3084 1428 2787 
Q 1159 2491 1159 1978 
L 1159 0 
L 581 0 
L 581 3500 
L 1159 3500 
L 1159 2956 
Q 1366 3272 1645 3428 
Q 1925 3584 2291 3584 
Q 2894 3584 3203 3211 
Q 3513 2838 3513 2113 
z
" id="DejaVuSans-6e" transform="scale(0.015625)"/>
       <path d="M 2194 1759 
Q 1497 1759 1228 1600 
Q 959 1441 959 1056 
Q 959 750 1161 570 
Q 1363 391 1709 391 
Q 2188 391 2477 730 
Q 2766 1069 2766 1631 
L 2766 1759 
L 2194 1759 
z
M 3341 1997 
L 3341 0 
L 2766 0 
L 2766 531 
Q 2569 213 2275 61 
Q 1981 -91 1556 -91 
Q 1019 -91 701 211 
Q 384 513 384 1019 
Q 384 1609 779 1909 
Q 1175 2209 1959 2209 
L 2766 2209 
L 2766 2266 
Q 2766 2663 2505 2880 
Q 2244 3097 1772 3097 
Q 1472 3097 1187 3025 
Q 903 2953 641 2809 
L 641 3341 
Q 956 3463 1253 3523 
Q 1550 3584 1831 3584 
Q 2591 3584 2966 3190 
Q 3341 2797 3341 1997 
z
" id="DejaVuSans-61" transform="scale(0.015625)"/>
       <path d="M 603 4863 
L 1178 4863 
L 1178 0 
L 603 0 
L 603 4863 
z
" id="DejaVuSans-6c" transform="scale(0.015625)"/>
       <path id="DejaVuSans-20" transform="scale(0.015625)"/>
       <path d="M 2906 2969 
L 2906 4863 
L 3481 4863 
L 3481 0 
L 2906 0 
L 2906 525 
Q 2725 213 2448 61 
Q 2172 -91 1784 -91 
Q 1150 -91 751 415 
Q 353 922 353 1747 
Q 353 2572 751 3078 
Q 1150 3584 1784 3584 
Q 2172 3584 2448 3432 
Q 2725 3281 2906 2969 
z
M 947 1747 
Q 947 1113 1208 752 
Q 1469 391 1925 391 
Q 2381 391 2643 752 
Q 2906 1113 2906 1747 
Q 2906 2381 2643 2742 
Q 2381 3103 1925 3103 
Q 1469 3103 1208 2742 
Q 947 2381 947 1747 
z
" id="DejaVuSans-64" transform="scale(0.015625)"/>
       <path d="M 2834 3397 
L 2834 2853 
Q 2591 2978 2328 3040 
Q 2066 3103 1784 3103 
Q 1356 3103 1142 2972 
Q 928 2841 928 2578 
Q 928 2378 1081 2264 
Q 1234 2150 1697 2047 
L 1894 2003 
Q 2506 1872 2764 1633 
Q 3022 1394 3022 966 
Q 3022 478 2636 193 
Q 2250 -91 1575 -91 
Q 1294 -91 989 -36 
Q 684 19 347 128 
L 347 722 
Q 666 556 975 473 
Q 1284 391 1588 391 
Q 1994 391 2212 530 
Q 2431 669 2431 922 
Q 2431 1156 2273 1281 
Q 2116 1406 1581 1522 
L 1381 1569 
Q 847 1681 609 1914 
Q 372 2147 372 2553 
Q 372 3047 722 3315 
Q 1072 3584 1716 3584 
Q 2034 3584 2315 3537 
Q 2597 3491 2834 3397 
z
" id="DejaVuSans-73" transform="scale(0.015625)"/>
       <path d="M 1172 4494 
L 1172 3500 
L 2356 3500 
L 2356 3053 
L 1172 3053 
L 1172 1153 
Q 1172 725 1289 603 
Q 1406 481 1766 481 
L 2356 481 
L 2356 0 
L 1766 0 
Q 1100 0 847 248 
Q 594 497 594 1153 
L 594 3053 
L 172 3053 
L 172 3500 
L 594 3500 
L 594 4494 
L 1172 4494 
z
" id="DejaVuSans-74" transform="scale(0.015625)"/>
       <path d="M 3122 3366 
L 3122 2828 
Q 2878 2963 2633 3030 
Q 2388 3097 2138 3097 
Q 1578 3097 1268 2742 
Q 959 2388 959 1747 
Q 959 1106 1268 751 
Q 1578 397 2138 397 
Q 2388 397 2633 464 
Q 2878 531 3122 666 
L 3122 134 
Q 2881 22 2623 -34 
Q 2366 -91 2075 -91 
Q 1284 -91 818 406 
Q 353 903 353 1747 
Q 353 2603 823 3093 
Q 1294 3584 2113 3584 
Q 2378 3584 2631 3529 
Q 2884 3475 3122 3366 
z
" id="DejaVuSans-63" transform="scale(0.015625)"/>
       <path d="M 3597 1894 
L 3597 1613 
L 953 1613 
Q 991 1019 1311 708 
Q 1631 397 2203 397 
Q 2534 397 2845 478 
Q 3156 559 3463 722 
L 3463 178 
Q 3153 47 2828 -22 
Q 2503 -91 2169 -91 
Q 1331 -91 842 396 
Q 353 884 353 1716 
Q 353 2575 817 3079 
Q 1281 3584 2069 3584 
Q 2775 3584 3186 3129 
Q 3597 2675 3597 1894 
z
M 3022 2063 
Q 3016 2534 2758 2815 
Q 2500 3097 2075 3097 
Q 1594 3097 1305 2825 
Q 1016 2553 972 2059 
L 3022 2063 
z
" id="DejaVuSans-65" transform="scale(0.015625)"/>
       <path d="M 1959 3097 
Q 1497 3097 1228 2736 
Q 959 2375 959 1747 
Q 959 1119 1226 758 
Q 1494 397 1959 397 
Q 2419 397 2687 759 
Q 2956 1122 2956 1747 
Q 2956 2369 2687 2733 
Q 2419 3097 1959 3097 
z
M 1959 3584 
Q 2709 3584 3137 3096 
Q 3566 2609 3566 1747 
Q 3566 888 3137 398 
Q 2709 -91 1959 -91 
Q 1206 -91 779 398 
Q 353 888 353 1747 
Q 353 2609 779 3096 
Q 1206 3584 1959 3584 
z
" id="DejaVuSans-6f" transform="scale(0.015625)"/>
      </defs>
      <use xlink:href="#DejaVuSans-4f"/>
      <use x="78.710938" xlink:href="#DejaVuSans-72"/>
      <use x="119.824219" xlink:href="#DejaVuSans-69"/>
      <use x="147.607422" xlink:href="#DejaVuSans-67"/>
      <use x="211.083984" xlink:href="#DejaVuSans-69"/>
      <use x="238.867188" xlink:href="#DejaVuSans-6e"/>
      <use x="302.246094" xlink:href="#DejaVuSans-61"/>
      <use x="363.525391" xlink:href="#DejaVuSans-6c"/>
      <use x="391.308594" xlink:href="#DejaVuSans-20"/>
      <use x="423.095703" xlink:href="#DejaVuSans-64"/>
      <use x="486.572266" xlink:href="#DejaVuSans-69"/>
      <use x="514.355469" xlink:href="#DejaVuSans-73"/>
      <use x="566.455078" xlink:href="#DejaVuSans-74"/>
      <use x="605.664062" xlink:href="#DejaVuSans-61"/>
      <use x="666.943359" xlink:href="#DejaVuSans-6e"/>
      <use x="730.322266" xlink:href="#DejaVuSans-63"/>
      <use x="785.302734" xlink:href="#DejaVuSans-65"/>
      <use x="846.826172" xlink:href="#DejaVuSans-20"/>
      <use x="878.613281" xlink:href="#DejaVuSans-63"/>
      <use x="933.59375" xlink:href="#DejaVuSans-6f"/>
      <use x="994.775391" xlink:href="#DejaVuSans-72"/>
      <use x="1034.138672" xlink:href="#DejaVuSans-72"/>
      <use x="1073.001953" xlink:href="#DejaVuSans-65"/>
      <use x="1134.525391" xlink:href="#DejaVuSans-6c"/>
      <use x="1162.308594" xlink:href="#DejaVuSans-61"/>
      <use x="1223.587891" xlink:href="#DejaVuSans-74"/>
      <use x="1262.796875" xlink:href="#DejaVuSans-69"/>
      <use x="1290.580078" xlink:href="#DejaVuSans-6f"/>
      <use x="1351.761719" xlink:href="#DejaVuSans-6e"/>
     </g>
    </g>
   </g>
   <g id="matplotlib.axis_2">
    <g id="ytick_1">
     <g id="line2d_7">
      <defs>
       <path d="M 0 0 
L -3.5 0 
" id="m8d05ca41c1" style="stroke:#000000;stroke-width:0.8;"/>
      </defs>
      <g>
       <use style="stroke:#000000;stroke-width:0.8;" x="57.6" xlink:href="#m8d05ca41c1" y="295.488"/>
      </g>
     </g>
     <g id="text_8">
      <!-- 0.0 -->
      <g transform="translate(34.696875 299.287219)scale(0.1 -0.1)">
       <use xlink:href="#DejaVuSans-30"/>
       <use x="63.623047" xlink:href="#DejaVuSans-2e"/>
       <use x="95.410156" xlink:href="#DejaVuSans-30"/>
      </g>
     </g>
    </g>
    <g id="ytick_2">
     <g id="line2d_8">
      <g>
       <use style="stroke:#000000;stroke-width:0.8;" x="57.6" xlink:href="#m8d05ca41c1" y="247.104"/>
      </g>
     </g>
     <g id="text_9">
      <!-- 0.2 -->
      <g transform="translate(34.696875 250.903219)scale(0.1 -0.1)">
       <use xlink:href="#DejaVuSans-30"/>
       <use x="63.623047" xlink:href="#DejaVuSans-2e"/>
       <use x="95.410156" xlink:href="#DejaVuSans-32"/>
      </g>
     </g>
    </g>
    <g id="ytick_3">
     <g id="line2d_9">
      <g>
       <use style="stroke:#000000;stroke-width:0.8;" x="57.6" xlink:href="#m8d05ca41c1" y="198.72"/>
      </g>
     </g>
     <g id="text_10">
      <!-- 0.4 -->
      <g transform="translate(34.696875 202.519219)scale(0.1 -0.1)">
       <use xlink:href="#DejaVuSans-30"/>
       <use x="63.623047" xlink:href="#DejaVuSans-2e"/>
       <use x="95.410156" xlink:href="#DejaVuSans-34"/>
      </g>
     </g>
    </g>
    <g id="ytick_4">
     <g id="line2d_10">
      <g>
       <use style="stroke:#000000;stroke-width:0.8;" x="57.6" xlink:href="#m8d05ca41c1" y="150.336"/>
      </g>
     </g>
     <g id="text_11">
      <!-- 0.6 -->
      <g transform="translate(34.696875 154.135219)scale(0.1 -0.1)">
       <use xlink:href="#DejaVuSans-30"/>
       <use x="63.623047" xlink:href="#DejaVuSans-2e"/>
       <use x="95.410156" xlink:href="#DejaVuSans-36"/>
      </g>
     </g>
    </g>
    <g id="ytick_5">
     <g id="line2d_11">
      <g>
       <use style="stroke:#000000;stroke-width:0.8;" x="57.6" xlink:href="#m8d05ca41c1" y="101.952"/>
      </g>
     </g>
     <g id="text_12">
      <!-- 0.8 -->
      <g transform="translate(34.696875 105.751219)scale(0.1 -0.1)">
       <use xlink:href="#DejaVuSans-30"/>
       <use x="63.623047" xlink:href="#DejaVuSans-2e"/>
       <use x="95.410156" xlink:href="#DejaVuSans-38"/>
      </g>
     </g>
    </g>
    <g id="ytick_6">
     <g id="line2d_12">
      <g>
       <use style="stroke:#000000;stroke-width:0.8;" x="57.6" xlink:href="#m8d05ca41c1" y="53.568"/>
      </g>
     </g>
     <g id="text_13">
      <!-- 1.0 -->
      <g transform="translate(34.696875 57.367219)scale(0.1 -0.1)">
       <use xlink:href="#DejaVuSans-31"/>
       <use x="63.623047" xlink:href="#DejaVuSans-2e"/>
       <use x="95.410156" xlink:href="#DejaVuSans-30"/>
      </g>
     </g>
    </g>
    <g id="text_14">
     <!-- New distance correlation -->
     <g transform="translate(28.617187 236.625656)rotate(-90)scale(0.1 -0.1)">
      <defs>
       <path d="M 628 4666 
L 1478 4666 
L 3547 763 
L 3547 4666 
L 4159 4666 
L 4159 0 
L 3309 0 
L 1241 3903 
L 1241 0 
L 628 0 
L 628 4666 
z
" id="DejaVuSans-4e" transform="scale(0.015625)"/>
       <path d="M 269 3500 
L 844 3500 
L 1563 769 
L 2278 3500 
L 2956 3500 
L 3675 769 
L 4391 3500 
L 4966 3500 
L 4050 0 
L 3372 0 
L 2619 2869 
L 1863 0 
L 1184 0 
L 269 3500 
z
" id="DejaVuSans-77" transform="scale(0.015625)"/>
      </defs>
      <use xlink:href="#DejaVuSans-4e"/>
      <use x="74.804688" xlink:href="#DejaVuSans-65"/>
      <use x="136.328125" xlink:href="#DejaVuSans-77"/>
      <use x="218.115234" xlink:href="#DejaVuSans-20"/>
      <use x="249.902344" xlink:href="#DejaVuSans-64"/>
      <use x="313.378906" xlink:href="#DejaVuSans-69"/>
      <use x="341.162109" xlink:href="#DejaVuSans-73"/>
      <use x="393.261719" xlink:href="#DejaVuSans-74"/>
      <use x="432.470703" xlink:href="#DejaVuSans-61"/>
      <use x="493.75" xlink:href="#DejaVuSans-6e"/>
      <use x="557.128906" xlink:href="#DejaVuSans-63"/>
      <use x="612.109375" xlink:href="#DejaVuSans-65"/>
      <use x="673.632812" xlink:href="#DejaVuSans-20"/>
      <use x="705.419922" xlink:href="#DejaVuSans-63"/>
      <use x="760.400391" xlink:href="#DejaVuSans-6f"/>
      <use x="821.582031" xlink:href="#DejaVuSans-72"/>
      <use x="860.945312" xlink:href="#DejaVuSans-72"/>
      <use x="899.808594" xlink:href="#DejaVuSans-65"/>
      <use x="961.332031" xlink:href="#DejaVuSans-6c"/>
      <use x="989.115234" xlink:href="#DejaVuSans-61"/>
      <use x="1050.394531" xlink:href="#DejaVuSans-74"/>
      <use x="1089.603516" xlink:href="#DejaVuSans-69"/>
      <use x="1117.386719" xlink:href="#DejaVuSans-6f"/>
      <use x="1178.568359" xlink:href="#DejaVuSans-6e"/>
     </g>
    </g>
   </g>
   <g id="line2d_13">
    <path clip-path="url(#paad876e09b)" d="M 73.832727 295.488 
L 398.487273 53.568 
" style="fill:none;stroke:#ff0000;stroke-dasharray:5.55,2.4;stroke-dashoffset:0;stroke-width:1.5;"/>
   </g>
   <g id="patch_3">
    <path d="M 57.6 307.584 
L 57.6 41.472 
" style="fill:none;stroke:#000000;stroke-linecap:square;stroke-linejoin:miter;stroke-width:0.8;"/>
   </g>
   <g id="patch_4">
    <path d="M 414.72 307.584 
L 414.72 41.472 
" style="fill:none;stroke:#000000;stroke-linecap:square;stroke-linejoin:miter;stroke-width:0.8;"/>
   </g>
   <g id="patch_5">
    <path d="M 57.6 307.584 
L 414.72 307.584 
" style="fill:none;stroke:#000000;stroke-linecap:square;stroke-linejoin:miter;stroke-width:0.8;"/>
   </g>
   <g id="patch_6">
    <path d="M 57.6 41.472 
L 414.72 41.472 
" style="fill:none;stroke:#000000;stroke-linecap:square;stroke-linejoin:miter;stroke-width:0.8;"/>
   </g>
  </g>
 </g>
 <defs>
  <clipPath id="paad876e09b">
   <rect height="266.112" width="357.12" x="57.6" y="41.472"/>
  </clipPath>
 </defs>
</svg>
