<?xml version="1.0" encoding="utf-8" standalone="no"?>
<!DOCTYPE svg PUBLIC "-//W3C//DTD SVG 1.1//EN"
  "http://www.w3.org/Graphics/SVG/1.1/DTD/svg11.dtd">
<svg height="345.6pt" version="1.1" viewBox="0 0 460.8 345.6" width="460.8pt" xmlns="http://www.w3.org/2000/svg" xmlns:xlink="http://www.w3.org/1999/xlink">
 <metadata>
  <rdf:RDF xmlns:cc="http://creativecommons.org/ns#" xmlns:dc="http://purl.org/dc/elements/1.1/" xmlns:rdf="http://www.w3.org/1999/02/22-rdf-syntax-ns#">
   <cc:Work>
    <dc:type rdf:resource="http://purl.org/dc/dcmitype/StillImage"/>
    <dc:date>2021-12-01T13:36:28.889629</dc:date>
    <dc:format>image/svg+xml</dc:format>
    <dc:creator>
     <cc:Agent>
      <dc:title>Matplotlib v3.4.3, https://matplotlib.org/</dc:title>
     </cc:Agent>
    </dc:creator>
   </cc:Work>
  </rdf:RDF>
 </metadata>
 <defs>
  <style type="text/css">*{stroke-linecap:butt;stroke-linejoin:round;}</style>
 </defs>
 <g id="figure_1">
  <g id="patch_1">
   <path d="M 0 345.6 
L 460.8 345.6 
L 460.8 0 
L 0 0 
z
" style="fill:#ffffff;"/>
  </g>
  <g id="axes_1">
   <g id="patch_2">
    <path d="M 54.2 303.64 
L 442.035 303.64 
L 442.035 37.968 
L 54.2 37.968 
z
" style="fill:#ffffff;"/>
   </g>
   <g id="PolyCollection_1">
    <path clip-path="url(#pef8ebd1d69)" d="M -14.17591 303.382901 
L -14.17591 303.64 
L -11.305925 303.64 
L -8.43594 303.64 
L -5.565955 303.64 
L -2.69597 303.64 
L 0.174015 303.64 
L 3.044 303.64 
L 5.913985 303.64 
L 8.78397 303.64 
L 11.653955 303.64 
L 14.52394 303.64 
L 17.393925 303.64 
L 20.263911 303.64 
L 23.133896 303.64 
L 26.003881 303.64 
L 28.873866 303.64 
L 31.743851 303.64 
L 34.613836 303.64 
L 37.483821 303.64 
L 40.353806 303.64 
L 43.223791 303.64 
L 46.093776 303.64 
L 48.963761 303.64 
L 51.833746 303.64 
L 54.703731 303.64 
L 57.573716 303.64 
L 60.443701 303.64 
L 63.313686 303.64 
L 66.183671 303.64 
L 69.053656 303.64 
L 71.923641 303.64 
L 74.793626 303.64 
L 77.663611 303.64 
L 80.533596 303.64 
L 83.403581 303.64 
L 86.273566 303.64 
L 89.143551 303.64 
L 92.013536 303.64 
L 94.883521 303.64 
L 97.753506 303.64 
L 100.623491 303.64 
L 103.493476 303.64 
L 106.363461 303.64 
L 109.233446 303.64 
L 112.103431 303.64 
L 114.973416 303.64 
L 117.843401 303.64 
L 120.713386 303.64 
L 123.583371 303.64 
L 126.453356 303.64 
L 129.323341 303.64 
L 132.193326 303.64 
L 135.063311 303.64 
L 137.933296 303.64 
L 140.803281 303.64 
L 143.673266 303.64 
L 146.543252 303.64 
L 149.413237 303.64 
L 152.283222 303.64 
L 155.153207 303.64 
L 158.023192 303.64 
L 160.893177 303.64 
L 163.763162 303.64 
L 166.633147 303.64 
L 169.503132 303.64 
L 172.373117 303.64 
L 175.243102 303.64 
L 178.113087 303.64 
L 180.983072 303.64 
L 183.853057 303.64 
L 186.723042 303.64 
L 189.593027 303.64 
L 192.463012 303.64 
L 195.332997 303.64 
L 198.202982 303.64 
L 201.072967 303.64 
L 203.942952 303.64 
L 206.812937 303.64 
L 209.682922 303.64 
L 212.552907 303.64 
L 215.422892 303.64 
L 218.292877 303.64 
L 221.162862 303.64 
L 224.032847 303.64 
L 226.902832 303.64 
L 229.772817 303.64 
L 232.642802 303.64 
L 235.512787 303.64 
L 238.382772 303.64 
L 241.252757 303.64 
L 244.122742 303.64 
L 246.992727 303.64 
L 249.862712 303.64 
L 252.732697 303.64 
L 255.602682 303.64 
L 258.472667 303.64 
L 261.342652 303.64 
L 264.212637 303.64 
L 267.082622 303.64 
L 269.952607 303.64 
L 272.822593 303.64 
L 275.692578 303.64 
L 278.562563 303.64 
L 281.432548 303.64 
L 284.302533 303.64 
L 287.172518 303.64 
L 290.042503 303.64 
L 292.912488 303.64 
L 295.782473 303.64 
L 298.652458 303.64 
L 301.522443 303.64 
L 304.392428 303.64 
L 307.262413 303.64 
L 310.132398 303.64 
L 313.002383 303.64 
L 315.872368 303.64 
L 318.742353 303.64 
L 321.612338 303.64 
L 324.482323 303.64 
L 327.352308 303.64 
L 330.222293 303.64 
L 333.092278 303.64 
L 335.962263 303.64 
L 338.832248 303.64 
L 341.702233 303.64 
L 344.572218 303.64 
L 347.442203 303.64 
L 350.312188 303.64 
L 353.182173 303.64 
L 356.052158 303.64 
L 358.922143 303.64 
L 361.792128 303.64 
L 364.662113 303.64 
L 367.532098 303.64 
L 370.402083 303.64 
L 373.272068 303.64 
L 376.142053 303.64 
L 379.012038 303.64 
L 381.882023 303.64 
L 384.752008 303.64 
L 387.621993 303.64 
L 390.491978 303.64 
L 393.361963 303.64 
L 396.231948 303.64 
L 399.101934 303.64 
L 401.971919 303.64 
L 404.841904 303.64 
L 407.711889 303.64 
L 410.581874 303.64 
L 413.451859 303.64 
L 416.321844 303.64 
L 419.191829 303.64 
L 422.061814 303.64 
L 424.931799 303.64 
L 427.801784 303.64 
L 430.671769 303.64 
L 433.541754 303.64 
L 436.411739 303.64 
L 439.281724 303.64 
L 442.151709 303.64 
L 445.021694 303.64 
L 447.891679 303.64 
L 450.761664 303.64 
L 453.631649 303.64 
L 456.501634 303.64 
L 459.371619 303.64 
L 462.241604 303.64 
L 465.111589 303.64 
L 467.981574 303.64 
L 470.851559 303.64 
L 473.721544 303.64 
L 476.591529 303.64 
L 479.461514 303.64 
L 482.331499 303.64 
L 485.201484 303.64 
L 488.071469 303.64 
L 490.941454 303.64 
L 493.811439 303.64 
L 496.681424 303.64 
L 499.551409 303.64 
L 502.421394 303.64 
L 505.291379 303.64 
L 508.161364 303.64 
L 511.031349 303.64 
L 513.901334 303.64 
L 516.771319 303.64 
L 519.641304 303.64 
L 522.511289 303.64 
L 525.381275 303.64 
L 528.25126 303.64 
L 531.121245 303.64 
L 533.99123 303.64 
L 536.861215 303.64 
L 539.7312 303.64 
L 542.601185 303.64 
L 545.47117 303.64 
L 548.341155 303.64 
L 551.21114 303.64 
L 554.081125 303.64 
L 556.95111 303.64 
L 556.95111 302.643431 
L 556.95111 302.643431 
L 554.081125 302.388403 
L 551.21114 302.076573 
L 548.341155 301.697543 
L 545.47117 301.239564 
L 542.601185 300.689478 
L 539.7312 300.032696 
L 536.861215 299.253204 
L 533.99123 298.333615 
L 531.121245 297.255261 
L 528.25126 295.998346 
L 525.381275 294.542151 
L 522.511289 292.865307 
L 519.641304 290.946122 
L 516.771319 288.762981 
L 513.901334 286.2948 
L 511.031349 283.521536 
L 508.161364 280.42474 
L 505.291379 276.988144 
L 502.421394 273.198268 
L 499.551409 269.045019 
L 496.681424 264.522279 
L 493.811439 259.628443 
L 490.941454 254.366898 
L 488.071469 248.746411 
L 485.201484 242.781413 
L 482.331499 236.492149 
L 479.461514 229.904696 
L 476.591529 223.05082 
L 473.721544 215.967676 
L 470.851559 208.69735 
L 467.981574 201.286251 
L 465.111589 193.784359 
L 462.241604 186.244363 
L 459.371619 178.72069 
L 456.501634 171.268486 
L 453.631649 163.942551 
L 450.761664 156.796287 
L 447.891679 149.880684 
L 445.021694 143.243374 
L 442.151709 136.927803 
L 439.281724 130.972518 
L 436.411739 125.410631 
L 433.541754 120.269429 
L 430.671769 115.570177 
L 427.801784 111.328086 
L 424.931799 107.552454 
L 422.061814 104.246953 
L 419.191829 101.410051 
L 416.321844 99.035533 
L 413.451859 97.113104 
L 410.581874 95.629028 
L 407.711889 94.566783 
L 404.841904 93.907707 
L 401.971919 93.631593 
L 399.101934 93.717232 
L 396.231948 94.142873 
L 393.361963 94.8866 
L 390.491978 95.926621 
L 387.621993 97.241459 
L 384.752008 98.810076 
L 381.882023 100.611916 
L 379.012038 102.626898 
L 376.142053 104.835372 
L 373.272068 107.218043 
L 370.402083 109.755901 
L 367.532098 112.430147 
L 364.662113 115.222153 
L 361.792128 118.113434 
L 358.922143 121.085675 
L 356.052158 124.120775 
L 353.182173 127.200944 
L 350.312188 130.308819 
L 347.442203 133.427614 
L 344.572218 136.541289 
L 341.702233 139.634718 
L 338.832248 142.693866 
L 335.962263 145.705958 
L 333.092278 148.659623 
L 330.222293 151.545022 
L 327.352308 154.353945 
L 324.482323 157.079878 
L 321.612338 159.718028 
L 318.742353 162.265322 
L 315.872368 164.720368 
L 313.002383 167.083382 
L 310.132398 169.356086 
L 307.262413 171.541572 
L 304.392428 173.644154 
L 301.522443 175.669184 
L 298.652458 177.622861 
L 295.782473 179.51202 
L 292.912488 181.343919 
L 290.042503 183.126009 
L 287.172518 184.865718 
L 284.302533 186.570231 
L 281.432548 188.246284 
L 278.562563 189.899974 
L 275.692578 191.53659 
L 272.822593 193.160471 
L 269.952607 194.774897 
L 267.082622 196.382013 
L 264.212637 197.982791 
L 261.342652 199.577034 
L 258.472667 201.163414 
L 255.602682 202.739549 
L 252.732697 204.302111 
L 249.862712 205.846964 
L 246.992727 207.369318 
L 244.122742 208.863898 
L 241.252757 210.325119 
L 238.382772 211.747257 
L 235.512787 213.124604 
L 232.642802 214.451615 
L 229.772817 215.723023 
L 226.902832 216.933936 
L 224.032847 218.079898 
L 221.162862 219.156929 
L 218.292877 220.161543 
L 215.422892 221.090738 
L 212.552907 221.941982 
L 209.682922 222.713184 
L 206.812937 223.402671 
L 203.942952 224.009176 
L 201.072967 224.531832 
L 198.202982 224.970193 
L 195.332997 225.324282 
L 192.463012 225.594658 
L 189.593027 225.782511 
L 186.723042 225.889786 
L 183.853057 225.919318 
L 180.983072 225.87498 
L 178.113087 225.761836 
L 175.243102 225.586279 
L 172.373117 225.35616 
L 169.503132 225.080883 
L 166.633147 224.771459 
L 163.763162 224.440511 
L 160.893177 224.102233 
L 158.023192 223.772274 
L 155.153207 223.46757 
L 152.283222 223.206109 
L 149.413237 223.006637 
L 146.543252 222.888309 
L 143.673266 222.870301 
L 140.803281 222.971383 
L 137.933296 223.209476 
L 135.063311 223.601202 
L 132.193326 224.161446 
L 129.323341 224.902938 
L 126.453356 225.835887 
L 123.583371 226.967656 
L 120.713386 228.302513 
L 117.843401 229.841451 
L 114.973416 231.582099 
L 112.103431 233.518714 
L 109.233446 235.642259 
L 106.363461 237.940576 
L 103.493476 240.398628 
L 100.623491 242.998824 
L 97.753506 245.721393 
L 94.883521 248.544822 
L 92.013536 251.446315 
L 89.143551 254.402282 
L 86.273566 257.388827 
L 83.403581 260.382234 
L 80.533596 263.359422 
L 77.663611 266.298366 
L 74.793626 269.178478 
L 71.923641 271.980925 
L 69.053656 274.688892 
L 66.183671 277.287778 
L 63.313686 279.765324 
L 60.443701 282.111683 
L 57.573716 284.319419 
L 54.703731 286.383456 
L 51.833746 288.30097 
L 48.963761 290.071247 
L 46.093776 291.695494 
L 43.223791 293.17663 
L 40.353806 294.519062 
L 37.483821 295.728445 
L 34.613836 296.811441 
L 31.743851 297.775487 
L 28.873866 298.628569 
L 26.003881 299.379015 
L 23.133896 300.035304 
L 20.263911 300.6059 
L 17.393925 301.099107 
L 14.52394 301.522951 
L 11.653955 301.885084 
L 8.78397 302.192708 
L 5.913985 302.452526 
L 3.044 302.67071 
L 0.174015 302.852884 
L -2.69597 303.004122 
L -5.565955 303.128963 
L -8.43594 303.231426 
L -11.305925 303.315046 
L -14.17591 303.382901 
z
" style="fill:#1f77b4;fill-opacity:0.4;stroke:#1f77b4;"/>
   </g>
   <g id="PolyCollection_2">
    <path clip-path="url(#pef8ebd1d69)" d="M 4.50393 303.317825 
L 4.50393 303.64 
L 7.264134 303.64 
L 10.024339 303.64 
L 12.784544 303.64 
L 15.544749 303.64 
L 18.304953 303.64 
L 21.065158 303.64 
L 23.825363 303.64 
L 26.585567 303.64 
L 29.345772 303.64 
L 32.105977 303.64 
L 34.866182 303.64 
L 37.626386 303.64 
L 40.386591 303.64 
L 43.146796 303.64 
L 45.907001 303.64 
L 48.667205 303.64 
L 51.42741 303.64 
L 54.187615 303.64 
L 56.947819 303.64 
L 59.708024 303.64 
L 62.468229 303.64 
L 65.228434 303.64 
L 67.988638 303.64 
L 70.748843 303.64 
L 73.509048 303.64 
L 76.269253 303.64 
L 79.029457 303.64 
L 81.789662 303.64 
L 84.549867 303.64 
L 87.310071 303.64 
L 90.070276 303.64 
L 92.830481 303.64 
L 95.590686 303.64 
L 98.35089 303.64 
L 101.111095 303.64 
L 103.8713 303.64 
L 106.631505 303.64 
L 109.391709 303.64 
L 112.151914 303.64 
L 114.912119 303.64 
L 117.672323 303.64 
L 120.432528 303.64 
L 123.192733 303.64 
L 125.952938 303.64 
L 128.713142 303.64 
L 131.473347 303.64 
L 134.233552 303.64 
L 136.993757 303.64 
L 139.753961 303.64 
L 142.514166 303.64 
L 145.274371 303.64 
L 148.034575 303.64 
L 150.79478 303.64 
L 153.554985 303.64 
L 156.31519 303.64 
L 159.075394 303.64 
L 161.835599 303.64 
L 164.595804 303.64 
L 167.356009 303.64 
L 170.116213 303.64 
L 172.876418 303.64 
L 175.636623 303.64 
L 178.396827 303.64 
L 181.157032 303.64 
L 183.917237 303.64 
L 186.677442 303.64 
L 189.437646 303.64 
L 192.197851 303.64 
L 194.958056 303.64 
L 197.718261 303.64 
L 200.478465 303.64 
L 203.23867 303.64 
L 205.998875 303.64 
L 208.759079 303.64 
L 211.519284 303.64 
L 214.279489 303.64 
L 217.039694 303.64 
L 219.799898 303.64 
L 222.560103 303.64 
L 225.320308 303.64 
L 228.080513 303.64 
L 230.840717 303.64 
L 233.600922 303.64 
L 236.361127 303.64 
L 239.121331 303.64 
L 241.881536 303.64 
L 244.641741 303.64 
L 247.401946 303.64 
L 250.16215 303.64 
L 252.922355 303.64 
L 255.68256 303.64 
L 258.442765 303.64 
L 261.202969 303.64 
L 263.963174 303.64 
L 266.723379 303.64 
L 269.483583 303.64 
L 272.243788 303.64 
L 275.003993 303.64 
L 277.764198 303.64 
L 280.524402 303.64 
L 283.284607 303.64 
L 286.044812 303.64 
L 288.805017 303.64 
L 291.565221 303.64 
L 294.325426 303.64 
L 297.085631 303.64 
L 299.845835 303.64 
L 302.60604 303.64 
L 305.366245 303.64 
L 308.12645 303.64 
L 310.886654 303.64 
L 313.646859 303.64 
L 316.407064 303.64 
L 319.167269 303.64 
L 321.927473 303.64 
L 324.687678 303.64 
L 327.447883 303.64 
L 330.208087 303.64 
L 332.968292 303.64 
L 335.728497 303.64 
L 338.488702 303.64 
L 341.248906 303.64 
L 344.009111 303.64 
L 346.769316 303.64 
L 349.529521 303.64 
L 352.289725 303.64 
L 355.04993 303.64 
L 357.810135 303.64 
L 360.570339 303.64 
L 363.330544 303.64 
L 366.090749 303.64 
L 368.850954 303.64 
L 371.611158 303.64 
L 374.371363 303.64 
L 377.131568 303.64 
L 379.891773 303.64 
L 382.651977 303.64 
L 385.412182 303.64 
L 388.172387 303.64 
L 390.932591 303.64 
L 393.692796 303.64 
L 396.453001 303.64 
L 399.213206 303.64 
L 401.97341 303.64 
L 404.733615 303.64 
L 407.49382 303.64 
L 410.254025 303.64 
L 413.014229 303.64 
L 415.774434 303.64 
L 418.534639 303.64 
L 421.294843 303.64 
L 424.055048 303.64 
L 426.815253 303.64 
L 429.575458 303.64 
L 432.335662 303.64 
L 435.095867 303.64 
L 437.856072 303.64 
L 440.616277 303.64 
L 443.376481 303.64 
L 446.136686 303.64 
L 448.896891 303.64 
L 451.657095 303.64 
L 454.4173 303.64 
L 457.177505 303.64 
L 459.93771 303.64 
L 462.697914 303.64 
L 465.458119 303.64 
L 468.218324 303.64 
L 470.978529 303.64 
L 473.738733 303.64 
L 476.498938 303.64 
L 479.259143 303.64 
L 482.019347 303.64 
L 484.779552 303.64 
L 487.539757 303.64 
L 490.299962 303.64 
L 493.060166 303.64 
L 495.820371 303.64 
L 498.580576 303.64 
L 501.340781 303.64 
L 504.100985 303.64 
L 506.86119 303.64 
L 509.621395 303.64 
L 512.381599 303.64 
L 515.141804 303.64 
L 517.902009 303.64 
L 520.662214 303.64 
L 523.422418 303.64 
L 526.182623 303.64 
L 528.942828 303.64 
L 531.703033 303.64 
L 534.463237 303.64 
L 537.223442 303.64 
L 539.983647 303.64 
L 542.743851 303.64 
L 545.504056 303.64 
L 548.264261 303.64 
L 551.024466 303.64 
L 553.78467 303.64 
L 553.78467 302.201941 
L 553.78467 302.201941 
L 551.024466 301.839471 
L 548.264261 301.397581 
L 545.504056 300.862015 
L 542.743851 300.216717 
L 539.983647 299.44377 
L 537.223442 298.523381 
L 534.463237 297.433907 
L 531.703033 296.15194 
L 528.942828 294.652463 
L 526.182623 292.909066 
L 523.422418 290.894261 
L 520.662214 288.579864 
L 517.902009 285.937474 
L 515.141804 282.939036 
L 512.381599 279.557479 
L 509.621395 275.767435 
L 506.86119 271.546014 
L 504.100985 266.873614 
L 501.340781 261.734768 
L 498.580576 256.118967 
L 495.820371 250.021471 
L 493.060166 243.44404 
L 490.299962 236.39558 
L 487.539757 228.892662 
L 484.779552 220.95988 
L 482.019347 212.630031 
L 479.259143 203.944085 
L 476.498938 194.950933 
L 473.738733 185.706909 
L 470.978529 176.275072 
L 468.218324 166.724268 
L 465.458119 157.127993 
L 462.697914 147.563063 
L 459.93771 138.108155 
L 457.177505 128.842238 
L 454.4173 119.842961 
L 451.657095 111.185035 
L 448.896891 102.938675 
L 446.136686 95.168154 
L 443.376481 87.93051 
L 440.616277 81.274467 
L 437.856072 75.239587 
L 435.095867 69.855705 
L 432.335662 65.142635 
L 429.575458 61.110177 
L 426.815253 57.758403 
L 424.055048 55.078208 
L 421.294843 53.052095 
L 418.534639 51.655159 
L 415.774434 50.856217 
L 413.014229 50.619048 
L 410.254025 50.903671 
L 407.49382 51.667633 
L 404.733615 52.867236 
L 401.97341 54.458678 
L 399.213206 56.399058 
L 396.453001 58.647226 
L 393.692796 61.164457 
L 390.932591 63.914941 
L 388.172387 66.866087 
L 385.412182 69.988654 
L 382.651977 73.256726 
L 379.891773 76.647553 
L 377.131568 80.141288 
L 374.371363 83.720639 
L 371.611158 87.370488 
L 368.850954 91.077486 
L 366.090749 94.829657 
L 363.330544 98.616037 
L 360.570339 102.426364 
L 357.810135 106.250828 
L 355.04993 110.079892 
L 352.289725 113.904182 
L 349.529521 117.714447 
L 346.769316 121.501583 
L 344.009111 125.2567 
L 341.248906 128.971238 
L 338.488702 132.637104 
L 335.728497 136.24682 
L 332.968292 139.793684 
L 330.208087 143.271902 
L 327.447883 146.676721 
L 324.687678 150.004517 
L 321.927473 153.252871 
L 319.167269 156.420592 
L 316.407064 159.507716 
L 313.646859 162.515474 
L 310.886654 165.446214 
L 308.12645 168.303307 
L 305.366245 171.091025 
L 302.60604 173.814391 
L 299.845835 176.479022 
L 297.085631 179.090954 
L 294.325426 181.65646 
L 291.565221 184.181869 
L 288.805017 186.673382 
L 286.044812 189.136897 
L 283.284607 191.577842 
L 280.524402 194.001024 
L 277.764198 196.410496 
L 275.003993 198.809445 
L 272.243788 201.20011 
L 269.483583 203.583722 
L 266.723379 205.960482 
L 263.963174 208.329561 
L 261.202969 210.689141 
L 258.442765 213.036481 
L 255.68256 215.368013 
L 252.922355 217.679461 
L 250.16215 219.96598 
L 247.401946 222.222307 
L 244.641741 224.442923 
L 241.881536 226.622214 
L 239.121331 228.754622 
L 236.361127 230.834786 
L 233.600922 232.857666 
L 230.840717 234.818641 
L 228.080513 236.713579 
L 225.320308 238.538879 
L 222.560103 240.291489 
L 219.799898 241.968888 
L 217.039694 243.569048 
L 214.279489 245.09038 
L 211.519284 246.531662 
L 208.759079 247.891958 
L 205.998875 249.170546 
L 203.23867 250.366845 
L 200.478465 251.480362 
L 197.718261 252.510658 
L 194.958056 253.45734 
L 192.197851 254.320086 
L 189.437646 255.09869 
L 186.677442 255.793151 
L 183.917237 256.403777 
L 181.157032 256.931323 
L 178.396827 257.377139 
L 175.636623 257.743327 
L 172.876418 258.032902 
L 170.116213 258.249939 
L 167.356009 258.399705 
L 164.595804 258.488755 
L 161.835599 258.524995 
L 159.075394 258.517699 
L 156.31519 258.477465 
L 153.554985 258.416134 
L 150.79478 258.346631 
L 148.034575 258.282768 
L 145.274371 258.238986 
L 142.514166 258.23006 
L 139.753961 258.270764 
L 136.993757 258.375511 
L 134.233552 258.557993 
L 131.473347 258.830807 
L 128.713142 259.205107 
L 125.952938 259.690288 
L 123.192733 260.293703 
L 120.432528 261.020442 
L 117.672323 261.87317 
L 114.912119 262.85203 
L 112.151914 263.954629 
L 109.391709 265.176086 
L 106.631505 266.509157 
L 103.8713 267.944432 
L 101.111095 269.470579 
L 98.35089 271.074644 
L 95.590686 272.742395 
L 92.830481 274.458677 
L 90.070276 276.207797 
L 87.310071 277.973892 
L 84.549867 279.741301 
L 81.789662 281.494897 
L 79.029457 283.220399 
L 76.269253 284.904635 
L 73.509048 286.535758 
L 70.748843 288.103416 
L 67.988638 289.598865 
L 65.228434 291.015031 
L 62.468229 292.346523 
L 59.708024 293.589604 
L 56.947819 294.742111 
L 54.187615 295.803359 
L 51.42741 296.773996 
L 48.667205 297.65586 
L 45.907001 298.451803 
L 43.146796 299.165527 
L 40.386591 299.801403 
L 37.626386 300.364306 
L 34.866182 300.859459 
L 32.105977 301.292278 
L 29.345772 301.668254 
L 26.585567 301.992829 
L 23.825363 302.271305 
L 21.065158 302.508768 
L 18.304953 302.710026 
L 15.544749 302.879566 
L 12.784544 303.021526 
L 10.024339 303.13968 
L 7.264134 303.237433 
L 4.50393 303.317825 
z
" style="fill:#ff7f0e;fill-opacity:0.4;stroke:#ff7f0e;"/>
   </g>
   <g id="matplotlib.axis_1">
    <g id="xtick_1">
     <g id="line2d_1">
      <defs>
       <path d="M 0 0 
L 0 3.5 
" id="ma4eb4c3fc9" style="stroke:#000000;stroke-width:0.8;"/>
      </defs>
      <g>
       <use style="stroke:#000000;stroke-width:0.8;" x="54.2" xlink:href="#ma4eb4c3fc9" y="303.64"/>
      </g>
     </g>
     <g id="text_1">
      <!-- 0.0 -->
      <g transform="translate(46.248438 318.238437)scale(0.1 -0.1)">
       <defs>
        <path d="M 2034 4250 
Q 1547 4250 1301 3770 
Q 1056 3291 1056 2328 
Q 1056 1369 1301 889 
Q 1547 409 2034 409 
Q 2525 409 2770 889 
Q 3016 1369 3016 2328 
Q 3016 3291 2770 3770 
Q 2525 4250 2034 4250 
z
M 2034 4750 
Q 2819 4750 3233 4129 
Q 3647 3509 3647 2328 
Q 3647 1150 3233 529 
Q 2819 -91 2034 -91 
Q 1250 -91 836 529 
Q 422 1150 422 2328 
Q 422 3509 836 4129 
Q 1250 4750 2034 4750 
z
" id="DejaVuSans-30" transform="scale(0.015625)"/>
        <path d="M 684 794 
L 1344 794 
L 1344 0 
L 684 0 
L 684 794 
z
" id="DejaVuSans-2e" transform="scale(0.015625)"/>
       </defs>
       <use xlink:href="#DejaVuSans-30"/>
       <use x="63.623047" xlink:href="#DejaVuSans-2e"/>
       <use x="95.410156" xlink:href="#DejaVuSans-30"/>
      </g>
     </g>
    </g>
    <g id="xtick_2">
     <g id="line2d_2">
      <g>
       <use style="stroke:#000000;stroke-width:0.8;" x="131.767" xlink:href="#ma4eb4c3fc9" y="303.64"/>
      </g>
     </g>
     <g id="text_2">
      <!-- 0.2 -->
      <g transform="translate(123.815438 318.238437)scale(0.1 -0.1)">
       <defs>
        <path d="M 1228 531 
L 3431 531 
L 3431 0 
L 469 0 
L 469 531 
Q 828 903 1448 1529 
Q 2069 2156 2228 2338 
Q 2531 2678 2651 2914 
Q 2772 3150 2772 3378 
Q 2772 3750 2511 3984 
Q 2250 4219 1831 4219 
Q 1534 4219 1204 4116 
Q 875 4013 500 3803 
L 500 4441 
Q 881 4594 1212 4672 
Q 1544 4750 1819 4750 
Q 2544 4750 2975 4387 
Q 3406 4025 3406 3419 
Q 3406 3131 3298 2873 
Q 3191 2616 2906 2266 
Q 2828 2175 2409 1742 
Q 1991 1309 1228 531 
z
" id="DejaVuSans-32" transform="scale(0.015625)"/>
       </defs>
       <use xlink:href="#DejaVuSans-30"/>
       <use x="63.623047" xlink:href="#DejaVuSans-2e"/>
       <use x="95.410156" xlink:href="#DejaVuSans-32"/>
      </g>
     </g>
    </g>
    <g id="xtick_3">
     <g id="line2d_3">
      <g>
       <use style="stroke:#000000;stroke-width:0.8;" x="209.334" xlink:href="#ma4eb4c3fc9" y="303.64"/>
      </g>
     </g>
     <g id="text_3">
      <!-- 0.4 -->
      <g transform="translate(201.382438 318.238437)scale(0.1 -0.1)">
       <defs>
        <path d="M 2419 4116 
L 825 1625 
L 2419 1625 
L 2419 4116 
z
M 2253 4666 
L 3047 4666 
L 3047 1625 
L 3713 1625 
L 3713 1100 
L 3047 1100 
L 3047 0 
L 2419 0 
L 2419 1100 
L 313 1100 
L 313 1709 
L 2253 4666 
z
" id="DejaVuSans-34" transform="scale(0.015625)"/>
       </defs>
       <use xlink:href="#DejaVuSans-30"/>
       <use x="63.623047" xlink:href="#DejaVuSans-2e"/>
       <use x="95.410156" xlink:href="#DejaVuSans-34"/>
      </g>
     </g>
    </g>
    <g id="xtick_4">
     <g id="line2d_4">
      <g>
       <use style="stroke:#000000;stroke-width:0.8;" x="286.901" xlink:href="#ma4eb4c3fc9" y="303.64"/>
      </g>
     </g>
     <g id="text_4">
      <!-- 0.6 -->
      <g transform="translate(278.949437 318.238437)scale(0.1 -0.1)">
       <defs>
        <path d="M 2113 2584 
Q 1688 2584 1439 2293 
Q 1191 2003 1191 1497 
Q 1191 994 1439 701 
Q 1688 409 2113 409 
Q 2538 409 2786 701 
Q 3034 994 3034 1497 
Q 3034 2003 2786 2293 
Q 2538 2584 2113 2584 
z
M 3366 4563 
L 3366 3988 
Q 3128 4100 2886 4159 
Q 2644 4219 2406 4219 
Q 1781 4219 1451 3797 
Q 1122 3375 1075 2522 
Q 1259 2794 1537 2939 
Q 1816 3084 2150 3084 
Q 2853 3084 3261 2657 
Q 3669 2231 3669 1497 
Q 3669 778 3244 343 
Q 2819 -91 2113 -91 
Q 1303 -91 875 529 
Q 447 1150 447 2328 
Q 447 3434 972 4092 
Q 1497 4750 2381 4750 
Q 2619 4750 2861 4703 
Q 3103 4656 3366 4563 
z
" id="DejaVuSans-36" transform="scale(0.015625)"/>
       </defs>
       <use xlink:href="#DejaVuSans-30"/>
       <use x="63.623047" xlink:href="#DejaVuSans-2e"/>
       <use x="95.410156" xlink:href="#DejaVuSans-36"/>
      </g>
     </g>
    </g>
    <g id="xtick_5">
     <g id="line2d_5">
      <g>
       <use style="stroke:#000000;stroke-width:0.8;" x="364.468" xlink:href="#ma4eb4c3fc9" y="303.64"/>
      </g>
     </g>
     <g id="text_5">
      <!-- 0.8 -->
      <g transform="translate(356.516437 318.238437)scale(0.1 -0.1)">
       <defs>
        <path d="M 2034 2216 
Q 1584 2216 1326 1975 
Q 1069 1734 1069 1313 
Q 1069 891 1326 650 
Q 1584 409 2034 409 
Q 2484 409 2743 651 
Q 3003 894 3003 1313 
Q 3003 1734 2745 1975 
Q 2488 2216 2034 2216 
z
M 1403 2484 
Q 997 2584 770 2862 
Q 544 3141 544 3541 
Q 544 4100 942 4425 
Q 1341 4750 2034 4750 
Q 2731 4750 3128 4425 
Q 3525 4100 3525 3541 
Q 3525 3141 3298 2862 
Q 3072 2584 2669 2484 
Q 3125 2378 3379 2068 
Q 3634 1759 3634 1313 
Q 3634 634 3220 271 
Q 2806 -91 2034 -91 
Q 1263 -91 848 271 
Q 434 634 434 1313 
Q 434 1759 690 2068 
Q 947 2378 1403 2484 
z
M 1172 3481 
Q 1172 3119 1398 2916 
Q 1625 2713 2034 2713 
Q 2441 2713 2670 2916 
Q 2900 3119 2900 3481 
Q 2900 3844 2670 4047 
Q 2441 4250 2034 4250 
Q 1625 4250 1398 4047 
Q 1172 3844 1172 3481 
z
" id="DejaVuSans-38" transform="scale(0.015625)"/>
       </defs>
       <use xlink:href="#DejaVuSans-30"/>
       <use x="63.623047" xlink:href="#DejaVuSans-2e"/>
       <use x="95.410156" xlink:href="#DejaVuSans-38"/>
      </g>
     </g>
    </g>
    <g id="xtick_6">
     <g id="line2d_6">
      <g>
       <use style="stroke:#000000;stroke-width:0.8;" x="442.035" xlink:href="#ma4eb4c3fc9" y="303.64"/>
      </g>
     </g>
     <g id="text_6">
      <!-- 1.0 -->
      <g transform="translate(434.083437 318.238437)scale(0.1 -0.1)">
       <defs>
        <path d="M 794 531 
L 1825 531 
L 1825 4091 
L 703 3866 
L 703 4441 
L 1819 4666 
L 2450 4666 
L 2450 531 
L 3481 531 
L 3481 0 
L 794 0 
L 794 531 
z
" id="DejaVuSans-31" transform="scale(0.015625)"/>
       </defs>
       <use xlink:href="#DejaVuSans-31"/>
       <use x="63.623047" xlink:href="#DejaVuSans-2e"/>
       <use x="95.410156" xlink:href="#DejaVuSans-30"/>
      </g>
     </g>
    </g>
    <g id="text_7">
     <!-- Credibility index -->
     <g transform="translate(207.512812 331.916562)scale(0.1 -0.1)">
      <defs>
       <path d="M 4122 4306 
L 4122 3641 
Q 3803 3938 3442 4084 
Q 3081 4231 2675 4231 
Q 1875 4231 1450 3742 
Q 1025 3253 1025 2328 
Q 1025 1406 1450 917 
Q 1875 428 2675 428 
Q 3081 428 3442 575 
Q 3803 722 4122 1019 
L 4122 359 
Q 3791 134 3420 21 
Q 3050 -91 2638 -91 
Q 1578 -91 968 557 
Q 359 1206 359 2328 
Q 359 3453 968 4101 
Q 1578 4750 2638 4750 
Q 3056 4750 3426 4639 
Q 3797 4528 4122 4306 
z
" id="DejaVuSans-43" transform="scale(0.015625)"/>
       <path d="M 2631 2963 
Q 2534 3019 2420 3045 
Q 2306 3072 2169 3072 
Q 1681 3072 1420 2755 
Q 1159 2438 1159 1844 
L 1159 0 
L 581 0 
L 581 3500 
L 1159 3500 
L 1159 2956 
Q 1341 3275 1631 3429 
Q 1922 3584 2338 3584 
Q 2397 3584 2469 3576 
Q 2541 3569 2628 3553 
L 2631 2963 
z
" id="DejaVuSans-72" transform="scale(0.015625)"/>
       <path d="M 3597 1894 
L 3597 1613 
L 953 1613 
Q 991 1019 1311 708 
Q 1631 397 2203 397 
Q 2534 397 2845 478 
Q 3156 559 3463 722 
L 3463 178 
Q 3153 47 2828 -22 
Q 2503 -91 2169 -91 
Q 1331 -91 842 396 
Q 353 884 353 1716 
Q 353 2575 817 3079 
Q 1281 3584 2069 3584 
Q 2775 3584 3186 3129 
Q 3597 2675 3597 1894 
z
M 3022 2063 
Q 3016 2534 2758 2815 
Q 2500 3097 2075 3097 
Q 1594 3097 1305 2825 
Q 1016 2553 972 2059 
L 3022 2063 
z
" id="DejaVuSans-65" transform="scale(0.015625)"/>
       <path d="M 2906 2969 
L 2906 4863 
L 3481 4863 
L 3481 0 
L 2906 0 
L 2906 525 
Q 2725 213 2448 61 
Q 2172 -91 1784 -91 
Q 1150 -91 751 415 
Q 353 922 353 1747 
Q 353 2572 751 3078 
Q 1150 3584 1784 3584 
Q 2172 3584 2448 3432 
Q 2725 3281 2906 2969 
z
M 947 1747 
Q 947 1113 1208 752 
Q 1469 391 1925 391 
Q 2381 391 2643 752 
Q 2906 1113 2906 1747 
Q 2906 2381 2643 2742 
Q 2381 3103 1925 3103 
Q 1469 3103 1208 2742 
Q 947 2381 947 1747 
z
" id="DejaVuSans-64" transform="scale(0.015625)"/>
       <path d="M 603 3500 
L 1178 3500 
L 1178 0 
L 603 0 
L 603 3500 
z
M 603 4863 
L 1178 4863 
L 1178 4134 
L 603 4134 
L 603 4863 
z
" id="DejaVuSans-69" transform="scale(0.015625)"/>
       <path d="M 3116 1747 
Q 3116 2381 2855 2742 
Q 2594 3103 2138 3103 
Q 1681 3103 1420 2742 
Q 1159 2381 1159 1747 
Q 1159 1113 1420 752 
Q 1681 391 2138 391 
Q 2594 391 2855 752 
Q 3116 1113 3116 1747 
z
M 1159 2969 
Q 1341 3281 1617 3432 
Q 1894 3584 2278 3584 
Q 2916 3584 3314 3078 
Q 3713 2572 3713 1747 
Q 3713 922 3314 415 
Q 2916 -91 2278 -91 
Q 1894 -91 1617 61 
Q 1341 213 1159 525 
L 1159 0 
L 581 0 
L 581 4863 
L 1159 4863 
L 1159 2969 
z
" id="DejaVuSans-62" transform="scale(0.015625)"/>
       <path d="M 603 4863 
L 1178 4863 
L 1178 0 
L 603 0 
L 603 4863 
z
" id="DejaVuSans-6c" transform="scale(0.015625)"/>
       <path d="M 1172 4494 
L 1172 3500 
L 2356 3500 
L 2356 3053 
L 1172 3053 
L 1172 1153 
Q 1172 725 1289 603 
Q 1406 481 1766 481 
L 2356 481 
L 2356 0 
L 1766 0 
Q 1100 0 847 248 
Q 594 497 594 1153 
L 594 3053 
L 172 3053 
L 172 3500 
L 594 3500 
L 594 4494 
L 1172 4494 
z
" id="DejaVuSans-74" transform="scale(0.015625)"/>
       <path d="M 2059 -325 
Q 1816 -950 1584 -1140 
Q 1353 -1331 966 -1331 
L 506 -1331 
L 506 -850 
L 844 -850 
Q 1081 -850 1212 -737 
Q 1344 -625 1503 -206 
L 1606 56 
L 191 3500 
L 800 3500 
L 1894 763 
L 2988 3500 
L 3597 3500 
L 2059 -325 
z
" id="DejaVuSans-79" transform="scale(0.015625)"/>
       <path id="DejaVuSans-20" transform="scale(0.015625)"/>
       <path d="M 3513 2113 
L 3513 0 
L 2938 0 
L 2938 2094 
Q 2938 2591 2744 2837 
Q 2550 3084 2163 3084 
Q 1697 3084 1428 2787 
Q 1159 2491 1159 1978 
L 1159 0 
L 581 0 
L 581 3500 
L 1159 3500 
L 1159 2956 
Q 1366 3272 1645 3428 
Q 1925 3584 2291 3584 
Q 2894 3584 3203 3211 
Q 3513 2838 3513 2113 
z
" id="DejaVuSans-6e" transform="scale(0.015625)"/>
       <path d="M 3513 3500 
L 2247 1797 
L 3578 0 
L 2900 0 
L 1881 1375 
L 863 0 
L 184 0 
L 1544 1831 
L 300 3500 
L 978 3500 
L 1906 2253 
L 2834 3500 
L 3513 3500 
z
" id="DejaVuSans-78" transform="scale(0.015625)"/>
      </defs>
      <use xlink:href="#DejaVuSans-43"/>
      <use x="69.824219" xlink:href="#DejaVuSans-72"/>
      <use x="108.6875" xlink:href="#DejaVuSans-65"/>
      <use x="170.210938" xlink:href="#DejaVuSans-64"/>
      <use x="233.6875" xlink:href="#DejaVuSans-69"/>
      <use x="261.470703" xlink:href="#DejaVuSans-62"/>
      <use x="324.947266" xlink:href="#DejaVuSans-69"/>
      <use x="352.730469" xlink:href="#DejaVuSans-6c"/>
      <use x="380.513672" xlink:href="#DejaVuSans-69"/>
      <use x="408.296875" xlink:href="#DejaVuSans-74"/>
      <use x="447.505859" xlink:href="#DejaVuSans-79"/>
      <use x="506.685547" xlink:href="#DejaVuSans-20"/>
      <use x="538.472656" xlink:href="#DejaVuSans-69"/>
      <use x="566.255859" xlink:href="#DejaVuSans-6e"/>
      <use x="629.634766" xlink:href="#DejaVuSans-64"/>
      <use x="693.111328" xlink:href="#DejaVuSans-65"/>
      <use x="752.884766" xlink:href="#DejaVuSans-78"/>
     </g>
    </g>
   </g>
   <g id="matplotlib.axis_2">
    <g id="ytick_1">
     <g id="line2d_7">
      <defs>
       <path d="M 0 0 
L -3.5 0 
" id="m6149b49b56" style="stroke:#000000;stroke-width:0.8;"/>
      </defs>
      <g>
       <use style="stroke:#000000;stroke-width:0.8;" x="54.2" xlink:href="#m6149b49b56" y="303.64"/>
      </g>
     </g>
     <g id="text_8">
      <!-- 0.00 -->
      <g transform="translate(24.934375 307.439219)scale(0.1 -0.1)">
       <use xlink:href="#DejaVuSans-30"/>
       <use x="63.623047" xlink:href="#DejaVuSans-2e"/>
       <use x="95.410156" xlink:href="#DejaVuSans-30"/>
       <use x="159.033203" xlink:href="#DejaVuSans-30"/>
      </g>
     </g>
    </g>
    <g id="ytick_2">
     <g id="line2d_8">
      <g>
       <use style="stroke:#000000;stroke-width:0.8;" x="54.2" xlink:href="#m6149b49b56" y="270.549278"/>
      </g>
     </g>
     <g id="text_9">
      <!-- 0.25 -->
      <g transform="translate(24.934375 274.348496)scale(0.1 -0.1)">
       <defs>
        <path d="M 691 4666 
L 3169 4666 
L 3169 4134 
L 1269 4134 
L 1269 2991 
Q 1406 3038 1543 3061 
Q 1681 3084 1819 3084 
Q 2600 3084 3056 2656 
Q 3513 2228 3513 1497 
Q 3513 744 3044 326 
Q 2575 -91 1722 -91 
Q 1428 -91 1123 -41 
Q 819 9 494 109 
L 494 744 
Q 775 591 1075 516 
Q 1375 441 1709 441 
Q 2250 441 2565 725 
Q 2881 1009 2881 1497 
Q 2881 1984 2565 2268 
Q 2250 2553 1709 2553 
Q 1456 2553 1204 2497 
Q 953 2441 691 2322 
L 691 4666 
z
" id="DejaVuSans-35" transform="scale(0.015625)"/>
       </defs>
       <use xlink:href="#DejaVuSans-30"/>
       <use x="63.623047" xlink:href="#DejaVuSans-2e"/>
       <use x="95.410156" xlink:href="#DejaVuSans-32"/>
       <use x="159.033203" xlink:href="#DejaVuSans-35"/>
      </g>
     </g>
    </g>
    <g id="ytick_3">
     <g id="line2d_9">
      <g>
       <use style="stroke:#000000;stroke-width:0.8;" x="54.2" xlink:href="#m6149b49b56" y="237.458555"/>
      </g>
     </g>
     <g id="text_10">
      <!-- 0.50 -->
      <g transform="translate(24.934375 241.257774)scale(0.1 -0.1)">
       <use xlink:href="#DejaVuSans-30"/>
       <use x="63.623047" xlink:href="#DejaVuSans-2e"/>
       <use x="95.410156" xlink:href="#DejaVuSans-35"/>
       <use x="159.033203" xlink:href="#DejaVuSans-30"/>
      </g>
     </g>
    </g>
    <g id="ytick_4">
     <g id="line2d_10">
      <g>
       <use style="stroke:#000000;stroke-width:0.8;" x="54.2" xlink:href="#m6149b49b56" y="204.367833"/>
      </g>
     </g>
     <g id="text_11">
      <!-- 0.75 -->
      <g transform="translate(24.934375 208.167052)scale(0.1 -0.1)">
       <defs>
        <path d="M 525 4666 
L 3525 4666 
L 3525 4397 
L 1831 0 
L 1172 0 
L 2766 4134 
L 525 4134 
L 525 4666 
z
" id="DejaVuSans-37" transform="scale(0.015625)"/>
       </defs>
       <use xlink:href="#DejaVuSans-30"/>
       <use x="63.623047" xlink:href="#DejaVuSans-2e"/>
       <use x="95.410156" xlink:href="#DejaVuSans-37"/>
       <use x="159.033203" xlink:href="#DejaVuSans-35"/>
      </g>
     </g>
    </g>
    <g id="ytick_5">
     <g id="line2d_11">
      <g>
       <use style="stroke:#000000;stroke-width:0.8;" x="54.2" xlink:href="#m6149b49b56" y="171.277111"/>
      </g>
     </g>
     <g id="text_12">
      <!-- 1.00 -->
      <g transform="translate(24.934375 175.07633)scale(0.1 -0.1)">
       <use xlink:href="#DejaVuSans-31"/>
       <use x="63.623047" xlink:href="#DejaVuSans-2e"/>
       <use x="95.410156" xlink:href="#DejaVuSans-30"/>
       <use x="159.033203" xlink:href="#DejaVuSans-30"/>
      </g>
     </g>
    </g>
    <g id="ytick_6">
     <g id="line2d_12">
      <g>
       <use style="stroke:#000000;stroke-width:0.8;" x="54.2" xlink:href="#m6149b49b56" y="138.186389"/>
      </g>
     </g>
     <g id="text_13">
      <!-- 1.25 -->
      <g transform="translate(24.934375 141.985607)scale(0.1 -0.1)">
       <use xlink:href="#DejaVuSans-31"/>
       <use x="63.623047" xlink:href="#DejaVuSans-2e"/>
       <use x="95.410156" xlink:href="#DejaVuSans-32"/>
       <use x="159.033203" xlink:href="#DejaVuSans-35"/>
      </g>
     </g>
    </g>
    <g id="ytick_7">
     <g id="line2d_13">
      <g>
       <use style="stroke:#000000;stroke-width:0.8;" x="54.2" xlink:href="#m6149b49b56" y="105.095666"/>
      </g>
     </g>
     <g id="text_14">
      <!-- 1.50 -->
      <g transform="translate(24.934375 108.894885)scale(0.1 -0.1)">
       <use xlink:href="#DejaVuSans-31"/>
       <use x="63.623047" xlink:href="#DejaVuSans-2e"/>
       <use x="95.410156" xlink:href="#DejaVuSans-35"/>
       <use x="159.033203" xlink:href="#DejaVuSans-30"/>
      </g>
     </g>
    </g>
    <g id="ytick_8">
     <g id="line2d_14">
      <g>
       <use style="stroke:#000000;stroke-width:0.8;" x="54.2" xlink:href="#m6149b49b56" y="72.004944"/>
      </g>
     </g>
     <g id="text_15">
      <!-- 1.75 -->
      <g transform="translate(24.934375 75.804163)scale(0.1 -0.1)">
       <use xlink:href="#DejaVuSans-31"/>
       <use x="63.623047" xlink:href="#DejaVuSans-2e"/>
       <use x="95.410156" xlink:href="#DejaVuSans-37"/>
       <use x="159.033203" xlink:href="#DejaVuSans-35"/>
      </g>
     </g>
    </g>
    <g id="ytick_9">
     <g id="line2d_15">
      <g>
       <use style="stroke:#000000;stroke-width:0.8;" x="54.2" xlink:href="#m6149b49b56" y="38.914222"/>
      </g>
     </g>
     <g id="text_16">
      <!-- 2.00 -->
      <g transform="translate(24.934375 42.713441)scale(0.1 -0.1)">
       <use xlink:href="#DejaVuSans-32"/>
       <use x="63.623047" xlink:href="#DejaVuSans-2e"/>
       <use x="95.410156" xlink:href="#DejaVuSans-30"/>
       <use x="159.033203" xlink:href="#DejaVuSans-30"/>
      </g>
     </g>
    </g>
    <g id="text_17">
     <!-- Density -->
     <g transform="translate(18.854688 189.812594)rotate(-90)scale(0.1 -0.1)">
      <defs>
       <path d="M 1259 4147 
L 1259 519 
L 2022 519 
Q 2988 519 3436 956 
Q 3884 1394 3884 2338 
Q 3884 3275 3436 3711 
Q 2988 4147 2022 4147 
L 1259 4147 
z
M 628 4666 
L 1925 4666 
Q 3281 4666 3915 4102 
Q 4550 3538 4550 2338 
Q 4550 1131 3912 565 
Q 3275 0 1925 0 
L 628 0 
L 628 4666 
z
" id="DejaVuSans-44" transform="scale(0.015625)"/>
       <path d="M 2834 3397 
L 2834 2853 
Q 2591 2978 2328 3040 
Q 2066 3103 1784 3103 
Q 1356 3103 1142 2972 
Q 928 2841 928 2578 
Q 928 2378 1081 2264 
Q 1234 2150 1697 2047 
L 1894 2003 
Q 2506 1872 2764 1633 
Q 3022 1394 3022 966 
Q 3022 478 2636 193 
Q 2250 -91 1575 -91 
Q 1294 -91 989 -36 
Q 684 19 347 128 
L 347 722 
Q 666 556 975 473 
Q 1284 391 1588 391 
Q 1994 391 2212 530 
Q 2431 669 2431 922 
Q 2431 1156 2273 1281 
Q 2116 1406 1581 1522 
L 1381 1569 
Q 847 1681 609 1914 
Q 372 2147 372 2553 
Q 372 3047 722 3315 
Q 1072 3584 1716 3584 
Q 2034 3584 2315 3537 
Q 2597 3491 2834 3397 
z
" id="DejaVuSans-73" transform="scale(0.015625)"/>
      </defs>
      <use xlink:href="#DejaVuSans-44"/>
      <use x="77.001953" xlink:href="#DejaVuSans-65"/>
      <use x="138.525391" xlink:href="#DejaVuSans-6e"/>
      <use x="201.904297" xlink:href="#DejaVuSans-73"/>
      <use x="254.003906" xlink:href="#DejaVuSans-69"/>
      <use x="281.787109" xlink:href="#DejaVuSans-74"/>
      <use x="320.996094" xlink:href="#DejaVuSans-79"/>
     </g>
    </g>
   </g>
   <g id="patch_3">
    <path d="M 54.2 303.64 
L 54.2 37.968 
" style="fill:none;stroke:#000000;stroke-linecap:square;stroke-linejoin:miter;stroke-width:0.8;"/>
   </g>
   <g id="patch_4">
    <path d="M 442.035 303.64 
L 442.035 37.968 
" style="fill:none;stroke:#000000;stroke-linecap:square;stroke-linejoin:miter;stroke-width:0.8;"/>
   </g>
   <g id="patch_5">
    <path d="M 54.2 303.64 
L 442.035 303.64 
" style="fill:none;stroke:#000000;stroke-linecap:square;stroke-linejoin:miter;stroke-width:0.8;"/>
   </g>
   <g id="patch_6">
    <path d="M 54.2 37.968 
L 442.035 37.968 
" style="fill:none;stroke:#000000;stroke-linecap:square;stroke-linejoin:miter;stroke-width:0.8;"/>
   </g>
   <g id="text_18">
    <!-- Credibility index consensus vs non consensus  -->
    <g transform="translate(109.01125 18.530625)scale(0.12 -0.12)">
     <defs>
      <path d="M 3122 3366 
L 3122 2828 
Q 2878 2963 2633 3030 
Q 2388 3097 2138 3097 
Q 1578 3097 1268 2742 
Q 959 2388 959 1747 
Q 959 1106 1268 751 
Q 1578 397 2138 397 
Q 2388 397 2633 464 
Q 2878 531 3122 666 
L 3122 134 
Q 2881 22 2623 -34 
Q 2366 -91 2075 -91 
Q 1284 -91 818 406 
Q 353 903 353 1747 
Q 353 2603 823 3093 
Q 1294 3584 2113 3584 
Q 2378 3584 2631 3529 
Q 2884 3475 3122 3366 
z
" id="DejaVuSans-63" transform="scale(0.015625)"/>
      <path d="M 1959 3097 
Q 1497 3097 1228 2736 
Q 959 2375 959 1747 
Q 959 1119 1226 758 
Q 1494 397 1959 397 
Q 2419 397 2687 759 
Q 2956 1122 2956 1747 
Q 2956 2369 2687 2733 
Q 2419 3097 1959 3097 
z
M 1959 3584 
Q 2709 3584 3137 3096 
Q 3566 2609 3566 1747 
Q 3566 888 3137 398 
Q 2709 -91 1959 -91 
Q 1206 -91 779 398 
Q 353 888 353 1747 
Q 353 2609 779 3096 
Q 1206 3584 1959 3584 
z
" id="DejaVuSans-6f" transform="scale(0.015625)"/>
      <path d="M 544 1381 
L 544 3500 
L 1119 3500 
L 1119 1403 
Q 1119 906 1312 657 
Q 1506 409 1894 409 
Q 2359 409 2629 706 
Q 2900 1003 2900 1516 
L 2900 3500 
L 3475 3500 
L 3475 0 
L 2900 0 
L 2900 538 
Q 2691 219 2414 64 
Q 2138 -91 1772 -91 
Q 1169 -91 856 284 
Q 544 659 544 1381 
z
M 1991 3584 
L 1991 3584 
z
" id="DejaVuSans-75" transform="scale(0.015625)"/>
      <path d="M 191 3500 
L 800 3500 
L 1894 563 
L 2988 3500 
L 3597 3500 
L 2284 0 
L 1503 0 
L 191 3500 
z
" id="DejaVuSans-76" transform="scale(0.015625)"/>
     </defs>
     <use xlink:href="#DejaVuSans-43"/>
     <use x="69.824219" xlink:href="#DejaVuSans-72"/>
     <use x="108.6875" xlink:href="#DejaVuSans-65"/>
     <use x="170.210938" xlink:href="#DejaVuSans-64"/>
     <use x="233.6875" xlink:href="#DejaVuSans-69"/>
     <use x="261.470703" xlink:href="#DejaVuSans-62"/>
     <use x="324.947266" xlink:href="#DejaVuSans-69"/>
     <use x="352.730469" xlink:href="#DejaVuSans-6c"/>
     <use x="380.513672" xlink:href="#DejaVuSans-69"/>
     <use x="408.296875" xlink:href="#DejaVuSans-74"/>
     <use x="447.505859" xlink:href="#DejaVuSans-79"/>
     <use x="506.685547" xlink:href="#DejaVuSans-20"/>
     <use x="538.472656" xlink:href="#DejaVuSans-69"/>
     <use x="566.255859" xlink:href="#DejaVuSans-6e"/>
     <use x="629.634766" xlink:href="#DejaVuSans-64"/>
     <use x="693.111328" xlink:href="#DejaVuSans-65"/>
     <use x="752.884766" xlink:href="#DejaVuSans-78"/>
     <use x="812.064453" xlink:href="#DejaVuSans-20"/>
     <use x="843.851562" xlink:href="#DejaVuSans-63"/>
     <use x="898.832031" xlink:href="#DejaVuSans-6f"/>
     <use x="960.013672" xlink:href="#DejaVuSans-6e"/>
     <use x="1023.392578" xlink:href="#DejaVuSans-73"/>
     <use x="1075.492188" xlink:href="#DejaVuSans-65"/>
     <use x="1137.015625" xlink:href="#DejaVuSans-6e"/>
     <use x="1200.394531" xlink:href="#DejaVuSans-73"/>
     <use x="1252.494141" xlink:href="#DejaVuSans-75"/>
     <use x="1315.873047" xlink:href="#DejaVuSans-73"/>
     <use x="1367.972656" xlink:href="#DejaVuSans-20"/>
     <use x="1399.759766" xlink:href="#DejaVuSans-76"/>
     <use x="1458.939453" xlink:href="#DejaVuSans-73"/>
     <use x="1511.039062" xlink:href="#DejaVuSans-20"/>
     <use x="1542.826172" xlink:href="#DejaVuSans-6e"/>
     <use x="1606.205078" xlink:href="#DejaVuSans-6f"/>
     <use x="1667.386719" xlink:href="#DejaVuSans-6e"/>
     <use x="1730.765625" xlink:href="#DejaVuSans-20"/>
     <use x="1762.552734" xlink:href="#DejaVuSans-63"/>
     <use x="1817.533203" xlink:href="#DejaVuSans-6f"/>
     <use x="1878.714844" xlink:href="#DejaVuSans-6e"/>
     <use x="1942.09375" xlink:href="#DejaVuSans-73"/>
     <use x="1994.193359" xlink:href="#DejaVuSans-65"/>
     <use x="2055.716797" xlink:href="#DejaVuSans-6e"/>
     <use x="2119.095703" xlink:href="#DejaVuSans-73"/>
     <use x="2171.195312" xlink:href="#DejaVuSans-75"/>
     <use x="2234.574219" xlink:href="#DejaVuSans-73"/>
     <use x="2286.673828" xlink:href="#DejaVuSans-20"/>
    </g>
    <!-- Set big -->
    <g transform="translate(227.0725 31.968)scale(0.12 -0.12)">
     <defs>
      <path d="M 3425 4513 
L 3425 3897 
Q 3066 4069 2747 4153 
Q 2428 4238 2131 4238 
Q 1616 4238 1336 4038 
Q 1056 3838 1056 3469 
Q 1056 3159 1242 3001 
Q 1428 2844 1947 2747 
L 2328 2669 
Q 3034 2534 3370 2195 
Q 3706 1856 3706 1288 
Q 3706 609 3251 259 
Q 2797 -91 1919 -91 
Q 1588 -91 1214 -16 
Q 841 59 441 206 
L 441 856 
Q 825 641 1194 531 
Q 1563 422 1919 422 
Q 2459 422 2753 634 
Q 3047 847 3047 1241 
Q 3047 1584 2836 1778 
Q 2625 1972 2144 2069 
L 1759 2144 
Q 1053 2284 737 2584 
Q 422 2884 422 3419 
Q 422 4038 858 4394 
Q 1294 4750 2059 4750 
Q 2388 4750 2728 4690 
Q 3069 4631 3425 4513 
z
" id="DejaVuSans-53" transform="scale(0.015625)"/>
      <path d="M 2906 1791 
Q 2906 2416 2648 2759 
Q 2391 3103 1925 3103 
Q 1463 3103 1205 2759 
Q 947 2416 947 1791 
Q 947 1169 1205 825 
Q 1463 481 1925 481 
Q 2391 481 2648 825 
Q 2906 1169 2906 1791 
z
M 3481 434 
Q 3481 -459 3084 -895 
Q 2688 -1331 1869 -1331 
Q 1566 -1331 1297 -1286 
Q 1028 -1241 775 -1147 
L 775 -588 
Q 1028 -725 1275 -790 
Q 1522 -856 1778 -856 
Q 2344 -856 2625 -561 
Q 2906 -266 2906 331 
L 2906 616 
Q 2728 306 2450 153 
Q 2172 0 1784 0 
Q 1141 0 747 490 
Q 353 981 353 1791 
Q 353 2603 747 3093 
Q 1141 3584 1784 3584 
Q 2172 3584 2450 3431 
Q 2728 3278 2906 2969 
L 2906 3500 
L 3481 3500 
L 3481 434 
z
" id="DejaVuSans-67" transform="scale(0.015625)"/>
     </defs>
     <use xlink:href="#DejaVuSans-53"/>
     <use x="63.476562" xlink:href="#DejaVuSans-65"/>
     <use x="125" xlink:href="#DejaVuSans-74"/>
     <use x="164.208984" xlink:href="#DejaVuSans-20"/>
     <use x="195.996094" xlink:href="#DejaVuSans-62"/>
     <use x="259.472656" xlink:href="#DejaVuSans-69"/>
     <use x="287.255859" xlink:href="#DejaVuSans-67"/>
    </g>
   </g>
   <g id="legend_1">
    <g id="patch_7">
     <path d="M 61.2 97.719875 
L 231.742188 97.719875 
Q 233.742188 97.719875 233.742188 95.719875 
L 233.742188 44.968 
Q 233.742188 42.968 231.742188 42.968 
L 61.2 42.968 
Q 59.2 42.968 59.2 44.968 
L 59.2 95.719875 
Q 59.2 97.719875 61.2 97.719875 
z
" style="fill:#ffffff;opacity:0.8;stroke:#cccccc;stroke-linejoin:miter;"/>
    </g>
    <g id="patch_8">
     <path d="M 63.2 61.205188 
L 83.2 61.205188 
L 83.2 54.205188 
L 63.2 54.205188 
z
" style="fill:#1f77b4;fill-opacity:0.4;stroke:#1f77b4;stroke-linejoin:miter;"/>
    </g>
    <g id="text_19">
     <!-- Correlation higher than 0  -->
     <g transform="translate(91.2 54.566438)scale(0.1 -0.1)">
      <defs>
       <path d="M 2194 1759 
Q 1497 1759 1228 1600 
Q 959 1441 959 1056 
Q 959 750 1161 570 
Q 1363 391 1709 391 
Q 2188 391 2477 730 
Q 2766 1069 2766 1631 
L 2766 1759 
L 2194 1759 
z
M 3341 1997 
L 3341 0 
L 2766 0 
L 2766 531 
Q 2569 213 2275 61 
Q 1981 -91 1556 -91 
Q 1019 -91 701 211 
Q 384 513 384 1019 
Q 384 1609 779 1909 
Q 1175 2209 1959 2209 
L 2766 2209 
L 2766 2266 
Q 2766 2663 2505 2880 
Q 2244 3097 1772 3097 
Q 1472 3097 1187 3025 
Q 903 2953 641 2809 
L 641 3341 
Q 956 3463 1253 3523 
Q 1550 3584 1831 3584 
Q 2591 3584 2966 3190 
Q 3341 2797 3341 1997 
z
" id="DejaVuSans-61" transform="scale(0.015625)"/>
       <path d="M 3513 2113 
L 3513 0 
L 2938 0 
L 2938 2094 
Q 2938 2591 2744 2837 
Q 2550 3084 2163 3084 
Q 1697 3084 1428 2787 
Q 1159 2491 1159 1978 
L 1159 0 
L 581 0 
L 581 4863 
L 1159 4863 
L 1159 2956 
Q 1366 3272 1645 3428 
Q 1925 3584 2291 3584 
Q 2894 3584 3203 3211 
Q 3513 2838 3513 2113 
z
" id="DejaVuSans-68" transform="scale(0.015625)"/>
      </defs>
      <use xlink:href="#DejaVuSans-43"/>
      <use x="69.824219" xlink:href="#DejaVuSans-6f"/>
      <use x="131.005859" xlink:href="#DejaVuSans-72"/>
      <use x="170.369141" xlink:href="#DejaVuSans-72"/>
      <use x="209.232422" xlink:href="#DejaVuSans-65"/>
      <use x="270.755859" xlink:href="#DejaVuSans-6c"/>
      <use x="298.539062" xlink:href="#DejaVuSans-61"/>
      <use x="359.818359" xlink:href="#DejaVuSans-74"/>
      <use x="399.027344" xlink:href="#DejaVuSans-69"/>
      <use x="426.810547" xlink:href="#DejaVuSans-6f"/>
      <use x="487.992188" xlink:href="#DejaVuSans-6e"/>
      <use x="551.371094" xlink:href="#DejaVuSans-20"/>
      <use x="583.158203" xlink:href="#DejaVuSans-68"/>
      <use x="646.537109" xlink:href="#DejaVuSans-69"/>
      <use x="674.320312" xlink:href="#DejaVuSans-67"/>
      <use x="737.796875" xlink:href="#DejaVuSans-68"/>
      <use x="801.175781" xlink:href="#DejaVuSans-65"/>
      <use x="862.699219" xlink:href="#DejaVuSans-72"/>
      <use x="903.8125" xlink:href="#DejaVuSans-20"/>
      <use x="935.599609" xlink:href="#DejaVuSans-74"/>
      <use x="974.808594" xlink:href="#DejaVuSans-68"/>
      <use x="1038.1875" xlink:href="#DejaVuSans-61"/>
      <use x="1099.466797" xlink:href="#DejaVuSans-6e"/>
      <use x="1162.845703" xlink:href="#DejaVuSans-20"/>
      <use x="1194.632812" xlink:href="#DejaVuSans-30"/>
      <use x="1258.255859" xlink:href="#DejaVuSans-20"/>
     </g>
     <!-- n=171 -->
     <g transform="translate(91.2 65.76425)scale(0.1 -0.1)">
      <defs>
       <path d="M 678 2906 
L 4684 2906 
L 4684 2381 
L 678 2381 
L 678 2906 
z
M 678 1631 
L 4684 1631 
L 4684 1100 
L 678 1100 
L 678 1631 
z
" id="DejaVuSans-3d" transform="scale(0.015625)"/>
      </defs>
      <use xlink:href="#DejaVuSans-6e"/>
      <use x="63.378906" xlink:href="#DejaVuSans-3d"/>
      <use x="147.167969" xlink:href="#DejaVuSans-31"/>
      <use x="210.791016" xlink:href="#DejaVuSans-37"/>
      <use x="274.414062" xlink:href="#DejaVuSans-31"/>
     </g>
    </g>
    <g id="patch_9">
     <path d="M 63.2 87.081125 
L 83.2 87.081125 
L 83.2 80.081125 
L 63.2 80.081125 
z
" style="fill:#ff7f0e;fill-opacity:0.4;stroke:#ff7f0e;stroke-linejoin:miter;"/>
    </g>
    <g id="text_20">
     <!-- Correlation higher than 0.8  -->
     <g transform="translate(91.2 80.442375)scale(0.1 -0.1)">
      <use xlink:href="#DejaVuSans-43"/>
      <use x="69.824219" xlink:href="#DejaVuSans-6f"/>
      <use x="131.005859" xlink:href="#DejaVuSans-72"/>
      <use x="170.369141" xlink:href="#DejaVuSans-72"/>
      <use x="209.232422" xlink:href="#DejaVuSans-65"/>
      <use x="270.755859" xlink:href="#DejaVuSans-6c"/>
      <use x="298.539062" xlink:href="#DejaVuSans-61"/>
      <use x="359.818359" xlink:href="#DejaVuSans-74"/>
      <use x="399.027344" xlink:href="#DejaVuSans-69"/>
      <use x="426.810547" xlink:href="#DejaVuSans-6f"/>
      <use x="487.992188" xlink:href="#DejaVuSans-6e"/>
      <use x="551.371094" xlink:href="#DejaVuSans-20"/>
      <use x="583.158203" xlink:href="#DejaVuSans-68"/>
      <use x="646.537109" xlink:href="#DejaVuSans-69"/>
      <use x="674.320312" xlink:href="#DejaVuSans-67"/>
      <use x="737.796875" xlink:href="#DejaVuSans-68"/>
      <use x="801.175781" xlink:href="#DejaVuSans-65"/>
      <use x="862.699219" xlink:href="#DejaVuSans-72"/>
      <use x="903.8125" xlink:href="#DejaVuSans-20"/>
      <use x="935.599609" xlink:href="#DejaVuSans-74"/>
      <use x="974.808594" xlink:href="#DejaVuSans-68"/>
      <use x="1038.1875" xlink:href="#DejaVuSans-61"/>
      <use x="1099.466797" xlink:href="#DejaVuSans-6e"/>
      <use x="1162.845703" xlink:href="#DejaVuSans-20"/>
      <use x="1194.632812" xlink:href="#DejaVuSans-30"/>
      <use x="1258.255859" xlink:href="#DejaVuSans-2e"/>
      <use x="1290.042969" xlink:href="#DejaVuSans-38"/>
      <use x="1353.666016" xlink:href="#DejaVuSans-20"/>
     </g>
     <!-- n=105 -->
     <g transform="translate(91.2 91.640187)scale(0.1 -0.1)">
      <use xlink:href="#DejaVuSans-6e"/>
      <use x="63.378906" xlink:href="#DejaVuSans-3d"/>
      <use x="147.167969" xlink:href="#DejaVuSans-31"/>
      <use x="210.791016" xlink:href="#DejaVuSans-30"/>
      <use x="274.414062" xlink:href="#DejaVuSans-35"/>
     </g>
    </g>
   </g>
  </g>
 </g>
 <defs>
  <clipPath id="pef8ebd1d69">
   <rect height="265.672" width="387.835" x="54.2" y="37.968"/>
  </clipPath>
 </defs>
</svg>
