<?xml version="1.0" encoding="utf-8" standalone="no"?>
<!DOCTYPE svg PUBLIC "-//W3C//DTD SVG 1.1//EN"
  "http://www.w3.org/Graphics/SVG/1.1/DTD/svg11.dtd">
<svg height="345.6pt" version="1.1" viewBox="0 0 460.8 345.6" width="460.8pt" xmlns="http://www.w3.org/2000/svg" xmlns:xlink="http://www.w3.org/1999/xlink">
 <metadata>
  <rdf:RDF xmlns:cc="http://creativecommons.org/ns#" xmlns:dc="http://purl.org/dc/elements/1.1/" xmlns:rdf="http://www.w3.org/1999/02/22-rdf-syntax-ns#">
   <cc:Work>
    <dc:type rdf:resource="http://purl.org/dc/dcmitype/StillImage"/>
    <dc:date>2021-11-24T22:45:51.105161</dc:date>
    <dc:format>image/svg+xml</dc:format>
    <dc:creator>
     <cc:Agent>
      <dc:title>Matplotlib v3.4.3, https://matplotlib.org/</dc:title>
     </cc:Agent>
    </dc:creator>
   </cc:Work>
  </rdf:RDF>
 </metadata>
 <defs>
  <style type="text/css">*{stroke-linecap:butt;stroke-linejoin:round;}</style>
 </defs>
 <g id="figure_1">
  <g id="patch_1">
   <path d="M 0 345.6 
L 460.8 345.6 
L 460.8 0 
L 0 0 
z
" style="fill:#ffffff;"/>
  </g>
  <g id="axes_1">
   <g id="patch_2">
    <path d="M 54.2 303.64 
L 442.035 303.64 
L 442.035 37.968 
L 54.2 37.968 
z
" style="fill:#ffffff;"/>
   </g>
   <g id="PolyCollection_1">
    <path clip-path="url(#p6543b35078)" d="M -21.384717 303.456627 
L -21.384717 303.64 
L -18.442282 303.64 
L -15.499846 303.64 
L -12.557411 303.64 
L -9.614976 303.64 
L -6.67254 303.64 
L -3.730105 303.64 
L -0.78767 303.64 
L 2.154766 303.64 
L 5.097201 303.64 
L 8.039636 303.64 
L 10.982072 303.64 
L 13.924507 303.64 
L 16.866942 303.64 
L 19.809378 303.64 
L 22.751813 303.64 
L 25.694249 303.64 
L 28.636684 303.64 
L 31.579119 303.64 
L 34.521555 303.64 
L 37.46399 303.64 
L 40.406425 303.64 
L 43.348861 303.64 
L 46.291296 303.64 
L 49.233731 303.64 
L 52.176167 303.64 
L 55.118602 303.64 
L 58.061037 303.64 
L 61.003473 303.64 
L 63.945908 303.64 
L 66.888343 303.64 
L 69.830779 303.64 
L 72.773214 303.64 
L 75.715649 303.64 
L 78.658085 303.64 
L 81.60052 303.64 
L 84.542955 303.64 
L 87.485391 303.64 
L 90.427826 303.64 
L 93.370262 303.64 
L 96.312697 303.64 
L 99.255132 303.64 
L 102.197568 303.64 
L 105.140003 303.64 
L 108.082438 303.64 
L 111.024874 303.64 
L 113.967309 303.64 
L 116.909744 303.64 
L 119.85218 303.64 
L 122.794615 303.64 
L 125.73705 303.64 
L 128.679486 303.64 
L 131.621921 303.64 
L 134.564356 303.64 
L 137.506792 303.64 
L 140.449227 303.64 
L 143.391662 303.64 
L 146.334098 303.64 
L 149.276533 303.64 
L 152.218968 303.64 
L 155.161404 303.64 
L 158.103839 303.64 
L 161.046274 303.64 
L 163.98871 303.64 
L 166.931145 303.64 
L 169.873581 303.64 
L 172.816016 303.64 
L 175.758451 303.64 
L 178.700887 303.64 
L 181.643322 303.64 
L 184.585757 303.64 
L 187.528193 303.64 
L 190.470628 303.64 
L 193.413063 303.64 
L 196.355499 303.64 
L 199.297934 303.64 
L 202.240369 303.64 
L 205.182805 303.64 
L 208.12524 303.64 
L 211.067675 303.64 
L 214.010111 303.64 
L 216.952546 303.64 
L 219.894981 303.64 
L 222.837417 303.64 
L 225.779852 303.64 
L 228.722287 303.64 
L 231.664723 303.64 
L 234.607158 303.64 
L 237.549594 303.64 
L 240.492029 303.64 
L 243.434464 303.64 
L 246.3769 303.64 
L 249.319335 303.64 
L 252.26177 303.64 
L 255.204206 303.64 
L 258.146641 303.64 
L 261.089076 303.64 
L 264.031512 303.64 
L 266.973947 303.64 
L 269.916382 303.64 
L 272.858818 303.64 
L 275.801253 303.64 
L 278.743688 303.64 
L 281.686124 303.64 
L 284.628559 303.64 
L 287.570994 303.64 
L 290.51343 303.64 
L 293.455865 303.64 
L 296.3983 303.64 
L 299.340736 303.64 
L 302.283171 303.64 
L 305.225606 303.64 
L 308.168042 303.64 
L 311.110477 303.64 
L 314.052913 303.64 
L 316.995348 303.64 
L 319.937783 303.64 
L 322.880219 303.64 
L 325.822654 303.64 
L 328.765089 303.64 
L 331.707525 303.64 
L 334.64996 303.64 
L 337.592395 303.64 
L 340.534831 303.64 
L 343.477266 303.64 
L 346.419701 303.64 
L 349.362137 303.64 
L 352.304572 303.64 
L 355.247007 303.64 
L 358.189443 303.64 
L 361.131878 303.64 
L 364.074313 303.64 
L 367.016749 303.64 
L 369.959184 303.64 
L 372.901619 303.64 
L 375.844055 303.64 
L 378.78649 303.64 
L 381.728926 303.64 
L 384.671361 303.64 
L 387.613796 303.64 
L 390.556232 303.64 
L 393.498667 303.64 
L 396.441102 303.64 
L 399.383538 303.64 
L 402.325973 303.64 
L 405.268408 303.64 
L 408.210844 303.64 
L 411.153279 303.64 
L 414.095714 303.64 
L 417.03815 303.64 
L 419.980585 303.64 
L 422.92302 303.64 
L 425.865456 303.64 
L 428.807891 303.64 
L 431.750326 303.64 
L 434.692762 303.64 
L 437.635197 303.64 
L 440.577632 303.64 
L 443.520068 303.64 
L 446.462503 303.64 
L 449.404938 303.64 
L 452.347374 303.64 
L 455.289809 303.64 
L 458.232245 303.64 
L 461.17468 303.64 
L 464.117115 303.64 
L 467.059551 303.64 
L 470.001986 303.64 
L 472.944421 303.64 
L 475.886857 303.64 
L 478.829292 303.64 
L 481.771727 303.64 
L 484.714163 303.64 
L 487.656598 303.64 
L 490.599033 303.64 
L 493.541469 303.64 
L 496.483904 303.64 
L 499.426339 303.64 
L 502.368775 303.64 
L 505.31121 303.64 
L 508.253645 303.64 
L 511.196081 303.64 
L 514.138516 303.64 
L 517.080951 303.64 
L 520.023387 303.64 
L 522.965822 303.64 
L 525.908258 303.64 
L 528.850693 303.64 
L 531.793128 303.64 
L 534.735564 303.64 
L 537.677999 303.64 
L 540.620434 303.64 
L 543.56287 303.64 
L 546.505305 303.64 
L 549.44774 303.64 
L 552.390176 303.64 
L 555.332611 303.64 
L 558.275046 303.64 
L 561.217482 303.64 
L 564.159917 303.64 
L 564.159917 301.44853 
L 564.159917 301.44853 
L 561.217482 300.920555 
L 558.275046 300.282727 
L 555.332611 299.516593 
L 552.390176 298.601624 
L 549.44774 297.515203 
L 546.505305 296.232673 
L 543.56287 294.727446 
L 540.620434 292.971194 
L 537.677999 290.934117 
L 534.735564 288.585308 
L 531.793128 285.89322 
L 528.850693 282.826223 
L 525.908258 279.353274 
L 522.965822 275.444672 
L 520.023387 271.072903 
L 517.080951 266.213556 
L 514.138516 260.8463 
L 511.196081 254.955873 
L 508.253645 248.533094 
L 505.31121 241.575827 
L 502.368775 234.089885 
L 499.426339 226.089835 
L 496.483904 217.599652 
L 493.541469 208.653205 
L 490.599033 199.294524 
L 487.656598 189.577829 
L 484.714163 179.567293 
L 481.771727 169.336522 
L 478.829292 158.967754 
L 475.886857 148.55077 
L 472.944421 138.181533 
L 470.001986 127.960594 
L 467.059551 117.991275 
L 464.117115 108.377705 
L 461.17468 99.222736 
L 458.232245 90.625817 
L 455.289809 82.680883 
L 452.347374 75.474325 
L 449.404938 69.083107 
L 446.462503 63.573097 
L 443.520068 58.997653 
L 440.577632 55.396524 
L 437.635197 52.795092 
L 434.692762 51.203982 
L 431.750326 50.619048 
L 428.807891 51.021729 
L 425.865456 52.379764 
L 422.92302 54.648223 
L 419.980585 57.770828 
L 417.03815 61.681509 
L 414.095714 66.306127 
L 411.153279 71.56433 
L 408.210844 77.371446 
L 405.268408 83.640386 
L 402.325973 90.283478 
L 399.383538 97.214183 
L 396.441102 104.348662 
L 393.498667 111.607144 
L 390.556232 118.915077 
L 387.613796 126.204047 
L 384.671361 133.412455 
L 381.728926 140.485955 
L 378.78649 147.377676 
L 375.844055 154.048223 
L 372.901619 160.465504 
L 369.959184 166.604401 
L 367.016749 172.446314 
L 364.074313 177.978604 
L 361.131878 183.193985 
L 358.189443 188.089873 
L 355.247007 192.667724 
L 352.304572 196.93239 
L 349.362137 200.891509 
L 346.419701 204.554938 
L 343.477266 207.934246 
L 340.534831 211.042273 
L 337.592395 213.892753 
L 334.64996 216.500003 
L 331.707525 218.87868 
L 328.765089 221.043588 
L 325.822654 223.009543 
L 322.880219 224.791268 
L 319.937783 226.403335 
L 316.995348 227.86012 
L 314.052913 229.175776 
L 311.110477 230.364216 
L 308.168042 231.439091 
L 305.225606 232.413775 
L 302.283171 233.301324 
L 299.340736 234.11444 
L 296.3983 234.86541 
L 293.455865 235.56604 
L 290.51343 236.227573 
L 287.570994 236.860598 
L 284.628559 237.474952 
L 281.686124 238.079617 
L 278.743688 238.682624 
L 275.801253 239.290953 
L 272.858818 239.910445 
L 269.916382 240.545729 
L 266.973947 241.200161 
L 264.031512 241.875785 
L 261.089076 242.573311 
L 258.146641 243.292123 
L 255.204206 244.0303 
L 252.26177 244.784675 
L 249.319335 245.550908 
L 246.3769 246.323586 
L 243.434464 247.096345 
L 240.492029 247.862015 
L 237.549594 248.612774 
L 234.607158 249.340328 
L 231.664723 250.0361 
L 228.722287 250.691418 
L 225.779852 251.297725 
L 222.837417 251.846781 
L 219.894981 252.330862 
L 216.952546 252.742956 
L 214.010111 253.076955 
L 211.067675 253.327823 
L 208.12524 253.491757 
L 205.182805 253.566318 
L 202.240369 253.550549 
L 199.297934 253.44506 
L 196.355499 253.252084 
L 193.413063 252.975505 
L 190.470628 252.620851 
L 187.528193 252.195258 
L 184.585757 251.707396 
L 181.643322 251.167369 
L 178.700887 250.58658 
L 175.758451 249.977571 
L 172.816016 249.353835 
L 169.873581 248.729607 
L 166.931145 248.119643 
L 163.98871 247.538979 
L 161.046274 247.002685 
L 158.103839 246.525617 
L 155.161404 246.122168 
L 152.218968 245.806034 
L 149.276533 245.589976 
L 146.334098 245.485617 
L 143.391662 245.503245 
L 140.449227 245.651642 
L 137.506792 245.937948 
L 134.564356 246.36754 
L 131.621921 246.943956 
L 128.679486 247.668837 
L 125.73705 248.541914 
L 122.794615 249.561015 
L 119.85218 250.72212 
L 116.909744 252.019425 
L 113.967309 253.445458 
L 111.024874 254.991205 
L 108.082438 256.646267 
L 105.140003 258.399039 
L 102.197568 260.236905 
L 99.255132 262.146444 
L 96.312697 264.113652 
L 93.370262 266.124161 
L 90.427826 268.163469 
L 87.485391 270.217157 
L 84.542955 272.271102 
L 81.60052 274.311679 
L 78.658085 276.325945 
L 75.715649 278.301804 
L 72.773214 280.22815 
L 69.830779 282.094985 
L 66.888343 283.893512 
L 63.945908 285.616199 
L 61.003473 287.256814 
L 58.061037 288.810442 
L 55.118602 290.273463 
L 52.176167 291.643519 
L 49.233731 292.91945 
L 46.291296 294.101218 
L 43.348861 295.189811 
L 40.406425 296.187139 
L 37.46399 297.095919 
L 34.521555 297.919556 
L 31.579119 298.662019 
L 28.636684 299.327723 
L 25.694249 299.921415 
L 22.751813 300.448059 
L 19.809378 300.912737 
L 16.866942 301.320559 
L 13.924507 301.676578 
L 10.982072 301.985725 
L 8.039636 302.252744 
L 5.097201 302.482153 
L 2.154766 302.678205 
L -0.78767 302.844863 
L -3.730105 302.985782 
L -6.67254 303.104307 
L -9.614976 303.203469 
L -12.557411 303.285992 
L -15.499846 303.354304 
L -18.442282 303.410554 
L -21.384717 303.456627 
z
" style="fill:#1f77b4;fill-opacity:0.4;stroke:#1f77b4;"/>
   </g>
   <g id="PolyCollection_2">
    <path clip-path="url(#p6543b35078)" d="M 97.698678 302.762697 
L 97.698678 303.64 
L 100.30182 303.64 
L 102.904962 303.64 
L 105.508104 303.64 
L 108.111246 303.64 
L 110.714388 303.64 
L 113.31753 303.64 
L 115.920672 303.64 
L 118.523814 303.64 
L 121.126956 303.64 
L 123.730098 303.64 
L 126.33324 303.64 
L 128.936382 303.64 
L 131.539524 303.64 
L 134.142665 303.64 
L 136.745807 303.64 
L 139.348949 303.64 
L 141.952091 303.64 
L 144.555233 303.64 
L 147.158375 303.64 
L 149.761517 303.64 
L 152.364659 303.64 
L 154.967801 303.64 
L 157.570943 303.64 
L 160.174085 303.64 
L 162.777227 303.64 
L 165.380369 303.64 
L 167.98351 303.64 
L 170.586652 303.64 
L 173.189794 303.64 
L 175.792936 303.64 
L 178.396078 303.64 
L 180.99922 303.64 
L 183.602362 303.64 
L 186.205504 303.64 
L 188.808646 303.64 
L 191.411788 303.64 
L 194.01493 303.64 
L 196.618072 303.64 
L 199.221214 303.64 
L 201.824355 303.64 
L 204.427497 303.64 
L 207.030639 303.64 
L 209.633781 303.64 
L 212.236923 303.64 
L 214.840065 303.64 
L 217.443207 303.64 
L 220.046349 303.64 
L 222.649491 303.64 
L 225.252633 303.64 
L 227.855775 303.64 
L 230.458917 303.64 
L 233.062059 303.64 
L 235.665201 303.64 
L 238.268342 303.64 
L 240.871484 303.64 
L 243.474626 303.64 
L 246.077768 303.64 
L 248.68091 303.64 
L 251.284052 303.64 
L 253.887194 303.64 
L 256.490336 303.64 
L 259.093478 303.64 
L 261.69662 303.64 
L 264.299762 303.64 
L 266.902904 303.64 
L 269.506046 303.64 
L 272.109187 303.64 
L 274.712329 303.64 
L 277.315471 303.64 
L 279.918613 303.64 
L 282.521755 303.64 
L 285.124897 303.64 
L 287.728039 303.64 
L 290.331181 303.64 
L 292.934323 303.64 
L 295.537465 303.64 
L 298.140607 303.64 
L 300.743749 303.64 
L 303.346891 303.64 
L 305.950032 303.64 
L 308.553174 303.64 
L 311.156316 303.64 
L 313.759458 303.64 
L 316.3626 303.64 
L 318.965742 303.64 
L 321.568884 303.64 
L 324.172026 303.64 
L 326.775168 303.64 
L 329.37831 303.64 
L 331.981452 303.64 
L 334.584594 303.64 
L 337.187736 303.64 
L 339.790877 303.64 
L 342.394019 303.64 
L 344.997161 303.64 
L 347.600303 303.64 
L 350.203445 303.64 
L 352.806587 303.64 
L 355.409729 303.64 
L 358.012871 303.64 
L 360.616013 303.64 
L 363.219155 303.64 
L 365.822297 303.64 
L 368.425439 303.64 
L 371.028581 303.64 
L 373.631723 303.64 
L 376.234864 303.64 
L 378.838006 303.64 
L 381.441148 303.64 
L 384.04429 303.64 
L 386.647432 303.64 
L 389.250574 303.64 
L 391.853716 303.64 
L 394.456858 303.64 
L 397.06 303.64 
L 399.663142 303.64 
L 402.266284 303.64 
L 404.869426 303.64 
L 407.472568 303.64 
L 410.075709 303.64 
L 412.678851 303.64 
L 415.281993 303.64 
L 417.885135 303.64 
L 420.488277 303.64 
L 423.091419 303.64 
L 425.694561 303.64 
L 428.297703 303.64 
L 430.900845 303.64 
L 433.503987 303.64 
L 436.107129 303.64 
L 438.710271 303.64 
L 441.313413 303.64 
L 443.916554 303.64 
L 446.519696 303.64 
L 449.122838 303.64 
L 451.72598 303.64 
L 454.329122 303.64 
L 456.932264 303.64 
L 459.535406 303.64 
L 462.138548 303.64 
L 464.74169 303.64 
L 467.344832 303.64 
L 469.947974 303.64 
L 472.551116 303.64 
L 475.154258 303.64 
L 477.757399 303.64 
L 480.360541 303.64 
L 482.963683 303.64 
L 485.566825 303.64 
L 488.169967 303.64 
L 490.773109 303.64 
L 493.376251 303.64 
L 495.979393 303.64 
L 498.582535 303.64 
L 501.185677 303.64 
L 503.788819 303.64 
L 506.391961 303.64 
L 508.995103 303.64 
L 511.598245 303.64 
L 514.201386 303.64 
L 516.804528 303.64 
L 519.40767 303.64 
L 522.010812 303.64 
L 524.613954 303.64 
L 527.217096 303.64 
L 529.820238 303.64 
L 532.42338 303.64 
L 535.026522 303.64 
L 537.629664 303.64 
L 540.232806 303.64 
L 542.835948 303.64 
L 545.43909 303.64 
L 548.042231 303.64 
L 550.645373 303.64 
L 553.248515 303.64 
L 555.851657 303.64 
L 558.454799 303.64 
L 561.057941 303.64 
L 563.661083 303.64 
L 566.264225 303.64 
L 568.867367 303.64 
L 571.470509 303.64 
L 574.073651 303.64 
L 576.676793 303.64 
L 579.279935 303.64 
L 581.883076 303.64 
L 584.486218 303.64 
L 587.08936 303.64 
L 589.692502 303.64 
L 592.295644 303.64 
L 594.898786 303.64 
L 597.501928 303.64 
L 600.10507 303.64 
L 602.708212 303.64 
L 605.311354 303.64 
L 607.914496 303.64 
L 610.517638 303.64 
L 613.12078 303.64 
L 615.723922 303.64 
L 615.723922 302.458283 
L 615.723922 302.458283 
L 613.12078 302.280512 
L 610.517638 302.07898 
L 607.914496 301.85099 
L 605.311354 301.593608 
L 602.708212 301.303652 
L 600.10507 300.977686 
L 597.501928 300.612009 
L 594.898786 300.202649 
L 592.295644 299.745354 
L 589.692502 299.235596 
L 587.08936 298.668563 
L 584.486218 298.039164 
L 581.883076 297.342032 
L 579.279935 296.571534 
L 576.676793 295.721782 
L 574.073651 294.786646 
L 571.470509 293.759778 
L 568.867367 292.634634 
L 566.264225 291.4045 
L 563.661083 290.062533 
L 561.057941 288.601795 
L 558.454799 287.015297 
L 555.851657 285.296053 
L 553.248515 283.43713 
L 550.645373 281.431711 
L 548.042231 279.273158 
L 545.43909 276.955083 
L 542.835948 274.471423 
L 540.232806 271.816516 
L 537.629664 268.985182 
L 535.026522 265.97281 
L 532.42338 262.775441 
L 529.820238 259.389857 
L 527.217096 255.813669 
L 524.613954 252.045401 
L 522.010812 248.084579 
L 519.40767 243.931809 
L 516.804528 239.588856 
L 514.201386 235.058719 
L 511.598245 230.345692 
L 508.995103 225.455427 
L 506.391961 220.394976 
L 503.788819 215.172837 
L 501.185677 209.798973 
L 498.582535 204.284831 
L 495.979393 198.643342 
L 493.376251 192.888902 
L 490.773109 187.03735 
L 488.169967 181.105917 
L 485.566825 175.113165 
L 482.963683 169.078914 
L 480.360541 163.024142 
L 477.757399 156.97088 
L 475.154258 150.942081 
L 472.551116 144.961485 
L 469.947974 139.053457 
L 467.344832 133.242828 
L 464.74169 127.554706 
L 462.138548 122.014297 
L 459.535406 116.646699 
L 456.932264 111.476703 
L 454.329122 106.528587 
L 451.72598 101.825904 
L 449.122838 97.391272 
L 446.519696 93.246173 
L 443.916554 89.410751 
L 441.313413 85.903617 
L 438.710271 82.741671 
L 436.107129 79.939931 
L 433.503987 77.511379 
L 430.900845 75.466824 
L 428.297703 73.814783 
L 425.694561 72.561386 
L 423.091419 71.710295 
L 420.488277 71.262658 
L 417.885135 71.217078 
L 415.281993 71.56961 
L 412.678851 72.313784 
L 410.075709 73.440651 
L 407.472568 74.938859 
L 404.869426 76.794744 
L 402.266284 78.992455 
L 399.663142 81.514093 
L 397.06 84.339872 
L 394.456858 87.448304 
L 391.853716 90.816392 
L 389.250574 94.419843 
L 386.647432 98.233296 
L 384.04429 102.230546 
L 381.441148 106.384792 
L 378.838006 110.668876 
L 376.234864 115.05553 
L 373.631723 119.517616 
L 371.028581 124.02837 
L 368.425439 128.561625 
L 365.822297 133.092043 
L 363.219155 137.595319 
L 360.616013 142.048378 
L 358.012871 146.429556 
L 355.409729 150.718763 
L 352.806587 154.897624 
L 350.203445 158.949603 
L 347.600303 162.860101 
L 344.997161 166.616536 
L 342.394019 170.208399 
L 339.790877 173.627284 
L 337.187736 176.866898 
L 334.584594 179.92305 
L 331.981452 182.793614 
L 329.37831 185.478474 
L 326.775168 187.979449 
L 324.172026 190.300198 
L 321.568884 192.446112 
L 318.965742 194.424183 
L 316.3626 196.24287 
L 313.759458 197.911944 
L 311.156316 199.442332 
L 308.553174 200.845945 
L 305.950032 202.135509 
L 303.346891 203.324386 
L 300.743749 204.426401 
L 298.140607 205.455665 
L 295.537465 206.426401 
L 292.934323 207.352781 
L 290.331181 208.248761 
L 287.728039 209.127932 
L 285.124897 210.003376 
L 282.521755 210.887538 
L 279.918613 211.792106 
L 277.315471 212.727906 
L 274.712329 213.704813 
L 272.109187 214.731674 
L 269.506046 215.816247 
L 266.902904 216.965156 
L 264.299762 218.183861 
L 261.69662 219.476642 
L 259.093478 220.846599 
L 256.490336 222.295662 
L 253.887194 223.824623 
L 251.284052 225.43317 
L 248.68091 227.119937 
L 246.077768 228.882566 
L 243.474626 230.717777 
L 240.871484 232.62144 
L 238.268342 234.588662 
L 235.665201 236.613876 
L 233.062059 238.690927 
L 230.458917 240.813174 
L 227.855775 242.973577 
L 225.252633 245.164799 
L 222.649491 247.379293 
L 220.046349 249.609399 
L 217.443207 251.847427 
L 214.840065 254.085742 
L 212.236923 256.31684 
L 209.633781 258.533421 
L 207.030639 260.728456 
L 204.427497 262.895242 
L 201.824355 265.027455 
L 199.221214 267.119191 
L 196.618072 269.165009 
L 194.01493 271.15995 
L 191.411788 273.099567 
L 188.808646 274.979934 
L 186.205504 276.797655 
L 183.602362 278.549865 
L 180.99922 280.234224 
L 178.396078 281.84891 
L 175.792936 283.392597 
L 173.189794 284.864443 
L 170.586652 286.264058 
L 167.98351 287.591485 
L 165.380369 288.847166 
L 162.777227 290.031912 
L 160.174085 291.146868 
L 157.570943 292.193484 
L 154.967801 293.173475 
L 152.364659 294.08879 
L 149.761517 294.941579 
L 147.158375 295.734157 
L 144.555233 296.468973 
L 141.952091 297.148583 
L 139.348949 297.775616 
L 136.745807 298.352752 
L 134.142665 298.882693 
L 131.539524 299.368143 
L 128.936382 299.811789 
L 126.33324 300.216277 
L 123.730098 300.5842 
L 121.126956 300.918086 
L 118.523814 301.220381 
L 115.920672 301.493442 
L 113.31753 301.739529 
L 110.714388 301.960799 
L 108.111246 302.159301 
L 105.508104 302.336972 
L 102.904962 302.495639 
L 100.30182 302.637013 
L 97.698678 302.762697 
z
" style="fill:#ff7f0e;fill-opacity:0.4;stroke:#ff7f0e;"/>
   </g>
   <g id="matplotlib.axis_1">
    <g id="xtick_1">
     <g id="line2d_1">
      <defs>
       <path d="M 0 0 
L 0 3.5 
" id="mb7df7b079b" style="stroke:#000000;stroke-width:0.8;"/>
      </defs>
      <g>
       <use style="stroke:#000000;stroke-width:0.8;" x="54.2" xlink:href="#mb7df7b079b" y="303.64"/>
      </g>
     </g>
     <g id="text_1">
      <!-- 0.0 -->
      <g transform="translate(46.248438 318.238437)scale(0.1 -0.1)">
       <defs>
        <path d="M 2034 4250 
Q 1547 4250 1301 3770 
Q 1056 3291 1056 2328 
Q 1056 1369 1301 889 
Q 1547 409 2034 409 
Q 2525 409 2770 889 
Q 3016 1369 3016 2328 
Q 3016 3291 2770 3770 
Q 2525 4250 2034 4250 
z
M 2034 4750 
Q 2819 4750 3233 4129 
Q 3647 3509 3647 2328 
Q 3647 1150 3233 529 
Q 2819 -91 2034 -91 
Q 1250 -91 836 529 
Q 422 1150 422 2328 
Q 422 3509 836 4129 
Q 1250 4750 2034 4750 
z
" id="DejaVuSans-30" transform="scale(0.015625)"/>
        <path d="M 684 794 
L 1344 794 
L 1344 0 
L 684 0 
L 684 794 
z
" id="DejaVuSans-2e" transform="scale(0.015625)"/>
       </defs>
       <use xlink:href="#DejaVuSans-30"/>
       <use x="63.623047" xlink:href="#DejaVuSans-2e"/>
       <use x="95.410156" xlink:href="#DejaVuSans-30"/>
      </g>
     </g>
    </g>
    <g id="xtick_2">
     <g id="line2d_2">
      <g>
       <use style="stroke:#000000;stroke-width:0.8;" x="131.767" xlink:href="#mb7df7b079b" y="303.64"/>
      </g>
     </g>
     <g id="text_2">
      <!-- 0.2 -->
      <g transform="translate(123.815438 318.238437)scale(0.1 -0.1)">
       <defs>
        <path d="M 1228 531 
L 3431 531 
L 3431 0 
L 469 0 
L 469 531 
Q 828 903 1448 1529 
Q 2069 2156 2228 2338 
Q 2531 2678 2651 2914 
Q 2772 3150 2772 3378 
Q 2772 3750 2511 3984 
Q 2250 4219 1831 4219 
Q 1534 4219 1204 4116 
Q 875 4013 500 3803 
L 500 4441 
Q 881 4594 1212 4672 
Q 1544 4750 1819 4750 
Q 2544 4750 2975 4387 
Q 3406 4025 3406 3419 
Q 3406 3131 3298 2873 
Q 3191 2616 2906 2266 
Q 2828 2175 2409 1742 
Q 1991 1309 1228 531 
z
" id="DejaVuSans-32" transform="scale(0.015625)"/>
       </defs>
       <use xlink:href="#DejaVuSans-30"/>
       <use x="63.623047" xlink:href="#DejaVuSans-2e"/>
       <use x="95.410156" xlink:href="#DejaVuSans-32"/>
      </g>
     </g>
    </g>
    <g id="xtick_3">
     <g id="line2d_3">
      <g>
       <use style="stroke:#000000;stroke-width:0.8;" x="209.334" xlink:href="#mb7df7b079b" y="303.64"/>
      </g>
     </g>
     <g id="text_3">
      <!-- 0.4 -->
      <g transform="translate(201.382438 318.238437)scale(0.1 -0.1)">
       <defs>
        <path d="M 2419 4116 
L 825 1625 
L 2419 1625 
L 2419 4116 
z
M 2253 4666 
L 3047 4666 
L 3047 1625 
L 3713 1625 
L 3713 1100 
L 3047 1100 
L 3047 0 
L 2419 0 
L 2419 1100 
L 313 1100 
L 313 1709 
L 2253 4666 
z
" id="DejaVuSans-34" transform="scale(0.015625)"/>
       </defs>
       <use xlink:href="#DejaVuSans-30"/>
       <use x="63.623047" xlink:href="#DejaVuSans-2e"/>
       <use x="95.410156" xlink:href="#DejaVuSans-34"/>
      </g>
     </g>
    </g>
    <g id="xtick_4">
     <g id="line2d_4">
      <g>
       <use style="stroke:#000000;stroke-width:0.8;" x="286.901" xlink:href="#mb7df7b079b" y="303.64"/>
      </g>
     </g>
     <g id="text_4">
      <!-- 0.6 -->
      <g transform="translate(278.949437 318.238437)scale(0.1 -0.1)">
       <defs>
        <path d="M 2113 2584 
Q 1688 2584 1439 2293 
Q 1191 2003 1191 1497 
Q 1191 994 1439 701 
Q 1688 409 2113 409 
Q 2538 409 2786 701 
Q 3034 994 3034 1497 
Q 3034 2003 2786 2293 
Q 2538 2584 2113 2584 
z
M 3366 4563 
L 3366 3988 
Q 3128 4100 2886 4159 
Q 2644 4219 2406 4219 
Q 1781 4219 1451 3797 
Q 1122 3375 1075 2522 
Q 1259 2794 1537 2939 
Q 1816 3084 2150 3084 
Q 2853 3084 3261 2657 
Q 3669 2231 3669 1497 
Q 3669 778 3244 343 
Q 2819 -91 2113 -91 
Q 1303 -91 875 529 
Q 447 1150 447 2328 
Q 447 3434 972 4092 
Q 1497 4750 2381 4750 
Q 2619 4750 2861 4703 
Q 3103 4656 3366 4563 
z
" id="DejaVuSans-36" transform="scale(0.015625)"/>
       </defs>
       <use xlink:href="#DejaVuSans-30"/>
       <use x="63.623047" xlink:href="#DejaVuSans-2e"/>
       <use x="95.410156" xlink:href="#DejaVuSans-36"/>
      </g>
     </g>
    </g>
    <g id="xtick_5">
     <g id="line2d_5">
      <g>
       <use style="stroke:#000000;stroke-width:0.8;" x="364.468" xlink:href="#mb7df7b079b" y="303.64"/>
      </g>
     </g>
     <g id="text_5">
      <!-- 0.8 -->
      <g transform="translate(356.516437 318.238437)scale(0.1 -0.1)">
       <defs>
        <path d="M 2034 2216 
Q 1584 2216 1326 1975 
Q 1069 1734 1069 1313 
Q 1069 891 1326 650 
Q 1584 409 2034 409 
Q 2484 409 2743 651 
Q 3003 894 3003 1313 
Q 3003 1734 2745 1975 
Q 2488 2216 2034 2216 
z
M 1403 2484 
Q 997 2584 770 2862 
Q 544 3141 544 3541 
Q 544 4100 942 4425 
Q 1341 4750 2034 4750 
Q 2731 4750 3128 4425 
Q 3525 4100 3525 3541 
Q 3525 3141 3298 2862 
Q 3072 2584 2669 2484 
Q 3125 2378 3379 2068 
Q 3634 1759 3634 1313 
Q 3634 634 3220 271 
Q 2806 -91 2034 -91 
Q 1263 -91 848 271 
Q 434 634 434 1313 
Q 434 1759 690 2068 
Q 947 2378 1403 2484 
z
M 1172 3481 
Q 1172 3119 1398 2916 
Q 1625 2713 2034 2713 
Q 2441 2713 2670 2916 
Q 2900 3119 2900 3481 
Q 2900 3844 2670 4047 
Q 2441 4250 2034 4250 
Q 1625 4250 1398 4047 
Q 1172 3844 1172 3481 
z
" id="DejaVuSans-38" transform="scale(0.015625)"/>
       </defs>
       <use xlink:href="#DejaVuSans-30"/>
       <use x="63.623047" xlink:href="#DejaVuSans-2e"/>
       <use x="95.410156" xlink:href="#DejaVuSans-38"/>
      </g>
     </g>
    </g>
    <g id="xtick_6">
     <g id="line2d_6">
      <g>
       <use style="stroke:#000000;stroke-width:0.8;" x="442.035" xlink:href="#mb7df7b079b" y="303.64"/>
      </g>
     </g>
     <g id="text_6">
      <!-- 1.0 -->
      <g transform="translate(434.083437 318.238437)scale(0.1 -0.1)">
       <defs>
        <path d="M 794 531 
L 1825 531 
L 1825 4091 
L 703 3866 
L 703 4441 
L 1819 4666 
L 2450 4666 
L 2450 531 
L 3481 531 
L 3481 0 
L 794 0 
L 794 531 
z
" id="DejaVuSans-31" transform="scale(0.015625)"/>
       </defs>
       <use xlink:href="#DejaVuSans-31"/>
       <use x="63.623047" xlink:href="#DejaVuSans-2e"/>
       <use x="95.410156" xlink:href="#DejaVuSans-30"/>
      </g>
     </g>
    </g>
    <g id="text_7">
     <!-- Credibility index -->
     <g transform="translate(207.512812 331.916562)scale(0.1 -0.1)">
      <defs>
       <path d="M 4122 4306 
L 4122 3641 
Q 3803 3938 3442 4084 
Q 3081 4231 2675 4231 
Q 1875 4231 1450 3742 
Q 1025 3253 1025 2328 
Q 1025 1406 1450 917 
Q 1875 428 2675 428 
Q 3081 428 3442 575 
Q 3803 722 4122 1019 
L 4122 359 
Q 3791 134 3420 21 
Q 3050 -91 2638 -91 
Q 1578 -91 968 557 
Q 359 1206 359 2328 
Q 359 3453 968 4101 
Q 1578 4750 2638 4750 
Q 3056 4750 3426 4639 
Q 3797 4528 4122 4306 
z
" id="DejaVuSans-43" transform="scale(0.015625)"/>
       <path d="M 2631 2963 
Q 2534 3019 2420 3045 
Q 2306 3072 2169 3072 
Q 1681 3072 1420 2755 
Q 1159 2438 1159 1844 
L 1159 0 
L 581 0 
L 581 3500 
L 1159 3500 
L 1159 2956 
Q 1341 3275 1631 3429 
Q 1922 3584 2338 3584 
Q 2397 3584 2469 3576 
Q 2541 3569 2628 3553 
L 2631 2963 
z
" id="DejaVuSans-72" transform="scale(0.015625)"/>
       <path d="M 3597 1894 
L 3597 1613 
L 953 1613 
Q 991 1019 1311 708 
Q 1631 397 2203 397 
Q 2534 397 2845 478 
Q 3156 559 3463 722 
L 3463 178 
Q 3153 47 2828 -22 
Q 2503 -91 2169 -91 
Q 1331 -91 842 396 
Q 353 884 353 1716 
Q 353 2575 817 3079 
Q 1281 3584 2069 3584 
Q 2775 3584 3186 3129 
Q 3597 2675 3597 1894 
z
M 3022 2063 
Q 3016 2534 2758 2815 
Q 2500 3097 2075 3097 
Q 1594 3097 1305 2825 
Q 1016 2553 972 2059 
L 3022 2063 
z
" id="DejaVuSans-65" transform="scale(0.015625)"/>
       <path d="M 2906 2969 
L 2906 4863 
L 3481 4863 
L 3481 0 
L 2906 0 
L 2906 525 
Q 2725 213 2448 61 
Q 2172 -91 1784 -91 
Q 1150 -91 751 415 
Q 353 922 353 1747 
Q 353 2572 751 3078 
Q 1150 3584 1784 3584 
Q 2172 3584 2448 3432 
Q 2725 3281 2906 2969 
z
M 947 1747 
Q 947 1113 1208 752 
Q 1469 391 1925 391 
Q 2381 391 2643 752 
Q 2906 1113 2906 1747 
Q 2906 2381 2643 2742 
Q 2381 3103 1925 3103 
Q 1469 3103 1208 2742 
Q 947 2381 947 1747 
z
" id="DejaVuSans-64" transform="scale(0.015625)"/>
       <path d="M 603 3500 
L 1178 3500 
L 1178 0 
L 603 0 
L 603 3500 
z
M 603 4863 
L 1178 4863 
L 1178 4134 
L 603 4134 
L 603 4863 
z
" id="DejaVuSans-69" transform="scale(0.015625)"/>
       <path d="M 3116 1747 
Q 3116 2381 2855 2742 
Q 2594 3103 2138 3103 
Q 1681 3103 1420 2742 
Q 1159 2381 1159 1747 
Q 1159 1113 1420 752 
Q 1681 391 2138 391 
Q 2594 391 2855 752 
Q 3116 1113 3116 1747 
z
M 1159 2969 
Q 1341 3281 1617 3432 
Q 1894 3584 2278 3584 
Q 2916 3584 3314 3078 
Q 3713 2572 3713 1747 
Q 3713 922 3314 415 
Q 2916 -91 2278 -91 
Q 1894 -91 1617 61 
Q 1341 213 1159 525 
L 1159 0 
L 581 0 
L 581 4863 
L 1159 4863 
L 1159 2969 
z
" id="DejaVuSans-62" transform="scale(0.015625)"/>
       <path d="M 603 4863 
L 1178 4863 
L 1178 0 
L 603 0 
L 603 4863 
z
" id="DejaVuSans-6c" transform="scale(0.015625)"/>
       <path d="M 1172 4494 
L 1172 3500 
L 2356 3500 
L 2356 3053 
L 1172 3053 
L 1172 1153 
Q 1172 725 1289 603 
Q 1406 481 1766 481 
L 2356 481 
L 2356 0 
L 1766 0 
Q 1100 0 847 248 
Q 594 497 594 1153 
L 594 3053 
L 172 3053 
L 172 3500 
L 594 3500 
L 594 4494 
L 1172 4494 
z
" id="DejaVuSans-74" transform="scale(0.015625)"/>
       <path d="M 2059 -325 
Q 1816 -950 1584 -1140 
Q 1353 -1331 966 -1331 
L 506 -1331 
L 506 -850 
L 844 -850 
Q 1081 -850 1212 -737 
Q 1344 -625 1503 -206 
L 1606 56 
L 191 3500 
L 800 3500 
L 1894 763 
L 2988 3500 
L 3597 3500 
L 2059 -325 
z
" id="DejaVuSans-79" transform="scale(0.015625)"/>
       <path id="DejaVuSans-20" transform="scale(0.015625)"/>
       <path d="M 3513 2113 
L 3513 0 
L 2938 0 
L 2938 2094 
Q 2938 2591 2744 2837 
Q 2550 3084 2163 3084 
Q 1697 3084 1428 2787 
Q 1159 2491 1159 1978 
L 1159 0 
L 581 0 
L 581 3500 
L 1159 3500 
L 1159 2956 
Q 1366 3272 1645 3428 
Q 1925 3584 2291 3584 
Q 2894 3584 3203 3211 
Q 3513 2838 3513 2113 
z
" id="DejaVuSans-6e" transform="scale(0.015625)"/>
       <path d="M 3513 3500 
L 2247 1797 
L 3578 0 
L 2900 0 
L 1881 1375 
L 863 0 
L 184 0 
L 1544 1831 
L 300 3500 
L 978 3500 
L 1906 2253 
L 2834 3500 
L 3513 3500 
z
" id="DejaVuSans-78" transform="scale(0.015625)"/>
      </defs>
      <use xlink:href="#DejaVuSans-43"/>
      <use x="69.824219" xlink:href="#DejaVuSans-72"/>
      <use x="108.6875" xlink:href="#DejaVuSans-65"/>
      <use x="170.210938" xlink:href="#DejaVuSans-64"/>
      <use x="233.6875" xlink:href="#DejaVuSans-69"/>
      <use x="261.470703" xlink:href="#DejaVuSans-62"/>
      <use x="324.947266" xlink:href="#DejaVuSans-69"/>
      <use x="352.730469" xlink:href="#DejaVuSans-6c"/>
      <use x="380.513672" xlink:href="#DejaVuSans-69"/>
      <use x="408.296875" xlink:href="#DejaVuSans-74"/>
      <use x="447.505859" xlink:href="#DejaVuSans-79"/>
      <use x="506.685547" xlink:href="#DejaVuSans-20"/>
      <use x="538.472656" xlink:href="#DejaVuSans-69"/>
      <use x="566.255859" xlink:href="#DejaVuSans-6e"/>
      <use x="629.634766" xlink:href="#DejaVuSans-64"/>
      <use x="693.111328" xlink:href="#DejaVuSans-65"/>
      <use x="752.884766" xlink:href="#DejaVuSans-78"/>
     </g>
    </g>
   </g>
   <g id="matplotlib.axis_2">
    <g id="ytick_1">
     <g id="line2d_7">
      <defs>
       <path d="M 0 0 
L -3.5 0 
" id="m68b4882aba" style="stroke:#000000;stroke-width:0.8;"/>
      </defs>
      <g>
       <use style="stroke:#000000;stroke-width:0.8;" x="54.2" xlink:href="#m68b4882aba" y="303.64"/>
      </g>
     </g>
     <g id="text_8">
      <!-- 0.00 -->
      <g transform="translate(24.934375 307.439219)scale(0.1 -0.1)">
       <use xlink:href="#DejaVuSans-30"/>
       <use x="63.623047" xlink:href="#DejaVuSans-2e"/>
       <use x="95.410156" xlink:href="#DejaVuSans-30"/>
       <use x="159.033203" xlink:href="#DejaVuSans-30"/>
      </g>
     </g>
    </g>
    <g id="ytick_2">
     <g id="line2d_8">
      <g>
       <use style="stroke:#000000;stroke-width:0.8;" x="54.2" xlink:href="#m68b4882aba" y="274.091616"/>
      </g>
     </g>
     <g id="text_9">
      <!-- 0.25 -->
      <g transform="translate(24.934375 277.890835)scale(0.1 -0.1)">
       <defs>
        <path d="M 691 4666 
L 3169 4666 
L 3169 4134 
L 1269 4134 
L 1269 2991 
Q 1406 3038 1543 3061 
Q 1681 3084 1819 3084 
Q 2600 3084 3056 2656 
Q 3513 2228 3513 1497 
Q 3513 744 3044 326 
Q 2575 -91 1722 -91 
Q 1428 -91 1123 -41 
Q 819 9 494 109 
L 494 744 
Q 775 591 1075 516 
Q 1375 441 1709 441 
Q 2250 441 2565 725 
Q 2881 1009 2881 1497 
Q 2881 1984 2565 2268 
Q 2250 2553 1709 2553 
Q 1456 2553 1204 2497 
Q 953 2441 691 2322 
L 691 4666 
z
" id="DejaVuSans-35" transform="scale(0.015625)"/>
       </defs>
       <use xlink:href="#DejaVuSans-30"/>
       <use x="63.623047" xlink:href="#DejaVuSans-2e"/>
       <use x="95.410156" xlink:href="#DejaVuSans-32"/>
       <use x="159.033203" xlink:href="#DejaVuSans-35"/>
      </g>
     </g>
    </g>
    <g id="ytick_3">
     <g id="line2d_9">
      <g>
       <use style="stroke:#000000;stroke-width:0.8;" x="54.2" xlink:href="#m68b4882aba" y="244.543232"/>
      </g>
     </g>
     <g id="text_10">
      <!-- 0.50 -->
      <g transform="translate(24.934375 248.342451)scale(0.1 -0.1)">
       <use xlink:href="#DejaVuSans-30"/>
       <use x="63.623047" xlink:href="#DejaVuSans-2e"/>
       <use x="95.410156" xlink:href="#DejaVuSans-35"/>
       <use x="159.033203" xlink:href="#DejaVuSans-30"/>
      </g>
     </g>
    </g>
    <g id="ytick_4">
     <g id="line2d_10">
      <g>
       <use style="stroke:#000000;stroke-width:0.8;" x="54.2" xlink:href="#m68b4882aba" y="214.994849"/>
      </g>
     </g>
     <g id="text_11">
      <!-- 0.75 -->
      <g transform="translate(24.934375 218.794067)scale(0.1 -0.1)">
       <defs>
        <path d="M 525 4666 
L 3525 4666 
L 3525 4397 
L 1831 0 
L 1172 0 
L 2766 4134 
L 525 4134 
L 525 4666 
z
" id="DejaVuSans-37" transform="scale(0.015625)"/>
       </defs>
       <use xlink:href="#DejaVuSans-30"/>
       <use x="63.623047" xlink:href="#DejaVuSans-2e"/>
       <use x="95.410156" xlink:href="#DejaVuSans-37"/>
       <use x="159.033203" xlink:href="#DejaVuSans-35"/>
      </g>
     </g>
    </g>
    <g id="ytick_5">
     <g id="line2d_11">
      <g>
       <use style="stroke:#000000;stroke-width:0.8;" x="54.2" xlink:href="#m68b4882aba" y="185.446465"/>
      </g>
     </g>
     <g id="text_12">
      <!-- 1.00 -->
      <g transform="translate(24.934375 189.245684)scale(0.1 -0.1)">
       <use xlink:href="#DejaVuSans-31"/>
       <use x="63.623047" xlink:href="#DejaVuSans-2e"/>
       <use x="95.410156" xlink:href="#DejaVuSans-30"/>
       <use x="159.033203" xlink:href="#DejaVuSans-30"/>
      </g>
     </g>
    </g>
    <g id="ytick_6">
     <g id="line2d_12">
      <g>
       <use style="stroke:#000000;stroke-width:0.8;" x="54.2" xlink:href="#m68b4882aba" y="155.898081"/>
      </g>
     </g>
     <g id="text_13">
      <!-- 1.25 -->
      <g transform="translate(24.934375 159.6973)scale(0.1 -0.1)">
       <use xlink:href="#DejaVuSans-31"/>
       <use x="63.623047" xlink:href="#DejaVuSans-2e"/>
       <use x="95.410156" xlink:href="#DejaVuSans-32"/>
       <use x="159.033203" xlink:href="#DejaVuSans-35"/>
      </g>
     </g>
    </g>
    <g id="ytick_7">
     <g id="line2d_13">
      <g>
       <use style="stroke:#000000;stroke-width:0.8;" x="54.2" xlink:href="#m68b4882aba" y="126.349697"/>
      </g>
     </g>
     <g id="text_14">
      <!-- 1.50 -->
      <g transform="translate(24.934375 130.148916)scale(0.1 -0.1)">
       <use xlink:href="#DejaVuSans-31"/>
       <use x="63.623047" xlink:href="#DejaVuSans-2e"/>
       <use x="95.410156" xlink:href="#DejaVuSans-35"/>
       <use x="159.033203" xlink:href="#DejaVuSans-30"/>
      </g>
     </g>
    </g>
    <g id="ytick_8">
     <g id="line2d_14">
      <g>
       <use style="stroke:#000000;stroke-width:0.8;" x="54.2" xlink:href="#m68b4882aba" y="96.801314"/>
      </g>
     </g>
     <g id="text_15">
      <!-- 1.75 -->
      <g transform="translate(24.934375 100.600532)scale(0.1 -0.1)">
       <use xlink:href="#DejaVuSans-31"/>
       <use x="63.623047" xlink:href="#DejaVuSans-2e"/>
       <use x="95.410156" xlink:href="#DejaVuSans-37"/>
       <use x="159.033203" xlink:href="#DejaVuSans-35"/>
      </g>
     </g>
    </g>
    <g id="ytick_9">
     <g id="line2d_15">
      <g>
       <use style="stroke:#000000;stroke-width:0.8;" x="54.2" xlink:href="#m68b4882aba" y="67.25293"/>
      </g>
     </g>
     <g id="text_16">
      <!-- 2.00 -->
      <g transform="translate(24.934375 71.052149)scale(0.1 -0.1)">
       <use xlink:href="#DejaVuSans-32"/>
       <use x="63.623047" xlink:href="#DejaVuSans-2e"/>
       <use x="95.410156" xlink:href="#DejaVuSans-30"/>
       <use x="159.033203" xlink:href="#DejaVuSans-30"/>
      </g>
     </g>
    </g>
    <g id="text_17">
     <!-- Density -->
     <g transform="translate(18.854688 189.812594)rotate(-90)scale(0.1 -0.1)">
      <defs>
       <path d="M 1259 4147 
L 1259 519 
L 2022 519 
Q 2988 519 3436 956 
Q 3884 1394 3884 2338 
Q 3884 3275 3436 3711 
Q 2988 4147 2022 4147 
L 1259 4147 
z
M 628 4666 
L 1925 4666 
Q 3281 4666 3915 4102 
Q 4550 3538 4550 2338 
Q 4550 1131 3912 565 
Q 3275 0 1925 0 
L 628 0 
L 628 4666 
z
" id="DejaVuSans-44" transform="scale(0.015625)"/>
       <path d="M 2834 3397 
L 2834 2853 
Q 2591 2978 2328 3040 
Q 2066 3103 1784 3103 
Q 1356 3103 1142 2972 
Q 928 2841 928 2578 
Q 928 2378 1081 2264 
Q 1234 2150 1697 2047 
L 1894 2003 
Q 2506 1872 2764 1633 
Q 3022 1394 3022 966 
Q 3022 478 2636 193 
Q 2250 -91 1575 -91 
Q 1294 -91 989 -36 
Q 684 19 347 128 
L 347 722 
Q 666 556 975 473 
Q 1284 391 1588 391 
Q 1994 391 2212 530 
Q 2431 669 2431 922 
Q 2431 1156 2273 1281 
Q 2116 1406 1581 1522 
L 1381 1569 
Q 847 1681 609 1914 
Q 372 2147 372 2553 
Q 372 3047 722 3315 
Q 1072 3584 1716 3584 
Q 2034 3584 2315 3537 
Q 2597 3491 2834 3397 
z
" id="DejaVuSans-73" transform="scale(0.015625)"/>
      </defs>
      <use xlink:href="#DejaVuSans-44"/>
      <use x="77.001953" xlink:href="#DejaVuSans-65"/>
      <use x="138.525391" xlink:href="#DejaVuSans-6e"/>
      <use x="201.904297" xlink:href="#DejaVuSans-73"/>
      <use x="254.003906" xlink:href="#DejaVuSans-69"/>
      <use x="281.787109" xlink:href="#DejaVuSans-74"/>
      <use x="320.996094" xlink:href="#DejaVuSans-79"/>
     </g>
    </g>
   </g>
   <g id="patch_3">
    <path d="M 54.2 303.64 
L 54.2 37.968 
" style="fill:none;stroke:#000000;stroke-linecap:square;stroke-linejoin:miter;stroke-width:0.8;"/>
   </g>
   <g id="patch_4">
    <path d="M 442.035 303.64 
L 442.035 37.968 
" style="fill:none;stroke:#000000;stroke-linecap:square;stroke-linejoin:miter;stroke-width:0.8;"/>
   </g>
   <g id="patch_5">
    <path d="M 54.2 303.64 
L 442.035 303.64 
" style="fill:none;stroke:#000000;stroke-linecap:square;stroke-linejoin:miter;stroke-width:0.8;"/>
   </g>
   <g id="patch_6">
    <path d="M 54.2 37.968 
L 442.035 37.968 
" style="fill:none;stroke:#000000;stroke-linecap:square;stroke-linejoin:miter;stroke-width:0.8;"/>
   </g>
   <g id="text_18">
    <!-- Credibility index consensus vs non consensus  -->
    <g transform="translate(109.01125 18.530625)scale(0.12 -0.12)">
     <defs>
      <path d="M 3122 3366 
L 3122 2828 
Q 2878 2963 2633 3030 
Q 2388 3097 2138 3097 
Q 1578 3097 1268 2742 
Q 959 2388 959 1747 
Q 959 1106 1268 751 
Q 1578 397 2138 397 
Q 2388 397 2633 464 
Q 2878 531 3122 666 
L 3122 134 
Q 2881 22 2623 -34 
Q 2366 -91 2075 -91 
Q 1284 -91 818 406 
Q 353 903 353 1747 
Q 353 2603 823 3093 
Q 1294 3584 2113 3584 
Q 2378 3584 2631 3529 
Q 2884 3475 3122 3366 
z
" id="DejaVuSans-63" transform="scale(0.015625)"/>
      <path d="M 1959 3097 
Q 1497 3097 1228 2736 
Q 959 2375 959 1747 
Q 959 1119 1226 758 
Q 1494 397 1959 397 
Q 2419 397 2687 759 
Q 2956 1122 2956 1747 
Q 2956 2369 2687 2733 
Q 2419 3097 1959 3097 
z
M 1959 3584 
Q 2709 3584 3137 3096 
Q 3566 2609 3566 1747 
Q 3566 888 3137 398 
Q 2709 -91 1959 -91 
Q 1206 -91 779 398 
Q 353 888 353 1747 
Q 353 2609 779 3096 
Q 1206 3584 1959 3584 
z
" id="DejaVuSans-6f" transform="scale(0.015625)"/>
      <path d="M 544 1381 
L 544 3500 
L 1119 3500 
L 1119 1403 
Q 1119 906 1312 657 
Q 1506 409 1894 409 
Q 2359 409 2629 706 
Q 2900 1003 2900 1516 
L 2900 3500 
L 3475 3500 
L 3475 0 
L 2900 0 
L 2900 538 
Q 2691 219 2414 64 
Q 2138 -91 1772 -91 
Q 1169 -91 856 284 
Q 544 659 544 1381 
z
M 1991 3584 
L 1991 3584 
z
" id="DejaVuSans-75" transform="scale(0.015625)"/>
      <path d="M 191 3500 
L 800 3500 
L 1894 563 
L 2988 3500 
L 3597 3500 
L 2284 0 
L 1503 0 
L 191 3500 
z
" id="DejaVuSans-76" transform="scale(0.015625)"/>
     </defs>
     <use xlink:href="#DejaVuSans-43"/>
     <use x="69.824219" xlink:href="#DejaVuSans-72"/>
     <use x="108.6875" xlink:href="#DejaVuSans-65"/>
     <use x="170.210938" xlink:href="#DejaVuSans-64"/>
     <use x="233.6875" xlink:href="#DejaVuSans-69"/>
     <use x="261.470703" xlink:href="#DejaVuSans-62"/>
     <use x="324.947266" xlink:href="#DejaVuSans-69"/>
     <use x="352.730469" xlink:href="#DejaVuSans-6c"/>
     <use x="380.513672" xlink:href="#DejaVuSans-69"/>
     <use x="408.296875" xlink:href="#DejaVuSans-74"/>
     <use x="447.505859" xlink:href="#DejaVuSans-79"/>
     <use x="506.685547" xlink:href="#DejaVuSans-20"/>
     <use x="538.472656" xlink:href="#DejaVuSans-69"/>
     <use x="566.255859" xlink:href="#DejaVuSans-6e"/>
     <use x="629.634766" xlink:href="#DejaVuSans-64"/>
     <use x="693.111328" xlink:href="#DejaVuSans-65"/>
     <use x="752.884766" xlink:href="#DejaVuSans-78"/>
     <use x="812.064453" xlink:href="#DejaVuSans-20"/>
     <use x="843.851562" xlink:href="#DejaVuSans-63"/>
     <use x="898.832031" xlink:href="#DejaVuSans-6f"/>
     <use x="960.013672" xlink:href="#DejaVuSans-6e"/>
     <use x="1023.392578" xlink:href="#DejaVuSans-73"/>
     <use x="1075.492188" xlink:href="#DejaVuSans-65"/>
     <use x="1137.015625" xlink:href="#DejaVuSans-6e"/>
     <use x="1200.394531" xlink:href="#DejaVuSans-73"/>
     <use x="1252.494141" xlink:href="#DejaVuSans-75"/>
     <use x="1315.873047" xlink:href="#DejaVuSans-73"/>
     <use x="1367.972656" xlink:href="#DejaVuSans-20"/>
     <use x="1399.759766" xlink:href="#DejaVuSans-76"/>
     <use x="1458.939453" xlink:href="#DejaVuSans-73"/>
     <use x="1511.039062" xlink:href="#DejaVuSans-20"/>
     <use x="1542.826172" xlink:href="#DejaVuSans-6e"/>
     <use x="1606.205078" xlink:href="#DejaVuSans-6f"/>
     <use x="1667.386719" xlink:href="#DejaVuSans-6e"/>
     <use x="1730.765625" xlink:href="#DejaVuSans-20"/>
     <use x="1762.552734" xlink:href="#DejaVuSans-63"/>
     <use x="1817.533203" xlink:href="#DejaVuSans-6f"/>
     <use x="1878.714844" xlink:href="#DejaVuSans-6e"/>
     <use x="1942.09375" xlink:href="#DejaVuSans-73"/>
     <use x="1994.193359" xlink:href="#DejaVuSans-65"/>
     <use x="2055.716797" xlink:href="#DejaVuSans-6e"/>
     <use x="2119.095703" xlink:href="#DejaVuSans-73"/>
     <use x="2171.195312" xlink:href="#DejaVuSans-75"/>
     <use x="2234.574219" xlink:href="#DejaVuSans-73"/>
     <use x="2286.673828" xlink:href="#DejaVuSans-20"/>
    </g>
    <!-- Set s3 -->
    <g transform="translate(229.414375 31.968)scale(0.12 -0.12)">
     <defs>
      <path d="M 3425 4513 
L 3425 3897 
Q 3066 4069 2747 4153 
Q 2428 4238 2131 4238 
Q 1616 4238 1336 4038 
Q 1056 3838 1056 3469 
Q 1056 3159 1242 3001 
Q 1428 2844 1947 2747 
L 2328 2669 
Q 3034 2534 3370 2195 
Q 3706 1856 3706 1288 
Q 3706 609 3251 259 
Q 2797 -91 1919 -91 
Q 1588 -91 1214 -16 
Q 841 59 441 206 
L 441 856 
Q 825 641 1194 531 
Q 1563 422 1919 422 
Q 2459 422 2753 634 
Q 3047 847 3047 1241 
Q 3047 1584 2836 1778 
Q 2625 1972 2144 2069 
L 1759 2144 
Q 1053 2284 737 2584 
Q 422 2884 422 3419 
Q 422 4038 858 4394 
Q 1294 4750 2059 4750 
Q 2388 4750 2728 4690 
Q 3069 4631 3425 4513 
z
" id="DejaVuSans-53" transform="scale(0.015625)"/>
      <path d="M 2597 2516 
Q 3050 2419 3304 2112 
Q 3559 1806 3559 1356 
Q 3559 666 3084 287 
Q 2609 -91 1734 -91 
Q 1441 -91 1130 -33 
Q 819 25 488 141 
L 488 750 
Q 750 597 1062 519 
Q 1375 441 1716 441 
Q 2309 441 2620 675 
Q 2931 909 2931 1356 
Q 2931 1769 2642 2001 
Q 2353 2234 1838 2234 
L 1294 2234 
L 1294 2753 
L 1863 2753 
Q 2328 2753 2575 2939 
Q 2822 3125 2822 3475 
Q 2822 3834 2567 4026 
Q 2313 4219 1838 4219 
Q 1578 4219 1281 4162 
Q 984 4106 628 3988 
L 628 4550 
Q 988 4650 1302 4700 
Q 1616 4750 1894 4750 
Q 2613 4750 3031 4423 
Q 3450 4097 3450 3541 
Q 3450 3153 3228 2886 
Q 3006 2619 2597 2516 
z
" id="DejaVuSans-33" transform="scale(0.015625)"/>
     </defs>
     <use xlink:href="#DejaVuSans-53"/>
     <use x="63.476562" xlink:href="#DejaVuSans-65"/>
     <use x="125" xlink:href="#DejaVuSans-74"/>
     <use x="164.208984" xlink:href="#DejaVuSans-20"/>
     <use x="195.996094" xlink:href="#DejaVuSans-73"/>
     <use x="248.095703" xlink:href="#DejaVuSans-33"/>
    </g>
   </g>
   <g id="legend_1">
    <g id="patch_7">
     <path d="M 61.2 97.719875 
L 231.742188 97.719875 
Q 233.742188 97.719875 233.742188 95.719875 
L 233.742188 44.968 
Q 233.742188 42.968 231.742188 42.968 
L 61.2 42.968 
Q 59.2 42.968 59.2 44.968 
L 59.2 95.719875 
Q 59.2 97.719875 61.2 97.719875 
z
" style="fill:#ffffff;opacity:0.8;stroke:#cccccc;stroke-linejoin:miter;"/>
    </g>
    <g id="patch_8">
     <path d="M 63.2 61.205187 
L 83.2 61.205187 
L 83.2 54.205187 
L 63.2 54.205187 
z
" style="fill:#1f77b4;fill-opacity:0.4;stroke:#1f77b4;stroke-linejoin:miter;"/>
    </g>
    <g id="text_19">
     <!-- Correlation higher than 0  -->
     <g transform="translate(91.2 54.566437)scale(0.1 -0.1)">
      <defs>
       <path d="M 2194 1759 
Q 1497 1759 1228 1600 
Q 959 1441 959 1056 
Q 959 750 1161 570 
Q 1363 391 1709 391 
Q 2188 391 2477 730 
Q 2766 1069 2766 1631 
L 2766 1759 
L 2194 1759 
z
M 3341 1997 
L 3341 0 
L 2766 0 
L 2766 531 
Q 2569 213 2275 61 
Q 1981 -91 1556 -91 
Q 1019 -91 701 211 
Q 384 513 384 1019 
Q 384 1609 779 1909 
Q 1175 2209 1959 2209 
L 2766 2209 
L 2766 2266 
Q 2766 2663 2505 2880 
Q 2244 3097 1772 3097 
Q 1472 3097 1187 3025 
Q 903 2953 641 2809 
L 641 3341 
Q 956 3463 1253 3523 
Q 1550 3584 1831 3584 
Q 2591 3584 2966 3190 
Q 3341 2797 3341 1997 
z
" id="DejaVuSans-61" transform="scale(0.015625)"/>
       <path d="M 3513 2113 
L 3513 0 
L 2938 0 
L 2938 2094 
Q 2938 2591 2744 2837 
Q 2550 3084 2163 3084 
Q 1697 3084 1428 2787 
Q 1159 2491 1159 1978 
L 1159 0 
L 581 0 
L 581 4863 
L 1159 4863 
L 1159 2956 
Q 1366 3272 1645 3428 
Q 1925 3584 2291 3584 
Q 2894 3584 3203 3211 
Q 3513 2838 3513 2113 
z
" id="DejaVuSans-68" transform="scale(0.015625)"/>
       <path d="M 2906 1791 
Q 2906 2416 2648 2759 
Q 2391 3103 1925 3103 
Q 1463 3103 1205 2759 
Q 947 2416 947 1791 
Q 947 1169 1205 825 
Q 1463 481 1925 481 
Q 2391 481 2648 825 
Q 2906 1169 2906 1791 
z
M 3481 434 
Q 3481 -459 3084 -895 
Q 2688 -1331 1869 -1331 
Q 1566 -1331 1297 -1286 
Q 1028 -1241 775 -1147 
L 775 -588 
Q 1028 -725 1275 -790 
Q 1522 -856 1778 -856 
Q 2344 -856 2625 -561 
Q 2906 -266 2906 331 
L 2906 616 
Q 2728 306 2450 153 
Q 2172 0 1784 0 
Q 1141 0 747 490 
Q 353 981 353 1791 
Q 353 2603 747 3093 
Q 1141 3584 1784 3584 
Q 2172 3584 2450 3431 
Q 2728 3278 2906 2969 
L 2906 3500 
L 3481 3500 
L 3481 434 
z
" id="DejaVuSans-67" transform="scale(0.015625)"/>
      </defs>
      <use xlink:href="#DejaVuSans-43"/>
      <use x="69.824219" xlink:href="#DejaVuSans-6f"/>
      <use x="131.005859" xlink:href="#DejaVuSans-72"/>
      <use x="170.369141" xlink:href="#DejaVuSans-72"/>
      <use x="209.232422" xlink:href="#DejaVuSans-65"/>
      <use x="270.755859" xlink:href="#DejaVuSans-6c"/>
      <use x="298.539062" xlink:href="#DejaVuSans-61"/>
      <use x="359.818359" xlink:href="#DejaVuSans-74"/>
      <use x="399.027344" xlink:href="#DejaVuSans-69"/>
      <use x="426.810547" xlink:href="#DejaVuSans-6f"/>
      <use x="487.992188" xlink:href="#DejaVuSans-6e"/>
      <use x="551.371094" xlink:href="#DejaVuSans-20"/>
      <use x="583.158203" xlink:href="#DejaVuSans-68"/>
      <use x="646.537109" xlink:href="#DejaVuSans-69"/>
      <use x="674.320312" xlink:href="#DejaVuSans-67"/>
      <use x="737.796875" xlink:href="#DejaVuSans-68"/>
      <use x="801.175781" xlink:href="#DejaVuSans-65"/>
      <use x="862.699219" xlink:href="#DejaVuSans-72"/>
      <use x="903.8125" xlink:href="#DejaVuSans-20"/>
      <use x="935.599609" xlink:href="#DejaVuSans-74"/>
      <use x="974.808594" xlink:href="#DejaVuSans-68"/>
      <use x="1038.1875" xlink:href="#DejaVuSans-61"/>
      <use x="1099.466797" xlink:href="#DejaVuSans-6e"/>
      <use x="1162.845703" xlink:href="#DejaVuSans-20"/>
      <use x="1194.632812" xlink:href="#DejaVuSans-30"/>
      <use x="1258.255859" xlink:href="#DejaVuSans-20"/>
     </g>
     <!-- n=150 -->
     <g transform="translate(91.2 65.76425)scale(0.1 -0.1)">
      <defs>
       <path d="M 678 2906 
L 4684 2906 
L 4684 2381 
L 678 2381 
L 678 2906 
z
M 678 1631 
L 4684 1631 
L 4684 1100 
L 678 1100 
L 678 1631 
z
" id="DejaVuSans-3d" transform="scale(0.015625)"/>
      </defs>
      <use xlink:href="#DejaVuSans-6e"/>
      <use x="63.378906" xlink:href="#DejaVuSans-3d"/>
      <use x="147.167969" xlink:href="#DejaVuSans-31"/>
      <use x="210.791016" xlink:href="#DejaVuSans-35"/>
      <use x="274.414062" xlink:href="#DejaVuSans-30"/>
     </g>
    </g>
    <g id="patch_9">
     <path d="M 63.2 87.081125 
L 83.2 87.081125 
L 83.2 80.081125 
L 63.2 80.081125 
z
" style="fill:#ff7f0e;fill-opacity:0.4;stroke:#ff7f0e;stroke-linejoin:miter;"/>
    </g>
    <g id="text_20">
     <!-- Correlation higher than 0.8  -->
     <g transform="translate(91.2 80.442375)scale(0.1 -0.1)">
      <use xlink:href="#DejaVuSans-43"/>
      <use x="69.824219" xlink:href="#DejaVuSans-6f"/>
      <use x="131.005859" xlink:href="#DejaVuSans-72"/>
      <use x="170.369141" xlink:href="#DejaVuSans-72"/>
      <use x="209.232422" xlink:href="#DejaVuSans-65"/>
      <use x="270.755859" xlink:href="#DejaVuSans-6c"/>
      <use x="298.539062" xlink:href="#DejaVuSans-61"/>
      <use x="359.818359" xlink:href="#DejaVuSans-74"/>
      <use x="399.027344" xlink:href="#DejaVuSans-69"/>
      <use x="426.810547" xlink:href="#DejaVuSans-6f"/>
      <use x="487.992188" xlink:href="#DejaVuSans-6e"/>
      <use x="551.371094" xlink:href="#DejaVuSans-20"/>
      <use x="583.158203" xlink:href="#DejaVuSans-68"/>
      <use x="646.537109" xlink:href="#DejaVuSans-69"/>
      <use x="674.320312" xlink:href="#DejaVuSans-67"/>
      <use x="737.796875" xlink:href="#DejaVuSans-68"/>
      <use x="801.175781" xlink:href="#DejaVuSans-65"/>
      <use x="862.699219" xlink:href="#DejaVuSans-72"/>
      <use x="903.8125" xlink:href="#DejaVuSans-20"/>
      <use x="935.599609" xlink:href="#DejaVuSans-74"/>
      <use x="974.808594" xlink:href="#DejaVuSans-68"/>
      <use x="1038.1875" xlink:href="#DejaVuSans-61"/>
      <use x="1099.466797" xlink:href="#DejaVuSans-6e"/>
      <use x="1162.845703" xlink:href="#DejaVuSans-20"/>
      <use x="1194.632812" xlink:href="#DejaVuSans-30"/>
      <use x="1258.255859" xlink:href="#DejaVuSans-2e"/>
      <use x="1290.042969" xlink:href="#DejaVuSans-38"/>
      <use x="1353.666016" xlink:href="#DejaVuSans-20"/>
     </g>
     <!-- n=4 -->
     <g transform="translate(91.2 91.640187)scale(0.1 -0.1)">
      <use xlink:href="#DejaVuSans-6e"/>
      <use x="63.378906" xlink:href="#DejaVuSans-3d"/>
      <use x="147.167969" xlink:href="#DejaVuSans-34"/>
     </g>
    </g>
   </g>
  </g>
 </g>
 <defs>
  <clipPath id="p6543b35078">
   <rect height="265.672" width="387.835" x="54.2" y="37.968"/>
  </clipPath>
 </defs>
</svg>
