<?xml version="1.0" encoding="utf-8" standalone="no"?>
<!DOCTYPE svg PUBLIC "-//W3C//DTD SVG 1.1//EN"
  "http://www.w3.org/Graphics/SVG/1.1/DTD/svg11.dtd">
<svg height="345.6pt" version="1.1" viewBox="0 0 460.8 345.6" width="460.8pt" xmlns="http://www.w3.org/2000/svg" xmlns:xlink="http://www.w3.org/1999/xlink">
 <metadata>
  <rdf:RDF xmlns:cc="http://creativecommons.org/ns#" xmlns:dc="http://purl.org/dc/elements/1.1/" xmlns:rdf="http://www.w3.org/1999/02/22-rdf-syntax-ns#">
   <cc:Work>
    <dc:type rdf:resource="http://purl.org/dc/dcmitype/StillImage"/>
    <dc:date>2021-11-24T22:45:51.236578</dc:date>
    <dc:format>image/svg+xml</dc:format>
    <dc:creator>
     <cc:Agent>
      <dc:title>Matplotlib v3.4.3, https://matplotlib.org/</dc:title>
     </cc:Agent>
    </dc:creator>
   </cc:Work>
  </rdf:RDF>
 </metadata>
 <defs>
  <style type="text/css">*{stroke-linecap:butt;stroke-linejoin:round;}</style>
 </defs>
 <g id="figure_1">
  <g id="patch_1">
   <path d="M 0 345.6 
L 460.8 345.6 
L 460.8 0 
L 0 0 
z
" style="fill:#ffffff;"/>
  </g>
  <g id="axes_1">
   <g id="patch_2">
    <path d="M 47.81 303.64 
L 442.035 303.64 
L 442.035 37.968 
L 47.81 37.968 
z
" style="fill:#ffffff;"/>
   </g>
   <g id="PolyCollection_1">
    <path clip-path="url(#pfc9e96b6de)" d="M -45.524944 303.117811 
L -45.524944 303.64 
L -42.36815 303.64 
L -39.211357 303.64 
L -36.054564 303.64 
L -32.89777 303.64 
L -29.740977 303.64 
L -26.584183 303.64 
L -23.42739 303.64 
L -20.270597 303.64 
L -17.113803 303.64 
L -13.95701 303.64 
L -10.800216 303.64 
L -7.643423 303.64 
L -4.48663 303.64 
L -1.329836 303.64 
L 1.826957 303.64 
L 4.983751 303.64 
L 8.140544 303.64 
L 11.297337 303.64 
L 14.454131 303.64 
L 17.610924 303.64 
L 20.767718 303.64 
L 23.924511 303.64 
L 27.081304 303.64 
L 30.238098 303.64 
L 33.394891 303.64 
L 36.551685 303.64 
L 39.708478 303.64 
L 42.865272 303.64 
L 46.022065 303.64 
L 49.178858 303.64 
L 52.335652 303.64 
L 55.492445 303.64 
L 58.649239 303.64 
L 61.806032 303.64 
L 64.962825 303.64 
L 68.119619 303.64 
L 71.276412 303.64 
L 74.433206 303.64 
L 77.589999 303.64 
L 80.746792 303.64 
L 83.903586 303.64 
L 87.060379 303.64 
L 90.217173 303.64 
L 93.373966 303.64 
L 96.530759 303.64 
L 99.687553 303.64 
L 102.844346 303.64 
L 106.00114 303.64 
L 109.157933 303.64 
L 112.314726 303.64 
L 115.47152 303.64 
L 118.628313 303.64 
L 121.785107 303.64 
L 124.9419 303.64 
L 128.098693 303.64 
L 131.255487 303.64 
L 134.41228 303.64 
L 137.569074 303.64 
L 140.725867 303.64 
L 143.88266 303.64 
L 147.039454 303.64 
L 150.196247 303.64 
L 153.353041 303.64 
L 156.509834 303.64 
L 159.666628 303.64 
L 162.823421 303.64 
L 165.980214 303.64 
L 169.137008 303.64 
L 172.293801 303.64 
L 175.450595 303.64 
L 178.607388 303.64 
L 181.764181 303.64 
L 184.920975 303.64 
L 188.077768 303.64 
L 191.234562 303.64 
L 194.391355 303.64 
L 197.548148 303.64 
L 200.704942 303.64 
L 203.861735 303.64 
L 207.018529 303.64 
L 210.175322 303.64 
L 213.332115 303.64 
L 216.488909 303.64 
L 219.645702 303.64 
L 222.802496 303.64 
L 225.959289 303.64 
L 229.116082 303.64 
L 232.272876 303.64 
L 235.429669 303.64 
L 238.586463 303.64 
L 241.743256 303.64 
L 244.900049 303.64 
L 248.056843 303.64 
L 251.213636 303.64 
L 254.37043 303.64 
L 257.527223 303.64 
L 260.684016 303.64 
L 263.84081 303.64 
L 266.997603 303.64 
L 270.154397 303.64 
L 273.31119 303.64 
L 276.467984 303.64 
L 279.624777 303.64 
L 282.78157 303.64 
L 285.938364 303.64 
L 289.095157 303.64 
L 292.251951 303.64 
L 295.408744 303.64 
L 298.565537 303.64 
L 301.722331 303.64 
L 304.879124 303.64 
L 308.035918 303.64 
L 311.192711 303.64 
L 314.349504 303.64 
L 317.506298 303.64 
L 320.663091 303.64 
L 323.819885 303.64 
L 326.976678 303.64 
L 330.133471 303.64 
L 333.290265 303.64 
L 336.447058 303.64 
L 339.603852 303.64 
L 342.760645 303.64 
L 345.917438 303.64 
L 349.074232 303.64 
L 352.231025 303.64 
L 355.387819 303.64 
L 358.544612 303.64 
L 361.701405 303.64 
L 364.858199 303.64 
L 368.014992 303.64 
L 371.171786 303.64 
L 374.328579 303.64 
L 377.485372 303.64 
L 380.642166 303.64 
L 383.798959 303.64 
L 386.955753 303.64 
L 390.112546 303.64 
L 393.26934 303.64 
L 396.426133 303.64 
L 399.582926 303.64 
L 402.73972 303.64 
L 405.896513 303.64 
L 409.053307 303.64 
L 412.2101 303.64 
L 415.366893 303.64 
L 418.523687 303.64 
L 421.68048 303.64 
L 424.837274 303.64 
L 427.994067 303.64 
L 431.15086 303.64 
L 434.307654 303.64 
L 437.464447 303.64 
L 440.621241 303.64 
L 443.778034 303.64 
L 446.934827 303.64 
L 450.091621 303.64 
L 453.248414 303.64 
L 456.405208 303.64 
L 459.562001 303.64 
L 462.718794 303.64 
L 465.875588 303.64 
L 469.032381 303.64 
L 472.189175 303.64 
L 475.345968 303.64 
L 478.502761 303.64 
L 481.659555 303.64 
L 484.816348 303.64 
L 487.973142 303.64 
L 491.129935 303.64 
L 494.286728 303.64 
L 497.443522 303.64 
L 500.600315 303.64 
L 503.757109 303.64 
L 506.913902 303.64 
L 510.070696 303.64 
L 513.227489 303.64 
L 516.384282 303.64 
L 519.541076 303.64 
L 522.697869 303.64 
L 525.854663 303.64 
L 529.011456 303.64 
L 532.168249 303.64 
L 535.325043 303.64 
L 538.481836 303.64 
L 541.63863 303.64 
L 544.795423 303.64 
L 547.952216 303.64 
L 551.10901 303.64 
L 554.265803 303.64 
L 557.422597 303.64 
L 560.57939 303.64 
L 563.736183 303.64 
L 566.892977 303.64 
L 570.04977 303.64 
L 573.206564 303.64 
L 576.363357 303.64 
L 579.52015 303.64 
L 582.676944 303.64 
L 582.676944 301.677502 
L 582.676944 301.677502 
L 579.52015 301.238344 
L 576.363357 300.713972 
L 573.206564 300.090933 
L 570.04977 299.35432 
L 566.892977 298.487749 
L 563.736183 297.473366 
L 560.57939 296.291895 
L 557.422597 294.922719 
L 554.265803 293.344019 
L 551.10901 291.532958 
L 547.952216 289.46592 
L 544.795423 287.118812 
L 541.63863 284.467422 
L 538.481836 281.487842 
L 535.325043 278.156939 
L 532.168249 274.452887 
L 529.011456 270.355738 
L 525.854663 265.848033 
L 522.697869 260.915428 
L 519.541076 255.54734 
L 516.384282 249.737573 
L 513.227489 243.484926 
L 510.070696 236.793748 
L 506.913902 229.674434 
L 503.757109 222.143822 
L 500.600315 214.225497 
L 497.443522 205.949959 
L 494.286728 197.354653 
L 491.129935 188.483853 
L 487.973142 179.388367 
L 484.816348 170.125099 
L 481.659555 160.756422 
L 478.502761 151.349408 
L 475.345968 141.974906 
L 472.189175 132.706486 
L 469.032381 123.619274 
L 465.875588 114.788714 
L 462.718794 106.289261 
L 459.562001 98.193071 
L 456.405208 90.568695 
L 453.248414 83.479824 
L 450.091621 76.984123 
L 446.934827 71.132173 
L 443.778034 65.966566 
L 440.621241 61.521161 
L 437.464447 57.82054 
L 434.307654 54.879652 
L 431.15086 52.703681 
L 427.994067 51.288119 
L 424.837274 50.619048 
L 421.68048 50.673608 
L 418.523687 51.420656 
L 415.366893 52.82157 
L 412.2101 54.831186 
L 409.053307 57.398837 
L 405.896513 60.469465 
L 402.73972 63.984765 
L 399.582926 67.884353 
L 396.426133 72.106896 
L 393.26934 76.591217 
L 390.112546 81.277311 
L 386.955753 86.107287 
L 383.798959 91.026196 
L 380.642166 95.982742 
L 377.485372 100.929877 
L 374.328579 105.825257 
L 371.171786 110.631575 
L 368.014992 115.316771 
L 364.858199 119.854119 
L 361.701405 124.222211 
L 358.544612 128.404832 
L 355.387819 132.390759 
L 352.231025 136.173475 
L 349.074232 139.750826 
L 345.917438 143.124623 
L 342.760645 146.300211 
L 339.603852 149.28601 
L 336.447058 152.093036 
L 333.290265 154.73442 
L 330.133471 157.224928 
L 326.976678 159.580489 
L 323.819885 161.817741 
L 320.663091 163.953599 
L 317.506298 166.004851 
L 314.349504 167.987779 
L 311.192711 169.917824 
L 308.035918 171.809277 
L 304.879124 173.675021 
L 301.722331 175.526301 
L 298.565537 177.372544 
L 295.408744 179.221217 
L 292.251951 181.077731 
L 289.095157 182.94538 
L 285.938364 184.825326 
L 282.78157 186.716619 
L 279.624777 188.616257 
L 276.467984 190.519279 
L 273.31119 192.418889 
L 270.154397 194.306612 
L 266.997603 196.172473 
L 263.84081 198.005197 
L 260.684016 199.792431 
L 257.527223 201.520978 
L 254.37043 203.177038 
L 251.213636 204.746466 
L 248.056843 206.215016 
L 244.900049 207.568602 
L 241.743256 208.793543 
L 238.586463 209.876801 
L 235.429669 210.806215 
L 232.272876 211.570716 
L 229.116082 212.160529 
L 225.959289 212.567356 
L 222.802496 212.784543 
L 219.645702 212.807227 
L 216.488909 212.632455 
L 213.332115 212.259295 
L 210.175322 211.68891 
L 207.018529 210.924621 
L 203.861735 209.971941 
L 200.704942 208.838591 
L 197.548148 207.534491 
L 194.391355 206.071727 
L 191.234562 204.464499 
L 188.077768 202.729048 
L 184.920975 200.883555 
L 181.764181 198.948018 
L 178.607388 196.944112 
L 175.450595 194.895022 
L 172.293801 192.82525 
L 169.137008 190.760405 
L 165.980214 188.726968 
L 162.823421 186.752033 
L 159.666628 184.863034 
L 156.509834 183.087444 
L 153.353041 181.452465 
L 150.196247 179.984707 
L 147.039454 178.709843 
L 143.88266 177.652279 
L 140.725867 176.834807 
L 137.569074 176.278275 
L 134.41228 176.001262 
L 131.255487 176.019778 
L 128.098693 176.346982 
L 124.9419 176.992944 
L 121.785107 177.964437 
L 118.628313 179.264776 
L 115.47152 180.893713 
L 112.314726 182.847388 
L 109.157933 185.118328 
L 106.00114 187.695525 
L 102.844346 190.56456 
L 99.687553 193.7078 
L 96.530759 197.10464 
L 93.373966 200.731815 
L 90.217173 204.563742 
L 87.060379 208.572917 
L 83.903586 212.730335 
L 80.746792 217.005941 
L 77.589999 221.369079 
L 74.433206 225.788964 
L 71.276412 230.235125 
L 68.119619 234.677848 
L 64.962825 239.088575 
L 61.806032 243.440285 
L 58.649239 247.707815 
L 55.492445 251.868144 
L 52.335652 255.900619 
L 49.178858 259.787129 
L 46.022065 263.512214 
L 42.865272 267.063129 
L 39.708478 270.429846 
L 36.551685 273.605006 
L 33.394891 276.58383 
L 30.238098 279.36398 
L 27.081304 281.945394 
L 23.924511 284.330087 
L 20.767718 286.521934 
L 17.610924 288.526439 
L 14.454131 290.350491 
L 11.297337 292.002122 
L 8.140544 293.490275 
L 4.983751 294.824565 
L 1.826957 296.015071 
L -1.329836 297.072135 
L -4.48663 298.006176 
L -7.643423 298.827538 
L -10.800216 299.546348 
L -13.95701 300.172399 
L -17.113803 300.71506 
L -20.270597 301.183201 
L -23.42739 301.585137 
L -26.584183 301.928597 
L -29.740977 302.220702 
L -32.89777 302.467959 
L -36.054564 302.676267 
L -39.211357 302.850938 
L -42.36815 302.996716 
L -45.524944 303.117811 
z
" style="fill:#1f77b4;fill-opacity:0.4;stroke:#1f77b4;"/>
   </g>
   <g id="PolyCollection_2">
    <path clip-path="url(#pfc9e96b6de)" d="M -54.433082 303.115013 
L -54.433082 303.64 
L -50.869795 303.64 
L -47.306508 303.64 
L -43.74322 303.64 
L -40.179933 303.64 
L -36.616646 303.64 
L -33.053359 303.64 
L -29.490071 303.64 
L -25.926784 303.64 
L -22.363497 303.64 
L -18.800209 303.64 
L -15.236922 303.64 
L -11.673635 303.64 
L -8.110348 303.64 
L -4.54706 303.64 
L -0.983773 303.64 
L 2.579514 303.64 
L 6.142801 303.64 
L 9.706089 303.64 
L 13.269376 303.64 
L 16.832663 303.64 
L 20.39595 303.64 
L 23.959238 303.64 
L 27.522525 303.64 
L 31.085812 303.64 
L 34.649099 303.64 
L 38.212387 303.64 
L 41.775674 303.64 
L 45.338961 303.64 
L 48.902248 303.64 
L 52.465536 303.64 
L 56.028823 303.64 
L 59.59211 303.64 
L 63.155397 303.64 
L 66.718685 303.64 
L 70.281972 303.64 
L 73.845259 303.64 
L 77.408546 303.64 
L 80.971834 303.64 
L 84.535121 303.64 
L 88.098408 303.64 
L 91.661695 303.64 
L 95.224983 303.64 
L 98.78827 303.64 
L 102.351557 303.64 
L 105.914845 303.64 
L 109.478132 303.64 
L 113.041419 303.64 
L 116.604706 303.64 
L 120.167994 303.64 
L 123.731281 303.64 
L 127.294568 303.64 
L 130.857855 303.64 
L 134.421143 303.64 
L 137.98443 303.64 
L 141.547717 303.64 
L 145.111004 303.64 
L 148.674292 303.64 
L 152.237579 303.64 
L 155.800866 303.64 
L 159.364153 303.64 
L 162.927441 303.64 
L 166.490728 303.64 
L 170.054015 303.64 
L 173.617302 303.64 
L 177.18059 303.64 
L 180.743877 303.64 
L 184.307164 303.64 
L 187.870451 303.64 
L 191.433739 303.64 
L 194.997026 303.64 
L 198.560313 303.64 
L 202.1236 303.64 
L 205.686888 303.64 
L 209.250175 303.64 
L 212.813462 303.64 
L 216.376749 303.64 
L 219.940037 303.64 
L 223.503324 303.64 
L 227.066611 303.64 
L 230.629898 303.64 
L 234.193186 303.64 
L 237.756473 303.64 
L 241.31976 303.64 
L 244.883048 303.64 
L 248.446335 303.64 
L 252.009622 303.64 
L 255.572909 303.64 
L 259.136197 303.64 
L 262.699484 303.64 
L 266.262771 303.64 
L 269.826058 303.64 
L 273.389346 303.64 
L 276.952633 303.64 
L 280.51592 303.64 
L 284.079207 303.64 
L 287.642495 303.64 
L 291.205782 303.64 
L 294.769069 303.64 
L 298.332356 303.64 
L 301.895644 303.64 
L 305.458931 303.64 
L 309.022218 303.64 
L 312.585505 303.64 
L 316.148793 303.64 
L 319.71208 303.64 
L 323.275367 303.64 
L 326.838654 303.64 
L 330.401942 303.64 
L 333.965229 303.64 
L 337.528516 303.64 
L 341.091803 303.64 
L 344.655091 303.64 
L 348.218378 303.64 
L 351.781665 303.64 
L 355.344952 303.64 
L 358.90824 303.64 
L 362.471527 303.64 
L 366.034814 303.64 
L 369.598102 303.64 
L 373.161389 303.64 
L 376.724676 303.64 
L 380.287963 303.64 
L 383.851251 303.64 
L 387.414538 303.64 
L 390.977825 303.64 
L 394.541112 303.64 
L 398.1044 303.64 
L 401.667687 303.64 
L 405.230974 303.64 
L 408.794261 303.64 
L 412.357549 303.64 
L 415.920836 303.64 
L 419.484123 303.64 
L 423.04741 303.64 
L 426.610698 303.64 
L 430.173985 303.64 
L 433.737272 303.64 
L 437.300559 303.64 
L 440.863847 303.64 
L 444.427134 303.64 
L 447.990421 303.64 
L 451.553708 303.64 
L 455.116996 303.64 
L 458.680283 303.64 
L 462.24357 303.64 
L 465.806857 303.64 
L 469.370145 303.64 
L 472.933432 303.64 
L 476.496719 303.64 
L 480.060006 303.64 
L 483.623294 303.64 
L 487.186581 303.64 
L 490.749868 303.64 
L 494.313155 303.64 
L 497.876443 303.64 
L 501.43973 303.64 
L 505.003017 303.64 
L 508.566305 303.64 
L 512.129592 303.64 
L 515.692879 303.64 
L 519.256166 303.64 
L 522.819454 303.64 
L 526.382741 303.64 
L 529.946028 303.64 
L 533.509315 303.64 
L 537.072603 303.64 
L 540.63589 303.64 
L 544.199177 303.64 
L 547.762464 303.64 
L 551.325752 303.64 
L 554.889039 303.64 
L 558.452326 303.64 
L 562.015613 303.64 
L 565.578901 303.64 
L 569.142188 303.64 
L 572.705475 303.64 
L 576.268762 303.64 
L 579.83205 303.64 
L 583.395337 303.64 
L 586.958624 303.64 
L 590.521911 303.64 
L 594.085199 303.64 
L 597.648486 303.64 
L 601.211773 303.64 
L 604.77506 303.64 
L 608.338348 303.64 
L 611.901635 303.64 
L 615.464922 303.64 
L 619.028209 303.64 
L 622.591497 303.64 
L 626.154784 303.64 
L 629.718071 303.64 
L 633.281359 303.64 
L 636.844646 303.64 
L 640.407933 303.64 
L 643.97122 303.64 
L 647.534508 303.64 
L 651.097795 303.64 
L 654.661082 303.64 
L 654.661082 301.489828 
L 654.661082 301.489828 
L 651.097795 301.140684 
L 647.534508 300.742092 
L 643.97122 300.288306 
L 640.407933 299.773121 
L 636.844646 299.189858 
L 633.281359 298.531366 
L 629.718071 297.790027 
L 626.154784 296.957767 
L 622.591497 296.026073 
L 619.028209 294.986024 
L 615.464922 293.828324 
L 611.901635 292.543349 
L 608.338348 291.121205 
L 604.77506 289.551793 
L 601.211773 287.824888 
L 597.648486 285.930228 
L 594.085199 283.857617 
L 590.521911 281.597031 
L 586.958624 279.138748 
L 583.395337 276.473472 
L 579.83205 273.592478 
L 576.268762 270.487761 
L 572.705475 267.152183 
L 569.142188 263.579641 
L 565.578901 259.765219 
L 562.015613 255.705353 
L 558.452326 251.397984 
L 554.889039 246.842717 
L 551.325752 242.040957 
L 547.762464 236.996047 
L 544.199177 231.713383 
L 540.63589 226.200518 
L 537.072603 220.467241 
L 533.509315 214.525638 
L 529.946028 208.390121 
L 526.382741 202.077435 
L 522.819454 195.606634 
L 519.256166 188.999023 
L 515.692879 182.278071 
L 512.129592 175.469288 
L 508.566305 168.600071 
L 505.003017 161.699514 
L 501.43973 154.798194 
L 497.876443 147.927919 
L 494.313155 141.121452 
L 490.749868 134.412213 
L 487.186581 127.833958 
L 483.623294 121.420442 
L 480.060006 115.205068 
L 476.496719 109.220536 
L 472.933432 103.498482 
L 469.370145 98.069122 
L 465.806857 92.960916 
L 462.24357 88.200229 
L 458.680283 83.811031 
L 455.116996 79.814608 
L 451.553708 76.229312 
L 447.990421 73.070345 
L 444.427134 70.349581 
L 440.863847 68.075429 
L 437.300559 66.252741 
L 433.737272 64.882776 
L 430.173985 63.963195 
L 426.610698 63.488119 
L 423.04741 63.44823 
L 419.484123 63.83091 
L 415.920836 64.620437 
L 412.357549 65.798211 
L 408.794261 67.343023 
L 405.230974 69.231349 
L 401.667687 71.437676 
L 398.1044 73.934853 
L 394.541112 76.694447 
L 390.977825 79.687118 
L 387.414538 82.882994 
L 383.851251 86.252041 
L 380.287963 89.764429 
L 376.724676 93.390881 
L 373.161389 97.102999 
L 369.598102 100.873571 
L 366.034814 104.676846 
L 362.471527 108.488774 
L 358.90824 112.287214 
L 355.344952 116.052103 
L 351.781665 119.765582 
L 348.218378 123.412086 
L 344.655091 126.978392 
L 341.091803 130.453626 
L 337.528516 133.829233 
L 333.965229 137.098915 
L 330.401942 140.258531 
L 326.838654 143.305968 
L 323.275367 146.240992 
L 319.71208 149.065068 
L 316.148793 151.781174 
L 312.585505 154.393592 
L 309.022218 156.9077 
L 305.458931 159.329754 
L 301.895644 161.666675 
L 298.332356 163.925841 
L 294.769069 166.114887 
L 291.205782 168.241518 
L 287.642495 170.313339 
L 284.079207 172.337704 
L 280.51592 174.321581 
L 276.952633 176.271447 
L 273.389346 178.193196 
L 269.826058 180.092081 
L 266.262771 181.972667 
L 262.699484 183.838817 
L 259.136197 185.693692 
L 255.572909 187.539774 
L 252.009622 189.378906 
L 248.446335 191.212341 
L 244.883048 193.040814 
L 241.31976 194.864616 
L 237.756473 196.683673 
L 234.193186 198.497638 
L 230.629898 200.305974 
L 227.066611 202.108041 
L 223.503324 203.903179 
L 219.940037 205.69078 
L 216.376749 207.470361 
L 212.813462 209.241612 
L 209.250175 211.00445 
L 205.686888 212.759047 
L 202.1236 214.505856 
L 198.560313 216.245612 
L 194.997026 217.979335 
L 191.433739 219.708309 
L 187.870451 221.434055 
L 184.307164 223.158295 
L 180.743877 224.882905 
L 177.18059 226.609864 
L 173.617302 228.341193 
L 170.054015 230.078895 
L 166.490728 231.824894 
L 162.927441 233.580972 
L 159.364153 235.348704 
L 155.800866 237.12941 
L 152.237579 238.924095 
L 148.674292 240.733411 
L 145.111004 242.557616 
L 141.547717 244.396547 
L 137.98443 246.249599 
L 134.421143 248.115717 
L 130.857855 249.993396 
L 127.294568 251.880689 
L 123.731281 253.775222 
L 120.167994 255.674229 
L 116.604706 257.57458 
L 113.041419 259.472822 
L 109.478132 261.365232 
L 105.914845 263.247863 
L 102.351557 265.116604 
L 98.78827 266.967232 
L 95.224983 268.795477 
L 91.661695 270.597075 
L 88.098408 272.367828 
L 84.535121 274.103658 
L 80.971834 275.800657 
L 77.408546 277.455134 
L 73.845259 279.063659 
L 70.281972 280.623096 
L 66.718685 282.130639 
L 63.155397 283.58383 
L 59.59211 284.980582 
L 56.028823 286.319191 
L 52.465536 287.598337 
L 48.902248 288.817092 
L 45.338961 289.974905 
L 41.775674 291.071602 
L 38.212387 292.107361 
L 34.649099 293.0827 
L 31.085812 293.998452 
L 27.522525 294.85574 
L 23.959238 295.655949 
L 20.39595 296.400699 
L 16.832663 297.091813 
L 13.269376 297.731287 
L 9.706089 298.321264 
L 6.142801 298.863998 
L 2.579514 299.361828 
L -0.983773 299.817155 
L -4.54706 300.232409 
L -8.110348 300.610032 
L -11.673635 300.952451 
L -15.236922 301.262062 
L -18.800209 301.541212 
L -22.363497 301.792184 
L -25.926784 302.017183 
L -29.490071 302.218327 
L -33.053359 302.397639 
L -36.616646 302.55704 
L -40.179933 302.698344 
L -43.74322 302.823254 
L -47.306508 302.933365 
L -50.869795 303.03016 
L -54.433082 303.115013 
z
" style="fill:#ff7f0e;fill-opacity:0.4;stroke:#ff7f0e;"/>
   </g>
   <g id="matplotlib.axis_1">
    <g id="xtick_1">
     <g id="line2d_1">
      <defs>
       <path d="M 0 0 
L 0 3.5 
" id="mceffa8926e" style="stroke:#000000;stroke-width:0.8;"/>
      </defs>
      <g>
       <use style="stroke:#000000;stroke-width:0.8;" x="47.81" xlink:href="#mceffa8926e" y="303.64"/>
      </g>
     </g>
     <g id="text_1">
      <!-- 0.0 -->
      <g transform="translate(39.858438 318.238437)scale(0.1 -0.1)">
       <defs>
        <path d="M 2034 4250 
Q 1547 4250 1301 3770 
Q 1056 3291 1056 2328 
Q 1056 1369 1301 889 
Q 1547 409 2034 409 
Q 2525 409 2770 889 
Q 3016 1369 3016 2328 
Q 3016 3291 2770 3770 
Q 2525 4250 2034 4250 
z
M 2034 4750 
Q 2819 4750 3233 4129 
Q 3647 3509 3647 2328 
Q 3647 1150 3233 529 
Q 2819 -91 2034 -91 
Q 1250 -91 836 529 
Q 422 1150 422 2328 
Q 422 3509 836 4129 
Q 1250 4750 2034 4750 
z
" id="DejaVuSans-30" transform="scale(0.015625)"/>
        <path d="M 684 794 
L 1344 794 
L 1344 0 
L 684 0 
L 684 794 
z
" id="DejaVuSans-2e" transform="scale(0.015625)"/>
       </defs>
       <use xlink:href="#DejaVuSans-30"/>
       <use x="63.623047" xlink:href="#DejaVuSans-2e"/>
       <use x="95.410156" xlink:href="#DejaVuSans-30"/>
      </g>
     </g>
    </g>
    <g id="xtick_2">
     <g id="line2d_2">
      <g>
       <use style="stroke:#000000;stroke-width:0.8;" x="126.655" xlink:href="#mceffa8926e" y="303.64"/>
      </g>
     </g>
     <g id="text_2">
      <!-- 0.2 -->
      <g transform="translate(118.703438 318.238437)scale(0.1 -0.1)">
       <defs>
        <path d="M 1228 531 
L 3431 531 
L 3431 0 
L 469 0 
L 469 531 
Q 828 903 1448 1529 
Q 2069 2156 2228 2338 
Q 2531 2678 2651 2914 
Q 2772 3150 2772 3378 
Q 2772 3750 2511 3984 
Q 2250 4219 1831 4219 
Q 1534 4219 1204 4116 
Q 875 4013 500 3803 
L 500 4441 
Q 881 4594 1212 4672 
Q 1544 4750 1819 4750 
Q 2544 4750 2975 4387 
Q 3406 4025 3406 3419 
Q 3406 3131 3298 2873 
Q 3191 2616 2906 2266 
Q 2828 2175 2409 1742 
Q 1991 1309 1228 531 
z
" id="DejaVuSans-32" transform="scale(0.015625)"/>
       </defs>
       <use xlink:href="#DejaVuSans-30"/>
       <use x="63.623047" xlink:href="#DejaVuSans-2e"/>
       <use x="95.410156" xlink:href="#DejaVuSans-32"/>
      </g>
     </g>
    </g>
    <g id="xtick_3">
     <g id="line2d_3">
      <g>
       <use style="stroke:#000000;stroke-width:0.8;" x="205.5" xlink:href="#mceffa8926e" y="303.64"/>
      </g>
     </g>
     <g id="text_3">
      <!-- 0.4 -->
      <g transform="translate(197.548438 318.238437)scale(0.1 -0.1)">
       <defs>
        <path d="M 2419 4116 
L 825 1625 
L 2419 1625 
L 2419 4116 
z
M 2253 4666 
L 3047 4666 
L 3047 1625 
L 3713 1625 
L 3713 1100 
L 3047 1100 
L 3047 0 
L 2419 0 
L 2419 1100 
L 313 1100 
L 313 1709 
L 2253 4666 
z
" id="DejaVuSans-34" transform="scale(0.015625)"/>
       </defs>
       <use xlink:href="#DejaVuSans-30"/>
       <use x="63.623047" xlink:href="#DejaVuSans-2e"/>
       <use x="95.410156" xlink:href="#DejaVuSans-34"/>
      </g>
     </g>
    </g>
    <g id="xtick_4">
     <g id="line2d_4">
      <g>
       <use style="stroke:#000000;stroke-width:0.8;" x="284.345" xlink:href="#mceffa8926e" y="303.64"/>
      </g>
     </g>
     <g id="text_4">
      <!-- 0.6 -->
      <g transform="translate(276.393438 318.238437)scale(0.1 -0.1)">
       <defs>
        <path d="M 2113 2584 
Q 1688 2584 1439 2293 
Q 1191 2003 1191 1497 
Q 1191 994 1439 701 
Q 1688 409 2113 409 
Q 2538 409 2786 701 
Q 3034 994 3034 1497 
Q 3034 2003 2786 2293 
Q 2538 2584 2113 2584 
z
M 3366 4563 
L 3366 3988 
Q 3128 4100 2886 4159 
Q 2644 4219 2406 4219 
Q 1781 4219 1451 3797 
Q 1122 3375 1075 2522 
Q 1259 2794 1537 2939 
Q 1816 3084 2150 3084 
Q 2853 3084 3261 2657 
Q 3669 2231 3669 1497 
Q 3669 778 3244 343 
Q 2819 -91 2113 -91 
Q 1303 -91 875 529 
Q 447 1150 447 2328 
Q 447 3434 972 4092 
Q 1497 4750 2381 4750 
Q 2619 4750 2861 4703 
Q 3103 4656 3366 4563 
z
" id="DejaVuSans-36" transform="scale(0.015625)"/>
       </defs>
       <use xlink:href="#DejaVuSans-30"/>
       <use x="63.623047" xlink:href="#DejaVuSans-2e"/>
       <use x="95.410156" xlink:href="#DejaVuSans-36"/>
      </g>
     </g>
    </g>
    <g id="xtick_5">
     <g id="line2d_5">
      <g>
       <use style="stroke:#000000;stroke-width:0.8;" x="363.19" xlink:href="#mceffa8926e" y="303.64"/>
      </g>
     </g>
     <g id="text_5">
      <!-- 0.8 -->
      <g transform="translate(355.238437 318.238437)scale(0.1 -0.1)">
       <defs>
        <path d="M 2034 2216 
Q 1584 2216 1326 1975 
Q 1069 1734 1069 1313 
Q 1069 891 1326 650 
Q 1584 409 2034 409 
Q 2484 409 2743 651 
Q 3003 894 3003 1313 
Q 3003 1734 2745 1975 
Q 2488 2216 2034 2216 
z
M 1403 2484 
Q 997 2584 770 2862 
Q 544 3141 544 3541 
Q 544 4100 942 4425 
Q 1341 4750 2034 4750 
Q 2731 4750 3128 4425 
Q 3525 4100 3525 3541 
Q 3525 3141 3298 2862 
Q 3072 2584 2669 2484 
Q 3125 2378 3379 2068 
Q 3634 1759 3634 1313 
Q 3634 634 3220 271 
Q 2806 -91 2034 -91 
Q 1263 -91 848 271 
Q 434 634 434 1313 
Q 434 1759 690 2068 
Q 947 2378 1403 2484 
z
M 1172 3481 
Q 1172 3119 1398 2916 
Q 1625 2713 2034 2713 
Q 2441 2713 2670 2916 
Q 2900 3119 2900 3481 
Q 2900 3844 2670 4047 
Q 2441 4250 2034 4250 
Q 1625 4250 1398 4047 
Q 1172 3844 1172 3481 
z
" id="DejaVuSans-38" transform="scale(0.015625)"/>
       </defs>
       <use xlink:href="#DejaVuSans-30"/>
       <use x="63.623047" xlink:href="#DejaVuSans-2e"/>
       <use x="95.410156" xlink:href="#DejaVuSans-38"/>
      </g>
     </g>
    </g>
    <g id="xtick_6">
     <g id="line2d_6">
      <g>
       <use style="stroke:#000000;stroke-width:0.8;" x="442.035" xlink:href="#mceffa8926e" y="303.64"/>
      </g>
     </g>
     <g id="text_6">
      <!-- 1.0 -->
      <g transform="translate(434.083437 318.238437)scale(0.1 -0.1)">
       <defs>
        <path d="M 794 531 
L 1825 531 
L 1825 4091 
L 703 3866 
L 703 4441 
L 1819 4666 
L 2450 4666 
L 2450 531 
L 3481 531 
L 3481 0 
L 794 0 
L 794 531 
z
" id="DejaVuSans-31" transform="scale(0.015625)"/>
       </defs>
       <use xlink:href="#DejaVuSans-31"/>
       <use x="63.623047" xlink:href="#DejaVuSans-2e"/>
       <use x="95.410156" xlink:href="#DejaVuSans-30"/>
      </g>
     </g>
    </g>
    <g id="text_7">
     <!-- Credibility index -->
     <g transform="translate(204.317812 331.916562)scale(0.1 -0.1)">
      <defs>
       <path d="M 4122 4306 
L 4122 3641 
Q 3803 3938 3442 4084 
Q 3081 4231 2675 4231 
Q 1875 4231 1450 3742 
Q 1025 3253 1025 2328 
Q 1025 1406 1450 917 
Q 1875 428 2675 428 
Q 3081 428 3442 575 
Q 3803 722 4122 1019 
L 4122 359 
Q 3791 134 3420 21 
Q 3050 -91 2638 -91 
Q 1578 -91 968 557 
Q 359 1206 359 2328 
Q 359 3453 968 4101 
Q 1578 4750 2638 4750 
Q 3056 4750 3426 4639 
Q 3797 4528 4122 4306 
z
" id="DejaVuSans-43" transform="scale(0.015625)"/>
       <path d="M 2631 2963 
Q 2534 3019 2420 3045 
Q 2306 3072 2169 3072 
Q 1681 3072 1420 2755 
Q 1159 2438 1159 1844 
L 1159 0 
L 581 0 
L 581 3500 
L 1159 3500 
L 1159 2956 
Q 1341 3275 1631 3429 
Q 1922 3584 2338 3584 
Q 2397 3584 2469 3576 
Q 2541 3569 2628 3553 
L 2631 2963 
z
" id="DejaVuSans-72" transform="scale(0.015625)"/>
       <path d="M 3597 1894 
L 3597 1613 
L 953 1613 
Q 991 1019 1311 708 
Q 1631 397 2203 397 
Q 2534 397 2845 478 
Q 3156 559 3463 722 
L 3463 178 
Q 3153 47 2828 -22 
Q 2503 -91 2169 -91 
Q 1331 -91 842 396 
Q 353 884 353 1716 
Q 353 2575 817 3079 
Q 1281 3584 2069 3584 
Q 2775 3584 3186 3129 
Q 3597 2675 3597 1894 
z
M 3022 2063 
Q 3016 2534 2758 2815 
Q 2500 3097 2075 3097 
Q 1594 3097 1305 2825 
Q 1016 2553 972 2059 
L 3022 2063 
z
" id="DejaVuSans-65" transform="scale(0.015625)"/>
       <path d="M 2906 2969 
L 2906 4863 
L 3481 4863 
L 3481 0 
L 2906 0 
L 2906 525 
Q 2725 213 2448 61 
Q 2172 -91 1784 -91 
Q 1150 -91 751 415 
Q 353 922 353 1747 
Q 353 2572 751 3078 
Q 1150 3584 1784 3584 
Q 2172 3584 2448 3432 
Q 2725 3281 2906 2969 
z
M 947 1747 
Q 947 1113 1208 752 
Q 1469 391 1925 391 
Q 2381 391 2643 752 
Q 2906 1113 2906 1747 
Q 2906 2381 2643 2742 
Q 2381 3103 1925 3103 
Q 1469 3103 1208 2742 
Q 947 2381 947 1747 
z
" id="DejaVuSans-64" transform="scale(0.015625)"/>
       <path d="M 603 3500 
L 1178 3500 
L 1178 0 
L 603 0 
L 603 3500 
z
M 603 4863 
L 1178 4863 
L 1178 4134 
L 603 4134 
L 603 4863 
z
" id="DejaVuSans-69" transform="scale(0.015625)"/>
       <path d="M 3116 1747 
Q 3116 2381 2855 2742 
Q 2594 3103 2138 3103 
Q 1681 3103 1420 2742 
Q 1159 2381 1159 1747 
Q 1159 1113 1420 752 
Q 1681 391 2138 391 
Q 2594 391 2855 752 
Q 3116 1113 3116 1747 
z
M 1159 2969 
Q 1341 3281 1617 3432 
Q 1894 3584 2278 3584 
Q 2916 3584 3314 3078 
Q 3713 2572 3713 1747 
Q 3713 922 3314 415 
Q 2916 -91 2278 -91 
Q 1894 -91 1617 61 
Q 1341 213 1159 525 
L 1159 0 
L 581 0 
L 581 4863 
L 1159 4863 
L 1159 2969 
z
" id="DejaVuSans-62" transform="scale(0.015625)"/>
       <path d="M 603 4863 
L 1178 4863 
L 1178 0 
L 603 0 
L 603 4863 
z
" id="DejaVuSans-6c" transform="scale(0.015625)"/>
       <path d="M 1172 4494 
L 1172 3500 
L 2356 3500 
L 2356 3053 
L 1172 3053 
L 1172 1153 
Q 1172 725 1289 603 
Q 1406 481 1766 481 
L 2356 481 
L 2356 0 
L 1766 0 
Q 1100 0 847 248 
Q 594 497 594 1153 
L 594 3053 
L 172 3053 
L 172 3500 
L 594 3500 
L 594 4494 
L 1172 4494 
z
" id="DejaVuSans-74" transform="scale(0.015625)"/>
       <path d="M 2059 -325 
Q 1816 -950 1584 -1140 
Q 1353 -1331 966 -1331 
L 506 -1331 
L 506 -850 
L 844 -850 
Q 1081 -850 1212 -737 
Q 1344 -625 1503 -206 
L 1606 56 
L 191 3500 
L 800 3500 
L 1894 763 
L 2988 3500 
L 3597 3500 
L 2059 -325 
z
" id="DejaVuSans-79" transform="scale(0.015625)"/>
       <path id="DejaVuSans-20" transform="scale(0.015625)"/>
       <path d="M 3513 2113 
L 3513 0 
L 2938 0 
L 2938 2094 
Q 2938 2591 2744 2837 
Q 2550 3084 2163 3084 
Q 1697 3084 1428 2787 
Q 1159 2491 1159 1978 
L 1159 0 
L 581 0 
L 581 3500 
L 1159 3500 
L 1159 2956 
Q 1366 3272 1645 3428 
Q 1925 3584 2291 3584 
Q 2894 3584 3203 3211 
Q 3513 2838 3513 2113 
z
" id="DejaVuSans-6e" transform="scale(0.015625)"/>
       <path d="M 3513 3500 
L 2247 1797 
L 3578 0 
L 2900 0 
L 1881 1375 
L 863 0 
L 184 0 
L 1544 1831 
L 300 3500 
L 978 3500 
L 1906 2253 
L 2834 3500 
L 3513 3500 
z
" id="DejaVuSans-78" transform="scale(0.015625)"/>
      </defs>
      <use xlink:href="#DejaVuSans-43"/>
      <use x="69.824219" xlink:href="#DejaVuSans-72"/>
      <use x="108.6875" xlink:href="#DejaVuSans-65"/>
      <use x="170.210938" xlink:href="#DejaVuSans-64"/>
      <use x="233.6875" xlink:href="#DejaVuSans-69"/>
      <use x="261.470703" xlink:href="#DejaVuSans-62"/>
      <use x="324.947266" xlink:href="#DejaVuSans-69"/>
      <use x="352.730469" xlink:href="#DejaVuSans-6c"/>
      <use x="380.513672" xlink:href="#DejaVuSans-69"/>
      <use x="408.296875" xlink:href="#DejaVuSans-74"/>
      <use x="447.505859" xlink:href="#DejaVuSans-79"/>
      <use x="506.685547" xlink:href="#DejaVuSans-20"/>
      <use x="538.472656" xlink:href="#DejaVuSans-69"/>
      <use x="566.255859" xlink:href="#DejaVuSans-6e"/>
      <use x="629.634766" xlink:href="#DejaVuSans-64"/>
      <use x="693.111328" xlink:href="#DejaVuSans-65"/>
      <use x="752.884766" xlink:href="#DejaVuSans-78"/>
     </g>
    </g>
   </g>
   <g id="matplotlib.axis_2">
    <g id="ytick_1">
     <g id="line2d_7">
      <defs>
       <path d="M 0 0 
L -3.5 0 
" id="m65072d7923" style="stroke:#000000;stroke-width:0.8;"/>
      </defs>
      <g>
       <use style="stroke:#000000;stroke-width:0.8;" x="47.81" xlink:href="#m65072d7923" y="303.64"/>
      </g>
     </g>
     <g id="text_8">
      <!-- 0.0 -->
      <g transform="translate(24.906875 307.439219)scale(0.1 -0.1)">
       <use xlink:href="#DejaVuSans-30"/>
       <use x="63.623047" xlink:href="#DejaVuSans-2e"/>
       <use x="95.410156" xlink:href="#DejaVuSans-30"/>
      </g>
     </g>
    </g>
    <g id="ytick_2">
     <g id="line2d_8">
      <g>
       <use style="stroke:#000000;stroke-width:0.8;" x="47.81" xlink:href="#m65072d7923" y="269.670808"/>
      </g>
     </g>
     <g id="text_9">
      <!-- 0.2 -->
      <g transform="translate(24.906875 273.470026)scale(0.1 -0.1)">
       <use xlink:href="#DejaVuSans-30"/>
       <use x="63.623047" xlink:href="#DejaVuSans-2e"/>
       <use x="95.410156" xlink:href="#DejaVuSans-32"/>
      </g>
     </g>
    </g>
    <g id="ytick_3">
     <g id="line2d_9">
      <g>
       <use style="stroke:#000000;stroke-width:0.8;" x="47.81" xlink:href="#m65072d7923" y="235.701615"/>
      </g>
     </g>
     <g id="text_10">
      <!-- 0.4 -->
      <g transform="translate(24.906875 239.500834)scale(0.1 -0.1)">
       <use xlink:href="#DejaVuSans-30"/>
       <use x="63.623047" xlink:href="#DejaVuSans-2e"/>
       <use x="95.410156" xlink:href="#DejaVuSans-34"/>
      </g>
     </g>
    </g>
    <g id="ytick_4">
     <g id="line2d_10">
      <g>
       <use style="stroke:#000000;stroke-width:0.8;" x="47.81" xlink:href="#m65072d7923" y="201.732423"/>
      </g>
     </g>
     <g id="text_11">
      <!-- 0.6 -->
      <g transform="translate(24.906875 205.531641)scale(0.1 -0.1)">
       <use xlink:href="#DejaVuSans-30"/>
       <use x="63.623047" xlink:href="#DejaVuSans-2e"/>
       <use x="95.410156" xlink:href="#DejaVuSans-36"/>
      </g>
     </g>
    </g>
    <g id="ytick_5">
     <g id="line2d_11">
      <g>
       <use style="stroke:#000000;stroke-width:0.8;" x="47.81" xlink:href="#m65072d7923" y="167.76323"/>
      </g>
     </g>
     <g id="text_12">
      <!-- 0.8 -->
      <g transform="translate(24.906875 171.562449)scale(0.1 -0.1)">
       <use xlink:href="#DejaVuSans-30"/>
       <use x="63.623047" xlink:href="#DejaVuSans-2e"/>
       <use x="95.410156" xlink:href="#DejaVuSans-38"/>
      </g>
     </g>
    </g>
    <g id="ytick_6">
     <g id="line2d_12">
      <g>
       <use style="stroke:#000000;stroke-width:0.8;" x="47.81" xlink:href="#m65072d7923" y="133.794038"/>
      </g>
     </g>
     <g id="text_13">
      <!-- 1.0 -->
      <g transform="translate(24.906875 137.593257)scale(0.1 -0.1)">
       <use xlink:href="#DejaVuSans-31"/>
       <use x="63.623047" xlink:href="#DejaVuSans-2e"/>
       <use x="95.410156" xlink:href="#DejaVuSans-30"/>
      </g>
     </g>
    </g>
    <g id="ytick_7">
     <g id="line2d_13">
      <g>
       <use style="stroke:#000000;stroke-width:0.8;" x="47.81" xlink:href="#m65072d7923" y="99.824845"/>
      </g>
     </g>
     <g id="text_14">
      <!-- 1.2 -->
      <g transform="translate(24.906875 103.624064)scale(0.1 -0.1)">
       <use xlink:href="#DejaVuSans-31"/>
       <use x="63.623047" xlink:href="#DejaVuSans-2e"/>
       <use x="95.410156" xlink:href="#DejaVuSans-32"/>
      </g>
     </g>
    </g>
    <g id="ytick_8">
     <g id="line2d_14">
      <g>
       <use style="stroke:#000000;stroke-width:0.8;" x="47.81" xlink:href="#m65072d7923" y="65.855653"/>
      </g>
     </g>
     <g id="text_15">
      <!-- 1.4 -->
      <g transform="translate(24.906875 69.654872)scale(0.1 -0.1)">
       <use xlink:href="#DejaVuSans-31"/>
       <use x="63.623047" xlink:href="#DejaVuSans-2e"/>
       <use x="95.410156" xlink:href="#DejaVuSans-34"/>
      </g>
     </g>
    </g>
    <g id="text_16">
     <!-- Density -->
     <g transform="translate(18.827187 189.812594)rotate(-90)scale(0.1 -0.1)">
      <defs>
       <path d="M 1259 4147 
L 1259 519 
L 2022 519 
Q 2988 519 3436 956 
Q 3884 1394 3884 2338 
Q 3884 3275 3436 3711 
Q 2988 4147 2022 4147 
L 1259 4147 
z
M 628 4666 
L 1925 4666 
Q 3281 4666 3915 4102 
Q 4550 3538 4550 2338 
Q 4550 1131 3912 565 
Q 3275 0 1925 0 
L 628 0 
L 628 4666 
z
" id="DejaVuSans-44" transform="scale(0.015625)"/>
       <path d="M 2834 3397 
L 2834 2853 
Q 2591 2978 2328 3040 
Q 2066 3103 1784 3103 
Q 1356 3103 1142 2972 
Q 928 2841 928 2578 
Q 928 2378 1081 2264 
Q 1234 2150 1697 2047 
L 1894 2003 
Q 2506 1872 2764 1633 
Q 3022 1394 3022 966 
Q 3022 478 2636 193 
Q 2250 -91 1575 -91 
Q 1294 -91 989 -36 
Q 684 19 347 128 
L 347 722 
Q 666 556 975 473 
Q 1284 391 1588 391 
Q 1994 391 2212 530 
Q 2431 669 2431 922 
Q 2431 1156 2273 1281 
Q 2116 1406 1581 1522 
L 1381 1569 
Q 847 1681 609 1914 
Q 372 2147 372 2553 
Q 372 3047 722 3315 
Q 1072 3584 1716 3584 
Q 2034 3584 2315 3537 
Q 2597 3491 2834 3397 
z
" id="DejaVuSans-73" transform="scale(0.015625)"/>
      </defs>
      <use xlink:href="#DejaVuSans-44"/>
      <use x="77.001953" xlink:href="#DejaVuSans-65"/>
      <use x="138.525391" xlink:href="#DejaVuSans-6e"/>
      <use x="201.904297" xlink:href="#DejaVuSans-73"/>
      <use x="254.003906" xlink:href="#DejaVuSans-69"/>
      <use x="281.787109" xlink:href="#DejaVuSans-74"/>
      <use x="320.996094" xlink:href="#DejaVuSans-79"/>
     </g>
    </g>
   </g>
   <g id="patch_3">
    <path d="M 47.81 303.64 
L 47.81 37.968 
" style="fill:none;stroke:#000000;stroke-linecap:square;stroke-linejoin:miter;stroke-width:0.8;"/>
   </g>
   <g id="patch_4">
    <path d="M 442.035 303.64 
L 442.035 37.968 
" style="fill:none;stroke:#000000;stroke-linecap:square;stroke-linejoin:miter;stroke-width:0.8;"/>
   </g>
   <g id="patch_5">
    <path d="M 47.81 303.64 
L 442.035 303.64 
" style="fill:none;stroke:#000000;stroke-linecap:square;stroke-linejoin:miter;stroke-width:0.8;"/>
   </g>
   <g id="patch_6">
    <path d="M 47.81 37.968 
L 442.035 37.968 
" style="fill:none;stroke:#000000;stroke-linecap:square;stroke-linejoin:miter;stroke-width:0.8;"/>
   </g>
   <g id="text_17">
    <!-- Credibility index consensus vs non consensus  -->
    <g transform="translate(105.81625 18.530625)scale(0.12 -0.12)">
     <defs>
      <path d="M 3122 3366 
L 3122 2828 
Q 2878 2963 2633 3030 
Q 2388 3097 2138 3097 
Q 1578 3097 1268 2742 
Q 959 2388 959 1747 
Q 959 1106 1268 751 
Q 1578 397 2138 397 
Q 2388 397 2633 464 
Q 2878 531 3122 666 
L 3122 134 
Q 2881 22 2623 -34 
Q 2366 -91 2075 -91 
Q 1284 -91 818 406 
Q 353 903 353 1747 
Q 353 2603 823 3093 
Q 1294 3584 2113 3584 
Q 2378 3584 2631 3529 
Q 2884 3475 3122 3366 
z
" id="DejaVuSans-63" transform="scale(0.015625)"/>
      <path d="M 1959 3097 
Q 1497 3097 1228 2736 
Q 959 2375 959 1747 
Q 959 1119 1226 758 
Q 1494 397 1959 397 
Q 2419 397 2687 759 
Q 2956 1122 2956 1747 
Q 2956 2369 2687 2733 
Q 2419 3097 1959 3097 
z
M 1959 3584 
Q 2709 3584 3137 3096 
Q 3566 2609 3566 1747 
Q 3566 888 3137 398 
Q 2709 -91 1959 -91 
Q 1206 -91 779 398 
Q 353 888 353 1747 
Q 353 2609 779 3096 
Q 1206 3584 1959 3584 
z
" id="DejaVuSans-6f" transform="scale(0.015625)"/>
      <path d="M 544 1381 
L 544 3500 
L 1119 3500 
L 1119 1403 
Q 1119 906 1312 657 
Q 1506 409 1894 409 
Q 2359 409 2629 706 
Q 2900 1003 2900 1516 
L 2900 3500 
L 3475 3500 
L 3475 0 
L 2900 0 
L 2900 538 
Q 2691 219 2414 64 
Q 2138 -91 1772 -91 
Q 1169 -91 856 284 
Q 544 659 544 1381 
z
M 1991 3584 
L 1991 3584 
z
" id="DejaVuSans-75" transform="scale(0.015625)"/>
      <path d="M 191 3500 
L 800 3500 
L 1894 563 
L 2988 3500 
L 3597 3500 
L 2284 0 
L 1503 0 
L 191 3500 
z
" id="DejaVuSans-76" transform="scale(0.015625)"/>
     </defs>
     <use xlink:href="#DejaVuSans-43"/>
     <use x="69.824219" xlink:href="#DejaVuSans-72"/>
     <use x="108.6875" xlink:href="#DejaVuSans-65"/>
     <use x="170.210938" xlink:href="#DejaVuSans-64"/>
     <use x="233.6875" xlink:href="#DejaVuSans-69"/>
     <use x="261.470703" xlink:href="#DejaVuSans-62"/>
     <use x="324.947266" xlink:href="#DejaVuSans-69"/>
     <use x="352.730469" xlink:href="#DejaVuSans-6c"/>
     <use x="380.513672" xlink:href="#DejaVuSans-69"/>
     <use x="408.296875" xlink:href="#DejaVuSans-74"/>
     <use x="447.505859" xlink:href="#DejaVuSans-79"/>
     <use x="506.685547" xlink:href="#DejaVuSans-20"/>
     <use x="538.472656" xlink:href="#DejaVuSans-69"/>
     <use x="566.255859" xlink:href="#DejaVuSans-6e"/>
     <use x="629.634766" xlink:href="#DejaVuSans-64"/>
     <use x="693.111328" xlink:href="#DejaVuSans-65"/>
     <use x="752.884766" xlink:href="#DejaVuSans-78"/>
     <use x="812.064453" xlink:href="#DejaVuSans-20"/>
     <use x="843.851562" xlink:href="#DejaVuSans-63"/>
     <use x="898.832031" xlink:href="#DejaVuSans-6f"/>
     <use x="960.013672" xlink:href="#DejaVuSans-6e"/>
     <use x="1023.392578" xlink:href="#DejaVuSans-73"/>
     <use x="1075.492188" xlink:href="#DejaVuSans-65"/>
     <use x="1137.015625" xlink:href="#DejaVuSans-6e"/>
     <use x="1200.394531" xlink:href="#DejaVuSans-73"/>
     <use x="1252.494141" xlink:href="#DejaVuSans-75"/>
     <use x="1315.873047" xlink:href="#DejaVuSans-73"/>
     <use x="1367.972656" xlink:href="#DejaVuSans-20"/>
     <use x="1399.759766" xlink:href="#DejaVuSans-76"/>
     <use x="1458.939453" xlink:href="#DejaVuSans-73"/>
     <use x="1511.039062" xlink:href="#DejaVuSans-20"/>
     <use x="1542.826172" xlink:href="#DejaVuSans-6e"/>
     <use x="1606.205078" xlink:href="#DejaVuSans-6f"/>
     <use x="1667.386719" xlink:href="#DejaVuSans-6e"/>
     <use x="1730.765625" xlink:href="#DejaVuSans-20"/>
     <use x="1762.552734" xlink:href="#DejaVuSans-63"/>
     <use x="1817.533203" xlink:href="#DejaVuSans-6f"/>
     <use x="1878.714844" xlink:href="#DejaVuSans-6e"/>
     <use x="1942.09375" xlink:href="#DejaVuSans-73"/>
     <use x="1994.193359" xlink:href="#DejaVuSans-65"/>
     <use x="2055.716797" xlink:href="#DejaVuSans-6e"/>
     <use x="2119.095703" xlink:href="#DejaVuSans-73"/>
     <use x="2171.195312" xlink:href="#DejaVuSans-75"/>
     <use x="2234.574219" xlink:href="#DejaVuSans-73"/>
     <use x="2286.673828" xlink:href="#DejaVuSans-20"/>
    </g>
    <!-- Set s2 -->
    <g transform="translate(226.219375 31.968)scale(0.12 -0.12)">
     <defs>
      <path d="M 3425 4513 
L 3425 3897 
Q 3066 4069 2747 4153 
Q 2428 4238 2131 4238 
Q 1616 4238 1336 4038 
Q 1056 3838 1056 3469 
Q 1056 3159 1242 3001 
Q 1428 2844 1947 2747 
L 2328 2669 
Q 3034 2534 3370 2195 
Q 3706 1856 3706 1288 
Q 3706 609 3251 259 
Q 2797 -91 1919 -91 
Q 1588 -91 1214 -16 
Q 841 59 441 206 
L 441 856 
Q 825 641 1194 531 
Q 1563 422 1919 422 
Q 2459 422 2753 634 
Q 3047 847 3047 1241 
Q 3047 1584 2836 1778 
Q 2625 1972 2144 2069 
L 1759 2144 
Q 1053 2284 737 2584 
Q 422 2884 422 3419 
Q 422 4038 858 4394 
Q 1294 4750 2059 4750 
Q 2388 4750 2728 4690 
Q 3069 4631 3425 4513 
z
" id="DejaVuSans-53" transform="scale(0.015625)"/>
     </defs>
     <use xlink:href="#DejaVuSans-53"/>
     <use x="63.476562" xlink:href="#DejaVuSans-65"/>
     <use x="125" xlink:href="#DejaVuSans-74"/>
     <use x="164.208984" xlink:href="#DejaVuSans-20"/>
     <use x="195.996094" xlink:href="#DejaVuSans-73"/>
     <use x="248.095703" xlink:href="#DejaVuSans-32"/>
    </g>
   </g>
   <g id="legend_1">
    <g id="patch_7">
     <path d="M 54.81 97.719875 
L 225.352188 97.719875 
Q 227.352188 97.719875 227.352188 95.719875 
L 227.352188 44.968 
Q 227.352188 42.968 225.352188 42.968 
L 54.81 42.968 
Q 52.81 42.968 52.81 44.968 
L 52.81 95.719875 
Q 52.81 97.719875 54.81 97.719875 
z
" style="fill:#ffffff;opacity:0.8;stroke:#cccccc;stroke-linejoin:miter;"/>
    </g>
    <g id="patch_8">
     <path d="M 56.81 61.205188 
L 76.81 61.205188 
L 76.81 54.205188 
L 56.81 54.205188 
z
" style="fill:#1f77b4;fill-opacity:0.4;stroke:#1f77b4;stroke-linejoin:miter;"/>
    </g>
    <g id="text_18">
     <!-- Correlation higher than 0  -->
     <g transform="translate(84.81 54.566438)scale(0.1 -0.1)">
      <defs>
       <path d="M 2194 1759 
Q 1497 1759 1228 1600 
Q 959 1441 959 1056 
Q 959 750 1161 570 
Q 1363 391 1709 391 
Q 2188 391 2477 730 
Q 2766 1069 2766 1631 
L 2766 1759 
L 2194 1759 
z
M 3341 1997 
L 3341 0 
L 2766 0 
L 2766 531 
Q 2569 213 2275 61 
Q 1981 -91 1556 -91 
Q 1019 -91 701 211 
Q 384 513 384 1019 
Q 384 1609 779 1909 
Q 1175 2209 1959 2209 
L 2766 2209 
L 2766 2266 
Q 2766 2663 2505 2880 
Q 2244 3097 1772 3097 
Q 1472 3097 1187 3025 
Q 903 2953 641 2809 
L 641 3341 
Q 956 3463 1253 3523 
Q 1550 3584 1831 3584 
Q 2591 3584 2966 3190 
Q 3341 2797 3341 1997 
z
" id="DejaVuSans-61" transform="scale(0.015625)"/>
       <path d="M 3513 2113 
L 3513 0 
L 2938 0 
L 2938 2094 
Q 2938 2591 2744 2837 
Q 2550 3084 2163 3084 
Q 1697 3084 1428 2787 
Q 1159 2491 1159 1978 
L 1159 0 
L 581 0 
L 581 4863 
L 1159 4863 
L 1159 2956 
Q 1366 3272 1645 3428 
Q 1925 3584 2291 3584 
Q 2894 3584 3203 3211 
Q 3513 2838 3513 2113 
z
" id="DejaVuSans-68" transform="scale(0.015625)"/>
       <path d="M 2906 1791 
Q 2906 2416 2648 2759 
Q 2391 3103 1925 3103 
Q 1463 3103 1205 2759 
Q 947 2416 947 1791 
Q 947 1169 1205 825 
Q 1463 481 1925 481 
Q 2391 481 2648 825 
Q 2906 1169 2906 1791 
z
M 3481 434 
Q 3481 -459 3084 -895 
Q 2688 -1331 1869 -1331 
Q 1566 -1331 1297 -1286 
Q 1028 -1241 775 -1147 
L 775 -588 
Q 1028 -725 1275 -790 
Q 1522 -856 1778 -856 
Q 2344 -856 2625 -561 
Q 2906 -266 2906 331 
L 2906 616 
Q 2728 306 2450 153 
Q 2172 0 1784 0 
Q 1141 0 747 490 
Q 353 981 353 1791 
Q 353 2603 747 3093 
Q 1141 3584 1784 3584 
Q 2172 3584 2450 3431 
Q 2728 3278 2906 2969 
L 2906 3500 
L 3481 3500 
L 3481 434 
z
" id="DejaVuSans-67" transform="scale(0.015625)"/>
      </defs>
      <use xlink:href="#DejaVuSans-43"/>
      <use x="69.824219" xlink:href="#DejaVuSans-6f"/>
      <use x="131.005859" xlink:href="#DejaVuSans-72"/>
      <use x="170.369141" xlink:href="#DejaVuSans-72"/>
      <use x="209.232422" xlink:href="#DejaVuSans-65"/>
      <use x="270.755859" xlink:href="#DejaVuSans-6c"/>
      <use x="298.539062" xlink:href="#DejaVuSans-61"/>
      <use x="359.818359" xlink:href="#DejaVuSans-74"/>
      <use x="399.027344" xlink:href="#DejaVuSans-69"/>
      <use x="426.810547" xlink:href="#DejaVuSans-6f"/>
      <use x="487.992188" xlink:href="#DejaVuSans-6e"/>
      <use x="551.371094" xlink:href="#DejaVuSans-20"/>
      <use x="583.158203" xlink:href="#DejaVuSans-68"/>
      <use x="646.537109" xlink:href="#DejaVuSans-69"/>
      <use x="674.320312" xlink:href="#DejaVuSans-67"/>
      <use x="737.796875" xlink:href="#DejaVuSans-68"/>
      <use x="801.175781" xlink:href="#DejaVuSans-65"/>
      <use x="862.699219" xlink:href="#DejaVuSans-72"/>
      <use x="903.8125" xlink:href="#DejaVuSans-20"/>
      <use x="935.599609" xlink:href="#DejaVuSans-74"/>
      <use x="974.808594" xlink:href="#DejaVuSans-68"/>
      <use x="1038.1875" xlink:href="#DejaVuSans-61"/>
      <use x="1099.466797" xlink:href="#DejaVuSans-6e"/>
      <use x="1162.845703" xlink:href="#DejaVuSans-20"/>
      <use x="1194.632812" xlink:href="#DejaVuSans-30"/>
      <use x="1258.255859" xlink:href="#DejaVuSans-20"/>
     </g>
     <!-- n=139 -->
     <g transform="translate(84.81 65.76425)scale(0.1 -0.1)">
      <defs>
       <path d="M 678 2906 
L 4684 2906 
L 4684 2381 
L 678 2381 
L 678 2906 
z
M 678 1631 
L 4684 1631 
L 4684 1100 
L 678 1100 
L 678 1631 
z
" id="DejaVuSans-3d" transform="scale(0.015625)"/>
       <path d="M 2597 2516 
Q 3050 2419 3304 2112 
Q 3559 1806 3559 1356 
Q 3559 666 3084 287 
Q 2609 -91 1734 -91 
Q 1441 -91 1130 -33 
Q 819 25 488 141 
L 488 750 
Q 750 597 1062 519 
Q 1375 441 1716 441 
Q 2309 441 2620 675 
Q 2931 909 2931 1356 
Q 2931 1769 2642 2001 
Q 2353 2234 1838 2234 
L 1294 2234 
L 1294 2753 
L 1863 2753 
Q 2328 2753 2575 2939 
Q 2822 3125 2822 3475 
Q 2822 3834 2567 4026 
Q 2313 4219 1838 4219 
Q 1578 4219 1281 4162 
Q 984 4106 628 3988 
L 628 4550 
Q 988 4650 1302 4700 
Q 1616 4750 1894 4750 
Q 2613 4750 3031 4423 
Q 3450 4097 3450 3541 
Q 3450 3153 3228 2886 
Q 3006 2619 2597 2516 
z
" id="DejaVuSans-33" transform="scale(0.015625)"/>
       <path d="M 703 97 
L 703 672 
Q 941 559 1184 500 
Q 1428 441 1663 441 
Q 2288 441 2617 861 
Q 2947 1281 2994 2138 
Q 2813 1869 2534 1725 
Q 2256 1581 1919 1581 
Q 1219 1581 811 2004 
Q 403 2428 403 3163 
Q 403 3881 828 4315 
Q 1253 4750 1959 4750 
Q 2769 4750 3195 4129 
Q 3622 3509 3622 2328 
Q 3622 1225 3098 567 
Q 2575 -91 1691 -91 
Q 1453 -91 1209 -44 
Q 966 3 703 97 
z
M 1959 2075 
Q 2384 2075 2632 2365 
Q 2881 2656 2881 3163 
Q 2881 3666 2632 3958 
Q 2384 4250 1959 4250 
Q 1534 4250 1286 3958 
Q 1038 3666 1038 3163 
Q 1038 2656 1286 2365 
Q 1534 2075 1959 2075 
z
" id="DejaVuSans-39" transform="scale(0.015625)"/>
      </defs>
      <use xlink:href="#DejaVuSans-6e"/>
      <use x="63.378906" xlink:href="#DejaVuSans-3d"/>
      <use x="147.167969" xlink:href="#DejaVuSans-31"/>
      <use x="210.791016" xlink:href="#DejaVuSans-33"/>
      <use x="274.414062" xlink:href="#DejaVuSans-39"/>
     </g>
    </g>
    <g id="patch_9">
     <path d="M 56.81 87.081125 
L 76.81 87.081125 
L 76.81 80.081125 
L 56.81 80.081125 
z
" style="fill:#ff7f0e;fill-opacity:0.4;stroke:#ff7f0e;stroke-linejoin:miter;"/>
    </g>
    <g id="text_19">
     <!-- Correlation higher than 0.8  -->
     <g transform="translate(84.81 80.442375)scale(0.1 -0.1)">
      <use xlink:href="#DejaVuSans-43"/>
      <use x="69.824219" xlink:href="#DejaVuSans-6f"/>
      <use x="131.005859" xlink:href="#DejaVuSans-72"/>
      <use x="170.369141" xlink:href="#DejaVuSans-72"/>
      <use x="209.232422" xlink:href="#DejaVuSans-65"/>
      <use x="270.755859" xlink:href="#DejaVuSans-6c"/>
      <use x="298.539062" xlink:href="#DejaVuSans-61"/>
      <use x="359.818359" xlink:href="#DejaVuSans-74"/>
      <use x="399.027344" xlink:href="#DejaVuSans-69"/>
      <use x="426.810547" xlink:href="#DejaVuSans-6f"/>
      <use x="487.992188" xlink:href="#DejaVuSans-6e"/>
      <use x="551.371094" xlink:href="#DejaVuSans-20"/>
      <use x="583.158203" xlink:href="#DejaVuSans-68"/>
      <use x="646.537109" xlink:href="#DejaVuSans-69"/>
      <use x="674.320312" xlink:href="#DejaVuSans-67"/>
      <use x="737.796875" xlink:href="#DejaVuSans-68"/>
      <use x="801.175781" xlink:href="#DejaVuSans-65"/>
      <use x="862.699219" xlink:href="#DejaVuSans-72"/>
      <use x="903.8125" xlink:href="#DejaVuSans-20"/>
      <use x="935.599609" xlink:href="#DejaVuSans-74"/>
      <use x="974.808594" xlink:href="#DejaVuSans-68"/>
      <use x="1038.1875" xlink:href="#DejaVuSans-61"/>
      <use x="1099.466797" xlink:href="#DejaVuSans-6e"/>
      <use x="1162.845703" xlink:href="#DejaVuSans-20"/>
      <use x="1194.632812" xlink:href="#DejaVuSans-30"/>
      <use x="1258.255859" xlink:href="#DejaVuSans-2e"/>
      <use x="1290.042969" xlink:href="#DejaVuSans-38"/>
      <use x="1353.666016" xlink:href="#DejaVuSans-20"/>
     </g>
     <!-- n=8 -->
     <g transform="translate(84.81 91.640187)scale(0.1 -0.1)">
      <use xlink:href="#DejaVuSans-6e"/>
      <use x="63.378906" xlink:href="#DejaVuSans-3d"/>
      <use x="147.167969" xlink:href="#DejaVuSans-38"/>
     </g>
    </g>
   </g>
  </g>
 </g>
 <defs>
  <clipPath id="pfc9e96b6de">
   <rect height="265.672" width="394.225" x="47.81" y="37.968"/>
  </clipPath>
 </defs>
</svg>
