<?xml version="1.0" encoding="utf-8" standalone="no"?>
<!DOCTYPE svg PUBLIC "-//W3C//DTD SVG 1.1//EN"
  "http://www.w3.org/Graphics/SVG/1.1/DTD/svg11.dtd">
<svg height="345.6pt" version="1.1" viewBox="0 0 460.8 345.6" width="460.8pt" xmlns="http://www.w3.org/2000/svg" xmlns:xlink="http://www.w3.org/1999/xlink">
 <metadata>
  <rdf:RDF xmlns:cc="http://creativecommons.org/ns#" xmlns:dc="http://purl.org/dc/elements/1.1/" xmlns:rdf="http://www.w3.org/1999/02/22-rdf-syntax-ns#">
   <cc:Work>
    <dc:type rdf:resource="http://purl.org/dc/dcmitype/StillImage"/>
    <dc:date>2021-11-24T22:45:51.367445</dc:date>
    <dc:format>image/svg+xml</dc:format>
    <dc:creator>
     <cc:Agent>
      <dc:title>Matplotlib v3.4.3, https://matplotlib.org/</dc:title>
     </cc:Agent>
    </dc:creator>
   </cc:Work>
  </rdf:RDF>
 </metadata>
 <defs>
  <style type="text/css">*{stroke-linecap:butt;stroke-linejoin:round;}</style>
 </defs>
 <g id="figure_1">
  <g id="patch_1">
   <path d="M 0 345.6 
L 460.8 345.6 
L 460.8 0 
L 0 0 
z
" style="fill:#ffffff;"/>
  </g>
  <g id="axes_1">
   <g id="patch_2">
    <path d="M 47.81 303.64 
L 442.035 303.64 
L 442.035 37.968 
L 47.81 37.968 
z
" style="fill:#ffffff;"/>
   </g>
   <g id="PolyCollection_1">
    <path clip-path="url(#pf57bf8a7fd)" d="M -23.537181 303.429951 
L -23.537181 303.64 
L -20.60137 303.64 
L -17.665559 303.64 
L -14.729748 303.64 
L -11.793937 303.64 
L -8.858127 303.64 
L -5.922316 303.64 
L -2.986505 303.64 
L -0.050694 303.64 
L 2.885117 303.64 
L 5.820928 303.64 
L 8.756739 303.64 
L 11.692549 303.64 
L 14.62836 303.64 
L 17.564171 303.64 
L 20.499982 303.64 
L 23.435793 303.64 
L 26.371604 303.64 
L 29.307415 303.64 
L 32.243226 303.64 
L 35.179036 303.64 
L 38.114847 303.64 
L 41.050658 303.64 
L 43.986469 303.64 
L 46.92228 303.64 
L 49.858091 303.64 
L 52.793902 303.64 
L 55.729712 303.64 
L 58.665523 303.64 
L 61.601334 303.64 
L 64.537145 303.64 
L 67.472956 303.64 
L 70.408767 303.64 
L 73.344578 303.64 
L 76.280388 303.64 
L 79.216199 303.64 
L 82.15201 303.64 
L 85.087821 303.64 
L 88.023632 303.64 
L 90.959443 303.64 
L 93.895254 303.64 
L 96.831064 303.64 
L 99.766875 303.64 
L 102.702686 303.64 
L 105.638497 303.64 
L 108.574308 303.64 
L 111.510119 303.64 
L 114.44593 303.64 
L 117.381741 303.64 
L 120.317551 303.64 
L 123.253362 303.64 
L 126.189173 303.64 
L 129.124984 303.64 
L 132.060795 303.64 
L 134.996606 303.64 
L 137.932417 303.64 
L 140.868227 303.64 
L 143.804038 303.64 
L 146.739849 303.64 
L 149.67566 303.64 
L 152.611471 303.64 
L 155.547282 303.64 
L 158.483093 303.64 
L 161.418903 303.64 
L 164.354714 303.64 
L 167.290525 303.64 
L 170.226336 303.64 
L 173.162147 303.64 
L 176.097958 303.64 
L 179.033769 303.64 
L 181.96958 303.64 
L 184.90539 303.64 
L 187.841201 303.64 
L 190.777012 303.64 
L 193.712823 303.64 
L 196.648634 303.64 
L 199.584445 303.64 
L 202.520256 303.64 
L 205.456066 303.64 
L 208.391877 303.64 
L 211.327688 303.64 
L 214.263499 303.64 
L 217.19931 303.64 
L 220.135121 303.64 
L 223.070932 303.64 
L 226.006742 303.64 
L 228.942553 303.64 
L 231.878364 303.64 
L 234.814175 303.64 
L 237.749986 303.64 
L 240.685797 303.64 
L 243.621608 303.64 
L 246.557419 303.64 
L 249.493229 303.64 
L 252.42904 303.64 
L 255.364851 303.64 
L 258.300662 303.64 
L 261.236473 303.64 
L 264.172284 303.64 
L 267.108095 303.64 
L 270.043905 303.64 
L 272.979716 303.64 
L 275.915527 303.64 
L 278.851338 303.64 
L 281.787149 303.64 
L 284.72296 303.64 
L 287.658771 303.64 
L 290.594581 303.64 
L 293.530392 303.64 
L 296.466203 303.64 
L 299.402014 303.64 
L 302.337825 303.64 
L 305.273636 303.64 
L 308.209447 303.64 
L 311.145258 303.64 
L 314.081068 303.64 
L 317.016879 303.64 
L 319.95269 303.64 
L 322.888501 303.64 
L 325.824312 303.64 
L 328.760123 303.64 
L 331.695934 303.64 
L 334.631744 303.64 
L 337.567555 303.64 
L 340.503366 303.64 
L 343.439177 303.64 
L 346.374988 303.64 
L 349.310799 303.64 
L 352.24661 303.64 
L 355.18242 303.64 
L 358.118231 303.64 
L 361.054042 303.64 
L 363.989853 303.64 
L 366.925664 303.64 
L 369.861475 303.64 
L 372.797286 303.64 
L 375.733097 303.64 
L 378.668907 303.64 
L 381.604718 303.64 
L 384.540529 303.64 
L 387.47634 303.64 
L 390.412151 303.64 
L 393.347962 303.64 
L 396.283773 303.64 
L 399.219583 303.64 
L 402.155394 303.64 
L 405.091205 303.64 
L 408.027016 303.64 
L 410.962827 303.64 
L 413.898638 303.64 
L 416.834449 303.64 
L 419.770259 303.64 
L 422.70607 303.64 
L 425.641881 303.64 
L 428.577692 303.64 
L 431.513503 303.64 
L 434.449314 303.64 
L 437.385125 303.64 
L 440.320936 303.64 
L 443.256746 303.64 
L 446.192557 303.64 
L 449.128368 303.64 
L 452.064179 303.64 
L 454.99999 303.64 
L 457.935801 303.64 
L 460.871612 303.64 
L 463.807422 303.64 
L 466.743233 303.64 
L 469.679044 303.64 
L 472.614855 303.64 
L 475.550666 303.64 
L 478.486477 303.64 
L 481.422288 303.64 
L 484.358098 303.64 
L 487.293909 303.64 
L 490.22972 303.64 
L 493.165531 303.64 
L 496.101342 303.64 
L 499.037153 303.64 
L 501.972964 303.64 
L 504.908774 303.64 
L 507.844585 303.64 
L 510.780396 303.64 
L 513.716207 303.64 
L 516.652018 303.64 
L 519.587829 303.64 
L 522.52364 303.64 
L 525.459451 303.64 
L 528.395261 303.64 
L 531.331072 303.64 
L 534.266883 303.64 
L 537.202694 303.64 
L 540.138505 303.64 
L 543.074316 303.64 
L 546.010127 303.64 
L 548.945937 303.64 
L 551.881748 303.64 
L 554.817559 303.64 
L 557.75337 303.64 
L 560.689181 303.64 
L 560.689181 302.921599 
L 560.689181 302.921599 
L 557.75337 302.737917 
L 554.817559 302.513206 
L 551.881748 302.239881 
L 548.945937 301.909337 
L 546.010127 301.511905 
L 543.074316 301.036813 
L 540.138505 300.472181 
L 537.202694 299.80504 
L 534.266883 299.021382 
L 531.331072 298.106252 
L 528.395261 297.043878 
L 525.459451 295.817857 
L 522.52364 294.411375 
L 519.587829 292.807495 
L 516.652018 290.989481 
L 513.716207 288.941176 
L 510.780396 286.647422 
L 507.844585 284.094517 
L 504.908774 281.270699 
L 501.972964 278.166638 
L 499.037153 274.775945 
L 496.101342 271.095648 
L 493.165531 267.126651 
L 490.22972 262.874137 
L 487.293909 258.347902 
L 484.358098 253.562615 
L 481.422288 248.537958 
L 478.486477 243.298672 
L 475.550666 237.874456 
L 472.614855 232.299751 
L 469.679044 226.613373 
L 466.743233 220.85802 
L 463.807422 215.07964 
L 460.871612 209.326696 
L 457.935801 203.649317 
L 454.99999 198.098377 
L 452.064179 192.724518 
L 449.128368 187.577145 
L 446.192557 182.703424 
L 443.256746 178.147316 
L 440.320936 173.948668 
L 437.385125 170.142408 
L 434.449314 166.757845 
L 431.513503 163.818116 
L 428.577692 161.339793 
L 425.641881 159.332648 
L 422.70607 157.799604 
L 419.770259 156.736853 
L 416.834449 156.134142 
L 413.898638 155.975215 
L 410.962827 156.238393 
L 408.027016 156.897269 
L 405.091205 157.921494 
L 402.155394 159.277627 
L 399.219583 160.930017 
L 396.283773 162.841698 
L 393.347962 164.975254 
L 390.412151 167.29365 
L 387.47634 169.760981 
L 384.540529 172.343148 
L 381.604718 175.008422 
L 378.668907 177.727904 
L 375.733097 180.475866 
L 372.797286 183.229972 
L 369.861475 185.971389 
L 366.925664 188.684784 
L 363.989853 191.358228 
L 361.054042 193.983005 
L 358.118231 196.553357 
L 355.18242 199.066162 
L 352.24661 201.520573 
L 349.310799 203.917629 
L 346.374988 206.259846 
L 343.439177 208.550818 
L 340.503366 210.794819 
L 337.567555 212.996434 
L 334.631744 215.160218 
L 331.695934 217.290396 
L 328.760123 219.390599 
L 325.824312 221.463659 
L 322.888501 223.51144 
L 319.95269 225.534732 
L 317.016879 227.533183 
L 314.081068 229.505284 
L 311.145258 231.448404 
L 308.209447 233.358853 
L 305.273636 235.232 
L 302.337825 237.062406 
L 299.402014 238.843995 
L 296.466203 240.570244 
L 293.530392 242.234382 
L 290.594581 243.829604 
L 287.658771 245.349284 
L 284.72296 246.787178 
L 281.787149 248.13762 
L 278.851338 249.395704 
L 275.915527 250.557432 
L 272.979716 251.619842 
L 270.043905 252.581103 
L 267.108095 253.440574 
L 264.172284 254.198825 
L 261.236473 254.857622 
L 258.300662 255.419881 
L 255.364851 255.88958 
L 252.42904 256.271643 
L 249.493229 256.571805 
L 246.557419 256.796442 
L 243.621608 256.952402 
L 240.685797 257.046816 
L 237.749986 257.086915 
L 234.814175 257.079846 
L 231.878364 257.03251 
L 228.942553 256.951403 
L 226.006742 256.842494 
L 223.070932 256.71112 
L 220.135121 256.561918 
L 217.19931 256.398778 
L 214.263499 256.224839 
L 211.327688 256.042503 
L 208.391877 255.853494 
L 205.456066 255.658922 
L 202.520256 255.459388 
L 199.584445 255.255093 
L 196.648634 255.045964 
L 193.712823 254.831789 
L 190.777012 254.612349 
L 187.841201 254.387556 
L 184.90539 254.157569 
L 181.96958 253.922919 
L 179.033769 253.684597 
L 176.097958 253.444147 
L 173.162147 253.203721 
L 170.226336 252.966127 
L 167.290525 252.734851 
L 164.354714 252.514053 
L 161.418903 252.308553 
L 158.483093 252.123788 
L 155.547282 251.965754 
L 152.611471 251.84093 
L 149.67566 251.756183 
L 146.739849 251.718665 
L 143.804038 251.735689 
L 140.868227 251.8146 
L 137.932417 251.962635 
L 134.996606 252.186776 
L 132.060795 252.493604 
L 129.124984 252.889141 
L 126.189173 253.378707 
L 123.253362 253.966772 
L 120.317551 254.656827 
L 117.381741 255.451254 
L 114.44593 256.351228 
L 111.510119 257.356627 
L 108.574308 258.465974 
L 105.638497 259.676398 
L 102.702686 260.983633 
L 99.766875 262.38204 
L 96.831064 263.864666 
L 93.895254 265.42333 
L 90.959443 267.048745 
L 88.023632 268.730662 
L 85.087821 270.45804 
L 82.15201 272.219242 
L 79.216199 274.002236 
L 76.280388 275.794811 
L 73.344578 277.584799 
L 70.408767 279.360286 
L 67.472956 281.109819 
L 64.537145 282.822598 
L 61.601334 284.488643 
L 58.665523 286.098946 
L 55.729712 287.645579 
L 52.793902 289.121792 
L 49.858091 290.522061 
L 46.92228 291.842119 
L 43.986469 293.078945 
L 41.050658 294.230733 
L 38.114847 295.296835 
L 35.179036 296.277673 
L 32.243226 297.17465 
L 29.307415 297.990026 
L 26.371604 298.726809 
L 23.435793 299.388617 
L 20.499982 299.97956 
L 17.564171 300.504108 
L 14.62836 300.966981 
L 11.692549 301.373029 
L 8.756739 301.727142 
L 5.820928 302.034157 
L 2.885117 302.298786 
L -0.050694 302.525551 
L -2.986505 302.718743 
L -5.922316 302.882377 
L -8.858127 303.020173 
L -11.793937 303.13554 
L -14.729748 303.231572 
L -17.665559 303.311049 
L -20.60137 303.376447 
L -23.537181 303.429951 
z
" style="fill:#1f77b4;fill-opacity:0.4;stroke:#1f77b4;"/>
   </g>
   <g id="PolyCollection_2">
    <path clip-path="url(#pf57bf8a7fd)" d="M 35.880632 303.579562 
L 35.880632 303.64 
L 38.377762 303.64 
L 40.874891 303.64 
L 43.37202 303.64 
L 45.86915 303.64 
L 48.366279 303.64 
L 50.863408 303.64 
L 53.360538 303.64 
L 55.857667 303.64 
L 58.354796 303.64 
L 60.851926 303.64 
L 63.349055 303.64 
L 65.846184 303.64 
L 68.343313 303.64 
L 70.840443 303.64 
L 73.337572 303.64 
L 75.834701 303.64 
L 78.331831 303.64 
L 80.82896 303.64 
L 83.326089 303.64 
L 85.823219 303.64 
L 88.320348 303.64 
L 90.817477 303.64 
L 93.314607 303.64 
L 95.811736 303.64 
L 98.308865 303.64 
L 100.805995 303.64 
L 103.303124 303.64 
L 105.800253 303.64 
L 108.297383 303.64 
L 110.794512 303.64 
L 113.291641 303.64 
L 115.788771 303.64 
L 118.2859 303.64 
L 120.783029 303.64 
L 123.280159 303.64 
L 125.777288 303.64 
L 128.274417 303.64 
L 130.771547 303.64 
L 133.268676 303.64 
L 135.765805 303.64 
L 138.262935 303.64 
L 140.760064 303.64 
L 143.257193 303.64 
L 145.754323 303.64 
L 148.251452 303.64 
L 150.748581 303.64 
L 153.24571 303.64 
L 155.74284 303.64 
L 158.239969 303.64 
L 160.737098 303.64 
L 163.234228 303.64 
L 165.731357 303.64 
L 168.228486 303.64 
L 170.725616 303.64 
L 173.222745 303.64 
L 175.719874 303.64 
L 178.217004 303.64 
L 180.714133 303.64 
L 183.211262 303.64 
L 185.708392 303.64 
L 188.205521 303.64 
L 190.70265 303.64 
L 193.19978 303.64 
L 195.696909 303.64 
L 198.194038 303.64 
L 200.691168 303.64 
L 203.188297 303.64 
L 205.685426 303.64 
L 208.182556 303.64 
L 210.679685 303.64 
L 213.176814 303.64 
L 215.673944 303.64 
L 218.171073 303.64 
L 220.668202 303.64 
L 223.165332 303.64 
L 225.662461 303.64 
L 228.15959 303.64 
L 230.65672 303.64 
L 233.153849 303.64 
L 235.650978 303.64 
L 238.148108 303.64 
L 240.645237 303.64 
L 243.142366 303.64 
L 245.639495 303.64 
L 248.136625 303.64 
L 250.633754 303.64 
L 253.130883 303.64 
L 255.628013 303.64 
L 258.125142 303.64 
L 260.622271 303.64 
L 263.119401 303.64 
L 265.61653 303.64 
L 268.113659 303.64 
L 270.610789 303.64 
L 273.107918 303.64 
L 275.605047 303.64 
L 278.102177 303.64 
L 280.599306 303.64 
L 283.096435 303.64 
L 285.593565 303.64 
L 288.090694 303.64 
L 290.587823 303.64 
L 293.084953 303.64 
L 295.582082 303.64 
L 298.079211 303.64 
L 300.576341 303.64 
L 303.07347 303.64 
L 305.570599 303.64 
L 308.067729 303.64 
L 310.564858 303.64 
L 313.061987 303.64 
L 315.559117 303.64 
L 318.056246 303.64 
L 320.553375 303.64 
L 323.050505 303.64 
L 325.547634 303.64 
L 328.044763 303.64 
L 330.541892 303.64 
L 333.039022 303.64 
L 335.536151 303.64 
L 338.03328 303.64 
L 340.53041 303.64 
L 343.027539 303.64 
L 345.524668 303.64 
L 348.021798 303.64 
L 350.518927 303.64 
L 353.016056 303.64 
L 355.513186 303.64 
L 358.010315 303.64 
L 360.507444 303.64 
L 363.004574 303.64 
L 365.501703 303.64 
L 367.998832 303.64 
L 370.495962 303.64 
L 372.993091 303.64 
L 375.49022 303.64 
L 377.98735 303.64 
L 380.484479 303.64 
L 382.981608 303.64 
L 385.478738 303.64 
L 387.975867 303.64 
L 390.472996 303.64 
L 392.970126 303.64 
L 395.467255 303.64 
L 397.964384 303.64 
L 400.461514 303.64 
L 402.958643 303.64 
L 405.455772 303.64 
L 407.952902 303.64 
L 410.450031 303.64 
L 412.94716 303.64 
L 415.44429 303.64 
L 417.941419 303.64 
L 420.438548 303.64 
L 422.935677 303.64 
L 425.432807 303.64 
L 427.929936 303.64 
L 430.427065 303.64 
L 432.924195 303.64 
L 435.421324 303.64 
L 437.918453 303.64 
L 440.415583 303.64 
L 442.912712 303.64 
L 445.409841 303.64 
L 447.906971 303.64 
L 450.4041 303.64 
L 452.901229 303.64 
L 455.398359 303.64 
L 457.895488 303.64 
L 460.392617 303.64 
L 462.889747 303.64 
L 465.386876 303.64 
L 467.884005 303.64 
L 470.381135 303.64 
L 472.878264 303.64 
L 475.375393 303.64 
L 477.872523 303.64 
L 480.369652 303.64 
L 482.866781 303.64 
L 485.363911 303.64 
L 487.86104 303.64 
L 490.358169 303.64 
L 492.855299 303.64 
L 495.352428 303.64 
L 497.849557 303.64 
L 500.346687 303.64 
L 502.843816 303.64 
L 505.340945 303.64 
L 507.838074 303.64 
L 510.335204 303.64 
L 512.832333 303.64 
L 515.329462 303.64 
L 517.826592 303.64 
L 520.323721 303.64 
L 522.82085 303.64 
L 525.31798 303.64 
L 527.815109 303.64 
L 530.312238 303.64 
L 532.809368 303.64 
L 532.809368 302.109294 
L 532.809368 302.109294 
L 530.312238 301.674854 
L 527.815109 301.133583 
L 525.31798 300.464057 
L 522.82085 299.641857 
L 520.323721 298.639466 
L 517.826592 297.426262 
L 515.329462 295.9686 
L 512.832333 294.23003 
L 510.335204 292.171648 
L 507.838074 289.752615 
L 505.340945 286.930842 
L 502.843816 283.663857 
L 500.346687 279.909855 
L 497.849557 275.628905 
L 495.352428 270.78433 
L 492.855299 265.344185 
L 490.358169 259.282844 
L 487.86104 252.5826 
L 485.363911 245.235255 
L 482.866781 237.243616 
L 480.369652 228.622832 
L 477.872523 219.401499 
L 475.375393 209.622465 
L 472.878264 199.343273 
L 470.381135 188.636177 
L 467.884005 177.587702 
L 465.386876 166.29772 
L 462.889747 154.87803 
L 460.392617 143.450469 
L 457.895488 132.144582 
L 455.398359 121.094918 
L 452.901229 110.438023 
L 450.4041 100.309234 
L 447.906971 90.839368 
L 445.409841 82.151439 
L 442.912712 74.357507 
L 440.415583 67.555783 
L 437.918453 61.828091 
L 435.421324 57.237782 
L 432.924195 53.828183 
L 430.427065 51.621617 
L 427.929936 50.619048 
L 425.432807 50.800333 
L 422.935677 52.125088 
L 420.438548 54.534098 
L 417.941419 57.95124 
L 415.44429 62.285814 
L 412.94716 67.435214 
L 410.450031 73.287816 
L 407.952902 79.726007 
L 405.455772 86.629223 
L 402.958643 93.876929 
L 400.461514 101.351418 
L 397.964384 108.940384 
L 395.467255 116.539177 
L 392.970126 124.052706 
L 390.472996 131.396943 
L 387.975867 138.500021 
L 385.478738 145.302916 
L 382.981608 151.759711 
L 380.484479 157.837489 
L 377.98735 163.515867 
L 375.49022 168.786217 
L 372.993091 173.650635 
L 370.495962 178.120688 
L 367.998832 182.216024 
L 365.501703 185.962876 
L 363.004574 189.392531 
L 360.507444 192.539809 
L 358.010315 195.441599 
L 355.513186 198.135504 
L 353.016056 200.658615 
L 350.518927 203.046445 
L 348.021798 205.332054 
L 345.524668 207.545351 
L 343.027539 209.712601 
L 340.53041 211.856108 
L 338.03328 213.99408 
L 335.536151 216.140649 
L 333.039022 218.306018 
L 330.541892 220.49673 
L 328.044763 222.716004 
L 325.547634 224.964143 
L 323.050505 227.238956 
L 320.553375 229.536201 
L 318.056246 231.85001 
L 315.559117 234.173285 
L 313.061987 236.498062 
L 310.564858 238.815817 
L 308.067729 241.117739 
L 305.570599 243.394942 
L 303.07347 245.638635 
L 300.576341 247.840261 
L 298.079211 249.991599 
L 295.582082 252.084839 
L 293.084953 254.112657 
L 290.587823 256.068266 
L 288.090694 257.945479 
L 285.593565 259.738767 
L 283.096435 261.443323 
L 280.599306 263.055135 
L 278.102177 264.571056 
L 275.605047 265.988882 
L 273.107918 267.307416 
L 270.610789 268.526531 
L 268.113659 269.647206 
L 265.61653 270.671555 
L 263.119401 271.602815 
L 260.622271 272.445317 
L 258.125142 273.204415 
L 255.628013 273.886391 
L 253.130883 274.498328 
L 250.633754 275.047948 
L 248.136625 275.543441 
L 245.639495 275.993264 
L 243.142366 276.40594 
L 240.645237 276.789851 
L 238.148108 277.153035 
L 235.650978 277.503002 
L 233.153849 277.846562 
L 230.65672 278.189687 
L 228.15959 278.537391 
L 225.662461 278.893655 
L 223.165332 279.26138 
L 220.668202 279.64237 
L 218.171073 280.03736 
L 215.673944 280.446065 
L 213.176814 280.867261 
L 210.679685 281.298893 
L 208.182556 281.738201 
L 205.685426 282.181858 
L 203.188297 282.626132 
L 200.691168 283.067038 
L 198.194038 283.50051 
L 195.696909 283.922557 
L 193.19978 284.329423 
L 190.70265 284.717733 
L 188.205521 285.084624 
L 185.708392 285.427863 
L 183.211262 285.745946 
L 180.714133 286.038167 
L 178.217004 286.304668 
L 175.719874 286.54646 
L 173.222745 286.765416 
L 170.725616 286.964232 
L 168.228486 287.146366 
L 165.731357 287.315945 
L 163.234228 287.47765 
L 160.737098 287.636578 
L 158.239969 287.798088 
L 155.74284 287.96764 
L 153.24571 288.15062 
L 150.748581 288.352171 
L 148.251452 288.577026 
L 145.754323 288.829359 
L 143.257193 289.112649 
L 140.760064 289.429568 
L 138.262935 289.781897 
L 135.765805 290.170468 
L 133.268676 290.595147 
L 130.771547 291.054835 
L 128.274417 291.547513 
L 125.777288 292.070308 
L 123.280159 292.619587 
L 120.783029 293.191075 
L 118.2859 293.779985 
L 115.788771 294.381163 
L 113.291641 294.989236 
L 110.794512 295.598764 
L 108.297383 296.204382 
L 105.800253 296.800932 
L 103.303124 297.383586 
L 100.805995 297.947947 
L 98.308865 298.49013 
L 95.811736 299.006821 
L 93.314607 299.495321 
L 90.817477 299.953558 
L 88.320348 300.38009 
L 85.823219 300.774076 
L 83.326089 301.135249 
L 80.82896 301.463861 
L 78.331831 301.760625 
L 75.834701 302.02665 
L 73.337572 302.263373 
L 70.840443 302.472486 
L 68.343313 302.655872 
L 65.846184 302.815537 
L 63.349055 302.953549 
L 60.851926 303.071994 
L 58.354796 303.17292 
L 55.857667 303.258309 
L 53.360538 303.33004 
L 50.863408 303.389872 
L 48.366279 303.439427 
L 45.86915 303.480182 
L 43.37202 303.513464 
L 40.874891 303.540452 
L 38.377762 303.562185 
L 35.880632 303.579562 
z
" style="fill:#ff7f0e;fill-opacity:0.4;stroke:#ff7f0e;"/>
   </g>
   <g id="matplotlib.axis_1">
    <g id="xtick_1">
     <g id="line2d_1">
      <defs>
       <path d="M 0 0 
L 0 3.5 
" id="mf15e1aee6a" style="stroke:#000000;stroke-width:0.8;"/>
      </defs>
      <g>
       <use style="stroke:#000000;stroke-width:0.8;" x="47.81" xlink:href="#mf15e1aee6a" y="303.64"/>
      </g>
     </g>
     <g id="text_1">
      <!-- 0.0 -->
      <g transform="translate(39.858438 318.238437)scale(0.1 -0.1)">
       <defs>
        <path d="M 2034 4250 
Q 1547 4250 1301 3770 
Q 1056 3291 1056 2328 
Q 1056 1369 1301 889 
Q 1547 409 2034 409 
Q 2525 409 2770 889 
Q 3016 1369 3016 2328 
Q 3016 3291 2770 3770 
Q 2525 4250 2034 4250 
z
M 2034 4750 
Q 2819 4750 3233 4129 
Q 3647 3509 3647 2328 
Q 3647 1150 3233 529 
Q 2819 -91 2034 -91 
Q 1250 -91 836 529 
Q 422 1150 422 2328 
Q 422 3509 836 4129 
Q 1250 4750 2034 4750 
z
" id="DejaVuSans-30" transform="scale(0.015625)"/>
        <path d="M 684 794 
L 1344 794 
L 1344 0 
L 684 0 
L 684 794 
z
" id="DejaVuSans-2e" transform="scale(0.015625)"/>
       </defs>
       <use xlink:href="#DejaVuSans-30"/>
       <use x="63.623047" xlink:href="#DejaVuSans-2e"/>
       <use x="95.410156" xlink:href="#DejaVuSans-30"/>
      </g>
     </g>
    </g>
    <g id="xtick_2">
     <g id="line2d_2">
      <g>
       <use style="stroke:#000000;stroke-width:0.8;" x="126.655" xlink:href="#mf15e1aee6a" y="303.64"/>
      </g>
     </g>
     <g id="text_2">
      <!-- 0.2 -->
      <g transform="translate(118.703438 318.238437)scale(0.1 -0.1)">
       <defs>
        <path d="M 1228 531 
L 3431 531 
L 3431 0 
L 469 0 
L 469 531 
Q 828 903 1448 1529 
Q 2069 2156 2228 2338 
Q 2531 2678 2651 2914 
Q 2772 3150 2772 3378 
Q 2772 3750 2511 3984 
Q 2250 4219 1831 4219 
Q 1534 4219 1204 4116 
Q 875 4013 500 3803 
L 500 4441 
Q 881 4594 1212 4672 
Q 1544 4750 1819 4750 
Q 2544 4750 2975 4387 
Q 3406 4025 3406 3419 
Q 3406 3131 3298 2873 
Q 3191 2616 2906 2266 
Q 2828 2175 2409 1742 
Q 1991 1309 1228 531 
z
" id="DejaVuSans-32" transform="scale(0.015625)"/>
       </defs>
       <use xlink:href="#DejaVuSans-30"/>
       <use x="63.623047" xlink:href="#DejaVuSans-2e"/>
       <use x="95.410156" xlink:href="#DejaVuSans-32"/>
      </g>
     </g>
    </g>
    <g id="xtick_3">
     <g id="line2d_3">
      <g>
       <use style="stroke:#000000;stroke-width:0.8;" x="205.5" xlink:href="#mf15e1aee6a" y="303.64"/>
      </g>
     </g>
     <g id="text_3">
      <!-- 0.4 -->
      <g transform="translate(197.548438 318.238437)scale(0.1 -0.1)">
       <defs>
        <path d="M 2419 4116 
L 825 1625 
L 2419 1625 
L 2419 4116 
z
M 2253 4666 
L 3047 4666 
L 3047 1625 
L 3713 1625 
L 3713 1100 
L 3047 1100 
L 3047 0 
L 2419 0 
L 2419 1100 
L 313 1100 
L 313 1709 
L 2253 4666 
z
" id="DejaVuSans-34" transform="scale(0.015625)"/>
       </defs>
       <use xlink:href="#DejaVuSans-30"/>
       <use x="63.623047" xlink:href="#DejaVuSans-2e"/>
       <use x="95.410156" xlink:href="#DejaVuSans-34"/>
      </g>
     </g>
    </g>
    <g id="xtick_4">
     <g id="line2d_4">
      <g>
       <use style="stroke:#000000;stroke-width:0.8;" x="284.345" xlink:href="#mf15e1aee6a" y="303.64"/>
      </g>
     </g>
     <g id="text_4">
      <!-- 0.6 -->
      <g transform="translate(276.393438 318.238437)scale(0.1 -0.1)">
       <defs>
        <path d="M 2113 2584 
Q 1688 2584 1439 2293 
Q 1191 2003 1191 1497 
Q 1191 994 1439 701 
Q 1688 409 2113 409 
Q 2538 409 2786 701 
Q 3034 994 3034 1497 
Q 3034 2003 2786 2293 
Q 2538 2584 2113 2584 
z
M 3366 4563 
L 3366 3988 
Q 3128 4100 2886 4159 
Q 2644 4219 2406 4219 
Q 1781 4219 1451 3797 
Q 1122 3375 1075 2522 
Q 1259 2794 1537 2939 
Q 1816 3084 2150 3084 
Q 2853 3084 3261 2657 
Q 3669 2231 3669 1497 
Q 3669 778 3244 343 
Q 2819 -91 2113 -91 
Q 1303 -91 875 529 
Q 447 1150 447 2328 
Q 447 3434 972 4092 
Q 1497 4750 2381 4750 
Q 2619 4750 2861 4703 
Q 3103 4656 3366 4563 
z
" id="DejaVuSans-36" transform="scale(0.015625)"/>
       </defs>
       <use xlink:href="#DejaVuSans-30"/>
       <use x="63.623047" xlink:href="#DejaVuSans-2e"/>
       <use x="95.410156" xlink:href="#DejaVuSans-36"/>
      </g>
     </g>
    </g>
    <g id="xtick_5">
     <g id="line2d_5">
      <g>
       <use style="stroke:#000000;stroke-width:0.8;" x="363.19" xlink:href="#mf15e1aee6a" y="303.64"/>
      </g>
     </g>
     <g id="text_5">
      <!-- 0.8 -->
      <g transform="translate(355.238437 318.238437)scale(0.1 -0.1)">
       <defs>
        <path d="M 2034 2216 
Q 1584 2216 1326 1975 
Q 1069 1734 1069 1313 
Q 1069 891 1326 650 
Q 1584 409 2034 409 
Q 2484 409 2743 651 
Q 3003 894 3003 1313 
Q 3003 1734 2745 1975 
Q 2488 2216 2034 2216 
z
M 1403 2484 
Q 997 2584 770 2862 
Q 544 3141 544 3541 
Q 544 4100 942 4425 
Q 1341 4750 2034 4750 
Q 2731 4750 3128 4425 
Q 3525 4100 3525 3541 
Q 3525 3141 3298 2862 
Q 3072 2584 2669 2484 
Q 3125 2378 3379 2068 
Q 3634 1759 3634 1313 
Q 3634 634 3220 271 
Q 2806 -91 2034 -91 
Q 1263 -91 848 271 
Q 434 634 434 1313 
Q 434 1759 690 2068 
Q 947 2378 1403 2484 
z
M 1172 3481 
Q 1172 3119 1398 2916 
Q 1625 2713 2034 2713 
Q 2441 2713 2670 2916 
Q 2900 3119 2900 3481 
Q 2900 3844 2670 4047 
Q 2441 4250 2034 4250 
Q 1625 4250 1398 4047 
Q 1172 3844 1172 3481 
z
" id="DejaVuSans-38" transform="scale(0.015625)"/>
       </defs>
       <use xlink:href="#DejaVuSans-30"/>
       <use x="63.623047" xlink:href="#DejaVuSans-2e"/>
       <use x="95.410156" xlink:href="#DejaVuSans-38"/>
      </g>
     </g>
    </g>
    <g id="xtick_6">
     <g id="line2d_6">
      <g>
       <use style="stroke:#000000;stroke-width:0.8;" x="442.035" xlink:href="#mf15e1aee6a" y="303.64"/>
      </g>
     </g>
     <g id="text_6">
      <!-- 1.0 -->
      <g transform="translate(434.083437 318.238437)scale(0.1 -0.1)">
       <defs>
        <path d="M 794 531 
L 1825 531 
L 1825 4091 
L 703 3866 
L 703 4441 
L 1819 4666 
L 2450 4666 
L 2450 531 
L 3481 531 
L 3481 0 
L 794 0 
L 794 531 
z
" id="DejaVuSans-31" transform="scale(0.015625)"/>
       </defs>
       <use xlink:href="#DejaVuSans-31"/>
       <use x="63.623047" xlink:href="#DejaVuSans-2e"/>
       <use x="95.410156" xlink:href="#DejaVuSans-30"/>
      </g>
     </g>
    </g>
    <g id="text_7">
     <!-- Credibility index -->
     <g transform="translate(204.317812 331.916562)scale(0.1 -0.1)">
      <defs>
       <path d="M 4122 4306 
L 4122 3641 
Q 3803 3938 3442 4084 
Q 3081 4231 2675 4231 
Q 1875 4231 1450 3742 
Q 1025 3253 1025 2328 
Q 1025 1406 1450 917 
Q 1875 428 2675 428 
Q 3081 428 3442 575 
Q 3803 722 4122 1019 
L 4122 359 
Q 3791 134 3420 21 
Q 3050 -91 2638 -91 
Q 1578 -91 968 557 
Q 359 1206 359 2328 
Q 359 3453 968 4101 
Q 1578 4750 2638 4750 
Q 3056 4750 3426 4639 
Q 3797 4528 4122 4306 
z
" id="DejaVuSans-43" transform="scale(0.015625)"/>
       <path d="M 2631 2963 
Q 2534 3019 2420 3045 
Q 2306 3072 2169 3072 
Q 1681 3072 1420 2755 
Q 1159 2438 1159 1844 
L 1159 0 
L 581 0 
L 581 3500 
L 1159 3500 
L 1159 2956 
Q 1341 3275 1631 3429 
Q 1922 3584 2338 3584 
Q 2397 3584 2469 3576 
Q 2541 3569 2628 3553 
L 2631 2963 
z
" id="DejaVuSans-72" transform="scale(0.015625)"/>
       <path d="M 3597 1894 
L 3597 1613 
L 953 1613 
Q 991 1019 1311 708 
Q 1631 397 2203 397 
Q 2534 397 2845 478 
Q 3156 559 3463 722 
L 3463 178 
Q 3153 47 2828 -22 
Q 2503 -91 2169 -91 
Q 1331 -91 842 396 
Q 353 884 353 1716 
Q 353 2575 817 3079 
Q 1281 3584 2069 3584 
Q 2775 3584 3186 3129 
Q 3597 2675 3597 1894 
z
M 3022 2063 
Q 3016 2534 2758 2815 
Q 2500 3097 2075 3097 
Q 1594 3097 1305 2825 
Q 1016 2553 972 2059 
L 3022 2063 
z
" id="DejaVuSans-65" transform="scale(0.015625)"/>
       <path d="M 2906 2969 
L 2906 4863 
L 3481 4863 
L 3481 0 
L 2906 0 
L 2906 525 
Q 2725 213 2448 61 
Q 2172 -91 1784 -91 
Q 1150 -91 751 415 
Q 353 922 353 1747 
Q 353 2572 751 3078 
Q 1150 3584 1784 3584 
Q 2172 3584 2448 3432 
Q 2725 3281 2906 2969 
z
M 947 1747 
Q 947 1113 1208 752 
Q 1469 391 1925 391 
Q 2381 391 2643 752 
Q 2906 1113 2906 1747 
Q 2906 2381 2643 2742 
Q 2381 3103 1925 3103 
Q 1469 3103 1208 2742 
Q 947 2381 947 1747 
z
" id="DejaVuSans-64" transform="scale(0.015625)"/>
       <path d="M 603 3500 
L 1178 3500 
L 1178 0 
L 603 0 
L 603 3500 
z
M 603 4863 
L 1178 4863 
L 1178 4134 
L 603 4134 
L 603 4863 
z
" id="DejaVuSans-69" transform="scale(0.015625)"/>
       <path d="M 3116 1747 
Q 3116 2381 2855 2742 
Q 2594 3103 2138 3103 
Q 1681 3103 1420 2742 
Q 1159 2381 1159 1747 
Q 1159 1113 1420 752 
Q 1681 391 2138 391 
Q 2594 391 2855 752 
Q 3116 1113 3116 1747 
z
M 1159 2969 
Q 1341 3281 1617 3432 
Q 1894 3584 2278 3584 
Q 2916 3584 3314 3078 
Q 3713 2572 3713 1747 
Q 3713 922 3314 415 
Q 2916 -91 2278 -91 
Q 1894 -91 1617 61 
Q 1341 213 1159 525 
L 1159 0 
L 581 0 
L 581 4863 
L 1159 4863 
L 1159 2969 
z
" id="DejaVuSans-62" transform="scale(0.015625)"/>
       <path d="M 603 4863 
L 1178 4863 
L 1178 0 
L 603 0 
L 603 4863 
z
" id="DejaVuSans-6c" transform="scale(0.015625)"/>
       <path d="M 1172 4494 
L 1172 3500 
L 2356 3500 
L 2356 3053 
L 1172 3053 
L 1172 1153 
Q 1172 725 1289 603 
Q 1406 481 1766 481 
L 2356 481 
L 2356 0 
L 1766 0 
Q 1100 0 847 248 
Q 594 497 594 1153 
L 594 3053 
L 172 3053 
L 172 3500 
L 594 3500 
L 594 4494 
L 1172 4494 
z
" id="DejaVuSans-74" transform="scale(0.015625)"/>
       <path d="M 2059 -325 
Q 1816 -950 1584 -1140 
Q 1353 -1331 966 -1331 
L 506 -1331 
L 506 -850 
L 844 -850 
Q 1081 -850 1212 -737 
Q 1344 -625 1503 -206 
L 1606 56 
L 191 3500 
L 800 3500 
L 1894 763 
L 2988 3500 
L 3597 3500 
L 2059 -325 
z
" id="DejaVuSans-79" transform="scale(0.015625)"/>
       <path id="DejaVuSans-20" transform="scale(0.015625)"/>
       <path d="M 3513 2113 
L 3513 0 
L 2938 0 
L 2938 2094 
Q 2938 2591 2744 2837 
Q 2550 3084 2163 3084 
Q 1697 3084 1428 2787 
Q 1159 2491 1159 1978 
L 1159 0 
L 581 0 
L 581 3500 
L 1159 3500 
L 1159 2956 
Q 1366 3272 1645 3428 
Q 1925 3584 2291 3584 
Q 2894 3584 3203 3211 
Q 3513 2838 3513 2113 
z
" id="DejaVuSans-6e" transform="scale(0.015625)"/>
       <path d="M 3513 3500 
L 2247 1797 
L 3578 0 
L 2900 0 
L 1881 1375 
L 863 0 
L 184 0 
L 1544 1831 
L 300 3500 
L 978 3500 
L 1906 2253 
L 2834 3500 
L 3513 3500 
z
" id="DejaVuSans-78" transform="scale(0.015625)"/>
      </defs>
      <use xlink:href="#DejaVuSans-43"/>
      <use x="69.824219" xlink:href="#DejaVuSans-72"/>
      <use x="108.6875" xlink:href="#DejaVuSans-65"/>
      <use x="170.210938" xlink:href="#DejaVuSans-64"/>
      <use x="233.6875" xlink:href="#DejaVuSans-69"/>
      <use x="261.470703" xlink:href="#DejaVuSans-62"/>
      <use x="324.947266" xlink:href="#DejaVuSans-69"/>
      <use x="352.730469" xlink:href="#DejaVuSans-6c"/>
      <use x="380.513672" xlink:href="#DejaVuSans-69"/>
      <use x="408.296875" xlink:href="#DejaVuSans-74"/>
      <use x="447.505859" xlink:href="#DejaVuSans-79"/>
      <use x="506.685547" xlink:href="#DejaVuSans-20"/>
      <use x="538.472656" xlink:href="#DejaVuSans-69"/>
      <use x="566.255859" xlink:href="#DejaVuSans-6e"/>
      <use x="629.634766" xlink:href="#DejaVuSans-64"/>
      <use x="693.111328" xlink:href="#DejaVuSans-65"/>
      <use x="752.884766" xlink:href="#DejaVuSans-78"/>
     </g>
    </g>
   </g>
   <g id="matplotlib.axis_2">
    <g id="ytick_1">
     <g id="line2d_7">
      <defs>
       <path d="M 0 0 
L -3.5 0 
" id="m1b1201b243" style="stroke:#000000;stroke-width:0.8;"/>
      </defs>
      <g>
       <use style="stroke:#000000;stroke-width:0.8;" x="47.81" xlink:href="#m1b1201b243" y="303.64"/>
      </g>
     </g>
     <g id="text_8">
      <!-- 0.0 -->
      <g transform="translate(24.906875 307.439219)scale(0.1 -0.1)">
       <use xlink:href="#DejaVuSans-30"/>
       <use x="63.623047" xlink:href="#DejaVuSans-2e"/>
       <use x="95.410156" xlink:href="#DejaVuSans-30"/>
      </g>
     </g>
    </g>
    <g id="ytick_2">
     <g id="line2d_8">
      <g>
       <use style="stroke:#000000;stroke-width:0.8;" x="47.81" xlink:href="#m1b1201b243" y="262.067342"/>
      </g>
     </g>
     <g id="text_9">
      <!-- 0.5 -->
      <g transform="translate(24.906875 265.86656)scale(0.1 -0.1)">
       <defs>
        <path d="M 691 4666 
L 3169 4666 
L 3169 4134 
L 1269 4134 
L 1269 2991 
Q 1406 3038 1543 3061 
Q 1681 3084 1819 3084 
Q 2600 3084 3056 2656 
Q 3513 2228 3513 1497 
Q 3513 744 3044 326 
Q 2575 -91 1722 -91 
Q 1428 -91 1123 -41 
Q 819 9 494 109 
L 494 744 
Q 775 591 1075 516 
Q 1375 441 1709 441 
Q 2250 441 2565 725 
Q 2881 1009 2881 1497 
Q 2881 1984 2565 2268 
Q 2250 2553 1709 2553 
Q 1456 2553 1204 2497 
Q 953 2441 691 2322 
L 691 4666 
z
" id="DejaVuSans-35" transform="scale(0.015625)"/>
       </defs>
       <use xlink:href="#DejaVuSans-30"/>
       <use x="63.623047" xlink:href="#DejaVuSans-2e"/>
       <use x="95.410156" xlink:href="#DejaVuSans-35"/>
      </g>
     </g>
    </g>
    <g id="ytick_3">
     <g id="line2d_9">
      <g>
       <use style="stroke:#000000;stroke-width:0.8;" x="47.81" xlink:href="#m1b1201b243" y="220.494683"/>
      </g>
     </g>
     <g id="text_10">
      <!-- 1.0 -->
      <g transform="translate(24.906875 224.293902)scale(0.1 -0.1)">
       <use xlink:href="#DejaVuSans-31"/>
       <use x="63.623047" xlink:href="#DejaVuSans-2e"/>
       <use x="95.410156" xlink:href="#DejaVuSans-30"/>
      </g>
     </g>
    </g>
    <g id="ytick_4">
     <g id="line2d_10">
      <g>
       <use style="stroke:#000000;stroke-width:0.8;" x="47.81" xlink:href="#m1b1201b243" y="178.922025"/>
      </g>
     </g>
     <g id="text_11">
      <!-- 1.5 -->
      <g transform="translate(24.906875 182.721244)scale(0.1 -0.1)">
       <use xlink:href="#DejaVuSans-31"/>
       <use x="63.623047" xlink:href="#DejaVuSans-2e"/>
       <use x="95.410156" xlink:href="#DejaVuSans-35"/>
      </g>
     </g>
    </g>
    <g id="ytick_5">
     <g id="line2d_11">
      <g>
       <use style="stroke:#000000;stroke-width:0.8;" x="47.81" xlink:href="#m1b1201b243" y="137.349367"/>
      </g>
     </g>
     <g id="text_12">
      <!-- 2.0 -->
      <g transform="translate(24.906875 141.148586)scale(0.1 -0.1)">
       <use xlink:href="#DejaVuSans-32"/>
       <use x="63.623047" xlink:href="#DejaVuSans-2e"/>
       <use x="95.410156" xlink:href="#DejaVuSans-30"/>
      </g>
     </g>
    </g>
    <g id="ytick_6">
     <g id="line2d_12">
      <g>
       <use style="stroke:#000000;stroke-width:0.8;" x="47.81" xlink:href="#m1b1201b243" y="95.776709"/>
      </g>
     </g>
     <g id="text_13">
      <!-- 2.5 -->
      <g transform="translate(24.906875 99.575927)scale(0.1 -0.1)">
       <use xlink:href="#DejaVuSans-32"/>
       <use x="63.623047" xlink:href="#DejaVuSans-2e"/>
       <use x="95.410156" xlink:href="#DejaVuSans-35"/>
      </g>
     </g>
    </g>
    <g id="ytick_7">
     <g id="line2d_13">
      <g>
       <use style="stroke:#000000;stroke-width:0.8;" x="47.81" xlink:href="#m1b1201b243" y="54.20405"/>
      </g>
     </g>
     <g id="text_14">
      <!-- 3.0 -->
      <g transform="translate(24.906875 58.003269)scale(0.1 -0.1)">
       <defs>
        <path d="M 2597 2516 
Q 3050 2419 3304 2112 
Q 3559 1806 3559 1356 
Q 3559 666 3084 287 
Q 2609 -91 1734 -91 
Q 1441 -91 1130 -33 
Q 819 25 488 141 
L 488 750 
Q 750 597 1062 519 
Q 1375 441 1716 441 
Q 2309 441 2620 675 
Q 2931 909 2931 1356 
Q 2931 1769 2642 2001 
Q 2353 2234 1838 2234 
L 1294 2234 
L 1294 2753 
L 1863 2753 
Q 2328 2753 2575 2939 
Q 2822 3125 2822 3475 
Q 2822 3834 2567 4026 
Q 2313 4219 1838 4219 
Q 1578 4219 1281 4162 
Q 984 4106 628 3988 
L 628 4550 
Q 988 4650 1302 4700 
Q 1616 4750 1894 4750 
Q 2613 4750 3031 4423 
Q 3450 4097 3450 3541 
Q 3450 3153 3228 2886 
Q 3006 2619 2597 2516 
z
" id="DejaVuSans-33" transform="scale(0.015625)"/>
       </defs>
       <use xlink:href="#DejaVuSans-33"/>
       <use x="63.623047" xlink:href="#DejaVuSans-2e"/>
       <use x="95.410156" xlink:href="#DejaVuSans-30"/>
      </g>
     </g>
    </g>
    <g id="text_15">
     <!-- Density -->
     <g transform="translate(18.827187 189.812594)rotate(-90)scale(0.1 -0.1)">
      <defs>
       <path d="M 1259 4147 
L 1259 519 
L 2022 519 
Q 2988 519 3436 956 
Q 3884 1394 3884 2338 
Q 3884 3275 3436 3711 
Q 2988 4147 2022 4147 
L 1259 4147 
z
M 628 4666 
L 1925 4666 
Q 3281 4666 3915 4102 
Q 4550 3538 4550 2338 
Q 4550 1131 3912 565 
Q 3275 0 1925 0 
L 628 0 
L 628 4666 
z
" id="DejaVuSans-44" transform="scale(0.015625)"/>
       <path d="M 2834 3397 
L 2834 2853 
Q 2591 2978 2328 3040 
Q 2066 3103 1784 3103 
Q 1356 3103 1142 2972 
Q 928 2841 928 2578 
Q 928 2378 1081 2264 
Q 1234 2150 1697 2047 
L 1894 2003 
Q 2506 1872 2764 1633 
Q 3022 1394 3022 966 
Q 3022 478 2636 193 
Q 2250 -91 1575 -91 
Q 1294 -91 989 -36 
Q 684 19 347 128 
L 347 722 
Q 666 556 975 473 
Q 1284 391 1588 391 
Q 1994 391 2212 530 
Q 2431 669 2431 922 
Q 2431 1156 2273 1281 
Q 2116 1406 1581 1522 
L 1381 1569 
Q 847 1681 609 1914 
Q 372 2147 372 2553 
Q 372 3047 722 3315 
Q 1072 3584 1716 3584 
Q 2034 3584 2315 3537 
Q 2597 3491 2834 3397 
z
" id="DejaVuSans-73" transform="scale(0.015625)"/>
      </defs>
      <use xlink:href="#DejaVuSans-44"/>
      <use x="77.001953" xlink:href="#DejaVuSans-65"/>
      <use x="138.525391" xlink:href="#DejaVuSans-6e"/>
      <use x="201.904297" xlink:href="#DejaVuSans-73"/>
      <use x="254.003906" xlink:href="#DejaVuSans-69"/>
      <use x="281.787109" xlink:href="#DejaVuSans-74"/>
      <use x="320.996094" xlink:href="#DejaVuSans-79"/>
     </g>
    </g>
   </g>
   <g id="patch_3">
    <path d="M 47.81 303.64 
L 47.81 37.968 
" style="fill:none;stroke:#000000;stroke-linecap:square;stroke-linejoin:miter;stroke-width:0.8;"/>
   </g>
   <g id="patch_4">
    <path d="M 442.035 303.64 
L 442.035 37.968 
" style="fill:none;stroke:#000000;stroke-linecap:square;stroke-linejoin:miter;stroke-width:0.8;"/>
   </g>
   <g id="patch_5">
    <path d="M 47.81 303.64 
L 442.035 303.64 
" style="fill:none;stroke:#000000;stroke-linecap:square;stroke-linejoin:miter;stroke-width:0.8;"/>
   </g>
   <g id="patch_6">
    <path d="M 47.81 37.968 
L 442.035 37.968 
" style="fill:none;stroke:#000000;stroke-linecap:square;stroke-linejoin:miter;stroke-width:0.8;"/>
   </g>
   <g id="text_16">
    <!-- Credibility index consensus vs non consensus  -->
    <g transform="translate(105.81625 18.530625)scale(0.12 -0.12)">
     <defs>
      <path d="M 3122 3366 
L 3122 2828 
Q 2878 2963 2633 3030 
Q 2388 3097 2138 3097 
Q 1578 3097 1268 2742 
Q 959 2388 959 1747 
Q 959 1106 1268 751 
Q 1578 397 2138 397 
Q 2388 397 2633 464 
Q 2878 531 3122 666 
L 3122 134 
Q 2881 22 2623 -34 
Q 2366 -91 2075 -91 
Q 1284 -91 818 406 
Q 353 903 353 1747 
Q 353 2603 823 3093 
Q 1294 3584 2113 3584 
Q 2378 3584 2631 3529 
Q 2884 3475 3122 3366 
z
" id="DejaVuSans-63" transform="scale(0.015625)"/>
      <path d="M 1959 3097 
Q 1497 3097 1228 2736 
Q 959 2375 959 1747 
Q 959 1119 1226 758 
Q 1494 397 1959 397 
Q 2419 397 2687 759 
Q 2956 1122 2956 1747 
Q 2956 2369 2687 2733 
Q 2419 3097 1959 3097 
z
M 1959 3584 
Q 2709 3584 3137 3096 
Q 3566 2609 3566 1747 
Q 3566 888 3137 398 
Q 2709 -91 1959 -91 
Q 1206 -91 779 398 
Q 353 888 353 1747 
Q 353 2609 779 3096 
Q 1206 3584 1959 3584 
z
" id="DejaVuSans-6f" transform="scale(0.015625)"/>
      <path d="M 544 1381 
L 544 3500 
L 1119 3500 
L 1119 1403 
Q 1119 906 1312 657 
Q 1506 409 1894 409 
Q 2359 409 2629 706 
Q 2900 1003 2900 1516 
L 2900 3500 
L 3475 3500 
L 3475 0 
L 2900 0 
L 2900 538 
Q 2691 219 2414 64 
Q 2138 -91 1772 -91 
Q 1169 -91 856 284 
Q 544 659 544 1381 
z
M 1991 3584 
L 1991 3584 
z
" id="DejaVuSans-75" transform="scale(0.015625)"/>
      <path d="M 191 3500 
L 800 3500 
L 1894 563 
L 2988 3500 
L 3597 3500 
L 2284 0 
L 1503 0 
L 191 3500 
z
" id="DejaVuSans-76" transform="scale(0.015625)"/>
     </defs>
     <use xlink:href="#DejaVuSans-43"/>
     <use x="69.824219" xlink:href="#DejaVuSans-72"/>
     <use x="108.6875" xlink:href="#DejaVuSans-65"/>
     <use x="170.210938" xlink:href="#DejaVuSans-64"/>
     <use x="233.6875" xlink:href="#DejaVuSans-69"/>
     <use x="261.470703" xlink:href="#DejaVuSans-62"/>
     <use x="324.947266" xlink:href="#DejaVuSans-69"/>
     <use x="352.730469" xlink:href="#DejaVuSans-6c"/>
     <use x="380.513672" xlink:href="#DejaVuSans-69"/>
     <use x="408.296875" xlink:href="#DejaVuSans-74"/>
     <use x="447.505859" xlink:href="#DejaVuSans-79"/>
     <use x="506.685547" xlink:href="#DejaVuSans-20"/>
     <use x="538.472656" xlink:href="#DejaVuSans-69"/>
     <use x="566.255859" xlink:href="#DejaVuSans-6e"/>
     <use x="629.634766" xlink:href="#DejaVuSans-64"/>
     <use x="693.111328" xlink:href="#DejaVuSans-65"/>
     <use x="752.884766" xlink:href="#DejaVuSans-78"/>
     <use x="812.064453" xlink:href="#DejaVuSans-20"/>
     <use x="843.851562" xlink:href="#DejaVuSans-63"/>
     <use x="898.832031" xlink:href="#DejaVuSans-6f"/>
     <use x="960.013672" xlink:href="#DejaVuSans-6e"/>
     <use x="1023.392578" xlink:href="#DejaVuSans-73"/>
     <use x="1075.492188" xlink:href="#DejaVuSans-65"/>
     <use x="1137.015625" xlink:href="#DejaVuSans-6e"/>
     <use x="1200.394531" xlink:href="#DejaVuSans-73"/>
     <use x="1252.494141" xlink:href="#DejaVuSans-75"/>
     <use x="1315.873047" xlink:href="#DejaVuSans-73"/>
     <use x="1367.972656" xlink:href="#DejaVuSans-20"/>
     <use x="1399.759766" xlink:href="#DejaVuSans-76"/>
     <use x="1458.939453" xlink:href="#DejaVuSans-73"/>
     <use x="1511.039062" xlink:href="#DejaVuSans-20"/>
     <use x="1542.826172" xlink:href="#DejaVuSans-6e"/>
     <use x="1606.205078" xlink:href="#DejaVuSans-6f"/>
     <use x="1667.386719" xlink:href="#DejaVuSans-6e"/>
     <use x="1730.765625" xlink:href="#DejaVuSans-20"/>
     <use x="1762.552734" xlink:href="#DejaVuSans-63"/>
     <use x="1817.533203" xlink:href="#DejaVuSans-6f"/>
     <use x="1878.714844" xlink:href="#DejaVuSans-6e"/>
     <use x="1942.09375" xlink:href="#DejaVuSans-73"/>
     <use x="1994.193359" xlink:href="#DejaVuSans-65"/>
     <use x="2055.716797" xlink:href="#DejaVuSans-6e"/>
     <use x="2119.095703" xlink:href="#DejaVuSans-73"/>
     <use x="2171.195312" xlink:href="#DejaVuSans-75"/>
     <use x="2234.574219" xlink:href="#DejaVuSans-73"/>
     <use x="2286.673828" xlink:href="#DejaVuSans-20"/>
    </g>
    <!-- Set s1 -->
    <g transform="translate(226.219375 31.968)scale(0.12 -0.12)">
     <defs>
      <path d="M 3425 4513 
L 3425 3897 
Q 3066 4069 2747 4153 
Q 2428 4238 2131 4238 
Q 1616 4238 1336 4038 
Q 1056 3838 1056 3469 
Q 1056 3159 1242 3001 
Q 1428 2844 1947 2747 
L 2328 2669 
Q 3034 2534 3370 2195 
Q 3706 1856 3706 1288 
Q 3706 609 3251 259 
Q 2797 -91 1919 -91 
Q 1588 -91 1214 -16 
Q 841 59 441 206 
L 441 856 
Q 825 641 1194 531 
Q 1563 422 1919 422 
Q 2459 422 2753 634 
Q 3047 847 3047 1241 
Q 3047 1584 2836 1778 
Q 2625 1972 2144 2069 
L 1759 2144 
Q 1053 2284 737 2584 
Q 422 2884 422 3419 
Q 422 4038 858 4394 
Q 1294 4750 2059 4750 
Q 2388 4750 2728 4690 
Q 3069 4631 3425 4513 
z
" id="DejaVuSans-53" transform="scale(0.015625)"/>
     </defs>
     <use xlink:href="#DejaVuSans-53"/>
     <use x="63.476562" xlink:href="#DejaVuSans-65"/>
     <use x="125" xlink:href="#DejaVuSans-74"/>
     <use x="164.208984" xlink:href="#DejaVuSans-20"/>
     <use x="195.996094" xlink:href="#DejaVuSans-73"/>
     <use x="248.095703" xlink:href="#DejaVuSans-31"/>
    </g>
   </g>
   <g id="legend_1">
    <g id="patch_7">
     <path d="M 54.81 97.719875 
L 225.352188 97.719875 
Q 227.352188 97.719875 227.352188 95.719875 
L 227.352188 44.968 
Q 227.352188 42.968 225.352188 42.968 
L 54.81 42.968 
Q 52.81 42.968 52.81 44.968 
L 52.81 95.719875 
Q 52.81 97.719875 54.81 97.719875 
z
" style="fill:#ffffff;opacity:0.8;stroke:#cccccc;stroke-linejoin:miter;"/>
    </g>
    <g id="patch_8">
     <path d="M 56.81 61.205188 
L 76.81 61.205188 
L 76.81 54.205188 
L 56.81 54.205188 
z
" style="fill:#1f77b4;fill-opacity:0.4;stroke:#1f77b4;stroke-linejoin:miter;"/>
    </g>
    <g id="text_17">
     <!-- Correlation higher than 0  -->
     <g transform="translate(84.81 54.566438)scale(0.1 -0.1)">
      <defs>
       <path d="M 2194 1759 
Q 1497 1759 1228 1600 
Q 959 1441 959 1056 
Q 959 750 1161 570 
Q 1363 391 1709 391 
Q 2188 391 2477 730 
Q 2766 1069 2766 1631 
L 2766 1759 
L 2194 1759 
z
M 3341 1997 
L 3341 0 
L 2766 0 
L 2766 531 
Q 2569 213 2275 61 
Q 1981 -91 1556 -91 
Q 1019 -91 701 211 
Q 384 513 384 1019 
Q 384 1609 779 1909 
Q 1175 2209 1959 2209 
L 2766 2209 
L 2766 2266 
Q 2766 2663 2505 2880 
Q 2244 3097 1772 3097 
Q 1472 3097 1187 3025 
Q 903 2953 641 2809 
L 641 3341 
Q 956 3463 1253 3523 
Q 1550 3584 1831 3584 
Q 2591 3584 2966 3190 
Q 3341 2797 3341 1997 
z
" id="DejaVuSans-61" transform="scale(0.015625)"/>
       <path d="M 3513 2113 
L 3513 0 
L 2938 0 
L 2938 2094 
Q 2938 2591 2744 2837 
Q 2550 3084 2163 3084 
Q 1697 3084 1428 2787 
Q 1159 2491 1159 1978 
L 1159 0 
L 581 0 
L 581 4863 
L 1159 4863 
L 1159 2956 
Q 1366 3272 1645 3428 
Q 1925 3584 2291 3584 
Q 2894 3584 3203 3211 
Q 3513 2838 3513 2113 
z
" id="DejaVuSans-68" transform="scale(0.015625)"/>
       <path d="M 2906 1791 
Q 2906 2416 2648 2759 
Q 2391 3103 1925 3103 
Q 1463 3103 1205 2759 
Q 947 2416 947 1791 
Q 947 1169 1205 825 
Q 1463 481 1925 481 
Q 2391 481 2648 825 
Q 2906 1169 2906 1791 
z
M 3481 434 
Q 3481 -459 3084 -895 
Q 2688 -1331 1869 -1331 
Q 1566 -1331 1297 -1286 
Q 1028 -1241 775 -1147 
L 775 -588 
Q 1028 -725 1275 -790 
Q 1522 -856 1778 -856 
Q 2344 -856 2625 -561 
Q 2906 -266 2906 331 
L 2906 616 
Q 2728 306 2450 153 
Q 2172 0 1784 0 
Q 1141 0 747 490 
Q 353 981 353 1791 
Q 353 2603 747 3093 
Q 1141 3584 1784 3584 
Q 2172 3584 2450 3431 
Q 2728 3278 2906 2969 
L 2906 3500 
L 3481 3500 
L 3481 434 
z
" id="DejaVuSans-67" transform="scale(0.015625)"/>
      </defs>
      <use xlink:href="#DejaVuSans-43"/>
      <use x="69.824219" xlink:href="#DejaVuSans-6f"/>
      <use x="131.005859" xlink:href="#DejaVuSans-72"/>
      <use x="170.369141" xlink:href="#DejaVuSans-72"/>
      <use x="209.232422" xlink:href="#DejaVuSans-65"/>
      <use x="270.755859" xlink:href="#DejaVuSans-6c"/>
      <use x="298.539062" xlink:href="#DejaVuSans-61"/>
      <use x="359.818359" xlink:href="#DejaVuSans-74"/>
      <use x="399.027344" xlink:href="#DejaVuSans-69"/>
      <use x="426.810547" xlink:href="#DejaVuSans-6f"/>
      <use x="487.992188" xlink:href="#DejaVuSans-6e"/>
      <use x="551.371094" xlink:href="#DejaVuSans-20"/>
      <use x="583.158203" xlink:href="#DejaVuSans-68"/>
      <use x="646.537109" xlink:href="#DejaVuSans-69"/>
      <use x="674.320312" xlink:href="#DejaVuSans-67"/>
      <use x="737.796875" xlink:href="#DejaVuSans-68"/>
      <use x="801.175781" xlink:href="#DejaVuSans-65"/>
      <use x="862.699219" xlink:href="#DejaVuSans-72"/>
      <use x="903.8125" xlink:href="#DejaVuSans-20"/>
      <use x="935.599609" xlink:href="#DejaVuSans-74"/>
      <use x="974.808594" xlink:href="#DejaVuSans-68"/>
      <use x="1038.1875" xlink:href="#DejaVuSans-61"/>
      <use x="1099.466797" xlink:href="#DejaVuSans-6e"/>
      <use x="1162.845703" xlink:href="#DejaVuSans-20"/>
      <use x="1194.632812" xlink:href="#DejaVuSans-30"/>
      <use x="1258.255859" xlink:href="#DejaVuSans-20"/>
     </g>
     <!-- n=196 -->
     <g transform="translate(84.81 65.76425)scale(0.1 -0.1)">
      <defs>
       <path d="M 678 2906 
L 4684 2906 
L 4684 2381 
L 678 2381 
L 678 2906 
z
M 678 1631 
L 4684 1631 
L 4684 1100 
L 678 1100 
L 678 1631 
z
" id="DejaVuSans-3d" transform="scale(0.015625)"/>
       <path d="M 703 97 
L 703 672 
Q 941 559 1184 500 
Q 1428 441 1663 441 
Q 2288 441 2617 861 
Q 2947 1281 2994 2138 
Q 2813 1869 2534 1725 
Q 2256 1581 1919 1581 
Q 1219 1581 811 2004 
Q 403 2428 403 3163 
Q 403 3881 828 4315 
Q 1253 4750 1959 4750 
Q 2769 4750 3195 4129 
Q 3622 3509 3622 2328 
Q 3622 1225 3098 567 
Q 2575 -91 1691 -91 
Q 1453 -91 1209 -44 
Q 966 3 703 97 
z
M 1959 2075 
Q 2384 2075 2632 2365 
Q 2881 2656 2881 3163 
Q 2881 3666 2632 3958 
Q 2384 4250 1959 4250 
Q 1534 4250 1286 3958 
Q 1038 3666 1038 3163 
Q 1038 2656 1286 2365 
Q 1534 2075 1959 2075 
z
" id="DejaVuSans-39" transform="scale(0.015625)"/>
      </defs>
      <use xlink:href="#DejaVuSans-6e"/>
      <use x="63.378906" xlink:href="#DejaVuSans-3d"/>
      <use x="147.167969" xlink:href="#DejaVuSans-31"/>
      <use x="210.791016" xlink:href="#DejaVuSans-39"/>
      <use x="274.414062" xlink:href="#DejaVuSans-36"/>
     </g>
    </g>
    <g id="patch_9">
     <path d="M 56.81 87.081125 
L 76.81 87.081125 
L 76.81 80.081125 
L 56.81 80.081125 
z
" style="fill:#ff7f0e;fill-opacity:0.4;stroke:#ff7f0e;stroke-linejoin:miter;"/>
    </g>
    <g id="text_18">
     <!-- Correlation higher than 0.8  -->
     <g transform="translate(84.81 80.442375)scale(0.1 -0.1)">
      <use xlink:href="#DejaVuSans-43"/>
      <use x="69.824219" xlink:href="#DejaVuSans-6f"/>
      <use x="131.005859" xlink:href="#DejaVuSans-72"/>
      <use x="170.369141" xlink:href="#DejaVuSans-72"/>
      <use x="209.232422" xlink:href="#DejaVuSans-65"/>
      <use x="270.755859" xlink:href="#DejaVuSans-6c"/>
      <use x="298.539062" xlink:href="#DejaVuSans-61"/>
      <use x="359.818359" xlink:href="#DejaVuSans-74"/>
      <use x="399.027344" xlink:href="#DejaVuSans-69"/>
      <use x="426.810547" xlink:href="#DejaVuSans-6f"/>
      <use x="487.992188" xlink:href="#DejaVuSans-6e"/>
      <use x="551.371094" xlink:href="#DejaVuSans-20"/>
      <use x="583.158203" xlink:href="#DejaVuSans-68"/>
      <use x="646.537109" xlink:href="#DejaVuSans-69"/>
      <use x="674.320312" xlink:href="#DejaVuSans-67"/>
      <use x="737.796875" xlink:href="#DejaVuSans-68"/>
      <use x="801.175781" xlink:href="#DejaVuSans-65"/>
      <use x="862.699219" xlink:href="#DejaVuSans-72"/>
      <use x="903.8125" xlink:href="#DejaVuSans-20"/>
      <use x="935.599609" xlink:href="#DejaVuSans-74"/>
      <use x="974.808594" xlink:href="#DejaVuSans-68"/>
      <use x="1038.1875" xlink:href="#DejaVuSans-61"/>
      <use x="1099.466797" xlink:href="#DejaVuSans-6e"/>
      <use x="1162.845703" xlink:href="#DejaVuSans-20"/>
      <use x="1194.632812" xlink:href="#DejaVuSans-30"/>
      <use x="1258.255859" xlink:href="#DejaVuSans-2e"/>
      <use x="1290.042969" xlink:href="#DejaVuSans-38"/>
      <use x="1353.666016" xlink:href="#DejaVuSans-20"/>
     </g>
     <!-- n=96 -->
     <g transform="translate(84.81 91.640187)scale(0.1 -0.1)">
      <use xlink:href="#DejaVuSans-6e"/>
      <use x="63.378906" xlink:href="#DejaVuSans-3d"/>
      <use x="147.167969" xlink:href="#DejaVuSans-39"/>
      <use x="210.791016" xlink:href="#DejaVuSans-36"/>
     </g>
    </g>
   </g>
  </g>
 </g>
 <defs>
  <clipPath id="pf57bf8a7fd">
   <rect height="265.672" width="394.225" x="47.81" y="37.968"/>
  </clipPath>
 </defs>
</svg>
