<?xml version="1.0" encoding="utf-8" standalone="no"?>
<!DOCTYPE svg PUBLIC "-//W3C//DTD SVG 1.1//EN"
  "http://www.w3.org/Graphics/SVG/1.1/DTD/svg11.dtd">
<svg height="345.6pt" version="1.1" viewBox="0 0 460.8 345.6" width="460.8pt" xmlns="http://www.w3.org/2000/svg" xmlns:xlink="http://www.w3.org/1999/xlink">
 <metadata>
  <rdf:RDF xmlns:cc="http://creativecommons.org/ns#" xmlns:dc="http://purl.org/dc/elements/1.1/" xmlns:rdf="http://www.w3.org/1999/02/22-rdf-syntax-ns#">
   <cc:Work>
    <dc:type rdf:resource="http://purl.org/dc/dcmitype/StillImage"/>
    <dc:date>2022-01-11T13:01:39.871245</dc:date>
    <dc:format>image/svg+xml</dc:format>
    <dc:creator>
     <cc:Agent>
      <dc:title>Matplotlib v3.4.3, https://matplotlib.org/</dc:title>
     </cc:Agent>
    </dc:creator>
   </cc:Work>
  </rdf:RDF>
 </metadata>
 <defs>
  <style type="text/css">*{stroke-linecap:butt;stroke-linejoin:round;}</style>
 </defs>
 <g id="figure_1">
  <g id="patch_1">
   <path d="M 0 345.6 
L 460.8 345.6 
L 460.8 0 
L 0 0 
z
" style="fill:#ffffff;"/>
  </g>
  <g id="axes_1">
   <g id="patch_2">
    <path d="M 57.6 87.353379 
L 119.172414 87.353379 
L 119.172414 41.472 
L 57.6 41.472 
z
" style="fill:#ffffff;"/>
   </g>
   <g id="patch_3">
    <path clip-path="url(#p1b491d61a8)" d="M 60.398746 87.353379 
L 76.391581 87.353379 
L 76.391581 75.957584 
L 60.398746 75.957584 
z
" style="fill:#aec7e8;"/>
   </g>
   <g id="patch_4">
    <path clip-path="url(#p1b491d61a8)" d="M 80.38979 87.353379 
L 96.382624 87.353379 
L 96.382624 56.359696 
L 80.38979 56.359696 
z
"/>
   </g>
   <g id="patch_5">
    <path clip-path="url(#p1b491d61a8)" d="M 100.380833 87.353379 
L 116.373668 87.353379 
L 116.373668 60.142871 
L 100.380833 60.142871 
z
"/>
   </g>
   <g id="patch_6">
    <path clip-path="url(#p1b491d61a8)" d="M 60.398746 75.957584 
L 76.391581 75.957584 
L 76.391581 74.691384 
L 60.398746 74.691384 
z
" style="fill:#1f77b4;"/>
   </g>
   <g id="patch_7">
    <path clip-path="url(#p1b491d61a8)" d="M 80.38979 56.359696 
L 96.382624 56.359696 
L 96.382624 52.915954 
L 80.38979 52.915954 
z
" style="fill:#1f77b4;"/>
   </g>
   <g id="patch_8">
    <path clip-path="url(#p1b491d61a8)" d="M 100.380833 60.142871 
L 116.373668 60.142871 
L 116.373668 57.119481 
L 100.380833 57.119481 
z
" style="fill:#aec7e8;"/>
   </g>
   <g id="matplotlib.axis_1"/>
   <g id="matplotlib.axis_2">
    <g id="ytick_1">
     <g id="line2d_1">
      <defs>
       <path d="M 0 0 
L -3.5 0 
" id="m017e15dc7a" style="stroke:#000000;stroke-width:0.8;"/>
      </defs>
      <g>
       <use style="stroke:#000000;stroke-width:0.8;" x="57.6" xlink:href="#m017e15dc7a" y="87.353379"/>
      </g>
     </g>
     <g id="text_1">
      <!-- 0.0 -->
      <g transform="translate(34.696875 91.152598)scale(0.1 -0.1)">
       <defs>
        <path d="M 2034 4250 
Q 1547 4250 1301 3770 
Q 1056 3291 1056 2328 
Q 1056 1369 1301 889 
Q 1547 409 2034 409 
Q 2525 409 2770 889 
Q 3016 1369 3016 2328 
Q 3016 3291 2770 3770 
Q 2525 4250 2034 4250 
z
M 2034 4750 
Q 2819 4750 3233 4129 
Q 3647 3509 3647 2328 
Q 3647 1150 3233 529 
Q 2819 -91 2034 -91 
Q 1250 -91 836 529 
Q 422 1150 422 2328 
Q 422 3509 836 4129 
Q 1250 4750 2034 4750 
z
" id="DejaVuSans-30" transform="scale(0.015625)"/>
        <path d="M 684 794 
L 1344 794 
L 1344 0 
L 684 0 
L 684 794 
z
" id="DejaVuSans-2e" transform="scale(0.015625)"/>
       </defs>
       <use xlink:href="#DejaVuSans-30"/>
       <use x="63.623047" xlink:href="#DejaVuSans-2e"/>
       <use x="95.410156" xlink:href="#DejaVuSans-30"/>
      </g>
     </g>
    </g>
    <g id="ytick_2">
     <g id="line2d_2">
      <g>
       <use style="stroke:#000000;stroke-width:0.8;" x="57.6" xlink:href="#m017e15dc7a" y="63.098633"/>
      </g>
     </g>
     <g id="text_2">
      <!-- 0.5 -->
      <g transform="translate(34.696875 66.897852)scale(0.1 -0.1)">
       <defs>
        <path d="M 691 4666 
L 3169 4666 
L 3169 4134 
L 1269 4134 
L 1269 2991 
Q 1406 3038 1543 3061 
Q 1681 3084 1819 3084 
Q 2600 3084 3056 2656 
Q 3513 2228 3513 1497 
Q 3513 744 3044 326 
Q 2575 -91 1722 -91 
Q 1428 -91 1123 -41 
Q 819 9 494 109 
L 494 744 
Q 775 591 1075 516 
Q 1375 441 1709 441 
Q 2250 441 2565 725 
Q 2881 1009 2881 1497 
Q 2881 1984 2565 2268 
Q 2250 2553 1709 2553 
Q 1456 2553 1204 2497 
Q 953 2441 691 2322 
L 691 4666 
z
" id="DejaVuSans-35" transform="scale(0.015625)"/>
       </defs>
       <use xlink:href="#DejaVuSans-30"/>
       <use x="63.623047" xlink:href="#DejaVuSans-2e"/>
       <use x="95.410156" xlink:href="#DejaVuSans-35"/>
      </g>
     </g>
    </g>
   </g>
   <g id="patch_9">
    <path d="M 57.6 87.353379 
L 57.6 41.472 
" style="fill:none;stroke:#000000;stroke-linecap:square;stroke-linejoin:miter;stroke-width:0.8;"/>
   </g>
   <g id="patch_10">
    <path d="M 119.172414 87.353379 
L 119.172414 41.472 
" style="fill:none;stroke:#000000;stroke-linecap:square;stroke-linejoin:miter;stroke-width:0.8;"/>
   </g>
   <g id="patch_11">
    <path d="M 57.6 87.353379 
L 119.172414 87.353379 
" style="fill:none;stroke:#000000;stroke-linecap:square;stroke-linejoin:miter;stroke-width:0.8;"/>
   </g>
   <g id="patch_12">
    <path d="M 57.6 41.472 
L 119.172414 41.472 
" style="fill:none;stroke:#000000;stroke-linecap:square;stroke-linejoin:miter;stroke-width:0.8;"/>
   </g>
  </g>
  <g id="axes_2">
   <g id="patch_13">
    <path d="M 131.486897 87.353379 
L 193.05931 87.353379 
L 193.05931 41.472 
L 131.486897 41.472 
z
" style="fill:#ffffff;"/>
   </g>
   <g id="patch_14">
    <path clip-path="url(#pc5bc16b8bd)" d="M 134.285643 87.353379 
L 150.278477 87.353379 
L 150.278477 73.869698 
L 134.285643 73.869698 
z
" style="fill:#aec7e8;"/>
   </g>
   <g id="patch_15">
    <path clip-path="url(#pc5bc16b8bd)" d="M 154.276686 87.353379 
L 170.269521 87.353379 
L 170.269521 59.450518 
L 154.276686 59.450518 
z
"/>
   </g>
   <g id="patch_16">
    <path clip-path="url(#pc5bc16b8bd)" d="M 174.26773 87.353379 
L 190.260564 87.353379 
L 190.260564 54.963486 
L 174.26773 54.963486 
z
"/>
   </g>
   <g id="patch_17">
    <path clip-path="url(#pc5bc16b8bd)" d="M 134.285643 73.869698 
L 150.278477 73.869698 
L 150.278477 72.371512 
L 134.285643 72.371512 
z
" style="fill:#1f77b4;"/>
   </g>
   <g id="patch_18">
    <path clip-path="url(#pc5bc16b8bd)" d="M 154.276686 59.450518 
L 170.269521 59.450518 
L 170.269521 56.3502 
L 154.276686 56.3502 
z
" style="fill:#1f77b4;"/>
   </g>
   <g id="patch_19">
    <path clip-path="url(#pc5bc16b8bd)" d="M 174.26773 54.963486 
L 190.260564 54.963486 
L 190.260564 51.364609 
L 174.26773 51.364609 
z
" style="fill:#aec7e8;"/>
   </g>
   <g id="matplotlib.axis_3"/>
   <g id="matplotlib.axis_4">
    <g id="ytick_3">
     <g id="line2d_3">
      <g>
       <use style="stroke:#000000;stroke-width:0.8;" x="131.486897" xlink:href="#m017e15dc7a" y="87.353379"/>
      </g>
     </g>
    </g>
    <g id="ytick_4">
     <g id="line2d_4">
      <g>
       <use style="stroke:#000000;stroke-width:0.8;" x="131.486897" xlink:href="#m017e15dc7a" y="63.098633"/>
      </g>
     </g>
    </g>
   </g>
   <g id="patch_20">
    <path d="M 131.486897 87.353379 
L 131.486897 41.472 
" style="fill:none;stroke:#000000;stroke-linecap:square;stroke-linejoin:miter;stroke-width:0.8;"/>
   </g>
   <g id="patch_21">
    <path d="M 193.05931 87.353379 
L 193.05931 41.472 
" style="fill:none;stroke:#000000;stroke-linecap:square;stroke-linejoin:miter;stroke-width:0.8;"/>
   </g>
   <g id="patch_22">
    <path d="M 131.486897 87.353379 
L 193.05931 87.353379 
" style="fill:none;stroke:#000000;stroke-linecap:square;stroke-linejoin:miter;stroke-width:0.8;"/>
   </g>
   <g id="patch_23">
    <path d="M 131.486897 41.472 
L 193.05931 41.472 
" style="fill:none;stroke:#000000;stroke-linecap:square;stroke-linejoin:miter;stroke-width:0.8;"/>
   </g>
  </g>
  <g id="axes_3">
   <g id="patch_24">
    <path d="M 205.373793 87.353379 
L 266.946207 87.353379 
L 266.946207 41.472 
L 205.373793 41.472 
z
" style="fill:#ffffff;"/>
   </g>
   <g id="patch_25">
    <path clip-path="url(#p3f3b3be06d)" d="M 208.172539 87.353379 
L 224.165374 87.353379 
L 224.165374 71.184686 
L 208.172539 71.184686 
z
" style="fill:#aec7e8;"/>
   </g>
   <g id="patch_26">
    <path clip-path="url(#p3f3b3be06d)" d="M 228.163583 87.353379 
L 244.156417 87.353379 
L 244.156417 56.788476 
L 228.163583 56.788476 
z
"/>
   </g>
   <g id="patch_27">
    <path clip-path="url(#p3f3b3be06d)" d="M 248.154626 87.353379 
L 264.147461 87.353379 
L 264.147461 57.796918 
L 248.154626 57.796918 
z
"/>
   </g>
   <g id="patch_28">
    <path clip-path="url(#p3f3b3be06d)" d="M 208.172539 71.184686 
L 224.165374 71.184686 
L 224.165374 69.388165 
L 208.172539 69.388165 
z
" style="fill:#1f77b4;"/>
   </g>
   <g id="patch_29">
    <path clip-path="url(#p3f3b3be06d)" d="M 228.163583 56.788476 
L 244.156417 56.788476 
L 244.156417 53.392376 
L 228.163583 53.392376 
z
" style="fill:#1f77b4;"/>
   </g>
   <g id="patch_30">
    <path clip-path="url(#p3f3b3be06d)" d="M 248.154626 57.796918 
L 264.147461 57.796918 
L 264.147461 54.512867 
L 248.154626 54.512867 
z
" style="fill:#aec7e8;"/>
   </g>
   <g id="matplotlib.axis_5"/>
   <g id="matplotlib.axis_6">
    <g id="ytick_5">
     <g id="line2d_5">
      <g>
       <use style="stroke:#000000;stroke-width:0.8;" x="205.373793" xlink:href="#m017e15dc7a" y="87.353379"/>
      </g>
     </g>
    </g>
    <g id="ytick_6">
     <g id="line2d_6">
      <g>
       <use style="stroke:#000000;stroke-width:0.8;" x="205.373793" xlink:href="#m017e15dc7a" y="63.098633"/>
      </g>
     </g>
    </g>
   </g>
   <g id="patch_31">
    <path d="M 205.373793 87.353379 
L 205.373793 41.472 
" style="fill:none;stroke:#000000;stroke-linecap:square;stroke-linejoin:miter;stroke-width:0.8;"/>
   </g>
   <g id="patch_32">
    <path d="M 266.946207 87.353379 
L 266.946207 41.472 
" style="fill:none;stroke:#000000;stroke-linecap:square;stroke-linejoin:miter;stroke-width:0.8;"/>
   </g>
   <g id="patch_33">
    <path d="M 205.373793 87.353379 
L 266.946207 87.353379 
" style="fill:none;stroke:#000000;stroke-linecap:square;stroke-linejoin:miter;stroke-width:0.8;"/>
   </g>
   <g id="patch_34">
    <path d="M 205.373793 41.472 
L 266.946207 41.472 
" style="fill:none;stroke:#000000;stroke-linecap:square;stroke-linejoin:miter;stroke-width:0.8;"/>
   </g>
  </g>
  <g id="axes_4">
   <g id="patch_35">
    <path d="M 279.26069 87.353379 
L 340.833103 87.353379 
L 340.833103 41.472 
L 279.26069 41.472 
z
" style="fill:#ffffff;"/>
   </g>
   <g id="patch_36">
    <path clip-path="url(#p3f2c23e042)" d="M 282.059436 87.353379 
L 298.05227 87.353379 
L 298.05227 69.232627 
L 282.059436 69.232627 
z
" style="fill:#aec7e8;"/>
   </g>
   <g id="patch_37">
    <path clip-path="url(#p3f2c23e042)" d="M 302.050479 87.353379 
L 318.043314 87.353379 
L 318.043314 51.403149 
L 302.050479 51.403149 
z
"/>
   </g>
   <g id="patch_38">
    <path clip-path="url(#p3f2c23e042)" d="M 322.041523 87.353379 
L 338.034357 87.353379 
L 338.034357 60.418271 
L 322.041523 60.418271 
z
"/>
   </g>
   <g id="patch_39">
    <path clip-path="url(#p3f2c23e042)" d="M 282.059436 69.232627 
L 298.05227 69.232627 
L 298.05227 67.219211 
L 282.059436 67.219211 
z
" style="fill:#1f77b4;"/>
   </g>
   <g id="patch_40">
    <path clip-path="url(#p3f2c23e042)" d="M 302.050479 51.403149 
L 318.043314 51.403149 
L 318.043314 47.408679 
L 302.050479 47.408679 
z
" style="fill:#1f77b4;"/>
   </g>
   <g id="patch_41">
    <path clip-path="url(#p3f2c23e042)" d="M 322.041523 60.418271 
L 338.034357 60.418271 
L 338.034357 57.425481 
L 322.041523 57.425481 
z
" style="fill:#aec7e8;"/>
   </g>
   <g id="matplotlib.axis_7"/>
   <g id="matplotlib.axis_8">
    <g id="ytick_7">
     <g id="line2d_7">
      <g>
       <use style="stroke:#000000;stroke-width:0.8;" x="279.26069" xlink:href="#m017e15dc7a" y="87.353379"/>
      </g>
     </g>
    </g>
    <g id="ytick_8">
     <g id="line2d_8">
      <g>
       <use style="stroke:#000000;stroke-width:0.8;" x="279.26069" xlink:href="#m017e15dc7a" y="63.098633"/>
      </g>
     </g>
    </g>
   </g>
   <g id="patch_42">
    <path d="M 279.26069 87.353379 
L 279.26069 41.472 
" style="fill:none;stroke:#000000;stroke-linecap:square;stroke-linejoin:miter;stroke-width:0.8;"/>
   </g>
   <g id="patch_43">
    <path d="M 340.833103 87.353379 
L 340.833103 41.472 
" style="fill:none;stroke:#000000;stroke-linecap:square;stroke-linejoin:miter;stroke-width:0.8;"/>
   </g>
   <g id="patch_44">
    <path d="M 279.26069 87.353379 
L 340.833103 87.353379 
" style="fill:none;stroke:#000000;stroke-linecap:square;stroke-linejoin:miter;stroke-width:0.8;"/>
   </g>
   <g id="patch_45">
    <path d="M 279.26069 41.472 
L 340.833103 41.472 
" style="fill:none;stroke:#000000;stroke-linecap:square;stroke-linejoin:miter;stroke-width:0.8;"/>
   </g>
  </g>
  <g id="axes_5">
   <g id="patch_46">
    <path d="M 353.147586 87.353379 
L 414.72 87.353379 
L 414.72 41.472 
L 353.147586 41.472 
z
" style="fill:#ffffff;"/>
   </g>
   <g id="patch_47">
    <path clip-path="url(#pd5c9d6e1ec)" d="M 355.946332 87.353379 
L 371.939167 87.353379 
L 371.939167 67.603956 
L 355.946332 67.603956 
z
" style="fill:#aec7e8;"/>
   </g>
   <g id="patch_48">
    <path clip-path="url(#pd5c9d6e1ec)" d="M 375.937376 87.353379 
L 391.93021 87.353379 
L 391.93021 51.78253 
L 375.937376 51.78253 
z
"/>
   </g>
   <g id="patch_49">
    <path clip-path="url(#pd5c9d6e1ec)" d="M 395.928419 87.353379 
L 411.921254 87.353379 
L 411.921254 58.805875 
L 395.928419 58.805875 
z
"/>
   </g>
   <g id="patch_50">
    <path clip-path="url(#pd5c9d6e1ec)" d="M 355.946332 67.603956 
L 371.939167 67.603956 
L 371.939167 65.409575 
L 355.946332 65.409575 
z
" style="fill:#1f77b4;"/>
   </g>
   <g id="patch_51">
    <path clip-path="url(#pd5c9d6e1ec)" d="M 375.937376 51.78253 
L 391.93021 51.78253 
L 391.93021 47.830214 
L 375.937376 47.830214 
z
" style="fill:#1f77b4;"/>
   </g>
   <g id="patch_52">
    <path clip-path="url(#pd5c9d6e1ec)" d="M 395.928419 58.805875 
L 411.921254 58.805875 
L 411.921254 55.63393 
L 395.928419 55.63393 
z
" style="fill:#aec7e8;"/>
   </g>
   <g id="matplotlib.axis_9"/>
   <g id="matplotlib.axis_10">
    <g id="ytick_9">
     <g id="line2d_9">
      <g>
       <use style="stroke:#000000;stroke-width:0.8;" x="353.147586" xlink:href="#m017e15dc7a" y="87.353379"/>
      </g>
     </g>
    </g>
    <g id="ytick_10">
     <g id="line2d_10">
      <g>
       <use style="stroke:#000000;stroke-width:0.8;" x="353.147586" xlink:href="#m017e15dc7a" y="63.098633"/>
      </g>
     </g>
    </g>
   </g>
   <g id="patch_53">
    <path d="M 353.147586 87.353379 
L 353.147586 41.472 
" style="fill:none;stroke:#000000;stroke-linecap:square;stroke-linejoin:miter;stroke-width:0.8;"/>
   </g>
   <g id="patch_54">
    <path d="M 414.72 87.353379 
L 414.72 41.472 
" style="fill:none;stroke:#000000;stroke-linecap:square;stroke-linejoin:miter;stroke-width:0.8;"/>
   </g>
   <g id="patch_55">
    <path d="M 353.147586 87.353379 
L 414.72 87.353379 
" style="fill:none;stroke:#000000;stroke-linecap:square;stroke-linejoin:miter;stroke-width:0.8;"/>
   </g>
   <g id="patch_56">
    <path d="M 353.147586 41.472 
L 414.72 41.472 
" style="fill:none;stroke:#000000;stroke-linecap:square;stroke-linejoin:miter;stroke-width:0.8;"/>
   </g>
  </g>
  <g id="axes_6">
   <g id="patch_57">
    <path d="M 57.6 142.411034 
L 119.172414 142.411034 
L 119.172414 96.529655 
L 57.6 96.529655 
z
" style="fill:#ffffff;"/>
   </g>
   <g id="patch_58">
    <path clip-path="url(#p4c6c72be8b)" d="M 60.398746 142.411034 
L 76.391581 142.411034 
L 76.391581 121.776431 
L 60.398746 121.776431 
z
" style="fill:#aec7e8;"/>
   </g>
   <g id="patch_59">
    <path clip-path="url(#p4c6c72be8b)" d="M 80.38979 142.411034 
L 96.382624 142.411034 
L 96.382624 110.516625 
L 80.38979 110.516625 
z
"/>
   </g>
   <g id="patch_60">
    <path clip-path="url(#p4c6c72be8b)" d="M 100.380833 142.411034 
L 116.373668 142.411034 
L 116.373668 108.745774 
L 100.380833 108.745774 
z
"/>
   </g>
   <g id="patch_61">
    <path clip-path="url(#p4c6c72be8b)" d="M 60.398746 121.776431 
L 76.391581 121.776431 
L 76.391581 119.483697 
L 60.398746 119.483697 
z
" style="fill:#1f77b4;"/>
   </g>
   <g id="patch_62">
    <path clip-path="url(#p4c6c72be8b)" d="M 80.38979 110.516625 
L 96.382624 110.516625 
L 96.382624 106.972802 
L 80.38979 106.972802 
z
" style="fill:#1f77b4;"/>
   </g>
   <g id="patch_63">
    <path clip-path="url(#p4c6c72be8b)" d="M 100.380833 108.745774 
L 116.373668 108.745774 
L 116.373668 105.00519 
L 100.380833 105.00519 
z
" style="fill:#aec7e8;"/>
   </g>
   <g id="matplotlib.axis_11"/>
   <g id="matplotlib.axis_12">
    <g id="ytick_11">
     <g id="line2d_11">
      <g>
       <use style="stroke:#000000;stroke-width:0.8;" x="57.6" xlink:href="#m017e15dc7a" y="142.411034"/>
      </g>
     </g>
     <g id="text_3">
      <!-- 0.0 -->
      <g transform="translate(34.696875 146.210253)scale(0.1 -0.1)">
       <use xlink:href="#DejaVuSans-30"/>
       <use x="63.623047" xlink:href="#DejaVuSans-2e"/>
       <use x="95.410156" xlink:href="#DejaVuSans-30"/>
      </g>
     </g>
    </g>
    <g id="ytick_12">
     <g id="line2d_12">
      <g>
       <use style="stroke:#000000;stroke-width:0.8;" x="57.6" xlink:href="#m017e15dc7a" y="118.156289"/>
      </g>
     </g>
     <g id="text_4">
      <!-- 0.5 -->
      <g transform="translate(34.696875 121.955507)scale(0.1 -0.1)">
       <use xlink:href="#DejaVuSans-30"/>
       <use x="63.623047" xlink:href="#DejaVuSans-2e"/>
       <use x="95.410156" xlink:href="#DejaVuSans-35"/>
      </g>
     </g>
    </g>
   </g>
   <g id="patch_64">
    <path d="M 57.6 142.411034 
L 57.6 96.529655 
" style="fill:none;stroke:#000000;stroke-linecap:square;stroke-linejoin:miter;stroke-width:0.8;"/>
   </g>
   <g id="patch_65">
    <path d="M 119.172414 142.411034 
L 119.172414 96.529655 
" style="fill:none;stroke:#000000;stroke-linecap:square;stroke-linejoin:miter;stroke-width:0.8;"/>
   </g>
   <g id="patch_66">
    <path d="M 57.6 142.411034 
L 119.172414 142.411034 
" style="fill:none;stroke:#000000;stroke-linecap:square;stroke-linejoin:miter;stroke-width:0.8;"/>
   </g>
   <g id="patch_67">
    <path d="M 57.6 96.529655 
L 119.172414 96.529655 
" style="fill:none;stroke:#000000;stroke-linecap:square;stroke-linejoin:miter;stroke-width:0.8;"/>
   </g>
  </g>
  <g id="axes_7">
   <g id="patch_68">
    <path d="M 131.486897 142.411034 
L 193.05931 142.411034 
L 193.05931 96.529655 
L 131.486897 96.529655 
z
" style="fill:#ffffff;"/>
   </g>
   <g id="patch_69">
    <path clip-path="url(#p123f961681)" d="M 134.285643 142.411034 
L 150.278477 142.411034 
L 150.278477 122.857049 
L 134.285643 122.857049 
z
" style="fill:#aec7e8;"/>
   </g>
   <g id="patch_70">
    <path clip-path="url(#p123f961681)" d="M 154.276686 142.411034 
L 170.269521 142.411034 
L 170.269521 105.909645 
L 154.276686 105.909645 
z
"/>
   </g>
   <g id="patch_71">
    <path clip-path="url(#p123f961681)" d="M 174.26773 142.411034 
L 190.260564 142.411034 
L 190.260564 115.644449 
L 174.26773 115.644449 
z
"/>
   </g>
   <g id="patch_72">
    <path clip-path="url(#p123f961681)" d="M 134.285643 122.857049 
L 150.278477 122.857049 
L 150.278477 120.684384 
L 134.285643 120.684384 
z
" style="fill:#1f77b4;"/>
   </g>
   <g id="patch_73">
    <path clip-path="url(#p123f961681)" d="M 154.276686 105.909645 
L 170.269521 105.909645 
L 170.269521 101.853935 
L 154.276686 101.853935 
z
" style="fill:#1f77b4;"/>
   </g>
   <g id="patch_74">
    <path clip-path="url(#p123f961681)" d="M 174.26773 115.644449 
L 190.260564 115.644449 
L 190.260564 112.670384 
L 174.26773 112.670384 
z
" style="fill:#aec7e8;"/>
   </g>
   <g id="matplotlib.axis_13"/>
   <g id="matplotlib.axis_14">
    <g id="ytick_13">
     <g id="line2d_13">
      <g>
       <use style="stroke:#000000;stroke-width:0.8;" x="131.486897" xlink:href="#m017e15dc7a" y="142.411034"/>
      </g>
     </g>
    </g>
    <g id="ytick_14">
     <g id="line2d_14">
      <g>
       <use style="stroke:#000000;stroke-width:0.8;" x="131.486897" xlink:href="#m017e15dc7a" y="118.156289"/>
      </g>
     </g>
    </g>
   </g>
   <g id="patch_75">
    <path d="M 131.486897 142.411034 
L 131.486897 96.529655 
" style="fill:none;stroke:#000000;stroke-linecap:square;stroke-linejoin:miter;stroke-width:0.8;"/>
   </g>
   <g id="patch_76">
    <path d="M 193.05931 142.411034 
L 193.05931 96.529655 
" style="fill:none;stroke:#000000;stroke-linecap:square;stroke-linejoin:miter;stroke-width:0.8;"/>
   </g>
   <g id="patch_77">
    <path d="M 131.486897 142.411034 
L 193.05931 142.411034 
" style="fill:none;stroke:#000000;stroke-linecap:square;stroke-linejoin:miter;stroke-width:0.8;"/>
   </g>
   <g id="patch_78">
    <path d="M 131.486897 96.529655 
L 193.05931 96.529655 
" style="fill:none;stroke:#000000;stroke-linecap:square;stroke-linejoin:miter;stroke-width:0.8;"/>
   </g>
  </g>
  <g id="axes_8">
   <g id="patch_79">
    <path d="M 205.373793 142.411034 
L 266.946207 142.411034 
L 266.946207 96.529655 
L 205.373793 96.529655 
z
" style="fill:#ffffff;"/>
   </g>
   <g id="patch_80">
    <path clip-path="url(#p4244232eaa)" d="M 208.172539 142.411034 
L 224.165374 142.411034 
L 224.165374 119.505129 
L 208.172539 119.505129 
z
" style="fill:#aec7e8;"/>
   </g>
   <g id="patch_81">
    <path clip-path="url(#p4244232eaa)" d="M 228.163583 142.411034 
L 244.156417 142.411034 
L 244.156417 105.786948 
L 228.163583 105.786948 
z
"/>
   </g>
   <g id="patch_82">
    <path clip-path="url(#p4244232eaa)" d="M 248.154626 142.411034 
L 264.147461 142.411034 
L 264.147461 109.513794 
L 248.154626 109.513794 
z
"/>
   </g>
   <g id="patch_83">
    <path clip-path="url(#p4244232eaa)" d="M 208.172539 119.505129 
L 224.165374 119.505129 
L 224.165374 116.960028 
L 208.172539 116.960028 
z
" style="fill:#1f77b4;"/>
   </g>
   <g id="patch_84">
    <path clip-path="url(#p4244232eaa)" d="M 228.163583 105.786948 
L 244.156417 105.786948 
L 244.156417 101.717605 
L 228.163583 101.717605 
z
" style="fill:#1f77b4;"/>
   </g>
   <g id="patch_85">
    <path clip-path="url(#p4244232eaa)" d="M 248.154626 109.513794 
L 264.147461 109.513794 
L 264.147461 105.858545 
L 248.154626 105.858545 
z
" style="fill:#aec7e8;"/>
   </g>
   <g id="matplotlib.axis_15"/>
   <g id="matplotlib.axis_16">
    <g id="ytick_15">
     <g id="line2d_15">
      <g>
       <use style="stroke:#000000;stroke-width:0.8;" x="205.373793" xlink:href="#m017e15dc7a" y="142.411034"/>
      </g>
     </g>
    </g>
    <g id="ytick_16">
     <g id="line2d_16">
      <g>
       <use style="stroke:#000000;stroke-width:0.8;" x="205.373793" xlink:href="#m017e15dc7a" y="118.156289"/>
      </g>
     </g>
    </g>
   </g>
   <g id="patch_86">
    <path d="M 205.373793 142.411034 
L 205.373793 96.529655 
" style="fill:none;stroke:#000000;stroke-linecap:square;stroke-linejoin:miter;stroke-width:0.8;"/>
   </g>
   <g id="patch_87">
    <path d="M 266.946207 142.411034 
L 266.946207 96.529655 
" style="fill:none;stroke:#000000;stroke-linecap:square;stroke-linejoin:miter;stroke-width:0.8;"/>
   </g>
   <g id="patch_88">
    <path d="M 205.373793 142.411034 
L 266.946207 142.411034 
" style="fill:none;stroke:#000000;stroke-linecap:square;stroke-linejoin:miter;stroke-width:0.8;"/>
   </g>
   <g id="patch_89">
    <path d="M 205.373793 96.529655 
L 266.946207 96.529655 
" style="fill:none;stroke:#000000;stroke-linecap:square;stroke-linejoin:miter;stroke-width:0.8;"/>
   </g>
  </g>
  <g id="axes_9">
   <g id="patch_90">
    <path d="M 279.26069 142.411034 
L 340.833103 142.411034 
L 340.833103 96.529655 
L 279.26069 96.529655 
z
" style="fill:#ffffff;"/>
   </g>
   <g id="patch_91">
    <path clip-path="url(#p0c2bd22127)" d="M 282.059436 142.411034 
L 298.05227 142.411034 
L 298.05227 120.013819 
L 282.059436 120.013819 
z
" style="fill:#aec7e8;"/>
   </g>
   <g id="patch_92">
    <path clip-path="url(#p0c2bd22127)" d="M 302.050479 142.411034 
L 318.043314 142.411034 
L 318.043314 103.440805 
L 302.050479 103.440805 
z
"/>
   </g>
   <g id="patch_93">
    <path clip-path="url(#p0c2bd22127)" d="M 322.041523 142.411034 
L 338.034357 142.411034 
L 338.034357 113.333655 
L 322.041523 113.333655 
z
"/>
   </g>
   <g id="patch_94">
    <path clip-path="url(#p0c2bd22127)" d="M 282.059436 120.013819 
L 298.05227 120.013819 
L 298.05227 117.525239 
L 282.059436 117.525239 
z
" style="fill:#1f77b4;"/>
   </g>
   <g id="patch_95">
    <path clip-path="url(#p0c2bd22127)" d="M 302.050479 103.440805 
L 318.043314 103.440805 
L 318.043314 99.110779 
L 302.050479 99.110779 
z
" style="fill:#1f77b4;"/>
   </g>
   <g id="patch_96">
    <path clip-path="url(#p0c2bd22127)" d="M 322.041523 113.333655 
L 338.034357 113.333655 
L 338.034357 110.102835 
L 322.041523 110.102835 
z
" style="fill:#aec7e8;"/>
   </g>
   <g id="matplotlib.axis_17"/>
   <g id="matplotlib.axis_18">
    <g id="ytick_17">
     <g id="line2d_17">
      <g>
       <use style="stroke:#000000;stroke-width:0.8;" x="279.26069" xlink:href="#m017e15dc7a" y="142.411034"/>
      </g>
     </g>
    </g>
    <g id="ytick_18">
     <g id="line2d_18">
      <g>
       <use style="stroke:#000000;stroke-width:0.8;" x="279.26069" xlink:href="#m017e15dc7a" y="118.156289"/>
      </g>
     </g>
    </g>
   </g>
   <g id="patch_97">
    <path d="M 279.26069 142.411034 
L 279.26069 96.529655 
" style="fill:none;stroke:#000000;stroke-linecap:square;stroke-linejoin:miter;stroke-width:0.8;"/>
   </g>
   <g id="patch_98">
    <path d="M 340.833103 142.411034 
L 340.833103 96.529655 
" style="fill:none;stroke:#000000;stroke-linecap:square;stroke-linejoin:miter;stroke-width:0.8;"/>
   </g>
   <g id="patch_99">
    <path d="M 279.26069 142.411034 
L 340.833103 142.411034 
" style="fill:none;stroke:#000000;stroke-linecap:square;stroke-linejoin:miter;stroke-width:0.8;"/>
   </g>
   <g id="patch_100">
    <path d="M 279.26069 96.529655 
L 340.833103 96.529655 
" style="fill:none;stroke:#000000;stroke-linecap:square;stroke-linejoin:miter;stroke-width:0.8;"/>
   </g>
  </g>
  <g id="axes_10">
   <g id="patch_101">
    <path d="M 353.147586 142.411034 
L 414.72 142.411034 
L 414.72 96.529655 
L 353.147586 96.529655 
z
" style="fill:#ffffff;"/>
   </g>
   <g id="patch_102">
    <path clip-path="url(#p838b4bb09f)" d="M 355.946332 142.411034 
L 371.939167 142.411034 
L 371.939167 119.42374 
L 355.946332 119.42374 
z
" style="fill:#aec7e8;"/>
   </g>
   <g id="patch_103">
    <path clip-path="url(#p838b4bb09f)" d="M 375.937376 142.411034 
L 391.93021 142.411034 
L 391.93021 104.49209 
L 375.937376 104.49209 
z
"/>
   </g>
   <g id="patch_104">
    <path clip-path="url(#p838b4bb09f)" d="M 395.928419 142.411034 
L 411.921254 142.411034 
L 411.921254 113.578036 
L 395.928419 113.578036 
z
"/>
   </g>
   <g id="patch_105">
    <path clip-path="url(#p838b4bb09f)" d="M 355.946332 119.42374 
L 371.939167 119.42374 
L 371.939167 116.869596 
L 355.946332 116.869596 
z
" style="fill:#1f77b4;"/>
   </g>
   <g id="patch_106">
    <path clip-path="url(#p838b4bb09f)" d="M 375.937376 104.49209 
L 391.93021 104.49209 
L 391.93021 100.278874 
L 375.937376 100.278874 
z
" style="fill:#1f77b4;"/>
   </g>
   <g id="patch_107">
    <path clip-path="url(#p838b4bb09f)" d="M 395.928419 113.578036 
L 411.921254 113.578036 
L 411.921254 110.374369 
L 395.928419 110.374369 
z
" style="fill:#aec7e8;"/>
   </g>
   <g id="matplotlib.axis_19"/>
   <g id="matplotlib.axis_20">
    <g id="ytick_19">
     <g id="line2d_19">
      <g>
       <use style="stroke:#000000;stroke-width:0.8;" x="353.147586" xlink:href="#m017e15dc7a" y="142.411034"/>
      </g>
     </g>
    </g>
    <g id="ytick_20">
     <g id="line2d_20">
      <g>
       <use style="stroke:#000000;stroke-width:0.8;" x="353.147586" xlink:href="#m017e15dc7a" y="118.156289"/>
      </g>
     </g>
    </g>
   </g>
   <g id="patch_108">
    <path d="M 353.147586 142.411034 
L 353.147586 96.529655 
" style="fill:none;stroke:#000000;stroke-linecap:square;stroke-linejoin:miter;stroke-width:0.8;"/>
   </g>
   <g id="patch_109">
    <path d="M 414.72 142.411034 
L 414.72 96.529655 
" style="fill:none;stroke:#000000;stroke-linecap:square;stroke-linejoin:miter;stroke-width:0.8;"/>
   </g>
   <g id="patch_110">
    <path d="M 353.147586 142.411034 
L 414.72 142.411034 
" style="fill:none;stroke:#000000;stroke-linecap:square;stroke-linejoin:miter;stroke-width:0.8;"/>
   </g>
   <g id="patch_111">
    <path d="M 353.147586 96.529655 
L 414.72 96.529655 
" style="fill:none;stroke:#000000;stroke-linecap:square;stroke-linejoin:miter;stroke-width:0.8;"/>
   </g>
  </g>
  <g id="axes_11">
   <g id="patch_112">
    <path d="M 57.6 197.46869 
L 119.172414 197.46869 
L 119.172414 151.58731 
L 57.6 151.58731 
z
" style="fill:#ffffff;"/>
   </g>
   <g id="patch_113">
    <path clip-path="url(#p2b25709aa8)" d="M 60.398746 197.46869 
L 76.391581 197.46869 
L 76.391581 175.181206 
L 60.398746 175.181206 
z
" style="fill:#aec7e8;"/>
   </g>
   <g id="patch_114">
    <path clip-path="url(#p2b25709aa8)" d="M 80.38979 197.46869 
L 96.382624 197.46869 
L 96.382624 166.210675 
L 80.38979 166.210675 
z
"/>
   </g>
   <g id="patch_115">
    <path clip-path="url(#p2b25709aa8)" d="M 100.380833 197.46869 
L 116.373668 197.46869 
L 116.373668 164.474946 
L 100.380833 164.474946 
z
"/>
   </g>
   <g id="patch_116">
    <path clip-path="url(#p2b25709aa8)" d="M 60.398746 175.181206 
L 76.391581 175.181206 
L 76.391581 172.704819 
L 60.398746 172.704819 
z
" style="fill:#1f77b4;"/>
   </g>
   <g id="patch_117">
    <path clip-path="url(#p2b25709aa8)" d="M 80.38979 166.210675 
L 96.382624 166.210675 
L 96.382624 162.737562 
L 80.38979 162.737562 
z
" style="fill:#1f77b4;"/>
   </g>
   <g id="patch_118">
    <path clip-path="url(#p2b25709aa8)" d="M 100.380833 164.474946 
L 116.373668 164.474946 
L 116.373668 160.808974 
L 100.380833 160.808974 
z
" style="fill:#aec7e8;"/>
   </g>
   <g id="matplotlib.axis_21"/>
   <g id="matplotlib.axis_22">
    <g id="ytick_21">
     <g id="line2d_21">
      <g>
       <use style="stroke:#000000;stroke-width:0.8;" x="57.6" xlink:href="#m017e15dc7a" y="197.46869"/>
      </g>
     </g>
     <g id="text_5">
      <!-- 0.0 -->
      <g transform="translate(34.696875 201.267908)scale(0.1 -0.1)">
       <use xlink:href="#DejaVuSans-30"/>
       <use x="63.623047" xlink:href="#DejaVuSans-2e"/>
       <use x="95.410156" xlink:href="#DejaVuSans-30"/>
      </g>
     </g>
    </g>
    <g id="ytick_22">
     <g id="line2d_22">
      <g>
       <use style="stroke:#000000;stroke-width:0.8;" x="57.6" xlink:href="#m017e15dc7a" y="173.213944"/>
      </g>
     </g>
     <g id="text_6">
      <!-- 0.5 -->
      <g transform="translate(34.696875 177.013162)scale(0.1 -0.1)">
       <use xlink:href="#DejaVuSans-30"/>
       <use x="63.623047" xlink:href="#DejaVuSans-2e"/>
       <use x="95.410156" xlink:href="#DejaVuSans-35"/>
      </g>
     </g>
    </g>
   </g>
   <g id="patch_119">
    <path d="M 57.6 197.46869 
L 57.6 151.58731 
" style="fill:none;stroke:#000000;stroke-linecap:square;stroke-linejoin:miter;stroke-width:0.8;"/>
   </g>
   <g id="patch_120">
    <path d="M 119.172414 197.46869 
L 119.172414 151.58731 
" style="fill:none;stroke:#000000;stroke-linecap:square;stroke-linejoin:miter;stroke-width:0.8;"/>
   </g>
   <g id="patch_121">
    <path d="M 57.6 197.46869 
L 119.172414 197.46869 
" style="fill:none;stroke:#000000;stroke-linecap:square;stroke-linejoin:miter;stroke-width:0.8;"/>
   </g>
   <g id="patch_122">
    <path d="M 57.6 151.58731 
L 119.172414 151.58731 
" style="fill:none;stroke:#000000;stroke-linecap:square;stroke-linejoin:miter;stroke-width:0.8;"/>
   </g>
  </g>
  <g id="axes_12">
   <g id="patch_123">
    <path d="M 131.486897 197.46869 
L 193.05931 197.46869 
L 193.05931 151.58731 
L 131.486897 151.58731 
z
" style="fill:#ffffff;"/>
   </g>
   <g id="patch_124">
    <path clip-path="url(#pc717780dc8)" d="M 134.285643 197.46869 
L 150.278477 197.46869 
L 150.278477 177.447283 
L 134.285643 177.447283 
z
" style="fill:#aec7e8;"/>
   </g>
   <g id="patch_125">
    <path clip-path="url(#pc717780dc8)" d="M 154.276686 197.46869 
L 170.269521 197.46869 
L 170.269521 165.869467 
L 154.276686 165.869467 
z
"/>
   </g>
   <g id="patch_126">
    <path clip-path="url(#pc717780dc8)" d="M 174.26773 197.46869 
L 190.260564 197.46869 
L 190.260564 169.724059 
L 174.26773 169.724059 
z
"/>
   </g>
   <g id="patch_127">
    <path clip-path="url(#pc717780dc8)" d="M 134.285643 177.447283 
L 150.278477 177.447283 
L 150.278477 175.222682 
L 134.285643 175.222682 
z
" style="fill:#1f77b4;"/>
   </g>
   <g id="patch_128">
    <path clip-path="url(#pc717780dc8)" d="M 154.276686 165.869467 
L 170.269521 165.869467 
L 170.269521 162.358442 
L 154.276686 162.358442 
z
" style="fill:#1f77b4;"/>
   </g>
   <g id="patch_129">
    <path clip-path="url(#pc717780dc8)" d="M 174.26773 169.724059 
L 190.260564 169.724059 
L 190.260564 166.641323 
L 174.26773 166.641323 
z
" style="fill:#aec7e8;"/>
   </g>
   <g id="matplotlib.axis_23"/>
   <g id="matplotlib.axis_24">
    <g id="ytick_23">
     <g id="line2d_23">
      <g>
       <use style="stroke:#000000;stroke-width:0.8;" x="131.486897" xlink:href="#m017e15dc7a" y="197.46869"/>
      </g>
     </g>
    </g>
    <g id="ytick_24">
     <g id="line2d_24">
      <g>
       <use style="stroke:#000000;stroke-width:0.8;" x="131.486897" xlink:href="#m017e15dc7a" y="173.213944"/>
      </g>
     </g>
    </g>
   </g>
   <g id="patch_130">
    <path d="M 131.486897 197.46869 
L 131.486897 151.58731 
" style="fill:none;stroke:#000000;stroke-linecap:square;stroke-linejoin:miter;stroke-width:0.8;"/>
   </g>
   <g id="patch_131">
    <path d="M 193.05931 197.46869 
L 193.05931 151.58731 
" style="fill:none;stroke:#000000;stroke-linecap:square;stroke-linejoin:miter;stroke-width:0.8;"/>
   </g>
   <g id="patch_132">
    <path d="M 131.486897 197.46869 
L 193.05931 197.46869 
" style="fill:none;stroke:#000000;stroke-linecap:square;stroke-linejoin:miter;stroke-width:0.8;"/>
   </g>
   <g id="patch_133">
    <path d="M 131.486897 151.58731 
L 193.05931 151.58731 
" style="fill:none;stroke:#000000;stroke-linecap:square;stroke-linejoin:miter;stroke-width:0.8;"/>
   </g>
  </g>
  <g id="axes_13">
   <g id="patch_134">
    <path d="M 205.373793 197.46869 
L 266.946207 197.46869 
L 266.946207 151.58731 
L 205.373793 151.58731 
z
" style="fill:#ffffff;"/>
   </g>
   <g id="patch_135">
    <path clip-path="url(#pb9cb046eba)" d="M 208.172539 197.46869 
L 224.165374 197.46869 
L 224.165374 174.823208 
L 208.172539 174.823208 
z
" style="fill:#aec7e8;"/>
   </g>
   <g id="patch_136">
    <path clip-path="url(#pb9cb046eba)" d="M 228.163583 197.46869 
L 244.156417 197.46869 
L 244.156417 160.96975 
L 228.163583 160.96975 
z
"/>
   </g>
   <g id="patch_137">
    <path clip-path="url(#pb9cb046eba)" d="M 248.154626 197.46869 
L 264.147461 197.46869 
L 264.147461 169.712379 
L 248.154626 169.712379 
z
"/>
   </g>
   <g id="patch_138">
    <path clip-path="url(#pb9cb046eba)" d="M 208.172539 174.823208 
L 224.165374 174.823208 
L 224.165374 172.307043 
L 208.172539 172.307043 
z
" style="fill:#1f77b4;"/>
   </g>
   <g id="patch_139">
    <path clip-path="url(#pb9cb046eba)" d="M 228.163583 160.96975 
L 244.156417 160.96975 
L 244.156417 156.914312 
L 228.163583 156.914312 
z
" style="fill:#1f77b4;"/>
   </g>
   <g id="patch_140">
    <path clip-path="url(#pb9cb046eba)" d="M 248.154626 169.712379 
L 264.147461 169.712379 
L 264.147461 166.628345 
L 248.154626 166.628345 
z
" style="fill:#aec7e8;"/>
   </g>
   <g id="matplotlib.axis_25"/>
   <g id="matplotlib.axis_26">
    <g id="ytick_25">
     <g id="line2d_25">
      <g>
       <use style="stroke:#000000;stroke-width:0.8;" x="205.373793" xlink:href="#m017e15dc7a" y="197.46869"/>
      </g>
     </g>
    </g>
    <g id="ytick_26">
     <g id="line2d_26">
      <g>
       <use style="stroke:#000000;stroke-width:0.8;" x="205.373793" xlink:href="#m017e15dc7a" y="173.213944"/>
      </g>
     </g>
    </g>
   </g>
   <g id="patch_141">
    <path d="M 205.373793 197.46869 
L 205.373793 151.58731 
" style="fill:none;stroke:#000000;stroke-linecap:square;stroke-linejoin:miter;stroke-width:0.8;"/>
   </g>
   <g id="patch_142">
    <path d="M 266.946207 197.46869 
L 266.946207 151.58731 
" style="fill:none;stroke:#000000;stroke-linecap:square;stroke-linejoin:miter;stroke-width:0.8;"/>
   </g>
   <g id="patch_143">
    <path d="M 205.373793 197.46869 
L 266.946207 197.46869 
" style="fill:none;stroke:#000000;stroke-linecap:square;stroke-linejoin:miter;stroke-width:0.8;"/>
   </g>
   <g id="patch_144">
    <path d="M 205.373793 151.58731 
L 266.946207 151.58731 
" style="fill:none;stroke:#000000;stroke-linecap:square;stroke-linejoin:miter;stroke-width:0.8;"/>
   </g>
  </g>
  <g id="axes_14">
   <g id="patch_145">
    <path d="M 279.26069 197.46869 
L 340.833103 197.46869 
L 340.833103 151.58731 
L 279.26069 151.58731 
z
" style="fill:#ffffff;"/>
   </g>
   <g id="patch_146">
    <path clip-path="url(#p0b76bc4836)" d="M 282.059436 197.46869 
L 298.05227 197.46869 
L 298.05227 171.517499 
L 282.059436 171.517499 
z
" style="fill:#aec7e8;"/>
   </g>
   <g id="patch_147">
    <path clip-path="url(#p0b76bc4836)" d="M 302.050479 197.46869 
L 318.043314 197.46869 
L 318.043314 159.842903 
L 302.050479 159.842903 
z
"/>
   </g>
   <g id="patch_148">
    <path clip-path="url(#p0b76bc4836)" d="M 322.041523 197.46869 
L 338.034357 197.46869 
L 338.034357 164.260526 
L 322.041523 164.260526 
z
"/>
   </g>
   <g id="patch_149">
    <path clip-path="url(#p0b76bc4836)" d="M 282.059436 171.517499 
L 298.05227 171.517499 
L 298.05227 168.634033 
L 282.059436 168.634033 
z
" style="fill:#1f77b4;"/>
   </g>
   <g id="patch_150">
    <path clip-path="url(#p0b76bc4836)" d="M 302.050479 159.842903 
L 318.043314 159.842903 
L 318.043314 155.66226 
L 302.050479 155.66226 
z
" style="fill:#1f77b4;"/>
   </g>
   <g id="patch_151">
    <path clip-path="url(#p0b76bc4836)" d="M 322.041523 164.260526 
L 338.034357 164.260526 
L 338.034357 160.57073 
L 322.041523 160.57073 
z
" style="fill:#aec7e8;"/>
   </g>
   <g id="matplotlib.axis_27"/>
   <g id="matplotlib.axis_28">
    <g id="ytick_27">
     <g id="line2d_27">
      <g>
       <use style="stroke:#000000;stroke-width:0.8;" x="279.26069" xlink:href="#m017e15dc7a" y="197.46869"/>
      </g>
     </g>
    </g>
    <g id="ytick_28">
     <g id="line2d_28">
      <g>
       <use style="stroke:#000000;stroke-width:0.8;" x="279.26069" xlink:href="#m017e15dc7a" y="173.213944"/>
      </g>
     </g>
    </g>
   </g>
   <g id="patch_152">
    <path d="M 279.26069 197.46869 
L 279.26069 151.58731 
" style="fill:none;stroke:#000000;stroke-linecap:square;stroke-linejoin:miter;stroke-width:0.8;"/>
   </g>
   <g id="patch_153">
    <path d="M 340.833103 197.46869 
L 340.833103 151.58731 
" style="fill:none;stroke:#000000;stroke-linecap:square;stroke-linejoin:miter;stroke-width:0.8;"/>
   </g>
   <g id="patch_154">
    <path d="M 279.26069 197.46869 
L 340.833103 197.46869 
" style="fill:none;stroke:#000000;stroke-linecap:square;stroke-linejoin:miter;stroke-width:0.8;"/>
   </g>
   <g id="patch_155">
    <path d="M 279.26069 151.58731 
L 340.833103 151.58731 
" style="fill:none;stroke:#000000;stroke-linecap:square;stroke-linejoin:miter;stroke-width:0.8;"/>
   </g>
  </g>
  <g id="axes_15">
   <g id="patch_156">
    <path d="M 353.147586 197.46869 
L 414.72 197.46869 
L 414.72 151.58731 
L 353.147586 151.58731 
z
" style="fill:#ffffff;"/>
   </g>
   <g id="patch_157">
    <path clip-path="url(#p2c68e4ed82)" d="M 355.946332 197.46869 
L 371.939167 197.46869 
L 371.939167 172.722372 
L 355.946332 172.722372 
z
" style="fill:#aec7e8;"/>
   </g>
   <g id="patch_158">
    <path clip-path="url(#p2c68e4ed82)" d="M 375.937376 197.46869 
L 391.93021 197.46869 
L 391.93021 161.012784 
L 375.937376 161.012784 
z
"/>
   </g>
   <g id="patch_159">
    <path clip-path="url(#p2c68e4ed82)" d="M 395.928419 197.46869 
L 411.921254 197.46869 
L 411.921254 167.091463 
L 395.928419 167.091463 
z
"/>
   </g>
   <g id="patch_160">
    <path clip-path="url(#p2c68e4ed82)" d="M 355.946332 172.722372 
L 371.939167 172.722372 
L 371.939167 169.972781 
L 355.946332 169.972781 
z
" style="fill:#1f77b4;"/>
   </g>
   <g id="patch_161">
    <path clip-path="url(#p2c68e4ed82)" d="M 375.937376 161.012784 
L 391.93021 161.012784 
L 391.93021 156.962128 
L 375.937376 156.962128 
z
" style="fill:#1f77b4;"/>
   </g>
   <g id="patch_162">
    <path clip-path="url(#p2c68e4ed82)" d="M 395.928419 167.091463 
L 411.921254 167.091463 
L 411.921254 163.716215 
L 395.928419 163.716215 
z
" style="fill:#aec7e8;"/>
   </g>
   <g id="matplotlib.axis_29"/>
   <g id="matplotlib.axis_30">
    <g id="ytick_29">
     <g id="line2d_29">
      <g>
       <use style="stroke:#000000;stroke-width:0.8;" x="353.147586" xlink:href="#m017e15dc7a" y="197.46869"/>
      </g>
     </g>
    </g>
    <g id="ytick_30">
     <g id="line2d_30">
      <g>
       <use style="stroke:#000000;stroke-width:0.8;" x="353.147586" xlink:href="#m017e15dc7a" y="173.213944"/>
      </g>
     </g>
    </g>
   </g>
   <g id="patch_163">
    <path d="M 353.147586 197.46869 
L 353.147586 151.58731 
" style="fill:none;stroke:#000000;stroke-linecap:square;stroke-linejoin:miter;stroke-width:0.8;"/>
   </g>
   <g id="patch_164">
    <path d="M 414.72 197.46869 
L 414.72 151.58731 
" style="fill:none;stroke:#000000;stroke-linecap:square;stroke-linejoin:miter;stroke-width:0.8;"/>
   </g>
   <g id="patch_165">
    <path d="M 353.147586 197.46869 
L 414.72 197.46869 
" style="fill:none;stroke:#000000;stroke-linecap:square;stroke-linejoin:miter;stroke-width:0.8;"/>
   </g>
   <g id="patch_166">
    <path d="M 353.147586 151.58731 
L 414.72 151.58731 
" style="fill:none;stroke:#000000;stroke-linecap:square;stroke-linejoin:miter;stroke-width:0.8;"/>
   </g>
  </g>
  <g id="axes_16">
   <g id="patch_167">
    <path d="M 57.6 252.526345 
L 119.172414 252.526345 
L 119.172414 206.644966 
L 57.6 206.644966 
z
" style="fill:#ffffff;"/>
   </g>
   <g id="patch_168">
    <path clip-path="url(#pa3358399b2)" d="M 60.398746 252.526345 
L 76.391581 252.526345 
L 76.391581 224.692737 
L 60.398746 224.692737 
z
" style="fill:#aec7e8;"/>
   </g>
   <g id="patch_169">
    <path clip-path="url(#pa3358399b2)" d="M 80.38979 252.526345 
L 96.382624 252.526345 
L 96.382624 213.696686 
L 80.38979 213.696686 
z
"/>
   </g>
   <g id="patch_170">
    <path clip-path="url(#pa3358399b2)" d="M 100.380833 252.526345 
L 116.373668 252.526345 
L 116.373668 219.094302 
L 100.380833 219.094302 
z
"/>
   </g>
   <g id="patch_171">
    <path clip-path="url(#pa3358399b2)" d="M 60.398746 224.692737 
L 76.391581 224.692737 
L 76.391581 221.600114 
L 60.398746 221.600114 
z
" style="fill:#1f77b4;"/>
   </g>
   <g id="patch_172">
    <path clip-path="url(#pa3358399b2)" d="M 80.38979 213.696686 
L 96.382624 213.696686 
L 96.382624 209.38228 
L 80.38979 209.38228 
z
" style="fill:#1f77b4;"/>
   </g>
   <g id="patch_173">
    <path clip-path="url(#pa3358399b2)" d="M 100.380833 219.094302 
L 116.373668 219.094302 
L 116.373668 215.37963 
L 100.380833 215.37963 
z
" style="fill:#aec7e8;"/>
   </g>
   <g id="matplotlib.axis_31"/>
   <g id="matplotlib.axis_32">
    <g id="ytick_31">
     <g id="line2d_31">
      <g>
       <use style="stroke:#000000;stroke-width:0.8;" x="57.6" xlink:href="#m017e15dc7a" y="252.526345"/>
      </g>
     </g>
     <g id="text_7">
      <!-- 0.0 -->
      <g transform="translate(34.696875 256.325564)scale(0.1 -0.1)">
       <use xlink:href="#DejaVuSans-30"/>
       <use x="63.623047" xlink:href="#DejaVuSans-2e"/>
       <use x="95.410156" xlink:href="#DejaVuSans-30"/>
      </g>
     </g>
    </g>
    <g id="ytick_32">
     <g id="line2d_32">
      <g>
       <use style="stroke:#000000;stroke-width:0.8;" x="57.6" xlink:href="#m017e15dc7a" y="228.271599"/>
      </g>
     </g>
     <g id="text_8">
      <!-- 0.5 -->
      <g transform="translate(34.696875 232.070818)scale(0.1 -0.1)">
       <use xlink:href="#DejaVuSans-30"/>
       <use x="63.623047" xlink:href="#DejaVuSans-2e"/>
       <use x="95.410156" xlink:href="#DejaVuSans-35"/>
      </g>
     </g>
    </g>
   </g>
   <g id="patch_174">
    <path d="M 57.6 252.526345 
L 57.6 206.644966 
" style="fill:none;stroke:#000000;stroke-linecap:square;stroke-linejoin:miter;stroke-width:0.8;"/>
   </g>
   <g id="patch_175">
    <path d="M 119.172414 252.526345 
L 119.172414 206.644966 
" style="fill:none;stroke:#000000;stroke-linecap:square;stroke-linejoin:miter;stroke-width:0.8;"/>
   </g>
   <g id="patch_176">
    <path d="M 57.6 252.526345 
L 119.172414 252.526345 
" style="fill:none;stroke:#000000;stroke-linecap:square;stroke-linejoin:miter;stroke-width:0.8;"/>
   </g>
   <g id="patch_177">
    <path d="M 57.6 206.644966 
L 119.172414 206.644966 
" style="fill:none;stroke:#000000;stroke-linecap:square;stroke-linejoin:miter;stroke-width:0.8;"/>
   </g>
  </g>
  <g id="axes_17">
   <g id="patch_178">
    <path d="M 131.486897 252.526345 
L 193.05931 252.526345 
L 193.05931 206.644966 
L 131.486897 206.644966 
z
" style="fill:#ffffff;"/>
   </g>
   <g id="patch_179">
    <path clip-path="url(#p43e8a3eb0f)" d="M 134.285643 252.526345 
L 150.278477 252.526345 
L 150.278477 224.350755 
L 134.285643 224.350755 
z
" style="fill:#aec7e8;"/>
   </g>
   <g id="patch_180">
    <path clip-path="url(#p43e8a3eb0f)" d="M 154.276686 252.526345 
L 170.269521 252.526345 
L 170.269521 213.199448 
L 154.276686 213.199448 
z
"/>
   </g>
   <g id="patch_181">
    <path clip-path="url(#p43e8a3eb0f)" d="M 174.26773 252.526345 
L 190.260564 252.526345 
L 190.260564 219.373521 
L 174.26773 219.373521 
z
"/>
   </g>
   <g id="patch_182">
    <path clip-path="url(#p43e8a3eb0f)" d="M 134.285643 224.350755 
L 150.278477 224.350755 
L 150.278477 221.220134 
L 134.285643 221.220134 
z
" style="fill:#1f77b4;"/>
   </g>
   <g id="patch_183">
    <path clip-path="url(#p43e8a3eb0f)" d="M 154.276686 213.199448 
L 170.269521 213.199448 
L 170.269521 208.829793 
L 154.276686 208.829793 
z
" style="fill:#1f77b4;"/>
   </g>
   <g id="patch_184">
    <path clip-path="url(#p43e8a3eb0f)" d="M 174.26773 219.373521 
L 190.260564 219.373521 
L 190.260564 215.689874 
L 174.26773 215.689874 
z
" style="fill:#aec7e8;"/>
   </g>
   <g id="matplotlib.axis_33"/>
   <g id="matplotlib.axis_34">
    <g id="ytick_33">
     <g id="line2d_33">
      <g>
       <use style="stroke:#000000;stroke-width:0.8;" x="131.486897" xlink:href="#m017e15dc7a" y="252.526345"/>
      </g>
     </g>
    </g>
    <g id="ytick_34">
     <g id="line2d_34">
      <g>
       <use style="stroke:#000000;stroke-width:0.8;" x="131.486897" xlink:href="#m017e15dc7a" y="228.271599"/>
      </g>
     </g>
    </g>
   </g>
   <g id="patch_185">
    <path d="M 131.486897 252.526345 
L 131.486897 206.644966 
" style="fill:none;stroke:#000000;stroke-linecap:square;stroke-linejoin:miter;stroke-width:0.8;"/>
   </g>
   <g id="patch_186">
    <path d="M 193.05931 252.526345 
L 193.05931 206.644966 
" style="fill:none;stroke:#000000;stroke-linecap:square;stroke-linejoin:miter;stroke-width:0.8;"/>
   </g>
   <g id="patch_187">
    <path d="M 131.486897 252.526345 
L 193.05931 252.526345 
" style="fill:none;stroke:#000000;stroke-linecap:square;stroke-linejoin:miter;stroke-width:0.8;"/>
   </g>
   <g id="patch_188">
    <path d="M 131.486897 206.644966 
L 193.05931 206.644966 
" style="fill:none;stroke:#000000;stroke-linecap:square;stroke-linejoin:miter;stroke-width:0.8;"/>
   </g>
  </g>
  <g id="axes_18">
   <g id="patch_189">
    <path d="M 205.373793 252.526345 
L 266.946207 252.526345 
L 266.946207 206.644966 
L 205.373793 206.644966 
z
" style="fill:#ffffff;"/>
   </g>
   <g id="patch_190">
    <path clip-path="url(#p6e524e2392)" d="M 208.172539 252.526345 
L 215.893218 252.526345 
L 215.893218 226.414869 
L 208.172539 226.414869 
z
" style="fill:#1f77b4;"/>
   </g>
   <g id="patch_191">
    <path clip-path="url(#p6e524e2392)" d="M 217.823388 252.526345 
L 225.544067 252.526345 
L 225.544067 220.58089 
L 217.823388 220.58089 
z
" style="fill:#aec7e8;"/>
   </g>
   <g id="patch_192">
    <path clip-path="url(#p6e524e2392)" d="M 227.474236 252.526345 
L 235.194915 252.526345 
L 235.194915 227.854109 
L 227.474236 227.854109 
z
" style="fill:#aec7e8;"/>
   </g>
   <g id="patch_193">
    <path clip-path="url(#p6e524e2392)" d="M 237.125085 252.526345 
L 244.845764 252.526345 
L 244.845764 213.679605 
L 237.125085 213.679605 
z
"/>
   </g>
   <g id="patch_194">
    <path clip-path="url(#p6e524e2392)" d="M 246.775933 252.526345 
L 254.496612 252.526345 
L 254.496612 215.145001 
L 246.775933 215.145001 
z
"/>
   </g>
   <g id="patch_195">
    <path clip-path="url(#p6e524e2392)" d="M 256.426782 252.526345 
L 264.147461 252.526345 
L 264.147461 224.081477 
L 256.426782 224.081477 
z
"/>
   </g>
   <g id="patch_196">
    <path clip-path="url(#p6e524e2392)" d="M 208.172539 226.414869 
L 215.893218 226.414869 
L 215.893218 223.513594 
L 208.172539 223.513594 
z
" style="fill:#ff7f0e;"/>
   </g>
   <g id="patch_197">
    <path clip-path="url(#p6e524e2392)" d="M 217.823388 220.58089 
L 225.544067 220.58089 
L 225.544067 217.031395 
L 217.823388 217.031395 
z
" style="fill:#1f77b4;"/>
   </g>
   <g id="patch_198">
    <path clip-path="url(#p6e524e2392)" d="M 227.474236 227.854109 
L 235.194915 227.854109 
L 235.194915 225.112749 
L 227.474236 225.112749 
z
" style="fill:#ff7f0e;"/>
   </g>
   <g id="patch_199">
    <path clip-path="url(#p6e524e2392)" d="M 237.125085 213.679605 
L 244.845764 213.679605 
L 244.845764 209.363301 
L 237.125085 209.363301 
z
" style="fill:#1f77b4;"/>
   </g>
   <g id="patch_200">
    <path clip-path="url(#p6e524e2392)" d="M 246.775933 215.145001 
L 254.496612 215.145001 
L 254.496612 210.991518 
L 246.775933 210.991518 
z
" style="fill:#aec7e8;"/>
   </g>
   <g id="patch_201">
    <path clip-path="url(#p6e524e2392)" d="M 256.426782 224.081477 
L 264.147461 224.081477 
L 264.147461 220.920936 
L 256.426782 220.920936 
z
" style="fill:#ff7f0e;"/>
   </g>
   <g id="matplotlib.axis_35"/>
   <g id="matplotlib.axis_36">
    <g id="ytick_35">
     <g id="line2d_35">
      <g>
       <use style="stroke:#000000;stroke-width:0.8;" x="205.373793" xlink:href="#m017e15dc7a" y="252.526345"/>
      </g>
     </g>
    </g>
    <g id="ytick_36">
     <g id="line2d_36">
      <g>
       <use style="stroke:#000000;stroke-width:0.8;" x="205.373793" xlink:href="#m017e15dc7a" y="228.271599"/>
      </g>
     </g>
    </g>
   </g>
   <g id="patch_202">
    <path d="M 205.373793 252.526345 
L 205.373793 206.644966 
" style="fill:none;stroke:#000000;stroke-linecap:square;stroke-linejoin:miter;stroke-width:0.8;"/>
   </g>
   <g id="patch_203">
    <path d="M 266.946207 252.526345 
L 266.946207 206.644966 
" style="fill:none;stroke:#000000;stroke-linecap:square;stroke-linejoin:miter;stroke-width:0.8;"/>
   </g>
   <g id="patch_204">
    <path d="M 205.373793 252.526345 
L 266.946207 252.526345 
" style="fill:none;stroke:#000000;stroke-linecap:square;stroke-linejoin:miter;stroke-width:0.8;"/>
   </g>
   <g id="patch_205">
    <path d="M 205.373793 206.644966 
L 266.946207 206.644966 
" style="fill:none;stroke:#000000;stroke-linecap:square;stroke-linejoin:miter;stroke-width:0.8;"/>
   </g>
  </g>
  <g id="axes_19">
   <g id="patch_206">
    <path d="M 279.26069 252.526345 
L 340.833103 252.526345 
L 340.833103 206.644966 
L 279.26069 206.644966 
z
" style="fill:#ffffff;"/>
   </g>
   <g id="patch_207">
    <path clip-path="url(#p8a071a204e)" d="M 282.059436 252.526345 
L 289.780115 252.526345 
L 289.780115 227.260918 
L 282.059436 227.260918 
z
" style="fill:#1f77b4;"/>
   </g>
   <g id="patch_208">
    <path clip-path="url(#p8a071a204e)" d="M 291.710284 252.526345 
L 299.430963 252.526345 
L 299.430963 227.446522 
L 291.710284 227.446522 
z
" style="fill:#aec7e8;"/>
   </g>
   <g id="patch_209">
    <path clip-path="url(#p8a071a204e)" d="M 301.361133 252.526345 
L 309.081812 252.526345 
L 309.081812 230.703374 
L 301.361133 230.703374 
z
" style="fill:#aec7e8;"/>
   </g>
   <g id="patch_210">
    <path clip-path="url(#p8a071a204e)" d="M 311.011981 252.526345 
L 318.73266 252.526345 
L 318.73266 218.985531 
L 311.011981 218.985531 
z
"/>
   </g>
   <g id="patch_211">
    <path clip-path="url(#p8a071a204e)" d="M 320.66283 252.526345 
L 328.383509 252.526345 
L 328.383509 218.928954 
L 320.66283 218.928954 
z
"/>
   </g>
   <g id="patch_212">
    <path clip-path="url(#p8a071a204e)" d="M 330.313679 252.526345 
L 338.034357 252.526345 
L 338.034357 226.22552 
L 330.313679 226.22552 
z
"/>
   </g>
   <g id="patch_213">
    <path clip-path="url(#p8a071a204e)" d="M 282.059436 227.260918 
L 289.780115 227.260918 
L 289.780115 224.453648 
L 282.059436 224.453648 
z
" style="fill:#ff7f0e;"/>
   </g>
   <g id="patch_214">
    <path clip-path="url(#p8a071a204e)" d="M 291.710284 227.446522 
L 299.430963 227.446522 
L 299.430963 224.659875 
L 291.710284 224.659875 
z
" style="fill:#1f77b4;"/>
   </g>
   <g id="patch_215">
    <path clip-path="url(#p8a071a204e)" d="M 301.361133 230.703374 
L 309.081812 230.703374 
L 309.081812 228.2786 
L 301.361133 228.2786 
z
" style="fill:#ff7f0e;"/>
   </g>
   <g id="patch_216">
    <path clip-path="url(#p8a071a204e)" d="M 311.011981 218.985531 
L 318.73266 218.985531 
L 318.73266 215.258773 
L 311.011981 215.258773 
z
" style="fill:#1f77b4;"/>
   </g>
   <g id="patch_217">
    <path clip-path="url(#p8a071a204e)" d="M 320.66283 218.928954 
L 328.383509 218.928954 
L 328.383509 215.19591 
L 320.66283 215.19591 
z
" style="fill:#aec7e8;"/>
   </g>
   <g id="patch_218">
    <path clip-path="url(#p8a071a204e)" d="M 330.313679 226.22552 
L 338.034357 226.22552 
L 338.034357 223.303206 
L 330.313679 223.303206 
z
" style="fill:#ff7f0e;"/>
   </g>
   <g id="matplotlib.axis_37"/>
   <g id="matplotlib.axis_38">
    <g id="ytick_37">
     <g id="line2d_37">
      <g>
       <use style="stroke:#000000;stroke-width:0.8;" x="279.26069" xlink:href="#m017e15dc7a" y="252.526345"/>
      </g>
     </g>
    </g>
    <g id="ytick_38">
     <g id="line2d_38">
      <g>
       <use style="stroke:#000000;stroke-width:0.8;" x="279.26069" xlink:href="#m017e15dc7a" y="228.271599"/>
      </g>
     </g>
    </g>
   </g>
   <g id="patch_219">
    <path d="M 279.26069 252.526345 
L 279.26069 206.644966 
" style="fill:none;stroke:#000000;stroke-linecap:square;stroke-linejoin:miter;stroke-width:0.8;"/>
   </g>
   <g id="patch_220">
    <path d="M 340.833103 252.526345 
L 340.833103 206.644966 
" style="fill:none;stroke:#000000;stroke-linecap:square;stroke-linejoin:miter;stroke-width:0.8;"/>
   </g>
   <g id="patch_221">
    <path d="M 279.26069 252.526345 
L 340.833103 252.526345 
" style="fill:none;stroke:#000000;stroke-linecap:square;stroke-linejoin:miter;stroke-width:0.8;"/>
   </g>
   <g id="patch_222">
    <path d="M 279.26069 206.644966 
L 340.833103 206.644966 
" style="fill:none;stroke:#000000;stroke-linecap:square;stroke-linejoin:miter;stroke-width:0.8;"/>
   </g>
  </g>
  <g id="axes_20">
   <g id="patch_223">
    <path d="M 353.147586 252.526345 
L 414.72 252.526345 
L 414.72 206.644966 
L 353.147586 206.644966 
z
" style="fill:#ffffff;"/>
   </g>
   <g id="patch_224">
    <path clip-path="url(#p57d630c571)" d="M 355.946332 252.526345 
L 371.939167 252.526345 
L 371.939167 223.553114 
L 355.946332 223.553114 
z
" style="fill:#aec7e8;"/>
   </g>
   <g id="patch_225">
    <path clip-path="url(#p57d630c571)" d="M 375.937376 252.526345 
L 391.93021 252.526345 
L 391.93021 217.553907 
L 375.937376 217.553907 
z
"/>
   </g>
   <g id="patch_226">
    <path clip-path="url(#p57d630c571)" d="M 395.928419 252.526345 
L 411.921254 252.526345 
L 411.921254 215.419855 
L 395.928419 215.419855 
z
"/>
   </g>
   <g id="patch_227">
    <path clip-path="url(#p57d630c571)" d="M 355.946332 223.553114 
L 371.939167 223.553114 
L 371.939167 220.333866 
L 355.946332 220.333866 
z
" style="fill:#1f77b4;"/>
   </g>
   <g id="patch_228">
    <path clip-path="url(#p57d630c571)" d="M 375.937376 217.553907 
L 391.93021 217.553907 
L 391.93021 213.668081 
L 375.937376 213.668081 
z
" style="fill:#1f77b4;"/>
   </g>
   <g id="patch_229">
    <path clip-path="url(#p57d630c571)" d="M 395.928419 215.419855 
L 411.921254 215.419855 
L 411.921254 211.296912 
L 395.928419 211.296912 
z
" style="fill:#aec7e8;"/>
   </g>
   <g id="matplotlib.axis_39"/>
   <g id="matplotlib.axis_40">
    <g id="ytick_39">
     <g id="line2d_39">
      <g>
       <use style="stroke:#000000;stroke-width:0.8;" x="353.147586" xlink:href="#m017e15dc7a" y="252.526345"/>
      </g>
     </g>
    </g>
    <g id="ytick_40">
     <g id="line2d_40">
      <g>
       <use style="stroke:#000000;stroke-width:0.8;" x="353.147586" xlink:href="#m017e15dc7a" y="228.271599"/>
      </g>
     </g>
    </g>
   </g>
   <g id="patch_230">
    <path d="M 353.147586 252.526345 
L 353.147586 206.644966 
" style="fill:none;stroke:#000000;stroke-linecap:square;stroke-linejoin:miter;stroke-width:0.8;"/>
   </g>
   <g id="patch_231">
    <path d="M 414.72 252.526345 
L 414.72 206.644966 
" style="fill:none;stroke:#000000;stroke-linecap:square;stroke-linejoin:miter;stroke-width:0.8;"/>
   </g>
   <g id="patch_232">
    <path d="M 353.147586 252.526345 
L 414.72 252.526345 
" style="fill:none;stroke:#000000;stroke-linecap:square;stroke-linejoin:miter;stroke-width:0.8;"/>
   </g>
   <g id="patch_233">
    <path d="M 353.147586 206.644966 
L 414.72 206.644966 
" style="fill:none;stroke:#000000;stroke-linecap:square;stroke-linejoin:miter;stroke-width:0.8;"/>
   </g>
  </g>
  <g id="axes_21">
   <g id="patch_234">
    <path d="M 57.6 307.584 
L 119.172414 307.584 
L 119.172414 261.702621 
L 57.6 261.702621 
z
" style="fill:#ffffff;"/>
   </g>
   <g id="patch_235">
    <path clip-path="url(#p1e0807e7b9)" d="M 60.398746 307.584 
L 76.391581 307.584 
L 76.391581 279.917119 
L 60.398746 279.917119 
z
" style="fill:#aec7e8;"/>
   </g>
   <g id="patch_236">
    <path clip-path="url(#p1e0807e7b9)" d="M 80.38979 307.584 
L 96.382624 307.584 
L 96.382624 270.218428 
L 80.38979 270.218428 
z
"/>
   </g>
   <g id="patch_237">
    <path clip-path="url(#p1e0807e7b9)" d="M 100.380833 307.584 
L 116.373668 307.584 
L 116.373668 277.326041 
L 100.380833 277.326041 
z
"/>
   </g>
   <g id="patch_238">
    <path clip-path="url(#p1e0807e7b9)" d="M 60.398746 279.917119 
L 76.391581 279.917119 
L 76.391581 276.843021 
L 60.398746 276.843021 
z
" style="fill:#1f77b4;"/>
   </g>
   <g id="patch_239">
    <path clip-path="url(#p1e0807e7b9)" d="M 80.38979 270.218428 
L 96.382624 270.218428 
L 96.382624 266.066698 
L 80.38979 266.066698 
z
" style="fill:#1f77b4;"/>
   </g>
   <g id="patch_240">
    <path clip-path="url(#p1e0807e7b9)" d="M 100.380833 277.326041 
L 116.373668 277.326041 
L 116.373668 273.964045 
L 100.380833 273.964045 
z
" style="fill:#aec7e8;"/>
   </g>
   <g id="matplotlib.axis_41"/>
   <g id="matplotlib.axis_42">
    <g id="ytick_41">
     <g id="line2d_41">
      <g>
       <use style="stroke:#000000;stroke-width:0.8;" x="57.6" xlink:href="#m017e15dc7a" y="307.584"/>
      </g>
     </g>
     <g id="text_9">
      <!-- 0.0 -->
      <g transform="translate(34.696875 311.383219)scale(0.1 -0.1)">
       <use xlink:href="#DejaVuSans-30"/>
       <use x="63.623047" xlink:href="#DejaVuSans-2e"/>
       <use x="95.410156" xlink:href="#DejaVuSans-30"/>
      </g>
     </g>
    </g>
    <g id="ytick_42">
     <g id="line2d_42">
      <g>
       <use style="stroke:#000000;stroke-width:0.8;" x="57.6" xlink:href="#m017e15dc7a" y="283.329254"/>
      </g>
     </g>
     <g id="text_10">
      <!-- 0.5 -->
      <g transform="translate(34.696875 287.128473)scale(0.1 -0.1)">
       <use xlink:href="#DejaVuSans-30"/>
       <use x="63.623047" xlink:href="#DejaVuSans-2e"/>
       <use x="95.410156" xlink:href="#DejaVuSans-35"/>
      </g>
     </g>
    </g>
   </g>
   <g id="patch_241">
    <path d="M 57.6 307.584 
L 57.6 261.702621 
" style="fill:none;stroke:#000000;stroke-linecap:square;stroke-linejoin:miter;stroke-width:0.8;"/>
   </g>
   <g id="patch_242">
    <path d="M 119.172414 307.584 
L 119.172414 261.702621 
" style="fill:none;stroke:#000000;stroke-linecap:square;stroke-linejoin:miter;stroke-width:0.8;"/>
   </g>
   <g id="patch_243">
    <path d="M 57.6 307.584 
L 119.172414 307.584 
" style="fill:none;stroke:#000000;stroke-linecap:square;stroke-linejoin:miter;stroke-width:0.8;"/>
   </g>
   <g id="patch_244">
    <path d="M 57.6 261.702621 
L 119.172414 261.702621 
" style="fill:none;stroke:#000000;stroke-linecap:square;stroke-linejoin:miter;stroke-width:0.8;"/>
   </g>
  </g>
  <g id="axes_22">
   <g id="patch_245">
    <path d="M 131.486897 307.584 
L 193.05931 307.584 
L 193.05931 261.702621 
L 131.486897 261.702621 
z
" style="fill:#ffffff;"/>
   </g>
   <g id="patch_246">
    <path clip-path="url(#p53d5bb15c0)" d="M 134.285643 307.584 
L 150.278477 307.584 
L 150.278477 278.583277 
L 134.285643 278.583277 
z
" style="fill:#aec7e8;"/>
   </g>
   <g id="patch_247">
    <path clip-path="url(#p53d5bb15c0)" d="M 154.276686 307.584 
L 170.269521 307.584 
L 170.269521 269.750495 
L 154.276686 269.750495 
z
"/>
   </g>
   <g id="patch_248">
    <path clip-path="url(#p53d5bb15c0)" d="M 174.26773 307.584 
L 190.260564 307.584 
L 190.260564 275.876955 
L 174.26773 275.876955 
z
"/>
   </g>
   <g id="patch_249">
    <path clip-path="url(#p53d5bb15c0)" d="M 134.285643 278.583277 
L 150.278477 278.583277 
L 150.278477 275.360975 
L 134.285643 275.360975 
z
" style="fill:#1f77b4;"/>
   </g>
   <g id="patch_250">
    <path clip-path="url(#p53d5bb15c0)" d="M 154.276686 269.750495 
L 170.269521 269.750495 
L 170.269521 265.546772 
L 154.276686 265.546772 
z
" style="fill:#1f77b4;"/>
   </g>
   <g id="patch_251">
    <path clip-path="url(#p53d5bb15c0)" d="M 174.26773 275.876955 
L 190.260564 275.876955 
L 190.260564 272.35395 
L 174.26773 272.35395 
z
" style="fill:#aec7e8;"/>
   </g>
   <g id="matplotlib.axis_43"/>
   <g id="matplotlib.axis_44">
    <g id="ytick_43">
     <g id="line2d_43">
      <g>
       <use style="stroke:#000000;stroke-width:0.8;" x="131.486897" xlink:href="#m017e15dc7a" y="307.584"/>
      </g>
     </g>
    </g>
    <g id="ytick_44">
     <g id="line2d_44">
      <g>
       <use style="stroke:#000000;stroke-width:0.8;" x="131.486897" xlink:href="#m017e15dc7a" y="283.329254"/>
      </g>
     </g>
    </g>
   </g>
   <g id="patch_252">
    <path d="M 131.486897 307.584 
L 131.486897 261.702621 
" style="fill:none;stroke:#000000;stroke-linecap:square;stroke-linejoin:miter;stroke-width:0.8;"/>
   </g>
   <g id="patch_253">
    <path d="M 193.05931 307.584 
L 193.05931 261.702621 
" style="fill:none;stroke:#000000;stroke-linecap:square;stroke-linejoin:miter;stroke-width:0.8;"/>
   </g>
   <g id="patch_254">
    <path d="M 131.486897 307.584 
L 193.05931 307.584 
" style="fill:none;stroke:#000000;stroke-linecap:square;stroke-linejoin:miter;stroke-width:0.8;"/>
   </g>
   <g id="patch_255">
    <path d="M 131.486897 261.702621 
L 193.05931 261.702621 
" style="fill:none;stroke:#000000;stroke-linecap:square;stroke-linejoin:miter;stroke-width:0.8;"/>
   </g>
  </g>
  <g id="axes_23">
   <g id="patch_256">
    <path d="M 205.373793 307.584 
L 266.946207 307.584 
L 266.946207 261.702621 
L 205.373793 261.702621 
z
" style="fill:#ffffff;"/>
   </g>
   <g id="patch_257">
    <path clip-path="url(#p3f0d26b870)" d="M 208.172539 307.584 
L 224.165374 307.584 
L 224.165374 272.059977 
L 208.172539 272.059977 
z
" style="fill:#aec7e8;"/>
   </g>
   <g id="patch_258">
    <path clip-path="url(#p3f0d26b870)" d="M 228.163583 307.584 
L 244.156417 307.584 
L 244.156417 271.460137 
L 228.163583 271.460137 
z
"/>
   </g>
   <g id="patch_259">
    <path clip-path="url(#p3f0d26b870)" d="M 248.154626 307.584 
L 264.147461 307.584 
L 264.147461 272.480633 
L 248.154626 272.480633 
z
"/>
   </g>
   <g id="patch_260">
    <path clip-path="url(#p3f0d26b870)" d="M 208.172539 272.059977 
L 224.165374 272.059977 
L 224.165374 268.112863 
L 208.172539 268.112863 
z
" style="fill:#ff7f0e;"/>
   </g>
   <g id="patch_261">
    <path clip-path="url(#p3f0d26b870)" d="M 228.163583 271.460137 
L 244.156417 271.460137 
L 244.156417 267.446374 
L 228.163583 267.446374 
z
" style="fill:#aec7e8;"/>
   </g>
   <g id="patch_262">
    <path clip-path="url(#p3f0d26b870)" d="M 248.154626 272.480633 
L 264.147461 272.480633 
L 264.147461 268.580259 
L 248.154626 268.580259 
z
" style="fill:#ff7f0e;"/>
   </g>
   <g id="matplotlib.axis_45"/>
   <g id="matplotlib.axis_46">
    <g id="ytick_45">
     <g id="line2d_45">
      <g>
       <use style="stroke:#000000;stroke-width:0.8;" x="205.373793" xlink:href="#m017e15dc7a" y="307.584"/>
      </g>
     </g>
    </g>
    <g id="ytick_46">
     <g id="line2d_46">
      <g>
       <use style="stroke:#000000;stroke-width:0.8;" x="205.373793" xlink:href="#m017e15dc7a" y="283.329254"/>
      </g>
     </g>
    </g>
   </g>
   <g id="patch_263">
    <path d="M 205.373793 307.584 
L 205.373793 261.702621 
" style="fill:none;stroke:#000000;stroke-linecap:square;stroke-linejoin:miter;stroke-width:0.8;"/>
   </g>
   <g id="patch_264">
    <path d="M 266.946207 307.584 
L 266.946207 261.702621 
" style="fill:none;stroke:#000000;stroke-linecap:square;stroke-linejoin:miter;stroke-width:0.8;"/>
   </g>
   <g id="patch_265">
    <path d="M 205.373793 307.584 
L 266.946207 307.584 
" style="fill:none;stroke:#000000;stroke-linecap:square;stroke-linejoin:miter;stroke-width:0.8;"/>
   </g>
   <g id="patch_266">
    <path d="M 205.373793 261.702621 
L 266.946207 261.702621 
" style="fill:none;stroke:#000000;stroke-linecap:square;stroke-linejoin:miter;stroke-width:0.8;"/>
   </g>
  </g>
  <g id="axes_24">
   <g id="patch_267">
    <path d="M 279.26069 307.584 
L 340.833103 307.584 
L 340.833103 261.702621 
L 279.26069 261.702621 
z
" style="fill:#ffffff;"/>
   </g>
   <g id="matplotlib.axis_47"/>
   <g id="matplotlib.axis_48">
    <g id="ytick_47">
     <g id="line2d_47">
      <g>
       <use style="stroke:#000000;stroke-width:0.8;" x="279.26069" xlink:href="#m017e15dc7a" y="307.584"/>
      </g>
     </g>
    </g>
    <g id="ytick_48">
     <g id="line2d_48">
      <g>
       <use style="stroke:#000000;stroke-width:0.8;" x="279.26069" xlink:href="#m017e15dc7a" y="283.329254"/>
      </g>
     </g>
    </g>
   </g>
   <g id="patch_268">
    <path d="M 279.26069 307.584 
L 279.26069 261.702621 
" style="fill:none;stroke:#000000;stroke-linecap:square;stroke-linejoin:miter;stroke-width:0.8;"/>
   </g>
   <g id="patch_269">
    <path d="M 340.833103 307.584 
L 340.833103 261.702621 
" style="fill:none;stroke:#000000;stroke-linecap:square;stroke-linejoin:miter;stroke-width:0.8;"/>
   </g>
   <g id="patch_270">
    <path d="M 279.26069 307.584 
L 340.833103 307.584 
" style="fill:none;stroke:#000000;stroke-linecap:square;stroke-linejoin:miter;stroke-width:0.8;"/>
   </g>
   <g id="patch_271">
    <path d="M 279.26069 261.702621 
L 340.833103 261.702621 
" style="fill:none;stroke:#000000;stroke-linecap:square;stroke-linejoin:miter;stroke-width:0.8;"/>
   </g>
  </g>
  <g id="axes_25">
   <g id="patch_272">
    <path d="M 353.147586 307.584 
L 414.72 307.584 
L 414.72 261.702621 
L 353.147586 261.702621 
z
" style="fill:#ffffff;"/>
   </g>
   <g id="matplotlib.axis_49"/>
   <g id="matplotlib.axis_50">
    <g id="ytick_49">
     <g id="line2d_49">
      <g>
       <use style="stroke:#000000;stroke-width:0.8;" x="353.147586" xlink:href="#m017e15dc7a" y="307.584"/>
      </g>
     </g>
    </g>
    <g id="ytick_50">
     <g id="line2d_50">
      <g>
       <use style="stroke:#000000;stroke-width:0.8;" x="353.147586" xlink:href="#m017e15dc7a" y="283.329254"/>
      </g>
     </g>
    </g>
   </g>
   <g id="patch_273">
    <path d="M 353.147586 307.584 
L 353.147586 261.702621 
" style="fill:none;stroke:#000000;stroke-linecap:square;stroke-linejoin:miter;stroke-width:0.8;"/>
   </g>
   <g id="patch_274">
    <path d="M 414.72 307.584 
L 414.72 261.702621 
" style="fill:none;stroke:#000000;stroke-linecap:square;stroke-linejoin:miter;stroke-width:0.8;"/>
   </g>
   <g id="patch_275">
    <path d="M 353.147586 307.584 
L 414.72 307.584 
" style="fill:none;stroke:#000000;stroke-linecap:square;stroke-linejoin:miter;stroke-width:0.8;"/>
   </g>
   <g id="patch_276">
    <path d="M 353.147586 261.702621 
L 414.72 261.702621 
" style="fill:none;stroke:#000000;stroke-linecap:square;stroke-linejoin:miter;stroke-width:0.8;"/>
   </g>
  </g>
  <g id="axes_26">
   <g id="matplotlib.axis_51">
    <g id="xtick_1">
     <g id="text_11">
      <!-- 0.0 -->
      <g style="opacity:0;" transform="translate(49.648438 322.182437)scale(0.1 -0.1)">
       <use xlink:href="#DejaVuSans-30"/>
       <use x="63.623047" xlink:href="#DejaVuSans-2e"/>
       <use x="95.410156" xlink:href="#DejaVuSans-30"/>
      </g>
     </g>
    </g>
    <g id="xtick_2">
     <g id="text_12">
      <!-- 0.2 -->
      <g style="opacity:0;" transform="translate(121.072438 322.182437)scale(0.1 -0.1)">
       <defs>
        <path d="M 1228 531 
L 3431 531 
L 3431 0 
L 469 0 
L 469 531 
Q 828 903 1448 1529 
Q 2069 2156 2228 2338 
Q 2531 2678 2651 2914 
Q 2772 3150 2772 3378 
Q 2772 3750 2511 3984 
Q 2250 4219 1831 4219 
Q 1534 4219 1204 4116 
Q 875 4013 500 3803 
L 500 4441 
Q 881 4594 1212 4672 
Q 1544 4750 1819 4750 
Q 2544 4750 2975 4387 
Q 3406 4025 3406 3419 
Q 3406 3131 3298 2873 
Q 3191 2616 2906 2266 
Q 2828 2175 2409 1742 
Q 1991 1309 1228 531 
z
" id="DejaVuSans-32" transform="scale(0.015625)"/>
       </defs>
       <use xlink:href="#DejaVuSans-30"/>
       <use x="63.623047" xlink:href="#DejaVuSans-2e"/>
       <use x="95.410156" xlink:href="#DejaVuSans-32"/>
      </g>
     </g>
    </g>
    <g id="xtick_3">
     <g id="text_13">
      <!-- 0.4 -->
      <g style="opacity:0;" transform="translate(192.496438 322.182437)scale(0.1 -0.1)">
       <defs>
        <path d="M 2419 4116 
L 825 1625 
L 2419 1625 
L 2419 4116 
z
M 2253 4666 
L 3047 4666 
L 3047 1625 
L 3713 1625 
L 3713 1100 
L 3047 1100 
L 3047 0 
L 2419 0 
L 2419 1100 
L 313 1100 
L 313 1709 
L 2253 4666 
z
" id="DejaVuSans-34" transform="scale(0.015625)"/>
       </defs>
       <use xlink:href="#DejaVuSans-30"/>
       <use x="63.623047" xlink:href="#DejaVuSans-2e"/>
       <use x="95.410156" xlink:href="#DejaVuSans-34"/>
      </g>
     </g>
    </g>
    <g id="xtick_4">
     <g id="text_14">
      <!-- 0.6 -->
      <g style="opacity:0;" transform="translate(263.920438 322.182437)scale(0.1 -0.1)">
       <defs>
        <path d="M 2113 2584 
Q 1688 2584 1439 2293 
Q 1191 2003 1191 1497 
Q 1191 994 1439 701 
Q 1688 409 2113 409 
Q 2538 409 2786 701 
Q 3034 994 3034 1497 
Q 3034 2003 2786 2293 
Q 2538 2584 2113 2584 
z
M 3366 4563 
L 3366 3988 
Q 3128 4100 2886 4159 
Q 2644 4219 2406 4219 
Q 1781 4219 1451 3797 
Q 1122 3375 1075 2522 
Q 1259 2794 1537 2939 
Q 1816 3084 2150 3084 
Q 2853 3084 3261 2657 
Q 3669 2231 3669 1497 
Q 3669 778 3244 343 
Q 2819 -91 2113 -91 
Q 1303 -91 875 529 
Q 447 1150 447 2328 
Q 447 3434 972 4092 
Q 1497 4750 2381 4750 
Q 2619 4750 2861 4703 
Q 3103 4656 3366 4563 
z
" id="DejaVuSans-36" transform="scale(0.015625)"/>
       </defs>
       <use xlink:href="#DejaVuSans-30"/>
       <use x="63.623047" xlink:href="#DejaVuSans-2e"/>
       <use x="95.410156" xlink:href="#DejaVuSans-36"/>
      </g>
     </g>
    </g>
    <g id="xtick_5">
     <g id="text_15">
      <!-- 0.8 -->
      <g style="opacity:0;" transform="translate(335.344438 322.182437)scale(0.1 -0.1)">
       <defs>
        <path d="M 2034 2216 
Q 1584 2216 1326 1975 
Q 1069 1734 1069 1313 
Q 1069 891 1326 650 
Q 1584 409 2034 409 
Q 2484 409 2743 651 
Q 3003 894 3003 1313 
Q 3003 1734 2745 1975 
Q 2488 2216 2034 2216 
z
M 1403 2484 
Q 997 2584 770 2862 
Q 544 3141 544 3541 
Q 544 4100 942 4425 
Q 1341 4750 2034 4750 
Q 2731 4750 3128 4425 
Q 3525 4100 3525 3541 
Q 3525 3141 3298 2862 
Q 3072 2584 2669 2484 
Q 3125 2378 3379 2068 
Q 3634 1759 3634 1313 
Q 3634 634 3220 271 
Q 2806 -91 2034 -91 
Q 1263 -91 848 271 
Q 434 634 434 1313 
Q 434 1759 690 2068 
Q 947 2378 1403 2484 
z
M 1172 3481 
Q 1172 3119 1398 2916 
Q 1625 2713 2034 2713 
Q 2441 2713 2670 2916 
Q 2900 3119 2900 3481 
Q 2900 3844 2670 4047 
Q 2441 4250 2034 4250 
Q 1625 4250 1398 4047 
Q 1172 3844 1172 3481 
z
" id="DejaVuSans-38" transform="scale(0.015625)"/>
       </defs>
       <use xlink:href="#DejaVuSans-30"/>
       <use x="63.623047" xlink:href="#DejaVuSans-2e"/>
       <use x="95.410156" xlink:href="#DejaVuSans-38"/>
      </g>
     </g>
    </g>
    <g id="xtick_6">
     <g id="text_16">
      <!-- 1.0 -->
      <g style="opacity:0;" transform="translate(406.768438 322.182437)scale(0.1 -0.1)">
       <defs>
        <path d="M 794 531 
L 1825 531 
L 1825 4091 
L 703 3866 
L 703 4441 
L 1819 4666 
L 2450 4666 
L 2450 531 
L 3481 531 
L 3481 0 
L 794 0 
L 794 531 
z
" id="DejaVuSans-31" transform="scale(0.015625)"/>
       </defs>
       <use xlink:href="#DejaVuSans-31"/>
       <use x="63.623047" xlink:href="#DejaVuSans-2e"/>
       <use x="95.410156" xlink:href="#DejaVuSans-30"/>
      </g>
     </g>
    </g>
   </g>
   <g id="matplotlib.axis_52">
    <g id="ytick_51">
     <g id="text_17">
      <!-- 0.0 -->
      <g style="opacity:0;" transform="translate(34.696875 311.383219)scale(0.1 -0.1)">
       <use xlink:href="#DejaVuSans-30"/>
       <use x="63.623047" xlink:href="#DejaVuSans-2e"/>
       <use x="95.410156" xlink:href="#DejaVuSans-30"/>
      </g>
     </g>
    </g>
    <g id="ytick_52">
     <g id="text_18">
      <!-- 0.2 -->
      <g style="opacity:0;" transform="translate(34.696875 258.160819)scale(0.1 -0.1)">
       <use xlink:href="#DejaVuSans-30"/>
       <use x="63.623047" xlink:href="#DejaVuSans-2e"/>
       <use x="95.410156" xlink:href="#DejaVuSans-32"/>
      </g>
     </g>
    </g>
    <g id="ytick_53">
     <g id="text_19">
      <!-- 0.4 -->
      <g style="opacity:0;" transform="translate(34.696875 204.938419)scale(0.1 -0.1)">
       <use xlink:href="#DejaVuSans-30"/>
       <use x="63.623047" xlink:href="#DejaVuSans-2e"/>
       <use x="95.410156" xlink:href="#DejaVuSans-34"/>
      </g>
     </g>
    </g>
    <g id="ytick_54">
     <g id="text_20">
      <!-- 0.6 -->
      <g style="opacity:0;" transform="translate(34.696875 151.716019)scale(0.1 -0.1)">
       <use xlink:href="#DejaVuSans-30"/>
       <use x="63.623047" xlink:href="#DejaVuSans-2e"/>
       <use x="95.410156" xlink:href="#DejaVuSans-36"/>
      </g>
     </g>
    </g>
    <g id="ytick_55">
     <g id="text_21">
      <!-- 0.8 -->
      <g style="opacity:0;" transform="translate(34.696875 98.493619)scale(0.1 -0.1)">
       <use xlink:href="#DejaVuSans-30"/>
       <use x="63.623047" xlink:href="#DejaVuSans-2e"/>
       <use x="95.410156" xlink:href="#DejaVuSans-38"/>
      </g>
     </g>
    </g>
    <g id="ytick_56">
     <g id="text_22">
      <!-- 1.0 -->
      <g style="opacity:0;" transform="translate(34.696875 45.271219)scale(0.1 -0.1)">
       <use xlink:href="#DejaVuSans-31"/>
       <use x="63.623047" xlink:href="#DejaVuSans-2e"/>
       <use x="95.410156" xlink:href="#DejaVuSans-30"/>
      </g>
     </g>
    </g>
    <g id="text_23">
     <!-- Pearsons correlation -->
     <g transform="translate(28.617187 225.410812)rotate(-90)scale(0.1 -0.1)">
      <defs>
       <path d="M 1259 4147 
L 1259 2394 
L 2053 2394 
Q 2494 2394 2734 2622 
Q 2975 2850 2975 3272 
Q 2975 3691 2734 3919 
Q 2494 4147 2053 4147 
L 1259 4147 
z
M 628 4666 
L 2053 4666 
Q 2838 4666 3239 4311 
Q 3641 3956 3641 3272 
Q 3641 2581 3239 2228 
Q 2838 1875 2053 1875 
L 1259 1875 
L 1259 0 
L 628 0 
L 628 4666 
z
" id="DejaVuSans-50" transform="scale(0.015625)"/>
       <path d="M 3597 1894 
L 3597 1613 
L 953 1613 
Q 991 1019 1311 708 
Q 1631 397 2203 397 
Q 2534 397 2845 478 
Q 3156 559 3463 722 
L 3463 178 
Q 3153 47 2828 -22 
Q 2503 -91 2169 -91 
Q 1331 -91 842 396 
Q 353 884 353 1716 
Q 353 2575 817 3079 
Q 1281 3584 2069 3584 
Q 2775 3584 3186 3129 
Q 3597 2675 3597 1894 
z
M 3022 2063 
Q 3016 2534 2758 2815 
Q 2500 3097 2075 3097 
Q 1594 3097 1305 2825 
Q 1016 2553 972 2059 
L 3022 2063 
z
" id="DejaVuSans-65" transform="scale(0.015625)"/>
       <path d="M 2194 1759 
Q 1497 1759 1228 1600 
Q 959 1441 959 1056 
Q 959 750 1161 570 
Q 1363 391 1709 391 
Q 2188 391 2477 730 
Q 2766 1069 2766 1631 
L 2766 1759 
L 2194 1759 
z
M 3341 1997 
L 3341 0 
L 2766 0 
L 2766 531 
Q 2569 213 2275 61 
Q 1981 -91 1556 -91 
Q 1019 -91 701 211 
Q 384 513 384 1019 
Q 384 1609 779 1909 
Q 1175 2209 1959 2209 
L 2766 2209 
L 2766 2266 
Q 2766 2663 2505 2880 
Q 2244 3097 1772 3097 
Q 1472 3097 1187 3025 
Q 903 2953 641 2809 
L 641 3341 
Q 956 3463 1253 3523 
Q 1550 3584 1831 3584 
Q 2591 3584 2966 3190 
Q 3341 2797 3341 1997 
z
" id="DejaVuSans-61" transform="scale(0.015625)"/>
       <path d="M 2631 2963 
Q 2534 3019 2420 3045 
Q 2306 3072 2169 3072 
Q 1681 3072 1420 2755 
Q 1159 2438 1159 1844 
L 1159 0 
L 581 0 
L 581 3500 
L 1159 3500 
L 1159 2956 
Q 1341 3275 1631 3429 
Q 1922 3584 2338 3584 
Q 2397 3584 2469 3576 
Q 2541 3569 2628 3553 
L 2631 2963 
z
" id="DejaVuSans-72" transform="scale(0.015625)"/>
       <path d="M 2834 3397 
L 2834 2853 
Q 2591 2978 2328 3040 
Q 2066 3103 1784 3103 
Q 1356 3103 1142 2972 
Q 928 2841 928 2578 
Q 928 2378 1081 2264 
Q 1234 2150 1697 2047 
L 1894 2003 
Q 2506 1872 2764 1633 
Q 3022 1394 3022 966 
Q 3022 478 2636 193 
Q 2250 -91 1575 -91 
Q 1294 -91 989 -36 
Q 684 19 347 128 
L 347 722 
Q 666 556 975 473 
Q 1284 391 1588 391 
Q 1994 391 2212 530 
Q 2431 669 2431 922 
Q 2431 1156 2273 1281 
Q 2116 1406 1581 1522 
L 1381 1569 
Q 847 1681 609 1914 
Q 372 2147 372 2553 
Q 372 3047 722 3315 
Q 1072 3584 1716 3584 
Q 2034 3584 2315 3537 
Q 2597 3491 2834 3397 
z
" id="DejaVuSans-73" transform="scale(0.015625)"/>
       <path d="M 1959 3097 
Q 1497 3097 1228 2736 
Q 959 2375 959 1747 
Q 959 1119 1226 758 
Q 1494 397 1959 397 
Q 2419 397 2687 759 
Q 2956 1122 2956 1747 
Q 2956 2369 2687 2733 
Q 2419 3097 1959 3097 
z
M 1959 3584 
Q 2709 3584 3137 3096 
Q 3566 2609 3566 1747 
Q 3566 888 3137 398 
Q 2709 -91 1959 -91 
Q 1206 -91 779 398 
Q 353 888 353 1747 
Q 353 2609 779 3096 
Q 1206 3584 1959 3584 
z
" id="DejaVuSans-6f" transform="scale(0.015625)"/>
       <path d="M 3513 2113 
L 3513 0 
L 2938 0 
L 2938 2094 
Q 2938 2591 2744 2837 
Q 2550 3084 2163 3084 
Q 1697 3084 1428 2787 
Q 1159 2491 1159 1978 
L 1159 0 
L 581 0 
L 581 3500 
L 1159 3500 
L 1159 2956 
Q 1366 3272 1645 3428 
Q 1925 3584 2291 3584 
Q 2894 3584 3203 3211 
Q 3513 2838 3513 2113 
z
" id="DejaVuSans-6e" transform="scale(0.015625)"/>
       <path id="DejaVuSans-20" transform="scale(0.015625)"/>
       <path d="M 3122 3366 
L 3122 2828 
Q 2878 2963 2633 3030 
Q 2388 3097 2138 3097 
Q 1578 3097 1268 2742 
Q 959 2388 959 1747 
Q 959 1106 1268 751 
Q 1578 397 2138 397 
Q 2388 397 2633 464 
Q 2878 531 3122 666 
L 3122 134 
Q 2881 22 2623 -34 
Q 2366 -91 2075 -91 
Q 1284 -91 818 406 
Q 353 903 353 1747 
Q 353 2603 823 3093 
Q 1294 3584 2113 3584 
Q 2378 3584 2631 3529 
Q 2884 3475 3122 3366 
z
" id="DejaVuSans-63" transform="scale(0.015625)"/>
       <path d="M 603 4863 
L 1178 4863 
L 1178 0 
L 603 0 
L 603 4863 
z
" id="DejaVuSans-6c" transform="scale(0.015625)"/>
       <path d="M 1172 4494 
L 1172 3500 
L 2356 3500 
L 2356 3053 
L 1172 3053 
L 1172 1153 
Q 1172 725 1289 603 
Q 1406 481 1766 481 
L 2356 481 
L 2356 0 
L 1766 0 
Q 1100 0 847 248 
Q 594 497 594 1153 
L 594 3053 
L 172 3053 
L 172 3500 
L 594 3500 
L 594 4494 
L 1172 4494 
z
" id="DejaVuSans-74" transform="scale(0.015625)"/>
       <path d="M 603 3500 
L 1178 3500 
L 1178 0 
L 603 0 
L 603 3500 
z
M 603 4863 
L 1178 4863 
L 1178 4134 
L 603 4134 
L 603 4863 
z
" id="DejaVuSans-69" transform="scale(0.015625)"/>
      </defs>
      <use xlink:href="#DejaVuSans-50"/>
      <use x="56.677734" xlink:href="#DejaVuSans-65"/>
      <use x="118.201172" xlink:href="#DejaVuSans-61"/>
      <use x="179.480469" xlink:href="#DejaVuSans-72"/>
      <use x="220.59375" xlink:href="#DejaVuSans-73"/>
      <use x="272.693359" xlink:href="#DejaVuSans-6f"/>
      <use x="333.875" xlink:href="#DejaVuSans-6e"/>
      <use x="397.253906" xlink:href="#DejaVuSans-73"/>
      <use x="449.353516" xlink:href="#DejaVuSans-20"/>
      <use x="481.140625" xlink:href="#DejaVuSans-63"/>
      <use x="536.121094" xlink:href="#DejaVuSans-6f"/>
      <use x="597.302734" xlink:href="#DejaVuSans-72"/>
      <use x="636.666016" xlink:href="#DejaVuSans-72"/>
      <use x="675.529297" xlink:href="#DejaVuSans-65"/>
      <use x="737.052734" xlink:href="#DejaVuSans-6c"/>
      <use x="764.835938" xlink:href="#DejaVuSans-61"/>
      <use x="826.115234" xlink:href="#DejaVuSans-74"/>
      <use x="865.324219" xlink:href="#DejaVuSans-69"/>
      <use x="893.107422" xlink:href="#DejaVuSans-6f"/>
      <use x="954.289062" xlink:href="#DejaVuSans-6e"/>
     </g>
    </g>
   </g>
  </g>
  <g id="legend_1">
   <g id="patch_277">
    <path d="M 592.645 103.2725 
L 640.12 103.2725 
Q 642.12 103.2725 642.12 101.2725 
L 642.12 43.56 
Q 642.12 41.56 640.12 41.56 
L 592.645 41.56 
Q 590.645 41.56 590.645 43.56 
L 590.645 101.2725 
Q 590.645 103.2725 592.645 103.2725 
z
" style="fill:#4c4c4c;opacity:0.5;stroke:#4c4c4c;stroke-linejoin:miter;"/>
   </g>
   <g id="patch_278">
    <path d="M 590.645 101.2725 
L 638.12 101.2725 
Q 640.12 101.2725 640.12 99.2725 
L 640.12 41.56 
Q 640.12 39.56 638.12 39.56 
L 590.645 39.56 
Q 588.645 39.56 588.645 41.56 
L 588.645 99.2725 
Q 588.645 101.2725 590.645 101.2725 
z
" style="fill:#ffffff;stroke:#cccccc;stroke-linejoin:miter;"/>
   </g>
   <g id="patch_279">
    <path d="M 592.645 51.158437 
L 612.645 51.158437 
L 612.645 44.158437 
L 592.645 44.158437 
z
" style="stroke:#000000;stroke-linejoin:miter;"/>
   </g>
   <g id="text_24">
    <!-- big -->
    <g transform="translate(620.645 51.158437)scale(0.1 -0.1)">
     <defs>
      <path d="M 3116 1747 
Q 3116 2381 2855 2742 
Q 2594 3103 2138 3103 
Q 1681 3103 1420 2742 
Q 1159 2381 1159 1747 
Q 1159 1113 1420 752 
Q 1681 391 2138 391 
Q 2594 391 2855 752 
Q 3116 1113 3116 1747 
z
M 1159 2969 
Q 1341 3281 1617 3432 
Q 1894 3584 2278 3584 
Q 2916 3584 3314 3078 
Q 3713 2572 3713 1747 
Q 3713 922 3314 415 
Q 2916 -91 2278 -91 
Q 1894 -91 1617 61 
Q 1341 213 1159 525 
L 1159 0 
L 581 0 
L 581 4863 
L 1159 4863 
L 1159 2969 
z
" id="DejaVuSans-62" transform="scale(0.015625)"/>
      <path d="M 2906 1791 
Q 2906 2416 2648 2759 
Q 2391 3103 1925 3103 
Q 1463 3103 1205 2759 
Q 947 2416 947 1791 
Q 947 1169 1205 825 
Q 1463 481 1925 481 
Q 2391 481 2648 825 
Q 2906 1169 2906 1791 
z
M 3481 434 
Q 3481 -459 3084 -895 
Q 2688 -1331 1869 -1331 
Q 1566 -1331 1297 -1286 
Q 1028 -1241 775 -1147 
L 775 -588 
Q 1028 -725 1275 -790 
Q 1522 -856 1778 -856 
Q 2344 -856 2625 -561 
Q 2906 -266 2906 331 
L 2906 616 
Q 2728 306 2450 153 
Q 2172 0 1784 0 
Q 1141 0 747 490 
Q 353 981 353 1791 
Q 353 2603 747 3093 
Q 1141 3584 1784 3584 
Q 2172 3584 2450 3431 
Q 2728 3278 2906 2969 
L 2906 3500 
L 3481 3500 
L 3481 434 
z
" id="DejaVuSans-67" transform="scale(0.015625)"/>
     </defs>
     <use xlink:href="#DejaVuSans-62"/>
     <use x="63.476562" xlink:href="#DejaVuSans-69"/>
     <use x="91.259766" xlink:href="#DejaVuSans-67"/>
    </g>
   </g>
   <g id="patch_280">
    <path d="M 592.645 65.836563 
L 612.645 65.836563 
L 612.645 58.836563 
L 592.645 58.836563 
z
" style="fill:#1f77b4;stroke:#1f77b4;stroke-linejoin:miter;"/>
   </g>
   <g id="text_25">
    <!-- 1 -->
    <g transform="translate(620.645 65.836563)scale(0.1 -0.1)">
     <use xlink:href="#DejaVuSans-31"/>
    </g>
   </g>
   <g id="patch_281">
    <path d="M 592.645 80.514687 
L 612.645 80.514687 
L 612.645 73.514687 
L 592.645 73.514687 
z
" style="fill:#aec7e8;stroke:#aec7e8;stroke-linejoin:miter;"/>
   </g>
   <g id="text_26">
    <!-- 2 -->
    <g transform="translate(620.645 80.514687)scale(0.1 -0.1)">
     <use xlink:href="#DejaVuSans-32"/>
    </g>
   </g>
   <g id="patch_282">
    <path d="M 592.645 95.192813 
L 612.645 95.192813 
L 612.645 88.192813 
L 592.645 88.192813 
z
" style="fill:#ff7f0e;stroke:#ff7f0e;stroke-linejoin:miter;"/>
   </g>
   <g id="text_27">
    <!-- 3 -->
    <g transform="translate(620.645 95.192813)scale(0.1 -0.1)">
     <defs>
      <path d="M 2597 2516 
Q 3050 2419 3304 2112 
Q 3559 1806 3559 1356 
Q 3559 666 3084 287 
Q 2609 -91 1734 -91 
Q 1441 -91 1130 -33 
Q 819 25 488 141 
L 488 750 
Q 750 597 1062 519 
Q 1375 441 1716 441 
Q 2309 441 2620 675 
Q 2931 909 2931 1356 
Q 2931 1769 2642 2001 
Q 2353 2234 1838 2234 
L 1294 2234 
L 1294 2753 
L 1863 2753 
Q 2328 2753 2575 2939 
Q 2822 3125 2822 3475 
Q 2822 3834 2567 4026 
Q 2313 4219 1838 4219 
Q 1578 4219 1281 4162 
Q 984 4106 628 3988 
L 628 4550 
Q 988 4650 1302 4700 
Q 1616 4750 1894 4750 
Q 2613 4750 3031 4423 
Q 3450 4097 3450 3541 
Q 3450 3153 3228 2886 
Q 3006 2619 2597 2516 
z
" id="DejaVuSans-33" transform="scale(0.015625)"/>
     </defs>
     <use xlink:href="#DejaVuSans-33"/>
    </g>
   </g>
  </g>
 </g>
 <defs>
  <clipPath id="p1b491d61a8">
   <rect height="45.881379" width="61.572414" x="57.6" y="41.472"/>
  </clipPath>
  <clipPath id="pc5bc16b8bd">
   <rect height="45.881379" width="61.572414" x="131.486897" y="41.472"/>
  </clipPath>
  <clipPath id="p3f3b3be06d">
   <rect height="45.881379" width="61.572414" x="205.373793" y="41.472"/>
  </clipPath>
  <clipPath id="p3f2c23e042">
   <rect height="45.881379" width="61.572414" x="279.26069" y="41.472"/>
  </clipPath>
  <clipPath id="pd5c9d6e1ec">
   <rect height="45.881379" width="61.572414" x="353.147586" y="41.472"/>
  </clipPath>
  <clipPath id="p4c6c72be8b">
   <rect height="45.881379" width="61.572414" x="57.6" y="96.529655"/>
  </clipPath>
  <clipPath id="p123f961681">
   <rect height="45.881379" width="61.572414" x="131.486897" y="96.529655"/>
  </clipPath>
  <clipPath id="p4244232eaa">
   <rect height="45.881379" width="61.572414" x="205.373793" y="96.529655"/>
  </clipPath>
  <clipPath id="p0c2bd22127">
   <rect height="45.881379" width="61.572414" x="279.26069" y="96.529655"/>
  </clipPath>
  <clipPath id="p838b4bb09f">
   <rect height="45.881379" width="61.572414" x="353.147586" y="96.529655"/>
  </clipPath>
  <clipPath id="p2b25709aa8">
   <rect height="45.881379" width="61.572414" x="57.6" y="151.58731"/>
  </clipPath>
  <clipPath id="pc717780dc8">
   <rect height="45.881379" width="61.572414" x="131.486897" y="151.58731"/>
  </clipPath>
  <clipPath id="pb9cb046eba">
   <rect height="45.881379" width="61.572414" x="205.373793" y="151.58731"/>
  </clipPath>
  <clipPath id="p0b76bc4836">
   <rect height="45.881379" width="61.572414" x="279.26069" y="151.58731"/>
  </clipPath>
  <clipPath id="p2c68e4ed82">
   <rect height="45.881379" width="61.572414" x="353.147586" y="151.58731"/>
  </clipPath>
  <clipPath id="pa3358399b2">
   <rect height="45.881379" width="61.572414" x="57.6" y="206.644966"/>
  </clipPath>
  <clipPath id="p43e8a3eb0f">
   <rect height="45.881379" width="61.572414" x="131.486897" y="206.644966"/>
  </clipPath>
  <clipPath id="p6e524e2392">
   <rect height="45.881379" width="61.572414" x="205.373793" y="206.644966"/>
  </clipPath>
  <clipPath id="p8a071a204e">
   <rect height="45.881379" width="61.572414" x="279.26069" y="206.644966"/>
  </clipPath>
  <clipPath id="p57d630c571">
   <rect height="45.881379" width="61.572414" x="353.147586" y="206.644966"/>
  </clipPath>
  <clipPath id="p1e0807e7b9">
   <rect height="45.881379" width="61.572414" x="57.6" y="261.702621"/>
  </clipPath>
  <clipPath id="p53d5bb15c0">
   <rect height="45.881379" width="61.572414" x="131.486897" y="261.702621"/>
  </clipPath>
  <clipPath id="p3f0d26b870">
   <rect height="45.881379" width="61.572414" x="205.373793" y="261.702621"/>
  </clipPath>
 </defs>
</svg>
