<?xml version="1.0" encoding="utf-8" standalone="no"?>
<!DOCTYPE svg PUBLIC "-//W3C//DTD SVG 1.1//EN"
  "http://www.w3.org/Graphics/SVG/1.1/DTD/svg11.dtd">
<svg height="345.6pt" version="1.1" viewBox="0 0 460.8 345.6" width="460.8pt" xmlns="http://www.w3.org/2000/svg" xmlns:xlink="http://www.w3.org/1999/xlink">
 <metadata>
  <rdf:RDF xmlns:cc="http://creativecommons.org/ns#" xmlns:dc="http://purl.org/dc/elements/1.1/" xmlns:rdf="http://www.w3.org/1999/02/22-rdf-syntax-ns#">
   <cc:Work>
    <dc:type rdf:resource="http://purl.org/dc/dcmitype/StillImage"/>
    <dc:date>2022-01-14T10:14:48.545898</dc:date>
    <dc:format>image/svg+xml</dc:format>
    <dc:creator>
     <cc:Agent>
      <dc:title>Matplotlib v3.4.3, https://matplotlib.org/</dc:title>
     </cc:Agent>
    </dc:creator>
   </cc:Work>
  </rdf:RDF>
 </metadata>
 <defs>
  <style type="text/css">*{stroke-linecap:butt;stroke-linejoin:round;}</style>
 </defs>
 <g id="figure_1">
  <g id="patch_1">
   <path d="M 0 345.6 
L 460.8 345.6 
L 460.8 0 
L 0 0 
z
" style="fill:#ffffff;"/>
  </g>
  <g id="axes_1">
   <g id="patch_2">
    <path d="M 47.81 303.64 
L 345.5076 303.64 
L 345.5076 25.44 
L 47.81 25.44 
z
" style="fill:#ffffff;"/>
   </g>
   <g id="PolyCollection_1">
    <defs>
     <path d="M 97.426267 -54.605455 
L 85.183343 -54.605455 
L 84.674686 -57.160092 
L 84.222473 -59.714729 
L 83.831669 -62.269366 
L 83.505937 -64.824004 
L 83.247551 -67.378641 
L 83.057359 -69.933278 
L 82.934787 -72.487916 
L 82.877898 -75.042553 
L 82.883482 -77.59719 
L 82.947189 -80.151827 
L 83.063689 -82.706465 
L 83.226848 -85.261102 
L 83.429924 -87.815739 
L 83.665764 -90.370376 
L 83.926999 -92.925014 
L 84.206229 -95.479651 
L 84.496193 -98.034288 
L 84.789921 -100.588926 
L 85.080856 -103.143563 
L 85.362964 -105.6982 
L 85.630802 -108.252837 
L 85.879576 -110.807475 
L 86.105165 -113.362112 
L 86.304135 -115.916749 
L 86.473728 -118.471387 
L 86.611839 -121.026024 
L 86.716991 -123.580661 
L 86.788295 -126.135298 
L 86.82541 -128.689936 
L 86.828507 -131.244573 
L 86.798226 -133.79921 
L 86.735644 -136.353848 
L 86.642234 -138.908485 
L 86.519835 -141.463122 
L 86.370615 -144.017759 
L 86.19704 -146.572397 
L 86.00183 -149.127034 
L 85.787918 -151.681671 
L 85.558405 -154.236309 
L 85.3165 -156.790946 
L 85.065467 -159.345583 
L 84.808556 -161.90022 
L 84.54894 -164.454858 
L 84.289643 -167.009495 
L 84.033475 -169.564132 
L 83.782963 -172.11877 
L 83.540297 -174.673407 
L 83.307275 -177.228044 
L 83.08526 -179.782681 
L 82.875148 -182.337319 
L 82.677345 -184.891956 
L 82.491756 -187.446593 
L 82.317784 -190.00123 
L 82.154334 -192.555868 
L 81.999832 -195.110505 
L 81.852246 -197.665142 
L 81.709106 -200.21978 
L 81.567542 -202.774417 
L 81.424305 -205.329054 
L 81.275804 -207.883691 
L 81.118135 -210.438329 
L 80.947109 -212.992966 
L 80.758284 -215.547603 
L 80.546998 -218.102241 
L 80.308399 -220.656878 
L 80.037486 -223.211515 
L 79.729153 -225.766152 
L 79.37825 -228.32079 
L 78.97965 -230.875427 
L 78.528346 -233.430064 
L 78.01956 -235.984702 
L 77.448884 -238.539339 
L 76.812451 -241.093976 
L 76.107127 -243.648613 
L 75.330741 -246.203251 
L 74.482329 -248.757888 
L 73.562396 -251.312525 
L 72.57319 -253.867163 
L 71.518963 -256.4218 
L 70.406208 -258.976437 
L 69.243858 -261.531074 
L 68.043421 -264.085712 
L 66.819039 -266.640349 
L 65.587439 -269.194986 
L 64.367785 -271.749624 
L 63.181392 -274.304261 
L 62.051327 -276.858898 
L 61.001873 -279.413535 
L 60.057888 -281.968173 
L 59.244072 -284.52281 
L 58.584158 -287.077447 
L 58.100081 -289.632084 
L 57.811149 -292.186722 
L 57.733253 -294.741359 
L 57.878185 -297.295996 
L 58.253063 -299.850634 
L 58.859933 -302.405271 
L 59.695551 -304.959908 
L 60.751375 -307.514545 
L 97.426267 -307.514545 
L 97.426267 -307.514545 
L 97.426267 -304.959908 
L 97.426267 -302.405271 
L 97.426267 -299.850634 
L 97.426267 -297.295996 
L 97.426267 -294.741359 
L 97.426267 -292.186722 
L 97.426267 -289.632084 
L 97.426267 -287.077447 
L 97.426267 -284.52281 
L 97.426267 -281.968173 
L 97.426267 -279.413535 
L 97.426267 -276.858898 
L 97.426267 -274.304261 
L 97.426267 -271.749624 
L 97.426267 -269.194986 
L 97.426267 -266.640349 
L 97.426267 -264.085712 
L 97.426267 -261.531074 
L 97.426267 -258.976437 
L 97.426267 -256.4218 
L 97.426267 -253.867163 
L 97.426267 -251.312525 
L 97.426267 -248.757888 
L 97.426267 -246.203251 
L 97.426267 -243.648613 
L 97.426267 -241.093976 
L 97.426267 -238.539339 
L 97.426267 -235.984702 
L 97.426267 -233.430064 
L 97.426267 -230.875427 
L 97.426267 -228.32079 
L 97.426267 -225.766152 
L 97.426267 -223.211515 
L 97.426267 -220.656878 
L 97.426267 -218.102241 
L 97.426267 -215.547603 
L 97.426267 -212.992966 
L 97.426267 -210.438329 
L 97.426267 -207.883691 
L 97.426267 -205.329054 
L 97.426267 -202.774417 
L 97.426267 -200.21978 
L 97.426267 -197.665142 
L 97.426267 -195.110505 
L 97.426267 -192.555868 
L 97.426267 -190.00123 
L 97.426267 -187.446593 
L 97.426267 -184.891956 
L 97.426267 -182.337319 
L 97.426267 -179.782681 
L 97.426267 -177.228044 
L 97.426267 -174.673407 
L 97.426267 -172.11877 
L 97.426267 -169.564132 
L 97.426267 -167.009495 
L 97.426267 -164.454858 
L 97.426267 -161.90022 
L 97.426267 -159.345583 
L 97.426267 -156.790946 
L 97.426267 -154.236309 
L 97.426267 -151.681671 
L 97.426267 -149.127034 
L 97.426267 -146.572397 
L 97.426267 -144.017759 
L 97.426267 -141.463122 
L 97.426267 -138.908485 
L 97.426267 -136.353848 
L 97.426267 -133.79921 
L 97.426267 -131.244573 
L 97.426267 -128.689936 
L 97.426267 -126.135298 
L 97.426267 -123.580661 
L 97.426267 -121.026024 
L 97.426267 -118.471387 
L 97.426267 -115.916749 
L 97.426267 -113.362112 
L 97.426267 -110.807475 
L 97.426267 -108.252837 
L 97.426267 -105.6982 
L 97.426267 -103.143563 
L 97.426267 -100.588926 
L 97.426267 -98.034288 
L 97.426267 -95.479651 
L 97.426267 -92.925014 
L 97.426267 -90.370376 
L 97.426267 -87.815739 
L 97.426267 -85.261102 
L 97.426267 -82.706465 
L 97.426267 -80.151827 
L 97.426267 -77.59719 
L 97.426267 -75.042553 
L 97.426267 -72.487916 
L 97.426267 -69.933278 
L 97.426267 -67.378641 
L 97.426267 -64.824004 
L 97.426267 -62.269366 
L 97.426267 -59.714729 
L 97.426267 -57.160092 
L 97.426267 -54.605455 
z
" id="m3bb585e5fb" style="stroke:#4c4c4c;stroke-width:1.5;"/>
    </defs>
    <g clip-path="url(#pd2c2c72143)">
     <use style="fill:#2020df;stroke:#4c4c4c;stroke-width:1.5;" x="0" xlink:href="#m3bb585e5fb" y="345.6"/>
    </g>
   </g>
   <g id="PolyCollection_2">
    <defs>
     <path d="M 111.783653 -54.605455 
L 97.426267 -54.605455 
L 97.426267 -57.160092 
L 97.426267 -59.714729 
L 97.426267 -62.269366 
L 97.426267 -64.824004 
L 97.426267 -67.378641 
L 97.426267 -69.933278 
L 97.426267 -72.487916 
L 97.426267 -75.042553 
L 97.426267 -77.59719 
L 97.426267 -80.151827 
L 97.426267 -82.706465 
L 97.426267 -85.261102 
L 97.426267 -87.815739 
L 97.426267 -90.370376 
L 97.426267 -92.925014 
L 97.426267 -95.479651 
L 97.426267 -98.034288 
L 97.426267 -100.588926 
L 97.426267 -103.143563 
L 97.426267 -105.6982 
L 97.426267 -108.252837 
L 97.426267 -110.807475 
L 97.426267 -113.362112 
L 97.426267 -115.916749 
L 97.426267 -118.471387 
L 97.426267 -121.026024 
L 97.426267 -123.580661 
L 97.426267 -126.135298 
L 97.426267 -128.689936 
L 97.426267 -131.244573 
L 97.426267 -133.79921 
L 97.426267 -136.353848 
L 97.426267 -138.908485 
L 97.426267 -141.463122 
L 97.426267 -144.017759 
L 97.426267 -146.572397 
L 97.426267 -149.127034 
L 97.426267 -151.681671 
L 97.426267 -154.236309 
L 97.426267 -156.790946 
L 97.426267 -159.345583 
L 97.426267 -161.90022 
L 97.426267 -164.454858 
L 97.426267 -167.009495 
L 97.426267 -169.564132 
L 97.426267 -172.11877 
L 97.426267 -174.673407 
L 97.426267 -177.228044 
L 97.426267 -179.782681 
L 97.426267 -182.337319 
L 97.426267 -184.891956 
L 97.426267 -187.446593 
L 97.426267 -190.00123 
L 97.426267 -192.555868 
L 97.426267 -195.110505 
L 97.426267 -197.665142 
L 97.426267 -200.21978 
L 97.426267 -202.774417 
L 97.426267 -205.329054 
L 97.426267 -207.883691 
L 97.426267 -210.438329 
L 97.426267 -212.992966 
L 97.426267 -215.547603 
L 97.426267 -218.102241 
L 97.426267 -220.656878 
L 97.426267 -223.211515 
L 97.426267 -225.766152 
L 97.426267 -228.32079 
L 97.426267 -230.875427 
L 97.426267 -233.430064 
L 97.426267 -235.984702 
L 97.426267 -238.539339 
L 97.426267 -241.093976 
L 97.426267 -243.648613 
L 97.426267 -246.203251 
L 97.426267 -248.757888 
L 97.426267 -251.312525 
L 97.426267 -253.867163 
L 97.426267 -256.4218 
L 97.426267 -258.976437 
L 97.426267 -261.531074 
L 97.426267 -264.085712 
L 97.426267 -266.640349 
L 97.426267 -269.194986 
L 97.426267 -271.749624 
L 97.426267 -274.304261 
L 97.426267 -276.858898 
L 97.426267 -279.413535 
L 97.426267 -281.968173 
L 97.426267 -284.52281 
L 97.426267 -287.077447 
L 97.426267 -289.632084 
L 97.426267 -292.186722 
L 97.426267 -294.741359 
L 97.426267 -297.295996 
L 97.426267 -299.850634 
L 97.426267 -302.405271 
L 97.426267 -304.959908 
L 97.426267 -307.514545 
L 126.200579 -307.514545 
L 126.200579 -307.514545 
L 127.155759 -304.959908 
L 127.9489 -302.405271 
L 128.57258 -299.850634 
L 129.023458 -297.295996 
L 129.302266 -294.741359 
L 129.413647 -292.186722 
L 129.365849 -289.632084 
L 129.170289 -287.077447 
L 128.841024 -284.52281 
L 128.394155 -281.968173 
L 127.8472 -279.413535 
L 127.21847 -276.858898 
L 126.526465 -274.304261 
L 125.789334 -271.749624 
L 125.024395 -269.194986 
L 124.247747 -266.640349 
L 123.473966 -264.085712 
L 122.715886 -261.531074 
L 121.984469 -258.976437 
L 121.288746 -256.4218 
L 120.635825 -253.867163 
L 120.030948 -251.312525 
L 119.477589 -248.757888 
L 118.977584 -246.203251 
L 118.53128 -243.648613 
L 118.137696 -241.093976 
L 117.794696 -238.539339 
L 117.499165 -235.984702 
L 117.247182 -233.430064 
L 117.034201 -230.875427 
L 116.855228 -228.32079 
L 116.704989 -225.766152 
L 116.578102 -223.211515 
L 116.469236 -220.656878 
L 116.373255 -218.102241 
L 116.285357 -215.547603 
L 116.201184 -212.992966 
L 116.116911 -210.438329 
L 116.029317 -207.883691 
L 115.935818 -205.329054 
L 115.834477 -202.774417 
L 115.723985 -200.21978 
L 115.603622 -197.665142 
L 115.473187 -195.110505 
L 115.332924 -192.555868 
L 115.183428 -190.00123 
L 115.025557 -187.446593 
L 114.86034 -184.891956 
L 114.688899 -182.337319 
L 114.512381 -179.782681 
L 114.331913 -177.228044 
L 114.148568 -174.673407 
L 113.963359 -172.11877 
L 113.777245 -169.564132 
L 113.591156 -167.009495 
L 113.406027 -164.454858 
L 113.222836 -161.90022 
L 113.042651 -159.345583 
L 112.866666 -156.790946 
L 112.696235 -154.236309 
L 112.532889 -151.681671 
L 112.378346 -149.127034 
L 112.234502 -146.572397 
L 112.103404 -144.017759 
L 111.987217 -141.463122 
L 111.888167 -138.908485 
L 111.808485 -136.353848 
L 111.750333 -133.79921 
L 111.715726 -131.244573 
L 111.706457 -128.689936 
L 111.724011 -126.135298 
L 111.76949 -123.580661 
L 111.843528 -121.026024 
L 111.946223 -118.471387 
L 112.077064 -115.916749 
L 112.234868 -113.362112 
L 112.417732 -110.807475 
L 112.622982 -108.252837 
L 112.847153 -105.6982 
L 113.085968 -103.143563 
L 113.334358 -100.588926 
L 113.586483 -98.034288 
L 113.835802 -95.479651 
L 114.075158 -92.925014 
L 114.296899 -90.370376 
L 114.493038 -87.815739 
L 114.655431 -85.261102 
L 114.77599 -82.706465 
L 114.846916 -80.151827 
L 114.860948 -77.59719 
L 114.811604 -75.042553 
L 114.693436 -72.487916 
L 114.502245 -69.933278 
L 114.235282 -67.378641 
L 113.891397 -64.824004 
L 113.471142 -62.269366 
L 112.976814 -59.714729 
L 112.412432 -57.160092 
L 111.783653 -54.605455 
z
" id="m28e7951f8d" style="stroke:#4c4c4c;stroke-width:1.5;"/>
    </defs>
    <g clip-path="url(#pd2c2c72143)">
     <use style="fill:#20dfdf;stroke:#4c4c4c;stroke-width:1.5;" x="0" xlink:href="#m28e7951f8d" y="345.6"/>
    </g>
   </g>
   <g id="PolyCollection_3">
    <defs>
     <path d="M 196.6588 -54.605455 
L 186.256069 -54.605455 
L 185.698804 -57.160092 
L 185.18624 -59.714729 
L 184.724231 -62.269366 
L 184.317449 -64.824004 
L 183.969296 -67.378641 
L 183.681882 -69.933278 
L 183.456036 -72.487916 
L 183.291371 -75.042553 
L 183.186379 -77.59719 
L 183.138546 -80.151827 
L 183.144494 -82.706465 
L 183.200116 -85.261102 
L 183.30072 -87.815739 
L 183.441168 -90.370376 
L 183.616001 -92.925014 
L 183.819556 -95.479651 
L 184.046079 -98.034288 
L 184.289822 -100.588926 
L 184.545132 -103.143563 
L 184.806546 -105.6982 
L 185.068864 -108.252837 
L 185.327231 -110.807475 
L 185.577203 -113.362112 
L 185.81481 -115.916749 
L 186.036605 -118.471387 
L 186.239706 -121.026024 
L 186.421814 -123.580661 
L 186.581214 -126.135298 
L 186.716768 -128.689936 
L 186.827872 -131.244573 
L 186.91441 -133.79921 
L 186.976683 -136.353848 
L 187.015335 -138.908485 
L 187.031265 -141.463122 
L 187.02554 -144.017759 
L 186.999315 -146.572397 
L 186.953756 -149.127034 
L 186.889979 -151.681671 
L 186.809 -154.236309 
L 186.711707 -156.790946 
L 186.598844 -159.345583 
L 186.471016 -161.90022 
L 186.328703 -164.454858 
L 186.17229 -167.009495 
L 186.002103 -169.564132 
L 185.818443 -172.11877 
L 185.621632 -174.673407 
L 185.412041 -177.228044 
L 185.190123 -179.782681 
L 184.95643 -182.337319 
L 184.711617 -184.891956 
L 184.456448 -187.446593 
L 184.191768 -190.00123 
L 183.918486 -192.555868 
L 183.637535 -195.110505 
L 183.349825 -197.665142 
L 183.056193 -200.21978 
L 182.757348 -202.774417 
L 182.453808 -205.329054 
L 182.145844 -207.883691 
L 181.833421 -210.438329 
L 181.516138 -212.992966 
L 181.19318 -215.547603 
L 180.863269 -218.102241 
L 180.524619 -220.656878 
L 180.174905 -223.211515 
L 179.811232 -225.766152 
L 179.430123 -228.32079 
L 179.027515 -230.875427 
L 178.598775 -233.430064 
L 178.138745 -235.984702 
L 177.641809 -238.539339 
L 177.102008 -241.093976 
L 176.513199 -243.648613 
L 175.86926 -246.203251 
L 175.164367 -248.757888 
L 174.39332 -251.312525 
L 173.551938 -253.867163 
L 172.637498 -256.4218 
L 171.64921 -258.976437 
L 170.58872 -261.531074 
L 169.460582 -264.085712 
L 168.272698 -266.640349 
L 167.036663 -269.194986 
L 165.767988 -271.749624 
L 164.486157 -274.304261 
L 163.214478 -276.858898 
L 161.979719 -279.413535 
L 160.811497 -281.968173 
L 159.741438 -284.52281 
L 158.802121 -287.077447 
L 158.025852 -289.632084 
L 157.443315 -292.186722 
L 157.082188 -294.741359 
L 156.965787 -297.295996 
L 157.111831 -299.850634 
L 157.531422 -302.405271 
L 158.228291 -304.959908 
L 159.198391 -307.514545 
L 196.6588 -307.514545 
L 196.6588 -307.514545 
L 196.6588 -304.959908 
L 196.6588 -302.405271 
L 196.6588 -299.850634 
L 196.6588 -297.295996 
L 196.6588 -294.741359 
L 196.6588 -292.186722 
L 196.6588 -289.632084 
L 196.6588 -287.077447 
L 196.6588 -284.52281 
L 196.6588 -281.968173 
L 196.6588 -279.413535 
L 196.6588 -276.858898 
L 196.6588 -274.304261 
L 196.6588 -271.749624 
L 196.6588 -269.194986 
L 196.6588 -266.640349 
L 196.6588 -264.085712 
L 196.6588 -261.531074 
L 196.6588 -258.976437 
L 196.6588 -256.4218 
L 196.6588 -253.867163 
L 196.6588 -251.312525 
L 196.6588 -248.757888 
L 196.6588 -246.203251 
L 196.6588 -243.648613 
L 196.6588 -241.093976 
L 196.6588 -238.539339 
L 196.6588 -235.984702 
L 196.6588 -233.430064 
L 196.6588 -230.875427 
L 196.6588 -228.32079 
L 196.6588 -225.766152 
L 196.6588 -223.211515 
L 196.6588 -220.656878 
L 196.6588 -218.102241 
L 196.6588 -215.547603 
L 196.6588 -212.992966 
L 196.6588 -210.438329 
L 196.6588 -207.883691 
L 196.6588 -205.329054 
L 196.6588 -202.774417 
L 196.6588 -200.21978 
L 196.6588 -197.665142 
L 196.6588 -195.110505 
L 196.6588 -192.555868 
L 196.6588 -190.00123 
L 196.6588 -187.446593 
L 196.6588 -184.891956 
L 196.6588 -182.337319 
L 196.6588 -179.782681 
L 196.6588 -177.228044 
L 196.6588 -174.673407 
L 196.6588 -172.11877 
L 196.6588 -169.564132 
L 196.6588 -167.009495 
L 196.6588 -164.454858 
L 196.6588 -161.90022 
L 196.6588 -159.345583 
L 196.6588 -156.790946 
L 196.6588 -154.236309 
L 196.6588 -151.681671 
L 196.6588 -149.127034 
L 196.6588 -146.572397 
L 196.6588 -144.017759 
L 196.6588 -141.463122 
L 196.6588 -138.908485 
L 196.6588 -136.353848 
L 196.6588 -133.79921 
L 196.6588 -131.244573 
L 196.6588 -128.689936 
L 196.6588 -126.135298 
L 196.6588 -123.580661 
L 196.6588 -121.026024 
L 196.6588 -118.471387 
L 196.6588 -115.916749 
L 196.6588 -113.362112 
L 196.6588 -110.807475 
L 196.6588 -108.252837 
L 196.6588 -105.6982 
L 196.6588 -103.143563 
L 196.6588 -100.588926 
L 196.6588 -98.034288 
L 196.6588 -95.479651 
L 196.6588 -92.925014 
L 196.6588 -90.370376 
L 196.6588 -87.815739 
L 196.6588 -85.261102 
L 196.6588 -82.706465 
L 196.6588 -80.151827 
L 196.6588 -77.59719 
L 196.6588 -75.042553 
L 196.6588 -72.487916 
L 196.6588 -69.933278 
L 196.6588 -67.378641 
L 196.6588 -64.824004 
L 196.6588 -62.269366 
L 196.6588 -59.714729 
L 196.6588 -57.160092 
L 196.6588 -54.605455 
z
" id="m5ea5c0bbf6" style="stroke:#4c4c4c;stroke-width:1.5;"/>
    </defs>
    <g clip-path="url(#pd2c2c72143)">
     <use style="fill:#2020df;stroke:#4c4c4c;stroke-width:1.5;" x="0" xlink:href="#m5ea5c0bbf6" y="345.6"/>
    </g>
   </g>
   <g id="PolyCollection_4">
    <defs>
     <path d="M 207.487028 -54.605455 
L 196.6588 -54.605455 
L 196.6588 -57.160092 
L 196.6588 -59.714729 
L 196.6588 -62.269366 
L 196.6588 -64.824004 
L 196.6588 -67.378641 
L 196.6588 -69.933278 
L 196.6588 -72.487916 
L 196.6588 -75.042553 
L 196.6588 -77.59719 
L 196.6588 -80.151827 
L 196.6588 -82.706465 
L 196.6588 -85.261102 
L 196.6588 -87.815739 
L 196.6588 -90.370376 
L 196.6588 -92.925014 
L 196.6588 -95.479651 
L 196.6588 -98.034288 
L 196.6588 -100.588926 
L 196.6588 -103.143563 
L 196.6588 -105.6982 
L 196.6588 -108.252837 
L 196.6588 -110.807475 
L 196.6588 -113.362112 
L 196.6588 -115.916749 
L 196.6588 -118.471387 
L 196.6588 -121.026024 
L 196.6588 -123.580661 
L 196.6588 -126.135298 
L 196.6588 -128.689936 
L 196.6588 -131.244573 
L 196.6588 -133.79921 
L 196.6588 -136.353848 
L 196.6588 -138.908485 
L 196.6588 -141.463122 
L 196.6588 -144.017759 
L 196.6588 -146.572397 
L 196.6588 -149.127034 
L 196.6588 -151.681671 
L 196.6588 -154.236309 
L 196.6588 -156.790946 
L 196.6588 -159.345583 
L 196.6588 -161.90022 
L 196.6588 -164.454858 
L 196.6588 -167.009495 
L 196.6588 -169.564132 
L 196.6588 -172.11877 
L 196.6588 -174.673407 
L 196.6588 -177.228044 
L 196.6588 -179.782681 
L 196.6588 -182.337319 
L 196.6588 -184.891956 
L 196.6588 -187.446593 
L 196.6588 -190.00123 
L 196.6588 -192.555868 
L 196.6588 -195.110505 
L 196.6588 -197.665142 
L 196.6588 -200.21978 
L 196.6588 -202.774417 
L 196.6588 -205.329054 
L 196.6588 -207.883691 
L 196.6588 -210.438329 
L 196.6588 -212.992966 
L 196.6588 -215.547603 
L 196.6588 -218.102241 
L 196.6588 -220.656878 
L 196.6588 -223.211515 
L 196.6588 -225.766152 
L 196.6588 -228.32079 
L 196.6588 -230.875427 
L 196.6588 -233.430064 
L 196.6588 -235.984702 
L 196.6588 -238.539339 
L 196.6588 -241.093976 
L 196.6588 -243.648613 
L 196.6588 -246.203251 
L 196.6588 -248.757888 
L 196.6588 -251.312525 
L 196.6588 -253.867163 
L 196.6588 -256.4218 
L 196.6588 -258.976437 
L 196.6588 -261.531074 
L 196.6588 -264.085712 
L 196.6588 -266.640349 
L 196.6588 -269.194986 
L 196.6588 -271.749624 
L 196.6588 -274.304261 
L 196.6588 -276.858898 
L 196.6588 -279.413535 
L 196.6588 -281.968173 
L 196.6588 -284.52281 
L 196.6588 -287.077447 
L 196.6588 -289.632084 
L 196.6588 -292.186722 
L 196.6588 -294.741359 
L 196.6588 -297.295996 
L 196.6588 -299.850634 
L 196.6588 -302.405271 
L 196.6588 -304.959908 
L 196.6588 -307.514545 
L 230.468554 -307.514545 
L 230.468554 -307.514545 
L 231.480455 -304.959908 
L 232.191764 -302.405271 
L 232.597114 -299.850634 
L 232.701412 -297.295996 
L 232.519177 -294.741359 
L 232.073378 -292.186722 
L 231.39386 -289.632084 
L 230.515509 -287.077447 
L 229.47629 -284.52281 
L 228.315313 -281.968173 
L 227.071039 -279.413535 
L 225.779742 -276.858898 
L 224.474284 -274.304261 
L 223.183243 -271.749624 
L 221.930398 -269.194986 
L 220.734556 -266.640349 
L 219.609652 -264.085712 
L 218.565099 -261.531074 
L 217.606298 -258.976437 
L 216.735251 -256.4218 
L 215.951222 -253.867163 
L 215.2514 -251.312525 
L 214.63151 -248.757888 
L 214.086358 -246.203251 
L 213.610285 -243.648613 
L 213.197526 -241.093976 
L 212.842472 -238.539339 
L 212.53984 -235.984702 
L 212.284764 -233.430064 
L 212.072821 -230.875427 
L 211.900004 -228.32079 
L 211.762659 -225.766152 
L 211.657406 -223.211515 
L 211.58105 -220.656878 
L 211.530495 -218.102241 
L 211.502675 -215.547603 
L 211.494507 -212.992966 
L 211.502869 -210.438329 
L 211.524605 -207.883691 
L 211.556552 -205.329054 
L 211.595598 -202.774417 
L 211.638749 -200.21978 
L 211.683213 -197.665142 
L 211.726488 -195.110505 
L 211.76644 -192.555868 
L 211.801377 -190.00123 
L 211.830103 -187.446593 
L 211.851951 -184.891956 
L 211.866786 -182.337319 
L 211.874986 -179.782681 
L 211.877388 -177.228044 
L 211.875213 -174.673407 
L 211.869969 -172.11877 
L 211.863334 -169.564132 
L 211.857036 -167.009495 
L 211.852721 -164.454858 
L 211.851837 -161.90022 
L 211.855531 -159.345583 
L 211.864563 -156.790946 
L 211.879257 -154.236309 
L 211.899477 -151.681671 
L 211.924645 -149.127034 
L 211.953789 -146.572397 
L 211.98563 -144.017759 
L 212.018685 -141.463122 
L 212.051395 -138.908485 
L 212.082259 -136.353848 
L 212.109965 -133.79921 
L 212.133501 -131.244573 
L 212.152249 -128.689936 
L 212.166036 -126.135298 
L 212.175155 -123.580661 
L 212.180324 -121.026024 
L 212.182624 -118.471387 
L 212.183371 -115.916749 
L 212.183971 -113.362112 
L 212.185733 -110.807475 
L 212.189682 -108.252837 
L 212.196353 -105.6982 
L 212.205603 -103.143563 
L 212.216453 -100.588926 
L 212.226952 -98.034288 
L 212.234108 -95.479651 
L 212.233866 -92.925014 
L 212.221156 -90.370376 
L 212.190018 -87.815739 
L 212.133789 -85.261102 
L 212.045356 -82.706465 
L 211.917477 -80.151827 
L 211.743127 -77.59719 
L 211.515885 -75.042553 
L 211.230311 -72.487916 
L 210.882312 -69.933278 
L 210.469455 -67.378641 
L 209.991219 -64.824004 
L 209.449156 -62.269366 
L 208.846947 -59.714729 
L 208.190349 -57.160092 
L 207.487028 -54.605455 
z
" id="m56551b515f" style="stroke:#4c4c4c;stroke-width:1.5;"/>
    </defs>
    <g clip-path="url(#pd2c2c72143)">
     <use style="fill:#20dfdf;stroke:#4c4c4c;stroke-width:1.5;" x="0" xlink:href="#m56551b515f" y="345.6"/>
    </g>
   </g>
   <g id="PolyCollection_5">
    <defs>
     <path d="M 295.891333 -54.605455 
L 287.830831 -54.605455 
L 287.34787 -57.160092 
L 286.898943 -59.714729 
L 286.489572 -62.269366 
L 286.124306 -64.824004 
L 285.806626 -67.378641 
L 285.538897 -69.933278 
L 285.32236 -72.487916 
L 285.157163 -75.042553 
L 285.042415 -77.59719 
L 284.976267 -80.151827 
L 284.956002 -82.706465 
L 284.978144 -85.261102 
L 285.038561 -87.815739 
L 285.13258 -90.370376 
L 285.2551 -92.925014 
L 285.400706 -95.479651 
L 285.563789 -98.034288 
L 285.738665 -100.588926 
L 285.919696 -103.143563 
L 286.101411 -105.6982 
L 286.278626 -108.252837 
L 286.446558 -110.807475 
L 286.600928 -113.362112 
L 286.738058 -115.916749 
L 286.854943 -118.471387 
L 286.949308 -121.026024 
L 287.019646 -123.580661 
L 287.065228 -126.135298 
L 287.086101 -128.689936 
L 287.08305 -131.244573 
L 287.057556 -133.79921 
L 287.011724 -136.353848 
L 286.9482 -138.908485 
L 286.870074 -141.463122 
L 286.780768 -144.017759 
L 286.683913 -146.572397 
L 286.583217 -149.127034 
L 286.482332 -151.681671 
L 286.384709 -154.236309 
L 286.29346 -156.790946 
L 286.211229 -159.345583 
L 286.140072 -161.90022 
L 286.081356 -164.454858 
L 286.035694 -167.009495 
L 286.002898 -169.564132 
L 285.981986 -172.11877 
L 285.97122 -174.673407 
L 285.968188 -177.228044 
L 285.969925 -179.782681 
L 285.973073 -182.337319 
L 285.974054 -184.891956 
L 285.969273 -187.446593 
L 285.955313 -190.00123 
L 285.929124 -192.555868 
L 285.888186 -195.110505 
L 285.830641 -197.665142 
L 285.755371 -200.21978 
L 285.662035 -202.774417 
L 285.55104 -205.329054 
L 285.423458 -207.883691 
L 285.280893 -210.438329 
L 285.125296 -212.992966 
L 284.958745 -215.547603 
L 284.783201 -218.102241 
L 284.600245 -220.656878 
L 284.410826 -223.211515 
L 284.215019 -225.766152 
L 284.011813 -228.32079 
L 283.798947 -230.875427 
L 283.572796 -233.430064 
L 283.328331 -235.984702 
L 283.059142 -238.539339 
L 282.757559 -241.093976 
L 282.414844 -243.648613 
L 282.021487 -246.203251 
L 281.567581 -248.757888 
L 281.043291 -251.312525 
L 280.439401 -253.867163 
L 279.747921 -256.4218 
L 278.962751 -258.976437 
L 278.08036 -261.531074 
L 277.100462 -264.085712 
L 276.026637 -266.640349 
L 274.866863 -269.194986 
L 273.633909 -271.749624 
L 272.345536 -274.304261 
L 271.024465 -276.858898 
L 269.698079 -279.413535 
L 268.397825 -281.968173 
L 267.158332 -284.52281 
L 266.016231 -287.077447 
L 265.008747 -289.632084 
L 264.17211 -292.186722 
L 263.539869 -294.741359 
L 263.141217 -297.295996 
L 262.999439 -299.850634 
L 263.130577 -302.405271 
L 263.542429 -304.959908 
L 264.233957 -307.514545 
L 295.891333 -307.514545 
L 295.891333 -307.514545 
L 295.891333 -304.959908 
L 295.891333 -302.405271 
L 295.891333 -299.850634 
L 295.891333 -297.295996 
L 295.891333 -294.741359 
L 295.891333 -292.186722 
L 295.891333 -289.632084 
L 295.891333 -287.077447 
L 295.891333 -284.52281 
L 295.891333 -281.968173 
L 295.891333 -279.413535 
L 295.891333 -276.858898 
L 295.891333 -274.304261 
L 295.891333 -271.749624 
L 295.891333 -269.194986 
L 295.891333 -266.640349 
L 295.891333 -264.085712 
L 295.891333 -261.531074 
L 295.891333 -258.976437 
L 295.891333 -256.4218 
L 295.891333 -253.867163 
L 295.891333 -251.312525 
L 295.891333 -248.757888 
L 295.891333 -246.203251 
L 295.891333 -243.648613 
L 295.891333 -241.093976 
L 295.891333 -238.539339 
L 295.891333 -235.984702 
L 295.891333 -233.430064 
L 295.891333 -230.875427 
L 295.891333 -228.32079 
L 295.891333 -225.766152 
L 295.891333 -223.211515 
L 295.891333 -220.656878 
L 295.891333 -218.102241 
L 295.891333 -215.547603 
L 295.891333 -212.992966 
L 295.891333 -210.438329 
L 295.891333 -207.883691 
L 295.891333 -205.329054 
L 295.891333 -202.774417 
L 295.891333 -200.21978 
L 295.891333 -197.665142 
L 295.891333 -195.110505 
L 295.891333 -192.555868 
L 295.891333 -190.00123 
L 295.891333 -187.446593 
L 295.891333 -184.891956 
L 295.891333 -182.337319 
L 295.891333 -179.782681 
L 295.891333 -177.228044 
L 295.891333 -174.673407 
L 295.891333 -172.11877 
L 295.891333 -169.564132 
L 295.891333 -167.009495 
L 295.891333 -164.454858 
L 295.891333 -161.90022 
L 295.891333 -159.345583 
L 295.891333 -156.790946 
L 295.891333 -154.236309 
L 295.891333 -151.681671 
L 295.891333 -149.127034 
L 295.891333 -146.572397 
L 295.891333 -144.017759 
L 295.891333 -141.463122 
L 295.891333 -138.908485 
L 295.891333 -136.353848 
L 295.891333 -133.79921 
L 295.891333 -131.244573 
L 295.891333 -128.689936 
L 295.891333 -126.135298 
L 295.891333 -123.580661 
L 295.891333 -121.026024 
L 295.891333 -118.471387 
L 295.891333 -115.916749 
L 295.891333 -113.362112 
L 295.891333 -110.807475 
L 295.891333 -108.252837 
L 295.891333 -105.6982 
L 295.891333 -103.143563 
L 295.891333 -100.588926 
L 295.891333 -98.034288 
L 295.891333 -95.479651 
L 295.891333 -92.925014 
L 295.891333 -90.370376 
L 295.891333 -87.815739 
L 295.891333 -85.261102 
L 295.891333 -82.706465 
L 295.891333 -80.151827 
L 295.891333 -77.59719 
L 295.891333 -75.042553 
L 295.891333 -72.487916 
L 295.891333 -69.933278 
L 295.891333 -67.378641 
L 295.891333 -64.824004 
L 295.891333 -62.269366 
L 295.891333 -59.714729 
L 295.891333 -57.160092 
L 295.891333 -54.605455 
z
" id="m517c7adc4e" style="stroke:#4c4c4c;stroke-width:1.5;"/>
    </defs>
    <g clip-path="url(#pd2c2c72143)">
     <use style="fill:#2020df;stroke:#4c4c4c;stroke-width:1.5;" x="0" xlink:href="#m517c7adc4e" y="345.6"/>
    </g>
   </g>
   <g id="PolyCollection_6">
    <defs>
     <path d="M 303.471939 -54.605455 
L 295.891333 -54.605455 
L 295.891333 -57.160092 
L 295.891333 -59.714729 
L 295.891333 -62.269366 
L 295.891333 -64.824004 
L 295.891333 -67.378641 
L 295.891333 -69.933278 
L 295.891333 -72.487916 
L 295.891333 -75.042553 
L 295.891333 -77.59719 
L 295.891333 -80.151827 
L 295.891333 -82.706465 
L 295.891333 -85.261102 
L 295.891333 -87.815739 
L 295.891333 -90.370376 
L 295.891333 -92.925014 
L 295.891333 -95.479651 
L 295.891333 -98.034288 
L 295.891333 -100.588926 
L 295.891333 -103.143563 
L 295.891333 -105.6982 
L 295.891333 -108.252837 
L 295.891333 -110.807475 
L 295.891333 -113.362112 
L 295.891333 -115.916749 
L 295.891333 -118.471387 
L 295.891333 -121.026024 
L 295.891333 -123.580661 
L 295.891333 -126.135298 
L 295.891333 -128.689936 
L 295.891333 -131.244573 
L 295.891333 -133.79921 
L 295.891333 -136.353848 
L 295.891333 -138.908485 
L 295.891333 -141.463122 
L 295.891333 -144.017759 
L 295.891333 -146.572397 
L 295.891333 -149.127034 
L 295.891333 -151.681671 
L 295.891333 -154.236309 
L 295.891333 -156.790946 
L 295.891333 -159.345583 
L 295.891333 -161.90022 
L 295.891333 -164.454858 
L 295.891333 -167.009495 
L 295.891333 -169.564132 
L 295.891333 -172.11877 
L 295.891333 -174.673407 
L 295.891333 -177.228044 
L 295.891333 -179.782681 
L 295.891333 -182.337319 
L 295.891333 -184.891956 
L 295.891333 -187.446593 
L 295.891333 -190.00123 
L 295.891333 -192.555868 
L 295.891333 -195.110505 
L 295.891333 -197.665142 
L 295.891333 -200.21978 
L 295.891333 -202.774417 
L 295.891333 -205.329054 
L 295.891333 -207.883691 
L 295.891333 -210.438329 
L 295.891333 -212.992966 
L 295.891333 -215.547603 
L 295.891333 -218.102241 
L 295.891333 -220.656878 
L 295.891333 -223.211515 
L 295.891333 -225.766152 
L 295.891333 -228.32079 
L 295.891333 -230.875427 
L 295.891333 -233.430064 
L 295.891333 -235.984702 
L 295.891333 -238.539339 
L 295.891333 -241.093976 
L 295.891333 -243.648613 
L 295.891333 -246.203251 
L 295.891333 -248.757888 
L 295.891333 -251.312525 
L 295.891333 -253.867163 
L 295.891333 -256.4218 
L 295.891333 -258.976437 
L 295.891333 -261.531074 
L 295.891333 -264.085712 
L 295.891333 -266.640349 
L 295.891333 -269.194986 
L 295.891333 -271.749624 
L 295.891333 -274.304261 
L 295.891333 -276.858898 
L 295.891333 -279.413535 
L 295.891333 -281.968173 
L 295.891333 -284.52281 
L 295.891333 -287.077447 
L 295.891333 -289.632084 
L 295.891333 -292.186722 
L 295.891333 -294.741359 
L 295.891333 -297.295996 
L 295.891333 -299.850634 
L 295.891333 -302.405271 
L 295.891333 -304.959908 
L 295.891333 -307.514545 
L 334.495942 -307.514545 
L 334.495942 -307.514545 
L 335.282148 -304.959908 
L 335.584347 -302.405271 
L 335.410207 -299.850634 
L 334.787665 -297.295996 
L 333.762429 -294.741359 
L 332.394319 -292.186722 
L 330.752846 -289.632084 
L 328.912448 -287.077447 
L 326.94782 -284.52281 
L 324.929734 -281.968173 
L 322.921612 -279.413535 
L 320.977072 -276.858898 
L 319.138476 -274.304261 
L 317.436466 -271.749624 
L 315.890351 -269.194986 
L 314.509174 -266.640349 
L 313.293238 -264.085712 
L 312.235905 -261.531074 
L 311.325461 -258.976437 
L 310.546915 -256.4218 
L 309.883604 -253.867163 
L 309.318552 -251.312525 
L 308.835536 -248.757888 
L 308.419856 -246.203251 
L 308.058835 -243.648613 
L 307.742064 -241.093976 
L 307.46145 -238.539339 
L 307.211078 -235.984702 
L 306.986963 -233.430064 
L 306.786703 -230.875427 
L 306.609086 -228.32079 
L 306.453681 -225.766152 
L 306.320437 -223.211515 
L 306.209331 -220.656878 
L 306.120068 -218.102241 
L 306.051853 -215.547603 
L 306.003256 -212.992966 
L 305.972151 -210.438329 
L 305.955737 -207.883691 
L 305.95063 -205.329054 
L 305.953009 -202.774417 
L 305.958804 -200.21978 
L 305.963904 -197.665142 
L 305.964372 -195.110505 
L 305.956651 -192.555868 
L 305.937746 -190.00123 
L 305.905375 -187.446593 
L 305.858083 -184.891956 
L 305.795303 -182.337319 
L 305.717378 -179.782681 
L 305.625532 -177.228044 
L 305.52179 -174.673407 
L 305.408865 -172.11877 
L 305.289992 -169.564132 
L 305.168753 -167.009495 
L 305.048862 -164.454858 
L 304.93396 -161.90022 
L 304.827406 -159.345583 
L 304.732097 -156.790946 
L 304.650311 -154.236309 
L 304.583603 -151.681671 
L 304.532752 -149.127034 
L 304.497756 -146.572397 
L 304.477891 -144.017759 
L 304.471814 -141.463122 
L 304.477708 -138.908485 
L 304.493456 -136.353848 
L 304.516828 -133.79921 
L 304.545667 -131.244573 
L 304.578063 -128.689936 
L 304.612495 -126.135298 
L 304.647934 -123.580661 
L 304.683904 -121.026024 
L 304.720481 -118.471387 
L 304.758253 -115.916749 
L 304.79822 -113.362112 
L 304.841655 -110.807475 
L 304.889927 -108.252837 
L 304.944302 -105.6982 
L 305.005731 -103.143563 
L 305.074639 -100.588926 
L 305.150735 -98.034288 
L 305.232842 -95.479651 
L 305.318778 -92.925014 
L 305.405282 -90.370376 
L 305.48801 -87.815739 
L 305.561593 -85.261102 
L 305.619776 -82.706465 
L 305.655627 -80.151827 
L 305.661819 -77.59719 
L 305.630984 -75.042553 
L 305.556103 -72.487916 
L 305.43094 -69.933278 
L 305.250471 -67.378641 
L 305.011287 -64.824004 
L 304.711934 -62.269366 
L 304.353161 -59.714729 
L 303.938039 -57.160092 
L 303.471939 -54.605455 
z
" id="mb6bde5fd75" style="stroke:#4c4c4c;stroke-width:1.5;"/>
    </defs>
    <g clip-path="url(#pd2c2c72143)">
     <use style="fill:#20dfdf;stroke:#4c4c4c;stroke-width:1.5;" x="0" xlink:href="#mb6bde5fd75" y="345.6"/>
    </g>
   </g>
   <g id="patch_3">
    <path clip-path="url(#pd2c2c72143)" d="M 97.426267 325.482149 
L 97.426267 325.482149 
L 97.426267 325.482149 
L 97.426267 325.482149 
z
" style="fill:#2020df;stroke:#4c4c4c;stroke-linejoin:miter;stroke-width:0.75;"/>
   </g>
   <g id="patch_4">
    <path clip-path="url(#pd2c2c72143)" d="M 97.426267 325.482149 
L 97.426267 325.482149 
L 97.426267 325.482149 
L 97.426267 325.482149 
z
" style="fill:#20dfdf;stroke:#4c4c4c;stroke-linejoin:miter;stroke-width:0.75;"/>
   </g>
   <g id="matplotlib.axis_1">
    <g id="xtick_1">
     <g id="line2d_1">
      <defs>
       <path d="M 0 0 
L 0 3.5 
" id="m08521c2dd6" style="stroke:#000000;stroke-width:0.8;"/>
      </defs>
      <g>
       <use style="stroke:#000000;stroke-width:0.8;" x="97.426267" xlink:href="#m08521c2dd6" y="303.64"/>
      </g>
     </g>
     <g id="text_1">
      <!-- 2 -->
      <g transform="translate(94.245017 318.238437)scale(0.1 -0.1)">
       <defs>
        <path d="M 1228 531 
L 3431 531 
L 3431 0 
L 469 0 
L 469 531 
Q 828 903 1448 1529 
Q 2069 2156 2228 2338 
Q 2531 2678 2651 2914 
Q 2772 3150 2772 3378 
Q 2772 3750 2511 3984 
Q 2250 4219 1831 4219 
Q 1534 4219 1204 4116 
Q 875 4013 500 3803 
L 500 4441 
Q 881 4594 1212 4672 
Q 1544 4750 1819 4750 
Q 2544 4750 2975 4387 
Q 3406 4025 3406 3419 
Q 3406 3131 3298 2873 
Q 3191 2616 2906 2266 
Q 2828 2175 2409 1742 
Q 1991 1309 1228 531 
z
" id="DejaVuSans-32" transform="scale(0.015625)"/>
       </defs>
       <use xlink:href="#DejaVuSans-32"/>
      </g>
     </g>
    </g>
    <g id="xtick_2">
     <g id="line2d_2">
      <g>
       <use style="stroke:#000000;stroke-width:0.8;" x="196.6588" xlink:href="#m08521c2dd6" y="303.64"/>
      </g>
     </g>
     <g id="text_2">
      <!-- 3 -->
      <g transform="translate(193.47755 318.238437)scale(0.1 -0.1)">
       <defs>
        <path d="M 2597 2516 
Q 3050 2419 3304 2112 
Q 3559 1806 3559 1356 
Q 3559 666 3084 287 
Q 2609 -91 1734 -91 
Q 1441 -91 1130 -33 
Q 819 25 488 141 
L 488 750 
Q 750 597 1062 519 
Q 1375 441 1716 441 
Q 2309 441 2620 675 
Q 2931 909 2931 1356 
Q 2931 1769 2642 2001 
Q 2353 2234 1838 2234 
L 1294 2234 
L 1294 2753 
L 1863 2753 
Q 2328 2753 2575 2939 
Q 2822 3125 2822 3475 
Q 2822 3834 2567 4026 
Q 2313 4219 1838 4219 
Q 1578 4219 1281 4162 
Q 984 4106 628 3988 
L 628 4550 
Q 988 4650 1302 4700 
Q 1616 4750 1894 4750 
Q 2613 4750 3031 4423 
Q 3450 4097 3450 3541 
Q 3450 3153 3228 2886 
Q 3006 2619 2597 2516 
z
" id="DejaVuSans-33" transform="scale(0.015625)"/>
       </defs>
       <use xlink:href="#DejaVuSans-33"/>
      </g>
     </g>
    </g>
    <g id="xtick_3">
     <g id="line2d_3">
      <g>
       <use style="stroke:#000000;stroke-width:0.8;" x="295.891333" xlink:href="#m08521c2dd6" y="303.64"/>
      </g>
     </g>
     <g id="text_3">
      <!-- 4 -->
      <g transform="translate(292.710083 318.238437)scale(0.1 -0.1)">
       <defs>
        <path d="M 2419 4116 
L 825 1625 
L 2419 1625 
L 2419 4116 
z
M 2253 4666 
L 3047 4666 
L 3047 1625 
L 3713 1625 
L 3713 1100 
L 3047 1100 
L 3047 0 
L 2419 0 
L 2419 1100 
L 313 1100 
L 313 1709 
L 2253 4666 
z
" id="DejaVuSans-34" transform="scale(0.015625)"/>
       </defs>
       <use xlink:href="#DejaVuSans-34"/>
      </g>
     </g>
    </g>
    <g id="text_4">
     <!-- Number of splits -->
     <g transform="translate(155.453331 331.916562)scale(0.1 -0.1)">
      <defs>
       <path d="M 628 4666 
L 1478 4666 
L 3547 763 
L 3547 4666 
L 4159 4666 
L 4159 0 
L 3309 0 
L 1241 3903 
L 1241 0 
L 628 0 
L 628 4666 
z
" id="DejaVuSans-4e" transform="scale(0.015625)"/>
       <path d="M 544 1381 
L 544 3500 
L 1119 3500 
L 1119 1403 
Q 1119 906 1312 657 
Q 1506 409 1894 409 
Q 2359 409 2629 706 
Q 2900 1003 2900 1516 
L 2900 3500 
L 3475 3500 
L 3475 0 
L 2900 0 
L 2900 538 
Q 2691 219 2414 64 
Q 2138 -91 1772 -91 
Q 1169 -91 856 284 
Q 544 659 544 1381 
z
M 1991 3584 
L 1991 3584 
z
" id="DejaVuSans-75" transform="scale(0.015625)"/>
       <path d="M 3328 2828 
Q 3544 3216 3844 3400 
Q 4144 3584 4550 3584 
Q 5097 3584 5394 3201 
Q 5691 2819 5691 2113 
L 5691 0 
L 5113 0 
L 5113 2094 
Q 5113 2597 4934 2840 
Q 4756 3084 4391 3084 
Q 3944 3084 3684 2787 
Q 3425 2491 3425 1978 
L 3425 0 
L 2847 0 
L 2847 2094 
Q 2847 2600 2669 2842 
Q 2491 3084 2119 3084 
Q 1678 3084 1418 2786 
Q 1159 2488 1159 1978 
L 1159 0 
L 581 0 
L 581 3500 
L 1159 3500 
L 1159 2956 
Q 1356 3278 1631 3431 
Q 1906 3584 2284 3584 
Q 2666 3584 2933 3390 
Q 3200 3197 3328 2828 
z
" id="DejaVuSans-6d" transform="scale(0.015625)"/>
       <path d="M 3116 1747 
Q 3116 2381 2855 2742 
Q 2594 3103 2138 3103 
Q 1681 3103 1420 2742 
Q 1159 2381 1159 1747 
Q 1159 1113 1420 752 
Q 1681 391 2138 391 
Q 2594 391 2855 752 
Q 3116 1113 3116 1747 
z
M 1159 2969 
Q 1341 3281 1617 3432 
Q 1894 3584 2278 3584 
Q 2916 3584 3314 3078 
Q 3713 2572 3713 1747 
Q 3713 922 3314 415 
Q 2916 -91 2278 -91 
Q 1894 -91 1617 61 
Q 1341 213 1159 525 
L 1159 0 
L 581 0 
L 581 4863 
L 1159 4863 
L 1159 2969 
z
" id="DejaVuSans-62" transform="scale(0.015625)"/>
       <path d="M 3597 1894 
L 3597 1613 
L 953 1613 
Q 991 1019 1311 708 
Q 1631 397 2203 397 
Q 2534 397 2845 478 
Q 3156 559 3463 722 
L 3463 178 
Q 3153 47 2828 -22 
Q 2503 -91 2169 -91 
Q 1331 -91 842 396 
Q 353 884 353 1716 
Q 353 2575 817 3079 
Q 1281 3584 2069 3584 
Q 2775 3584 3186 3129 
Q 3597 2675 3597 1894 
z
M 3022 2063 
Q 3016 2534 2758 2815 
Q 2500 3097 2075 3097 
Q 1594 3097 1305 2825 
Q 1016 2553 972 2059 
L 3022 2063 
z
" id="DejaVuSans-65" transform="scale(0.015625)"/>
       <path d="M 2631 2963 
Q 2534 3019 2420 3045 
Q 2306 3072 2169 3072 
Q 1681 3072 1420 2755 
Q 1159 2438 1159 1844 
L 1159 0 
L 581 0 
L 581 3500 
L 1159 3500 
L 1159 2956 
Q 1341 3275 1631 3429 
Q 1922 3584 2338 3584 
Q 2397 3584 2469 3576 
Q 2541 3569 2628 3553 
L 2631 2963 
z
" id="DejaVuSans-72" transform="scale(0.015625)"/>
       <path id="DejaVuSans-20" transform="scale(0.015625)"/>
       <path d="M 1959 3097 
Q 1497 3097 1228 2736 
Q 959 2375 959 1747 
Q 959 1119 1226 758 
Q 1494 397 1959 397 
Q 2419 397 2687 759 
Q 2956 1122 2956 1747 
Q 2956 2369 2687 2733 
Q 2419 3097 1959 3097 
z
M 1959 3584 
Q 2709 3584 3137 3096 
Q 3566 2609 3566 1747 
Q 3566 888 3137 398 
Q 2709 -91 1959 -91 
Q 1206 -91 779 398 
Q 353 888 353 1747 
Q 353 2609 779 3096 
Q 1206 3584 1959 3584 
z
" id="DejaVuSans-6f" transform="scale(0.015625)"/>
       <path d="M 2375 4863 
L 2375 4384 
L 1825 4384 
Q 1516 4384 1395 4259 
Q 1275 4134 1275 3809 
L 1275 3500 
L 2222 3500 
L 2222 3053 
L 1275 3053 
L 1275 0 
L 697 0 
L 697 3053 
L 147 3053 
L 147 3500 
L 697 3500 
L 697 3744 
Q 697 4328 969 4595 
Q 1241 4863 1831 4863 
L 2375 4863 
z
" id="DejaVuSans-66" transform="scale(0.015625)"/>
       <path d="M 2834 3397 
L 2834 2853 
Q 2591 2978 2328 3040 
Q 2066 3103 1784 3103 
Q 1356 3103 1142 2972 
Q 928 2841 928 2578 
Q 928 2378 1081 2264 
Q 1234 2150 1697 2047 
L 1894 2003 
Q 2506 1872 2764 1633 
Q 3022 1394 3022 966 
Q 3022 478 2636 193 
Q 2250 -91 1575 -91 
Q 1294 -91 989 -36 
Q 684 19 347 128 
L 347 722 
Q 666 556 975 473 
Q 1284 391 1588 391 
Q 1994 391 2212 530 
Q 2431 669 2431 922 
Q 2431 1156 2273 1281 
Q 2116 1406 1581 1522 
L 1381 1569 
Q 847 1681 609 1914 
Q 372 2147 372 2553 
Q 372 3047 722 3315 
Q 1072 3584 1716 3584 
Q 2034 3584 2315 3537 
Q 2597 3491 2834 3397 
z
" id="DejaVuSans-73" transform="scale(0.015625)"/>
       <path d="M 1159 525 
L 1159 -1331 
L 581 -1331 
L 581 3500 
L 1159 3500 
L 1159 2969 
Q 1341 3281 1617 3432 
Q 1894 3584 2278 3584 
Q 2916 3584 3314 3078 
Q 3713 2572 3713 1747 
Q 3713 922 3314 415 
Q 2916 -91 2278 -91 
Q 1894 -91 1617 61 
Q 1341 213 1159 525 
z
M 3116 1747 
Q 3116 2381 2855 2742 
Q 2594 3103 2138 3103 
Q 1681 3103 1420 2742 
Q 1159 2381 1159 1747 
Q 1159 1113 1420 752 
Q 1681 391 2138 391 
Q 2594 391 2855 752 
Q 3116 1113 3116 1747 
z
" id="DejaVuSans-70" transform="scale(0.015625)"/>
       <path d="M 603 4863 
L 1178 4863 
L 1178 0 
L 603 0 
L 603 4863 
z
" id="DejaVuSans-6c" transform="scale(0.015625)"/>
       <path d="M 603 3500 
L 1178 3500 
L 1178 0 
L 603 0 
L 603 3500 
z
M 603 4863 
L 1178 4863 
L 1178 4134 
L 603 4134 
L 603 4863 
z
" id="DejaVuSans-69" transform="scale(0.015625)"/>
       <path d="M 1172 4494 
L 1172 3500 
L 2356 3500 
L 2356 3053 
L 1172 3053 
L 1172 1153 
Q 1172 725 1289 603 
Q 1406 481 1766 481 
L 2356 481 
L 2356 0 
L 1766 0 
Q 1100 0 847 248 
Q 594 497 594 1153 
L 594 3053 
L 172 3053 
L 172 3500 
L 594 3500 
L 594 4494 
L 1172 4494 
z
" id="DejaVuSans-74" transform="scale(0.015625)"/>
      </defs>
      <use xlink:href="#DejaVuSans-4e"/>
      <use x="74.804688" xlink:href="#DejaVuSans-75"/>
      <use x="138.183594" xlink:href="#DejaVuSans-6d"/>
      <use x="235.595703" xlink:href="#DejaVuSans-62"/>
      <use x="299.072266" xlink:href="#DejaVuSans-65"/>
      <use x="360.595703" xlink:href="#DejaVuSans-72"/>
      <use x="401.708984" xlink:href="#DejaVuSans-20"/>
      <use x="433.496094" xlink:href="#DejaVuSans-6f"/>
      <use x="494.677734" xlink:href="#DejaVuSans-66"/>
      <use x="529.882812" xlink:href="#DejaVuSans-20"/>
      <use x="561.669922" xlink:href="#DejaVuSans-73"/>
      <use x="613.769531" xlink:href="#DejaVuSans-70"/>
      <use x="677.246094" xlink:href="#DejaVuSans-6c"/>
      <use x="705.029297" xlink:href="#DejaVuSans-69"/>
      <use x="732.8125" xlink:href="#DejaVuSans-74"/>
      <use x="772.021484" xlink:href="#DejaVuSans-73"/>
     </g>
    </g>
   </g>
   <g id="matplotlib.axis_2">
    <g id="ytick_1">
     <g id="line2d_4">
      <defs>
       <path d="M 0 0 
L -3.5 0 
" id="m408a21b63f" style="stroke:#000000;stroke-width:0.8;"/>
      </defs>
      <g>
       <use style="stroke:#000000;stroke-width:0.8;" x="47.81" xlink:href="#m408a21b63f" y="268.00281"/>
      </g>
     </g>
     <g id="text_5">
      <!-- 0.2 -->
      <g transform="translate(24.906875 271.802029)scale(0.1 -0.1)">
       <defs>
        <path d="M 2034 4250 
Q 1547 4250 1301 3770 
Q 1056 3291 1056 2328 
Q 1056 1369 1301 889 
Q 1547 409 2034 409 
Q 2525 409 2770 889 
Q 3016 1369 3016 2328 
Q 3016 3291 2770 3770 
Q 2525 4250 2034 4250 
z
M 2034 4750 
Q 2819 4750 3233 4129 
Q 3647 3509 3647 2328 
Q 3647 1150 3233 529 
Q 2819 -91 2034 -91 
Q 1250 -91 836 529 
Q 422 1150 422 2328 
Q 422 3509 836 4129 
Q 1250 4750 2034 4750 
z
" id="DejaVuSans-30" transform="scale(0.015625)"/>
        <path d="M 684 794 
L 1344 794 
L 1344 0 
L 684 0 
L 684 794 
z
" id="DejaVuSans-2e" transform="scale(0.015625)"/>
       </defs>
       <use xlink:href="#DejaVuSans-30"/>
       <use x="63.623047" xlink:href="#DejaVuSans-2e"/>
       <use x="95.410156" xlink:href="#DejaVuSans-32"/>
      </g>
     </g>
    </g>
    <g id="ytick_2">
     <g id="line2d_5">
      <g>
       <use style="stroke:#000000;stroke-width:0.8;" x="47.81" xlink:href="#m408a21b63f" y="210.523471"/>
      </g>
     </g>
     <g id="text_6">
      <!-- 0.4 -->
      <g transform="translate(24.906875 214.32269)scale(0.1 -0.1)">
       <use xlink:href="#DejaVuSans-30"/>
       <use x="63.623047" xlink:href="#DejaVuSans-2e"/>
       <use x="95.410156" xlink:href="#DejaVuSans-34"/>
      </g>
     </g>
    </g>
    <g id="ytick_3">
     <g id="line2d_6">
      <g>
       <use style="stroke:#000000;stroke-width:0.8;" x="47.81" xlink:href="#m408a21b63f" y="153.044132"/>
      </g>
     </g>
     <g id="text_7">
      <!-- 0.6 -->
      <g transform="translate(24.906875 156.843351)scale(0.1 -0.1)">
       <defs>
        <path d="M 2113 2584 
Q 1688 2584 1439 2293 
Q 1191 2003 1191 1497 
Q 1191 994 1439 701 
Q 1688 409 2113 409 
Q 2538 409 2786 701 
Q 3034 994 3034 1497 
Q 3034 2003 2786 2293 
Q 2538 2584 2113 2584 
z
M 3366 4563 
L 3366 3988 
Q 3128 4100 2886 4159 
Q 2644 4219 2406 4219 
Q 1781 4219 1451 3797 
Q 1122 3375 1075 2522 
Q 1259 2794 1537 2939 
Q 1816 3084 2150 3084 
Q 2853 3084 3261 2657 
Q 3669 2231 3669 1497 
Q 3669 778 3244 343 
Q 2819 -91 2113 -91 
Q 1303 -91 875 529 
Q 447 1150 447 2328 
Q 447 3434 972 4092 
Q 1497 4750 2381 4750 
Q 2619 4750 2861 4703 
Q 3103 4656 3366 4563 
z
" id="DejaVuSans-36" transform="scale(0.015625)"/>
       </defs>
       <use xlink:href="#DejaVuSans-30"/>
       <use x="63.623047" xlink:href="#DejaVuSans-2e"/>
       <use x="95.410156" xlink:href="#DejaVuSans-36"/>
      </g>
     </g>
    </g>
    <g id="ytick_4">
     <g id="line2d_7">
      <g>
       <use style="stroke:#000000;stroke-width:0.8;" x="47.81" xlink:href="#m408a21b63f" y="95.564793"/>
      </g>
     </g>
     <g id="text_8">
      <!-- 0.8 -->
      <g transform="translate(24.906875 99.364012)scale(0.1 -0.1)">
       <defs>
        <path d="M 2034 2216 
Q 1584 2216 1326 1975 
Q 1069 1734 1069 1313 
Q 1069 891 1326 650 
Q 1584 409 2034 409 
Q 2484 409 2743 651 
Q 3003 894 3003 1313 
Q 3003 1734 2745 1975 
Q 2488 2216 2034 2216 
z
M 1403 2484 
Q 997 2584 770 2862 
Q 544 3141 544 3541 
Q 544 4100 942 4425 
Q 1341 4750 2034 4750 
Q 2731 4750 3128 4425 
Q 3525 4100 3525 3541 
Q 3525 3141 3298 2862 
Q 3072 2584 2669 2484 
Q 3125 2378 3379 2068 
Q 3634 1759 3634 1313 
Q 3634 634 3220 271 
Q 2806 -91 2034 -91 
Q 1263 -91 848 271 
Q 434 634 434 1313 
Q 434 1759 690 2068 
Q 947 2378 1403 2484 
z
M 1172 3481 
Q 1172 3119 1398 2916 
Q 1625 2713 2034 2713 
Q 2441 2713 2670 2916 
Q 2900 3119 2900 3481 
Q 2900 3844 2670 4047 
Q 2441 4250 2034 4250 
Q 1625 4250 1398 4047 
Q 1172 3844 1172 3481 
z
" id="DejaVuSans-38" transform="scale(0.015625)"/>
       </defs>
       <use xlink:href="#DejaVuSans-30"/>
       <use x="63.623047" xlink:href="#DejaVuSans-2e"/>
       <use x="95.410156" xlink:href="#DejaVuSans-38"/>
      </g>
     </g>
    </g>
    <g id="ytick_5">
     <g id="line2d_8">
      <g>
       <use style="stroke:#000000;stroke-width:0.8;" x="47.81" xlink:href="#m408a21b63f" y="38.085455"/>
      </g>
     </g>
     <g id="text_9">
      <!-- 1.0 -->
      <g transform="translate(24.906875 41.884673)scale(0.1 -0.1)">
       <defs>
        <path d="M 794 531 
L 1825 531 
L 1825 4091 
L 703 3866 
L 703 4441 
L 1819 4666 
L 2450 4666 
L 2450 531 
L 3481 531 
L 3481 0 
L 794 0 
L 794 531 
z
" id="DejaVuSans-31" transform="scale(0.015625)"/>
       </defs>
       <use xlink:href="#DejaVuSans-31"/>
       <use x="63.623047" xlink:href="#DejaVuSans-2e"/>
       <use x="95.410156" xlink:href="#DejaVuSans-30"/>
      </g>
     </g>
    </g>
    <g id="text_10">
     <!-- Credibility Index -->
     <g transform="translate(18.827188 205.230625)rotate(-90)scale(0.1 -0.1)">
      <defs>
       <path d="M 4122 4306 
L 4122 3641 
Q 3803 3938 3442 4084 
Q 3081 4231 2675 4231 
Q 1875 4231 1450 3742 
Q 1025 3253 1025 2328 
Q 1025 1406 1450 917 
Q 1875 428 2675 428 
Q 3081 428 3442 575 
Q 3803 722 4122 1019 
L 4122 359 
Q 3791 134 3420 21 
Q 3050 -91 2638 -91 
Q 1578 -91 968 557 
Q 359 1206 359 2328 
Q 359 3453 968 4101 
Q 1578 4750 2638 4750 
Q 3056 4750 3426 4639 
Q 3797 4528 4122 4306 
z
" id="DejaVuSans-43" transform="scale(0.015625)"/>
       <path d="M 2906 2969 
L 2906 4863 
L 3481 4863 
L 3481 0 
L 2906 0 
L 2906 525 
Q 2725 213 2448 61 
Q 2172 -91 1784 -91 
Q 1150 -91 751 415 
Q 353 922 353 1747 
Q 353 2572 751 3078 
Q 1150 3584 1784 3584 
Q 2172 3584 2448 3432 
Q 2725 3281 2906 2969 
z
M 947 1747 
Q 947 1113 1208 752 
Q 1469 391 1925 391 
Q 2381 391 2643 752 
Q 2906 1113 2906 1747 
Q 2906 2381 2643 2742 
Q 2381 3103 1925 3103 
Q 1469 3103 1208 2742 
Q 947 2381 947 1747 
z
" id="DejaVuSans-64" transform="scale(0.015625)"/>
       <path d="M 2059 -325 
Q 1816 -950 1584 -1140 
Q 1353 -1331 966 -1331 
L 506 -1331 
L 506 -850 
L 844 -850 
Q 1081 -850 1212 -737 
Q 1344 -625 1503 -206 
L 1606 56 
L 191 3500 
L 800 3500 
L 1894 763 
L 2988 3500 
L 3597 3500 
L 2059 -325 
z
" id="DejaVuSans-79" transform="scale(0.015625)"/>
       <path d="M 628 4666 
L 1259 4666 
L 1259 0 
L 628 0 
L 628 4666 
z
" id="DejaVuSans-49" transform="scale(0.015625)"/>
       <path d="M 3513 2113 
L 3513 0 
L 2938 0 
L 2938 2094 
Q 2938 2591 2744 2837 
Q 2550 3084 2163 3084 
Q 1697 3084 1428 2787 
Q 1159 2491 1159 1978 
L 1159 0 
L 581 0 
L 581 3500 
L 1159 3500 
L 1159 2956 
Q 1366 3272 1645 3428 
Q 1925 3584 2291 3584 
Q 2894 3584 3203 3211 
Q 3513 2838 3513 2113 
z
" id="DejaVuSans-6e" transform="scale(0.015625)"/>
       <path d="M 3513 3500 
L 2247 1797 
L 3578 0 
L 2900 0 
L 1881 1375 
L 863 0 
L 184 0 
L 1544 1831 
L 300 3500 
L 978 3500 
L 1906 2253 
L 2834 3500 
L 3513 3500 
z
" id="DejaVuSans-78" transform="scale(0.015625)"/>
      </defs>
      <use xlink:href="#DejaVuSans-43"/>
      <use x="69.824219" xlink:href="#DejaVuSans-72"/>
      <use x="108.6875" xlink:href="#DejaVuSans-65"/>
      <use x="170.210938" xlink:href="#DejaVuSans-64"/>
      <use x="233.6875" xlink:href="#DejaVuSans-69"/>
      <use x="261.470703" xlink:href="#DejaVuSans-62"/>
      <use x="324.947266" xlink:href="#DejaVuSans-69"/>
      <use x="352.730469" xlink:href="#DejaVuSans-6c"/>
      <use x="380.513672" xlink:href="#DejaVuSans-69"/>
      <use x="408.296875" xlink:href="#DejaVuSans-74"/>
      <use x="447.505859" xlink:href="#DejaVuSans-79"/>
      <use x="506.685547" xlink:href="#DejaVuSans-20"/>
      <use x="538.472656" xlink:href="#DejaVuSans-49"/>
      <use x="567.964844" xlink:href="#DejaVuSans-6e"/>
      <use x="631.34375" xlink:href="#DejaVuSans-64"/>
      <use x="694.820312" xlink:href="#DejaVuSans-65"/>
      <use x="754.59375" xlink:href="#DejaVuSans-78"/>
     </g>
    </g>
   </g>
   <g id="line2d_9">
    <path clip-path="url(#pd2c2c72143)" d="M 97.426267 290.994545 
L 97.426267 38.085455 
" style="fill:none;stroke:#4c4c4c;stroke-linecap:square;stroke-width:1.5;"/>
   </g>
   <g id="line2d_10">
    <path clip-path="url(#pd2c2c72143)" d="M 97.426267 210.523471 
L 97.426267 49.581322 
" style="fill:none;stroke:#4c4c4c;stroke-linecap:square;stroke-width:4.5;"/>
   </g>
   <g id="line2d_11">
    <path clip-path="url(#pd2c2c72143)" d="M 196.6588 290.994545 
L 196.6588 38.085455 
" style="fill:none;stroke:#4c4c4c;stroke-linecap:square;stroke-width:1.5;"/>
   </g>
   <g id="line2d_12">
    <path clip-path="url(#pd2c2c72143)" d="M 196.6588 210.523471 
L 196.6588 49.581322 
" style="fill:none;stroke:#4c4c4c;stroke-linecap:square;stroke-width:4.5;"/>
   </g>
   <g id="line2d_13">
    <path clip-path="url(#pd2c2c72143)" d="M 295.891333 290.994545 
L 295.891333 38.085455 
" style="fill:none;stroke:#4c4c4c;stroke-linecap:square;stroke-width:1.5;"/>
   </g>
   <g id="line2d_14">
    <path clip-path="url(#pd2c2c72143)" d="M 295.891333 187.531736 
L 295.891333 38.085455 
" style="fill:none;stroke:#4c4c4c;stroke-linecap:square;stroke-width:4.5;"/>
   </g>
   <g id="patch_5">
    <path d="M 47.81 303.64 
L 47.81 25.44 
" style="fill:none;stroke:#000000;stroke-linecap:square;stroke-linejoin:miter;stroke-width:0.8;"/>
   </g>
   <g id="patch_6">
    <path d="M 345.5076 303.64 
L 345.5076 25.44 
" style="fill:none;stroke:#000000;stroke-linecap:square;stroke-linejoin:miter;stroke-width:0.8;"/>
   </g>
   <g id="patch_7">
    <path d="M 47.81 303.64 
L 345.5076 303.64 
" style="fill:none;stroke:#000000;stroke-linecap:square;stroke-linejoin:miter;stroke-width:0.8;"/>
   </g>
   <g id="patch_8">
    <path d="M 47.81 25.44 
L 345.5076 25.44 
" style="fill:none;stroke:#000000;stroke-linecap:square;stroke-linejoin:miter;stroke-width:0.8;"/>
   </g>
   <g id="PathCollection_1">
    <defs>
     <path d="M 0 1.5 
C 0.397805 1.5 0.77937 1.341951 1.06066 1.06066 
C 1.341951 0.77937 1.5 0.397805 1.5 0 
C 1.5 -0.397805 1.341951 -0.77937 1.06066 -1.06066 
C 0.77937 -1.341951 0.397805 -1.5 0 -1.5 
C -0.397805 -1.5 -0.77937 -1.341951 -1.06066 -1.06066 
C -1.341951 -0.77937 -1.5 -0.397805 -1.5 0 
C -1.5 0.397805 -1.341951 0.77937 -1.06066 1.06066 
C -0.77937 1.341951 -0.397805 1.5 0 1.5 
z
" id="me36965fdc3" style="stroke:#4c4c4c;"/>
    </defs>
    <g clip-path="url(#pd2c2c72143)">
     <use style="fill:#ffffff;stroke:#4c4c4c;" x="97.426267" xlink:href="#me36965fdc3" y="107.060661"/>
    </g>
   </g>
   <g id="PathCollection_2">
    <g clip-path="url(#pd2c2c72143)">
     <use style="fill:#ffffff;stroke:#4c4c4c;" x="196.6588" xlink:href="#me36965fdc3" y="107.060661"/>
    </g>
   </g>
   <g id="PathCollection_3">
    <g clip-path="url(#pd2c2c72143)">
     <use style="fill:#ffffff;stroke:#4c4c4c;" x="295.891333" xlink:href="#me36965fdc3" y="84.068926"/>
    </g>
   </g>
   <g id="text_11">
    <!-- Distribution of the consensus estimated components -->
    <g transform="translate(37.764738 19.44)scale(0.12 -0.12)">
     <defs>
      <path d="M 1259 4147 
L 1259 519 
L 2022 519 
Q 2988 519 3436 956 
Q 3884 1394 3884 2338 
Q 3884 3275 3436 3711 
Q 2988 4147 2022 4147 
L 1259 4147 
z
M 628 4666 
L 1925 4666 
Q 3281 4666 3915 4102 
Q 4550 3538 4550 2338 
Q 4550 1131 3912 565 
Q 3275 0 1925 0 
L 628 0 
L 628 4666 
z
" id="DejaVuSans-44" transform="scale(0.015625)"/>
      <path d="M 3513 2113 
L 3513 0 
L 2938 0 
L 2938 2094 
Q 2938 2591 2744 2837 
Q 2550 3084 2163 3084 
Q 1697 3084 1428 2787 
Q 1159 2491 1159 1978 
L 1159 0 
L 581 0 
L 581 4863 
L 1159 4863 
L 1159 2956 
Q 1366 3272 1645 3428 
Q 1925 3584 2291 3584 
Q 2894 3584 3203 3211 
Q 3513 2838 3513 2113 
z
" id="DejaVuSans-68" transform="scale(0.015625)"/>
      <path d="M 3122 3366 
L 3122 2828 
Q 2878 2963 2633 3030 
Q 2388 3097 2138 3097 
Q 1578 3097 1268 2742 
Q 959 2388 959 1747 
Q 959 1106 1268 751 
Q 1578 397 2138 397 
Q 2388 397 2633 464 
Q 2878 531 3122 666 
L 3122 134 
Q 2881 22 2623 -34 
Q 2366 -91 2075 -91 
Q 1284 -91 818 406 
Q 353 903 353 1747 
Q 353 2603 823 3093 
Q 1294 3584 2113 3584 
Q 2378 3584 2631 3529 
Q 2884 3475 3122 3366 
z
" id="DejaVuSans-63" transform="scale(0.015625)"/>
      <path d="M 2194 1759 
Q 1497 1759 1228 1600 
Q 959 1441 959 1056 
Q 959 750 1161 570 
Q 1363 391 1709 391 
Q 2188 391 2477 730 
Q 2766 1069 2766 1631 
L 2766 1759 
L 2194 1759 
z
M 3341 1997 
L 3341 0 
L 2766 0 
L 2766 531 
Q 2569 213 2275 61 
Q 1981 -91 1556 -91 
Q 1019 -91 701 211 
Q 384 513 384 1019 
Q 384 1609 779 1909 
Q 1175 2209 1959 2209 
L 2766 2209 
L 2766 2266 
Q 2766 2663 2505 2880 
Q 2244 3097 1772 3097 
Q 1472 3097 1187 3025 
Q 903 2953 641 2809 
L 641 3341 
Q 956 3463 1253 3523 
Q 1550 3584 1831 3584 
Q 2591 3584 2966 3190 
Q 3341 2797 3341 1997 
z
" id="DejaVuSans-61" transform="scale(0.015625)"/>
     </defs>
     <use xlink:href="#DejaVuSans-44"/>
     <use x="77.001953" xlink:href="#DejaVuSans-69"/>
     <use x="104.785156" xlink:href="#DejaVuSans-73"/>
     <use x="156.884766" xlink:href="#DejaVuSans-74"/>
     <use x="196.09375" xlink:href="#DejaVuSans-72"/>
     <use x="237.207031" xlink:href="#DejaVuSans-69"/>
     <use x="264.990234" xlink:href="#DejaVuSans-62"/>
     <use x="328.466797" xlink:href="#DejaVuSans-75"/>
     <use x="391.845703" xlink:href="#DejaVuSans-74"/>
     <use x="431.054688" xlink:href="#DejaVuSans-69"/>
     <use x="458.837891" xlink:href="#DejaVuSans-6f"/>
     <use x="520.019531" xlink:href="#DejaVuSans-6e"/>
     <use x="583.398438" xlink:href="#DejaVuSans-20"/>
     <use x="615.185547" xlink:href="#DejaVuSans-6f"/>
     <use x="676.367188" xlink:href="#DejaVuSans-66"/>
     <use x="711.572266" xlink:href="#DejaVuSans-20"/>
     <use x="743.359375" xlink:href="#DejaVuSans-74"/>
     <use x="782.568359" xlink:href="#DejaVuSans-68"/>
     <use x="845.947266" xlink:href="#DejaVuSans-65"/>
     <use x="907.470703" xlink:href="#DejaVuSans-20"/>
     <use x="939.257812" xlink:href="#DejaVuSans-63"/>
     <use x="994.238281" xlink:href="#DejaVuSans-6f"/>
     <use x="1055.419922" xlink:href="#DejaVuSans-6e"/>
     <use x="1118.798828" xlink:href="#DejaVuSans-73"/>
     <use x="1170.898438" xlink:href="#DejaVuSans-65"/>
     <use x="1232.421875" xlink:href="#DejaVuSans-6e"/>
     <use x="1295.800781" xlink:href="#DejaVuSans-73"/>
     <use x="1347.900391" xlink:href="#DejaVuSans-75"/>
     <use x="1411.279297" xlink:href="#DejaVuSans-73"/>
     <use x="1463.378906" xlink:href="#DejaVuSans-20"/>
     <use x="1495.166016" xlink:href="#DejaVuSans-65"/>
     <use x="1556.689453" xlink:href="#DejaVuSans-73"/>
     <use x="1608.789062" xlink:href="#DejaVuSans-74"/>
     <use x="1647.998047" xlink:href="#DejaVuSans-69"/>
     <use x="1675.78125" xlink:href="#DejaVuSans-6d"/>
     <use x="1773.193359" xlink:href="#DejaVuSans-61"/>
     <use x="1834.472656" xlink:href="#DejaVuSans-74"/>
     <use x="1873.681641" xlink:href="#DejaVuSans-65"/>
     <use x="1935.205078" xlink:href="#DejaVuSans-64"/>
     <use x="1998.681641" xlink:href="#DejaVuSans-20"/>
     <use x="2030.46875" xlink:href="#DejaVuSans-63"/>
     <use x="2085.449219" xlink:href="#DejaVuSans-6f"/>
     <use x="2146.630859" xlink:href="#DejaVuSans-6d"/>
     <use x="2244.042969" xlink:href="#DejaVuSans-70"/>
     <use x="2307.519531" xlink:href="#DejaVuSans-6f"/>
     <use x="2368.701172" xlink:href="#DejaVuSans-6e"/>
     <use x="2432.080078" xlink:href="#DejaVuSans-65"/>
     <use x="2493.603516" xlink:href="#DejaVuSans-6e"/>
     <use x="2556.982422" xlink:href="#DejaVuSans-74"/>
     <use x="2596.191406" xlink:href="#DejaVuSans-73"/>
    </g>
   </g>
   <g id="legend_1">
    <g id="patch_9">
     <path d="M 364.415504 62.79625 
L 444.184254 62.79625 
Q 446.184254 62.79625 446.184254 60.79625 
L 446.184254 32.44 
Q 446.184254 30.44 444.184254 30.44 
L 364.415504 30.44 
Q 362.415504 30.44 362.415504 32.44 
L 362.415504 60.79625 
Q 362.415504 62.79625 364.415504 62.79625 
z
" style="fill:#ffffff;opacity:0.8;stroke:#cccccc;stroke-linejoin:miter;"/>
    </g>
    <g id="patch_10">
     <path d="M 366.415504 42.038437 
L 386.415504 42.038437 
L 386.415504 35.038437 
L 366.415504 35.038437 
z
" style="fill:#2020df;stroke:#4c4c4c;stroke-linejoin:miter;stroke-width:0.75;"/>
    </g>
    <g id="text_12">
     <!-- Clustered -->
     <g transform="translate(394.415504 42.038437)scale(0.1 -0.1)">
      <use xlink:href="#DejaVuSans-43"/>
      <use x="69.824219" xlink:href="#DejaVuSans-6c"/>
      <use x="97.607422" xlink:href="#DejaVuSans-75"/>
      <use x="160.986328" xlink:href="#DejaVuSans-73"/>
      <use x="213.085938" xlink:href="#DejaVuSans-74"/>
      <use x="252.294922" xlink:href="#DejaVuSans-65"/>
      <use x="313.818359" xlink:href="#DejaVuSans-72"/>
      <use x="352.681641" xlink:href="#DejaVuSans-65"/>
      <use x="414.205078" xlink:href="#DejaVuSans-64"/>
     </g>
    </g>
    <g id="patch_11">
     <path d="M 366.415504 56.716563 
L 386.415504 56.716563 
L 386.415504 49.716563 
L 366.415504 49.716563 
z
" style="fill:#20dfdf;stroke:#4c4c4c;stroke-linejoin:miter;stroke-width:0.75;"/>
    </g>
    <g id="text_13">
     <!-- Random -->
     <g transform="translate(394.415504 56.716563)scale(0.1 -0.1)">
      <defs>
       <path d="M 2841 2188 
Q 3044 2119 3236 1894 
Q 3428 1669 3622 1275 
L 4263 0 
L 3584 0 
L 2988 1197 
Q 2756 1666 2539 1819 
Q 2322 1972 1947 1972 
L 1259 1972 
L 1259 0 
L 628 0 
L 628 4666 
L 2053 4666 
Q 2853 4666 3247 4331 
Q 3641 3997 3641 3322 
Q 3641 2881 3436 2590 
Q 3231 2300 2841 2188 
z
M 1259 4147 
L 1259 2491 
L 2053 2491 
Q 2509 2491 2742 2702 
Q 2975 2913 2975 3322 
Q 2975 3731 2742 3939 
Q 2509 4147 2053 4147 
L 1259 4147 
z
" id="DejaVuSans-52" transform="scale(0.015625)"/>
      </defs>
      <use xlink:href="#DejaVuSans-52"/>
      <use x="67.232422" xlink:href="#DejaVuSans-61"/>
      <use x="128.511719" xlink:href="#DejaVuSans-6e"/>
      <use x="191.890625" xlink:href="#DejaVuSans-64"/>
      <use x="255.367188" xlink:href="#DejaVuSans-6f"/>
      <use x="316.548828" xlink:href="#DejaVuSans-6d"/>
     </g>
    </g>
   </g>
  </g>
 </g>
 <defs>
  <clipPath id="pd2c2c72143">
   <rect height="278.2" width="297.6976" x="47.81" y="25.44"/>
  </clipPath>
 </defs>
</svg>
