<?xml version="1.0" encoding="utf-8" standalone="no"?>
<!DOCTYPE svg PUBLIC "-//W3C//DTD SVG 1.1//EN"
  "http://www.w3.org/Graphics/SVG/1.1/DTD/svg11.dtd">
<svg height="418.65645pt" version="1.1" viewBox="0 0 1219.38375 418.65645" width="1219.38375pt" xmlns="http://www.w3.org/2000/svg" xmlns:xlink="http://www.w3.org/1999/xlink">
 <metadata>
  <rdf:RDF xmlns:cc="http://creativecommons.org/ns#" xmlns:dc="http://purl.org/dc/elements/1.1/" xmlns:rdf="http://www.w3.org/1999/02/22-rdf-syntax-ns#">
   <cc:Work>
    <dc:type rdf:resource="http://purl.org/dc/dcmitype/StillImage"/>
    <dc:date>2021-12-22T15:42:51.869071</dc:date>
    <dc:format>image/svg+xml</dc:format>
    <dc:creator>
     <cc:Agent>
      <dc:title>Matplotlib v3.4.3, https://matplotlib.org/</dc:title>
     </cc:Agent>
    </dc:creator>
   </cc:Work>
  </rdf:RDF>
 </metadata>
 <defs>
  <style type="text/css">*{stroke-linecap:butt;stroke-linejoin:round;}</style>
 </defs>
 <g id="figure_1">
  <g id="patch_1">
   <path d="M 0 418.65645 
L 1219.38375 418.65645 
L 1219.38375 0 
L 0 0 
z
" style="fill:#ffffff;"/>
  </g>
  <g id="axes_1">
   <g id="patch_2">
    <path d="M 107.35425 344.5332 
L 944.35425 344.5332 
L 944.35425 67.3332 
L 107.35425 67.3332 
z
" style="fill:#ffffff;"/>
   </g>
   <g id="matplotlib.axis_1">
    <g id="xtick_1">
     <g id="text_1">
      <!-- 2 -->
      <g style="fill:#262626;" transform="translate(238.45575 374.093075)scale(0.264 -0.264)">
       <defs>
        <path d="M 1228 531 
L 3431 531 
L 3431 0 
L 469 0 
L 469 531 
Q 828 903 1448 1529 
Q 2069 2156 2228 2338 
Q 2531 2678 2651 2914 
Q 2772 3150 2772 3378 
Q 2772 3750 2511 3984 
Q 2250 4219 1831 4219 
Q 1534 4219 1204 4116 
Q 875 4013 500 3803 
L 500 4441 
Q 881 4594 1212 4672 
Q 1544 4750 1819 4750 
Q 2544 4750 2975 4387 
Q 3406 4025 3406 3419 
Q 3406 3131 3298 2873 
Q 3191 2616 2906 2266 
Q 2828 2175 2409 1742 
Q 1991 1309 1228 531 
z
" id="DejaVuSans-32" transform="scale(0.015625)"/>
       </defs>
       <use xlink:href="#DejaVuSans-32"/>
      </g>
     </g>
    </g>
    <g id="xtick_2">
     <g id="text_2">
      <!-- 3 -->
      <g style="fill:#262626;" transform="translate(517.45575 374.093075)scale(0.264 -0.264)">
       <defs>
        <path d="M 2597 2516 
Q 3050 2419 3304 2112 
Q 3559 1806 3559 1356 
Q 3559 666 3084 287 
Q 2609 -91 1734 -91 
Q 1441 -91 1130 -33 
Q 819 25 488 141 
L 488 750 
Q 750 597 1062 519 
Q 1375 441 1716 441 
Q 2309 441 2620 675 
Q 2931 909 2931 1356 
Q 2931 1769 2642 2001 
Q 2353 2234 1838 2234 
L 1294 2234 
L 1294 2753 
L 1863 2753 
Q 2328 2753 2575 2939 
Q 2822 3125 2822 3475 
Q 2822 3834 2567 4026 
Q 2313 4219 1838 4219 
Q 1578 4219 1281 4162 
Q 984 4106 628 3988 
L 628 4550 
Q 988 4650 1302 4700 
Q 1616 4750 1894 4750 
Q 2613 4750 3031 4423 
Q 3450 4097 3450 3541 
Q 3450 3153 3228 2886 
Q 3006 2619 2597 2516 
z
" id="DejaVuSans-33" transform="scale(0.015625)"/>
       </defs>
       <use xlink:href="#DejaVuSans-33"/>
      </g>
     </g>
    </g>
    <g id="xtick_3">
     <g id="text_3">
      <!-- 4 -->
      <g style="fill:#262626;" transform="translate(796.45575 374.093075)scale(0.264 -0.264)">
       <defs>
        <path d="M 2419 4116 
L 825 1625 
L 2419 1625 
L 2419 4116 
z
M 2253 4666 
L 3047 4666 
L 3047 1625 
L 3713 1625 
L 3713 1100 
L 3047 1100 
L 3047 0 
L 2419 0 
L 2419 1100 
L 313 1100 
L 313 1709 
L 2253 4666 
z
" id="DejaVuSans-34" transform="scale(0.015625)"/>
       </defs>
       <use xlink:href="#DejaVuSans-34"/>
      </g>
     </g>
    </g>
    <g id="text_4">
     <!-- Number of splits -->
     <g style="fill:#262626;" transform="translate(407.1825 405.46695)scale(0.288 -0.288)">
      <defs>
       <path d="M 628 4666 
L 1478 4666 
L 3547 763 
L 3547 4666 
L 4159 4666 
L 4159 0 
L 3309 0 
L 1241 3903 
L 1241 0 
L 628 0 
L 628 4666 
z
" id="DejaVuSans-4e" transform="scale(0.015625)"/>
       <path d="M 544 1381 
L 544 3500 
L 1119 3500 
L 1119 1403 
Q 1119 906 1312 657 
Q 1506 409 1894 409 
Q 2359 409 2629 706 
Q 2900 1003 2900 1516 
L 2900 3500 
L 3475 3500 
L 3475 0 
L 2900 0 
L 2900 538 
Q 2691 219 2414 64 
Q 2138 -91 1772 -91 
Q 1169 -91 856 284 
Q 544 659 544 1381 
z
M 1991 3584 
L 1991 3584 
z
" id="DejaVuSans-75" transform="scale(0.015625)"/>
       <path d="M 3328 2828 
Q 3544 3216 3844 3400 
Q 4144 3584 4550 3584 
Q 5097 3584 5394 3201 
Q 5691 2819 5691 2113 
L 5691 0 
L 5113 0 
L 5113 2094 
Q 5113 2597 4934 2840 
Q 4756 3084 4391 3084 
Q 3944 3084 3684 2787 
Q 3425 2491 3425 1978 
L 3425 0 
L 2847 0 
L 2847 2094 
Q 2847 2600 2669 2842 
Q 2491 3084 2119 3084 
Q 1678 3084 1418 2786 
Q 1159 2488 1159 1978 
L 1159 0 
L 581 0 
L 581 3500 
L 1159 3500 
L 1159 2956 
Q 1356 3278 1631 3431 
Q 1906 3584 2284 3584 
Q 2666 3584 2933 3390 
Q 3200 3197 3328 2828 
z
" id="DejaVuSans-6d" transform="scale(0.015625)"/>
       <path d="M 3116 1747 
Q 3116 2381 2855 2742 
Q 2594 3103 2138 3103 
Q 1681 3103 1420 2742 
Q 1159 2381 1159 1747 
Q 1159 1113 1420 752 
Q 1681 391 2138 391 
Q 2594 391 2855 752 
Q 3116 1113 3116 1747 
z
M 1159 2969 
Q 1341 3281 1617 3432 
Q 1894 3584 2278 3584 
Q 2916 3584 3314 3078 
Q 3713 2572 3713 1747 
Q 3713 922 3314 415 
Q 2916 -91 2278 -91 
Q 1894 -91 1617 61 
Q 1341 213 1159 525 
L 1159 0 
L 581 0 
L 581 4863 
L 1159 4863 
L 1159 2969 
z
" id="DejaVuSans-62" transform="scale(0.015625)"/>
       <path d="M 3597 1894 
L 3597 1613 
L 953 1613 
Q 991 1019 1311 708 
Q 1631 397 2203 397 
Q 2534 397 2845 478 
Q 3156 559 3463 722 
L 3463 178 
Q 3153 47 2828 -22 
Q 2503 -91 2169 -91 
Q 1331 -91 842 396 
Q 353 884 353 1716 
Q 353 2575 817 3079 
Q 1281 3584 2069 3584 
Q 2775 3584 3186 3129 
Q 3597 2675 3597 1894 
z
M 3022 2063 
Q 3016 2534 2758 2815 
Q 2500 3097 2075 3097 
Q 1594 3097 1305 2825 
Q 1016 2553 972 2059 
L 3022 2063 
z
" id="DejaVuSans-65" transform="scale(0.015625)"/>
       <path d="M 2631 2963 
Q 2534 3019 2420 3045 
Q 2306 3072 2169 3072 
Q 1681 3072 1420 2755 
Q 1159 2438 1159 1844 
L 1159 0 
L 581 0 
L 581 3500 
L 1159 3500 
L 1159 2956 
Q 1341 3275 1631 3429 
Q 1922 3584 2338 3584 
Q 2397 3584 2469 3576 
Q 2541 3569 2628 3553 
L 2631 2963 
z
" id="DejaVuSans-72" transform="scale(0.015625)"/>
       <path id="DejaVuSans-20" transform="scale(0.015625)"/>
       <path d="M 1959 3097 
Q 1497 3097 1228 2736 
Q 959 2375 959 1747 
Q 959 1119 1226 758 
Q 1494 397 1959 397 
Q 2419 397 2687 759 
Q 2956 1122 2956 1747 
Q 2956 2369 2687 2733 
Q 2419 3097 1959 3097 
z
M 1959 3584 
Q 2709 3584 3137 3096 
Q 3566 2609 3566 1747 
Q 3566 888 3137 398 
Q 2709 -91 1959 -91 
Q 1206 -91 779 398 
Q 353 888 353 1747 
Q 353 2609 779 3096 
Q 1206 3584 1959 3584 
z
" id="DejaVuSans-6f" transform="scale(0.015625)"/>
       <path d="M 2375 4863 
L 2375 4384 
L 1825 4384 
Q 1516 4384 1395 4259 
Q 1275 4134 1275 3809 
L 1275 3500 
L 2222 3500 
L 2222 3053 
L 1275 3053 
L 1275 0 
L 697 0 
L 697 3053 
L 147 3053 
L 147 3500 
L 697 3500 
L 697 3744 
Q 697 4328 969 4595 
Q 1241 4863 1831 4863 
L 2375 4863 
z
" id="DejaVuSans-66" transform="scale(0.015625)"/>
       <path d="M 2834 3397 
L 2834 2853 
Q 2591 2978 2328 3040 
Q 2066 3103 1784 3103 
Q 1356 3103 1142 2972 
Q 928 2841 928 2578 
Q 928 2378 1081 2264 
Q 1234 2150 1697 2047 
L 1894 2003 
Q 2506 1872 2764 1633 
Q 3022 1394 3022 966 
Q 3022 478 2636 193 
Q 2250 -91 1575 -91 
Q 1294 -91 989 -36 
Q 684 19 347 128 
L 347 722 
Q 666 556 975 473 
Q 1284 391 1588 391 
Q 1994 391 2212 530 
Q 2431 669 2431 922 
Q 2431 1156 2273 1281 
Q 2116 1406 1581 1522 
L 1381 1569 
Q 847 1681 609 1914 
Q 372 2147 372 2553 
Q 372 3047 722 3315 
Q 1072 3584 1716 3584 
Q 2034 3584 2315 3537 
Q 2597 3491 2834 3397 
z
" id="DejaVuSans-73" transform="scale(0.015625)"/>
       <path d="M 1159 525 
L 1159 -1331 
L 581 -1331 
L 581 3500 
L 1159 3500 
L 1159 2969 
Q 1341 3281 1617 3432 
Q 1894 3584 2278 3584 
Q 2916 3584 3314 3078 
Q 3713 2572 3713 1747 
Q 3713 922 3314 415 
Q 2916 -91 2278 -91 
Q 1894 -91 1617 61 
Q 1341 213 1159 525 
z
M 3116 1747 
Q 3116 2381 2855 2742 
Q 2594 3103 2138 3103 
Q 1681 3103 1420 2742 
Q 1159 2381 1159 1747 
Q 1159 1113 1420 752 
Q 1681 391 2138 391 
Q 2594 391 2855 752 
Q 3116 1113 3116 1747 
z
" id="DejaVuSans-70" transform="scale(0.015625)"/>
       <path d="M 603 4863 
L 1178 4863 
L 1178 0 
L 603 0 
L 603 4863 
z
" id="DejaVuSans-6c" transform="scale(0.015625)"/>
       <path d="M 603 3500 
L 1178 3500 
L 1178 0 
L 603 0 
L 603 3500 
z
M 603 4863 
L 1178 4863 
L 1178 4134 
L 603 4134 
L 603 4863 
z
" id="DejaVuSans-69" transform="scale(0.015625)"/>
       <path d="M 1172 4494 
L 1172 3500 
L 2356 3500 
L 2356 3053 
L 1172 3053 
L 1172 1153 
Q 1172 725 1289 603 
Q 1406 481 1766 481 
L 2356 481 
L 2356 0 
L 1766 0 
Q 1100 0 847 248 
Q 594 497 594 1153 
L 594 3053 
L 172 3053 
L 172 3500 
L 594 3500 
L 594 4494 
L 1172 4494 
z
" id="DejaVuSans-74" transform="scale(0.015625)"/>
      </defs>
      <use xlink:href="#DejaVuSans-4e"/>
      <use x="74.804688" xlink:href="#DejaVuSans-75"/>
      <use x="138.183594" xlink:href="#DejaVuSans-6d"/>
      <use x="235.595703" xlink:href="#DejaVuSans-62"/>
      <use x="299.072266" xlink:href="#DejaVuSans-65"/>
      <use x="360.595703" xlink:href="#DejaVuSans-72"/>
      <use x="401.708984" xlink:href="#DejaVuSans-20"/>
      <use x="433.496094" xlink:href="#DejaVuSans-6f"/>
      <use x="494.677734" xlink:href="#DejaVuSans-66"/>
      <use x="529.882812" xlink:href="#DejaVuSans-20"/>
      <use x="561.669922" xlink:href="#DejaVuSans-73"/>
      <use x="613.769531" xlink:href="#DejaVuSans-70"/>
      <use x="677.246094" xlink:href="#DejaVuSans-6c"/>
      <use x="705.029297" xlink:href="#DejaVuSans-69"/>
      <use x="732.8125" xlink:href="#DejaVuSans-74"/>
      <use x="772.021484" xlink:href="#DejaVuSans-73"/>
     </g>
    </g>
   </g>
   <g id="matplotlib.axis_2">
    <g id="ytick_1">
     <g id="line2d_1">
      <path clip-path="url(#p434fa585cb)" d="M 107.35425 316.756247 
L 944.35425 316.756247 
" style="fill:none;stroke:#cccccc;stroke-linecap:round;"/>
     </g>
     <g id="text_5">
      <!-- 0.00 -->
      <g style="fill:#262626;" transform="translate(39.073 326.786185)scale(0.264 -0.264)">
       <defs>
        <path d="M 2034 4250 
Q 1547 4250 1301 3770 
Q 1056 3291 1056 2328 
Q 1056 1369 1301 889 
Q 1547 409 2034 409 
Q 2525 409 2770 889 
Q 3016 1369 3016 2328 
Q 3016 3291 2770 3770 
Q 2525 4250 2034 4250 
z
M 2034 4750 
Q 2819 4750 3233 4129 
Q 3647 3509 3647 2328 
Q 3647 1150 3233 529 
Q 2819 -91 2034 -91 
Q 1250 -91 836 529 
Q 422 1150 422 2328 
Q 422 3509 836 4129 
Q 1250 4750 2034 4750 
z
" id="DejaVuSans-30" transform="scale(0.015625)"/>
        <path d="M 684 794 
L 1344 794 
L 1344 0 
L 684 0 
L 684 794 
z
" id="DejaVuSans-2e" transform="scale(0.015625)"/>
       </defs>
       <use xlink:href="#DejaVuSans-30"/>
       <use x="63.623047" xlink:href="#DejaVuSans-2e"/>
       <use x="95.410156" xlink:href="#DejaVuSans-30"/>
       <use x="159.033203" xlink:href="#DejaVuSans-30"/>
      </g>
     </g>
    </g>
    <g id="ytick_2">
     <g id="line2d_2">
      <path clip-path="url(#p434fa585cb)" d="M 107.35425 259.605184 
L 944.35425 259.605184 
" style="fill:none;stroke:#cccccc;stroke-linecap:round;"/>
     </g>
     <g id="text_6">
      <!-- 0.25 -->
      <g style="fill:#262626;" transform="translate(39.073 269.635122)scale(0.264 -0.264)">
       <defs>
        <path d="M 691 4666 
L 3169 4666 
L 3169 4134 
L 1269 4134 
L 1269 2991 
Q 1406 3038 1543 3061 
Q 1681 3084 1819 3084 
Q 2600 3084 3056 2656 
Q 3513 2228 3513 1497 
Q 3513 744 3044 326 
Q 2575 -91 1722 -91 
Q 1428 -91 1123 -41 
Q 819 9 494 109 
L 494 744 
Q 775 591 1075 516 
Q 1375 441 1709 441 
Q 2250 441 2565 725 
Q 2881 1009 2881 1497 
Q 2881 1984 2565 2268 
Q 2250 2553 1709 2553 
Q 1456 2553 1204 2497 
Q 953 2441 691 2322 
L 691 4666 
z
" id="DejaVuSans-35" transform="scale(0.015625)"/>
       </defs>
       <use xlink:href="#DejaVuSans-30"/>
       <use x="63.623047" xlink:href="#DejaVuSans-2e"/>
       <use x="95.410156" xlink:href="#DejaVuSans-32"/>
       <use x="159.033203" xlink:href="#DejaVuSans-35"/>
      </g>
     </g>
    </g>
    <g id="ytick_3">
     <g id="line2d_3">
      <path clip-path="url(#p434fa585cb)" d="M 107.35425 202.454121 
L 944.35425 202.454121 
" style="fill:none;stroke:#cccccc;stroke-linecap:round;"/>
     </g>
     <g id="text_7">
      <!-- 0.50 -->
      <g style="fill:#262626;" transform="translate(39.073 212.484059)scale(0.264 -0.264)">
       <use xlink:href="#DejaVuSans-30"/>
       <use x="63.623047" xlink:href="#DejaVuSans-2e"/>
       <use x="95.410156" xlink:href="#DejaVuSans-35"/>
       <use x="159.033203" xlink:href="#DejaVuSans-30"/>
      </g>
     </g>
    </g>
    <g id="ytick_4">
     <g id="line2d_4">
      <path clip-path="url(#p434fa585cb)" d="M 107.35425 145.303058 
L 944.35425 145.303058 
" style="fill:none;stroke:#cccccc;stroke-linecap:round;"/>
     </g>
     <g id="text_8">
      <!-- 0.75 -->
      <g style="fill:#262626;" transform="translate(39.073 155.332996)scale(0.264 -0.264)">
       <defs>
        <path d="M 525 4666 
L 3525 4666 
L 3525 4397 
L 1831 0 
L 1172 0 
L 2766 4134 
L 525 4134 
L 525 4666 
z
" id="DejaVuSans-37" transform="scale(0.015625)"/>
       </defs>
       <use xlink:href="#DejaVuSans-30"/>
       <use x="63.623047" xlink:href="#DejaVuSans-2e"/>
       <use x="95.410156" xlink:href="#DejaVuSans-37"/>
       <use x="159.033203" xlink:href="#DejaVuSans-35"/>
      </g>
     </g>
    </g>
    <g id="ytick_5">
     <g id="line2d_5">
      <path clip-path="url(#p434fa585cb)" d="M 107.35425 88.151996 
L 944.35425 88.151996 
" style="fill:none;stroke:#cccccc;stroke-linecap:round;"/>
     </g>
     <g id="text_9">
      <!-- 1.00 -->
      <g style="fill:#262626;" transform="translate(39.073 98.181933)scale(0.264 -0.264)">
       <defs>
        <path d="M 794 531 
L 1825 531 
L 1825 4091 
L 703 3866 
L 703 4441 
L 1819 4666 
L 2450 4666 
L 2450 531 
L 3481 531 
L 3481 0 
L 794 0 
L 794 531 
z
" id="DejaVuSans-31" transform="scale(0.015625)"/>
       </defs>
       <use xlink:href="#DejaVuSans-31"/>
       <use x="63.623047" xlink:href="#DejaVuSans-2e"/>
       <use x="95.410156" xlink:href="#DejaVuSans-30"/>
       <use x="159.033203" xlink:href="#DejaVuSans-30"/>
      </g>
     </g>
    </g>
    <g id="text_10">
     <!-- Pearson correlation -->
     <g style="fill:#262626;" transform="translate(29.0835 344.9742)rotate(-90)scale(0.288 -0.288)">
      <defs>
       <path d="M 1259 4147 
L 1259 2394 
L 2053 2394 
Q 2494 2394 2734 2622 
Q 2975 2850 2975 3272 
Q 2975 3691 2734 3919 
Q 2494 4147 2053 4147 
L 1259 4147 
z
M 628 4666 
L 2053 4666 
Q 2838 4666 3239 4311 
Q 3641 3956 3641 3272 
Q 3641 2581 3239 2228 
Q 2838 1875 2053 1875 
L 1259 1875 
L 1259 0 
L 628 0 
L 628 4666 
z
" id="DejaVuSans-50" transform="scale(0.015625)"/>
       <path d="M 2194 1759 
Q 1497 1759 1228 1600 
Q 959 1441 959 1056 
Q 959 750 1161 570 
Q 1363 391 1709 391 
Q 2188 391 2477 730 
Q 2766 1069 2766 1631 
L 2766 1759 
L 2194 1759 
z
M 3341 1997 
L 3341 0 
L 2766 0 
L 2766 531 
Q 2569 213 2275 61 
Q 1981 -91 1556 -91 
Q 1019 -91 701 211 
Q 384 513 384 1019 
Q 384 1609 779 1909 
Q 1175 2209 1959 2209 
L 2766 2209 
L 2766 2266 
Q 2766 2663 2505 2880 
Q 2244 3097 1772 3097 
Q 1472 3097 1187 3025 
Q 903 2953 641 2809 
L 641 3341 
Q 956 3463 1253 3523 
Q 1550 3584 1831 3584 
Q 2591 3584 2966 3190 
Q 3341 2797 3341 1997 
z
" id="DejaVuSans-61" transform="scale(0.015625)"/>
       <path d="M 3513 2113 
L 3513 0 
L 2938 0 
L 2938 2094 
Q 2938 2591 2744 2837 
Q 2550 3084 2163 3084 
Q 1697 3084 1428 2787 
Q 1159 2491 1159 1978 
L 1159 0 
L 581 0 
L 581 3500 
L 1159 3500 
L 1159 2956 
Q 1366 3272 1645 3428 
Q 1925 3584 2291 3584 
Q 2894 3584 3203 3211 
Q 3513 2838 3513 2113 
z
" id="DejaVuSans-6e" transform="scale(0.015625)"/>
       <path d="M 3122 3366 
L 3122 2828 
Q 2878 2963 2633 3030 
Q 2388 3097 2138 3097 
Q 1578 3097 1268 2742 
Q 959 2388 959 1747 
Q 959 1106 1268 751 
Q 1578 397 2138 397 
Q 2388 397 2633 464 
Q 2878 531 3122 666 
L 3122 134 
Q 2881 22 2623 -34 
Q 2366 -91 2075 -91 
Q 1284 -91 818 406 
Q 353 903 353 1747 
Q 353 2603 823 3093 
Q 1294 3584 2113 3584 
Q 2378 3584 2631 3529 
Q 2884 3475 3122 3366 
z
" id="DejaVuSans-63" transform="scale(0.015625)"/>
      </defs>
      <use xlink:href="#DejaVuSans-50"/>
      <use x="56.677734" xlink:href="#DejaVuSans-65"/>
      <use x="118.201172" xlink:href="#DejaVuSans-61"/>
      <use x="179.480469" xlink:href="#DejaVuSans-72"/>
      <use x="220.59375" xlink:href="#DejaVuSans-73"/>
      <use x="272.693359" xlink:href="#DejaVuSans-6f"/>
      <use x="333.875" xlink:href="#DejaVuSans-6e"/>
      <use x="397.253906" xlink:href="#DejaVuSans-20"/>
      <use x="429.041016" xlink:href="#DejaVuSans-63"/>
      <use x="484.021484" xlink:href="#DejaVuSans-6f"/>
      <use x="545.203125" xlink:href="#DejaVuSans-72"/>
      <use x="584.566406" xlink:href="#DejaVuSans-72"/>
      <use x="623.429688" xlink:href="#DejaVuSans-65"/>
      <use x="684.953125" xlink:href="#DejaVuSans-6c"/>
      <use x="712.736328" xlink:href="#DejaVuSans-61"/>
      <use x="774.015625" xlink:href="#DejaVuSans-74"/>
      <use x="813.224609" xlink:href="#DejaVuSans-69"/>
      <use x="841.007812" xlink:href="#DejaVuSans-6f"/>
      <use x="902.189453" xlink:href="#DejaVuSans-6e"/>
     </g>
    </g>
   </g>
   <g id="PolyCollection_1">
    <defs>
     <path d="M 246.85425 -104.778543 
L 246.713766 -104.778543 
L 246.643277 -107.141621 
L 246.550169 -109.504699 
L 246.433092 -111.867777 
L 246.292792 -114.230855 
L 246.132216 -116.593933 
L 245.956016 -118.95701 
L 245.769505 -121.320088 
L 245.577369 -123.683166 
L 245.382604 -126.046244 
L 245.186159 -128.409322 
L 244.987547 -130.7724 
L 244.786257 -133.135478 
L 244.583424 -135.498555 
L 244.382982 -137.861633 
L 244.191683 -140.224711 
L 244.017801 -142.587789 
L 243.86896 -144.950867 
L 243.749942 -147.313945 
L 243.661448 -149.677022 
L 243.600423 -152.0401 
L 243.561911 -154.403178 
L 243.541744 -156.766256 
L 243.538964 -159.129334 
L 243.556927 -161.492412 
L 243.602483 -163.85549 
L 243.683359 -166.218567 
L 243.804581 -168.581645 
L 243.965163 -170.944723 
L 244.156306 -173.307801 
L 244.361854 -175.670879 
L 244.561072 -178.033957 
L 244.733004 -180.397034 
L 244.861227 -182.760112 
L 244.937649 -185.12319 
L 244.964379 -187.486268 
L 244.95322 -189.849346 
L 244.923061 -192.212424 
L 244.895904 -194.575501 
L 244.892514 -196.938579 
L 244.92866 -199.301657 
L 245.01261 -201.664735 
L 245.144186 -204.027813 
L 245.315321 -206.390891 
L 245.511709 -208.753969 
L 245.71499 -211.117046 
L 245.904849 -213.480124 
L 246.060479 -215.843202 
L 246.161096 -218.20628 
L 246.185488 -220.569358 
L 246.110863 -222.932436 
L 245.911561 -225.295513 
L 245.558317 -227.658591 
L 245.018743 -230.021669 
L 244.259503 -232.384747 
L 243.250231 -234.747825 
L 241.968731 -237.110903 
L 240.406445 -239.473981 
L 238.572759 -241.837058 
L 236.496717 -244.200136 
L 234.225063 -246.563214 
L 231.816463 -248.926292 
L 229.332714 -251.28937 
L 226.828617 -253.652448 
L 224.342442 -256.015525 
L 221.888439 -258.378603 
L 219.451895 -260.741681 
L 216.986227 -263.104759 
L 214.411229 -265.467837 
L 211.612156 -267.830915 
L 208.440832 -270.193993 
L 204.721794 -272.55707 
L 200.267615 -274.920148 
L 194.907033 -277.283226 
L 188.526631 -279.646304 
L 181.121885 -282.009382 
L 172.847602 -284.37246 
L 164.053219 -286.735537 
L 155.287509 -289.098615 
L 147.261452 -291.461693 
L 140.767379 -293.824771 
L 136.564746 -296.187849 
L 135.25425 -298.550927 
L 137.168256 -300.914004 
L 142.30394 -303.277082 
L 150.315936 -305.64016 
L 160.570495 -308.003238 
L 172.247861 -310.366316 
L 184.468593 -312.729394 
L 196.416018 -315.092472 
L 207.431208 -317.455549 
L 217.066648 -319.818627 
L 225.096365 -322.181705 
L 231.490196 -324.544783 
L 236.365606 -326.907861 
L 239.931626 -329.270939 
L 242.436869 -331.634016 
L 244.129088 -333.997094 
L 245.228981 -336.360172 
L 245.917307 -338.72325 
L 246.85425 -338.72325 
L 246.85425 -338.72325 
L 246.85425 -336.360172 
L 246.85425 -333.997094 
L 246.85425 -331.634016 
L 246.85425 -329.270939 
L 246.85425 -326.907861 
L 246.85425 -324.544783 
L 246.85425 -322.181705 
L 246.85425 -319.818627 
L 246.85425 -317.455549 
L 246.85425 -315.092472 
L 246.85425 -312.729394 
L 246.85425 -310.366316 
L 246.85425 -308.003238 
L 246.85425 -305.64016 
L 246.85425 -303.277082 
L 246.85425 -300.914004 
L 246.85425 -298.550927 
L 246.85425 -296.187849 
L 246.85425 -293.824771 
L 246.85425 -291.461693 
L 246.85425 -289.098615 
L 246.85425 -286.735537 
L 246.85425 -284.37246 
L 246.85425 -282.009382 
L 246.85425 -279.646304 
L 246.85425 -277.283226 
L 246.85425 -274.920148 
L 246.85425 -272.55707 
L 246.85425 -270.193993 
L 246.85425 -267.830915 
L 246.85425 -265.467837 
L 246.85425 -263.104759 
L 246.85425 -260.741681 
L 246.85425 -258.378603 
L 246.85425 -256.015525 
L 246.85425 -253.652448 
L 246.85425 -251.28937 
L 246.85425 -248.926292 
L 246.85425 -246.563214 
L 246.85425 -244.200136 
L 246.85425 -241.837058 
L 246.85425 -239.473981 
L 246.85425 -237.110903 
L 246.85425 -234.747825 
L 246.85425 -232.384747 
L 246.85425 -230.021669 
L 246.85425 -227.658591 
L 246.85425 -225.295513 
L 246.85425 -222.932436 
L 246.85425 -220.569358 
L 246.85425 -218.20628 
L 246.85425 -215.843202 
L 246.85425 -213.480124 
L 246.85425 -211.117046 
L 246.85425 -208.753969 
L 246.85425 -206.390891 
L 246.85425 -204.027813 
L 246.85425 -201.664735 
L 246.85425 -199.301657 
L 246.85425 -196.938579 
L 246.85425 -194.575501 
L 246.85425 -192.212424 
L 246.85425 -189.849346 
L 246.85425 -187.486268 
L 246.85425 -185.12319 
L 246.85425 -182.760112 
L 246.85425 -180.397034 
L 246.85425 -178.033957 
L 246.85425 -175.670879 
L 246.85425 -173.307801 
L 246.85425 -170.944723 
L 246.85425 -168.581645 
L 246.85425 -166.218567 
L 246.85425 -163.85549 
L 246.85425 -161.492412 
L 246.85425 -159.129334 
L 246.85425 -156.766256 
L 246.85425 -154.403178 
L 246.85425 -152.0401 
L 246.85425 -149.677022 
L 246.85425 -147.313945 
L 246.85425 -144.950867 
L 246.85425 -142.587789 
L 246.85425 -140.224711 
L 246.85425 -137.861633 
L 246.85425 -135.498555 
L 246.85425 -133.135478 
L 246.85425 -130.7724 
L 246.85425 -128.409322 
L 246.85425 -126.046244 
L 246.85425 -123.683166 
L 246.85425 -121.320088 
L 246.85425 -118.95701 
L 246.85425 -116.593933 
L 246.85425 -114.230855 
L 246.85425 -111.867777 
L 246.85425 -109.504699 
L 246.85425 -107.141621 
L 246.85425 -104.778543 
z
" id="m74c92516a0" style="stroke:#4c4c4c;stroke-width:1.5;"/>
    </defs>
    <g clip-path="url(#p434fa585cb)">
     <use style="fill:#2020df;stroke:#4c4c4c;stroke-width:1.5;" x="0" xlink:href="#m74c92516a0" y="418.65645"/>
    </g>
   </g>
   <g id="PolyCollection_2">
    <defs>
     <path d="M 247.090599 -86.72325 
L 246.85425 -86.72325 
L 246.85425 -89.247772 
L 246.85425 -91.772294 
L 246.85425 -94.296816 
L 246.85425 -96.821338 
L 246.85425 -99.34586 
L 246.85425 -101.870382 
L 246.85425 -104.394904 
L 246.85425 -106.919426 
L 246.85425 -109.443948 
L 246.85425 -111.96847 
L 246.85425 -114.492992 
L 246.85425 -117.017514 
L 246.85425 -119.542036 
L 246.85425 -122.066558 
L 246.85425 -124.59108 
L 246.85425 -127.115602 
L 246.85425 -129.640124 
L 246.85425 -132.164646 
L 246.85425 -134.689168 
L 246.85425 -137.21369 
L 246.85425 -139.738212 
L 246.85425 -142.262734 
L 246.85425 -144.787256 
L 246.85425 -147.311778 
L 246.85425 -149.8363 
L 246.85425 -152.360822 
L 246.85425 -154.885344 
L 246.85425 -157.409866 
L 246.85425 -159.934387 
L 246.85425 -162.458909 
L 246.85425 -164.983431 
L 246.85425 -167.507953 
L 246.85425 -170.032475 
L 246.85425 -172.556997 
L 246.85425 -175.081519 
L 246.85425 -177.606041 
L 246.85425 -180.130563 
L 246.85425 -182.655085 
L 246.85425 -185.179607 
L 246.85425 -187.704129 
L 246.85425 -190.228651 
L 246.85425 -192.753173 
L 246.85425 -195.277695 
L 246.85425 -197.802217 
L 246.85425 -200.326739 
L 246.85425 -202.851261 
L 246.85425 -205.375783 
L 246.85425 -207.900305 
L 246.85425 -210.424827 
L 246.85425 -212.949349 
L 246.85425 -215.473871 
L 246.85425 -217.998393 
L 246.85425 -220.522915 
L 246.85425 -223.047437 
L 246.85425 -225.571959 
L 246.85425 -228.096481 
L 246.85425 -230.621003 
L 246.85425 -233.145525 
L 246.85425 -235.670047 
L 246.85425 -238.194569 
L 246.85425 -240.719091 
L 246.85425 -243.243613 
L 246.85425 -245.768135 
L 246.85425 -248.292657 
L 246.85425 -250.817179 
L 246.85425 -253.341701 
L 246.85425 -255.866223 
L 246.85425 -258.390745 
L 246.85425 -260.915267 
L 246.85425 -263.439789 
L 246.85425 -265.964311 
L 246.85425 -268.488833 
L 246.85425 -271.013355 
L 246.85425 -273.537877 
L 246.85425 -276.062399 
L 246.85425 -278.586921 
L 246.85425 -281.111443 
L 246.85425 -283.635965 
L 246.85425 -286.160487 
L 246.85425 -288.685009 
L 246.85425 -291.209531 
L 246.85425 -293.734053 
L 246.85425 -296.258575 
L 246.85425 -298.783097 
L 246.85425 -301.307619 
L 246.85425 -303.832141 
L 246.85425 -306.356662 
L 246.85425 -308.881184 
L 246.85425 -311.405706 
L 246.85425 -313.930228 
L 246.85425 -316.45475 
L 246.85425 -318.979272 
L 246.85425 -321.503794 
L 246.85425 -324.028316 
L 246.85425 -326.552838 
L 246.85425 -329.07736 
L 246.85425 -331.601882 
L 246.85425 -334.126404 
L 246.85425 -336.650926 
L 247.601456 -336.650926 
L 247.601456 -336.650926 
L 248.054664 -334.126404 
L 248.727314 -331.601882 
L 249.69407 -329.07736 
L 251.039846 -326.552838 
L 252.854846 -324.028316 
L 255.227214 -321.503794 
L 258.233844 -318.979272 
L 261.930414 -316.45475 
L 266.342034 -313.930228 
L 271.455875 -311.405706 
L 277.216802 -308.881184 
L 283.526336 -306.356662 
L 290.244603 -303.832141 
L 297.194453 -301.307619 
L 304.16698 -298.783097 
L 310.928173 -296.258575 
L 317.227161 -293.734053 
L 322.807084 -291.209531 
L 327.419547 -288.685009 
L 330.842767 -286.160487 
L 332.902035 -283.635965 
L 333.489551 -281.111443 
L 332.579693 -278.586921 
L 330.235945 -276.062399 
L 326.607085 -273.537877 
L 321.912548 -271.013355 
L 316.419324 -268.488833 
L 310.414624 -265.964311 
L 304.179131 -263.439789 
L 297.965013 -260.915267 
L 291.981192 -258.390745 
L 286.386367 -255.866223 
L 281.288638 -253.341701 
L 276.749632 -250.817179 
L 272.791028 -248.292657 
L 269.401856 -245.768135 
L 266.545818 -243.243613 
L 264.168417 -240.719091 
L 262.204014 -238.194569 
L 260.582765 -235.670047 
L 259.237144 -233.145525 
L 258.107464 -230.621003 
L 257.145754 -228.096481 
L 256.317531 -225.571959 
L 255.601373 -223.047437 
L 254.986587 -220.522915 
L 254.469597 -217.998393 
L 254.049804 -215.473871 
L 253.725676 -212.949349 
L 253.491677 -210.424827 
L 253.336425 -207.900305 
L 253.242271 -205.375783 
L 253.186257 -202.851261 
L 253.142234 -200.326739 
L 253.083787 -197.802217 
L 252.987466 -195.277695 
L 252.835831 -192.753173 
L 252.619774 -190.228651 
L 252.339723 -187.704129 
L 252.005446 -185.179607 
L 251.634438 -182.655085 
L 251.249101 -180.130563 
L 250.873184 -177.606041 
L 250.528118 -175.081519 
L 250.229938 -172.556997 
L 249.987355 -170.032475 
L 249.801319 -167.507953 
L 249.666069 -164.983431 
L 249.571324 -162.458909 
L 249.505083 -159.934387 
L 249.456368 -157.409866 
L 249.417371 -154.885344 
L 249.384635 -152.360822 
L 249.359162 -149.8363 
L 249.345537 -147.311778 
L 249.350346 -144.787256 
L 249.380203 -142.262734 
L 249.439742 -139.738212 
L 249.529897 -137.21369 
L 249.646728 -134.689168 
L 249.781026 -132.164646 
L 249.918786 -129.640124 
L 250.042572 -127.115602 
L 250.13361 -124.59108 
L 250.174329 -122.066558 
L 250.150918 -119.542036 
L 250.05547 -117.017514 
L 249.887291 -114.492992 
L 249.653115 -111.96847 
L 249.36617 -109.443948 
L 249.044284 -106.919426 
L 248.707396 -104.394904 
L 248.374951 -101.870382 
L 248.063646 -99.34586 
L 247.785871 -96.821338 
L 247.549028 -94.296816 
L 247.355674 -91.772294 
L 247.20432 -89.247772 
L 247.090599 -86.72325 
z
" id="mf900262254" style="stroke:#4c4c4c;stroke-width:1.5;"/>
    </defs>
    <g clip-path="url(#p434fa585cb)">
     <use style="fill:#20dfdf;stroke:#4c4c4c;stroke-width:1.5;" x="0" xlink:href="#mf900262254" y="418.65645"/>
    </g>
   </g>
   <g id="PolyCollection_3">
    <defs>
     <path d="M 525.85425 -106.775557 
L 525.680099 -106.775557 
L 525.586998 -109.024192 
L 525.459191 -111.272828 
L 525.291254 -113.521464 
L 525.080134 -115.7701 
L 524.826454 -118.018735 
L 524.53564 -120.267371 
L 524.218597 -122.516007 
L 523.891712 -124.764642 
L 523.576011 -127.013278 
L 523.295392 -129.261914 
L 523.074024 -131.510549 
L 522.933169 -133.759185 
L 522.887891 -136.007821 
L 522.944281 -138.256456 
L 523.0978 -140.505092 
L 523.333235 -142.753728 
L 523.62636 -145.002363 
L 523.947011 -147.250999 
L 524.262919 -149.499635 
L 524.543501 -151.74827 
L 524.762964 -153.996906 
L 524.902357 -156.245542 
L 524.950629 -158.494177 
L 524.904939 -160.742813 
L 524.77053 -162.991449 
L 524.560292 -165.240084 
L 524.293894 -167.48872 
L 523.996252 -169.737356 
L 523.695149 -171.985991 
L 523.418094 -174.234627 
L 523.18886 -176.483263 
L 523.024391 -178.731898 
L 522.932796 -180.980534 
L 522.91291 -183.22917 
L 522.955483 -185.477805 
L 523.045633 -187.726441 
L 523.165884 -189.975077 
L 523.299038 -192.223712 
L 523.430244 -194.472348 
L 523.547879 -196.720984 
L 523.643204 -198.969619 
L 523.709031 -201.218255 
L 523.737912 -203.466891 
L 523.720459 -205.715526 
L 523.644373 -207.964162 
L 523.494565 -210.212798 
L 523.254425 -212.461433 
L 522.907999 -214.710069 
L 522.44262 -216.958705 
L 521.851473 -219.20734 
L 521.135645 -221.455976 
L 520.305298 -223.704612 
L 519.379611 -225.953247 
L 518.385177 -228.201883 
L 517.352543 -230.450519 
L 516.3109 -232.699154 
L 515.281442 -234.94779 
L 514.270556 -237.196426 
L 513.264546 -239.445061 
L 512.227603 -241.693697 
L 511.10416 -243.942333 
L 509.825647 -246.190968 
L 508.320308 -248.439604 
L 506.523723 -250.68824 
L 504.387307 -252.936875 
L 501.882508 -255.185511 
L 498.999594 -257.434147 
L 495.741413 -259.682782 
L 492.113846 -261.931418 
L 488.115657 -264.180054 
L 483.730704 -266.428689 
L 478.925295 -268.677325 
L 473.652783 -270.925961 
L 467.866519 -273.174596 
L 461.541007 -275.423232 
L 454.699409 -277.671868 
L 447.443496 -279.920503 
L 439.979978 -282.169139 
L 432.635549 -284.417775 
L 425.852789 -286.66641 
L 420.1612 -288.915046 
L 416.122302 -291.163682 
L 414.25425 -293.412317 
L 414.948155 -295.660953 
L 418.393062 -297.909589 
L 424.52715 -300.158224 
L 433.028455 -302.40686 
L 443.349747 -304.655496 
L 454.791766 -306.904131 
L 466.599712 -309.152767 
L 478.06282 -311.401403 
L 488.597351 -313.650038 
L 497.798926 -315.898674 
L 505.458792 -318.14731 
L 511.547334 -320.395945 
L 516.174612 -322.644581 
L 519.540383 -324.893217 
L 521.885163 -327.141852 
L 523.450494 -329.390488 
L 525.85425 -329.390488 
L 525.85425 -329.390488 
L 525.85425 -327.141852 
L 525.85425 -324.893217 
L 525.85425 -322.644581 
L 525.85425 -320.395945 
L 525.85425 -318.14731 
L 525.85425 -315.898674 
L 525.85425 -313.650038 
L 525.85425 -311.401403 
L 525.85425 -309.152767 
L 525.85425 -306.904131 
L 525.85425 -304.655496 
L 525.85425 -302.40686 
L 525.85425 -300.158224 
L 525.85425 -297.909589 
L 525.85425 -295.660953 
L 525.85425 -293.412317 
L 525.85425 -291.163682 
L 525.85425 -288.915046 
L 525.85425 -286.66641 
L 525.85425 -284.417775 
L 525.85425 -282.169139 
L 525.85425 -279.920503 
L 525.85425 -277.671868 
L 525.85425 -275.423232 
L 525.85425 -273.174596 
L 525.85425 -270.925961 
L 525.85425 -268.677325 
L 525.85425 -266.428689 
L 525.85425 -264.180054 
L 525.85425 -261.931418 
L 525.85425 -259.682782 
L 525.85425 -257.434147 
L 525.85425 -255.185511 
L 525.85425 -252.936875 
L 525.85425 -250.68824 
L 525.85425 -248.439604 
L 525.85425 -246.190968 
L 525.85425 -243.942333 
L 525.85425 -241.693697 
L 525.85425 -239.445061 
L 525.85425 -237.196426 
L 525.85425 -234.94779 
L 525.85425 -232.699154 
L 525.85425 -230.450519 
L 525.85425 -228.201883 
L 525.85425 -225.953247 
L 525.85425 -223.704612 
L 525.85425 -221.455976 
L 525.85425 -219.20734 
L 525.85425 -216.958705 
L 525.85425 -214.710069 
L 525.85425 -212.461433 
L 525.85425 -210.212798 
L 525.85425 -207.964162 
L 525.85425 -205.715526 
L 525.85425 -203.466891 
L 525.85425 -201.218255 
L 525.85425 -198.969619 
L 525.85425 -196.720984 
L 525.85425 -194.472348 
L 525.85425 -192.223712 
L 525.85425 -189.975077 
L 525.85425 -187.726441 
L 525.85425 -185.477805 
L 525.85425 -183.22917 
L 525.85425 -180.980534 
L 525.85425 -178.731898 
L 525.85425 -176.483263 
L 525.85425 -174.234627 
L 525.85425 -171.985991 
L 525.85425 -169.737356 
L 525.85425 -167.48872 
L 525.85425 -165.240084 
L 525.85425 -162.991449 
L 525.85425 -160.742813 
L 525.85425 -158.494177 
L 525.85425 -156.245542 
L 525.85425 -153.996906 
L 525.85425 -151.74827 
L 525.85425 -149.499635 
L 525.85425 -147.250999 
L 525.85425 -145.002363 
L 525.85425 -142.753728 
L 525.85425 -140.505092 
L 525.85425 -138.256456 
L 525.85425 -136.007821 
L 525.85425 -133.759185 
L 525.85425 -131.510549 
L 525.85425 -129.261914 
L 525.85425 -127.013278 
L 525.85425 -124.764642 
L 525.85425 -122.516007 
L 525.85425 -120.267371 
L 525.85425 -118.018735 
L 525.85425 -115.7701 
L 525.85425 -113.521464 
L 525.85425 -111.272828 
L 525.85425 -109.024192 
L 525.85425 -106.775557 
z
" id="md8a28fcc02" style="stroke:#4c4c4c;stroke-width:1.5;"/>
    </defs>
    <g clip-path="url(#p434fa585cb)">
     <use style="fill:#2020df;stroke:#4c4c4c;stroke-width:1.5;" x="0" xlink:href="#md8a28fcc02" y="418.65645"/>
    </g>
   </g>
   <g id="PolyCollection_4">
    <defs>
     <path d="M 525.997037 -104.43926 
L 525.85425 -104.43926 
L 525.85425 -106.6446 
L 525.85425 -108.849939 
L 525.85425 -111.055279 
L 525.85425 -113.260618 
L 525.85425 -115.465958 
L 525.85425 -117.671297 
L 525.85425 -119.876637 
L 525.85425 -122.081976 
L 525.85425 -124.287316 
L 525.85425 -126.492655 
L 525.85425 -128.697995 
L 525.85425 -130.903334 
L 525.85425 -133.108674 
L 525.85425 -135.314013 
L 525.85425 -137.519353 
L 525.85425 -139.724692 
L 525.85425 -141.930032 
L 525.85425 -144.135371 
L 525.85425 -146.340711 
L 525.85425 -148.54605 
L 525.85425 -150.75139 
L 525.85425 -152.956729 
L 525.85425 -155.162069 
L 525.85425 -157.367408 
L 525.85425 -159.572747 
L 525.85425 -161.778087 
L 525.85425 -163.983426 
L 525.85425 -166.188766 
L 525.85425 -168.394105 
L 525.85425 -170.599445 
L 525.85425 -172.804784 
L 525.85425 -175.010124 
L 525.85425 -177.215463 
L 525.85425 -179.420803 
L 525.85425 -181.626142 
L 525.85425 -183.831482 
L 525.85425 -186.036821 
L 525.85425 -188.242161 
L 525.85425 -190.4475 
L 525.85425 -192.65284 
L 525.85425 -194.858179 
L 525.85425 -197.063519 
L 525.85425 -199.268858 
L 525.85425 -201.474198 
L 525.85425 -203.679537 
L 525.85425 -205.884877 
L 525.85425 -208.090216 
L 525.85425 -210.295556 
L 525.85425 -212.500895 
L 525.85425 -214.706235 
L 525.85425 -216.911574 
L 525.85425 -219.116913 
L 525.85425 -221.322253 
L 525.85425 -223.527592 
L 525.85425 -225.732932 
L 525.85425 -227.938271 
L 525.85425 -230.143611 
L 525.85425 -232.34895 
L 525.85425 -234.55429 
L 525.85425 -236.759629 
L 525.85425 -238.964969 
L 525.85425 -241.170308 
L 525.85425 -243.375648 
L 525.85425 -245.580987 
L 525.85425 -247.786327 
L 525.85425 -249.991666 
L 525.85425 -252.197006 
L 525.85425 -254.402345 
L 525.85425 -256.607685 
L 525.85425 -258.813024 
L 525.85425 -261.018364 
L 525.85425 -263.223703 
L 525.85425 -265.429043 
L 525.85425 -267.634382 
L 525.85425 -269.839722 
L 525.85425 -272.045061 
L 525.85425 -274.250401 
L 525.85425 -276.45574 
L 525.85425 -278.66108 
L 525.85425 -280.866419 
L 525.85425 -283.071758 
L 525.85425 -285.277098 
L 525.85425 -287.482437 
L 525.85425 -289.687777 
L 525.85425 -291.893116 
L 525.85425 -294.098456 
L 525.85425 -296.303795 
L 525.85425 -298.509135 
L 525.85425 -300.714474 
L 525.85425 -302.919814 
L 525.85425 -305.125153 
L 525.85425 -307.330493 
L 525.85425 -309.535832 
L 525.85425 -311.741172 
L 525.85425 -313.946511 
L 525.85425 -316.151851 
L 525.85425 -318.35719 
L 525.85425 -320.56253 
L 525.85425 -322.767869 
L 526.4818 -322.767869 
L 526.4818 -322.767869 
L 526.822796 -320.56253 
L 527.308392 -318.35719 
L 527.978954 -316.151851 
L 528.876947 -313.946511 
L 530.04324 -311.741172 
L 531.51242 -309.535832 
L 533.307671 -307.330493 
L 535.43603 -305.125153 
L 537.885018 -302.919814 
L 540.621625 -300.714474 
L 543.594324 -298.509135 
L 546.738283 -296.303795 
L 549.983253 -294.098456 
L 553.262904 -291.893116 
L 556.523921 -289.687777 
L 559.732972 -287.482437 
L 562.879997 -285.277098 
L 565.976877 -283.071758 
L 569.051499 -280.866419 
L 572.138106 -278.66108 
L 575.265574 -276.45574 
L 578.445637 -274.250401 
L 581.663057 -272.045061 
L 584.869405 -269.839722 
L 587.981553 -267.634382 
L 590.885286 -265.429043 
L 593.443791 -263.223703 
L 595.510171 -261.018364 
L 596.942617 -258.813024 
L 597.620524 -256.607685 
L 597.459552 -254.402345 
L 596.423675 -252.197006 
L 594.532432 -249.991666 
L 591.862145 -247.786327 
L 588.540656 -245.580987 
L 584.736031 -243.375648 
L 580.640695 -241.170308 
L 576.45314 -238.964969 
L 572.359748 -236.759629 
L 568.519196 -234.55429 
L 565.051316 -232.34895 
L 562.031444 -230.143611 
L 559.490309 -227.938271 
L 557.418628 -225.732932 
L 555.774995 -223.527592 
L 554.495445 -221.322253 
L 553.503203 -219.116913 
L 552.717488 -216.911574 
L 552.060717 -214.706235 
L 551.463851 -212.500895 
L 550.86993 -210.295556 
L 550.235969 -208.090216 
L 549.533428 -205.884877 
L 548.74749 -203.679537 
L 547.875332 -201.474198 
L 546.923651 -199.268858 
L 545.905733 -197.063519 
L 544.838417 -194.858179 
L 543.73931 -192.65284 
L 542.624589 -190.4475 
L 541.507591 -188.242161 
L 540.398315 -186.036821 
L 539.303765 -183.831482 
L 538.228944 -181.626142 
L 537.178217 -179.420803 
L 536.156687 -177.215463 
L 535.171249 -175.010124 
L 534.231068 -172.804784 
L 533.347333 -170.599445 
L 532.532328 -168.394105 
L 531.79796 -166.188766 
L 531.15406 -163.983426 
L 530.606749 -161.778087 
L 530.157217 -159.572747 
L 529.80113 -157.367408 
L 529.528795 -155.162069 
L 529.326071 -152.956729 
L 529.17588 -150.75139 
L 529.060058 -148.54605 
L 528.961251 -146.340711 
L 528.864523 -144.135371 
L 528.758455 -141.930032 
L 528.635591 -139.724692 
L 528.492282 -137.519353 
L 528.328072 -135.314013 
L 528.144874 -133.108674 
L 527.946156 -130.903334 
L 527.736312 -128.697995 
L 527.520244 -126.492655 
L 527.303127 -124.287316 
L 527.090234 -122.081976 
L 526.88673 -119.876637 
L 526.697377 -117.671297 
L 526.526183 -115.465958 
L 526.376055 -113.260618 
L 526.248555 -111.055279 
L 526.143827 -108.849939 
L 526.060714 -106.6446 
L 525.997037 -104.43926 
z
" id="m0b0db24149" style="stroke:#4c4c4c;stroke-width:1.5;"/>
    </defs>
    <g clip-path="url(#p434fa585cb)">
     <use style="fill:#20dfdf;stroke:#4c4c4c;stroke-width:1.5;" x="0" xlink:href="#m0b0db24149" y="418.65645"/>
    </g>
   </g>
   <g id="PolyCollection_5">
    <defs>
     <path d="M 804.85425 -109.043662 
L 804.688727 -109.043662 
L 804.599622 -111.202378 
L 804.482457 -113.361094 
L 804.33897 -115.519811 
L 804.176399 -117.678527 
L 804.00785 -119.837243 
L 803.851084 -121.99596 
L 803.725654 -124.154676 
L 803.648921 -126.313392 
L 803.632018 -128.472109 
L 803.67696 -130.630825 
L 803.775812 -132.789541 
L 803.912082 -134.948258 
L 804.063734 -137.106974 
L 804.206721 -139.26569 
L 804.317954 -141.424407 
L 804.377108 -143.583123 
L 804.367388 -145.741839 
L 804.275934 -147.900556 
L 804.094709 -150.059272 
L 803.822315 -152.217989 
L 803.466472 -154.376705 
L 803.04616 -156.535421 
L 802.592009 -158.694138 
L 802.143796 -160.852854 
L 801.744784 -163.01157 
L 801.433862 -165.170287 
L 801.23754 -167.329003 
L 801.164214 -169.487719 
L 801.202657 -171.646436 
L 801.325384 -173.805152 
L 801.495983 -175.963868 
L 801.678247 -178.122585 
L 801.84447 -180.281301 
L 801.980659 -182.440017 
L 802.087541 -184.598734 
L 802.177504 -186.75745 
L 802.268706 -188.916166 
L 802.378113 -191.074883 
L 802.515188 -193.233599 
L 802.677557 -195.392315 
L 802.849334 -197.551032 
L 803.002194 -199.709748 
L 803.098772 -201.868465 
L 803.097531 -204.027181 
L 802.958072 -206.185897 
L 802.645785 -208.344614 
L 802.135034 -210.50333 
L 801.410604 -212.662046 
L 800.467844 -214.820763 
L 799.312519 -216.979479 
L 797.961408 -219.138195 
L 796.444006 -221.296912 
L 794.804343 -223.455628 
L 793.100676 -225.614344 
L 791.400435 -227.773061 
L 789.76909 -229.931777 
L 788.254212 -232.090493 
L 786.868992 -234.24921 
L 785.581077 -236.407926 
L 784.311742 -238.566642 
L 782.947118 -240.725359 
L 781.358747 -242.884075 
L 779.427167 -245.042791 
L 777.061088 -247.201508 
L 774.20641 -249.360224 
L 770.843099 -251.51894 
L 766.972143 -253.677657 
L 762.598237 -255.836373 
L 757.715459 -257.99509 
L 752.302788 -260.153806 
L 746.333913 -262.312522 
L 739.801668 -264.471239 
L 732.752529 -266.629955 
L 725.322112 -268.788671 
L 717.760373 -270.947388 
L 710.436365 -273.106104 
L 703.817078 -275.26482 
L 698.42156 -277.423537 
L 694.75786 -279.582253 
L 693.25425 -281.740969 
L 694.196982 -283.899686 
L 697.684963 -286.058402 
L 703.608555 -288.217118 
L 711.655965 -290.375835 
L 721.346749 -292.534551 
L 732.087739 -294.693267 
L 743.242686 -296.851984 
L 754.20411 -299.0107 
L 764.455414 -301.169416 
L 773.613742 -303.328133 
L 781.448737 -305.486849 
L 787.877785 -307.645566 
L 792.94282 -309.804282 
L 796.776278 -311.962998 
L 799.564054 -314.121715 
L 801.51184 -316.280431 
L 802.818905 -318.439147 
L 803.660893 -320.597864 
L 804.18124 -322.75658 
L 804.85425 -322.75658 
L 804.85425 -322.75658 
L 804.85425 -320.597864 
L 804.85425 -318.439147 
L 804.85425 -316.280431 
L 804.85425 -314.121715 
L 804.85425 -311.962998 
L 804.85425 -309.804282 
L 804.85425 -307.645566 
L 804.85425 -305.486849 
L 804.85425 -303.328133 
L 804.85425 -301.169416 
L 804.85425 -299.0107 
L 804.85425 -296.851984 
L 804.85425 -294.693267 
L 804.85425 -292.534551 
L 804.85425 -290.375835 
L 804.85425 -288.217118 
L 804.85425 -286.058402 
L 804.85425 -283.899686 
L 804.85425 -281.740969 
L 804.85425 -279.582253 
L 804.85425 -277.423537 
L 804.85425 -275.26482 
L 804.85425 -273.106104 
L 804.85425 -270.947388 
L 804.85425 -268.788671 
L 804.85425 -266.629955 
L 804.85425 -264.471239 
L 804.85425 -262.312522 
L 804.85425 -260.153806 
L 804.85425 -257.99509 
L 804.85425 -255.836373 
L 804.85425 -253.677657 
L 804.85425 -251.51894 
L 804.85425 -249.360224 
L 804.85425 -247.201508 
L 804.85425 -245.042791 
L 804.85425 -242.884075 
L 804.85425 -240.725359 
L 804.85425 -238.566642 
L 804.85425 -236.407926 
L 804.85425 -234.24921 
L 804.85425 -232.090493 
L 804.85425 -229.931777 
L 804.85425 -227.773061 
L 804.85425 -225.614344 
L 804.85425 -223.455628 
L 804.85425 -221.296912 
L 804.85425 -219.138195 
L 804.85425 -216.979479 
L 804.85425 -214.820763 
L 804.85425 -212.662046 
L 804.85425 -210.50333 
L 804.85425 -208.344614 
L 804.85425 -206.185897 
L 804.85425 -204.027181 
L 804.85425 -201.868465 
L 804.85425 -199.709748 
L 804.85425 -197.551032 
L 804.85425 -195.392315 
L 804.85425 -193.233599 
L 804.85425 -191.074883 
L 804.85425 -188.916166 
L 804.85425 -186.75745 
L 804.85425 -184.598734 
L 804.85425 -182.440017 
L 804.85425 -180.281301 
L 804.85425 -178.122585 
L 804.85425 -175.963868 
L 804.85425 -173.805152 
L 804.85425 -171.646436 
L 804.85425 -169.487719 
L 804.85425 -167.329003 
L 804.85425 -165.170287 
L 804.85425 -163.01157 
L 804.85425 -160.852854 
L 804.85425 -158.694138 
L 804.85425 -156.535421 
L 804.85425 -154.376705 
L 804.85425 -152.217989 
L 804.85425 -150.059272 
L 804.85425 -147.900556 
L 804.85425 -145.741839 
L 804.85425 -143.583123 
L 804.85425 -141.424407 
L 804.85425 -139.26569 
L 804.85425 -137.106974 
L 804.85425 -134.948258 
L 804.85425 -132.789541 
L 804.85425 -130.630825 
L 804.85425 -128.472109 
L 804.85425 -126.313392 
L 804.85425 -124.154676 
L 804.85425 -121.99596 
L 804.85425 -119.837243 
L 804.85425 -117.678527 
L 804.85425 -115.519811 
L 804.85425 -113.361094 
L 804.85425 -111.202378 
L 804.85425 -109.043662 
z
" id="md31a7d80a7" style="stroke:#4c4c4c;stroke-width:1.5;"/>
    </defs>
    <g clip-path="url(#p434fa585cb)">
     <use style="fill:#2020df;stroke:#4c4c4c;stroke-width:1.5;" x="0" xlink:href="#md31a7d80a7" y="418.65645"/>
    </g>
   </g>
   <g id="PolyCollection_6">
    <defs>
     <path d="M 805.010199 -105.244418 
L 804.85425 -105.244418 
L 804.85425 -107.379895 
L 804.85425 -109.515373 
L 804.85425 -111.65085 
L 804.85425 -113.786327 
L 804.85425 -115.921805 
L 804.85425 -118.057282 
L 804.85425 -120.192759 
L 804.85425 -122.328237 
L 804.85425 -124.463714 
L 804.85425 -126.599191 
L 804.85425 -128.734669 
L 804.85425 -130.870146 
L 804.85425 -133.005623 
L 804.85425 -135.141101 
L 804.85425 -137.276578 
L 804.85425 -139.412055 
L 804.85425 -141.547533 
L 804.85425 -143.68301 
L 804.85425 -145.818487 
L 804.85425 -147.953965 
L 804.85425 -150.089442 
L 804.85425 -152.224919 
L 804.85425 -154.360397 
L 804.85425 -156.495874 
L 804.85425 -158.631351 
L 804.85425 -160.766829 
L 804.85425 -162.902306 
L 804.85425 -165.037783 
L 804.85425 -167.17326 
L 804.85425 -169.308738 
L 804.85425 -171.444215 
L 804.85425 -173.579692 
L 804.85425 -175.71517 
L 804.85425 -177.850647 
L 804.85425 -179.986124 
L 804.85425 -182.121602 
L 804.85425 -184.257079 
L 804.85425 -186.392556 
L 804.85425 -188.528034 
L 804.85425 -190.663511 
L 804.85425 -192.798988 
L 804.85425 -194.934466 
L 804.85425 -197.069943 
L 804.85425 -199.20542 
L 804.85425 -201.340898 
L 804.85425 -203.476375 
L 804.85425 -205.611852 
L 804.85425 -207.74733 
L 804.85425 -209.882807 
L 804.85425 -212.018284 
L 804.85425 -214.153762 
L 804.85425 -216.289239 
L 804.85425 -218.424716 
L 804.85425 -220.560194 
L 804.85425 -222.695671 
L 804.85425 -224.831148 
L 804.85425 -226.966626 
L 804.85425 -229.102103 
L 804.85425 -231.23758 
L 804.85425 -233.373058 
L 804.85425 -235.508535 
L 804.85425 -237.644012 
L 804.85425 -239.77949 
L 804.85425 -241.914967 
L 804.85425 -244.050444 
L 804.85425 -246.185922 
L 804.85425 -248.321399 
L 804.85425 -250.456876 
L 804.85425 -252.592353 
L 804.85425 -254.727831 
L 804.85425 -256.863308 
L 804.85425 -258.998785 
L 804.85425 -261.134263 
L 804.85425 -263.26974 
L 804.85425 -265.405217 
L 804.85425 -267.540695 
L 804.85425 -269.676172 
L 804.85425 -271.811649 
L 804.85425 -273.947127 
L 804.85425 -276.082604 
L 804.85425 -278.218081 
L 804.85425 -280.353559 
L 804.85425 -282.489036 
L 804.85425 -284.624513 
L 804.85425 -286.759991 
L 804.85425 -288.895468 
L 804.85425 -291.030945 
L 804.85425 -293.166423 
L 804.85425 -295.3019 
L 804.85425 -297.437377 
L 804.85425 -299.572855 
L 804.85425 -301.708332 
L 804.85425 -303.843809 
L 804.85425 -305.979287 
L 804.85425 -308.114764 
L 804.85425 -310.250241 
L 804.85425 -312.385719 
L 804.85425 -314.521196 
L 804.85425 -316.656673 
L 805.287448 -316.656673 
L 805.287448 -316.656673 
L 805.51026 -314.521196 
L 805.82218 -312.385719 
L 806.246377 -310.250241 
L 806.806936 -308.114764 
L 807.526936 -305.979287 
L 808.426159 -303.843809 
L 809.518679 -301.708332 
L 810.810712 -299.572855 
L 812.299081 -297.437377 
L 813.970633 -295.3019 
L 815.802762 -293.166423 
L 817.765041 -291.030945 
L 819.821738 -288.895468 
L 821.934882 -286.759991 
L 824.067483 -284.624513 
L 826.186549 -282.489036 
L 828.265653 -280.353559 
L 830.286919 -278.218081 
L 832.242357 -276.082604 
L 834.134505 -273.947127 
L 835.976225 -271.811649 
L 837.789476 -269.676172 
L 839.602833 -267.540695 
L 841.447642 -265.405217 
L 843.352944 -263.26974 
L 845.33959 -261.134263 
L 847.41436 -258.998785 
L 849.565062 -256.863308 
L 851.757659 -254.727831 
L 853.936266 -252.592353 
L 856.026436 -250.456876 
L 857.941618 -248.321399 
L 859.592087 -246.185922 
L 860.895142 -244.050444 
L 861.785057 -241.914967 
L 862.2212 -239.77949 
L 862.192952 -237.644012 
L 861.720575 -235.508535 
L 860.85188 -233.373058 
L 859.65535 -231.23758 
L 858.21105 -229.102103 
L 856.601105 -226.966626 
L 854.901501 -224.831148 
L 853.176547 -222.695671 
L 851.476584 -220.560194 
L 849.838615 -218.424716 
L 848.288814 -216.289239 
L 846.845488 -214.153762 
L 845.521182 -212.018284 
L 844.323144 -209.882807 
L 843.25212 -207.74733 
L 842.300165 -205.611852 
L 841.448617 -203.476375 
L 840.667372 -201.340898 
L 839.916243 -199.20542 
L 839.148547 -197.069943 
L 838.316392 -194.934466 
L 837.376644 -192.798988 
L 836.296381 -190.663511 
L 835.056778 -188.528034 
L 833.654805 -186.392556 
L 832.102603 -184.257079 
L 830.424913 -182.121602 
L 828.655273 -179.986124 
L 826.83178 -177.850647 
L 824.9932 -175.71517 
L 823.175946 -173.579692 
L 821.412158 -171.444215 
L 819.728837 -169.308738 
L 818.147758 -167.17326 
L 816.685776 -165.037783 
L 815.355175 -162.902306 
L 814.163805 -160.766829 
L 813.114981 -158.631351 
L 812.207235 -156.495874 
L 811.434167 -154.360397 
L 810.784615 -152.224919 
L 810.243311 -150.089442 
L 809.792025 -147.953965 
L 809.411064 -145.818487 
L 809.080904 -143.68301 
L 808.783698 -141.547533 
L 808.504444 -139.412055 
L 808.231719 -137.276578 
L 807.957952 -135.141101 
L 807.679307 -133.005623 
L 807.39527 -130.870146 
L 807.108049 -128.734669 
L 806.821857 -126.599191 
L 806.542153 -124.463714 
L 806.274869 -122.328237 
L 806.025691 -120.192759 
L 805.799442 -118.057282 
L 805.599619 -115.921805 
L 805.428123 -113.786327 
L 805.285216 -111.65085 
L 805.16967 -109.515373 
L 805.079067 -107.379895 
L 805.010199 -105.244418 
z
" id="m3ee2564788" style="stroke:#4c4c4c;stroke-width:1.5;"/>
    </defs>
    <g clip-path="url(#p434fa585cb)">
     <use style="fill:#20dfdf;stroke:#4c4c4c;stroke-width:1.5;" x="0" xlink:href="#m3ee2564788" y="418.65645"/>
    </g>
   </g>
   <g id="patch_3">
    <path clip-path="url(#p434fa585cb)" d="M 246.85425 316.756247 
L 246.85425 316.756247 
L 246.85425 316.756247 
L 246.85425 316.756247 
z
" style="fill:#2020df;stroke:#4c4c4c;stroke-linejoin:miter;stroke-width:0.75;"/>
   </g>
   <g id="patch_4">
    <path clip-path="url(#p434fa585cb)" d="M 246.85425 316.756247 
L 246.85425 316.756247 
L 246.85425 316.756247 
L 246.85425 316.756247 
z
" style="fill:#20dfdf;stroke:#4c4c4c;stroke-linejoin:miter;stroke-width:0.75;"/>
   </g>
   <g id="line2d_6">
    <path clip-path="url(#p434fa585cb)" d="M 246.85425 186.774886 
L 246.85425 102.394727 
" style="fill:none;stroke:#4c4c4c;stroke-linecap:round;stroke-width:1.5;"/>
   </g>
   <g id="line2d_7">
    <path clip-path="url(#p434fa585cb)" d="M 246.85425 148.715545 
L 246.85425 119.917357 
" style="fill:none;stroke:#4c4c4c;stroke-linecap:round;stroke-width:4.5;"/>
   </g>
   <g id="line2d_8">
    <path clip-path="url(#p434fa585cb)" d="M 525.85425 234.938773 
L 525.85425 110.833301 
" style="fill:none;stroke:#4c4c4c;stroke-linecap:round;stroke-width:1.5;"/>
   </g>
   <g id="line2d_9">
    <path clip-path="url(#p434fa585cb)" d="M 525.85425 171.302713 
L 525.85425 128.009574 
" style="fill:none;stroke:#4c4c4c;stroke-linecap:round;stroke-width:4.5;"/>
   </g>
   <g id="line2d_10">
    <path clip-path="url(#p434fa585cb)" d="M 804.85425 257.377406 
L 804.85425 114.803999 
" style="fill:none;stroke:#4c4c4c;stroke-linecap:round;stroke-width:1.5;"/>
   </g>
   <g id="line2d_11">
    <path clip-path="url(#p434fa585cb)" d="M 804.85425 189.183255 
L 804.85425 139.2657 
" style="fill:none;stroke:#4c4c4c;stroke-linecap:round;stroke-width:4.5;"/>
   </g>
   <g id="patch_5">
    <path d="M 107.35425 344.5332 
L 107.35425 67.3332 
" style="fill:none;stroke:#cccccc;stroke-linecap:square;stroke-linejoin:miter;stroke-width:1.25;"/>
   </g>
   <g id="patch_6">
    <path d="M 944.35425 344.5332 
L 944.35425 67.3332 
" style="fill:none;stroke:#cccccc;stroke-linecap:square;stroke-linejoin:miter;stroke-width:1.25;"/>
   </g>
   <g id="patch_7">
    <path d="M 107.35425 344.5332 
L 944.35425 344.5332 
" style="fill:none;stroke:#cccccc;stroke-linecap:square;stroke-linejoin:miter;stroke-width:1.25;"/>
   </g>
   <g id="patch_8">
    <path d="M 107.35425 67.3332 
L 944.35425 67.3332 
" style="fill:none;stroke:#cccccc;stroke-linecap:square;stroke-linejoin:miter;stroke-width:1.25;"/>
   </g>
   <g id="PathCollection_1">
    <defs>
     <path d="M 0 1.5 
C 0.397805 1.5 0.77937 1.341951 1.06066 1.06066 
C 1.341951 0.77937 1.5 0.397805 1.5 0 
C 1.5 -0.397805 1.341951 -0.77937 1.06066 -1.06066 
C 0.77937 -1.341951 0.397805 -1.5 0 -1.5 
C -0.397805 -1.5 -0.77937 -1.341951 -1.06066 -1.06066 
C -1.341951 -0.77937 -1.5 -0.397805 -1.5 0 
C -1.5 0.397805 -1.341951 0.77937 -1.06066 1.06066 
C -0.77937 1.341951 -0.397805 1.5 0 1.5 
z
" id="maad14d446a" style="stroke:#4c4c4c;"/>
    </defs>
    <g clip-path="url(#p434fa585cb)">
     <use style="fill:#ffffff;stroke:#4c4c4c;" x="246.85425" xlink:href="#maad14d446a" y="133.811394"/>
    </g>
   </g>
   <g id="PathCollection_2">
    <g clip-path="url(#p434fa585cb)">
     <use style="fill:#ffffff;stroke:#4c4c4c;" x="525.85425" xlink:href="#maad14d446a" y="148.396613"/>
    </g>
   </g>
   <g id="PathCollection_3">
    <g clip-path="url(#p434fa585cb)">
     <use style="fill:#ffffff;stroke:#4c4c4c;" x="804.85425" xlink:href="#maad14d446a" y="161.428891"/>
    </g>
   </g>
   <g id="text_11">
    <!-- Density plot of highest correlation for every estimated source  -->
    <g style="fill:#262626;" transform="translate(76.97475 29.0835)scale(0.288 -0.288)">
     <defs>
      <path d="M 1259 4147 
L 1259 519 
L 2022 519 
Q 2988 519 3436 956 
Q 3884 1394 3884 2338 
Q 3884 3275 3436 3711 
Q 2988 4147 2022 4147 
L 1259 4147 
z
M 628 4666 
L 1925 4666 
Q 3281 4666 3915 4102 
Q 4550 3538 4550 2338 
Q 4550 1131 3912 565 
Q 3275 0 1925 0 
L 628 0 
L 628 4666 
z
" id="DejaVuSans-44" transform="scale(0.015625)"/>
      <path d="M 2059 -325 
Q 1816 -950 1584 -1140 
Q 1353 -1331 966 -1331 
L 506 -1331 
L 506 -850 
L 844 -850 
Q 1081 -850 1212 -737 
Q 1344 -625 1503 -206 
L 1606 56 
L 191 3500 
L 800 3500 
L 1894 763 
L 2988 3500 
L 3597 3500 
L 2059 -325 
z
" id="DejaVuSans-79" transform="scale(0.015625)"/>
      <path d="M 3513 2113 
L 3513 0 
L 2938 0 
L 2938 2094 
Q 2938 2591 2744 2837 
Q 2550 3084 2163 3084 
Q 1697 3084 1428 2787 
Q 1159 2491 1159 1978 
L 1159 0 
L 581 0 
L 581 4863 
L 1159 4863 
L 1159 2956 
Q 1366 3272 1645 3428 
Q 1925 3584 2291 3584 
Q 2894 3584 3203 3211 
Q 3513 2838 3513 2113 
z
" id="DejaVuSans-68" transform="scale(0.015625)"/>
      <path d="M 2906 1791 
Q 2906 2416 2648 2759 
Q 2391 3103 1925 3103 
Q 1463 3103 1205 2759 
Q 947 2416 947 1791 
Q 947 1169 1205 825 
Q 1463 481 1925 481 
Q 2391 481 2648 825 
Q 2906 1169 2906 1791 
z
M 3481 434 
Q 3481 -459 3084 -895 
Q 2688 -1331 1869 -1331 
Q 1566 -1331 1297 -1286 
Q 1028 -1241 775 -1147 
L 775 -588 
Q 1028 -725 1275 -790 
Q 1522 -856 1778 -856 
Q 2344 -856 2625 -561 
Q 2906 -266 2906 331 
L 2906 616 
Q 2728 306 2450 153 
Q 2172 0 1784 0 
Q 1141 0 747 490 
Q 353 981 353 1791 
Q 353 2603 747 3093 
Q 1141 3584 1784 3584 
Q 2172 3584 2450 3431 
Q 2728 3278 2906 2969 
L 2906 3500 
L 3481 3500 
L 3481 434 
z
" id="DejaVuSans-67" transform="scale(0.015625)"/>
      <path d="M 191 3500 
L 800 3500 
L 1894 563 
L 2988 3500 
L 3597 3500 
L 2284 0 
L 1503 0 
L 191 3500 
z
" id="DejaVuSans-76" transform="scale(0.015625)"/>
      <path d="M 2906 2969 
L 2906 4863 
L 3481 4863 
L 3481 0 
L 2906 0 
L 2906 525 
Q 2725 213 2448 61 
Q 2172 -91 1784 -91 
Q 1150 -91 751 415 
Q 353 922 353 1747 
Q 353 2572 751 3078 
Q 1150 3584 1784 3584 
Q 2172 3584 2448 3432 
Q 2725 3281 2906 2969 
z
M 947 1747 
Q 947 1113 1208 752 
Q 1469 391 1925 391 
Q 2381 391 2643 752 
Q 2906 1113 2906 1747 
Q 2906 2381 2643 2742 
Q 2381 3103 1925 3103 
Q 1469 3103 1208 2742 
Q 947 2381 947 1747 
z
" id="DejaVuSans-64" transform="scale(0.015625)"/>
     </defs>
     <use xlink:href="#DejaVuSans-44"/>
     <use x="77.001953" xlink:href="#DejaVuSans-65"/>
     <use x="138.525391" xlink:href="#DejaVuSans-6e"/>
     <use x="201.904297" xlink:href="#DejaVuSans-73"/>
     <use x="254.003906" xlink:href="#DejaVuSans-69"/>
     <use x="281.787109" xlink:href="#DejaVuSans-74"/>
     <use x="320.996094" xlink:href="#DejaVuSans-79"/>
     <use x="380.175781" xlink:href="#DejaVuSans-20"/>
     <use x="411.962891" xlink:href="#DejaVuSans-70"/>
     <use x="475.439453" xlink:href="#DejaVuSans-6c"/>
     <use x="503.222656" xlink:href="#DejaVuSans-6f"/>
     <use x="564.404297" xlink:href="#DejaVuSans-74"/>
     <use x="603.613281" xlink:href="#DejaVuSans-20"/>
     <use x="635.400391" xlink:href="#DejaVuSans-6f"/>
     <use x="696.582031" xlink:href="#DejaVuSans-66"/>
     <use x="731.787109" xlink:href="#DejaVuSans-20"/>
     <use x="763.574219" xlink:href="#DejaVuSans-68"/>
     <use x="826.953125" xlink:href="#DejaVuSans-69"/>
     <use x="854.736328" xlink:href="#DejaVuSans-67"/>
     <use x="918.212891" xlink:href="#DejaVuSans-68"/>
     <use x="981.591797" xlink:href="#DejaVuSans-65"/>
     <use x="1043.115234" xlink:href="#DejaVuSans-73"/>
     <use x="1095.214844" xlink:href="#DejaVuSans-74"/>
     <use x="1134.423828" xlink:href="#DejaVuSans-20"/>
     <use x="1166.210938" xlink:href="#DejaVuSans-63"/>
     <use x="1221.191406" xlink:href="#DejaVuSans-6f"/>
     <use x="1282.373047" xlink:href="#DejaVuSans-72"/>
     <use x="1321.736328" xlink:href="#DejaVuSans-72"/>
     <use x="1360.599609" xlink:href="#DejaVuSans-65"/>
     <use x="1422.123047" xlink:href="#DejaVuSans-6c"/>
     <use x="1449.90625" xlink:href="#DejaVuSans-61"/>
     <use x="1511.185547" xlink:href="#DejaVuSans-74"/>
     <use x="1550.394531" xlink:href="#DejaVuSans-69"/>
     <use x="1578.177734" xlink:href="#DejaVuSans-6f"/>
     <use x="1639.359375" xlink:href="#DejaVuSans-6e"/>
     <use x="1702.738281" xlink:href="#DejaVuSans-20"/>
     <use x="1734.525391" xlink:href="#DejaVuSans-66"/>
     <use x="1769.730469" xlink:href="#DejaVuSans-6f"/>
     <use x="1830.912109" xlink:href="#DejaVuSans-72"/>
     <use x="1872.025391" xlink:href="#DejaVuSans-20"/>
     <use x="1903.8125" xlink:href="#DejaVuSans-65"/>
     <use x="1965.335938" xlink:href="#DejaVuSans-76"/>
     <use x="2024.515625" xlink:href="#DejaVuSans-65"/>
     <use x="2086.039062" xlink:href="#DejaVuSans-72"/>
     <use x="2127.152344" xlink:href="#DejaVuSans-79"/>
     <use x="2186.332031" xlink:href="#DejaVuSans-20"/>
     <use x="2218.119141" xlink:href="#DejaVuSans-65"/>
     <use x="2279.642578" xlink:href="#DejaVuSans-73"/>
     <use x="2331.742188" xlink:href="#DejaVuSans-74"/>
     <use x="2370.951172" xlink:href="#DejaVuSans-69"/>
     <use x="2398.734375" xlink:href="#DejaVuSans-6d"/>
     <use x="2496.146484" xlink:href="#DejaVuSans-61"/>
     <use x="2557.425781" xlink:href="#DejaVuSans-74"/>
     <use x="2596.634766" xlink:href="#DejaVuSans-65"/>
     <use x="2658.158203" xlink:href="#DejaVuSans-64"/>
     <use x="2721.634766" xlink:href="#DejaVuSans-20"/>
     <use x="2753.421875" xlink:href="#DejaVuSans-73"/>
     <use x="2805.521484" xlink:href="#DejaVuSans-6f"/>
     <use x="2866.703125" xlink:href="#DejaVuSans-75"/>
     <use x="2930.082031" xlink:href="#DejaVuSans-72"/>
     <use x="2968.945312" xlink:href="#DejaVuSans-63"/>
     <use x="3023.925781" xlink:href="#DejaVuSans-65"/>
     <use x="3085.449219" xlink:href="#DejaVuSans-20"/>
    </g>
    <!--  in the sample data -->
    <g style="fill:#262626;" transform="translate(385.99875 61.3332)scale(0.288 -0.288)">
     <use xlink:href="#DejaVuSans-20"/>
     <use x="31.787109" xlink:href="#DejaVuSans-69"/>
     <use x="59.570312" xlink:href="#DejaVuSans-6e"/>
     <use x="122.949219" xlink:href="#DejaVuSans-20"/>
     <use x="154.736328" xlink:href="#DejaVuSans-74"/>
     <use x="193.945312" xlink:href="#DejaVuSans-68"/>
     <use x="257.324219" xlink:href="#DejaVuSans-65"/>
     <use x="318.847656" xlink:href="#DejaVuSans-20"/>
     <use x="350.634766" xlink:href="#DejaVuSans-73"/>
     <use x="402.734375" xlink:href="#DejaVuSans-61"/>
     <use x="464.013672" xlink:href="#DejaVuSans-6d"/>
     <use x="561.425781" xlink:href="#DejaVuSans-70"/>
     <use x="624.902344" xlink:href="#DejaVuSans-6c"/>
     <use x="652.685547" xlink:href="#DejaVuSans-65"/>
     <use x="714.208984" xlink:href="#DejaVuSans-20"/>
     <use x="745.996094" xlink:href="#DejaVuSans-64"/>
     <use x="809.472656" xlink:href="#DejaVuSans-61"/>
     <use x="870.751953" xlink:href="#DejaVuSans-74"/>
     <use x="909.960938" xlink:href="#DejaVuSans-61"/>
    </g>
   </g>
   <g id="legend_1">
    <g id="patch_9">
     <path d="M 996.31425 165.9537 
L 1206.90375 165.9537 
Q 1212.18375 165.9537 1212.18375 160.6737 
L 1212.18375 85.8132 
Q 1212.18375 80.5332 1206.90375 80.5332 
L 996.31425 80.5332 
Q 991.03425 80.5332 991.03425 85.8132 
L 991.03425 160.6737 
Q 991.03425 165.9537 996.31425 165.9537 
z
" style="fill:#ffffff;opacity:0.8;stroke:#cccccc;stroke-linejoin:miter;"/>
    </g>
    <g id="patch_10">
     <path d="M 1001.59425 111.153075 
L 1054.39425 111.153075 
L 1054.39425 92.673075 
L 1001.59425 92.673075 
z
" style="fill:#2020df;stroke:#4c4c4c;stroke-linejoin:miter;stroke-width:0.75;"/>
    </g>
    <g id="text_12">
     <!-- Clustered -->
     <g style="fill:#262626;" transform="translate(1075.51425 111.153075)scale(0.264 -0.264)">
      <defs>
       <path d="M 4122 4306 
L 4122 3641 
Q 3803 3938 3442 4084 
Q 3081 4231 2675 4231 
Q 1875 4231 1450 3742 
Q 1025 3253 1025 2328 
Q 1025 1406 1450 917 
Q 1875 428 2675 428 
Q 3081 428 3442 575 
Q 3803 722 4122 1019 
L 4122 359 
Q 3791 134 3420 21 
Q 3050 -91 2638 -91 
Q 1578 -91 968 557 
Q 359 1206 359 2328 
Q 359 3453 968 4101 
Q 1578 4750 2638 4750 
Q 3056 4750 3426 4639 
Q 3797 4528 4122 4306 
z
" id="DejaVuSans-43" transform="scale(0.015625)"/>
      </defs>
      <use xlink:href="#DejaVuSans-43"/>
      <use x="69.824219" xlink:href="#DejaVuSans-6c"/>
      <use x="97.607422" xlink:href="#DejaVuSans-75"/>
      <use x="160.986328" xlink:href="#DejaVuSans-73"/>
      <use x="213.085938" xlink:href="#DejaVuSans-74"/>
      <use x="252.294922" xlink:href="#DejaVuSans-65"/>
      <use x="313.818359" xlink:href="#DejaVuSans-72"/>
      <use x="352.681641" xlink:href="#DejaVuSans-65"/>
      <use x="414.205078" xlink:href="#DejaVuSans-64"/>
     </g>
    </g>
    <g id="patch_11">
     <path d="M 1001.59425 149.903325 
L 1054.39425 149.903325 
L 1054.39425 131.423325 
L 1001.59425 131.423325 
z
" style="fill:#20dfdf;stroke:#4c4c4c;stroke-linejoin:miter;stroke-width:0.75;"/>
    </g>
    <g id="text_13">
     <!-- Random -->
     <g style="fill:#262626;" transform="translate(1075.51425 149.903325)scale(0.264 -0.264)">
      <defs>
       <path d="M 2841 2188 
Q 3044 2119 3236 1894 
Q 3428 1669 3622 1275 
L 4263 0 
L 3584 0 
L 2988 1197 
Q 2756 1666 2539 1819 
Q 2322 1972 1947 1972 
L 1259 1972 
L 1259 0 
L 628 0 
L 628 4666 
L 2053 4666 
Q 2853 4666 3247 4331 
Q 3641 3997 3641 3322 
Q 3641 2881 3436 2590 
Q 3231 2300 2841 2188 
z
M 1259 4147 
L 1259 2491 
L 2053 2491 
Q 2509 2491 2742 2702 
Q 2975 2913 2975 3322 
Q 2975 3731 2742 3939 
Q 2509 4147 2053 4147 
L 1259 4147 
z
" id="DejaVuSans-52" transform="scale(0.015625)"/>
      </defs>
      <use xlink:href="#DejaVuSans-52"/>
      <use x="67.232422" xlink:href="#DejaVuSans-61"/>
      <use x="128.511719" xlink:href="#DejaVuSans-6e"/>
      <use x="191.890625" xlink:href="#DejaVuSans-64"/>
      <use x="255.367188" xlink:href="#DejaVuSans-6f"/>
      <use x="316.548828" xlink:href="#DejaVuSans-6d"/>
     </g>
    </g>
   </g>
  </g>
 </g>
 <defs>
  <clipPath id="p434fa585cb">
   <rect height="277.2" width="837" x="107.35425" y="67.3332"/>
  </clipPath>
 </defs>
</svg>
