<?xml version="1.0" encoding="utf-8" standalone="no"?>
<!DOCTYPE svg PUBLIC "-//W3C//DTD SVG 1.1//EN"
  "http://www.w3.org/Graphics/SVG/1.1/DTD/svg11.dtd">
<svg height="345.6pt" version="1.1" viewBox="0 0 460.8 345.6" width="460.8pt" xmlns="http://www.w3.org/2000/svg" xmlns:xlink="http://www.w3.org/1999/xlink">
 <metadata>
  <rdf:RDF xmlns:cc="http://creativecommons.org/ns#" xmlns:dc="http://purl.org/dc/elements/1.1/" xmlns:rdf="http://www.w3.org/1999/02/22-rdf-syntax-ns#">
   <cc:Work>
    <dc:type rdf:resource="http://purl.org/dc/dcmitype/StillImage"/>
    <dc:date>2022-01-21T10:21:17.687565</dc:date>
    <dc:format>image/svg+xml</dc:format>
    <dc:creator>
     <cc:Agent>
      <dc:title>Matplotlib v3.4.3, https://matplotlib.org/</dc:title>
     </cc:Agent>
    </dc:creator>
   </cc:Work>
  </rdf:RDF>
 </metadata>
 <defs>
  <style type="text/css">*{stroke-linecap:butt;stroke-linejoin:round;}</style>
 </defs>
 <g id="figure_1">
  <g id="patch_1">
   <path d="M 0 345.6 
L 460.8 345.6 
L 460.8 0 
L 0 0 
z
" style="fill:#ffffff;"/>
  </g>
  <g id="axes_1">
   <g id="patch_2">
    <path d="M 57.6 87.353379 
L 135.234783 87.353379 
L 135.234783 41.472 
L 57.6 41.472 
z
" style="fill:#ffffff;"/>
   </g>
   <g id="patch_3">
    <path clip-path="url(#p3d4c583713)" d="M 61.128854 87.353379 
L 72.8917 87.353379 
L 72.8917 50.672574 
L 61.128854 50.672574 
z
" style="fill:#1f77b4;"/>
   </g>
   <g id="patch_4">
    <path clip-path="url(#p3d4c583713)" d="M 75.832411 87.353379 
L 87.595257 87.353379 
L 87.595257 85.349013 
L 75.832411 85.349013 
z
" style="fill:#1f77b4;"/>
   </g>
   <g id="patch_5">
    <path clip-path="url(#p3d4c583713)" d="M 90.535968 87.353379 
L 102.298814 87.353379 
L 102.298814 85.717496 
L 90.535968 85.717496 
z
"/>
   </g>
   <g id="patch_6">
    <path clip-path="url(#p3d4c583713)" d="M 105.239526 87.353379 
L 117.002372 87.353379 
L 117.002372 87.2643 
L 105.239526 87.2643 
z
"/>
   </g>
   <g id="patch_7">
    <path clip-path="url(#p3d4c583713)" d="M 119.943083 87.353379 
L 131.705929 87.353379 
L 131.705929 84.982486 
L 119.943083 84.982486 
z
"/>
   </g>
   <g id="patch_8">
    <path clip-path="url(#p3d4c583713)" d="M 61.128854 50.672574 
L 72.8917 50.672574 
L 72.8917 46.596929 
L 61.128854 46.596929 
z
" style="fill:#aec7e8;"/>
   </g>
   <g id="patch_9">
    <path clip-path="url(#p3d4c583713)" d="M 75.832411 85.349013 
L 87.595257 85.349013 
L 87.595257 85.126305 
L 75.832411 85.126305 
z
"/>
   </g>
   <g id="patch_10">
    <path clip-path="url(#p3d4c583713)" d="M 90.535968 85.717496 
L 102.298814 85.717496 
L 102.298814 85.535732 
L 90.535968 85.535732 
z
" style="fill:#aec7e8;"/>
   </g>
   <g id="patch_11">
    <path clip-path="url(#p3d4c583713)" d="M 105.239526 87.2643 
L 117.002372 87.2643 
L 117.002372 87.254402 
L 105.239526 87.254402 
z
" style="fill:#aec7e8;"/>
   </g>
   <g id="patch_12">
    <path clip-path="url(#p3d4c583713)" d="M 119.943083 84.982486 
L 131.705929 84.982486 
L 131.705929 84.719054 
L 119.943083 84.719054 
z
" style="fill:#1f77b4;"/>
   </g>
   <g id="matplotlib.axis_1"/>
   <g id="matplotlib.axis_2">
    <g id="ytick_1">
     <g id="line2d_1">
      <defs>
       <path d="M 0 0 
L -3.5 0 
" id="m2d58de0dfe" style="stroke:#000000;stroke-width:0.8;"/>
      </defs>
      <g>
       <use style="stroke:#000000;stroke-width:0.8;" x="57.6" xlink:href="#m2d58de0dfe" y="87.353379"/>
      </g>
     </g>
     <g id="text_1">
      <!-- 0.0 -->
      <g transform="translate(34.696875 91.152598)scale(0.1 -0.1)">
       <defs>
        <path d="M 2034 4250 
Q 1547 4250 1301 3770 
Q 1056 3291 1056 2328 
Q 1056 1369 1301 889 
Q 1547 409 2034 409 
Q 2525 409 2770 889 
Q 3016 1369 3016 2328 
Q 3016 3291 2770 3770 
Q 2525 4250 2034 4250 
z
M 2034 4750 
Q 2819 4750 3233 4129 
Q 3647 3509 3647 2328 
Q 3647 1150 3233 529 
Q 2819 -91 2034 -91 
Q 1250 -91 836 529 
Q 422 1150 422 2328 
Q 422 3509 836 4129 
Q 1250 4750 2034 4750 
z
" id="DejaVuSans-30" transform="scale(0.015625)"/>
        <path d="M 684 794 
L 1344 794 
L 1344 0 
L 684 0 
L 684 794 
z
" id="DejaVuSans-2e" transform="scale(0.015625)"/>
       </defs>
       <use xlink:href="#DejaVuSans-30"/>
       <use x="63.623047" xlink:href="#DejaVuSans-2e"/>
       <use x="95.410156" xlink:href="#DejaVuSans-30"/>
      </g>
     </g>
    </g>
    <g id="ytick_2">
     <g id="line2d_2">
      <g>
       <use style="stroke:#000000;stroke-width:0.8;" x="57.6" xlink:href="#m2d58de0dfe" y="60.544292"/>
      </g>
     </g>
     <g id="text_2">
      <!-- 0.5 -->
      <g transform="translate(34.696875 64.343511)scale(0.1 -0.1)">
       <defs>
        <path d="M 691 4666 
L 3169 4666 
L 3169 4134 
L 1269 4134 
L 1269 2991 
Q 1406 3038 1543 3061 
Q 1681 3084 1819 3084 
Q 2600 3084 3056 2656 
Q 3513 2228 3513 1497 
Q 3513 744 3044 326 
Q 2575 -91 1722 -91 
Q 1428 -91 1123 -41 
Q 819 9 494 109 
L 494 744 
Q 775 591 1075 516 
Q 1375 441 1709 441 
Q 2250 441 2565 725 
Q 2881 1009 2881 1497 
Q 2881 1984 2565 2268 
Q 2250 2553 1709 2553 
Q 1456 2553 1204 2497 
Q 953 2441 691 2322 
L 691 4666 
z
" id="DejaVuSans-35" transform="scale(0.015625)"/>
       </defs>
       <use xlink:href="#DejaVuSans-30"/>
       <use x="63.623047" xlink:href="#DejaVuSans-2e"/>
       <use x="95.410156" xlink:href="#DejaVuSans-35"/>
      </g>
     </g>
    </g>
   </g>
   <g id="patch_13">
    <path d="M 57.6 87.353379 
L 57.6 41.472 
" style="fill:none;stroke:#000000;stroke-linecap:square;stroke-linejoin:miter;stroke-width:0.8;"/>
   </g>
   <g id="patch_14">
    <path d="M 135.234783 87.353379 
L 135.234783 41.472 
" style="fill:none;stroke:#000000;stroke-linecap:square;stroke-linejoin:miter;stroke-width:0.8;"/>
   </g>
   <g id="patch_15">
    <path d="M 57.6 87.353379 
L 135.234783 87.353379 
" style="fill:none;stroke:#000000;stroke-linecap:square;stroke-linejoin:miter;stroke-width:0.8;"/>
   </g>
   <g id="patch_16">
    <path d="M 57.6 41.472 
L 135.234783 41.472 
" style="fill:none;stroke:#000000;stroke-linecap:square;stroke-linejoin:miter;stroke-width:0.8;"/>
   </g>
  </g>
  <g id="axes_2">
   <g id="patch_17">
    <path d="M 150.761739 87.353379 
L 228.396522 87.353379 
L 228.396522 41.472 
L 150.761739 41.472 
z
" style="fill:#ffffff;"/>
   </g>
   <g id="patch_18">
    <path clip-path="url(#pfe8426deb3)" d="M 154.290593 87.353379 
L 166.053439 87.353379 
L 166.053439 49.989568 
L 154.290593 49.989568 
z
" style="fill:#ff7f0e;"/>
   </g>
   <g id="patch_19">
    <path clip-path="url(#pfe8426deb3)" d="M 168.99415 87.353379 
L 180.756996 87.353379 
L 180.756996 85.394871 
L 168.99415 85.394871 
z
" style="fill:#ff7f0e;"/>
   </g>
   <g id="patch_20">
    <path clip-path="url(#pfe8426deb3)" d="M 183.697708 87.353379 
L 195.460553 87.353379 
L 195.460553 83.348435 
L 183.697708 83.348435 
z
"/>
   </g>
   <g id="patch_21">
    <path clip-path="url(#pfe8426deb3)" d="M 198.401265 87.353379 
L 210.164111 87.353379 
L 210.164111 84.376904 
L 198.401265 84.376904 
z
"/>
   </g>
   <g id="patch_22">
    <path clip-path="url(#pfe8426deb3)" d="M 213.104822 87.353379 
L 224.867668 87.353379 
L 224.867668 84.839334 
L 213.104822 84.839334 
z
"/>
   </g>
   <g id="patch_23">
    <path clip-path="url(#pfe8426deb3)" d="M 154.290593 49.989568 
L 166.053439 49.989568 
L 166.053439 45.838033 
L 154.290593 45.838033 
z
" style="fill:#1f77b4;"/>
   </g>
   <g id="patch_24">
    <path clip-path="url(#pfe8426deb3)" d="M 168.99415 85.394871 
L 180.756996 85.394871 
L 180.756996 85.177258 
L 168.99415 85.177258 
z
"/>
   </g>
   <g id="patch_25">
    <path clip-path="url(#pfe8426deb3)" d="M 183.697708 83.348435 
L 195.460553 83.348435 
L 195.460553 82.903441 
L 183.697708 82.903441 
z
" style="fill:#ff7f0e;"/>
   </g>
   <g id="patch_26">
    <path clip-path="url(#pfe8426deb3)" d="M 198.401265 84.376904 
L 210.164111 84.376904 
L 210.164111 84.046184 
L 198.401265 84.046184 
z
" style="fill:#1f77b4;"/>
   </g>
   <g id="patch_27">
    <path clip-path="url(#pfe8426deb3)" d="M 213.104822 84.839334 
L 224.867668 84.839334 
L 224.867668 84.559995 
L 213.104822 84.559995 
z
" style="fill:#1f77b4;"/>
   </g>
   <g id="matplotlib.axis_3"/>
   <g id="matplotlib.axis_4">
    <g id="ytick_3">
     <g id="line2d_3">
      <g>
       <use style="stroke:#000000;stroke-width:0.8;" x="150.761739" xlink:href="#m2d58de0dfe" y="87.353379"/>
      </g>
     </g>
    </g>
    <g id="ytick_4">
     <g id="line2d_4">
      <g>
       <use style="stroke:#000000;stroke-width:0.8;" x="150.761739" xlink:href="#m2d58de0dfe" y="60.544292"/>
      </g>
     </g>
    </g>
   </g>
   <g id="patch_28">
    <path d="M 150.761739 87.353379 
L 150.761739 41.472 
" style="fill:none;stroke:#000000;stroke-linecap:square;stroke-linejoin:miter;stroke-width:0.8;"/>
   </g>
   <g id="patch_29">
    <path d="M 228.396522 87.353379 
L 228.396522 41.472 
" style="fill:none;stroke:#000000;stroke-linecap:square;stroke-linejoin:miter;stroke-width:0.8;"/>
   </g>
   <g id="patch_30">
    <path d="M 150.761739 87.353379 
L 228.396522 87.353379 
" style="fill:none;stroke:#000000;stroke-linecap:square;stroke-linejoin:miter;stroke-width:0.8;"/>
   </g>
   <g id="patch_31">
    <path d="M 150.761739 41.472 
L 228.396522 41.472 
" style="fill:none;stroke:#000000;stroke-linecap:square;stroke-linejoin:miter;stroke-width:0.8;"/>
   </g>
  </g>
  <g id="axes_3">
   <g id="patch_32">
    <path d="M 243.923478 87.353379 
L 321.558261 87.353379 
L 321.558261 41.472 
L 243.923478 41.472 
z
" style="fill:#ffffff;"/>
   </g>
   <g id="patch_33">
    <path clip-path="url(#p60307579ef)" d="M 247.452332 87.353379 
L 267.617211 87.353379 
L 267.617211 50.361598 
L 247.452332 50.361598 
z
" style="fill:#ff7f0e;"/>
   </g>
   <g id="patch_34">
    <path clip-path="url(#p60307579ef)" d="M 272.65843 87.353379 
L 292.823309 87.353379 
L 292.823309 83.348435 
L 272.65843 83.348435 
z
" style="fill:#ff7f0e;"/>
   </g>
   <g id="patch_35">
    <path clip-path="url(#p60307579ef)" d="M 297.864529 87.353379 
L 318.029407 87.353379 
L 318.029407 84.285128 
L 297.864529 84.285128 
z
"/>
   </g>
   <g id="patch_36">
    <path clip-path="url(#p60307579ef)" d="M 247.452332 50.361598 
L 267.617211 50.361598 
L 267.617211 46.2514 
L 247.452332 46.2514 
z
" style="fill:#aec7e8;"/>
   </g>
   <g id="patch_37">
    <path clip-path="url(#p60307579ef)" d="M 272.65843 83.348435 
L 292.823309 83.348435 
L 292.823309 82.903441 
L 272.65843 82.903441 
z
"/>
   </g>
   <g id="patch_38">
    <path clip-path="url(#p60307579ef)" d="M 297.864529 84.285128 
L 318.029407 84.285128 
L 318.029407 83.944212 
L 297.864529 83.944212 
z
" style="fill:#aec7e8;"/>
   </g>
   <g id="matplotlib.axis_5"/>
   <g id="matplotlib.axis_6">
    <g id="ytick_5">
     <g id="line2d_5">
      <g>
       <use style="stroke:#000000;stroke-width:0.8;" x="243.923478" xlink:href="#m2d58de0dfe" y="87.353379"/>
      </g>
     </g>
    </g>
    <g id="ytick_6">
     <g id="line2d_6">
      <g>
       <use style="stroke:#000000;stroke-width:0.8;" x="243.923478" xlink:href="#m2d58de0dfe" y="60.544292"/>
      </g>
     </g>
    </g>
   </g>
   <g id="patch_39">
    <path d="M 243.923478 87.353379 
L 243.923478 41.472 
" style="fill:none;stroke:#000000;stroke-linecap:square;stroke-linejoin:miter;stroke-width:0.8;"/>
   </g>
   <g id="patch_40">
    <path d="M 321.558261 87.353379 
L 321.558261 41.472 
" style="fill:none;stroke:#000000;stroke-linecap:square;stroke-linejoin:miter;stroke-width:0.8;"/>
   </g>
   <g id="patch_41">
    <path d="M 243.923478 87.353379 
L 321.558261 87.353379 
" style="fill:none;stroke:#000000;stroke-linecap:square;stroke-linejoin:miter;stroke-width:0.8;"/>
   </g>
   <g id="patch_42">
    <path d="M 243.923478 41.472 
L 321.558261 41.472 
" style="fill:none;stroke:#000000;stroke-linecap:square;stroke-linejoin:miter;stroke-width:0.8;"/>
   </g>
  </g>
  <g id="axes_4">
   <g id="patch_43">
    <path d="M 337.085217 87.353379 
L 414.72 87.353379 
L 414.72 41.472 
L 337.085217 41.472 
z
" style="fill:#ffffff;"/>
   </g>
   <g id="patch_44">
    <path clip-path="url(#pb46ec6469a)" d="M 340.614071 87.353379 
L 352.376917 87.353379 
L 352.376917 52.238289 
L 340.614071 52.238289 
z
" style="fill:#1f77b4;"/>
   </g>
   <g id="patch_45">
    <path clip-path="url(#pb46ec6469a)" d="M 355.317628 87.353379 
L 367.080474 87.353379 
L 367.080474 86.673871 
L 355.317628 86.673871 
z
" style="fill:#1f77b4;"/>
   </g>
   <g id="patch_46">
    <path clip-path="url(#pb46ec6469a)" d="M 370.021186 87.353379 
L 381.784032 87.353379 
L 381.784032 86.037505 
L 370.021186 86.037505 
z
"/>
   </g>
   <g id="patch_47">
    <path clip-path="url(#pb46ec6469a)" d="M 384.724743 87.353379 
L 396.487589 87.353379 
L 396.487589 86.530295 
L 384.724743 86.530295 
z
"/>
   </g>
   <g id="patch_48">
    <path clip-path="url(#pb46ec6469a)" d="M 399.4283 87.353379 
L 411.191146 87.353379 
L 411.191146 84.982486 
L 399.4283 84.982486 
z
"/>
   </g>
   <g id="patch_49">
    <path clip-path="url(#pb46ec6469a)" d="M 340.614071 52.238289 
L 352.376917 52.238289 
L 352.376917 48.336613 
L 340.614071 48.336613 
z
" style="fill:#ff7f0e;"/>
   </g>
   <g id="patch_50">
    <path clip-path="url(#pb46ec6469a)" d="M 355.317628 86.673871 
L 367.080474 86.673871 
L 367.080474 86.598371 
L 355.317628 86.598371 
z
"/>
   </g>
   <g id="patch_51">
    <path clip-path="url(#pb46ec6469a)" d="M 370.021186 86.037505 
L 381.784032 86.037505 
L 381.784032 85.891296 
L 370.021186 85.891296 
z
" style="fill:#ff7f0e;"/>
   </g>
   <g id="patch_52">
    <path clip-path="url(#pb46ec6469a)" d="M 384.724743 86.530295 
L 396.487589 86.530295 
L 396.487589 86.438841 
L 384.724743 86.438841 
z
" style="fill:#ff7f0e;"/>
   </g>
   <g id="patch_53">
    <path clip-path="url(#pb46ec6469a)" d="M 399.4283 84.982486 
L 411.191146 84.982486 
L 411.191146 84.719054 
L 399.4283 84.719054 
z
" style="fill:#1f77b4;"/>
   </g>
   <g id="matplotlib.axis_7"/>
   <g id="matplotlib.axis_8">
    <g id="ytick_7">
     <g id="line2d_7">
      <g>
       <use style="stroke:#000000;stroke-width:0.8;" x="337.085217" xlink:href="#m2d58de0dfe" y="87.353379"/>
      </g>
     </g>
    </g>
    <g id="ytick_8">
     <g id="line2d_8">
      <g>
       <use style="stroke:#000000;stroke-width:0.8;" x="337.085217" xlink:href="#m2d58de0dfe" y="60.544292"/>
      </g>
     </g>
    </g>
   </g>
   <g id="patch_54">
    <path d="M 337.085217 87.353379 
L 337.085217 41.472 
" style="fill:none;stroke:#000000;stroke-linecap:square;stroke-linejoin:miter;stroke-width:0.8;"/>
   </g>
   <g id="patch_55">
    <path d="M 414.72 87.353379 
L 414.72 41.472 
" style="fill:none;stroke:#000000;stroke-linecap:square;stroke-linejoin:miter;stroke-width:0.8;"/>
   </g>
   <g id="patch_56">
    <path d="M 337.085217 87.353379 
L 414.72 87.353379 
" style="fill:none;stroke:#000000;stroke-linecap:square;stroke-linejoin:miter;stroke-width:0.8;"/>
   </g>
   <g id="patch_57">
    <path d="M 337.085217 41.472 
L 414.72 41.472 
" style="fill:none;stroke:#000000;stroke-linecap:square;stroke-linejoin:miter;stroke-width:0.8;"/>
   </g>
  </g>
  <g id="axes_5">
   <g id="patch_58">
    <path d="M 57.6 142.411034 
L 135.234783 142.411034 
L 135.234783 96.529655 
L 57.6 96.529655 
z
" style="fill:#ffffff;"/>
   </g>
   <g id="patch_59">
    <path clip-path="url(#pba779f2cfa)" d="M 61.128854 142.411034 
L 81.293732 142.411034 
L 81.293732 105.952204 
L 61.128854 105.952204 
z
" style="fill:#ff7f0e;"/>
   </g>
   <g id="patch_60">
    <path clip-path="url(#pba779f2cfa)" d="M 86.334952 142.411034 
L 106.499831 142.411034 
L 106.499831 138.40609 
L 86.334952 138.40609 
z
" style="fill:#ff7f0e;"/>
   </g>
   <g id="patch_61">
    <path clip-path="url(#pba779f2cfa)" d="M 111.54105 142.411034 
L 131.705929 142.411034 
L 131.705929 139.366662 
L 111.54105 139.366662 
z
"/>
   </g>
   <g id="patch_62">
    <path clip-path="url(#pba779f2cfa)" d="M 61.128854 105.952204 
L 81.293732 105.952204 
L 81.293732 101.901223 
L 61.128854 101.901223 
z
" style="fill:#ffbb78;"/>
   </g>
   <g id="patch_63">
    <path clip-path="url(#pba779f2cfa)" d="M 86.334952 138.40609 
L 106.499831 138.40609 
L 106.499831 137.961097 
L 86.334952 137.961097 
z
"/>
   </g>
   <g id="patch_64">
    <path clip-path="url(#pba779f2cfa)" d="M 111.54105 139.366662 
L 131.705929 139.366662 
L 131.705929 139.028398 
L 111.54105 139.028398 
z
" style="fill:#ffbb78;"/>
   </g>
   <g id="matplotlib.axis_9"/>
   <g id="matplotlib.axis_10">
    <g id="ytick_9">
     <g id="line2d_9">
      <g>
       <use style="stroke:#000000;stroke-width:0.8;" x="57.6" xlink:href="#m2d58de0dfe" y="142.411034"/>
      </g>
     </g>
     <g id="text_3">
      <!-- 0.0 -->
      <g transform="translate(34.696875 146.210253)scale(0.1 -0.1)">
       <use xlink:href="#DejaVuSans-30"/>
       <use x="63.623047" xlink:href="#DejaVuSans-2e"/>
       <use x="95.410156" xlink:href="#DejaVuSans-30"/>
      </g>
     </g>
    </g>
    <g id="ytick_10">
     <g id="line2d_10">
      <g>
       <use style="stroke:#000000;stroke-width:0.8;" x="57.6" xlink:href="#m2d58de0dfe" y="115.601947"/>
      </g>
     </g>
     <g id="text_4">
      <!-- 0.5 -->
      <g transform="translate(34.696875 119.401166)scale(0.1 -0.1)">
       <use xlink:href="#DejaVuSans-30"/>
       <use x="63.623047" xlink:href="#DejaVuSans-2e"/>
       <use x="95.410156" xlink:href="#DejaVuSans-35"/>
      </g>
     </g>
    </g>
   </g>
   <g id="patch_65">
    <path d="M 57.6 142.411034 
L 57.6 96.529655 
" style="fill:none;stroke:#000000;stroke-linecap:square;stroke-linejoin:miter;stroke-width:0.8;"/>
   </g>
   <g id="patch_66">
    <path d="M 135.234783 142.411034 
L 135.234783 96.529655 
" style="fill:none;stroke:#000000;stroke-linecap:square;stroke-linejoin:miter;stroke-width:0.8;"/>
   </g>
   <g id="patch_67">
    <path d="M 57.6 142.411034 
L 135.234783 142.411034 
" style="fill:none;stroke:#000000;stroke-linecap:square;stroke-linejoin:miter;stroke-width:0.8;"/>
   </g>
   <g id="patch_68">
    <path d="M 57.6 96.529655 
L 135.234783 96.529655 
" style="fill:none;stroke:#000000;stroke-linecap:square;stroke-linejoin:miter;stroke-width:0.8;"/>
   </g>
  </g>
  <g id="axes_6">
   <g id="patch_69">
    <path d="M 150.761739 142.411034 
L 228.396522 142.411034 
L 228.396522 96.529655 
L 150.761739 96.529655 
z
" style="fill:#ffffff;"/>
   </g>
   <g id="patch_70">
    <path clip-path="url(#pfafebbaba2)" d="M 154.290593 142.411034 
L 174.455471 142.411034 
L 174.455471 103.084138 
L 154.290593 103.084138 
z
" style="fill:#1f77b4;"/>
   </g>
   <g id="patch_71">
    <path clip-path="url(#pfafebbaba2)" d="M 179.496691 142.411034 
L 199.66157 142.411034 
L 199.66157 133.943625 
L 179.496691 133.943625 
z
" style="fill:#1f77b4;"/>
   </g>
   <g id="patch_72">
    <path clip-path="url(#pfafebbaba2)" d="M 204.702789 142.411034 
L 224.867668 142.411034 
L 224.867668 134.036489 
L 204.702789 134.036489 
z
"/>
   </g>
   <g id="patch_73">
    <path clip-path="url(#pfafebbaba2)" d="M 154.290593 103.084138 
L 174.455471 103.084138 
L 174.455471 98.714483 
L 154.290593 98.714483 
z
" style="fill:#aec7e8;"/>
   </g>
   <g id="patch_74">
    <path clip-path="url(#pfafebbaba2)" d="M 179.496691 133.943625 
L 199.66157 133.943625 
L 199.66157 133.002802 
L 179.496691 133.002802 
z
"/>
   </g>
   <g id="patch_75">
    <path clip-path="url(#pfafebbaba2)" d="M 204.702789 134.036489 
L 224.867668 134.036489 
L 224.867668 133.105984 
L 204.702789 133.105984 
z
" style="fill:#aec7e8;"/>
   </g>
   <g id="matplotlib.axis_11"/>
   <g id="matplotlib.axis_12">
    <g id="ytick_11">
     <g id="line2d_11">
      <g>
       <use style="stroke:#000000;stroke-width:0.8;" x="150.761739" xlink:href="#m2d58de0dfe" y="142.411034"/>
      </g>
     </g>
    </g>
    <g id="ytick_12">
     <g id="line2d_12">
      <g>
       <use style="stroke:#000000;stroke-width:0.8;" x="150.761739" xlink:href="#m2d58de0dfe" y="115.601947"/>
      </g>
     </g>
    </g>
   </g>
   <g id="patch_76">
    <path d="M 150.761739 142.411034 
L 150.761739 96.529655 
" style="fill:none;stroke:#000000;stroke-linecap:square;stroke-linejoin:miter;stroke-width:0.8;"/>
   </g>
   <g id="patch_77">
    <path d="M 228.396522 142.411034 
L 228.396522 96.529655 
" style="fill:none;stroke:#000000;stroke-linecap:square;stroke-linejoin:miter;stroke-width:0.8;"/>
   </g>
   <g id="patch_78">
    <path d="M 150.761739 142.411034 
L 228.396522 142.411034 
" style="fill:none;stroke:#000000;stroke-linecap:square;stroke-linejoin:miter;stroke-width:0.8;"/>
   </g>
   <g id="patch_79">
    <path d="M 150.761739 96.529655 
L 228.396522 96.529655 
" style="fill:none;stroke:#000000;stroke-linecap:square;stroke-linejoin:miter;stroke-width:0.8;"/>
   </g>
  </g>
  <g id="axes_7">
   <g id="patch_80">
    <path d="M 243.923478 142.411034 
L 321.558261 142.411034 
L 321.558261 96.529655 
L 243.923478 96.529655 
z
" style="fill:#ffffff;"/>
   </g>
   <g id="patch_81">
    <path clip-path="url(#pce66aa8114)" d="M 247.452332 142.411034 
L 259.215178 142.411034 
L 259.215178 110.043731 
L 247.452332 110.043731 
z
" style="fill:#ff7f0e;"/>
   </g>
   <g id="patch_82">
    <path clip-path="url(#pce66aa8114)" d="M 262.155889 142.411034 
L 273.918735 142.411034 
L 273.918735 140.954356 
L 262.155889 140.954356 
z
" style="fill:#ff7f0e;"/>
   </g>
   <g id="patch_83">
    <path clip-path="url(#pce66aa8114)" d="M 276.859447 142.411034 
L 288.622292 142.411034 
L 288.622292 139.801887 
L 276.859447 139.801887 
z
"/>
   </g>
   <g id="patch_84">
    <path clip-path="url(#pce66aa8114)" d="M 291.563004 142.411034 
L 303.32585 142.411034 
L 303.32585 140.641458 
L 291.563004 140.641458 
z
"/>
   </g>
   <g id="patch_85">
    <path clip-path="url(#pce66aa8114)" d="M 306.266561 142.411034 
L 318.029407 142.411034 
L 318.029407 141.194518 
L 306.266561 141.194518 
z
"/>
   </g>
   <g id="patch_86">
    <path clip-path="url(#pce66aa8114)" d="M 247.452332 110.043731 
L 259.215178 110.043731 
L 259.215178 106.447364 
L 247.452332 106.447364 
z
" style="fill:#ffbb78;"/>
   </g>
   <g id="patch_87">
    <path clip-path="url(#pce66aa8114)" d="M 262.155889 140.954356 
L 273.918735 140.954356 
L 273.918735 140.792503 
L 262.155889 140.792503 
z
"/>
   </g>
   <g id="patch_88">
    <path clip-path="url(#pce66aa8114)" d="M 276.859447 139.801887 
L 288.622292 139.801887 
L 288.622292 139.511981 
L 276.859447 139.511981 
z
" style="fill:#ff7f0e;"/>
   </g>
   <g id="patch_89">
    <path clip-path="url(#pce66aa8114)" d="M 291.563004 140.641458 
L 303.32585 140.641458 
L 303.32585 140.444838 
L 291.563004 140.444838 
z
" style="fill:#ffbb78;"/>
   </g>
   <g id="patch_90">
    <path clip-path="url(#pce66aa8114)" d="M 306.266561 141.194518 
L 318.029407 141.194518 
L 318.029407 141.059349 
L 306.266561 141.059349 
z
" style="fill:#ffbb78;"/>
   </g>
   <g id="matplotlib.axis_13"/>
   <g id="matplotlib.axis_14">
    <g id="ytick_13">
     <g id="line2d_13">
      <g>
       <use style="stroke:#000000;stroke-width:0.8;" x="243.923478" xlink:href="#m2d58de0dfe" y="142.411034"/>
      </g>
     </g>
    </g>
    <g id="ytick_14">
     <g id="line2d_14">
      <g>
       <use style="stroke:#000000;stroke-width:0.8;" x="243.923478" xlink:href="#m2d58de0dfe" y="115.601947"/>
      </g>
     </g>
    </g>
   </g>
   <g id="patch_91">
    <path d="M 243.923478 142.411034 
L 243.923478 96.529655 
" style="fill:none;stroke:#000000;stroke-linecap:square;stroke-linejoin:miter;stroke-width:0.8;"/>
   </g>
   <g id="patch_92">
    <path d="M 321.558261 142.411034 
L 321.558261 96.529655 
" style="fill:none;stroke:#000000;stroke-linecap:square;stroke-linejoin:miter;stroke-width:0.8;"/>
   </g>
   <g id="patch_93">
    <path d="M 243.923478 142.411034 
L 321.558261 142.411034 
" style="fill:none;stroke:#000000;stroke-linecap:square;stroke-linejoin:miter;stroke-width:0.8;"/>
   </g>
   <g id="patch_94">
    <path d="M 243.923478 96.529655 
L 321.558261 96.529655 
" style="fill:none;stroke:#000000;stroke-linecap:square;stroke-linejoin:miter;stroke-width:0.8;"/>
   </g>
  </g>
  <g id="axes_8">
   <g id="patch_95">
    <path d="M 337.085217 142.411034 
L 414.72 142.411034 
L 414.72 96.529655 
L 337.085217 96.529655 
z
" style="fill:#ffffff;"/>
   </g>
   <g id="patch_96">
    <path clip-path="url(#pae5143e1e0)" d="M 340.614071 142.411034 
L 352.376917 142.411034 
L 352.376917 109.815828 
L 340.614071 109.815828 
z
" style="fill:#1f77b4;"/>
   </g>
   <g id="patch_97">
    <path clip-path="url(#pae5143e1e0)" d="M 355.317628 142.411034 
L 367.080474 142.411034 
L 367.080474 142.369078 
L 355.317628 142.369078 
z
" style="fill:#1f77b4;"/>
   </g>
   <g id="patch_98">
    <path clip-path="url(#pae5143e1e0)" d="M 370.021186 142.411034 
L 381.784032 142.411034 
L 381.784032 140.018304 
L 370.021186 140.018304 
z
"/>
   </g>
   <g id="patch_99">
    <path clip-path="url(#pae5143e1e0)" d="M 384.724743 142.411034 
L 396.487589 142.411034 
L 396.487589 141.023519 
L 384.724743 141.023519 
z
"/>
   </g>
   <g id="patch_100">
    <path clip-path="url(#pae5143e1e0)" d="M 399.4283 142.411034 
L 411.191146 142.411034 
L 411.191146 139.134639 
L 399.4283 139.134639 
z
"/>
   </g>
   <g id="patch_101">
    <path clip-path="url(#pae5143e1e0)" d="M 340.614071 109.815828 
L 352.376917 109.815828 
L 352.376917 106.194138 
L 340.614071 106.194138 
z
" style="fill:#aec7e8;"/>
   </g>
   <g id="patch_102">
    <path clip-path="url(#pae5143e1e0)" d="M 355.317628 142.369078 
L 367.080474 142.369078 
L 367.080474 142.364416 
L 355.317628 142.364416 
z
"/>
   </g>
   <g id="patch_103">
    <path clip-path="url(#pae5143e1e0)" d="M 370.021186 140.018304 
L 381.784032 140.018304 
L 381.784032 139.752445 
L 370.021186 139.752445 
z
" style="fill:#aec7e8;"/>
   </g>
   <g id="patch_104">
    <path clip-path="url(#pae5143e1e0)" d="M 384.724743 141.023519 
L 396.487589 141.023519 
L 396.487589 140.86935 
L 384.724743 140.86935 
z
" style="fill:#aec7e8;"/>
   </g>
   <g id="patch_105">
    <path clip-path="url(#pae5143e1e0)" d="M 399.4283 139.134639 
L 411.191146 139.134639 
L 411.191146 138.770595 
L 399.4283 138.770595 
z
" style="fill:#1f77b4;"/>
   </g>
   <g id="matplotlib.axis_15"/>
   <g id="matplotlib.axis_16">
    <g id="ytick_15">
     <g id="line2d_15">
      <g>
       <use style="stroke:#000000;stroke-width:0.8;" x="337.085217" xlink:href="#m2d58de0dfe" y="142.411034"/>
      </g>
     </g>
    </g>
    <g id="ytick_16">
     <g id="line2d_16">
      <g>
       <use style="stroke:#000000;stroke-width:0.8;" x="337.085217" xlink:href="#m2d58de0dfe" y="115.601947"/>
      </g>
     </g>
    </g>
   </g>
   <g id="patch_106">
    <path d="M 337.085217 142.411034 
L 337.085217 96.529655 
" style="fill:none;stroke:#000000;stroke-linecap:square;stroke-linejoin:miter;stroke-width:0.8;"/>
   </g>
   <g id="patch_107">
    <path d="M 414.72 142.411034 
L 414.72 96.529655 
" style="fill:none;stroke:#000000;stroke-linecap:square;stroke-linejoin:miter;stroke-width:0.8;"/>
   </g>
   <g id="patch_108">
    <path d="M 337.085217 142.411034 
L 414.72 142.411034 
" style="fill:none;stroke:#000000;stroke-linecap:square;stroke-linejoin:miter;stroke-width:0.8;"/>
   </g>
   <g id="patch_109">
    <path d="M 337.085217 96.529655 
L 414.72 96.529655 
" style="fill:none;stroke:#000000;stroke-linecap:square;stroke-linejoin:miter;stroke-width:0.8;"/>
   </g>
  </g>
  <g id="axes_9">
   <g id="patch_110">
    <path d="M 57.6 197.46869 
L 135.234783 197.46869 
L 135.234783 151.58731 
L 57.6 151.58731 
z
" style="fill:#ffffff;"/>
   </g>
   <g id="patch_111">
    <path clip-path="url(#pa376ca3091)" d="M 61.128854 197.46869 
L 72.8917 197.46869 
L 72.8917 164.884727 
L 61.128854 164.884727 
z
" style="fill:#aec7e8;"/>
   </g>
   <g id="patch_112">
    <path clip-path="url(#pa376ca3091)" d="M 75.832411 197.46869 
L 87.595257 197.46869 
L 87.595257 197.013161 
L 75.832411 197.013161 
z
" style="fill:#aec7e8;"/>
   </g>
   <g id="patch_113">
    <path clip-path="url(#pa376ca3091)" d="M 90.535968 197.46869 
L 102.298814 197.46869 
L 102.298814 194.859542 
L 90.535968 194.859542 
z
"/>
   </g>
   <g id="patch_114">
    <path clip-path="url(#pa376ca3091)" d="M 105.239526 197.46869 
L 117.002372 197.46869 
L 117.002372 197.156593 
L 105.239526 197.156593 
z
"/>
   </g>
   <g id="patch_115">
    <path clip-path="url(#pa376ca3091)" d="M 119.943083 197.46869 
L 131.705929 197.46869 
L 131.705929 195.075959 
L 119.943083 195.075959 
z
"/>
   </g>
   <g id="patch_116">
    <path clip-path="url(#pa376ca3091)" d="M 61.128854 164.884727 
L 72.8917 164.884727 
L 72.8917 161.264287 
L 61.128854 161.264287 
z
" style="fill:#ff7f0e;"/>
   </g>
   <g id="patch_117">
    <path clip-path="url(#pa376ca3091)" d="M 75.832411 197.013161 
L 87.595257 197.013161 
L 87.595257 196.962546 
L 75.832411 196.962546 
z
"/>
   </g>
   <g id="patch_118">
    <path clip-path="url(#pa376ca3091)" d="M 90.535968 194.859542 
L 102.298814 194.859542 
L 102.298814 194.569637 
L 90.535968 194.569637 
z
" style="fill:#ff7f0e;"/>
   </g>
   <g id="patch_119">
    <path clip-path="url(#pa376ca3091)" d="M 105.239526 197.156593 
L 117.002372 197.156593 
L 117.002372 197.121916 
L 105.239526 197.121916 
z
" style="fill:#ff7f0e;"/>
   </g>
   <g id="patch_120">
    <path clip-path="url(#pa376ca3091)" d="M 119.943083 195.075959 
L 131.705929 195.075959 
L 131.705929 194.8101 
L 119.943083 194.8101 
z
" style="fill:#aec7e8;"/>
   </g>
   <g id="matplotlib.axis_17"/>
   <g id="matplotlib.axis_18">
    <g id="ytick_17">
     <g id="line2d_17">
      <g>
       <use style="stroke:#000000;stroke-width:0.8;" x="57.6" xlink:href="#m2d58de0dfe" y="197.46869"/>
      </g>
     </g>
     <g id="text_5">
      <!-- 0.0 -->
      <g transform="translate(34.696875 201.267908)scale(0.1 -0.1)">
       <use xlink:href="#DejaVuSans-30"/>
       <use x="63.623047" xlink:href="#DejaVuSans-2e"/>
       <use x="95.410156" xlink:href="#DejaVuSans-30"/>
      </g>
     </g>
    </g>
    <g id="ytick_18">
     <g id="line2d_18">
      <g>
       <use style="stroke:#000000;stroke-width:0.8;" x="57.6" xlink:href="#m2d58de0dfe" y="170.659602"/>
      </g>
     </g>
     <g id="text_6">
      <!-- 0.5 -->
      <g transform="translate(34.696875 174.458821)scale(0.1 -0.1)">
       <use xlink:href="#DejaVuSans-30"/>
       <use x="63.623047" xlink:href="#DejaVuSans-2e"/>
       <use x="95.410156" xlink:href="#DejaVuSans-35"/>
      </g>
     </g>
    </g>
   </g>
   <g id="patch_121">
    <path d="M 57.6 197.46869 
L 57.6 151.58731 
" style="fill:none;stroke:#000000;stroke-linecap:square;stroke-linejoin:miter;stroke-width:0.8;"/>
   </g>
   <g id="patch_122">
    <path d="M 135.234783 197.46869 
L 135.234783 151.58731 
" style="fill:none;stroke:#000000;stroke-linecap:square;stroke-linejoin:miter;stroke-width:0.8;"/>
   </g>
   <g id="patch_123">
    <path d="M 57.6 197.46869 
L 135.234783 197.46869 
" style="fill:none;stroke:#000000;stroke-linecap:square;stroke-linejoin:miter;stroke-width:0.8;"/>
   </g>
   <g id="patch_124">
    <path d="M 57.6 151.58731 
L 135.234783 151.58731 
" style="fill:none;stroke:#000000;stroke-linecap:square;stroke-linejoin:miter;stroke-width:0.8;"/>
   </g>
  </g>
  <g id="axes_10">
   <g id="patch_125">
    <path d="M 150.761739 197.46869 
L 228.396522 197.46869 
L 228.396522 151.58731 
L 150.761739 151.58731 
z
" style="fill:#ffffff;"/>
   </g>
   <g id="patch_126">
    <path clip-path="url(#pc6614bd783)" d="M 154.290593 197.46869 
L 174.455471 197.46869 
L 174.455471 158.692848 
L 154.290593 158.692848 
z
" style="fill:#aec7e8;"/>
   </g>
   <g id="patch_127">
    <path clip-path="url(#pc6614bd783)" d="M 179.496691 197.46869 
L 199.66157 197.46869 
L 199.66157 189.094144 
L 179.496691 189.094144 
z
" style="fill:#aec7e8;"/>
   </g>
   <g id="patch_128">
    <path clip-path="url(#pc6614bd783)" d="M 204.702789 197.46869 
L 224.867668 197.46869 
L 224.867668 187.623506 
L 204.702789 187.623506 
z
"/>
   </g>
   <g id="patch_129">
    <path clip-path="url(#pc6614bd783)" d="M 154.290593 158.692848 
L 174.455471 158.692848 
L 174.455471 154.384422 
L 154.290593 154.384422 
z
" style="fill:#ffbb78;"/>
   </g>
   <g id="patch_130">
    <path clip-path="url(#pc6614bd783)" d="M 179.496691 189.094144 
L 199.66157 189.094144 
L 199.66157 188.163639 
L 179.496691 188.163639 
z
"/>
   </g>
   <g id="patch_131">
    <path clip-path="url(#pc6614bd783)" d="M 204.702789 187.623506 
L 224.867668 187.623506 
L 224.867668 186.529596 
L 204.702789 186.529596 
z
" style="fill:#ffbb78;"/>
   </g>
   <g id="matplotlib.axis_19"/>
   <g id="matplotlib.axis_20">
    <g id="ytick_19">
     <g id="line2d_19">
      <g>
       <use style="stroke:#000000;stroke-width:0.8;" x="150.761739" xlink:href="#m2d58de0dfe" y="197.46869"/>
      </g>
     </g>
    </g>
    <g id="ytick_20">
     <g id="line2d_20">
      <g>
       <use style="stroke:#000000;stroke-width:0.8;" x="150.761739" xlink:href="#m2d58de0dfe" y="170.659602"/>
      </g>
     </g>
    </g>
   </g>
   <g id="patch_132">
    <path d="M 150.761739 197.46869 
L 150.761739 151.58731 
" style="fill:none;stroke:#000000;stroke-linecap:square;stroke-linejoin:miter;stroke-width:0.8;"/>
   </g>
   <g id="patch_133">
    <path d="M 228.396522 197.46869 
L 228.396522 151.58731 
" style="fill:none;stroke:#000000;stroke-linecap:square;stroke-linejoin:miter;stroke-width:0.8;"/>
   </g>
   <g id="patch_134">
    <path d="M 150.761739 197.46869 
L 228.396522 197.46869 
" style="fill:none;stroke:#000000;stroke-linecap:square;stroke-linejoin:miter;stroke-width:0.8;"/>
   </g>
   <g id="patch_135">
    <path d="M 150.761739 151.58731 
L 228.396522 151.58731 
" style="fill:none;stroke:#000000;stroke-linecap:square;stroke-linejoin:miter;stroke-width:0.8;"/>
   </g>
  </g>
  <g id="axes_11">
   <g id="patch_136">
    <path d="M 243.923478 197.46869 
L 321.558261 197.46869 
L 321.558261 151.58731 
L 243.923478 151.58731 
z
" style="fill:#ffffff;"/>
   </g>
   <g id="patch_137">
    <path clip-path="url(#p978a189ba5)" d="M 247.452332 197.46869 
L 267.617211 197.46869 
L 267.617211 159.616264 
L 247.452332 159.616264 
z
" style="fill:#aec7e8;"/>
   </g>
   <g id="patch_138">
    <path clip-path="url(#p978a189ba5)" d="M 272.65843 197.46869 
L 292.823309 197.46869 
L 292.823309 189.094144 
L 272.65843 189.094144 
z
" style="fill:#aec7e8;"/>
   </g>
   <g id="patch_139">
    <path clip-path="url(#p978a189ba5)" d="M 297.864529 197.46869 
L 318.029407 197.46869 
L 318.029407 188.032789 
L 297.864529 188.032789 
z
"/>
   </g>
   <g id="patch_140">
    <path clip-path="url(#p978a189ba5)" d="M 247.452332 159.616264 
L 267.617211 159.616264 
L 267.617211 155.410439 
L 247.452332 155.410439 
z
" style="fill:#ff7f0e;"/>
   </g>
   <g id="patch_141">
    <path clip-path="url(#p978a189ba5)" d="M 272.65843 189.094144 
L 292.823309 189.094144 
L 292.823309 188.163639 
L 272.65843 188.163639 
z
"/>
   </g>
   <g id="patch_142">
    <path clip-path="url(#p978a189ba5)" d="M 297.864529 188.032789 
L 318.029407 188.032789 
L 318.029407 186.984356 
L 297.864529 186.984356 
z
" style="fill:#ff7f0e;"/>
   </g>
   <g id="matplotlib.axis_21"/>
   <g id="matplotlib.axis_22">
    <g id="ytick_21">
     <g id="line2d_21">
      <g>
       <use style="stroke:#000000;stroke-width:0.8;" x="243.923478" xlink:href="#m2d58de0dfe" y="197.46869"/>
      </g>
     </g>
    </g>
    <g id="ytick_22">
     <g id="line2d_22">
      <g>
       <use style="stroke:#000000;stroke-width:0.8;" x="243.923478" xlink:href="#m2d58de0dfe" y="170.659602"/>
      </g>
     </g>
    </g>
   </g>
   <g id="patch_143">
    <path d="M 243.923478 197.46869 
L 243.923478 151.58731 
" style="fill:none;stroke:#000000;stroke-linecap:square;stroke-linejoin:miter;stroke-width:0.8;"/>
   </g>
   <g id="patch_144">
    <path d="M 321.558261 197.46869 
L 321.558261 151.58731 
" style="fill:none;stroke:#000000;stroke-linecap:square;stroke-linejoin:miter;stroke-width:0.8;"/>
   </g>
   <g id="patch_145">
    <path d="M 243.923478 197.46869 
L 321.558261 197.46869 
" style="fill:none;stroke:#000000;stroke-linecap:square;stroke-linejoin:miter;stroke-width:0.8;"/>
   </g>
   <g id="patch_146">
    <path d="M 243.923478 151.58731 
L 321.558261 151.58731 
" style="fill:none;stroke:#000000;stroke-linecap:square;stroke-linejoin:miter;stroke-width:0.8;"/>
   </g>
  </g>
  <g id="axes_12">
   <g id="patch_147">
    <path d="M 337.085217 197.46869 
L 414.72 197.46869 
L 414.72 151.58731 
L 337.085217 151.58731 
z
" style="fill:#ffffff;"/>
   </g>
   <g id="patch_148">
    <path clip-path="url(#p2055c93a44)" d="M 340.614071 197.46869 
L 360.77895 197.46869 
L 360.77895 163.340518 
L 340.614071 163.340518 
z
" style="fill:#ffbb78;"/>
   </g>
   <g id="patch_149">
    <path clip-path="url(#p2055c93a44)" d="M 365.820169 197.46869 
L 385.985048 197.46869 
L 385.985048 189.751018 
L 365.820169 189.751018 
z
" style="fill:#ffbb78;"/>
   </g>
   <g id="patch_150">
    <path clip-path="url(#p2055c93a44)" d="M 391.026268 197.46869 
L 411.191146 197.46869 
L 411.191146 191.267411 
L 391.026268 191.267411 
z
"/>
   </g>
   <g id="patch_151">
    <path clip-path="url(#p2055c93a44)" d="M 340.614071 163.340518 
L 360.77895 163.340518 
L 360.77895 159.548499 
L 340.614071 159.548499 
z
" style="fill:#1f77b4;"/>
   </g>
   <g id="patch_152">
    <path clip-path="url(#p2055c93a44)" d="M 365.820169 189.751018 
L 385.985048 189.751018 
L 385.985048 188.893499 
L 365.820169 188.893499 
z
"/>
   </g>
   <g id="patch_153">
    <path clip-path="url(#p2055c93a44)" d="M 391.026268 191.267411 
L 411.191146 191.267411 
L 411.191146 190.57838 
L 391.026268 190.57838 
z
" style="fill:#1f77b4;"/>
   </g>
   <g id="matplotlib.axis_23"/>
   <g id="matplotlib.axis_24">
    <g id="ytick_23">
     <g id="line2d_23">
      <g>
       <use style="stroke:#000000;stroke-width:0.8;" x="337.085217" xlink:href="#m2d58de0dfe" y="197.46869"/>
      </g>
     </g>
    </g>
    <g id="ytick_24">
     <g id="line2d_24">
      <g>
       <use style="stroke:#000000;stroke-width:0.8;" x="337.085217" xlink:href="#m2d58de0dfe" y="170.659602"/>
      </g>
     </g>
    </g>
   </g>
   <g id="patch_154">
    <path d="M 337.085217 197.46869 
L 337.085217 151.58731 
" style="fill:none;stroke:#000000;stroke-linecap:square;stroke-linejoin:miter;stroke-width:0.8;"/>
   </g>
   <g id="patch_155">
    <path d="M 414.72 197.46869 
L 414.72 151.58731 
" style="fill:none;stroke:#000000;stroke-linecap:square;stroke-linejoin:miter;stroke-width:0.8;"/>
   </g>
   <g id="patch_156">
    <path d="M 337.085217 197.46869 
L 414.72 197.46869 
" style="fill:none;stroke:#000000;stroke-linecap:square;stroke-linejoin:miter;stroke-width:0.8;"/>
   </g>
   <g id="patch_157">
    <path d="M 337.085217 151.58731 
L 414.72 151.58731 
" style="fill:none;stroke:#000000;stroke-linecap:square;stroke-linejoin:miter;stroke-width:0.8;"/>
   </g>
  </g>
  <g id="axes_13">
   <g id="patch_158">
    <path d="M 57.6 252.526345 
L 135.234783 252.526345 
L 135.234783 206.644966 
L 57.6 206.644966 
z
" style="fill:#ffffff;"/>
   </g>
   <g id="patch_159">
    <path clip-path="url(#p90136f79e2)" d="M 61.128854 252.526345 
L 81.293732 252.526345 
L 81.293732 220.627727 
L 61.128854 220.627727 
z
" style="fill:#1f77b4;"/>
   </g>
   <g id="patch_160">
    <path clip-path="url(#p90136f79e2)" d="M 86.334952 252.526345 
L 106.499831 252.526345 
L 106.499831 245.396851 
L 86.334952 245.396851 
z
" style="fill:#1f77b4;"/>
   </g>
   <g id="patch_161">
    <path clip-path="url(#p90136f79e2)" d="M 111.54105 252.526345 
L 131.705929 252.526345 
L 131.705929 247.680233 
L 111.54105 247.680233 
z
"/>
   </g>
   <g id="patch_162">
    <path clip-path="url(#p90136f79e2)" d="M 61.128854 220.627727 
L 81.293732 220.627727 
L 81.293732 217.083436 
L 61.128854 217.083436 
z
" style="fill:#ff7f0e;"/>
   </g>
   <g id="patch_163">
    <path clip-path="url(#p90136f79e2)" d="M 86.334952 245.396851 
L 106.499831 245.396851 
L 106.499831 244.604685 
L 86.334952 244.604685 
z
"/>
   </g>
   <g id="patch_164">
    <path clip-path="url(#p90136f79e2)" d="M 111.54105 247.680233 
L 131.705929 247.680233 
L 131.705929 247.141776 
L 111.54105 247.141776 
z
" style="fill:#ff7f0e;"/>
   </g>
   <g id="matplotlib.axis_25"/>
   <g id="matplotlib.axis_26">
    <g id="ytick_25">
     <g id="line2d_25">
      <g>
       <use style="stroke:#000000;stroke-width:0.8;" x="57.6" xlink:href="#m2d58de0dfe" y="252.526345"/>
      </g>
     </g>
     <g id="text_7">
      <!-- 0.0 -->
      <g transform="translate(34.696875 256.325564)scale(0.1 -0.1)">
       <use xlink:href="#DejaVuSans-30"/>
       <use x="63.623047" xlink:href="#DejaVuSans-2e"/>
       <use x="95.410156" xlink:href="#DejaVuSans-30"/>
      </g>
     </g>
    </g>
    <g id="ytick_26">
     <g id="line2d_26">
      <g>
       <use style="stroke:#000000;stroke-width:0.8;" x="57.6" xlink:href="#m2d58de0dfe" y="225.717257"/>
      </g>
     </g>
     <g id="text_8">
      <!-- 0.5 -->
      <g transform="translate(34.696875 229.516476)scale(0.1 -0.1)">
       <use xlink:href="#DejaVuSans-30"/>
       <use x="63.623047" xlink:href="#DejaVuSans-2e"/>
       <use x="95.410156" xlink:href="#DejaVuSans-35"/>
      </g>
     </g>
    </g>
   </g>
   <g id="patch_165">
    <path d="M 57.6 252.526345 
L 57.6 206.644966 
" style="fill:none;stroke:#000000;stroke-linecap:square;stroke-linejoin:miter;stroke-width:0.8;"/>
   </g>
   <g id="patch_166">
    <path d="M 135.234783 252.526345 
L 135.234783 206.644966 
" style="fill:none;stroke:#000000;stroke-linecap:square;stroke-linejoin:miter;stroke-width:0.8;"/>
   </g>
   <g id="patch_167">
    <path d="M 57.6 252.526345 
L 135.234783 252.526345 
" style="fill:none;stroke:#000000;stroke-linecap:square;stroke-linejoin:miter;stroke-width:0.8;"/>
   </g>
   <g id="patch_168">
    <path d="M 57.6 206.644966 
L 135.234783 206.644966 
" style="fill:none;stroke:#000000;stroke-linecap:square;stroke-linejoin:miter;stroke-width:0.8;"/>
   </g>
  </g>
  <g id="axes_14">
   <g id="patch_169">
    <path d="M 150.761739 252.526345 
L 228.396522 252.526345 
L 228.396522 206.644966 
L 150.761739 206.644966 
z
" style="fill:#ffffff;"/>
   </g>
   <g id="patch_170">
    <path clip-path="url(#pd147aa5302)" d="M 154.290593 252.526345 
L 166.053439 252.526345 
L 166.053439 222.740482 
L 154.290593 222.740482 
z
" style="fill:#ff7f0e;"/>
   </g>
   <g id="patch_171">
    <path clip-path="url(#pd147aa5302)" d="M 168.99415 252.526345 
L 180.756996 252.526345 
L 180.756996 251.684501 
L 168.99415 251.684501 
z
" style="fill:#ff7f0e;"/>
   </g>
   <g id="patch_172">
    <path clip-path="url(#pd147aa5302)" d="M 183.697708 252.526345 
L 195.460553 252.526345 
L 195.460553 249.583951 
L 183.697708 249.583951 
z
"/>
   </g>
   <g id="patch_173">
    <path clip-path="url(#pd147aa5302)" d="M 198.401265 252.526345 
L 210.164111 252.526345 
L 210.164111 249.640606 
L 198.401265 249.640606 
z
"/>
   </g>
   <g id="patch_174">
    <path clip-path="url(#pd147aa5302)" d="M 213.104822 252.526345 
L 224.867668 252.526345 
L 224.867668 251.951149 
L 213.104822 251.951149 
z
"/>
   </g>
   <g id="patch_175">
    <path clip-path="url(#pd147aa5302)" d="M 154.290593 222.740482 
L 166.053439 222.740482 
L 166.053439 219.430942 
L 154.290593 219.430942 
z
" style="fill:#1f77b4;"/>
   </g>
   <g id="patch_176">
    <path clip-path="url(#pd147aa5302)" d="M 168.99415 251.684501 
L 180.756996 251.684501 
L 180.756996 251.590963 
L 168.99415 251.590963 
z
"/>
   </g>
   <g id="patch_177">
    <path clip-path="url(#pd147aa5302)" d="M 183.697708 249.583951 
L 195.460553 249.583951 
L 195.460553 249.257018 
L 183.697708 249.257018 
z
" style="fill:#ff7f0e;"/>
   </g>
   <g id="patch_178">
    <path clip-path="url(#pd147aa5302)" d="M 198.401265 249.640606 
L 210.164111 249.640606 
L 210.164111 249.319969 
L 198.401265 249.319969 
z
" style="fill:#1f77b4;"/>
   </g>
   <g id="patch_179">
    <path clip-path="url(#pd147aa5302)" d="M 213.104822 251.951149 
L 224.867668 251.951149 
L 224.867668 251.887239 
L 213.104822 251.887239 
z
" style="fill:#1f77b4;"/>
   </g>
   <g id="matplotlib.axis_27"/>
   <g id="matplotlib.axis_28">
    <g id="ytick_27">
     <g id="line2d_27">
      <g>
       <use style="stroke:#000000;stroke-width:0.8;" x="150.761739" xlink:href="#m2d58de0dfe" y="252.526345"/>
      </g>
     </g>
    </g>
    <g id="ytick_28">
     <g id="line2d_28">
      <g>
       <use style="stroke:#000000;stroke-width:0.8;" x="150.761739" xlink:href="#m2d58de0dfe" y="225.717257"/>
      </g>
     </g>
    </g>
   </g>
   <g id="patch_180">
    <path d="M 150.761739 252.526345 
L 150.761739 206.644966 
" style="fill:none;stroke:#000000;stroke-linecap:square;stroke-linejoin:miter;stroke-width:0.8;"/>
   </g>
   <g id="patch_181">
    <path d="M 228.396522 252.526345 
L 228.396522 206.644966 
" style="fill:none;stroke:#000000;stroke-linecap:square;stroke-linejoin:miter;stroke-width:0.8;"/>
   </g>
   <g id="patch_182">
    <path d="M 150.761739 252.526345 
L 228.396522 252.526345 
" style="fill:none;stroke:#000000;stroke-linecap:square;stroke-linejoin:miter;stroke-width:0.8;"/>
   </g>
   <g id="patch_183">
    <path d="M 150.761739 206.644966 
L 228.396522 206.644966 
" style="fill:none;stroke:#000000;stroke-linecap:square;stroke-linejoin:miter;stroke-width:0.8;"/>
   </g>
  </g>
  <g id="axes_15">
   <g id="patch_184">
    <path d="M 243.923478 252.526345 
L 321.558261 252.526345 
L 321.558261 206.644966 
L 243.923478 206.644966 
z
" style="fill:#ffffff;"/>
   </g>
   <g id="patch_185">
    <path clip-path="url(#pc21d960709)" d="M 247.452332 252.526345 
L 259.215178 252.526345 
L 259.215178 222.166934 
L 247.452332 222.166934 
z
" style="fill:#ff7f0e;"/>
   </g>
   <g id="patch_186">
    <path clip-path="url(#pc21d960709)" d="M 262.155889 252.526345 
L 273.918735 252.526345 
L 273.918735 248.554931 
L 262.155889 248.554931 
z
" style="fill:#ff7f0e;"/>
   </g>
   <g id="patch_187">
    <path clip-path="url(#pc21d960709)" d="M 276.859447 252.526345 
L 288.622292 252.526345 
L 288.622292 247.680233 
L 276.859447 247.680233 
z
"/>
   </g>
   <g id="patch_188">
    <path clip-path="url(#pc21d960709)" d="M 291.563004 252.526345 
L 303.32585 252.526345 
L 303.32585 248.974173 
L 291.563004 248.974173 
z
"/>
   </g>
   <g id="patch_189">
    <path clip-path="url(#pc21d960709)" d="M 306.266561 252.526345 
L 318.029407 252.526345 
L 318.029407 249.570294 
L 306.266561 249.570294 
z
"/>
   </g>
   <g id="patch_190">
    <path clip-path="url(#pc21d960709)" d="M 247.452332 222.166934 
L 259.215178 222.166934 
L 259.215178 218.793666 
L 247.452332 218.793666 
z
" style="fill:#ffbb78;"/>
   </g>
   <g id="patch_191">
    <path clip-path="url(#pc21d960709)" d="M 262.155889 248.554931 
L 273.918735 248.554931 
L 273.918735 248.113663 
L 262.155889 248.113663 
z
"/>
   </g>
   <g id="patch_192">
    <path clip-path="url(#pc21d960709)" d="M 276.859447 247.680233 
L 288.622292 247.680233 
L 288.622292 247.141776 
L 276.859447 247.141776 
z
" style="fill:#ff7f0e;"/>
   </g>
   <g id="patch_193">
    <path clip-path="url(#pc21d960709)" d="M 291.563004 248.974173 
L 303.32585 248.974173 
L 303.32585 248.579487 
L 291.563004 248.579487 
z
" style="fill:#ffbb78;"/>
   </g>
   <g id="patch_194">
    <path clip-path="url(#pc21d960709)" d="M 306.266561 249.570294 
L 318.029407 249.570294 
L 318.029407 249.241844 
L 306.266561 249.241844 
z
" style="fill:#ffbb78;"/>
   </g>
   <g id="matplotlib.axis_29"/>
   <g id="matplotlib.axis_30">
    <g id="ytick_29">
     <g id="line2d_29">
      <g>
       <use style="stroke:#000000;stroke-width:0.8;" x="243.923478" xlink:href="#m2d58de0dfe" y="252.526345"/>
      </g>
     </g>
    </g>
    <g id="ytick_30">
     <g id="line2d_30">
      <g>
       <use style="stroke:#000000;stroke-width:0.8;" x="243.923478" xlink:href="#m2d58de0dfe" y="225.717257"/>
      </g>
     </g>
    </g>
   </g>
   <g id="patch_195">
    <path d="M 243.923478 252.526345 
L 243.923478 206.644966 
" style="fill:none;stroke:#000000;stroke-linecap:square;stroke-linejoin:miter;stroke-width:0.8;"/>
   </g>
   <g id="patch_196">
    <path d="M 321.558261 252.526345 
L 321.558261 206.644966 
" style="fill:none;stroke:#000000;stroke-linecap:square;stroke-linejoin:miter;stroke-width:0.8;"/>
   </g>
   <g id="patch_197">
    <path d="M 243.923478 252.526345 
L 321.558261 252.526345 
" style="fill:none;stroke:#000000;stroke-linecap:square;stroke-linejoin:miter;stroke-width:0.8;"/>
   </g>
   <g id="patch_198">
    <path d="M 243.923478 206.644966 
L 321.558261 206.644966 
" style="fill:none;stroke:#000000;stroke-linecap:square;stroke-linejoin:miter;stroke-width:0.8;"/>
   </g>
  </g>
  <g id="axes_16">
   <g id="patch_199">
    <path d="M 337.085217 252.526345 
L 414.72 252.526345 
L 414.72 206.644966 
L 337.085217 206.644966 
z
" style="fill:#ffffff;"/>
   </g>
   <g id="patch_200">
    <path clip-path="url(#pc83e5aef06)" d="M 340.614071 252.526345 
L 352.376917 252.526345 
L 352.376917 223.023916 
L 340.614071 223.023916 
z
" style="fill:#ff7f0e;"/>
   </g>
   <g id="patch_201">
    <path clip-path="url(#pc83e5aef06)" d="M 355.317628 252.526345 
L 367.080474 252.526345 
L 367.080474 250.870866 
L 355.317628 250.870866 
z
" style="fill:#ff7f0e;"/>
   </g>
   <g id="patch_202">
    <path clip-path="url(#pc83e5aef06)" d="M 370.021186 252.526345 
L 381.784032 252.526345 
L 381.784032 249.583951 
L 370.021186 249.583951 
z
"/>
   </g>
   <g id="patch_203">
    <path clip-path="url(#pc83e5aef06)" d="M 384.724743 252.526345 
L 396.487589 252.526345 
L 396.487589 249.571331 
L 384.724743 249.571331 
z
"/>
   </g>
   <g id="patch_204">
    <path clip-path="url(#pc83e5aef06)" d="M 399.4283 252.526345 
L 411.191146 252.526345 
L 411.191146 252.326063 
L 399.4283 252.326063 
z
"/>
   </g>
   <g id="patch_205">
    <path clip-path="url(#pc83e5aef06)" d="M 340.614071 223.023916 
L 352.376917 223.023916 
L 352.376917 219.745869 
L 340.614071 219.745869 
z
" style="fill:#aec7e8;"/>
   </g>
   <g id="patch_206">
    <path clip-path="url(#pc83e5aef06)" d="M 355.317628 250.870866 
L 367.080474 250.870866 
L 367.080474 250.686924 
L 355.317628 250.686924 
z
"/>
   </g>
   <g id="patch_207">
    <path clip-path="url(#pc83e5aef06)" d="M 370.021186 249.583951 
L 381.784032 249.583951 
L 381.784032 249.257018 
L 370.021186 249.257018 
z
" style="fill:#ff7f0e;"/>
   </g>
   <g id="patch_208">
    <path clip-path="url(#pc83e5aef06)" d="M 384.724743 249.571331 
L 396.487589 249.571331 
L 396.487589 249.242996 
L 384.724743 249.242996 
z
" style="fill:#aec7e8;"/>
   </g>
   <g id="patch_209">
    <path clip-path="url(#pc83e5aef06)" d="M 399.4283 252.326063 
L 411.191146 252.326063 
L 411.191146 252.303809 
L 399.4283 252.303809 
z
" style="fill:#aec7e8;"/>
   </g>
   <g id="matplotlib.axis_31"/>
   <g id="matplotlib.axis_32">
    <g id="ytick_31">
     <g id="line2d_31">
      <g>
       <use style="stroke:#000000;stroke-width:0.8;" x="337.085217" xlink:href="#m2d58de0dfe" y="252.526345"/>
      </g>
     </g>
    </g>
    <g id="ytick_32">
     <g id="line2d_32">
      <g>
       <use style="stroke:#000000;stroke-width:0.8;" x="337.085217" xlink:href="#m2d58de0dfe" y="225.717257"/>
      </g>
     </g>
    </g>
   </g>
   <g id="patch_210">
    <path d="M 337.085217 252.526345 
L 337.085217 206.644966 
" style="fill:none;stroke:#000000;stroke-linecap:square;stroke-linejoin:miter;stroke-width:0.8;"/>
   </g>
   <g id="patch_211">
    <path d="M 414.72 252.526345 
L 414.72 206.644966 
" style="fill:none;stroke:#000000;stroke-linecap:square;stroke-linejoin:miter;stroke-width:0.8;"/>
   </g>
   <g id="patch_212">
    <path d="M 337.085217 252.526345 
L 414.72 252.526345 
" style="fill:none;stroke:#000000;stroke-linecap:square;stroke-linejoin:miter;stroke-width:0.8;"/>
   </g>
   <g id="patch_213">
    <path d="M 337.085217 206.644966 
L 414.72 206.644966 
" style="fill:none;stroke:#000000;stroke-linecap:square;stroke-linejoin:miter;stroke-width:0.8;"/>
   </g>
  </g>
  <g id="axes_17">
   <g id="patch_214">
    <path d="M 57.6 307.584 
L 135.234783 307.584 
L 135.234783 261.702621 
L 57.6 261.702621 
z
" style="fill:#ffffff;"/>
   </g>
   <g id="patch_215">
    <path clip-path="url(#p02859548e5)" d="M 61.128854 307.584 
L 72.8917 307.584 
L 72.8917 278.559306 
L 61.128854 278.559306 
z
" style="fill:#ff7f0e;"/>
   </g>
   <g id="patch_216">
    <path clip-path="url(#p02859548e5)" d="M 75.832411 307.584 
L 87.595257 307.584 
L 87.595257 304.453381 
L 75.832411 304.453381 
z
" style="fill:#ff7f0e;"/>
   </g>
   <g id="patch_217">
    <path clip-path="url(#p02859548e5)" d="M 90.535968 307.584 
L 102.298814 307.584 
L 102.298814 302.394886 
L 90.535968 302.394886 
z
"/>
   </g>
   <g id="patch_218">
    <path clip-path="url(#p02859548e5)" d="M 105.239526 307.584 
L 117.002372 307.584 
L 117.002372 304.851981 
L 105.239526 304.851981 
z
"/>
   </g>
   <g id="patch_219">
    <path clip-path="url(#p02859548e5)" d="M 119.943083 307.584 
L 131.705929 307.584 
L 131.705929 305.235959 
L 119.943083 305.235959 
z
"/>
   </g>
   <g id="patch_220">
    <path clip-path="url(#p02859548e5)" d="M 61.128854 278.559306 
L 72.8917 278.559306 
L 72.8917 275.33434 
L 61.128854 275.33434 
z
" style="fill:#ffbb78;"/>
   </g>
   <g id="patch_221">
    <path clip-path="url(#p02859548e5)" d="M 75.832411 304.453381 
L 87.595257 304.453381 
L 87.595257 304.105534 
L 75.832411 304.105534 
z
"/>
   </g>
   <g id="patch_222">
    <path clip-path="url(#p02859548e5)" d="M 90.535968 302.394886 
L 102.298814 302.394886 
L 102.298814 301.818318 
L 90.535968 301.818318 
z
" style="fill:#ff7f0e;"/>
   </g>
   <g id="patch_223">
    <path clip-path="url(#p02859548e5)" d="M 105.239526 304.851981 
L 117.002372 304.851981 
L 117.002372 304.548423 
L 105.239526 304.548423 
z
" style="fill:#ffbb78;"/>
   </g>
   <g id="patch_224">
    <path clip-path="url(#p02859548e5)" d="M 119.943083 305.235959 
L 131.705929 305.235959 
L 131.705929 304.975066 
L 119.943083 304.975066 
z
" style="fill:#ffbb78;"/>
   </g>
   <g id="matplotlib.axis_33"/>
   <g id="matplotlib.axis_34">
    <g id="ytick_33">
     <g id="line2d_33">
      <g>
       <use style="stroke:#000000;stroke-width:0.8;" x="57.6" xlink:href="#m2d58de0dfe" y="307.584"/>
      </g>
     </g>
     <g id="text_9">
      <!-- 0.0 -->
      <g transform="translate(34.696875 311.383219)scale(0.1 -0.1)">
       <use xlink:href="#DejaVuSans-30"/>
       <use x="63.623047" xlink:href="#DejaVuSans-2e"/>
       <use x="95.410156" xlink:href="#DejaVuSans-30"/>
      </g>
     </g>
    </g>
    <g id="ytick_34">
     <g id="line2d_34">
      <g>
       <use style="stroke:#000000;stroke-width:0.8;" x="57.6" xlink:href="#m2d58de0dfe" y="280.774913"/>
      </g>
     </g>
     <g id="text_10">
      <!-- 0.5 -->
      <g transform="translate(34.696875 284.574131)scale(0.1 -0.1)">
       <use xlink:href="#DejaVuSans-30"/>
       <use x="63.623047" xlink:href="#DejaVuSans-2e"/>
       <use x="95.410156" xlink:href="#DejaVuSans-35"/>
      </g>
     </g>
    </g>
   </g>
   <g id="patch_225">
    <path d="M 57.6 307.584 
L 57.6 261.702621 
" style="fill:none;stroke:#000000;stroke-linecap:square;stroke-linejoin:miter;stroke-width:0.8;"/>
   </g>
   <g id="patch_226">
    <path d="M 135.234783 307.584 
L 135.234783 261.702621 
" style="fill:none;stroke:#000000;stroke-linecap:square;stroke-linejoin:miter;stroke-width:0.8;"/>
   </g>
   <g id="patch_227">
    <path d="M 57.6 307.584 
L 135.234783 307.584 
" style="fill:none;stroke:#000000;stroke-linecap:square;stroke-linejoin:miter;stroke-width:0.8;"/>
   </g>
   <g id="patch_228">
    <path d="M 57.6 261.702621 
L 135.234783 261.702621 
" style="fill:none;stroke:#000000;stroke-linecap:square;stroke-linejoin:miter;stroke-width:0.8;"/>
   </g>
  </g>
  <g id="axes_18">
   <g id="patch_229">
    <path d="M 150.761739 307.584 
L 228.396522 307.584 
L 228.396522 261.702621 
L 150.761739 261.702621 
z
" style="fill:#ffffff;"/>
   </g>
   <g id="patch_230">
    <path clip-path="url(#pfa1d87c508)" d="M 154.290593 307.584 
L 166.053439 307.584 
L 166.053439 278.798377 
L 154.290593 278.798377 
z
" style="fill:#aec7e8;"/>
   </g>
   <g id="patch_231">
    <path clip-path="url(#pfa1d87c508)" d="M 168.99415 307.584 
L 180.756996 307.584 
L 180.756996 307.325526 
L 168.99415 307.325526 
z
" style="fill:#aec7e8;"/>
   </g>
   <g id="patch_232">
    <path clip-path="url(#pfa1d87c508)" d="M 183.697708 307.584 
L 195.460553 307.584 
L 195.460553 304.411065 
L 183.697708 304.411065 
z
"/>
   </g>
   <g id="patch_233">
    <path clip-path="url(#pfa1d87c508)" d="M 198.401265 307.584 
L 210.164111 307.584 
L 210.164111 305.218853 
L 198.401265 305.218853 
z
"/>
   </g>
   <g id="patch_234">
    <path clip-path="url(#pfa1d87c508)" d="M 213.104822 307.584 
L 224.867668 307.584 
L 224.867668 302.36833 
L 213.104822 302.36833 
z
"/>
   </g>
   <g id="patch_235">
    <path clip-path="url(#pfa1d87c508)" d="M 154.290593 278.798377 
L 166.053439 278.798377 
L 166.053439 275.599974 
L 154.290593 275.599974 
z
" style="fill:#ff7f0e;"/>
   </g>
   <g id="patch_236">
    <path clip-path="url(#pfa1d87c508)" d="M 168.99415 307.325526 
L 180.756996 307.325526 
L 180.756996 307.296806 
L 168.99415 307.296806 
z
"/>
   </g>
   <g id="patch_237">
    <path clip-path="url(#pfa1d87c508)" d="M 183.697708 304.411065 
L 195.460553 304.411065 
L 195.460553 304.058516 
L 183.697708 304.058516 
z
" style="fill:#ff7f0e;"/>
   </g>
   <g id="patch_238">
    <path clip-path="url(#pfa1d87c508)" d="M 198.401265 305.218853 
L 210.164111 305.218853 
L 210.164111 304.956059 
L 198.401265 304.956059 
z
" style="fill:#ff7f0e;"/>
   </g>
   <g id="patch_239">
    <path clip-path="url(#pfa1d87c508)" d="M 213.104822 302.36833 
L 224.867668 302.36833 
L 224.867668 301.788811 
L 213.104822 301.788811 
z
" style="fill:#aec7e8;"/>
   </g>
   <g id="matplotlib.axis_35"/>
   <g id="matplotlib.axis_36">
    <g id="ytick_35">
     <g id="line2d_35">
      <g>
       <use style="stroke:#000000;stroke-width:0.8;" x="150.761739" xlink:href="#m2d58de0dfe" y="307.584"/>
      </g>
     </g>
    </g>
    <g id="ytick_36">
     <g id="line2d_36">
      <g>
       <use style="stroke:#000000;stroke-width:0.8;" x="150.761739" xlink:href="#m2d58de0dfe" y="280.774913"/>
      </g>
     </g>
    </g>
   </g>
   <g id="patch_240">
    <path d="M 150.761739 307.584 
L 150.761739 261.702621 
" style="fill:none;stroke:#000000;stroke-linecap:square;stroke-linejoin:miter;stroke-width:0.8;"/>
   </g>
   <g id="patch_241">
    <path d="M 228.396522 307.584 
L 228.396522 261.702621 
" style="fill:none;stroke:#000000;stroke-linecap:square;stroke-linejoin:miter;stroke-width:0.8;"/>
   </g>
   <g id="patch_242">
    <path d="M 150.761739 307.584 
L 228.396522 307.584 
" style="fill:none;stroke:#000000;stroke-linecap:square;stroke-linejoin:miter;stroke-width:0.8;"/>
   </g>
   <g id="patch_243">
    <path d="M 150.761739 261.702621 
L 228.396522 261.702621 
" style="fill:none;stroke:#000000;stroke-linecap:square;stroke-linejoin:miter;stroke-width:0.8;"/>
   </g>
  </g>
  <g id="axes_19">
   <g id="patch_244">
    <path d="M 243.923478 307.584 
L 321.558261 307.584 
L 321.558261 261.702621 
L 243.923478 261.702621 
z
" style="fill:#ffffff;"/>
   </g>
   <g id="patch_245">
    <path clip-path="url(#p8898b26408)" d="M 247.452332 307.584 
L 259.215178 307.584 
L 259.215178 280.423453 
L 247.452332 280.423453 
z
" style="fill:#ff7f0e;"/>
   </g>
   <g id="patch_246">
    <path clip-path="url(#p8898b26408)" d="M 262.155889 307.584 
L 273.918735 307.584 
L 273.918735 306.3412 
L 262.155889 306.3412 
z
" style="fill:#ff7f0e;"/>
   </g>
   <g id="patch_247">
    <path clip-path="url(#p8898b26408)" d="M 276.859447 307.584 
L 288.622292 307.584 
L 288.622292 304.988956 
L 276.859447 304.988956 
z
"/>
   </g>
   <g id="patch_248">
    <path clip-path="url(#p8898b26408)" d="M 291.563004 307.584 
L 303.32585 307.584 
L 303.32585 305.650653 
L 291.563004 305.650653 
z
"/>
   </g>
   <g id="patch_249">
    <path clip-path="url(#p8898b26408)" d="M 306.266561 307.584 
L 318.029407 307.584 
L 318.029407 307.062324 
L 306.266561 307.062324 
z
"/>
   </g>
   <g id="patch_250">
    <path clip-path="url(#p8898b26408)" d="M 247.452332 280.423453 
L 259.215178 280.423453 
L 259.215178 277.405614 
L 247.452332 277.405614 
z
" style="fill:#1f77b4;"/>
   </g>
   <g id="patch_251">
    <path clip-path="url(#p8898b26408)" d="M 262.155889 306.3412 
L 273.918735 306.3412 
L 273.918735 306.203111 
L 262.155889 306.203111 
z
"/>
   </g>
   <g id="patch_252">
    <path clip-path="url(#p8898b26408)" d="M 276.859447 304.988956 
L 288.622292 304.988956 
L 288.622292 304.700618 
L 276.859447 304.700618 
z
" style="fill:#ff7f0e;"/>
   </g>
   <g id="patch_253">
    <path clip-path="url(#p8898b26408)" d="M 291.563004 305.650653 
L 303.32585 305.650653 
L 303.32585 305.435836 
L 291.563004 305.435836 
z
" style="fill:#1f77b4;"/>
   </g>
   <g id="patch_254">
    <path clip-path="url(#p8898b26408)" d="M 306.266561 307.062324 
L 318.029407 307.062324 
L 318.029407 307.00436 
L 306.266561 307.00436 
z
" style="fill:#1f77b4;"/>
   </g>
   <g id="matplotlib.axis_37"/>
   <g id="matplotlib.axis_38">
    <g id="ytick_37">
     <g id="line2d_37">
      <g>
       <use style="stroke:#000000;stroke-width:0.8;" x="243.923478" xlink:href="#m2d58de0dfe" y="307.584"/>
      </g>
     </g>
    </g>
    <g id="ytick_38">
     <g id="line2d_38">
      <g>
       <use style="stroke:#000000;stroke-width:0.8;" x="243.923478" xlink:href="#m2d58de0dfe" y="280.774913"/>
      </g>
     </g>
    </g>
   </g>
   <g id="patch_255">
    <path d="M 243.923478 307.584 
L 243.923478 261.702621 
" style="fill:none;stroke:#000000;stroke-linecap:square;stroke-linejoin:miter;stroke-width:0.8;"/>
   </g>
   <g id="patch_256">
    <path d="M 321.558261 307.584 
L 321.558261 261.702621 
" style="fill:none;stroke:#000000;stroke-linecap:square;stroke-linejoin:miter;stroke-width:0.8;"/>
   </g>
   <g id="patch_257">
    <path d="M 243.923478 307.584 
L 321.558261 307.584 
" style="fill:none;stroke:#000000;stroke-linecap:square;stroke-linejoin:miter;stroke-width:0.8;"/>
   </g>
   <g id="patch_258">
    <path d="M 243.923478 261.702621 
L 321.558261 261.702621 
" style="fill:none;stroke:#000000;stroke-linecap:square;stroke-linejoin:miter;stroke-width:0.8;"/>
   </g>
  </g>
  <g id="axes_20">
   <g id="patch_259">
    <path d="M 337.085217 307.584 
L 414.72 307.584 
L 414.72 261.702621 
L 337.085217 261.702621 
z
" style="fill:#ffffff;"/>
   </g>
   <g id="patch_260">
    <path clip-path="url(#pf3187a0c3d)" d="M 340.614071 307.584 
L 360.77895 307.584 
L 360.77895 280.952361 
L 340.614071 280.952361 
z
" style="fill:#1f77b4;"/>
   </g>
   <g id="patch_261">
    <path clip-path="url(#pf3187a0c3d)" d="M 365.820169 307.584 
L 385.985048 307.584 
L 385.985048 305.650653 
L 365.820169 305.650653 
z
" style="fill:#1f77b4;"/>
   </g>
   <g id="patch_262">
    <path clip-path="url(#pf3187a0c3d)" d="M 391.026268 307.584 
L 411.191146 307.584 
L 411.191146 305.509284 
L 391.026268 305.509284 
z
"/>
   </g>
   <g id="patch_263">
    <path clip-path="url(#pf3187a0c3d)" d="M 340.614071 280.952361 
L 360.77895 280.952361 
L 360.77895 277.99329 
L 340.614071 277.99329 
z
" style="fill:#ffbb78;"/>
   </g>
   <g id="patch_264">
    <path clip-path="url(#pf3187a0c3d)" d="M 365.820169 305.650653 
L 385.985048 305.650653 
L 385.985048 305.435836 
L 365.820169 305.435836 
z
"/>
   </g>
   <g id="patch_265">
    <path clip-path="url(#pf3187a0c3d)" d="M 391.026268 305.509284 
L 411.191146 305.509284 
L 411.191146 305.27876 
L 391.026268 305.27876 
z
" style="fill:#ffbb78;"/>
   </g>
   <g id="matplotlib.axis_39"/>
   <g id="matplotlib.axis_40">
    <g id="ytick_39">
     <g id="line2d_39">
      <g>
       <use style="stroke:#000000;stroke-width:0.8;" x="337.085217" xlink:href="#m2d58de0dfe" y="307.584"/>
      </g>
     </g>
    </g>
    <g id="ytick_40">
     <g id="line2d_40">
      <g>
       <use style="stroke:#000000;stroke-width:0.8;" x="337.085217" xlink:href="#m2d58de0dfe" y="280.774913"/>
      </g>
     </g>
    </g>
   </g>
   <g id="patch_266">
    <path d="M 337.085217 307.584 
L 337.085217 261.702621 
" style="fill:none;stroke:#000000;stroke-linecap:square;stroke-linejoin:miter;stroke-width:0.8;"/>
   </g>
   <g id="patch_267">
    <path d="M 414.72 307.584 
L 414.72 261.702621 
" style="fill:none;stroke:#000000;stroke-linecap:square;stroke-linejoin:miter;stroke-width:0.8;"/>
   </g>
   <g id="patch_268">
    <path d="M 337.085217 307.584 
L 414.72 307.584 
" style="fill:none;stroke:#000000;stroke-linecap:square;stroke-linejoin:miter;stroke-width:0.8;"/>
   </g>
   <g id="patch_269">
    <path d="M 337.085217 261.702621 
L 414.72 261.702621 
" style="fill:none;stroke:#000000;stroke-linecap:square;stroke-linejoin:miter;stroke-width:0.8;"/>
   </g>
  </g>
  <g id="axes_21">
   <g id="matplotlib.axis_41">
    <g id="xtick_1">
     <g id="text_11">
      <!-- 0.0 -->
      <g style="opacity:0;" transform="translate(49.648438 322.182437)scale(0.1 -0.1)">
       <use xlink:href="#DejaVuSans-30"/>
       <use x="63.623047" xlink:href="#DejaVuSans-2e"/>
       <use x="95.410156" xlink:href="#DejaVuSans-30"/>
      </g>
     </g>
    </g>
    <g id="xtick_2">
     <g id="text_12">
      <!-- 0.2 -->
      <g style="opacity:0;" transform="translate(121.072438 322.182437)scale(0.1 -0.1)">
       <defs>
        <path d="M 1228 531 
L 3431 531 
L 3431 0 
L 469 0 
L 469 531 
Q 828 903 1448 1529 
Q 2069 2156 2228 2338 
Q 2531 2678 2651 2914 
Q 2772 3150 2772 3378 
Q 2772 3750 2511 3984 
Q 2250 4219 1831 4219 
Q 1534 4219 1204 4116 
Q 875 4013 500 3803 
L 500 4441 
Q 881 4594 1212 4672 
Q 1544 4750 1819 4750 
Q 2544 4750 2975 4387 
Q 3406 4025 3406 3419 
Q 3406 3131 3298 2873 
Q 3191 2616 2906 2266 
Q 2828 2175 2409 1742 
Q 1991 1309 1228 531 
z
" id="DejaVuSans-32" transform="scale(0.015625)"/>
       </defs>
       <use xlink:href="#DejaVuSans-30"/>
       <use x="63.623047" xlink:href="#DejaVuSans-2e"/>
       <use x="95.410156" xlink:href="#DejaVuSans-32"/>
      </g>
     </g>
    </g>
    <g id="xtick_3">
     <g id="text_13">
      <!-- 0.4 -->
      <g style="opacity:0;" transform="translate(192.496438 322.182437)scale(0.1 -0.1)">
       <defs>
        <path d="M 2419 4116 
L 825 1625 
L 2419 1625 
L 2419 4116 
z
M 2253 4666 
L 3047 4666 
L 3047 1625 
L 3713 1625 
L 3713 1100 
L 3047 1100 
L 3047 0 
L 2419 0 
L 2419 1100 
L 313 1100 
L 313 1709 
L 2253 4666 
z
" id="DejaVuSans-34" transform="scale(0.015625)"/>
       </defs>
       <use xlink:href="#DejaVuSans-30"/>
       <use x="63.623047" xlink:href="#DejaVuSans-2e"/>
       <use x="95.410156" xlink:href="#DejaVuSans-34"/>
      </g>
     </g>
    </g>
    <g id="xtick_4">
     <g id="text_14">
      <!-- 0.6 -->
      <g style="opacity:0;" transform="translate(263.920438 322.182437)scale(0.1 -0.1)">
       <defs>
        <path d="M 2113 2584 
Q 1688 2584 1439 2293 
Q 1191 2003 1191 1497 
Q 1191 994 1439 701 
Q 1688 409 2113 409 
Q 2538 409 2786 701 
Q 3034 994 3034 1497 
Q 3034 2003 2786 2293 
Q 2538 2584 2113 2584 
z
M 3366 4563 
L 3366 3988 
Q 3128 4100 2886 4159 
Q 2644 4219 2406 4219 
Q 1781 4219 1451 3797 
Q 1122 3375 1075 2522 
Q 1259 2794 1537 2939 
Q 1816 3084 2150 3084 
Q 2853 3084 3261 2657 
Q 3669 2231 3669 1497 
Q 3669 778 3244 343 
Q 2819 -91 2113 -91 
Q 1303 -91 875 529 
Q 447 1150 447 2328 
Q 447 3434 972 4092 
Q 1497 4750 2381 4750 
Q 2619 4750 2861 4703 
Q 3103 4656 3366 4563 
z
" id="DejaVuSans-36" transform="scale(0.015625)"/>
       </defs>
       <use xlink:href="#DejaVuSans-30"/>
       <use x="63.623047" xlink:href="#DejaVuSans-2e"/>
       <use x="95.410156" xlink:href="#DejaVuSans-36"/>
      </g>
     </g>
    </g>
    <g id="xtick_5">
     <g id="text_15">
      <!-- 0.8 -->
      <g style="opacity:0;" transform="translate(335.344438 322.182437)scale(0.1 -0.1)">
       <defs>
        <path d="M 2034 2216 
Q 1584 2216 1326 1975 
Q 1069 1734 1069 1313 
Q 1069 891 1326 650 
Q 1584 409 2034 409 
Q 2484 409 2743 651 
Q 3003 894 3003 1313 
Q 3003 1734 2745 1975 
Q 2488 2216 2034 2216 
z
M 1403 2484 
Q 997 2584 770 2862 
Q 544 3141 544 3541 
Q 544 4100 942 4425 
Q 1341 4750 2034 4750 
Q 2731 4750 3128 4425 
Q 3525 4100 3525 3541 
Q 3525 3141 3298 2862 
Q 3072 2584 2669 2484 
Q 3125 2378 3379 2068 
Q 3634 1759 3634 1313 
Q 3634 634 3220 271 
Q 2806 -91 2034 -91 
Q 1263 -91 848 271 
Q 434 634 434 1313 
Q 434 1759 690 2068 
Q 947 2378 1403 2484 
z
M 1172 3481 
Q 1172 3119 1398 2916 
Q 1625 2713 2034 2713 
Q 2441 2713 2670 2916 
Q 2900 3119 2900 3481 
Q 2900 3844 2670 4047 
Q 2441 4250 2034 4250 
Q 1625 4250 1398 4047 
Q 1172 3844 1172 3481 
z
" id="DejaVuSans-38" transform="scale(0.015625)"/>
       </defs>
       <use xlink:href="#DejaVuSans-30"/>
       <use x="63.623047" xlink:href="#DejaVuSans-2e"/>
       <use x="95.410156" xlink:href="#DejaVuSans-38"/>
      </g>
     </g>
    </g>
    <g id="xtick_6">
     <g id="text_16">
      <!-- 1.0 -->
      <g style="opacity:0;" transform="translate(406.768438 322.182437)scale(0.1 -0.1)">
       <defs>
        <path d="M 794 531 
L 1825 531 
L 1825 4091 
L 703 3866 
L 703 4441 
L 1819 4666 
L 2450 4666 
L 2450 531 
L 3481 531 
L 3481 0 
L 794 0 
L 794 531 
z
" id="DejaVuSans-31" transform="scale(0.015625)"/>
       </defs>
       <use xlink:href="#DejaVuSans-31"/>
       <use x="63.623047" xlink:href="#DejaVuSans-2e"/>
       <use x="95.410156" xlink:href="#DejaVuSans-30"/>
      </g>
     </g>
    </g>
   </g>
   <g id="matplotlib.axis_42">
    <g id="ytick_41">
     <g id="text_17">
      <!-- 0.0 -->
      <g style="opacity:0;" transform="translate(34.696875 311.383219)scale(0.1 -0.1)">
       <use xlink:href="#DejaVuSans-30"/>
       <use x="63.623047" xlink:href="#DejaVuSans-2e"/>
       <use x="95.410156" xlink:href="#DejaVuSans-30"/>
      </g>
     </g>
    </g>
    <g id="ytick_42">
     <g id="text_18">
      <!-- 0.2 -->
      <g style="opacity:0;" transform="translate(34.696875 258.160819)scale(0.1 -0.1)">
       <use xlink:href="#DejaVuSans-30"/>
       <use x="63.623047" xlink:href="#DejaVuSans-2e"/>
       <use x="95.410156" xlink:href="#DejaVuSans-32"/>
      </g>
     </g>
    </g>
    <g id="ytick_43">
     <g id="text_19">
      <!-- 0.4 -->
      <g style="opacity:0;" transform="translate(34.696875 204.938419)scale(0.1 -0.1)">
       <use xlink:href="#DejaVuSans-30"/>
       <use x="63.623047" xlink:href="#DejaVuSans-2e"/>
       <use x="95.410156" xlink:href="#DejaVuSans-34"/>
      </g>
     </g>
    </g>
    <g id="ytick_44">
     <g id="text_20">
      <!-- 0.6 -->
      <g style="opacity:0;" transform="translate(34.696875 151.716019)scale(0.1 -0.1)">
       <use xlink:href="#DejaVuSans-30"/>
       <use x="63.623047" xlink:href="#DejaVuSans-2e"/>
       <use x="95.410156" xlink:href="#DejaVuSans-36"/>
      </g>
     </g>
    </g>
    <g id="ytick_45">
     <g id="text_21">
      <!-- 0.8 -->
      <g style="opacity:0;" transform="translate(34.696875 98.493619)scale(0.1 -0.1)">
       <use xlink:href="#DejaVuSans-30"/>
       <use x="63.623047" xlink:href="#DejaVuSans-2e"/>
       <use x="95.410156" xlink:href="#DejaVuSans-38"/>
      </g>
     </g>
    </g>
    <g id="ytick_46">
     <g id="text_22">
      <!-- 1.0 -->
      <g style="opacity:0;" transform="translate(34.696875 45.271219)scale(0.1 -0.1)">
       <use xlink:href="#DejaVuSans-31"/>
       <use x="63.623047" xlink:href="#DejaVuSans-2e"/>
       <use x="95.410156" xlink:href="#DejaVuSans-30"/>
      </g>
     </g>
    </g>
    <g id="text_23">
     <!-- Pearsons correlation -->
     <g transform="translate(28.617187 225.410812)rotate(-90)scale(0.1 -0.1)">
      <defs>
       <path d="M 1259 4147 
L 1259 2394 
L 2053 2394 
Q 2494 2394 2734 2622 
Q 2975 2850 2975 3272 
Q 2975 3691 2734 3919 
Q 2494 4147 2053 4147 
L 1259 4147 
z
M 628 4666 
L 2053 4666 
Q 2838 4666 3239 4311 
Q 3641 3956 3641 3272 
Q 3641 2581 3239 2228 
Q 2838 1875 2053 1875 
L 1259 1875 
L 1259 0 
L 628 0 
L 628 4666 
z
" id="DejaVuSans-50" transform="scale(0.015625)"/>
       <path d="M 3597 1894 
L 3597 1613 
L 953 1613 
Q 991 1019 1311 708 
Q 1631 397 2203 397 
Q 2534 397 2845 478 
Q 3156 559 3463 722 
L 3463 178 
Q 3153 47 2828 -22 
Q 2503 -91 2169 -91 
Q 1331 -91 842 396 
Q 353 884 353 1716 
Q 353 2575 817 3079 
Q 1281 3584 2069 3584 
Q 2775 3584 3186 3129 
Q 3597 2675 3597 1894 
z
M 3022 2063 
Q 3016 2534 2758 2815 
Q 2500 3097 2075 3097 
Q 1594 3097 1305 2825 
Q 1016 2553 972 2059 
L 3022 2063 
z
" id="DejaVuSans-65" transform="scale(0.015625)"/>
       <path d="M 2194 1759 
Q 1497 1759 1228 1600 
Q 959 1441 959 1056 
Q 959 750 1161 570 
Q 1363 391 1709 391 
Q 2188 391 2477 730 
Q 2766 1069 2766 1631 
L 2766 1759 
L 2194 1759 
z
M 3341 1997 
L 3341 0 
L 2766 0 
L 2766 531 
Q 2569 213 2275 61 
Q 1981 -91 1556 -91 
Q 1019 -91 701 211 
Q 384 513 384 1019 
Q 384 1609 779 1909 
Q 1175 2209 1959 2209 
L 2766 2209 
L 2766 2266 
Q 2766 2663 2505 2880 
Q 2244 3097 1772 3097 
Q 1472 3097 1187 3025 
Q 903 2953 641 2809 
L 641 3341 
Q 956 3463 1253 3523 
Q 1550 3584 1831 3584 
Q 2591 3584 2966 3190 
Q 3341 2797 3341 1997 
z
" id="DejaVuSans-61" transform="scale(0.015625)"/>
       <path d="M 2631 2963 
Q 2534 3019 2420 3045 
Q 2306 3072 2169 3072 
Q 1681 3072 1420 2755 
Q 1159 2438 1159 1844 
L 1159 0 
L 581 0 
L 581 3500 
L 1159 3500 
L 1159 2956 
Q 1341 3275 1631 3429 
Q 1922 3584 2338 3584 
Q 2397 3584 2469 3576 
Q 2541 3569 2628 3553 
L 2631 2963 
z
" id="DejaVuSans-72" transform="scale(0.015625)"/>
       <path d="M 2834 3397 
L 2834 2853 
Q 2591 2978 2328 3040 
Q 2066 3103 1784 3103 
Q 1356 3103 1142 2972 
Q 928 2841 928 2578 
Q 928 2378 1081 2264 
Q 1234 2150 1697 2047 
L 1894 2003 
Q 2506 1872 2764 1633 
Q 3022 1394 3022 966 
Q 3022 478 2636 193 
Q 2250 -91 1575 -91 
Q 1294 -91 989 -36 
Q 684 19 347 128 
L 347 722 
Q 666 556 975 473 
Q 1284 391 1588 391 
Q 1994 391 2212 530 
Q 2431 669 2431 922 
Q 2431 1156 2273 1281 
Q 2116 1406 1581 1522 
L 1381 1569 
Q 847 1681 609 1914 
Q 372 2147 372 2553 
Q 372 3047 722 3315 
Q 1072 3584 1716 3584 
Q 2034 3584 2315 3537 
Q 2597 3491 2834 3397 
z
" id="DejaVuSans-73" transform="scale(0.015625)"/>
       <path d="M 1959 3097 
Q 1497 3097 1228 2736 
Q 959 2375 959 1747 
Q 959 1119 1226 758 
Q 1494 397 1959 397 
Q 2419 397 2687 759 
Q 2956 1122 2956 1747 
Q 2956 2369 2687 2733 
Q 2419 3097 1959 3097 
z
M 1959 3584 
Q 2709 3584 3137 3096 
Q 3566 2609 3566 1747 
Q 3566 888 3137 398 
Q 2709 -91 1959 -91 
Q 1206 -91 779 398 
Q 353 888 353 1747 
Q 353 2609 779 3096 
Q 1206 3584 1959 3584 
z
" id="DejaVuSans-6f" transform="scale(0.015625)"/>
       <path d="M 3513 2113 
L 3513 0 
L 2938 0 
L 2938 2094 
Q 2938 2591 2744 2837 
Q 2550 3084 2163 3084 
Q 1697 3084 1428 2787 
Q 1159 2491 1159 1978 
L 1159 0 
L 581 0 
L 581 3500 
L 1159 3500 
L 1159 2956 
Q 1366 3272 1645 3428 
Q 1925 3584 2291 3584 
Q 2894 3584 3203 3211 
Q 3513 2838 3513 2113 
z
" id="DejaVuSans-6e" transform="scale(0.015625)"/>
       <path id="DejaVuSans-20" transform="scale(0.015625)"/>
       <path d="M 3122 3366 
L 3122 2828 
Q 2878 2963 2633 3030 
Q 2388 3097 2138 3097 
Q 1578 3097 1268 2742 
Q 959 2388 959 1747 
Q 959 1106 1268 751 
Q 1578 397 2138 397 
Q 2388 397 2633 464 
Q 2878 531 3122 666 
L 3122 134 
Q 2881 22 2623 -34 
Q 2366 -91 2075 -91 
Q 1284 -91 818 406 
Q 353 903 353 1747 
Q 353 2603 823 3093 
Q 1294 3584 2113 3584 
Q 2378 3584 2631 3529 
Q 2884 3475 3122 3366 
z
" id="DejaVuSans-63" transform="scale(0.015625)"/>
       <path d="M 603 4863 
L 1178 4863 
L 1178 0 
L 603 0 
L 603 4863 
z
" id="DejaVuSans-6c" transform="scale(0.015625)"/>
       <path d="M 1172 4494 
L 1172 3500 
L 2356 3500 
L 2356 3053 
L 1172 3053 
L 1172 1153 
Q 1172 725 1289 603 
Q 1406 481 1766 481 
L 2356 481 
L 2356 0 
L 1766 0 
Q 1100 0 847 248 
Q 594 497 594 1153 
L 594 3053 
L 172 3053 
L 172 3500 
L 594 3500 
L 594 4494 
L 1172 4494 
z
" id="DejaVuSans-74" transform="scale(0.015625)"/>
       <path d="M 603 3500 
L 1178 3500 
L 1178 0 
L 603 0 
L 603 3500 
z
M 603 4863 
L 1178 4863 
L 1178 4134 
L 603 4134 
L 603 4863 
z
" id="DejaVuSans-69" transform="scale(0.015625)"/>
      </defs>
      <use xlink:href="#DejaVuSans-50"/>
      <use x="56.677734" xlink:href="#DejaVuSans-65"/>
      <use x="118.201172" xlink:href="#DejaVuSans-61"/>
      <use x="179.480469" xlink:href="#DejaVuSans-72"/>
      <use x="220.59375" xlink:href="#DejaVuSans-73"/>
      <use x="272.693359" xlink:href="#DejaVuSans-6f"/>
      <use x="333.875" xlink:href="#DejaVuSans-6e"/>
      <use x="397.253906" xlink:href="#DejaVuSans-73"/>
      <use x="449.353516" xlink:href="#DejaVuSans-20"/>
      <use x="481.140625" xlink:href="#DejaVuSans-63"/>
      <use x="536.121094" xlink:href="#DejaVuSans-6f"/>
      <use x="597.302734" xlink:href="#DejaVuSans-72"/>
      <use x="636.666016" xlink:href="#DejaVuSans-72"/>
      <use x="675.529297" xlink:href="#DejaVuSans-65"/>
      <use x="737.052734" xlink:href="#DejaVuSans-6c"/>
      <use x="764.835938" xlink:href="#DejaVuSans-61"/>
      <use x="826.115234" xlink:href="#DejaVuSans-74"/>
      <use x="865.324219" xlink:href="#DejaVuSans-69"/>
      <use x="893.107422" xlink:href="#DejaVuSans-6f"/>
      <use x="954.289062" xlink:href="#DejaVuSans-6e"/>
     </g>
    </g>
   </g>
  </g>
  <g id="legend_1">
   <g id="patch_270">
    <path d="M 592.645 117.950625 
L 640.12 117.950625 
Q 642.12 117.950625 642.12 115.950625 
L 642.12 43.56 
Q 642.12 41.56 640.12 41.56 
L 592.645 41.56 
Q 590.645 41.56 590.645 43.56 
L 590.645 115.950625 
Q 590.645 117.950625 592.645 117.950625 
z
" style="fill:#4c4c4c;opacity:0.5;stroke:#4c4c4c;stroke-linejoin:miter;"/>
   </g>
   <g id="patch_271">
    <path d="M 590.645 115.950625 
L 638.12 115.950625 
Q 640.12 115.950625 640.12 113.950625 
L 640.12 41.56 
Q 640.12 39.56 638.12 39.56 
L 590.645 39.56 
Q 588.645 39.56 588.645 41.56 
L 588.645 113.950625 
Q 588.645 115.950625 590.645 115.950625 
z
" style="fill:#ffffff;stroke:#cccccc;stroke-linejoin:miter;"/>
   </g>
   <g id="patch_272">
    <path d="M 592.645 51.158437 
L 612.645 51.158437 
L 612.645 44.158437 
L 592.645 44.158437 
z
" style="stroke:#000000;stroke-linejoin:miter;"/>
   </g>
   <g id="text_24">
    <!-- big -->
    <g transform="translate(620.645 51.158437)scale(0.1 -0.1)">
     <defs>
      <path d="M 3116 1747 
Q 3116 2381 2855 2742 
Q 2594 3103 2138 3103 
Q 1681 3103 1420 2742 
Q 1159 2381 1159 1747 
Q 1159 1113 1420 752 
Q 1681 391 2138 391 
Q 2594 391 2855 752 
Q 3116 1113 3116 1747 
z
M 1159 2969 
Q 1341 3281 1617 3432 
Q 1894 3584 2278 3584 
Q 2916 3584 3314 3078 
Q 3713 2572 3713 1747 
Q 3713 922 3314 415 
Q 2916 -91 2278 -91 
Q 1894 -91 1617 61 
Q 1341 213 1159 525 
L 1159 0 
L 581 0 
L 581 4863 
L 1159 4863 
L 1159 2969 
z
" id="DejaVuSans-62" transform="scale(0.015625)"/>
      <path d="M 2906 1791 
Q 2906 2416 2648 2759 
Q 2391 3103 1925 3103 
Q 1463 3103 1205 2759 
Q 947 2416 947 1791 
Q 947 1169 1205 825 
Q 1463 481 1925 481 
Q 2391 481 2648 825 
Q 2906 1169 2906 1791 
z
M 3481 434 
Q 3481 -459 3084 -895 
Q 2688 -1331 1869 -1331 
Q 1566 -1331 1297 -1286 
Q 1028 -1241 775 -1147 
L 775 -588 
Q 1028 -725 1275 -790 
Q 1522 -856 1778 -856 
Q 2344 -856 2625 -561 
Q 2906 -266 2906 331 
L 2906 616 
Q 2728 306 2450 153 
Q 2172 0 1784 0 
Q 1141 0 747 490 
Q 353 981 353 1791 
Q 353 2603 747 3093 
Q 1141 3584 1784 3584 
Q 2172 3584 2450 3431 
Q 2728 3278 2906 2969 
L 2906 3500 
L 3481 3500 
L 3481 434 
z
" id="DejaVuSans-67" transform="scale(0.015625)"/>
     </defs>
     <use xlink:href="#DejaVuSans-62"/>
     <use x="63.476562" xlink:href="#DejaVuSans-69"/>
     <use x="91.259766" xlink:href="#DejaVuSans-67"/>
    </g>
   </g>
   <g id="patch_273">
    <path d="M 592.645 65.836563 
L 612.645 65.836563 
L 612.645 58.836563 
L 592.645 58.836563 
z
" style="fill:#1f77b4;stroke:#1f77b4;stroke-linejoin:miter;"/>
   </g>
   <g id="text_25">
    <!-- 4 -->
    <g transform="translate(620.645 65.836563)scale(0.1 -0.1)">
     <use xlink:href="#DejaVuSans-34"/>
    </g>
   </g>
   <g id="patch_274">
    <path d="M 592.645 80.514687 
L 612.645 80.514687 
L 612.645 73.514687 
L 592.645 73.514687 
z
" style="fill:#aec7e8;stroke:#aec7e8;stroke-linejoin:miter;"/>
   </g>
   <g id="text_26">
    <!-- 3 -->
    <g transform="translate(620.645 80.514687)scale(0.1 -0.1)">
     <defs>
      <path d="M 2597 2516 
Q 3050 2419 3304 2112 
Q 3559 1806 3559 1356 
Q 3559 666 3084 287 
Q 2609 -91 1734 -91 
Q 1441 -91 1130 -33 
Q 819 25 488 141 
L 488 750 
Q 750 597 1062 519 
Q 1375 441 1716 441 
Q 2309 441 2620 675 
Q 2931 909 2931 1356 
Q 2931 1769 2642 2001 
Q 2353 2234 1838 2234 
L 1294 2234 
L 1294 2753 
L 1863 2753 
Q 2328 2753 2575 2939 
Q 2822 3125 2822 3475 
Q 2822 3834 2567 4026 
Q 2313 4219 1838 4219 
Q 1578 4219 1281 4162 
Q 984 4106 628 3988 
L 628 4550 
Q 988 4650 1302 4700 
Q 1616 4750 1894 4750 
Q 2613 4750 3031 4423 
Q 3450 4097 3450 3541 
Q 3450 3153 3228 2886 
Q 3006 2619 2597 2516 
z
" id="DejaVuSans-33" transform="scale(0.015625)"/>
     </defs>
     <use xlink:href="#DejaVuSans-33"/>
    </g>
   </g>
   <g id="patch_275">
    <path d="M 592.645 95.192813 
L 612.645 95.192813 
L 612.645 88.192813 
L 592.645 88.192813 
z
" style="fill:#ff7f0e;stroke:#ff7f0e;stroke-linejoin:miter;"/>
   </g>
   <g id="text_27">
    <!-- 1 -->
    <g transform="translate(620.645 95.192813)scale(0.1 -0.1)">
     <use xlink:href="#DejaVuSans-31"/>
    </g>
   </g>
   <g id="patch_276">
    <path d="M 592.645 109.870937 
L 612.645 109.870937 
L 612.645 102.870937 
L 592.645 102.870937 
z
" style="fill:#ffbb78;stroke:#ffbb78;stroke-linejoin:miter;"/>
   </g>
   <g id="text_28">
    <!-- 2 -->
    <g transform="translate(620.645 109.870937)scale(0.1 -0.1)">
     <use xlink:href="#DejaVuSans-32"/>
    </g>
   </g>
  </g>
 </g>
 <defs>
  <clipPath id="p3d4c583713">
   <rect height="45.881379" width="77.634783" x="57.6" y="41.472"/>
  </clipPath>
  <clipPath id="pfe8426deb3">
   <rect height="45.881379" width="77.634783" x="150.761739" y="41.472"/>
  </clipPath>
  <clipPath id="p60307579ef">
   <rect height="45.881379" width="77.634783" x="243.923478" y="41.472"/>
  </clipPath>
  <clipPath id="pb46ec6469a">
   <rect height="45.881379" width="77.634783" x="337.085217" y="41.472"/>
  </clipPath>
  <clipPath id="pba779f2cfa">
   <rect height="45.881379" width="77.634783" x="57.6" y="96.529655"/>
  </clipPath>
  <clipPath id="pfafebbaba2">
   <rect height="45.881379" width="77.634783" x="150.761739" y="96.529655"/>
  </clipPath>
  <clipPath id="pce66aa8114">
   <rect height="45.881379" width="77.634783" x="243.923478" y="96.529655"/>
  </clipPath>
  <clipPath id="pae5143e1e0">
   <rect height="45.881379" width="77.634783" x="337.085217" y="96.529655"/>
  </clipPath>
  <clipPath id="pa376ca3091">
   <rect height="45.881379" width="77.634783" x="57.6" y="151.58731"/>
  </clipPath>
  <clipPath id="pc6614bd783">
   <rect height="45.881379" width="77.634783" x="150.761739" y="151.58731"/>
  </clipPath>
  <clipPath id="p978a189ba5">
   <rect height="45.881379" width="77.634783" x="243.923478" y="151.58731"/>
  </clipPath>
  <clipPath id="p2055c93a44">
   <rect height="45.881379" width="77.634783" x="337.085217" y="151.58731"/>
  </clipPath>
  <clipPath id="p90136f79e2">
   <rect height="45.881379" width="77.634783" x="57.6" y="206.644966"/>
  </clipPath>
  <clipPath id="pd147aa5302">
   <rect height="45.881379" width="77.634783" x="150.761739" y="206.644966"/>
  </clipPath>
  <clipPath id="pc21d960709">
   <rect height="45.881379" width="77.634783" x="243.923478" y="206.644966"/>
  </clipPath>
  <clipPath id="pc83e5aef06">
   <rect height="45.881379" width="77.634783" x="337.085217" y="206.644966"/>
  </clipPath>
  <clipPath id="p02859548e5">
   <rect height="45.881379" width="77.634783" x="57.6" y="261.702621"/>
  </clipPath>
  <clipPath id="pfa1d87c508">
   <rect height="45.881379" width="77.634783" x="150.761739" y="261.702621"/>
  </clipPath>
  <clipPath id="p8898b26408">
   <rect height="45.881379" width="77.634783" x="243.923478" y="261.702621"/>
  </clipPath>
  <clipPath id="pf3187a0c3d">
   <rect height="45.881379" width="77.634783" x="337.085217" y="261.702621"/>
  </clipPath>
 </defs>
</svg>
