<?xml version="1.0" encoding="utf-8" standalone="no"?>
<!DOCTYPE svg PUBLIC "-//W3C//DTD SVG 1.1//EN"
  "http://www.w3.org/Graphics/SVG/1.1/DTD/svg11.dtd">
<svg height="300.989344pt" version="1.1" viewBox="0 0 633.50125 300.989344" width="633.50125pt" xmlns="http://www.w3.org/2000/svg" xmlns:xlink="http://www.w3.org/1999/xlink">
 <metadata>
  <rdf:RDF xmlns:cc="http://creativecommons.org/ns#" xmlns:dc="http://purl.org/dc/elements/1.1/" xmlns:rdf="http://www.w3.org/1999/02/22-rdf-syntax-ns#">
   <cc:Work>
    <dc:type rdf:resource="http://purl.org/dc/dcmitype/StillImage"/>
    <dc:date>2021-12-06T10:21:04.039349</dc:date>
    <dc:format>image/svg+xml</dc:format>
    <dc:creator>
     <cc:Agent>
      <dc:title>Matplotlib v3.4.3, https://matplotlib.org/</dc:title>
     </cc:Agent>
    </dc:creator>
   </cc:Work>
  </rdf:RDF>
 </metadata>
 <defs>
  <style type="text/css">*{stroke-linecap:butt;stroke-linejoin:round;}</style>
 </defs>
 <g id="figure_1">
  <g id="patch_1">
   <path d="M 0 300.989344 
L 633.50125 300.989344 
L 633.50125 0 
L 0 0 
z
" style="fill:#ffffff;"/>
  </g>
  <g id="axes_1">
   <g id="patch_2">
    <path d="M 43.78125 56.880598 
L 121.416033 56.880598 
L 121.416033 10.999219 
L 43.78125 10.999219 
z
" style="fill:#ffffff;"/>
   </g>
   <g id="patch_3">
    <path clip-path="url(#p1e05d5974e)" d="M 47.310104 56.880598 
L 57.044873 56.880598 
L 57.044873 56.753736 
L 47.310104 56.753736 
z
"/>
   </g>
   <g id="patch_4">
    <path clip-path="url(#p1e05d5974e)" d="M 59.478565 56.880598 
L 69.213334 56.880598 
L 69.213334 55.244715 
L 59.478565 55.244715 
z
"/>
   </g>
   <g id="patch_5">
    <path clip-path="url(#p1e05d5974e)" d="M 71.647026 56.880598 
L 81.381795 56.880598 
L 81.381795 54.509705 
L 71.647026 54.509705 
z
"/>
   </g>
   <g id="patch_6">
    <path clip-path="url(#p1e05d5974e)" d="M 83.815487 56.880598 
L 93.550256 56.880598 
L 93.550256 54.876231 
L 83.815487 54.876231 
z
"/>
   </g>
   <g id="patch_7">
    <path clip-path="url(#p1e05d5974e)" d="M 95.983949 56.880598 
L 105.718718 56.880598 
L 105.718718 56.791519 
L 95.983949 56.791519 
z
" style="fill:#1f77b4;"/>
   </g>
   <g id="patch_8">
    <path clip-path="url(#p1e05d5974e)" d="M 108.15241 56.880598 
L 117.887179 56.880598 
L 117.887179 20.199793 
L 108.15241 20.199793 
z
" style="fill:#1f77b4;"/>
   </g>
   <g id="patch_9">
    <path clip-path="url(#p1e05d5974e)" d="M 47.310104 56.753736 
L 57.044873 56.753736 
L 57.044873 56.739641 
L 47.310104 56.739641 
z
"/>
   </g>
   <g id="patch_10">
    <path clip-path="url(#p1e05d5974e)" d="M 59.478565 55.244715 
L 69.213334 55.244715 
L 69.213334 55.06295 
L 59.478565 55.06295 
z
" style="fill:#1f77b4;"/>
   </g>
   <g id="patch_11">
    <path clip-path="url(#p1e05d5974e)" d="M 71.647026 54.509705 
L 81.381795 54.509705 
L 81.381795 54.246272 
L 71.647026 54.246272 
z
" style="fill:#aec7e8;"/>
   </g>
   <g id="patch_12">
    <path clip-path="url(#p1e05d5974e)" d="M 83.815487 54.876231 
L 93.550256 54.876231 
L 93.550256 54.653524 
L 83.815487 54.653524 
z
" style="fill:#aec7e8;"/>
   </g>
   <g id="patch_13">
    <path clip-path="url(#p1e05d5974e)" d="M 95.983949 56.791519 
L 105.718718 56.791519 
L 105.718718 56.781621 
L 95.983949 56.781621 
z
"/>
   </g>
   <g id="patch_14">
    <path clip-path="url(#p1e05d5974e)" d="M 108.15241 20.199793 
L 117.887179 20.199793 
L 117.887179 16.124148 
L 108.15241 16.124148 
z
" style="fill:#aec7e8;"/>
   </g>
   <g id="matplotlib.axis_1"/>
   <g id="matplotlib.axis_2">
    <g id="ytick_1">
     <g id="line2d_1">
      <defs>
       <path d="M 0 0 
L -3.5 0 
" id="mf574a04312" style="stroke:#000000;stroke-width:0.8;"/>
      </defs>
      <g>
       <use style="stroke:#000000;stroke-width:0.8;" x="43.78125" xlink:href="#mf574a04312" y="56.880598"/>
      </g>
     </g>
     <g id="text_1">
      <!-- 0.0 -->
      <g transform="translate(20.878125 60.679817)scale(0.1 -0.1)">
       <defs>
        <path d="M 2034 4250 
Q 1547 4250 1301 3770 
Q 1056 3291 1056 2328 
Q 1056 1369 1301 889 
Q 1547 409 2034 409 
Q 2525 409 2770 889 
Q 3016 1369 3016 2328 
Q 3016 3291 2770 3770 
Q 2525 4250 2034 4250 
z
M 2034 4750 
Q 2819 4750 3233 4129 
Q 3647 3509 3647 2328 
Q 3647 1150 3233 529 
Q 2819 -91 2034 -91 
Q 1250 -91 836 529 
Q 422 1150 422 2328 
Q 422 3509 836 4129 
Q 1250 4750 2034 4750 
z
" id="DejaVuSans-30" transform="scale(0.015625)"/>
        <path d="M 684 794 
L 1344 794 
L 1344 0 
L 684 0 
L 684 794 
z
" id="DejaVuSans-2e" transform="scale(0.015625)"/>
       </defs>
       <use xlink:href="#DejaVuSans-30"/>
       <use x="63.623047" xlink:href="#DejaVuSans-2e"/>
       <use x="95.410156" xlink:href="#DejaVuSans-30"/>
      </g>
     </g>
    </g>
    <g id="ytick_2">
     <g id="line2d_2">
      <g>
       <use style="stroke:#000000;stroke-width:0.8;" x="43.78125" xlink:href="#mf574a04312" y="30.071511"/>
      </g>
     </g>
     <g id="text_2">
      <!-- 0.5 -->
      <g transform="translate(20.878125 33.870729)scale(0.1 -0.1)">
       <defs>
        <path d="M 691 4666 
L 3169 4666 
L 3169 4134 
L 1269 4134 
L 1269 2991 
Q 1406 3038 1543 3061 
Q 1681 3084 1819 3084 
Q 2600 3084 3056 2656 
Q 3513 2228 3513 1497 
Q 3513 744 3044 326 
Q 2575 -91 1722 -91 
Q 1428 -91 1123 -41 
Q 819 9 494 109 
L 494 744 
Q 775 591 1075 516 
Q 1375 441 1709 441 
Q 2250 441 2565 725 
Q 2881 1009 2881 1497 
Q 2881 1984 2565 2268 
Q 2250 2553 1709 2553 
Q 1456 2553 1204 2497 
Q 953 2441 691 2322 
L 691 4666 
z
" id="DejaVuSans-35" transform="scale(0.015625)"/>
       </defs>
       <use xlink:href="#DejaVuSans-30"/>
       <use x="63.623047" xlink:href="#DejaVuSans-2e"/>
       <use x="95.410156" xlink:href="#DejaVuSans-35"/>
      </g>
     </g>
    </g>
   </g>
   <g id="patch_15">
    <path d="M 43.78125 56.880598 
L 43.78125 10.999219 
" style="fill:none;stroke:#000000;stroke-linecap:square;stroke-linejoin:miter;stroke-width:0.8;"/>
   </g>
   <g id="patch_16">
    <path d="M 121.416033 56.880598 
L 121.416033 10.999219 
" style="fill:none;stroke:#000000;stroke-linecap:square;stroke-linejoin:miter;stroke-width:0.8;"/>
   </g>
   <g id="patch_17">
    <path d="M 43.78125 56.880598 
L 121.416033 56.880598 
" style="fill:none;stroke:#000000;stroke-linecap:square;stroke-linejoin:miter;stroke-width:0.8;"/>
   </g>
   <g id="patch_18">
    <path d="M 43.78125 10.999219 
L 121.416033 10.999219 
" style="fill:none;stroke:#000000;stroke-linecap:square;stroke-linejoin:miter;stroke-width:0.8;"/>
   </g>
  </g>
  <g id="axes_2">
   <g id="patch_19">
    <path d="M 136.942989 56.880598 
L 214.577772 56.880598 
L 214.577772 10.999219 
L 136.942989 10.999219 
z
" style="fill:#ffffff;"/>
   </g>
   <g id="patch_20">
    <path clip-path="url(#p830d6e594b)" d="M 140.471843 56.880598 
L 150.206612 56.880598 
L 150.206612 54.098233 
L 140.471843 54.098233 
z
"/>
   </g>
   <g id="patch_21">
    <path clip-path="url(#p830d6e594b)" d="M 152.640304 56.880598 
L 162.375073 56.880598 
L 162.375073 53.812347 
L 152.640304 53.812347 
z
"/>
   </g>
   <g id="patch_22">
    <path clip-path="url(#p830d6e594b)" d="M 164.808765 56.880598 
L 174.543534 56.880598 
L 174.543534 55.120321 
L 164.808765 55.120321 
z
"/>
   </g>
   <g id="patch_23">
    <path clip-path="url(#p830d6e594b)" d="M 176.977227 56.880598 
L 186.711996 56.880598 
L 186.711996 53.904123 
L 176.977227 53.904123 
z
"/>
   </g>
   <g id="patch_24">
    <path clip-path="url(#p830d6e594b)" d="M 189.145688 56.880598 
L 198.880457 56.880598 
L 198.880457 54.366552 
L 189.145688 54.366552 
z
" style="fill:#aec7e8;"/>
   </g>
   <g id="patch_25">
    <path clip-path="url(#p830d6e594b)" d="M 201.314149 56.880598 
L 211.048918 56.880598 
L 211.048918 20.181755 
L 201.314149 20.181755 
z
" style="fill:#aec7e8;"/>
   </g>
   <g id="patch_26">
    <path clip-path="url(#p830d6e594b)" d="M 140.471843 54.098233 
L 150.206612 54.098233 
L 150.206612 53.789081 
L 140.471843 53.789081 
z
"/>
   </g>
   <g id="patch_27">
    <path clip-path="url(#p830d6e594b)" d="M 152.640304 53.812347 
L 162.375073 53.812347 
L 162.375073 53.47143 
L 152.640304 53.47143 
z
" style="fill:#1f77b4;"/>
   </g>
   <g id="patch_28">
    <path clip-path="url(#p830d6e594b)" d="M 164.808765 55.120321 
L 174.543534 55.120321 
L 174.543534 54.924734 
L 164.808765 54.924734 
z
" style="fill:#1f77b4;"/>
   </g>
   <g id="patch_29">
    <path clip-path="url(#p830d6e594b)" d="M 176.977227 53.904123 
L 186.711996 53.904123 
L 186.711996 53.573403 
L 176.977227 53.573403 
z
" style="fill:#aec7e8;"/>
   </g>
   <g id="patch_30">
    <path clip-path="url(#p830d6e594b)" d="M 189.145688 54.366552 
L 198.880457 54.366552 
L 198.880457 54.087214 
L 189.145688 54.087214 
z
"/>
   </g>
   <g id="patch_31">
    <path clip-path="url(#p830d6e594b)" d="M 201.314149 20.181755 
L 211.048918 20.181755 
L 211.048918 16.104106 
L 201.314149 16.104106 
z
" style="fill:#1f77b4;"/>
   </g>
   <g id="matplotlib.axis_3"/>
   <g id="matplotlib.axis_4">
    <g id="ytick_3">
     <g id="line2d_3">
      <g>
       <use style="stroke:#000000;stroke-width:0.8;" x="136.942989" xlink:href="#mf574a04312" y="56.880598"/>
      </g>
     </g>
    </g>
    <g id="ytick_4">
     <g id="line2d_4">
      <g>
       <use style="stroke:#000000;stroke-width:0.8;" x="136.942989" xlink:href="#mf574a04312" y="30.071511"/>
      </g>
     </g>
    </g>
   </g>
   <g id="patch_32">
    <path d="M 136.942989 56.880598 
L 136.942989 10.999219 
" style="fill:none;stroke:#000000;stroke-linecap:square;stroke-linejoin:miter;stroke-width:0.8;"/>
   </g>
   <g id="patch_33">
    <path d="M 214.577772 56.880598 
L 214.577772 10.999219 
" style="fill:none;stroke:#000000;stroke-linecap:square;stroke-linejoin:miter;stroke-width:0.8;"/>
   </g>
   <g id="patch_34">
    <path d="M 136.942989 56.880598 
L 214.577772 56.880598 
" style="fill:none;stroke:#000000;stroke-linecap:square;stroke-linejoin:miter;stroke-width:0.8;"/>
   </g>
   <g id="patch_35">
    <path d="M 136.942989 10.999219 
L 214.577772 10.999219 
" style="fill:none;stroke:#000000;stroke-linecap:square;stroke-linejoin:miter;stroke-width:0.8;"/>
   </g>
  </g>
  <g id="axes_3">
   <g id="patch_36">
    <path d="M 230.104728 56.880598 
L 307.739511 56.880598 
L 307.739511 10.999219 
L 230.104728 10.999219 
z
" style="fill:#ffffff;"/>
   </g>
   <g id="patch_37">
    <path clip-path="url(#p1e2c9db42b)" d="M 233.633582 56.880598 
L 243.368351 56.880598 
L 243.368351 54.098233 
L 233.633582 54.098233 
z
"/>
   </g>
   <g id="patch_38">
    <path clip-path="url(#p1e2c9db42b)" d="M 245.802043 56.880598 
L 255.536812 56.880598 
L 255.536812 52.875654 
L 245.802043 52.875654 
z
"/>
   </g>
   <g id="patch_39">
    <path clip-path="url(#p1e2c9db42b)" d="M 257.970504 56.880598 
L 267.705273 56.880598 
L 267.705273 54.922089 
L 257.970504 54.922089 
z
"/>
   </g>
   <g id="patch_40">
    <path clip-path="url(#p1e2c9db42b)" d="M 270.138966 56.880598 
L 279.873735 56.880598 
L 279.873735 53.904123 
L 270.138966 53.904123 
z
"/>
   </g>
   <g id="patch_41">
    <path clip-path="url(#p1e2c9db42b)" d="M 282.307427 56.880598 
L 292.042196 56.880598 
L 292.042196 54.366552 
L 282.307427 54.366552 
z
" style="fill:#aec7e8;"/>
   </g>
   <g id="patch_42">
    <path clip-path="url(#p1e2c9db42b)" d="M 294.475888 56.880598 
L 304.210657 56.880598 
L 304.210657 19.516787 
L 294.475888 19.516787 
z
" style="fill:#aec7e8;"/>
   </g>
   <g id="patch_43">
    <path clip-path="url(#p1e2c9db42b)" d="M 233.633582 54.098233 
L 243.368351 54.098233 
L 243.368351 53.789081 
L 233.633582 53.789081 
z
"/>
   </g>
   <g id="patch_44">
    <path clip-path="url(#p1e2c9db42b)" d="M 245.802043 52.875654 
L 255.536812 52.875654 
L 255.536812 52.43066 
L 245.802043 52.43066 
z
" style="fill:#ff7f0e;"/>
   </g>
   <g id="patch_45">
    <path clip-path="url(#p1e2c9db42b)" d="M 257.970504 54.922089 
L 267.705273 54.922089 
L 267.705273 54.704477 
L 257.970504 54.704477 
z
" style="fill:#ff7f0e;"/>
   </g>
   <g id="patch_46">
    <path clip-path="url(#p1e2c9db42b)" d="M 270.138966 53.904123 
L 279.873735 53.904123 
L 279.873735 53.573403 
L 270.138966 53.573403 
z
" style="fill:#aec7e8;"/>
   </g>
   <g id="patch_47">
    <path clip-path="url(#p1e2c9db42b)" d="M 282.307427 54.366552 
L 292.042196 54.366552 
L 292.042196 54.087214 
L 282.307427 54.087214 
z
"/>
   </g>
   <g id="patch_48">
    <path clip-path="url(#p1e2c9db42b)" d="M 294.475888 19.516787 
L 304.210657 19.516787 
L 304.210657 15.365252 
L 294.475888 15.365252 
z
" style="fill:#ff7f0e;"/>
   </g>
   <g id="matplotlib.axis_5"/>
   <g id="matplotlib.axis_6">
    <g id="ytick_5">
     <g id="line2d_5">
      <g>
       <use style="stroke:#000000;stroke-width:0.8;" x="230.104728" xlink:href="#mf574a04312" y="56.880598"/>
      </g>
     </g>
    </g>
    <g id="ytick_6">
     <g id="line2d_6">
      <g>
       <use style="stroke:#000000;stroke-width:0.8;" x="230.104728" xlink:href="#mf574a04312" y="30.071511"/>
      </g>
     </g>
    </g>
   </g>
   <g id="patch_49">
    <path d="M 230.104728 56.880598 
L 230.104728 10.999219 
" style="fill:none;stroke:#000000;stroke-linecap:square;stroke-linejoin:miter;stroke-width:0.8;"/>
   </g>
   <g id="patch_50">
    <path d="M 307.739511 56.880598 
L 307.739511 10.999219 
" style="fill:none;stroke:#000000;stroke-linecap:square;stroke-linejoin:miter;stroke-width:0.8;"/>
   </g>
   <g id="patch_51">
    <path d="M 230.104728 56.880598 
L 307.739511 56.880598 
" style="fill:none;stroke:#000000;stroke-linecap:square;stroke-linejoin:miter;stroke-width:0.8;"/>
   </g>
   <g id="patch_52">
    <path d="M 230.104728 10.999219 
L 307.739511 10.999219 
" style="fill:none;stroke:#000000;stroke-linecap:square;stroke-linejoin:miter;stroke-width:0.8;"/>
   </g>
  </g>
  <g id="axes_4">
   <g id="patch_53">
    <path d="M 323.266467 56.880598 
L 400.90125 56.880598 
L 400.90125 10.999219 
L 323.266467 10.999219 
z
" style="fill:#ffffff;"/>
   </g>
   <g id="patch_54">
    <path clip-path="url(#pb5ca92e1bd)" d="M 326.795321 56.880598 
L 336.53009 56.880598 
L 336.53009 54.098233 
L 326.795321 54.098233 
z
"/>
   </g>
   <g id="patch_55">
    <path clip-path="url(#pb5ca92e1bd)" d="M 338.963782 56.880598 
L 348.698551 56.880598 
L 348.698551 53.836226 
L 338.963782 53.836226 
z
"/>
   </g>
   <g id="patch_56">
    <path clip-path="url(#pb5ca92e1bd)" d="M 351.132244 56.880598 
L 360.867013 56.880598 
L 360.867013 54.011748 
L 351.132244 54.011748 
z
"/>
   </g>
   <g id="patch_57">
    <path clip-path="url(#pb5ca92e1bd)" d="M 363.300705 56.880598 
L 373.035474 56.880598 
L 373.035474 53.904123 
L 363.300705 53.904123 
z
"/>
   </g>
   <g id="patch_58">
    <path clip-path="url(#pb5ca92e1bd)" d="M 375.469166 56.880598 
L 385.203935 56.880598 
L 385.203935 54.366552 
L 375.469166 54.366552 
z
" style="fill:#aec7e8;"/>
   </g>
   <g id="patch_59">
    <path clip-path="url(#pb5ca92e1bd)" d="M 387.637627 56.880598 
L 397.372396 56.880598 
L 397.372396 20.681095 
L 387.637627 20.681095 
z
" style="fill:#aec7e8;"/>
   </g>
   <g id="patch_60">
    <path clip-path="url(#pb5ca92e1bd)" d="M 326.795321 54.098233 
L 336.53009 54.098233 
L 336.53009 53.789081 
L 326.795321 53.789081 
z
"/>
   </g>
   <g id="patch_61">
    <path clip-path="url(#pb5ca92e1bd)" d="M 338.963782 53.836226 
L 348.698551 53.836226 
L 348.698551 53.497962 
L 338.963782 53.497962 
z
" style="fill:#ffbb78;"/>
   </g>
   <g id="patch_62">
    <path clip-path="url(#pb5ca92e1bd)" d="M 351.132244 54.011748 
L 360.867013 54.011748 
L 360.867013 53.692987 
L 351.132244 53.692987 
z
" style="fill:#ffbb78;"/>
   </g>
   <g id="patch_63">
    <path clip-path="url(#pb5ca92e1bd)" d="M 363.300705 53.904123 
L 373.035474 53.904123 
L 373.035474 53.573403 
L 363.300705 53.573403 
z
" style="fill:#aec7e8;"/>
   </g>
   <g id="patch_64">
    <path clip-path="url(#pb5ca92e1bd)" d="M 375.469166 54.366552 
L 385.203935 54.366552 
L 385.203935 54.087214 
L 375.469166 54.087214 
z
"/>
   </g>
   <g id="patch_65">
    <path clip-path="url(#pb5ca92e1bd)" d="M 387.637627 20.681095 
L 397.372396 20.681095 
L 397.372396 16.658928 
L 387.637627 16.658928 
z
" style="fill:#ffbb78;"/>
   </g>
   <g id="matplotlib.axis_7"/>
   <g id="matplotlib.axis_8">
    <g id="ytick_7">
     <g id="line2d_7">
      <g>
       <use style="stroke:#000000;stroke-width:0.8;" x="323.266467" xlink:href="#mf574a04312" y="56.880598"/>
      </g>
     </g>
    </g>
    <g id="ytick_8">
     <g id="line2d_8">
      <g>
       <use style="stroke:#000000;stroke-width:0.8;" x="323.266467" xlink:href="#mf574a04312" y="30.071511"/>
      </g>
     </g>
    </g>
   </g>
   <g id="patch_66">
    <path d="M 323.266467 56.880598 
L 323.266467 10.999219 
" style="fill:none;stroke:#000000;stroke-linecap:square;stroke-linejoin:miter;stroke-width:0.8;"/>
   </g>
   <g id="patch_67">
    <path d="M 400.90125 56.880598 
L 400.90125 10.999219 
" style="fill:none;stroke:#000000;stroke-linecap:square;stroke-linejoin:miter;stroke-width:0.8;"/>
   </g>
   <g id="patch_68">
    <path d="M 323.266467 56.880598 
L 400.90125 56.880598 
" style="fill:none;stroke:#000000;stroke-linecap:square;stroke-linejoin:miter;stroke-width:0.8;"/>
   </g>
   <g id="patch_69">
    <path d="M 323.266467 10.999219 
L 400.90125 10.999219 
" style="fill:none;stroke:#000000;stroke-linecap:square;stroke-linejoin:miter;stroke-width:0.8;"/>
   </g>
  </g>
  <g id="axes_5">
   <g id="patch_70">
    <path d="M 43.78125 111.938253 
L 121.416033 111.938253 
L 121.416033 66.056874 
L 43.78125 66.056874 
z
" style="fill:#ffffff;"/>
   </g>
   <g id="patch_71">
    <path clip-path="url(#pc95e08ce0f)" d="M 47.310104 111.938253 
L 57.044873 111.938253 
L 57.044873 111.449299 
L 47.310104 111.449299 
z
"/>
   </g>
   <g id="patch_72">
    <path clip-path="url(#pc95e08ce0f)" d="M 59.478565 111.938253 
L 69.213334 111.938253 
L 69.213334 110.622379 
L 59.478565 110.622379 
z
"/>
   </g>
   <g id="patch_73">
    <path clip-path="url(#pc95e08ce0f)" d="M 71.647026 111.938253 
L 81.381795 111.938253 
L 81.381795 111.115169 
L 71.647026 111.115169 
z
"/>
   </g>
   <g id="patch_74">
    <path clip-path="url(#pc95e08ce0f)" d="M 83.815487 111.938253 
L 93.550256 111.938253 
L 93.550256 109.56736 
L 83.815487 109.56736 
z
"/>
   </g>
   <g id="patch_75">
    <path clip-path="url(#pc95e08ce0f)" d="M 95.983949 111.938253 
L 105.718718 111.938253 
L 105.718718 111.258745 
L 95.983949 111.258745 
z
" style="fill:#aec7e8;"/>
   </g>
   <g id="patch_76">
    <path clip-path="url(#pc95e08ce0f)" d="M 108.15241 111.938253 
L 117.887179 111.938253 
L 117.887179 76.823163 
L 108.15241 76.823163 
z
" style="fill:#aec7e8;"/>
   </g>
   <g id="patch_77">
    <path clip-path="url(#pc95e08ce0f)" d="M 47.310104 111.449299 
L 57.044873 111.449299 
L 57.044873 111.394971 
L 47.310104 111.394971 
z
"/>
   </g>
   <g id="patch_78">
    <path clip-path="url(#pc95e08ce0f)" d="M 59.478565 110.622379 
L 69.213334 110.622379 
L 69.213334 110.47617 
L 59.478565 110.47617 
z
" style="fill:#ff7f0e;"/>
   </g>
   <g id="patch_79">
    <path clip-path="url(#pc95e08ce0f)" d="M 71.647026 111.115169 
L 81.381795 111.115169 
L 81.381795 111.023715 
L 71.647026 111.023715 
z
" style="fill:#ff7f0e;"/>
   </g>
   <g id="patch_80">
    <path clip-path="url(#pc95e08ce0f)" d="M 83.815487 109.56736 
L 93.550256 109.56736 
L 93.550256 109.303928 
L 83.815487 109.303928 
z
" style="fill:#aec7e8;"/>
   </g>
   <g id="patch_81">
    <path clip-path="url(#pc95e08ce0f)" d="M 95.983949 111.258745 
L 105.718718 111.258745 
L 105.718718 111.183244 
L 95.983949 111.183244 
z
"/>
   </g>
   <g id="patch_82">
    <path clip-path="url(#pc95e08ce0f)" d="M 108.15241 76.823163 
L 117.887179 76.823163 
L 117.887179 72.921487 
L 108.15241 72.921487 
z
" style="fill:#ff7f0e;"/>
   </g>
   <g id="matplotlib.axis_9"/>
   <g id="matplotlib.axis_10">
    <g id="ytick_9">
     <g id="line2d_9">
      <g>
       <use style="stroke:#000000;stroke-width:0.8;" x="43.78125" xlink:href="#mf574a04312" y="111.938253"/>
      </g>
     </g>
     <g id="text_3">
      <!-- 0.0 -->
      <g transform="translate(20.878125 115.737472)scale(0.1 -0.1)">
       <use xlink:href="#DejaVuSans-30"/>
       <use x="63.623047" xlink:href="#DejaVuSans-2e"/>
       <use x="95.410156" xlink:href="#DejaVuSans-30"/>
      </g>
     </g>
    </g>
    <g id="ytick_10">
     <g id="line2d_10">
      <g>
       <use style="stroke:#000000;stroke-width:0.8;" x="43.78125" xlink:href="#mf574a04312" y="85.129166"/>
      </g>
     </g>
     <g id="text_4">
      <!-- 0.5 -->
      <g transform="translate(20.878125 88.928385)scale(0.1 -0.1)">
       <use xlink:href="#DejaVuSans-30"/>
       <use x="63.623047" xlink:href="#DejaVuSans-2e"/>
       <use x="95.410156" xlink:href="#DejaVuSans-35"/>
      </g>
     </g>
    </g>
   </g>
   <g id="patch_83">
    <path d="M 43.78125 111.938253 
L 43.78125 66.056874 
" style="fill:none;stroke:#000000;stroke-linecap:square;stroke-linejoin:miter;stroke-width:0.8;"/>
   </g>
   <g id="patch_84">
    <path d="M 121.416033 111.938253 
L 121.416033 66.056874 
" style="fill:none;stroke:#000000;stroke-linecap:square;stroke-linejoin:miter;stroke-width:0.8;"/>
   </g>
   <g id="patch_85">
    <path d="M 43.78125 111.938253 
L 121.416033 111.938253 
" style="fill:none;stroke:#000000;stroke-linecap:square;stroke-linejoin:miter;stroke-width:0.8;"/>
   </g>
   <g id="patch_86">
    <path d="M 43.78125 66.056874 
L 121.416033 66.056874 
" style="fill:none;stroke:#000000;stroke-linecap:square;stroke-linejoin:miter;stroke-width:0.8;"/>
   </g>
  </g>
  <g id="axes_6">
   <g id="patch_87">
    <path d="M 136.942989 111.938253 
L 214.577772 111.938253 
L 214.577772 66.056874 
L 136.942989 66.056874 
z
" style="fill:#ffffff;"/>
   </g>
   <g id="patch_88">
    <path clip-path="url(#pefd966e478)" d="M 140.471843 111.938253 
L 160.636721 111.938253 
L 160.636721 103.470844 
L 140.471843 103.470844 
z
"/>
   </g>
   <g id="patch_89">
    <path clip-path="url(#pefd966e478)" d="M 165.677941 111.938253 
L 185.84282 111.938253 
L 185.84282 103.563708 
L 165.677941 103.563708 
z
" style="fill:#1f77b4;"/>
   </g>
   <g id="patch_90">
    <path clip-path="url(#pefd966e478)" d="M 190.884039 111.938253 
L 211.048918 111.938253 
L 211.048918 72.611357 
L 190.884039 72.611357 
z
" style="fill:#1f77b4;"/>
   </g>
   <g id="patch_91">
    <path clip-path="url(#pefd966e478)" d="M 140.471843 103.470844 
L 160.636721 103.470844 
L 160.636721 102.530021 
L 140.471843 102.530021 
z
" style="fill:#aec7e8;"/>
   </g>
   <g id="patch_92">
    <path clip-path="url(#pefd966e478)" d="M 165.677941 103.563708 
L 185.84282 103.563708 
L 185.84282 102.633203 
L 165.677941 102.633203 
z
"/>
   </g>
   <g id="patch_93">
    <path clip-path="url(#pefd966e478)" d="M 190.884039 72.611357 
L 211.048918 72.611357 
L 211.048918 68.241702 
L 190.884039 68.241702 
z
" style="fill:#aec7e8;"/>
   </g>
   <g id="matplotlib.axis_11"/>
   <g id="matplotlib.axis_12">
    <g id="ytick_11">
     <g id="line2d_11">
      <g>
       <use style="stroke:#000000;stroke-width:0.8;" x="136.942989" xlink:href="#mf574a04312" y="111.938253"/>
      </g>
     </g>
    </g>
    <g id="ytick_12">
     <g id="line2d_12">
      <g>
       <use style="stroke:#000000;stroke-width:0.8;" x="136.942989" xlink:href="#mf574a04312" y="85.129166"/>
      </g>
     </g>
    </g>
   </g>
   <g id="patch_94">
    <path d="M 136.942989 111.938253 
L 136.942989 66.056874 
" style="fill:none;stroke:#000000;stroke-linecap:square;stroke-linejoin:miter;stroke-width:0.8;"/>
   </g>
   <g id="patch_95">
    <path d="M 214.577772 111.938253 
L 214.577772 66.056874 
" style="fill:none;stroke:#000000;stroke-linecap:square;stroke-linejoin:miter;stroke-width:0.8;"/>
   </g>
   <g id="patch_96">
    <path d="M 136.942989 111.938253 
L 214.577772 111.938253 
" style="fill:none;stroke:#000000;stroke-linecap:square;stroke-linejoin:miter;stroke-width:0.8;"/>
   </g>
   <g id="patch_97">
    <path d="M 136.942989 66.056874 
L 214.577772 66.056874 
" style="fill:none;stroke:#000000;stroke-linecap:square;stroke-linejoin:miter;stroke-width:0.8;"/>
   </g>
  </g>
  <g id="axes_7">
   <g id="patch_98">
    <path d="M 230.104728 111.938253 
L 307.739511 111.938253 
L 307.739511 66.056874 
L 230.104728 66.056874 
z
" style="fill:#ffffff;"/>
   </g>
   <g id="patch_99">
    <path clip-path="url(#p4cf3dbc50e)" d="M 233.633582 111.938253 
L 243.368351 111.938253 
L 243.368351 111.858181 
L 233.633582 111.858181 
z
"/>
   </g>
   <g id="patch_100">
    <path clip-path="url(#p4cf3dbc50e)" d="M 245.802043 111.938253 
L 255.536812 111.938253 
L 255.536812 109.329105 
L 245.802043 109.329105 
z
"/>
   </g>
   <g id="patch_101">
    <path clip-path="url(#p4cf3dbc50e)" d="M 257.970504 111.938253 
L 267.705273 111.938253 
L 267.705273 109.545523 
L 257.970504 109.545523 
z
"/>
   </g>
   <g id="patch_102">
    <path clip-path="url(#p4cf3dbc50e)" d="M 270.138966 111.938253 
L 279.873735 111.938253 
L 279.873735 111.482724 
L 270.138966 111.482724 
z
"/>
   </g>
   <g id="patch_103">
    <path clip-path="url(#p4cf3dbc50e)" d="M 282.307427 111.938253 
L 292.042196 111.938253 
L 292.042196 111.626157 
L 282.307427 111.626157 
z
" style="fill:#ff7f0e;"/>
   </g>
   <g id="patch_104">
    <path clip-path="url(#p4cf3dbc50e)" d="M 294.475888 111.938253 
L 304.210657 111.938253 
L 304.210657 79.354291 
L 294.475888 79.354291 
z
" style="fill:#ff7f0e;"/>
   </g>
   <g id="patch_105">
    <path clip-path="url(#p4cf3dbc50e)" d="M 233.633582 111.858181 
L 243.368351 111.858181 
L 243.368351 111.849284 
L 233.633582 111.849284 
z
"/>
   </g>
   <g id="patch_106">
    <path clip-path="url(#p4cf3dbc50e)" d="M 245.802043 109.329105 
L 255.536812 109.329105 
L 255.536812 109.0392 
L 245.802043 109.0392 
z
" style="fill:#ff7f0e;"/>
   </g>
   <g id="patch_107">
    <path clip-path="url(#p4cf3dbc50e)" d="M 257.970504 109.545523 
L 267.705273 109.545523 
L 267.705273 109.279664 
L 257.970504 109.279664 
z
" style="fill:#1f77b4;"/>
   </g>
   <g id="patch_108">
    <path clip-path="url(#p4cf3dbc50e)" d="M 270.138966 111.482724 
L 279.873735 111.482724 
L 279.873735 111.43211 
L 270.138966 111.43211 
z
" style="fill:#1f77b4;"/>
   </g>
   <g id="patch_109">
    <path clip-path="url(#p4cf3dbc50e)" d="M 282.307427 111.626157 
L 292.042196 111.626157 
L 292.042196 111.591479 
L 282.307427 111.591479 
z
"/>
   </g>
   <g id="patch_110">
    <path clip-path="url(#p4cf3dbc50e)" d="M 294.475888 79.354291 
L 304.210657 79.354291 
L 304.210657 75.73385 
L 294.475888 75.73385 
z
" style="fill:#1f77b4;"/>
   </g>
   <g id="matplotlib.axis_13"/>
   <g id="matplotlib.axis_14">
    <g id="ytick_13">
     <g id="line2d_13">
      <g>
       <use style="stroke:#000000;stroke-width:0.8;" x="230.104728" xlink:href="#mf574a04312" y="111.938253"/>
      </g>
     </g>
    </g>
    <g id="ytick_14">
     <g id="line2d_14">
      <g>
       <use style="stroke:#000000;stroke-width:0.8;" x="230.104728" xlink:href="#mf574a04312" y="85.129166"/>
      </g>
     </g>
    </g>
   </g>
   <g id="patch_111">
    <path d="M 230.104728 111.938253 
L 230.104728 66.056874 
" style="fill:none;stroke:#000000;stroke-linecap:square;stroke-linejoin:miter;stroke-width:0.8;"/>
   </g>
   <g id="patch_112">
    <path d="M 307.739511 111.938253 
L 307.739511 66.056874 
" style="fill:none;stroke:#000000;stroke-linecap:square;stroke-linejoin:miter;stroke-width:0.8;"/>
   </g>
   <g id="patch_113">
    <path d="M 230.104728 111.938253 
L 307.739511 111.938253 
" style="fill:none;stroke:#000000;stroke-linecap:square;stroke-linejoin:miter;stroke-width:0.8;"/>
   </g>
   <g id="patch_114">
    <path d="M 230.104728 66.056874 
L 307.739511 66.056874 
" style="fill:none;stroke:#000000;stroke-linecap:square;stroke-linejoin:miter;stroke-width:0.8;"/>
   </g>
  </g>
  <g id="axes_8">
   <g id="patch_115">
    <path d="M 323.266467 111.938253 
L 400.90125 111.938253 
L 400.90125 66.056874 
L 323.266467 66.056874 
z
" style="fill:#ffffff;"/>
   </g>
   <g id="patch_116">
    <path clip-path="url(#pc28e2aa5a8)" d="M 326.795321 111.938253 
L 336.53009 111.938253 
L 336.53009 111.77388 
L 326.795321 111.77388 
z
"/>
   </g>
   <g id="patch_117">
    <path clip-path="url(#pc28e2aa5a8)" d="M 338.963782 111.938253 
L 348.698551 111.938253 
L 348.698551 109.329105 
L 338.963782 109.329105 
z
"/>
   </g>
   <g id="patch_118">
    <path clip-path="url(#pc28e2aa5a8)" d="M 351.132244 111.938253 
L 360.867013 111.938253 
L 360.867013 110.168676 
L 351.132244 110.168676 
z
"/>
   </g>
   <g id="patch_119">
    <path clip-path="url(#pc28e2aa5a8)" d="M 363.300705 111.938253 
L 373.035474 111.938253 
L 373.035474 110.721736 
L 363.300705 110.721736 
z
"/>
   </g>
   <g id="patch_120">
    <path clip-path="url(#pc28e2aa5a8)" d="M 375.469166 111.938253 
L 385.203935 111.938253 
L 385.203935 110.481575 
L 375.469166 110.481575 
z
" style="fill:#ff7f0e;"/>
   </g>
   <g id="patch_121">
    <path clip-path="url(#pc28e2aa5a8)" d="M 387.637627 111.938253 
L 397.372396 111.938253 
L 397.372396 79.57095 
L 387.637627 79.57095 
z
" style="fill:#ff7f0e;"/>
   </g>
   <g id="patch_122">
    <path clip-path="url(#pc28e2aa5a8)" d="M 326.795321 111.77388 
L 336.53009 111.77388 
L 336.53009 111.755616 
L 326.795321 111.755616 
z
"/>
   </g>
   <g id="patch_123">
    <path clip-path="url(#pc28e2aa5a8)" d="M 338.963782 109.329105 
L 348.698551 109.329105 
L 348.698551 109.0392 
L 338.963782 109.0392 
z
" style="fill:#ff7f0e;"/>
   </g>
   <g id="patch_124">
    <path clip-path="url(#pc28e2aa5a8)" d="M 351.132244 110.168676 
L 360.867013 110.168676 
L 360.867013 109.972057 
L 351.132244 109.972057 
z
" style="fill:#ffbb78;"/>
   </g>
   <g id="patch_125">
    <path clip-path="url(#pc28e2aa5a8)" d="M 363.300705 110.721736 
L 373.035474 110.721736 
L 373.035474 110.586568 
L 363.300705 110.586568 
z
" style="fill:#ffbb78;"/>
   </g>
   <g id="patch_126">
    <path clip-path="url(#pc28e2aa5a8)" d="M 375.469166 110.481575 
L 385.203935 110.481575 
L 385.203935 110.319722 
L 375.469166 110.319722 
z
"/>
   </g>
   <g id="patch_127">
    <path clip-path="url(#pc28e2aa5a8)" d="M 387.637627 79.57095 
L 397.372396 79.57095 
L 397.372396 75.974583 
L 387.637627 75.974583 
z
" style="fill:#ffbb78;"/>
   </g>
   <g id="matplotlib.axis_15"/>
   <g id="matplotlib.axis_16">
    <g id="ytick_15">
     <g id="line2d_15">
      <g>
       <use style="stroke:#000000;stroke-width:0.8;" x="323.266467" xlink:href="#mf574a04312" y="111.938253"/>
      </g>
     </g>
    </g>
    <g id="ytick_16">
     <g id="line2d_16">
      <g>
       <use style="stroke:#000000;stroke-width:0.8;" x="323.266467" xlink:href="#mf574a04312" y="85.129166"/>
      </g>
     </g>
    </g>
   </g>
   <g id="patch_128">
    <path d="M 323.266467 111.938253 
L 323.266467 66.056874 
" style="fill:none;stroke:#000000;stroke-linecap:square;stroke-linejoin:miter;stroke-width:0.8;"/>
   </g>
   <g id="patch_129">
    <path d="M 400.90125 111.938253 
L 400.90125 66.056874 
" style="fill:none;stroke:#000000;stroke-linecap:square;stroke-linejoin:miter;stroke-width:0.8;"/>
   </g>
   <g id="patch_130">
    <path d="M 323.266467 111.938253 
L 400.90125 111.938253 
" style="fill:none;stroke:#000000;stroke-linecap:square;stroke-linejoin:miter;stroke-width:0.8;"/>
   </g>
   <g id="patch_131">
    <path d="M 323.266467 66.056874 
L 400.90125 66.056874 
" style="fill:none;stroke:#000000;stroke-linecap:square;stroke-linejoin:miter;stroke-width:0.8;"/>
   </g>
  </g>
  <g id="axes_9">
   <g id="patch_132">
    <path d="M 43.78125 166.995908 
L 121.416033 166.995908 
L 121.416033 121.114529 
L 43.78125 121.114529 
z
" style="fill:#ffffff;"/>
   </g>
   <g id="patch_133">
    <path clip-path="url(#p19a1551861)" d="M 47.310104 166.995908 
L 57.044873 166.995908 
L 57.044873 166.973856 
L 47.310104 166.973856 
z
"/>
   </g>
   <g id="patch_134">
    <path clip-path="url(#p19a1551861)" d="M 59.478565 166.995908 
L 69.213334 166.995908 
L 69.213334 164.603178 
L 59.478565 164.603178 
z
"/>
   </g>
   <g id="patch_135">
    <path clip-path="url(#p19a1551861)" d="M 71.647026 166.995908 
L 81.381795 166.995908 
L 81.381795 163.719513 
L 71.647026 163.719513 
z
"/>
   </g>
   <g id="patch_136">
    <path clip-path="url(#p19a1551861)" d="M 83.815487 166.995908 
L 93.550256 166.995908 
L 93.550256 166.953952 
L 83.815487 166.953952 
z
"/>
   </g>
   <g id="patch_137">
    <path clip-path="url(#p19a1551861)" d="M 95.983949 166.995908 
L 105.718718 166.995908 
L 105.718718 165.608393 
L 95.983949 165.608393 
z
" style="fill:#1f77b4;"/>
   </g>
   <g id="patch_138">
    <path clip-path="url(#p19a1551861)" d="M 108.15241 166.995908 
L 117.887179 166.995908 
L 117.887179 134.400702 
L 108.15241 134.400702 
z
" style="fill:#1f77b4;"/>
   </g>
   <g id="patch_139">
    <path clip-path="url(#p19a1551861)" d="M 47.310104 166.973856 
L 57.044873 166.973856 
L 57.044873 166.971406 
L 47.310104 166.971406 
z
"/>
   </g>
   <g id="patch_140">
    <path clip-path="url(#p19a1551861)" d="M 59.478565 164.603178 
L 69.213334 164.603178 
L 69.213334 164.337319 
L 59.478565 164.337319 
z
" style="fill:#1f77b4;"/>
   </g>
   <g id="patch_141">
    <path clip-path="url(#p19a1551861)" d="M 71.647026 163.719513 
L 81.381795 163.719513 
L 81.381795 163.355469 
L 71.647026 163.355469 
z
" style="fill:#aec7e8;"/>
   </g>
   <g id="patch_142">
    <path clip-path="url(#p19a1551861)" d="M 83.815487 166.953952 
L 93.550256 166.953952 
L 93.550256 166.94929 
L 83.815487 166.94929 
z
" style="fill:#aec7e8;"/>
   </g>
   <g id="patch_143">
    <path clip-path="url(#p19a1551861)" d="M 95.983949 165.608393 
L 105.718718 165.608393 
L 105.718718 165.454224 
L 95.983949 165.454224 
z
"/>
   </g>
   <g id="patch_144">
    <path clip-path="url(#p19a1551861)" d="M 108.15241 134.400702 
L 117.887179 134.400702 
L 117.887179 130.779012 
L 108.15241 130.779012 
z
" style="fill:#aec7e8;"/>
   </g>
   <g id="matplotlib.axis_17"/>
   <g id="matplotlib.axis_18">
    <g id="ytick_17">
     <g id="line2d_17">
      <g>
       <use style="stroke:#000000;stroke-width:0.8;" x="43.78125" xlink:href="#mf574a04312" y="166.995908"/>
      </g>
     </g>
     <g id="text_5">
      <!-- 0.0 -->
      <g transform="translate(20.878125 170.795127)scale(0.1 -0.1)">
       <use xlink:href="#DejaVuSans-30"/>
       <use x="63.623047" xlink:href="#DejaVuSans-2e"/>
       <use x="95.410156" xlink:href="#DejaVuSans-30"/>
      </g>
     </g>
    </g>
    <g id="ytick_18">
     <g id="line2d_18">
      <g>
       <use style="stroke:#000000;stroke-width:0.8;" x="43.78125" xlink:href="#mf574a04312" y="140.186821"/>
      </g>
     </g>
     <g id="text_6">
      <!-- 0.5 -->
      <g transform="translate(20.878125 143.98604)scale(0.1 -0.1)">
       <use xlink:href="#DejaVuSans-30"/>
       <use x="63.623047" xlink:href="#DejaVuSans-2e"/>
       <use x="95.410156" xlink:href="#DejaVuSans-35"/>
      </g>
     </g>
    </g>
   </g>
   <g id="patch_145">
    <path d="M 43.78125 166.995908 
L 43.78125 121.114529 
" style="fill:none;stroke:#000000;stroke-linecap:square;stroke-linejoin:miter;stroke-width:0.8;"/>
   </g>
   <g id="patch_146">
    <path d="M 121.416033 166.995908 
L 121.416033 121.114529 
" style="fill:none;stroke:#000000;stroke-linecap:square;stroke-linejoin:miter;stroke-width:0.8;"/>
   </g>
   <g id="patch_147">
    <path d="M 43.78125 166.995908 
L 121.416033 166.995908 
" style="fill:none;stroke:#000000;stroke-linecap:square;stroke-linejoin:miter;stroke-width:0.8;"/>
   </g>
   <g id="patch_148">
    <path d="M 43.78125 121.114529 
L 121.416033 121.114529 
" style="fill:none;stroke:#000000;stroke-linecap:square;stroke-linejoin:miter;stroke-width:0.8;"/>
   </g>
  </g>
  <g id="axes_10">
   <g id="patch_149">
    <path d="M 136.942989 166.995908 
L 214.577772 166.995908 
L 214.577772 121.114529 
L 136.942989 121.114529 
z
" style="fill:#ffffff;"/>
   </g>
   <g id="patch_150">
    <path clip-path="url(#pfb6324ee6b)" d="M 140.471843 166.995908 
L 160.636721 166.995908 
L 160.636721 157.150724 
L 140.471843 157.150724 
z
"/>
   </g>
   <g id="patch_151">
    <path clip-path="url(#pfb6324ee6b)" d="M 165.677941 166.995908 
L 185.84282 166.995908 
L 185.84282 158.621363 
L 165.677941 158.621363 
z
" style="fill:#1f77b4;"/>
   </g>
   <g id="patch_152">
    <path clip-path="url(#pfb6324ee6b)" d="M 190.884039 166.995908 
L 211.048918 166.995908 
L 211.048918 128.220067 
L 190.884039 128.220067 
z
" style="fill:#1f77b4;"/>
   </g>
   <g id="patch_153">
    <path clip-path="url(#pfb6324ee6b)" d="M 140.471843 157.150724 
L 160.636721 157.150724 
L 160.636721 156.056815 
L 140.471843 156.056815 
z
" style="fill:#ffbb78;"/>
   </g>
   <g id="patch_154">
    <path clip-path="url(#pfb6324ee6b)" d="M 165.677941 158.621363 
L 185.84282 158.621363 
L 185.84282 157.690858 
L 165.677941 157.690858 
z
"/>
   </g>
   <g id="patch_155">
    <path clip-path="url(#pfb6324ee6b)" d="M 190.884039 128.220067 
L 211.048918 128.220067 
L 211.048918 123.91164 
L 190.884039 123.91164 
z
" style="fill:#ffbb78;"/>
   </g>
   <g id="matplotlib.axis_19"/>
   <g id="matplotlib.axis_20">
    <g id="ytick_19">
     <g id="line2d_19">
      <g>
       <use style="stroke:#000000;stroke-width:0.8;" x="136.942989" xlink:href="#mf574a04312" y="166.995908"/>
      </g>
     </g>
    </g>
    <g id="ytick_20">
     <g id="line2d_20">
      <g>
       <use style="stroke:#000000;stroke-width:0.8;" x="136.942989" xlink:href="#mf574a04312" y="140.186821"/>
      </g>
     </g>
    </g>
   </g>
   <g id="patch_156">
    <path d="M 136.942989 166.995908 
L 136.942989 121.114529 
" style="fill:none;stroke:#000000;stroke-linecap:square;stroke-linejoin:miter;stroke-width:0.8;"/>
   </g>
   <g id="patch_157">
    <path d="M 214.577772 166.995908 
L 214.577772 121.114529 
" style="fill:none;stroke:#000000;stroke-linecap:square;stroke-linejoin:miter;stroke-width:0.8;"/>
   </g>
   <g id="patch_158">
    <path d="M 136.942989 166.995908 
L 214.577772 166.995908 
" style="fill:none;stroke:#000000;stroke-linecap:square;stroke-linejoin:miter;stroke-width:0.8;"/>
   </g>
   <g id="patch_159">
    <path d="M 136.942989 121.114529 
L 214.577772 121.114529 
" style="fill:none;stroke:#000000;stroke-linecap:square;stroke-linejoin:miter;stroke-width:0.8;"/>
   </g>
  </g>
  <g id="axes_11">
   <g id="patch_160">
    <path d="M 230.104728 166.995908 
L 307.739511 166.995908 
L 307.739511 121.114529 
L 230.104728 121.114529 
z
" style="fill:#ffffff;"/>
   </g>
   <g id="patch_161">
    <path clip-path="url(#p1f7e70abf6)" d="M 233.633582 166.995908 
L 253.798461 166.995908 
L 253.798461 157.560008 
L 233.633582 157.560008 
z
"/>
   </g>
   <g id="patch_162">
    <path clip-path="url(#p1f7e70abf6)" d="M 258.83968 166.995908 
L 279.004559 166.995908 
L 279.004559 158.621363 
L 258.83968 158.621363 
z
" style="fill:#1f77b4;"/>
   </g>
   <g id="patch_163">
    <path clip-path="url(#p1f7e70abf6)" d="M 284.045779 166.995908 
L 304.210657 166.995908 
L 304.210657 129.143483 
L 284.045779 129.143483 
z
" style="fill:#1f77b4;"/>
   </g>
   <g id="patch_164">
    <path clip-path="url(#p1f7e70abf6)" d="M 233.633582 157.560008 
L 253.798461 157.560008 
L 253.798461 156.511575 
L 233.633582 156.511575 
z
" style="fill:#ff7f0e;"/>
   </g>
   <g id="patch_165">
    <path clip-path="url(#p1f7e70abf6)" d="M 258.83968 158.621363 
L 279.004559 158.621363 
L 279.004559 157.690858 
L 258.83968 157.690858 
z
"/>
   </g>
   <g id="patch_166">
    <path clip-path="url(#p1f7e70abf6)" d="M 284.045779 129.143483 
L 304.210657 129.143483 
L 304.210657 124.937658 
L 284.045779 124.937658 
z
" style="fill:#ff7f0e;"/>
   </g>
   <g id="matplotlib.axis_21"/>
   <g id="matplotlib.axis_22">
    <g id="ytick_21">
     <g id="line2d_21">
      <g>
       <use style="stroke:#000000;stroke-width:0.8;" x="230.104728" xlink:href="#mf574a04312" y="166.995908"/>
      </g>
     </g>
    </g>
    <g id="ytick_22">
     <g id="line2d_22">
      <g>
       <use style="stroke:#000000;stroke-width:0.8;" x="230.104728" xlink:href="#mf574a04312" y="140.186821"/>
      </g>
     </g>
    </g>
   </g>
   <g id="patch_167">
    <path d="M 230.104728 166.995908 
L 230.104728 121.114529 
" style="fill:none;stroke:#000000;stroke-linecap:square;stroke-linejoin:miter;stroke-width:0.8;"/>
   </g>
   <g id="patch_168">
    <path d="M 307.739511 166.995908 
L 307.739511 121.114529 
" style="fill:none;stroke:#000000;stroke-linecap:square;stroke-linejoin:miter;stroke-width:0.8;"/>
   </g>
   <g id="patch_169">
    <path d="M 230.104728 166.995908 
L 307.739511 166.995908 
" style="fill:none;stroke:#000000;stroke-linecap:square;stroke-linejoin:miter;stroke-width:0.8;"/>
   </g>
   <g id="patch_170">
    <path d="M 230.104728 121.114529 
L 307.739511 121.114529 
" style="fill:none;stroke:#000000;stroke-linecap:square;stroke-linejoin:miter;stroke-width:0.8;"/>
   </g>
  </g>
  <g id="axes_12">
   <g id="patch_171">
    <path d="M 323.266467 166.995908 
L 400.90125 166.995908 
L 400.90125 121.114529 
L 323.266467 121.114529 
z
" style="fill:#ffffff;"/>
   </g>
   <g id="patch_172">
    <path clip-path="url(#p91a464c3f3)" d="M 326.795321 166.995908 
L 336.53009 166.995908 
L 336.53009 166.633244 
L 326.795321 166.633244 
z
"/>
   </g>
   <g id="patch_173">
    <path clip-path="url(#p91a464c3f3)" d="M 338.963782 166.995908 
L 348.698551 166.995908 
L 348.698551 164.053515 
L 338.963782 164.053515 
z
"/>
   </g>
   <g id="patch_174">
    <path clip-path="url(#p91a464c3f3)" d="M 351.132244 166.995908 
L 360.867013 166.995908 
L 360.867013 164.11017 
L 351.132244 164.11017 
z
"/>
   </g>
   <g id="patch_175">
    <path clip-path="url(#p91a464c3f3)" d="M 363.300705 166.995908 
L 373.035474 166.995908 
L 373.035474 166.420713 
L 363.300705 166.420713 
z
"/>
   </g>
   <g id="patch_176">
    <path clip-path="url(#p91a464c3f3)" d="M 375.469166 166.995908 
L 385.203935 166.995908 
L 385.203935 166.154065 
L 375.469166 166.154065 
z
" style="fill:#ff7f0e;"/>
   </g>
   <g id="patch_177">
    <path clip-path="url(#p91a464c3f3)" d="M 387.637627 166.995908 
L 397.372396 166.995908 
L 397.372396 137.210046 
L 387.637627 137.210046 
z
" style="fill:#ff7f0e;"/>
   </g>
   <g id="patch_178">
    <path clip-path="url(#p91a464c3f3)" d="M 326.795321 166.633244 
L 336.53009 166.633244 
L 336.53009 166.592948 
L 326.795321 166.592948 
z
"/>
   </g>
   <g id="patch_179">
    <path clip-path="url(#p91a464c3f3)" d="M 338.963782 164.053515 
L 348.698551 164.053515 
L 348.698551 163.726582 
L 338.963782 163.726582 
z
" style="fill:#ff7f0e;"/>
   </g>
   <g id="patch_180">
    <path clip-path="url(#p91a464c3f3)" d="M 351.132244 164.11017 
L 360.867013 164.11017 
L 360.867013 163.789532 
L 351.132244 163.789532 
z
" style="fill:#aec7e8;"/>
   </g>
   <g id="patch_181">
    <path clip-path="url(#p91a464c3f3)" d="M 363.300705 166.420713 
L 373.035474 166.420713 
L 373.035474 166.356802 
L 363.300705 166.356802 
z
" style="fill:#aec7e8;"/>
   </g>
   <g id="patch_182">
    <path clip-path="url(#p91a464c3f3)" d="M 375.469166 166.154065 
L 385.203935 166.154065 
L 385.203935 166.060527 
L 375.469166 166.060527 
z
"/>
   </g>
   <g id="patch_183">
    <path clip-path="url(#p91a464c3f3)" d="M 387.637627 137.210046 
L 397.372396 137.210046 
L 397.372396 133.900506 
L 387.637627 133.900506 
z
" style="fill:#aec7e8;"/>
   </g>
   <g id="matplotlib.axis_23"/>
   <g id="matplotlib.axis_24">
    <g id="ytick_23">
     <g id="line2d_23">
      <g>
       <use style="stroke:#000000;stroke-width:0.8;" x="323.266467" xlink:href="#mf574a04312" y="166.995908"/>
      </g>
     </g>
    </g>
    <g id="ytick_24">
     <g id="line2d_24">
      <g>
       <use style="stroke:#000000;stroke-width:0.8;" x="323.266467" xlink:href="#mf574a04312" y="140.186821"/>
      </g>
     </g>
    </g>
   </g>
   <g id="patch_184">
    <path d="M 323.266467 166.995908 
L 323.266467 121.114529 
" style="fill:none;stroke:#000000;stroke-linecap:square;stroke-linejoin:miter;stroke-width:0.8;"/>
   </g>
   <g id="patch_185">
    <path d="M 400.90125 166.995908 
L 400.90125 121.114529 
" style="fill:none;stroke:#000000;stroke-linecap:square;stroke-linejoin:miter;stroke-width:0.8;"/>
   </g>
   <g id="patch_186">
    <path d="M 323.266467 166.995908 
L 400.90125 166.995908 
" style="fill:none;stroke:#000000;stroke-linecap:square;stroke-linejoin:miter;stroke-width:0.8;"/>
   </g>
   <g id="patch_187">
    <path d="M 323.266467 121.114529 
L 400.90125 121.114529 
" style="fill:none;stroke:#000000;stroke-linecap:square;stroke-linejoin:miter;stroke-width:0.8;"/>
   </g>
  </g>
  <g id="axes_13">
   <g id="patch_188">
    <path d="M 43.78125 222.053564 
L 121.416033 222.053564 
L 121.416033 176.172184 
L 43.78125 176.172184 
z
" style="fill:#ffffff;"/>
   </g>
   <g id="patch_189">
    <path clip-path="url(#p0d02216dea)" d="M 47.310104 222.053564 
L 57.044873 222.053564 
L 57.044873 220.134742 
L 47.310104 220.134742 
z
"/>
   </g>
   <g id="patch_190">
    <path clip-path="url(#p0d02216dea)" d="M 59.478565 222.053564 
L 69.213334 222.053564 
L 69.213334 219.11117 
L 59.478565 219.11117 
z
"/>
   </g>
   <g id="patch_191">
    <path clip-path="url(#p0d02216dea)" d="M 71.647026 222.053564 
L 81.381795 222.053564 
L 81.381795 219.09855 
L 71.647026 219.09855 
z
"/>
   </g>
   <g id="patch_192">
    <path clip-path="url(#p0d02216dea)" d="M 83.815487 222.053564 
L 93.550256 222.053564 
L 93.550256 221.853282 
L 83.815487 221.853282 
z
"/>
   </g>
   <g id="patch_193">
    <path clip-path="url(#p0d02216dea)" d="M 95.983949 222.053564 
L 105.718718 222.053564 
L 105.718718 220.398084 
L 95.983949 220.398084 
z
" style="fill:#ff7f0e;"/>
   </g>
   <g id="patch_194">
    <path clip-path="url(#p0d02216dea)" d="M 108.15241 222.053564 
L 117.887179 222.053564 
L 117.887179 192.551135 
L 108.15241 192.551135 
z
" style="fill:#ff7f0e;"/>
   </g>
   <g id="patch_195">
    <path clip-path="url(#p0d02216dea)" d="M 47.310104 220.134742 
L 57.044873 220.134742 
L 57.044873 219.92154 
L 47.310104 219.92154 
z
"/>
   </g>
   <g id="patch_196">
    <path clip-path="url(#p0d02216dea)" d="M 59.478565 219.11117 
L 69.213334 219.11117 
L 69.213334 218.784237 
L 59.478565 218.784237 
z
" style="fill:#ff7f0e;"/>
   </g>
   <g id="patch_197">
    <path clip-path="url(#p0d02216dea)" d="M 71.647026 219.09855 
L 81.381795 219.09855 
L 81.381795 218.770215 
L 71.647026 218.770215 
z
" style="fill:#1f77b4;"/>
   </g>
   <g id="patch_198">
    <path clip-path="url(#p0d02216dea)" d="M 83.815487 221.853282 
L 93.550256 221.853282 
L 93.550256 221.831028 
L 83.815487 221.831028 
z
" style="fill:#1f77b4;"/>
   </g>
   <g id="patch_199">
    <path clip-path="url(#p0d02216dea)" d="M 95.983949 220.398084 
L 105.718718 220.398084 
L 105.718718 220.214142 
L 95.983949 220.214142 
z
"/>
   </g>
   <g id="patch_200">
    <path clip-path="url(#p0d02216dea)" d="M 108.15241 192.551135 
L 117.887179 192.551135 
L 117.887179 189.273088 
L 108.15241 189.273088 
z
" style="fill:#1f77b4;"/>
   </g>
   <g id="matplotlib.axis_25"/>
   <g id="matplotlib.axis_26">
    <g id="ytick_25">
     <g id="line2d_25">
      <g>
       <use style="stroke:#000000;stroke-width:0.8;" x="43.78125" xlink:href="#mf574a04312" y="222.053564"/>
      </g>
     </g>
     <g id="text_7">
      <!-- 0.0 -->
      <g transform="translate(20.878125 225.852782)scale(0.1 -0.1)">
       <use xlink:href="#DejaVuSans-30"/>
       <use x="63.623047" xlink:href="#DejaVuSans-2e"/>
       <use x="95.410156" xlink:href="#DejaVuSans-30"/>
      </g>
     </g>
    </g>
    <g id="ytick_26">
     <g id="line2d_26">
      <g>
       <use style="stroke:#000000;stroke-width:0.8;" x="43.78125" xlink:href="#mf574a04312" y="195.244476"/>
      </g>
     </g>
     <g id="text_8">
      <!-- 0.5 -->
      <g transform="translate(20.878125 199.043695)scale(0.1 -0.1)">
       <use xlink:href="#DejaVuSans-30"/>
       <use x="63.623047" xlink:href="#DejaVuSans-2e"/>
       <use x="95.410156" xlink:href="#DejaVuSans-35"/>
      </g>
     </g>
    </g>
   </g>
   <g id="patch_201">
    <path d="M 43.78125 222.053564 
L 43.78125 176.172184 
" style="fill:none;stroke:#000000;stroke-linecap:square;stroke-linejoin:miter;stroke-width:0.8;"/>
   </g>
   <g id="patch_202">
    <path d="M 121.416033 222.053564 
L 121.416033 176.172184 
" style="fill:none;stroke:#000000;stroke-linecap:square;stroke-linejoin:miter;stroke-width:0.8;"/>
   </g>
   <g id="patch_203">
    <path d="M 43.78125 222.053564 
L 121.416033 222.053564 
" style="fill:none;stroke:#000000;stroke-linecap:square;stroke-linejoin:miter;stroke-width:0.8;"/>
   </g>
   <g id="patch_204">
    <path d="M 43.78125 176.172184 
L 121.416033 176.172184 
" style="fill:none;stroke:#000000;stroke-linecap:square;stroke-linejoin:miter;stroke-width:0.8;"/>
   </g>
  </g>
  <g id="axes_14">
   <g id="patch_205">
    <path d="M 136.942989 222.053564 
L 214.577772 222.053564 
L 214.577772 176.172184 
L 136.942989 176.172184 
z
" style="fill:#ffffff;"/>
   </g>
   <g id="patch_206">
    <path clip-path="url(#pbff10a731e)" d="M 140.471843 222.053564 
L 160.636721 222.053564 
L 160.636721 215.852285 
L 140.471843 215.852285 
z
"/>
   </g>
   <g id="patch_207">
    <path clip-path="url(#pbff10a731e)" d="M 165.677941 222.053564 
L 185.84282 222.053564 
L 185.84282 214.335892 
L 165.677941 214.335892 
z
" style="fill:#ffbb78;"/>
   </g>
   <g id="patch_208">
    <path clip-path="url(#pbff10a731e)" d="M 190.884039 222.053564 
L 211.048918 222.053564 
L 211.048918 187.925392 
L 190.884039 187.925392 
z
" style="fill:#ffbb78;"/>
   </g>
   <g id="patch_209">
    <path clip-path="url(#pbff10a731e)" d="M 140.471843 215.852285 
L 160.636721 215.852285 
L 160.636721 215.163254 
L 140.471843 215.163254 
z
" style="fill:#aec7e8;"/>
   </g>
   <g id="patch_210">
    <path clip-path="url(#pbff10a731e)" d="M 165.677941 214.335892 
L 185.84282 214.335892 
L 185.84282 213.478373 
L 165.677941 213.478373 
z
"/>
   </g>
   <g id="patch_211">
    <path clip-path="url(#pbff10a731e)" d="M 190.884039 187.925392 
L 211.048918 187.925392 
L 211.048918 184.133373 
L 190.884039 184.133373 
z
" style="fill:#aec7e8;"/>
   </g>
   <g id="matplotlib.axis_27"/>
   <g id="matplotlib.axis_28">
    <g id="ytick_27">
     <g id="line2d_27">
      <g>
       <use style="stroke:#000000;stroke-width:0.8;" x="136.942989" xlink:href="#mf574a04312" y="222.053564"/>
      </g>
     </g>
    </g>
    <g id="ytick_28">
     <g id="line2d_28">
      <g>
       <use style="stroke:#000000;stroke-width:0.8;" x="136.942989" xlink:href="#mf574a04312" y="195.244476"/>
      </g>
     </g>
    </g>
   </g>
   <g id="patch_212">
    <path d="M 136.942989 222.053564 
L 136.942989 176.172184 
" style="fill:none;stroke:#000000;stroke-linecap:square;stroke-linejoin:miter;stroke-width:0.8;"/>
   </g>
   <g id="patch_213">
    <path d="M 214.577772 222.053564 
L 214.577772 176.172184 
" style="fill:none;stroke:#000000;stroke-linecap:square;stroke-linejoin:miter;stroke-width:0.8;"/>
   </g>
   <g id="patch_214">
    <path d="M 136.942989 222.053564 
L 214.577772 222.053564 
" style="fill:none;stroke:#000000;stroke-linecap:square;stroke-linejoin:miter;stroke-width:0.8;"/>
   </g>
   <g id="patch_215">
    <path d="M 136.942989 176.172184 
L 214.577772 176.172184 
" style="fill:none;stroke:#000000;stroke-linecap:square;stroke-linejoin:miter;stroke-width:0.8;"/>
   </g>
  </g>
  <g id="axes_15">
   <g id="patch_216">
    <path d="M 230.104728 222.053564 
L 307.739511 222.053564 
L 307.739511 176.172184 
L 230.104728 176.172184 
z
" style="fill:#ffffff;"/>
   </g>
   <g id="patch_217">
    <path clip-path="url(#p94113dd61a)" d="M 233.633582 222.053564 
L 243.368351 222.053564 
L 243.368351 221.57279 
L 233.633582 221.57279 
z
"/>
   </g>
   <g id="patch_218">
    <path clip-path="url(#p94113dd61a)" d="M 245.802043 222.053564 
L 255.536812 222.053564 
L 255.536812 217.207452 
L 245.802043 217.207452 
z
"/>
   </g>
   <g id="patch_219">
    <path clip-path="url(#p94113dd61a)" d="M 257.970504 222.053564 
L 267.705273 222.053564 
L 267.705273 218.501392 
L 257.970504 218.501392 
z
"/>
   </g>
   <g id="patch_220">
    <path clip-path="url(#p94113dd61a)" d="M 270.138966 222.053564 
L 279.873735 222.053564 
L 279.873735 219.097513 
L 270.138966 219.097513 
z
"/>
   </g>
   <g id="patch_221">
    <path clip-path="url(#p94113dd61a)" d="M 282.307427 222.053564 
L 292.042196 222.053564 
L 292.042196 218.08215 
L 282.307427 218.08215 
z
" style="fill:#ff7f0e;"/>
   </g>
   <g id="patch_222">
    <path clip-path="url(#p94113dd61a)" d="M 294.475888 222.053564 
L 304.210657 222.053564 
L 304.210657 191.694153 
L 294.475888 191.694153 
z
" style="fill:#ff7f0e;"/>
   </g>
   <g id="patch_223">
    <path clip-path="url(#p94113dd61a)" d="M 233.633582 221.57279 
L 243.368351 221.57279 
L 243.368351 221.51937 
L 233.633582 221.51937 
z
"/>
   </g>
   <g id="patch_224">
    <path clip-path="url(#p94113dd61a)" d="M 245.802043 217.207452 
L 255.536812 217.207452 
L 255.536812 216.668995 
L 245.802043 216.668995 
z
" style="fill:#ff7f0e;"/>
   </g>
   <g id="patch_225">
    <path clip-path="url(#p94113dd61a)" d="M 257.970504 218.501392 
L 267.705273 218.501392 
L 267.705273 218.106706 
L 257.970504 218.106706 
z
" style="fill:#ffbb78;"/>
   </g>
   <g id="patch_226">
    <path clip-path="url(#p94113dd61a)" d="M 270.138966 219.097513 
L 279.873735 219.097513 
L 279.873735 218.769063 
L 270.138966 218.769063 
z
" style="fill:#ffbb78;"/>
   </g>
   <g id="patch_227">
    <path clip-path="url(#p94113dd61a)" d="M 282.307427 218.08215 
L 292.042196 218.08215 
L 292.042196 217.640882 
L 282.307427 217.640882 
z
"/>
   </g>
   <g id="patch_228">
    <path clip-path="url(#p94113dd61a)" d="M 294.475888 191.694153 
L 304.210657 191.694153 
L 304.210657 188.320885 
L 294.475888 188.320885 
z
" style="fill:#ffbb78;"/>
   </g>
   <g id="matplotlib.axis_29"/>
   <g id="matplotlib.axis_30">
    <g id="ytick_29">
     <g id="line2d_29">
      <g>
       <use style="stroke:#000000;stroke-width:0.8;" x="230.104728" xlink:href="#mf574a04312" y="222.053564"/>
      </g>
     </g>
    </g>
    <g id="ytick_30">
     <g id="line2d_30">
      <g>
       <use style="stroke:#000000;stroke-width:0.8;" x="230.104728" xlink:href="#mf574a04312" y="195.244476"/>
      </g>
     </g>
    </g>
   </g>
   <g id="patch_229">
    <path d="M 230.104728 222.053564 
L 230.104728 176.172184 
" style="fill:none;stroke:#000000;stroke-linecap:square;stroke-linejoin:miter;stroke-width:0.8;"/>
   </g>
   <g id="patch_230">
    <path d="M 307.739511 222.053564 
L 307.739511 176.172184 
" style="fill:none;stroke:#000000;stroke-linecap:square;stroke-linejoin:miter;stroke-width:0.8;"/>
   </g>
   <g id="patch_231">
    <path d="M 230.104728 222.053564 
L 307.739511 222.053564 
" style="fill:none;stroke:#000000;stroke-linecap:square;stroke-linejoin:miter;stroke-width:0.8;"/>
   </g>
   <g id="patch_232">
    <path d="M 230.104728 176.172184 
L 307.739511 176.172184 
" style="fill:none;stroke:#000000;stroke-linecap:square;stroke-linejoin:miter;stroke-width:0.8;"/>
   </g>
  </g>
  <g id="axes_16">
   <g id="patch_233">
    <path d="M 323.266467 222.053564 
L 400.90125 222.053564 
L 400.90125 176.172184 
L 323.266467 176.172184 
z
" style="fill:#ffffff;"/>
   </g>
   <g id="patch_234">
    <path clip-path="url(#p93c853db62)" d="M 326.795321 222.053564 
L 346.9602 222.053564 
L 346.9602 214.92407 
L 326.795321 214.92407 
z
"/>
   </g>
   <g id="patch_235">
    <path clip-path="url(#p93c853db62)" d="M 352.001419 222.053564 
L 372.166298 222.053564 
L 372.166298 217.207452 
L 352.001419 217.207452 
z
" style="fill:#ff7f0e;"/>
   </g>
   <g id="patch_236">
    <path clip-path="url(#p93c853db62)" d="M 377.207518 222.053564 
L 397.372396 222.053564 
L 397.372396 190.154946 
L 377.207518 190.154946 
z
" style="fill:#ff7f0e;"/>
   </g>
   <g id="patch_237">
    <path clip-path="url(#p93c853db62)" d="M 326.795321 214.92407 
L 346.9602 214.92407 
L 346.9602 214.131904 
L 326.795321 214.131904 
z
" style="fill:#aec7e8;"/>
   </g>
   <g id="patch_238">
    <path clip-path="url(#p93c853db62)" d="M 352.001419 217.207452 
L 372.166298 217.207452 
L 372.166298 216.668995 
L 352.001419 216.668995 
z
"/>
   </g>
   <g id="patch_239">
    <path clip-path="url(#p93c853db62)" d="M 377.207518 190.154946 
L 397.372396 190.154946 
L 397.372396 186.610655 
L 377.207518 186.610655 
z
" style="fill:#aec7e8;"/>
   </g>
   <g id="matplotlib.axis_31"/>
   <g id="matplotlib.axis_32">
    <g id="ytick_31">
     <g id="line2d_31">
      <g>
       <use style="stroke:#000000;stroke-width:0.8;" x="323.266467" xlink:href="#mf574a04312" y="222.053564"/>
      </g>
     </g>
    </g>
    <g id="ytick_32">
     <g id="line2d_32">
      <g>
       <use style="stroke:#000000;stroke-width:0.8;" x="323.266467" xlink:href="#mf574a04312" y="195.244476"/>
      </g>
     </g>
    </g>
   </g>
   <g id="patch_240">
    <path d="M 323.266467 222.053564 
L 323.266467 176.172184 
" style="fill:none;stroke:#000000;stroke-linecap:square;stroke-linejoin:miter;stroke-width:0.8;"/>
   </g>
   <g id="patch_241">
    <path d="M 400.90125 222.053564 
L 400.90125 176.172184 
" style="fill:none;stroke:#000000;stroke-linecap:square;stroke-linejoin:miter;stroke-width:0.8;"/>
   </g>
   <g id="patch_242">
    <path d="M 323.266467 222.053564 
L 400.90125 222.053564 
" style="fill:none;stroke:#000000;stroke-linecap:square;stroke-linejoin:miter;stroke-width:0.8;"/>
   </g>
   <g id="patch_243">
    <path d="M 323.266467 176.172184 
L 400.90125 176.172184 
" style="fill:none;stroke:#000000;stroke-linecap:square;stroke-linejoin:miter;stroke-width:0.8;"/>
   </g>
  </g>
  <g id="axes_17">
   <g id="patch_244">
    <path d="M 43.78125 277.111219 
L 121.416033 277.111219 
L 121.416033 231.229839 
L 43.78125 231.229839 
z
" style="fill:#ffffff;"/>
   </g>
   <g id="patch_245">
    <path clip-path="url(#pcf8214eaa1)" d="M 47.310104 277.111219 
L 57.044873 277.111219 
L 57.044873 276.978301 
L 47.310104 276.978301 
z
"/>
   </g>
   <g id="patch_246">
    <path clip-path="url(#pcf8214eaa1)" d="M 59.478565 277.111219 
L 69.213334 277.111219 
L 69.213334 274.516175 
L 59.478565 274.516175 
z
"/>
   </g>
   <g id="patch_247">
    <path clip-path="url(#pcf8214eaa1)" d="M 71.647026 277.111219 
L 81.381795 277.111219 
L 81.381795 275.868419 
L 71.647026 275.868419 
z
"/>
   </g>
   <g id="patch_248">
    <path clip-path="url(#pcf8214eaa1)" d="M 83.815487 277.111219 
L 93.550256 277.111219 
L 93.550256 275.177872 
L 83.815487 275.177872 
z
"/>
   </g>
   <g id="patch_249">
    <path clip-path="url(#pcf8214eaa1)" d="M 95.983949 277.111219 
L 105.718718 277.111219 
L 105.718718 276.589542 
L 95.983949 276.589542 
z
" style="fill:#aec7e8;"/>
   </g>
   <g id="patch_250">
    <path clip-path="url(#pcf8214eaa1)" d="M 108.15241 277.111219 
L 117.887179 277.111219 
L 117.887179 249.950672 
L 108.15241 249.950672 
z
" style="fill:#aec7e8;"/>
   </g>
   <g id="patch_251">
    <path clip-path="url(#pcf8214eaa1)" d="M 47.310104 276.978301 
L 57.044873 276.978301 
L 57.044873 276.963533 
L 47.310104 276.963533 
z
"/>
   </g>
   <g id="patch_252">
    <path clip-path="url(#pcf8214eaa1)" d="M 59.478565 274.516175 
L 69.213334 274.516175 
L 69.213334 274.227837 
L 59.478565 274.227837 
z
" style="fill:#ff7f0e;"/>
   </g>
   <g id="patch_253">
    <path clip-path="url(#pcf8214eaa1)" d="M 71.647026 275.868419 
L 81.381795 275.868419 
L 81.381795 275.73033 
L 71.647026 275.73033 
z
" style="fill:#ff7f0e;"/>
   </g>
   <g id="patch_254">
    <path clip-path="url(#pcf8214eaa1)" d="M 83.815487 275.177872 
L 93.550256 275.177872 
L 93.550256 274.963055 
L 83.815487 274.963055 
z
" style="fill:#aec7e8;"/>
   </g>
   <g id="patch_255">
    <path clip-path="url(#pcf8214eaa1)" d="M 95.983949 276.589542 
L 105.718718 276.589542 
L 105.718718 276.531578 
L 95.983949 276.531578 
z
"/>
   </g>
   <g id="patch_256">
    <path clip-path="url(#pcf8214eaa1)" d="M 108.15241 249.950672 
L 117.887179 249.950672 
L 117.887179 246.932833 
L 108.15241 246.932833 
z
" style="fill:#ff7f0e;"/>
   </g>
   <g id="matplotlib.axis_33"/>
   <g id="matplotlib.axis_34">
    <g id="ytick_33">
     <g id="line2d_33">
      <g>
       <use style="stroke:#000000;stroke-width:0.8;" x="43.78125" xlink:href="#mf574a04312" y="277.111219"/>
      </g>
     </g>
     <g id="text_9">
      <!-- 0.0 -->
      <g transform="translate(20.878125 280.910437)scale(0.1 -0.1)">
       <use xlink:href="#DejaVuSans-30"/>
       <use x="63.623047" xlink:href="#DejaVuSans-2e"/>
       <use x="95.410156" xlink:href="#DejaVuSans-30"/>
      </g>
     </g>
    </g>
    <g id="ytick_34">
     <g id="line2d_34">
      <g>
       <use style="stroke:#000000;stroke-width:0.8;" x="43.78125" xlink:href="#mf574a04312" y="250.302131"/>
      </g>
     </g>
     <g id="text_10">
      <!-- 0.5 -->
      <g transform="translate(20.878125 254.10135)scale(0.1 -0.1)">
       <use xlink:href="#DejaVuSans-30"/>
       <use x="63.623047" xlink:href="#DejaVuSans-2e"/>
       <use x="95.410156" xlink:href="#DejaVuSans-35"/>
      </g>
     </g>
    </g>
   </g>
   <g id="patch_257">
    <path d="M 43.78125 277.111219 
L 43.78125 231.229839 
" style="fill:none;stroke:#000000;stroke-linecap:square;stroke-linejoin:miter;stroke-width:0.8;"/>
   </g>
   <g id="patch_258">
    <path d="M 121.416033 277.111219 
L 121.416033 231.229839 
" style="fill:none;stroke:#000000;stroke-linecap:square;stroke-linejoin:miter;stroke-width:0.8;"/>
   </g>
   <g id="patch_259">
    <path d="M 43.78125 277.111219 
L 121.416033 277.111219 
" style="fill:none;stroke:#000000;stroke-linecap:square;stroke-linejoin:miter;stroke-width:0.8;"/>
   </g>
   <g id="patch_260">
    <path d="M 43.78125 231.229839 
L 121.416033 231.229839 
" style="fill:none;stroke:#000000;stroke-linecap:square;stroke-linejoin:miter;stroke-width:0.8;"/>
   </g>
  </g>
  <g id="axes_18">
   <g id="patch_261">
    <path d="M 136.942989 277.111219 
L 214.577772 277.111219 
L 214.577772 231.229839 
L 136.942989 231.229839 
z
" style="fill:#ffffff;"/>
   </g>
   <g id="patch_262">
    <path clip-path="url(#p8bc3cc7af0)" d="M 140.471843 277.111219 
L 160.636721 277.111219 
L 160.636721 275.036503 
L 140.471843 275.036503 
z
"/>
   </g>
   <g id="patch_263">
    <path clip-path="url(#p8bc3cc7af0)" d="M 165.677941 277.111219 
L 185.84282 277.111219 
L 185.84282 275.177872 
L 165.677941 275.177872 
z
" style="fill:#aec7e8;"/>
   </g>
   <g id="patch_264">
    <path clip-path="url(#p8bc3cc7af0)" d="M 190.884039 277.111219 
L 211.048918 277.111219 
L 211.048918 250.47958 
L 190.884039 250.47958 
z
" style="fill:#aec7e8;"/>
   </g>
   <g id="patch_265">
    <path clip-path="url(#p8bc3cc7af0)" d="M 140.471843 275.036503 
L 160.636721 275.036503 
L 160.636721 274.805978 
L 140.471843 274.805978 
z
" style="fill:#ffbb78;"/>
   </g>
   <g id="patch_266">
    <path clip-path="url(#p8bc3cc7af0)" d="M 165.677941 275.177872 
L 185.84282 275.177872 
L 185.84282 274.963055 
L 165.677941 274.963055 
z
"/>
   </g>
   <g id="patch_267">
    <path clip-path="url(#p8bc3cc7af0)" d="M 190.884039 250.47958 
L 211.048918 250.47958 
L 211.048918 247.520509 
L 190.884039 247.520509 
z
" style="fill:#ffbb78;"/>
   </g>
   <g id="matplotlib.axis_35"/>
   <g id="matplotlib.axis_36">
    <g id="ytick_35">
     <g id="line2d_35">
      <g>
       <use style="stroke:#000000;stroke-width:0.8;" x="136.942989" xlink:href="#mf574a04312" y="277.111219"/>
      </g>
     </g>
    </g>
    <g id="ytick_36">
     <g id="line2d_36">
      <g>
       <use style="stroke:#000000;stroke-width:0.8;" x="136.942989" xlink:href="#mf574a04312" y="250.302131"/>
      </g>
     </g>
    </g>
   </g>
   <g id="patch_268">
    <path d="M 136.942989 277.111219 
L 136.942989 231.229839 
" style="fill:none;stroke:#000000;stroke-linecap:square;stroke-linejoin:miter;stroke-width:0.8;"/>
   </g>
   <g id="patch_269">
    <path d="M 214.577772 277.111219 
L 214.577772 231.229839 
" style="fill:none;stroke:#000000;stroke-linecap:square;stroke-linejoin:miter;stroke-width:0.8;"/>
   </g>
   <g id="patch_270">
    <path d="M 136.942989 277.111219 
L 214.577772 277.111219 
" style="fill:none;stroke:#000000;stroke-linecap:square;stroke-linejoin:miter;stroke-width:0.8;"/>
   </g>
   <g id="patch_271">
    <path d="M 136.942989 231.229839 
L 214.577772 231.229839 
" style="fill:none;stroke:#000000;stroke-linecap:square;stroke-linejoin:miter;stroke-width:0.8;"/>
   </g>
  </g>
  <g id="axes_19">
   <g id="patch_272">
    <path d="M 230.104728 277.111219 
L 307.739511 277.111219 
L 307.739511 231.229839 
L 230.104728 231.229839 
z
" style="fill:#ffffff;"/>
   </g>
   <g id="matplotlib.axis_37"/>
   <g id="matplotlib.axis_38">
    <g id="ytick_37">
     <g id="line2d_37">
      <g>
       <use style="stroke:#000000;stroke-width:0.8;" x="230.104728" xlink:href="#mf574a04312" y="277.111219"/>
      </g>
     </g>
    </g>
    <g id="ytick_38">
     <g id="line2d_38">
      <g>
       <use style="stroke:#000000;stroke-width:0.8;" x="230.104728" xlink:href="#mf574a04312" y="250.302131"/>
      </g>
     </g>
    </g>
   </g>
   <g id="patch_273">
    <path d="M 230.104728 277.111219 
L 230.104728 231.229839 
" style="fill:none;stroke:#000000;stroke-linecap:square;stroke-linejoin:miter;stroke-width:0.8;"/>
   </g>
   <g id="patch_274">
    <path d="M 307.739511 277.111219 
L 307.739511 231.229839 
" style="fill:none;stroke:#000000;stroke-linecap:square;stroke-linejoin:miter;stroke-width:0.8;"/>
   </g>
   <g id="patch_275">
    <path d="M 230.104728 277.111219 
L 307.739511 277.111219 
" style="fill:none;stroke:#000000;stroke-linecap:square;stroke-linejoin:miter;stroke-width:0.8;"/>
   </g>
   <g id="patch_276">
    <path d="M 230.104728 231.229839 
L 307.739511 231.229839 
" style="fill:none;stroke:#000000;stroke-linecap:square;stroke-linejoin:miter;stroke-width:0.8;"/>
   </g>
  </g>
  <g id="axes_20">
   <g id="patch_277">
    <path d="M 323.266467 277.111219 
L 400.90125 277.111219 
L 400.90125 231.229839 
L 323.266467 231.229839 
z
" style="fill:#ffffff;"/>
   </g>
   <g id="matplotlib.axis_39"/>
   <g id="matplotlib.axis_40">
    <g id="ytick_39">
     <g id="line2d_39">
      <g>
       <use style="stroke:#000000;stroke-width:0.8;" x="323.266467" xlink:href="#mf574a04312" y="277.111219"/>
      </g>
     </g>
    </g>
    <g id="ytick_40">
     <g id="line2d_40">
      <g>
       <use style="stroke:#000000;stroke-width:0.8;" x="323.266467" xlink:href="#mf574a04312" y="250.302131"/>
      </g>
     </g>
    </g>
   </g>
   <g id="patch_278">
    <path d="M 323.266467 277.111219 
L 323.266467 231.229839 
" style="fill:none;stroke:#000000;stroke-linecap:square;stroke-linejoin:miter;stroke-width:0.8;"/>
   </g>
   <g id="patch_279">
    <path d="M 400.90125 277.111219 
L 400.90125 231.229839 
" style="fill:none;stroke:#000000;stroke-linecap:square;stroke-linejoin:miter;stroke-width:0.8;"/>
   </g>
   <g id="patch_280">
    <path d="M 323.266467 277.111219 
L 400.90125 277.111219 
" style="fill:none;stroke:#000000;stroke-linecap:square;stroke-linejoin:miter;stroke-width:0.8;"/>
   </g>
   <g id="patch_281">
    <path d="M 323.266467 231.229839 
L 400.90125 231.229839 
" style="fill:none;stroke:#000000;stroke-linecap:square;stroke-linejoin:miter;stroke-width:0.8;"/>
   </g>
  </g>
  <g id="axes_21">
   <g id="matplotlib.axis_41">
    <g id="xtick_1">
     <g id="text_11">
      <!-- 0.0 -->
      <g style="opacity:0;" transform="translate(35.829688 291.709656)scale(0.1 -0.1)">
       <use xlink:href="#DejaVuSans-30"/>
       <use x="63.623047" xlink:href="#DejaVuSans-2e"/>
       <use x="95.410156" xlink:href="#DejaVuSans-30"/>
      </g>
     </g>
    </g>
    <g id="xtick_2">
     <g id="text_12">
      <!-- 0.2 -->
      <g style="opacity:0;" transform="translate(107.253688 291.709656)scale(0.1 -0.1)">
       <defs>
        <path d="M 1228 531 
L 3431 531 
L 3431 0 
L 469 0 
L 469 531 
Q 828 903 1448 1529 
Q 2069 2156 2228 2338 
Q 2531 2678 2651 2914 
Q 2772 3150 2772 3378 
Q 2772 3750 2511 3984 
Q 2250 4219 1831 4219 
Q 1534 4219 1204 4116 
Q 875 4013 500 3803 
L 500 4441 
Q 881 4594 1212 4672 
Q 1544 4750 1819 4750 
Q 2544 4750 2975 4387 
Q 3406 4025 3406 3419 
Q 3406 3131 3298 2873 
Q 3191 2616 2906 2266 
Q 2828 2175 2409 1742 
Q 1991 1309 1228 531 
z
" id="DejaVuSans-32" transform="scale(0.015625)"/>
       </defs>
       <use xlink:href="#DejaVuSans-30"/>
       <use x="63.623047" xlink:href="#DejaVuSans-2e"/>
       <use x="95.410156" xlink:href="#DejaVuSans-32"/>
      </g>
     </g>
    </g>
    <g id="xtick_3">
     <g id="text_13">
      <!-- 0.4 -->
      <g style="opacity:0;" transform="translate(178.677688 291.709656)scale(0.1 -0.1)">
       <defs>
        <path d="M 2419 4116 
L 825 1625 
L 2419 1625 
L 2419 4116 
z
M 2253 4666 
L 3047 4666 
L 3047 1625 
L 3713 1625 
L 3713 1100 
L 3047 1100 
L 3047 0 
L 2419 0 
L 2419 1100 
L 313 1100 
L 313 1709 
L 2253 4666 
z
" id="DejaVuSans-34" transform="scale(0.015625)"/>
       </defs>
       <use xlink:href="#DejaVuSans-30"/>
       <use x="63.623047" xlink:href="#DejaVuSans-2e"/>
       <use x="95.410156" xlink:href="#DejaVuSans-34"/>
      </g>
     </g>
    </g>
    <g id="xtick_4">
     <g id="text_14">
      <!-- 0.6 -->
      <g style="opacity:0;" transform="translate(250.101688 291.709656)scale(0.1 -0.1)">
       <defs>
        <path d="M 2113 2584 
Q 1688 2584 1439 2293 
Q 1191 2003 1191 1497 
Q 1191 994 1439 701 
Q 1688 409 2113 409 
Q 2538 409 2786 701 
Q 3034 994 3034 1497 
Q 3034 2003 2786 2293 
Q 2538 2584 2113 2584 
z
M 3366 4563 
L 3366 3988 
Q 3128 4100 2886 4159 
Q 2644 4219 2406 4219 
Q 1781 4219 1451 3797 
Q 1122 3375 1075 2522 
Q 1259 2794 1537 2939 
Q 1816 3084 2150 3084 
Q 2853 3084 3261 2657 
Q 3669 2231 3669 1497 
Q 3669 778 3244 343 
Q 2819 -91 2113 -91 
Q 1303 -91 875 529 
Q 447 1150 447 2328 
Q 447 3434 972 4092 
Q 1497 4750 2381 4750 
Q 2619 4750 2861 4703 
Q 3103 4656 3366 4563 
z
" id="DejaVuSans-36" transform="scale(0.015625)"/>
       </defs>
       <use xlink:href="#DejaVuSans-30"/>
       <use x="63.623047" xlink:href="#DejaVuSans-2e"/>
       <use x="95.410156" xlink:href="#DejaVuSans-36"/>
      </g>
     </g>
    </g>
    <g id="xtick_5">
     <g id="text_15">
      <!-- 0.8 -->
      <g style="opacity:0;" transform="translate(321.525688 291.709656)scale(0.1 -0.1)">
       <defs>
        <path d="M 2034 2216 
Q 1584 2216 1326 1975 
Q 1069 1734 1069 1313 
Q 1069 891 1326 650 
Q 1584 409 2034 409 
Q 2484 409 2743 651 
Q 3003 894 3003 1313 
Q 3003 1734 2745 1975 
Q 2488 2216 2034 2216 
z
M 1403 2484 
Q 997 2584 770 2862 
Q 544 3141 544 3541 
Q 544 4100 942 4425 
Q 1341 4750 2034 4750 
Q 2731 4750 3128 4425 
Q 3525 4100 3525 3541 
Q 3525 3141 3298 2862 
Q 3072 2584 2669 2484 
Q 3125 2378 3379 2068 
Q 3634 1759 3634 1313 
Q 3634 634 3220 271 
Q 2806 -91 2034 -91 
Q 1263 -91 848 271 
Q 434 634 434 1313 
Q 434 1759 690 2068 
Q 947 2378 1403 2484 
z
M 1172 3481 
Q 1172 3119 1398 2916 
Q 1625 2713 2034 2713 
Q 2441 2713 2670 2916 
Q 2900 3119 2900 3481 
Q 2900 3844 2670 4047 
Q 2441 4250 2034 4250 
Q 1625 4250 1398 4047 
Q 1172 3844 1172 3481 
z
" id="DejaVuSans-38" transform="scale(0.015625)"/>
       </defs>
       <use xlink:href="#DejaVuSans-30"/>
       <use x="63.623047" xlink:href="#DejaVuSans-2e"/>
       <use x="95.410156" xlink:href="#DejaVuSans-38"/>
      </g>
     </g>
    </g>
    <g id="xtick_6">
     <g id="text_16">
      <!-- 1.0 -->
      <g style="opacity:0;" transform="translate(392.949688 291.709656)scale(0.1 -0.1)">
       <defs>
        <path d="M 794 531 
L 1825 531 
L 1825 4091 
L 703 3866 
L 703 4441 
L 1819 4666 
L 2450 4666 
L 2450 531 
L 3481 531 
L 3481 0 
L 794 0 
L 794 531 
z
" id="DejaVuSans-31" transform="scale(0.015625)"/>
       </defs>
       <use xlink:href="#DejaVuSans-31"/>
       <use x="63.623047" xlink:href="#DejaVuSans-2e"/>
       <use x="95.410156" xlink:href="#DejaVuSans-30"/>
      </g>
     </g>
    </g>
   </g>
   <g id="matplotlib.axis_42">
    <g id="ytick_41">
     <g id="text_17">
      <!-- 0.0 -->
      <g style="opacity:0;" transform="translate(20.878125 280.910437)scale(0.1 -0.1)">
       <use xlink:href="#DejaVuSans-30"/>
       <use x="63.623047" xlink:href="#DejaVuSans-2e"/>
       <use x="95.410156" xlink:href="#DejaVuSans-30"/>
      </g>
     </g>
    </g>
    <g id="ytick_42">
     <g id="text_18">
      <!-- 0.2 -->
      <g style="opacity:0;" transform="translate(20.878125 227.688037)scale(0.1 -0.1)">
       <use xlink:href="#DejaVuSans-30"/>
       <use x="63.623047" xlink:href="#DejaVuSans-2e"/>
       <use x="95.410156" xlink:href="#DejaVuSans-32"/>
      </g>
     </g>
    </g>
    <g id="ytick_43">
     <g id="text_19">
      <!-- 0.4 -->
      <g style="opacity:0;" transform="translate(20.878125 174.465637)scale(0.1 -0.1)">
       <use xlink:href="#DejaVuSans-30"/>
       <use x="63.623047" xlink:href="#DejaVuSans-2e"/>
       <use x="95.410156" xlink:href="#DejaVuSans-34"/>
      </g>
     </g>
    </g>
    <g id="ytick_44">
     <g id="text_20">
      <!-- 0.6 -->
      <g style="opacity:0;" transform="translate(20.878125 121.243237)scale(0.1 -0.1)">
       <use xlink:href="#DejaVuSans-30"/>
       <use x="63.623047" xlink:href="#DejaVuSans-2e"/>
       <use x="95.410156" xlink:href="#DejaVuSans-36"/>
      </g>
     </g>
    </g>
    <g id="ytick_45">
     <g id="text_21">
      <!-- 0.8 -->
      <g style="opacity:0;" transform="translate(20.878125 68.020837)scale(0.1 -0.1)">
       <use xlink:href="#DejaVuSans-30"/>
       <use x="63.623047" xlink:href="#DejaVuSans-2e"/>
       <use x="95.410156" xlink:href="#DejaVuSans-38"/>
      </g>
     </g>
    </g>
    <g id="ytick_46">
     <g id="text_22">
      <!-- 1.0 -->
      <g style="opacity:0;" transform="translate(20.878125 14.798437)scale(0.1 -0.1)">
       <use xlink:href="#DejaVuSans-31"/>
       <use x="63.623047" xlink:href="#DejaVuSans-2e"/>
       <use x="95.410156" xlink:href="#DejaVuSans-30"/>
      </g>
     </g>
    </g>
    <g id="text_23">
     <!-- Pearsons correlation -->
     <g transform="translate(14.798438 194.938031)rotate(-90)scale(0.1 -0.1)">
      <defs>
       <path d="M 1259 4147 
L 1259 2394 
L 2053 2394 
Q 2494 2394 2734 2622 
Q 2975 2850 2975 3272 
Q 2975 3691 2734 3919 
Q 2494 4147 2053 4147 
L 1259 4147 
z
M 628 4666 
L 2053 4666 
Q 2838 4666 3239 4311 
Q 3641 3956 3641 3272 
Q 3641 2581 3239 2228 
Q 2838 1875 2053 1875 
L 1259 1875 
L 1259 0 
L 628 0 
L 628 4666 
z
" id="DejaVuSans-50" transform="scale(0.015625)"/>
       <path d="M 3597 1894 
L 3597 1613 
L 953 1613 
Q 991 1019 1311 708 
Q 1631 397 2203 397 
Q 2534 397 2845 478 
Q 3156 559 3463 722 
L 3463 178 
Q 3153 47 2828 -22 
Q 2503 -91 2169 -91 
Q 1331 -91 842 396 
Q 353 884 353 1716 
Q 353 2575 817 3079 
Q 1281 3584 2069 3584 
Q 2775 3584 3186 3129 
Q 3597 2675 3597 1894 
z
M 3022 2063 
Q 3016 2534 2758 2815 
Q 2500 3097 2075 3097 
Q 1594 3097 1305 2825 
Q 1016 2553 972 2059 
L 3022 2063 
z
" id="DejaVuSans-65" transform="scale(0.015625)"/>
       <path d="M 2194 1759 
Q 1497 1759 1228 1600 
Q 959 1441 959 1056 
Q 959 750 1161 570 
Q 1363 391 1709 391 
Q 2188 391 2477 730 
Q 2766 1069 2766 1631 
L 2766 1759 
L 2194 1759 
z
M 3341 1997 
L 3341 0 
L 2766 0 
L 2766 531 
Q 2569 213 2275 61 
Q 1981 -91 1556 -91 
Q 1019 -91 701 211 
Q 384 513 384 1019 
Q 384 1609 779 1909 
Q 1175 2209 1959 2209 
L 2766 2209 
L 2766 2266 
Q 2766 2663 2505 2880 
Q 2244 3097 1772 3097 
Q 1472 3097 1187 3025 
Q 903 2953 641 2809 
L 641 3341 
Q 956 3463 1253 3523 
Q 1550 3584 1831 3584 
Q 2591 3584 2966 3190 
Q 3341 2797 3341 1997 
z
" id="DejaVuSans-61" transform="scale(0.015625)"/>
       <path d="M 2631 2963 
Q 2534 3019 2420 3045 
Q 2306 3072 2169 3072 
Q 1681 3072 1420 2755 
Q 1159 2438 1159 1844 
L 1159 0 
L 581 0 
L 581 3500 
L 1159 3500 
L 1159 2956 
Q 1341 3275 1631 3429 
Q 1922 3584 2338 3584 
Q 2397 3584 2469 3576 
Q 2541 3569 2628 3553 
L 2631 2963 
z
" id="DejaVuSans-72" transform="scale(0.015625)"/>
       <path d="M 2834 3397 
L 2834 2853 
Q 2591 2978 2328 3040 
Q 2066 3103 1784 3103 
Q 1356 3103 1142 2972 
Q 928 2841 928 2578 
Q 928 2378 1081 2264 
Q 1234 2150 1697 2047 
L 1894 2003 
Q 2506 1872 2764 1633 
Q 3022 1394 3022 966 
Q 3022 478 2636 193 
Q 2250 -91 1575 -91 
Q 1294 -91 989 -36 
Q 684 19 347 128 
L 347 722 
Q 666 556 975 473 
Q 1284 391 1588 391 
Q 1994 391 2212 530 
Q 2431 669 2431 922 
Q 2431 1156 2273 1281 
Q 2116 1406 1581 1522 
L 1381 1569 
Q 847 1681 609 1914 
Q 372 2147 372 2553 
Q 372 3047 722 3315 
Q 1072 3584 1716 3584 
Q 2034 3584 2315 3537 
Q 2597 3491 2834 3397 
z
" id="DejaVuSans-73" transform="scale(0.015625)"/>
       <path d="M 1959 3097 
Q 1497 3097 1228 2736 
Q 959 2375 959 1747 
Q 959 1119 1226 758 
Q 1494 397 1959 397 
Q 2419 397 2687 759 
Q 2956 1122 2956 1747 
Q 2956 2369 2687 2733 
Q 2419 3097 1959 3097 
z
M 1959 3584 
Q 2709 3584 3137 3096 
Q 3566 2609 3566 1747 
Q 3566 888 3137 398 
Q 2709 -91 1959 -91 
Q 1206 -91 779 398 
Q 353 888 353 1747 
Q 353 2609 779 3096 
Q 1206 3584 1959 3584 
z
" id="DejaVuSans-6f" transform="scale(0.015625)"/>
       <path d="M 3513 2113 
L 3513 0 
L 2938 0 
L 2938 2094 
Q 2938 2591 2744 2837 
Q 2550 3084 2163 3084 
Q 1697 3084 1428 2787 
Q 1159 2491 1159 1978 
L 1159 0 
L 581 0 
L 581 3500 
L 1159 3500 
L 1159 2956 
Q 1366 3272 1645 3428 
Q 1925 3584 2291 3584 
Q 2894 3584 3203 3211 
Q 3513 2838 3513 2113 
z
" id="DejaVuSans-6e" transform="scale(0.015625)"/>
       <path id="DejaVuSans-20" transform="scale(0.015625)"/>
       <path d="M 3122 3366 
L 3122 2828 
Q 2878 2963 2633 3030 
Q 2388 3097 2138 3097 
Q 1578 3097 1268 2742 
Q 959 2388 959 1747 
Q 959 1106 1268 751 
Q 1578 397 2138 397 
Q 2388 397 2633 464 
Q 2878 531 3122 666 
L 3122 134 
Q 2881 22 2623 -34 
Q 2366 -91 2075 -91 
Q 1284 -91 818 406 
Q 353 903 353 1747 
Q 353 2603 823 3093 
Q 1294 3584 2113 3584 
Q 2378 3584 2631 3529 
Q 2884 3475 3122 3366 
z
" id="DejaVuSans-63" transform="scale(0.015625)"/>
       <path d="M 603 4863 
L 1178 4863 
L 1178 0 
L 603 0 
L 603 4863 
z
" id="DejaVuSans-6c" transform="scale(0.015625)"/>
       <path d="M 1172 4494 
L 1172 3500 
L 2356 3500 
L 2356 3053 
L 1172 3053 
L 1172 1153 
Q 1172 725 1289 603 
Q 1406 481 1766 481 
L 2356 481 
L 2356 0 
L 1766 0 
Q 1100 0 847 248 
Q 594 497 594 1153 
L 594 3053 
L 172 3053 
L 172 3500 
L 594 3500 
L 594 4494 
L 1172 4494 
z
" id="DejaVuSans-74" transform="scale(0.015625)"/>
       <path d="M 603 3500 
L 1178 3500 
L 1178 0 
L 603 0 
L 603 3500 
z
M 603 4863 
L 1178 4863 
L 1178 4134 
L 603 4134 
L 603 4863 
z
" id="DejaVuSans-69" transform="scale(0.015625)"/>
      </defs>
      <use xlink:href="#DejaVuSans-50"/>
      <use x="56.677734" xlink:href="#DejaVuSans-65"/>
      <use x="118.201172" xlink:href="#DejaVuSans-61"/>
      <use x="179.480469" xlink:href="#DejaVuSans-72"/>
      <use x="220.59375" xlink:href="#DejaVuSans-73"/>
      <use x="272.693359" xlink:href="#DejaVuSans-6f"/>
      <use x="333.875" xlink:href="#DejaVuSans-6e"/>
      <use x="397.253906" xlink:href="#DejaVuSans-73"/>
      <use x="449.353516" xlink:href="#DejaVuSans-20"/>
      <use x="481.140625" xlink:href="#DejaVuSans-63"/>
      <use x="536.121094" xlink:href="#DejaVuSans-6f"/>
      <use x="597.302734" xlink:href="#DejaVuSans-72"/>
      <use x="636.666016" xlink:href="#DejaVuSans-72"/>
      <use x="675.529297" xlink:href="#DejaVuSans-65"/>
      <use x="737.052734" xlink:href="#DejaVuSans-6c"/>
      <use x="764.835938" xlink:href="#DejaVuSans-61"/>
      <use x="826.115234" xlink:href="#DejaVuSans-74"/>
      <use x="865.324219" xlink:href="#DejaVuSans-69"/>
      <use x="893.107422" xlink:href="#DejaVuSans-6f"/>
      <use x="954.289062" xlink:href="#DejaVuSans-6e"/>
     </g>
    </g>
   </g>
  </g>
  <g id="legend_1">
   <g id="patch_282">
    <path d="M 578.82625 87.477844 
L 626.30125 87.477844 
Q 628.30125 87.477844 628.30125 85.477844 
L 628.30125 13.087219 
Q 628.30125 11.087219 626.30125 11.087219 
L 578.82625 11.087219 
Q 576.82625 11.087219 576.82625 13.087219 
L 576.82625 85.477844 
Q 576.82625 87.477844 578.82625 87.477844 
z
" style="fill:#4c4c4c;opacity:0.5;stroke:#4c4c4c;stroke-linejoin:miter;"/>
   </g>
   <g id="patch_283">
    <path d="M 576.82625 85.477844 
L 624.30125 85.477844 
Q 626.30125 85.477844 626.30125 83.477844 
L 626.30125 11.087219 
Q 626.30125 9.087219 624.30125 9.087219 
L 576.82625 9.087219 
Q 574.82625 9.087219 574.82625 11.087219 
L 574.82625 83.477844 
Q 574.82625 85.477844 576.82625 85.477844 
z
" style="fill:#ffffff;stroke:#cccccc;stroke-linejoin:miter;"/>
   </g>
   <g id="patch_284">
    <path d="M 578.82625 20.685656 
L 598.82625 20.685656 
L 598.82625 13.685656 
L 578.82625 13.685656 
z
" style="stroke:#000000;stroke-linejoin:miter;"/>
   </g>
   <g id="text_24">
    <!-- big -->
    <g transform="translate(606.82625 20.685656)scale(0.1 -0.1)">
     <defs>
      <path d="M 3116 1747 
Q 3116 2381 2855 2742 
Q 2594 3103 2138 3103 
Q 1681 3103 1420 2742 
Q 1159 2381 1159 1747 
Q 1159 1113 1420 752 
Q 1681 391 2138 391 
Q 2594 391 2855 752 
Q 3116 1113 3116 1747 
z
M 1159 2969 
Q 1341 3281 1617 3432 
Q 1894 3584 2278 3584 
Q 2916 3584 3314 3078 
Q 3713 2572 3713 1747 
Q 3713 922 3314 415 
Q 2916 -91 2278 -91 
Q 1894 -91 1617 61 
Q 1341 213 1159 525 
L 1159 0 
L 581 0 
L 581 4863 
L 1159 4863 
L 1159 2969 
z
" id="DejaVuSans-62" transform="scale(0.015625)"/>
      <path d="M 2906 1791 
Q 2906 2416 2648 2759 
Q 2391 3103 1925 3103 
Q 1463 3103 1205 2759 
Q 947 2416 947 1791 
Q 947 1169 1205 825 
Q 1463 481 1925 481 
Q 2391 481 2648 825 
Q 2906 1169 2906 1791 
z
M 3481 434 
Q 3481 -459 3084 -895 
Q 2688 -1331 1869 -1331 
Q 1566 -1331 1297 -1286 
Q 1028 -1241 775 -1147 
L 775 -588 
Q 1028 -725 1275 -790 
Q 1522 -856 1778 -856 
Q 2344 -856 2625 -561 
Q 2906 -266 2906 331 
L 2906 616 
Q 2728 306 2450 153 
Q 2172 0 1784 0 
Q 1141 0 747 490 
Q 353 981 353 1791 
Q 353 2603 747 3093 
Q 1141 3584 1784 3584 
Q 2172 3584 2450 3431 
Q 2728 3278 2906 2969 
L 2906 3500 
L 3481 3500 
L 3481 434 
z
" id="DejaVuSans-67" transform="scale(0.015625)"/>
     </defs>
     <use xlink:href="#DejaVuSans-62"/>
     <use x="63.476562" xlink:href="#DejaVuSans-69"/>
     <use x="91.259766" xlink:href="#DejaVuSans-67"/>
    </g>
   </g>
   <g id="patch_285">
    <path d="M 578.82625 35.363781 
L 598.82625 35.363781 
L 598.82625 28.363781 
L 578.82625 28.363781 
z
" style="fill:#1f77b4;stroke:#1f77b4;stroke-linejoin:miter;"/>
   </g>
   <g id="text_25">
    <!-- s3 -->
    <g transform="translate(606.82625 35.363781)scale(0.1 -0.1)">
     <defs>
      <path d="M 2597 2516 
Q 3050 2419 3304 2112 
Q 3559 1806 3559 1356 
Q 3559 666 3084 287 
Q 2609 -91 1734 -91 
Q 1441 -91 1130 -33 
Q 819 25 488 141 
L 488 750 
Q 750 597 1062 519 
Q 1375 441 1716 441 
Q 2309 441 2620 675 
Q 2931 909 2931 1356 
Q 2931 1769 2642 2001 
Q 2353 2234 1838 2234 
L 1294 2234 
L 1294 2753 
L 1863 2753 
Q 2328 2753 2575 2939 
Q 2822 3125 2822 3475 
Q 2822 3834 2567 4026 
Q 2313 4219 1838 4219 
Q 1578 4219 1281 4162 
Q 984 4106 628 3988 
L 628 4550 
Q 988 4650 1302 4700 
Q 1616 4750 1894 4750 
Q 2613 4750 3031 4423 
Q 3450 4097 3450 3541 
Q 3450 3153 3228 2886 
Q 3006 2619 2597 2516 
z
" id="DejaVuSans-33" transform="scale(0.015625)"/>
     </defs>
     <use xlink:href="#DejaVuSans-73"/>
     <use x="52.099609" xlink:href="#DejaVuSans-33"/>
    </g>
   </g>
   <g id="patch_286">
    <path d="M 578.82625 50.041906 
L 598.82625 50.041906 
L 598.82625 43.041906 
L 578.82625 43.041906 
z
" style="fill:#aec7e8;stroke:#aec7e8;stroke-linejoin:miter;"/>
   </g>
   <g id="text_26">
    <!-- s4 -->
    <g transform="translate(606.82625 50.041906)scale(0.1 -0.1)">
     <use xlink:href="#DejaVuSans-73"/>
     <use x="52.099609" xlink:href="#DejaVuSans-34"/>
    </g>
   </g>
   <g id="patch_287">
    <path d="M 578.82625 64.720031 
L 598.82625 64.720031 
L 598.82625 57.720031 
L 578.82625 57.720031 
z
" style="fill:#ff7f0e;stroke:#ff7f0e;stroke-linejoin:miter;"/>
   </g>
   <g id="text_27">
    <!-- s1 -->
    <g transform="translate(606.82625 64.720031)scale(0.1 -0.1)">
     <use xlink:href="#DejaVuSans-73"/>
     <use x="52.099609" xlink:href="#DejaVuSans-31"/>
    </g>
   </g>
   <g id="patch_288">
    <path d="M 578.82625 79.398156 
L 598.82625 79.398156 
L 598.82625 72.398156 
L 578.82625 72.398156 
z
" style="fill:#ffbb78;stroke:#ffbb78;stroke-linejoin:miter;"/>
   </g>
   <g id="text_28">
    <!-- s2 -->
    <g transform="translate(606.82625 79.398156)scale(0.1 -0.1)">
     <use xlink:href="#DejaVuSans-73"/>
     <use x="52.099609" xlink:href="#DejaVuSans-32"/>
    </g>
   </g>
  </g>
 </g>
 <defs>
  <clipPath id="p1e05d5974e">
   <rect height="45.881379" width="77.634783" x="43.78125" y="10.999219"/>
  </clipPath>
  <clipPath id="p830d6e594b">
   <rect height="45.881379" width="77.634783" x="136.942989" y="10.999219"/>
  </clipPath>
  <clipPath id="p1e2c9db42b">
   <rect height="45.881379" width="77.634783" x="230.104728" y="10.999219"/>
  </clipPath>
  <clipPath id="pb5ca92e1bd">
   <rect height="45.881379" width="77.634783" x="323.266467" y="10.999219"/>
  </clipPath>
  <clipPath id="pc95e08ce0f">
   <rect height="45.881379" width="77.634783" x="43.78125" y="66.056874"/>
  </clipPath>
  <clipPath id="pefd966e478">
   <rect height="45.881379" width="77.634783" x="136.942989" y="66.056874"/>
  </clipPath>
  <clipPath id="p4cf3dbc50e">
   <rect height="45.881379" width="77.634783" x="230.104728" y="66.056874"/>
  </clipPath>
  <clipPath id="pc28e2aa5a8">
   <rect height="45.881379" width="77.634783" x="323.266467" y="66.056874"/>
  </clipPath>
  <clipPath id="p19a1551861">
   <rect height="45.881379" width="77.634783" x="43.78125" y="121.114529"/>
  </clipPath>
  <clipPath id="pfb6324ee6b">
   <rect height="45.881379" width="77.634783" x="136.942989" y="121.114529"/>
  </clipPath>
  <clipPath id="p1f7e70abf6">
   <rect height="45.881379" width="77.634783" x="230.104728" y="121.114529"/>
  </clipPath>
  <clipPath id="p91a464c3f3">
   <rect height="45.881379" width="77.634783" x="323.266467" y="121.114529"/>
  </clipPath>
  <clipPath id="p0d02216dea">
   <rect height="45.881379" width="77.634783" x="43.78125" y="176.172184"/>
  </clipPath>
  <clipPath id="pbff10a731e">
   <rect height="45.881379" width="77.634783" x="136.942989" y="176.172184"/>
  </clipPath>
  <clipPath id="p94113dd61a">
   <rect height="45.881379" width="77.634783" x="230.104728" y="176.172184"/>
  </clipPath>
  <clipPath id="p93c853db62">
   <rect height="45.881379" width="77.634783" x="323.266467" y="176.172184"/>
  </clipPath>
  <clipPath id="pcf8214eaa1">
   <rect height="45.881379" width="77.634783" x="43.78125" y="231.229839"/>
  </clipPath>
  <clipPath id="p8bc3cc7af0">
   <rect height="45.881379" width="77.634783" x="136.942989" y="231.229839"/>
  </clipPath>
 </defs>
</svg>
