<?xml version="1.0" encoding="utf-8" standalone="no"?>
<!DOCTYPE svg PUBLIC "-//W3C//DTD SVG 1.1//EN"
  "http://www.w3.org/Graphics/SVG/1.1/DTD/svg11.dtd">
<svg height="345.6pt" version="1.1" viewBox="0 0 460.8 345.6" width="460.8pt" xmlns="http://www.w3.org/2000/svg" xmlns:xlink="http://www.w3.org/1999/xlink">
 <metadata>
  <rdf:RDF xmlns:cc="http://creativecommons.org/ns#" xmlns:dc="http://purl.org/dc/elements/1.1/" xmlns:rdf="http://www.w3.org/1999/02/22-rdf-syntax-ns#">
   <cc:Work>
    <dc:type rdf:resource="http://purl.org/dc/dcmitype/StillImage"/>
    <dc:date>2021-11-24T22:50:17.274739</dc:date>
    <dc:format>image/svg+xml</dc:format>
    <dc:creator>
     <cc:Agent>
      <dc:title>Matplotlib v3.4.3, https://matplotlib.org/</dc:title>
     </cc:Agent>
    </dc:creator>
   </cc:Work>
  </rdf:RDF>
 </metadata>
 <defs>
  <style type="text/css">*{stroke-linecap:butt;stroke-linejoin:round;}</style>
 </defs>
 <g id="figure_1">
  <g id="patch_1">
   <path d="M 0 345.6 
L 460.8 345.6 
L 460.8 0 
L 0 0 
z
" style="fill:#ffffff;"/>
  </g>
  <g id="axes_1">
   <g id="patch_2">
    <path d="M 47.81 303.64 
L 442.035 303.64 
L 442.035 37.968 
L 47.81 37.968 
z
" style="fill:#ffffff;"/>
   </g>
   <g id="PolyCollection_1">
    <path clip-path="url(#p03a5b13f51)" d="M -9.085087 303.383679 
L -9.085087 303.64 
L -6.294523 303.64 
L -3.503959 303.64 
L -0.713396 303.64 
L 2.077168 303.64 
L 4.867732 303.64 
L 7.658295 303.64 
L 10.448859 303.64 
L 13.239423 303.64 
L 16.029986 303.64 
L 18.82055 303.64 
L 21.611114 303.64 
L 24.401677 303.64 
L 27.192241 303.64 
L 29.982805 303.64 
L 32.773369 303.64 
L 35.563932 303.64 
L 38.354496 303.64 
L 41.14506 303.64 
L 43.935623 303.64 
L 46.726187 303.64 
L 49.516751 303.64 
L 52.307314 303.64 
L 55.097878 303.64 
L 57.888442 303.64 
L 60.679005 303.64 
L 63.469569 303.64 
L 66.260133 303.64 
L 69.050696 303.64 
L 71.84126 303.64 
L 74.631824 303.64 
L 77.422388 303.64 
L 80.212951 303.64 
L 83.003515 303.64 
L 85.794079 303.64 
L 88.584642 303.64 
L 91.375206 303.64 
L 94.16577 303.64 
L 96.956333 303.64 
L 99.746897 303.64 
L 102.537461 303.64 
L 105.328024 303.64 
L 108.118588 303.64 
L 110.909152 303.64 
L 113.699715 303.64 
L 116.490279 303.64 
L 119.280843 303.64 
L 122.071406 303.64 
L 124.86197 303.64 
L 127.652534 303.64 
L 130.443098 303.64 
L 133.233661 303.64 
L 136.024225 303.64 
L 138.814789 303.64 
L 141.605352 303.64 
L 144.395916 303.64 
L 147.18648 303.64 
L 149.977043 303.64 
L 152.767607 303.64 
L 155.558171 303.64 
L 158.348734 303.64 
L 161.139298 303.64 
L 163.929862 303.64 
L 166.720425 303.64 
L 169.510989 303.64 
L 172.301553 303.64 
L 175.092117 303.64 
L 177.88268 303.64 
L 180.673244 303.64 
L 183.463808 303.64 
L 186.254371 303.64 
L 189.044935 303.64 
L 191.835499 303.64 
L 194.626062 303.64 
L 197.416626 303.64 
L 200.20719 303.64 
L 202.997753 303.64 
L 205.788317 303.64 
L 208.578881 303.64 
L 211.369444 303.64 
L 214.160008 303.64 
L 216.950572 303.64 
L 219.741135 303.64 
L 222.531699 303.64 
L 225.322263 303.64 
L 228.112827 303.64 
L 230.90339 303.64 
L 233.693954 303.64 
L 236.484518 303.64 
L 239.275081 303.64 
L 242.065645 303.64 
L 244.856209 303.64 
L 247.646772 303.64 
L 250.437336 303.64 
L 253.2279 303.64 
L 256.018463 303.64 
L 258.809027 303.64 
L 261.599591 303.64 
L 264.390154 303.64 
L 267.180718 303.64 
L 269.971282 303.64 
L 272.761846 303.64 
L 275.552409 303.64 
L 278.342973 303.64 
L 281.133537 303.64 
L 283.9241 303.64 
L 286.714664 303.64 
L 289.505228 303.64 
L 292.295791 303.64 
L 295.086355 303.64 
L 297.876919 303.64 
L 300.667482 303.64 
L 303.458046 303.64 
L 306.24861 303.64 
L 309.039173 303.64 
L 311.829737 303.64 
L 314.620301 303.64 
L 317.410865 303.64 
L 320.201428 303.64 
L 322.991992 303.64 
L 325.782556 303.64 
L 328.573119 303.64 
L 331.363683 303.64 
L 334.154247 303.64 
L 336.94481 303.64 
L 339.735374 303.64 
L 342.525938 303.64 
L 345.316501 303.64 
L 348.107065 303.64 
L 350.897629 303.64 
L 353.688192 303.64 
L 356.478756 303.64 
L 359.26932 303.64 
L 362.059883 303.64 
L 364.850447 303.64 
L 367.641011 303.64 
L 370.431575 303.64 
L 373.222138 303.64 
L 376.012702 303.64 
L 378.803266 303.64 
L 381.593829 303.64 
L 384.384393 303.64 
L 387.174957 303.64 
L 389.96552 303.64 
L 392.756084 303.64 
L 395.546648 303.64 
L 398.337211 303.64 
L 401.127775 303.64 
L 403.918339 303.64 
L 406.708902 303.64 
L 409.499466 303.64 
L 412.29003 303.64 
L 415.080594 303.64 
L 417.871157 303.64 
L 420.661721 303.64 
L 423.452285 303.64 
L 426.242848 303.64 
L 429.033412 303.64 
L 431.823976 303.64 
L 434.614539 303.64 
L 437.405103 303.64 
L 440.195667 303.64 
L 442.98623 303.64 
L 445.776794 303.64 
L 448.567358 303.64 
L 451.357921 303.64 
L 454.148485 303.64 
L 456.939049 303.64 
L 459.729612 303.64 
L 462.520176 303.64 
L 465.31074 303.64 
L 468.101304 303.64 
L 470.891867 303.64 
L 473.682431 303.64 
L 476.472995 303.64 
L 479.263558 303.64 
L 482.054122 303.64 
L 484.844686 303.64 
L 487.635249 303.64 
L 490.425813 303.64 
L 493.216377 303.64 
L 496.00694 303.64 
L 498.797504 303.64 
L 501.588068 303.64 
L 504.378631 303.64 
L 507.169195 303.64 
L 509.959759 303.64 
L 512.750323 303.64 
L 515.540886 303.64 
L 518.33145 303.64 
L 521.122014 303.64 
L 523.912577 303.64 
L 526.703141 303.64 
L 529.493705 303.64 
L 532.284268 303.64 
L 535.074832 303.64 
L 537.865396 303.64 
L 540.655959 303.64 
L 543.446523 303.64 
L 546.237087 303.64 
L 546.237087 301.637853 
L 546.237087 301.637853 
L 543.446523 301.092848 
L 540.655959 300.419923 
L 537.865396 299.594867 
L 535.074832 298.590393 
L 532.284268 297.376118 
L 529.493705 295.918634 
L 526.703141 294.181704 
L 523.912577 292.126601 
L 521.122014 289.712597 
L 518.33145 286.897631 
L 515.540886 283.639149 
L 512.750323 279.895133 
L 509.959759 275.625303 
L 507.169195 270.792474 
L 504.378631 265.364048 
L 501.588068 259.313606 
L 498.797504 252.622538 
L 496.00694 245.28167 
L 493.216377 237.292814 
L 490.425813 228.670165 
L 487.635249 219.441482 
L 484.844686 209.648971 
L 482.054122 199.349797 
L 479.263558 188.616181 
L 476.472995 177.53501 
L 473.682431 166.206953 
L 470.891867 154.745055 
L 468.101304 143.272837 
L 465.31074 131.921914 
L 462.520176 120.829214 
L 459.729612 110.133869 
L 456.939049 99.973866 
L 454.148485 90.482601 
L 451.357921 81.78543 
L 448.567358 73.996376 
L 445.776794 67.215094 
L 442.98623 61.524234 
L 440.195667 56.987291 
L 437.405103 53.647033 
L 434.614539 51.524562 
L 431.823976 50.619048 
L 429.033412 50.908118 
L 426.242848 52.348903 
L 423.452285 54.879662 
L 420.661721 58.421921 
L 417.871157 62.883024 
L 415.080594 68.158994 
L 412.29003 74.137573 
L 409.499466 80.701332 
L 406.708902 87.730735 
L 403.918339 95.107041 
L 401.127775 102.714967 
L 398.337211 110.445028 
L 395.546648 118.195499 
L 392.756084 125.873972 
L 389.96552 133.398489 
L 387.174957 140.698256 
L 384.384393 147.713961 
L 381.593829 154.397735 
L 378.803266 160.712798 
L 376.012702 166.632845 
L 373.222138 172.141227 
L 370.431575 177.229991 
L 367.641011 181.898827 
L 364.850447 186.153978 
L 362.059883 190.007149 
L 359.26932 193.474466 
L 356.478756 196.5755 
L 353.688192 199.332382 
L 350.897629 201.769029 
L 348.107065 203.910475 
L 345.316501 205.782313 
L 342.525938 207.410249 
L 339.735374 208.819749 
L 336.94481 210.035772 
L 334.154247 211.082579 
L 331.363683 211.983599 
L 328.573119 212.761339 
L 325.782556 213.43733 
L 322.991992 214.032088 
L 320.201428 214.565085 
L 317.410865 215.054727 
L 314.620301 215.518317 
L 311.829737 215.972016 
L 309.039173 216.430788 
L 306.24861 216.908332 
L 303.458046 217.417007 
L 300.667482 217.967743 
L 297.876919 218.569952 
L 295.086355 219.231436 
L 292.295791 219.958308 
L 289.505228 220.754913 
L 286.714664 221.623782 
L 283.9241 222.565595 
L 281.133537 223.579181 
L 278.342973 224.661549 
L 275.552409 225.807943 
L 272.761846 227.011951 
L 269.971282 228.265632 
L 267.180718 229.559686 
L 264.390154 230.88366 
L 261.599591 232.226169 
L 258.809027 233.575153 
L 256.018463 234.918144 
L 253.2279 236.242541 
L 250.437336 237.535896 
L 247.646772 238.78618 
L 244.856209 239.982053 
L 242.065645 241.113102 
L 239.275081 242.170054 
L 236.484518 243.144958 
L 233.693954 244.03133 
L 230.90339 244.824253 
L 228.112827 245.520437 
L 225.322263 246.118234 
L 222.531699 246.617612 
L 219.741135 247.020084 
L 216.950572 247.328608 
L 214.160008 247.547448 
L 211.369444 247.682016 
L 208.578881 247.738688 
L 205.788317 247.724618 
L 202.997753 247.647538 
L 200.20719 247.515561 
L 197.416626 247.337002 
L 194.626062 247.120199 
L 191.835499 246.873365 
L 189.044935 246.604453 
L 186.254371 246.321054 
L 183.463808 246.030317 
L 180.673244 245.738897 
L 177.88268 245.452936 
L 175.092117 245.178059 
L 172.301553 244.919405 
L 169.510989 244.68167 
L 166.720425 244.469177 
L 163.929862 244.285948 
L 161.139298 244.135799 
L 158.348734 244.022431 
L 155.558171 243.949525 
L 152.767607 243.920833 
L 149.977043 243.940259 
L 147.18648 244.011931 
L 144.395916 244.140244 
L 141.605352 244.329891 
L 138.814789 244.585862 
L 136.024225 244.913412 
L 133.233661 245.318003 
L 130.443098 245.80521 
L 127.652534 246.380595 
L 124.86197 247.049553 
L 122.071406 247.817135 
L 119.280843 248.687851 
L 116.490279 249.665455 
L 113.699715 250.752739 
L 110.909152 251.951322 
L 108.118588 253.261459 
L 105.328024 254.681879 
L 102.537461 256.209656 
L 99.746897 257.840121 
L 96.956333 259.566836 
L 94.16577 261.381609 
L 91.375206 263.27458 
L 88.584642 265.234356 
L 85.794079 267.248203 
L 83.003515 269.302286 
L 80.212951 271.381952 
L 77.422388 273.472038 
L 74.631824 275.557203 
L 71.84126 277.622259 
L 69.050696 279.652504 
L 66.260133 281.63403 
L 63.469569 283.554003 
L 60.679005 285.400907 
L 57.888442 287.164735 
L 55.097878 288.837138 
L 52.307314 290.411508 
L 49.516751 291.883021 
L 46.726187 293.248612 
L 43.935623 294.50692 
L 41.14506 295.658173 
L 38.354496 296.704051 
L 35.563932 297.647516 
L 32.773369 298.492629 
L 29.982805 299.244346 
L 27.192241 299.908323 
L 24.401677 300.490719 
L 21.611114 300.998011 
L 18.82055 301.436824 
L 16.029986 301.813779 
L 13.239423 302.135362 
L 10.448859 302.40782 
L 7.658295 302.637072 
L 4.867732 302.828648 
L 2.077168 302.987644 
L -0.713396 303.118701 
L -3.503959 303.225992 
L -6.294523 303.313229 
L -9.085087 303.383679 
z
" style="fill:#1f77b4;fill-opacity:0.4;stroke:#1f77b4;"/>
   </g>
   <g id="PolyCollection_2">
    <path clip-path="url(#p03a5b13f51)" d="M 82.283534 302.836871 
L 82.283534 303.64 
L 85.027473 303.64 
L 87.771413 303.64 
L 90.515352 303.64 
L 93.259291 303.64 
L 96.003231 303.64 
L 98.74717 303.64 
L 101.491109 303.64 
L 104.235049 303.64 
L 106.978988 303.64 
L 109.722928 303.64 
L 112.466867 303.64 
L 115.210806 303.64 
L 117.954746 303.64 
L 120.698685 303.64 
L 123.442624 303.64 
L 126.186564 303.64 
L 128.930503 303.64 
L 131.674442 303.64 
L 134.418382 303.64 
L 137.162321 303.64 
L 139.90626 303.64 
L 142.6502 303.64 
L 145.394139 303.64 
L 148.138079 303.64 
L 150.882018 303.64 
L 153.625957 303.64 
L 156.369897 303.64 
L 159.113836 303.64 
L 161.857775 303.64 
L 164.601715 303.64 
L 167.345654 303.64 
L 170.089593 303.64 
L 172.833533 303.64 
L 175.577472 303.64 
L 178.321411 303.64 
L 181.065351 303.64 
L 183.80929 303.64 
L 186.55323 303.64 
L 189.297169 303.64 
L 192.041108 303.64 
L 194.785048 303.64 
L 197.528987 303.64 
L 200.272926 303.64 
L 203.016866 303.64 
L 205.760805 303.64 
L 208.504744 303.64 
L 211.248684 303.64 
L 213.992623 303.64 
L 216.736562 303.64 
L 219.480502 303.64 
L 222.224441 303.64 
L 224.968381 303.64 
L 227.71232 303.64 
L 230.456259 303.64 
L 233.200199 303.64 
L 235.944138 303.64 
L 238.688077 303.64 
L 241.432017 303.64 
L 244.175956 303.64 
L 246.919895 303.64 
L 249.663835 303.64 
L 252.407774 303.64 
L 255.151713 303.64 
L 257.895653 303.64 
L 260.639592 303.64 
L 263.383532 303.64 
L 266.127471 303.64 
L 268.87141 303.64 
L 271.61535 303.64 
L 274.359289 303.64 
L 277.103228 303.64 
L 279.847168 303.64 
L 282.591107 303.64 
L 285.335046 303.64 
L 288.078986 303.64 
L 290.822925 303.64 
L 293.566864 303.64 
L 296.310804 303.64 
L 299.054743 303.64 
L 301.798683 303.64 
L 304.542622 303.64 
L 307.286561 303.64 
L 310.030501 303.64 
L 312.77444 303.64 
L 315.518379 303.64 
L 318.262319 303.64 
L 321.006258 303.64 
L 323.750197 303.64 
L 326.494137 303.64 
L 329.238076 303.64 
L 331.982015 303.64 
L 334.725955 303.64 
L 337.469894 303.64 
L 340.213834 303.64 
L 342.957773 303.64 
L 345.701712 303.64 
L 348.445652 303.64 
L 351.189591 303.64 
L 353.93353 303.64 
L 356.67747 303.64 
L 359.421409 303.64 
L 362.165348 303.64 
L 364.909288 303.64 
L 367.653227 303.64 
L 370.397166 303.64 
L 373.141106 303.64 
L 375.885045 303.64 
L 378.628985 303.64 
L 381.372924 303.64 
L 384.116863 303.64 
L 386.860803 303.64 
L 389.604742 303.64 
L 392.348681 303.64 
L 395.092621 303.64 
L 397.83656 303.64 
L 400.580499 303.64 
L 403.324439 303.64 
L 406.068378 303.64 
L 408.812317 303.64 
L 411.556257 303.64 
L 414.300196 303.64 
L 417.044136 303.64 
L 419.788075 303.64 
L 422.532014 303.64 
L 425.275954 303.64 
L 428.019893 303.64 
L 430.763832 303.64 
L 433.507772 303.64 
L 436.251711 303.64 
L 438.99565 303.64 
L 441.73959 303.64 
L 444.483529 303.64 
L 447.227468 303.64 
L 449.971408 303.64 
L 452.715347 303.64 
L 455.459287 303.64 
L 458.203226 303.64 
L 460.947165 303.64 
L 463.691105 303.64 
L 466.435044 303.64 
L 469.178983 303.64 
L 471.922923 303.64 
L 474.666862 303.64 
L 477.410801 303.64 
L 480.154741 303.64 
L 482.89868 303.64 
L 485.642619 303.64 
L 488.386559 303.64 
L 491.130498 303.64 
L 493.874438 303.64 
L 496.618377 303.64 
L 499.362316 303.64 
L 502.106256 303.64 
L 504.850195 303.64 
L 507.594134 303.64 
L 510.338074 303.64 
L 513.082013 303.64 
L 515.825952 303.64 
L 518.569892 303.64 
L 521.313831 303.64 
L 524.05777 303.64 
L 526.80171 303.64 
L 529.545649 303.64 
L 532.289589 303.64 
L 535.033528 303.64 
L 537.777467 303.64 
L 540.521407 303.64 
L 543.265346 303.64 
L 546.009285 303.64 
L 548.753225 303.64 
L 551.497164 303.64 
L 554.241103 303.64 
L 556.985043 303.64 
L 559.728982 303.64 
L 562.472921 303.64 
L 565.216861 303.64 
L 567.9608 303.64 
L 570.70474 303.64 
L 573.448679 303.64 
L 576.192618 303.64 
L 578.936558 303.64 
L 581.680497 303.64 
L 584.424436 303.64 
L 587.168376 303.64 
L 589.912315 303.64 
L 592.656254 303.64 
L 595.400194 303.64 
L 598.144133 303.64 
L 600.888072 303.64 
L 603.632012 303.64 
L 606.375951 303.64 
L 609.119891 303.64 
L 611.86383 303.64 
L 614.607769 303.64 
L 617.351709 303.64 
L 620.095648 303.64 
L 622.839587 303.64 
L 625.583527 303.64 
L 628.327466 303.64 
L 628.327466 301.97311 
L 628.327466 301.97311 
L 625.583527 301.736297 
L 622.839587 301.469992 
L 620.095648 301.171154 
L 617.351709 300.836519 
L 614.607769 300.462591 
L 611.86383 300.045645 
L 609.119891 299.581722 
L 606.375951 299.066631 
L 603.632012 298.495953 
L 600.888072 297.865044 
L 598.144133 297.169049 
L 595.400194 296.402909 
L 592.656254 295.561382 
L 589.912315 294.639055 
L 587.168376 293.630373 
L 584.424436 292.529663 
L 581.680497 291.331164 
L 578.936558 290.029063 
L 576.192618 288.617536 
L 573.448679 287.090785 
L 570.70474 285.443093 
L 567.9608 283.668867 
L 565.216861 281.762699 
L 562.472921 279.71942 
L 559.728982 277.534164 
L 556.985043 275.202429 
L 554.241103 272.720143 
L 551.497164 270.083732 
L 548.753225 267.290188 
L 546.009285 264.337137 
L 543.265346 261.222907 
L 540.521407 257.946593 
L 537.777467 254.508121 
L 535.033528 250.908311 
L 532.289589 247.148929 
L 529.545649 243.232746 
L 526.80171 239.163575 
L 524.05777 234.946317 
L 521.313831 230.586989 
L 518.569892 226.092746 
L 515.825952 221.471898 
L 513.082013 216.733908 
L 510.338074 211.889391 
L 507.594134 206.95009 
L 504.850195 201.92885 
L 502.106256 196.839576 
L 499.362316 191.69718 
L 496.618377 186.517512 
L 493.874438 181.317291 
L 491.130498 176.114011 
L 488.386559 170.925843 
L 485.642619 165.77153 
L 482.89868 160.670265 
L 480.154741 155.641566 
L 477.410801 150.705142 
L 474.666862 145.880753 
L 471.922923 141.188065 
L 469.178983 136.646504 
L 466.435044 132.275102 
L 463.691105 128.09235 
L 460.947165 124.116047 
L 458.203226 120.363155 
L 455.459287 116.849657 
L 452.715347 113.590418 
L 449.971408 110.599063 
L 447.227468 107.887853 
L 444.483529 105.467576 
L 441.73959 103.347454 
L 438.99565 101.535055 
L 436.251711 100.036225 
L 433.507772 98.855031 
L 430.763832 97.993723 
L 428.019893 97.452707 
L 425.275954 97.230543 
L 422.532014 97.323946 
L 419.788075 97.727819 
L 417.044136 98.43529 
L 414.300196 99.437771 
L 411.556257 100.725034 
L 408.812317 102.285294 
L 406.068378 104.105312 
L 403.324439 106.170513 
L 400.580499 108.465107 
L 397.83656 110.972226 
L 395.092621 113.674071 
L 392.348681 116.552062 
L 389.604742 119.586999 
L 386.860803 122.759221 
L 384.116863 126.048772 
L 381.372924 129.435568 
L 378.628985 132.899563 
L 375.885045 136.420907 
L 373.141106 139.980111 
L 370.397166 143.558197 
L 367.653227 147.136845 
L 364.909288 150.69853 
L 362.165348 154.226655 
L 359.421409 157.705664 
L 356.67747 161.12115 
L 353.93353 164.459949 
L 351.189591 167.71022 
L 348.445652 170.861507 
L 345.701712 173.904797 
L 342.957773 176.83255 
L 340.213834 179.638723 
L 337.469894 182.318775 
L 334.725955 184.869661 
L 331.982015 187.289805 
L 329.238076 189.579065 
L 326.494137 191.738682 
L 323.750197 193.771215 
L 321.006258 195.680467 
L 318.262319 197.471399 
L 315.518379 199.150034 
L 312.77444 200.723351 
L 310.030501 202.199177 
L 307.286561 203.586068 
L 304.542622 204.893185 
L 301.798683 206.130175 
L 299.054743 207.307038 
L 296.310804 208.434007 
L 293.566864 209.521419 
L 290.822925 210.579596 
L 288.078986 211.618722 
L 285.335046 212.648737 
L 282.591107 213.679223 
L 279.847168 214.719312 
L 277.103228 215.77759 
L 274.359289 216.862019 
L 271.61535 217.979864 
L 268.87141 219.137635 
L 266.127471 220.341033 
L 263.383532 221.594912 
L 260.639592 222.903257 
L 257.895653 224.269158 
L 255.151713 225.694814 
L 252.407774 227.181532 
L 249.663835 228.729746 
L 246.919895 230.33904 
L 244.175956 232.008183 
L 241.432017 233.735174 
L 238.688077 235.517287 
L 235.944138 237.351131 
L 233.200199 239.232709 
L 230.456259 241.157486 
L 227.71232 243.120458 
L 224.968381 245.116225 
L 222.224441 247.139061 
L 219.480502 249.182991 
L 216.736562 251.241864 
L 213.992623 253.309423 
L 211.248684 255.379376 
L 208.504744 257.44546 
L 205.760805 259.501509 
L 203.016866 261.541507 
L 200.272926 263.559643 
L 197.528987 265.550364 
L 194.785048 267.508409 
L 192.041108 269.428855 
L 189.297169 271.307145 
L 186.55323 273.139112 
L 183.80929 274.921 
L 181.065351 276.649479 
L 178.321411 278.32165 
L 175.577472 279.935054 
L 172.833533 281.487663 
L 170.089593 282.97788 
L 167.345654 284.404525 
L 164.601715 285.76682 
L 161.857775 287.064375 
L 159.113836 288.297164 
L 156.369897 289.465504 
L 153.625957 290.570031 
L 150.882018 291.61167 
L 148.138079 292.591614 
L 145.394139 293.511289 
L 142.6502 294.372332 
L 139.90626 295.176561 
L 137.162321 295.925946 
L 134.418382 296.622583 
L 131.674442 297.268671 
L 128.930503 297.866484 
L 126.186564 298.418348 
L 123.442624 298.926624 
L 120.698685 299.393683 
L 117.954746 299.821887 
L 115.210806 300.21358 
L 112.466867 300.571065 
L 109.722928 300.896596 
L 106.978988 301.192366 
L 104.235049 301.460497 
L 101.491109 301.70303 
L 98.74717 301.921924 
L 96.003231 302.119047 
L 93.259291 302.296175 
L 90.515352 302.454986 
L 87.771413 302.597065 
L 85.027473 302.723896 
L 82.283534 302.836871 
z
" style="fill:#ff7f0e;fill-opacity:0.4;stroke:#ff7f0e;"/>
   </g>
   <g id="matplotlib.axis_1">
    <g id="xtick_1">
     <g id="line2d_1">
      <defs>
       <path d="M 0 0 
L 0 3.5 
" id="m3cf31a2aaf" style="stroke:#000000;stroke-width:0.8;"/>
      </defs>
      <g>
       <use style="stroke:#000000;stroke-width:0.8;" x="47.81" xlink:href="#m3cf31a2aaf" y="303.64"/>
      </g>
     </g>
     <g id="text_1">
      <!-- 0.0 -->
      <g transform="translate(39.858438 318.238437)scale(0.1 -0.1)">
       <defs>
        <path d="M 2034 4250 
Q 1547 4250 1301 3770 
Q 1056 3291 1056 2328 
Q 1056 1369 1301 889 
Q 1547 409 2034 409 
Q 2525 409 2770 889 
Q 3016 1369 3016 2328 
Q 3016 3291 2770 3770 
Q 2525 4250 2034 4250 
z
M 2034 4750 
Q 2819 4750 3233 4129 
Q 3647 3509 3647 2328 
Q 3647 1150 3233 529 
Q 2819 -91 2034 -91 
Q 1250 -91 836 529 
Q 422 1150 422 2328 
Q 422 3509 836 4129 
Q 1250 4750 2034 4750 
z
" id="DejaVuSans-30" transform="scale(0.015625)"/>
        <path d="M 684 794 
L 1344 794 
L 1344 0 
L 684 0 
L 684 794 
z
" id="DejaVuSans-2e" transform="scale(0.015625)"/>
       </defs>
       <use xlink:href="#DejaVuSans-30"/>
       <use x="63.623047" xlink:href="#DejaVuSans-2e"/>
       <use x="95.410156" xlink:href="#DejaVuSans-30"/>
      </g>
     </g>
    </g>
    <g id="xtick_2">
     <g id="line2d_2">
      <g>
       <use style="stroke:#000000;stroke-width:0.8;" x="126.655" xlink:href="#m3cf31a2aaf" y="303.64"/>
      </g>
     </g>
     <g id="text_2">
      <!-- 0.2 -->
      <g transform="translate(118.703438 318.238437)scale(0.1 -0.1)">
       <defs>
        <path d="M 1228 531 
L 3431 531 
L 3431 0 
L 469 0 
L 469 531 
Q 828 903 1448 1529 
Q 2069 2156 2228 2338 
Q 2531 2678 2651 2914 
Q 2772 3150 2772 3378 
Q 2772 3750 2511 3984 
Q 2250 4219 1831 4219 
Q 1534 4219 1204 4116 
Q 875 4013 500 3803 
L 500 4441 
Q 881 4594 1212 4672 
Q 1544 4750 1819 4750 
Q 2544 4750 2975 4387 
Q 3406 4025 3406 3419 
Q 3406 3131 3298 2873 
Q 3191 2616 2906 2266 
Q 2828 2175 2409 1742 
Q 1991 1309 1228 531 
z
" id="DejaVuSans-32" transform="scale(0.015625)"/>
       </defs>
       <use xlink:href="#DejaVuSans-30"/>
       <use x="63.623047" xlink:href="#DejaVuSans-2e"/>
       <use x="95.410156" xlink:href="#DejaVuSans-32"/>
      </g>
     </g>
    </g>
    <g id="xtick_3">
     <g id="line2d_3">
      <g>
       <use style="stroke:#000000;stroke-width:0.8;" x="205.5" xlink:href="#m3cf31a2aaf" y="303.64"/>
      </g>
     </g>
     <g id="text_3">
      <!-- 0.4 -->
      <g transform="translate(197.548438 318.238437)scale(0.1 -0.1)">
       <defs>
        <path d="M 2419 4116 
L 825 1625 
L 2419 1625 
L 2419 4116 
z
M 2253 4666 
L 3047 4666 
L 3047 1625 
L 3713 1625 
L 3713 1100 
L 3047 1100 
L 3047 0 
L 2419 0 
L 2419 1100 
L 313 1100 
L 313 1709 
L 2253 4666 
z
" id="DejaVuSans-34" transform="scale(0.015625)"/>
       </defs>
       <use xlink:href="#DejaVuSans-30"/>
       <use x="63.623047" xlink:href="#DejaVuSans-2e"/>
       <use x="95.410156" xlink:href="#DejaVuSans-34"/>
      </g>
     </g>
    </g>
    <g id="xtick_4">
     <g id="line2d_4">
      <g>
       <use style="stroke:#000000;stroke-width:0.8;" x="284.345" xlink:href="#m3cf31a2aaf" y="303.64"/>
      </g>
     </g>
     <g id="text_4">
      <!-- 0.6 -->
      <g transform="translate(276.393438 318.238437)scale(0.1 -0.1)">
       <defs>
        <path d="M 2113 2584 
Q 1688 2584 1439 2293 
Q 1191 2003 1191 1497 
Q 1191 994 1439 701 
Q 1688 409 2113 409 
Q 2538 409 2786 701 
Q 3034 994 3034 1497 
Q 3034 2003 2786 2293 
Q 2538 2584 2113 2584 
z
M 3366 4563 
L 3366 3988 
Q 3128 4100 2886 4159 
Q 2644 4219 2406 4219 
Q 1781 4219 1451 3797 
Q 1122 3375 1075 2522 
Q 1259 2794 1537 2939 
Q 1816 3084 2150 3084 
Q 2853 3084 3261 2657 
Q 3669 2231 3669 1497 
Q 3669 778 3244 343 
Q 2819 -91 2113 -91 
Q 1303 -91 875 529 
Q 447 1150 447 2328 
Q 447 3434 972 4092 
Q 1497 4750 2381 4750 
Q 2619 4750 2861 4703 
Q 3103 4656 3366 4563 
z
" id="DejaVuSans-36" transform="scale(0.015625)"/>
       </defs>
       <use xlink:href="#DejaVuSans-30"/>
       <use x="63.623047" xlink:href="#DejaVuSans-2e"/>
       <use x="95.410156" xlink:href="#DejaVuSans-36"/>
      </g>
     </g>
    </g>
    <g id="xtick_5">
     <g id="line2d_5">
      <g>
       <use style="stroke:#000000;stroke-width:0.8;" x="363.19" xlink:href="#m3cf31a2aaf" y="303.64"/>
      </g>
     </g>
     <g id="text_5">
      <!-- 0.8 -->
      <g transform="translate(355.238437 318.238437)scale(0.1 -0.1)">
       <defs>
        <path d="M 2034 2216 
Q 1584 2216 1326 1975 
Q 1069 1734 1069 1313 
Q 1069 891 1326 650 
Q 1584 409 2034 409 
Q 2484 409 2743 651 
Q 3003 894 3003 1313 
Q 3003 1734 2745 1975 
Q 2488 2216 2034 2216 
z
M 1403 2484 
Q 997 2584 770 2862 
Q 544 3141 544 3541 
Q 544 4100 942 4425 
Q 1341 4750 2034 4750 
Q 2731 4750 3128 4425 
Q 3525 4100 3525 3541 
Q 3525 3141 3298 2862 
Q 3072 2584 2669 2484 
Q 3125 2378 3379 2068 
Q 3634 1759 3634 1313 
Q 3634 634 3220 271 
Q 2806 -91 2034 -91 
Q 1263 -91 848 271 
Q 434 634 434 1313 
Q 434 1759 690 2068 
Q 947 2378 1403 2484 
z
M 1172 3481 
Q 1172 3119 1398 2916 
Q 1625 2713 2034 2713 
Q 2441 2713 2670 2916 
Q 2900 3119 2900 3481 
Q 2900 3844 2670 4047 
Q 2441 4250 2034 4250 
Q 1625 4250 1398 4047 
Q 1172 3844 1172 3481 
z
" id="DejaVuSans-38" transform="scale(0.015625)"/>
       </defs>
       <use xlink:href="#DejaVuSans-30"/>
       <use x="63.623047" xlink:href="#DejaVuSans-2e"/>
       <use x="95.410156" xlink:href="#DejaVuSans-38"/>
      </g>
     </g>
    </g>
    <g id="xtick_6">
     <g id="line2d_6">
      <g>
       <use style="stroke:#000000;stroke-width:0.8;" x="442.035" xlink:href="#m3cf31a2aaf" y="303.64"/>
      </g>
     </g>
     <g id="text_6">
      <!-- 1.0 -->
      <g transform="translate(434.083437 318.238437)scale(0.1 -0.1)">
       <defs>
        <path d="M 794 531 
L 1825 531 
L 1825 4091 
L 703 3866 
L 703 4441 
L 1819 4666 
L 2450 4666 
L 2450 531 
L 3481 531 
L 3481 0 
L 794 0 
L 794 531 
z
" id="DejaVuSans-31" transform="scale(0.015625)"/>
       </defs>
       <use xlink:href="#DejaVuSans-31"/>
       <use x="63.623047" xlink:href="#DejaVuSans-2e"/>
       <use x="95.410156" xlink:href="#DejaVuSans-30"/>
      </g>
     </g>
    </g>
    <g id="text_7">
     <!-- Credibility index -->
     <g transform="translate(204.317812 331.916562)scale(0.1 -0.1)">
      <defs>
       <path d="M 4122 4306 
L 4122 3641 
Q 3803 3938 3442 4084 
Q 3081 4231 2675 4231 
Q 1875 4231 1450 3742 
Q 1025 3253 1025 2328 
Q 1025 1406 1450 917 
Q 1875 428 2675 428 
Q 3081 428 3442 575 
Q 3803 722 4122 1019 
L 4122 359 
Q 3791 134 3420 21 
Q 3050 -91 2638 -91 
Q 1578 -91 968 557 
Q 359 1206 359 2328 
Q 359 3453 968 4101 
Q 1578 4750 2638 4750 
Q 3056 4750 3426 4639 
Q 3797 4528 4122 4306 
z
" id="DejaVuSans-43" transform="scale(0.015625)"/>
       <path d="M 2631 2963 
Q 2534 3019 2420 3045 
Q 2306 3072 2169 3072 
Q 1681 3072 1420 2755 
Q 1159 2438 1159 1844 
L 1159 0 
L 581 0 
L 581 3500 
L 1159 3500 
L 1159 2956 
Q 1341 3275 1631 3429 
Q 1922 3584 2338 3584 
Q 2397 3584 2469 3576 
Q 2541 3569 2628 3553 
L 2631 2963 
z
" id="DejaVuSans-72" transform="scale(0.015625)"/>
       <path d="M 3597 1894 
L 3597 1613 
L 953 1613 
Q 991 1019 1311 708 
Q 1631 397 2203 397 
Q 2534 397 2845 478 
Q 3156 559 3463 722 
L 3463 178 
Q 3153 47 2828 -22 
Q 2503 -91 2169 -91 
Q 1331 -91 842 396 
Q 353 884 353 1716 
Q 353 2575 817 3079 
Q 1281 3584 2069 3584 
Q 2775 3584 3186 3129 
Q 3597 2675 3597 1894 
z
M 3022 2063 
Q 3016 2534 2758 2815 
Q 2500 3097 2075 3097 
Q 1594 3097 1305 2825 
Q 1016 2553 972 2059 
L 3022 2063 
z
" id="DejaVuSans-65" transform="scale(0.015625)"/>
       <path d="M 2906 2969 
L 2906 4863 
L 3481 4863 
L 3481 0 
L 2906 0 
L 2906 525 
Q 2725 213 2448 61 
Q 2172 -91 1784 -91 
Q 1150 -91 751 415 
Q 353 922 353 1747 
Q 353 2572 751 3078 
Q 1150 3584 1784 3584 
Q 2172 3584 2448 3432 
Q 2725 3281 2906 2969 
z
M 947 1747 
Q 947 1113 1208 752 
Q 1469 391 1925 391 
Q 2381 391 2643 752 
Q 2906 1113 2906 1747 
Q 2906 2381 2643 2742 
Q 2381 3103 1925 3103 
Q 1469 3103 1208 2742 
Q 947 2381 947 1747 
z
" id="DejaVuSans-64" transform="scale(0.015625)"/>
       <path d="M 603 3500 
L 1178 3500 
L 1178 0 
L 603 0 
L 603 3500 
z
M 603 4863 
L 1178 4863 
L 1178 4134 
L 603 4134 
L 603 4863 
z
" id="DejaVuSans-69" transform="scale(0.015625)"/>
       <path d="M 3116 1747 
Q 3116 2381 2855 2742 
Q 2594 3103 2138 3103 
Q 1681 3103 1420 2742 
Q 1159 2381 1159 1747 
Q 1159 1113 1420 752 
Q 1681 391 2138 391 
Q 2594 391 2855 752 
Q 3116 1113 3116 1747 
z
M 1159 2969 
Q 1341 3281 1617 3432 
Q 1894 3584 2278 3584 
Q 2916 3584 3314 3078 
Q 3713 2572 3713 1747 
Q 3713 922 3314 415 
Q 2916 -91 2278 -91 
Q 1894 -91 1617 61 
Q 1341 213 1159 525 
L 1159 0 
L 581 0 
L 581 4863 
L 1159 4863 
L 1159 2969 
z
" id="DejaVuSans-62" transform="scale(0.015625)"/>
       <path d="M 603 4863 
L 1178 4863 
L 1178 0 
L 603 0 
L 603 4863 
z
" id="DejaVuSans-6c" transform="scale(0.015625)"/>
       <path d="M 1172 4494 
L 1172 3500 
L 2356 3500 
L 2356 3053 
L 1172 3053 
L 1172 1153 
Q 1172 725 1289 603 
Q 1406 481 1766 481 
L 2356 481 
L 2356 0 
L 1766 0 
Q 1100 0 847 248 
Q 594 497 594 1153 
L 594 3053 
L 172 3053 
L 172 3500 
L 594 3500 
L 594 4494 
L 1172 4494 
z
" id="DejaVuSans-74" transform="scale(0.015625)"/>
       <path d="M 2059 -325 
Q 1816 -950 1584 -1140 
Q 1353 -1331 966 -1331 
L 506 -1331 
L 506 -850 
L 844 -850 
Q 1081 -850 1212 -737 
Q 1344 -625 1503 -206 
L 1606 56 
L 191 3500 
L 800 3500 
L 1894 763 
L 2988 3500 
L 3597 3500 
L 2059 -325 
z
" id="DejaVuSans-79" transform="scale(0.015625)"/>
       <path id="DejaVuSans-20" transform="scale(0.015625)"/>
       <path d="M 3513 2113 
L 3513 0 
L 2938 0 
L 2938 2094 
Q 2938 2591 2744 2837 
Q 2550 3084 2163 3084 
Q 1697 3084 1428 2787 
Q 1159 2491 1159 1978 
L 1159 0 
L 581 0 
L 581 3500 
L 1159 3500 
L 1159 2956 
Q 1366 3272 1645 3428 
Q 1925 3584 2291 3584 
Q 2894 3584 3203 3211 
Q 3513 2838 3513 2113 
z
" id="DejaVuSans-6e" transform="scale(0.015625)"/>
       <path d="M 3513 3500 
L 2247 1797 
L 3578 0 
L 2900 0 
L 1881 1375 
L 863 0 
L 184 0 
L 1544 1831 
L 300 3500 
L 978 3500 
L 1906 2253 
L 2834 3500 
L 3513 3500 
z
" id="DejaVuSans-78" transform="scale(0.015625)"/>
      </defs>
      <use xlink:href="#DejaVuSans-43"/>
      <use x="69.824219" xlink:href="#DejaVuSans-72"/>
      <use x="108.6875" xlink:href="#DejaVuSans-65"/>
      <use x="170.210938" xlink:href="#DejaVuSans-64"/>
      <use x="233.6875" xlink:href="#DejaVuSans-69"/>
      <use x="261.470703" xlink:href="#DejaVuSans-62"/>
      <use x="324.947266" xlink:href="#DejaVuSans-69"/>
      <use x="352.730469" xlink:href="#DejaVuSans-6c"/>
      <use x="380.513672" xlink:href="#DejaVuSans-69"/>
      <use x="408.296875" xlink:href="#DejaVuSans-74"/>
      <use x="447.505859" xlink:href="#DejaVuSans-79"/>
      <use x="506.685547" xlink:href="#DejaVuSans-20"/>
      <use x="538.472656" xlink:href="#DejaVuSans-69"/>
      <use x="566.255859" xlink:href="#DejaVuSans-6e"/>
      <use x="629.634766" xlink:href="#DejaVuSans-64"/>
      <use x="693.111328" xlink:href="#DejaVuSans-65"/>
      <use x="752.884766" xlink:href="#DejaVuSans-78"/>
     </g>
    </g>
   </g>
   <g id="matplotlib.axis_2">
    <g id="ytick_1">
     <g id="line2d_7">
      <defs>
       <path d="M 0 0 
L -3.5 0 
" id="m7fe786a761" style="stroke:#000000;stroke-width:0.8;"/>
      </defs>
      <g>
       <use style="stroke:#000000;stroke-width:0.8;" x="47.81" xlink:href="#m7fe786a761" y="303.64"/>
      </g>
     </g>
     <g id="text_8">
      <!-- 0.0 -->
      <g transform="translate(24.906875 307.439219)scale(0.1 -0.1)">
       <use xlink:href="#DejaVuSans-30"/>
       <use x="63.623047" xlink:href="#DejaVuSans-2e"/>
       <use x="95.410156" xlink:href="#DejaVuSans-30"/>
      </g>
     </g>
    </g>
    <g id="ytick_2">
     <g id="line2d_8">
      <g>
       <use style="stroke:#000000;stroke-width:0.8;" x="47.81" xlink:href="#m7fe786a761" y="246.566872"/>
      </g>
     </g>
     <g id="text_9">
      <!-- 0.5 -->
      <g transform="translate(24.906875 250.366091)scale(0.1 -0.1)">
       <defs>
        <path d="M 691 4666 
L 3169 4666 
L 3169 4134 
L 1269 4134 
L 1269 2991 
Q 1406 3038 1543 3061 
Q 1681 3084 1819 3084 
Q 2600 3084 3056 2656 
Q 3513 2228 3513 1497 
Q 3513 744 3044 326 
Q 2575 -91 1722 -91 
Q 1428 -91 1123 -41 
Q 819 9 494 109 
L 494 744 
Q 775 591 1075 516 
Q 1375 441 1709 441 
Q 2250 441 2565 725 
Q 2881 1009 2881 1497 
Q 2881 1984 2565 2268 
Q 2250 2553 1709 2553 
Q 1456 2553 1204 2497 
Q 953 2441 691 2322 
L 691 4666 
z
" id="DejaVuSans-35" transform="scale(0.015625)"/>
       </defs>
       <use xlink:href="#DejaVuSans-30"/>
       <use x="63.623047" xlink:href="#DejaVuSans-2e"/>
       <use x="95.410156" xlink:href="#DejaVuSans-35"/>
      </g>
     </g>
    </g>
    <g id="ytick_3">
     <g id="line2d_9">
      <g>
       <use style="stroke:#000000;stroke-width:0.8;" x="47.81" xlink:href="#m7fe786a761" y="189.493744"/>
      </g>
     </g>
     <g id="text_10">
      <!-- 1.0 -->
      <g transform="translate(24.906875 193.292963)scale(0.1 -0.1)">
       <use xlink:href="#DejaVuSans-31"/>
       <use x="63.623047" xlink:href="#DejaVuSans-2e"/>
       <use x="95.410156" xlink:href="#DejaVuSans-30"/>
      </g>
     </g>
    </g>
    <g id="ytick_4">
     <g id="line2d_10">
      <g>
       <use style="stroke:#000000;stroke-width:0.8;" x="47.81" xlink:href="#m7fe786a761" y="132.420616"/>
      </g>
     </g>
     <g id="text_11">
      <!-- 1.5 -->
      <g transform="translate(24.906875 136.219835)scale(0.1 -0.1)">
       <use xlink:href="#DejaVuSans-31"/>
       <use x="63.623047" xlink:href="#DejaVuSans-2e"/>
       <use x="95.410156" xlink:href="#DejaVuSans-35"/>
      </g>
     </g>
    </g>
    <g id="ytick_5">
     <g id="line2d_11">
      <g>
       <use style="stroke:#000000;stroke-width:0.8;" x="47.81" xlink:href="#m7fe786a761" y="75.347488"/>
      </g>
     </g>
     <g id="text_12">
      <!-- 2.0 -->
      <g transform="translate(24.906875 79.146707)scale(0.1 -0.1)">
       <use xlink:href="#DejaVuSans-32"/>
       <use x="63.623047" xlink:href="#DejaVuSans-2e"/>
       <use x="95.410156" xlink:href="#DejaVuSans-30"/>
      </g>
     </g>
    </g>
    <g id="text_13">
     <!-- Density -->
     <g transform="translate(18.827187 189.812594)rotate(-90)scale(0.1 -0.1)">
      <defs>
       <path d="M 1259 4147 
L 1259 519 
L 2022 519 
Q 2988 519 3436 956 
Q 3884 1394 3884 2338 
Q 3884 3275 3436 3711 
Q 2988 4147 2022 4147 
L 1259 4147 
z
M 628 4666 
L 1925 4666 
Q 3281 4666 3915 4102 
Q 4550 3538 4550 2338 
Q 4550 1131 3912 565 
Q 3275 0 1925 0 
L 628 0 
L 628 4666 
z
" id="DejaVuSans-44" transform="scale(0.015625)"/>
       <path d="M 2834 3397 
L 2834 2853 
Q 2591 2978 2328 3040 
Q 2066 3103 1784 3103 
Q 1356 3103 1142 2972 
Q 928 2841 928 2578 
Q 928 2378 1081 2264 
Q 1234 2150 1697 2047 
L 1894 2003 
Q 2506 1872 2764 1633 
Q 3022 1394 3022 966 
Q 3022 478 2636 193 
Q 2250 -91 1575 -91 
Q 1294 -91 989 -36 
Q 684 19 347 128 
L 347 722 
Q 666 556 975 473 
Q 1284 391 1588 391 
Q 1994 391 2212 530 
Q 2431 669 2431 922 
Q 2431 1156 2273 1281 
Q 2116 1406 1581 1522 
L 1381 1569 
Q 847 1681 609 1914 
Q 372 2147 372 2553 
Q 372 3047 722 3315 
Q 1072 3584 1716 3584 
Q 2034 3584 2315 3537 
Q 2597 3491 2834 3397 
z
" id="DejaVuSans-73" transform="scale(0.015625)"/>
      </defs>
      <use xlink:href="#DejaVuSans-44"/>
      <use x="77.001953" xlink:href="#DejaVuSans-65"/>
      <use x="138.525391" xlink:href="#DejaVuSans-6e"/>
      <use x="201.904297" xlink:href="#DejaVuSans-73"/>
      <use x="254.003906" xlink:href="#DejaVuSans-69"/>
      <use x="281.787109" xlink:href="#DejaVuSans-74"/>
      <use x="320.996094" xlink:href="#DejaVuSans-79"/>
     </g>
    </g>
   </g>
   <g id="patch_3">
    <path d="M 47.81 303.64 
L 47.81 37.968 
" style="fill:none;stroke:#000000;stroke-linecap:square;stroke-linejoin:miter;stroke-width:0.8;"/>
   </g>
   <g id="patch_4">
    <path d="M 442.035 303.64 
L 442.035 37.968 
" style="fill:none;stroke:#000000;stroke-linecap:square;stroke-linejoin:miter;stroke-width:0.8;"/>
   </g>
   <g id="patch_5">
    <path d="M 47.81 303.64 
L 442.035 303.64 
" style="fill:none;stroke:#000000;stroke-linecap:square;stroke-linejoin:miter;stroke-width:0.8;"/>
   </g>
   <g id="patch_6">
    <path d="M 47.81 37.968 
L 442.035 37.968 
" style="fill:none;stroke:#000000;stroke-linecap:square;stroke-linejoin:miter;stroke-width:0.8;"/>
   </g>
   <g id="text_14">
    <!-- Credibility index consensus vs non consensus  -->
    <g transform="translate(105.81625 18.530625)scale(0.12 -0.12)">
     <defs>
      <path d="M 3122 3366 
L 3122 2828 
Q 2878 2963 2633 3030 
Q 2388 3097 2138 3097 
Q 1578 3097 1268 2742 
Q 959 2388 959 1747 
Q 959 1106 1268 751 
Q 1578 397 2138 397 
Q 2388 397 2633 464 
Q 2878 531 3122 666 
L 3122 134 
Q 2881 22 2623 -34 
Q 2366 -91 2075 -91 
Q 1284 -91 818 406 
Q 353 903 353 1747 
Q 353 2603 823 3093 
Q 1294 3584 2113 3584 
Q 2378 3584 2631 3529 
Q 2884 3475 3122 3366 
z
" id="DejaVuSans-63" transform="scale(0.015625)"/>
      <path d="M 1959 3097 
Q 1497 3097 1228 2736 
Q 959 2375 959 1747 
Q 959 1119 1226 758 
Q 1494 397 1959 397 
Q 2419 397 2687 759 
Q 2956 1122 2956 1747 
Q 2956 2369 2687 2733 
Q 2419 3097 1959 3097 
z
M 1959 3584 
Q 2709 3584 3137 3096 
Q 3566 2609 3566 1747 
Q 3566 888 3137 398 
Q 2709 -91 1959 -91 
Q 1206 -91 779 398 
Q 353 888 353 1747 
Q 353 2609 779 3096 
Q 1206 3584 1959 3584 
z
" id="DejaVuSans-6f" transform="scale(0.015625)"/>
      <path d="M 544 1381 
L 544 3500 
L 1119 3500 
L 1119 1403 
Q 1119 906 1312 657 
Q 1506 409 1894 409 
Q 2359 409 2629 706 
Q 2900 1003 2900 1516 
L 2900 3500 
L 3475 3500 
L 3475 0 
L 2900 0 
L 2900 538 
Q 2691 219 2414 64 
Q 2138 -91 1772 -91 
Q 1169 -91 856 284 
Q 544 659 544 1381 
z
M 1991 3584 
L 1991 3584 
z
" id="DejaVuSans-75" transform="scale(0.015625)"/>
      <path d="M 191 3500 
L 800 3500 
L 1894 563 
L 2988 3500 
L 3597 3500 
L 2284 0 
L 1503 0 
L 191 3500 
z
" id="DejaVuSans-76" transform="scale(0.015625)"/>
     </defs>
     <use xlink:href="#DejaVuSans-43"/>
     <use x="69.824219" xlink:href="#DejaVuSans-72"/>
     <use x="108.6875" xlink:href="#DejaVuSans-65"/>
     <use x="170.210938" xlink:href="#DejaVuSans-64"/>
     <use x="233.6875" xlink:href="#DejaVuSans-69"/>
     <use x="261.470703" xlink:href="#DejaVuSans-62"/>
     <use x="324.947266" xlink:href="#DejaVuSans-69"/>
     <use x="352.730469" xlink:href="#DejaVuSans-6c"/>
     <use x="380.513672" xlink:href="#DejaVuSans-69"/>
     <use x="408.296875" xlink:href="#DejaVuSans-74"/>
     <use x="447.505859" xlink:href="#DejaVuSans-79"/>
     <use x="506.685547" xlink:href="#DejaVuSans-20"/>
     <use x="538.472656" xlink:href="#DejaVuSans-69"/>
     <use x="566.255859" xlink:href="#DejaVuSans-6e"/>
     <use x="629.634766" xlink:href="#DejaVuSans-64"/>
     <use x="693.111328" xlink:href="#DejaVuSans-65"/>
     <use x="752.884766" xlink:href="#DejaVuSans-78"/>
     <use x="812.064453" xlink:href="#DejaVuSans-20"/>
     <use x="843.851562" xlink:href="#DejaVuSans-63"/>
     <use x="898.832031" xlink:href="#DejaVuSans-6f"/>
     <use x="960.013672" xlink:href="#DejaVuSans-6e"/>
     <use x="1023.392578" xlink:href="#DejaVuSans-73"/>
     <use x="1075.492188" xlink:href="#DejaVuSans-65"/>
     <use x="1137.015625" xlink:href="#DejaVuSans-6e"/>
     <use x="1200.394531" xlink:href="#DejaVuSans-73"/>
     <use x="1252.494141" xlink:href="#DejaVuSans-75"/>
     <use x="1315.873047" xlink:href="#DejaVuSans-73"/>
     <use x="1367.972656" xlink:href="#DejaVuSans-20"/>
     <use x="1399.759766" xlink:href="#DejaVuSans-76"/>
     <use x="1458.939453" xlink:href="#DejaVuSans-73"/>
     <use x="1511.039062" xlink:href="#DejaVuSans-20"/>
     <use x="1542.826172" xlink:href="#DejaVuSans-6e"/>
     <use x="1606.205078" xlink:href="#DejaVuSans-6f"/>
     <use x="1667.386719" xlink:href="#DejaVuSans-6e"/>
     <use x="1730.765625" xlink:href="#DejaVuSans-20"/>
     <use x="1762.552734" xlink:href="#DejaVuSans-63"/>
     <use x="1817.533203" xlink:href="#DejaVuSans-6f"/>
     <use x="1878.714844" xlink:href="#DejaVuSans-6e"/>
     <use x="1942.09375" xlink:href="#DejaVuSans-73"/>
     <use x="1994.193359" xlink:href="#DejaVuSans-65"/>
     <use x="2055.716797" xlink:href="#DejaVuSans-6e"/>
     <use x="2119.095703" xlink:href="#DejaVuSans-73"/>
     <use x="2171.195312" xlink:href="#DejaVuSans-75"/>
     <use x="2234.574219" xlink:href="#DejaVuSans-73"/>
     <use x="2286.673828" xlink:href="#DejaVuSans-20"/>
    </g>
    <!-- Set s3 -->
    <g transform="translate(226.219375 31.968)scale(0.12 -0.12)">
     <defs>
      <path d="M 3425 4513 
L 3425 3897 
Q 3066 4069 2747 4153 
Q 2428 4238 2131 4238 
Q 1616 4238 1336 4038 
Q 1056 3838 1056 3469 
Q 1056 3159 1242 3001 
Q 1428 2844 1947 2747 
L 2328 2669 
Q 3034 2534 3370 2195 
Q 3706 1856 3706 1288 
Q 3706 609 3251 259 
Q 2797 -91 1919 -91 
Q 1588 -91 1214 -16 
Q 841 59 441 206 
L 441 856 
Q 825 641 1194 531 
Q 1563 422 1919 422 
Q 2459 422 2753 634 
Q 3047 847 3047 1241 
Q 3047 1584 2836 1778 
Q 2625 1972 2144 2069 
L 1759 2144 
Q 1053 2284 737 2584 
Q 422 2884 422 3419 
Q 422 4038 858 4394 
Q 1294 4750 2059 4750 
Q 2388 4750 2728 4690 
Q 3069 4631 3425 4513 
z
" id="DejaVuSans-53" transform="scale(0.015625)"/>
      <path d="M 2597 2516 
Q 3050 2419 3304 2112 
Q 3559 1806 3559 1356 
Q 3559 666 3084 287 
Q 2609 -91 1734 -91 
Q 1441 -91 1130 -33 
Q 819 25 488 141 
L 488 750 
Q 750 597 1062 519 
Q 1375 441 1716 441 
Q 2309 441 2620 675 
Q 2931 909 2931 1356 
Q 2931 1769 2642 2001 
Q 2353 2234 1838 2234 
L 1294 2234 
L 1294 2753 
L 1863 2753 
Q 2328 2753 2575 2939 
Q 2822 3125 2822 3475 
Q 2822 3834 2567 4026 
Q 2313 4219 1838 4219 
Q 1578 4219 1281 4162 
Q 984 4106 628 3988 
L 628 4550 
Q 988 4650 1302 4700 
Q 1616 4750 1894 4750 
Q 2613 4750 3031 4423 
Q 3450 4097 3450 3541 
Q 3450 3153 3228 2886 
Q 3006 2619 2597 2516 
z
" id="DejaVuSans-33" transform="scale(0.015625)"/>
     </defs>
     <use xlink:href="#DejaVuSans-53"/>
     <use x="63.476562" xlink:href="#DejaVuSans-65"/>
     <use x="125" xlink:href="#DejaVuSans-74"/>
     <use x="164.208984" xlink:href="#DejaVuSans-20"/>
     <use x="195.996094" xlink:href="#DejaVuSans-73"/>
     <use x="248.095703" xlink:href="#DejaVuSans-33"/>
    </g>
   </g>
   <g id="legend_1">
    <g id="patch_7">
     <path d="M 54.81 97.719875 
L 225.352188 97.719875 
Q 227.352188 97.719875 227.352188 95.719875 
L 227.352188 44.968 
Q 227.352188 42.968 225.352188 42.968 
L 54.81 42.968 
Q 52.81 42.968 52.81 44.968 
L 52.81 95.719875 
Q 52.81 97.719875 54.81 97.719875 
z
" style="fill:#ffffff;opacity:0.8;stroke:#cccccc;stroke-linejoin:miter;"/>
    </g>
    <g id="patch_8">
     <path d="M 56.81 61.205188 
L 76.81 61.205188 
L 76.81 54.205188 
L 56.81 54.205188 
z
" style="fill:#1f77b4;fill-opacity:0.4;stroke:#1f77b4;stroke-linejoin:miter;"/>
    </g>
    <g id="text_15">
     <!-- Correlation higher than 0  -->
     <g transform="translate(84.81 54.566438)scale(0.1 -0.1)">
      <defs>
       <path d="M 2194 1759 
Q 1497 1759 1228 1600 
Q 959 1441 959 1056 
Q 959 750 1161 570 
Q 1363 391 1709 391 
Q 2188 391 2477 730 
Q 2766 1069 2766 1631 
L 2766 1759 
L 2194 1759 
z
M 3341 1997 
L 3341 0 
L 2766 0 
L 2766 531 
Q 2569 213 2275 61 
Q 1981 -91 1556 -91 
Q 1019 -91 701 211 
Q 384 513 384 1019 
Q 384 1609 779 1909 
Q 1175 2209 1959 2209 
L 2766 2209 
L 2766 2266 
Q 2766 2663 2505 2880 
Q 2244 3097 1772 3097 
Q 1472 3097 1187 3025 
Q 903 2953 641 2809 
L 641 3341 
Q 956 3463 1253 3523 
Q 1550 3584 1831 3584 
Q 2591 3584 2966 3190 
Q 3341 2797 3341 1997 
z
" id="DejaVuSans-61" transform="scale(0.015625)"/>
       <path d="M 3513 2113 
L 3513 0 
L 2938 0 
L 2938 2094 
Q 2938 2591 2744 2837 
Q 2550 3084 2163 3084 
Q 1697 3084 1428 2787 
Q 1159 2491 1159 1978 
L 1159 0 
L 581 0 
L 581 4863 
L 1159 4863 
L 1159 2956 
Q 1366 3272 1645 3428 
Q 1925 3584 2291 3584 
Q 2894 3584 3203 3211 
Q 3513 2838 3513 2113 
z
" id="DejaVuSans-68" transform="scale(0.015625)"/>
       <path d="M 2906 1791 
Q 2906 2416 2648 2759 
Q 2391 3103 1925 3103 
Q 1463 3103 1205 2759 
Q 947 2416 947 1791 
Q 947 1169 1205 825 
Q 1463 481 1925 481 
Q 2391 481 2648 825 
Q 2906 1169 2906 1791 
z
M 3481 434 
Q 3481 -459 3084 -895 
Q 2688 -1331 1869 -1331 
Q 1566 -1331 1297 -1286 
Q 1028 -1241 775 -1147 
L 775 -588 
Q 1028 -725 1275 -790 
Q 1522 -856 1778 -856 
Q 2344 -856 2625 -561 
Q 2906 -266 2906 331 
L 2906 616 
Q 2728 306 2450 153 
Q 2172 0 1784 0 
Q 1141 0 747 490 
Q 353 981 353 1791 
Q 353 2603 747 3093 
Q 1141 3584 1784 3584 
Q 2172 3584 2450 3431 
Q 2728 3278 2906 2969 
L 2906 3500 
L 3481 3500 
L 3481 434 
z
" id="DejaVuSans-67" transform="scale(0.015625)"/>
      </defs>
      <use xlink:href="#DejaVuSans-43"/>
      <use x="69.824219" xlink:href="#DejaVuSans-6f"/>
      <use x="131.005859" xlink:href="#DejaVuSans-72"/>
      <use x="170.369141" xlink:href="#DejaVuSans-72"/>
      <use x="209.232422" xlink:href="#DejaVuSans-65"/>
      <use x="270.755859" xlink:href="#DejaVuSans-6c"/>
      <use x="298.539062" xlink:href="#DejaVuSans-61"/>
      <use x="359.818359" xlink:href="#DejaVuSans-74"/>
      <use x="399.027344" xlink:href="#DejaVuSans-69"/>
      <use x="426.810547" xlink:href="#DejaVuSans-6f"/>
      <use x="487.992188" xlink:href="#DejaVuSans-6e"/>
      <use x="551.371094" xlink:href="#DejaVuSans-20"/>
      <use x="583.158203" xlink:href="#DejaVuSans-68"/>
      <use x="646.537109" xlink:href="#DejaVuSans-69"/>
      <use x="674.320312" xlink:href="#DejaVuSans-67"/>
      <use x="737.796875" xlink:href="#DejaVuSans-68"/>
      <use x="801.175781" xlink:href="#DejaVuSans-65"/>
      <use x="862.699219" xlink:href="#DejaVuSans-72"/>
      <use x="903.8125" xlink:href="#DejaVuSans-20"/>
      <use x="935.599609" xlink:href="#DejaVuSans-74"/>
      <use x="974.808594" xlink:href="#DejaVuSans-68"/>
      <use x="1038.1875" xlink:href="#DejaVuSans-61"/>
      <use x="1099.466797" xlink:href="#DejaVuSans-6e"/>
      <use x="1162.845703" xlink:href="#DejaVuSans-20"/>
      <use x="1194.632812" xlink:href="#DejaVuSans-30"/>
      <use x="1258.255859" xlink:href="#DejaVuSans-20"/>
     </g>
     <!-- n=352 -->
     <g transform="translate(84.81 65.76425)scale(0.1 -0.1)">
      <defs>
       <path d="M 678 2906 
L 4684 2906 
L 4684 2381 
L 678 2381 
L 678 2906 
z
M 678 1631 
L 4684 1631 
L 4684 1100 
L 678 1100 
L 678 1631 
z
" id="DejaVuSans-3d" transform="scale(0.015625)"/>
      </defs>
      <use xlink:href="#DejaVuSans-6e"/>
      <use x="63.378906" xlink:href="#DejaVuSans-3d"/>
      <use x="147.167969" xlink:href="#DejaVuSans-33"/>
      <use x="210.791016" xlink:href="#DejaVuSans-35"/>
      <use x="274.414062" xlink:href="#DejaVuSans-32"/>
     </g>
    </g>
    <g id="patch_9">
     <path d="M 56.81 87.081125 
L 76.81 87.081125 
L 76.81 80.081125 
L 56.81 80.081125 
z
" style="fill:#ff7f0e;fill-opacity:0.4;stroke:#ff7f0e;stroke-linejoin:miter;"/>
    </g>
    <g id="text_16">
     <!-- Correlation higher than 0.8  -->
     <g transform="translate(84.81 80.442375)scale(0.1 -0.1)">
      <use xlink:href="#DejaVuSans-43"/>
      <use x="69.824219" xlink:href="#DejaVuSans-6f"/>
      <use x="131.005859" xlink:href="#DejaVuSans-72"/>
      <use x="170.369141" xlink:href="#DejaVuSans-72"/>
      <use x="209.232422" xlink:href="#DejaVuSans-65"/>
      <use x="270.755859" xlink:href="#DejaVuSans-6c"/>
      <use x="298.539062" xlink:href="#DejaVuSans-61"/>
      <use x="359.818359" xlink:href="#DejaVuSans-74"/>
      <use x="399.027344" xlink:href="#DejaVuSans-69"/>
      <use x="426.810547" xlink:href="#DejaVuSans-6f"/>
      <use x="487.992188" xlink:href="#DejaVuSans-6e"/>
      <use x="551.371094" xlink:href="#DejaVuSans-20"/>
      <use x="583.158203" xlink:href="#DejaVuSans-68"/>
      <use x="646.537109" xlink:href="#DejaVuSans-69"/>
      <use x="674.320312" xlink:href="#DejaVuSans-67"/>
      <use x="737.796875" xlink:href="#DejaVuSans-68"/>
      <use x="801.175781" xlink:href="#DejaVuSans-65"/>
      <use x="862.699219" xlink:href="#DejaVuSans-72"/>
      <use x="903.8125" xlink:href="#DejaVuSans-20"/>
      <use x="935.599609" xlink:href="#DejaVuSans-74"/>
      <use x="974.808594" xlink:href="#DejaVuSans-68"/>
      <use x="1038.1875" xlink:href="#DejaVuSans-61"/>
      <use x="1099.466797" xlink:href="#DejaVuSans-6e"/>
      <use x="1162.845703" xlink:href="#DejaVuSans-20"/>
      <use x="1194.632812" xlink:href="#DejaVuSans-30"/>
      <use x="1258.255859" xlink:href="#DejaVuSans-2e"/>
      <use x="1290.042969" xlink:href="#DejaVuSans-38"/>
      <use x="1353.666016" xlink:href="#DejaVuSans-20"/>
     </g>
     <!-- n=4 -->
     <g transform="translate(84.81 91.640187)scale(0.1 -0.1)">
      <use xlink:href="#DejaVuSans-6e"/>
      <use x="63.378906" xlink:href="#DejaVuSans-3d"/>
      <use x="147.167969" xlink:href="#DejaVuSans-34"/>
     </g>
    </g>
   </g>
  </g>
 </g>
 <defs>
  <clipPath id="p03a5b13f51">
   <rect height="265.672" width="394.225" x="47.81" y="37.968"/>
  </clipPath>
 </defs>
</svg>
