<?xml version="1.0" encoding="utf-8" standalone="no"?>
<!DOCTYPE svg PUBLIC "-//W3C//DTD SVG 1.1//EN"
  "http://www.w3.org/Graphics/SVG/1.1/DTD/svg11.dtd">
<svg height="345.6pt" version="1.1" viewBox="0 0 460.8 345.6" width="460.8pt" xmlns="http://www.w3.org/2000/svg" xmlns:xlink="http://www.w3.org/1999/xlink">
 <metadata>
  <rdf:RDF xmlns:cc="http://creativecommons.org/ns#" xmlns:dc="http://purl.org/dc/elements/1.1/" xmlns:rdf="http://www.w3.org/1999/02/22-rdf-syntax-ns#">
   <cc:Work>
    <dc:type rdf:resource="http://purl.org/dc/dcmitype/StillImage"/>
    <dc:date>2021-11-24T22:50:17.153047</dc:date>
    <dc:format>image/svg+xml</dc:format>
    <dc:creator>
     <cc:Agent>
      <dc:title>Matplotlib v3.4.3, https://matplotlib.org/</dc:title>
     </cc:Agent>
    </dc:creator>
   </cc:Work>
  </rdf:RDF>
 </metadata>
 <defs>
  <style type="text/css">*{stroke-linecap:butt;stroke-linejoin:round;}</style>
 </defs>
 <g id="figure_1">
  <g id="patch_1">
   <path d="M 0 345.6 
L 460.8 345.6 
L 460.8 0 
L 0 0 
z
" style="fill:#ffffff;"/>
  </g>
  <g id="axes_1">
   <g id="patch_2">
    <path d="M 38.27 303.64 
L 442.035 303.64 
L 442.035 37.968 
L 38.27 37.968 
z
" style="fill:#ffffff;"/>
   </g>
   <g id="PolyCollection_1">
    <path clip-path="url(#p34f5f9073e)" d="M -25.81628 303.541756 
L -25.81628 303.64 
L -22.89975 303.64 
L -19.983221 303.64 
L -17.066691 303.64 
L -14.150162 303.64 
L -11.233633 303.64 
L -8.317103 303.64 
L -5.400574 303.64 
L -2.484044 303.64 
L 0.432485 303.64 
L 3.349015 303.64 
L 6.265544 303.64 
L 9.182074 303.64 
L 12.098603 303.64 
L 15.015132 303.64 
L 17.931662 303.64 
L 20.848191 303.64 
L 23.764721 303.64 
L 26.68125 303.64 
L 29.59778 303.64 
L 32.514309 303.64 
L 35.430839 303.64 
L 38.347368 303.64 
L 41.263897 303.64 
L 44.180427 303.64 
L 47.096956 303.64 
L 50.013486 303.64 
L 52.930015 303.64 
L 55.846545 303.64 
L 58.763074 303.64 
L 61.679604 303.64 
L 64.596133 303.64 
L 67.512662 303.64 
L 70.429192 303.64 
L 73.345721 303.64 
L 76.262251 303.64 
L 79.17878 303.64 
L 82.09531 303.64 
L 85.011839 303.64 
L 87.928369 303.64 
L 90.844898 303.64 
L 93.761427 303.64 
L 96.677957 303.64 
L 99.594486 303.64 
L 102.511016 303.64 
L 105.427545 303.64 
L 108.344075 303.64 
L 111.260604 303.64 
L 114.177134 303.64 
L 117.093663 303.64 
L 120.010192 303.64 
L 122.926722 303.64 
L 125.843251 303.64 
L 128.759781 303.64 
L 131.67631 303.64 
L 134.59284 303.64 
L 137.509369 303.64 
L 140.425899 303.64 
L 143.342428 303.64 
L 146.258957 303.64 
L 149.175487 303.64 
L 152.092016 303.64 
L 155.008546 303.64 
L 157.925075 303.64 
L 160.841605 303.64 
L 163.758134 303.64 
L 166.674664 303.64 
L 169.591193 303.64 
L 172.507722 303.64 
L 175.424252 303.64 
L 178.340781 303.64 
L 181.257311 303.64 
L 184.17384 303.64 
L 187.09037 303.64 
L 190.006899 303.64 
L 192.923429 303.64 
L 195.839958 303.64 
L 198.756487 303.64 
L 201.673017 303.64 
L 204.589546 303.64 
L 207.506076 303.64 
L 210.422605 303.64 
L 213.339135 303.64 
L 216.255664 303.64 
L 219.172194 303.64 
L 222.088723 303.64 
L 225.005252 303.64 
L 227.921782 303.64 
L 230.838311 303.64 
L 233.754841 303.64 
L 236.67137 303.64 
L 239.5879 303.64 
L 242.504429 303.64 
L 245.420959 303.64 
L 248.337488 303.64 
L 251.254017 303.64 
L 254.170547 303.64 
L 257.087076 303.64 
L 260.003606 303.64 
L 262.920135 303.64 
L 265.836665 303.64 
L 268.753194 303.64 
L 271.669724 303.64 
L 274.586253 303.64 
L 277.502783 303.64 
L 280.419312 303.64 
L 283.335841 303.64 
L 286.252371 303.64 
L 289.1689 303.64 
L 292.08543 303.64 
L 295.001959 303.64 
L 297.918489 303.64 
L 300.835018 303.64 
L 303.751548 303.64 
L 306.668077 303.64 
L 309.584606 303.64 
L 312.501136 303.64 
L 315.417665 303.64 
L 318.334195 303.64 
L 321.250724 303.64 
L 324.167254 303.64 
L 327.083783 303.64 
L 330.000313 303.64 
L 332.916842 303.64 
L 335.833371 303.64 
L 338.749901 303.64 
L 341.66643 303.64 
L 344.58296 303.64 
L 347.499489 303.64 
L 350.416019 303.64 
L 353.332548 303.64 
L 356.249078 303.64 
L 359.165607 303.64 
L 362.082136 303.64 
L 364.998666 303.64 
L 367.915195 303.64 
L 370.831725 303.64 
L 373.748254 303.64 
L 376.664784 303.64 
L 379.581313 303.64 
L 382.497843 303.64 
L 385.414372 303.64 
L 388.330901 303.64 
L 391.247431 303.64 
L 394.16396 303.64 
L 397.08049 303.64 
L 399.997019 303.64 
L 402.913549 303.64 
L 405.830078 303.64 
L 408.746608 303.64 
L 411.663137 303.64 
L 414.579666 303.64 
L 417.496196 303.64 
L 420.412725 303.64 
L 423.329255 303.64 
L 426.245784 303.64 
L 429.162314 303.64 
L 432.078843 303.64 
L 434.995373 303.64 
L 437.911902 303.64 
L 440.828431 303.64 
L 443.744961 303.64 
L 446.66149 303.64 
L 449.57802 303.64 
L 452.494549 303.64 
L 455.411079 303.64 
L 458.327608 303.64 
L 461.244138 303.64 
L 464.160667 303.64 
L 467.077196 303.64 
L 469.993726 303.64 
L 472.910255 303.64 
L 475.826785 303.64 
L 478.743314 303.64 
L 481.659844 303.64 
L 484.576373 303.64 
L 487.492903 303.64 
L 490.409432 303.64 
L 493.325961 303.64 
L 496.242491 303.64 
L 499.15902 303.64 
L 502.07555 303.64 
L 504.992079 303.64 
L 507.908609 303.64 
L 510.825138 303.64 
L 513.741668 303.64 
L 516.658197 303.64 
L 519.574726 303.64 
L 522.491256 303.64 
L 525.407785 303.64 
L 528.324315 303.64 
L 531.240844 303.64 
L 534.157374 303.64 
L 537.073903 303.64 
L 539.990433 303.64 
L 542.906962 303.64 
L 545.823491 303.64 
L 548.740021 303.64 
L 551.65655 303.64 
L 554.57308 303.64 
L 554.57308 302.864701 
L 554.57308 302.864701 
L 551.65655 302.661071 
L 548.740021 302.411265 
L 545.823491 302.106821 
L 542.906962 301.738231 
L 539.990433 301.294935 
L 537.073903 300.765336 
L 534.157374 300.136863 
L 531.240844 299.396073 
L 528.324315 298.528804 
L 525.407785 297.520383 
L 522.491256 296.355888 
L 519.574726 295.020477 
L 516.658197 293.499766 
L 513.741668 291.780262 
L 510.825138 289.84985 
L 507.908609 287.698311 
L 504.992079 285.31786 
L 502.07555 282.703698 
L 499.15902 279.854548 
L 496.242491 276.773153 
L 493.325961 273.466724 
L 490.409432 269.947298 
L 487.492903 266.231997 
L 484.576373 262.343162 
L 481.659844 258.30834 
L 478.743314 254.160112 
L 475.826785 249.935761 
L 472.910255 245.676759 
L 469.993726 241.428106 
L 467.077196 237.237495 
L 464.160667 233.154364 
L 461.244138 229.228823 
L 458.327608 225.510517 
L 455.411079 222.047438 
L 452.494549 218.884749 
L 449.57802 216.06364 
L 446.66149 213.620275 
L 443.744961 211.584858 
L 440.828431 209.980855 
L 437.911902 208.82441 
L 434.995373 208.123962 
L 432.078843 207.880092 
L 429.162314 208.085589 
L 426.245784 208.72575 
L 423.329255 209.778878 
L 420.412725 211.216978 
L 417.496196 213.006603 
L 414.579666 215.109833 
L 411.663137 217.485336 
L 408.746608 220.089478 
L 405.830078 222.877441 
L 402.913549 225.804307 
L 399.997019 228.826073 
L 397.08049 231.900577 
L 394.16396 234.988292 
L 391.247431 238.052982 
L 388.330901 241.062213 
L 385.414372 243.987696 
L 382.497843 246.805486 
L 379.581313 249.496026 
L 376.664784 252.044064 
L 373.748254 254.438453 
L 370.831725 256.671849 
L 367.915195 258.740348 
L 364.998666 260.643055 
L 362.082136 262.38164 
L 359.165607 263.959878 
L 356.249078 265.383199 
L 353.332548 266.658271 
L 350.416019 267.792614 
L 347.499489 268.794274 
L 344.58296 269.671543 
L 341.66643 270.432739 
L 338.749901 271.086045 
L 335.833371 271.6394 
L 332.916842 272.10044 
L 330.000313 272.476477 
L 327.083783 272.774512 
L 324.167254 273.001272 
L 321.250724 273.163265 
L 318.334195 273.266832 
L 315.417665 273.31821 
L 312.501136 273.323575 
L 309.584606 273.289079 
L 306.668077 273.22087 
L 303.751548 273.125087 
L 300.835018 273.007845 
L 297.918489 272.875192 
L 295.001959 272.733058 
L 292.08543 272.587186 
L 289.1689 272.443055 
L 286.252371 272.305798 
L 283.335841 272.180126 
L 280.419312 272.070244 
L 277.502783 271.979784 
L 274.586253 271.911754 
L 271.669724 271.868487 
L 268.753194 271.851624 
L 265.836665 271.862101 
L 262.920135 271.900161 
L 260.003606 271.965382 
L 257.087076 272.056722 
L 254.170547 272.172576 
L 251.254017 272.310848 
L 248.337488 272.469027 
L 245.420959 272.644276 
L 242.504429 272.833517 
L 239.5879 273.033522 
L 236.67137 273.240995 
L 233.754841 273.452656 
L 230.838311 273.665312 
L 227.921782 273.875917 
L 225.005252 274.081632 
L 222.088723 274.279862 
L 219.172194 274.468286 
L 216.255664 274.644878 
L 213.339135 274.807916 
L 210.422605 274.955977 
L 207.506076 275.087926 
L 204.589546 275.202903 
L 201.673017 275.300298 
L 198.756487 275.379725 
L 195.839958 275.440998 
L 192.923429 275.484105 
L 190.006899 275.509187 
L 187.09037 275.516527 
L 184.17384 275.506533 
L 181.257311 275.479746 
L 178.340781 275.436842 
L 175.424252 275.378657 
L 172.507722 275.306205 
L 169.591193 275.220718 
L 166.674664 275.123684 
L 163.758134 275.01689 
L 160.841605 274.902463 
L 157.925075 274.782917 
L 155.008546 274.661183 
L 152.092016 274.540639 
L 149.175487 274.42512 
L 146.258957 274.318915 
L 143.342428 274.226746 
L 140.425899 274.153729 
L 137.509369 274.105304 
L 134.59284 274.087159 
L 131.67631 274.105119 
L 128.759781 274.165025 
L 125.843251 274.272601 
L 122.926722 274.433303 
L 120.010192 274.652166 
L 117.093663 274.933652 
L 114.177134 275.281503 
L 111.260604 275.698605 
L 108.344075 276.186869 
L 105.427545 276.747136 
L 102.511016 277.379109 
L 99.594486 278.08131 
L 96.677957 278.851076 
L 93.761427 279.684587 
L 90.844898 280.576922 
L 87.928369 281.522151 
L 85.011839 282.513458 
L 82.09531 283.543277 
L 79.17878 284.603462 
L 76.262251 285.685458 
L 73.345721 286.780493 
L 70.429192 287.879755 
L 67.512662 288.974583 
L 64.596133 290.056633 
L 61.679604 291.118038 
L 58.763074 292.151546 
L 55.846545 293.150633 
L 52.930015 294.109596 
L 50.013486 295.023615 
L 47.096956 295.88879 
L 44.180427 296.702153 
L 41.263897 297.461657 
L 38.347368 298.166139 
L 35.430839 298.815264 
L 32.514309 299.409462 
L 29.59778 299.949841 
L 26.68125 300.438099 
L 23.764721 300.876427 
L 20.848191 301.267418 
L 17.931662 301.613965 
L 15.015132 301.919176 
L 12.098603 302.186287 
L 9.182074 302.418585 
L 6.265544 302.619342 
L 3.349015 302.791758 
L 0.432485 302.938912 
L -2.484044 303.063725 
L -5.400574 303.168932 
L -8.317103 303.257065 
L -11.233633 303.330438 
L -14.150162 303.391148 
L -17.066691 303.44107 
L -19.983221 303.481868 
L -22.89975 303.515006 
L -25.81628 303.541756 
z
" style="fill:#1f77b4;fill-opacity:0.4;stroke:#1f77b4;"/>
   </g>
   <g id="PolyCollection_2">
    <defs>
     <path d="M 313.832391 -42.943045 
L 313.832391 -41.96 
L 314.796224 -41.96 
L 315.760057 -41.96 
L 316.72389 -41.96 
L 317.687724 -41.96 
L 318.651557 -41.96 
L 319.61539 -41.96 
L 320.579224 -41.96 
L 321.543057 -41.96 
L 322.50689 -41.96 
L 323.470723 -41.96 
L 324.434557 -41.96 
L 325.39839 -41.96 
L 326.362223 -41.96 
L 327.326056 -41.96 
L 328.28989 -41.96 
L 329.253723 -41.96 
L 330.217556 -41.96 
L 331.181389 -41.96 
L 332.145223 -41.96 
L 333.109056 -41.96 
L 334.072889 -41.96 
L 335.036722 -41.96 
L 336.000556 -41.96 
L 336.964389 -41.96 
L 337.928222 -41.96 
L 338.892055 -41.96 
L 339.855889 -41.96 
L 340.819722 -41.96 
L 341.783555 -41.96 
L 342.747388 -41.96 
L 343.711222 -41.96 
L 344.675055 -41.96 
L 345.638888 -41.96 
L 346.602722 -41.96 
L 347.566555 -41.96 
L 348.530388 -41.96 
L 349.494221 -41.96 
L 350.458055 -41.96 
L 351.421888 -41.96 
L 352.385721 -41.96 
L 353.349554 -41.96 
L 354.313388 -41.96 
L 355.277221 -41.96 
L 356.241054 -41.96 
L 357.204887 -41.96 
L 358.168721 -41.96 
L 359.132554 -41.96 
L 360.096387 -41.96 
L 361.06022 -41.96 
L 362.024054 -41.96 
L 362.987887 -41.96 
L 363.95172 -41.96 
L 364.915553 -41.96 
L 365.879387 -41.96 
L 366.84322 -41.96 
L 367.807053 -41.96 
L 368.770886 -41.96 
L 369.73472 -41.96 
L 370.698553 -41.96 
L 371.662386 -41.96 
L 372.62622 -41.96 
L 373.590053 -41.96 
L 374.553886 -41.96 
L 375.517719 -41.96 
L 376.481553 -41.96 
L 377.445386 -41.96 
L 378.409219 -41.96 
L 379.373052 -41.96 
L 380.336886 -41.96 
L 381.300719 -41.96 
L 382.264552 -41.96 
L 383.228385 -41.96 
L 384.192219 -41.96 
L 385.156052 -41.96 
L 386.119885 -41.96 
L 387.083718 -41.96 
L 388.047552 -41.96 
L 389.011385 -41.96 
L 389.975218 -41.96 
L 390.939051 -41.96 
L 391.902885 -41.96 
L 392.866718 -41.96 
L 393.830551 -41.96 
L 394.794384 -41.96 
L 395.758218 -41.96 
L 396.722051 -41.96 
L 397.685884 -41.96 
L 398.649718 -41.96 
L 399.613551 -41.96 
L 400.577384 -41.96 
L 401.541217 -41.96 
L 402.505051 -41.96 
L 403.468884 -41.96 
L 404.432717 -41.96 
L 405.39655 -41.96 
L 406.360384 -41.96 
L 407.324217 -41.96 
L 408.28805 -41.96 
L 409.251883 -41.96 
L 410.215717 -41.96 
L 411.17955 -41.96 
L 412.143383 -41.96 
L 413.107216 -41.96 
L 414.07105 -41.96 
L 415.034883 -41.96 
L 415.998716 -41.96 
L 416.962549 -41.96 
L 417.926383 -41.96 
L 418.890216 -41.96 
L 419.854049 -41.96 
L 420.817882 -41.96 
L 421.781716 -41.96 
L 422.745549 -41.96 
L 423.709382 -41.96 
L 424.673216 -41.96 
L 425.637049 -41.96 
L 426.600882 -41.96 
L 427.564715 -41.96 
L 428.528549 -41.96 
L 429.492382 -41.96 
L 430.456215 -41.96 
L 431.420048 -41.96 
L 432.383882 -41.96 
L 433.347715 -41.96 
L 434.311548 -41.96 
L 435.275381 -41.96 
L 436.239215 -41.96 
L 437.203048 -41.96 
L 438.166881 -41.96 
L 439.130714 -41.96 
L 440.094548 -41.96 
L 441.058381 -41.96 
L 442.022214 -41.96 
L 442.986047 -41.96 
L 443.949881 -41.96 
L 444.913714 -41.96 
L 445.877547 -41.96 
L 446.84138 -41.96 
L 447.805214 -41.96 
L 448.769047 -41.96 
L 449.73288 -41.96 
L 450.696714 -41.96 
L 451.660547 -41.96 
L 452.62438 -41.96 
L 453.588213 -41.96 
L 454.552047 -41.96 
L 455.51588 -41.96 
L 456.479713 -41.96 
L 457.443546 -41.96 
L 458.40738 -41.96 
L 459.371213 -41.96 
L 460.335046 -41.96 
L 461.298879 -41.96 
L 462.262713 -41.96 
L 463.226546 -41.96 
L 464.190379 -41.96 
L 465.154212 -41.96 
L 466.118046 -41.96 
L 467.081879 -41.96 
L 468.045712 -41.96 
L 469.009545 -41.96 
L 469.973379 -41.96 
L 470.937212 -41.96 
L 471.901045 -41.96 
L 472.864878 -41.96 
L 473.828712 -41.96 
L 474.792545 -41.96 
L 475.756378 -41.96 
L 476.720212 -41.96 
L 477.684045 -41.96 
L 478.647878 -41.96 
L 479.611711 -41.96 
L 480.575545 -41.96 
L 481.539378 -41.96 
L 482.503211 -41.96 
L 483.467044 -41.96 
L 484.430878 -41.96 
L 485.394711 -41.96 
L 486.358544 -41.96 
L 487.322377 -41.96 
L 488.286211 -41.96 
L 489.250044 -41.96 
L 490.213877 -41.96 
L 491.17771 -41.96 
L 492.141544 -41.96 
L 493.105377 -41.96 
L 494.06921 -41.96 
L 495.033043 -41.96 
L 495.996877 -41.96 
L 496.96071 -41.96 
L 497.924543 -41.96 
L 498.888376 -41.96 
L 499.85221 -41.96 
L 500.816043 -41.96 
L 501.779876 -41.96 
L 502.74371 -41.96 
L 503.707543 -41.96 
L 504.671376 -41.96 
L 505.635209 -41.96 
L 505.635209 -43.0925 
L 505.635209 -43.0925 
L 504.671376 -43.262688 
L 503.707543 -43.455569 
L 502.74371 -43.67371 
L 501.779876 -43.919906 
L 500.816043 -44.197182 
L 499.85221 -44.50881 
L 498.888376 -44.858313 
L 497.924543 -45.249472 
L 496.96071 -45.686336 
L 495.996877 -46.173223 
L 495.033043 -46.714723 
L 494.06921 -47.315696 
L 493.105377 -47.981273 
L 492.141544 -48.716849 
L 491.17771 -49.528072 
L 490.213877 -50.420834 
L 489.250044 -51.401257 
L 488.286211 -52.475666 
L 487.322377 -53.650577 
L 486.358544 -54.932657 
L 485.394711 -56.328703 
L 484.430878 -57.845597 
L 483.467044 -59.490269 
L 482.503211 -61.269649 
L 481.539378 -63.190619 
L 480.575545 -65.259955 
L 479.611711 -67.484269 
L 478.647878 -69.869947 
L 477.684045 -72.423077 
L 476.720212 -75.149384 
L 475.756378 -78.054152 
L 474.792545 -81.14215 
L 473.828712 -84.417553 
L 472.864878 -87.883861 
L 471.901045 -91.543823 
L 470.937212 -95.399354 
L 469.973379 -99.451458 
L 469.009545 -103.700153 
L 468.045712 -108.144396 
L 467.081879 -112.782014 
L 466.118046 -117.609643 
L 465.154212 -122.622669 
L 464.190379 -127.815176 
L 463.226546 -133.179906 
L 462.262713 -138.708225 
L 461.298879 -144.390104 
L 460.335046 -150.214101 
L 459.371213 -156.167369 
L 458.40738 -162.235662 
L 457.443546 -168.40337 
L 456.479713 -174.65355 
L 455.51588 -180.96799 
L 454.552047 -187.32727 
L 453.588213 -193.710851 
L 452.62438 -200.097171 
L 451.660547 -206.463757 
L 450.696714 -212.78735 
L 449.73288 -219.044045 
L 448.769047 -225.209441 
L 447.805214 -231.258802 
L 446.84138 -237.167228 
L 445.877547 -242.909839 
L 444.913714 -248.461955 
L 443.949881 -253.799294 
L 442.986047 -258.898165 
L 442.022214 -263.735661 
L 441.058381 -268.28986 
L 440.094548 -272.540016 
L 439.130714 -276.466745 
L 438.166881 -280.052207 
L 437.203048 -283.280274 
L 436.239215 -286.136694 
L 435.275381 -288.609232 
L 434.311548 -290.687803 
L 433.347715 -292.364579 
L 432.383882 -293.634088 
L 431.420048 -294.493284 
L 430.456215 -294.941595 
L 429.492382 -294.980952 
L 428.528549 -294.615795 
L 427.564715 -293.853046 
L 426.600882 -292.70207 
L 425.637049 -291.174605 
L 424.673216 -289.284663 
L 423.709382 -287.048421 
L 422.745549 -284.484079 
L 421.781716 -281.6117 
L 420.817882 -278.453033 
L 419.854049 -275.031318 
L 418.890216 -271.371073 
L 417.926383 -267.497874 
L 416.962549 -263.438115 
L 415.998716 -259.218773 
L 415.034883 -254.867156 
L 414.07105 -250.410656 
L 413.107216 -245.876501 
L 412.143383 -241.291512 
L 411.17955 -236.68186 
L 410.215717 -232.072843 
L 409.251883 -227.488665 
L 408.28805 -222.952233 
L 407.324217 -218.484974 
L 406.360384 -214.106663 
L 405.39655 -209.83528 
L 404.432717 -205.68688 
L 403.468884 -201.675497 
L 402.505051 -197.813059 
L 401.541217 -194.109338 
L 400.577384 -190.571923 
L 399.613551 -187.206215 
L 398.649718 -184.015446 
L 397.685884 -181.000729 
L 396.722051 -178.161121 
L 395.758218 -175.493717 
L 394.794384 -172.993756 
L 393.830551 -170.654751 
L 392.866718 -168.468633 
L 391.902885 -166.42591 
L 390.939051 -164.515837 
L 389.975218 -162.726598 
L 389.011385 -161.04549 
L 388.047552 -159.459117 
L 387.083718 -157.953582 
L 386.119885 -156.514682 
L 385.156052 -155.128096 
L 384.192219 -153.779569 
L 383.228385 -152.455094 
L 382.264552 -151.141074 
L 381.300719 -149.824482 
L 380.336886 -148.493004 
L 379.373052 -147.135164 
L 378.409219 -145.740445 
L 377.445386 -144.29938 
L 376.481553 -142.803631 
L 375.517719 -141.246057 
L 374.553886 -139.620755 
L 373.590053 -137.923084 
L 372.62622 -136.149681 
L 371.662386 -134.298451 
L 370.698553 -132.368542 
L 369.73472 -130.360312 
L 368.770886 -128.275273 
L 367.807053 -126.116031 
L 366.84322 -123.886209 
L 365.879387 -121.590366 
L 364.915553 -119.233898 
L 363.95172 -116.822947 
L 362.987887 -114.364294 
L 362.024054 -111.865254 
L 361.06022 -109.333568 
L 360.096387 -106.777297 
L 359.132554 -104.204712 
L 358.168721 -101.624196 
L 357.204887 -99.044144 
L 356.241054 -96.472866 
L 355.277221 -93.918502 
L 354.313388 -91.388943 
L 353.349554 -88.891754 
L 352.385721 -86.434111 
L 351.421888 -84.022748 
L 350.458055 -81.663902 
L 349.494221 -79.363283 
L 348.530388 -77.126036 
L 347.566555 -74.956726 
L 346.602722 -72.85932 
L 345.638888 -70.837183 
L 344.675055 -68.893082 
L 343.711222 -67.029191 
L 342.747388 -65.247109 
L 341.783555 -63.547879 
L 340.819722 -61.932014 
L 339.855889 -60.399525 
L 338.892055 -58.949955 
L 337.928222 -57.582414 
L 336.964389 -56.295616 
L 336.000556 -55.08792 
L 335.036722 -53.957365 
L 334.072889 -52.901717 
L 333.109056 -51.918502 
L 332.145223 -51.005046 
L 331.181389 -50.158515 
L 330.217556 -49.37595 
L 329.253723 -48.654298 
L 328.28989 -47.990447 
L 327.326056 -47.381255 
L 326.362223 -46.823575 
L 325.39839 -46.314283 
L 324.434557 -45.850295 
L 323.470723 -45.428591 
L 322.50689 -45.046228 
L 321.543057 -44.700358 
L 320.579224 -44.388234 
L 319.61539 -44.107225 
L 318.651557 -43.854822 
L 317.687724 -43.62864 
L 316.72389 -43.426427 
L 315.760057 -43.246061 
L 314.796224 -43.085553 
L 313.832391 -42.943045 
z
" id="mca7ac7eec5" style="stroke:#ff7f0e;"/>
    </defs>
    <g clip-path="url(#p34f5f9073e)">
     <use style="fill:#ff7f0e;fill-opacity:0.4;stroke:#ff7f0e;" x="0" xlink:href="#mca7ac7eec5" y="345.6"/>
    </g>
   </g>
   <g id="matplotlib.axis_1">
    <g id="xtick_1">
     <g id="line2d_1">
      <defs>
       <path d="M 0 0 
L 0 3.5 
" id="m1363d9ed44" style="stroke:#000000;stroke-width:0.8;"/>
      </defs>
      <g>
       <use style="stroke:#000000;stroke-width:0.8;" x="38.27" xlink:href="#m1363d9ed44" y="303.64"/>
      </g>
     </g>
     <g id="text_1">
      <!-- 0.0 -->
      <g transform="translate(30.318438 318.238437)scale(0.1 -0.1)">
       <defs>
        <path d="M 2034 4250 
Q 1547 4250 1301 3770 
Q 1056 3291 1056 2328 
Q 1056 1369 1301 889 
Q 1547 409 2034 409 
Q 2525 409 2770 889 
Q 3016 1369 3016 2328 
Q 3016 3291 2770 3770 
Q 2525 4250 2034 4250 
z
M 2034 4750 
Q 2819 4750 3233 4129 
Q 3647 3509 3647 2328 
Q 3647 1150 3233 529 
Q 2819 -91 2034 -91 
Q 1250 -91 836 529 
Q 422 1150 422 2328 
Q 422 3509 836 4129 
Q 1250 4750 2034 4750 
z
" id="DejaVuSans-30" transform="scale(0.015625)"/>
        <path d="M 684 794 
L 1344 794 
L 1344 0 
L 684 0 
L 684 794 
z
" id="DejaVuSans-2e" transform="scale(0.015625)"/>
       </defs>
       <use xlink:href="#DejaVuSans-30"/>
       <use x="63.623047" xlink:href="#DejaVuSans-2e"/>
       <use x="95.410156" xlink:href="#DejaVuSans-30"/>
      </g>
     </g>
    </g>
    <g id="xtick_2">
     <g id="line2d_2">
      <g>
       <use style="stroke:#000000;stroke-width:0.8;" x="119.023" xlink:href="#m1363d9ed44" y="303.64"/>
      </g>
     </g>
     <g id="text_2">
      <!-- 0.2 -->
      <g transform="translate(111.071438 318.238437)scale(0.1 -0.1)">
       <defs>
        <path d="M 1228 531 
L 3431 531 
L 3431 0 
L 469 0 
L 469 531 
Q 828 903 1448 1529 
Q 2069 2156 2228 2338 
Q 2531 2678 2651 2914 
Q 2772 3150 2772 3378 
Q 2772 3750 2511 3984 
Q 2250 4219 1831 4219 
Q 1534 4219 1204 4116 
Q 875 4013 500 3803 
L 500 4441 
Q 881 4594 1212 4672 
Q 1544 4750 1819 4750 
Q 2544 4750 2975 4387 
Q 3406 4025 3406 3419 
Q 3406 3131 3298 2873 
Q 3191 2616 2906 2266 
Q 2828 2175 2409 1742 
Q 1991 1309 1228 531 
z
" id="DejaVuSans-32" transform="scale(0.015625)"/>
       </defs>
       <use xlink:href="#DejaVuSans-30"/>
       <use x="63.623047" xlink:href="#DejaVuSans-2e"/>
       <use x="95.410156" xlink:href="#DejaVuSans-32"/>
      </g>
     </g>
    </g>
    <g id="xtick_3">
     <g id="line2d_3">
      <g>
       <use style="stroke:#000000;stroke-width:0.8;" x="199.776" xlink:href="#m1363d9ed44" y="303.64"/>
      </g>
     </g>
     <g id="text_3">
      <!-- 0.4 -->
      <g transform="translate(191.824438 318.238437)scale(0.1 -0.1)">
       <defs>
        <path d="M 2419 4116 
L 825 1625 
L 2419 1625 
L 2419 4116 
z
M 2253 4666 
L 3047 4666 
L 3047 1625 
L 3713 1625 
L 3713 1100 
L 3047 1100 
L 3047 0 
L 2419 0 
L 2419 1100 
L 313 1100 
L 313 1709 
L 2253 4666 
z
" id="DejaVuSans-34" transform="scale(0.015625)"/>
       </defs>
       <use xlink:href="#DejaVuSans-30"/>
       <use x="63.623047" xlink:href="#DejaVuSans-2e"/>
       <use x="95.410156" xlink:href="#DejaVuSans-34"/>
      </g>
     </g>
    </g>
    <g id="xtick_4">
     <g id="line2d_4">
      <g>
       <use style="stroke:#000000;stroke-width:0.8;" x="280.529" xlink:href="#m1363d9ed44" y="303.64"/>
      </g>
     </g>
     <g id="text_4">
      <!-- 0.6 -->
      <g transform="translate(272.577437 318.238437)scale(0.1 -0.1)">
       <defs>
        <path d="M 2113 2584 
Q 1688 2584 1439 2293 
Q 1191 2003 1191 1497 
Q 1191 994 1439 701 
Q 1688 409 2113 409 
Q 2538 409 2786 701 
Q 3034 994 3034 1497 
Q 3034 2003 2786 2293 
Q 2538 2584 2113 2584 
z
M 3366 4563 
L 3366 3988 
Q 3128 4100 2886 4159 
Q 2644 4219 2406 4219 
Q 1781 4219 1451 3797 
Q 1122 3375 1075 2522 
Q 1259 2794 1537 2939 
Q 1816 3084 2150 3084 
Q 2853 3084 3261 2657 
Q 3669 2231 3669 1497 
Q 3669 778 3244 343 
Q 2819 -91 2113 -91 
Q 1303 -91 875 529 
Q 447 1150 447 2328 
Q 447 3434 972 4092 
Q 1497 4750 2381 4750 
Q 2619 4750 2861 4703 
Q 3103 4656 3366 4563 
z
" id="DejaVuSans-36" transform="scale(0.015625)"/>
       </defs>
       <use xlink:href="#DejaVuSans-30"/>
       <use x="63.623047" xlink:href="#DejaVuSans-2e"/>
       <use x="95.410156" xlink:href="#DejaVuSans-36"/>
      </g>
     </g>
    </g>
    <g id="xtick_5">
     <g id="line2d_5">
      <g>
       <use style="stroke:#000000;stroke-width:0.8;" x="361.282" xlink:href="#m1363d9ed44" y="303.64"/>
      </g>
     </g>
     <g id="text_5">
      <!-- 0.8 -->
      <g transform="translate(353.330437 318.238437)scale(0.1 -0.1)">
       <defs>
        <path d="M 2034 2216 
Q 1584 2216 1326 1975 
Q 1069 1734 1069 1313 
Q 1069 891 1326 650 
Q 1584 409 2034 409 
Q 2484 409 2743 651 
Q 3003 894 3003 1313 
Q 3003 1734 2745 1975 
Q 2488 2216 2034 2216 
z
M 1403 2484 
Q 997 2584 770 2862 
Q 544 3141 544 3541 
Q 544 4100 942 4425 
Q 1341 4750 2034 4750 
Q 2731 4750 3128 4425 
Q 3525 4100 3525 3541 
Q 3525 3141 3298 2862 
Q 3072 2584 2669 2484 
Q 3125 2378 3379 2068 
Q 3634 1759 3634 1313 
Q 3634 634 3220 271 
Q 2806 -91 2034 -91 
Q 1263 -91 848 271 
Q 434 634 434 1313 
Q 434 1759 690 2068 
Q 947 2378 1403 2484 
z
M 1172 3481 
Q 1172 3119 1398 2916 
Q 1625 2713 2034 2713 
Q 2441 2713 2670 2916 
Q 2900 3119 2900 3481 
Q 2900 3844 2670 4047 
Q 2441 4250 2034 4250 
Q 1625 4250 1398 4047 
Q 1172 3844 1172 3481 
z
" id="DejaVuSans-38" transform="scale(0.015625)"/>
       </defs>
       <use xlink:href="#DejaVuSans-30"/>
       <use x="63.623047" xlink:href="#DejaVuSans-2e"/>
       <use x="95.410156" xlink:href="#DejaVuSans-38"/>
      </g>
     </g>
    </g>
    <g id="xtick_6">
     <g id="line2d_6">
      <g>
       <use style="stroke:#000000;stroke-width:0.8;" x="442.035" xlink:href="#m1363d9ed44" y="303.64"/>
      </g>
     </g>
     <g id="text_6">
      <!-- 1.0 -->
      <g transform="translate(434.083437 318.238437)scale(0.1 -0.1)">
       <defs>
        <path d="M 794 531 
L 1825 531 
L 1825 4091 
L 703 3866 
L 703 4441 
L 1819 4666 
L 2450 4666 
L 2450 531 
L 3481 531 
L 3481 0 
L 794 0 
L 794 531 
z
" id="DejaVuSans-31" transform="scale(0.015625)"/>
       </defs>
       <use xlink:href="#DejaVuSans-31"/>
       <use x="63.623047" xlink:href="#DejaVuSans-2e"/>
       <use x="95.410156" xlink:href="#DejaVuSans-30"/>
      </g>
     </g>
    </g>
    <g id="text_7">
     <!-- Credibility index -->
     <g transform="translate(199.547812 331.916562)scale(0.1 -0.1)">
      <defs>
       <path d="M 4122 4306 
L 4122 3641 
Q 3803 3938 3442 4084 
Q 3081 4231 2675 4231 
Q 1875 4231 1450 3742 
Q 1025 3253 1025 2328 
Q 1025 1406 1450 917 
Q 1875 428 2675 428 
Q 3081 428 3442 575 
Q 3803 722 4122 1019 
L 4122 359 
Q 3791 134 3420 21 
Q 3050 -91 2638 -91 
Q 1578 -91 968 557 
Q 359 1206 359 2328 
Q 359 3453 968 4101 
Q 1578 4750 2638 4750 
Q 3056 4750 3426 4639 
Q 3797 4528 4122 4306 
z
" id="DejaVuSans-43" transform="scale(0.015625)"/>
       <path d="M 2631 2963 
Q 2534 3019 2420 3045 
Q 2306 3072 2169 3072 
Q 1681 3072 1420 2755 
Q 1159 2438 1159 1844 
L 1159 0 
L 581 0 
L 581 3500 
L 1159 3500 
L 1159 2956 
Q 1341 3275 1631 3429 
Q 1922 3584 2338 3584 
Q 2397 3584 2469 3576 
Q 2541 3569 2628 3553 
L 2631 2963 
z
" id="DejaVuSans-72" transform="scale(0.015625)"/>
       <path d="M 3597 1894 
L 3597 1613 
L 953 1613 
Q 991 1019 1311 708 
Q 1631 397 2203 397 
Q 2534 397 2845 478 
Q 3156 559 3463 722 
L 3463 178 
Q 3153 47 2828 -22 
Q 2503 -91 2169 -91 
Q 1331 -91 842 396 
Q 353 884 353 1716 
Q 353 2575 817 3079 
Q 1281 3584 2069 3584 
Q 2775 3584 3186 3129 
Q 3597 2675 3597 1894 
z
M 3022 2063 
Q 3016 2534 2758 2815 
Q 2500 3097 2075 3097 
Q 1594 3097 1305 2825 
Q 1016 2553 972 2059 
L 3022 2063 
z
" id="DejaVuSans-65" transform="scale(0.015625)"/>
       <path d="M 2906 2969 
L 2906 4863 
L 3481 4863 
L 3481 0 
L 2906 0 
L 2906 525 
Q 2725 213 2448 61 
Q 2172 -91 1784 -91 
Q 1150 -91 751 415 
Q 353 922 353 1747 
Q 353 2572 751 3078 
Q 1150 3584 1784 3584 
Q 2172 3584 2448 3432 
Q 2725 3281 2906 2969 
z
M 947 1747 
Q 947 1113 1208 752 
Q 1469 391 1925 391 
Q 2381 391 2643 752 
Q 2906 1113 2906 1747 
Q 2906 2381 2643 2742 
Q 2381 3103 1925 3103 
Q 1469 3103 1208 2742 
Q 947 2381 947 1747 
z
" id="DejaVuSans-64" transform="scale(0.015625)"/>
       <path d="M 603 3500 
L 1178 3500 
L 1178 0 
L 603 0 
L 603 3500 
z
M 603 4863 
L 1178 4863 
L 1178 4134 
L 603 4134 
L 603 4863 
z
" id="DejaVuSans-69" transform="scale(0.015625)"/>
       <path d="M 3116 1747 
Q 3116 2381 2855 2742 
Q 2594 3103 2138 3103 
Q 1681 3103 1420 2742 
Q 1159 2381 1159 1747 
Q 1159 1113 1420 752 
Q 1681 391 2138 391 
Q 2594 391 2855 752 
Q 3116 1113 3116 1747 
z
M 1159 2969 
Q 1341 3281 1617 3432 
Q 1894 3584 2278 3584 
Q 2916 3584 3314 3078 
Q 3713 2572 3713 1747 
Q 3713 922 3314 415 
Q 2916 -91 2278 -91 
Q 1894 -91 1617 61 
Q 1341 213 1159 525 
L 1159 0 
L 581 0 
L 581 4863 
L 1159 4863 
L 1159 2969 
z
" id="DejaVuSans-62" transform="scale(0.015625)"/>
       <path d="M 603 4863 
L 1178 4863 
L 1178 0 
L 603 0 
L 603 4863 
z
" id="DejaVuSans-6c" transform="scale(0.015625)"/>
       <path d="M 1172 4494 
L 1172 3500 
L 2356 3500 
L 2356 3053 
L 1172 3053 
L 1172 1153 
Q 1172 725 1289 603 
Q 1406 481 1766 481 
L 2356 481 
L 2356 0 
L 1766 0 
Q 1100 0 847 248 
Q 594 497 594 1153 
L 594 3053 
L 172 3053 
L 172 3500 
L 594 3500 
L 594 4494 
L 1172 4494 
z
" id="DejaVuSans-74" transform="scale(0.015625)"/>
       <path d="M 2059 -325 
Q 1816 -950 1584 -1140 
Q 1353 -1331 966 -1331 
L 506 -1331 
L 506 -850 
L 844 -850 
Q 1081 -850 1212 -737 
Q 1344 -625 1503 -206 
L 1606 56 
L 191 3500 
L 800 3500 
L 1894 763 
L 2988 3500 
L 3597 3500 
L 2059 -325 
z
" id="DejaVuSans-79" transform="scale(0.015625)"/>
       <path id="DejaVuSans-20" transform="scale(0.015625)"/>
       <path d="M 3513 2113 
L 3513 0 
L 2938 0 
L 2938 2094 
Q 2938 2591 2744 2837 
Q 2550 3084 2163 3084 
Q 1697 3084 1428 2787 
Q 1159 2491 1159 1978 
L 1159 0 
L 581 0 
L 581 3500 
L 1159 3500 
L 1159 2956 
Q 1366 3272 1645 3428 
Q 1925 3584 2291 3584 
Q 2894 3584 3203 3211 
Q 3513 2838 3513 2113 
z
" id="DejaVuSans-6e" transform="scale(0.015625)"/>
       <path d="M 3513 3500 
L 2247 1797 
L 3578 0 
L 2900 0 
L 1881 1375 
L 863 0 
L 184 0 
L 1544 1831 
L 300 3500 
L 978 3500 
L 1906 2253 
L 2834 3500 
L 3513 3500 
z
" id="DejaVuSans-78" transform="scale(0.015625)"/>
      </defs>
      <use xlink:href="#DejaVuSans-43"/>
      <use x="69.824219" xlink:href="#DejaVuSans-72"/>
      <use x="108.6875" xlink:href="#DejaVuSans-65"/>
      <use x="170.210938" xlink:href="#DejaVuSans-64"/>
      <use x="233.6875" xlink:href="#DejaVuSans-69"/>
      <use x="261.470703" xlink:href="#DejaVuSans-62"/>
      <use x="324.947266" xlink:href="#DejaVuSans-69"/>
      <use x="352.730469" xlink:href="#DejaVuSans-6c"/>
      <use x="380.513672" xlink:href="#DejaVuSans-69"/>
      <use x="408.296875" xlink:href="#DejaVuSans-74"/>
      <use x="447.505859" xlink:href="#DejaVuSans-79"/>
      <use x="506.685547" xlink:href="#DejaVuSans-20"/>
      <use x="538.472656" xlink:href="#DejaVuSans-69"/>
      <use x="566.255859" xlink:href="#DejaVuSans-6e"/>
      <use x="629.634766" xlink:href="#DejaVuSans-64"/>
      <use x="693.111328" xlink:href="#DejaVuSans-65"/>
      <use x="752.884766" xlink:href="#DejaVuSans-78"/>
     </g>
    </g>
   </g>
   <g id="matplotlib.axis_2">
    <g id="ytick_1">
     <g id="line2d_7">
      <defs>
       <path d="M 0 0 
L -3.5 0 
" id="m71ab4fb5e4" style="stroke:#000000;stroke-width:0.8;"/>
      </defs>
      <g>
       <use style="stroke:#000000;stroke-width:0.8;" x="38.27" xlink:href="#m71ab4fb5e4" y="303.64"/>
      </g>
     </g>
     <g id="text_8">
      <!-- 0 -->
      <g transform="translate(24.9075 307.439219)scale(0.1 -0.1)">
       <use xlink:href="#DejaVuSans-30"/>
      </g>
     </g>
    </g>
    <g id="ytick_2">
     <g id="line2d_8">
      <g>
       <use style="stroke:#000000;stroke-width:0.8;" x="38.27" xlink:href="#m71ab4fb5e4" y="257.061051"/>
      </g>
     </g>
     <g id="text_9">
      <!-- 1 -->
      <g transform="translate(24.9075 260.86027)scale(0.1 -0.1)">
       <use xlink:href="#DejaVuSans-31"/>
      </g>
     </g>
    </g>
    <g id="ytick_3">
     <g id="line2d_9">
      <g>
       <use style="stroke:#000000;stroke-width:0.8;" x="38.27" xlink:href="#m71ab4fb5e4" y="210.482102"/>
      </g>
     </g>
     <g id="text_10">
      <!-- 2 -->
      <g transform="translate(24.9075 214.281321)scale(0.1 -0.1)">
       <use xlink:href="#DejaVuSans-32"/>
      </g>
     </g>
    </g>
    <g id="ytick_4">
     <g id="line2d_10">
      <g>
       <use style="stroke:#000000;stroke-width:0.8;" x="38.27" xlink:href="#m71ab4fb5e4" y="163.903153"/>
      </g>
     </g>
     <g id="text_11">
      <!-- 3 -->
      <g transform="translate(24.9075 167.702372)scale(0.1 -0.1)">
       <defs>
        <path d="M 2597 2516 
Q 3050 2419 3304 2112 
Q 3559 1806 3559 1356 
Q 3559 666 3084 287 
Q 2609 -91 1734 -91 
Q 1441 -91 1130 -33 
Q 819 25 488 141 
L 488 750 
Q 750 597 1062 519 
Q 1375 441 1716 441 
Q 2309 441 2620 675 
Q 2931 909 2931 1356 
Q 2931 1769 2642 2001 
Q 2353 2234 1838 2234 
L 1294 2234 
L 1294 2753 
L 1863 2753 
Q 2328 2753 2575 2939 
Q 2822 3125 2822 3475 
Q 2822 3834 2567 4026 
Q 2313 4219 1838 4219 
Q 1578 4219 1281 4162 
Q 984 4106 628 3988 
L 628 4550 
Q 988 4650 1302 4700 
Q 1616 4750 1894 4750 
Q 2613 4750 3031 4423 
Q 3450 4097 3450 3541 
Q 3450 3153 3228 2886 
Q 3006 2619 2597 2516 
z
" id="DejaVuSans-33" transform="scale(0.015625)"/>
       </defs>
       <use xlink:href="#DejaVuSans-33"/>
      </g>
     </g>
    </g>
    <g id="ytick_5">
     <g id="line2d_11">
      <g>
       <use style="stroke:#000000;stroke-width:0.8;" x="38.27" xlink:href="#m71ab4fb5e4" y="117.324204"/>
      </g>
     </g>
     <g id="text_12">
      <!-- 4 -->
      <g transform="translate(24.9075 121.123423)scale(0.1 -0.1)">
       <use xlink:href="#DejaVuSans-34"/>
      </g>
     </g>
    </g>
    <g id="ytick_6">
     <g id="line2d_12">
      <g>
       <use style="stroke:#000000;stroke-width:0.8;" x="38.27" xlink:href="#m71ab4fb5e4" y="70.745255"/>
      </g>
     </g>
     <g id="text_13">
      <!-- 5 -->
      <g transform="translate(24.9075 74.544474)scale(0.1 -0.1)">
       <defs>
        <path d="M 691 4666 
L 3169 4666 
L 3169 4134 
L 1269 4134 
L 1269 2991 
Q 1406 3038 1543 3061 
Q 1681 3084 1819 3084 
Q 2600 3084 3056 2656 
Q 3513 2228 3513 1497 
Q 3513 744 3044 326 
Q 2575 -91 1722 -91 
Q 1428 -91 1123 -41 
Q 819 9 494 109 
L 494 744 
Q 775 591 1075 516 
Q 1375 441 1709 441 
Q 2250 441 2565 725 
Q 2881 1009 2881 1497 
Q 2881 1984 2565 2268 
Q 2250 2553 1709 2553 
Q 1456 2553 1204 2497 
Q 953 2441 691 2322 
L 691 4666 
z
" id="DejaVuSans-35" transform="scale(0.015625)"/>
       </defs>
       <use xlink:href="#DejaVuSans-35"/>
      </g>
     </g>
    </g>
    <g id="text_14">
     <!-- Density -->
     <g transform="translate(18.827813 189.812594)rotate(-90)scale(0.1 -0.1)">
      <defs>
       <path d="M 1259 4147 
L 1259 519 
L 2022 519 
Q 2988 519 3436 956 
Q 3884 1394 3884 2338 
Q 3884 3275 3436 3711 
Q 2988 4147 2022 4147 
L 1259 4147 
z
M 628 4666 
L 1925 4666 
Q 3281 4666 3915 4102 
Q 4550 3538 4550 2338 
Q 4550 1131 3912 565 
Q 3275 0 1925 0 
L 628 0 
L 628 4666 
z
" id="DejaVuSans-44" transform="scale(0.015625)"/>
       <path d="M 2834 3397 
L 2834 2853 
Q 2591 2978 2328 3040 
Q 2066 3103 1784 3103 
Q 1356 3103 1142 2972 
Q 928 2841 928 2578 
Q 928 2378 1081 2264 
Q 1234 2150 1697 2047 
L 1894 2003 
Q 2506 1872 2764 1633 
Q 3022 1394 3022 966 
Q 3022 478 2636 193 
Q 2250 -91 1575 -91 
Q 1294 -91 989 -36 
Q 684 19 347 128 
L 347 722 
Q 666 556 975 473 
Q 1284 391 1588 391 
Q 1994 391 2212 530 
Q 2431 669 2431 922 
Q 2431 1156 2273 1281 
Q 2116 1406 1581 1522 
L 1381 1569 
Q 847 1681 609 1914 
Q 372 2147 372 2553 
Q 372 3047 722 3315 
Q 1072 3584 1716 3584 
Q 2034 3584 2315 3537 
Q 2597 3491 2834 3397 
z
" id="DejaVuSans-73" transform="scale(0.015625)"/>
      </defs>
      <use xlink:href="#DejaVuSans-44"/>
      <use x="77.001953" xlink:href="#DejaVuSans-65"/>
      <use x="138.525391" xlink:href="#DejaVuSans-6e"/>
      <use x="201.904297" xlink:href="#DejaVuSans-73"/>
      <use x="254.003906" xlink:href="#DejaVuSans-69"/>
      <use x="281.787109" xlink:href="#DejaVuSans-74"/>
      <use x="320.996094" xlink:href="#DejaVuSans-79"/>
     </g>
    </g>
   </g>
   <g id="patch_3">
    <path d="M 38.27 303.64 
L 38.27 37.968 
" style="fill:none;stroke:#000000;stroke-linecap:square;stroke-linejoin:miter;stroke-width:0.8;"/>
   </g>
   <g id="patch_4">
    <path d="M 442.035 303.64 
L 442.035 37.968 
" style="fill:none;stroke:#000000;stroke-linecap:square;stroke-linejoin:miter;stroke-width:0.8;"/>
   </g>
   <g id="patch_5">
    <path d="M 38.27 303.64 
L 442.035 303.64 
" style="fill:none;stroke:#000000;stroke-linecap:square;stroke-linejoin:miter;stroke-width:0.8;"/>
   </g>
   <g id="patch_6">
    <path d="M 38.27 37.968 
L 442.035 37.968 
" style="fill:none;stroke:#000000;stroke-linecap:square;stroke-linejoin:miter;stroke-width:0.8;"/>
   </g>
   <g id="text_15">
    <!-- Credibility index consensus vs non consensus  -->
    <g transform="translate(101.04625 18.530625)scale(0.12 -0.12)">
     <defs>
      <path d="M 3122 3366 
L 3122 2828 
Q 2878 2963 2633 3030 
Q 2388 3097 2138 3097 
Q 1578 3097 1268 2742 
Q 959 2388 959 1747 
Q 959 1106 1268 751 
Q 1578 397 2138 397 
Q 2388 397 2633 464 
Q 2878 531 3122 666 
L 3122 134 
Q 2881 22 2623 -34 
Q 2366 -91 2075 -91 
Q 1284 -91 818 406 
Q 353 903 353 1747 
Q 353 2603 823 3093 
Q 1294 3584 2113 3584 
Q 2378 3584 2631 3529 
Q 2884 3475 3122 3366 
z
" id="DejaVuSans-63" transform="scale(0.015625)"/>
      <path d="M 1959 3097 
Q 1497 3097 1228 2736 
Q 959 2375 959 1747 
Q 959 1119 1226 758 
Q 1494 397 1959 397 
Q 2419 397 2687 759 
Q 2956 1122 2956 1747 
Q 2956 2369 2687 2733 
Q 2419 3097 1959 3097 
z
M 1959 3584 
Q 2709 3584 3137 3096 
Q 3566 2609 3566 1747 
Q 3566 888 3137 398 
Q 2709 -91 1959 -91 
Q 1206 -91 779 398 
Q 353 888 353 1747 
Q 353 2609 779 3096 
Q 1206 3584 1959 3584 
z
" id="DejaVuSans-6f" transform="scale(0.015625)"/>
      <path d="M 544 1381 
L 544 3500 
L 1119 3500 
L 1119 1403 
Q 1119 906 1312 657 
Q 1506 409 1894 409 
Q 2359 409 2629 706 
Q 2900 1003 2900 1516 
L 2900 3500 
L 3475 3500 
L 3475 0 
L 2900 0 
L 2900 538 
Q 2691 219 2414 64 
Q 2138 -91 1772 -91 
Q 1169 -91 856 284 
Q 544 659 544 1381 
z
M 1991 3584 
L 1991 3584 
z
" id="DejaVuSans-75" transform="scale(0.015625)"/>
      <path d="M 191 3500 
L 800 3500 
L 1894 563 
L 2988 3500 
L 3597 3500 
L 2284 0 
L 1503 0 
L 191 3500 
z
" id="DejaVuSans-76" transform="scale(0.015625)"/>
     </defs>
     <use xlink:href="#DejaVuSans-43"/>
     <use x="69.824219" xlink:href="#DejaVuSans-72"/>
     <use x="108.6875" xlink:href="#DejaVuSans-65"/>
     <use x="170.210938" xlink:href="#DejaVuSans-64"/>
     <use x="233.6875" xlink:href="#DejaVuSans-69"/>
     <use x="261.470703" xlink:href="#DejaVuSans-62"/>
     <use x="324.947266" xlink:href="#DejaVuSans-69"/>
     <use x="352.730469" xlink:href="#DejaVuSans-6c"/>
     <use x="380.513672" xlink:href="#DejaVuSans-69"/>
     <use x="408.296875" xlink:href="#DejaVuSans-74"/>
     <use x="447.505859" xlink:href="#DejaVuSans-79"/>
     <use x="506.685547" xlink:href="#DejaVuSans-20"/>
     <use x="538.472656" xlink:href="#DejaVuSans-69"/>
     <use x="566.255859" xlink:href="#DejaVuSans-6e"/>
     <use x="629.634766" xlink:href="#DejaVuSans-64"/>
     <use x="693.111328" xlink:href="#DejaVuSans-65"/>
     <use x="752.884766" xlink:href="#DejaVuSans-78"/>
     <use x="812.064453" xlink:href="#DejaVuSans-20"/>
     <use x="843.851562" xlink:href="#DejaVuSans-63"/>
     <use x="898.832031" xlink:href="#DejaVuSans-6f"/>
     <use x="960.013672" xlink:href="#DejaVuSans-6e"/>
     <use x="1023.392578" xlink:href="#DejaVuSans-73"/>
     <use x="1075.492188" xlink:href="#DejaVuSans-65"/>
     <use x="1137.015625" xlink:href="#DejaVuSans-6e"/>
     <use x="1200.394531" xlink:href="#DejaVuSans-73"/>
     <use x="1252.494141" xlink:href="#DejaVuSans-75"/>
     <use x="1315.873047" xlink:href="#DejaVuSans-73"/>
     <use x="1367.972656" xlink:href="#DejaVuSans-20"/>
     <use x="1399.759766" xlink:href="#DejaVuSans-76"/>
     <use x="1458.939453" xlink:href="#DejaVuSans-73"/>
     <use x="1511.039062" xlink:href="#DejaVuSans-20"/>
     <use x="1542.826172" xlink:href="#DejaVuSans-6e"/>
     <use x="1606.205078" xlink:href="#DejaVuSans-6f"/>
     <use x="1667.386719" xlink:href="#DejaVuSans-6e"/>
     <use x="1730.765625" xlink:href="#DejaVuSans-20"/>
     <use x="1762.552734" xlink:href="#DejaVuSans-63"/>
     <use x="1817.533203" xlink:href="#DejaVuSans-6f"/>
     <use x="1878.714844" xlink:href="#DejaVuSans-6e"/>
     <use x="1942.09375" xlink:href="#DejaVuSans-73"/>
     <use x="1994.193359" xlink:href="#DejaVuSans-65"/>
     <use x="2055.716797" xlink:href="#DejaVuSans-6e"/>
     <use x="2119.095703" xlink:href="#DejaVuSans-73"/>
     <use x="2171.195312" xlink:href="#DejaVuSans-75"/>
     <use x="2234.574219" xlink:href="#DejaVuSans-73"/>
     <use x="2286.673828" xlink:href="#DejaVuSans-20"/>
    </g>
    <!-- Set s4 -->
    <g transform="translate(221.449375 31.968)scale(0.12 -0.12)">
     <defs>
      <path d="M 3425 4513 
L 3425 3897 
Q 3066 4069 2747 4153 
Q 2428 4238 2131 4238 
Q 1616 4238 1336 4038 
Q 1056 3838 1056 3469 
Q 1056 3159 1242 3001 
Q 1428 2844 1947 2747 
L 2328 2669 
Q 3034 2534 3370 2195 
Q 3706 1856 3706 1288 
Q 3706 609 3251 259 
Q 2797 -91 1919 -91 
Q 1588 -91 1214 -16 
Q 841 59 441 206 
L 441 856 
Q 825 641 1194 531 
Q 1563 422 1919 422 
Q 2459 422 2753 634 
Q 3047 847 3047 1241 
Q 3047 1584 2836 1778 
Q 2625 1972 2144 2069 
L 1759 2144 
Q 1053 2284 737 2584 
Q 422 2884 422 3419 
Q 422 4038 858 4394 
Q 1294 4750 2059 4750 
Q 2388 4750 2728 4690 
Q 3069 4631 3425 4513 
z
" id="DejaVuSans-53" transform="scale(0.015625)"/>
     </defs>
     <use xlink:href="#DejaVuSans-53"/>
     <use x="63.476562" xlink:href="#DejaVuSans-65"/>
     <use x="125" xlink:href="#DejaVuSans-74"/>
     <use x="164.208984" xlink:href="#DejaVuSans-20"/>
     <use x="195.996094" xlink:href="#DejaVuSans-73"/>
     <use x="248.095703" xlink:href="#DejaVuSans-34"/>
    </g>
   </g>
   <g id="legend_1">
    <g id="patch_7">
     <path d="M 45.27 97.719875 
L 215.812188 97.719875 
Q 217.812188 97.719875 217.812188 95.719875 
L 217.812188 44.968 
Q 217.812188 42.968 215.812188 42.968 
L 45.27 42.968 
Q 43.27 42.968 43.27 44.968 
L 43.27 95.719875 
Q 43.27 97.719875 45.27 97.719875 
z
" style="fill:#ffffff;opacity:0.8;stroke:#cccccc;stroke-linejoin:miter;"/>
    </g>
    <g id="patch_8">
     <path d="M 47.27 61.205187 
L 67.27 61.205187 
L 67.27 54.205187 
L 47.27 54.205187 
z
" style="fill:#1f77b4;fill-opacity:0.4;stroke:#1f77b4;stroke-linejoin:miter;"/>
    </g>
    <g id="text_16">
     <!-- Correlation higher than 0  -->
     <g transform="translate(75.27 54.566437)scale(0.1 -0.1)">
      <defs>
       <path d="M 2194 1759 
Q 1497 1759 1228 1600 
Q 959 1441 959 1056 
Q 959 750 1161 570 
Q 1363 391 1709 391 
Q 2188 391 2477 730 
Q 2766 1069 2766 1631 
L 2766 1759 
L 2194 1759 
z
M 3341 1997 
L 3341 0 
L 2766 0 
L 2766 531 
Q 2569 213 2275 61 
Q 1981 -91 1556 -91 
Q 1019 -91 701 211 
Q 384 513 384 1019 
Q 384 1609 779 1909 
Q 1175 2209 1959 2209 
L 2766 2209 
L 2766 2266 
Q 2766 2663 2505 2880 
Q 2244 3097 1772 3097 
Q 1472 3097 1187 3025 
Q 903 2953 641 2809 
L 641 3341 
Q 956 3463 1253 3523 
Q 1550 3584 1831 3584 
Q 2591 3584 2966 3190 
Q 3341 2797 3341 1997 
z
" id="DejaVuSans-61" transform="scale(0.015625)"/>
       <path d="M 3513 2113 
L 3513 0 
L 2938 0 
L 2938 2094 
Q 2938 2591 2744 2837 
Q 2550 3084 2163 3084 
Q 1697 3084 1428 2787 
Q 1159 2491 1159 1978 
L 1159 0 
L 581 0 
L 581 4863 
L 1159 4863 
L 1159 2956 
Q 1366 3272 1645 3428 
Q 1925 3584 2291 3584 
Q 2894 3584 3203 3211 
Q 3513 2838 3513 2113 
z
" id="DejaVuSans-68" transform="scale(0.015625)"/>
       <path d="M 2906 1791 
Q 2906 2416 2648 2759 
Q 2391 3103 1925 3103 
Q 1463 3103 1205 2759 
Q 947 2416 947 1791 
Q 947 1169 1205 825 
Q 1463 481 1925 481 
Q 2391 481 2648 825 
Q 2906 1169 2906 1791 
z
M 3481 434 
Q 3481 -459 3084 -895 
Q 2688 -1331 1869 -1331 
Q 1566 -1331 1297 -1286 
Q 1028 -1241 775 -1147 
L 775 -588 
Q 1028 -725 1275 -790 
Q 1522 -856 1778 -856 
Q 2344 -856 2625 -561 
Q 2906 -266 2906 331 
L 2906 616 
Q 2728 306 2450 153 
Q 2172 0 1784 0 
Q 1141 0 747 490 
Q 353 981 353 1791 
Q 353 2603 747 3093 
Q 1141 3584 1784 3584 
Q 2172 3584 2450 3431 
Q 2728 3278 2906 2969 
L 2906 3500 
L 3481 3500 
L 3481 434 
z
" id="DejaVuSans-67" transform="scale(0.015625)"/>
      </defs>
      <use xlink:href="#DejaVuSans-43"/>
      <use x="69.824219" xlink:href="#DejaVuSans-6f"/>
      <use x="131.005859" xlink:href="#DejaVuSans-72"/>
      <use x="170.369141" xlink:href="#DejaVuSans-72"/>
      <use x="209.232422" xlink:href="#DejaVuSans-65"/>
      <use x="270.755859" xlink:href="#DejaVuSans-6c"/>
      <use x="298.539062" xlink:href="#DejaVuSans-61"/>
      <use x="359.818359" xlink:href="#DejaVuSans-74"/>
      <use x="399.027344" xlink:href="#DejaVuSans-69"/>
      <use x="426.810547" xlink:href="#DejaVuSans-6f"/>
      <use x="487.992188" xlink:href="#DejaVuSans-6e"/>
      <use x="551.371094" xlink:href="#DejaVuSans-20"/>
      <use x="583.158203" xlink:href="#DejaVuSans-68"/>
      <use x="646.537109" xlink:href="#DejaVuSans-69"/>
      <use x="674.320312" xlink:href="#DejaVuSans-67"/>
      <use x="737.796875" xlink:href="#DejaVuSans-68"/>
      <use x="801.175781" xlink:href="#DejaVuSans-65"/>
      <use x="862.699219" xlink:href="#DejaVuSans-72"/>
      <use x="903.8125" xlink:href="#DejaVuSans-20"/>
      <use x="935.599609" xlink:href="#DejaVuSans-74"/>
      <use x="974.808594" xlink:href="#DejaVuSans-68"/>
      <use x="1038.1875" xlink:href="#DejaVuSans-61"/>
      <use x="1099.466797" xlink:href="#DejaVuSans-6e"/>
      <use x="1162.845703" xlink:href="#DejaVuSans-20"/>
      <use x="1194.632812" xlink:href="#DejaVuSans-30"/>
      <use x="1258.255859" xlink:href="#DejaVuSans-20"/>
     </g>
     <!-- n=364 -->
     <g transform="translate(75.27 65.76425)scale(0.1 -0.1)">
      <defs>
       <path d="M 678 2906 
L 4684 2906 
L 4684 2381 
L 678 2381 
L 678 2906 
z
M 678 1631 
L 4684 1631 
L 4684 1100 
L 678 1100 
L 678 1631 
z
" id="DejaVuSans-3d" transform="scale(0.015625)"/>
      </defs>
      <use xlink:href="#DejaVuSans-6e"/>
      <use x="63.378906" xlink:href="#DejaVuSans-3d"/>
      <use x="147.167969" xlink:href="#DejaVuSans-33"/>
      <use x="210.791016" xlink:href="#DejaVuSans-36"/>
      <use x="274.414062" xlink:href="#DejaVuSans-34"/>
     </g>
    </g>
    <g id="patch_9">
     <path d="M 47.27 87.081125 
L 67.27 87.081125 
L 67.27 80.081125 
L 47.27 80.081125 
z
" style="fill:#ff7f0e;fill-opacity:0.4;stroke:#ff7f0e;stroke-linejoin:miter;"/>
    </g>
    <g id="text_17">
     <!-- Correlation higher than 0.8  -->
     <g transform="translate(75.27 80.442375)scale(0.1 -0.1)">
      <use xlink:href="#DejaVuSans-43"/>
      <use x="69.824219" xlink:href="#DejaVuSans-6f"/>
      <use x="131.005859" xlink:href="#DejaVuSans-72"/>
      <use x="170.369141" xlink:href="#DejaVuSans-72"/>
      <use x="209.232422" xlink:href="#DejaVuSans-65"/>
      <use x="270.755859" xlink:href="#DejaVuSans-6c"/>
      <use x="298.539062" xlink:href="#DejaVuSans-61"/>
      <use x="359.818359" xlink:href="#DejaVuSans-74"/>
      <use x="399.027344" xlink:href="#DejaVuSans-69"/>
      <use x="426.810547" xlink:href="#DejaVuSans-6f"/>
      <use x="487.992188" xlink:href="#DejaVuSans-6e"/>
      <use x="551.371094" xlink:href="#DejaVuSans-20"/>
      <use x="583.158203" xlink:href="#DejaVuSans-68"/>
      <use x="646.537109" xlink:href="#DejaVuSans-69"/>
      <use x="674.320312" xlink:href="#DejaVuSans-67"/>
      <use x="737.796875" xlink:href="#DejaVuSans-68"/>
      <use x="801.175781" xlink:href="#DejaVuSans-65"/>
      <use x="862.699219" xlink:href="#DejaVuSans-72"/>
      <use x="903.8125" xlink:href="#DejaVuSans-20"/>
      <use x="935.599609" xlink:href="#DejaVuSans-74"/>
      <use x="974.808594" xlink:href="#DejaVuSans-68"/>
      <use x="1038.1875" xlink:href="#DejaVuSans-61"/>
      <use x="1099.466797" xlink:href="#DejaVuSans-6e"/>
      <use x="1162.845703" xlink:href="#DejaVuSans-20"/>
      <use x="1194.632812" xlink:href="#DejaVuSans-30"/>
      <use x="1258.255859" xlink:href="#DejaVuSans-2e"/>
      <use x="1290.042969" xlink:href="#DejaVuSans-38"/>
      <use x="1353.666016" xlink:href="#DejaVuSans-20"/>
     </g>
     <!-- n=4 -->
     <g transform="translate(75.27 91.640187)scale(0.1 -0.1)">
      <use xlink:href="#DejaVuSans-6e"/>
      <use x="63.378906" xlink:href="#DejaVuSans-3d"/>
      <use x="147.167969" xlink:href="#DejaVuSans-34"/>
     </g>
    </g>
   </g>
  </g>
 </g>
 <defs>
  <clipPath id="p34f5f9073e">
   <rect height="265.672" width="403.765" x="38.27" y="37.968"/>
  </clipPath>
 </defs>
</svg>
