<?xml version="1.0" encoding="utf-8" standalone="no"?>
<!DOCTYPE svg PUBLIC "-//W3C//DTD SVG 1.1//EN"
  "http://www.w3.org/Graphics/SVG/1.1/DTD/svg11.dtd">
<svg height="345.6pt" version="1.1" viewBox="0 0 460.8 345.6" width="460.8pt" xmlns="http://www.w3.org/2000/svg" xmlns:xlink="http://www.w3.org/1999/xlink">
 <metadata>
  <rdf:RDF xmlns:cc="http://creativecommons.org/ns#" xmlns:dc="http://purl.org/dc/elements/1.1/" xmlns:rdf="http://www.w3.org/1999/02/22-rdf-syntax-ns#">
   <cc:Work>
    <dc:type rdf:resource="http://purl.org/dc/dcmitype/StillImage"/>
    <dc:date>2021-11-24T22:50:17.517681</dc:date>
    <dc:format>image/svg+xml</dc:format>
    <dc:creator>
     <cc:Agent>
      <dc:title>Matplotlib v3.4.3, https://matplotlib.org/</dc:title>
     </cc:Agent>
    </dc:creator>
   </cc:Work>
  </rdf:RDF>
 </metadata>
 <defs>
  <style type="text/css">*{stroke-linecap:butt;stroke-linejoin:round;}</style>
 </defs>
 <g id="figure_1">
  <g id="patch_1">
   <path d="M 0 345.6 
L 460.8 345.6 
L 460.8 0 
L 0 0 
z
" style="fill:#ffffff;"/>
  </g>
  <g id="axes_1">
   <g id="patch_2">
    <path d="M 44.66 303.64 
L 442.035 303.64 
L 442.035 37.968 
L 44.66 37.968 
z
" style="fill:#ffffff;"/>
   </g>
   <g id="PolyCollection_1">
    <path clip-path="url(#pe246323585)" d="M -16.068064 303.572746 
L -16.068064 303.64 
L -13.221249 303.64 
L -10.374434 303.64 
L -7.527619 303.64 
L -4.680805 303.64 
L -1.83399 303.64 
L 1.012825 303.64 
L 3.859639 303.64 
L 6.706454 303.64 
L 9.553269 303.64 
L 12.400083 303.64 
L 15.246898 303.64 
L 18.093713 303.64 
L 20.940528 303.64 
L 23.787342 303.64 
L 26.634157 303.64 
L 29.480972 303.64 
L 32.327786 303.64 
L 35.174601 303.64 
L 38.021416 303.64 
L 40.868231 303.64 
L 43.715045 303.64 
L 46.56186 303.64 
L 49.408675 303.64 
L 52.255489 303.64 
L 55.102304 303.64 
L 57.949119 303.64 
L 60.795934 303.64 
L 63.642748 303.64 
L 66.489563 303.64 
L 69.336378 303.64 
L 72.183192 303.64 
L 75.030007 303.64 
L 77.876822 303.64 
L 80.723637 303.64 
L 83.570451 303.64 
L 86.417266 303.64 
L 89.264081 303.64 
L 92.110895 303.64 
L 94.95771 303.64 
L 97.804525 303.64 
L 100.651339 303.64 
L 103.498154 303.64 
L 106.344969 303.64 
L 109.191784 303.64 
L 112.038598 303.64 
L 114.885413 303.64 
L 117.732228 303.64 
L 120.579042 303.64 
L 123.425857 303.64 
L 126.272672 303.64 
L 129.119487 303.64 
L 131.966301 303.64 
L 134.813116 303.64 
L 137.659931 303.64 
L 140.506745 303.64 
L 143.35356 303.64 
L 146.200375 303.64 
L 149.04719 303.64 
L 151.894004 303.64 
L 154.740819 303.64 
L 157.587634 303.64 
L 160.434448 303.64 
L 163.281263 303.64 
L 166.128078 303.64 
L 168.974893 303.64 
L 171.821707 303.64 
L 174.668522 303.64 
L 177.515337 303.64 
L 180.362151 303.64 
L 183.208966 303.64 
L 186.055781 303.64 
L 188.902595 303.64 
L 191.74941 303.64 
L 194.596225 303.64 
L 197.44304 303.64 
L 200.289854 303.64 
L 203.136669 303.64 
L 205.983484 303.64 
L 208.830298 303.64 
L 211.677113 303.64 
L 214.523928 303.64 
L 217.370743 303.64 
L 220.217557 303.64 
L 223.064372 303.64 
L 225.911187 303.64 
L 228.758001 303.64 
L 231.604816 303.64 
L 234.451631 303.64 
L 237.298446 303.64 
L 240.14526 303.64 
L 242.992075 303.64 
L 245.83889 303.64 
L 248.685704 303.64 
L 251.532519 303.64 
L 254.379334 303.64 
L 257.226149 303.64 
L 260.072963 303.64 
L 262.919778 303.64 
L 265.766593 303.64 
L 268.613407 303.64 
L 271.460222 303.64 
L 274.307037 303.64 
L 277.153851 303.64 
L 280.000666 303.64 
L 282.847481 303.64 
L 285.694296 303.64 
L 288.54111 303.64 
L 291.387925 303.64 
L 294.23474 303.64 
L 297.081554 303.64 
L 299.928369 303.64 
L 302.775184 303.64 
L 305.621999 303.64 
L 308.468813 303.64 
L 311.315628 303.64 
L 314.162443 303.64 
L 317.009257 303.64 
L 319.856072 303.64 
L 322.702887 303.64 
L 325.549702 303.64 
L 328.396516 303.64 
L 331.243331 303.64 
L 334.090146 303.64 
L 336.93696 303.64 
L 339.783775 303.64 
L 342.63059 303.64 
L 345.477405 303.64 
L 348.324219 303.64 
L 351.171034 303.64 
L 354.017849 303.64 
L 356.864663 303.64 
L 359.711478 303.64 
L 362.558293 303.64 
L 365.405107 303.64 
L 368.251922 303.64 
L 371.098737 303.64 
L 373.945552 303.64 
L 376.792366 303.64 
L 379.639181 303.64 
L 382.485996 303.64 
L 385.33281 303.64 
L 388.179625 303.64 
L 391.02644 303.64 
L 393.873255 303.64 
L 396.720069 303.64 
L 399.566884 303.64 
L 402.413699 303.64 
L 405.260513 303.64 
L 408.107328 303.64 
L 410.954143 303.64 
L 413.800958 303.64 
L 416.647772 303.64 
L 419.494587 303.64 
L 422.341402 303.64 
L 425.188216 303.64 
L 428.035031 303.64 
L 430.881846 303.64 
L 433.728661 303.64 
L 436.575475 303.64 
L 439.42229 303.64 
L 442.269105 303.64 
L 445.115919 303.64 
L 447.962734 303.64 
L 450.809549 303.64 
L 453.656363 303.64 
L 456.503178 303.64 
L 459.349993 303.64 
L 462.196808 303.64 
L 465.043622 303.64 
L 467.890437 303.64 
L 470.737252 303.64 
L 473.584066 303.64 
L 476.430881 303.64 
L 479.277696 303.64 
L 482.124511 303.64 
L 484.971325 303.64 
L 487.81814 303.64 
L 490.664955 303.64 
L 493.511769 303.64 
L 496.358584 303.64 
L 499.205399 303.64 
L 502.052214 303.64 
L 504.899028 303.64 
L 507.745843 303.64 
L 510.592658 303.64 
L 513.439472 303.64 
L 516.286287 303.64 
L 519.133102 303.64 
L 521.979917 303.64 
L 524.826731 303.64 
L 527.673546 303.64 
L 530.520361 303.64 
L 533.367175 303.64 
L 536.21399 303.64 
L 539.060805 303.64 
L 541.907619 303.64 
L 544.754434 303.64 
L 547.601249 303.64 
L 550.448064 303.64 
L 550.448064 303.186723 
L 550.448064 303.186723 
L 547.601249 303.066084 
L 544.754434 302.917747 
L 541.907619 302.736582 
L 539.060805 302.516819 
L 536.21399 302.252047 
L 533.367175 301.935223 
L 530.520361 301.558719 
L 527.673546 301.11438 
L 524.826731 300.593625 
L 521.979917 299.987583 
L 519.133102 299.287254 
L 516.286287 298.483715 
L 513.439472 297.568362 
L 510.592658 296.533179 
L 507.745843 295.371036 
L 504.899028 294.076014 
L 502.052214 292.643732 
L 499.205399 291.07168 
L 496.358584 289.359542 
L 493.511769 287.50949 
L 490.664955 285.526438 
L 487.81814 283.418243 
L 484.971325 281.195838 
L 482.124511 278.873278 
L 479.277696 276.4677 
L 476.430881 273.999184 
L 473.584066 271.490504 
L 470.737252 268.966786 
L 467.890437 266.455062 
L 465.043622 263.983735 
L 462.196808 261.581978 
L 459.349993 259.279067 
L 456.503178 257.103686 
L 453.656363 255.083218 
L 450.809549 253.243053 
L 447.962734 251.605935 
L 445.115919 250.191374 
L 442.269105 249.015148 
L 439.42229 248.088913 
L 436.575475 247.419929 
L 433.728661 247.010925 
L 430.881846 246.860102 
L 428.035031 246.961263 
L 425.188216 247.304079 
L 422.341402 247.874468 
L 419.494587 248.655075 
L 416.647772 249.625833 
L 413.800958 250.764571 
L 410.954143 252.047669 
L 408.107328 253.450706 
L 405.260513 254.949099 
L 402.413699 256.518704 
L 399.566884 258.136355 
L 396.720069 259.780337 
L 393.873255 261.430771 
L 391.02644 263.069911 
L 388.179625 264.682346 
L 385.33281 266.255111 
L 382.485996 267.77771 
L 379.639181 269.242062 
L 376.792366 270.642376 
L 373.945552 271.97497 
L 371.098737 273.238047 
L 368.251922 274.431439 
L 365.405107 275.556338 
L 362.558293 276.615018 
L 359.711478 277.610566 
L 356.864663 278.546624 
L 354.017849 279.427163 
L 351.171034 280.256275 
L 348.324219 281.038002 
L 345.477405 281.776201 
L 342.63059 282.474435 
L 339.783775 283.135908 
L 336.93696 283.763415 
L 334.090146 284.359333 
L 331.243331 284.925626 
L 328.396516 285.463871 
L 325.549702 285.975294 
L 322.702887 286.460824 
L 319.856072 286.921142 
L 317.009257 287.356742 
L 314.162443 287.767981 
L 311.315628 288.155136 
L 308.468813 288.518445 
L 305.621999 288.85815 
L 302.775184 289.174525 
L 299.928369 289.467904 
L 297.081554 289.738692 
L 294.23474 289.987375 
L 291.387925 290.214522 
L 288.54111 290.420778 
L 285.694296 290.606853 
L 282.847481 290.773511 
L 280.000666 290.921553 
L 277.153851 291.051795 
L 274.307037 291.165053 
L 271.460222 291.262126 
L 268.613407 291.343775 
L 265.766593 291.410715 
L 262.919778 291.463602 
L 260.072963 291.503031 
L 257.226149 291.529531 
L 254.379334 291.543571 
L 251.532519 291.545572 
L 248.685704 291.535916 
L 245.83889 291.514965 
L 242.992075 291.483086 
L 240.14526 291.440668 
L 237.298446 291.388155 
L 234.451631 291.326062 
L 231.604816 291.255004 
L 228.758001 291.175711 
L 225.911187 291.089048 
L 223.064372 290.996016 
L 220.217557 290.897762 
L 217.370743 290.795564 
L 214.523928 290.690824 
L 211.677113 290.585036 
L 208.830298 290.479761 
L 205.983484 290.376587 
L 203.136669 290.277082 
L 200.289854 290.182751 
L 197.44304 290.094984 
L 194.596225 290.01501 
L 191.74941 289.943854 
L 188.902595 289.882295 
L 186.055781 289.830844 
L 183.208966 289.789718 
L 180.362151 289.758843 
L 177.515337 289.737855 
L 174.668522 289.726127 
L 171.821707 289.722802 
L 168.974893 289.726846 
L 166.128078 289.737103 
L 163.281263 289.752368 
L 160.434448 289.771461 
L 157.587634 289.793306 
L 154.740819 289.817003 
L 151.894004 289.841906 
L 149.04719 289.867685 
L 146.200375 289.894376 
L 143.35356 289.922419 
L 140.506745 289.952684 
L 137.659931 289.986466 
L 134.813116 290.02547 
L 131.966301 290.071778 
L 129.119487 290.127791 
L 126.272672 290.196155 
L 123.425857 290.279682 
L 120.579042 290.381247 
L 117.732228 290.503689 
L 114.885413 290.6497 
L 112.038598 290.821724 
L 109.191784 291.021854 
L 106.344969 291.251743 
L 103.498154 291.512529 
L 100.651339 291.804768 
L 97.804525 292.1284 
L 94.95771 292.482725 
L 92.110895 292.866401 
L 89.264081 293.277468 
L 86.417266 293.713387 
L 83.570451 294.171102 
L 80.723637 294.647117 
L 77.876822 295.137579 
L 75.030007 295.638379 
L 72.183192 296.145257 
L 69.336378 296.653904 
L 66.489563 297.160064 
L 63.642748 297.659632 
L 60.795934 298.148743 
L 57.949119 298.623847 
L 55.102304 299.081775 
L 52.255489 299.519782 
L 49.408675 299.935588 
L 46.56186 300.327389 
L 43.715045 300.693865 
L 40.868231 301.034168 
L 38.021416 301.347899 
L 35.174601 301.635075 
L 32.327786 301.896091 
L 29.480972 302.13167 
L 26.634157 302.342813 
L 23.787342 302.53075 
L 20.940528 302.696882 
L 18.093713 302.842738 
L 15.246898 302.969924 
L 12.400083 303.080081 
L 9.553269 303.174847 
L 6.706454 303.255826 
L 3.859639 303.324563 
L 1.012825 303.38252 
L -1.83399 303.431064 
L -4.680805 303.471456 
L -7.527619 303.504842 
L -10.374434 303.532257 
L -13.221249 303.554621 
L -16.068064 303.572746 
z
" style="fill:#1f77b4;fill-opacity:0.4;stroke:#1f77b4;"/>
   </g>
   <g id="PolyCollection_2">
    <defs>
     <path d="M 374.106528 -42.887149 
L 374.106528 -41.96 
L 374.629477 -41.96 
L 375.152427 -41.96 
L 375.675376 -41.96 
L 376.198326 -41.96 
L 376.721275 -41.96 
L 377.244225 -41.96 
L 377.767174 -41.96 
L 378.290124 -41.96 
L 378.813073 -41.96 
L 379.336022 -41.96 
L 379.858972 -41.96 
L 380.381921 -41.96 
L 380.904871 -41.96 
L 381.42782 -41.96 
L 381.95077 -41.96 
L 382.473719 -41.96 
L 382.996669 -41.96 
L 383.519618 -41.96 
L 384.042568 -41.96 
L 384.565517 -41.96 
L 385.088467 -41.96 
L 385.611416 -41.96 
L 386.134366 -41.96 
L 386.657315 -41.96 
L 387.180265 -41.96 
L 387.703214 -41.96 
L 388.226163 -41.96 
L 388.749113 -41.96 
L 389.272062 -41.96 
L 389.795012 -41.96 
L 390.317961 -41.96 
L 390.840911 -41.96 
L 391.36386 -41.96 
L 391.88681 -41.96 
L 392.409759 -41.96 
L 392.932709 -41.96 
L 393.455658 -41.96 
L 393.978608 -41.96 
L 394.501557 -41.96 
L 395.024507 -41.96 
L 395.547456 -41.96 
L 396.070405 -41.96 
L 396.593355 -41.96 
L 397.116304 -41.96 
L 397.639254 -41.96 
L 398.162203 -41.96 
L 398.685153 -41.96 
L 399.208102 -41.96 
L 399.731052 -41.96 
L 400.254001 -41.96 
L 400.776951 -41.96 
L 401.2999 -41.96 
L 401.82285 -41.96 
L 402.345799 -41.96 
L 402.868749 -41.96 
L 403.391698 -41.96 
L 403.914648 -41.96 
L 404.437597 -41.96 
L 404.960546 -41.96 
L 405.483496 -41.96 
L 406.006445 -41.96 
L 406.529395 -41.96 
L 407.052344 -41.96 
L 407.575294 -41.96 
L 408.098243 -41.96 
L 408.621193 -41.96 
L 409.144142 -41.96 
L 409.667092 -41.96 
L 410.190041 -41.96 
L 410.712991 -41.96 
L 411.23594 -41.96 
L 411.75889 -41.96 
L 412.281839 -41.96 
L 412.804789 -41.96 
L 413.327738 -41.96 
L 413.850687 -41.96 
L 414.373637 -41.96 
L 414.896586 -41.96 
L 415.419536 -41.96 
L 415.942485 -41.96 
L 416.465435 -41.96 
L 416.988384 -41.96 
L 417.511334 -41.96 
L 418.034283 -41.96 
L 418.557233 -41.96 
L 419.080182 -41.96 
L 419.603132 -41.96 
L 420.126081 -41.96 
L 420.649031 -41.96 
L 421.17198 -41.96 
L 421.69493 -41.96 
L 422.217879 -41.96 
L 422.740828 -41.96 
L 423.263778 -41.96 
L 423.786727 -41.96 
L 424.309677 -41.96 
L 424.832626 -41.96 
L 425.355576 -41.96 
L 425.878525 -41.96 
L 426.401475 -41.96 
L 426.924424 -41.96 
L 427.447374 -41.96 
L 427.970323 -41.96 
L 428.493273 -41.96 
L 429.016222 -41.96 
L 429.539172 -41.96 
L 430.062121 -41.96 
L 430.58507 -41.96 
L 431.10802 -41.96 
L 431.630969 -41.96 
L 432.153919 -41.96 
L 432.676868 -41.96 
L 433.199818 -41.96 
L 433.722767 -41.96 
L 434.245717 -41.96 
L 434.768666 -41.96 
L 435.291616 -41.96 
L 435.814565 -41.96 
L 436.337515 -41.96 
L 436.860464 -41.96 
L 437.383414 -41.96 
L 437.906363 -41.96 
L 438.429313 -41.96 
L 438.952262 -41.96 
L 439.475211 -41.96 
L 439.998161 -41.96 
L 440.52111 -41.96 
L 441.04406 -41.96 
L 441.567009 -41.96 
L 442.089959 -41.96 
L 442.612908 -41.96 
L 443.135858 -41.96 
L 443.658807 -41.96 
L 444.181757 -41.96 
L 444.704706 -41.96 
L 445.227656 -41.96 
L 445.750605 -41.96 
L 446.273555 -41.96 
L 446.796504 -41.96 
L 447.319454 -41.96 
L 447.842403 -41.96 
L 448.365352 -41.96 
L 448.888302 -41.96 
L 449.411251 -41.96 
L 449.934201 -41.96 
L 450.45715 -41.96 
L 450.9801 -41.96 
L 451.503049 -41.96 
L 452.025999 -41.96 
L 452.548948 -41.96 
L 453.071898 -41.96 
L 453.594847 -41.96 
L 454.117797 -41.96 
L 454.640746 -41.96 
L 455.163696 -41.96 
L 455.686645 -41.96 
L 456.209595 -41.96 
L 456.732544 -41.96 
L 457.255493 -41.96 
L 457.778443 -41.96 
L 458.301392 -41.96 
L 458.824342 -41.96 
L 459.347291 -41.96 
L 459.870241 -41.96 
L 460.39319 -41.96 
L 460.91614 -41.96 
L 461.439089 -41.96 
L 461.962039 -41.96 
L 462.484988 -41.96 
L 463.007938 -41.96 
L 463.530887 -41.96 
L 464.053837 -41.96 
L 464.576786 -41.96 
L 465.099735 -41.96 
L 465.622685 -41.96 
L 466.145634 -41.96 
L 466.668584 -41.96 
L 467.191533 -41.96 
L 467.714483 -41.96 
L 468.237432 -41.96 
L 468.760382 -41.96 
L 469.283331 -41.96 
L 469.806281 -41.96 
L 470.32923 -41.96 
L 470.85218 -41.96 
L 471.375129 -41.96 
L 471.898079 -41.96 
L 472.421028 -41.96 
L 472.943978 -41.96 
L 473.466927 -41.96 
L 473.989876 -41.96 
L 474.512826 -41.96 
L 475.035775 -41.96 
L 475.558725 -41.96 
L 476.081674 -41.96 
L 476.604624 -41.96 
L 477.127573 -41.96 
L 477.650523 -41.96 
L 478.173472 -41.96 
L 478.173472 -44.741365 
L 478.173472 -44.741365 
L 477.650523 -45.125264 
L 477.127573 -45.555368 
L 476.604624 -46.036227 
L 476.081674 -46.572697 
L 475.558725 -47.169944 
L 475.035775 -47.833443 
L 474.512826 -48.568973 
L 473.989876 -49.382613 
L 473.466927 -50.280726 
L 472.943978 -51.269946 
L 472.421028 -52.35716 
L 471.898079 -53.549479 
L 471.375129 -54.854208 
L 470.85218 -56.278815 
L 470.32923 -57.830883 
L 469.806281 -59.518068 
L 469.283331 -61.348046 
L 468.760382 -63.328451 
L 468.237432 -65.466811 
L 467.714483 -67.770481 
L 467.191533 -70.246565 
L 466.668584 -72.901836 
L 466.145634 -75.742653 
L 465.622685 -78.774867 
L 465.099735 -82.003735 
L 464.576786 -85.433821 
L 464.053837 -89.068903 
L 463.530887 -92.911874 
L 463.007938 -96.964647 
L 462.484988 -101.22806 
L 461.962039 -105.701786 
L 461.439089 -110.384245 
L 460.91614 -115.272521 
L 460.39319 -120.36229 
L 459.870241 -125.647754 
L 459.347291 -131.121584 
L 458.824342 -136.774875 
L 458.301392 -142.597116 
L 457.778443 -148.576166 
L 457.255493 -154.698258 
L 456.732544 -160.948006 
L 456.209595 -167.308432 
L 455.686645 -173.761019 
L 455.163696 -180.285768 
L 454.640746 -186.86128 
L 454.117797 -193.464861 
L 453.594847 -200.072634 
L 453.071898 -206.659675 
L 452.548948 -213.200163 
L 452.025999 -219.667549 
L 451.503049 -226.034733 
L 450.9801 -232.274261 
L 450.45715 -238.358527 
L 449.934201 -244.259984 
L 449.411251 -249.951371 
L 448.888302 -255.405932 
L 448.365352 -260.597643 
L 447.842403 -265.501442 
L 447.319454 -270.093453 
L 446.796504 -274.351198 
L 446.273555 -278.253814 
L 445.750605 -281.782248 
L 445.227656 -284.919443 
L 444.704706 -287.650507 
L 444.181757 -289.962868 
L 443.658807 -291.8464 
L 443.135858 -293.293537 
L 442.612908 -294.299361 
L 442.089959 -294.861656 
L 441.567009 -294.980952 
L 441.04406 -294.660531 
L 440.52111 -293.90641 
L 439.998161 -292.727296 
L 439.475211 -291.134522 
L 438.952262 -289.141944 
L 438.429313 -286.765829 
L 437.906363 -284.024704 
L 437.383414 -280.939199 
L 436.860464 -277.531858 
L 436.337515 -273.826938 
L 435.814565 -269.850196 
L 435.291616 -265.628652 
L 434.768666 -261.190357 
L 434.245717 -256.564141 
L 433.722767 -251.779361 
L 433.199818 -246.865651 
L 432.676868 -241.852665 
L 432.153919 -236.769831 
L 431.630969 -231.646106 
L 431.10802 -226.509743 
L 430.58507 -221.38807 
L 430.062121 -216.307275 
L 429.539172 -211.292215 
L 429.016222 -206.366242 
L 428.493273 -201.551034 
L 427.970323 -196.866469 
L 427.447374 -192.330493 
L 426.924424 -187.959034 
L 426.401475 -183.765921 
L 425.878525 -179.762832 
L 425.355576 -175.959265 
L 424.832626 -172.362526 
L 424.309677 -168.977746 
L 423.786727 -165.807908 
L 423.263778 -162.853906 
L 422.740828 -160.114611 
L 422.217879 -157.586961 
L 421.69493 -155.266069 
L 421.17198 -153.145333 
L 420.649031 -151.216578 
L 420.126081 -149.470187 
L 419.603132 -147.89526 
L 419.080182 -146.479771 
L 418.557233 -145.210727 
L 418.034283 -144.07434 
L 417.511334 -143.056197 
L 416.988384 -142.141422 
L 416.465435 -141.314852 
L 415.942485 -140.561194 
L 415.419536 -139.86519 
L 414.896586 -139.211762 
L 414.373637 -138.586163 
L 413.850687 -137.974112 
L 413.327738 -137.361916 
L 412.804789 -136.736589 
L 412.281839 -136.085952 
L 411.75889 -135.398725 
L 411.23594 -134.664606 
L 410.712991 -133.874333 
L 410.190041 -133.019737 
L 409.667092 -132.093778 
L 409.144142 -131.090573 
L 408.621193 -130.005404 
L 408.098243 -128.834715 
L 407.575294 -127.576107 
L 407.052344 -126.228304 
L 406.529395 -124.791122 
L 406.006445 -123.265427 
L 405.483496 -121.653071 
L 404.960546 -119.956842 
L 404.437597 -118.180385 
L 403.914648 -116.328132 
L 403.391698 -114.405222 
L 402.868749 -112.417416 
L 402.345799 -110.371013 
L 401.82285 -108.272762 
L 401.2999 -106.129774 
L 400.776951 -103.949436 
L 400.254001 -101.739323 
L 399.731052 -99.507119 
L 399.208102 -97.260534 
L 398.685153 -95.007231 
L 398.162203 -92.754751 
L 397.639254 -90.510453 
L 397.116304 -88.281448 
L 396.593355 -86.074549 
L 396.070405 -83.896219 
L 395.547456 -81.752536 
L 395.024507 -79.649151 
L 394.501557 -77.591266 
L 393.978608 -75.583606 
L 393.455658 -73.63041 
L 392.932709 -71.735416 
L 392.409759 -69.901861 
L 391.88681 -68.13248 
L 391.36386 -66.429514 
L 390.840911 -64.794721 
L 390.317961 -63.229393 
L 389.795012 -61.73437 
L 389.272062 -60.310069 
L 388.749113 -58.956503 
L 388.226163 -57.673311 
L 387.703214 -56.459786 
L 387.180265 -55.314904 
L 386.657315 -54.237355 
L 386.134366 -53.225575 
L 385.611416 -52.277777 
L 385.088467 -51.391978 
L 384.565517 -50.566035 
L 384.042568 -49.797668 
L 383.519618 -49.08449 
L 382.996669 -48.424036 
L 382.473719 -47.813783 
L 381.95077 -47.251176 
L 381.42782 -46.733647 
L 380.904871 -46.258639 
L 380.381921 -45.823616 
L 379.858972 -45.426085 
L 379.336022 -45.063607 
L 378.813073 -44.733808 
L 378.290124 -44.434389 
L 377.767174 -44.163138 
L 377.244225 -43.917931 
L 376.721275 -43.69674 
L 376.198326 -43.497638 
L 375.675376 -43.3188 
L 375.152427 -43.158501 
L 374.629477 -43.015123 
L 374.106528 -42.887149 
z
" id="m6033f575b5" style="stroke:#ff7f0e;"/>
    </defs>
    <g clip-path="url(#pe246323585)">
     <use style="fill:#ff7f0e;fill-opacity:0.4;stroke:#ff7f0e;" x="0" xlink:href="#m6033f575b5" y="345.6"/>
    </g>
   </g>
   <g id="matplotlib.axis_1">
    <g id="xtick_1">
     <g id="line2d_1">
      <defs>
       <path d="M 0 0 
L 0 3.5 
" id="m3db166e9a7" style="stroke:#000000;stroke-width:0.8;"/>
      </defs>
      <g>
       <use style="stroke:#000000;stroke-width:0.8;" x="44.66" xlink:href="#m3db166e9a7" y="303.64"/>
      </g>
     </g>
     <g id="text_1">
      <!-- 0.0 -->
      <g transform="translate(36.708437 318.238437)scale(0.1 -0.1)">
       <defs>
        <path d="M 2034 4250 
Q 1547 4250 1301 3770 
Q 1056 3291 1056 2328 
Q 1056 1369 1301 889 
Q 1547 409 2034 409 
Q 2525 409 2770 889 
Q 3016 1369 3016 2328 
Q 3016 3291 2770 3770 
Q 2525 4250 2034 4250 
z
M 2034 4750 
Q 2819 4750 3233 4129 
Q 3647 3509 3647 2328 
Q 3647 1150 3233 529 
Q 2819 -91 2034 -91 
Q 1250 -91 836 529 
Q 422 1150 422 2328 
Q 422 3509 836 4129 
Q 1250 4750 2034 4750 
z
" id="DejaVuSans-30" transform="scale(0.015625)"/>
        <path d="M 684 794 
L 1344 794 
L 1344 0 
L 684 0 
L 684 794 
z
" id="DejaVuSans-2e" transform="scale(0.015625)"/>
       </defs>
       <use xlink:href="#DejaVuSans-30"/>
       <use x="63.623047" xlink:href="#DejaVuSans-2e"/>
       <use x="95.410156" xlink:href="#DejaVuSans-30"/>
      </g>
     </g>
    </g>
    <g id="xtick_2">
     <g id="line2d_2">
      <g>
       <use style="stroke:#000000;stroke-width:0.8;" x="124.135" xlink:href="#m3db166e9a7" y="303.64"/>
      </g>
     </g>
     <g id="text_2">
      <!-- 0.2 -->
      <g transform="translate(116.183438 318.238437)scale(0.1 -0.1)">
       <defs>
        <path d="M 1228 531 
L 3431 531 
L 3431 0 
L 469 0 
L 469 531 
Q 828 903 1448 1529 
Q 2069 2156 2228 2338 
Q 2531 2678 2651 2914 
Q 2772 3150 2772 3378 
Q 2772 3750 2511 3984 
Q 2250 4219 1831 4219 
Q 1534 4219 1204 4116 
Q 875 4013 500 3803 
L 500 4441 
Q 881 4594 1212 4672 
Q 1544 4750 1819 4750 
Q 2544 4750 2975 4387 
Q 3406 4025 3406 3419 
Q 3406 3131 3298 2873 
Q 3191 2616 2906 2266 
Q 2828 2175 2409 1742 
Q 1991 1309 1228 531 
z
" id="DejaVuSans-32" transform="scale(0.015625)"/>
       </defs>
       <use xlink:href="#DejaVuSans-30"/>
       <use x="63.623047" xlink:href="#DejaVuSans-2e"/>
       <use x="95.410156" xlink:href="#DejaVuSans-32"/>
      </g>
     </g>
    </g>
    <g id="xtick_3">
     <g id="line2d_3">
      <g>
       <use style="stroke:#000000;stroke-width:0.8;" x="203.61" xlink:href="#m3db166e9a7" y="303.64"/>
      </g>
     </g>
     <g id="text_3">
      <!-- 0.4 -->
      <g transform="translate(195.658438 318.238437)scale(0.1 -0.1)">
       <defs>
        <path d="M 2419 4116 
L 825 1625 
L 2419 1625 
L 2419 4116 
z
M 2253 4666 
L 3047 4666 
L 3047 1625 
L 3713 1625 
L 3713 1100 
L 3047 1100 
L 3047 0 
L 2419 0 
L 2419 1100 
L 313 1100 
L 313 1709 
L 2253 4666 
z
" id="DejaVuSans-34" transform="scale(0.015625)"/>
       </defs>
       <use xlink:href="#DejaVuSans-30"/>
       <use x="63.623047" xlink:href="#DejaVuSans-2e"/>
       <use x="95.410156" xlink:href="#DejaVuSans-34"/>
      </g>
     </g>
    </g>
    <g id="xtick_4">
     <g id="line2d_4">
      <g>
       <use style="stroke:#000000;stroke-width:0.8;" x="283.085" xlink:href="#m3db166e9a7" y="303.64"/>
      </g>
     </g>
     <g id="text_4">
      <!-- 0.6 -->
      <g transform="translate(275.133438 318.238437)scale(0.1 -0.1)">
       <defs>
        <path d="M 2113 2584 
Q 1688 2584 1439 2293 
Q 1191 2003 1191 1497 
Q 1191 994 1439 701 
Q 1688 409 2113 409 
Q 2538 409 2786 701 
Q 3034 994 3034 1497 
Q 3034 2003 2786 2293 
Q 2538 2584 2113 2584 
z
M 3366 4563 
L 3366 3988 
Q 3128 4100 2886 4159 
Q 2644 4219 2406 4219 
Q 1781 4219 1451 3797 
Q 1122 3375 1075 2522 
Q 1259 2794 1537 2939 
Q 1816 3084 2150 3084 
Q 2853 3084 3261 2657 
Q 3669 2231 3669 1497 
Q 3669 778 3244 343 
Q 2819 -91 2113 -91 
Q 1303 -91 875 529 
Q 447 1150 447 2328 
Q 447 3434 972 4092 
Q 1497 4750 2381 4750 
Q 2619 4750 2861 4703 
Q 3103 4656 3366 4563 
z
" id="DejaVuSans-36" transform="scale(0.015625)"/>
       </defs>
       <use xlink:href="#DejaVuSans-30"/>
       <use x="63.623047" xlink:href="#DejaVuSans-2e"/>
       <use x="95.410156" xlink:href="#DejaVuSans-36"/>
      </g>
     </g>
    </g>
    <g id="xtick_5">
     <g id="line2d_5">
      <g>
       <use style="stroke:#000000;stroke-width:0.8;" x="362.56" xlink:href="#m3db166e9a7" y="303.64"/>
      </g>
     </g>
     <g id="text_5">
      <!-- 0.8 -->
      <g transform="translate(354.608438 318.238437)scale(0.1 -0.1)">
       <defs>
        <path d="M 2034 2216 
Q 1584 2216 1326 1975 
Q 1069 1734 1069 1313 
Q 1069 891 1326 650 
Q 1584 409 2034 409 
Q 2484 409 2743 651 
Q 3003 894 3003 1313 
Q 3003 1734 2745 1975 
Q 2488 2216 2034 2216 
z
M 1403 2484 
Q 997 2584 770 2862 
Q 544 3141 544 3541 
Q 544 4100 942 4425 
Q 1341 4750 2034 4750 
Q 2731 4750 3128 4425 
Q 3525 4100 3525 3541 
Q 3525 3141 3298 2862 
Q 3072 2584 2669 2484 
Q 3125 2378 3379 2068 
Q 3634 1759 3634 1313 
Q 3634 634 3220 271 
Q 2806 -91 2034 -91 
Q 1263 -91 848 271 
Q 434 634 434 1313 
Q 434 1759 690 2068 
Q 947 2378 1403 2484 
z
M 1172 3481 
Q 1172 3119 1398 2916 
Q 1625 2713 2034 2713 
Q 2441 2713 2670 2916 
Q 2900 3119 2900 3481 
Q 2900 3844 2670 4047 
Q 2441 4250 2034 4250 
Q 1625 4250 1398 4047 
Q 1172 3844 1172 3481 
z
" id="DejaVuSans-38" transform="scale(0.015625)"/>
       </defs>
       <use xlink:href="#DejaVuSans-30"/>
       <use x="63.623047" xlink:href="#DejaVuSans-2e"/>
       <use x="95.410156" xlink:href="#DejaVuSans-38"/>
      </g>
     </g>
    </g>
    <g id="xtick_6">
     <g id="line2d_6">
      <g>
       <use style="stroke:#000000;stroke-width:0.8;" x="442.035" xlink:href="#m3db166e9a7" y="303.64"/>
      </g>
     </g>
     <g id="text_6">
      <!-- 1.0 -->
      <g transform="translate(434.083437 318.238437)scale(0.1 -0.1)">
       <defs>
        <path d="M 794 531 
L 1825 531 
L 1825 4091 
L 703 3866 
L 703 4441 
L 1819 4666 
L 2450 4666 
L 2450 531 
L 3481 531 
L 3481 0 
L 794 0 
L 794 531 
z
" id="DejaVuSans-31" transform="scale(0.015625)"/>
       </defs>
       <use xlink:href="#DejaVuSans-31"/>
       <use x="63.623047" xlink:href="#DejaVuSans-2e"/>
       <use x="95.410156" xlink:href="#DejaVuSans-30"/>
      </g>
     </g>
    </g>
    <g id="text_7">
     <!-- Credibility index -->
     <g transform="translate(202.742812 331.916562)scale(0.1 -0.1)">
      <defs>
       <path d="M 4122 4306 
L 4122 3641 
Q 3803 3938 3442 4084 
Q 3081 4231 2675 4231 
Q 1875 4231 1450 3742 
Q 1025 3253 1025 2328 
Q 1025 1406 1450 917 
Q 1875 428 2675 428 
Q 3081 428 3442 575 
Q 3803 722 4122 1019 
L 4122 359 
Q 3791 134 3420 21 
Q 3050 -91 2638 -91 
Q 1578 -91 968 557 
Q 359 1206 359 2328 
Q 359 3453 968 4101 
Q 1578 4750 2638 4750 
Q 3056 4750 3426 4639 
Q 3797 4528 4122 4306 
z
" id="DejaVuSans-43" transform="scale(0.015625)"/>
       <path d="M 2631 2963 
Q 2534 3019 2420 3045 
Q 2306 3072 2169 3072 
Q 1681 3072 1420 2755 
Q 1159 2438 1159 1844 
L 1159 0 
L 581 0 
L 581 3500 
L 1159 3500 
L 1159 2956 
Q 1341 3275 1631 3429 
Q 1922 3584 2338 3584 
Q 2397 3584 2469 3576 
Q 2541 3569 2628 3553 
L 2631 2963 
z
" id="DejaVuSans-72" transform="scale(0.015625)"/>
       <path d="M 3597 1894 
L 3597 1613 
L 953 1613 
Q 991 1019 1311 708 
Q 1631 397 2203 397 
Q 2534 397 2845 478 
Q 3156 559 3463 722 
L 3463 178 
Q 3153 47 2828 -22 
Q 2503 -91 2169 -91 
Q 1331 -91 842 396 
Q 353 884 353 1716 
Q 353 2575 817 3079 
Q 1281 3584 2069 3584 
Q 2775 3584 3186 3129 
Q 3597 2675 3597 1894 
z
M 3022 2063 
Q 3016 2534 2758 2815 
Q 2500 3097 2075 3097 
Q 1594 3097 1305 2825 
Q 1016 2553 972 2059 
L 3022 2063 
z
" id="DejaVuSans-65" transform="scale(0.015625)"/>
       <path d="M 2906 2969 
L 2906 4863 
L 3481 4863 
L 3481 0 
L 2906 0 
L 2906 525 
Q 2725 213 2448 61 
Q 2172 -91 1784 -91 
Q 1150 -91 751 415 
Q 353 922 353 1747 
Q 353 2572 751 3078 
Q 1150 3584 1784 3584 
Q 2172 3584 2448 3432 
Q 2725 3281 2906 2969 
z
M 947 1747 
Q 947 1113 1208 752 
Q 1469 391 1925 391 
Q 2381 391 2643 752 
Q 2906 1113 2906 1747 
Q 2906 2381 2643 2742 
Q 2381 3103 1925 3103 
Q 1469 3103 1208 2742 
Q 947 2381 947 1747 
z
" id="DejaVuSans-64" transform="scale(0.015625)"/>
       <path d="M 603 3500 
L 1178 3500 
L 1178 0 
L 603 0 
L 603 3500 
z
M 603 4863 
L 1178 4863 
L 1178 4134 
L 603 4134 
L 603 4863 
z
" id="DejaVuSans-69" transform="scale(0.015625)"/>
       <path d="M 3116 1747 
Q 3116 2381 2855 2742 
Q 2594 3103 2138 3103 
Q 1681 3103 1420 2742 
Q 1159 2381 1159 1747 
Q 1159 1113 1420 752 
Q 1681 391 2138 391 
Q 2594 391 2855 752 
Q 3116 1113 3116 1747 
z
M 1159 2969 
Q 1341 3281 1617 3432 
Q 1894 3584 2278 3584 
Q 2916 3584 3314 3078 
Q 3713 2572 3713 1747 
Q 3713 922 3314 415 
Q 2916 -91 2278 -91 
Q 1894 -91 1617 61 
Q 1341 213 1159 525 
L 1159 0 
L 581 0 
L 581 4863 
L 1159 4863 
L 1159 2969 
z
" id="DejaVuSans-62" transform="scale(0.015625)"/>
       <path d="M 603 4863 
L 1178 4863 
L 1178 0 
L 603 0 
L 603 4863 
z
" id="DejaVuSans-6c" transform="scale(0.015625)"/>
       <path d="M 1172 4494 
L 1172 3500 
L 2356 3500 
L 2356 3053 
L 1172 3053 
L 1172 1153 
Q 1172 725 1289 603 
Q 1406 481 1766 481 
L 2356 481 
L 2356 0 
L 1766 0 
Q 1100 0 847 248 
Q 594 497 594 1153 
L 594 3053 
L 172 3053 
L 172 3500 
L 594 3500 
L 594 4494 
L 1172 4494 
z
" id="DejaVuSans-74" transform="scale(0.015625)"/>
       <path d="M 2059 -325 
Q 1816 -950 1584 -1140 
Q 1353 -1331 966 -1331 
L 506 -1331 
L 506 -850 
L 844 -850 
Q 1081 -850 1212 -737 
Q 1344 -625 1503 -206 
L 1606 56 
L 191 3500 
L 800 3500 
L 1894 763 
L 2988 3500 
L 3597 3500 
L 2059 -325 
z
" id="DejaVuSans-79" transform="scale(0.015625)"/>
       <path id="DejaVuSans-20" transform="scale(0.015625)"/>
       <path d="M 3513 2113 
L 3513 0 
L 2938 0 
L 2938 2094 
Q 2938 2591 2744 2837 
Q 2550 3084 2163 3084 
Q 1697 3084 1428 2787 
Q 1159 2491 1159 1978 
L 1159 0 
L 581 0 
L 581 3500 
L 1159 3500 
L 1159 2956 
Q 1366 3272 1645 3428 
Q 1925 3584 2291 3584 
Q 2894 3584 3203 3211 
Q 3513 2838 3513 2113 
z
" id="DejaVuSans-6e" transform="scale(0.015625)"/>
       <path d="M 3513 3500 
L 2247 1797 
L 3578 0 
L 2900 0 
L 1881 1375 
L 863 0 
L 184 0 
L 1544 1831 
L 300 3500 
L 978 3500 
L 1906 2253 
L 2834 3500 
L 3513 3500 
z
" id="DejaVuSans-78" transform="scale(0.015625)"/>
      </defs>
      <use xlink:href="#DejaVuSans-43"/>
      <use x="69.824219" xlink:href="#DejaVuSans-72"/>
      <use x="108.6875" xlink:href="#DejaVuSans-65"/>
      <use x="170.210938" xlink:href="#DejaVuSans-64"/>
      <use x="233.6875" xlink:href="#DejaVuSans-69"/>
      <use x="261.470703" xlink:href="#DejaVuSans-62"/>
      <use x="324.947266" xlink:href="#DejaVuSans-69"/>
      <use x="352.730469" xlink:href="#DejaVuSans-6c"/>
      <use x="380.513672" xlink:href="#DejaVuSans-69"/>
      <use x="408.296875" xlink:href="#DejaVuSans-74"/>
      <use x="447.505859" xlink:href="#DejaVuSans-79"/>
      <use x="506.685547" xlink:href="#DejaVuSans-20"/>
      <use x="538.472656" xlink:href="#DejaVuSans-69"/>
      <use x="566.255859" xlink:href="#DejaVuSans-6e"/>
      <use x="629.634766" xlink:href="#DejaVuSans-64"/>
      <use x="693.111328" xlink:href="#DejaVuSans-65"/>
      <use x="752.884766" xlink:href="#DejaVuSans-78"/>
     </g>
    </g>
   </g>
   <g id="matplotlib.axis_2">
    <g id="ytick_1">
     <g id="line2d_7">
      <defs>
       <path d="M 0 0 
L -3.5 0 
" id="m88c602b06d" style="stroke:#000000;stroke-width:0.8;"/>
      </defs>
      <g>
       <use style="stroke:#000000;stroke-width:0.8;" x="44.66" xlink:href="#m88c602b06d" y="303.64"/>
      </g>
     </g>
     <g id="text_8">
      <!-- 0 -->
      <g transform="translate(31.2975 307.439219)scale(0.1 -0.1)">
       <use xlink:href="#DejaVuSans-30"/>
      </g>
     </g>
    </g>
    <g id="ytick_2">
     <g id="line2d_8">
      <g>
       <use style="stroke:#000000;stroke-width:0.8;" x="44.66" xlink:href="#m88c602b06d" y="252.907274"/>
      </g>
     </g>
     <g id="text_9">
      <!-- 2 -->
      <g transform="translate(31.2975 256.706493)scale(0.1 -0.1)">
       <use xlink:href="#DejaVuSans-32"/>
      </g>
     </g>
    </g>
    <g id="ytick_3">
     <g id="line2d_9">
      <g>
       <use style="stroke:#000000;stroke-width:0.8;" x="44.66" xlink:href="#m88c602b06d" y="202.174548"/>
      </g>
     </g>
     <g id="text_10">
      <!-- 4 -->
      <g transform="translate(31.2975 205.973767)scale(0.1 -0.1)">
       <use xlink:href="#DejaVuSans-34"/>
      </g>
     </g>
    </g>
    <g id="ytick_4">
     <g id="line2d_10">
      <g>
       <use style="stroke:#000000;stroke-width:0.8;" x="44.66" xlink:href="#m88c602b06d" y="151.441822"/>
      </g>
     </g>
     <g id="text_11">
      <!-- 6 -->
      <g transform="translate(31.2975 155.241041)scale(0.1 -0.1)">
       <use xlink:href="#DejaVuSans-36"/>
      </g>
     </g>
    </g>
    <g id="ytick_5">
     <g id="line2d_11">
      <g>
       <use style="stroke:#000000;stroke-width:0.8;" x="44.66" xlink:href="#m88c602b06d" y="100.709096"/>
      </g>
     </g>
     <g id="text_12">
      <!-- 8 -->
      <g transform="translate(31.2975 104.508315)scale(0.1 -0.1)">
       <use xlink:href="#DejaVuSans-38"/>
      </g>
     </g>
    </g>
    <g id="ytick_6">
     <g id="line2d_12">
      <g>
       <use style="stroke:#000000;stroke-width:0.8;" x="44.66" xlink:href="#m88c602b06d" y="49.97637"/>
      </g>
     </g>
     <g id="text_13">
      <!-- 10 -->
      <g transform="translate(24.935 53.775589)scale(0.1 -0.1)">
       <use xlink:href="#DejaVuSans-31"/>
       <use x="63.623047" xlink:href="#DejaVuSans-30"/>
      </g>
     </g>
    </g>
    <g id="text_14">
     <!-- Density -->
     <g transform="translate(18.855312 189.812594)rotate(-90)scale(0.1 -0.1)">
      <defs>
       <path d="M 1259 4147 
L 1259 519 
L 2022 519 
Q 2988 519 3436 956 
Q 3884 1394 3884 2338 
Q 3884 3275 3436 3711 
Q 2988 4147 2022 4147 
L 1259 4147 
z
M 628 4666 
L 1925 4666 
Q 3281 4666 3915 4102 
Q 4550 3538 4550 2338 
Q 4550 1131 3912 565 
Q 3275 0 1925 0 
L 628 0 
L 628 4666 
z
" id="DejaVuSans-44" transform="scale(0.015625)"/>
       <path d="M 2834 3397 
L 2834 2853 
Q 2591 2978 2328 3040 
Q 2066 3103 1784 3103 
Q 1356 3103 1142 2972 
Q 928 2841 928 2578 
Q 928 2378 1081 2264 
Q 1234 2150 1697 2047 
L 1894 2003 
Q 2506 1872 2764 1633 
Q 3022 1394 3022 966 
Q 3022 478 2636 193 
Q 2250 -91 1575 -91 
Q 1294 -91 989 -36 
Q 684 19 347 128 
L 347 722 
Q 666 556 975 473 
Q 1284 391 1588 391 
Q 1994 391 2212 530 
Q 2431 669 2431 922 
Q 2431 1156 2273 1281 
Q 2116 1406 1581 1522 
L 1381 1569 
Q 847 1681 609 1914 
Q 372 2147 372 2553 
Q 372 3047 722 3315 
Q 1072 3584 1716 3584 
Q 2034 3584 2315 3537 
Q 2597 3491 2834 3397 
z
" id="DejaVuSans-73" transform="scale(0.015625)"/>
      </defs>
      <use xlink:href="#DejaVuSans-44"/>
      <use x="77.001953" xlink:href="#DejaVuSans-65"/>
      <use x="138.525391" xlink:href="#DejaVuSans-6e"/>
      <use x="201.904297" xlink:href="#DejaVuSans-73"/>
      <use x="254.003906" xlink:href="#DejaVuSans-69"/>
      <use x="281.787109" xlink:href="#DejaVuSans-74"/>
      <use x="320.996094" xlink:href="#DejaVuSans-79"/>
     </g>
    </g>
   </g>
   <g id="patch_3">
    <path d="M 44.66 303.64 
L 44.66 37.968 
" style="fill:none;stroke:#000000;stroke-linecap:square;stroke-linejoin:miter;stroke-width:0.8;"/>
   </g>
   <g id="patch_4">
    <path d="M 442.035 303.64 
L 442.035 37.968 
" style="fill:none;stroke:#000000;stroke-linecap:square;stroke-linejoin:miter;stroke-width:0.8;"/>
   </g>
   <g id="patch_5">
    <path d="M 44.66 303.64 
L 442.035 303.64 
" style="fill:none;stroke:#000000;stroke-linecap:square;stroke-linejoin:miter;stroke-width:0.8;"/>
   </g>
   <g id="patch_6">
    <path d="M 44.66 37.968 
L 442.035 37.968 
" style="fill:none;stroke:#000000;stroke-linecap:square;stroke-linejoin:miter;stroke-width:0.8;"/>
   </g>
   <g id="text_15">
    <!-- Credibility index consensus vs non consensus  -->
    <g transform="translate(104.24125 18.530625)scale(0.12 -0.12)">
     <defs>
      <path d="M 3122 3366 
L 3122 2828 
Q 2878 2963 2633 3030 
Q 2388 3097 2138 3097 
Q 1578 3097 1268 2742 
Q 959 2388 959 1747 
Q 959 1106 1268 751 
Q 1578 397 2138 397 
Q 2388 397 2633 464 
Q 2878 531 3122 666 
L 3122 134 
Q 2881 22 2623 -34 
Q 2366 -91 2075 -91 
Q 1284 -91 818 406 
Q 353 903 353 1747 
Q 353 2603 823 3093 
Q 1294 3584 2113 3584 
Q 2378 3584 2631 3529 
Q 2884 3475 3122 3366 
z
" id="DejaVuSans-63" transform="scale(0.015625)"/>
      <path d="M 1959 3097 
Q 1497 3097 1228 2736 
Q 959 2375 959 1747 
Q 959 1119 1226 758 
Q 1494 397 1959 397 
Q 2419 397 2687 759 
Q 2956 1122 2956 1747 
Q 2956 2369 2687 2733 
Q 2419 3097 1959 3097 
z
M 1959 3584 
Q 2709 3584 3137 3096 
Q 3566 2609 3566 1747 
Q 3566 888 3137 398 
Q 2709 -91 1959 -91 
Q 1206 -91 779 398 
Q 353 888 353 1747 
Q 353 2609 779 3096 
Q 1206 3584 1959 3584 
z
" id="DejaVuSans-6f" transform="scale(0.015625)"/>
      <path d="M 544 1381 
L 544 3500 
L 1119 3500 
L 1119 1403 
Q 1119 906 1312 657 
Q 1506 409 1894 409 
Q 2359 409 2629 706 
Q 2900 1003 2900 1516 
L 2900 3500 
L 3475 3500 
L 3475 0 
L 2900 0 
L 2900 538 
Q 2691 219 2414 64 
Q 2138 -91 1772 -91 
Q 1169 -91 856 284 
Q 544 659 544 1381 
z
M 1991 3584 
L 1991 3584 
z
" id="DejaVuSans-75" transform="scale(0.015625)"/>
      <path d="M 191 3500 
L 800 3500 
L 1894 563 
L 2988 3500 
L 3597 3500 
L 2284 0 
L 1503 0 
L 191 3500 
z
" id="DejaVuSans-76" transform="scale(0.015625)"/>
     </defs>
     <use xlink:href="#DejaVuSans-43"/>
     <use x="69.824219" xlink:href="#DejaVuSans-72"/>
     <use x="108.6875" xlink:href="#DejaVuSans-65"/>
     <use x="170.210938" xlink:href="#DejaVuSans-64"/>
     <use x="233.6875" xlink:href="#DejaVuSans-69"/>
     <use x="261.470703" xlink:href="#DejaVuSans-62"/>
     <use x="324.947266" xlink:href="#DejaVuSans-69"/>
     <use x="352.730469" xlink:href="#DejaVuSans-6c"/>
     <use x="380.513672" xlink:href="#DejaVuSans-69"/>
     <use x="408.296875" xlink:href="#DejaVuSans-74"/>
     <use x="447.505859" xlink:href="#DejaVuSans-79"/>
     <use x="506.685547" xlink:href="#DejaVuSans-20"/>
     <use x="538.472656" xlink:href="#DejaVuSans-69"/>
     <use x="566.255859" xlink:href="#DejaVuSans-6e"/>
     <use x="629.634766" xlink:href="#DejaVuSans-64"/>
     <use x="693.111328" xlink:href="#DejaVuSans-65"/>
     <use x="752.884766" xlink:href="#DejaVuSans-78"/>
     <use x="812.064453" xlink:href="#DejaVuSans-20"/>
     <use x="843.851562" xlink:href="#DejaVuSans-63"/>
     <use x="898.832031" xlink:href="#DejaVuSans-6f"/>
     <use x="960.013672" xlink:href="#DejaVuSans-6e"/>
     <use x="1023.392578" xlink:href="#DejaVuSans-73"/>
     <use x="1075.492188" xlink:href="#DejaVuSans-65"/>
     <use x="1137.015625" xlink:href="#DejaVuSans-6e"/>
     <use x="1200.394531" xlink:href="#DejaVuSans-73"/>
     <use x="1252.494141" xlink:href="#DejaVuSans-75"/>
     <use x="1315.873047" xlink:href="#DejaVuSans-73"/>
     <use x="1367.972656" xlink:href="#DejaVuSans-20"/>
     <use x="1399.759766" xlink:href="#DejaVuSans-76"/>
     <use x="1458.939453" xlink:href="#DejaVuSans-73"/>
     <use x="1511.039062" xlink:href="#DejaVuSans-20"/>
     <use x="1542.826172" xlink:href="#DejaVuSans-6e"/>
     <use x="1606.205078" xlink:href="#DejaVuSans-6f"/>
     <use x="1667.386719" xlink:href="#DejaVuSans-6e"/>
     <use x="1730.765625" xlink:href="#DejaVuSans-20"/>
     <use x="1762.552734" xlink:href="#DejaVuSans-63"/>
     <use x="1817.533203" xlink:href="#DejaVuSans-6f"/>
     <use x="1878.714844" xlink:href="#DejaVuSans-6e"/>
     <use x="1942.09375" xlink:href="#DejaVuSans-73"/>
     <use x="1994.193359" xlink:href="#DejaVuSans-65"/>
     <use x="2055.716797" xlink:href="#DejaVuSans-6e"/>
     <use x="2119.095703" xlink:href="#DejaVuSans-73"/>
     <use x="2171.195312" xlink:href="#DejaVuSans-75"/>
     <use x="2234.574219" xlink:href="#DejaVuSans-73"/>
     <use x="2286.673828" xlink:href="#DejaVuSans-20"/>
    </g>
    <!-- Set s1 -->
    <g transform="translate(224.644375 31.968)scale(0.12 -0.12)">
     <defs>
      <path d="M 3425 4513 
L 3425 3897 
Q 3066 4069 2747 4153 
Q 2428 4238 2131 4238 
Q 1616 4238 1336 4038 
Q 1056 3838 1056 3469 
Q 1056 3159 1242 3001 
Q 1428 2844 1947 2747 
L 2328 2669 
Q 3034 2534 3370 2195 
Q 3706 1856 3706 1288 
Q 3706 609 3251 259 
Q 2797 -91 1919 -91 
Q 1588 -91 1214 -16 
Q 841 59 441 206 
L 441 856 
Q 825 641 1194 531 
Q 1563 422 1919 422 
Q 2459 422 2753 634 
Q 3047 847 3047 1241 
Q 3047 1584 2836 1778 
Q 2625 1972 2144 2069 
L 1759 2144 
Q 1053 2284 737 2584 
Q 422 2884 422 3419 
Q 422 4038 858 4394 
Q 1294 4750 2059 4750 
Q 2388 4750 2728 4690 
Q 3069 4631 3425 4513 
z
" id="DejaVuSans-53" transform="scale(0.015625)"/>
     </defs>
     <use xlink:href="#DejaVuSans-53"/>
     <use x="63.476562" xlink:href="#DejaVuSans-65"/>
     <use x="125" xlink:href="#DejaVuSans-74"/>
     <use x="164.208984" xlink:href="#DejaVuSans-20"/>
     <use x="195.996094" xlink:href="#DejaVuSans-73"/>
     <use x="248.095703" xlink:href="#DejaVuSans-31"/>
    </g>
   </g>
   <g id="legend_1">
    <g id="patch_7">
     <path d="M 51.66 97.719875 
L 222.202188 97.719875 
Q 224.202188 97.719875 224.202188 95.719875 
L 224.202188 44.968 
Q 224.202188 42.968 222.202188 42.968 
L 51.66 42.968 
Q 49.66 42.968 49.66 44.968 
L 49.66 95.719875 
Q 49.66 97.719875 51.66 97.719875 
z
" style="fill:#ffffff;opacity:0.8;stroke:#cccccc;stroke-linejoin:miter;"/>
    </g>
    <g id="patch_8">
     <path d="M 53.66 61.205188 
L 73.66 61.205188 
L 73.66 54.205188 
L 53.66 54.205188 
z
" style="fill:#1f77b4;fill-opacity:0.4;stroke:#1f77b4;stroke-linejoin:miter;"/>
    </g>
    <g id="text_16">
     <!-- Correlation higher than 0  -->
     <g transform="translate(81.66 54.566438)scale(0.1 -0.1)">
      <defs>
       <path d="M 2194 1759 
Q 1497 1759 1228 1600 
Q 959 1441 959 1056 
Q 959 750 1161 570 
Q 1363 391 1709 391 
Q 2188 391 2477 730 
Q 2766 1069 2766 1631 
L 2766 1759 
L 2194 1759 
z
M 3341 1997 
L 3341 0 
L 2766 0 
L 2766 531 
Q 2569 213 2275 61 
Q 1981 -91 1556 -91 
Q 1019 -91 701 211 
Q 384 513 384 1019 
Q 384 1609 779 1909 
Q 1175 2209 1959 2209 
L 2766 2209 
L 2766 2266 
Q 2766 2663 2505 2880 
Q 2244 3097 1772 3097 
Q 1472 3097 1187 3025 
Q 903 2953 641 2809 
L 641 3341 
Q 956 3463 1253 3523 
Q 1550 3584 1831 3584 
Q 2591 3584 2966 3190 
Q 3341 2797 3341 1997 
z
" id="DejaVuSans-61" transform="scale(0.015625)"/>
       <path d="M 3513 2113 
L 3513 0 
L 2938 0 
L 2938 2094 
Q 2938 2591 2744 2837 
Q 2550 3084 2163 3084 
Q 1697 3084 1428 2787 
Q 1159 2491 1159 1978 
L 1159 0 
L 581 0 
L 581 4863 
L 1159 4863 
L 1159 2956 
Q 1366 3272 1645 3428 
Q 1925 3584 2291 3584 
Q 2894 3584 3203 3211 
Q 3513 2838 3513 2113 
z
" id="DejaVuSans-68" transform="scale(0.015625)"/>
       <path d="M 2906 1791 
Q 2906 2416 2648 2759 
Q 2391 3103 1925 3103 
Q 1463 3103 1205 2759 
Q 947 2416 947 1791 
Q 947 1169 1205 825 
Q 1463 481 1925 481 
Q 2391 481 2648 825 
Q 2906 1169 2906 1791 
z
M 3481 434 
Q 3481 -459 3084 -895 
Q 2688 -1331 1869 -1331 
Q 1566 -1331 1297 -1286 
Q 1028 -1241 775 -1147 
L 775 -588 
Q 1028 -725 1275 -790 
Q 1522 -856 1778 -856 
Q 2344 -856 2625 -561 
Q 2906 -266 2906 331 
L 2906 616 
Q 2728 306 2450 153 
Q 2172 0 1784 0 
Q 1141 0 747 490 
Q 353 981 353 1791 
Q 353 2603 747 3093 
Q 1141 3584 1784 3584 
Q 2172 3584 2450 3431 
Q 2728 3278 2906 2969 
L 2906 3500 
L 3481 3500 
L 3481 434 
z
" id="DejaVuSans-67" transform="scale(0.015625)"/>
      </defs>
      <use xlink:href="#DejaVuSans-43"/>
      <use x="69.824219" xlink:href="#DejaVuSans-6f"/>
      <use x="131.005859" xlink:href="#DejaVuSans-72"/>
      <use x="170.369141" xlink:href="#DejaVuSans-72"/>
      <use x="209.232422" xlink:href="#DejaVuSans-65"/>
      <use x="270.755859" xlink:href="#DejaVuSans-6c"/>
      <use x="298.539062" xlink:href="#DejaVuSans-61"/>
      <use x="359.818359" xlink:href="#DejaVuSans-74"/>
      <use x="399.027344" xlink:href="#DejaVuSans-69"/>
      <use x="426.810547" xlink:href="#DejaVuSans-6f"/>
      <use x="487.992188" xlink:href="#DejaVuSans-6e"/>
      <use x="551.371094" xlink:href="#DejaVuSans-20"/>
      <use x="583.158203" xlink:href="#DejaVuSans-68"/>
      <use x="646.537109" xlink:href="#DejaVuSans-69"/>
      <use x="674.320312" xlink:href="#DejaVuSans-67"/>
      <use x="737.796875" xlink:href="#DejaVuSans-68"/>
      <use x="801.175781" xlink:href="#DejaVuSans-65"/>
      <use x="862.699219" xlink:href="#DejaVuSans-72"/>
      <use x="903.8125" xlink:href="#DejaVuSans-20"/>
      <use x="935.599609" xlink:href="#DejaVuSans-74"/>
      <use x="974.808594" xlink:href="#DejaVuSans-68"/>
      <use x="1038.1875" xlink:href="#DejaVuSans-61"/>
      <use x="1099.466797" xlink:href="#DejaVuSans-6e"/>
      <use x="1162.845703" xlink:href="#DejaVuSans-20"/>
      <use x="1194.632812" xlink:href="#DejaVuSans-30"/>
      <use x="1258.255859" xlink:href="#DejaVuSans-20"/>
     </g>
     <!-- n=357 -->
     <g transform="translate(81.66 65.76425)scale(0.1 -0.1)">
      <defs>
       <path d="M 678 2906 
L 4684 2906 
L 4684 2381 
L 678 2381 
L 678 2906 
z
M 678 1631 
L 4684 1631 
L 4684 1100 
L 678 1100 
L 678 1631 
z
" id="DejaVuSans-3d" transform="scale(0.015625)"/>
       <path d="M 2597 2516 
Q 3050 2419 3304 2112 
Q 3559 1806 3559 1356 
Q 3559 666 3084 287 
Q 2609 -91 1734 -91 
Q 1441 -91 1130 -33 
Q 819 25 488 141 
L 488 750 
Q 750 597 1062 519 
Q 1375 441 1716 441 
Q 2309 441 2620 675 
Q 2931 909 2931 1356 
Q 2931 1769 2642 2001 
Q 2353 2234 1838 2234 
L 1294 2234 
L 1294 2753 
L 1863 2753 
Q 2328 2753 2575 2939 
Q 2822 3125 2822 3475 
Q 2822 3834 2567 4026 
Q 2313 4219 1838 4219 
Q 1578 4219 1281 4162 
Q 984 4106 628 3988 
L 628 4550 
Q 988 4650 1302 4700 
Q 1616 4750 1894 4750 
Q 2613 4750 3031 4423 
Q 3450 4097 3450 3541 
Q 3450 3153 3228 2886 
Q 3006 2619 2597 2516 
z
" id="DejaVuSans-33" transform="scale(0.015625)"/>
       <path d="M 691 4666 
L 3169 4666 
L 3169 4134 
L 1269 4134 
L 1269 2991 
Q 1406 3038 1543 3061 
Q 1681 3084 1819 3084 
Q 2600 3084 3056 2656 
Q 3513 2228 3513 1497 
Q 3513 744 3044 326 
Q 2575 -91 1722 -91 
Q 1428 -91 1123 -41 
Q 819 9 494 109 
L 494 744 
Q 775 591 1075 516 
Q 1375 441 1709 441 
Q 2250 441 2565 725 
Q 2881 1009 2881 1497 
Q 2881 1984 2565 2268 
Q 2250 2553 1709 2553 
Q 1456 2553 1204 2497 
Q 953 2441 691 2322 
L 691 4666 
z
" id="DejaVuSans-35" transform="scale(0.015625)"/>
       <path d="M 525 4666 
L 3525 4666 
L 3525 4397 
L 1831 0 
L 1172 0 
L 2766 4134 
L 525 4134 
L 525 4666 
z
" id="DejaVuSans-37" transform="scale(0.015625)"/>
      </defs>
      <use xlink:href="#DejaVuSans-6e"/>
      <use x="63.378906" xlink:href="#DejaVuSans-3d"/>
      <use x="147.167969" xlink:href="#DejaVuSans-33"/>
      <use x="210.791016" xlink:href="#DejaVuSans-35"/>
      <use x="274.414062" xlink:href="#DejaVuSans-37"/>
     </g>
    </g>
    <g id="patch_9">
     <path d="M 53.66 87.081125 
L 73.66 87.081125 
L 73.66 80.081125 
L 53.66 80.081125 
z
" style="fill:#ff7f0e;fill-opacity:0.4;stroke:#ff7f0e;stroke-linejoin:miter;"/>
    </g>
    <g id="text_17">
     <!-- Correlation higher than 0.8  -->
     <g transform="translate(81.66 80.442375)scale(0.1 -0.1)">
      <use xlink:href="#DejaVuSans-43"/>
      <use x="69.824219" xlink:href="#DejaVuSans-6f"/>
      <use x="131.005859" xlink:href="#DejaVuSans-72"/>
      <use x="170.369141" xlink:href="#DejaVuSans-72"/>
      <use x="209.232422" xlink:href="#DejaVuSans-65"/>
      <use x="270.755859" xlink:href="#DejaVuSans-6c"/>
      <use x="298.539062" xlink:href="#DejaVuSans-61"/>
      <use x="359.818359" xlink:href="#DejaVuSans-74"/>
      <use x="399.027344" xlink:href="#DejaVuSans-69"/>
      <use x="426.810547" xlink:href="#DejaVuSans-6f"/>
      <use x="487.992188" xlink:href="#DejaVuSans-6e"/>
      <use x="551.371094" xlink:href="#DejaVuSans-20"/>
      <use x="583.158203" xlink:href="#DejaVuSans-68"/>
      <use x="646.537109" xlink:href="#DejaVuSans-69"/>
      <use x="674.320312" xlink:href="#DejaVuSans-67"/>
      <use x="737.796875" xlink:href="#DejaVuSans-68"/>
      <use x="801.175781" xlink:href="#DejaVuSans-65"/>
      <use x="862.699219" xlink:href="#DejaVuSans-72"/>
      <use x="903.8125" xlink:href="#DejaVuSans-20"/>
      <use x="935.599609" xlink:href="#DejaVuSans-74"/>
      <use x="974.808594" xlink:href="#DejaVuSans-68"/>
      <use x="1038.1875" xlink:href="#DejaVuSans-61"/>
      <use x="1099.466797" xlink:href="#DejaVuSans-6e"/>
      <use x="1162.845703" xlink:href="#DejaVuSans-20"/>
      <use x="1194.632812" xlink:href="#DejaVuSans-30"/>
      <use x="1258.255859" xlink:href="#DejaVuSans-2e"/>
      <use x="1290.042969" xlink:href="#DejaVuSans-38"/>
      <use x="1353.666016" xlink:href="#DejaVuSans-20"/>
     </g>
     <!-- n=4 -->
     <g transform="translate(81.66 91.640187)scale(0.1 -0.1)">
      <use xlink:href="#DejaVuSans-6e"/>
      <use x="63.378906" xlink:href="#DejaVuSans-3d"/>
      <use x="147.167969" xlink:href="#DejaVuSans-34"/>
     </g>
    </g>
   </g>
  </g>
 </g>
 <defs>
  <clipPath id="pe246323585">
   <rect height="265.672" width="397.375" x="44.66" y="37.968"/>
  </clipPath>
 </defs>
</svg>
