<?xml version="1.0" encoding="utf-8" standalone="no"?>
<!DOCTYPE svg PUBLIC "-//W3C//DTD SVG 1.1//EN"
  "http://www.w3.org/Graphics/SVG/1.1/DTD/svg11.dtd">
<svg height="345.6pt" version="1.1" viewBox="0 0 460.8 345.6" width="460.8pt" xmlns="http://www.w3.org/2000/svg" xmlns:xlink="http://www.w3.org/1999/xlink">
 <metadata>
  <rdf:RDF xmlns:cc="http://creativecommons.org/ns#" xmlns:dc="http://purl.org/dc/elements/1.1/" xmlns:rdf="http://www.w3.org/1999/02/22-rdf-syntax-ns#">
   <cc:Work>
    <dc:type rdf:resource="http://purl.org/dc/dcmitype/StillImage"/>
    <dc:date>2021-11-24T22:50:17.644177</dc:date>
    <dc:format>image/svg+xml</dc:format>
    <dc:creator>
     <cc:Agent>
      <dc:title>Matplotlib v3.4.3, https://matplotlib.org/</dc:title>
     </cc:Agent>
    </dc:creator>
   </cc:Work>
  </rdf:RDF>
 </metadata>
 <defs>
  <style type="text/css">*{stroke-linecap:butt;stroke-linejoin:round;}</style>
 </defs>
 <g id="figure_1">
  <g id="patch_1">
   <path d="M 0 345.6 
L 460.8 345.6 
L 460.8 0 
L 0 0 
z
" style="fill:#ffffff;"/>
  </g>
  <g id="axes_1">
   <g id="patch_2">
    <path d="M 54.2 303.64 
L 442.035 303.64 
L 442.035 37.968 
L 54.2 37.968 
z
" style="fill:#ffffff;"/>
   </g>
   <g id="PolyCollection_1">
    <path clip-path="url(#pd7c7a0ad2f)" d="M -14.17591 303.410164 
L -14.17591 303.64 
L -11.305925 303.64 
L -8.43594 303.64 
L -5.565955 303.64 
L -2.69597 303.64 
L 0.174015 303.64 
L 3.044 303.64 
L 5.913985 303.64 
L 8.78397 303.64 
L 11.653955 303.64 
L 14.52394 303.64 
L 17.393925 303.64 
L 20.263911 303.64 
L 23.133896 303.64 
L 26.003881 303.64 
L 28.873866 303.64 
L 31.743851 303.64 
L 34.613836 303.64 
L 37.483821 303.64 
L 40.353806 303.64 
L 43.223791 303.64 
L 46.093776 303.64 
L 48.963761 303.64 
L 51.833746 303.64 
L 54.703731 303.64 
L 57.573716 303.64 
L 60.443701 303.64 
L 63.313686 303.64 
L 66.183671 303.64 
L 69.053656 303.64 
L 71.923641 303.64 
L 74.793626 303.64 
L 77.663611 303.64 
L 80.533596 303.64 
L 83.403581 303.64 
L 86.273566 303.64 
L 89.143551 303.64 
L 92.013536 303.64 
L 94.883521 303.64 
L 97.753506 303.64 
L 100.623491 303.64 
L 103.493476 303.64 
L 106.363461 303.64 
L 109.233446 303.64 
L 112.103431 303.64 
L 114.973416 303.64 
L 117.843401 303.64 
L 120.713386 303.64 
L 123.583371 303.64 
L 126.453356 303.64 
L 129.323341 303.64 
L 132.193326 303.64 
L 135.063311 303.64 
L 137.933296 303.64 
L 140.803281 303.64 
L 143.673266 303.64 
L 146.543252 303.64 
L 149.413237 303.64 
L 152.283222 303.64 
L 155.153207 303.64 
L 158.023192 303.64 
L 160.893177 303.64 
L 163.763162 303.64 
L 166.633147 303.64 
L 169.503132 303.64 
L 172.373117 303.64 
L 175.243102 303.64 
L 178.113087 303.64 
L 180.983072 303.64 
L 183.853057 303.64 
L 186.723042 303.64 
L 189.593027 303.64 
L 192.463012 303.64 
L 195.332997 303.64 
L 198.202982 303.64 
L 201.072967 303.64 
L 203.942952 303.64 
L 206.812937 303.64 
L 209.682922 303.64 
L 212.552907 303.64 
L 215.422892 303.64 
L 218.292877 303.64 
L 221.162862 303.64 
L 224.032847 303.64 
L 226.902832 303.64 
L 229.772817 303.64 
L 232.642802 303.64 
L 235.512787 303.64 
L 238.382772 303.64 
L 241.252757 303.64 
L 244.122742 303.64 
L 246.992727 303.64 
L 249.862712 303.64 
L 252.732697 303.64 
L 255.602682 303.64 
L 258.472667 303.64 
L 261.342652 303.64 
L 264.212637 303.64 
L 267.082622 303.64 
L 269.952607 303.64 
L 272.822593 303.64 
L 275.692578 303.64 
L 278.562563 303.64 
L 281.432548 303.64 
L 284.302533 303.64 
L 287.172518 303.64 
L 290.042503 303.64 
L 292.912488 303.64 
L 295.782473 303.64 
L 298.652458 303.64 
L 301.522443 303.64 
L 304.392428 303.64 
L 307.262413 303.64 
L 310.132398 303.64 
L 313.002383 303.64 
L 315.872368 303.64 
L 318.742353 303.64 
L 321.612338 303.64 
L 324.482323 303.64 
L 327.352308 303.64 
L 330.222293 303.64 
L 333.092278 303.64 
L 335.962263 303.64 
L 338.832248 303.64 
L 341.702233 303.64 
L 344.572218 303.64 
L 347.442203 303.64 
L 350.312188 303.64 
L 353.182173 303.64 
L 356.052158 303.64 
L 358.922143 303.64 
L 361.792128 303.64 
L 364.662113 303.64 
L 367.532098 303.64 
L 370.402083 303.64 
L 373.272068 303.64 
L 376.142053 303.64 
L 379.012038 303.64 
L 381.882023 303.64 
L 384.752008 303.64 
L 387.621993 303.64 
L 390.491978 303.64 
L 393.361963 303.64 
L 396.231948 303.64 
L 399.101934 303.64 
L 401.971919 303.64 
L 404.841904 303.64 
L 407.711889 303.64 
L 410.581874 303.64 
L 413.451859 303.64 
L 416.321844 303.64 
L 419.191829 303.64 
L 422.061814 303.64 
L 424.931799 303.64 
L 427.801784 303.64 
L 430.671769 303.64 
L 433.541754 303.64 
L 436.411739 303.64 
L 439.281724 303.64 
L 442.151709 303.64 
L 445.021694 303.64 
L 447.891679 303.64 
L 450.761664 303.64 
L 453.631649 303.64 
L 456.501634 303.64 
L 459.371619 303.64 
L 462.241604 303.64 
L 465.111589 303.64 
L 467.981574 303.64 
L 470.851559 303.64 
L 473.721544 303.64 
L 476.591529 303.64 
L 479.461514 303.64 
L 482.331499 303.64 
L 485.201484 303.64 
L 488.071469 303.64 
L 490.941454 303.64 
L 493.811439 303.64 
L 496.681424 303.64 
L 499.551409 303.64 
L 502.421394 303.64 
L 505.291379 303.64 
L 508.161364 303.64 
L 511.031349 303.64 
L 513.901334 303.64 
L 516.771319 303.64 
L 519.641304 303.64 
L 522.511289 303.64 
L 525.381275 303.64 
L 528.25126 303.64 
L 531.121245 303.64 
L 533.99123 303.64 
L 536.861215 303.64 
L 539.7312 303.64 
L 542.601185 303.64 
L 545.47117 303.64 
L 548.341155 303.64 
L 551.21114 303.64 
L 554.081125 303.64 
L 556.95111 303.64 
L 556.95111 302.749107 
L 556.95111 302.749107 
L 554.081125 302.521122 
L 551.21114 302.242358 
L 548.341155 301.90352 
L 545.47117 301.494105 
L 542.601185 301.00235 
L 539.7312 300.415212 
L 536.861215 299.718378 
L 533.99123 298.896301 
L 531.121245 297.932295 
L 528.25126 296.808663 
L 525.381275 295.506882 
L 522.511289 294.00785 
L 519.641304 292.292174 
L 516.771319 290.340532 
L 513.901334 288.134076 
L 511.031349 285.654887 
L 508.161364 282.886473 
L 505.291379 279.814292 
L 502.421394 276.426293 
L 499.551409 272.713452 
L 496.681424 268.670301 
L 493.811439 264.295404 
L 490.941454 259.591791 
L 488.071469 254.567298 
L 485.201484 249.234824 
L 482.331499 243.612471 
L 479.461514 237.723548 
L 476.591529 231.596453 
L 473.721544 225.264402 
L 470.851559 218.765017 
L 467.981574 212.139787 
L 465.111589 205.433392 
L 462.241604 198.692932 
L 459.371619 191.967066 
L 456.501634 185.305089 
L 453.631649 178.755992 
L 450.761664 172.367515 
L 447.891679 166.185238 
L 445.021694 160.251745 
L 442.151709 154.605873 
L 439.281724 149.282084 
L 436.411739 144.309977 
L 433.541754 139.713945 
L 430.671769 135.512999 
L 427.801784 131.720737 
L 424.931799 128.345471 
L 422.061814 125.390483 
L 419.191829 122.854404 
L 416.321844 120.73168 
L 413.451859 119.013104 
L 410.581874 117.686398 
L 407.711889 116.736794 
L 404.841904 116.147605 
L 401.971919 115.90077 
L 399.101934 115.977328 
L 396.231948 116.357834 
L 393.361963 117.022697 
L 390.491978 117.952435 
L 387.621993 119.127848 
L 384.752008 120.53013 
L 381.882023 122.140903 
L 379.012038 123.942218 
L 376.142053 125.916507 
L 373.272068 128.046521 
L 370.402083 130.315265 
L 367.532098 132.705936 
L 364.662113 135.201879 
L 361.792128 137.786571 
L 358.922143 140.443637 
L 356.052158 143.156896 
L 353.182173 145.910445 
L 350.312188 148.688763 
L 347.442203 151.476843 
L 344.572218 154.260346 
L 341.702233 157.025749 
L 338.832248 159.760507 
L 335.962263 162.453198 
L 333.092278 165.093658 
L 330.222293 167.67309 
L 327.352308 170.184157 
L 324.482323 172.621034 
L 321.612338 174.979435 
L 318.742353 177.256616 
L 315.872368 179.45133 
L 313.002383 181.563772 
L 310.132398 183.595479 
L 307.262413 185.549217 
L 304.392428 187.428843 
L 301.522443 189.23914 
L 298.652458 190.98565 
L 295.782473 192.674484 
L 292.912488 194.312129 
L 290.042503 195.905247 
L 287.172518 197.460478 
L 284.302533 198.984245 
L 281.432548 200.482571 
L 278.562563 201.960904 
L 275.692578 203.423975 
L 272.822593 204.87566 
L 269.952607 206.318894 
L 267.082622 207.755592 
L 264.212637 209.186624 
L 261.342652 210.611815 
L 258.472667 212.029976 
L 255.602682 213.438978 
L 252.732697 214.835847 
L 249.862712 216.216884 
L 246.992727 217.577808 
L 244.122742 218.913904 
L 241.252757 220.220179 
L 238.382772 221.491513 
L 235.512787 222.722807 
L 232.642802 223.909103 
L 229.772817 225.045692 
L 226.902832 226.1282 
L 224.032847 227.152644 
L 221.162862 228.115468 
L 218.292877 229.013553 
L 215.422892 229.844217 
L 212.552907 230.605196 
L 209.682922 231.294619 
L 206.812937 231.910994 
L 203.942952 232.453186 
L 201.072967 232.920419 
L 198.202982 233.312297 
L 195.332997 233.628839 
L 192.463012 233.870543 
L 189.593027 234.038476 
L 186.723042 234.134376 
L 183.853057 234.160777 
L 180.983072 234.121141 
L 178.113087 234.019994 
L 175.243102 233.863053 
L 172.373117 233.657336 
L 169.503132 233.411249 
L 166.633147 233.134636 
L 163.763162 232.838782 
L 160.893177 232.536374 
L 158.023192 232.241404 
L 155.153207 231.969011 
L 152.283222 231.735275 
L 149.413237 231.556955 
L 146.543252 231.451174 
L 143.673266 231.435076 
L 140.803281 231.525439 
L 137.933296 231.738285 
L 135.063311 232.088473 
L 132.193326 232.589308 
L 129.323341 233.252173 
L 126.453356 234.086193 
L 123.583371 235.09795 
L 120.713386 236.291259 
L 117.843401 237.667009 
L 114.973416 239.22308 
L 112.103431 240.954337 
L 109.233446 242.852702 
L 106.363461 244.907307 
L 103.493476 247.104709 
L 100.623491 249.429181 
L 97.753506 251.863051 
L 94.883521 254.387085 
L 92.013536 256.980905 
L 89.143551 259.623422 
L 86.273566 262.293276 
L 83.403581 264.969264 
L 80.533596 267.630753 
L 77.663611 270.258053 
L 74.793626 272.832759 
L 71.923641 275.338036 
L 69.053656 277.758852 
L 66.183671 280.082153 
L 63.313686 282.296982 
L 60.443701 284.394534 
L 57.573716 286.368163 
L 54.703731 288.21333 
L 51.833746 289.927513 
L 48.963761 291.510071 
L 46.093776 292.962083 
L 43.223791 294.28616 
L 40.353806 295.486241 
L 37.483821 296.567382 
L 34.613836 297.535538 
L 31.743851 298.397357 
L 28.873866 299.159979 
L 26.003881 299.830848 
L 23.133896 300.417544 
L 20.263911 300.927634 
L 17.393925 301.368542 
L 14.52394 301.747442 
L 11.653955 302.071174 
L 8.78397 302.346178 
L 5.913985 302.578445 
L 3.044 302.773493 
L 0.174015 302.936349 
L -2.69597 303.07155 
L -5.565955 303.183153 
L -8.43594 303.274751 
L -11.305925 303.349504 
L -14.17591 303.410164 
z
" style="fill:#1f77b4;fill-opacity:0.4;stroke:#1f77b4;"/>
   </g>
   <g id="PolyCollection_2">
    <defs>
     <path d="M 141.034673 -42.798549 
L 141.034673 -41.96 
L 143.280234 -41.96 
L 145.525795 -41.96 
L 147.771356 -41.96 
L 150.016917 -41.96 
L 152.262478 -41.96 
L 154.508039 -41.96 
L 156.7536 -41.96 
L 158.999161 -41.96 
L 161.244723 -41.96 
L 163.490284 -41.96 
L 165.735845 -41.96 
L 167.981406 -41.96 
L 170.226967 -41.96 
L 172.472528 -41.96 
L 174.718089 -41.96 
L 176.96365 -41.96 
L 179.209211 -41.96 
L 181.454772 -41.96 
L 183.700333 -41.96 
L 185.945894 -41.96 
L 188.191455 -41.96 
L 190.437017 -41.96 
L 192.682578 -41.96 
L 194.928139 -41.96 
L 197.1737 -41.96 
L 199.419261 -41.96 
L 201.664822 -41.96 
L 203.910383 -41.96 
L 206.155944 -41.96 
L 208.401505 -41.96 
L 210.647066 -41.96 
L 212.892627 -41.96 
L 215.138188 -41.96 
L 217.383749 -41.96 
L 219.629311 -41.96 
L 221.874872 -41.96 
L 224.120433 -41.96 
L 226.365994 -41.96 
L 228.611555 -41.96 
L 230.857116 -41.96 
L 233.102677 -41.96 
L 235.348238 -41.96 
L 237.593799 -41.96 
L 239.83936 -41.96 
L 242.084921 -41.96 
L 244.330482 -41.96 
L 246.576043 -41.96 
L 248.821605 -41.96 
L 251.067166 -41.96 
L 253.312727 -41.96 
L 255.558288 -41.96 
L 257.803849 -41.96 
L 260.04941 -41.96 
L 262.294971 -41.96 
L 264.540532 -41.96 
L 266.786093 -41.96 
L 269.031654 -41.96 
L 271.277215 -41.96 
L 273.522776 -41.96 
L 275.768337 -41.96 
L 278.013899 -41.96 
L 280.25946 -41.96 
L 282.505021 -41.96 
L 284.750582 -41.96 
L 286.996143 -41.96 
L 289.241704 -41.96 
L 291.487265 -41.96 
L 293.732826 -41.96 
L 295.978387 -41.96 
L 298.223948 -41.96 
L 300.469509 -41.96 
L 302.71507 -41.96 
L 304.960631 -41.96 
L 307.206193 -41.96 
L 309.451754 -41.96 
L 311.697315 -41.96 
L 313.942876 -41.96 
L 316.188437 -41.96 
L 318.433998 -41.96 
L 320.679559 -41.96 
L 322.92512 -41.96 
L 325.170681 -41.96 
L 327.416242 -41.96 
L 329.661803 -41.96 
L 331.907364 -41.96 
L 334.152925 -41.96 
L 336.398487 -41.96 
L 338.644048 -41.96 
L 340.889609 -41.96 
L 343.13517 -41.96 
L 345.380731 -41.96 
L 347.626292 -41.96 
L 349.871853 -41.96 
L 352.117414 -41.96 
L 354.362975 -41.96 
L 356.608536 -41.96 
L 358.854097 -41.96 
L 361.099658 -41.96 
L 363.345219 -41.96 
L 365.590781 -41.96 
L 367.836342 -41.96 
L 370.081903 -41.96 
L 372.327464 -41.96 
L 374.573025 -41.96 
L 376.818586 -41.96 
L 379.064147 -41.96 
L 381.309708 -41.96 
L 383.555269 -41.96 
L 385.80083 -41.96 
L 388.046391 -41.96 
L 390.291952 -41.96 
L 392.537513 -41.96 
L 394.783075 -41.96 
L 397.028636 -41.96 
L 399.274197 -41.96 
L 401.519758 -41.96 
L 403.765319 -41.96 
L 406.01088 -41.96 
L 408.256441 -41.96 
L 410.502002 -41.96 
L 412.747563 -41.96 
L 414.993124 -41.96 
L 417.238685 -41.96 
L 419.484246 -41.96 
L 421.729807 -41.96 
L 423.975369 -41.96 
L 426.22093 -41.96 
L 428.466491 -41.96 
L 430.712052 -41.96 
L 432.957613 -41.96 
L 435.203174 -41.96 
L 437.448735 -41.96 
L 439.694296 -41.96 
L 441.939857 -41.96 
L 444.185418 -41.96 
L 446.430979 -41.96 
L 448.67654 -41.96 
L 450.922101 -41.96 
L 453.167663 -41.96 
L 455.413224 -41.96 
L 457.658785 -41.96 
L 459.904346 -41.96 
L 462.149907 -41.96 
L 464.395468 -41.96 
L 466.641029 -41.96 
L 468.88659 -41.96 
L 471.132151 -41.96 
L 473.377712 -41.96 
L 475.623273 -41.96 
L 477.868834 -41.96 
L 480.114395 -41.96 
L 482.359957 -41.96 
L 484.605518 -41.96 
L 486.851079 -41.96 
L 489.09664 -41.96 
L 491.342201 -41.96 
L 493.587762 -41.96 
L 495.833323 -41.96 
L 498.078884 -41.96 
L 500.324445 -41.96 
L 502.570006 -41.96 
L 504.815567 -41.96 
L 507.061128 -41.96 
L 509.306689 -41.96 
L 511.552251 -41.96 
L 513.797812 -41.96 
L 516.043373 -41.96 
L 518.288934 -41.96 
L 520.534495 -41.96 
L 522.780056 -41.96 
L 525.025617 -41.96 
L 527.271178 -41.96 
L 529.516739 -41.96 
L 531.7623 -41.96 
L 534.007861 -41.96 
L 536.253422 -41.96 
L 538.498983 -41.96 
L 540.744545 -41.96 
L 542.990106 -41.96 
L 545.235667 -41.96 
L 547.481228 -41.96 
L 549.726789 -41.96 
L 551.97235 -41.96 
L 554.217911 -41.96 
L 556.463472 -41.96 
L 558.709033 -41.96 
L 560.954594 -41.96 
L 563.200155 -41.96 
L 565.445716 -41.96 
L 567.691277 -41.96 
L 569.936839 -41.96 
L 572.1824 -41.96 
L 574.427961 -41.96 
L 576.673522 -41.96 
L 578.919083 -41.96 
L 581.164644 -41.96 
L 583.410205 -41.96 
L 585.655766 -41.96 
L 587.901327 -41.96 
L 587.901327 -43.940424 
L 587.901327 -43.940424 
L 585.655766 -44.23768 
L 583.410205 -44.57406 
L 581.164644 -44.953831 
L 578.919083 -45.381591 
L 576.673522 -45.862278 
L 574.427961 -46.401176 
L 572.1824 -47.003916 
L 569.936839 -47.676473 
L 567.691277 -48.425159 
L 565.445716 -49.256617 
L 563.200155 -50.177799 
L 560.954594 -51.19595 
L 558.709033 -52.318579 
L 556.463472 -53.553428 
L 554.217911 -54.908431 
L 551.97235 -56.391668 
L 549.726789 -58.011317 
L 547.481228 -59.775586 
L 545.235667 -61.692656 
L 542.990106 -63.770602 
L 540.744545 -66.017314 
L 538.498983 -68.440415 
L 536.253422 -71.047165 
L 534.007861 -73.844369 
L 531.7623 -76.838276 
L 529.516739 -80.034472 
L 527.271178 -83.437779 
L 525.025617 -87.052148 
L 522.780056 -90.880548 
L 520.534495 -94.924868 
L 518.288934 -99.185813 
L 516.043373 -103.662807 
L 513.797812 -108.353906 
L 511.552251 -113.255714 
L 509.306689 -118.363312 
L 507.061128 -123.670201 
L 504.815567 -129.168252 
L 502.570006 -134.847673 
L 500.324445 -140.696995 
L 498.078884 -146.703075 
L 495.833323 -152.851106 
L 493.587762 -159.124666 
L 491.342201 -165.505767 
L 489.09664 -171.974933 
L 486.851079 -178.511303 
L 484.605518 -185.092736 
L 482.359957 -191.695957 
L 480.114395 -198.2967 
L 477.868834 -204.869883 
L 475.623273 -211.389788 
L 473.377712 -217.830259 
L 471.132151 -224.164913 
L 468.88659 -230.367348 
L 466.641029 -236.411375 
L 464.395468 -242.271234 
L 462.149907 -247.921827 
L 459.904346 -253.338938 
L 457.658785 -258.49945 
L 455.413224 -263.381554 
L 453.167663 -267.964951 
L 450.922101 -272.231029 
L 448.67654 -276.163035 
L 446.430979 -279.746222 
L 444.185418 -282.967977 
L 441.939857 -285.817922 
L 439.694296 -288.288 
L 437.448735 -290.372531 
L 435.203174 -292.068235 
L 432.957613 -293.374245 
L 430.712052 -294.292081 
L 428.466491 -294.825605 
L 426.22093 -294.980952 
L 423.975369 -294.766436 
L 421.729807 -294.192434 
L 419.484246 -293.271258 
L 417.238685 -292.016999 
L 414.993124 -290.445368 
L 412.747563 -288.573513 
L 410.502002 -286.419839 
L 408.256441 -284.003813 
L 406.01088 -281.345766 
L 403.765319 -278.466694 
L 401.519758 -275.388067 
L 399.274197 -272.131629 
L 397.028636 -268.719213 
L 394.783075 -265.172564 
L 392.537513 -261.513163 
L 390.291952 -257.762075 
L 388.046391 -253.939796 
L 385.80083 -250.066124 
L 383.555269 -246.160037 
L 381.309708 -242.239586 
L 379.064147 -238.321811 
L 376.818586 -234.422656 
L 374.573025 -230.556913 
L 372.327464 -226.738169 
L 370.081903 -222.978771 
L 367.836342 -219.289806 
L 365.590781 -215.681083 
L 363.345219 -212.161132 
L 361.099658 -208.737213 
L 358.854097 -205.415332 
L 356.608536 -202.200263 
L 354.362975 -199.095576 
L 352.117414 -196.103678 
L 349.871853 -193.225848 
L 347.626292 -190.462287 
L 345.380731 -187.812167 
L 343.13517 -185.27368 
L 340.889609 -182.8441 
L 338.644048 -180.519839 
L 336.398487 -178.296508 
L 334.152925 -176.168984 
L 331.907364 -174.131473 
L 329.661803 -172.177585 
L 327.416242 -170.300398 
L 325.170681 -168.492536 
L 322.92512 -166.746242 
L 320.679559 -165.053455 
L 318.433998 -163.405891 
L 316.188437 -161.795119 
L 313.942876 -160.21264 
L 311.697315 -158.649974 
L 309.451754 -157.098732 
L 307.206193 -155.550703 
L 304.960631 -153.997926 
L 302.71507 -152.432767 
L 300.469509 -150.847995 
L 298.223948 -149.236846 
L 295.978387 -147.593091 
L 293.732826 -145.911091 
L 291.487265 -144.185853 
L 289.241704 -142.413076 
L 286.996143 -140.589185 
L 284.750582 -138.711367 
L 282.505021 -136.777589 
L 280.25946 -134.786612 
L 278.013899 -132.737997 
L 275.768337 -130.632096 
L 273.522776 -128.470045 
L 271.277215 -126.253732 
L 269.031654 -123.985773 
L 266.786093 -121.669471 
L 264.540532 -119.308769 
L 262.294971 -116.908194 
L 260.04941 -114.472803 
L 257.803849 -112.008115 
L 255.558288 -109.520043 
L 253.312727 -107.014827 
L 251.067166 -104.498954 
L 248.821605 -101.979089 
L 246.576043 -99.461998 
L 244.330482 -96.954477 
L 242.084921 -94.46328 
L 239.83936 -91.99505 
L 237.593799 -89.556256 
L 235.348238 -87.153134 
L 233.102677 -84.791629 
L 230.857116 -82.477349 
L 228.611555 -80.215523 
L 226.365994 -78.010958 
L 224.120433 -75.868017 
L 221.874872 -73.790589 
L 219.629311 -71.782078 
L 217.383749 -69.845387 
L 215.138188 -67.982916 
L 212.892627 -66.196567 
L 210.647066 -64.487746 
L 208.401505 -62.857378 
L 206.155944 -61.305926 
L 203.910383 -59.833409 
L 201.664822 -58.439428 
L 199.419261 -57.123194 
L 197.1737 -55.883559 
L 194.928139 -54.719045 
L 192.682578 -53.627882 
L 190.437017 -52.608036 
L 188.191455 -51.657248 
L 185.945894 -50.773066 
L 183.700333 -49.95288 
L 181.454772 -49.193951 
L 179.209211 -48.493445 
L 176.96365 -47.848462 
L 174.718089 -47.256063 
L 172.472528 -46.713294 
L 170.226967 -46.217213 
L 167.981406 -45.764908 
L 165.735845 -45.353517 
L 163.490284 -44.980243 
L 161.244723 -44.642371 
L 158.999161 -44.33728 
L 156.7536 -44.062448 
L 154.508039 -43.815467 
L 152.262478 -43.594043 
L 150.016917 -43.396003 
L 147.771356 -43.219298 
L 145.525795 -43.062001 
L 143.280234 -42.922311 
L 141.034673 -42.798549 
z
" id="mac0a797e19" style="stroke:#ff7f0e;"/>
    </defs>
    <g clip-path="url(#pd7c7a0ad2f)">
     <use style="fill:#ff7f0e;fill-opacity:0.4;stroke:#ff7f0e;" x="0" xlink:href="#mac0a797e19" y="345.6"/>
    </g>
   </g>
   <g id="matplotlib.axis_1">
    <g id="xtick_1">
     <g id="line2d_1">
      <defs>
       <path d="M 0 0 
L 0 3.5 
" id="me4fba68f3b" style="stroke:#000000;stroke-width:0.8;"/>
      </defs>
      <g>
       <use style="stroke:#000000;stroke-width:0.8;" x="54.2" xlink:href="#me4fba68f3b" y="303.64"/>
      </g>
     </g>
     <g id="text_1">
      <!-- 0.0 -->
      <g transform="translate(46.248438 318.238437)scale(0.1 -0.1)">
       <defs>
        <path d="M 2034 4250 
Q 1547 4250 1301 3770 
Q 1056 3291 1056 2328 
Q 1056 1369 1301 889 
Q 1547 409 2034 409 
Q 2525 409 2770 889 
Q 3016 1369 3016 2328 
Q 3016 3291 2770 3770 
Q 2525 4250 2034 4250 
z
M 2034 4750 
Q 2819 4750 3233 4129 
Q 3647 3509 3647 2328 
Q 3647 1150 3233 529 
Q 2819 -91 2034 -91 
Q 1250 -91 836 529 
Q 422 1150 422 2328 
Q 422 3509 836 4129 
Q 1250 4750 2034 4750 
z
" id="DejaVuSans-30" transform="scale(0.015625)"/>
        <path d="M 684 794 
L 1344 794 
L 1344 0 
L 684 0 
L 684 794 
z
" id="DejaVuSans-2e" transform="scale(0.015625)"/>
       </defs>
       <use xlink:href="#DejaVuSans-30"/>
       <use x="63.623047" xlink:href="#DejaVuSans-2e"/>
       <use x="95.410156" xlink:href="#DejaVuSans-30"/>
      </g>
     </g>
    </g>
    <g id="xtick_2">
     <g id="line2d_2">
      <g>
       <use style="stroke:#000000;stroke-width:0.8;" x="131.767" xlink:href="#me4fba68f3b" y="303.64"/>
      </g>
     </g>
     <g id="text_2">
      <!-- 0.2 -->
      <g transform="translate(123.815438 318.238437)scale(0.1 -0.1)">
       <defs>
        <path d="M 1228 531 
L 3431 531 
L 3431 0 
L 469 0 
L 469 531 
Q 828 903 1448 1529 
Q 2069 2156 2228 2338 
Q 2531 2678 2651 2914 
Q 2772 3150 2772 3378 
Q 2772 3750 2511 3984 
Q 2250 4219 1831 4219 
Q 1534 4219 1204 4116 
Q 875 4013 500 3803 
L 500 4441 
Q 881 4594 1212 4672 
Q 1544 4750 1819 4750 
Q 2544 4750 2975 4387 
Q 3406 4025 3406 3419 
Q 3406 3131 3298 2873 
Q 3191 2616 2906 2266 
Q 2828 2175 2409 1742 
Q 1991 1309 1228 531 
z
" id="DejaVuSans-32" transform="scale(0.015625)"/>
       </defs>
       <use xlink:href="#DejaVuSans-30"/>
       <use x="63.623047" xlink:href="#DejaVuSans-2e"/>
       <use x="95.410156" xlink:href="#DejaVuSans-32"/>
      </g>
     </g>
    </g>
    <g id="xtick_3">
     <g id="line2d_3">
      <g>
       <use style="stroke:#000000;stroke-width:0.8;" x="209.334" xlink:href="#me4fba68f3b" y="303.64"/>
      </g>
     </g>
     <g id="text_3">
      <!-- 0.4 -->
      <g transform="translate(201.382438 318.238437)scale(0.1 -0.1)">
       <defs>
        <path d="M 2419 4116 
L 825 1625 
L 2419 1625 
L 2419 4116 
z
M 2253 4666 
L 3047 4666 
L 3047 1625 
L 3713 1625 
L 3713 1100 
L 3047 1100 
L 3047 0 
L 2419 0 
L 2419 1100 
L 313 1100 
L 313 1709 
L 2253 4666 
z
" id="DejaVuSans-34" transform="scale(0.015625)"/>
       </defs>
       <use xlink:href="#DejaVuSans-30"/>
       <use x="63.623047" xlink:href="#DejaVuSans-2e"/>
       <use x="95.410156" xlink:href="#DejaVuSans-34"/>
      </g>
     </g>
    </g>
    <g id="xtick_4">
     <g id="line2d_4">
      <g>
       <use style="stroke:#000000;stroke-width:0.8;" x="286.901" xlink:href="#me4fba68f3b" y="303.64"/>
      </g>
     </g>
     <g id="text_4">
      <!-- 0.6 -->
      <g transform="translate(278.949437 318.238437)scale(0.1 -0.1)">
       <defs>
        <path d="M 2113 2584 
Q 1688 2584 1439 2293 
Q 1191 2003 1191 1497 
Q 1191 994 1439 701 
Q 1688 409 2113 409 
Q 2538 409 2786 701 
Q 3034 994 3034 1497 
Q 3034 2003 2786 2293 
Q 2538 2584 2113 2584 
z
M 3366 4563 
L 3366 3988 
Q 3128 4100 2886 4159 
Q 2644 4219 2406 4219 
Q 1781 4219 1451 3797 
Q 1122 3375 1075 2522 
Q 1259 2794 1537 2939 
Q 1816 3084 2150 3084 
Q 2853 3084 3261 2657 
Q 3669 2231 3669 1497 
Q 3669 778 3244 343 
Q 2819 -91 2113 -91 
Q 1303 -91 875 529 
Q 447 1150 447 2328 
Q 447 3434 972 4092 
Q 1497 4750 2381 4750 
Q 2619 4750 2861 4703 
Q 3103 4656 3366 4563 
z
" id="DejaVuSans-36" transform="scale(0.015625)"/>
       </defs>
       <use xlink:href="#DejaVuSans-30"/>
       <use x="63.623047" xlink:href="#DejaVuSans-2e"/>
       <use x="95.410156" xlink:href="#DejaVuSans-36"/>
      </g>
     </g>
    </g>
    <g id="xtick_5">
     <g id="line2d_5">
      <g>
       <use style="stroke:#000000;stroke-width:0.8;" x="364.468" xlink:href="#me4fba68f3b" y="303.64"/>
      </g>
     </g>
     <g id="text_5">
      <!-- 0.8 -->
      <g transform="translate(356.516437 318.238437)scale(0.1 -0.1)">
       <defs>
        <path d="M 2034 2216 
Q 1584 2216 1326 1975 
Q 1069 1734 1069 1313 
Q 1069 891 1326 650 
Q 1584 409 2034 409 
Q 2484 409 2743 651 
Q 3003 894 3003 1313 
Q 3003 1734 2745 1975 
Q 2488 2216 2034 2216 
z
M 1403 2484 
Q 997 2584 770 2862 
Q 544 3141 544 3541 
Q 544 4100 942 4425 
Q 1341 4750 2034 4750 
Q 2731 4750 3128 4425 
Q 3525 4100 3525 3541 
Q 3525 3141 3298 2862 
Q 3072 2584 2669 2484 
Q 3125 2378 3379 2068 
Q 3634 1759 3634 1313 
Q 3634 634 3220 271 
Q 2806 -91 2034 -91 
Q 1263 -91 848 271 
Q 434 634 434 1313 
Q 434 1759 690 2068 
Q 947 2378 1403 2484 
z
M 1172 3481 
Q 1172 3119 1398 2916 
Q 1625 2713 2034 2713 
Q 2441 2713 2670 2916 
Q 2900 3119 2900 3481 
Q 2900 3844 2670 4047 
Q 2441 4250 2034 4250 
Q 1625 4250 1398 4047 
Q 1172 3844 1172 3481 
z
" id="DejaVuSans-38" transform="scale(0.015625)"/>
       </defs>
       <use xlink:href="#DejaVuSans-30"/>
       <use x="63.623047" xlink:href="#DejaVuSans-2e"/>
       <use x="95.410156" xlink:href="#DejaVuSans-38"/>
      </g>
     </g>
    </g>
    <g id="xtick_6">
     <g id="line2d_6">
      <g>
       <use style="stroke:#000000;stroke-width:0.8;" x="442.035" xlink:href="#me4fba68f3b" y="303.64"/>
      </g>
     </g>
     <g id="text_6">
      <!-- 1.0 -->
      <g transform="translate(434.083437 318.238437)scale(0.1 -0.1)">
       <defs>
        <path d="M 794 531 
L 1825 531 
L 1825 4091 
L 703 3866 
L 703 4441 
L 1819 4666 
L 2450 4666 
L 2450 531 
L 3481 531 
L 3481 0 
L 794 0 
L 794 531 
z
" id="DejaVuSans-31" transform="scale(0.015625)"/>
       </defs>
       <use xlink:href="#DejaVuSans-31"/>
       <use x="63.623047" xlink:href="#DejaVuSans-2e"/>
       <use x="95.410156" xlink:href="#DejaVuSans-30"/>
      </g>
     </g>
    </g>
    <g id="text_7">
     <!-- Credibility index -->
     <g transform="translate(207.512812 331.916562)scale(0.1 -0.1)">
      <defs>
       <path d="M 4122 4306 
L 4122 3641 
Q 3803 3938 3442 4084 
Q 3081 4231 2675 4231 
Q 1875 4231 1450 3742 
Q 1025 3253 1025 2328 
Q 1025 1406 1450 917 
Q 1875 428 2675 428 
Q 3081 428 3442 575 
Q 3803 722 4122 1019 
L 4122 359 
Q 3791 134 3420 21 
Q 3050 -91 2638 -91 
Q 1578 -91 968 557 
Q 359 1206 359 2328 
Q 359 3453 968 4101 
Q 1578 4750 2638 4750 
Q 3056 4750 3426 4639 
Q 3797 4528 4122 4306 
z
" id="DejaVuSans-43" transform="scale(0.015625)"/>
       <path d="M 2631 2963 
Q 2534 3019 2420 3045 
Q 2306 3072 2169 3072 
Q 1681 3072 1420 2755 
Q 1159 2438 1159 1844 
L 1159 0 
L 581 0 
L 581 3500 
L 1159 3500 
L 1159 2956 
Q 1341 3275 1631 3429 
Q 1922 3584 2338 3584 
Q 2397 3584 2469 3576 
Q 2541 3569 2628 3553 
L 2631 2963 
z
" id="DejaVuSans-72" transform="scale(0.015625)"/>
       <path d="M 3597 1894 
L 3597 1613 
L 953 1613 
Q 991 1019 1311 708 
Q 1631 397 2203 397 
Q 2534 397 2845 478 
Q 3156 559 3463 722 
L 3463 178 
Q 3153 47 2828 -22 
Q 2503 -91 2169 -91 
Q 1331 -91 842 396 
Q 353 884 353 1716 
Q 353 2575 817 3079 
Q 1281 3584 2069 3584 
Q 2775 3584 3186 3129 
Q 3597 2675 3597 1894 
z
M 3022 2063 
Q 3016 2534 2758 2815 
Q 2500 3097 2075 3097 
Q 1594 3097 1305 2825 
Q 1016 2553 972 2059 
L 3022 2063 
z
" id="DejaVuSans-65" transform="scale(0.015625)"/>
       <path d="M 2906 2969 
L 2906 4863 
L 3481 4863 
L 3481 0 
L 2906 0 
L 2906 525 
Q 2725 213 2448 61 
Q 2172 -91 1784 -91 
Q 1150 -91 751 415 
Q 353 922 353 1747 
Q 353 2572 751 3078 
Q 1150 3584 1784 3584 
Q 2172 3584 2448 3432 
Q 2725 3281 2906 2969 
z
M 947 1747 
Q 947 1113 1208 752 
Q 1469 391 1925 391 
Q 2381 391 2643 752 
Q 2906 1113 2906 1747 
Q 2906 2381 2643 2742 
Q 2381 3103 1925 3103 
Q 1469 3103 1208 2742 
Q 947 2381 947 1747 
z
" id="DejaVuSans-64" transform="scale(0.015625)"/>
       <path d="M 603 3500 
L 1178 3500 
L 1178 0 
L 603 0 
L 603 3500 
z
M 603 4863 
L 1178 4863 
L 1178 4134 
L 603 4134 
L 603 4863 
z
" id="DejaVuSans-69" transform="scale(0.015625)"/>
       <path d="M 3116 1747 
Q 3116 2381 2855 2742 
Q 2594 3103 2138 3103 
Q 1681 3103 1420 2742 
Q 1159 2381 1159 1747 
Q 1159 1113 1420 752 
Q 1681 391 2138 391 
Q 2594 391 2855 752 
Q 3116 1113 3116 1747 
z
M 1159 2969 
Q 1341 3281 1617 3432 
Q 1894 3584 2278 3584 
Q 2916 3584 3314 3078 
Q 3713 2572 3713 1747 
Q 3713 922 3314 415 
Q 2916 -91 2278 -91 
Q 1894 -91 1617 61 
Q 1341 213 1159 525 
L 1159 0 
L 581 0 
L 581 4863 
L 1159 4863 
L 1159 2969 
z
" id="DejaVuSans-62" transform="scale(0.015625)"/>
       <path d="M 603 4863 
L 1178 4863 
L 1178 0 
L 603 0 
L 603 4863 
z
" id="DejaVuSans-6c" transform="scale(0.015625)"/>
       <path d="M 1172 4494 
L 1172 3500 
L 2356 3500 
L 2356 3053 
L 1172 3053 
L 1172 1153 
Q 1172 725 1289 603 
Q 1406 481 1766 481 
L 2356 481 
L 2356 0 
L 1766 0 
Q 1100 0 847 248 
Q 594 497 594 1153 
L 594 3053 
L 172 3053 
L 172 3500 
L 594 3500 
L 594 4494 
L 1172 4494 
z
" id="DejaVuSans-74" transform="scale(0.015625)"/>
       <path d="M 2059 -325 
Q 1816 -950 1584 -1140 
Q 1353 -1331 966 -1331 
L 506 -1331 
L 506 -850 
L 844 -850 
Q 1081 -850 1212 -737 
Q 1344 -625 1503 -206 
L 1606 56 
L 191 3500 
L 800 3500 
L 1894 763 
L 2988 3500 
L 3597 3500 
L 2059 -325 
z
" id="DejaVuSans-79" transform="scale(0.015625)"/>
       <path id="DejaVuSans-20" transform="scale(0.015625)"/>
       <path d="M 3513 2113 
L 3513 0 
L 2938 0 
L 2938 2094 
Q 2938 2591 2744 2837 
Q 2550 3084 2163 3084 
Q 1697 3084 1428 2787 
Q 1159 2491 1159 1978 
L 1159 0 
L 581 0 
L 581 3500 
L 1159 3500 
L 1159 2956 
Q 1366 3272 1645 3428 
Q 1925 3584 2291 3584 
Q 2894 3584 3203 3211 
Q 3513 2838 3513 2113 
z
" id="DejaVuSans-6e" transform="scale(0.015625)"/>
       <path d="M 3513 3500 
L 2247 1797 
L 3578 0 
L 2900 0 
L 1881 1375 
L 863 0 
L 184 0 
L 1544 1831 
L 300 3500 
L 978 3500 
L 1906 2253 
L 2834 3500 
L 3513 3500 
z
" id="DejaVuSans-78" transform="scale(0.015625)"/>
      </defs>
      <use xlink:href="#DejaVuSans-43"/>
      <use x="69.824219" xlink:href="#DejaVuSans-72"/>
      <use x="108.6875" xlink:href="#DejaVuSans-65"/>
      <use x="170.210938" xlink:href="#DejaVuSans-64"/>
      <use x="233.6875" xlink:href="#DejaVuSans-69"/>
      <use x="261.470703" xlink:href="#DejaVuSans-62"/>
      <use x="324.947266" xlink:href="#DejaVuSans-69"/>
      <use x="352.730469" xlink:href="#DejaVuSans-6c"/>
      <use x="380.513672" xlink:href="#DejaVuSans-69"/>
      <use x="408.296875" xlink:href="#DejaVuSans-74"/>
      <use x="447.505859" xlink:href="#DejaVuSans-79"/>
      <use x="506.685547" xlink:href="#DejaVuSans-20"/>
      <use x="538.472656" xlink:href="#DejaVuSans-69"/>
      <use x="566.255859" xlink:href="#DejaVuSans-6e"/>
      <use x="629.634766" xlink:href="#DejaVuSans-64"/>
      <use x="693.111328" xlink:href="#DejaVuSans-65"/>
      <use x="752.884766" xlink:href="#DejaVuSans-78"/>
     </g>
    </g>
   </g>
   <g id="matplotlib.axis_2">
    <g id="ytick_1">
     <g id="line2d_7">
      <defs>
       <path d="M 0 0 
L -3.5 0 
" id="m9cde51ba4b" style="stroke:#000000;stroke-width:0.8;"/>
      </defs>
      <g>
       <use style="stroke:#000000;stroke-width:0.8;" x="54.2" xlink:href="#m9cde51ba4b" y="303.64"/>
      </g>
     </g>
     <g id="text_8">
      <!-- 0.00 -->
      <g transform="translate(24.934375 307.439219)scale(0.1 -0.1)">
       <use xlink:href="#DejaVuSans-30"/>
       <use x="63.623047" xlink:href="#DejaVuSans-2e"/>
       <use x="95.410156" xlink:href="#DejaVuSans-30"/>
       <use x="159.033203" xlink:href="#DejaVuSans-30"/>
      </g>
     </g>
    </g>
    <g id="ytick_2">
     <g id="line2d_8">
      <g>
       <use style="stroke:#000000;stroke-width:0.8;" x="54.2" xlink:href="#m9cde51ba4b" y="274.0582"/>
      </g>
     </g>
     <g id="text_9">
      <!-- 0.25 -->
      <g transform="translate(24.934375 277.857419)scale(0.1 -0.1)">
       <defs>
        <path d="M 691 4666 
L 3169 4666 
L 3169 4134 
L 1269 4134 
L 1269 2991 
Q 1406 3038 1543 3061 
Q 1681 3084 1819 3084 
Q 2600 3084 3056 2656 
Q 3513 2228 3513 1497 
Q 3513 744 3044 326 
Q 2575 -91 1722 -91 
Q 1428 -91 1123 -41 
Q 819 9 494 109 
L 494 744 
Q 775 591 1075 516 
Q 1375 441 1709 441 
Q 2250 441 2565 725 
Q 2881 1009 2881 1497 
Q 2881 1984 2565 2268 
Q 2250 2553 1709 2553 
Q 1456 2553 1204 2497 
Q 953 2441 691 2322 
L 691 4666 
z
" id="DejaVuSans-35" transform="scale(0.015625)"/>
       </defs>
       <use xlink:href="#DejaVuSans-30"/>
       <use x="63.623047" xlink:href="#DejaVuSans-2e"/>
       <use x="95.410156" xlink:href="#DejaVuSans-32"/>
       <use x="159.033203" xlink:href="#DejaVuSans-35"/>
      </g>
     </g>
    </g>
    <g id="ytick_3">
     <g id="line2d_9">
      <g>
       <use style="stroke:#000000;stroke-width:0.8;" x="54.2" xlink:href="#m9cde51ba4b" y="244.4764"/>
      </g>
     </g>
     <g id="text_10">
      <!-- 0.50 -->
      <g transform="translate(24.934375 248.275619)scale(0.1 -0.1)">
       <use xlink:href="#DejaVuSans-30"/>
       <use x="63.623047" xlink:href="#DejaVuSans-2e"/>
       <use x="95.410156" xlink:href="#DejaVuSans-35"/>
       <use x="159.033203" xlink:href="#DejaVuSans-30"/>
      </g>
     </g>
    </g>
    <g id="ytick_4">
     <g id="line2d_10">
      <g>
       <use style="stroke:#000000;stroke-width:0.8;" x="54.2" xlink:href="#m9cde51ba4b" y="214.8946"/>
      </g>
     </g>
     <g id="text_11">
      <!-- 0.75 -->
      <g transform="translate(24.934375 218.693819)scale(0.1 -0.1)">
       <defs>
        <path d="M 525 4666 
L 3525 4666 
L 3525 4397 
L 1831 0 
L 1172 0 
L 2766 4134 
L 525 4134 
L 525 4666 
z
" id="DejaVuSans-37" transform="scale(0.015625)"/>
       </defs>
       <use xlink:href="#DejaVuSans-30"/>
       <use x="63.623047" xlink:href="#DejaVuSans-2e"/>
       <use x="95.410156" xlink:href="#DejaVuSans-37"/>
       <use x="159.033203" xlink:href="#DejaVuSans-35"/>
      </g>
     </g>
    </g>
    <g id="ytick_5">
     <g id="line2d_11">
      <g>
       <use style="stroke:#000000;stroke-width:0.8;" x="54.2" xlink:href="#m9cde51ba4b" y="185.3128"/>
      </g>
     </g>
     <g id="text_12">
      <!-- 1.00 -->
      <g transform="translate(24.934375 189.112018)scale(0.1 -0.1)">
       <use xlink:href="#DejaVuSans-31"/>
       <use x="63.623047" xlink:href="#DejaVuSans-2e"/>
       <use x="95.410156" xlink:href="#DejaVuSans-30"/>
       <use x="159.033203" xlink:href="#DejaVuSans-30"/>
      </g>
     </g>
    </g>
    <g id="ytick_6">
     <g id="line2d_12">
      <g>
       <use style="stroke:#000000;stroke-width:0.8;" x="54.2" xlink:href="#m9cde51ba4b" y="155.731"/>
      </g>
     </g>
     <g id="text_13">
      <!-- 1.25 -->
      <g transform="translate(24.934375 159.530218)scale(0.1 -0.1)">
       <use xlink:href="#DejaVuSans-31"/>
       <use x="63.623047" xlink:href="#DejaVuSans-2e"/>
       <use x="95.410156" xlink:href="#DejaVuSans-32"/>
       <use x="159.033203" xlink:href="#DejaVuSans-35"/>
      </g>
     </g>
    </g>
    <g id="ytick_7">
     <g id="line2d_13">
      <g>
       <use style="stroke:#000000;stroke-width:0.8;" x="54.2" xlink:href="#m9cde51ba4b" y="126.1492"/>
      </g>
     </g>
     <g id="text_14">
      <!-- 1.50 -->
      <g transform="translate(24.934375 129.948418)scale(0.1 -0.1)">
       <use xlink:href="#DejaVuSans-31"/>
       <use x="63.623047" xlink:href="#DejaVuSans-2e"/>
       <use x="95.410156" xlink:href="#DejaVuSans-35"/>
       <use x="159.033203" xlink:href="#DejaVuSans-30"/>
      </g>
     </g>
    </g>
    <g id="ytick_8">
     <g id="line2d_14">
      <g>
       <use style="stroke:#000000;stroke-width:0.8;" x="54.2" xlink:href="#m9cde51ba4b" y="96.5674"/>
      </g>
     </g>
     <g id="text_15">
      <!-- 1.75 -->
      <g transform="translate(24.934375 100.366618)scale(0.1 -0.1)">
       <use xlink:href="#DejaVuSans-31"/>
       <use x="63.623047" xlink:href="#DejaVuSans-2e"/>
       <use x="95.410156" xlink:href="#DejaVuSans-37"/>
       <use x="159.033203" xlink:href="#DejaVuSans-35"/>
      </g>
     </g>
    </g>
    <g id="ytick_9">
     <g id="line2d_15">
      <g>
       <use style="stroke:#000000;stroke-width:0.8;" x="54.2" xlink:href="#m9cde51ba4b" y="66.985599"/>
      </g>
     </g>
     <g id="text_16">
      <!-- 2.00 -->
      <g transform="translate(24.934375 70.784818)scale(0.1 -0.1)">
       <use xlink:href="#DejaVuSans-32"/>
       <use x="63.623047" xlink:href="#DejaVuSans-2e"/>
       <use x="95.410156" xlink:href="#DejaVuSans-30"/>
       <use x="159.033203" xlink:href="#DejaVuSans-30"/>
      </g>
     </g>
    </g>
    <g id="text_17">
     <!-- Density -->
     <g transform="translate(18.854688 189.812594)rotate(-90)scale(0.1 -0.1)">
      <defs>
       <path d="M 1259 4147 
L 1259 519 
L 2022 519 
Q 2988 519 3436 956 
Q 3884 1394 3884 2338 
Q 3884 3275 3436 3711 
Q 2988 4147 2022 4147 
L 1259 4147 
z
M 628 4666 
L 1925 4666 
Q 3281 4666 3915 4102 
Q 4550 3538 4550 2338 
Q 4550 1131 3912 565 
Q 3275 0 1925 0 
L 628 0 
L 628 4666 
z
" id="DejaVuSans-44" transform="scale(0.015625)"/>
       <path d="M 2834 3397 
L 2834 2853 
Q 2591 2978 2328 3040 
Q 2066 3103 1784 3103 
Q 1356 3103 1142 2972 
Q 928 2841 928 2578 
Q 928 2378 1081 2264 
Q 1234 2150 1697 2047 
L 1894 2003 
Q 2506 1872 2764 1633 
Q 3022 1394 3022 966 
Q 3022 478 2636 193 
Q 2250 -91 1575 -91 
Q 1294 -91 989 -36 
Q 684 19 347 128 
L 347 722 
Q 666 556 975 473 
Q 1284 391 1588 391 
Q 1994 391 2212 530 
Q 2431 669 2431 922 
Q 2431 1156 2273 1281 
Q 2116 1406 1581 1522 
L 1381 1569 
Q 847 1681 609 1914 
Q 372 2147 372 2553 
Q 372 3047 722 3315 
Q 1072 3584 1716 3584 
Q 2034 3584 2315 3537 
Q 2597 3491 2834 3397 
z
" id="DejaVuSans-73" transform="scale(0.015625)"/>
      </defs>
      <use xlink:href="#DejaVuSans-44"/>
      <use x="77.001953" xlink:href="#DejaVuSans-65"/>
      <use x="138.525391" xlink:href="#DejaVuSans-6e"/>
      <use x="201.904297" xlink:href="#DejaVuSans-73"/>
      <use x="254.003906" xlink:href="#DejaVuSans-69"/>
      <use x="281.787109" xlink:href="#DejaVuSans-74"/>
      <use x="320.996094" xlink:href="#DejaVuSans-79"/>
     </g>
    </g>
   </g>
   <g id="patch_3">
    <path d="M 54.2 303.64 
L 54.2 37.968 
" style="fill:none;stroke:#000000;stroke-linecap:square;stroke-linejoin:miter;stroke-width:0.8;"/>
   </g>
   <g id="patch_4">
    <path d="M 442.035 303.64 
L 442.035 37.968 
" style="fill:none;stroke:#000000;stroke-linecap:square;stroke-linejoin:miter;stroke-width:0.8;"/>
   </g>
   <g id="patch_5">
    <path d="M 54.2 303.64 
L 442.035 303.64 
" style="fill:none;stroke:#000000;stroke-linecap:square;stroke-linejoin:miter;stroke-width:0.8;"/>
   </g>
   <g id="patch_6">
    <path d="M 54.2 37.968 
L 442.035 37.968 
" style="fill:none;stroke:#000000;stroke-linecap:square;stroke-linejoin:miter;stroke-width:0.8;"/>
   </g>
   <g id="text_18">
    <!-- Credibility index consensus vs non consensus  -->
    <g transform="translate(109.01125 18.530625)scale(0.12 -0.12)">
     <defs>
      <path d="M 3122 3366 
L 3122 2828 
Q 2878 2963 2633 3030 
Q 2388 3097 2138 3097 
Q 1578 3097 1268 2742 
Q 959 2388 959 1747 
Q 959 1106 1268 751 
Q 1578 397 2138 397 
Q 2388 397 2633 464 
Q 2878 531 3122 666 
L 3122 134 
Q 2881 22 2623 -34 
Q 2366 -91 2075 -91 
Q 1284 -91 818 406 
Q 353 903 353 1747 
Q 353 2603 823 3093 
Q 1294 3584 2113 3584 
Q 2378 3584 2631 3529 
Q 2884 3475 3122 3366 
z
" id="DejaVuSans-63" transform="scale(0.015625)"/>
      <path d="M 1959 3097 
Q 1497 3097 1228 2736 
Q 959 2375 959 1747 
Q 959 1119 1226 758 
Q 1494 397 1959 397 
Q 2419 397 2687 759 
Q 2956 1122 2956 1747 
Q 2956 2369 2687 2733 
Q 2419 3097 1959 3097 
z
M 1959 3584 
Q 2709 3584 3137 3096 
Q 3566 2609 3566 1747 
Q 3566 888 3137 398 
Q 2709 -91 1959 -91 
Q 1206 -91 779 398 
Q 353 888 353 1747 
Q 353 2609 779 3096 
Q 1206 3584 1959 3584 
z
" id="DejaVuSans-6f" transform="scale(0.015625)"/>
      <path d="M 544 1381 
L 544 3500 
L 1119 3500 
L 1119 1403 
Q 1119 906 1312 657 
Q 1506 409 1894 409 
Q 2359 409 2629 706 
Q 2900 1003 2900 1516 
L 2900 3500 
L 3475 3500 
L 3475 0 
L 2900 0 
L 2900 538 
Q 2691 219 2414 64 
Q 2138 -91 1772 -91 
Q 1169 -91 856 284 
Q 544 659 544 1381 
z
M 1991 3584 
L 1991 3584 
z
" id="DejaVuSans-75" transform="scale(0.015625)"/>
      <path d="M 191 3500 
L 800 3500 
L 1894 563 
L 2988 3500 
L 3597 3500 
L 2284 0 
L 1503 0 
L 191 3500 
z
" id="DejaVuSans-76" transform="scale(0.015625)"/>
     </defs>
     <use xlink:href="#DejaVuSans-43"/>
     <use x="69.824219" xlink:href="#DejaVuSans-72"/>
     <use x="108.6875" xlink:href="#DejaVuSans-65"/>
     <use x="170.210938" xlink:href="#DejaVuSans-64"/>
     <use x="233.6875" xlink:href="#DejaVuSans-69"/>
     <use x="261.470703" xlink:href="#DejaVuSans-62"/>
     <use x="324.947266" xlink:href="#DejaVuSans-69"/>
     <use x="352.730469" xlink:href="#DejaVuSans-6c"/>
     <use x="380.513672" xlink:href="#DejaVuSans-69"/>
     <use x="408.296875" xlink:href="#DejaVuSans-74"/>
     <use x="447.505859" xlink:href="#DejaVuSans-79"/>
     <use x="506.685547" xlink:href="#DejaVuSans-20"/>
     <use x="538.472656" xlink:href="#DejaVuSans-69"/>
     <use x="566.255859" xlink:href="#DejaVuSans-6e"/>
     <use x="629.634766" xlink:href="#DejaVuSans-64"/>
     <use x="693.111328" xlink:href="#DejaVuSans-65"/>
     <use x="752.884766" xlink:href="#DejaVuSans-78"/>
     <use x="812.064453" xlink:href="#DejaVuSans-20"/>
     <use x="843.851562" xlink:href="#DejaVuSans-63"/>
     <use x="898.832031" xlink:href="#DejaVuSans-6f"/>
     <use x="960.013672" xlink:href="#DejaVuSans-6e"/>
     <use x="1023.392578" xlink:href="#DejaVuSans-73"/>
     <use x="1075.492188" xlink:href="#DejaVuSans-65"/>
     <use x="1137.015625" xlink:href="#DejaVuSans-6e"/>
     <use x="1200.394531" xlink:href="#DejaVuSans-73"/>
     <use x="1252.494141" xlink:href="#DejaVuSans-75"/>
     <use x="1315.873047" xlink:href="#DejaVuSans-73"/>
     <use x="1367.972656" xlink:href="#DejaVuSans-20"/>
     <use x="1399.759766" xlink:href="#DejaVuSans-76"/>
     <use x="1458.939453" xlink:href="#DejaVuSans-73"/>
     <use x="1511.039062" xlink:href="#DejaVuSans-20"/>
     <use x="1542.826172" xlink:href="#DejaVuSans-6e"/>
     <use x="1606.205078" xlink:href="#DejaVuSans-6f"/>
     <use x="1667.386719" xlink:href="#DejaVuSans-6e"/>
     <use x="1730.765625" xlink:href="#DejaVuSans-20"/>
     <use x="1762.552734" xlink:href="#DejaVuSans-63"/>
     <use x="1817.533203" xlink:href="#DejaVuSans-6f"/>
     <use x="1878.714844" xlink:href="#DejaVuSans-6e"/>
     <use x="1942.09375" xlink:href="#DejaVuSans-73"/>
     <use x="1994.193359" xlink:href="#DejaVuSans-65"/>
     <use x="2055.716797" xlink:href="#DejaVuSans-6e"/>
     <use x="2119.095703" xlink:href="#DejaVuSans-73"/>
     <use x="2171.195312" xlink:href="#DejaVuSans-75"/>
     <use x="2234.574219" xlink:href="#DejaVuSans-73"/>
     <use x="2286.673828" xlink:href="#DejaVuSans-20"/>
    </g>
    <!-- Set big -->
    <g transform="translate(227.0725 31.968)scale(0.12 -0.12)">
     <defs>
      <path d="M 3425 4513 
L 3425 3897 
Q 3066 4069 2747 4153 
Q 2428 4238 2131 4238 
Q 1616 4238 1336 4038 
Q 1056 3838 1056 3469 
Q 1056 3159 1242 3001 
Q 1428 2844 1947 2747 
L 2328 2669 
Q 3034 2534 3370 2195 
Q 3706 1856 3706 1288 
Q 3706 609 3251 259 
Q 2797 -91 1919 -91 
Q 1588 -91 1214 -16 
Q 841 59 441 206 
L 441 856 
Q 825 641 1194 531 
Q 1563 422 1919 422 
Q 2459 422 2753 634 
Q 3047 847 3047 1241 
Q 3047 1584 2836 1778 
Q 2625 1972 2144 2069 
L 1759 2144 
Q 1053 2284 737 2584 
Q 422 2884 422 3419 
Q 422 4038 858 4394 
Q 1294 4750 2059 4750 
Q 2388 4750 2728 4690 
Q 3069 4631 3425 4513 
z
" id="DejaVuSans-53" transform="scale(0.015625)"/>
      <path d="M 2906 1791 
Q 2906 2416 2648 2759 
Q 2391 3103 1925 3103 
Q 1463 3103 1205 2759 
Q 947 2416 947 1791 
Q 947 1169 1205 825 
Q 1463 481 1925 481 
Q 2391 481 2648 825 
Q 2906 1169 2906 1791 
z
M 3481 434 
Q 3481 -459 3084 -895 
Q 2688 -1331 1869 -1331 
Q 1566 -1331 1297 -1286 
Q 1028 -1241 775 -1147 
L 775 -588 
Q 1028 -725 1275 -790 
Q 1522 -856 1778 -856 
Q 2344 -856 2625 -561 
Q 2906 -266 2906 331 
L 2906 616 
Q 2728 306 2450 153 
Q 2172 0 1784 0 
Q 1141 0 747 490 
Q 353 981 353 1791 
Q 353 2603 747 3093 
Q 1141 3584 1784 3584 
Q 2172 3584 2450 3431 
Q 2728 3278 2906 2969 
L 2906 3500 
L 3481 3500 
L 3481 434 
z
" id="DejaVuSans-67" transform="scale(0.015625)"/>
     </defs>
     <use xlink:href="#DejaVuSans-53"/>
     <use x="63.476562" xlink:href="#DejaVuSans-65"/>
     <use x="125" xlink:href="#DejaVuSans-74"/>
     <use x="164.208984" xlink:href="#DejaVuSans-20"/>
     <use x="195.996094" xlink:href="#DejaVuSans-62"/>
     <use x="259.472656" xlink:href="#DejaVuSans-69"/>
     <use x="287.255859" xlink:href="#DejaVuSans-67"/>
    </g>
   </g>
   <g id="legend_1">
    <g id="patch_7">
     <path d="M 61.2 97.719875 
L 231.742188 97.719875 
Q 233.742188 97.719875 233.742188 95.719875 
L 233.742188 44.968 
Q 233.742188 42.968 231.742188 42.968 
L 61.2 42.968 
Q 59.2 42.968 59.2 44.968 
L 59.2 95.719875 
Q 59.2 97.719875 61.2 97.719875 
z
" style="fill:#ffffff;opacity:0.8;stroke:#cccccc;stroke-linejoin:miter;"/>
    </g>
    <g id="patch_8">
     <path d="M 63.2 61.205188 
L 83.2 61.205188 
L 83.2 54.205188 
L 63.2 54.205188 
z
" style="fill:#1f77b4;fill-opacity:0.4;stroke:#1f77b4;stroke-linejoin:miter;"/>
    </g>
    <g id="text_19">
     <!-- Correlation higher than 0  -->
     <g transform="translate(91.2 54.566438)scale(0.1 -0.1)">
      <defs>
       <path d="M 2194 1759 
Q 1497 1759 1228 1600 
Q 959 1441 959 1056 
Q 959 750 1161 570 
Q 1363 391 1709 391 
Q 2188 391 2477 730 
Q 2766 1069 2766 1631 
L 2766 1759 
L 2194 1759 
z
M 3341 1997 
L 3341 0 
L 2766 0 
L 2766 531 
Q 2569 213 2275 61 
Q 1981 -91 1556 -91 
Q 1019 -91 701 211 
Q 384 513 384 1019 
Q 384 1609 779 1909 
Q 1175 2209 1959 2209 
L 2766 2209 
L 2766 2266 
Q 2766 2663 2505 2880 
Q 2244 3097 1772 3097 
Q 1472 3097 1187 3025 
Q 903 2953 641 2809 
L 641 3341 
Q 956 3463 1253 3523 
Q 1550 3584 1831 3584 
Q 2591 3584 2966 3190 
Q 3341 2797 3341 1997 
z
" id="DejaVuSans-61" transform="scale(0.015625)"/>
       <path d="M 3513 2113 
L 3513 0 
L 2938 0 
L 2938 2094 
Q 2938 2591 2744 2837 
Q 2550 3084 2163 3084 
Q 1697 3084 1428 2787 
Q 1159 2491 1159 1978 
L 1159 0 
L 581 0 
L 581 4863 
L 1159 4863 
L 1159 2956 
Q 1366 3272 1645 3428 
Q 1925 3584 2291 3584 
Q 2894 3584 3203 3211 
Q 3513 2838 3513 2113 
z
" id="DejaVuSans-68" transform="scale(0.015625)"/>
      </defs>
      <use xlink:href="#DejaVuSans-43"/>
      <use x="69.824219" xlink:href="#DejaVuSans-6f"/>
      <use x="131.005859" xlink:href="#DejaVuSans-72"/>
      <use x="170.369141" xlink:href="#DejaVuSans-72"/>
      <use x="209.232422" xlink:href="#DejaVuSans-65"/>
      <use x="270.755859" xlink:href="#DejaVuSans-6c"/>
      <use x="298.539062" xlink:href="#DejaVuSans-61"/>
      <use x="359.818359" xlink:href="#DejaVuSans-74"/>
      <use x="399.027344" xlink:href="#DejaVuSans-69"/>
      <use x="426.810547" xlink:href="#DejaVuSans-6f"/>
      <use x="487.992188" xlink:href="#DejaVuSans-6e"/>
      <use x="551.371094" xlink:href="#DejaVuSans-20"/>
      <use x="583.158203" xlink:href="#DejaVuSans-68"/>
      <use x="646.537109" xlink:href="#DejaVuSans-69"/>
      <use x="674.320312" xlink:href="#DejaVuSans-67"/>
      <use x="737.796875" xlink:href="#DejaVuSans-68"/>
      <use x="801.175781" xlink:href="#DejaVuSans-65"/>
      <use x="862.699219" xlink:href="#DejaVuSans-72"/>
      <use x="903.8125" xlink:href="#DejaVuSans-20"/>
      <use x="935.599609" xlink:href="#DejaVuSans-74"/>
      <use x="974.808594" xlink:href="#DejaVuSans-68"/>
      <use x="1038.1875" xlink:href="#DejaVuSans-61"/>
      <use x="1099.466797" xlink:href="#DejaVuSans-6e"/>
      <use x="1162.845703" xlink:href="#DejaVuSans-20"/>
      <use x="1194.632812" xlink:href="#DejaVuSans-30"/>
      <use x="1258.255859" xlink:href="#DejaVuSans-20"/>
     </g>
     <!-- n=171 -->
     <g transform="translate(91.2 65.76425)scale(0.1 -0.1)">
      <defs>
       <path d="M 678 2906 
L 4684 2906 
L 4684 2381 
L 678 2381 
L 678 2906 
z
M 678 1631 
L 4684 1631 
L 4684 1100 
L 678 1100 
L 678 1631 
z
" id="DejaVuSans-3d" transform="scale(0.015625)"/>
      </defs>
      <use xlink:href="#DejaVuSans-6e"/>
      <use x="63.378906" xlink:href="#DejaVuSans-3d"/>
      <use x="147.167969" xlink:href="#DejaVuSans-31"/>
      <use x="210.791016" xlink:href="#DejaVuSans-37"/>
      <use x="274.414062" xlink:href="#DejaVuSans-31"/>
     </g>
    </g>
    <g id="patch_9">
     <path d="M 63.2 87.081125 
L 83.2 87.081125 
L 83.2 80.081125 
L 63.2 80.081125 
z
" style="fill:#ff7f0e;fill-opacity:0.4;stroke:#ff7f0e;stroke-linejoin:miter;"/>
    </g>
    <g id="text_20">
     <!-- Correlation higher than 0.8  -->
     <g transform="translate(91.2 80.442375)scale(0.1 -0.1)">
      <use xlink:href="#DejaVuSans-43"/>
      <use x="69.824219" xlink:href="#DejaVuSans-6f"/>
      <use x="131.005859" xlink:href="#DejaVuSans-72"/>
      <use x="170.369141" xlink:href="#DejaVuSans-72"/>
      <use x="209.232422" xlink:href="#DejaVuSans-65"/>
      <use x="270.755859" xlink:href="#DejaVuSans-6c"/>
      <use x="298.539062" xlink:href="#DejaVuSans-61"/>
      <use x="359.818359" xlink:href="#DejaVuSans-74"/>
      <use x="399.027344" xlink:href="#DejaVuSans-69"/>
      <use x="426.810547" xlink:href="#DejaVuSans-6f"/>
      <use x="487.992188" xlink:href="#DejaVuSans-6e"/>
      <use x="551.371094" xlink:href="#DejaVuSans-20"/>
      <use x="583.158203" xlink:href="#DejaVuSans-68"/>
      <use x="646.537109" xlink:href="#DejaVuSans-69"/>
      <use x="674.320312" xlink:href="#DejaVuSans-67"/>
      <use x="737.796875" xlink:href="#DejaVuSans-68"/>
      <use x="801.175781" xlink:href="#DejaVuSans-65"/>
      <use x="862.699219" xlink:href="#DejaVuSans-72"/>
      <use x="903.8125" xlink:href="#DejaVuSans-20"/>
      <use x="935.599609" xlink:href="#DejaVuSans-74"/>
      <use x="974.808594" xlink:href="#DejaVuSans-68"/>
      <use x="1038.1875" xlink:href="#DejaVuSans-61"/>
      <use x="1099.466797" xlink:href="#DejaVuSans-6e"/>
      <use x="1162.845703" xlink:href="#DejaVuSans-20"/>
      <use x="1194.632812" xlink:href="#DejaVuSans-30"/>
      <use x="1258.255859" xlink:href="#DejaVuSans-2e"/>
      <use x="1290.042969" xlink:href="#DejaVuSans-38"/>
      <use x="1353.666016" xlink:href="#DejaVuSans-20"/>
     </g>
     <!-- n=5 -->
     <g transform="translate(91.2 91.640187)scale(0.1 -0.1)">
      <use xlink:href="#DejaVuSans-6e"/>
      <use x="63.378906" xlink:href="#DejaVuSans-3d"/>
      <use x="147.167969" xlink:href="#DejaVuSans-35"/>
     </g>
    </g>
   </g>
  </g>
 </g>
 <defs>
  <clipPath id="pd7c7a0ad2f">
   <rect height="265.672" width="387.835" x="54.2" y="37.968"/>
  </clipPath>
 </defs>
</svg>
