<?xml version="1.0" encoding="utf-8" standalone="no"?>
<!DOCTYPE svg PUBLIC "-//W3C//DTD SVG 1.1//EN"
  "http://www.w3.org/Graphics/SVG/1.1/DTD/svg11.dtd">
<svg height="345.6pt" version="1.1" viewBox="0 0 460.8 345.6" width="460.8pt" xmlns="http://www.w3.org/2000/svg" xmlns:xlink="http://www.w3.org/1999/xlink">
 <metadata>
  <rdf:RDF xmlns:cc="http://creativecommons.org/ns#" xmlns:dc="http://purl.org/dc/elements/1.1/" xmlns:rdf="http://www.w3.org/1999/02/22-rdf-syntax-ns#">
   <cc:Work>
    <dc:type rdf:resource="http://purl.org/dc/dcmitype/StillImage"/>
    <dc:date>2021-11-24T22:50:17.397154</dc:date>
    <dc:format>image/svg+xml</dc:format>
    <dc:creator>
     <cc:Agent>
      <dc:title>Matplotlib v3.4.3, https://matplotlib.org/</dc:title>
     </cc:Agent>
    </dc:creator>
   </cc:Work>
  </rdf:RDF>
 </metadata>
 <defs>
  <style type="text/css">*{stroke-linecap:butt;stroke-linejoin:round;}</style>
 </defs>
 <g id="figure_1">
  <g id="patch_1">
   <path d="M 0 345.6 
L 460.8 345.6 
L 460.8 0 
L 0 0 
z
" style="fill:#ffffff;"/>
  </g>
  <g id="axes_1">
   <g id="patch_2">
    <path d="M 47.81 303.64 
L 442.035 303.64 
L 442.035 37.968 
L 47.81 37.968 
z
" style="fill:#ffffff;"/>
   </g>
   <g id="PolyCollection_1">
    <path clip-path="url(#p2a782439f6)" d="M -12.295453 303.391388 
L -12.295453 303.64 
L -9.472625 303.64 
L -6.649796 303.64 
L -3.826967 303.64 
L -1.004139 303.64 
L 1.81869 303.64 
L 4.641519 303.64 
L 7.464347 303.64 
L 10.287176 303.64 
L 13.110005 303.64 
L 15.932833 303.64 
L 18.755662 303.64 
L 21.578491 303.64 
L 24.401319 303.64 
L 27.224148 303.64 
L 30.046977 303.64 
L 32.869805 303.64 
L 35.692634 303.64 
L 38.515463 303.64 
L 41.338291 303.64 
L 44.16112 303.64 
L 46.983949 303.64 
L 49.806778 303.64 
L 52.629606 303.64 
L 55.452435 303.64 
L 58.275264 303.64 
L 61.098092 303.64 
L 63.920921 303.64 
L 66.74375 303.64 
L 69.566578 303.64 
L 72.389407 303.64 
L 75.212236 303.64 
L 78.035064 303.64 
L 80.857893 303.64 
L 83.680722 303.64 
L 86.50355 303.64 
L 89.326379 303.64 
L 92.149208 303.64 
L 94.972036 303.64 
L 97.794865 303.64 
L 100.617694 303.64 
L 103.440522 303.64 
L 106.263351 303.64 
L 109.08618 303.64 
L 111.909008 303.64 
L 114.731837 303.64 
L 117.554666 303.64 
L 120.377494 303.64 
L 123.200323 303.64 
L 126.023152 303.64 
L 128.84598 303.64 
L 131.668809 303.64 
L 134.491638 303.64 
L 137.314467 303.64 
L 140.137295 303.64 
L 142.960124 303.64 
L 145.782953 303.64 
L 148.605781 303.64 
L 151.42861 303.64 
L 154.251439 303.64 
L 157.074267 303.64 
L 159.897096 303.64 
L 162.719925 303.64 
L 165.542753 303.64 
L 168.365582 303.64 
L 171.188411 303.64 
L 174.011239 303.64 
L 176.834068 303.64 
L 179.656897 303.64 
L 182.479725 303.64 
L 185.302554 303.64 
L 188.125383 303.64 
L 190.948211 303.64 
L 193.77104 303.64 
L 196.593869 303.64 
L 199.416697 303.64 
L 202.239526 303.64 
L 205.062355 303.64 
L 207.885183 303.64 
L 210.708012 303.64 
L 213.530841 303.64 
L 216.353669 303.64 
L 219.176498 303.64 
L 221.999327 303.64 
L 224.822156 303.64 
L 227.644984 303.64 
L 230.467813 303.64 
L 233.290642 303.64 
L 236.11347 303.64 
L 238.936299 303.64 
L 241.759128 303.64 
L 244.581956 303.64 
L 247.404785 303.64 
L 250.227614 303.64 
L 253.050442 303.64 
L 255.873271 303.64 
L 258.6961 303.64 
L 261.518928 303.64 
L 264.341757 303.64 
L 267.164586 303.64 
L 269.987414 303.64 
L 272.810243 303.64 
L 275.633072 303.64 
L 278.4559 303.64 
L 281.278729 303.64 
L 284.101558 303.64 
L 286.924386 303.64 
L 289.747215 303.64 
L 292.570044 303.64 
L 295.392872 303.64 
L 298.215701 303.64 
L 301.03853 303.64 
L 303.861358 303.64 
L 306.684187 303.64 
L 309.507016 303.64 
L 312.329844 303.64 
L 315.152673 303.64 
L 317.975502 303.64 
L 320.798331 303.64 
L 323.621159 303.64 
L 326.443988 303.64 
L 329.266817 303.64 
L 332.089645 303.64 
L 334.912474 303.64 
L 337.735303 303.64 
L 340.558131 303.64 
L 343.38096 303.64 
L 346.203789 303.64 
L 349.026617 303.64 
L 351.849446 303.64 
L 354.672275 303.64 
L 357.495103 303.64 
L 360.317932 303.64 
L 363.140761 303.64 
L 365.963589 303.64 
L 368.786418 303.64 
L 371.609247 303.64 
L 374.432075 303.64 
L 377.254904 303.64 
L 380.077733 303.64 
L 382.900561 303.64 
L 385.72339 303.64 
L 388.546219 303.64 
L 391.369047 303.64 
L 394.191876 303.64 
L 397.014705 303.64 
L 399.837533 303.64 
L 402.660362 303.64 
L 405.483191 303.64 
L 408.30602 303.64 
L 411.128848 303.64 
L 413.951677 303.64 
L 416.774506 303.64 
L 419.597334 303.64 
L 422.420163 303.64 
L 425.242992 303.64 
L 428.06582 303.64 
L 430.888649 303.64 
L 433.711478 303.64 
L 436.534306 303.64 
L 439.357135 303.64 
L 442.179964 303.64 
L 445.002792 303.64 
L 447.825621 303.64 
L 450.64845 303.64 
L 453.471278 303.64 
L 456.294107 303.64 
L 459.116936 303.64 
L 461.939764 303.64 
L 464.762593 303.64 
L 467.585422 303.64 
L 470.40825 303.64 
L 473.231079 303.64 
L 476.053908 303.64 
L 478.876736 303.64 
L 481.699565 303.64 
L 484.522394 303.64 
L 487.345222 303.64 
L 490.168051 303.64 
L 492.99088 303.64 
L 495.813709 303.64 
L 498.636537 303.64 
L 501.459366 303.64 
L 504.282195 303.64 
L 507.105023 303.64 
L 509.927852 303.64 
L 512.750681 303.64 
L 515.573509 303.64 
L 518.396338 303.64 
L 521.219167 303.64 
L 524.041995 303.64 
L 526.864824 303.64 
L 529.687653 303.64 
L 532.510481 303.64 
L 535.33331 303.64 
L 538.156139 303.64 
L 540.978967 303.64 
L 543.801796 303.64 
L 546.624625 303.64 
L 549.447453 303.64 
L 549.447453 301.589736 
L 549.447453 301.589736 
L 546.624625 301.044664 
L 543.801796 300.374682 
L 540.978967 299.556732 
L 538.156139 298.56491 
L 535.33331 297.370456 
L 532.510481 295.941823 
L 529.687653 294.244868 
L 526.864824 292.243155 
L 524.041995 289.898405 
L 521.219167 287.171101 
L 518.396338 284.021243 
L 515.573509 280.409274 
L 512.750681 276.297158 
L 509.927852 271.649593 
L 507.105023 266.435355 
L 504.282195 260.628719 
L 501.459366 254.210931 
L 498.636537 247.171675 
L 495.813709 239.510478 
L 492.99088 231.238001 
L 490.168051 222.377133 
L 487.345222 212.963845 
L 484.522394 203.047725 
L 481.699565 192.692152 
L 478.876736 181.97406 
L 476.053908 170.983261 
L 473.231079 159.821321 
L 470.40825 148.599987 
L 467.585422 137.439191 
L 464.762593 126.464678 
L 461.939764 115.805328 
L 459.116936 105.590242 
L 456.294107 95.945694 
L 453.471278 86.99206 
L 450.64845 78.840824 
L 447.825621 71.591776 
L 445.002792 65.330512 
L 442.179964 60.126326 
L 439.357135 56.030572 
L 436.534306 53.075554 
L 433.711478 51.273988 
L 430.888649 50.619048 
L 428.06582 51.084968 
L 425.242992 52.628195 
L 422.420163 55.189008 
L 419.597334 58.693542 
L 416.774506 63.056137 
L 413.951677 68.181888 
L 411.128848 73.969334 
L 408.30602 80.313141 
L 405.483191 87.106727 
L 402.660362 94.244713 
L 399.837533 101.625144 
L 397.014705 109.151417 
L 394.191876 116.733878 
L 391.369047 124.291066 
L 388.546219 131.750596 
L 385.72339 139.049689 
L 382.900561 146.135368 
L 380.077733 152.964363 
L 377.254904 159.502752 
L 374.432075 165.725388 
L 371.609247 171.615167 
L 368.786418 177.162172 
L 365.963589 182.36275 
L 363.140761 187.218559 
L 360.317932 191.735616 
L 357.495103 195.923398 
L 354.672275 199.793987 
L 351.849446 203.361315 
L 349.026617 206.64049 
L 346.203789 209.647233 
L 343.38096 212.397411 
L 340.558131 214.906675 
L 337.735303 217.190196 
L 334.912474 219.262483 
L 332.089645 221.137285 
L 329.266817 222.827557 
L 326.443988 224.345482 
L 323.621159 225.702531 
L 320.798331 226.909564 
L 317.975502 227.976935 
L 315.152673 228.914621 
L 312.329844 229.732338 
L 309.507016 230.439652 
L 306.684187 231.046071 
L 303.861358 231.561119 
L 301.03853 231.994376 
L 298.215701 232.355493 
L 295.392872 232.654181 
L 292.570044 232.900166 
L 289.747215 233.103122 
L 286.924386 233.272581 
L 284.101558 233.417829 
L 281.278729 233.547787 
L 278.4559 233.670895 
L 275.633072 233.794991 
L 272.810243 233.927204 
L 269.987414 234.073857 
L 267.164586 234.240397 
L 264.341757 234.431331 
L 261.518928 234.650206 
L 258.6961 234.899592 
L 255.873271 235.181107 
L 253.050442 235.495444 
L 250.227614 235.842429 
L 247.404785 236.221078 
L 244.581956 236.629673 
L 241.759128 237.065826 
L 238.936299 237.526555 
L 236.11347 238.008337 
L 233.290642 238.507171 
L 230.467813 239.018613 
L 227.644984 239.537815 
L 224.822156 240.059551 
L 221.999327 240.578243 
L 219.176498 241.087979 
L 216.353669 241.582553 
L 213.530841 242.055497 
L 210.708012 242.500149 
L 207.885183 242.909724 
L 205.062355 243.277423 
L 202.239526 243.596563 
L 199.416697 243.860728 
L 196.593869 244.06395 
L 193.77104 244.200903 
L 190.948211 244.267115 
L 188.125383 244.25918 
L 185.302554 244.174967 
L 182.479725 244.013818 
L 179.656897 243.776715 
L 176.834068 243.466427 
L 174.011239 243.0876 
L 171.188411 242.646814 
L 168.365582 242.152576 
L 165.542753 241.615268 
L 162.719925 241.047029 
L 159.897096 240.461594 
L 157.074267 239.874074 
L 154.251439 239.300695 
L 151.42861 238.758503 
L 148.605781 238.265037 
L 145.782953 237.837986 
L 142.960124 237.494832 
L 140.137295 237.252497 
L 137.314467 237.126995 
L 134.491638 237.133105 
L 131.668809 237.284065 
L 128.84598 237.591299 
L 126.023152 238.064175 
L 123.200323 238.709812 
L 120.377494 239.532925 
L 117.554666 240.535718 
L 114.731837 241.717825 
L 111.909008 243.076299 
L 109.08618 244.605653 
L 106.263351 246.297945 
L 103.440522 248.142916 
L 100.617694 250.128164 
L 97.794865 252.239367 
L 94.972036 254.460537 
L 92.149208 256.774313 
L 89.326379 259.162273 
L 86.50355 261.605267 
L 83.680722 264.083765 
L 80.857893 266.578201 
L 78.035064 269.069322 
L 75.212236 271.538513 
L 72.389407 273.968107 
L 69.566578 276.341659 
L 66.74375 278.644191 
L 63.920921 280.862391 
L 61.098092 282.984764 
L 58.275264 285.001738 
L 55.452435 286.90572 
L 52.629606 288.691101 
L 49.806778 290.354217 
L 46.983949 291.893266 
L 44.16112 293.30819 
L 41.338291 294.600525 
L 38.515463 295.773224 
L 35.692634 296.830467 
L 32.869805 297.777458 
L 30.046977 298.620219 
L 27.224148 299.365388 
L 24.401319 300.020026 
L 21.578491 300.591433 
L 18.755662 301.086988 
L 15.932833 301.514001 
L 13.110005 301.879592 
L 10.287176 302.190591 
L 7.464347 302.453454 
L 4.641519 302.67421 
L 1.81869 302.858417 
L -1.004139 303.011143 
L -3.826967 303.136959 
L -6.649796 303.239944 
L -9.472625 303.323702 
L -12.295453 303.391388 
z
" style="fill:#1f77b4;fill-opacity:0.4;stroke:#1f77b4;"/>
   </g>
   <g id="PolyCollection_2">
    <defs>
     <path d="M 150.352526 -43.183275 
L 150.352526 -41.96 
L 152.650079 -41.96 
L 154.947631 -41.96 
L 157.245184 -41.96 
L 159.542736 -41.96 
L 161.840289 -41.96 
L 164.137841 -41.96 
L 166.435394 -41.96 
L 168.732946 -41.96 
L 171.030499 -41.96 
L 173.328051 -41.96 
L 175.625604 -41.96 
L 177.923156 -41.96 
L 180.220709 -41.96 
L 182.518261 -41.96 
L 184.815814 -41.96 
L 187.113366 -41.96 
L 189.410919 -41.96 
L 191.708471 -41.96 
L 194.006024 -41.96 
L 196.303576 -41.96 
L 198.601129 -41.96 
L 200.898681 -41.96 
L 203.196234 -41.96 
L 205.493786 -41.96 
L 207.791339 -41.96 
L 210.088891 -41.96 
L 212.386444 -41.96 
L 214.683996 -41.96 
L 216.981549 -41.96 
L 219.279101 -41.96 
L 221.576654 -41.96 
L 223.874206 -41.96 
L 226.171759 -41.96 
L 228.469311 -41.96 
L 230.766864 -41.96 
L 233.064416 -41.96 
L 235.361969 -41.96 
L 237.659521 -41.96 
L 239.957074 -41.96 
L 242.254626 -41.96 
L 244.552179 -41.96 
L 246.849731 -41.96 
L 249.147284 -41.96 
L 251.444836 -41.96 
L 253.742389 -41.96 
L 256.039941 -41.96 
L 258.337494 -41.96 
L 260.635046 -41.96 
L 262.932599 -41.96 
L 265.230151 -41.96 
L 267.527704 -41.96 
L 269.825256 -41.96 
L 272.122809 -41.96 
L 274.420361 -41.96 
L 276.717914 -41.96 
L 279.015466 -41.96 
L 281.313019 -41.96 
L 283.610571 -41.96 
L 285.908124 -41.96 
L 288.205676 -41.96 
L 290.503229 -41.96 
L 292.800781 -41.96 
L 295.098334 -41.96 
L 297.395886 -41.96 
L 299.693439 -41.96 
L 301.990991 -41.96 
L 304.288544 -41.96 
L 306.586096 -41.96 
L 308.883649 -41.96 
L 311.181201 -41.96 
L 313.478754 -41.96 
L 315.776306 -41.96 
L 318.073859 -41.96 
L 320.371411 -41.96 
L 322.668964 -41.96 
L 324.966516 -41.96 
L 327.264069 -41.96 
L 329.561621 -41.96 
L 331.859174 -41.96 
L 334.156726 -41.96 
L 336.454279 -41.96 
L 338.751831 -41.96 
L 341.049384 -41.96 
L 343.346936 -41.96 
L 345.644489 -41.96 
L 347.942041 -41.96 
L 350.239594 -41.96 
L 352.537146 -41.96 
L 354.834699 -41.96 
L 357.132251 -41.96 
L 359.429804 -41.96 
L 361.727356 -41.96 
L 364.024909 -41.96 
L 366.322461 -41.96 
L 368.620014 -41.96 
L 370.917566 -41.96 
L 373.215119 -41.96 
L 375.512671 -41.96 
L 377.810224 -41.96 
L 380.107776 -41.96 
L 382.405329 -41.96 
L 384.702881 -41.96 
L 387.000434 -41.96 
L 389.297986 -41.96 
L 391.595539 -41.96 
L 393.893091 -41.96 
L 396.190644 -41.96 
L 398.488196 -41.96 
L 400.785749 -41.96 
L 403.083301 -41.96 
L 405.380854 -41.96 
L 407.678406 -41.96 
L 409.975959 -41.96 
L 412.273511 -41.96 
L 414.571064 -41.96 
L 416.868616 -41.96 
L 419.166169 -41.96 
L 421.463721 -41.96 
L 423.761274 -41.96 
L 426.058826 -41.96 
L 428.356379 -41.96 
L 430.653931 -41.96 
L 432.951484 -41.96 
L 435.249036 -41.96 
L 437.546589 -41.96 
L 439.844141 -41.96 
L 442.141694 -41.96 
L 444.439246 -41.96 
L 446.736799 -41.96 
L 449.034351 -41.96 
L 451.331904 -41.96 
L 453.629456 -41.96 
L 455.927009 -41.96 
L 458.224561 -41.96 
L 460.522114 -41.96 
L 462.819666 -41.96 
L 465.117219 -41.96 
L 467.414771 -41.96 
L 469.712324 -41.96 
L 472.009876 -41.96 
L 474.307429 -41.96 
L 476.604981 -41.96 
L 478.902534 -41.96 
L 481.200086 -41.96 
L 483.497639 -41.96 
L 485.795191 -41.96 
L 488.092744 -41.96 
L 490.390296 -41.96 
L 492.687849 -41.96 
L 494.985401 -41.96 
L 497.282954 -41.96 
L 499.580506 -41.96 
L 501.878059 -41.96 
L 504.175611 -41.96 
L 506.473164 -41.96 
L 508.770716 -41.96 
L 511.068269 -41.96 
L 513.365821 -41.96 
L 515.663374 -41.96 
L 517.960926 -41.96 
L 520.258479 -41.96 
L 522.556031 -41.96 
L 524.853584 -41.96 
L 527.151136 -41.96 
L 529.448689 -41.96 
L 531.746241 -41.96 
L 534.043794 -41.96 
L 536.341346 -41.96 
L 538.638899 -41.96 
L 540.936451 -41.96 
L 543.234004 -41.96 
L 545.531556 -41.96 
L 547.829109 -41.96 
L 550.126661 -41.96 
L 552.424214 -41.96 
L 554.721766 -41.96 
L 557.019319 -41.96 
L 559.316871 -41.96 
L 561.614424 -41.96 
L 563.911976 -41.96 
L 566.209529 -41.96 
L 568.507081 -41.96 
L 570.804634 -41.96 
L 573.102186 -41.96 
L 575.399739 -41.96 
L 577.697291 -41.96 
L 579.994844 -41.96 
L 582.292396 -41.96 
L 584.589949 -41.96 
L 586.887501 -41.96 
L 589.185054 -41.96 
L 591.482606 -41.96 
L 593.780159 -41.96 
L 596.077711 -41.96 
L 598.375264 -41.96 
L 600.672816 -41.96 
L 602.970369 -41.96 
L 605.267921 -41.96 
L 607.565474 -41.96 
L 607.565474 -43.680899 
L 607.565474 -43.680899 
L 605.267921 -43.914948 
L 602.970369 -44.177046 
L 600.672816 -44.470004 
L 598.375264 -44.796835 
L 596.077711 -45.160767 
L 593.780159 -45.56524 
L 591.482606 -46.013915 
L 589.185054 -46.510673 
L 586.887501 -47.059612 
L 584.589949 -47.665047 
L 582.292396 -48.331506 
L 579.994844 -49.06372 
L 577.697291 -49.866613 
L 575.399739 -50.745293 
L 573.102186 -51.70503 
L 570.804634 -52.751242 
L 568.507081 -53.889469 
L 566.209529 -55.125349 
L 563.911976 -56.464587 
L 561.614424 -57.912921 
L 559.316871 -59.476087 
L 557.019319 -61.159776 
L 554.721766 -62.969591 
L 552.424214 -64.911 
L 550.126661 -66.989281 
L 547.829109 -69.209474 
L 545.531556 -71.576319 
L 543.234004 -74.094199 
L 540.936451 -76.767081 
L 538.638899 -79.59845 
L 536.341346 -82.591248 
L 534.043794 -85.74781 
L 531.746241 -89.069802 
L 529.448689 -92.558157 
L 527.151136 -96.213018 
L 524.853584 -100.033679 
L 522.556031 -104.01853 
L 520.258479 -108.165011 
L 517.960926 -112.469567 
L 515.663374 -116.927607 
L 513.365821 -121.533478 
L 511.068269 -126.280437 
L 508.770716 -131.160637 
L 506.473164 -136.165125 
L 504.175611 -141.283838 
L 501.878059 -146.505627 
L 499.580506 -151.818271 
L 497.282954 -157.208522 
L 494.985401 -162.662146 
L 492.687849 -168.163986 
L 490.390296 -173.698024 
L 488.092744 -179.247472 
L 485.795191 -184.794854 
L 483.497639 -190.322111 
L 481.200086 -195.810715 
L 478.902534 -201.241783 
L 476.604981 -206.596206 
L 474.307429 -211.854788 
L 472.009876 -216.998378 
L 469.712324 -222.008017 
L 467.414771 -226.865087 
L 465.117219 -231.551453 
L 462.819666 -236.049614 
L 460.522114 -240.342848 
L 458.224561 -244.415348 
L 455.927009 -248.252364 
L 453.629456 -251.84033 
L 451.331904 -255.166982 
L 449.034351 -258.221468 
L 446.736799 -260.994448 
L 444.439246 -263.478179 
L 442.141694 -265.666584 
L 439.844141 -267.555311 
L 437.546589 -269.141768 
L 435.249036 -270.42515 
L 432.951484 -271.406445 
L 430.653931 -272.088417 
L 428.356379 -272.475582 
L 426.058826 -272.574156 
L 423.761274 -272.391998 
L 421.463721 -271.938521 
L 419.166169 -271.224601 
L 416.868616 -270.262468 
L 414.571064 -269.065575 
L 412.273511 -267.64847 
L 409.975959 -266.026643 
L 407.678406 -264.216375 
L 405.380854 -262.234573 
L 403.083301 -260.098606 
L 400.785749 -257.82613 
L 398.488196 -255.434923 
L 396.190644 -252.942709 
L 393.893091 -250.366993 
L 391.595539 -247.7249 
L 389.297986 -245.033016 
L 387.000434 -242.307243 
L 384.702881 -239.562662 
L 382.405329 -236.813404 
L 380.107776 -234.072546 
L 377.810224 -231.352005 
L 375.512671 -228.662456 
L 373.215119 -226.013271 
L 370.917566 -223.412463 
L 368.620014 -220.866654 
L 366.322461 -218.381058 
L 364.024909 -215.959484 
L 361.727356 -213.604349 
L 359.429804 -211.316712 
L 357.132251 -209.096322 
L 354.834699 -206.941682 
L 352.537146 -204.850121 
L 350.239594 -202.817882 
L 347.942041 -200.840222 
L 345.644489 -198.91152 
L 343.346936 -197.025384 
L 341.049384 -195.174782 
L 338.751831 -193.352158 
L 336.454279 -191.549564 
L 334.156726 -189.758786 
L 331.859174 -187.971473 
L 329.561621 -186.179261 
L 327.264069 -184.373894 
L 324.966516 -182.547338 
L 322.668964 -180.691897 
L 320.371411 -178.800305 
L 318.073859 -176.865826 
L 315.776306 -174.882335 
L 313.478754 -172.844389 
L 311.181201 -170.747291 
L 308.883649 -168.587136 
L 306.586096 -166.360857 
L 304.288544 -164.066243 
L 301.990991 -161.70196 
L 299.693439 -159.267556 
L 297.395886 -156.763445 
L 295.098334 -154.190902 
L 292.800781 -151.552022 
L 290.503229 -148.849696 
L 288.205676 -146.087555 
L 285.908124 -143.269924 
L 283.610571 -140.401763 
L 281.313019 -137.488598 
L 279.015466 -134.536456 
L 276.717914 -131.551795 
L 274.420361 -128.541423 
L 272.122809 -125.512429 
L 269.825256 -122.472103 
L 267.527704 -119.427861 
L 265.230151 -116.387176 
L 262.932599 -113.357498 
L 260.635046 -110.346195 
L 258.337494 -107.360485 
L 256.039941 -104.407372 
L 253.742389 -101.493598 
L 251.444836 -98.62559 
L 249.147284 -95.809414 
L 246.849731 -93.050742 
L 244.552179 -90.354813 
L 242.254626 -87.726414 
L 239.957074 -85.169852 
L 237.659521 -82.688947 
L 235.361969 -80.287017 
L 233.064416 -77.96688 
L 230.766864 -75.730849 
L 228.469311 -73.580747 
L 226.171759 -71.51791 
L 223.874206 -69.543208 
L 221.576654 -67.657059 
L 219.279101 -65.859455 
L 216.981549 -64.14998 
L 214.683996 -62.527842 
L 212.386444 -60.991901 
L 210.088891 -59.540694 
L 207.791339 -58.172468 
L 205.493786 -56.885214 
L 203.196234 -55.67669 
L 200.898681 -54.54446 
L 198.601129 -53.485918 
L 196.303576 -52.498322 
L 194.006024 -51.578819 
L 191.708471 -50.724472 
L 189.410919 -49.932287 
L 187.113366 -49.199236 
L 184.815814 -48.522279 
L 182.518261 -47.898387 
L 180.220709 -47.324554 
L 177.923156 -46.79782 
L 175.625604 -46.315284 
L 173.328051 -45.874116 
L 171.030499 -45.471567 
L 168.732946 -45.104981 
L 166.435394 -44.771802 
L 164.137841 -44.469578 
L 161.840289 -44.19597 
L 159.542736 -43.94875 
L 157.245184 -43.725807 
L 154.947631 -43.525147 
L 152.650079 -43.34489 
L 150.352526 -43.183275 
z
" id="mfcbb4562b5" style="stroke:#ff7f0e;"/>
    </defs>
    <g clip-path="url(#p2a782439f6)">
     <use style="fill:#ff7f0e;fill-opacity:0.4;stroke:#ff7f0e;" x="0" xlink:href="#mfcbb4562b5" y="345.6"/>
    </g>
   </g>
   <g id="matplotlib.axis_1">
    <g id="xtick_1">
     <g id="line2d_1">
      <defs>
       <path d="M 0 0 
L 0 3.5 
" id="m5e294f6882" style="stroke:#000000;stroke-width:0.8;"/>
      </defs>
      <g>
       <use style="stroke:#000000;stroke-width:0.8;" x="47.81" xlink:href="#m5e294f6882" y="303.64"/>
      </g>
     </g>
     <g id="text_1">
      <!-- 0.0 -->
      <g transform="translate(39.858438 318.238437)scale(0.1 -0.1)">
       <defs>
        <path d="M 2034 4250 
Q 1547 4250 1301 3770 
Q 1056 3291 1056 2328 
Q 1056 1369 1301 889 
Q 1547 409 2034 409 
Q 2525 409 2770 889 
Q 3016 1369 3016 2328 
Q 3016 3291 2770 3770 
Q 2525 4250 2034 4250 
z
M 2034 4750 
Q 2819 4750 3233 4129 
Q 3647 3509 3647 2328 
Q 3647 1150 3233 529 
Q 2819 -91 2034 -91 
Q 1250 -91 836 529 
Q 422 1150 422 2328 
Q 422 3509 836 4129 
Q 1250 4750 2034 4750 
z
" id="DejaVuSans-30" transform="scale(0.015625)"/>
        <path d="M 684 794 
L 1344 794 
L 1344 0 
L 684 0 
L 684 794 
z
" id="DejaVuSans-2e" transform="scale(0.015625)"/>
       </defs>
       <use xlink:href="#DejaVuSans-30"/>
       <use x="63.623047" xlink:href="#DejaVuSans-2e"/>
       <use x="95.410156" xlink:href="#DejaVuSans-30"/>
      </g>
     </g>
    </g>
    <g id="xtick_2">
     <g id="line2d_2">
      <g>
       <use style="stroke:#000000;stroke-width:0.8;" x="126.655" xlink:href="#m5e294f6882" y="303.64"/>
      </g>
     </g>
     <g id="text_2">
      <!-- 0.2 -->
      <g transform="translate(118.703438 318.238437)scale(0.1 -0.1)">
       <defs>
        <path d="M 1228 531 
L 3431 531 
L 3431 0 
L 469 0 
L 469 531 
Q 828 903 1448 1529 
Q 2069 2156 2228 2338 
Q 2531 2678 2651 2914 
Q 2772 3150 2772 3378 
Q 2772 3750 2511 3984 
Q 2250 4219 1831 4219 
Q 1534 4219 1204 4116 
Q 875 4013 500 3803 
L 500 4441 
Q 881 4594 1212 4672 
Q 1544 4750 1819 4750 
Q 2544 4750 2975 4387 
Q 3406 4025 3406 3419 
Q 3406 3131 3298 2873 
Q 3191 2616 2906 2266 
Q 2828 2175 2409 1742 
Q 1991 1309 1228 531 
z
" id="DejaVuSans-32" transform="scale(0.015625)"/>
       </defs>
       <use xlink:href="#DejaVuSans-30"/>
       <use x="63.623047" xlink:href="#DejaVuSans-2e"/>
       <use x="95.410156" xlink:href="#DejaVuSans-32"/>
      </g>
     </g>
    </g>
    <g id="xtick_3">
     <g id="line2d_3">
      <g>
       <use style="stroke:#000000;stroke-width:0.8;" x="205.5" xlink:href="#m5e294f6882" y="303.64"/>
      </g>
     </g>
     <g id="text_3">
      <!-- 0.4 -->
      <g transform="translate(197.548438 318.238437)scale(0.1 -0.1)">
       <defs>
        <path d="M 2419 4116 
L 825 1625 
L 2419 1625 
L 2419 4116 
z
M 2253 4666 
L 3047 4666 
L 3047 1625 
L 3713 1625 
L 3713 1100 
L 3047 1100 
L 3047 0 
L 2419 0 
L 2419 1100 
L 313 1100 
L 313 1709 
L 2253 4666 
z
" id="DejaVuSans-34" transform="scale(0.015625)"/>
       </defs>
       <use xlink:href="#DejaVuSans-30"/>
       <use x="63.623047" xlink:href="#DejaVuSans-2e"/>
       <use x="95.410156" xlink:href="#DejaVuSans-34"/>
      </g>
     </g>
    </g>
    <g id="xtick_4">
     <g id="line2d_4">
      <g>
       <use style="stroke:#000000;stroke-width:0.8;" x="284.345" xlink:href="#m5e294f6882" y="303.64"/>
      </g>
     </g>
     <g id="text_4">
      <!-- 0.6 -->
      <g transform="translate(276.393438 318.238437)scale(0.1 -0.1)">
       <defs>
        <path d="M 2113 2584 
Q 1688 2584 1439 2293 
Q 1191 2003 1191 1497 
Q 1191 994 1439 701 
Q 1688 409 2113 409 
Q 2538 409 2786 701 
Q 3034 994 3034 1497 
Q 3034 2003 2786 2293 
Q 2538 2584 2113 2584 
z
M 3366 4563 
L 3366 3988 
Q 3128 4100 2886 4159 
Q 2644 4219 2406 4219 
Q 1781 4219 1451 3797 
Q 1122 3375 1075 2522 
Q 1259 2794 1537 2939 
Q 1816 3084 2150 3084 
Q 2853 3084 3261 2657 
Q 3669 2231 3669 1497 
Q 3669 778 3244 343 
Q 2819 -91 2113 -91 
Q 1303 -91 875 529 
Q 447 1150 447 2328 
Q 447 3434 972 4092 
Q 1497 4750 2381 4750 
Q 2619 4750 2861 4703 
Q 3103 4656 3366 4563 
z
" id="DejaVuSans-36" transform="scale(0.015625)"/>
       </defs>
       <use xlink:href="#DejaVuSans-30"/>
       <use x="63.623047" xlink:href="#DejaVuSans-2e"/>
       <use x="95.410156" xlink:href="#DejaVuSans-36"/>
      </g>
     </g>
    </g>
    <g id="xtick_5">
     <g id="line2d_5">
      <g>
       <use style="stroke:#000000;stroke-width:0.8;" x="363.19" xlink:href="#m5e294f6882" y="303.64"/>
      </g>
     </g>
     <g id="text_5">
      <!-- 0.8 -->
      <g transform="translate(355.238437 318.238437)scale(0.1 -0.1)">
       <defs>
        <path d="M 2034 2216 
Q 1584 2216 1326 1975 
Q 1069 1734 1069 1313 
Q 1069 891 1326 650 
Q 1584 409 2034 409 
Q 2484 409 2743 651 
Q 3003 894 3003 1313 
Q 3003 1734 2745 1975 
Q 2488 2216 2034 2216 
z
M 1403 2484 
Q 997 2584 770 2862 
Q 544 3141 544 3541 
Q 544 4100 942 4425 
Q 1341 4750 2034 4750 
Q 2731 4750 3128 4425 
Q 3525 4100 3525 3541 
Q 3525 3141 3298 2862 
Q 3072 2584 2669 2484 
Q 3125 2378 3379 2068 
Q 3634 1759 3634 1313 
Q 3634 634 3220 271 
Q 2806 -91 2034 -91 
Q 1263 -91 848 271 
Q 434 634 434 1313 
Q 434 1759 690 2068 
Q 947 2378 1403 2484 
z
M 1172 3481 
Q 1172 3119 1398 2916 
Q 1625 2713 2034 2713 
Q 2441 2713 2670 2916 
Q 2900 3119 2900 3481 
Q 2900 3844 2670 4047 
Q 2441 4250 2034 4250 
Q 1625 4250 1398 4047 
Q 1172 3844 1172 3481 
z
" id="DejaVuSans-38" transform="scale(0.015625)"/>
       </defs>
       <use xlink:href="#DejaVuSans-30"/>
       <use x="63.623047" xlink:href="#DejaVuSans-2e"/>
       <use x="95.410156" xlink:href="#DejaVuSans-38"/>
      </g>
     </g>
    </g>
    <g id="xtick_6">
     <g id="line2d_6">
      <g>
       <use style="stroke:#000000;stroke-width:0.8;" x="442.035" xlink:href="#m5e294f6882" y="303.64"/>
      </g>
     </g>
     <g id="text_6">
      <!-- 1.0 -->
      <g transform="translate(434.083437 318.238437)scale(0.1 -0.1)">
       <defs>
        <path d="M 794 531 
L 1825 531 
L 1825 4091 
L 703 3866 
L 703 4441 
L 1819 4666 
L 2450 4666 
L 2450 531 
L 3481 531 
L 3481 0 
L 794 0 
L 794 531 
z
" id="DejaVuSans-31" transform="scale(0.015625)"/>
       </defs>
       <use xlink:href="#DejaVuSans-31"/>
       <use x="63.623047" xlink:href="#DejaVuSans-2e"/>
       <use x="95.410156" xlink:href="#DejaVuSans-30"/>
      </g>
     </g>
    </g>
    <g id="text_7">
     <!-- Credibility index -->
     <g transform="translate(204.317812 331.916562)scale(0.1 -0.1)">
      <defs>
       <path d="M 4122 4306 
L 4122 3641 
Q 3803 3938 3442 4084 
Q 3081 4231 2675 4231 
Q 1875 4231 1450 3742 
Q 1025 3253 1025 2328 
Q 1025 1406 1450 917 
Q 1875 428 2675 428 
Q 3081 428 3442 575 
Q 3803 722 4122 1019 
L 4122 359 
Q 3791 134 3420 21 
Q 3050 -91 2638 -91 
Q 1578 -91 968 557 
Q 359 1206 359 2328 
Q 359 3453 968 4101 
Q 1578 4750 2638 4750 
Q 3056 4750 3426 4639 
Q 3797 4528 4122 4306 
z
" id="DejaVuSans-43" transform="scale(0.015625)"/>
       <path d="M 2631 2963 
Q 2534 3019 2420 3045 
Q 2306 3072 2169 3072 
Q 1681 3072 1420 2755 
Q 1159 2438 1159 1844 
L 1159 0 
L 581 0 
L 581 3500 
L 1159 3500 
L 1159 2956 
Q 1341 3275 1631 3429 
Q 1922 3584 2338 3584 
Q 2397 3584 2469 3576 
Q 2541 3569 2628 3553 
L 2631 2963 
z
" id="DejaVuSans-72" transform="scale(0.015625)"/>
       <path d="M 3597 1894 
L 3597 1613 
L 953 1613 
Q 991 1019 1311 708 
Q 1631 397 2203 397 
Q 2534 397 2845 478 
Q 3156 559 3463 722 
L 3463 178 
Q 3153 47 2828 -22 
Q 2503 -91 2169 -91 
Q 1331 -91 842 396 
Q 353 884 353 1716 
Q 353 2575 817 3079 
Q 1281 3584 2069 3584 
Q 2775 3584 3186 3129 
Q 3597 2675 3597 1894 
z
M 3022 2063 
Q 3016 2534 2758 2815 
Q 2500 3097 2075 3097 
Q 1594 3097 1305 2825 
Q 1016 2553 972 2059 
L 3022 2063 
z
" id="DejaVuSans-65" transform="scale(0.015625)"/>
       <path d="M 2906 2969 
L 2906 4863 
L 3481 4863 
L 3481 0 
L 2906 0 
L 2906 525 
Q 2725 213 2448 61 
Q 2172 -91 1784 -91 
Q 1150 -91 751 415 
Q 353 922 353 1747 
Q 353 2572 751 3078 
Q 1150 3584 1784 3584 
Q 2172 3584 2448 3432 
Q 2725 3281 2906 2969 
z
M 947 1747 
Q 947 1113 1208 752 
Q 1469 391 1925 391 
Q 2381 391 2643 752 
Q 2906 1113 2906 1747 
Q 2906 2381 2643 2742 
Q 2381 3103 1925 3103 
Q 1469 3103 1208 2742 
Q 947 2381 947 1747 
z
" id="DejaVuSans-64" transform="scale(0.015625)"/>
       <path d="M 603 3500 
L 1178 3500 
L 1178 0 
L 603 0 
L 603 3500 
z
M 603 4863 
L 1178 4863 
L 1178 4134 
L 603 4134 
L 603 4863 
z
" id="DejaVuSans-69" transform="scale(0.015625)"/>
       <path d="M 3116 1747 
Q 3116 2381 2855 2742 
Q 2594 3103 2138 3103 
Q 1681 3103 1420 2742 
Q 1159 2381 1159 1747 
Q 1159 1113 1420 752 
Q 1681 391 2138 391 
Q 2594 391 2855 752 
Q 3116 1113 3116 1747 
z
M 1159 2969 
Q 1341 3281 1617 3432 
Q 1894 3584 2278 3584 
Q 2916 3584 3314 3078 
Q 3713 2572 3713 1747 
Q 3713 922 3314 415 
Q 2916 -91 2278 -91 
Q 1894 -91 1617 61 
Q 1341 213 1159 525 
L 1159 0 
L 581 0 
L 581 4863 
L 1159 4863 
L 1159 2969 
z
" id="DejaVuSans-62" transform="scale(0.015625)"/>
       <path d="M 603 4863 
L 1178 4863 
L 1178 0 
L 603 0 
L 603 4863 
z
" id="DejaVuSans-6c" transform="scale(0.015625)"/>
       <path d="M 1172 4494 
L 1172 3500 
L 2356 3500 
L 2356 3053 
L 1172 3053 
L 1172 1153 
Q 1172 725 1289 603 
Q 1406 481 1766 481 
L 2356 481 
L 2356 0 
L 1766 0 
Q 1100 0 847 248 
Q 594 497 594 1153 
L 594 3053 
L 172 3053 
L 172 3500 
L 594 3500 
L 594 4494 
L 1172 4494 
z
" id="DejaVuSans-74" transform="scale(0.015625)"/>
       <path d="M 2059 -325 
Q 1816 -950 1584 -1140 
Q 1353 -1331 966 -1331 
L 506 -1331 
L 506 -850 
L 844 -850 
Q 1081 -850 1212 -737 
Q 1344 -625 1503 -206 
L 1606 56 
L 191 3500 
L 800 3500 
L 1894 763 
L 2988 3500 
L 3597 3500 
L 2059 -325 
z
" id="DejaVuSans-79" transform="scale(0.015625)"/>
       <path id="DejaVuSans-20" transform="scale(0.015625)"/>
       <path d="M 3513 2113 
L 3513 0 
L 2938 0 
L 2938 2094 
Q 2938 2591 2744 2837 
Q 2550 3084 2163 3084 
Q 1697 3084 1428 2787 
Q 1159 2491 1159 1978 
L 1159 0 
L 581 0 
L 581 3500 
L 1159 3500 
L 1159 2956 
Q 1366 3272 1645 3428 
Q 1925 3584 2291 3584 
Q 2894 3584 3203 3211 
Q 3513 2838 3513 2113 
z
" id="DejaVuSans-6e" transform="scale(0.015625)"/>
       <path d="M 3513 3500 
L 2247 1797 
L 3578 0 
L 2900 0 
L 1881 1375 
L 863 0 
L 184 0 
L 1544 1831 
L 300 3500 
L 978 3500 
L 1906 2253 
L 2834 3500 
L 3513 3500 
z
" id="DejaVuSans-78" transform="scale(0.015625)"/>
      </defs>
      <use xlink:href="#DejaVuSans-43"/>
      <use x="69.824219" xlink:href="#DejaVuSans-72"/>
      <use x="108.6875" xlink:href="#DejaVuSans-65"/>
      <use x="170.210938" xlink:href="#DejaVuSans-64"/>
      <use x="233.6875" xlink:href="#DejaVuSans-69"/>
      <use x="261.470703" xlink:href="#DejaVuSans-62"/>
      <use x="324.947266" xlink:href="#DejaVuSans-69"/>
      <use x="352.730469" xlink:href="#DejaVuSans-6c"/>
      <use x="380.513672" xlink:href="#DejaVuSans-69"/>
      <use x="408.296875" xlink:href="#DejaVuSans-74"/>
      <use x="447.505859" xlink:href="#DejaVuSans-79"/>
      <use x="506.685547" xlink:href="#DejaVuSans-20"/>
      <use x="538.472656" xlink:href="#DejaVuSans-69"/>
      <use x="566.255859" xlink:href="#DejaVuSans-6e"/>
      <use x="629.634766" xlink:href="#DejaVuSans-64"/>
      <use x="693.111328" xlink:href="#DejaVuSans-65"/>
      <use x="752.884766" xlink:href="#DejaVuSans-78"/>
     </g>
    </g>
   </g>
   <g id="matplotlib.axis_2">
    <g id="ytick_1">
     <g id="line2d_7">
      <defs>
       <path d="M 0 0 
L -3.5 0 
" id="m7b3ed3d370" style="stroke:#000000;stroke-width:0.8;"/>
      </defs>
      <g>
       <use style="stroke:#000000;stroke-width:0.8;" x="47.81" xlink:href="#m7b3ed3d370" y="303.64"/>
      </g>
     </g>
     <g id="text_8">
      <!-- 0.0 -->
      <g transform="translate(24.906875 307.439219)scale(0.1 -0.1)">
       <use xlink:href="#DejaVuSans-30"/>
       <use x="63.623047" xlink:href="#DejaVuSans-2e"/>
       <use x="95.410156" xlink:href="#DejaVuSans-30"/>
      </g>
     </g>
    </g>
    <g id="ytick_2">
     <g id="line2d_8">
      <g>
       <use style="stroke:#000000;stroke-width:0.8;" x="47.81" xlink:href="#m7b3ed3d370" y="245.715221"/>
      </g>
     </g>
     <g id="text_9">
      <!-- 0.5 -->
      <g transform="translate(24.906875 249.51444)scale(0.1 -0.1)">
       <defs>
        <path d="M 691 4666 
L 3169 4666 
L 3169 4134 
L 1269 4134 
L 1269 2991 
Q 1406 3038 1543 3061 
Q 1681 3084 1819 3084 
Q 2600 3084 3056 2656 
Q 3513 2228 3513 1497 
Q 3513 744 3044 326 
Q 2575 -91 1722 -91 
Q 1428 -91 1123 -41 
Q 819 9 494 109 
L 494 744 
Q 775 591 1075 516 
Q 1375 441 1709 441 
Q 2250 441 2565 725 
Q 2881 1009 2881 1497 
Q 2881 1984 2565 2268 
Q 2250 2553 1709 2553 
Q 1456 2553 1204 2497 
Q 953 2441 691 2322 
L 691 4666 
z
" id="DejaVuSans-35" transform="scale(0.015625)"/>
       </defs>
       <use xlink:href="#DejaVuSans-30"/>
       <use x="63.623047" xlink:href="#DejaVuSans-2e"/>
       <use x="95.410156" xlink:href="#DejaVuSans-35"/>
      </g>
     </g>
    </g>
    <g id="ytick_3">
     <g id="line2d_9">
      <g>
       <use style="stroke:#000000;stroke-width:0.8;" x="47.81" xlink:href="#m7b3ed3d370" y="187.790442"/>
      </g>
     </g>
     <g id="text_10">
      <!-- 1.0 -->
      <g transform="translate(24.906875 191.589661)scale(0.1 -0.1)">
       <use xlink:href="#DejaVuSans-31"/>
       <use x="63.623047" xlink:href="#DejaVuSans-2e"/>
       <use x="95.410156" xlink:href="#DejaVuSans-30"/>
      </g>
     </g>
    </g>
    <g id="ytick_4">
     <g id="line2d_10">
      <g>
       <use style="stroke:#000000;stroke-width:0.8;" x="47.81" xlink:href="#m7b3ed3d370" y="129.865663"/>
      </g>
     </g>
     <g id="text_11">
      <!-- 1.5 -->
      <g transform="translate(24.906875 133.664882)scale(0.1 -0.1)">
       <use xlink:href="#DejaVuSans-31"/>
       <use x="63.623047" xlink:href="#DejaVuSans-2e"/>
       <use x="95.410156" xlink:href="#DejaVuSans-35"/>
      </g>
     </g>
    </g>
    <g id="ytick_5">
     <g id="line2d_11">
      <g>
       <use style="stroke:#000000;stroke-width:0.8;" x="47.81" xlink:href="#m7b3ed3d370" y="71.940884"/>
      </g>
     </g>
     <g id="text_12">
      <!-- 2.0 -->
      <g transform="translate(24.906875 75.740103)scale(0.1 -0.1)">
       <use xlink:href="#DejaVuSans-32"/>
       <use x="63.623047" xlink:href="#DejaVuSans-2e"/>
       <use x="95.410156" xlink:href="#DejaVuSans-30"/>
      </g>
     </g>
    </g>
    <g id="text_13">
     <!-- Density -->
     <g transform="translate(18.827187 189.812594)rotate(-90)scale(0.1 -0.1)">
      <defs>
       <path d="M 1259 4147 
L 1259 519 
L 2022 519 
Q 2988 519 3436 956 
Q 3884 1394 3884 2338 
Q 3884 3275 3436 3711 
Q 2988 4147 2022 4147 
L 1259 4147 
z
M 628 4666 
L 1925 4666 
Q 3281 4666 3915 4102 
Q 4550 3538 4550 2338 
Q 4550 1131 3912 565 
Q 3275 0 1925 0 
L 628 0 
L 628 4666 
z
" id="DejaVuSans-44" transform="scale(0.015625)"/>
       <path d="M 2834 3397 
L 2834 2853 
Q 2591 2978 2328 3040 
Q 2066 3103 1784 3103 
Q 1356 3103 1142 2972 
Q 928 2841 928 2578 
Q 928 2378 1081 2264 
Q 1234 2150 1697 2047 
L 1894 2003 
Q 2506 1872 2764 1633 
Q 3022 1394 3022 966 
Q 3022 478 2636 193 
Q 2250 -91 1575 -91 
Q 1294 -91 989 -36 
Q 684 19 347 128 
L 347 722 
Q 666 556 975 473 
Q 1284 391 1588 391 
Q 1994 391 2212 530 
Q 2431 669 2431 922 
Q 2431 1156 2273 1281 
Q 2116 1406 1581 1522 
L 1381 1569 
Q 847 1681 609 1914 
Q 372 2147 372 2553 
Q 372 3047 722 3315 
Q 1072 3584 1716 3584 
Q 2034 3584 2315 3537 
Q 2597 3491 2834 3397 
z
" id="DejaVuSans-73" transform="scale(0.015625)"/>
      </defs>
      <use xlink:href="#DejaVuSans-44"/>
      <use x="77.001953" xlink:href="#DejaVuSans-65"/>
      <use x="138.525391" xlink:href="#DejaVuSans-6e"/>
      <use x="201.904297" xlink:href="#DejaVuSans-73"/>
      <use x="254.003906" xlink:href="#DejaVuSans-69"/>
      <use x="281.787109" xlink:href="#DejaVuSans-74"/>
      <use x="320.996094" xlink:href="#DejaVuSans-79"/>
     </g>
    </g>
   </g>
   <g id="patch_3">
    <path d="M 47.81 303.64 
L 47.81 37.968 
" style="fill:none;stroke:#000000;stroke-linecap:square;stroke-linejoin:miter;stroke-width:0.8;"/>
   </g>
   <g id="patch_4">
    <path d="M 442.035 303.64 
L 442.035 37.968 
" style="fill:none;stroke:#000000;stroke-linecap:square;stroke-linejoin:miter;stroke-width:0.8;"/>
   </g>
   <g id="patch_5">
    <path d="M 47.81 303.64 
L 442.035 303.64 
" style="fill:none;stroke:#000000;stroke-linecap:square;stroke-linejoin:miter;stroke-width:0.8;"/>
   </g>
   <g id="patch_6">
    <path d="M 47.81 37.968 
L 442.035 37.968 
" style="fill:none;stroke:#000000;stroke-linecap:square;stroke-linejoin:miter;stroke-width:0.8;"/>
   </g>
   <g id="text_14">
    <!-- Credibility index consensus vs non consensus  -->
    <g transform="translate(105.81625 18.530625)scale(0.12 -0.12)">
     <defs>
      <path d="M 3122 3366 
L 3122 2828 
Q 2878 2963 2633 3030 
Q 2388 3097 2138 3097 
Q 1578 3097 1268 2742 
Q 959 2388 959 1747 
Q 959 1106 1268 751 
Q 1578 397 2138 397 
Q 2388 397 2633 464 
Q 2878 531 3122 666 
L 3122 134 
Q 2881 22 2623 -34 
Q 2366 -91 2075 -91 
Q 1284 -91 818 406 
Q 353 903 353 1747 
Q 353 2603 823 3093 
Q 1294 3584 2113 3584 
Q 2378 3584 2631 3529 
Q 2884 3475 3122 3366 
z
" id="DejaVuSans-63" transform="scale(0.015625)"/>
      <path d="M 1959 3097 
Q 1497 3097 1228 2736 
Q 959 2375 959 1747 
Q 959 1119 1226 758 
Q 1494 397 1959 397 
Q 2419 397 2687 759 
Q 2956 1122 2956 1747 
Q 2956 2369 2687 2733 
Q 2419 3097 1959 3097 
z
M 1959 3584 
Q 2709 3584 3137 3096 
Q 3566 2609 3566 1747 
Q 3566 888 3137 398 
Q 2709 -91 1959 -91 
Q 1206 -91 779 398 
Q 353 888 353 1747 
Q 353 2609 779 3096 
Q 1206 3584 1959 3584 
z
" id="DejaVuSans-6f" transform="scale(0.015625)"/>
      <path d="M 544 1381 
L 544 3500 
L 1119 3500 
L 1119 1403 
Q 1119 906 1312 657 
Q 1506 409 1894 409 
Q 2359 409 2629 706 
Q 2900 1003 2900 1516 
L 2900 3500 
L 3475 3500 
L 3475 0 
L 2900 0 
L 2900 538 
Q 2691 219 2414 64 
Q 2138 -91 1772 -91 
Q 1169 -91 856 284 
Q 544 659 544 1381 
z
M 1991 3584 
L 1991 3584 
z
" id="DejaVuSans-75" transform="scale(0.015625)"/>
      <path d="M 191 3500 
L 800 3500 
L 1894 563 
L 2988 3500 
L 3597 3500 
L 2284 0 
L 1503 0 
L 191 3500 
z
" id="DejaVuSans-76" transform="scale(0.015625)"/>
     </defs>
     <use xlink:href="#DejaVuSans-43"/>
     <use x="69.824219" xlink:href="#DejaVuSans-72"/>
     <use x="108.6875" xlink:href="#DejaVuSans-65"/>
     <use x="170.210938" xlink:href="#DejaVuSans-64"/>
     <use x="233.6875" xlink:href="#DejaVuSans-69"/>
     <use x="261.470703" xlink:href="#DejaVuSans-62"/>
     <use x="324.947266" xlink:href="#DejaVuSans-69"/>
     <use x="352.730469" xlink:href="#DejaVuSans-6c"/>
     <use x="380.513672" xlink:href="#DejaVuSans-69"/>
     <use x="408.296875" xlink:href="#DejaVuSans-74"/>
     <use x="447.505859" xlink:href="#DejaVuSans-79"/>
     <use x="506.685547" xlink:href="#DejaVuSans-20"/>
     <use x="538.472656" xlink:href="#DejaVuSans-69"/>
     <use x="566.255859" xlink:href="#DejaVuSans-6e"/>
     <use x="629.634766" xlink:href="#DejaVuSans-64"/>
     <use x="693.111328" xlink:href="#DejaVuSans-65"/>
     <use x="752.884766" xlink:href="#DejaVuSans-78"/>
     <use x="812.064453" xlink:href="#DejaVuSans-20"/>
     <use x="843.851562" xlink:href="#DejaVuSans-63"/>
     <use x="898.832031" xlink:href="#DejaVuSans-6f"/>
     <use x="960.013672" xlink:href="#DejaVuSans-6e"/>
     <use x="1023.392578" xlink:href="#DejaVuSans-73"/>
     <use x="1075.492188" xlink:href="#DejaVuSans-65"/>
     <use x="1137.015625" xlink:href="#DejaVuSans-6e"/>
     <use x="1200.394531" xlink:href="#DejaVuSans-73"/>
     <use x="1252.494141" xlink:href="#DejaVuSans-75"/>
     <use x="1315.873047" xlink:href="#DejaVuSans-73"/>
     <use x="1367.972656" xlink:href="#DejaVuSans-20"/>
     <use x="1399.759766" xlink:href="#DejaVuSans-76"/>
     <use x="1458.939453" xlink:href="#DejaVuSans-73"/>
     <use x="1511.039062" xlink:href="#DejaVuSans-20"/>
     <use x="1542.826172" xlink:href="#DejaVuSans-6e"/>
     <use x="1606.205078" xlink:href="#DejaVuSans-6f"/>
     <use x="1667.386719" xlink:href="#DejaVuSans-6e"/>
     <use x="1730.765625" xlink:href="#DejaVuSans-20"/>
     <use x="1762.552734" xlink:href="#DejaVuSans-63"/>
     <use x="1817.533203" xlink:href="#DejaVuSans-6f"/>
     <use x="1878.714844" xlink:href="#DejaVuSans-6e"/>
     <use x="1942.09375" xlink:href="#DejaVuSans-73"/>
     <use x="1994.193359" xlink:href="#DejaVuSans-65"/>
     <use x="2055.716797" xlink:href="#DejaVuSans-6e"/>
     <use x="2119.095703" xlink:href="#DejaVuSans-73"/>
     <use x="2171.195312" xlink:href="#DejaVuSans-75"/>
     <use x="2234.574219" xlink:href="#DejaVuSans-73"/>
     <use x="2286.673828" xlink:href="#DejaVuSans-20"/>
    </g>
    <!-- Set s2 -->
    <g transform="translate(226.219375 31.968)scale(0.12 -0.12)">
     <defs>
      <path d="M 3425 4513 
L 3425 3897 
Q 3066 4069 2747 4153 
Q 2428 4238 2131 4238 
Q 1616 4238 1336 4038 
Q 1056 3838 1056 3469 
Q 1056 3159 1242 3001 
Q 1428 2844 1947 2747 
L 2328 2669 
Q 3034 2534 3370 2195 
Q 3706 1856 3706 1288 
Q 3706 609 3251 259 
Q 2797 -91 1919 -91 
Q 1588 -91 1214 -16 
Q 841 59 441 206 
L 441 856 
Q 825 641 1194 531 
Q 1563 422 1919 422 
Q 2459 422 2753 634 
Q 3047 847 3047 1241 
Q 3047 1584 2836 1778 
Q 2625 1972 2144 2069 
L 1759 2144 
Q 1053 2284 737 2584 
Q 422 2884 422 3419 
Q 422 4038 858 4394 
Q 1294 4750 2059 4750 
Q 2388 4750 2728 4690 
Q 3069 4631 3425 4513 
z
" id="DejaVuSans-53" transform="scale(0.015625)"/>
     </defs>
     <use xlink:href="#DejaVuSans-53"/>
     <use x="63.476562" xlink:href="#DejaVuSans-65"/>
     <use x="125" xlink:href="#DejaVuSans-74"/>
     <use x="164.208984" xlink:href="#DejaVuSans-20"/>
     <use x="195.996094" xlink:href="#DejaVuSans-73"/>
     <use x="248.095703" xlink:href="#DejaVuSans-32"/>
    </g>
   </g>
   <g id="legend_1">
    <g id="patch_7">
     <path d="M 54.81 97.719875 
L 225.352188 97.719875 
Q 227.352188 97.719875 227.352188 95.719875 
L 227.352188 44.968 
Q 227.352188 42.968 225.352188 42.968 
L 54.81 42.968 
Q 52.81 42.968 52.81 44.968 
L 52.81 95.719875 
Q 52.81 97.719875 54.81 97.719875 
z
" style="fill:#ffffff;opacity:0.8;stroke:#cccccc;stroke-linejoin:miter;"/>
    </g>
    <g id="patch_8">
     <path d="M 56.81 61.205188 
L 76.81 61.205188 
L 76.81 54.205188 
L 56.81 54.205188 
z
" style="fill:#1f77b4;fill-opacity:0.4;stroke:#1f77b4;stroke-linejoin:miter;"/>
    </g>
    <g id="text_15">
     <!-- Correlation higher than 0  -->
     <g transform="translate(84.81 54.566438)scale(0.1 -0.1)">
      <defs>
       <path d="M 2194 1759 
Q 1497 1759 1228 1600 
Q 959 1441 959 1056 
Q 959 750 1161 570 
Q 1363 391 1709 391 
Q 2188 391 2477 730 
Q 2766 1069 2766 1631 
L 2766 1759 
L 2194 1759 
z
M 3341 1997 
L 3341 0 
L 2766 0 
L 2766 531 
Q 2569 213 2275 61 
Q 1981 -91 1556 -91 
Q 1019 -91 701 211 
Q 384 513 384 1019 
Q 384 1609 779 1909 
Q 1175 2209 1959 2209 
L 2766 2209 
L 2766 2266 
Q 2766 2663 2505 2880 
Q 2244 3097 1772 3097 
Q 1472 3097 1187 3025 
Q 903 2953 641 2809 
L 641 3341 
Q 956 3463 1253 3523 
Q 1550 3584 1831 3584 
Q 2591 3584 2966 3190 
Q 3341 2797 3341 1997 
z
" id="DejaVuSans-61" transform="scale(0.015625)"/>
       <path d="M 3513 2113 
L 3513 0 
L 2938 0 
L 2938 2094 
Q 2938 2591 2744 2837 
Q 2550 3084 2163 3084 
Q 1697 3084 1428 2787 
Q 1159 2491 1159 1978 
L 1159 0 
L 581 0 
L 581 4863 
L 1159 4863 
L 1159 2956 
Q 1366 3272 1645 3428 
Q 1925 3584 2291 3584 
Q 2894 3584 3203 3211 
Q 3513 2838 3513 2113 
z
" id="DejaVuSans-68" transform="scale(0.015625)"/>
       <path d="M 2906 1791 
Q 2906 2416 2648 2759 
Q 2391 3103 1925 3103 
Q 1463 3103 1205 2759 
Q 947 2416 947 1791 
Q 947 1169 1205 825 
Q 1463 481 1925 481 
Q 2391 481 2648 825 
Q 2906 1169 2906 1791 
z
M 3481 434 
Q 3481 -459 3084 -895 
Q 2688 -1331 1869 -1331 
Q 1566 -1331 1297 -1286 
Q 1028 -1241 775 -1147 
L 775 -588 
Q 1028 -725 1275 -790 
Q 1522 -856 1778 -856 
Q 2344 -856 2625 -561 
Q 2906 -266 2906 331 
L 2906 616 
Q 2728 306 2450 153 
Q 2172 0 1784 0 
Q 1141 0 747 490 
Q 353 981 353 1791 
Q 353 2603 747 3093 
Q 1141 3584 1784 3584 
Q 2172 3584 2450 3431 
Q 2728 3278 2906 2969 
L 2906 3500 
L 3481 3500 
L 3481 434 
z
" id="DejaVuSans-67" transform="scale(0.015625)"/>
      </defs>
      <use xlink:href="#DejaVuSans-43"/>
      <use x="69.824219" xlink:href="#DejaVuSans-6f"/>
      <use x="131.005859" xlink:href="#DejaVuSans-72"/>
      <use x="170.369141" xlink:href="#DejaVuSans-72"/>
      <use x="209.232422" xlink:href="#DejaVuSans-65"/>
      <use x="270.755859" xlink:href="#DejaVuSans-6c"/>
      <use x="298.539062" xlink:href="#DejaVuSans-61"/>
      <use x="359.818359" xlink:href="#DejaVuSans-74"/>
      <use x="399.027344" xlink:href="#DejaVuSans-69"/>
      <use x="426.810547" xlink:href="#DejaVuSans-6f"/>
      <use x="487.992188" xlink:href="#DejaVuSans-6e"/>
      <use x="551.371094" xlink:href="#DejaVuSans-20"/>
      <use x="583.158203" xlink:href="#DejaVuSans-68"/>
      <use x="646.537109" xlink:href="#DejaVuSans-69"/>
      <use x="674.320312" xlink:href="#DejaVuSans-67"/>
      <use x="737.796875" xlink:href="#DejaVuSans-68"/>
      <use x="801.175781" xlink:href="#DejaVuSans-65"/>
      <use x="862.699219" xlink:href="#DejaVuSans-72"/>
      <use x="903.8125" xlink:href="#DejaVuSans-20"/>
      <use x="935.599609" xlink:href="#DejaVuSans-74"/>
      <use x="974.808594" xlink:href="#DejaVuSans-68"/>
      <use x="1038.1875" xlink:href="#DejaVuSans-61"/>
      <use x="1099.466797" xlink:href="#DejaVuSans-6e"/>
      <use x="1162.845703" xlink:href="#DejaVuSans-20"/>
      <use x="1194.632812" xlink:href="#DejaVuSans-30"/>
      <use x="1258.255859" xlink:href="#DejaVuSans-20"/>
     </g>
     <!-- n=353 -->
     <g transform="translate(84.81 65.76425)scale(0.1 -0.1)">
      <defs>
       <path d="M 678 2906 
L 4684 2906 
L 4684 2381 
L 678 2381 
L 678 2906 
z
M 678 1631 
L 4684 1631 
L 4684 1100 
L 678 1100 
L 678 1631 
z
" id="DejaVuSans-3d" transform="scale(0.015625)"/>
       <path d="M 2597 2516 
Q 3050 2419 3304 2112 
Q 3559 1806 3559 1356 
Q 3559 666 3084 287 
Q 2609 -91 1734 -91 
Q 1441 -91 1130 -33 
Q 819 25 488 141 
L 488 750 
Q 750 597 1062 519 
Q 1375 441 1716 441 
Q 2309 441 2620 675 
Q 2931 909 2931 1356 
Q 2931 1769 2642 2001 
Q 2353 2234 1838 2234 
L 1294 2234 
L 1294 2753 
L 1863 2753 
Q 2328 2753 2575 2939 
Q 2822 3125 2822 3475 
Q 2822 3834 2567 4026 
Q 2313 4219 1838 4219 
Q 1578 4219 1281 4162 
Q 984 4106 628 3988 
L 628 4550 
Q 988 4650 1302 4700 
Q 1616 4750 1894 4750 
Q 2613 4750 3031 4423 
Q 3450 4097 3450 3541 
Q 3450 3153 3228 2886 
Q 3006 2619 2597 2516 
z
" id="DejaVuSans-33" transform="scale(0.015625)"/>
      </defs>
      <use xlink:href="#DejaVuSans-6e"/>
      <use x="63.378906" xlink:href="#DejaVuSans-3d"/>
      <use x="147.167969" xlink:href="#DejaVuSans-33"/>
      <use x="210.791016" xlink:href="#DejaVuSans-35"/>
      <use x="274.414062" xlink:href="#DejaVuSans-33"/>
     </g>
    </g>
    <g id="patch_9">
     <path d="M 56.81 87.081125 
L 76.81 87.081125 
L 76.81 80.081125 
L 56.81 80.081125 
z
" style="fill:#ff7f0e;fill-opacity:0.4;stroke:#ff7f0e;stroke-linejoin:miter;"/>
    </g>
    <g id="text_16">
     <!-- Correlation higher than 0.8  -->
     <g transform="translate(84.81 80.442375)scale(0.1 -0.1)">
      <use xlink:href="#DejaVuSans-43"/>
      <use x="69.824219" xlink:href="#DejaVuSans-6f"/>
      <use x="131.005859" xlink:href="#DejaVuSans-72"/>
      <use x="170.369141" xlink:href="#DejaVuSans-72"/>
      <use x="209.232422" xlink:href="#DejaVuSans-65"/>
      <use x="270.755859" xlink:href="#DejaVuSans-6c"/>
      <use x="298.539062" xlink:href="#DejaVuSans-61"/>
      <use x="359.818359" xlink:href="#DejaVuSans-74"/>
      <use x="399.027344" xlink:href="#DejaVuSans-69"/>
      <use x="426.810547" xlink:href="#DejaVuSans-6f"/>
      <use x="487.992188" xlink:href="#DejaVuSans-6e"/>
      <use x="551.371094" xlink:href="#DejaVuSans-20"/>
      <use x="583.158203" xlink:href="#DejaVuSans-68"/>
      <use x="646.537109" xlink:href="#DejaVuSans-69"/>
      <use x="674.320312" xlink:href="#DejaVuSans-67"/>
      <use x="737.796875" xlink:href="#DejaVuSans-68"/>
      <use x="801.175781" xlink:href="#DejaVuSans-65"/>
      <use x="862.699219" xlink:href="#DejaVuSans-72"/>
      <use x="903.8125" xlink:href="#DejaVuSans-20"/>
      <use x="935.599609" xlink:href="#DejaVuSans-74"/>
      <use x="974.808594" xlink:href="#DejaVuSans-68"/>
      <use x="1038.1875" xlink:href="#DejaVuSans-61"/>
      <use x="1099.466797" xlink:href="#DejaVuSans-6e"/>
      <use x="1162.845703" xlink:href="#DejaVuSans-20"/>
      <use x="1194.632812" xlink:href="#DejaVuSans-30"/>
      <use x="1258.255859" xlink:href="#DejaVuSans-2e"/>
      <use x="1290.042969" xlink:href="#DejaVuSans-38"/>
      <use x="1353.666016" xlink:href="#DejaVuSans-20"/>
     </g>
     <!-- n=3 -->
     <g transform="translate(84.81 91.640187)scale(0.1 -0.1)">
      <use xlink:href="#DejaVuSans-6e"/>
      <use x="63.378906" xlink:href="#DejaVuSans-3d"/>
      <use x="147.167969" xlink:href="#DejaVuSans-33"/>
     </g>
    </g>
   </g>
  </g>
 </g>
 <defs>
  <clipPath id="p2a782439f6">
   <rect height="265.672" width="394.225" x="47.81" y="37.968"/>
  </clipPath>
 </defs>
</svg>
