<?xml version="1.0" encoding="utf-8" standalone="no"?>
<!DOCTYPE svg PUBLIC "-//W3C//DTD SVG 1.1//EN"
  "http://www.w3.org/Graphics/SVG/1.1/DTD/svg11.dtd">
<svg height="345.6pt" version="1.1" viewBox="0 0 460.8 345.6" width="460.8pt" xmlns="http://www.w3.org/2000/svg" xmlns:xlink="http://www.w3.org/1999/xlink">
 <metadata>
  <rdf:RDF xmlns:cc="http://creativecommons.org/ns#" xmlns:dc="http://purl.org/dc/elements/1.1/" xmlns:rdf="http://www.w3.org/1999/02/22-rdf-syntax-ns#">
   <cc:Work>
    <dc:type rdf:resource="http://purl.org/dc/dcmitype/StillImage"/>
    <dc:date>2021-12-06T14:54:24.581744</dc:date>
    <dc:format>image/svg+xml</dc:format>
    <dc:creator>
     <cc:Agent>
      <dc:title>Matplotlib v3.4.3, https://matplotlib.org/</dc:title>
     </cc:Agent>
    </dc:creator>
   </cc:Work>
  </rdf:RDF>
 </metadata>
 <defs>
  <style type="text/css">*{stroke-linecap:butt;stroke-linejoin:round;}</style>
 </defs>
 <g id="figure_1">
  <g id="patch_1">
   <path d="M 0 345.6 
L 460.8 345.6 
L 460.8 0 
L 0 0 
z
" style="fill:#ffffff;"/>
  </g>
  <g id="axes_1">
   <g id="patch_2">
    <path d="M 38.27 303.64 
L 450 303.64 
L 450 10.8 
L 38.27 10.8 
z
" style="fill:#ffffff;"/>
   </g>
   <g id="matplotlib.axis_1">
    <g id="xtick_1">
     <g id="line2d_1">
      <defs>
       <path d="M 0 0 
L 0 3.5 
" id="m5eae9ce7aa" style="stroke:#000000;stroke-width:0.8;"/>
      </defs>
      <g>
       <use style="stroke:#000000;stroke-width:0.8;" x="56.985" xlink:href="#m5eae9ce7aa" y="303.64"/>
      </g>
     </g>
     <g id="text_1">
      <!-- 0.0 -->
      <g transform="translate(49.033437 318.238437)scale(0.1 -0.1)">
       <defs>
        <path d="M 2034 4250 
Q 1547 4250 1301 3770 
Q 1056 3291 1056 2328 
Q 1056 1369 1301 889 
Q 1547 409 2034 409 
Q 2525 409 2770 889 
Q 3016 1369 3016 2328 
Q 3016 3291 2770 3770 
Q 2525 4250 2034 4250 
z
M 2034 4750 
Q 2819 4750 3233 4129 
Q 3647 3509 3647 2328 
Q 3647 1150 3233 529 
Q 2819 -91 2034 -91 
Q 1250 -91 836 529 
Q 422 1150 422 2328 
Q 422 3509 836 4129 
Q 1250 4750 2034 4750 
z
" id="DejaVuSans-30" transform="scale(0.015625)"/>
        <path d="M 684 794 
L 1344 794 
L 1344 0 
L 684 0 
L 684 794 
z
" id="DejaVuSans-2e" transform="scale(0.015625)"/>
       </defs>
       <use xlink:href="#DejaVuSans-30"/>
       <use x="63.623047" xlink:href="#DejaVuSans-2e"/>
       <use x="95.410156" xlink:href="#DejaVuSans-30"/>
      </g>
     </g>
    </g>
    <g id="xtick_2">
     <g id="line2d_2">
      <g>
       <use style="stroke:#000000;stroke-width:0.8;" x="131.845" xlink:href="#m5eae9ce7aa" y="303.64"/>
      </g>
     </g>
     <g id="text_2">
      <!-- 0.2 -->
      <g transform="translate(123.893438 318.238437)scale(0.1 -0.1)">
       <defs>
        <path d="M 1228 531 
L 3431 531 
L 3431 0 
L 469 0 
L 469 531 
Q 828 903 1448 1529 
Q 2069 2156 2228 2338 
Q 2531 2678 2651 2914 
Q 2772 3150 2772 3378 
Q 2772 3750 2511 3984 
Q 2250 4219 1831 4219 
Q 1534 4219 1204 4116 
Q 875 4013 500 3803 
L 500 4441 
Q 881 4594 1212 4672 
Q 1544 4750 1819 4750 
Q 2544 4750 2975 4387 
Q 3406 4025 3406 3419 
Q 3406 3131 3298 2873 
Q 3191 2616 2906 2266 
Q 2828 2175 2409 1742 
Q 1991 1309 1228 531 
z
" id="DejaVuSans-32" transform="scale(0.015625)"/>
       </defs>
       <use xlink:href="#DejaVuSans-30"/>
       <use x="63.623047" xlink:href="#DejaVuSans-2e"/>
       <use x="95.410156" xlink:href="#DejaVuSans-32"/>
      </g>
     </g>
    </g>
    <g id="xtick_3">
     <g id="line2d_3">
      <g>
       <use style="stroke:#000000;stroke-width:0.8;" x="206.705" xlink:href="#m5eae9ce7aa" y="303.64"/>
      </g>
     </g>
     <g id="text_3">
      <!-- 0.4 -->
      <g transform="translate(198.753438 318.238437)scale(0.1 -0.1)">
       <defs>
        <path d="M 2419 4116 
L 825 1625 
L 2419 1625 
L 2419 4116 
z
M 2253 4666 
L 3047 4666 
L 3047 1625 
L 3713 1625 
L 3713 1100 
L 3047 1100 
L 3047 0 
L 2419 0 
L 2419 1100 
L 313 1100 
L 313 1709 
L 2253 4666 
z
" id="DejaVuSans-34" transform="scale(0.015625)"/>
       </defs>
       <use xlink:href="#DejaVuSans-30"/>
       <use x="63.623047" xlink:href="#DejaVuSans-2e"/>
       <use x="95.410156" xlink:href="#DejaVuSans-34"/>
      </g>
     </g>
    </g>
    <g id="xtick_4">
     <g id="line2d_4">
      <g>
       <use style="stroke:#000000;stroke-width:0.8;" x="281.565" xlink:href="#m5eae9ce7aa" y="303.64"/>
      </g>
     </g>
     <g id="text_4">
      <!-- 0.6 -->
      <g transform="translate(273.613438 318.238437)scale(0.1 -0.1)">
       <defs>
        <path d="M 2113 2584 
Q 1688 2584 1439 2293 
Q 1191 2003 1191 1497 
Q 1191 994 1439 701 
Q 1688 409 2113 409 
Q 2538 409 2786 701 
Q 3034 994 3034 1497 
Q 3034 2003 2786 2293 
Q 2538 2584 2113 2584 
z
M 3366 4563 
L 3366 3988 
Q 3128 4100 2886 4159 
Q 2644 4219 2406 4219 
Q 1781 4219 1451 3797 
Q 1122 3375 1075 2522 
Q 1259 2794 1537 2939 
Q 1816 3084 2150 3084 
Q 2853 3084 3261 2657 
Q 3669 2231 3669 1497 
Q 3669 778 3244 343 
Q 2819 -91 2113 -91 
Q 1303 -91 875 529 
Q 447 1150 447 2328 
Q 447 3434 972 4092 
Q 1497 4750 2381 4750 
Q 2619 4750 2861 4703 
Q 3103 4656 3366 4563 
z
" id="DejaVuSans-36" transform="scale(0.015625)"/>
       </defs>
       <use xlink:href="#DejaVuSans-30"/>
       <use x="63.623047" xlink:href="#DejaVuSans-2e"/>
       <use x="95.410156" xlink:href="#DejaVuSans-36"/>
      </g>
     </g>
    </g>
    <g id="xtick_5">
     <g id="line2d_5">
      <g>
       <use style="stroke:#000000;stroke-width:0.8;" x="356.425" xlink:href="#m5eae9ce7aa" y="303.64"/>
      </g>
     </g>
     <g id="text_5">
      <!-- 0.8 -->
      <g transform="translate(348.473437 318.238437)scale(0.1 -0.1)">
       <defs>
        <path d="M 2034 2216 
Q 1584 2216 1326 1975 
Q 1069 1734 1069 1313 
Q 1069 891 1326 650 
Q 1584 409 2034 409 
Q 2484 409 2743 651 
Q 3003 894 3003 1313 
Q 3003 1734 2745 1975 
Q 2488 2216 2034 2216 
z
M 1403 2484 
Q 997 2584 770 2862 
Q 544 3141 544 3541 
Q 544 4100 942 4425 
Q 1341 4750 2034 4750 
Q 2731 4750 3128 4425 
Q 3525 4100 3525 3541 
Q 3525 3141 3298 2862 
Q 3072 2584 2669 2484 
Q 3125 2378 3379 2068 
Q 3634 1759 3634 1313 
Q 3634 634 3220 271 
Q 2806 -91 2034 -91 
Q 1263 -91 848 271 
Q 434 634 434 1313 
Q 434 1759 690 2068 
Q 947 2378 1403 2484 
z
M 1172 3481 
Q 1172 3119 1398 2916 
Q 1625 2713 2034 2713 
Q 2441 2713 2670 2916 
Q 2900 3119 2900 3481 
Q 2900 3844 2670 4047 
Q 2441 4250 2034 4250 
Q 1625 4250 1398 4047 
Q 1172 3844 1172 3481 
z
" id="DejaVuSans-38" transform="scale(0.015625)"/>
       </defs>
       <use xlink:href="#DejaVuSans-30"/>
       <use x="63.623047" xlink:href="#DejaVuSans-2e"/>
       <use x="95.410156" xlink:href="#DejaVuSans-38"/>
      </g>
     </g>
    </g>
    <g id="xtick_6">
     <g id="line2d_6">
      <g>
       <use style="stroke:#000000;stroke-width:0.8;" x="431.285" xlink:href="#m5eae9ce7aa" y="303.64"/>
      </g>
     </g>
     <g id="text_6">
      <!-- 1.0 -->
      <g transform="translate(423.333438 318.238437)scale(0.1 -0.1)">
       <defs>
        <path d="M 794 531 
L 1825 531 
L 1825 4091 
L 703 3866 
L 703 4441 
L 1819 4666 
L 2450 4666 
L 2450 531 
L 3481 531 
L 3481 0 
L 794 0 
L 794 531 
z
" id="DejaVuSans-31" transform="scale(0.015625)"/>
       </defs>
       <use xlink:href="#DejaVuSans-31"/>
       <use x="63.623047" xlink:href="#DejaVuSans-2e"/>
       <use x="95.410156" xlink:href="#DejaVuSans-30"/>
      </g>
     </g>
    </g>
    <g id="text_7">
     <!-- Credibility index -->
     <g transform="translate(203.530313 331.916562)scale(0.1 -0.1)">
      <defs>
       <path d="M 4122 4306 
L 4122 3641 
Q 3803 3938 3442 4084 
Q 3081 4231 2675 4231 
Q 1875 4231 1450 3742 
Q 1025 3253 1025 2328 
Q 1025 1406 1450 917 
Q 1875 428 2675 428 
Q 3081 428 3442 575 
Q 3803 722 4122 1019 
L 4122 359 
Q 3791 134 3420 21 
Q 3050 -91 2638 -91 
Q 1578 -91 968 557 
Q 359 1206 359 2328 
Q 359 3453 968 4101 
Q 1578 4750 2638 4750 
Q 3056 4750 3426 4639 
Q 3797 4528 4122 4306 
z
" id="DejaVuSans-43" transform="scale(0.015625)"/>
       <path d="M 2631 2963 
Q 2534 3019 2420 3045 
Q 2306 3072 2169 3072 
Q 1681 3072 1420 2755 
Q 1159 2438 1159 1844 
L 1159 0 
L 581 0 
L 581 3500 
L 1159 3500 
L 1159 2956 
Q 1341 3275 1631 3429 
Q 1922 3584 2338 3584 
Q 2397 3584 2469 3576 
Q 2541 3569 2628 3553 
L 2631 2963 
z
" id="DejaVuSans-72" transform="scale(0.015625)"/>
       <path d="M 3597 1894 
L 3597 1613 
L 953 1613 
Q 991 1019 1311 708 
Q 1631 397 2203 397 
Q 2534 397 2845 478 
Q 3156 559 3463 722 
L 3463 178 
Q 3153 47 2828 -22 
Q 2503 -91 2169 -91 
Q 1331 -91 842 396 
Q 353 884 353 1716 
Q 353 2575 817 3079 
Q 1281 3584 2069 3584 
Q 2775 3584 3186 3129 
Q 3597 2675 3597 1894 
z
M 3022 2063 
Q 3016 2534 2758 2815 
Q 2500 3097 2075 3097 
Q 1594 3097 1305 2825 
Q 1016 2553 972 2059 
L 3022 2063 
z
" id="DejaVuSans-65" transform="scale(0.015625)"/>
       <path d="M 2906 2969 
L 2906 4863 
L 3481 4863 
L 3481 0 
L 2906 0 
L 2906 525 
Q 2725 213 2448 61 
Q 2172 -91 1784 -91 
Q 1150 -91 751 415 
Q 353 922 353 1747 
Q 353 2572 751 3078 
Q 1150 3584 1784 3584 
Q 2172 3584 2448 3432 
Q 2725 3281 2906 2969 
z
M 947 1747 
Q 947 1113 1208 752 
Q 1469 391 1925 391 
Q 2381 391 2643 752 
Q 2906 1113 2906 1747 
Q 2906 2381 2643 2742 
Q 2381 3103 1925 3103 
Q 1469 3103 1208 2742 
Q 947 2381 947 1747 
z
" id="DejaVuSans-64" transform="scale(0.015625)"/>
       <path d="M 603 3500 
L 1178 3500 
L 1178 0 
L 603 0 
L 603 3500 
z
M 603 4863 
L 1178 4863 
L 1178 4134 
L 603 4134 
L 603 4863 
z
" id="DejaVuSans-69" transform="scale(0.015625)"/>
       <path d="M 3116 1747 
Q 3116 2381 2855 2742 
Q 2594 3103 2138 3103 
Q 1681 3103 1420 2742 
Q 1159 2381 1159 1747 
Q 1159 1113 1420 752 
Q 1681 391 2138 391 
Q 2594 391 2855 752 
Q 3116 1113 3116 1747 
z
M 1159 2969 
Q 1341 3281 1617 3432 
Q 1894 3584 2278 3584 
Q 2916 3584 3314 3078 
Q 3713 2572 3713 1747 
Q 3713 922 3314 415 
Q 2916 -91 2278 -91 
Q 1894 -91 1617 61 
Q 1341 213 1159 525 
L 1159 0 
L 581 0 
L 581 4863 
L 1159 4863 
L 1159 2969 
z
" id="DejaVuSans-62" transform="scale(0.015625)"/>
       <path d="M 603 4863 
L 1178 4863 
L 1178 0 
L 603 0 
L 603 4863 
z
" id="DejaVuSans-6c" transform="scale(0.015625)"/>
       <path d="M 1172 4494 
L 1172 3500 
L 2356 3500 
L 2356 3053 
L 1172 3053 
L 1172 1153 
Q 1172 725 1289 603 
Q 1406 481 1766 481 
L 2356 481 
L 2356 0 
L 1766 0 
Q 1100 0 847 248 
Q 594 497 594 1153 
L 594 3053 
L 172 3053 
L 172 3500 
L 594 3500 
L 594 4494 
L 1172 4494 
z
" id="DejaVuSans-74" transform="scale(0.015625)"/>
       <path d="M 2059 -325 
Q 1816 -950 1584 -1140 
Q 1353 -1331 966 -1331 
L 506 -1331 
L 506 -850 
L 844 -850 
Q 1081 -850 1212 -737 
Q 1344 -625 1503 -206 
L 1606 56 
L 191 3500 
L 800 3500 
L 1894 763 
L 2988 3500 
L 3597 3500 
L 2059 -325 
z
" id="DejaVuSans-79" transform="scale(0.015625)"/>
       <path id="DejaVuSans-20" transform="scale(0.015625)"/>
       <path d="M 3513 2113 
L 3513 0 
L 2938 0 
L 2938 2094 
Q 2938 2591 2744 2837 
Q 2550 3084 2163 3084 
Q 1697 3084 1428 2787 
Q 1159 2491 1159 1978 
L 1159 0 
L 581 0 
L 581 3500 
L 1159 3500 
L 1159 2956 
Q 1366 3272 1645 3428 
Q 1925 3584 2291 3584 
Q 2894 3584 3203 3211 
Q 3513 2838 3513 2113 
z
" id="DejaVuSans-6e" transform="scale(0.015625)"/>
       <path d="M 3513 3500 
L 2247 1797 
L 3578 0 
L 2900 0 
L 1881 1375 
L 863 0 
L 184 0 
L 1544 1831 
L 300 3500 
L 978 3500 
L 1906 2253 
L 2834 3500 
L 3513 3500 
z
" id="DejaVuSans-78" transform="scale(0.015625)"/>
      </defs>
      <use xlink:href="#DejaVuSans-43"/>
      <use x="69.824219" xlink:href="#DejaVuSans-72"/>
      <use x="108.6875" xlink:href="#DejaVuSans-65"/>
      <use x="170.210938" xlink:href="#DejaVuSans-64"/>
      <use x="233.6875" xlink:href="#DejaVuSans-69"/>
      <use x="261.470703" xlink:href="#DejaVuSans-62"/>
      <use x="324.947266" xlink:href="#DejaVuSans-69"/>
      <use x="352.730469" xlink:href="#DejaVuSans-6c"/>
      <use x="380.513672" xlink:href="#DejaVuSans-69"/>
      <use x="408.296875" xlink:href="#DejaVuSans-74"/>
      <use x="447.505859" xlink:href="#DejaVuSans-79"/>
      <use x="506.685547" xlink:href="#DejaVuSans-20"/>
      <use x="538.472656" xlink:href="#DejaVuSans-69"/>
      <use x="566.255859" xlink:href="#DejaVuSans-6e"/>
      <use x="629.634766" xlink:href="#DejaVuSans-64"/>
      <use x="693.111328" xlink:href="#DejaVuSans-65"/>
      <use x="752.884766" xlink:href="#DejaVuSans-78"/>
     </g>
    </g>
   </g>
   <g id="matplotlib.axis_2">
    <g id="ytick_1">
     <g id="line2d_7">
      <defs>
       <path d="M 0 0 
L -3.5 0 
" id="m44d56b7b5c" style="stroke:#000000;stroke-width:0.8;"/>
      </defs>
      <g>
       <use style="stroke:#000000;stroke-width:0.8;" x="38.27" xlink:href="#m44d56b7b5c" y="303.64"/>
      </g>
     </g>
     <g id="text_8">
      <!-- 0 -->
      <g transform="translate(24.9075 307.439219)scale(0.1 -0.1)">
       <use xlink:href="#DejaVuSans-30"/>
      </g>
     </g>
    </g>
    <g id="ytick_2">
     <g id="line2d_8">
      <g>
       <use style="stroke:#000000;stroke-width:0.8;" x="38.27" xlink:href="#m44d56b7b5c" y="239.35913"/>
      </g>
     </g>
     <g id="text_9">
      <!-- 1 -->
      <g transform="translate(24.9075 243.158348)scale(0.1 -0.1)">
       <use xlink:href="#DejaVuSans-31"/>
      </g>
     </g>
    </g>
    <g id="ytick_3">
     <g id="line2d_9">
      <g>
       <use style="stroke:#000000;stroke-width:0.8;" x="38.27" xlink:href="#m44d56b7b5c" y="175.078259"/>
      </g>
     </g>
     <g id="text_10">
      <!-- 2 -->
      <g transform="translate(24.9075 178.877478)scale(0.1 -0.1)">
       <use xlink:href="#DejaVuSans-32"/>
      </g>
     </g>
    </g>
    <g id="ytick_4">
     <g id="line2d_10">
      <g>
       <use style="stroke:#000000;stroke-width:0.8;" x="38.27" xlink:href="#m44d56b7b5c" y="110.797389"/>
      </g>
     </g>
     <g id="text_11">
      <!-- 3 -->
      <g transform="translate(24.9075 114.596608)scale(0.1 -0.1)">
       <defs>
        <path d="M 2597 2516 
Q 3050 2419 3304 2112 
Q 3559 1806 3559 1356 
Q 3559 666 3084 287 
Q 2609 -91 1734 -91 
Q 1441 -91 1130 -33 
Q 819 25 488 141 
L 488 750 
Q 750 597 1062 519 
Q 1375 441 1716 441 
Q 2309 441 2620 675 
Q 2931 909 2931 1356 
Q 2931 1769 2642 2001 
Q 2353 2234 1838 2234 
L 1294 2234 
L 1294 2753 
L 1863 2753 
Q 2328 2753 2575 2939 
Q 2822 3125 2822 3475 
Q 2822 3834 2567 4026 
Q 2313 4219 1838 4219 
Q 1578 4219 1281 4162 
Q 984 4106 628 3988 
L 628 4550 
Q 988 4650 1302 4700 
Q 1616 4750 1894 4750 
Q 2613 4750 3031 4423 
Q 3450 4097 3450 3541 
Q 3450 3153 3228 2886 
Q 3006 2619 2597 2516 
z
" id="DejaVuSans-33" transform="scale(0.015625)"/>
       </defs>
       <use xlink:href="#DejaVuSans-33"/>
      </g>
     </g>
    </g>
    <g id="ytick_5">
     <g id="line2d_11">
      <g>
       <use style="stroke:#000000;stroke-width:0.8;" x="38.27" xlink:href="#m44d56b7b5c" y="46.516519"/>
      </g>
     </g>
     <g id="text_12">
      <!-- 4 -->
      <g transform="translate(24.9075 50.315737)scale(0.1 -0.1)">
       <use xlink:href="#DejaVuSans-34"/>
      </g>
     </g>
    </g>
    <g id="text_13">
     <!-- Density -->
     <g transform="translate(18.827813 176.228594)rotate(-90)scale(0.1 -0.1)">
      <defs>
       <path d="M 1259 4147 
L 1259 519 
L 2022 519 
Q 2988 519 3436 956 
Q 3884 1394 3884 2338 
Q 3884 3275 3436 3711 
Q 2988 4147 2022 4147 
L 1259 4147 
z
M 628 4666 
L 1925 4666 
Q 3281 4666 3915 4102 
Q 4550 3538 4550 2338 
Q 4550 1131 3912 565 
Q 3275 0 1925 0 
L 628 0 
L 628 4666 
z
" id="DejaVuSans-44" transform="scale(0.015625)"/>
       <path d="M 2834 3397 
L 2834 2853 
Q 2591 2978 2328 3040 
Q 2066 3103 1784 3103 
Q 1356 3103 1142 2972 
Q 928 2841 928 2578 
Q 928 2378 1081 2264 
Q 1234 2150 1697 2047 
L 1894 2003 
Q 2506 1872 2764 1633 
Q 3022 1394 3022 966 
Q 3022 478 2636 193 
Q 2250 -91 1575 -91 
Q 1294 -91 989 -36 
Q 684 19 347 128 
L 347 722 
Q 666 556 975 473 
Q 1284 391 1588 391 
Q 1994 391 2212 530 
Q 2431 669 2431 922 
Q 2431 1156 2273 1281 
Q 2116 1406 1581 1522 
L 1381 1569 
Q 847 1681 609 1914 
Q 372 2147 372 2553 
Q 372 3047 722 3315 
Q 1072 3584 1716 3584 
Q 2034 3584 2315 3537 
Q 2597 3491 2834 3397 
z
" id="DejaVuSans-73" transform="scale(0.015625)"/>
      </defs>
      <use xlink:href="#DejaVuSans-44"/>
      <use x="77.001953" xlink:href="#DejaVuSans-65"/>
      <use x="138.525391" xlink:href="#DejaVuSans-6e"/>
      <use x="201.904297" xlink:href="#DejaVuSans-73"/>
      <use x="254.003906" xlink:href="#DejaVuSans-69"/>
      <use x="281.787109" xlink:href="#DejaVuSans-74"/>
      <use x="320.996094" xlink:href="#DejaVuSans-79"/>
     </g>
    </g>
   </g>
   <g id="line2d_12">
    <path clip-path="url(#p2daa52395e)" d="M 56.985 302.115968 
L 60.746809 301.093768 
L 62.627714 300.401152 
L 64.508618 299.563679 
L 66.389523 298.563636 
L 68.270427 297.384415 
L 70.151332 296.011469 
L 72.032236 294.433333 
L 73.913141 292.642681 
L 75.794045 290.637315 
L 77.67495 288.421045 
L 79.555854 286.004343 
L 83.317663 280.646782 
L 87.079472 274.787014 
L 94.60309 262.867592 
L 98.364899 257.529297 
L 100.245804 255.155287 
L 102.126709 253.016339 
L 104.007613 251.13169 
L 105.888518 249.512557 
L 107.769422 248.162364 
L 109.650327 247.077423 
L 111.531231 246.248 
L 113.412136 245.659652 
L 115.29304 245.294706 
L 117.173945 245.133752 
L 119.054849 245.15703 
L 120.935754 245.34559 
L 122.816658 245.682173 
L 124.697563 246.151754 
L 128.459372 247.441946 
L 132.221181 249.141494 
L 135.98299 251.198674 
L 139.744799 253.565847 
L 143.506608 256.183287 
L 151.030226 261.830248 
L 156.67294 266.009236 
L 160.434749 268.560859 
L 164.196558 270.811584 
L 167.958367 272.688716 
L 171.720176 274.149695 
L 175.481985 275.187619 
L 179.243794 275.833339 
L 183.005603 276.152315 
L 186.767412 276.235177 
L 194.29103 276.086798 
L 201.814648 275.991504 
L 211.219171 275.94189 
L 214.98098 275.719658 
L 218.742789 275.238991 
L 222.504598 274.423118 
L 226.266407 273.232105 
L 230.028216 271.673783 
L 233.790025 269.805956 
L 239.432739 266.651614 
L 245.075452 263.464448 
L 248.837261 261.528991 
L 252.59907 259.851045 
L 256.360879 258.476878 
L 260.122688 257.413243 
L 263.884497 256.63606 
L 267.646307 256.102793 
L 271.408116 255.763926 
L 277.050829 255.513686 
L 286.455352 255.423899 
L 299.621683 255.256125 
L 307.145302 255.246458 
L 312.788015 255.460393 
L 324.073442 256.04533 
L 327.835251 255.92734 
L 331.59706 255.459127 
L 335.358869 254.570455 
L 339.120678 253.254203 
L 342.882487 251.57034 
L 346.644296 249.630408 
L 363.572437 240.302561 
L 367.334246 237.95052 
L 369.215151 236.60802 
L 371.096055 235.108968 
L 372.97696 233.417944 
L 374.857864 231.500042 
L 376.738769 229.322053 
L 378.619673 226.853527 
L 380.500578 224.067696 
L 382.381482 220.942255 
L 384.262387 217.460026 
L 386.143291 213.609539 
L 388.024196 209.385577 
L 389.905101 204.789749 
L 391.786005 199.831124 
L 395.547814 188.903624 
L 399.309623 176.855724 
L 410.59505 139.288751 
L 412.475955 133.877721 
L 414.356859 129.04888 
L 416.237764 124.941022 
L 418.118668 121.689685 
L 419.999573 119.421673 
L 421.880477 118.249278 
L 423.761382 118.264535 
L 425.642286 119.5339 
L 427.523191 122.093739 
L 429.404095 125.946995 
L 431.285 131.061329 
L 431.285 131.061329 
" style="fill:none;stroke:#0000ff;stroke-linecap:square;stroke-width:1.5;"/>
   </g>
   <g id="line2d_13">
    <path clip-path="url(#p2daa52395e)" d="M 56.985 303.014709 
L 60.746809 302.48201 
L 64.508618 301.600901 
L 66.389523 300.98436 
L 68.270427 300.223977 
L 70.151332 299.299591 
L 72.032236 298.191967 
L 73.913141 296.883949 
L 75.794045 295.361734 
L 77.67495 293.616196 
L 79.555854 291.644151 
L 81.436759 289.449484 
L 83.317663 287.043997 
L 87.079472 281.689917 
L 92.722186 272.845087 
L 96.483995 266.967944 
L 100.245804 261.60168 
L 102.126709 259.230664 
L 104.007613 257.118955 
L 105.888518 255.293626 
L 107.769422 253.77125 
L 109.650327 252.557382 
L 111.531231 251.646659 
L 113.412136 251.023494 
L 115.29304 250.663316 
L 117.173945 250.534267 
L 119.054849 250.599244 
L 120.935754 250.818158 
L 124.697563 251.556406 
L 134.102085 253.66829 
L 139.744799 254.566975 
L 145.387513 255.43346 
L 149.149322 256.235217 
L 152.911131 257.356849 
L 156.67294 258.848074 
L 160.434749 260.683288 
L 164.196558 262.77342 
L 175.481985 269.294966 
L 179.243794 271.178569 
L 183.005603 272.803297 
L 186.767412 274.141032 
L 190.529221 275.174763 
L 194.29103 275.88905 
L 198.052839 276.268973 
L 201.814648 276.30853 
L 205.576457 276.024553 
L 209.338266 275.468731 
L 214.98098 274.328452 
L 220.623693 273.175533 
L 224.385503 272.579292 
L 228.147312 272.190863 
L 231.909121 272.007973 
L 237.551834 271.98735 
L 243.194548 271.978528 
L 246.956357 271.813932 
L 250.718166 271.442043 
L 254.479975 270.838395 
L 258.241784 270.019499 
L 263.884497 268.499602 
L 284.574447 262.337156 
L 290.217161 260.375342 
L 295.859874 258.113736 
L 305.264397 254.244871 
L 309.026206 252.966251 
L 312.788015 251.946548 
L 316.549824 251.169115 
L 329.716156 248.906265 
L 333.477965 247.970372 
L 337.239774 246.843683 
L 342.882487 244.89219 
L 352.28701 241.342867 
L 359.810628 238.312321 
L 365.453342 235.74992 
L 369.215151 233.78904 
L 372.97696 231.519458 
L 376.738769 228.807355 
L 378.619673 227.229839 
L 380.500578 225.467957 
L 382.381482 223.489544 
L 384.262387 221.258837 
L 386.143291 218.736796 
L 388.024196 215.881688 
L 389.905101 212.65002 
L 391.786005 208.997934 
L 393.66691 204.883142 
L 395.547814 200.267517 
L 397.428719 195.12035 
L 399.309623 189.422282 
L 401.190528 183.169778 
L 403.071432 176.379938 
L 406.833241 161.388154 
L 416.237764 121.411509 
L 418.118668 114.550074 
L 419.999573 108.642357 
L 421.880477 103.943616 
L 423.761382 100.689916 
L 425.642286 99.083838 
L 427.523191 99.281122 
L 429.404095 101.37937 
L 431.285 105.409866 
L 431.285 105.409866 
" style="fill:none;stroke:#0000ff;stroke-dasharray:5.55,2.4;stroke-dashoffset:0;stroke-width:1.5;"/>
   </g>
   <g id="line2d_14">
    <path clip-path="url(#p2daa52395e)" d="M 56.985 303.240748 
L 60.746809 302.848747 
L 64.508618 302.158966 
L 66.389523 301.656411 
L 68.270427 301.020468 
L 70.151332 300.228707 
L 72.032236 299.258927 
L 73.913141 298.090468 
L 75.794045 296.705734 
L 77.67495 295.091822 
L 79.555854 293.242149 
L 81.436759 291.157922 
L 83.317663 288.849291 
L 87.079472 283.647661 
L 90.841281 277.907855 
L 96.483995 269.16012 
L 100.245804 263.87181 
L 102.126709 261.533012 
L 104.007613 259.442144 
L 105.888518 257.618968 
L 107.769422 256.071739 
L 109.650327 254.797537 
L 111.531231 253.783329 
L 113.412136 253.007617 
L 115.29304 252.442509 
L 117.173945 252.056016 
L 120.935754 251.684265 
L 124.697563 251.638598 
L 134.102085 251.895173 
L 139.744799 252.167971 
L 143.506608 252.568174 
L 147.268417 253.292688 
L 149.149322 253.812162 
L 151.030226 254.449804 
L 152.911131 255.210529 
L 156.67294 257.096006 
L 160.434749 259.404468 
L 166.077462 263.322723 
L 169.839271 265.924614 
L 173.60108 268.254345 
L 175.481985 269.257876 
L 177.362889 270.131307 
L 179.243794 270.864756 
L 181.124698 271.454253 
L 183.005603 271.901498 
L 184.886508 272.213234 
L 188.648317 272.476526 
L 192.410126 272.359 
L 196.171935 271.984481 
L 201.814648 271.153429 
L 209.338266 269.774995 
L 214.98098 268.523892 
L 220.623693 266.986397 
L 224.385503 265.763147 
L 230.028216 263.632085 
L 241.313643 259.057913 
L 245.075452 257.896109 
L 246.956357 257.4719 
L 248.837261 257.176024 
L 250.718166 257.022658 
L 252.59907 257.021885 
L 254.479975 257.17898 
L 256.360879 257.493944 
L 258.241784 257.961305 
L 260.122688 258.570201 
L 263.884497 260.144527 
L 267.646307 262.040934 
L 273.28902 265.004371 
L 277.050829 266.725933 
L 278.931734 267.433841 
L 280.812638 268.012567 
L 282.693543 268.446439 
L 284.574447 268.724022 
L 286.455352 268.838277 
L 288.336256 268.786567 
L 290.217161 268.570523 
L 292.098065 268.195768 
L 293.97897 267.671527 
L 295.859874 267.010135 
L 299.621683 265.337333 
L 303.383492 263.31563 
L 310.907111 258.815359 
L 316.549824 255.558516 
L 320.311633 253.641029 
L 324.073442 252.023372 
L 327.835251 250.777094 
L 331.59706 249.962282 
L 333.477965 249.729912 
L 335.358869 249.617148 
L 337.239774 249.622586 
L 341.001583 249.964706 
L 344.763392 250.670777 
L 356.048819 253.325026 
L 357.929724 253.580733 
L 359.810628 253.717072 
L 361.691533 253.712598 
L 363.572437 253.547754 
L 365.453342 253.204718 
L 367.334246 252.667109 
L 369.215151 251.919628 
L 371.096055 250.947687 
L 372.97696 249.737067 
L 374.857864 248.273618 
L 376.738769 246.542998 
L 378.619673 244.530399 
L 380.500578 242.220217 
L 382.381482 239.595594 
L 384.262387 236.637814 
L 386.143291 233.325552 
L 388.024196 229.634049 
L 389.905101 225.534377 
L 391.786005 220.993012 
L 393.66691 215.97202 
L 395.547814 210.430186 
L 397.428719 204.325399 
L 399.309623 197.618541 
L 401.190528 190.278964 
L 403.071432 182.291476 
L 404.952337 173.664449 
L 408.714146 154.6946 
L 418.118668 104.496751 
L 419.999573 96.082247 
L 421.880477 88.997712 
L 423.761382 83.586398 
L 425.642286 80.155914 
L 427.523191 78.955884 
L 429.404095 80.158194 
L 431.285 83.84181 
L 431.285 83.84181 
" style="fill:none;stroke:#0000ff;stroke-dasharray:9.6,2.4,1.5,2.4;stroke-dashoffset:0;stroke-width:1.5;"/>
   </g>
   <g id="line2d_15">
    <path clip-path="url(#p2daa52395e)" d="M 56.985 302.143817 
L 58.865905 301.677101 
L 60.746809 301.092715 
L 62.627714 300.370024 
L 64.508618 299.487381 
L 66.389523 298.422826 
L 68.270427 297.154969 
L 70.151332 295.664042 
L 72.032236 293.933082 
L 73.913141 291.949193 
L 75.794045 289.704807 
L 77.67495 287.198875 
L 79.555854 284.437876 
L 81.436759 281.436563 
L 85.198568 274.815301 
L 88.960377 267.62261 
L 94.60309 256.652541 
L 98.364899 249.889449 
L 100.245804 246.837342 
L 102.126709 244.065651 
L 104.007613 241.609859 
L 105.888518 239.495987 
L 107.769422 237.740056 
L 109.650327 236.348074 
L 111.531231 235.316551 
L 113.412136 234.633436 
L 115.29304 234.279412 
L 117.173945 234.229424 
L 119.054849 234.45431 
L 120.935754 234.922428 
L 122.816658 235.601165 
L 124.697563 236.458248 
L 128.459372 238.586058 
L 132.221181 241.087047 
L 139.744799 246.545204 
L 145.387513 250.572767 
L 149.149322 253.061287 
L 152.911131 255.314203 
L 156.67294 257.284807 
L 160.434749 258.951932 
L 164.196558 260.324513 
L 167.958367 261.439926 
L 171.720176 262.354702 
L 177.362889 263.480265 
L 184.886508 264.705697 
L 190.529221 265.385598 
L 194.29103 265.64143 
L 198.052839 265.672193 
L 201.814648 265.429524 
L 205.576457 264.885232 
L 209.338266 264.037983 
L 213.100075 262.916146 
L 216.861884 261.577437 
L 230.028216 256.54617 
L 233.790025 255.456734 
L 237.551834 254.684375 
L 241.313643 254.259629 
L 245.075452 254.159266 
L 248.837261 254.3046 
L 258.241784 254.859173 
L 262.003593 254.761845 
L 265.765402 254.303858 
L 269.527211 253.438316 
L 273.28902 252.183907 
L 277.050829 250.619519 
L 290.217161 244.643092 
L 293.97897 243.377698 
L 297.740779 242.517536 
L 299.621683 242.261592 
L 301.502588 242.129305 
L 303.383492 242.12348 
L 305.264397 242.244471 
L 307.145302 242.490033 
L 310.907111 243.332125 
L 314.66892 244.575728 
L 318.430729 246.102067 
L 325.954347 249.349594 
L 329.716156 250.702629 
L 331.59706 251.234501 
L 333.477965 251.645729 
L 335.358869 251.922018 
L 337.239774 252.052739 
L 339.120678 252.031232 
L 341.001583 251.854937 
L 342.882487 251.525342 
L 344.763392 251.047762 
L 346.644296 250.430951 
L 350.406106 248.828601 
L 354.167915 246.834746 
L 357.929724 244.578876 
L 365.453342 239.723896 
L 374.857864 233.419409 
L 378.619673 230.624035 
L 382.381482 227.413151 
L 384.262387 225.576856 
L 386.143291 223.543869 
L 388.024196 221.282976 
L 389.905101 218.765909 
L 391.786005 215.969496 
L 393.66691 212.877951 
L 395.547814 209.48519 
L 397.428719 205.797058 
L 401.190528 197.629104 
L 406.833241 184.173695 
L 410.59505 175.378419 
L 412.475955 171.365223 
L 414.356859 167.774957 
L 416.237764 164.734341 
L 418.118668 162.365384 
L 419.999573 160.780007 
L 421.880477 160.074762 
L 423.761382 160.325944 
L 425.642286 161.585408 
L 427.523191 163.877366 
L 429.404095 167.196404 
L 431.285 171.506878 
L 431.285 171.506878 
" style="fill:none;stroke:#00ffff;stroke-linecap:square;stroke-width:1.5;"/>
   </g>
   <g id="line2d_16">
    <path clip-path="url(#p2daa52395e)" d="M 57.83103 303.333381 
L 61.584336 302.997034 
L 65.337642 302.374437 
L 67.214295 301.905799 
L 69.090948 301.30039 
L 70.967601 300.532147 
L 72.844255 299.574626 
L 74.720908 298.402535 
L 76.597561 296.993581 
L 78.474214 295.330505 
L 80.350867 293.403147 
L 82.22752 291.210337 
L 84.104173 288.761395 
L 85.980826 286.077011 
L 89.734133 280.141205 
L 99.117398 264.459915 
L 100.994051 261.643613 
L 102.870704 259.047416 
L 104.747358 256.70099 
L 106.624011 254.622366 
L 108.500664 252.818417 
L 110.377317 251.286253 
L 112.25397 250.015288 
L 114.130623 248.989675 
L 116.007276 248.190768 
L 117.883929 247.599316 
L 119.760583 247.197119 
L 121.637236 246.968003 
L 123.513889 246.898072 
L 125.390542 246.975292 
L 127.267195 247.188579 
L 131.020501 247.97668 
L 134.773807 249.149313 
L 147.910379 253.819127 
L 151.663686 254.645099 
L 155.416992 255.123033 
L 159.170298 255.30358 
L 162.923604 255.267078 
L 168.553564 254.946874 
L 174.183523 254.370205 
L 179.813482 253.511655 
L 192.950054 251.084004 
L 196.70336 250.724496 
L 200.456667 250.707122 
L 204.209973 251.071098 
L 207.963279 251.784573 
L 211.716585 252.746233 
L 219.223198 254.800109 
L 222.976504 255.59 
L 226.72981 256.092092 
L 230.483116 256.28883 
L 234.236423 256.218965 
L 239.866382 255.771104 
L 249.249648 254.643999 
L 266.139526 252.512882 
L 269.892832 252.210066 
L 273.646138 252.089636 
L 277.399444 252.204252 
L 281.152751 252.574433 
L 284.906057 253.176466 
L 290.536016 254.362406 
L 298.042629 255.999415 
L 303.672588 256.986533 
L 309.302547 257.696999 
L 314.932507 258.112322 
L 318.685813 258.181681 
L 322.439119 258.036313 
L 326.192425 257.646985 
L 329.945732 257.019877 
L 335.575691 255.750635 
L 350.588916 252.092371 
L 356.218875 250.676362 
L 359.972182 249.536443 
L 363.725488 248.132328 
L 367.478794 246.373713 
L 371.2321 244.167019 
L 373.108753 242.86432 
L 374.985406 241.411212 
L 376.86206 239.794547 
L 378.738713 238.001652 
L 380.615366 236.020687 
L 382.492019 233.840828 
L 384.368672 231.452127 
L 386.245325 228.844978 
L 388.121978 226.009154 
L 389.998631 222.93251 
L 391.875285 219.599539 
L 393.751938 215.990098 
L 395.628591 212.078696 
L 397.505244 207.834795 
L 399.381897 203.224548 
L 401.25855 198.21428 
L 403.135203 192.775851 
L 405.011856 186.893767 
L 406.888509 180.57357 
L 410.641816 166.799175 
L 416.271775 145.101384 
L 418.148428 138.399269 
L 420.025081 132.415681 
L 421.901734 127.454907 
L 423.778388 123.817059 
L 425.655041 121.776067 
L 427.531694 121.557477 
L 429.408347 123.318373 
L 431.285 127.13165 
L 431.285 127.13165 
" style="fill:none;stroke:#00ffff;stroke-dasharray:5.55,2.4;stroke-dashoffset:0;stroke-width:1.5;"/>
   </g>
   <g id="line2d_17">
    <path clip-path="url(#p2daa52395e)" d="M 62.231787 303.303772 
L 65.940864 302.88694 
L 67.795403 302.54515 
L 69.649942 302.078525 
L 71.50448 301.455234 
L 73.359019 300.64081 
L 75.213558 299.600021 
L 77.068097 298.299464 
L 78.922636 296.710769 
L 80.777174 294.814192 
L 82.631713 292.602249 
L 84.486252 290.082944 
L 86.340791 287.282083 
L 90.049868 281.031888 
L 95.613484 271.174118 
L 97.468023 268.119292 
L 99.322562 265.323944 
L 101.177101 262.85561 
L 103.031639 260.762008 
L 104.886178 259.068304 
L 106.740717 257.776667 
L 108.595256 256.868077 
L 110.449794 256.306051 
L 112.304333 256.04172 
L 114.158872 256.019551 
L 116.013411 256.183004 
L 119.722488 256.864018 
L 125.286105 258.2502 
L 132.70426 260.302812 
L 138.267876 262.093795 
L 151.249647 266.537024 
L 154.958725 267.413586 
L 158.667802 267.942375 
L 162.37688 268.10235 
L 166.085957 267.936464 
L 171.649574 267.300639 
L 179.067729 266.39007 
L 182.776806 266.120414 
L 186.485884 266.021378 
L 190.194961 266.084137 
L 195.758577 266.438085 
L 201.322194 267.070149 
L 206.88581 267.971151 
L 216.158504 269.84666 
L 219.867581 270.529484 
L 223.576659 271.019202 
L 227.285736 271.205479 
L 230.994814 270.998788 
L 234.703891 270.353501 
L 238.412969 269.286856 
L 242.122046 267.885185 
L 255.103818 262.514077 
L 258.812895 261.392488 
L 262.521973 260.555355 
L 266.23105 259.979939 
L 269.940128 259.62384 
L 273.649205 259.446917 
L 277.358283 259.42681 
L 281.06736 259.565666 
L 284.776438 259.886987 
L 288.485515 260.4221 
L 292.194593 261.187668 
L 295.90367 262.159628 
L 305.176364 264.797417 
L 308.885442 265.497532 
L 310.739981 265.687584 
L 312.594519 265.752174 
L 314.449058 265.683739 
L 316.303597 265.480355 
L 318.158136 265.14554 
L 321.867213 264.118941 
L 325.576291 262.711439 
L 331.139907 260.185597 
L 338.558062 256.730815 
L 342.26714 255.21069 
L 345.976217 253.940797 
L 349.685295 252.974922 
L 353.394372 252.325563 
L 357.10345 251.945273 
L 366.376143 251.246224 
L 368.230682 250.947528 
L 370.085221 250.533186 
L 371.93976 249.979442 
L 373.794298 249.265312 
L 375.648837 248.372436 
L 377.503376 247.284351 
L 379.357915 245.985172 
L 381.212453 244.457751 
L 383.066992 242.681411 
L 384.921531 240.629383 
L 386.77607 238.26609 
L 388.630609 235.544467 
L 390.485147 232.403529 
L 392.339686 228.766467 
L 394.194225 224.539655 
L 396.048764 219.613035 
L 397.903302 213.862452 
L 399.757841 207.15459 
L 401.61238 199.355081 
L 403.466919 190.340246 
L 405.321457 180.01254 
L 407.175996 168.319265 
L 409.030535 155.273415 
L 410.885074 140.974755 
L 414.594151 109.558307 
L 418.303229 77.147324 
L 420.157767 62.023883 
L 422.012306 48.554964 
L 423.866845 37.466635 
L 425.721384 29.440531 
L 427.575922 25.055013 
L 429.430461 24.730161 
L 431.285 28.683552 
L 431.285 28.683552 
" style="fill:none;stroke:#00ffff;stroke-dasharray:9.6,2.4,1.5,2.4;stroke-dashoffset:0;stroke-width:1.5;"/>
   </g>
   <g id="line2d_18">
    <path clip-path="url(#p2daa52395e)" d="M 56.985 302.729536 
L 60.746809 302.141805 
L 64.508618 301.264904 
L 68.270427 300.010161 
L 70.151332 299.212841 
L 72.032236 298.288062 
L 73.913141 297.226547 
L 75.794045 296.020664 
L 77.67495 294.664912 
L 79.555854 293.156376 
L 81.436759 291.495144 
L 85.198568 287.731835 
L 88.960377 283.445818 
L 92.722186 278.765916 
L 104.007613 264.334183 
L 107.769422 260.156455 
L 109.650327 258.310214 
L 111.531231 256.655909 
L 113.412136 255.212206 
L 115.29304 253.994107 
L 117.173945 253.01264 
L 119.054849 252.274649 
L 120.935754 251.782672 
L 122.816658 251.534913 
L 124.697563 251.525318 
L 126.578467 251.743736 
L 128.459372 252.176189 
L 130.340276 252.805226 
L 132.221181 253.610369 
L 134.102085 254.568633 
L 137.863894 256.843631 
L 143.506608 260.753826 
L 149.149322 264.649833 
L 152.911131 266.953539 
L 156.67294 268.877864 
L 158.553844 269.671938 
L 160.434749 270.344988 
L 162.315653 270.89296 
L 164.196558 271.313685 
L 166.077462 271.606696 
L 167.958367 271.77309 
L 169.839271 271.815462 
L 171.720176 271.737897 
L 175.481985 271.247273 
L 179.243794 270.367729 
L 183.005603 269.197717 
L 192.410126 265.940354 
L 196.171935 264.94935 
L 198.052839 264.600869 
L 199.933744 264.369407 
L 201.814648 264.263445 
L 203.695553 264.285822 
L 205.576457 264.433149 
L 209.338266 265.056476 
L 214.98098 266.480073 
L 218.742789 267.388942 
L 220.623693 267.72392 
L 222.504598 267.933133 
L 224.385503 267.986226 
L 226.266407 267.858086 
L 228.147312 267.530116 
L 230.028216 266.991217 
L 231.909121 266.238414 
L 233.790025 265.2771 
L 235.67093 264.120909 
L 237.551834 262.791202 
L 241.313643 259.729975 
L 250.718166 251.538252 
L 252.59907 250.132888 
L 254.479975 248.888096 
L 256.360879 247.829203 
L 258.241784 246.974478 
L 260.122688 246.334448 
L 262.003593 245.91148 
L 263.884497 245.699669 
L 265.765402 245.685006 
L 267.646307 245.845856 
L 269.527211 246.153722 
L 273.28902 247.068748 
L 278.931734 248.57332 
L 280.812638 248.94252 
L 282.693543 249.183158 
L 284.574447 249.266042 
L 286.455352 249.169749 
L 288.336256 248.881851 
L 290.217161 248.399724 
L 292.098065 247.730838 
L 293.97897 246.892502 
L 297.740779 244.820202 
L 305.264397 240.185729 
L 309.026206 238.265786 
L 310.907111 237.508128 
L 312.788015 236.899884 
L 314.66892 236.437332 
L 318.430729 235.875337 
L 325.954347 235.151203 
L 327.835251 234.769592 
L 329.716156 234.208565 
L 331.59706 233.42699 
L 333.477965 232.392718 
L 335.358869 231.084515 
L 337.239774 229.493376 
L 339.120678 227.623192 
L 341.001583 225.490742 
L 342.882487 223.125042 
L 346.644296 217.86324 
L 354.167915 206.796027 
L 356.048819 204.27548 
L 357.929724 201.969036 
L 359.810628 199.923758 
L 361.691533 198.177501 
L 363.572437 196.757516 
L 365.453342 195.679485 
L 367.334246 194.946979 
L 369.215151 194.551361 
L 371.096055 194.472113 
L 372.97696 194.677572 
L 374.857864 195.126045 
L 376.738769 195.767262 
L 380.500578 197.39465 
L 384.262387 199.057921 
L 386.143291 199.742704 
L 388.024196 200.250031 
L 389.905101 200.528062 
L 391.786005 200.533883 
L 393.66691 200.235501 
L 395.547814 199.613584 
L 397.428719 198.662843 
L 399.309623 197.393021 
L 401.190528 195.829404 
L 403.071432 194.012806 
L 406.833241 189.857444 
L 410.59505 185.526818 
L 412.475955 183.526656 
L 414.356859 181.770405 
L 416.237764 180.35896 
L 418.118668 179.389043 
L 419.999573 178.949303 
L 421.880477 179.116571 
L 423.761382 179.952473 
L 425.642286 181.500564 
L 427.523191 183.78418 
L 429.404095 186.80511 
L 431.285 190.543214 
L 431.285 190.543214 
" style="fill:none;stroke:#ff7f00;stroke-dasharray:1.5,2.475;stroke-dashoffset:0;stroke-width:1.5;"/>
   </g>
   <g id="patch_3">
    <path d="M 38.27 303.64 
L 38.27 10.8 
" style="fill:none;stroke:#000000;stroke-linecap:square;stroke-linejoin:miter;stroke-width:0.8;"/>
   </g>
   <g id="patch_4">
    <path d="M 450 303.64 
L 450 10.8 
" style="fill:none;stroke:#000000;stroke-linecap:square;stroke-linejoin:miter;stroke-width:0.8;"/>
   </g>
   <g id="patch_5">
    <path d="M 38.27 303.64 
L 450 303.64 
" style="fill:none;stroke:#000000;stroke-linecap:square;stroke-linejoin:miter;stroke-width:0.8;"/>
   </g>
   <g id="patch_6">
    <path d="M 38.27 10.8 
L 450 10.8 
" style="fill:none;stroke:#000000;stroke-linecap:square;stroke-linejoin:miter;stroke-width:0.8;"/>
   </g>
   <g id="legend_1">
    <g id="patch_7">
     <path d="M 45.27 199.931562 
L 146.693438 199.931562 
Q 148.693438 199.931562 148.693438 197.931562 
L 148.693438 17.8 
Q 148.693438 15.8 146.693438 15.8 
L 45.27 15.8 
Q 43.27 15.8 43.27 17.8 
L 43.27 197.931562 
Q 43.27 199.931562 45.27 199.931562 
z
" style="fill:#ffffff;opacity:0.8;stroke:#cccccc;stroke-linejoin:miter;"/>
    </g>
    <g id="line2d_19">
     <path d="M 47.27 30.537188 
L 67.27 30.537188 
" style="fill:none;stroke:#0000ff;stroke-linecap:square;stroke-width:1.5;"/>
    </g>
    <g id="line2d_20"/>
    <g id="text_14">
     <!-- 2 Clustered  -->
     <g transform="translate(75.27 27.398438)scale(0.1 -0.1)">
      <defs>
       <path d="M 544 1381 
L 544 3500 
L 1119 3500 
L 1119 1403 
Q 1119 906 1312 657 
Q 1506 409 1894 409 
Q 2359 409 2629 706 
Q 2900 1003 2900 1516 
L 2900 3500 
L 3475 3500 
L 3475 0 
L 2900 0 
L 2900 538 
Q 2691 219 2414 64 
Q 2138 -91 1772 -91 
Q 1169 -91 856 284 
Q 544 659 544 1381 
z
M 1991 3584 
L 1991 3584 
z
" id="DejaVuSans-75" transform="scale(0.015625)"/>
      </defs>
      <use xlink:href="#DejaVuSans-32"/>
      <use x="63.623047" xlink:href="#DejaVuSans-20"/>
      <use x="95.410156" xlink:href="#DejaVuSans-43"/>
      <use x="165.234375" xlink:href="#DejaVuSans-6c"/>
      <use x="193.017578" xlink:href="#DejaVuSans-75"/>
      <use x="256.396484" xlink:href="#DejaVuSans-73"/>
      <use x="308.496094" xlink:href="#DejaVuSans-74"/>
      <use x="347.705078" xlink:href="#DejaVuSans-65"/>
      <use x="409.228516" xlink:href="#DejaVuSans-72"/>
      <use x="448.091797" xlink:href="#DejaVuSans-65"/>
      <use x="509.615234" xlink:href="#DejaVuSans-64"/>
      <use x="573.091797" xlink:href="#DejaVuSans-20"/>
     </g>
     <!--  n=327 -->
     <g transform="translate(75.27 38.59625)scale(0.1 -0.1)">
      <defs>
       <path d="M 678 2906 
L 4684 2906 
L 4684 2381 
L 678 2381 
L 678 2906 
z
M 678 1631 
L 4684 1631 
L 4684 1100 
L 678 1100 
L 678 1631 
z
" id="DejaVuSans-3d" transform="scale(0.015625)"/>
       <path d="M 525 4666 
L 3525 4666 
L 3525 4397 
L 1831 0 
L 1172 0 
L 2766 4134 
L 525 4134 
L 525 4666 
z
" id="DejaVuSans-37" transform="scale(0.015625)"/>
      </defs>
      <use xlink:href="#DejaVuSans-20"/>
      <use x="31.787109" xlink:href="#DejaVuSans-6e"/>
      <use x="95.166016" xlink:href="#DejaVuSans-3d"/>
      <use x="178.955078" xlink:href="#DejaVuSans-33"/>
      <use x="242.578125" xlink:href="#DejaVuSans-32"/>
      <use x="306.201172" xlink:href="#DejaVuSans-37"/>
     </g>
    </g>
    <g id="line2d_21">
     <path d="M 47.27 56.413125 
L 67.27 56.413125 
" style="fill:none;stroke:#0000ff;stroke-dasharray:5.55,2.4;stroke-dashoffset:0;stroke-width:1.5;"/>
    </g>
    <g id="line2d_22"/>
    <g id="text_15">
     <!-- 3 Clustered  -->
     <g transform="translate(75.27 53.274375)scale(0.1 -0.1)">
      <use xlink:href="#DejaVuSans-33"/>
      <use x="63.623047" xlink:href="#DejaVuSans-20"/>
      <use x="95.410156" xlink:href="#DejaVuSans-43"/>
      <use x="165.234375" xlink:href="#DejaVuSans-6c"/>
      <use x="193.017578" xlink:href="#DejaVuSans-75"/>
      <use x="256.396484" xlink:href="#DejaVuSans-73"/>
      <use x="308.496094" xlink:href="#DejaVuSans-74"/>
      <use x="347.705078" xlink:href="#DejaVuSans-65"/>
      <use x="409.228516" xlink:href="#DejaVuSans-72"/>
      <use x="448.091797" xlink:href="#DejaVuSans-65"/>
      <use x="509.615234" xlink:href="#DejaVuSans-64"/>
      <use x="573.091797" xlink:href="#DejaVuSans-20"/>
     </g>
     <!--  n=476 -->
     <g transform="translate(75.27 64.472187)scale(0.1 -0.1)">
      <use xlink:href="#DejaVuSans-20"/>
      <use x="31.787109" xlink:href="#DejaVuSans-6e"/>
      <use x="95.166016" xlink:href="#DejaVuSans-3d"/>
      <use x="178.955078" xlink:href="#DejaVuSans-34"/>
      <use x="242.578125" xlink:href="#DejaVuSans-37"/>
      <use x="306.201172" xlink:href="#DejaVuSans-36"/>
     </g>
    </g>
    <g id="line2d_23">
     <path d="M 47.27 82.289062 
L 67.27 82.289062 
" style="fill:none;stroke:#0000ff;stroke-dasharray:9.6,2.4,1.5,2.4;stroke-dashoffset:0;stroke-width:1.5;"/>
    </g>
    <g id="line2d_24"/>
    <g id="text_16">
     <!-- 4 Clustered  -->
     <g transform="translate(75.27 79.150312)scale(0.1 -0.1)">
      <use xlink:href="#DejaVuSans-34"/>
      <use x="63.623047" xlink:href="#DejaVuSans-20"/>
      <use x="95.410156" xlink:href="#DejaVuSans-43"/>
      <use x="165.234375" xlink:href="#DejaVuSans-6c"/>
      <use x="193.017578" xlink:href="#DejaVuSans-75"/>
      <use x="256.396484" xlink:href="#DejaVuSans-73"/>
      <use x="308.496094" xlink:href="#DejaVuSans-74"/>
      <use x="347.705078" xlink:href="#DejaVuSans-65"/>
      <use x="409.228516" xlink:href="#DejaVuSans-72"/>
      <use x="448.091797" xlink:href="#DejaVuSans-65"/>
      <use x="509.615234" xlink:href="#DejaVuSans-64"/>
      <use x="573.091797" xlink:href="#DejaVuSans-20"/>
     </g>
     <!--  n=661 -->
     <g transform="translate(75.27 90.348125)scale(0.1 -0.1)">
      <use xlink:href="#DejaVuSans-20"/>
      <use x="31.787109" xlink:href="#DejaVuSans-6e"/>
      <use x="95.166016" xlink:href="#DejaVuSans-3d"/>
      <use x="178.955078" xlink:href="#DejaVuSans-36"/>
      <use x="242.578125" xlink:href="#DejaVuSans-36"/>
      <use x="306.201172" xlink:href="#DejaVuSans-31"/>
     </g>
    </g>
    <g id="line2d_25">
     <path d="M 47.27 108.165 
L 67.27 108.165 
" style="fill:none;stroke:#00ffff;stroke-linecap:square;stroke-width:1.5;"/>
    </g>
    <g id="line2d_26"/>
    <g id="text_17">
     <!-- 2 Random  -->
     <g transform="translate(75.27 105.02625)scale(0.1 -0.1)">
      <defs>
       <path d="M 2841 2188 
Q 3044 2119 3236 1894 
Q 3428 1669 3622 1275 
L 4263 0 
L 3584 0 
L 2988 1197 
Q 2756 1666 2539 1819 
Q 2322 1972 1947 1972 
L 1259 1972 
L 1259 0 
L 628 0 
L 628 4666 
L 2053 4666 
Q 2853 4666 3247 4331 
Q 3641 3997 3641 3322 
Q 3641 2881 3436 2590 
Q 3231 2300 2841 2188 
z
M 1259 4147 
L 1259 2491 
L 2053 2491 
Q 2509 2491 2742 2702 
Q 2975 2913 2975 3322 
Q 2975 3731 2742 3939 
Q 2509 4147 2053 4147 
L 1259 4147 
z
" id="DejaVuSans-52" transform="scale(0.015625)"/>
       <path d="M 2194 1759 
Q 1497 1759 1228 1600 
Q 959 1441 959 1056 
Q 959 750 1161 570 
Q 1363 391 1709 391 
Q 2188 391 2477 730 
Q 2766 1069 2766 1631 
L 2766 1759 
L 2194 1759 
z
M 3341 1997 
L 3341 0 
L 2766 0 
L 2766 531 
Q 2569 213 2275 61 
Q 1981 -91 1556 -91 
Q 1019 -91 701 211 
Q 384 513 384 1019 
Q 384 1609 779 1909 
Q 1175 2209 1959 2209 
L 2766 2209 
L 2766 2266 
Q 2766 2663 2505 2880 
Q 2244 3097 1772 3097 
Q 1472 3097 1187 3025 
Q 903 2953 641 2809 
L 641 3341 
Q 956 3463 1253 3523 
Q 1550 3584 1831 3584 
Q 2591 3584 2966 3190 
Q 3341 2797 3341 1997 
z
" id="DejaVuSans-61" transform="scale(0.015625)"/>
       <path d="M 1959 3097 
Q 1497 3097 1228 2736 
Q 959 2375 959 1747 
Q 959 1119 1226 758 
Q 1494 397 1959 397 
Q 2419 397 2687 759 
Q 2956 1122 2956 1747 
Q 2956 2369 2687 2733 
Q 2419 3097 1959 3097 
z
M 1959 3584 
Q 2709 3584 3137 3096 
Q 3566 2609 3566 1747 
Q 3566 888 3137 398 
Q 2709 -91 1959 -91 
Q 1206 -91 779 398 
Q 353 888 353 1747 
Q 353 2609 779 3096 
Q 1206 3584 1959 3584 
z
" id="DejaVuSans-6f" transform="scale(0.015625)"/>
       <path d="M 3328 2828 
Q 3544 3216 3844 3400 
Q 4144 3584 4550 3584 
Q 5097 3584 5394 3201 
Q 5691 2819 5691 2113 
L 5691 0 
L 5113 0 
L 5113 2094 
Q 5113 2597 4934 2840 
Q 4756 3084 4391 3084 
Q 3944 3084 3684 2787 
Q 3425 2491 3425 1978 
L 3425 0 
L 2847 0 
L 2847 2094 
Q 2847 2600 2669 2842 
Q 2491 3084 2119 3084 
Q 1678 3084 1418 2786 
Q 1159 2488 1159 1978 
L 1159 0 
L 581 0 
L 581 3500 
L 1159 3500 
L 1159 2956 
Q 1356 3278 1631 3431 
Q 1906 3584 2284 3584 
Q 2666 3584 2933 3390 
Q 3200 3197 3328 2828 
z
" id="DejaVuSans-6d" transform="scale(0.015625)"/>
      </defs>
      <use xlink:href="#DejaVuSans-32"/>
      <use x="63.623047" xlink:href="#DejaVuSans-20"/>
      <use x="95.410156" xlink:href="#DejaVuSans-52"/>
      <use x="162.642578" xlink:href="#DejaVuSans-61"/>
      <use x="223.921875" xlink:href="#DejaVuSans-6e"/>
      <use x="287.300781" xlink:href="#DejaVuSans-64"/>
      <use x="350.777344" xlink:href="#DejaVuSans-6f"/>
      <use x="411.958984" xlink:href="#DejaVuSans-6d"/>
      <use x="509.371094" xlink:href="#DejaVuSans-20"/>
     </g>
     <!--  n=358 -->
     <g transform="translate(75.27 116.224063)scale(0.1 -0.1)">
      <defs>
       <path d="M 691 4666 
L 3169 4666 
L 3169 4134 
L 1269 4134 
L 1269 2991 
Q 1406 3038 1543 3061 
Q 1681 3084 1819 3084 
Q 2600 3084 3056 2656 
Q 3513 2228 3513 1497 
Q 3513 744 3044 326 
Q 2575 -91 1722 -91 
Q 1428 -91 1123 -41 
Q 819 9 494 109 
L 494 744 
Q 775 591 1075 516 
Q 1375 441 1709 441 
Q 2250 441 2565 725 
Q 2881 1009 2881 1497 
Q 2881 1984 2565 2268 
Q 2250 2553 1709 2553 
Q 1456 2553 1204 2497 
Q 953 2441 691 2322 
L 691 4666 
z
" id="DejaVuSans-35" transform="scale(0.015625)"/>
      </defs>
      <use xlink:href="#DejaVuSans-20"/>
      <use x="31.787109" xlink:href="#DejaVuSans-6e"/>
      <use x="95.166016" xlink:href="#DejaVuSans-3d"/>
      <use x="178.955078" xlink:href="#DejaVuSans-33"/>
      <use x="242.578125" xlink:href="#DejaVuSans-35"/>
      <use x="306.201172" xlink:href="#DejaVuSans-38"/>
     </g>
    </g>
    <g id="line2d_27">
     <path d="M 47.27 134.040938 
L 67.27 134.040938 
" style="fill:none;stroke:#00ffff;stroke-dasharray:5.55,2.4;stroke-dashoffset:0;stroke-width:1.5;"/>
    </g>
    <g id="line2d_28"/>
    <g id="text_18">
     <!-- 3 Random  -->
     <g transform="translate(75.27 130.902188)scale(0.1 -0.1)">
      <use xlink:href="#DejaVuSans-33"/>
      <use x="63.623047" xlink:href="#DejaVuSans-20"/>
      <use x="95.410156" xlink:href="#DejaVuSans-52"/>
      <use x="162.642578" xlink:href="#DejaVuSans-61"/>
      <use x="223.921875" xlink:href="#DejaVuSans-6e"/>
      <use x="287.300781" xlink:href="#DejaVuSans-64"/>
      <use x="350.777344" xlink:href="#DejaVuSans-6f"/>
      <use x="411.958984" xlink:href="#DejaVuSans-6d"/>
      <use x="509.371094" xlink:href="#DejaVuSans-20"/>
     </g>
     <!--  n=823 -->
     <g transform="translate(75.27 142.1)scale(0.1 -0.1)">
      <use xlink:href="#DejaVuSans-20"/>
      <use x="31.787109" xlink:href="#DejaVuSans-6e"/>
      <use x="95.166016" xlink:href="#DejaVuSans-3d"/>
      <use x="178.955078" xlink:href="#DejaVuSans-38"/>
      <use x="242.578125" xlink:href="#DejaVuSans-32"/>
      <use x="306.201172" xlink:href="#DejaVuSans-33"/>
     </g>
    </g>
    <g id="line2d_29">
     <path d="M 47.27 159.916875 
L 67.27 159.916875 
" style="fill:none;stroke:#00ffff;stroke-dasharray:9.6,2.4,1.5,2.4;stroke-dashoffset:0;stroke-width:1.5;"/>
    </g>
    <g id="line2d_30"/>
    <g id="text_19">
     <!-- 4 Random  -->
     <g transform="translate(75.27 156.778125)scale(0.1 -0.1)">
      <use xlink:href="#DejaVuSans-34"/>
      <use x="63.623047" xlink:href="#DejaVuSans-20"/>
      <use x="95.410156" xlink:href="#DejaVuSans-52"/>
      <use x="162.642578" xlink:href="#DejaVuSans-61"/>
      <use x="223.921875" xlink:href="#DejaVuSans-6e"/>
      <use x="287.300781" xlink:href="#DejaVuSans-64"/>
      <use x="350.777344" xlink:href="#DejaVuSans-6f"/>
      <use x="411.958984" xlink:href="#DejaVuSans-6d"/>
      <use x="509.371094" xlink:href="#DejaVuSans-20"/>
     </g>
     <!--  n=1334 -->
     <g transform="translate(75.27 167.975938)scale(0.1 -0.1)">
      <use xlink:href="#DejaVuSans-20"/>
      <use x="31.787109" xlink:href="#DejaVuSans-6e"/>
      <use x="95.166016" xlink:href="#DejaVuSans-3d"/>
      <use x="178.955078" xlink:href="#DejaVuSans-31"/>
      <use x="242.578125" xlink:href="#DejaVuSans-33"/>
      <use x="306.201172" xlink:href="#DejaVuSans-33"/>
      <use x="369.824219" xlink:href="#DejaVuSans-34"/>
     </g>
    </g>
    <g id="line2d_31">
     <path d="M 47.27 185.792812 
L 67.27 185.792812 
" style="fill:none;stroke:#ff7f00;stroke-dasharray:1.5,2.475;stroke-dashoffset:0;stroke-width:1.5;"/>
    </g>
    <g id="line2d_32"/>
    <g id="text_20">
     <!-- All Credibility  -->
     <g transform="translate(75.27 182.654063)scale(0.1 -0.1)">
      <defs>
       <path d="M 2188 4044 
L 1331 1722 
L 3047 1722 
L 2188 4044 
z
M 1831 4666 
L 2547 4666 
L 4325 0 
L 3669 0 
L 3244 1197 
L 1141 1197 
L 716 0 
L 50 0 
L 1831 4666 
z
" id="DejaVuSans-41" transform="scale(0.015625)"/>
      </defs>
      <use xlink:href="#DejaVuSans-41"/>
      <use x="68.408203" xlink:href="#DejaVuSans-6c"/>
      <use x="96.191406" xlink:href="#DejaVuSans-6c"/>
      <use x="123.974609" xlink:href="#DejaVuSans-20"/>
      <use x="155.761719" xlink:href="#DejaVuSans-43"/>
      <use x="225.585938" xlink:href="#DejaVuSans-72"/>
      <use x="264.449219" xlink:href="#DejaVuSans-65"/>
      <use x="325.972656" xlink:href="#DejaVuSans-64"/>
      <use x="389.449219" xlink:href="#DejaVuSans-69"/>
      <use x="417.232422" xlink:href="#DejaVuSans-62"/>
      <use x="480.708984" xlink:href="#DejaVuSans-69"/>
      <use x="508.492188" xlink:href="#DejaVuSans-6c"/>
      <use x="536.275391" xlink:href="#DejaVuSans-69"/>
      <use x="564.058594" xlink:href="#DejaVuSans-74"/>
      <use x="603.267578" xlink:href="#DejaVuSans-79"/>
      <use x="662.447266" xlink:href="#DejaVuSans-20"/>
     </g>
     <!--   n=171 -->
     <g transform="translate(75.27 193.851875)scale(0.1 -0.1)">
      <use xlink:href="#DejaVuSans-20"/>
      <use x="31.787109" xlink:href="#DejaVuSans-20"/>
      <use x="63.574219" xlink:href="#DejaVuSans-6e"/>
      <use x="126.953125" xlink:href="#DejaVuSans-3d"/>
      <use x="210.742188" xlink:href="#DejaVuSans-31"/>
      <use x="274.365234" xlink:href="#DejaVuSans-37"/>
      <use x="337.988281" xlink:href="#DejaVuSans-31"/>
     </g>
    </g>
   </g>
  </g>
 </g>
 <defs>
  <clipPath id="p2daa52395e">
   <rect height="292.84" width="411.73" x="38.27" y="10.8"/>
  </clipPath>
 </defs>
</svg>
