<?xml version="1.0" encoding="utf-8" standalone="no"?>
<!DOCTYPE svg PUBLIC "-//W3C//DTD SVG 1.1//EN"
  "http://www.w3.org/Graphics/SVG/1.1/DTD/svg11.dtd">
<svg height="345.6pt" version="1.1" viewBox="0 0 460.8 345.6" width="460.8pt" xmlns="http://www.w3.org/2000/svg" xmlns:xlink="http://www.w3.org/1999/xlink">
 <metadata>
  <rdf:RDF xmlns:cc="http://creativecommons.org/ns#" xmlns:dc="http://purl.org/dc/elements/1.1/" xmlns:rdf="http://www.w3.org/1999/02/22-rdf-syntax-ns#">
   <cc:Work>
    <dc:type rdf:resource="http://purl.org/dc/dcmitype/StillImage"/>
    <dc:date>2021-12-08T10:48:39.377743</dc:date>
    <dc:format>image/svg+xml</dc:format>
    <dc:creator>
     <cc:Agent>
      <dc:title>Matplotlib v3.4.3, https://matplotlib.org/</dc:title>
     </cc:Agent>
    </dc:creator>
   </cc:Work>
  </rdf:RDF>
 </metadata>
 <defs>
  <style type="text/css">*{stroke-linecap:butt;stroke-linejoin:round;}</style>
 </defs>
 <g id="figure_1">
  <g id="patch_1">
   <path d="M 0 345.6 
L 460.8 345.6 
L 460.8 0 
L 0 0 
z
" style="fill:#ffffff;"/>
  </g>
  <g id="axes_1">
   <g id="patch_2">
    <path d="M 47.81 303.64 
L 346.9252 303.64 
L 346.9252 25.44 
L 47.81 25.44 
z
" style="fill:#ffffff;"/>
   </g>
   <g id="PolyCollection_1">
    <defs>
     <path d="M 67.048769 -54.605455 
L 63.468005 -54.605455 
L 63.376637 -57.160092 
L 63.291501 -59.714729 
L 63.213451 -62.269366 
L 63.143175 -64.824004 
L 63.081178 -67.378641 
L 63.02776 -69.933278 
L 62.983018 -72.487916 
L 62.946843 -75.042553 
L 62.918928 -77.59719 
L 62.898789 -80.151827 
L 62.885781 -82.706465 
L 62.87913 -85.261102 
L 62.877963 -87.815739 
L 62.881338 -90.370376 
L 62.88828 -92.925014 
L 62.897811 -95.479651 
L 62.908981 -98.034288 
L 62.920887 -100.588926 
L 62.932703 -103.143563 
L 62.943684 -105.6982 
L 62.953183 -108.252837 
L 62.960652 -110.807475 
L 62.965639 -113.362112 
L 62.967786 -115.916749 
L 62.966818 -118.471387 
L 62.962537 -121.026024 
L 62.954804 -123.580661 
L 62.943535 -126.135298 
L 62.928689 -128.689936 
L 62.910258 -131.244573 
L 62.888265 -133.79921 
L 62.862756 -136.353848 
L 62.833805 -138.908485 
L 62.80151 -141.463122 
L 62.765994 -144.017759 
L 62.727412 -146.572397 
L 62.685944 -149.127034 
L 62.641805 -151.681671 
L 62.595235 -154.236309 
L 62.546499 -156.790946 
L 62.49588 -159.345583 
L 62.44367 -161.90022 
L 62.390159 -164.454858 
L 62.335623 -167.009495 
L 62.280312 -169.564132 
L 62.224438 -172.11877 
L 62.168161 -174.673407 
L 62.111582 -177.228044 
L 62.054734 -179.782681 
L 61.99758 -182.337319 
L 61.94001 -184.891956 
L 61.881846 -187.446593 
L 61.822846 -190.00123 
L 61.762715 -192.555868 
L 61.701114 -195.110505 
L 61.637678 -197.665142 
L 61.572025 -200.21978 
L 61.503779 -202.774417 
L 61.432582 -205.329054 
L 61.358111 -207.883691 
L 61.280092 -210.438329 
L 61.19832 -212.992966 
L 61.112664 -215.547603 
L 61.023084 -218.102241 
L 60.929635 -220.656878 
L 60.832477 -223.211515 
L 60.731872 -225.766152 
L 60.628192 -228.32079 
L 60.521906 -230.875427 
L 60.413582 -233.430064 
L 60.303874 -235.984702 
L 60.193512 -238.539339 
L 60.083288 -241.093976 
L 59.974046 -243.648613 
L 59.866669 -246.203251 
L 59.762065 -248.757888 
L 59.661162 -251.312525 
L 59.564899 -253.867163 
L 59.474224 -256.4218 
L 59.390097 -258.976437 
L 59.313489 -261.531074 
L 59.245391 -264.085712 
L 59.186814 -266.640349 
L 59.138801 -269.194986 
L 59.102422 -271.749624 
L 59.078774 -274.304261 
L 59.068973 -276.858898 
L 59.074135 -279.413535 
L 59.095355 -281.968173 
L 59.133674 -284.52281 
L 59.190037 -287.077447 
L 59.265256 -289.632084 
L 59.359954 -292.186722 
L 59.474524 -294.741359 
L 59.609079 -297.295996 
L 59.763416 -299.850634 
L 59.936982 -302.405271 
L 60.128861 -304.959908 
L 60.337764 -307.514545 
L 70.17901 -307.514545 
L 70.17901 -307.514545 
L 70.387912 -304.959908 
L 70.579791 -302.405271 
L 70.753358 -299.850634 
L 70.907695 -297.295996 
L 71.04225 -294.741359 
L 71.15682 -292.186722 
L 71.251518 -289.632084 
L 71.326736 -287.077447 
L 71.3831 -284.52281 
L 71.421418 -281.968173 
L 71.442638 -279.413535 
L 71.447801 -276.858898 
L 71.438 -274.304261 
L 71.414352 -271.749624 
L 71.377973 -269.194986 
L 71.329959 -266.640349 
L 71.271383 -264.085712 
L 71.203284 -261.531074 
L 71.126676 -258.976437 
L 71.042549 -256.4218 
L 70.951875 -253.867163 
L 70.855611 -251.312525 
L 70.754708 -248.757888 
L 70.650104 -246.203251 
L 70.542727 -243.648613 
L 70.433486 -241.093976 
L 70.323262 -238.539339 
L 70.212899 -235.984702 
L 70.103191 -233.430064 
L 69.994867 -230.875427 
L 69.888582 -228.32079 
L 69.784901 -225.766152 
L 69.684297 -223.211515 
L 69.587138 -220.656878 
L 69.493689 -218.102241 
L 69.404109 -215.547603 
L 69.318453 -212.992966 
L 69.236681 -210.438329 
L 69.158663 -207.883691 
L 69.084191 -205.329054 
L 69.012994 -202.774417 
L 68.944748 -200.21978 
L 68.879096 -197.665142 
L 68.815659 -195.110505 
L 68.754058 -192.555868 
L 68.693927 -190.00123 
L 68.634927 -187.446593 
L 68.576763 -184.891956 
L 68.519193 -182.337319 
L 68.462039 -179.782681 
L 68.405191 -177.228044 
L 68.348612 -174.673407 
L 68.292335 -172.11877 
L 68.236461 -169.564132 
L 68.181151 -167.009495 
L 68.126615 -164.454858 
L 68.073103 -161.90022 
L 68.020893 -159.345583 
L 67.970274 -156.790946 
L 67.921538 -154.236309 
L 67.874968 -151.681671 
L 67.830829 -149.127034 
L 67.789362 -146.572397 
L 67.750779 -144.017759 
L 67.715263 -141.463122 
L 67.682968 -138.908485 
L 67.654017 -136.353848 
L 67.628509 -133.79921 
L 67.606515 -131.244573 
L 67.588084 -128.689936 
L 67.573238 -126.135298 
L 67.56197 -123.580661 
L 67.554237 -121.026024 
L 67.549955 -118.471387 
L 67.548988 -115.916749 
L 67.551134 -113.362112 
L 67.556121 -110.807475 
L 67.56359 -108.252837 
L 67.573089 -105.6982 
L 67.58407 -103.143563 
L 67.595886 -100.588926 
L 67.607793 -98.034288 
L 67.618962 -95.479651 
L 67.628493 -92.925014 
L 67.635436 -90.370376 
L 67.638811 -87.815739 
L 67.637643 -85.261102 
L 67.630993 -82.706465 
L 67.617984 -80.151827 
L 67.597845 -77.59719 
L 67.56993 -75.042553 
L 67.533755 -72.487916 
L 67.489013 -69.933278 
L 67.435596 -67.378641 
L 67.373598 -64.824004 
L 67.303323 -62.269366 
L 67.225272 -59.714729 
L 67.140136 -57.160092 
L 67.048769 -54.605455 
z
" id="m9a7f76bd8e" style="stroke:#4c4c4c;stroke-width:1.5;"/>
    </defs>
    <g clip-path="url(#p06e23d7ada)">
     <use style="fill:#df7f20;stroke:#4c4c4c;stroke-width:1.5;" x="0" xlink:href="#m9a7f76bd8e" y="345.6"/>
    </g>
   </g>
   <g id="PolyCollection_2">
    <defs>
     <path d="M 162.218902 -54.605455 
L 157.737498 -54.605455 
L 157.644403 -57.160092 
L 157.561639 -59.714729 
L 157.490114 -62.269366 
L 157.430499 -64.824004 
L 157.383209 -67.378641 
L 157.3484 -69.933278 
L 157.325967 -72.487916 
L 157.315555 -75.042553 
L 157.316577 -77.59719 
L 157.328237 -80.151827 
L 157.349558 -82.706465 
L 157.37942 -85.261102 
L 157.416587 -87.815739 
L 157.45975 -90.370376 
L 157.507562 -92.925014 
L 157.558666 -95.479651 
L 157.611736 -98.034288 
L 157.665494 -100.588926 
L 157.718741 -103.143563 
L 157.770372 -105.6982 
L 157.819392 -108.252837 
L 157.864923 -110.807475 
L 157.90621 -113.362112 
L 157.942626 -115.916749 
L 157.973664 -118.471387 
L 157.998941 -121.026024 
L 158.018186 -123.580661 
L 158.031236 -126.135298 
L 158.038029 -128.689936 
L 158.038596 -131.244573 
L 158.033054 -133.79921 
L 158.0216 -136.353848 
L 158.004504 -138.908485 
L 157.982103 -141.463122 
L 157.954793 -144.017759 
L 157.923025 -146.572397 
L 157.887298 -149.127034 
L 157.848147 -151.681671 
L 157.806142 -154.236309 
L 157.761868 -156.790946 
L 157.715924 -159.345583 
L 157.668904 -161.90022 
L 157.621389 -164.454858 
L 157.573933 -167.009495 
L 157.527049 -169.564132 
L 157.4812 -172.11877 
L 157.436787 -174.673407 
L 157.39414 -177.228044 
L 157.353506 -179.782681 
L 157.315052 -182.337319 
L 157.27885 -184.891956 
L 157.244883 -187.446593 
L 157.213043 -190.00123 
L 157.183128 -192.555868 
L 157.154851 -195.110505 
L 157.12784 -197.665142 
L 157.101642 -200.21978 
L 157.075733 -202.774417 
L 157.049518 -205.329054 
L 157.022339 -207.883691 
L 156.993483 -210.438329 
L 156.962182 -212.992966 
L 156.927623 -215.547603 
L 156.888953 -218.102241 
L 156.845285 -220.656878 
L 156.795702 -223.211515 
L 156.739271 -225.766152 
L 156.675049 -228.32079 
L 156.602097 -230.875427 
L 156.519499 -233.430064 
L 156.426381 -235.984702 
L 156.321936 -238.539339 
L 156.205456 -241.093976 
L 156.076367 -243.648613 
L 155.934273 -246.203251 
L 155.778996 -248.757888 
L 155.61063 -251.312525 
L 155.429585 -253.867163 
L 155.236641 -256.4218 
L 155.032984 -258.976437 
L 154.82025 -261.531074 
L 154.600546 -264.085712 
L 154.37646 -266.640349 
L 154.151052 -269.194986 
L 153.927831 -271.749624 
L 153.710697 -274.304261 
L 153.503872 -276.858898 
L 153.311801 -279.413535 
L 153.139033 -281.968173 
L 152.990088 -284.52281 
L 152.86931 -287.077447 
L 152.780714 -289.632084 
L 152.727834 -292.186722 
L 152.713578 -294.741359 
L 152.740103 -297.295996 
L 152.808713 -299.850634 
L 152.919783 -302.405271 
L 153.072718 -304.959908 
L 153.265955 -307.514545 
L 166.690445 -307.514545 
L 166.690445 -307.514545 
L 166.883682 -304.959908 
L 167.036617 -302.405271 
L 167.147687 -299.850634 
L 167.216297 -297.295996 
L 167.242822 -294.741359 
L 167.228566 -292.186722 
L 167.175686 -289.632084 
L 167.08709 -287.077447 
L 166.966312 -284.52281 
L 166.817367 -281.968173 
L 166.644599 -279.413535 
L 166.452528 -276.858898 
L 166.245703 -274.304261 
L 166.028569 -271.749624 
L 165.805348 -269.194986 
L 165.57994 -266.640349 
L 165.355854 -264.085712 
L 165.13615 -261.531074 
L 164.923416 -258.976437 
L 164.719759 -256.4218 
L 164.526815 -253.867163 
L 164.34577 -251.312525 
L 164.177404 -248.757888 
L 164.022127 -246.203251 
L 163.880033 -243.648613 
L 163.750944 -241.093976 
L 163.634464 -238.539339 
L 163.530019 -235.984702 
L 163.436901 -233.430064 
L 163.354303 -230.875427 
L 163.281351 -228.32079 
L 163.217129 -225.766152 
L 163.160698 -223.211515 
L 163.111115 -220.656878 
L 163.067447 -218.102241 
L 163.028777 -215.547603 
L 162.994218 -212.992966 
L 162.962917 -210.438329 
L 162.934061 -207.883691 
L 162.906882 -205.329054 
L 162.880667 -202.774417 
L 162.854758 -200.21978 
L 162.82856 -197.665142 
L 162.801549 -195.110505 
L 162.773272 -192.555868 
L 162.743357 -190.00123 
L 162.711517 -187.446593 
L 162.67755 -184.891956 
L 162.641348 -182.337319 
L 162.602894 -179.782681 
L 162.56226 -177.228044 
L 162.519613 -174.673407 
L 162.4752 -172.11877 
L 162.429351 -169.564132 
L 162.382467 -167.009495 
L 162.335011 -164.454858 
L 162.287496 -161.90022 
L 162.240476 -159.345583 
L 162.194532 -156.790946 
L 162.150258 -154.236309 
L 162.108253 -151.681671 
L 162.069102 -149.127034 
L 162.033375 -146.572397 
L 162.001607 -144.017759 
L 161.974297 -141.463122 
L 161.951896 -138.908485 
L 161.9348 -136.353848 
L 161.923346 -133.79921 
L 161.917804 -131.244573 
L 161.918371 -128.689936 
L 161.925164 -126.135298 
L 161.938214 -123.580661 
L 161.957459 -121.026024 
L 161.982736 -118.471387 
L 162.013774 -115.916749 
L 162.05019 -113.362112 
L 162.091477 -110.807475 
L 162.137008 -108.252837 
L 162.186028 -105.6982 
L 162.237659 -103.143563 
L 162.290906 -100.588926 
L 162.344664 -98.034288 
L 162.397734 -95.479651 
L 162.448838 -92.925014 
L 162.49665 -90.370376 
L 162.539813 -87.815739 
L 162.57698 -85.261102 
L 162.606842 -82.706465 
L 162.628163 -80.151827 
L 162.639823 -77.59719 
L 162.640845 -75.042553 
L 162.630433 -72.487916 
L 162.608 -69.933278 
L 162.573191 -67.378641 
L 162.525901 -64.824004 
L 162.466286 -62.269366 
L 162.394761 -59.714729 
L 162.311997 -57.160092 
L 162.218902 -54.605455 
z
" id="m4fe517c1e5" style="stroke:#4c4c4c;stroke-width:1.5;"/>
    </defs>
    <g clip-path="url(#p06e23d7ada)">
     <use style="fill:#2020df;stroke:#4c4c4c;stroke-width:1.5;" x="0" xlink:href="#m4fe517c1e5" y="345.6"/>
    </g>
   </g>
   <g id="PolyCollection_3">
    <defs>
     <path d="M 182.546905 -54.605455 
L 177.291522 -54.605455 
L 177.176443 -57.160092 
L 177.073149 -59.714729 
L 176.982677 -62.269366 
L 176.905762 -64.824004 
L 176.842824 -67.378641 
L 176.793965 -69.933278 
L 176.758973 -72.487916 
L 176.737346 -75.042553 
L 176.728315 -77.59719 
L 176.730883 -80.151827 
L 176.743864 -82.706465 
L 176.765929 -85.261102 
L 176.79565 -87.815739 
L 176.831547 -90.370376 
L 176.87213 -92.925014 
L 176.915937 -95.479651 
L 176.961568 -98.034288 
L 177.007712 -100.588926 
L 177.053172 -103.143563 
L 177.09688 -105.6982 
L 177.137908 -108.252837 
L 177.175473 -110.807475 
L 177.20894 -113.362112 
L 177.237822 -115.916749 
L 177.261768 -118.471387 
L 177.280564 -121.026024 
L 177.294114 -123.580661 
L 177.302438 -126.135298 
L 177.30565 -128.689936 
L 177.303954 -131.244573 
L 177.29762 -133.79921 
L 177.286977 -136.353848 
L 177.272394 -138.908485 
L 177.254266 -141.463122 
L 177.233001 -144.017759 
L 177.209007 -146.572397 
L 177.182681 -149.127034 
L 177.154397 -151.681671 
L 177.124501 -154.236309 
L 177.093309 -156.790946 
L 177.0611 -159.345583 
L 177.028122 -161.90022 
L 176.994595 -164.454858 
L 176.960712 -167.009495 
L 176.926654 -169.564132 
L 176.892592 -172.11877 
L 176.858695 -174.673407 
L 176.825139 -177.228044 
L 176.79211 -179.782681 
L 176.759803 -182.337319 
L 176.728426 -184.891956 
L 176.698188 -187.446593 
L 176.669294 -190.00123 
L 176.641934 -192.555868 
L 176.616263 -195.110505 
L 176.59239 -197.665142 
L 176.570362 -200.21978 
L 176.550139 -202.774417 
L 176.531592 -205.329054 
L 176.51448 -207.883691 
L 176.498448 -210.438329 
L 176.483025 -212.992966 
L 176.467619 -215.547603 
L 176.451532 -218.102241 
L 176.433966 -220.656878 
L 176.414041 -223.211515 
L 176.390818 -225.766152 
L 176.363321 -228.32079 
L 176.330566 -230.875427 
L 176.291586 -233.430064 
L 176.245468 -235.984702 
L 176.19138 -238.539339 
L 176.128604 -241.093976 
L 176.05657 -243.648613 
L 175.974887 -246.203251 
L 175.883376 -248.757888 
L 175.782101 -251.312525 
L 175.671396 -253.867163 
L 175.551898 -256.4218 
L 175.424567 -258.976437 
L 175.290703 -261.531074 
L 175.151959 -264.085712 
L 175.010341 -266.640349 
L 174.868199 -269.194986 
L 174.7282 -271.749624 
L 174.59329 -274.304261 
L 174.466639 -276.858898 
L 174.351569 -279.413535 
L 174.251465 -281.968173 
L 174.169679 -284.52281 
L 174.109417 -287.077447 
L 174.073625 -289.632084 
L 174.064877 -292.186722 
L 174.085262 -294.741359 
L 174.13629 -297.295996 
L 174.218809 -299.850634 
L 174.332956 -302.405271 
L 174.478116 -304.959908 
L 174.652934 -307.514545 
L 185.185493 -307.514545 
L 185.185493 -307.514545 
L 185.36031 -304.959908 
L 185.505471 -302.405271 
L 185.619617 -299.850634 
L 185.702137 -297.295996 
L 185.753164 -294.741359 
L 185.773549 -292.186722 
L 185.764801 -289.632084 
L 185.72901 -287.077447 
L 185.668748 -284.52281 
L 185.586962 -281.968173 
L 185.486858 -279.413535 
L 185.371788 -276.858898 
L 185.245137 -274.304261 
L 185.110227 -271.749624 
L 184.970228 -269.194986 
L 184.828086 -266.640349 
L 184.686468 -264.085712 
L 184.547724 -261.531074 
L 184.41386 -258.976437 
L 184.286529 -256.4218 
L 184.167031 -253.867163 
L 184.056326 -251.312525 
L 183.95505 -248.757888 
L 183.863539 -246.203251 
L 183.781857 -243.648613 
L 183.709823 -241.093976 
L 183.647047 -238.539339 
L 183.592959 -235.984702 
L 183.546841 -233.430064 
L 183.507861 -230.875427 
L 183.475105 -228.32079 
L 183.447609 -225.766152 
L 183.424386 -223.211515 
L 183.404461 -220.656878 
L 183.386895 -218.102241 
L 183.370807 -215.547603 
L 183.355402 -212.992966 
L 183.339978 -210.438329 
L 183.323947 -207.883691 
L 183.306835 -205.329054 
L 183.288287 -202.774417 
L 183.268065 -200.21978 
L 183.246036 -197.665142 
L 183.222164 -195.110505 
L 183.196493 -192.555868 
L 183.169132 -190.00123 
L 183.140239 -187.446593 
L 183.110001 -184.891956 
L 183.078623 -182.337319 
L 183.046317 -179.782681 
L 183.013288 -177.228044 
L 182.979732 -174.673407 
L 182.945835 -172.11877 
L 182.911772 -169.564132 
L 182.877714 -167.009495 
L 182.843832 -164.454858 
L 182.810304 -161.90022 
L 182.777327 -159.345583 
L 182.745118 -156.790946 
L 182.713926 -154.236309 
L 182.68403 -151.681671 
L 182.655746 -149.127034 
L 182.629419 -146.572397 
L 182.605426 -144.017759 
L 182.584161 -141.463122 
L 182.566033 -138.908485 
L 182.55145 -136.353848 
L 182.540806 -133.79921 
L 182.534473 -131.244573 
L 182.532776 -128.689936 
L 182.535989 -126.135298 
L 182.544313 -123.580661 
L 182.557863 -121.026024 
L 182.576658 -118.471387 
L 182.600605 -115.916749 
L 182.629486 -113.362112 
L 182.662954 -110.807475 
L 182.700519 -108.252837 
L 182.741547 -105.6982 
L 182.785255 -103.143563 
L 182.830715 -100.588926 
L 182.876859 -98.034288 
L 182.922489 -95.479651 
L 182.966296 -92.925014 
L 183.00688 -90.370376 
L 183.042777 -87.815739 
L 183.072498 -85.261102 
L 183.094563 -82.706465 
L 183.107544 -80.151827 
L 183.110112 -77.59719 
L 183.101081 -75.042553 
L 183.079454 -72.487916 
L 183.044462 -69.933278 
L 182.995602 -67.378641 
L 182.932665 -64.824004 
L 182.855749 -62.269366 
L 182.765277 -59.714729 
L 182.661984 -57.160092 
L 182.546905 -54.605455 
z
" id="m9ad75b4fe3" style="stroke:#4c4c4c;stroke-width:1.5;"/>
    </defs>
    <g clip-path="url(#p06e23d7ada)">
     <use style="fill:#20dfdf;stroke:#4c4c4c;stroke-width:1.5;" x="0" xlink:href="#m9ad75b4fe3" y="345.6"/>
    </g>
   </g>
   <g id="PolyCollection_4">
    <defs>
     <path d="M 236.813472 -54.605455 
L 232.700528 -54.605455 
L 232.590364 -57.160092 
L 232.489038 -59.714729 
L 232.397705 -62.269366 
L 232.31729 -64.824004 
L 232.248465 -67.378641 
L 232.191648 -69.933278 
L 232.147001 -72.487916 
L 232.114449 -75.042553 
L 232.093694 -77.59719 
L 232.084238 -80.151827 
L 232.085414 -82.706465 
L 232.096409 -85.261102 
L 232.116297 -87.815739 
L 232.144062 -90.370376 
L 232.178624 -92.925014 
L 232.218864 -95.479651 
L 232.263644 -98.034288 
L 232.311829 -100.588926 
L 232.3623 -103.143563 
L 232.413978 -105.6982 
L 232.465834 -108.252837 
L 232.51691 -110.807475 
L 232.566326 -113.362112 
L 232.613297 -115.916749 
L 232.657143 -118.471387 
L 232.697293 -121.026024 
L 232.733293 -123.580661 
L 232.764804 -126.135298 
L 232.791601 -128.689936 
L 232.813565 -131.244573 
L 232.830672 -133.79921 
L 232.842983 -136.353848 
L 232.850624 -138.908485 
L 232.853773 -141.463122 
L 232.852641 -144.017759 
L 232.847457 -146.572397 
L 232.838451 -149.127034 
L 232.825843 -151.681671 
L 232.809834 -154.236309 
L 232.790601 -156.790946 
L 232.76829 -159.345583 
L 232.74302 -161.90022 
L 232.714886 -164.454858 
L 232.683966 -167.009495 
L 232.650322 -169.564132 
L 232.614015 -172.11877 
L 232.575109 -174.673407 
L 232.533675 -177.228044 
L 232.489805 -179.782681 
L 232.443607 -182.337319 
L 232.395212 -184.891956 
L 232.344768 -187.446593 
L 232.292445 -190.00123 
L 232.238421 -192.555868 
L 232.182881 -195.110505 
L 232.126004 -197.665142 
L 232.067958 -200.21978 
L 232.00888 -202.774417 
L 231.948875 -205.329054 
L 231.887995 -207.883691 
L 231.826233 -210.438329 
L 231.763511 -212.992966 
L 231.699666 -215.547603 
L 231.634448 -218.102241 
L 231.567501 -220.656878 
L 231.498368 -223.211515 
L 231.426475 -225.766152 
L 231.351135 -228.32079 
L 231.271545 -230.875427 
L 231.186789 -233.430064 
L 231.095848 -235.984702 
L 230.997611 -238.539339 
L 230.8909 -241.093976 
L 230.774501 -243.648613 
L 230.647203 -246.203251 
L 230.507856 -248.757888 
L 230.355431 -251.312525 
L 230.189101 -253.867163 
L 230.008329 -256.4218 
L 229.812959 -258.976437 
L 229.603315 -261.531074 
L 229.380298 -264.085712 
L 229.145471 -266.640349 
L 228.901124 -269.194986 
L 228.650325 -271.749624 
L 228.396925 -274.304261 
L 228.145532 -276.858898 
L 227.901438 -279.413535 
L 227.670497 -281.968173 
L 227.458962 -284.52281 
L 227.273272 -287.077447 
L 227.119814 -289.632084 
L 227.004655 -292.186722 
L 226.933266 -294.741359 
L 226.910255 -297.295996 
L 226.939126 -299.850634 
L 227.022073 -302.405271 
L 227.159834 -304.959908 
L 227.351609 -307.514545 
L 242.162391 -307.514545 
L 242.162391 -307.514545 
L 242.354166 -304.959908 
L 242.491927 -302.405271 
L 242.574874 -299.850634 
L 242.603745 -297.295996 
L 242.580734 -294.741359 
L 242.509345 -292.186722 
L 242.394186 -289.632084 
L 242.240728 -287.077447 
L 242.055038 -284.52281 
L 241.843503 -281.968173 
L 241.612562 -279.413535 
L 241.368468 -276.858898 
L 241.117075 -274.304261 
L 240.863675 -271.749624 
L 240.612876 -269.194986 
L 240.368529 -266.640349 
L 240.133702 -264.085712 
L 239.910685 -261.531074 
L 239.701041 -258.976437 
L 239.505671 -256.4218 
L 239.324899 -253.867163 
L 239.158569 -251.312525 
L 239.006144 -248.757888 
L 238.866797 -246.203251 
L 238.739499 -243.648613 
L 238.6231 -241.093976 
L 238.516389 -238.539339 
L 238.418152 -235.984702 
L 238.327211 -233.430064 
L 238.242455 -230.875427 
L 238.162865 -228.32079 
L 238.087525 -225.766152 
L 238.015632 -223.211515 
L 237.946499 -220.656878 
L 237.879552 -218.102241 
L 237.814334 -215.547603 
L 237.750489 -212.992966 
L 237.687767 -210.438329 
L 237.626005 -207.883691 
L 237.565125 -205.329054 
L 237.50512 -202.774417 
L 237.446042 -200.21978 
L 237.387996 -197.665142 
L 237.331119 -195.110505 
L 237.275579 -192.555868 
L 237.221555 -190.00123 
L 237.169232 -187.446593 
L 237.118788 -184.891956 
L 237.070393 -182.337319 
L 237.024195 -179.782681 
L 236.980325 -177.228044 
L 236.938891 -174.673407 
L 236.899985 -172.11877 
L 236.863678 -169.564132 
L 236.830034 -167.009495 
L 236.799114 -164.454858 
L 236.77098 -161.90022 
L 236.74571 -159.345583 
L 236.723399 -156.790946 
L 236.704166 -154.236309 
L 236.688157 -151.681671 
L 236.675549 -149.127034 
L 236.666543 -146.572397 
L 236.661359 -144.017759 
L 236.660227 -141.463122 
L 236.663376 -138.908485 
L 236.671017 -136.353848 
L 236.683328 -133.79921 
L 236.700435 -131.244573 
L 236.722399 -128.689936 
L 236.749196 -126.135298 
L 236.780707 -123.580661 
L 236.816707 -121.026024 
L 236.856857 -118.471387 
L 236.900703 -115.916749 
L 236.947674 -113.362112 
L 236.99709 -110.807475 
L 237.048166 -108.252837 
L 237.100022 -105.6982 
L 237.1517 -103.143563 
L 237.202171 -100.588926 
L 237.250356 -98.034288 
L 237.295136 -95.479651 
L 237.335376 -92.925014 
L 237.369938 -90.370376 
L 237.397703 -87.815739 
L 237.417591 -85.261102 
L 237.428586 -82.706465 
L 237.429762 -80.151827 
L 237.420306 -77.59719 
L 237.399551 -75.042553 
L 237.366999 -72.487916 
L 237.322352 -69.933278 
L 237.265535 -67.378641 
L 237.19671 -64.824004 
L 237.116295 -62.269366 
L 237.024962 -59.714729 
L 236.923636 -57.160092 
L 236.813472 -54.605455 
z
" id="m224f32dfd9" style="stroke:#4c4c4c;stroke-width:1.5;"/>
    </defs>
    <g clip-path="url(#p06e23d7ada)">
     <use style="fill:#2020df;stroke:#4c4c4c;stroke-width:1.5;" x="0" xlink:href="#m224f32dfd9" y="345.6"/>
    </g>
   </g>
   <g id="PolyCollection_5">
    <defs>
     <path d="M 256.8386 -54.605455 
L 252.557426 -54.605455 
L 252.41839 -57.160092 
L 252.28859 -59.714729 
L 252.169541 -62.269366 
L 252.062383 -64.824004 
L 251.967843 -67.378641 
L 251.886227 -69.933278 
L 251.817432 -72.487916 
L 251.760978 -75.042553 
L 251.716056 -77.59719 
L 251.681589 -80.151827 
L 251.65631 -82.706465 
L 251.638828 -85.261102 
L 251.627712 -87.815739 
L 251.621556 -90.370376 
L 251.619044 -92.925014 
L 251.618996 -95.479651 
L 251.620411 -98.034288 
L 251.622486 -100.588926 
L 251.624631 -103.143563 
L 251.62646 -105.6982 
L 251.627778 -108.252837 
L 251.628559 -110.807475 
L 251.628907 -113.362112 
L 251.629026 -115.916749 
L 251.629174 -118.471387 
L 251.629628 -121.026024 
L 251.63065 -123.580661 
L 251.632453 -126.135298 
L 251.635178 -128.689936 
L 251.638885 -131.244573 
L 251.643537 -133.79921 
L 251.649014 -136.353848 
L 251.655116 -138.908485 
L 251.661582 -141.463122 
L 251.668117 -144.017759 
L 251.674411 -146.572397 
L 251.680173 -149.127034 
L 251.685148 -151.681671 
L 251.689145 -154.236309 
L 251.69205 -156.790946 
L 251.693835 -159.345583 
L 251.694566 -161.90022 
L 251.694391 -164.454858 
L 251.693538 -167.009495 
L 251.692293 -169.564132 
L 251.690981 -172.11877 
L 251.689944 -174.673407 
L 251.689515 -177.228044 
L 251.689989 -179.782681 
L 251.69161 -182.337319 
L 251.694543 -184.891956 
L 251.698862 -187.446593 
L 251.704541 -190.00123 
L 251.711447 -192.555868 
L 251.719345 -195.110505 
L 251.7279 -197.665142 
L 251.73669 -200.21978 
L 251.74522 -202.774417 
L 251.752939 -205.329054 
L 251.759255 -207.883691 
L 251.763552 -210.438329 
L 251.765205 -212.992966 
L 251.76359 -215.547603 
L 251.75809 -218.102241 
L 251.748096 -220.656878 
L 251.733002 -223.211515 
L 251.712195 -225.766152 
L 251.685044 -228.32079 
L 251.65088 -230.875427 
L 251.608982 -233.430064 
L 251.558557 -235.984702 
L 251.498731 -238.539339 
L 251.428542 -241.093976 
L 251.346945 -243.648613 
L 251.252833 -246.203251 
L 251.145064 -248.757888 
L 251.02252 -251.312525 
L 250.884175 -253.867163 
L 250.729184 -256.4218 
L 250.55699 -258.976437 
L 250.367449 -261.531074 
L 250.160956 -264.085712 
L 249.938578 -266.640349 
L 249.702177 -269.194986 
L 249.454508 -271.749624 
L 249.199287 -274.304261 
L 248.941216 -276.858898 
L 248.685945 -279.413535 
L 248.43997 -281.968173 
L 248.210461 -284.52281 
L 248.005022 -287.077447 
L 247.831385 -289.632084 
L 247.697054 -292.186722 
L 247.608926 -294.741359 
L 247.572901 -297.295996 
L 247.593519 -299.850634 
L 247.673651 -302.405271 
L 247.814266 -304.959908 
L 248.014305 -307.514545 
L 261.381722 -307.514545 
L 261.381722 -307.514545 
L 261.58176 -304.959908 
L 261.722376 -302.405271 
L 261.802508 -299.850634 
L 261.823126 -297.295996 
L 261.787101 -294.741359 
L 261.698973 -292.186722 
L 261.564642 -289.632084 
L 261.391004 -287.077447 
L 261.185565 -284.52281 
L 260.956057 -281.968173 
L 260.710081 -279.413535 
L 260.45481 -276.858898 
L 260.19674 -274.304261 
L 259.941519 -271.749624 
L 259.69385 -269.194986 
L 259.457449 -266.640349 
L 259.235071 -264.085712 
L 259.028578 -261.531074 
L 258.839036 -258.976437 
L 258.666843 -256.4218 
L 258.511851 -253.867163 
L 258.373507 -251.312525 
L 258.250963 -248.757888 
L 258.143194 -246.203251 
L 258.049081 -243.648613 
L 257.967485 -241.093976 
L 257.897296 -238.539339 
L 257.83747 -235.984702 
L 257.787045 -233.430064 
L 257.745147 -230.875427 
L 257.710983 -228.32079 
L 257.683832 -225.766152 
L 257.663025 -223.211515 
L 257.64793 -220.656878 
L 257.637936 -218.102241 
L 257.632437 -215.547603 
L 257.630822 -212.992966 
L 257.632475 -210.438329 
L 257.636772 -207.883691 
L 257.643087 -205.329054 
L 257.650806 -202.774417 
L 257.659337 -200.21978 
L 257.668127 -197.665142 
L 257.676681 -195.110505 
L 257.684579 -192.555868 
L 257.691486 -190.00123 
L 257.697165 -187.446593 
L 257.701484 -184.891956 
L 257.704416 -182.337319 
L 257.706037 -179.782681 
L 257.706512 -177.228044 
L 257.706082 -174.673407 
L 257.705045 -172.11877 
L 257.703734 -169.564132 
L 257.702489 -167.009495 
L 257.701636 -164.454858 
L 257.701461 -161.90022 
L 257.702191 -159.345583 
L 257.703977 -156.790946 
L 257.706882 -154.236309 
L 257.710879 -151.681671 
L 257.715854 -149.127034 
L 257.721616 -146.572397 
L 257.72791 -144.017759 
L 257.734445 -141.463122 
L 257.740911 -138.908485 
L 257.747012 -136.353848 
L 257.752489 -133.79921 
L 257.757142 -131.244573 
L 257.760848 -128.689936 
L 257.763574 -126.135298 
L 257.765376 -123.580661 
L 257.766398 -121.026024 
L 257.766853 -118.471387 
L 257.767001 -115.916749 
L 257.767119 -113.362112 
L 257.767468 -110.807475 
L 257.768248 -108.252837 
L 257.769567 -105.6982 
L 257.771396 -103.143563 
L 257.77354 -100.588926 
L 257.775616 -98.034288 
L 257.777031 -95.479651 
L 257.776983 -92.925014 
L 257.77447 -90.370376 
L 257.768315 -87.815739 
L 257.757199 -85.261102 
L 257.739717 -82.706465 
L 257.714437 -80.151827 
L 257.679971 -77.59719 
L 257.635048 -75.042553 
L 257.578594 -72.487916 
L 257.5098 -69.933278 
L 257.428184 -67.378641 
L 257.333643 -64.824004 
L 257.226485 -62.269366 
L 257.107437 -59.714729 
L 256.977637 -57.160092 
L 256.8386 -54.605455 
z
" id="m8331f58fc2" style="stroke:#4c4c4c;stroke-width:1.5;"/>
    </defs>
    <g clip-path="url(#p06e23d7ada)">
     <use style="fill:#20dfdf;stroke:#4c4c4c;stroke-width:1.5;" x="0" xlink:href="#m8331f58fc2" y="345.6"/>
    </g>
   </g>
   <g id="PolyCollection_6">
    <defs>
     <path d="M 311.561854 -54.605455 
L 307.509746 -54.605455 
L 307.388351 -57.160092 
L 307.275511 -59.714729 
L 307.172613 -62.269366 
L 307.080802 -64.824004 
L 307.000951 -67.378641 
L 306.933656 -69.933278 
L 306.879228 -72.487916 
L 306.837705 -75.042553 
L 306.808862 -77.59719 
L 306.792235 -80.151827 
L 306.787142 -82.706465 
L 306.792707 -85.261102 
L 306.807893 -87.815739 
L 306.831526 -90.370376 
L 306.862322 -92.925014 
L 306.898921 -95.479651 
L 306.939912 -98.034288 
L 306.983869 -100.588926 
L 307.029372 -103.143563 
L 307.075047 -105.6982 
L 307.119591 -108.252837 
L 307.161801 -110.807475 
L 307.200603 -113.362112 
L 307.235072 -115.916749 
L 307.264451 -118.471387 
L 307.288171 -121.026024 
L 307.30585 -123.580661 
L 307.317308 -126.135298 
L 307.322554 -128.689936 
L 307.321787 -131.244573 
L 307.315379 -133.79921 
L 307.303859 -136.353848 
L 307.287892 -138.908485 
L 307.268255 -141.463122 
L 307.245807 -144.017759 
L 307.221462 -146.572397 
L 307.196152 -149.127034 
L 307.170794 -151.681671 
L 307.146255 -154.236309 
L 307.123319 -156.790946 
L 307.10265 -159.345583 
L 307.084764 -161.90022 
L 307.070006 -164.454858 
L 307.058528 -167.009495 
L 307.050285 -169.564132 
L 307.045029 -172.11877 
L 307.042322 -174.673407 
L 307.04156 -177.228044 
L 307.041997 -179.782681 
L 307.042788 -182.337319 
L 307.043035 -184.891956 
L 307.041833 -187.446593 
L 307.038324 -190.00123 
L 307.031742 -192.555868 
L 307.021452 -195.110505 
L 307.006987 -197.665142 
L 306.988068 -200.21978 
L 306.964607 -202.774417 
L 306.936708 -205.329054 
L 306.904639 -207.883691 
L 306.868805 -210.438329 
L 306.829695 -212.992966 
L 306.787831 -215.547603 
L 306.743707 -218.102241 
L 306.69772 -220.656878 
L 306.650109 -223.211515 
L 306.600891 -225.766152 
L 306.549814 -228.32079 
L 306.496309 -230.875427 
L 306.439465 -233.430064 
L 306.378017 -235.984702 
L 306.310355 -238.539339 
L 306.23455 -241.093976 
L 306.148407 -243.648613 
L 306.049534 -246.203251 
L 305.935442 -248.757888 
L 305.803659 -251.312525 
L 305.651868 -253.867163 
L 305.478061 -256.4218 
L 305.280704 -258.976437 
L 305.05891 -261.531074 
L 304.812607 -264.085712 
L 304.542694 -266.640349 
L 304.251179 -269.194986 
L 303.941269 -271.749624 
L 303.617429 -274.304261 
L 303.28537 -276.858898 
L 302.951975 -279.413535 
L 302.625149 -281.968173 
L 302.313595 -284.52281 
L 302.026521 -287.077447 
L 301.773285 -289.632084 
L 301.562991 -292.186722 
L 301.404074 -294.741359 
L 301.30387 -297.295996 
L 301.268234 -299.850634 
L 301.301196 -302.405271 
L 301.404717 -304.959908 
L 301.578537 -307.514545 
L 317.493063 -307.514545 
L 317.493063 -307.514545 
L 317.666883 -304.959908 
L 317.770404 -302.405271 
L 317.803366 -299.850634 
L 317.76773 -297.295996 
L 317.667526 -294.741359 
L 317.508609 -292.186722 
L 317.298315 -289.632084 
L 317.045079 -287.077447 
L 316.758005 -284.52281 
L 316.446451 -281.968173 
L 316.119625 -279.413535 
L 315.78623 -276.858898 
L 315.454171 -274.304261 
L 315.130331 -271.749624 
L 314.820421 -269.194986 
L 314.528906 -266.640349 
L 314.258993 -264.085712 
L 314.01269 -261.531074 
L 313.790896 -258.976437 
L 313.593539 -256.4218 
L 313.419732 -253.867163 
L 313.267941 -251.312525 
L 313.136158 -248.757888 
L 313.022066 -246.203251 
L 312.923193 -243.648613 
L 312.83705 -241.093976 
L 312.761245 -238.539339 
L 312.693583 -235.984702 
L 312.632135 -233.430064 
L 312.575291 -230.875427 
L 312.521786 -228.32079 
L 312.470709 -225.766152 
L 312.421491 -223.211515 
L 312.37388 -220.656878 
L 312.327893 -218.102241 
L 312.283769 -215.547603 
L 312.241905 -212.992966 
L 312.202795 -210.438329 
L 312.166961 -207.883691 
L 312.134892 -205.329054 
L 312.106993 -202.774417 
L 312.083532 -200.21978 
L 312.064613 -197.665142 
L 312.050148 -195.110505 
L 312.039858 -192.555868 
L 312.033276 -190.00123 
L 312.029767 -187.446593 
L 312.028565 -184.891956 
L 312.028812 -182.337319 
L 312.029603 -179.782681 
L 312.03004 -177.228044 
L 312.029278 -174.673407 
L 312.026571 -172.11877 
L 312.021315 -169.564132 
L 312.013072 -167.009495 
L 312.001594 -164.454858 
L 311.986836 -161.90022 
L 311.96895 -159.345583 
L 311.948281 -156.790946 
L 311.925345 -154.236309 
L 311.900806 -151.681671 
L 311.875448 -149.127034 
L 311.850138 -146.572397 
L 311.825793 -144.017759 
L 311.803345 -141.463122 
L 311.783708 -138.908485 
L 311.767741 -136.353848 
L 311.756221 -133.79921 
L 311.749813 -131.244573 
L 311.749046 -128.689936 
L 311.754292 -126.135298 
L 311.76575 -123.580661 
L 311.783429 -121.026024 
L 311.807149 -118.471387 
L 311.836528 -115.916749 
L 311.870997 -113.362112 
L 311.909799 -110.807475 
L 311.952009 -108.252837 
L 311.996553 -105.6982 
L 312.042228 -103.143563 
L 312.087731 -100.588926 
L 312.131688 -98.034288 
L 312.172679 -95.479651 
L 312.209278 -92.925014 
L 312.240074 -90.370376 
L 312.263707 -87.815739 
L 312.278893 -85.261102 
L 312.284458 -82.706465 
L 312.279365 -80.151827 
L 312.262738 -77.59719 
L 312.233895 -75.042553 
L 312.192372 -72.487916 
L 312.137944 -69.933278 
L 312.070649 -67.378641 
L 311.990798 -64.824004 
L 311.898987 -62.269366 
L 311.796089 -59.714729 
L 311.683249 -57.160092 
L 311.561854 -54.605455 
z
" id="mfd664a2e36" style="stroke:#4c4c4c;stroke-width:1.5;"/>
    </defs>
    <g clip-path="url(#p06e23d7ada)">
     <use style="fill:#2020df;stroke:#4c4c4c;stroke-width:1.5;" x="0" xlink:href="#mfd664a2e36" y="345.6"/>
    </g>
   </g>
   <g id="PolyCollection_7">
    <defs>
     <path d="M 331.383413 -54.605455 
L 327.570214 -54.605455 
L 327.453014 -57.160092 
L 327.348624 -59.714729 
L 327.258395 -62.269366 
L 327.183099 -64.824004 
L 327.122925 -67.378641 
L 327.077508 -69.933278 
L 327.045994 -72.487916 
L 327.027121 -75.042553 
L 327.019323 -77.59719 
L 327.020837 -80.151827 
L 327.029811 -82.706465 
L 327.044406 -85.261102 
L 327.062878 -87.815739 
L 327.083656 -90.370376 
L 327.105389 -92.925014 
L 327.126987 -95.479651 
L 327.147627 -98.034288 
L 327.166762 -100.588926 
L 327.184094 -103.143563 
L 327.199549 -105.6982 
L 327.213232 -108.252837 
L 327.225382 -110.807475 
L 327.236316 -113.362112 
L 327.246377 -115.916749 
L 327.255885 -118.471387 
L 327.265089 -121.026024 
L 327.274137 -123.580661 
L 327.283049 -126.135298 
L 327.291704 -128.689936 
L 327.299844 -131.244573 
L 327.307087 -133.79921 
L 327.312953 -136.353848 
L 327.316901 -138.908485 
L 327.318371 -141.463122 
L 327.316832 -144.017759 
L 327.311827 -146.572397 
L 327.303019 -149.127034 
L 327.290228 -151.681671 
L 327.273453 -154.236309 
L 327.252889 -156.790946 
L 327.228928 -159.345583 
L 327.202142 -161.90022 
L 327.173259 -164.454858 
L 327.143123 -167.009495 
L 327.112648 -169.564132 
L 327.082768 -172.11877 
L 327.054381 -174.673407 
L 327.028302 -177.228044 
L 327.005211 -179.782681 
L 326.985616 -182.337319 
L 326.969827 -184.891956 
L 326.957927 -187.446593 
L 326.949776 -190.00123 
L 326.945007 -192.555868 
L 326.943048 -195.110505 
L 326.943145 -197.665142 
L 326.944406 -200.21978 
L 326.945841 -202.774417 
L 326.946418 -205.329054 
L 326.945116 -207.883691 
L 326.940975 -210.438329 
L 326.933146 -212.992966 
L 326.920928 -215.547603 
L 326.903787 -218.102241 
L 326.881368 -220.656878 
L 326.853474 -223.211515 
L 326.820035 -225.766152 
L 326.781052 -228.32079 
L 326.736516 -230.875427 
L 326.686328 -233.430064 
L 326.630192 -235.984702 
L 326.567512 -238.539339 
L 326.497296 -241.093976 
L 326.418068 -243.648613 
L 326.327799 -246.203251 
L 326.22388 -248.757888 
L 326.103128 -251.312525 
L 325.961844 -253.867163 
L 325.795946 -256.4218 
L 325.601154 -258.976437 
L 325.373262 -261.531074 
L 325.108478 -264.085712 
L 324.80383 -266.640349 
L 324.457618 -269.194986 
L 324.069884 -271.749624 
L 323.642867 -274.304261 
L 323.181388 -276.858898 
L 322.693122 -279.413535 
L 322.188693 -281.968173 
L 321.681562 -284.52281 
L 321.187662 -287.077447 
L 320.724781 -289.632084 
L 320.311701 -292.186722 
L 319.967147 -294.741359 
L 319.708611 -297.295996 
L 319.551158 -299.850634 
L 319.506307 -302.405271 
L 319.581115 -304.959908 
L 319.777547 -307.514545 
L 339.17608 -307.514545 
L 339.17608 -307.514545 
L 339.372512 -304.959908 
L 339.44732 -302.405271 
L 339.402469 -299.850634 
L 339.245016 -297.295996 
L 338.98648 -294.741359 
L 338.641926 -292.186722 
L 338.228845 -289.632084 
L 337.765964 -287.077447 
L 337.272064 -284.52281 
L 336.764933 -281.968173 
L 336.260505 -279.413535 
L 335.772239 -276.858898 
L 335.31076 -274.304261 
L 334.883743 -271.749624 
L 334.496009 -269.194986 
L 334.149797 -266.640349 
L 333.845149 -264.085712 
L 333.580365 -261.531074 
L 333.352473 -258.976437 
L 333.15768 -256.4218 
L 332.991782 -253.867163 
L 332.850499 -251.312525 
L 332.729746 -248.757888 
L 332.625828 -246.203251 
L 332.535559 -243.648613 
L 332.45633 -241.093976 
L 332.386115 -238.539339 
L 332.323435 -235.984702 
L 332.267298 -233.430064 
L 332.21711 -230.875427 
L 332.172575 -228.32079 
L 332.133591 -225.766152 
L 332.100153 -223.211515 
L 332.072259 -220.656878 
L 332.04984 -218.102241 
L 332.032699 -215.547603 
L 332.02048 -212.992966 
L 332.012652 -210.438329 
L 332.008511 -207.883691 
L 332.007208 -205.329054 
L 332.007786 -202.774417 
L 332.009221 -200.21978 
L 332.010482 -197.665142 
L 332.010579 -195.110505 
L 332.00862 -192.555868 
L 332.003851 -190.00123 
L 331.9957 -187.446593 
L 331.9838 -184.891956 
L 331.96801 -182.337319 
L 331.948416 -179.782681 
L 331.925325 -177.228044 
L 331.899245 -174.673407 
L 331.870859 -172.11877 
L 331.840978 -169.564132 
L 331.810503 -167.009495 
L 331.780367 -164.454858 
L 331.751484 -161.90022 
L 331.724699 -159.345583 
L 331.700738 -156.790946 
L 331.680174 -154.236309 
L 331.663399 -151.681671 
L 331.650607 -149.127034 
L 331.6418 -146.572397 
L 331.636795 -144.017759 
L 331.635255 -141.463122 
L 331.636725 -138.908485 
L 331.640673 -136.353848 
L 331.64654 -133.79921 
L 331.653783 -131.244573 
L 331.661923 -128.689936 
L 331.670578 -126.135298 
L 331.679489 -123.580661 
L 331.688538 -121.026024 
L 331.697742 -118.471387 
L 331.707249 -115.916749 
L 331.71731 -113.362112 
L 331.728244 -110.807475 
L 331.740395 -108.252837 
L 331.754078 -105.6982 
L 331.769533 -103.143563 
L 331.786865 -100.588926 
L 331.805999 -98.034288 
L 331.82664 -95.479651 
L 331.848237 -92.925014 
L 331.869971 -90.370376 
L 331.890749 -87.815739 
L 331.909221 -85.261102 
L 331.923816 -82.706465 
L 331.93279 -80.151827 
L 331.934304 -77.59719 
L 331.926505 -75.042553 
L 331.907632 -72.487916 
L 331.876118 -69.933278 
L 331.830702 -67.378641 
L 331.770528 -64.824004 
L 331.695232 -62.269366 
L 331.605003 -59.714729 
L 331.500613 -57.160092 
L 331.383413 -54.605455 
z
" id="m8ca933de22" style="stroke:#4c4c4c;stroke-width:1.5;"/>
    </defs>
    <g clip-path="url(#p06e23d7ada)">
     <use style="fill:#20dfdf;stroke:#4c4c4c;stroke-width:1.5;" x="0" xlink:href="#m8ca933de22" y="345.6"/>
    </g>
   </g>
   <g id="patch_3">
    <path clip-path="url(#p06e23d7ada)" d="M 85.1994 325.482149 
L 85.1994 325.482149 
L 85.1994 325.482149 
L 85.1994 325.482149 
z
" style="fill:#df7f20;stroke:#4c4c4c;stroke-linejoin:miter;stroke-width:0.75;"/>
   </g>
   <g id="patch_4">
    <path clip-path="url(#p06e23d7ada)" d="M 85.1994 325.482149 
L 85.1994 325.482149 
L 85.1994 325.482149 
L 85.1994 325.482149 
z
" style="fill:#2020df;stroke:#4c4c4c;stroke-linejoin:miter;stroke-width:0.75;"/>
   </g>
   <g id="patch_5">
    <path clip-path="url(#p06e23d7ada)" d="M 85.1994 325.482149 
L 85.1994 325.482149 
L 85.1994 325.482149 
L 85.1994 325.482149 
z
" style="fill:#20dfdf;stroke:#4c4c4c;stroke-linejoin:miter;stroke-width:0.75;"/>
   </g>
   <g id="matplotlib.axis_1">
    <g id="xtick_1">
     <g id="line2d_1">
      <defs>
       <path d="M 0 0 
L 0 3.5 
" id="m95a8f07d63" style="stroke:#000000;stroke-width:0.8;"/>
      </defs>
      <g>
       <use style="stroke:#000000;stroke-width:0.8;" x="85.1994" xlink:href="#m95a8f07d63" y="303.64"/>
      </g>
     </g>
     <g id="text_1">
      <!-- big -->
      <g transform="translate(77.4619 318.238437)scale(0.1 -0.1)">
       <defs>
        <path d="M 3116 1747 
Q 3116 2381 2855 2742 
Q 2594 3103 2138 3103 
Q 1681 3103 1420 2742 
Q 1159 2381 1159 1747 
Q 1159 1113 1420 752 
Q 1681 391 2138 391 
Q 2594 391 2855 752 
Q 3116 1113 3116 1747 
z
M 1159 2969 
Q 1341 3281 1617 3432 
Q 1894 3584 2278 3584 
Q 2916 3584 3314 3078 
Q 3713 2572 3713 1747 
Q 3713 922 3314 415 
Q 2916 -91 2278 -91 
Q 1894 -91 1617 61 
Q 1341 213 1159 525 
L 1159 0 
L 581 0 
L 581 4863 
L 1159 4863 
L 1159 2969 
z
" id="DejaVuSans-62" transform="scale(0.015625)"/>
        <path d="M 603 3500 
L 1178 3500 
L 1178 0 
L 603 0 
L 603 3500 
z
M 603 4863 
L 1178 4863 
L 1178 4134 
L 603 4134 
L 603 4863 
z
" id="DejaVuSans-69" transform="scale(0.015625)"/>
        <path d="M 2906 1791 
Q 2906 2416 2648 2759 
Q 2391 3103 1925 3103 
Q 1463 3103 1205 2759 
Q 947 2416 947 1791 
Q 947 1169 1205 825 
Q 1463 481 1925 481 
Q 2391 481 2648 825 
Q 2906 1169 2906 1791 
z
M 3481 434 
Q 3481 -459 3084 -895 
Q 2688 -1331 1869 -1331 
Q 1566 -1331 1297 -1286 
Q 1028 -1241 775 -1147 
L 775 -588 
Q 1028 -725 1275 -790 
Q 1522 -856 1778 -856 
Q 2344 -856 2625 -561 
Q 2906 -266 2906 331 
L 2906 616 
Q 2728 306 2450 153 
Q 2172 0 1784 0 
Q 1141 0 747 490 
Q 353 981 353 1791 
Q 353 2603 747 3093 
Q 1141 3584 1784 3584 
Q 2172 3584 2450 3431 
Q 2728 3278 2906 2969 
L 2906 3500 
L 3481 3500 
L 3481 434 
z
" id="DejaVuSans-67" transform="scale(0.015625)"/>
       </defs>
       <use xlink:href="#DejaVuSans-62"/>
       <use x="63.476562" xlink:href="#DejaVuSans-69"/>
       <use x="91.259766" xlink:href="#DejaVuSans-67"/>
      </g>
     </g>
    </g>
    <g id="xtick_2">
     <g id="line2d_2">
      <g>
       <use style="stroke:#000000;stroke-width:0.8;" x="159.9782" xlink:href="#m95a8f07d63" y="303.64"/>
      </g>
     </g>
     <g id="text_2">
      <!-- 2 -->
      <g transform="translate(156.79695 318.238437)scale(0.1 -0.1)">
       <defs>
        <path d="M 1228 531 
L 3431 531 
L 3431 0 
L 469 0 
L 469 531 
Q 828 903 1448 1529 
Q 2069 2156 2228 2338 
Q 2531 2678 2651 2914 
Q 2772 3150 2772 3378 
Q 2772 3750 2511 3984 
Q 2250 4219 1831 4219 
Q 1534 4219 1204 4116 
Q 875 4013 500 3803 
L 500 4441 
Q 881 4594 1212 4672 
Q 1544 4750 1819 4750 
Q 2544 4750 2975 4387 
Q 3406 4025 3406 3419 
Q 3406 3131 3298 2873 
Q 3191 2616 2906 2266 
Q 2828 2175 2409 1742 
Q 1991 1309 1228 531 
z
" id="DejaVuSans-32" transform="scale(0.015625)"/>
       </defs>
       <use xlink:href="#DejaVuSans-32"/>
      </g>
     </g>
    </g>
    <g id="xtick_3">
     <g id="line2d_3">
      <g>
       <use style="stroke:#000000;stroke-width:0.8;" x="234.757" xlink:href="#m95a8f07d63" y="303.64"/>
      </g>
     </g>
     <g id="text_3">
      <!-- 3 -->
      <g transform="translate(231.57575 318.238437)scale(0.1 -0.1)">
       <defs>
        <path d="M 2597 2516 
Q 3050 2419 3304 2112 
Q 3559 1806 3559 1356 
Q 3559 666 3084 287 
Q 2609 -91 1734 -91 
Q 1441 -91 1130 -33 
Q 819 25 488 141 
L 488 750 
Q 750 597 1062 519 
Q 1375 441 1716 441 
Q 2309 441 2620 675 
Q 2931 909 2931 1356 
Q 2931 1769 2642 2001 
Q 2353 2234 1838 2234 
L 1294 2234 
L 1294 2753 
L 1863 2753 
Q 2328 2753 2575 2939 
Q 2822 3125 2822 3475 
Q 2822 3834 2567 4026 
Q 2313 4219 1838 4219 
Q 1578 4219 1281 4162 
Q 984 4106 628 3988 
L 628 4550 
Q 988 4650 1302 4700 
Q 1616 4750 1894 4750 
Q 2613 4750 3031 4423 
Q 3450 4097 3450 3541 
Q 3450 3153 3228 2886 
Q 3006 2619 2597 2516 
z
" id="DejaVuSans-33" transform="scale(0.015625)"/>
       </defs>
       <use xlink:href="#DejaVuSans-33"/>
      </g>
     </g>
    </g>
    <g id="xtick_4">
     <g id="line2d_4">
      <g>
       <use style="stroke:#000000;stroke-width:0.8;" x="309.5358" xlink:href="#m95a8f07d63" y="303.64"/>
      </g>
     </g>
     <g id="text_4">
      <!-- 4 -->
      <g transform="translate(306.35455 318.238437)scale(0.1 -0.1)">
       <defs>
        <path d="M 2419 4116 
L 825 1625 
L 2419 1625 
L 2419 4116 
z
M 2253 4666 
L 3047 4666 
L 3047 1625 
L 3713 1625 
L 3713 1100 
L 3047 1100 
L 3047 0 
L 2419 0 
L 2419 1100 
L 313 1100 
L 313 1709 
L 2253 4666 
z
" id="DejaVuSans-34" transform="scale(0.015625)"/>
       </defs>
       <use xlink:href="#DejaVuSans-34"/>
      </g>
     </g>
    </g>
    <g id="text_5">
     <!-- Number of splits -->
     <g transform="translate(156.162131 331.916562)scale(0.1 -0.1)">
      <defs>
       <path d="M 628 4666 
L 1478 4666 
L 3547 763 
L 3547 4666 
L 4159 4666 
L 4159 0 
L 3309 0 
L 1241 3903 
L 1241 0 
L 628 0 
L 628 4666 
z
" id="DejaVuSans-4e" transform="scale(0.015625)"/>
       <path d="M 544 1381 
L 544 3500 
L 1119 3500 
L 1119 1403 
Q 1119 906 1312 657 
Q 1506 409 1894 409 
Q 2359 409 2629 706 
Q 2900 1003 2900 1516 
L 2900 3500 
L 3475 3500 
L 3475 0 
L 2900 0 
L 2900 538 
Q 2691 219 2414 64 
Q 2138 -91 1772 -91 
Q 1169 -91 856 284 
Q 544 659 544 1381 
z
M 1991 3584 
L 1991 3584 
z
" id="DejaVuSans-75" transform="scale(0.015625)"/>
       <path d="M 3328 2828 
Q 3544 3216 3844 3400 
Q 4144 3584 4550 3584 
Q 5097 3584 5394 3201 
Q 5691 2819 5691 2113 
L 5691 0 
L 5113 0 
L 5113 2094 
Q 5113 2597 4934 2840 
Q 4756 3084 4391 3084 
Q 3944 3084 3684 2787 
Q 3425 2491 3425 1978 
L 3425 0 
L 2847 0 
L 2847 2094 
Q 2847 2600 2669 2842 
Q 2491 3084 2119 3084 
Q 1678 3084 1418 2786 
Q 1159 2488 1159 1978 
L 1159 0 
L 581 0 
L 581 3500 
L 1159 3500 
L 1159 2956 
Q 1356 3278 1631 3431 
Q 1906 3584 2284 3584 
Q 2666 3584 2933 3390 
Q 3200 3197 3328 2828 
z
" id="DejaVuSans-6d" transform="scale(0.015625)"/>
       <path d="M 3597 1894 
L 3597 1613 
L 953 1613 
Q 991 1019 1311 708 
Q 1631 397 2203 397 
Q 2534 397 2845 478 
Q 3156 559 3463 722 
L 3463 178 
Q 3153 47 2828 -22 
Q 2503 -91 2169 -91 
Q 1331 -91 842 396 
Q 353 884 353 1716 
Q 353 2575 817 3079 
Q 1281 3584 2069 3584 
Q 2775 3584 3186 3129 
Q 3597 2675 3597 1894 
z
M 3022 2063 
Q 3016 2534 2758 2815 
Q 2500 3097 2075 3097 
Q 1594 3097 1305 2825 
Q 1016 2553 972 2059 
L 3022 2063 
z
" id="DejaVuSans-65" transform="scale(0.015625)"/>
       <path d="M 2631 2963 
Q 2534 3019 2420 3045 
Q 2306 3072 2169 3072 
Q 1681 3072 1420 2755 
Q 1159 2438 1159 1844 
L 1159 0 
L 581 0 
L 581 3500 
L 1159 3500 
L 1159 2956 
Q 1341 3275 1631 3429 
Q 1922 3584 2338 3584 
Q 2397 3584 2469 3576 
Q 2541 3569 2628 3553 
L 2631 2963 
z
" id="DejaVuSans-72" transform="scale(0.015625)"/>
       <path id="DejaVuSans-20" transform="scale(0.015625)"/>
       <path d="M 1959 3097 
Q 1497 3097 1228 2736 
Q 959 2375 959 1747 
Q 959 1119 1226 758 
Q 1494 397 1959 397 
Q 2419 397 2687 759 
Q 2956 1122 2956 1747 
Q 2956 2369 2687 2733 
Q 2419 3097 1959 3097 
z
M 1959 3584 
Q 2709 3584 3137 3096 
Q 3566 2609 3566 1747 
Q 3566 888 3137 398 
Q 2709 -91 1959 -91 
Q 1206 -91 779 398 
Q 353 888 353 1747 
Q 353 2609 779 3096 
Q 1206 3584 1959 3584 
z
" id="DejaVuSans-6f" transform="scale(0.015625)"/>
       <path d="M 2375 4863 
L 2375 4384 
L 1825 4384 
Q 1516 4384 1395 4259 
Q 1275 4134 1275 3809 
L 1275 3500 
L 2222 3500 
L 2222 3053 
L 1275 3053 
L 1275 0 
L 697 0 
L 697 3053 
L 147 3053 
L 147 3500 
L 697 3500 
L 697 3744 
Q 697 4328 969 4595 
Q 1241 4863 1831 4863 
L 2375 4863 
z
" id="DejaVuSans-66" transform="scale(0.015625)"/>
       <path d="M 2834 3397 
L 2834 2853 
Q 2591 2978 2328 3040 
Q 2066 3103 1784 3103 
Q 1356 3103 1142 2972 
Q 928 2841 928 2578 
Q 928 2378 1081 2264 
Q 1234 2150 1697 2047 
L 1894 2003 
Q 2506 1872 2764 1633 
Q 3022 1394 3022 966 
Q 3022 478 2636 193 
Q 2250 -91 1575 -91 
Q 1294 -91 989 -36 
Q 684 19 347 128 
L 347 722 
Q 666 556 975 473 
Q 1284 391 1588 391 
Q 1994 391 2212 530 
Q 2431 669 2431 922 
Q 2431 1156 2273 1281 
Q 2116 1406 1581 1522 
L 1381 1569 
Q 847 1681 609 1914 
Q 372 2147 372 2553 
Q 372 3047 722 3315 
Q 1072 3584 1716 3584 
Q 2034 3584 2315 3537 
Q 2597 3491 2834 3397 
z
" id="DejaVuSans-73" transform="scale(0.015625)"/>
       <path d="M 1159 525 
L 1159 -1331 
L 581 -1331 
L 581 3500 
L 1159 3500 
L 1159 2969 
Q 1341 3281 1617 3432 
Q 1894 3584 2278 3584 
Q 2916 3584 3314 3078 
Q 3713 2572 3713 1747 
Q 3713 922 3314 415 
Q 2916 -91 2278 -91 
Q 1894 -91 1617 61 
Q 1341 213 1159 525 
z
M 3116 1747 
Q 3116 2381 2855 2742 
Q 2594 3103 2138 3103 
Q 1681 3103 1420 2742 
Q 1159 2381 1159 1747 
Q 1159 1113 1420 752 
Q 1681 391 2138 391 
Q 2594 391 2855 752 
Q 3116 1113 3116 1747 
z
" id="DejaVuSans-70" transform="scale(0.015625)"/>
       <path d="M 603 4863 
L 1178 4863 
L 1178 0 
L 603 0 
L 603 4863 
z
" id="DejaVuSans-6c" transform="scale(0.015625)"/>
       <path d="M 1172 4494 
L 1172 3500 
L 2356 3500 
L 2356 3053 
L 1172 3053 
L 1172 1153 
Q 1172 725 1289 603 
Q 1406 481 1766 481 
L 2356 481 
L 2356 0 
L 1766 0 
Q 1100 0 847 248 
Q 594 497 594 1153 
L 594 3053 
L 172 3053 
L 172 3500 
L 594 3500 
L 594 4494 
L 1172 4494 
z
" id="DejaVuSans-74" transform="scale(0.015625)"/>
      </defs>
      <use xlink:href="#DejaVuSans-4e"/>
      <use x="74.804688" xlink:href="#DejaVuSans-75"/>
      <use x="138.183594" xlink:href="#DejaVuSans-6d"/>
      <use x="235.595703" xlink:href="#DejaVuSans-62"/>
      <use x="299.072266" xlink:href="#DejaVuSans-65"/>
      <use x="360.595703" xlink:href="#DejaVuSans-72"/>
      <use x="401.708984" xlink:href="#DejaVuSans-20"/>
      <use x="433.496094" xlink:href="#DejaVuSans-6f"/>
      <use x="494.677734" xlink:href="#DejaVuSans-66"/>
      <use x="529.882812" xlink:href="#DejaVuSans-20"/>
      <use x="561.669922" xlink:href="#DejaVuSans-73"/>
      <use x="613.769531" xlink:href="#DejaVuSans-70"/>
      <use x="677.246094" xlink:href="#DejaVuSans-6c"/>
      <use x="705.029297" xlink:href="#DejaVuSans-69"/>
      <use x="732.8125" xlink:href="#DejaVuSans-74"/>
      <use x="772.021484" xlink:href="#DejaVuSans-73"/>
     </g>
    </g>
   </g>
   <g id="matplotlib.axis_2">
    <g id="ytick_1">
     <g id="line2d_5">
      <defs>
       <path d="M 0 0 
L -3.5 0 
" id="mc64f444ed7" style="stroke:#000000;stroke-width:0.8;"/>
      </defs>
      <g>
       <use style="stroke:#000000;stroke-width:0.8;" x="47.81" xlink:href="#mc64f444ed7" y="268.00281"/>
      </g>
     </g>
     <g id="text_6">
      <!-- 0.2 -->
      <g transform="translate(24.906875 271.802029)scale(0.1 -0.1)">
       <defs>
        <path d="M 2034 4250 
Q 1547 4250 1301 3770 
Q 1056 3291 1056 2328 
Q 1056 1369 1301 889 
Q 1547 409 2034 409 
Q 2525 409 2770 889 
Q 3016 1369 3016 2328 
Q 3016 3291 2770 3770 
Q 2525 4250 2034 4250 
z
M 2034 4750 
Q 2819 4750 3233 4129 
Q 3647 3509 3647 2328 
Q 3647 1150 3233 529 
Q 2819 -91 2034 -91 
Q 1250 -91 836 529 
Q 422 1150 422 2328 
Q 422 3509 836 4129 
Q 1250 4750 2034 4750 
z
" id="DejaVuSans-30" transform="scale(0.015625)"/>
        <path d="M 684 794 
L 1344 794 
L 1344 0 
L 684 0 
L 684 794 
z
" id="DejaVuSans-2e" transform="scale(0.015625)"/>
       </defs>
       <use xlink:href="#DejaVuSans-30"/>
       <use x="63.623047" xlink:href="#DejaVuSans-2e"/>
       <use x="95.410156" xlink:href="#DejaVuSans-32"/>
      </g>
     </g>
    </g>
    <g id="ytick_2">
     <g id="line2d_6">
      <g>
       <use style="stroke:#000000;stroke-width:0.8;" x="47.81" xlink:href="#mc64f444ed7" y="210.523471"/>
      </g>
     </g>
     <g id="text_7">
      <!-- 0.4 -->
      <g transform="translate(24.906875 214.32269)scale(0.1 -0.1)">
       <use xlink:href="#DejaVuSans-30"/>
       <use x="63.623047" xlink:href="#DejaVuSans-2e"/>
       <use x="95.410156" xlink:href="#DejaVuSans-34"/>
      </g>
     </g>
    </g>
    <g id="ytick_3">
     <g id="line2d_7">
      <g>
       <use style="stroke:#000000;stroke-width:0.8;" x="47.81" xlink:href="#mc64f444ed7" y="153.044132"/>
      </g>
     </g>
     <g id="text_8">
      <!-- 0.6 -->
      <g transform="translate(24.906875 156.843351)scale(0.1 -0.1)">
       <defs>
        <path d="M 2113 2584 
Q 1688 2584 1439 2293 
Q 1191 2003 1191 1497 
Q 1191 994 1439 701 
Q 1688 409 2113 409 
Q 2538 409 2786 701 
Q 3034 994 3034 1497 
Q 3034 2003 2786 2293 
Q 2538 2584 2113 2584 
z
M 3366 4563 
L 3366 3988 
Q 3128 4100 2886 4159 
Q 2644 4219 2406 4219 
Q 1781 4219 1451 3797 
Q 1122 3375 1075 2522 
Q 1259 2794 1537 2939 
Q 1816 3084 2150 3084 
Q 2853 3084 3261 2657 
Q 3669 2231 3669 1497 
Q 3669 778 3244 343 
Q 2819 -91 2113 -91 
Q 1303 -91 875 529 
Q 447 1150 447 2328 
Q 447 3434 972 4092 
Q 1497 4750 2381 4750 
Q 2619 4750 2861 4703 
Q 3103 4656 3366 4563 
z
" id="DejaVuSans-36" transform="scale(0.015625)"/>
       </defs>
       <use xlink:href="#DejaVuSans-30"/>
       <use x="63.623047" xlink:href="#DejaVuSans-2e"/>
       <use x="95.410156" xlink:href="#DejaVuSans-36"/>
      </g>
     </g>
    </g>
    <g id="ytick_4">
     <g id="line2d_8">
      <g>
       <use style="stroke:#000000;stroke-width:0.8;" x="47.81" xlink:href="#mc64f444ed7" y="95.564793"/>
      </g>
     </g>
     <g id="text_9">
      <!-- 0.8 -->
      <g transform="translate(24.906875 99.364012)scale(0.1 -0.1)">
       <defs>
        <path d="M 2034 2216 
Q 1584 2216 1326 1975 
Q 1069 1734 1069 1313 
Q 1069 891 1326 650 
Q 1584 409 2034 409 
Q 2484 409 2743 651 
Q 3003 894 3003 1313 
Q 3003 1734 2745 1975 
Q 2488 2216 2034 2216 
z
M 1403 2484 
Q 997 2584 770 2862 
Q 544 3141 544 3541 
Q 544 4100 942 4425 
Q 1341 4750 2034 4750 
Q 2731 4750 3128 4425 
Q 3525 4100 3525 3541 
Q 3525 3141 3298 2862 
Q 3072 2584 2669 2484 
Q 3125 2378 3379 2068 
Q 3634 1759 3634 1313 
Q 3634 634 3220 271 
Q 2806 -91 2034 -91 
Q 1263 -91 848 271 
Q 434 634 434 1313 
Q 434 1759 690 2068 
Q 947 2378 1403 2484 
z
M 1172 3481 
Q 1172 3119 1398 2916 
Q 1625 2713 2034 2713 
Q 2441 2713 2670 2916 
Q 2900 3119 2900 3481 
Q 2900 3844 2670 4047 
Q 2441 4250 2034 4250 
Q 1625 4250 1398 4047 
Q 1172 3844 1172 3481 
z
" id="DejaVuSans-38" transform="scale(0.015625)"/>
       </defs>
       <use xlink:href="#DejaVuSans-30"/>
       <use x="63.623047" xlink:href="#DejaVuSans-2e"/>
       <use x="95.410156" xlink:href="#DejaVuSans-38"/>
      </g>
     </g>
    </g>
    <g id="ytick_5">
     <g id="line2d_9">
      <g>
       <use style="stroke:#000000;stroke-width:0.8;" x="47.81" xlink:href="#mc64f444ed7" y="38.085455"/>
      </g>
     </g>
     <g id="text_10">
      <!-- 1.0 -->
      <g transform="translate(24.906875 41.884673)scale(0.1 -0.1)">
       <defs>
        <path d="M 794 531 
L 1825 531 
L 1825 4091 
L 703 3866 
L 703 4441 
L 1819 4666 
L 2450 4666 
L 2450 531 
L 3481 531 
L 3481 0 
L 794 0 
L 794 531 
z
" id="DejaVuSans-31" transform="scale(0.015625)"/>
       </defs>
       <use xlink:href="#DejaVuSans-31"/>
       <use x="63.623047" xlink:href="#DejaVuSans-2e"/>
       <use x="95.410156" xlink:href="#DejaVuSans-30"/>
      </g>
     </g>
    </g>
    <g id="text_11">
     <!-- Credibility Index -->
     <g transform="translate(18.827188 205.230625)rotate(-90)scale(0.1 -0.1)">
      <defs>
       <path d="M 4122 4306 
L 4122 3641 
Q 3803 3938 3442 4084 
Q 3081 4231 2675 4231 
Q 1875 4231 1450 3742 
Q 1025 3253 1025 2328 
Q 1025 1406 1450 917 
Q 1875 428 2675 428 
Q 3081 428 3442 575 
Q 3803 722 4122 1019 
L 4122 359 
Q 3791 134 3420 21 
Q 3050 -91 2638 -91 
Q 1578 -91 968 557 
Q 359 1206 359 2328 
Q 359 3453 968 4101 
Q 1578 4750 2638 4750 
Q 3056 4750 3426 4639 
Q 3797 4528 4122 4306 
z
" id="DejaVuSans-43" transform="scale(0.015625)"/>
       <path d="M 2906 2969 
L 2906 4863 
L 3481 4863 
L 3481 0 
L 2906 0 
L 2906 525 
Q 2725 213 2448 61 
Q 2172 -91 1784 -91 
Q 1150 -91 751 415 
Q 353 922 353 1747 
Q 353 2572 751 3078 
Q 1150 3584 1784 3584 
Q 2172 3584 2448 3432 
Q 2725 3281 2906 2969 
z
M 947 1747 
Q 947 1113 1208 752 
Q 1469 391 1925 391 
Q 2381 391 2643 752 
Q 2906 1113 2906 1747 
Q 2906 2381 2643 2742 
Q 2381 3103 1925 3103 
Q 1469 3103 1208 2742 
Q 947 2381 947 1747 
z
" id="DejaVuSans-64" transform="scale(0.015625)"/>
       <path d="M 2059 -325 
Q 1816 -950 1584 -1140 
Q 1353 -1331 966 -1331 
L 506 -1331 
L 506 -850 
L 844 -850 
Q 1081 -850 1212 -737 
Q 1344 -625 1503 -206 
L 1606 56 
L 191 3500 
L 800 3500 
L 1894 763 
L 2988 3500 
L 3597 3500 
L 2059 -325 
z
" id="DejaVuSans-79" transform="scale(0.015625)"/>
       <path d="M 628 4666 
L 1259 4666 
L 1259 0 
L 628 0 
L 628 4666 
z
" id="DejaVuSans-49" transform="scale(0.015625)"/>
       <path d="M 3513 2113 
L 3513 0 
L 2938 0 
L 2938 2094 
Q 2938 2591 2744 2837 
Q 2550 3084 2163 3084 
Q 1697 3084 1428 2787 
Q 1159 2491 1159 1978 
L 1159 0 
L 581 0 
L 581 3500 
L 1159 3500 
L 1159 2956 
Q 1366 3272 1645 3428 
Q 1925 3584 2291 3584 
Q 2894 3584 3203 3211 
Q 3513 2838 3513 2113 
z
" id="DejaVuSans-6e" transform="scale(0.015625)"/>
       <path d="M 3513 3500 
L 2247 1797 
L 3578 0 
L 2900 0 
L 1881 1375 
L 863 0 
L 184 0 
L 1544 1831 
L 300 3500 
L 978 3500 
L 1906 2253 
L 2834 3500 
L 3513 3500 
z
" id="DejaVuSans-78" transform="scale(0.015625)"/>
      </defs>
      <use xlink:href="#DejaVuSans-43"/>
      <use x="69.824219" xlink:href="#DejaVuSans-72"/>
      <use x="108.6875" xlink:href="#DejaVuSans-65"/>
      <use x="170.210938" xlink:href="#DejaVuSans-64"/>
      <use x="233.6875" xlink:href="#DejaVuSans-69"/>
      <use x="261.470703" xlink:href="#DejaVuSans-62"/>
      <use x="324.947266" xlink:href="#DejaVuSans-69"/>
      <use x="352.730469" xlink:href="#DejaVuSans-6c"/>
      <use x="380.513672" xlink:href="#DejaVuSans-69"/>
      <use x="408.296875" xlink:href="#DejaVuSans-74"/>
      <use x="447.505859" xlink:href="#DejaVuSans-79"/>
      <use x="506.685547" xlink:href="#DejaVuSans-20"/>
      <use x="538.472656" xlink:href="#DejaVuSans-49"/>
      <use x="567.964844" xlink:href="#DejaVuSans-6e"/>
      <use x="631.34375" xlink:href="#DejaVuSans-64"/>
      <use x="694.820312" xlink:href="#DejaVuSans-65"/>
      <use x="754.59375" xlink:href="#DejaVuSans-78"/>
     </g>
    </g>
   </g>
   <g id="line2d_10">
    <path clip-path="url(#p06e23d7ada)" d="M 65.258387 290.994545 
L 65.258387 38.085455 
" style="fill:none;stroke:#4c4c4c;stroke-linecap:square;stroke-width:1.5;"/>
   </g>
   <g id="line2d_11">
    <path clip-path="url(#p06e23d7ada)" d="M 65.258387 176.035868 
L 65.258387 61.07719 
" style="fill:none;stroke:#4c4c4c;stroke-linecap:square;stroke-width:4.5;"/>
   </g>
   <g id="line2d_12">
    <path clip-path="url(#p06e23d7ada)" d="M 159.9782 290.994545 
L 159.9782 38.085455 
" style="fill:none;stroke:#4c4c4c;stroke-linecap:square;stroke-width:1.5;"/>
   </g>
   <g id="line2d_13">
    <path clip-path="url(#p06e23d7ada)" d="M 159.9782 187.531736 
L 159.9782 49.581322 
" style="fill:none;stroke:#4c4c4c;stroke-linecap:square;stroke-width:4.5;"/>
   </g>
   <g id="line2d_14">
    <path clip-path="url(#p06e23d7ada)" d="M 179.919213 290.994545 
L 179.919213 38.085455 
" style="fill:none;stroke:#4c4c4c;stroke-linecap:square;stroke-width:1.5;"/>
   </g>
   <g id="line2d_15">
    <path clip-path="url(#p06e23d7ada)" d="M 179.919213 222.019339 
L 179.919213 49.581322 
" style="fill:none;stroke:#4c4c4c;stroke-linecap:square;stroke-width:4.5;"/>
   </g>
   <g id="line2d_16">
    <path clip-path="url(#p06e23d7ada)" d="M 234.757 290.994545 
L 234.757 38.085455 
" style="fill:none;stroke:#4c4c4c;stroke-linecap:square;stroke-width:1.5;"/>
   </g>
   <g id="line2d_17">
    <path clip-path="url(#p06e23d7ada)" d="M 234.757 187.531736 
L 234.757 38.085455 
" style="fill:none;stroke:#4c4c4c;stroke-linecap:square;stroke-width:4.5;"/>
   </g>
   <g id="line2d_18">
    <path clip-path="url(#p06e23d7ada)" d="M 254.698013 290.994545 
L 254.698013 38.085455 
" style="fill:none;stroke:#4c4c4c;stroke-linecap:square;stroke-width:1.5;"/>
   </g>
   <g id="line2d_19">
    <path clip-path="url(#p06e23d7ada)" d="M 254.698013 210.523471 
L 254.698013 49.581322 
" style="fill:none;stroke:#4c4c4c;stroke-linecap:square;stroke-width:4.5;"/>
   </g>
   <g id="line2d_20">
    <path clip-path="url(#p06e23d7ada)" d="M 309.5358 290.994545 
L 309.5358 38.085455 
" style="fill:none;stroke:#4c4c4c;stroke-linecap:square;stroke-width:1.5;"/>
   </g>
   <g id="line2d_21">
    <path clip-path="url(#p06e23d7ada)" d="M 309.5358 187.531736 
L 309.5358 38.085455 
" style="fill:none;stroke:#4c4c4c;stroke-linecap:square;stroke-width:4.5;"/>
   </g>
   <g id="line2d_22">
    <path clip-path="url(#p06e23d7ada)" d="M 329.476813 290.994545 
L 329.476813 38.085455 
" style="fill:none;stroke:#4c4c4c;stroke-linecap:square;stroke-width:1.5;"/>
   </g>
   <g id="line2d_23">
    <path clip-path="url(#p06e23d7ada)" d="M 329.476813 176.035868 
L 329.476813 38.085455 
" style="fill:none;stroke:#4c4c4c;stroke-linecap:square;stroke-width:4.5;"/>
   </g>
   <g id="patch_6">
    <path d="M 47.81 303.64 
L 47.81 25.44 
" style="fill:none;stroke:#000000;stroke-linecap:square;stroke-linejoin:miter;stroke-width:0.8;"/>
   </g>
   <g id="patch_7">
    <path d="M 346.9252 303.64 
L 346.9252 25.44 
" style="fill:none;stroke:#000000;stroke-linecap:square;stroke-linejoin:miter;stroke-width:0.8;"/>
   </g>
   <g id="patch_8">
    <path d="M 47.81 303.64 
L 346.9252 303.64 
" style="fill:none;stroke:#000000;stroke-linecap:square;stroke-linejoin:miter;stroke-width:0.8;"/>
   </g>
   <g id="patch_9">
    <path d="M 47.81 25.44 
L 346.9252 25.44 
" style="fill:none;stroke:#000000;stroke-linecap:square;stroke-linejoin:miter;stroke-width:0.8;"/>
   </g>
   <g id="PathCollection_1">
    <defs>
     <path d="M 0 1.5 
C 0.397805 1.5 0.77937 1.341951 1.06066 1.06066 
C 1.341951 0.77937 1.5 0.397805 1.5 0 
C 1.5 -0.397805 1.341951 -0.77937 1.06066 -1.06066 
C 0.77937 -1.341951 0.397805 -1.5 0 -1.5 
C -0.397805 -1.5 -0.77937 -1.341951 -1.06066 -1.06066 
C -1.341951 -0.77937 -1.5 -0.397805 -1.5 0 
C -1.5 0.397805 -1.341951 0.77937 -1.06066 1.06066 
C -0.77937 1.341951 -0.397805 1.5 0 1.5 
z
" id="mcae0b2f679" style="stroke:#4c4c4c;"/>
    </defs>
    <g clip-path="url(#p06e23d7ada)">
     <use style="fill:#ffffff;stroke:#4c4c4c;" x="65.258387" xlink:href="#mcae0b2f679" y="107.060661"/>
    </g>
   </g>
   <g id="PathCollection_2">
    <g clip-path="url(#p06e23d7ada)">
     <use style="fill:#ffffff;stroke:#4c4c4c;" x="159.9782" xlink:href="#mcae0b2f679" y="95.564793"/>
    </g>
   </g>
   <g id="PathCollection_3">
    <g clip-path="url(#p06e23d7ada)">
     <use style="fill:#ffffff;stroke:#4c4c4c;" x="179.919213" xlink:href="#mcae0b2f679" y="130.052397"/>
    </g>
   </g>
   <g id="PathCollection_4">
    <g clip-path="url(#p06e23d7ada)">
     <use style="fill:#ffffff;stroke:#4c4c4c;" x="234.757" xlink:href="#mcae0b2f679" y="84.068926"/>
    </g>
   </g>
   <g id="PathCollection_5">
    <g clip-path="url(#p06e23d7ada)">
     <use style="fill:#ffffff;stroke:#4c4c4c;" x="254.698013" xlink:href="#mcae0b2f679" y="118.556529"/>
    </g>
   </g>
   <g id="PathCollection_6">
    <g clip-path="url(#p06e23d7ada)">
     <use style="fill:#ffffff;stroke:#4c4c4c;" x="309.5358" xlink:href="#mcae0b2f679" y="84.068926"/>
    </g>
   </g>
   <g id="PathCollection_7">
    <g clip-path="url(#p06e23d7ada)">
     <use style="fill:#ffffff;stroke:#4c4c4c;" x="329.476813" xlink:href="#mcae0b2f679" y="72.573058"/>
    </g>
   </g>
   <g id="text_12">
    <!-- Distribution of the consensus estimated components -->
    <g transform="translate(38.473538 19.44)scale(0.12 -0.12)">
     <defs>
      <path d="M 1259 4147 
L 1259 519 
L 2022 519 
Q 2988 519 3436 956 
Q 3884 1394 3884 2338 
Q 3884 3275 3436 3711 
Q 2988 4147 2022 4147 
L 1259 4147 
z
M 628 4666 
L 1925 4666 
Q 3281 4666 3915 4102 
Q 4550 3538 4550 2338 
Q 4550 1131 3912 565 
Q 3275 0 1925 0 
L 628 0 
L 628 4666 
z
" id="DejaVuSans-44" transform="scale(0.015625)"/>
      <path d="M 3513 2113 
L 3513 0 
L 2938 0 
L 2938 2094 
Q 2938 2591 2744 2837 
Q 2550 3084 2163 3084 
Q 1697 3084 1428 2787 
Q 1159 2491 1159 1978 
L 1159 0 
L 581 0 
L 581 4863 
L 1159 4863 
L 1159 2956 
Q 1366 3272 1645 3428 
Q 1925 3584 2291 3584 
Q 2894 3584 3203 3211 
Q 3513 2838 3513 2113 
z
" id="DejaVuSans-68" transform="scale(0.015625)"/>
      <path d="M 3122 3366 
L 3122 2828 
Q 2878 2963 2633 3030 
Q 2388 3097 2138 3097 
Q 1578 3097 1268 2742 
Q 959 2388 959 1747 
Q 959 1106 1268 751 
Q 1578 397 2138 397 
Q 2388 397 2633 464 
Q 2878 531 3122 666 
L 3122 134 
Q 2881 22 2623 -34 
Q 2366 -91 2075 -91 
Q 1284 -91 818 406 
Q 353 903 353 1747 
Q 353 2603 823 3093 
Q 1294 3584 2113 3584 
Q 2378 3584 2631 3529 
Q 2884 3475 3122 3366 
z
" id="DejaVuSans-63" transform="scale(0.015625)"/>
      <path d="M 2194 1759 
Q 1497 1759 1228 1600 
Q 959 1441 959 1056 
Q 959 750 1161 570 
Q 1363 391 1709 391 
Q 2188 391 2477 730 
Q 2766 1069 2766 1631 
L 2766 1759 
L 2194 1759 
z
M 3341 1997 
L 3341 0 
L 2766 0 
L 2766 531 
Q 2569 213 2275 61 
Q 1981 -91 1556 -91 
Q 1019 -91 701 211 
Q 384 513 384 1019 
Q 384 1609 779 1909 
Q 1175 2209 1959 2209 
L 2766 2209 
L 2766 2266 
Q 2766 2663 2505 2880 
Q 2244 3097 1772 3097 
Q 1472 3097 1187 3025 
Q 903 2953 641 2809 
L 641 3341 
Q 956 3463 1253 3523 
Q 1550 3584 1831 3584 
Q 2591 3584 2966 3190 
Q 3341 2797 3341 1997 
z
" id="DejaVuSans-61" transform="scale(0.015625)"/>
     </defs>
     <use xlink:href="#DejaVuSans-44"/>
     <use x="77.001953" xlink:href="#DejaVuSans-69"/>
     <use x="104.785156" xlink:href="#DejaVuSans-73"/>
     <use x="156.884766" xlink:href="#DejaVuSans-74"/>
     <use x="196.09375" xlink:href="#DejaVuSans-72"/>
     <use x="237.207031" xlink:href="#DejaVuSans-69"/>
     <use x="264.990234" xlink:href="#DejaVuSans-62"/>
     <use x="328.466797" xlink:href="#DejaVuSans-75"/>
     <use x="391.845703" xlink:href="#DejaVuSans-74"/>
     <use x="431.054688" xlink:href="#DejaVuSans-69"/>
     <use x="458.837891" xlink:href="#DejaVuSans-6f"/>
     <use x="520.019531" xlink:href="#DejaVuSans-6e"/>
     <use x="583.398438" xlink:href="#DejaVuSans-20"/>
     <use x="615.185547" xlink:href="#DejaVuSans-6f"/>
     <use x="676.367188" xlink:href="#DejaVuSans-66"/>
     <use x="711.572266" xlink:href="#DejaVuSans-20"/>
     <use x="743.359375" xlink:href="#DejaVuSans-74"/>
     <use x="782.568359" xlink:href="#DejaVuSans-68"/>
     <use x="845.947266" xlink:href="#DejaVuSans-65"/>
     <use x="907.470703" xlink:href="#DejaVuSans-20"/>
     <use x="939.257812" xlink:href="#DejaVuSans-63"/>
     <use x="994.238281" xlink:href="#DejaVuSans-6f"/>
     <use x="1055.419922" xlink:href="#DejaVuSans-6e"/>
     <use x="1118.798828" xlink:href="#DejaVuSans-73"/>
     <use x="1170.898438" xlink:href="#DejaVuSans-65"/>
     <use x="1232.421875" xlink:href="#DejaVuSans-6e"/>
     <use x="1295.800781" xlink:href="#DejaVuSans-73"/>
     <use x="1347.900391" xlink:href="#DejaVuSans-75"/>
     <use x="1411.279297" xlink:href="#DejaVuSans-73"/>
     <use x="1463.378906" xlink:href="#DejaVuSans-20"/>
     <use x="1495.166016" xlink:href="#DejaVuSans-65"/>
     <use x="1556.689453" xlink:href="#DejaVuSans-73"/>
     <use x="1608.789062" xlink:href="#DejaVuSans-74"/>
     <use x="1647.998047" xlink:href="#DejaVuSans-69"/>
     <use x="1675.78125" xlink:href="#DejaVuSans-6d"/>
     <use x="1773.193359" xlink:href="#DejaVuSans-61"/>
     <use x="1834.472656" xlink:href="#DejaVuSans-74"/>
     <use x="1873.681641" xlink:href="#DejaVuSans-65"/>
     <use x="1935.205078" xlink:href="#DejaVuSans-64"/>
     <use x="1998.681641" xlink:href="#DejaVuSans-20"/>
     <use x="2030.46875" xlink:href="#DejaVuSans-63"/>
     <use x="2085.449219" xlink:href="#DejaVuSans-6f"/>
     <use x="2146.630859" xlink:href="#DejaVuSans-6d"/>
     <use x="2244.042969" xlink:href="#DejaVuSans-70"/>
     <use x="2307.519531" xlink:href="#DejaVuSans-6f"/>
     <use x="2368.701172" xlink:href="#DejaVuSans-6e"/>
     <use x="2432.080078" xlink:href="#DejaVuSans-65"/>
     <use x="2493.603516" xlink:href="#DejaVuSans-6e"/>
     <use x="2556.982422" xlink:href="#DejaVuSans-74"/>
     <use x="2596.191406" xlink:href="#DejaVuSans-73"/>
    </g>
   </g>
   <g id="legend_1">
    <g id="patch_10">
     <path d="M 365.889808 77.474375 
L 445.658558 77.474375 
Q 447.658558 77.474375 447.658558 75.474375 
L 447.658558 32.44 
Q 447.658558 30.44 445.658558 30.44 
L 365.889808 30.44 
Q 363.889808 30.44 363.889808 32.44 
L 363.889808 75.474375 
Q 363.889808 77.474375 365.889808 77.474375 
z
" style="fill:#ffffff;opacity:0.8;stroke:#cccccc;stroke-linejoin:miter;"/>
    </g>
    <g id="patch_11">
     <path d="M 367.889808 42.038437 
L 387.889808 42.038437 
L 387.889808 35.038437 
L 367.889808 35.038437 
z
" style="fill:#df7f20;stroke:#4c4c4c;stroke-linejoin:miter;stroke-width:0.75;"/>
    </g>
    <g id="text_13">
     <!-- big -->
     <g transform="translate(395.889808 42.038437)scale(0.1 -0.1)">
      <use xlink:href="#DejaVuSans-62"/>
      <use x="63.476562" xlink:href="#DejaVuSans-69"/>
      <use x="91.259766" xlink:href="#DejaVuSans-67"/>
     </g>
    </g>
    <g id="patch_12">
     <path d="M 367.889808 56.716562 
L 387.889808 56.716562 
L 387.889808 49.716562 
L 367.889808 49.716562 
z
" style="fill:#2020df;stroke:#4c4c4c;stroke-linejoin:miter;stroke-width:0.75;"/>
    </g>
    <g id="text_14">
     <!-- Clustered -->
     <g transform="translate(395.889808 56.716562)scale(0.1 -0.1)">
      <use xlink:href="#DejaVuSans-43"/>
      <use x="69.824219" xlink:href="#DejaVuSans-6c"/>
      <use x="97.607422" xlink:href="#DejaVuSans-75"/>
      <use x="160.986328" xlink:href="#DejaVuSans-73"/>
      <use x="213.085938" xlink:href="#DejaVuSans-74"/>
      <use x="252.294922" xlink:href="#DejaVuSans-65"/>
      <use x="313.818359" xlink:href="#DejaVuSans-72"/>
      <use x="352.681641" xlink:href="#DejaVuSans-65"/>
      <use x="414.205078" xlink:href="#DejaVuSans-64"/>
     </g>
    </g>
    <g id="patch_13">
     <path d="M 367.889808 71.394687 
L 387.889808 71.394687 
L 387.889808 64.394687 
L 367.889808 64.394687 
z
" style="fill:#20dfdf;stroke:#4c4c4c;stroke-linejoin:miter;stroke-width:0.75;"/>
    </g>
    <g id="text_15">
     <!-- Random -->
     <g transform="translate(395.889808 71.394687)scale(0.1 -0.1)">
      <defs>
       <path d="M 2841 2188 
Q 3044 2119 3236 1894 
Q 3428 1669 3622 1275 
L 4263 0 
L 3584 0 
L 2988 1197 
Q 2756 1666 2539 1819 
Q 2322 1972 1947 1972 
L 1259 1972 
L 1259 0 
L 628 0 
L 628 4666 
L 2053 4666 
Q 2853 4666 3247 4331 
Q 3641 3997 3641 3322 
Q 3641 2881 3436 2590 
Q 3231 2300 2841 2188 
z
M 1259 4147 
L 1259 2491 
L 2053 2491 
Q 2509 2491 2742 2702 
Q 2975 2913 2975 3322 
Q 2975 3731 2742 3939 
Q 2509 4147 2053 4147 
L 1259 4147 
z
" id="DejaVuSans-52" transform="scale(0.015625)"/>
      </defs>
      <use xlink:href="#DejaVuSans-52"/>
      <use x="67.232422" xlink:href="#DejaVuSans-61"/>
      <use x="128.511719" xlink:href="#DejaVuSans-6e"/>
      <use x="191.890625" xlink:href="#DejaVuSans-64"/>
      <use x="255.367188" xlink:href="#DejaVuSans-6f"/>
      <use x="316.548828" xlink:href="#DejaVuSans-6d"/>
     </g>
    </g>
   </g>
  </g>
 </g>
 <defs>
  <clipPath id="p06e23d7ada">
   <rect height="278.2" width="299.1152" x="47.81" y="25.44"/>
  </clipPath>
 </defs>
</svg>
