<?xml version="1.0" encoding="utf-8" standalone="no"?>
<!DOCTYPE svg PUBLIC "-//W3C//DTD SVG 1.1//EN"
  "http://www.w3.org/Graphics/SVG/1.1/DTD/svg11.dtd">
<svg height="345.6pt" version="1.1" viewBox="0 0 460.8 345.6" width="460.8pt" xmlns="http://www.w3.org/2000/svg" xmlns:xlink="http://www.w3.org/1999/xlink">
 <metadata>
  <rdf:RDF xmlns:cc="http://creativecommons.org/ns#" xmlns:dc="http://purl.org/dc/elements/1.1/" xmlns:rdf="http://www.w3.org/1999/02/22-rdf-syntax-ns#">
   <cc:Work>
    <dc:type rdf:resource="http://purl.org/dc/dcmitype/StillImage"/>
    <dc:date>2021-12-07T17:07:42.280288</dc:date>
    <dc:format>image/svg+xml</dc:format>
    <dc:creator>
     <cc:Agent>
      <dc:title>Matplotlib v3.4.3, https://matplotlib.org/</dc:title>
     </cc:Agent>
    </dc:creator>
   </cc:Work>
  </rdf:RDF>
 </metadata>
 <defs>
  <style type="text/css">*{stroke-linecap:butt;stroke-linejoin:round;}</style>
 </defs>
 <g id="figure_1">
  <g id="patch_1">
   <path d="M 0 345.6 
L 460.8 345.6 
L 460.8 0 
L 0 0 
z
" style="fill:#ffffff;"/>
  </g>
  <g id="axes_1">
   <g id="patch_2">
    <path d="M 47.81 303.64 
L 346.9252 303.64 
L 346.9252 10.8 
L 47.81 10.8 
z
" style="fill:#ffffff;"/>
   </g>
   <g id="PolyCollection_1">
    <defs>
     <path d="M 68.142507 -55.270909 
L 62.374266 -55.270909 
L 62.227083 -57.959982 
L 62.089937 -60.649054 
L 61.964206 -63.338127 
L 61.851 -66.027199 
L 61.751128 -68.716272 
L 61.665078 -71.405344 
L 61.593003 -74.094417 
L 61.534729 -76.783489 
L 61.489761 -79.472562 
L 61.457318 -82.161635 
L 61.436364 -84.850707 
L 61.42565 -87.53978 
L 61.42377 -90.228852 
L 61.429206 -92.917925 
L 61.44039 -95.606997 
L 61.455744 -98.29607 
L 61.473736 -100.985142 
L 61.492917 -103.674215 
L 61.51195 -106.363287 
L 61.52964 -109.05236 
L 61.544942 -111.741433 
L 61.556974 -114.430505 
L 61.565007 -117.119578 
L 61.568465 -119.80865 
L 61.566907 -122.497723 
L 61.560009 -125.186795 
L 61.547553 -127.875868 
L 61.5294 -130.56494 
L 61.505485 -133.254013 
L 61.475794 -135.943085 
L 61.440365 -138.632158 
L 61.399273 -141.32123 
L 61.352636 -144.010303 
L 61.300612 -146.699376 
L 61.2434 -149.388448 
L 61.181247 -152.077521 
L 61.114448 -154.766593 
L 61.043345 -157.455666 
L 60.968325 -160.144738 
L 60.889817 -162.833811 
L 60.808274 -165.522883 
L 60.724169 -168.211956 
L 60.637968 -170.901028 
L 60.550116 -173.590101 
L 60.461016 -176.279174 
L 60.371009 -178.968246 
L 60.280352 -181.657319 
L 60.189209 -184.346391 
L 60.097633 -187.035464 
L 60.005564 -189.724536 
L 59.912825 -192.413609 
L 59.819129 -195.102681 
L 59.724086 -197.791754 
L 59.627221 -200.480826 
L 59.527988 -203.169899 
L 59.425798 -205.858972 
L 59.320039 -208.548044 
L 59.210102 -211.237117 
L 59.095411 -213.926189 
L 58.975445 -216.615262 
L 58.849766 -219.304334 
L 58.718039 -221.993407 
L 58.580056 -224.682479 
L 58.435752 -227.371552 
L 58.285215 -230.060624 
L 58.128703 -232.749697 
L 57.96664 -235.43877 
L 57.799621 -238.127842 
L 57.628406 -240.816915 
L 57.453907 -243.505987 
L 57.277179 -246.19506 
L 57.099396 -248.884132 
L 56.921837 -251.573205 
L 56.74586 -254.262277 
L 56.572887 -256.95135 
L 56.404381 -259.640422 
L 56.241836 -262.329495 
L 56.086766 -265.018567 
L 55.940698 -267.70764 
L 55.805178 -270.396713 
L 55.681771 -273.085785 
L 55.572071 -275.774858 
L 55.477711 -278.46393 
L 55.400366 -281.153003 
L 55.341763 -283.842075 
L 55.303669 -286.531148 
L 55.28788 -289.22022 
L 55.296196 -291.909293 
L 55.33038 -294.598365 
L 55.392107 -297.287438 
L 55.482903 -299.976511 
L 55.604072 -302.665583 
L 55.756621 -305.354656 
L 55.941181 -308.043728 
L 56.157935 -310.732801 
L 56.406556 -313.421873 
L 56.686154 -316.110946 
L 56.995251 -318.800018 
L 57.331771 -321.489091 
L 73.185002 -321.489091 
L 73.185002 -321.489091 
L 73.521522 -318.800018 
L 73.830619 -316.110946 
L 74.110217 -313.421873 
L 74.358838 -310.732801 
L 74.575593 -308.043728 
L 74.760153 -305.354656 
L 74.912702 -302.665583 
L 75.033871 -299.976511 
L 75.124667 -297.287438 
L 75.186394 -294.598365 
L 75.220577 -291.909293 
L 75.228893 -289.22022 
L 75.213105 -286.531148 
L 75.17501 -283.842075 
L 75.116407 -281.153003 
L 75.039063 -278.46393 
L 74.944702 -275.774858 
L 74.835002 -273.085785 
L 74.711595 -270.396713 
L 74.576075 -267.70764 
L 74.430008 -265.018567 
L 74.274937 -262.329495 
L 74.112393 -259.640422 
L 73.943887 -256.95135 
L 73.770913 -254.262277 
L 73.594936 -251.573205 
L 73.417377 -248.884132 
L 73.239594 -246.19506 
L 73.062866 -243.505987 
L 72.888368 -240.816915 
L 72.717152 -238.127842 
L 72.550134 -235.43877 
L 72.38807 -232.749697 
L 72.231558 -230.060624 
L 72.081022 -227.371552 
L 71.936717 -224.682479 
L 71.798735 -221.993407 
L 71.667008 -219.304334 
L 71.541328 -216.615262 
L 71.421362 -213.926189 
L 71.306671 -211.237117 
L 71.196734 -208.548044 
L 71.090975 -205.858972 
L 70.988785 -203.169899 
L 70.889553 -200.480826 
L 70.792687 -197.791754 
L 70.697644 -195.102681 
L 70.603948 -192.413609 
L 70.511209 -189.724536 
L 70.41914 -187.035464 
L 70.327564 -184.346391 
L 70.236421 -181.657319 
L 70.145765 -178.968246 
L 70.055757 -176.279174 
L 69.966658 -173.590101 
L 69.878806 -170.901028 
L 69.792604 -168.211956 
L 69.708499 -165.522883 
L 69.626957 -162.833811 
L 69.548448 -160.144738 
L 69.473429 -157.455666 
L 69.402325 -154.766593 
L 69.335526 -152.077521 
L 69.273373 -149.388448 
L 69.216161 -146.699376 
L 69.164137 -144.010303 
L 69.1175 -141.32123 
L 69.076409 -138.632158 
L 69.040979 -135.943085 
L 69.011289 -133.254013 
L 68.987373 -130.56494 
L 68.969221 -127.875868 
L 68.956764 -125.186795 
L 68.949867 -122.497723 
L 68.948308 -119.80865 
L 68.951766 -117.119578 
L 68.9598 -114.430505 
L 68.971831 -111.741433 
L 68.987133 -109.05236 
L 69.004823 -106.363287 
L 69.023856 -103.674215 
L 69.043037 -100.985142 
L 69.061029 -98.29607 
L 69.076384 -95.606997 
L 69.087567 -92.917925 
L 69.093004 -90.228852 
L 69.091123 -87.53978 
L 69.08041 -84.850707 
L 69.059455 -82.161635 
L 69.027012 -79.472562 
L 68.982045 -76.783489 
L 68.92377 -74.094417 
L 68.851696 -71.405344 
L 68.765645 -68.716272 
L 68.665774 -66.027199 
L 68.552567 -63.338127 
L 68.426836 -60.649054 
L 68.28969 -57.959982 
L 68.142507 -55.270909 
z
" id="m6e1e0e6b6f" style="stroke:#4c4c4c;stroke-width:1.5;"/>
    </defs>
    <g clip-path="url(#p9db3741b23)">
     <use style="fill:#df7f20;stroke:#4c4c4c;stroke-width:1.5;" x="0" xlink:href="#m6e1e0e6b6f" y="345.6"/>
    </g>
   </g>
   <g id="PolyCollection_2">
    <defs>
     <path d="M 163.053506 -55.270909 
L 156.902894 -55.270909 
L 156.775124 -57.959982 
L 156.661533 -60.649054 
L 156.563367 -63.338127 
L 156.481546 -66.027199 
L 156.416642 -68.716272 
L 156.368867 -71.405344 
L 156.338078 -74.094417 
L 156.323788 -76.783489 
L 156.325191 -79.472562 
L 156.341194 -82.161635 
L 156.370457 -84.850707 
L 156.411441 -87.53978 
L 156.462452 -90.228852 
L 156.521693 -92.917925 
L 156.587313 -95.606997 
L 156.657453 -98.29607 
L 156.730289 -100.985142 
L 156.80407 -103.674215 
L 156.877151 -106.363287 
L 156.948013 -109.05236 
L 157.015292 -111.741433 
L 157.077781 -114.430505 
L 157.134447 -117.119578 
L 157.184427 -119.80865 
L 157.227027 -122.497723 
L 157.261719 -125.186795 
L 157.288132 -127.875868 
L 157.306043 -130.56494 
L 157.315366 -133.254013 
L 157.316144 -135.943085 
L 157.308538 -138.632158 
L 157.292818 -141.32123 
L 157.269354 -144.010303 
L 157.238608 -146.699376 
L 157.201126 -149.388448 
L 157.157525 -152.077521 
L 157.10849 -154.766593 
L 157.054758 -157.455666 
L 156.997106 -160.144738 
L 156.936342 -162.833811 
L 156.873285 -165.522883 
L 156.808751 -168.211956 
L 156.743538 -170.901028 
L 156.678405 -173.590101 
L 156.614058 -176.279174 
L 156.551132 -178.968246 
L 156.490177 -181.657319 
L 156.431644 -184.346391 
L 156.375876 -187.035464 
L 156.323098 -189.724536 
L 156.273411 -192.413609 
L 156.226793 -195.102681 
L 156.183093 -197.791754 
L 156.142036 -200.480826 
L 156.103227 -203.169899 
L 156.066154 -205.858972 
L 156.030199 -208.548044 
L 155.994639 -211.237117 
L 155.95866 -213.926189 
L 155.921358 -216.615262 
L 155.881753 -219.304334 
L 155.838793 -221.993407 
L 155.791362 -224.682479 
L 155.738289 -227.371552 
L 155.678355 -230.060624 
L 155.610304 -232.749697 
L 155.532854 -235.43877 
L 155.44471 -238.127842 
L 155.344586 -240.816915 
L 155.231223 -243.505987 
L 155.10342 -246.19506 
L 154.960072 -248.884132 
L 154.800206 -251.573205 
L 154.623035 -254.262277 
L 154.428015 -256.95135 
L 154.214901 -259.640422 
L 153.983823 -262.329495 
L 153.735344 -265.018567 
L 153.470532 -267.70764 
L 153.191019 -270.396713 
L 152.899047 -273.085785 
L 152.597509 -275.774858 
L 152.289956 -278.46393 
L 151.98059 -281.153003 
L 151.674224 -283.842075 
L 151.376214 -286.531148 
L 151.092352 -289.22022 
L 150.828739 -291.909293 
L 150.591619 -294.598365 
L 150.387197 -297.287438 
L 150.221432 -299.976511 
L 150.099837 -302.665583 
L 150.02726 -305.354656 
L 150.007693 -308.043728 
L 150.044099 -310.732801 
L 150.138265 -313.421873 
L 150.290705 -316.110946 
L 150.500604 -318.800018 
L 150.765817 -321.489091 
L 169.190583 -321.489091 
L 169.190583 -321.489091 
L 169.455796 -318.800018 
L 169.665695 -316.110946 
L 169.818135 -313.421873 
L 169.912301 -310.732801 
L 169.948707 -308.043728 
L 169.92914 -305.354656 
L 169.856563 -302.665583 
L 169.734968 -299.976511 
L 169.569203 -297.287438 
L 169.364781 -294.598365 
L 169.127661 -291.909293 
L 168.864048 -289.22022 
L 168.580186 -286.531148 
L 168.282176 -283.842075 
L 167.97581 -281.153003 
L 167.666444 -278.46393 
L 167.358891 -275.774858 
L 167.057353 -273.085785 
L 166.765381 -270.396713 
L 166.485868 -267.70764 
L 166.221056 -265.018567 
L 165.972577 -262.329495 
L 165.741499 -259.640422 
L 165.528385 -256.95135 
L 165.333365 -254.262277 
L 165.156194 -251.573205 
L 164.996328 -248.884132 
L 164.85298 -246.19506 
L 164.725177 -243.505987 
L 164.611814 -240.816915 
L 164.51169 -238.127842 
L 164.423546 -235.43877 
L 164.346096 -232.749697 
L 164.278045 -230.060624 
L 164.218111 -227.371552 
L 164.165038 -224.682479 
L 164.117607 -221.993407 
L 164.074647 -219.304334 
L 164.035042 -216.615262 
L 163.99774 -213.926189 
L 163.961761 -211.237117 
L 163.926201 -208.548044 
L 163.890246 -205.858972 
L 163.853173 -203.169899 
L 163.814364 -200.480826 
L 163.773307 -197.791754 
L 163.729607 -195.102681 
L 163.682989 -192.413609 
L 163.633302 -189.724536 
L 163.580524 -187.035464 
L 163.524756 -184.346391 
L 163.466223 -181.657319 
L 163.405268 -178.968246 
L 163.342342 -176.279174 
L 163.277995 -173.590101 
L 163.212862 -170.901028 
L 163.147649 -168.211956 
L 163.083115 -165.522883 
L 163.020058 -162.833811 
L 162.959294 -160.144738 
L 162.901642 -157.455666 
L 162.84791 -154.766593 
L 162.798875 -152.077521 
L 162.755274 -149.388448 
L 162.717792 -146.699376 
L 162.687046 -144.010303 
L 162.663582 -141.32123 
L 162.647862 -138.632158 
L 162.640256 -135.943085 
L 162.641034 -133.254013 
L 162.650357 -130.56494 
L 162.668268 -127.875868 
L 162.694681 -125.186795 
L 162.729373 -122.497723 
L 162.771973 -119.80865 
L 162.821953 -117.119578 
L 162.878619 -114.430505 
L 162.941108 -111.741433 
L 163.008387 -109.05236 
L 163.079249 -106.363287 
L 163.15233 -103.674215 
L 163.226111 -100.985142 
L 163.298947 -98.29607 
L 163.369087 -95.606997 
L 163.434707 -92.917925 
L 163.493948 -90.228852 
L 163.544959 -87.53978 
L 163.585943 -84.850707 
L 163.615206 -82.161635 
L 163.631209 -79.472562 
L 163.632612 -76.783489 
L 163.618322 -74.094417 
L 163.587533 -71.405344 
L 163.539758 -68.716272 
L 163.474854 -66.027199 
L 163.393033 -63.338127 
L 163.294867 -60.649054 
L 163.181276 -57.959982 
L 163.053506 -55.270909 
z
" id="mfcf7997b3c" style="stroke:#4c4c4c;stroke-width:1.5;"/>
    </defs>
    <g clip-path="url(#p9db3741b23)">
     <use style="fill:#2020df;stroke:#4c4c4c;stroke-width:1.5;" x="0" xlink:href="#mfcf7997b3c" y="345.6"/>
    </g>
   </g>
   <g id="PolyCollection_3">
    <defs>
     <path d="M 183.525652 -55.270909 
L 176.312775 -55.270909 
L 176.154831 -57.959982 
L 176.013064 -60.649054 
L 175.888894 -63.338127 
L 175.783329 -66.027199 
L 175.696949 -68.716272 
L 175.62989 -71.405344 
L 175.581865 -74.094417 
L 175.552182 -76.783489 
L 175.539788 -79.472562 
L 175.543312 -82.161635 
L 175.561128 -84.850707 
L 175.591412 -87.53978 
L 175.632203 -90.228852 
L 175.681471 -92.917925 
L 175.737171 -95.606997 
L 175.797294 -98.29607 
L 175.859921 -100.985142 
L 175.923252 -103.674215 
L 175.985645 -106.363287 
L 176.045634 -109.05236 
L 176.101943 -111.741433 
L 176.1535 -114.430505 
L 176.199434 -117.119578 
L 176.239073 -119.80865 
L 176.271939 -122.497723 
L 176.297735 -125.186795 
L 176.316332 -127.875868 
L 176.327756 -130.56494 
L 176.332166 -133.254013 
L 176.329837 -135.943085 
L 176.321144 -138.632158 
L 176.306537 -141.32123 
L 176.286522 -144.010303 
L 176.261641 -146.699376 
L 176.232456 -149.388448 
L 176.199526 -152.077521 
L 176.163393 -154.766593 
L 176.124574 -157.455666 
L 176.083543 -160.144738 
L 176.040732 -162.833811 
L 175.996527 -165.522883 
L 175.951266 -168.211956 
L 175.90525 -170.901028 
L 175.858747 -173.590101 
L 175.812003 -176.279174 
L 175.765253 -178.968246 
L 175.718731 -181.657319 
L 175.672676 -184.346391 
L 175.627344 -187.035464 
L 175.583005 -189.724536 
L 175.53994 -192.413609 
L 175.498439 -195.102681 
L 175.458784 -197.791754 
L 175.421232 -200.480826 
L 175.385999 -203.169899 
L 175.353235 -205.858972 
L 175.323001 -208.548044 
L 175.295246 -211.237117 
L 175.26979 -213.926189 
L 175.246304 -216.615262 
L 175.224302 -219.304334 
L 175.203133 -221.993407 
L 175.18199 -224.682479 
L 175.15991 -227.371552 
L 175.135801 -230.060624 
L 175.108455 -232.749697 
L 175.076582 -235.43877 
L 175.038843 -238.127842 
L 174.993887 -240.816915 
L 174.940388 -243.505987 
L 174.877093 -246.19506 
L 174.802858 -248.884132 
L 174.7167 -251.573205 
L 174.617835 -254.262277 
L 174.505728 -256.95135 
L 174.380131 -259.640422 
L 174.241133 -262.329495 
L 174.089193 -265.018567 
L 173.925186 -267.70764 
L 173.750427 -270.396713 
L 173.566702 -273.085785 
L 173.376279 -275.774858 
L 173.181913 -278.46393 
L 172.986827 -281.153003 
L 172.794681 -283.842075 
L 172.609521 -286.531148 
L 172.435696 -289.22022 
L 172.277765 -291.909293 
L 172.140375 -294.598365 
L 172.028126 -297.287438 
L 171.945418 -299.976511 
L 171.896295 -302.665583 
L 171.884288 -305.354656 
L 171.912266 -308.043728 
L 171.9823 -310.732801 
L 172.095556 -313.421873 
L 172.252219 -316.110946 
L 172.451448 -318.800018 
L 172.69138 -321.489091 
L 187.147046 -321.489091 
L 187.147046 -321.489091 
L 187.386979 -318.800018 
L 187.586208 -316.110946 
L 187.74287 -313.421873 
L 187.856127 -310.732801 
L 187.926161 -308.043728 
L 187.954138 -305.354656 
L 187.942132 -302.665583 
L 187.893009 -299.976511 
L 187.810301 -297.287438 
L 187.698052 -294.598365 
L 187.560662 -291.909293 
L 187.402731 -289.22022 
L 187.228906 -286.531148 
L 187.043745 -283.842075 
L 186.8516 -281.153003 
L 186.656514 -278.46393 
L 186.462147 -275.774858 
L 186.271725 -273.085785 
L 186.088 -270.396713 
L 185.913241 -267.70764 
L 185.749233 -265.018567 
L 185.597294 -262.329495 
L 185.458295 -259.640422 
L 185.332699 -256.95135 
L 185.220591 -254.262277 
L 185.121727 -251.573205 
L 185.035569 -248.884132 
L 184.961334 -246.19506 
L 184.898038 -243.505987 
L 184.84454 -240.816915 
L 184.799583 -238.127842 
L 184.761845 -235.43877 
L 184.729972 -232.749697 
L 184.702626 -230.060624 
L 184.678516 -227.371552 
L 184.656437 -224.682479 
L 184.635294 -221.993407 
L 184.614125 -219.304334 
L 184.592122 -216.615262 
L 184.568636 -213.926189 
L 184.54318 -211.237117 
L 184.515426 -208.548044 
L 184.485192 -205.858972 
L 184.452428 -203.169899 
L 184.417195 -200.480826 
L 184.379643 -197.791754 
L 184.339987 -195.102681 
L 184.298486 -192.413609 
L 184.255422 -189.724536 
L 184.211082 -187.035464 
L 184.165751 -184.346391 
L 184.119696 -181.657319 
L 184.073173 -178.968246 
L 184.026423 -176.279174 
L 183.97968 -173.590101 
L 183.933177 -170.901028 
L 183.887161 -168.211956 
L 183.8419 -165.522883 
L 183.797694 -162.833811 
L 183.754884 -160.144738 
L 183.713853 -157.455666 
L 183.675033 -154.766593 
L 183.638901 -152.077521 
L 183.60597 -149.388448 
L 183.576785 -146.699376 
L 183.551905 -144.010303 
L 183.53189 -141.32123 
L 183.517282 -138.632158 
L 183.508589 -135.943085 
L 183.506261 -133.254013 
L 183.510671 -130.56494 
L 183.522094 -127.875868 
L 183.540692 -125.186795 
L 183.566488 -122.497723 
L 183.599354 -119.80865 
L 183.638993 -117.119578 
L 183.684927 -114.430505 
L 183.736483 -111.741433 
L 183.792793 -109.05236 
L 183.852781 -106.363287 
L 183.915174 -103.674215 
L 183.978506 -100.985142 
L 184.041132 -98.29607 
L 184.101256 -95.606997 
L 184.156955 -92.917925 
L 184.206224 -90.228852 
L 184.247015 -87.53978 
L 184.277298 -84.850707 
L 184.295115 -82.161635 
L 184.298639 -79.472562 
L 184.286244 -76.783489 
L 184.256562 -74.094417 
L 184.208536 -71.405344 
L 184.141478 -68.716272 
L 184.055097 -66.027199 
L 183.949533 -63.338127 
L 183.825363 -60.649054 
L 183.683595 -57.959982 
L 183.525652 -55.270909 
z
" id="m62f8a39580" style="stroke:#4c4c4c;stroke-width:1.5;"/>
    </defs>
    <g clip-path="url(#p9db3741b23)">
     <use style="fill:#20dfdf;stroke:#4c4c4c;stroke-width:1.5;" x="0" xlink:href="#m62f8a39580" y="345.6"/>
    </g>
   </g>
   <g id="PolyCollection_4">
    <defs>
     <path d="M 237.370067 -55.270909 
L 232.143933 -55.270909 
L 232.003953 -57.959982 
L 231.875202 -60.649054 
L 231.75915 -63.338127 
L 231.65697 -66.027199 
L 231.569518 -68.716272 
L 231.497322 -71.405344 
L 231.440592 -74.094417 
L 231.399229 -76.783489 
L 231.372856 -79.472562 
L 231.360841 -82.161635 
L 231.362335 -84.850707 
L 231.376307 -87.53978 
L 231.401578 -90.228852 
L 231.436857 -92.917925 
L 231.480773 -95.606997 
L 231.531904 -98.29607 
L 231.588805 -100.985142 
L 231.65003 -103.674215 
L 231.714162 -106.363287 
L 231.779827 -109.05236 
L 231.845719 -111.741433 
L 231.910618 -114.430505 
L 231.973408 -117.119578 
L 232.033093 -119.80865 
L 232.088806 -122.497723 
L 232.139823 -125.186795 
L 232.185567 -127.875868 
L 232.225606 -130.56494 
L 232.259656 -133.254013 
L 232.287565 -135.943085 
L 232.309302 -138.632158 
L 232.324945 -141.32123 
L 232.334654 -144.010303 
L 232.338655 -146.699376 
L 232.337217 -149.388448 
L 232.330629 -152.077521 
L 232.319186 -154.766593 
L 232.303165 -157.455666 
L 232.282824 -160.144738 
L 232.258385 -162.833811 
L 232.230035 -165.522883 
L 232.197926 -168.211956 
L 232.162178 -170.901028 
L 232.122889 -173.590101 
L 232.080139 -176.279174 
L 232.034006 -178.968246 
L 231.984569 -181.657319 
L 231.931921 -184.346391 
L 231.876178 -187.035464 
L 231.817476 -189.724536 
L 231.755982 -192.413609 
L 231.691885 -195.102681 
L 231.6254 -197.791754 
L 231.556755 -200.480826 
L 231.486182 -203.169899 
L 231.413912 -205.858972 
L 231.340155 -208.548044 
L 231.265088 -211.237117 
L 231.188841 -213.926189 
L 231.111484 -216.615262 
L 231.033006 -219.304334 
L 230.953308 -221.993407 
L 230.872184 -224.682479 
L 230.789313 -227.371552 
L 230.704247 -230.060624 
L 230.616403 -232.749697 
L 230.525052 -235.43877 
L 230.429321 -238.127842 
L 230.328189 -240.816915 
L 230.220494 -243.505987 
L 230.104939 -246.19506 
L 229.980113 -248.884132 
L 229.84452 -251.573205 
L 229.696617 -254.262277 
L 229.534866 -256.95135 
L 229.357803 -259.640422 
L 229.164124 -262.329495 
L 228.952777 -265.018567 
L 228.723078 -267.70764 
L 228.474829 -270.396713 
L 228.208444 -273.085785 
L 227.925067 -275.774858 
L 227.626682 -278.46393 
L 227.316201 -281.153003 
L 226.997522 -283.842075 
L 226.675539 -286.531148 
L 226.356105 -289.22022 
L 226.045945 -291.909293 
L 225.752499 -294.598365 
L 225.483711 -297.287438 
L 225.247763 -299.976511 
L 225.052772 -302.665583 
L 224.906444 -305.354656 
L 224.815732 -308.043728 
L 224.786493 -310.732801 
L 224.823178 -313.421873 
L 224.928575 -316.110946 
L 225.103622 -318.800018 
L 225.347302 -321.489091 
L 244.166698 -321.489091 
L 244.166698 -321.489091 
L 244.410378 -318.800018 
L 244.585425 -316.110946 
L 244.690822 -313.421873 
L 244.727507 -310.732801 
L 244.698268 -308.043728 
L 244.607556 -305.354656 
L 244.461228 -302.665583 
L 244.266237 -299.976511 
L 244.030289 -297.287438 
L 243.761501 -294.598365 
L 243.468055 -291.909293 
L 243.157895 -289.22022 
L 242.838461 -286.531148 
L 242.516478 -283.842075 
L 242.197799 -281.153003 
L 241.887318 -278.46393 
L 241.588933 -275.774858 
L 241.305556 -273.085785 
L 241.039171 -270.396713 
L 240.790922 -267.70764 
L 240.561223 -265.018567 
L 240.349876 -262.329495 
L 240.156197 -259.640422 
L 239.979134 -256.95135 
L 239.817383 -254.262277 
L 239.66948 -251.573205 
L 239.533887 -248.884132 
L 239.409061 -246.19506 
L 239.293506 -243.505987 
L 239.185811 -240.816915 
L 239.084679 -238.127842 
L 238.988948 -235.43877 
L 238.897597 -232.749697 
L 238.809753 -230.060624 
L 238.724687 -227.371552 
L 238.641816 -224.682479 
L 238.560692 -221.993407 
L 238.480994 -219.304334 
L 238.402516 -216.615262 
L 238.325159 -213.926189 
L 238.248912 -211.237117 
L 238.173845 -208.548044 
L 238.100088 -205.858972 
L 238.027818 -203.169899 
L 237.957245 -200.480826 
L 237.8886 -197.791754 
L 237.822115 -195.102681 
L 237.758018 -192.413609 
L 237.696524 -189.724536 
L 237.637822 -187.035464 
L 237.582079 -184.346391 
L 237.529431 -181.657319 
L 237.479994 -178.968246 
L 237.433861 -176.279174 
L 237.391111 -173.590101 
L 237.351822 -170.901028 
L 237.316074 -168.211956 
L 237.283965 -165.522883 
L 237.255615 -162.833811 
L 237.231176 -160.144738 
L 237.210835 -157.455666 
L 237.194814 -154.766593 
L 237.183371 -152.077521 
L 237.176783 -149.388448 
L 237.175345 -146.699376 
L 237.179346 -144.010303 
L 237.189055 -141.32123 
L 237.204698 -138.632158 
L 237.226435 -135.943085 
L 237.254344 -133.254013 
L 237.288394 -130.56494 
L 237.328433 -127.875868 
L 237.374177 -125.186795 
L 237.425194 -122.497723 
L 237.480907 -119.80865 
L 237.540592 -117.119578 
L 237.603382 -114.430505 
L 237.668281 -111.741433 
L 237.734173 -109.05236 
L 237.799838 -106.363287 
L 237.86397 -103.674215 
L 237.925195 -100.985142 
L 237.982096 -98.29607 
L 238.033227 -95.606997 
L 238.077143 -92.917925 
L 238.112422 -90.228852 
L 238.137693 -87.53978 
L 238.151665 -84.850707 
L 238.153159 -82.161635 
L 238.141144 -79.472562 
L 238.114771 -76.783489 
L 238.073408 -74.094417 
L 238.016678 -71.405344 
L 237.944482 -68.716272 
L 237.85703 -66.027199 
L 237.75485 -63.338127 
L 237.638798 -60.649054 
L 237.510047 -57.959982 
L 237.370067 -55.270909 
z
" id="m6d205598dc" style="stroke:#4c4c4c;stroke-width:1.5;"/>
    </defs>
    <g clip-path="url(#p9db3741b23)">
     <use style="fill:#2020df;stroke:#4c4c4c;stroke-width:1.5;" x="0" xlink:href="#m6d205598dc" y="345.6"/>
    </g>
   </g>
   <g id="PolyCollection_5">
    <defs>
     <path d="M 257.414731 -55.270909 
L 251.981295 -55.270909 
L 251.804824 -57.959982 
L 251.640077 -60.649054 
L 251.48898 -63.338127 
L 251.352977 -66.027199 
L 251.232992 -68.716272 
L 251.129413 -71.405344 
L 251.04211 -74.094417 
L 250.970472 -76.783489 
L 250.913472 -79.472562 
L 250.869743 -82.161635 
L 250.837674 -84.850707 
L 250.815502 -87.53978 
L 250.801409 -90.228852 
L 250.793611 -92.917925 
L 250.790434 -95.606997 
L 250.790383 -98.29607 
L 250.792187 -100.985142 
L 250.794827 -103.674215 
L 250.797553 -106.363287 
L 250.799876 -109.05236 
L 250.801549 -111.741433 
L 250.802539 -114.430505 
L 250.802979 -117.119578 
L 250.803127 -119.80865 
L 250.803312 -122.497723 
L 250.803886 -125.186795 
L 250.805181 -127.875868 
L 250.807467 -130.56494 
L 250.810925 -133.254013 
L 250.815629 -135.943085 
L 250.821535 -138.632158 
L 250.828488 -141.32123 
L 250.836235 -144.010303 
L 250.844444 -146.699376 
L 250.85274 -149.388448 
L 250.860731 -152.077521 
L 250.868046 -154.766593 
L 250.874362 -157.455666 
L 250.879436 -160.144738 
L 250.883123 -162.833811 
L 250.885388 -165.522883 
L 250.886314 -168.211956 
L 250.88609 -170.901028 
L 250.885004 -173.590101 
L 250.88342 -176.279174 
L 250.881753 -178.968246 
L 250.880433 -181.657319 
L 250.879885 -184.346391 
L 250.880485 -187.035464 
L 250.88254 -189.724536 
L 250.886262 -192.413609 
L 250.891743 -195.102681 
L 250.898952 -197.791754 
L 250.907719 -200.480826 
L 250.917746 -203.169899 
L 250.928607 -205.858972 
L 250.939767 -208.548044 
L 250.950599 -211.237117 
L 250.9604 -213.926189 
L 250.968421 -216.615262 
L 250.973879 -219.304334 
L 250.975982 -221.993407 
L 250.973936 -224.682479 
L 250.966958 -227.371552 
L 250.954274 -230.060624 
L 250.935114 -232.749697 
L 250.908699 -235.43877 
L 250.874227 -238.127842 
L 250.830846 -240.816915 
L 250.777637 -243.505987 
L 250.713589 -246.19506 
L 250.637588 -248.884132 
L 250.548405 -251.573205 
L 250.444706 -254.262277 
L 250.325073 -256.95135 
L 250.188046 -259.640422 
L 250.03219 -262.329495 
L 249.856188 -265.018567 
L 249.658948 -267.70764 
L 249.439747 -270.396713 
L 249.198385 -273.085785 
L 248.935347 -275.774858 
L 248.651975 -278.46393 
L 248.350624 -281.153003 
L 248.034788 -283.842075 
L 247.709191 -286.531148 
L 247.379812 -289.22022 
L 247.053847 -291.909293 
L 246.739573 -294.598365 
L 246.446134 -297.287438 
L 246.183234 -299.976511 
L 245.960742 -302.665583 
L 245.788247 -305.354656 
L 245.674566 -308.043728 
L 245.627251 -310.732801 
L 245.65212 -313.421873 
L 245.752865 -316.110946 
L 245.930753 -318.800018 
L 246.18446 -321.489091 
L 263.211567 -321.489091 
L 263.211567 -321.489091 
L 263.465274 -318.800018 
L 263.643162 -316.110946 
L 263.743907 -313.421873 
L 263.768776 -310.732801 
L 263.721461 -308.043728 
L 263.60778 -305.354656 
L 263.435285 -302.665583 
L 263.212793 -299.976511 
L 262.949892 -297.287438 
L 262.656454 -294.598365 
L 262.34218 -291.909293 
L 262.016214 -289.22022 
L 261.686836 -286.531148 
L 261.361238 -283.842075 
L 261.045402 -281.153003 
L 260.744051 -278.46393 
L 260.46068 -275.774858 
L 260.197642 -273.085785 
L 259.956279 -270.396713 
L 259.737079 -267.70764 
L 259.539839 -265.018567 
L 259.363836 -262.329495 
L 259.207981 -259.640422 
L 259.070954 -256.95135 
L 258.95132 -254.262277 
L 258.847621 -251.573205 
L 258.758438 -248.884132 
L 258.682437 -246.19506 
L 258.61839 -243.505987 
L 258.565181 -240.816915 
L 258.5218 -238.127842 
L 258.487327 -235.43877 
L 258.460913 -232.749697 
L 258.441753 -230.060624 
L 258.429069 -227.371552 
L 258.422091 -224.682479 
L 258.420045 -221.993407 
L 258.422147 -219.304334 
L 258.427606 -216.615262 
L 258.435626 -213.926189 
L 258.445428 -211.237117 
L 258.456259 -208.548044 
L 258.46742 -205.858972 
L 258.478281 -203.169899 
L 258.488308 -200.480826 
L 258.497075 -197.791754 
L 258.504283 -195.102681 
L 258.509765 -192.413609 
L 258.513486 -189.724536 
L 258.515542 -187.035464 
L 258.516142 -184.346391 
L 258.515593 -181.657319 
L 258.514274 -178.968246 
L 258.512606 -176.279174 
L 258.511023 -173.590101 
L 258.509937 -170.901028 
L 258.509713 -168.211956 
L 258.510638 -165.522883 
L 258.512904 -162.833811 
L 258.51659 -160.144738 
L 258.521665 -157.455666 
L 258.527981 -154.766593 
L 258.535295 -152.077521 
L 258.543287 -149.388448 
L 258.551583 -146.699376 
L 258.559792 -144.010303 
L 258.567538 -141.32123 
L 258.574491 -138.632158 
L 258.580397 -135.943085 
L 258.585101 -133.254013 
L 258.58856 -130.56494 
L 258.590846 -127.875868 
L 258.592141 -125.186795 
L 258.592715 -122.497723 
L 258.5929 -119.80865 
L 258.593047 -117.119578 
L 258.593488 -114.430505 
L 258.594477 -111.741433 
L 258.596151 -109.05236 
L 258.598474 -106.363287 
L 258.6012 -103.674215 
L 258.60384 -100.985142 
L 258.605643 -98.29607 
L 258.605593 -95.606997 
L 258.602416 -92.917925 
L 258.594617 -90.228852 
L 258.580524 -87.53978 
L 258.558353 -84.850707 
L 258.526284 -82.161635 
L 258.482555 -79.472562 
L 258.425554 -76.783489 
L 258.353916 -74.094417 
L 258.266613 -71.405344 
L 258.163035 -68.716272 
L 258.043049 -66.027199 
L 257.907046 -63.338127 
L 257.755949 -60.649054 
L 257.591203 -57.959982 
L 257.414731 -55.270909 
z
" id="m1aa2bdd0f2" style="stroke:#4c4c4c;stroke-width:1.5;"/>
    </defs>
    <g clip-path="url(#p9db3741b23)">
     <use style="fill:#20dfdf;stroke:#4c4c4c;stroke-width:1.5;" x="0" xlink:href="#m1aa2bdd0f2" y="345.6"/>
    </g>
   </g>
   <g id="PolyCollection_6">
    <defs>
     <path d="M 311.561854 -55.270909 
L 307.509746 -55.270909 
L 307.388351 -57.959982 
L 307.275511 -60.649054 
L 307.172613 -63.338127 
L 307.080802 -66.027199 
L 307.000951 -68.716272 
L 306.933656 -71.405344 
L 306.879228 -74.094417 
L 306.837705 -76.783489 
L 306.808862 -79.472562 
L 306.792235 -82.161635 
L 306.787142 -84.850707 
L 306.792707 -87.53978 
L 306.807893 -90.228852 
L 306.831526 -92.917925 
L 306.862322 -95.606997 
L 306.898921 -98.29607 
L 306.939912 -100.985142 
L 306.983869 -103.674215 
L 307.029372 -106.363287 
L 307.075047 -109.05236 
L 307.119591 -111.741433 
L 307.161801 -114.430505 
L 307.200603 -117.119578 
L 307.235072 -119.80865 
L 307.264451 -122.497723 
L 307.288171 -125.186795 
L 307.30585 -127.875868 
L 307.317308 -130.56494 
L 307.322554 -133.254013 
L 307.321787 -135.943085 
L 307.315379 -138.632158 
L 307.303859 -141.32123 
L 307.287892 -144.010303 
L 307.268255 -146.699376 
L 307.245807 -149.388448 
L 307.221462 -152.077521 
L 307.196152 -154.766593 
L 307.170794 -157.455666 
L 307.146255 -160.144738 
L 307.123319 -162.833811 
L 307.10265 -165.522883 
L 307.084764 -168.211956 
L 307.070006 -170.901028 
L 307.058528 -173.590101 
L 307.050285 -176.279174 
L 307.045029 -178.968246 
L 307.042322 -181.657319 
L 307.04156 -184.346391 
L 307.041997 -187.035464 
L 307.042788 -189.724536 
L 307.043035 -192.413609 
L 307.041833 -195.102681 
L 307.038324 -197.791754 
L 307.031742 -200.480826 
L 307.021452 -203.169899 
L 307.006987 -205.858972 
L 306.988068 -208.548044 
L 306.964607 -211.237117 
L 306.936708 -213.926189 
L 306.904639 -216.615262 
L 306.868805 -219.304334 
L 306.829695 -221.993407 
L 306.787831 -224.682479 
L 306.743707 -227.371552 
L 306.69772 -230.060624 
L 306.650109 -232.749697 
L 306.600891 -235.43877 
L 306.549814 -238.127842 
L 306.496309 -240.816915 
L 306.439465 -243.505987 
L 306.378017 -246.19506 
L 306.310355 -248.884132 
L 306.23455 -251.573205 
L 306.148407 -254.262277 
L 306.049534 -256.95135 
L 305.935442 -259.640422 
L 305.803659 -262.329495 
L 305.651868 -265.018567 
L 305.478061 -267.70764 
L 305.280704 -270.396713 
L 305.05891 -273.085785 
L 304.812607 -275.774858 
L 304.542694 -278.46393 
L 304.251179 -281.153003 
L 303.941269 -283.842075 
L 303.617429 -286.531148 
L 303.28537 -289.22022 
L 302.951975 -291.909293 
L 302.625149 -294.598365 
L 302.313595 -297.287438 
L 302.026521 -299.976511 
L 301.773285 -302.665583 
L 301.562991 -305.354656 
L 301.404074 -308.043728 
L 301.30387 -310.732801 
L 301.268234 -313.421873 
L 301.301196 -316.110946 
L 301.404717 -318.800018 
L 301.578537 -321.489091 
L 317.493063 -321.489091 
L 317.493063 -321.489091 
L 317.666883 -318.800018 
L 317.770404 -316.110946 
L 317.803366 -313.421873 
L 317.76773 -310.732801 
L 317.667526 -308.043728 
L 317.508609 -305.354656 
L 317.298315 -302.665583 
L 317.045079 -299.976511 
L 316.758005 -297.287438 
L 316.446451 -294.598365 
L 316.119625 -291.909293 
L 315.78623 -289.22022 
L 315.454171 -286.531148 
L 315.130331 -283.842075 
L 314.820421 -281.153003 
L 314.528906 -278.46393 
L 314.258993 -275.774858 
L 314.01269 -273.085785 
L 313.790896 -270.396713 
L 313.593539 -267.70764 
L 313.419732 -265.018567 
L 313.267941 -262.329495 
L 313.136158 -259.640422 
L 313.022066 -256.95135 
L 312.923193 -254.262277 
L 312.83705 -251.573205 
L 312.761245 -248.884132 
L 312.693583 -246.19506 
L 312.632135 -243.505987 
L 312.575291 -240.816915 
L 312.521786 -238.127842 
L 312.470709 -235.43877 
L 312.421491 -232.749697 
L 312.37388 -230.060624 
L 312.327893 -227.371552 
L 312.283769 -224.682479 
L 312.241905 -221.993407 
L 312.202795 -219.304334 
L 312.166961 -216.615262 
L 312.134892 -213.926189 
L 312.106993 -211.237117 
L 312.083532 -208.548044 
L 312.064613 -205.858972 
L 312.050148 -203.169899 
L 312.039858 -200.480826 
L 312.033276 -197.791754 
L 312.029767 -195.102681 
L 312.028565 -192.413609 
L 312.028812 -189.724536 
L 312.029603 -187.035464 
L 312.03004 -184.346391 
L 312.029278 -181.657319 
L 312.026571 -178.968246 
L 312.021315 -176.279174 
L 312.013072 -173.590101 
L 312.001594 -170.901028 
L 311.986836 -168.211956 
L 311.96895 -165.522883 
L 311.948281 -162.833811 
L 311.925345 -160.144738 
L 311.900806 -157.455666 
L 311.875448 -154.766593 
L 311.850138 -152.077521 
L 311.825793 -149.388448 
L 311.803345 -146.699376 
L 311.783708 -144.010303 
L 311.767741 -141.32123 
L 311.756221 -138.632158 
L 311.749813 -135.943085 
L 311.749046 -133.254013 
L 311.754292 -130.56494 
L 311.76575 -127.875868 
L 311.783429 -125.186795 
L 311.807149 -122.497723 
L 311.836528 -119.80865 
L 311.870997 -117.119578 
L 311.909799 -114.430505 
L 311.952009 -111.741433 
L 311.996553 -109.05236 
L 312.042228 -106.363287 
L 312.087731 -103.674215 
L 312.131688 -100.985142 
L 312.172679 -98.29607 
L 312.209278 -95.606997 
L 312.240074 -92.917925 
L 312.263707 -90.228852 
L 312.278893 -87.53978 
L 312.284458 -84.850707 
L 312.279365 -82.161635 
L 312.262738 -79.472562 
L 312.233895 -76.783489 
L 312.192372 -74.094417 
L 312.137944 -71.405344 
L 312.070649 -68.716272 
L 311.990798 -66.027199 
L 311.898987 -63.338127 
L 311.796089 -60.649054 
L 311.683249 -57.959982 
L 311.561854 -55.270909 
z
" id="m7625f7a541" style="stroke:#4c4c4c;stroke-width:1.5;"/>
    </defs>
    <g clip-path="url(#p9db3741b23)">
     <use style="fill:#2020df;stroke:#4c4c4c;stroke-width:1.5;" x="0" xlink:href="#m7625f7a541" y="345.6"/>
    </g>
   </g>
   <g id="PolyCollection_7">
    <defs>
     <path d="M 331.383413 -55.270909 
L 327.570214 -55.270909 
L 327.453014 -57.959982 
L 327.348624 -60.649054 
L 327.258395 -63.338127 
L 327.183099 -66.027199 
L 327.122925 -68.716272 
L 327.077508 -71.405344 
L 327.045994 -74.094417 
L 327.027121 -76.783489 
L 327.019323 -79.472562 
L 327.020837 -82.161635 
L 327.029811 -84.850707 
L 327.044406 -87.53978 
L 327.062878 -90.228852 
L 327.083656 -92.917925 
L 327.105389 -95.606997 
L 327.126987 -98.29607 
L 327.147627 -100.985142 
L 327.166762 -103.674215 
L 327.184094 -106.363287 
L 327.199549 -109.05236 
L 327.213232 -111.741433 
L 327.225382 -114.430505 
L 327.236316 -117.119578 
L 327.246377 -119.80865 
L 327.255885 -122.497723 
L 327.265089 -125.186795 
L 327.274137 -127.875868 
L 327.283049 -130.56494 
L 327.291704 -133.254013 
L 327.299844 -135.943085 
L 327.307087 -138.632158 
L 327.312953 -141.32123 
L 327.316901 -144.010303 
L 327.318371 -146.699376 
L 327.316832 -149.388448 
L 327.311827 -152.077521 
L 327.303019 -154.766593 
L 327.290228 -157.455666 
L 327.273453 -160.144738 
L 327.252889 -162.833811 
L 327.228928 -165.522883 
L 327.202142 -168.211956 
L 327.173259 -170.901028 
L 327.143123 -173.590101 
L 327.112648 -176.279174 
L 327.082768 -178.968246 
L 327.054381 -181.657319 
L 327.028302 -184.346391 
L 327.005211 -187.035464 
L 326.985616 -189.724536 
L 326.969827 -192.413609 
L 326.957927 -195.102681 
L 326.949776 -197.791754 
L 326.945007 -200.480826 
L 326.943048 -203.169899 
L 326.943145 -205.858972 
L 326.944406 -208.548044 
L 326.945841 -211.237117 
L 326.946418 -213.926189 
L 326.945116 -216.615262 
L 326.940975 -219.304334 
L 326.933146 -221.993407 
L 326.920928 -224.682479 
L 326.903787 -227.371552 
L 326.881368 -230.060624 
L 326.853474 -232.749697 
L 326.820035 -235.43877 
L 326.781052 -238.127842 
L 326.736516 -240.816915 
L 326.686328 -243.505987 
L 326.630192 -246.19506 
L 326.567512 -248.884132 
L 326.497296 -251.573205 
L 326.418068 -254.262277 
L 326.327799 -256.95135 
L 326.22388 -259.640422 
L 326.103128 -262.329495 
L 325.961844 -265.018567 
L 325.795946 -267.70764 
L 325.601154 -270.396713 
L 325.373262 -273.085785 
L 325.108478 -275.774858 
L 324.80383 -278.46393 
L 324.457618 -281.153003 
L 324.069884 -283.842075 
L 323.642867 -286.531148 
L 323.181388 -289.22022 
L 322.693122 -291.909293 
L 322.188693 -294.598365 
L 321.681562 -297.287438 
L 321.187662 -299.976511 
L 320.724781 -302.665583 
L 320.311701 -305.354656 
L 319.967147 -308.043728 
L 319.708611 -310.732801 
L 319.551158 -313.421873 
L 319.506307 -316.110946 
L 319.581115 -318.800018 
L 319.777547 -321.489091 
L 339.17608 -321.489091 
L 339.17608 -321.489091 
L 339.372512 -318.800018 
L 339.44732 -316.110946 
L 339.402469 -313.421873 
L 339.245016 -310.732801 
L 338.98648 -308.043728 
L 338.641926 -305.354656 
L 338.228845 -302.665583 
L 337.765964 -299.976511 
L 337.272064 -297.287438 
L 336.764933 -294.598365 
L 336.260505 -291.909293 
L 335.772239 -289.22022 
L 335.31076 -286.531148 
L 334.883743 -283.842075 
L 334.496009 -281.153003 
L 334.149797 -278.46393 
L 333.845149 -275.774858 
L 333.580365 -273.085785 
L 333.352473 -270.396713 
L 333.15768 -267.70764 
L 332.991782 -265.018567 
L 332.850499 -262.329495 
L 332.729746 -259.640422 
L 332.625828 -256.95135 
L 332.535559 -254.262277 
L 332.45633 -251.573205 
L 332.386115 -248.884132 
L 332.323435 -246.19506 
L 332.267298 -243.505987 
L 332.21711 -240.816915 
L 332.172575 -238.127842 
L 332.133591 -235.43877 
L 332.100153 -232.749697 
L 332.072259 -230.060624 
L 332.04984 -227.371552 
L 332.032699 -224.682479 
L 332.02048 -221.993407 
L 332.012652 -219.304334 
L 332.008511 -216.615262 
L 332.007208 -213.926189 
L 332.007786 -211.237117 
L 332.009221 -208.548044 
L 332.010482 -205.858972 
L 332.010579 -203.169899 
L 332.00862 -200.480826 
L 332.003851 -197.791754 
L 331.9957 -195.102681 
L 331.9838 -192.413609 
L 331.96801 -189.724536 
L 331.948416 -187.035464 
L 331.925325 -184.346391 
L 331.899245 -181.657319 
L 331.870859 -178.968246 
L 331.840978 -176.279174 
L 331.810503 -173.590101 
L 331.780367 -170.901028 
L 331.751484 -168.211956 
L 331.724699 -165.522883 
L 331.700738 -162.833811 
L 331.680174 -160.144738 
L 331.663399 -157.455666 
L 331.650607 -154.766593 
L 331.6418 -152.077521 
L 331.636795 -149.388448 
L 331.635255 -146.699376 
L 331.636725 -144.010303 
L 331.640673 -141.32123 
L 331.64654 -138.632158 
L 331.653783 -135.943085 
L 331.661923 -133.254013 
L 331.670578 -130.56494 
L 331.679489 -127.875868 
L 331.688538 -125.186795 
L 331.697742 -122.497723 
L 331.707249 -119.80865 
L 331.71731 -117.119578 
L 331.728244 -114.430505 
L 331.740395 -111.741433 
L 331.754078 -109.05236 
L 331.769533 -106.363287 
L 331.786865 -103.674215 
L 331.805999 -100.985142 
L 331.82664 -98.29607 
L 331.848237 -95.606997 
L 331.869971 -92.917925 
L 331.890749 -90.228852 
L 331.909221 -87.53978 
L 331.923816 -84.850707 
L 331.93279 -82.161635 
L 331.934304 -79.472562 
L 331.926505 -76.783489 
L 331.907632 -74.094417 
L 331.876118 -71.405344 
L 331.830702 -68.716272 
L 331.770528 -66.027199 
L 331.695232 -63.338127 
L 331.605003 -60.649054 
L 331.500613 -57.959982 
L 331.383413 -55.270909 
z
" id="mbb52ffc6fd" style="stroke:#4c4c4c;stroke-width:1.5;"/>
    </defs>
    <g clip-path="url(#p9db3741b23)">
     <use style="fill:#20dfdf;stroke:#4c4c4c;stroke-width:1.5;" x="0" xlink:href="#mbb52ffc6fd" y="345.6"/>
    </g>
   </g>
   <g id="patch_3">
    <path clip-path="url(#p9db3741b23)" d="M 85.1994 326.63157 
L 85.1994 326.63157 
L 85.1994 326.63157 
L 85.1994 326.63157 
z
" style="fill:#df7f20;stroke:#4c4c4c;stroke-linejoin:miter;stroke-width:0.75;"/>
   </g>
   <g id="patch_4">
    <path clip-path="url(#p9db3741b23)" d="M 85.1994 326.63157 
L 85.1994 326.63157 
L 85.1994 326.63157 
L 85.1994 326.63157 
z
" style="fill:#2020df;stroke:#4c4c4c;stroke-linejoin:miter;stroke-width:0.75;"/>
   </g>
   <g id="patch_5">
    <path clip-path="url(#p9db3741b23)" d="M 85.1994 326.63157 
L 85.1994 326.63157 
L 85.1994 326.63157 
L 85.1994 326.63157 
z
" style="fill:#20dfdf;stroke:#4c4c4c;stroke-linejoin:miter;stroke-width:0.75;"/>
   </g>
   <g id="matplotlib.axis_1">
    <g id="xtick_1">
     <g id="line2d_1">
      <defs>
       <path d="M 0 0 
L 0 3.5 
" id="m40ed23433f" style="stroke:#000000;stroke-width:0.8;"/>
      </defs>
      <g>
       <use style="stroke:#000000;stroke-width:0.8;" x="85.1994" xlink:href="#m40ed23433f" y="303.64"/>
      </g>
     </g>
     <g id="text_1">
      <!-- big -->
      <g transform="translate(77.4619 318.238437)scale(0.1 -0.1)">
       <defs>
        <path d="M 3116 1747 
Q 3116 2381 2855 2742 
Q 2594 3103 2138 3103 
Q 1681 3103 1420 2742 
Q 1159 2381 1159 1747 
Q 1159 1113 1420 752 
Q 1681 391 2138 391 
Q 2594 391 2855 752 
Q 3116 1113 3116 1747 
z
M 1159 2969 
Q 1341 3281 1617 3432 
Q 1894 3584 2278 3584 
Q 2916 3584 3314 3078 
Q 3713 2572 3713 1747 
Q 3713 922 3314 415 
Q 2916 -91 2278 -91 
Q 1894 -91 1617 61 
Q 1341 213 1159 525 
L 1159 0 
L 581 0 
L 581 4863 
L 1159 4863 
L 1159 2969 
z
" id="DejaVuSans-62" transform="scale(0.015625)"/>
        <path d="M 603 3500 
L 1178 3500 
L 1178 0 
L 603 0 
L 603 3500 
z
M 603 4863 
L 1178 4863 
L 1178 4134 
L 603 4134 
L 603 4863 
z
" id="DejaVuSans-69" transform="scale(0.015625)"/>
        <path d="M 2906 1791 
Q 2906 2416 2648 2759 
Q 2391 3103 1925 3103 
Q 1463 3103 1205 2759 
Q 947 2416 947 1791 
Q 947 1169 1205 825 
Q 1463 481 1925 481 
Q 2391 481 2648 825 
Q 2906 1169 2906 1791 
z
M 3481 434 
Q 3481 -459 3084 -895 
Q 2688 -1331 1869 -1331 
Q 1566 -1331 1297 -1286 
Q 1028 -1241 775 -1147 
L 775 -588 
Q 1028 -725 1275 -790 
Q 1522 -856 1778 -856 
Q 2344 -856 2625 -561 
Q 2906 -266 2906 331 
L 2906 616 
Q 2728 306 2450 153 
Q 2172 0 1784 0 
Q 1141 0 747 490 
Q 353 981 353 1791 
Q 353 2603 747 3093 
Q 1141 3584 1784 3584 
Q 2172 3584 2450 3431 
Q 2728 3278 2906 2969 
L 2906 3500 
L 3481 3500 
L 3481 434 
z
" id="DejaVuSans-67" transform="scale(0.015625)"/>
       </defs>
       <use xlink:href="#DejaVuSans-62"/>
       <use x="63.476562" xlink:href="#DejaVuSans-69"/>
       <use x="91.259766" xlink:href="#DejaVuSans-67"/>
      </g>
     </g>
    </g>
    <g id="xtick_2">
     <g id="line2d_2">
      <g>
       <use style="stroke:#000000;stroke-width:0.8;" x="159.9782" xlink:href="#m40ed23433f" y="303.64"/>
      </g>
     </g>
     <g id="text_2">
      <!-- 2 -->
      <g transform="translate(156.79695 318.238437)scale(0.1 -0.1)">
       <defs>
        <path d="M 1228 531 
L 3431 531 
L 3431 0 
L 469 0 
L 469 531 
Q 828 903 1448 1529 
Q 2069 2156 2228 2338 
Q 2531 2678 2651 2914 
Q 2772 3150 2772 3378 
Q 2772 3750 2511 3984 
Q 2250 4219 1831 4219 
Q 1534 4219 1204 4116 
Q 875 4013 500 3803 
L 500 4441 
Q 881 4594 1212 4672 
Q 1544 4750 1819 4750 
Q 2544 4750 2975 4387 
Q 3406 4025 3406 3419 
Q 3406 3131 3298 2873 
Q 3191 2616 2906 2266 
Q 2828 2175 2409 1742 
Q 1991 1309 1228 531 
z
" id="DejaVuSans-32" transform="scale(0.015625)"/>
       </defs>
       <use xlink:href="#DejaVuSans-32"/>
      </g>
     </g>
    </g>
    <g id="xtick_3">
     <g id="line2d_3">
      <g>
       <use style="stroke:#000000;stroke-width:0.8;" x="234.757" xlink:href="#m40ed23433f" y="303.64"/>
      </g>
     </g>
     <g id="text_3">
      <!-- 3 -->
      <g transform="translate(231.57575 318.238437)scale(0.1 -0.1)">
       <defs>
        <path d="M 2597 2516 
Q 3050 2419 3304 2112 
Q 3559 1806 3559 1356 
Q 3559 666 3084 287 
Q 2609 -91 1734 -91 
Q 1441 -91 1130 -33 
Q 819 25 488 141 
L 488 750 
Q 750 597 1062 519 
Q 1375 441 1716 441 
Q 2309 441 2620 675 
Q 2931 909 2931 1356 
Q 2931 1769 2642 2001 
Q 2353 2234 1838 2234 
L 1294 2234 
L 1294 2753 
L 1863 2753 
Q 2328 2753 2575 2939 
Q 2822 3125 2822 3475 
Q 2822 3834 2567 4026 
Q 2313 4219 1838 4219 
Q 1578 4219 1281 4162 
Q 984 4106 628 3988 
L 628 4550 
Q 988 4650 1302 4700 
Q 1616 4750 1894 4750 
Q 2613 4750 3031 4423 
Q 3450 4097 3450 3541 
Q 3450 3153 3228 2886 
Q 3006 2619 2597 2516 
z
" id="DejaVuSans-33" transform="scale(0.015625)"/>
       </defs>
       <use xlink:href="#DejaVuSans-33"/>
      </g>
     </g>
    </g>
    <g id="xtick_4">
     <g id="line2d_4">
      <g>
       <use style="stroke:#000000;stroke-width:0.8;" x="309.5358" xlink:href="#m40ed23433f" y="303.64"/>
      </g>
     </g>
     <g id="text_4">
      <!-- 4 -->
      <g transform="translate(306.35455 318.238437)scale(0.1 -0.1)">
       <defs>
        <path d="M 2419 4116 
L 825 1625 
L 2419 1625 
L 2419 4116 
z
M 2253 4666 
L 3047 4666 
L 3047 1625 
L 3713 1625 
L 3713 1100 
L 3047 1100 
L 3047 0 
L 2419 0 
L 2419 1100 
L 313 1100 
L 313 1709 
L 2253 4666 
z
" id="DejaVuSans-34" transform="scale(0.015625)"/>
       </defs>
       <use xlink:href="#DejaVuSans-34"/>
      </g>
     </g>
    </g>
    <g id="text_5">
     <!-- Number of splits -->
     <g transform="translate(156.162131 331.916562)scale(0.1 -0.1)">
      <defs>
       <path d="M 628 4666 
L 1478 4666 
L 3547 763 
L 3547 4666 
L 4159 4666 
L 4159 0 
L 3309 0 
L 1241 3903 
L 1241 0 
L 628 0 
L 628 4666 
z
" id="DejaVuSans-4e" transform="scale(0.015625)"/>
       <path d="M 544 1381 
L 544 3500 
L 1119 3500 
L 1119 1403 
Q 1119 906 1312 657 
Q 1506 409 1894 409 
Q 2359 409 2629 706 
Q 2900 1003 2900 1516 
L 2900 3500 
L 3475 3500 
L 3475 0 
L 2900 0 
L 2900 538 
Q 2691 219 2414 64 
Q 2138 -91 1772 -91 
Q 1169 -91 856 284 
Q 544 659 544 1381 
z
M 1991 3584 
L 1991 3584 
z
" id="DejaVuSans-75" transform="scale(0.015625)"/>
       <path d="M 3328 2828 
Q 3544 3216 3844 3400 
Q 4144 3584 4550 3584 
Q 5097 3584 5394 3201 
Q 5691 2819 5691 2113 
L 5691 0 
L 5113 0 
L 5113 2094 
Q 5113 2597 4934 2840 
Q 4756 3084 4391 3084 
Q 3944 3084 3684 2787 
Q 3425 2491 3425 1978 
L 3425 0 
L 2847 0 
L 2847 2094 
Q 2847 2600 2669 2842 
Q 2491 3084 2119 3084 
Q 1678 3084 1418 2786 
Q 1159 2488 1159 1978 
L 1159 0 
L 581 0 
L 581 3500 
L 1159 3500 
L 1159 2956 
Q 1356 3278 1631 3431 
Q 1906 3584 2284 3584 
Q 2666 3584 2933 3390 
Q 3200 3197 3328 2828 
z
" id="DejaVuSans-6d" transform="scale(0.015625)"/>
       <path d="M 3597 1894 
L 3597 1613 
L 953 1613 
Q 991 1019 1311 708 
Q 1631 397 2203 397 
Q 2534 397 2845 478 
Q 3156 559 3463 722 
L 3463 178 
Q 3153 47 2828 -22 
Q 2503 -91 2169 -91 
Q 1331 -91 842 396 
Q 353 884 353 1716 
Q 353 2575 817 3079 
Q 1281 3584 2069 3584 
Q 2775 3584 3186 3129 
Q 3597 2675 3597 1894 
z
M 3022 2063 
Q 3016 2534 2758 2815 
Q 2500 3097 2075 3097 
Q 1594 3097 1305 2825 
Q 1016 2553 972 2059 
L 3022 2063 
z
" id="DejaVuSans-65" transform="scale(0.015625)"/>
       <path d="M 2631 2963 
Q 2534 3019 2420 3045 
Q 2306 3072 2169 3072 
Q 1681 3072 1420 2755 
Q 1159 2438 1159 1844 
L 1159 0 
L 581 0 
L 581 3500 
L 1159 3500 
L 1159 2956 
Q 1341 3275 1631 3429 
Q 1922 3584 2338 3584 
Q 2397 3584 2469 3576 
Q 2541 3569 2628 3553 
L 2631 2963 
z
" id="DejaVuSans-72" transform="scale(0.015625)"/>
       <path id="DejaVuSans-20" transform="scale(0.015625)"/>
       <path d="M 1959 3097 
Q 1497 3097 1228 2736 
Q 959 2375 959 1747 
Q 959 1119 1226 758 
Q 1494 397 1959 397 
Q 2419 397 2687 759 
Q 2956 1122 2956 1747 
Q 2956 2369 2687 2733 
Q 2419 3097 1959 3097 
z
M 1959 3584 
Q 2709 3584 3137 3096 
Q 3566 2609 3566 1747 
Q 3566 888 3137 398 
Q 2709 -91 1959 -91 
Q 1206 -91 779 398 
Q 353 888 353 1747 
Q 353 2609 779 3096 
Q 1206 3584 1959 3584 
z
" id="DejaVuSans-6f" transform="scale(0.015625)"/>
       <path d="M 2375 4863 
L 2375 4384 
L 1825 4384 
Q 1516 4384 1395 4259 
Q 1275 4134 1275 3809 
L 1275 3500 
L 2222 3500 
L 2222 3053 
L 1275 3053 
L 1275 0 
L 697 0 
L 697 3053 
L 147 3053 
L 147 3500 
L 697 3500 
L 697 3744 
Q 697 4328 969 4595 
Q 1241 4863 1831 4863 
L 2375 4863 
z
" id="DejaVuSans-66" transform="scale(0.015625)"/>
       <path d="M 2834 3397 
L 2834 2853 
Q 2591 2978 2328 3040 
Q 2066 3103 1784 3103 
Q 1356 3103 1142 2972 
Q 928 2841 928 2578 
Q 928 2378 1081 2264 
Q 1234 2150 1697 2047 
L 1894 2003 
Q 2506 1872 2764 1633 
Q 3022 1394 3022 966 
Q 3022 478 2636 193 
Q 2250 -91 1575 -91 
Q 1294 -91 989 -36 
Q 684 19 347 128 
L 347 722 
Q 666 556 975 473 
Q 1284 391 1588 391 
Q 1994 391 2212 530 
Q 2431 669 2431 922 
Q 2431 1156 2273 1281 
Q 2116 1406 1581 1522 
L 1381 1569 
Q 847 1681 609 1914 
Q 372 2147 372 2553 
Q 372 3047 722 3315 
Q 1072 3584 1716 3584 
Q 2034 3584 2315 3537 
Q 2597 3491 2834 3397 
z
" id="DejaVuSans-73" transform="scale(0.015625)"/>
       <path d="M 1159 525 
L 1159 -1331 
L 581 -1331 
L 581 3500 
L 1159 3500 
L 1159 2969 
Q 1341 3281 1617 3432 
Q 1894 3584 2278 3584 
Q 2916 3584 3314 3078 
Q 3713 2572 3713 1747 
Q 3713 922 3314 415 
Q 2916 -91 2278 -91 
Q 1894 -91 1617 61 
Q 1341 213 1159 525 
z
M 3116 1747 
Q 3116 2381 2855 2742 
Q 2594 3103 2138 3103 
Q 1681 3103 1420 2742 
Q 1159 2381 1159 1747 
Q 1159 1113 1420 752 
Q 1681 391 2138 391 
Q 2594 391 2855 752 
Q 3116 1113 3116 1747 
z
" id="DejaVuSans-70" transform="scale(0.015625)"/>
       <path d="M 603 4863 
L 1178 4863 
L 1178 0 
L 603 0 
L 603 4863 
z
" id="DejaVuSans-6c" transform="scale(0.015625)"/>
       <path d="M 1172 4494 
L 1172 3500 
L 2356 3500 
L 2356 3053 
L 1172 3053 
L 1172 1153 
Q 1172 725 1289 603 
Q 1406 481 1766 481 
L 2356 481 
L 2356 0 
L 1766 0 
Q 1100 0 847 248 
Q 594 497 594 1153 
L 594 3053 
L 172 3053 
L 172 3500 
L 594 3500 
L 594 4494 
L 1172 4494 
z
" id="DejaVuSans-74" transform="scale(0.015625)"/>
      </defs>
      <use xlink:href="#DejaVuSans-4e"/>
      <use x="74.804688" xlink:href="#DejaVuSans-75"/>
      <use x="138.183594" xlink:href="#DejaVuSans-6d"/>
      <use x="235.595703" xlink:href="#DejaVuSans-62"/>
      <use x="299.072266" xlink:href="#DejaVuSans-65"/>
      <use x="360.595703" xlink:href="#DejaVuSans-72"/>
      <use x="401.708984" xlink:href="#DejaVuSans-20"/>
      <use x="433.496094" xlink:href="#DejaVuSans-6f"/>
      <use x="494.677734" xlink:href="#DejaVuSans-66"/>
      <use x="529.882812" xlink:href="#DejaVuSans-20"/>
      <use x="561.669922" xlink:href="#DejaVuSans-73"/>
      <use x="613.769531" xlink:href="#DejaVuSans-70"/>
      <use x="677.246094" xlink:href="#DejaVuSans-6c"/>
      <use x="705.029297" xlink:href="#DejaVuSans-69"/>
      <use x="732.8125" xlink:href="#DejaVuSans-74"/>
      <use x="772.021484" xlink:href="#DejaVuSans-73"/>
     </g>
    </g>
   </g>
   <g id="matplotlib.axis_2">
    <g id="ytick_1">
     <g id="line2d_5">
      <defs>
       <path d="M 0 0 
L -3.5 0 
" id="m75fc317527" style="stroke:#000000;stroke-width:0.8;"/>
      </defs>
      <g>
       <use style="stroke:#000000;stroke-width:0.8;" x="47.81" xlink:href="#m75fc317527" y="266.127438"/>
      </g>
     </g>
     <g id="text_6">
      <!-- 0.2 -->
      <g transform="translate(24.906875 269.926657)scale(0.1 -0.1)">
       <defs>
        <path d="M 2034 4250 
Q 1547 4250 1301 3770 
Q 1056 3291 1056 2328 
Q 1056 1369 1301 889 
Q 1547 409 2034 409 
Q 2525 409 2770 889 
Q 3016 1369 3016 2328 
Q 3016 3291 2770 3770 
Q 2525 4250 2034 4250 
z
M 2034 4750 
Q 2819 4750 3233 4129 
Q 3647 3509 3647 2328 
Q 3647 1150 3233 529 
Q 2819 -91 2034 -91 
Q 1250 -91 836 529 
Q 422 1150 422 2328 
Q 422 3509 836 4129 
Q 1250 4750 2034 4750 
z
" id="DejaVuSans-30" transform="scale(0.015625)"/>
        <path d="M 684 794 
L 1344 794 
L 1344 0 
L 684 0 
L 684 794 
z
" id="DejaVuSans-2e" transform="scale(0.015625)"/>
       </defs>
       <use xlink:href="#DejaVuSans-30"/>
       <use x="63.623047" xlink:href="#DejaVuSans-2e"/>
       <use x="95.410156" xlink:href="#DejaVuSans-32"/>
      </g>
     </g>
    </g>
    <g id="ytick_2">
     <g id="line2d_6">
      <g>
       <use style="stroke:#000000;stroke-width:0.8;" x="47.81" xlink:href="#m75fc317527" y="205.623306"/>
      </g>
     </g>
     <g id="text_7">
      <!-- 0.4 -->
      <g transform="translate(24.906875 209.422525)scale(0.1 -0.1)">
       <use xlink:href="#DejaVuSans-30"/>
       <use x="63.623047" xlink:href="#DejaVuSans-2e"/>
       <use x="95.410156" xlink:href="#DejaVuSans-34"/>
      </g>
     </g>
    </g>
    <g id="ytick_3">
     <g id="line2d_7">
      <g>
       <use style="stroke:#000000;stroke-width:0.8;" x="47.81" xlink:href="#m75fc317527" y="145.119174"/>
      </g>
     </g>
     <g id="text_8">
      <!-- 0.6 -->
      <g transform="translate(24.906875 148.918392)scale(0.1 -0.1)">
       <defs>
        <path d="M 2113 2584 
Q 1688 2584 1439 2293 
Q 1191 2003 1191 1497 
Q 1191 994 1439 701 
Q 1688 409 2113 409 
Q 2538 409 2786 701 
Q 3034 994 3034 1497 
Q 3034 2003 2786 2293 
Q 2538 2584 2113 2584 
z
M 3366 4563 
L 3366 3988 
Q 3128 4100 2886 4159 
Q 2644 4219 2406 4219 
Q 1781 4219 1451 3797 
Q 1122 3375 1075 2522 
Q 1259 2794 1537 2939 
Q 1816 3084 2150 3084 
Q 2853 3084 3261 2657 
Q 3669 2231 3669 1497 
Q 3669 778 3244 343 
Q 2819 -91 2113 -91 
Q 1303 -91 875 529 
Q 447 1150 447 2328 
Q 447 3434 972 4092 
Q 1497 4750 2381 4750 
Q 2619 4750 2861 4703 
Q 3103 4656 3366 4563 
z
" id="DejaVuSans-36" transform="scale(0.015625)"/>
       </defs>
       <use xlink:href="#DejaVuSans-30"/>
       <use x="63.623047" xlink:href="#DejaVuSans-2e"/>
       <use x="95.410156" xlink:href="#DejaVuSans-36"/>
      </g>
     </g>
    </g>
    <g id="ytick_4">
     <g id="line2d_8">
      <g>
       <use style="stroke:#000000;stroke-width:0.8;" x="47.81" xlink:href="#m75fc317527" y="84.615041"/>
      </g>
     </g>
     <g id="text_9">
      <!-- 0.8 -->
      <g transform="translate(24.906875 88.41426)scale(0.1 -0.1)">
       <defs>
        <path d="M 2034 2216 
Q 1584 2216 1326 1975 
Q 1069 1734 1069 1313 
Q 1069 891 1326 650 
Q 1584 409 2034 409 
Q 2484 409 2743 651 
Q 3003 894 3003 1313 
Q 3003 1734 2745 1975 
Q 2488 2216 2034 2216 
z
M 1403 2484 
Q 997 2584 770 2862 
Q 544 3141 544 3541 
Q 544 4100 942 4425 
Q 1341 4750 2034 4750 
Q 2731 4750 3128 4425 
Q 3525 4100 3525 3541 
Q 3525 3141 3298 2862 
Q 3072 2584 2669 2484 
Q 3125 2378 3379 2068 
Q 3634 1759 3634 1313 
Q 3634 634 3220 271 
Q 2806 -91 2034 -91 
Q 1263 -91 848 271 
Q 434 634 434 1313 
Q 434 1759 690 2068 
Q 947 2378 1403 2484 
z
M 1172 3481 
Q 1172 3119 1398 2916 
Q 1625 2713 2034 2713 
Q 2441 2713 2670 2916 
Q 2900 3119 2900 3481 
Q 2900 3844 2670 4047 
Q 2441 4250 2034 4250 
Q 1625 4250 1398 4047 
Q 1172 3844 1172 3481 
z
" id="DejaVuSans-38" transform="scale(0.015625)"/>
       </defs>
       <use xlink:href="#DejaVuSans-30"/>
       <use x="63.623047" xlink:href="#DejaVuSans-2e"/>
       <use x="95.410156" xlink:href="#DejaVuSans-38"/>
      </g>
     </g>
    </g>
    <g id="ytick_5">
     <g id="line2d_9">
      <g>
       <use style="stroke:#000000;stroke-width:0.8;" x="47.81" xlink:href="#m75fc317527" y="24.110909"/>
      </g>
     </g>
     <g id="text_10">
      <!-- 1.0 -->
      <g transform="translate(24.906875 27.910128)scale(0.1 -0.1)">
       <defs>
        <path d="M 794 531 
L 1825 531 
L 1825 4091 
L 703 3866 
L 703 4441 
L 1819 4666 
L 2450 4666 
L 2450 531 
L 3481 531 
L 3481 0 
L 794 0 
L 794 531 
z
" id="DejaVuSans-31" transform="scale(0.015625)"/>
       </defs>
       <use xlink:href="#DejaVuSans-31"/>
       <use x="63.623047" xlink:href="#DejaVuSans-2e"/>
       <use x="95.410156" xlink:href="#DejaVuSans-30"/>
      </g>
     </g>
    </g>
    <g id="text_11">
     <!-- Credibility Index -->
     <g transform="translate(18.827188 197.910625)rotate(-90)scale(0.1 -0.1)">
      <defs>
       <path d="M 4122 4306 
L 4122 3641 
Q 3803 3938 3442 4084 
Q 3081 4231 2675 4231 
Q 1875 4231 1450 3742 
Q 1025 3253 1025 2328 
Q 1025 1406 1450 917 
Q 1875 428 2675 428 
Q 3081 428 3442 575 
Q 3803 722 4122 1019 
L 4122 359 
Q 3791 134 3420 21 
Q 3050 -91 2638 -91 
Q 1578 -91 968 557 
Q 359 1206 359 2328 
Q 359 3453 968 4101 
Q 1578 4750 2638 4750 
Q 3056 4750 3426 4639 
Q 3797 4528 4122 4306 
z
" id="DejaVuSans-43" transform="scale(0.015625)"/>
       <path d="M 2906 2969 
L 2906 4863 
L 3481 4863 
L 3481 0 
L 2906 0 
L 2906 525 
Q 2725 213 2448 61 
Q 2172 -91 1784 -91 
Q 1150 -91 751 415 
Q 353 922 353 1747 
Q 353 2572 751 3078 
Q 1150 3584 1784 3584 
Q 2172 3584 2448 3432 
Q 2725 3281 2906 2969 
z
M 947 1747 
Q 947 1113 1208 752 
Q 1469 391 1925 391 
Q 2381 391 2643 752 
Q 2906 1113 2906 1747 
Q 2906 2381 2643 2742 
Q 2381 3103 1925 3103 
Q 1469 3103 1208 2742 
Q 947 2381 947 1747 
z
" id="DejaVuSans-64" transform="scale(0.015625)"/>
       <path d="M 2059 -325 
Q 1816 -950 1584 -1140 
Q 1353 -1331 966 -1331 
L 506 -1331 
L 506 -850 
L 844 -850 
Q 1081 -850 1212 -737 
Q 1344 -625 1503 -206 
L 1606 56 
L 191 3500 
L 800 3500 
L 1894 763 
L 2988 3500 
L 3597 3500 
L 2059 -325 
z
" id="DejaVuSans-79" transform="scale(0.015625)"/>
       <path d="M 628 4666 
L 1259 4666 
L 1259 0 
L 628 0 
L 628 4666 
z
" id="DejaVuSans-49" transform="scale(0.015625)"/>
       <path d="M 3513 2113 
L 3513 0 
L 2938 0 
L 2938 2094 
Q 2938 2591 2744 2837 
Q 2550 3084 2163 3084 
Q 1697 3084 1428 2787 
Q 1159 2491 1159 1978 
L 1159 0 
L 581 0 
L 581 3500 
L 1159 3500 
L 1159 2956 
Q 1366 3272 1645 3428 
Q 1925 3584 2291 3584 
Q 2894 3584 3203 3211 
Q 3513 2838 3513 2113 
z
" id="DejaVuSans-6e" transform="scale(0.015625)"/>
       <path d="M 3513 3500 
L 2247 1797 
L 3578 0 
L 2900 0 
L 1881 1375 
L 863 0 
L 184 0 
L 1544 1831 
L 300 3500 
L 978 3500 
L 1906 2253 
L 2834 3500 
L 3513 3500 
z
" id="DejaVuSans-78" transform="scale(0.015625)"/>
      </defs>
      <use xlink:href="#DejaVuSans-43"/>
      <use x="69.824219" xlink:href="#DejaVuSans-72"/>
      <use x="108.6875" xlink:href="#DejaVuSans-65"/>
      <use x="170.210938" xlink:href="#DejaVuSans-64"/>
      <use x="233.6875" xlink:href="#DejaVuSans-69"/>
      <use x="261.470703" xlink:href="#DejaVuSans-62"/>
      <use x="324.947266" xlink:href="#DejaVuSans-69"/>
      <use x="352.730469" xlink:href="#DejaVuSans-6c"/>
      <use x="380.513672" xlink:href="#DejaVuSans-69"/>
      <use x="408.296875" xlink:href="#DejaVuSans-74"/>
      <use x="447.505859" xlink:href="#DejaVuSans-79"/>
      <use x="506.685547" xlink:href="#DejaVuSans-20"/>
      <use x="538.472656" xlink:href="#DejaVuSans-49"/>
      <use x="567.964844" xlink:href="#DejaVuSans-6e"/>
      <use x="631.34375" xlink:href="#DejaVuSans-64"/>
      <use x="694.820312" xlink:href="#DejaVuSans-65"/>
      <use x="754.59375" xlink:href="#DejaVuSans-78"/>
     </g>
    </g>
   </g>
   <g id="line2d_10">
    <path clip-path="url(#p9db3741b23)" d="M 65.258387 290.329091 
L 65.258387 24.110909 
" style="fill:none;stroke:#4c4c4c;stroke-linecap:square;stroke-width:1.5;"/>
   </g>
   <g id="line2d_11">
    <path clip-path="url(#p9db3741b23)" d="M 65.258387 169.320826 
L 65.258387 48.312562 
" style="fill:none;stroke:#4c4c4c;stroke-linecap:square;stroke-width:4.5;"/>
   </g>
   <g id="line2d_12">
    <path clip-path="url(#p9db3741b23)" d="M 159.9782 290.329091 
L 159.9782 24.110909 
" style="fill:none;stroke:#4c4c4c;stroke-linecap:square;stroke-width:1.5;"/>
   </g>
   <g id="line2d_13">
    <path clip-path="url(#p9db3741b23)" d="M 159.9782 181.421653 
L 159.9782 36.211736 
" style="fill:none;stroke:#4c4c4c;stroke-linecap:square;stroke-width:4.5;"/>
   </g>
   <g id="line2d_14">
    <path clip-path="url(#p9db3741b23)" d="M 179.919213 290.329091 
L 179.919213 24.110909 
" style="fill:none;stroke:#4c4c4c;stroke-linecap:square;stroke-width:1.5;"/>
   </g>
   <g id="line2d_15">
    <path clip-path="url(#p9db3741b23)" d="M 179.919213 217.724132 
L 179.919213 36.211736 
" style="fill:none;stroke:#4c4c4c;stroke-linecap:square;stroke-width:4.5;"/>
   </g>
   <g id="line2d_16">
    <path clip-path="url(#p9db3741b23)" d="M 234.757 290.329091 
L 234.757 24.110909 
" style="fill:none;stroke:#4c4c4c;stroke-linecap:square;stroke-width:1.5;"/>
   </g>
   <g id="line2d_17">
    <path clip-path="url(#p9db3741b23)" d="M 234.757 181.421653 
L 234.757 24.110909 
" style="fill:none;stroke:#4c4c4c;stroke-linecap:square;stroke-width:4.5;"/>
   </g>
   <g id="line2d_18">
    <path clip-path="url(#p9db3741b23)" d="M 254.698013 290.329091 
L 254.698013 24.110909 
" style="fill:none;stroke:#4c4c4c;stroke-linecap:square;stroke-width:1.5;"/>
   </g>
   <g id="line2d_19">
    <path clip-path="url(#p9db3741b23)" d="M 254.698013 205.623306 
L 254.698013 36.211736 
" style="fill:none;stroke:#4c4c4c;stroke-linecap:square;stroke-width:4.5;"/>
   </g>
   <g id="line2d_20">
    <path clip-path="url(#p9db3741b23)" d="M 309.5358 290.329091 
L 309.5358 24.110909 
" style="fill:none;stroke:#4c4c4c;stroke-linecap:square;stroke-width:1.5;"/>
   </g>
   <g id="line2d_21">
    <path clip-path="url(#p9db3741b23)" d="M 309.5358 181.421653 
L 309.5358 24.110909 
" style="fill:none;stroke:#4c4c4c;stroke-linecap:square;stroke-width:4.5;"/>
   </g>
   <g id="line2d_22">
    <path clip-path="url(#p9db3741b23)" d="M 329.476813 290.329091 
L 329.476813 24.110909 
" style="fill:none;stroke:#4c4c4c;stroke-linecap:square;stroke-width:1.5;"/>
   </g>
   <g id="line2d_23">
    <path clip-path="url(#p9db3741b23)" d="M 329.476813 169.320826 
L 329.476813 24.110909 
" style="fill:none;stroke:#4c4c4c;stroke-linecap:square;stroke-width:4.5;"/>
   </g>
   <g id="patch_6">
    <path d="M 47.81 303.64 
L 47.81 10.8 
" style="fill:none;stroke:#000000;stroke-linecap:square;stroke-linejoin:miter;stroke-width:0.8;"/>
   </g>
   <g id="patch_7">
    <path d="M 346.9252 303.64 
L 346.9252 10.8 
" style="fill:none;stroke:#000000;stroke-linecap:square;stroke-linejoin:miter;stroke-width:0.8;"/>
   </g>
   <g id="patch_8">
    <path d="M 47.81 303.64 
L 346.9252 303.64 
" style="fill:none;stroke:#000000;stroke-linecap:square;stroke-linejoin:miter;stroke-width:0.8;"/>
   </g>
   <g id="patch_9">
    <path d="M 47.81 10.8 
L 346.9252 10.8 
" style="fill:none;stroke:#000000;stroke-linecap:square;stroke-linejoin:miter;stroke-width:0.8;"/>
   </g>
   <g id="PathCollection_1">
    <defs>
     <path d="M 0 1.5 
C 0.397805 1.5 0.77937 1.341951 1.06066 1.06066 
C 1.341951 0.77937 1.5 0.397805 1.5 0 
C 1.5 -0.397805 1.341951 -0.77937 1.06066 -1.06066 
C 0.77937 -1.341951 0.397805 -1.5 0 -1.5 
C -0.397805 -1.5 -0.77937 -1.341951 -1.06066 -1.06066 
C -1.341951 -0.77937 -1.5 -0.397805 -1.5 0 
C -1.5 0.397805 -1.341951 0.77937 -1.06066 1.06066 
C -0.77937 1.341951 -0.397805 1.5 0 1.5 
z
" id="madd67718b1" style="stroke:#4c4c4c;"/>
    </defs>
    <g clip-path="url(#p9db3741b23)">
     <use style="fill:#ffffff;stroke:#4c4c4c;" x="65.258387" xlink:href="#madd67718b1" y="96.715868"/>
    </g>
   </g>
   <g id="PathCollection_2">
    <g clip-path="url(#p9db3741b23)">
     <use style="fill:#ffffff;stroke:#4c4c4c;" x="159.9782" xlink:href="#madd67718b1" y="84.615041"/>
    </g>
   </g>
   <g id="PathCollection_3">
    <g clip-path="url(#p9db3741b23)">
     <use style="fill:#ffffff;stroke:#4c4c4c;" x="179.919213" xlink:href="#madd67718b1" y="120.917521"/>
    </g>
   </g>
   <g id="PathCollection_4">
    <g clip-path="url(#p9db3741b23)">
     <use style="fill:#ffffff;stroke:#4c4c4c;" x="234.757" xlink:href="#madd67718b1" y="72.514215"/>
    </g>
   </g>
   <g id="PathCollection_5">
    <g clip-path="url(#p9db3741b23)">
     <use style="fill:#ffffff;stroke:#4c4c4c;" x="254.698013" xlink:href="#madd67718b1" y="108.816694"/>
    </g>
   </g>
   <g id="PathCollection_6">
    <g clip-path="url(#p9db3741b23)">
     <use style="fill:#ffffff;stroke:#4c4c4c;" x="309.5358" xlink:href="#madd67718b1" y="72.514215"/>
    </g>
   </g>
   <g id="PathCollection_7">
    <g clip-path="url(#p9db3741b23)">
     <use style="fill:#ffffff;stroke:#4c4c4c;" x="329.476813" xlink:href="#madd67718b1" y="60.413388"/>
    </g>
   </g>
   <g id="legend_1">
    <g id="patch_10">
     <path d="M 365.889808 62.834375 
L 445.658558 62.834375 
Q 447.658558 62.834375 447.658558 60.834375 
L 447.658558 17.8 
Q 447.658558 15.8 445.658558 15.8 
L 365.889808 15.8 
Q 363.889808 15.8 363.889808 17.8 
L 363.889808 60.834375 
Q 363.889808 62.834375 365.889808 62.834375 
z
" style="fill:#ffffff;opacity:0.8;stroke:#cccccc;stroke-linejoin:miter;"/>
    </g>
    <g id="patch_11">
     <path d="M 367.889808 27.398438 
L 387.889808 27.398438 
L 387.889808 20.398438 
L 367.889808 20.398438 
z
" style="fill:#df7f20;stroke:#4c4c4c;stroke-linejoin:miter;stroke-width:0.75;"/>
    </g>
    <g id="text_12">
     <!-- big -->
     <g transform="translate(395.889808 27.398438)scale(0.1 -0.1)">
      <use xlink:href="#DejaVuSans-62"/>
      <use x="63.476562" xlink:href="#DejaVuSans-69"/>
      <use x="91.259766" xlink:href="#DejaVuSans-67"/>
     </g>
    </g>
    <g id="patch_12">
     <path d="M 367.889808 42.076563 
L 387.889808 42.076563 
L 387.889808 35.076563 
L 367.889808 35.076563 
z
" style="fill:#2020df;stroke:#4c4c4c;stroke-linejoin:miter;stroke-width:0.75;"/>
    </g>
    <g id="text_13">
     <!-- Clustered -->
     <g transform="translate(395.889808 42.076563)scale(0.1 -0.1)">
      <use xlink:href="#DejaVuSans-43"/>
      <use x="69.824219" xlink:href="#DejaVuSans-6c"/>
      <use x="97.607422" xlink:href="#DejaVuSans-75"/>
      <use x="160.986328" xlink:href="#DejaVuSans-73"/>
      <use x="213.085938" xlink:href="#DejaVuSans-74"/>
      <use x="252.294922" xlink:href="#DejaVuSans-65"/>
      <use x="313.818359" xlink:href="#DejaVuSans-72"/>
      <use x="352.681641" xlink:href="#DejaVuSans-65"/>
      <use x="414.205078" xlink:href="#DejaVuSans-64"/>
     </g>
    </g>
    <g id="patch_13">
     <path d="M 367.889808 56.754687 
L 387.889808 56.754687 
L 387.889808 49.754687 
L 367.889808 49.754687 
z
" style="fill:#20dfdf;stroke:#4c4c4c;stroke-linejoin:miter;stroke-width:0.75;"/>
    </g>
    <g id="text_14">
     <!-- Random -->
     <g transform="translate(395.889808 56.754687)scale(0.1 -0.1)">
      <defs>
       <path d="M 2841 2188 
Q 3044 2119 3236 1894 
Q 3428 1669 3622 1275 
L 4263 0 
L 3584 0 
L 2988 1197 
Q 2756 1666 2539 1819 
Q 2322 1972 1947 1972 
L 1259 1972 
L 1259 0 
L 628 0 
L 628 4666 
L 2053 4666 
Q 2853 4666 3247 4331 
Q 3641 3997 3641 3322 
Q 3641 2881 3436 2590 
Q 3231 2300 2841 2188 
z
M 1259 4147 
L 1259 2491 
L 2053 2491 
Q 2509 2491 2742 2702 
Q 2975 2913 2975 3322 
Q 2975 3731 2742 3939 
Q 2509 4147 2053 4147 
L 1259 4147 
z
" id="DejaVuSans-52" transform="scale(0.015625)"/>
       <path d="M 2194 1759 
Q 1497 1759 1228 1600 
Q 959 1441 959 1056 
Q 959 750 1161 570 
Q 1363 391 1709 391 
Q 2188 391 2477 730 
Q 2766 1069 2766 1631 
L 2766 1759 
L 2194 1759 
z
M 3341 1997 
L 3341 0 
L 2766 0 
L 2766 531 
Q 2569 213 2275 61 
Q 1981 -91 1556 -91 
Q 1019 -91 701 211 
Q 384 513 384 1019 
Q 384 1609 779 1909 
Q 1175 2209 1959 2209 
L 2766 2209 
L 2766 2266 
Q 2766 2663 2505 2880 
Q 2244 3097 1772 3097 
Q 1472 3097 1187 3025 
Q 903 2953 641 2809 
L 641 3341 
Q 956 3463 1253 3523 
Q 1550 3584 1831 3584 
Q 2591 3584 2966 3190 
Q 3341 2797 3341 1997 
z
" id="DejaVuSans-61" transform="scale(0.015625)"/>
      </defs>
      <use xlink:href="#DejaVuSans-52"/>
      <use x="67.232422" xlink:href="#DejaVuSans-61"/>
      <use x="128.511719" xlink:href="#DejaVuSans-6e"/>
      <use x="191.890625" xlink:href="#DejaVuSans-64"/>
      <use x="255.367188" xlink:href="#DejaVuSans-6f"/>
      <use x="316.548828" xlink:href="#DejaVuSans-6d"/>
     </g>
    </g>
   </g>
  </g>
 </g>
 <defs>
  <clipPath id="p9db3741b23">
   <rect height="292.84" width="299.1152" x="47.81" y="10.8"/>
  </clipPath>
 </defs>
</svg>
