<?xml version="1.0" encoding="utf-8" standalone="no"?>
<!DOCTYPE svg PUBLIC "-//W3C//DTD SVG 1.1//EN"
  "http://www.w3.org/Graphics/SVG/1.1/DTD/svg11.dtd">
<svg height="345.6pt" version="1.1" viewBox="0 0 460.8 345.6" width="460.8pt" xmlns="http://www.w3.org/2000/svg" xmlns:xlink="http://www.w3.org/1999/xlink">
 <metadata>
  <rdf:RDF xmlns:cc="http://creativecommons.org/ns#" xmlns:dc="http://purl.org/dc/elements/1.1/" xmlns:rdf="http://www.w3.org/1999/02/22-rdf-syntax-ns#">
   <cc:Work>
    <dc:type rdf:resource="http://purl.org/dc/dcmitype/StillImage"/>
    <dc:date>2021-12-06T14:07:31.755615</dc:date>
    <dc:format>image/svg+xml</dc:format>
    <dc:creator>
     <cc:Agent>
      <dc:title>Matplotlib v3.4.3, https://matplotlib.org/</dc:title>
     </cc:Agent>
    </dc:creator>
   </cc:Work>
  </rdf:RDF>
 </metadata>
 <defs>
  <style type="text/css">*{stroke-linecap:butt;stroke-linejoin:round;}</style>
 </defs>
 <g id="figure_1">
  <g id="patch_1">
   <path d="M 0 345.6 
L 460.8 345.6 
L 460.8 0 
L 0 0 
z
" style="fill:#ffffff;"/>
  </g>
  <g id="axes_1">
   <g id="patch_2">
    <path d="M 38.27 303.64 
L 450 303.64 
L 450 10.8 
L 38.27 10.8 
z
" style="fill:#ffffff;"/>
   </g>
   <g id="matplotlib.axis_1">
    <g id="xtick_1">
     <g id="line2d_1">
      <defs>
       <path d="M 0 0 
L 0 3.5 
" id="m822abc892e" style="stroke:#000000;stroke-width:0.8;"/>
      </defs>
      <g>
       <use style="stroke:#000000;stroke-width:0.8;" x="56.985" xlink:href="#m822abc892e" y="303.64"/>
      </g>
     </g>
     <g id="text_1">
      <!-- 0.0 -->
      <g transform="translate(49.033437 318.238437)scale(0.1 -0.1)">
       <defs>
        <path d="M 2034 4250 
Q 1547 4250 1301 3770 
Q 1056 3291 1056 2328 
Q 1056 1369 1301 889 
Q 1547 409 2034 409 
Q 2525 409 2770 889 
Q 3016 1369 3016 2328 
Q 3016 3291 2770 3770 
Q 2525 4250 2034 4250 
z
M 2034 4750 
Q 2819 4750 3233 4129 
Q 3647 3509 3647 2328 
Q 3647 1150 3233 529 
Q 2819 -91 2034 -91 
Q 1250 -91 836 529 
Q 422 1150 422 2328 
Q 422 3509 836 4129 
Q 1250 4750 2034 4750 
z
" id="DejaVuSans-30" transform="scale(0.015625)"/>
        <path d="M 684 794 
L 1344 794 
L 1344 0 
L 684 0 
L 684 794 
z
" id="DejaVuSans-2e" transform="scale(0.015625)"/>
       </defs>
       <use xlink:href="#DejaVuSans-30"/>
       <use x="63.623047" xlink:href="#DejaVuSans-2e"/>
       <use x="95.410156" xlink:href="#DejaVuSans-30"/>
      </g>
     </g>
    </g>
    <g id="xtick_2">
     <g id="line2d_2">
      <g>
       <use style="stroke:#000000;stroke-width:0.8;" x="131.845" xlink:href="#m822abc892e" y="303.64"/>
      </g>
     </g>
     <g id="text_2">
      <!-- 0.2 -->
      <g transform="translate(123.893438 318.238437)scale(0.1 -0.1)">
       <defs>
        <path d="M 1228 531 
L 3431 531 
L 3431 0 
L 469 0 
L 469 531 
Q 828 903 1448 1529 
Q 2069 2156 2228 2338 
Q 2531 2678 2651 2914 
Q 2772 3150 2772 3378 
Q 2772 3750 2511 3984 
Q 2250 4219 1831 4219 
Q 1534 4219 1204 4116 
Q 875 4013 500 3803 
L 500 4441 
Q 881 4594 1212 4672 
Q 1544 4750 1819 4750 
Q 2544 4750 2975 4387 
Q 3406 4025 3406 3419 
Q 3406 3131 3298 2873 
Q 3191 2616 2906 2266 
Q 2828 2175 2409 1742 
Q 1991 1309 1228 531 
z
" id="DejaVuSans-32" transform="scale(0.015625)"/>
       </defs>
       <use xlink:href="#DejaVuSans-30"/>
       <use x="63.623047" xlink:href="#DejaVuSans-2e"/>
       <use x="95.410156" xlink:href="#DejaVuSans-32"/>
      </g>
     </g>
    </g>
    <g id="xtick_3">
     <g id="line2d_3">
      <g>
       <use style="stroke:#000000;stroke-width:0.8;" x="206.705" xlink:href="#m822abc892e" y="303.64"/>
      </g>
     </g>
     <g id="text_3">
      <!-- 0.4 -->
      <g transform="translate(198.753438 318.238437)scale(0.1 -0.1)">
       <defs>
        <path d="M 2419 4116 
L 825 1625 
L 2419 1625 
L 2419 4116 
z
M 2253 4666 
L 3047 4666 
L 3047 1625 
L 3713 1625 
L 3713 1100 
L 3047 1100 
L 3047 0 
L 2419 0 
L 2419 1100 
L 313 1100 
L 313 1709 
L 2253 4666 
z
" id="DejaVuSans-34" transform="scale(0.015625)"/>
       </defs>
       <use xlink:href="#DejaVuSans-30"/>
       <use x="63.623047" xlink:href="#DejaVuSans-2e"/>
       <use x="95.410156" xlink:href="#DejaVuSans-34"/>
      </g>
     </g>
    </g>
    <g id="xtick_4">
     <g id="line2d_4">
      <g>
       <use style="stroke:#000000;stroke-width:0.8;" x="281.565" xlink:href="#m822abc892e" y="303.64"/>
      </g>
     </g>
     <g id="text_4">
      <!-- 0.6 -->
      <g transform="translate(273.613438 318.238437)scale(0.1 -0.1)">
       <defs>
        <path d="M 2113 2584 
Q 1688 2584 1439 2293 
Q 1191 2003 1191 1497 
Q 1191 994 1439 701 
Q 1688 409 2113 409 
Q 2538 409 2786 701 
Q 3034 994 3034 1497 
Q 3034 2003 2786 2293 
Q 2538 2584 2113 2584 
z
M 3366 4563 
L 3366 3988 
Q 3128 4100 2886 4159 
Q 2644 4219 2406 4219 
Q 1781 4219 1451 3797 
Q 1122 3375 1075 2522 
Q 1259 2794 1537 2939 
Q 1816 3084 2150 3084 
Q 2853 3084 3261 2657 
Q 3669 2231 3669 1497 
Q 3669 778 3244 343 
Q 2819 -91 2113 -91 
Q 1303 -91 875 529 
Q 447 1150 447 2328 
Q 447 3434 972 4092 
Q 1497 4750 2381 4750 
Q 2619 4750 2861 4703 
Q 3103 4656 3366 4563 
z
" id="DejaVuSans-36" transform="scale(0.015625)"/>
       </defs>
       <use xlink:href="#DejaVuSans-30"/>
       <use x="63.623047" xlink:href="#DejaVuSans-2e"/>
       <use x="95.410156" xlink:href="#DejaVuSans-36"/>
      </g>
     </g>
    </g>
    <g id="xtick_5">
     <g id="line2d_5">
      <g>
       <use style="stroke:#000000;stroke-width:0.8;" x="356.425" xlink:href="#m822abc892e" y="303.64"/>
      </g>
     </g>
     <g id="text_5">
      <!-- 0.8 -->
      <g transform="translate(348.473437 318.238437)scale(0.1 -0.1)">
       <defs>
        <path d="M 2034 2216 
Q 1584 2216 1326 1975 
Q 1069 1734 1069 1313 
Q 1069 891 1326 650 
Q 1584 409 2034 409 
Q 2484 409 2743 651 
Q 3003 894 3003 1313 
Q 3003 1734 2745 1975 
Q 2488 2216 2034 2216 
z
M 1403 2484 
Q 997 2584 770 2862 
Q 544 3141 544 3541 
Q 544 4100 942 4425 
Q 1341 4750 2034 4750 
Q 2731 4750 3128 4425 
Q 3525 4100 3525 3541 
Q 3525 3141 3298 2862 
Q 3072 2584 2669 2484 
Q 3125 2378 3379 2068 
Q 3634 1759 3634 1313 
Q 3634 634 3220 271 
Q 2806 -91 2034 -91 
Q 1263 -91 848 271 
Q 434 634 434 1313 
Q 434 1759 690 2068 
Q 947 2378 1403 2484 
z
M 1172 3481 
Q 1172 3119 1398 2916 
Q 1625 2713 2034 2713 
Q 2441 2713 2670 2916 
Q 2900 3119 2900 3481 
Q 2900 3844 2670 4047 
Q 2441 4250 2034 4250 
Q 1625 4250 1398 4047 
Q 1172 3844 1172 3481 
z
" id="DejaVuSans-38" transform="scale(0.015625)"/>
       </defs>
       <use xlink:href="#DejaVuSans-30"/>
       <use x="63.623047" xlink:href="#DejaVuSans-2e"/>
       <use x="95.410156" xlink:href="#DejaVuSans-38"/>
      </g>
     </g>
    </g>
    <g id="xtick_6">
     <g id="line2d_6">
      <g>
       <use style="stroke:#000000;stroke-width:0.8;" x="431.285" xlink:href="#m822abc892e" y="303.64"/>
      </g>
     </g>
     <g id="text_6">
      <!-- 1.0 -->
      <g transform="translate(423.333438 318.238437)scale(0.1 -0.1)">
       <defs>
        <path d="M 794 531 
L 1825 531 
L 1825 4091 
L 703 3866 
L 703 4441 
L 1819 4666 
L 2450 4666 
L 2450 531 
L 3481 531 
L 3481 0 
L 794 0 
L 794 531 
z
" id="DejaVuSans-31" transform="scale(0.015625)"/>
       </defs>
       <use xlink:href="#DejaVuSans-31"/>
       <use x="63.623047" xlink:href="#DejaVuSans-2e"/>
       <use x="95.410156" xlink:href="#DejaVuSans-30"/>
      </g>
     </g>
    </g>
    <g id="text_7">
     <!-- Credibility index -->
     <g transform="translate(203.530313 331.916562)scale(0.1 -0.1)">
      <defs>
       <path d="M 4122 4306 
L 4122 3641 
Q 3803 3938 3442 4084 
Q 3081 4231 2675 4231 
Q 1875 4231 1450 3742 
Q 1025 3253 1025 2328 
Q 1025 1406 1450 917 
Q 1875 428 2675 428 
Q 3081 428 3442 575 
Q 3803 722 4122 1019 
L 4122 359 
Q 3791 134 3420 21 
Q 3050 -91 2638 -91 
Q 1578 -91 968 557 
Q 359 1206 359 2328 
Q 359 3453 968 4101 
Q 1578 4750 2638 4750 
Q 3056 4750 3426 4639 
Q 3797 4528 4122 4306 
z
" id="DejaVuSans-43" transform="scale(0.015625)"/>
       <path d="M 2631 2963 
Q 2534 3019 2420 3045 
Q 2306 3072 2169 3072 
Q 1681 3072 1420 2755 
Q 1159 2438 1159 1844 
L 1159 0 
L 581 0 
L 581 3500 
L 1159 3500 
L 1159 2956 
Q 1341 3275 1631 3429 
Q 1922 3584 2338 3584 
Q 2397 3584 2469 3576 
Q 2541 3569 2628 3553 
L 2631 2963 
z
" id="DejaVuSans-72" transform="scale(0.015625)"/>
       <path d="M 3597 1894 
L 3597 1613 
L 953 1613 
Q 991 1019 1311 708 
Q 1631 397 2203 397 
Q 2534 397 2845 478 
Q 3156 559 3463 722 
L 3463 178 
Q 3153 47 2828 -22 
Q 2503 -91 2169 -91 
Q 1331 -91 842 396 
Q 353 884 353 1716 
Q 353 2575 817 3079 
Q 1281 3584 2069 3584 
Q 2775 3584 3186 3129 
Q 3597 2675 3597 1894 
z
M 3022 2063 
Q 3016 2534 2758 2815 
Q 2500 3097 2075 3097 
Q 1594 3097 1305 2825 
Q 1016 2553 972 2059 
L 3022 2063 
z
" id="DejaVuSans-65" transform="scale(0.015625)"/>
       <path d="M 2906 2969 
L 2906 4863 
L 3481 4863 
L 3481 0 
L 2906 0 
L 2906 525 
Q 2725 213 2448 61 
Q 2172 -91 1784 -91 
Q 1150 -91 751 415 
Q 353 922 353 1747 
Q 353 2572 751 3078 
Q 1150 3584 1784 3584 
Q 2172 3584 2448 3432 
Q 2725 3281 2906 2969 
z
M 947 1747 
Q 947 1113 1208 752 
Q 1469 391 1925 391 
Q 2381 391 2643 752 
Q 2906 1113 2906 1747 
Q 2906 2381 2643 2742 
Q 2381 3103 1925 3103 
Q 1469 3103 1208 2742 
Q 947 2381 947 1747 
z
" id="DejaVuSans-64" transform="scale(0.015625)"/>
       <path d="M 603 3500 
L 1178 3500 
L 1178 0 
L 603 0 
L 603 3500 
z
M 603 4863 
L 1178 4863 
L 1178 4134 
L 603 4134 
L 603 4863 
z
" id="DejaVuSans-69" transform="scale(0.015625)"/>
       <path d="M 3116 1747 
Q 3116 2381 2855 2742 
Q 2594 3103 2138 3103 
Q 1681 3103 1420 2742 
Q 1159 2381 1159 1747 
Q 1159 1113 1420 752 
Q 1681 391 2138 391 
Q 2594 391 2855 752 
Q 3116 1113 3116 1747 
z
M 1159 2969 
Q 1341 3281 1617 3432 
Q 1894 3584 2278 3584 
Q 2916 3584 3314 3078 
Q 3713 2572 3713 1747 
Q 3713 922 3314 415 
Q 2916 -91 2278 -91 
Q 1894 -91 1617 61 
Q 1341 213 1159 525 
L 1159 0 
L 581 0 
L 581 4863 
L 1159 4863 
L 1159 2969 
z
" id="DejaVuSans-62" transform="scale(0.015625)"/>
       <path d="M 603 4863 
L 1178 4863 
L 1178 0 
L 603 0 
L 603 4863 
z
" id="DejaVuSans-6c" transform="scale(0.015625)"/>
       <path d="M 1172 4494 
L 1172 3500 
L 2356 3500 
L 2356 3053 
L 1172 3053 
L 1172 1153 
Q 1172 725 1289 603 
Q 1406 481 1766 481 
L 2356 481 
L 2356 0 
L 1766 0 
Q 1100 0 847 248 
Q 594 497 594 1153 
L 594 3053 
L 172 3053 
L 172 3500 
L 594 3500 
L 594 4494 
L 1172 4494 
z
" id="DejaVuSans-74" transform="scale(0.015625)"/>
       <path d="M 2059 -325 
Q 1816 -950 1584 -1140 
Q 1353 -1331 966 -1331 
L 506 -1331 
L 506 -850 
L 844 -850 
Q 1081 -850 1212 -737 
Q 1344 -625 1503 -206 
L 1606 56 
L 191 3500 
L 800 3500 
L 1894 763 
L 2988 3500 
L 3597 3500 
L 2059 -325 
z
" id="DejaVuSans-79" transform="scale(0.015625)"/>
       <path id="DejaVuSans-20" transform="scale(0.015625)"/>
       <path d="M 3513 2113 
L 3513 0 
L 2938 0 
L 2938 2094 
Q 2938 2591 2744 2837 
Q 2550 3084 2163 3084 
Q 1697 3084 1428 2787 
Q 1159 2491 1159 1978 
L 1159 0 
L 581 0 
L 581 3500 
L 1159 3500 
L 1159 2956 
Q 1366 3272 1645 3428 
Q 1925 3584 2291 3584 
Q 2894 3584 3203 3211 
Q 3513 2838 3513 2113 
z
" id="DejaVuSans-6e" transform="scale(0.015625)"/>
       <path d="M 3513 3500 
L 2247 1797 
L 3578 0 
L 2900 0 
L 1881 1375 
L 863 0 
L 184 0 
L 1544 1831 
L 300 3500 
L 978 3500 
L 1906 2253 
L 2834 3500 
L 3513 3500 
z
" id="DejaVuSans-78" transform="scale(0.015625)"/>
      </defs>
      <use xlink:href="#DejaVuSans-43"/>
      <use x="69.824219" xlink:href="#DejaVuSans-72"/>
      <use x="108.6875" xlink:href="#DejaVuSans-65"/>
      <use x="170.210938" xlink:href="#DejaVuSans-64"/>
      <use x="233.6875" xlink:href="#DejaVuSans-69"/>
      <use x="261.470703" xlink:href="#DejaVuSans-62"/>
      <use x="324.947266" xlink:href="#DejaVuSans-69"/>
      <use x="352.730469" xlink:href="#DejaVuSans-6c"/>
      <use x="380.513672" xlink:href="#DejaVuSans-69"/>
      <use x="408.296875" xlink:href="#DejaVuSans-74"/>
      <use x="447.505859" xlink:href="#DejaVuSans-79"/>
      <use x="506.685547" xlink:href="#DejaVuSans-20"/>
      <use x="538.472656" xlink:href="#DejaVuSans-69"/>
      <use x="566.255859" xlink:href="#DejaVuSans-6e"/>
      <use x="629.634766" xlink:href="#DejaVuSans-64"/>
      <use x="693.111328" xlink:href="#DejaVuSans-65"/>
      <use x="752.884766" xlink:href="#DejaVuSans-78"/>
     </g>
    </g>
   </g>
   <g id="matplotlib.axis_2">
    <g id="ytick_1">
     <g id="line2d_7">
      <defs>
       <path d="M 0 0 
L -3.5 0 
" id="m2200febf4a" style="stroke:#000000;stroke-width:0.8;"/>
      </defs>
      <g>
       <use style="stroke:#000000;stroke-width:0.8;" x="38.27" xlink:href="#m2200febf4a" y="303.64"/>
      </g>
     </g>
     <g id="text_8">
      <!-- 0 -->
      <g transform="translate(24.9075 307.439219)scale(0.1 -0.1)">
       <use xlink:href="#DejaVuSans-30"/>
      </g>
     </g>
    </g>
    <g id="ytick_2">
     <g id="line2d_8">
      <g>
       <use style="stroke:#000000;stroke-width:0.8;" x="38.27" xlink:href="#m2200febf4a" y="239.687493"/>
      </g>
     </g>
     <g id="text_9">
      <!-- 1 -->
      <g transform="translate(24.9075 243.486711)scale(0.1 -0.1)">
       <use xlink:href="#DejaVuSans-31"/>
      </g>
     </g>
    </g>
    <g id="ytick_3">
     <g id="line2d_9">
      <g>
       <use style="stroke:#000000;stroke-width:0.8;" x="38.27" xlink:href="#m2200febf4a" y="175.734985"/>
      </g>
     </g>
     <g id="text_10">
      <!-- 2 -->
      <g transform="translate(24.9075 179.534204)scale(0.1 -0.1)">
       <use xlink:href="#DejaVuSans-32"/>
      </g>
     </g>
    </g>
    <g id="ytick_4">
     <g id="line2d_10">
      <g>
       <use style="stroke:#000000;stroke-width:0.8;" x="38.27" xlink:href="#m2200febf4a" y="111.782478"/>
      </g>
     </g>
     <g id="text_11">
      <!-- 3 -->
      <g transform="translate(24.9075 115.581697)scale(0.1 -0.1)">
       <defs>
        <path d="M 2597 2516 
Q 3050 2419 3304 2112 
Q 3559 1806 3559 1356 
Q 3559 666 3084 287 
Q 2609 -91 1734 -91 
Q 1441 -91 1130 -33 
Q 819 25 488 141 
L 488 750 
Q 750 597 1062 519 
Q 1375 441 1716 441 
Q 2309 441 2620 675 
Q 2931 909 2931 1356 
Q 2931 1769 2642 2001 
Q 2353 2234 1838 2234 
L 1294 2234 
L 1294 2753 
L 1863 2753 
Q 2328 2753 2575 2939 
Q 2822 3125 2822 3475 
Q 2822 3834 2567 4026 
Q 2313 4219 1838 4219 
Q 1578 4219 1281 4162 
Q 984 4106 628 3988 
L 628 4550 
Q 988 4650 1302 4700 
Q 1616 4750 1894 4750 
Q 2613 4750 3031 4423 
Q 3450 4097 3450 3541 
Q 3450 3153 3228 2886 
Q 3006 2619 2597 2516 
z
" id="DejaVuSans-33" transform="scale(0.015625)"/>
       </defs>
       <use xlink:href="#DejaVuSans-33"/>
      </g>
     </g>
    </g>
    <g id="ytick_5">
     <g id="line2d_11">
      <g>
       <use style="stroke:#000000;stroke-width:0.8;" x="38.27" xlink:href="#m2200febf4a" y="47.82997"/>
      </g>
     </g>
     <g id="text_12">
      <!-- 4 -->
      <g transform="translate(24.9075 51.629189)scale(0.1 -0.1)">
       <use xlink:href="#DejaVuSans-34"/>
      </g>
     </g>
    </g>
    <g id="text_13">
     <!-- Density -->
     <g transform="translate(18.827813 176.228594)rotate(-90)scale(0.1 -0.1)">
      <defs>
       <path d="M 1259 4147 
L 1259 519 
L 2022 519 
Q 2988 519 3436 956 
Q 3884 1394 3884 2338 
Q 3884 3275 3436 3711 
Q 2988 4147 2022 4147 
L 1259 4147 
z
M 628 4666 
L 1925 4666 
Q 3281 4666 3915 4102 
Q 4550 3538 4550 2338 
Q 4550 1131 3912 565 
Q 3275 0 1925 0 
L 628 0 
L 628 4666 
z
" id="DejaVuSans-44" transform="scale(0.015625)"/>
       <path d="M 2834 3397 
L 2834 2853 
Q 2591 2978 2328 3040 
Q 2066 3103 1784 3103 
Q 1356 3103 1142 2972 
Q 928 2841 928 2578 
Q 928 2378 1081 2264 
Q 1234 2150 1697 2047 
L 1894 2003 
Q 2506 1872 2764 1633 
Q 3022 1394 3022 966 
Q 3022 478 2636 193 
Q 2250 -91 1575 -91 
Q 1294 -91 989 -36 
Q 684 19 347 128 
L 347 722 
Q 666 556 975 473 
Q 1284 391 1588 391 
Q 1994 391 2212 530 
Q 2431 669 2431 922 
Q 2431 1156 2273 1281 
Q 2116 1406 1581 1522 
L 1381 1569 
Q 847 1681 609 1914 
Q 372 2147 372 2553 
Q 372 3047 722 3315 
Q 1072 3584 1716 3584 
Q 2034 3584 2315 3537 
Q 2597 3491 2834 3397 
z
" id="DejaVuSans-73" transform="scale(0.015625)"/>
      </defs>
      <use xlink:href="#DejaVuSans-44"/>
      <use x="77.001953" xlink:href="#DejaVuSans-65"/>
      <use x="138.525391" xlink:href="#DejaVuSans-6e"/>
      <use x="201.904297" xlink:href="#DejaVuSans-73"/>
      <use x="254.003906" xlink:href="#DejaVuSans-69"/>
      <use x="281.787109" xlink:href="#DejaVuSans-74"/>
      <use x="320.996094" xlink:href="#DejaVuSans-79"/>
     </g>
    </g>
   </g>
   <g id="line2d_12">
    <path clip-path="url(#p84fb3145d0)" d="M 56.985 301.914685 
L 60.746809 300.803398 
L 62.627714 300.058701 
L 64.508618 299.16467 
L 66.389523 298.104299 
L 68.270427 296.861918 
L 70.151332 295.424124 
L 72.032236 293.780762 
L 73.913141 291.925917 
L 75.794045 289.858835 
L 77.67495 287.584713 
L 81.436759 282.469107 
L 85.198568 276.754405 
L 94.60309 261.808137 
L 98.364899 256.491625 
L 100.245804 254.135914 
L 102.126709 252.020071 
L 104.007613 250.16348 
L 105.888518 248.577656 
L 107.769422 247.266394 
L 109.650327 246.226337 
L 111.531231 245.447919 
L 113.412136 244.916583 
L 115.29304 244.614155 
L 117.173945 244.520272 
L 119.054849 244.613734 
L 120.935754 244.873699 
L 122.816658 245.280636 
L 126.578467 246.467564 
L 130.340276 248.062521 
L 134.102085 249.988207 
L 137.863894 252.189564 
L 141.625704 254.617281 
L 147.268417 258.554102 
L 156.67294 265.229898 
L 160.434749 267.664016 
L 164.196558 269.825413 
L 167.958367 271.643019 
L 171.720176 273.072481 
L 175.481985 274.102857 
L 179.243794 274.759532 
L 183.005603 275.101654 
L 186.767412 275.21327 
L 194.29103 275.116256 
L 203.695553 275.051987 
L 211.219171 275.020677 
L 214.98098 274.831386 
L 218.742789 274.410509 
L 222.504598 273.687929 
L 226.266407 272.625744 
L 230.028216 271.227389 
L 233.790025 269.539015 
L 239.432739 266.649354 
L 246.956357 262.695655 
L 250.718166 260.902975 
L 254.479975 259.328688 
L 258.241784 258.009772 
L 262.003593 256.959476 
L 265.765402 256.175472 
L 269.527211 255.64798 
L 273.28902 255.364725 
L 277.050829 255.311465 
L 280.812638 255.469155 
L 284.574447 255.810407 
L 290.217161 256.583086 
L 310.907111 259.839383 
L 314.66892 260.153358 
L 318.430729 260.256446 
L 322.192538 260.074122 
L 325.954347 259.530186 
L 329.716156 258.564166 
L 333.477965 257.150917 
L 337.239774 255.315944 
L 341.001583 253.140165 
L 346.644296 249.520998 
L 352.28701 245.90517 
L 357.929724 242.614201 
L 367.334246 237.457293 
L 371.096055 234.964835 
L 372.97696 233.489138 
L 374.857864 231.809875 
L 376.738769 229.889976 
L 378.619673 227.694381 
L 380.500578 225.191042 
L 382.381482 222.351845 
L 384.262387 219.15348 
L 386.143291 215.57826 
L 388.024196 211.614952 
L 389.905101 207.259632 
L 391.786005 202.516595 
L 393.66691 197.399337 
L 397.428719 186.148361 
L 401.190528 173.837871 
L 408.714146 148.41587 
L 410.59505 142.502049 
L 412.475955 137.018356 
L 414.356859 132.103337 
L 416.237764 127.896175 
L 418.118668 124.531799 
L 419.999573 122.135553 
L 421.880477 120.81768 
L 423.761382 120.667935 
L 425.642286 121.750692 
L 427.523191 124.100862 
L 429.404095 127.720967 
L 431.285 132.579596 
L 431.285 132.579596 
" style="fill:none;stroke:#0000ff;stroke-linecap:square;stroke-width:1.5;"/>
   </g>
   <g id="line2d_13">
    <path clip-path="url(#p84fb3145d0)" d="M 56.985 302.921798 
L 60.746809 302.334714 
L 64.508618 301.380388 
L 66.389523 300.720251 
L 68.270427 299.912086 
L 70.151332 298.936391 
L 72.032236 297.774818 
L 73.913141 296.411299 
L 75.794045 294.833266 
L 77.67495 293.032893 
L 79.555854 291.008275 
L 81.436759 288.764448 
L 83.317663 286.314145 
L 87.079472 280.885573 
L 92.722186 271.964519 
L 96.483995 266.049923 
L 100.245804 260.644105 
L 102.126709 258.249146 
L 104.007613 256.109357 
L 105.888518 254.251235 
L 107.769422 252.691194 
L 109.650327 251.435071 
L 111.531231 250.478206 
L 113.412136 249.806094 
L 115.29304 249.395553 
L 117.173945 249.216333 
L 119.054849 249.233055 
L 120.935754 249.407358 
L 124.697563 250.073606 
L 135.98299 252.493794 
L 147.268417 254.474798 
L 151.030226 255.480858 
L 154.792035 256.828404 
L 158.553844 258.530233 
L 162.315653 260.531266 
L 167.958367 263.857139 
L 173.60108 267.193191 
L 177.362889 269.242242 
L 181.124698 271.068255 
L 184.886508 272.632872 
L 188.648317 273.916033 
L 192.410126 274.904562 
L 196.171935 275.585735 
L 199.933744 275.949053 
L 203.695553 275.995346 
L 207.457362 275.748485 
L 211.219171 275.263252 
L 218.742789 273.933306 
L 224.385503 273.014308 
L 228.147312 272.579302 
L 231.909121 272.311966 
L 237.551834 272.156008 
L 246.956357 271.966806 
L 250.718166 271.704841 
L 254.479975 271.269306 
L 258.241784 270.653425 
L 263.884497 269.433538 
L 269.527211 267.954377 
L 277.050829 265.703031 
L 282.693543 263.772046 
L 288.336256 261.542461 
L 293.97897 259.018351 
L 301.502588 255.574255 
L 305.264397 254.070399 
L 309.026206 252.850308 
L 312.788015 251.955668 
L 316.549824 251.354692 
L 322.192538 250.776725 
L 327.835251 250.179587 
L 331.59706 249.588776 
L 335.358869 248.793703 
L 341.001583 247.271803 
L 348.525201 244.920591 
L 357.929724 241.802867 
L 363.572437 239.684144 
L 367.334246 238.020789 
L 371.096055 236.033452 
L 372.97696 234.876182 
L 374.857864 233.582875 
L 376.738769 232.13009 
L 378.619673 230.491625 
L 380.500578 228.638455 
L 382.381482 226.538772 
L 384.262387 224.158174 
L 386.143291 221.460048 
L 388.024196 218.406204 
L 389.905101 214.957848 
L 391.786005 211.076988 
L 393.66691 206.728336 
L 395.547814 201.881789 
L 397.428719 196.515506 
L 399.309623 190.619529 
L 401.190528 184.199838 
L 403.071432 177.282614 
L 406.833241 162.185702 
L 414.356859 130.226064 
L 416.237764 122.902539 
L 418.118668 116.295303 
L 419.999573 110.647638 
L 421.880477 106.196011 
L 423.761382 103.157335 
L 425.642286 101.716154 
L 427.523191 102.012746 
L 429.404095 104.133147 
L 431.285 108.102005 
L 431.285 108.102005 
" style="fill:none;stroke:#0000ff;stroke-dasharray:5.55,2.4;stroke-dashoffset:0;stroke-width:1.5;"/>
   </g>
   <g id="line2d_14">
    <path clip-path="url(#p84fb3145d0)" d="M 56.985 303.204358 
L 60.746809 302.789627 
L 64.508618 302.069929 
L 66.389523 301.55031 
L 68.270427 300.89657 
L 70.151332 300.087006 
L 72.032236 299.100307 
L 73.913141 297.916807 
L 75.794045 296.51993 
L 77.67495 294.897725 
L 79.555854 293.044376 
L 81.436759 290.961561 
L 83.317663 288.659504 
L 87.079472 283.484406 
L 90.841281 277.780693 
L 96.483995 269.072117 
L 100.245804 263.778394 
L 102.126709 261.42425 
L 104.007613 259.309687 
L 105.888518 257.455396 
L 107.769422 255.87116 
L 109.650327 254.556031 
L 111.531231 253.499194 
L 113.412136 252.681393 
L 115.29304 252.076792 
L 117.173945 251.6551 
L 119.054849 251.383781 
L 122.816658 251.163587 
L 128.459372 251.237355 
L 137.863894 251.624216 
L 141.625704 251.968816 
L 145.387513 252.59938 
L 147.268417 253.062503 
L 149.149322 253.641487 
L 151.030226 254.344643 
L 152.911131 255.17549 
L 156.67294 257.207002 
L 160.434749 259.652545 
L 171.720176 267.55039 
L 173.60108 268.645512 
L 175.481985 269.611445 
L 177.362889 270.433599 
L 179.243794 271.1035 
L 181.124698 271.61887 
L 183.005603 271.983302 
L 184.886508 272.205539 
L 186.767412 272.298466 
L 190.529221 272.161262 
L 194.29103 271.710243 
L 199.933744 270.715423 
L 209.338266 268.750438 
L 214.98098 267.416984 
L 220.623693 265.861682 
L 226.266407 264.014311 
L 231.909121 261.903789 
L 239.432739 259.04253 
L 243.194548 257.853859 
L 246.956357 257.022507 
L 248.837261 256.785117 
L 250.718166 256.686018 
L 252.59907 256.73563 
L 254.479975 256.940179 
L 256.360879 257.301173 
L 258.241784 257.815095 
L 260.122688 258.473323 
L 263.884497 260.163772 
L 267.646307 262.212149 
L 275.169925 266.505884 
L 278.931734 268.279869 
L 280.812638 268.980164 
L 282.693543 269.528154 
L 284.574447 269.908116 
L 286.455352 270.108992 
L 288.336256 270.124657 
L 290.217161 269.954013 
L 292.098065 269.600912 
L 293.97897 269.073894 
L 295.859874 268.385771 
L 297.740779 267.553047 
L 301.502588 265.534007 
L 305.264397 263.194212 
L 314.66892 257.126299 
L 318.430729 255.007525 
L 322.192538 253.229122 
L 325.954347 251.865892 
L 327.835251 251.358455 
L 329.716156 250.974798 
L 331.59706 250.718915 
L 333.477965 250.592905 
L 335.358869 250.596456 
L 337.239774 250.726307 
L 341.001583 251.334388 
L 344.763392 252.317734 
L 356.048819 255.731214 
L 357.929724 256.083269 
L 359.810628 256.302181 
L 361.691533 256.364653 
L 363.572437 256.249399 
L 365.453342 255.937033 
L 367.334246 255.409817 
L 369.215151 254.651342 
L 371.096055 253.646176 
L 372.97696 252.379537 
L 374.857864 250.837001 
L 376.738769 249.004239 
L 378.619673 246.866746 
L 380.500578 244.409515 
L 382.381482 241.616618 
L 384.262387 238.470646 
L 386.143291 234.952051 
L 388.024196 231.03845 
L 389.905101 226.704032 
L 391.786005 221.919306 
L 393.66691 216.651437 
L 395.547814 210.865486 
L 397.428719 204.52682 
L 399.309623 197.604893 
L 401.190528 190.078461 
L 403.071432 181.942106 
L 404.952337 173.213706 
L 408.714146 154.215318 
L 416.237764 114.108241 
L 418.118668 105.019613 
L 419.999573 96.925491 
L 421.880477 90.161646 
L 423.761382 85.04969 
L 425.642286 81.876037 
L 427.523191 80.871404 
L 429.404095 82.192762 
L 431.285 85.909546 
L 431.285 85.909546 
" style="fill:none;stroke:#0000ff;stroke-dasharray:9.6,2.4,1.5,2.4;stroke-dashoffset:0;stroke-width:1.5;"/>
   </g>
   <g id="line2d_15">
    <path clip-path="url(#p84fb3145d0)" d="M 56.985 301.66052 
L 58.865905 301.09879 
L 60.746809 300.409907 
L 62.627714 299.574677 
L 64.508618 298.573557 
L 66.389523 297.387357 
L 68.270427 295.998062 
L 70.151332 294.389777 
L 72.032236 292.549728 
L 73.913141 290.469297 
L 75.794045 288.145006 
L 77.67495 285.579392 
L 79.555854 282.781713 
L 83.317663 276.563199 
L 87.079472 269.707244 
L 96.483995 252.034521 
L 100.245804 245.789386 
L 102.126709 243.02389 
L 104.007613 240.540966 
L 105.888518 238.364649 
L 107.769422 236.510914 
L 109.650327 234.987681 
L 111.531231 233.795185 
L 113.412136 232.926685 
L 115.29304 232.369433 
L 117.173945 232.105808 
L 119.054849 232.114535 
L 120.935754 232.371899 
L 122.816658 232.852866 
L 124.697563 233.532068 
L 126.578467 234.384585 
L 128.459372 235.386525 
L 132.221181 237.750202 
L 135.98299 240.461592 
L 141.625704 244.881141 
L 149.149322 250.819031 
L 152.911131 253.579402 
L 156.67294 256.092892 
L 160.434749 258.307405 
L 164.196558 260.199863 
L 167.958367 261.775766 
L 171.720176 263.062804 
L 175.481985 264.099835 
L 179.243794 264.924242 
L 183.005603 265.561185 
L 186.767412 266.017605 
L 190.529221 266.282235 
L 194.29103 266.331074 
L 198.052839 266.136478 
L 201.814648 265.677455 
L 205.576457 264.949001 
L 209.338266 263.968969 
L 213.100075 262.781573 
L 228.147312 257.630522 
L 231.909121 256.739029 
L 235.67093 256.162334 
L 239.432739 255.91761 
L 243.194548 255.972049 
L 248.837261 256.425141 
L 254.479975 256.939964 
L 258.241784 257.085993 
L 262.003593 256.940589 
L 265.765402 256.438652 
L 269.527211 255.572134 
L 273.28902 254.390962 
L 278.931734 252.254897 
L 284.574447 250.09005 
L 288.336256 248.862664 
L 292.098065 247.942887 
L 295.859874 247.40888 
L 299.621683 247.298954 
L 303.383492 247.610456 
L 307.145302 248.301815 
L 310.907111 249.296869 
L 316.549824 251.124729 
L 322.192538 252.970864 
L 325.954347 253.990958 
L 329.716156 254.703774 
L 333.477965 255.017581 
L 335.358869 255.005078 
L 337.239774 254.873624 
L 339.120678 254.621613 
L 341.001583 254.249696 
L 344.763392 253.159148 
L 348.525201 251.645735 
L 352.28701 249.775243 
L 356.048819 247.624958 
L 361.691533 244.040039 
L 367.334246 240.186425 
L 372.97696 236.088851 
L 376.738769 233.121031 
L 380.500578 229.810858 
L 382.381482 227.970132 
L 384.262387 225.97078 
L 386.143291 223.785767 
L 388.024196 221.389055 
L 389.905101 218.7573 
L 391.786005 215.871768 
L 393.66691 212.720348 
L 395.547814 209.299599 
L 399.309623 201.691187 
L 403.071432 193.259833 
L 410.59505 175.919911 
L 412.475955 172.02079 
L 414.356859 168.515952 
L 416.237764 165.520773 
L 418.118668 163.14688 
L 419.999573 161.497461 
L 421.880477 160.662626 
L 423.761382 160.715075 
L 425.642286 161.706351 
L 427.523191 163.663896 
L 429.404095 166.58912 
L 431.285 170.45663 
L 431.285 170.45663 
" style="fill:none;stroke:#00ffff;stroke-linecap:square;stroke-width:1.5;"/>
   </g>
   <g id="line2d_16">
    <path clip-path="url(#p84fb3145d0)" d="M 56.985 303.332584 
L 60.746809 303.010262 
L 64.508618 302.424779 
L 66.389523 301.988955 
L 68.270427 301.429525 
L 70.151332 300.723369 
L 72.032236 299.846864 
L 73.913141 298.777108 
L 75.794045 297.493386 
L 77.67495 295.978808 
L 79.555854 294.221996 
L 81.436759 292.218667 
L 83.317663 289.972961 
L 85.198568 287.498338 
L 88.960377 281.964099 
L 94.60309 272.800478 
L 98.364899 266.70229 
L 102.126709 261.08597 
L 104.007613 258.562321 
L 105.888518 256.268495 
L 107.769422 254.224043 
L 109.650327 252.44045 
L 111.531231 250.922102 
L 113.412136 249.667618 
L 115.29304 248.671301 
L 117.173945 247.92451 
L 119.054849 247.416764 
L 120.935754 247.136442 
L 122.816658 247.071034 
L 124.697563 247.206971 
L 126.578467 247.529129 
L 128.459372 248.020158 
L 130.340276 248.659831 
L 134.102085 250.287328 
L 143.506608 254.959089 
L 147.268417 256.40933 
L 149.149322 256.948252 
L 151.030226 257.347862 
L 152.911131 257.605068 
L 154.792035 257.722863 
L 156.67294 257.709336 
L 160.434749 257.338233 
L 164.196558 256.606797 
L 167.958367 255.627332 
L 173.60108 253.872112 
L 188.648317 248.834732 
L 192.410126 247.937039 
L 196.171935 247.421367 
L 198.052839 247.340051 
L 199.933744 247.387885 
L 201.814648 247.567948 
L 203.695553 247.878132 
L 207.457362 248.853084 
L 211.219171 250.190265 
L 220.623693 253.854688 
L 224.385503 254.959962 
L 228.147312 255.694909 
L 231.909121 256.056719 
L 235.67093 256.104164 
L 239.432739 255.926563 
L 246.956357 255.237326 
L 256.360879 254.324435 
L 262.003593 253.998048 
L 265.765402 253.979729 
L 269.527211 254.188598 
L 273.28902 254.667796 
L 277.050829 255.428363 
L 280.812638 256.436834 
L 288.336256 258.844791 
L 293.97897 260.527711 
L 297.740779 261.401128 
L 301.502588 262.021415 
L 305.264397 262.391155 
L 309.026206 262.53726 
L 312.788015 262.486404 
L 316.549824 262.248401 
L 320.311633 261.816942 
L 324.073442 261.187152 
L 329.716156 259.925346 
L 339.120678 257.611816 
L 344.763392 256.529772 
L 354.167915 255.001225 
L 357.929724 254.110326 
L 361.691533 252.834449 
L 363.572437 252.014413 
L 365.453342 251.057675 
L 367.334246 249.955594 
L 369.215151 248.701372 
L 371.096055 247.289587 
L 372.97696 245.715712 
L 374.857864 243.975647 
L 376.738769 242.065287 
L 378.619673 239.980108 
L 380.500578 237.714724 
L 382.381482 235.262371 
L 384.262387 232.614279 
L 386.143291 229.758913 
L 388.024196 226.681139 
L 389.905101 223.361423 
L 391.786005 219.775235 
L 393.66691 215.892928 
L 395.547814 211.680363 
L 397.428719 207.100598 
L 399.309623 202.116862 
L 401.190528 196.696972 
L 403.071432 190.819149 
L 404.952337 184.478982 
L 408.714146 170.526459 
L 418.118668 133.598427 
L 419.999573 127.524076 
L 421.880477 122.529944 
L 423.761382 118.900347 
L 425.642286 116.890684 
L 427.523191 116.707752 
L 429.404095 118.492246 
L 431.285 122.305288 
L 431.285 122.305288 
" style="fill:none;stroke:#00ffff;stroke-dasharray:5.55,2.4;stroke-dashoffset:0;stroke-width:1.5;"/>
   </g>
   <g id="line2d_17">
    <path clip-path="url(#p84fb3145d0)" d="M 61.623259 303.301268 
L 65.338452 302.889051 
L 67.196049 302.552937 
L 69.053646 302.095531 
L 70.911243 301.486145 
L 72.768839 300.691478 
L 74.626436 299.677339 
L 76.484033 298.411036 
L 78.341629 296.864357 
L 80.199226 295.016938 
L 82.056823 292.859715 
L 83.914419 290.398056 
L 85.772016 287.65412 
L 89.487209 281.497272 
L 96.917596 268.565057 
L 98.775193 265.708166 
L 100.63279 263.158171 
L 102.490386 260.967533 
L 104.347983 259.167646 
L 106.20558 257.767756 
L 108.063176 256.756043 
L 109.920773 256.102623 
L 111.77837 255.764015 
L 113.635966 255.688449 
L 115.493563 255.821331 
L 119.208756 256.508876 
L 122.92395 257.495788 
L 130.354337 259.780779 
L 135.927127 261.734188 
L 143.357513 264.672954 
L 148.930303 266.817367 
L 152.645497 268.016194 
L 156.36069 268.924404 
L 160.075884 269.493554 
L 163.791077 269.720608 
L 167.50627 269.644505 
L 171.221464 269.334564 
L 176.794254 268.61196 
L 187.939834 267.08584 
L 193.512624 266.593068 
L 197.227817 266.457459 
L 200.943011 266.529416 
L 204.658204 266.846431 
L 208.373397 267.421024 
L 212.088591 268.225377 
L 223.234171 271.030506 
L 226.949364 271.592778 
L 228.806961 271.713582 
L 230.664558 271.707138 
L 232.522154 271.563731 
L 234.379751 271.279284 
L 236.237348 270.856037 
L 239.952541 269.634781 
L 243.667735 268.041889 
L 251.098121 264.592464 
L 254.813315 263.142387 
L 258.528508 262.040755 
L 262.243701 261.305926 
L 265.958895 260.889172 
L 269.674088 260.708149 
L 275.246878 260.707462 
L 280.819668 260.916246 
L 284.534862 261.194228 
L 288.250055 261.643415 
L 291.965248 262.314705 
L 295.680442 263.219485 
L 306.826022 266.397007 
L 310.541215 267.021942 
L 312.398812 267.150822 
L 314.256409 267.138365 
L 316.114005 266.977594 
L 317.971602 266.667661 
L 319.829199 266.213638 
L 321.686795 265.625956 
L 325.401989 264.113235 
L 329.117182 262.286957 
L 336.547569 258.427585 
L 340.262762 256.73225 
L 343.977956 255.356028 
L 347.693149 254.351728 
L 351.408342 253.707092 
L 355.123536 253.344327 
L 364.411519 252.674922 
L 368.126713 252.005855 
L 369.984309 251.494971 
L 371.841906 250.842872 
L 373.699503 250.035201 
L 375.557099 249.059622 
L 377.414696 247.904603 
L 379.272293 246.557659 
L 381.129889 245.003141 
L 382.987486 243.219684 
L 384.845083 241.177489 
L 386.702679 238.835617 
L 388.560276 236.139525 
L 390.417873 233.019103 
L 392.27547 229.387497 
L 394.133066 225.141085 
L 395.990663 220.161022 
L 397.84826 214.316835 
L 399.705856 207.472555 
L 401.563453 199.495809 
L 403.42105 190.270135 
L 405.278646 179.710409 
L 407.136243 167.780852 
L 408.99384 154.514409 
L 410.851436 140.03168 
L 414.56663 108.42843 
L 418.281823 76.131629 
L 420.13942 61.167552 
L 421.997017 47.901576 
L 423.854613 37.031755 
L 425.71221 29.207764 
L 427.569807 24.976229 
L 429.427403 24.730123 
L 431.285 28.668495 
L 431.285 28.668495 
" style="fill:none;stroke:#00ffff;stroke-dasharray:9.6,2.4,1.5,2.4;stroke-dashoffset:0;stroke-width:1.5;"/>
   </g>
   <g id="line2d_18">
    <path clip-path="url(#p84fb3145d0)" d="M 56.985 302.734187 
L 60.746809 302.149458 
L 64.508618 301.277037 
L 68.270427 300.028704 
L 70.151332 299.235456 
L 72.032236 298.315401 
L 73.913141 297.259308 
L 75.794045 296.059586 
L 77.67495 294.710759 
L 79.555854 293.209929 
L 81.436759 291.557183 
L 85.198568 287.813098 
L 88.960377 283.548975 
L 92.722186 278.892979 
L 104.007613 264.534967 
L 107.769422 260.37858 
L 109.650327 258.54177 
L 111.531231 256.895915 
L 113.412136 255.459587 
L 115.29304 254.24771 
L 117.173945 253.271257 
L 119.054849 252.537036 
L 120.935754 252.047572 
L 122.816658 251.801079 
L 124.697563 251.791533 
L 126.578467 252.008835 
L 128.459372 252.439079 
L 130.340276 253.064903 
L 132.221181 253.865933 
L 134.102085 254.819302 
L 137.863894 257.082679 
L 143.506608 260.9729 
L 149.149322 264.849004 
L 152.911131 267.140943 
L 156.67294 269.055438 
L 160.434749 270.515067 
L 162.315653 271.06024 
L 164.196558 271.478816 
L 166.077462 271.77033 
L 167.958367 271.935875 
L 169.839271 271.978029 
L 171.720176 271.900861 
L 175.481985 271.412744 
L 179.243794 270.537692 
L 183.005603 269.373657 
L 192.410126 266.132933 
L 196.171935 265.146992 
L 198.052839 264.800291 
L 199.933744 264.570011 
L 201.814648 264.46459 
L 203.695553 264.486853 
L 205.576457 264.633428 
L 209.338266 265.25357 
L 214.98098 266.669895 
L 218.742789 267.574122 
L 220.623693 267.907388 
L 222.504598 268.115533 
L 224.385503 268.168355 
L 226.266407 268.040869 
L 228.147312 267.714575 
L 230.028216 267.178429 
L 231.909121 266.42947 
L 233.790025 265.473068 
L 235.67093 264.322783 
L 237.551834 262.999868 
L 241.313643 259.954279 
L 250.718166 251.804401 
L 252.59907 250.406216 
L 254.479975 249.167782 
L 256.360879 248.114298 
L 258.241784 247.26394 
L 260.122688 246.627179 
L 262.003593 246.206372 
L 263.884497 245.995643 
L 265.765402 245.981055 
L 267.646307 246.141084 
L 271.408116 246.865797 
L 280.812638 249.221929 
L 282.693543 249.461338 
L 284.574447 249.543798 
L 286.455352 249.447997 
L 288.336256 249.16157 
L 290.217161 248.681905 
L 292.098065 248.016436 
L 293.97897 247.182383 
L 297.740779 245.120668 
L 305.264397 240.509869 
L 309.026206 238.599734 
L 310.907111 237.845946 
L 312.788015 237.24081 
L 314.66892 236.78062 
L 318.430729 236.221496 
L 325.954347 235.501062 
L 327.835251 235.121399 
L 329.716156 234.563239 
L 331.59706 233.785655 
L 333.477965 232.756667 
L 335.358869 231.455147 
L 337.239774 229.872136 
L 339.120678 228.011505 
L 341.001583 225.889948 
L 342.882487 223.536333 
L 346.644296 218.30141 
L 354.167915 207.29073 
L 356.048819 204.783059 
L 357.929724 202.488397 
L 359.810628 200.453567 
L 361.691533 198.71623 
L 363.572437 197.303498 
L 365.453342 196.230974 
L 367.334246 195.502211 
L 369.215151 195.108613 
L 371.096055 195.02977 
L 372.97696 195.234179 
L 374.857864 195.680362 
L 376.738769 196.318303 
L 380.500578 197.937378 
L 384.262387 199.592153 
L 386.143291 200.273438 
L 388.024196 200.778173 
L 389.905101 201.054784 
L 391.786005 201.060575 
L 393.66691 200.763718 
L 395.547814 200.144977 
L 397.428719 199.199093 
L 399.309623 197.935758 
L 401.190528 196.380128 
L 403.071432 194.572809 
L 406.833241 190.438674 
L 410.59505 186.13017 
L 412.475955 184.140226 
L 414.356859 182.392946 
L 416.237764 180.988711 
L 418.118668 180.023749 
L 419.999573 179.586255 
L 421.880477 179.752668 
L 423.761382 180.5843 
L 425.642286 182.124484 
L 427.523191 184.396434 
L 429.404095 187.401933 
L 431.285 191.120941 
L 431.285 191.120941 
" style="fill:none;stroke:#ff7f00;stroke-dasharray:1.5,2.475;stroke-dashoffset:0;stroke-width:1.5;"/>
   </g>
   <g id="patch_3">
    <path d="M 38.27 303.64 
L 38.27 10.8 
" style="fill:none;stroke:#000000;stroke-linecap:square;stroke-linejoin:miter;stroke-width:0.8;"/>
   </g>
   <g id="patch_4">
    <path d="M 450 303.64 
L 450 10.8 
" style="fill:none;stroke:#000000;stroke-linecap:square;stroke-linejoin:miter;stroke-width:0.8;"/>
   </g>
   <g id="patch_5">
    <path d="M 38.27 303.64 
L 450 303.64 
" style="fill:none;stroke:#000000;stroke-linecap:square;stroke-linejoin:miter;stroke-width:0.8;"/>
   </g>
   <g id="patch_6">
    <path d="M 38.27 10.8 
L 450 10.8 
" style="fill:none;stroke:#000000;stroke-linecap:square;stroke-linejoin:miter;stroke-width:0.8;"/>
   </g>
   <g id="legend_1">
    <g id="patch_7">
     <path d="M 45.27 199.931562 
L 146.693438 199.931562 
Q 148.693438 199.931562 148.693438 197.931562 
L 148.693438 17.8 
Q 148.693438 15.8 146.693438 15.8 
L 45.27 15.8 
Q 43.27 15.8 43.27 17.8 
L 43.27 197.931562 
Q 43.27 199.931562 45.27 199.931562 
z
" style="fill:#ffffff;opacity:0.8;stroke:#cccccc;stroke-linejoin:miter;"/>
    </g>
    <g id="line2d_19">
     <path d="M 47.27 30.537188 
L 67.27 30.537188 
" style="fill:none;stroke:#0000ff;stroke-linecap:square;stroke-width:1.5;"/>
    </g>
    <g id="line2d_20"/>
    <g id="text_14">
     <!-- 2 Clustered  -->
     <g transform="translate(75.27 27.398438)scale(0.1 -0.1)">
      <defs>
       <path d="M 544 1381 
L 544 3500 
L 1119 3500 
L 1119 1403 
Q 1119 906 1312 657 
Q 1506 409 1894 409 
Q 2359 409 2629 706 
Q 2900 1003 2900 1516 
L 2900 3500 
L 3475 3500 
L 3475 0 
L 2900 0 
L 2900 538 
Q 2691 219 2414 64 
Q 2138 -91 1772 -91 
Q 1169 -91 856 284 
Q 544 659 544 1381 
z
M 1991 3584 
L 1991 3584 
z
" id="DejaVuSans-75" transform="scale(0.015625)"/>
      </defs>
      <use xlink:href="#DejaVuSans-32"/>
      <use x="63.623047" xlink:href="#DejaVuSans-20"/>
      <use x="95.410156" xlink:href="#DejaVuSans-43"/>
      <use x="165.234375" xlink:href="#DejaVuSans-6c"/>
      <use x="193.017578" xlink:href="#DejaVuSans-75"/>
      <use x="256.396484" xlink:href="#DejaVuSans-73"/>
      <use x="308.496094" xlink:href="#DejaVuSans-74"/>
      <use x="347.705078" xlink:href="#DejaVuSans-65"/>
      <use x="409.228516" xlink:href="#DejaVuSans-72"/>
      <use x="448.091797" xlink:href="#DejaVuSans-65"/>
      <use x="509.615234" xlink:href="#DejaVuSans-64"/>
      <use x="573.091797" xlink:href="#DejaVuSans-20"/>
     </g>
     <!--  n=314 -->
     <g transform="translate(75.27 38.59625)scale(0.1 -0.1)">
      <defs>
       <path d="M 678 2906 
L 4684 2906 
L 4684 2381 
L 678 2381 
L 678 2906 
z
M 678 1631 
L 4684 1631 
L 4684 1100 
L 678 1100 
L 678 1631 
z
" id="DejaVuSans-3d" transform="scale(0.015625)"/>
      </defs>
      <use xlink:href="#DejaVuSans-20"/>
      <use x="31.787109" xlink:href="#DejaVuSans-6e"/>
      <use x="95.166016" xlink:href="#DejaVuSans-3d"/>
      <use x="178.955078" xlink:href="#DejaVuSans-33"/>
      <use x="242.578125" xlink:href="#DejaVuSans-31"/>
      <use x="306.201172" xlink:href="#DejaVuSans-34"/>
     </g>
    </g>
    <g id="line2d_21">
     <path d="M 47.27 56.413125 
L 67.27 56.413125 
" style="fill:none;stroke:#0000ff;stroke-dasharray:5.55,2.4;stroke-dashoffset:0;stroke-width:1.5;"/>
    </g>
    <g id="line2d_22"/>
    <g id="text_15">
     <!-- 3 Clustered  -->
     <g transform="translate(75.27 53.274375)scale(0.1 -0.1)">
      <use xlink:href="#DejaVuSans-33"/>
      <use x="63.623047" xlink:href="#DejaVuSans-20"/>
      <use x="95.410156" xlink:href="#DejaVuSans-43"/>
      <use x="165.234375" xlink:href="#DejaVuSans-6c"/>
      <use x="193.017578" xlink:href="#DejaVuSans-75"/>
      <use x="256.396484" xlink:href="#DejaVuSans-73"/>
      <use x="308.496094" xlink:href="#DejaVuSans-74"/>
      <use x="347.705078" xlink:href="#DejaVuSans-65"/>
      <use x="409.228516" xlink:href="#DejaVuSans-72"/>
      <use x="448.091797" xlink:href="#DejaVuSans-65"/>
      <use x="509.615234" xlink:href="#DejaVuSans-64"/>
      <use x="573.091797" xlink:href="#DejaVuSans-20"/>
     </g>
     <!--  n=460 -->
     <g transform="translate(75.27 64.472187)scale(0.1 -0.1)">
      <use xlink:href="#DejaVuSans-20"/>
      <use x="31.787109" xlink:href="#DejaVuSans-6e"/>
      <use x="95.166016" xlink:href="#DejaVuSans-3d"/>
      <use x="178.955078" xlink:href="#DejaVuSans-34"/>
      <use x="242.578125" xlink:href="#DejaVuSans-36"/>
      <use x="306.201172" xlink:href="#DejaVuSans-30"/>
     </g>
    </g>
    <g id="line2d_23">
     <path d="M 47.27 82.289062 
L 67.27 82.289062 
" style="fill:none;stroke:#0000ff;stroke-dasharray:9.6,2.4,1.5,2.4;stroke-dashoffset:0;stroke-width:1.5;"/>
    </g>
    <g id="line2d_24"/>
    <g id="text_16">
     <!-- 4 Clustered  -->
     <g transform="translate(75.27 79.150312)scale(0.1 -0.1)">
      <use xlink:href="#DejaVuSans-34"/>
      <use x="63.623047" xlink:href="#DejaVuSans-20"/>
      <use x="95.410156" xlink:href="#DejaVuSans-43"/>
      <use x="165.234375" xlink:href="#DejaVuSans-6c"/>
      <use x="193.017578" xlink:href="#DejaVuSans-75"/>
      <use x="256.396484" xlink:href="#DejaVuSans-73"/>
      <use x="308.496094" xlink:href="#DejaVuSans-74"/>
      <use x="347.705078" xlink:href="#DejaVuSans-65"/>
      <use x="409.228516" xlink:href="#DejaVuSans-72"/>
      <use x="448.091797" xlink:href="#DejaVuSans-65"/>
      <use x="509.615234" xlink:href="#DejaVuSans-64"/>
      <use x="573.091797" xlink:href="#DejaVuSans-20"/>
     </g>
     <!--  n=636 -->
     <g transform="translate(75.27 90.348125)scale(0.1 -0.1)">
      <use xlink:href="#DejaVuSans-20"/>
      <use x="31.787109" xlink:href="#DejaVuSans-6e"/>
      <use x="95.166016" xlink:href="#DejaVuSans-3d"/>
      <use x="178.955078" xlink:href="#DejaVuSans-36"/>
      <use x="242.578125" xlink:href="#DejaVuSans-33"/>
      <use x="306.201172" xlink:href="#DejaVuSans-36"/>
     </g>
    </g>
    <g id="line2d_25">
     <path d="M 47.27 108.165 
L 67.27 108.165 
" style="fill:none;stroke:#00ffff;stroke-linecap:square;stroke-width:1.5;"/>
    </g>
    <g id="line2d_26"/>
    <g id="text_17">
     <!-- 2 Random  -->
     <g transform="translate(75.27 105.02625)scale(0.1 -0.1)">
      <defs>
       <path d="M 2841 2188 
Q 3044 2119 3236 1894 
Q 3428 1669 3622 1275 
L 4263 0 
L 3584 0 
L 2988 1197 
Q 2756 1666 2539 1819 
Q 2322 1972 1947 1972 
L 1259 1972 
L 1259 0 
L 628 0 
L 628 4666 
L 2053 4666 
Q 2853 4666 3247 4331 
Q 3641 3997 3641 3322 
Q 3641 2881 3436 2590 
Q 3231 2300 2841 2188 
z
M 1259 4147 
L 1259 2491 
L 2053 2491 
Q 2509 2491 2742 2702 
Q 2975 2913 2975 3322 
Q 2975 3731 2742 3939 
Q 2509 4147 2053 4147 
L 1259 4147 
z
" id="DejaVuSans-52" transform="scale(0.015625)"/>
       <path d="M 2194 1759 
Q 1497 1759 1228 1600 
Q 959 1441 959 1056 
Q 959 750 1161 570 
Q 1363 391 1709 391 
Q 2188 391 2477 730 
Q 2766 1069 2766 1631 
L 2766 1759 
L 2194 1759 
z
M 3341 1997 
L 3341 0 
L 2766 0 
L 2766 531 
Q 2569 213 2275 61 
Q 1981 -91 1556 -91 
Q 1019 -91 701 211 
Q 384 513 384 1019 
Q 384 1609 779 1909 
Q 1175 2209 1959 2209 
L 2766 2209 
L 2766 2266 
Q 2766 2663 2505 2880 
Q 2244 3097 1772 3097 
Q 1472 3097 1187 3025 
Q 903 2953 641 2809 
L 641 3341 
Q 956 3463 1253 3523 
Q 1550 3584 1831 3584 
Q 2591 3584 2966 3190 
Q 3341 2797 3341 1997 
z
" id="DejaVuSans-61" transform="scale(0.015625)"/>
       <path d="M 1959 3097 
Q 1497 3097 1228 2736 
Q 959 2375 959 1747 
Q 959 1119 1226 758 
Q 1494 397 1959 397 
Q 2419 397 2687 759 
Q 2956 1122 2956 1747 
Q 2956 2369 2687 2733 
Q 2419 3097 1959 3097 
z
M 1959 3584 
Q 2709 3584 3137 3096 
Q 3566 2609 3566 1747 
Q 3566 888 3137 398 
Q 2709 -91 1959 -91 
Q 1206 -91 779 398 
Q 353 888 353 1747 
Q 353 2609 779 3096 
Q 1206 3584 1959 3584 
z
" id="DejaVuSans-6f" transform="scale(0.015625)"/>
       <path d="M 3328 2828 
Q 3544 3216 3844 3400 
Q 4144 3584 4550 3584 
Q 5097 3584 5394 3201 
Q 5691 2819 5691 2113 
L 5691 0 
L 5113 0 
L 5113 2094 
Q 5113 2597 4934 2840 
Q 4756 3084 4391 3084 
Q 3944 3084 3684 2787 
Q 3425 2491 3425 1978 
L 3425 0 
L 2847 0 
L 2847 2094 
Q 2847 2600 2669 2842 
Q 2491 3084 2119 3084 
Q 1678 3084 1418 2786 
Q 1159 2488 1159 1978 
L 1159 0 
L 581 0 
L 581 3500 
L 1159 3500 
L 1159 2956 
Q 1356 3278 1631 3431 
Q 1906 3584 2284 3584 
Q 2666 3584 2933 3390 
Q 3200 3197 3328 2828 
z
" id="DejaVuSans-6d" transform="scale(0.015625)"/>
      </defs>
      <use xlink:href="#DejaVuSans-32"/>
      <use x="63.623047" xlink:href="#DejaVuSans-20"/>
      <use x="95.410156" xlink:href="#DejaVuSans-52"/>
      <use x="162.642578" xlink:href="#DejaVuSans-61"/>
      <use x="223.921875" xlink:href="#DejaVuSans-6e"/>
      <use x="287.300781" xlink:href="#DejaVuSans-64"/>
      <use x="350.777344" xlink:href="#DejaVuSans-6f"/>
      <use x="411.958984" xlink:href="#DejaVuSans-6d"/>
      <use x="509.371094" xlink:href="#DejaVuSans-20"/>
     </g>
     <!--  n=313 -->
     <g transform="translate(75.27 116.224063)scale(0.1 -0.1)">
      <use xlink:href="#DejaVuSans-20"/>
      <use x="31.787109" xlink:href="#DejaVuSans-6e"/>
      <use x="95.166016" xlink:href="#DejaVuSans-3d"/>
      <use x="178.955078" xlink:href="#DejaVuSans-33"/>
      <use x="242.578125" xlink:href="#DejaVuSans-31"/>
      <use x="306.201172" xlink:href="#DejaVuSans-33"/>
     </g>
    </g>
    <g id="line2d_27">
     <path d="M 47.27 134.040938 
L 67.27 134.040938 
" style="fill:none;stroke:#00ffff;stroke-dasharray:5.55,2.4;stroke-dashoffset:0;stroke-width:1.5;"/>
    </g>
    <g id="line2d_28"/>
    <g id="text_18">
     <!-- 3 Random  -->
     <g transform="translate(75.27 130.902188)scale(0.1 -0.1)">
      <use xlink:href="#DejaVuSans-33"/>
      <use x="63.623047" xlink:href="#DejaVuSans-20"/>
      <use x="95.410156" xlink:href="#DejaVuSans-52"/>
      <use x="162.642578" xlink:href="#DejaVuSans-61"/>
      <use x="223.921875" xlink:href="#DejaVuSans-6e"/>
      <use x="287.300781" xlink:href="#DejaVuSans-64"/>
      <use x="350.777344" xlink:href="#DejaVuSans-6f"/>
      <use x="411.958984" xlink:href="#DejaVuSans-6d"/>
      <use x="509.371094" xlink:href="#DejaVuSans-20"/>
     </g>
     <!--  n=740 -->
     <g transform="translate(75.27 142.1)scale(0.1 -0.1)">
      <defs>
       <path d="M 525 4666 
L 3525 4666 
L 3525 4397 
L 1831 0 
L 1172 0 
L 2766 4134 
L 525 4134 
L 525 4666 
z
" id="DejaVuSans-37" transform="scale(0.015625)"/>
      </defs>
      <use xlink:href="#DejaVuSans-20"/>
      <use x="31.787109" xlink:href="#DejaVuSans-6e"/>
      <use x="95.166016" xlink:href="#DejaVuSans-3d"/>
      <use x="178.955078" xlink:href="#DejaVuSans-37"/>
      <use x="242.578125" xlink:href="#DejaVuSans-34"/>
      <use x="306.201172" xlink:href="#DejaVuSans-30"/>
     </g>
    </g>
    <g id="line2d_29">
     <path d="M 47.27 159.916875 
L 67.27 159.916875 
" style="fill:none;stroke:#00ffff;stroke-dasharray:9.6,2.4,1.5,2.4;stroke-dashoffset:0;stroke-width:1.5;"/>
    </g>
    <g id="line2d_30"/>
    <g id="text_19">
     <!-- 4 Random  -->
     <g transform="translate(75.27 156.778125)scale(0.1 -0.1)">
      <use xlink:href="#DejaVuSans-34"/>
      <use x="63.623047" xlink:href="#DejaVuSans-20"/>
      <use x="95.410156" xlink:href="#DejaVuSans-52"/>
      <use x="162.642578" xlink:href="#DejaVuSans-61"/>
      <use x="223.921875" xlink:href="#DejaVuSans-6e"/>
      <use x="287.300781" xlink:href="#DejaVuSans-64"/>
      <use x="350.777344" xlink:href="#DejaVuSans-6f"/>
      <use x="411.958984" xlink:href="#DejaVuSans-6d"/>
      <use x="509.371094" xlink:href="#DejaVuSans-20"/>
     </g>
     <!--  n=1251 -->
     <g transform="translate(75.27 167.975938)scale(0.1 -0.1)">
      <defs>
       <path d="M 691 4666 
L 3169 4666 
L 3169 4134 
L 1269 4134 
L 1269 2991 
Q 1406 3038 1543 3061 
Q 1681 3084 1819 3084 
Q 2600 3084 3056 2656 
Q 3513 2228 3513 1497 
Q 3513 744 3044 326 
Q 2575 -91 1722 -91 
Q 1428 -91 1123 -41 
Q 819 9 494 109 
L 494 744 
Q 775 591 1075 516 
Q 1375 441 1709 441 
Q 2250 441 2565 725 
Q 2881 1009 2881 1497 
Q 2881 1984 2565 2268 
Q 2250 2553 1709 2553 
Q 1456 2553 1204 2497 
Q 953 2441 691 2322 
L 691 4666 
z
" id="DejaVuSans-35" transform="scale(0.015625)"/>
      </defs>
      <use xlink:href="#DejaVuSans-20"/>
      <use x="31.787109" xlink:href="#DejaVuSans-6e"/>
      <use x="95.166016" xlink:href="#DejaVuSans-3d"/>
      <use x="178.955078" xlink:href="#DejaVuSans-31"/>
      <use x="242.578125" xlink:href="#DejaVuSans-32"/>
      <use x="306.201172" xlink:href="#DejaVuSans-35"/>
      <use x="369.824219" xlink:href="#DejaVuSans-31"/>
     </g>
    </g>
    <g id="line2d_31">
     <path d="M 47.27 185.792812 
L 67.27 185.792812 
" style="fill:none;stroke:#ff7f00;stroke-dasharray:1.5,2.475;stroke-dashoffset:0;stroke-width:1.5;"/>
    </g>
    <g id="line2d_32"/>
    <g id="text_20">
     <!-- All Credibility  -->
     <g transform="translate(75.27 182.654063)scale(0.1 -0.1)">
      <defs>
       <path d="M 2188 4044 
L 1331 1722 
L 3047 1722 
L 2188 4044 
z
M 1831 4666 
L 2547 4666 
L 4325 0 
L 3669 0 
L 3244 1197 
L 1141 1197 
L 716 0 
L 50 0 
L 1831 4666 
z
" id="DejaVuSans-41" transform="scale(0.015625)"/>
      </defs>
      <use xlink:href="#DejaVuSans-41"/>
      <use x="68.408203" xlink:href="#DejaVuSans-6c"/>
      <use x="96.191406" xlink:href="#DejaVuSans-6c"/>
      <use x="123.974609" xlink:href="#DejaVuSans-20"/>
      <use x="155.761719" xlink:href="#DejaVuSans-43"/>
      <use x="225.585938" xlink:href="#DejaVuSans-72"/>
      <use x="264.449219" xlink:href="#DejaVuSans-65"/>
      <use x="325.972656" xlink:href="#DejaVuSans-64"/>
      <use x="389.449219" xlink:href="#DejaVuSans-69"/>
      <use x="417.232422" xlink:href="#DejaVuSans-62"/>
      <use x="480.708984" xlink:href="#DejaVuSans-69"/>
      <use x="508.492188" xlink:href="#DejaVuSans-6c"/>
      <use x="536.275391" xlink:href="#DejaVuSans-69"/>
      <use x="564.058594" xlink:href="#DejaVuSans-74"/>
      <use x="603.267578" xlink:href="#DejaVuSans-79"/>
      <use x="662.447266" xlink:href="#DejaVuSans-20"/>
     </g>
     <!--   n=171 -->
     <g transform="translate(75.27 193.851875)scale(0.1 -0.1)">
      <use xlink:href="#DejaVuSans-20"/>
      <use x="31.787109" xlink:href="#DejaVuSans-20"/>
      <use x="63.574219" xlink:href="#DejaVuSans-6e"/>
      <use x="126.953125" xlink:href="#DejaVuSans-3d"/>
      <use x="210.742188" xlink:href="#DejaVuSans-31"/>
      <use x="274.365234" xlink:href="#DejaVuSans-37"/>
      <use x="337.988281" xlink:href="#DejaVuSans-31"/>
     </g>
    </g>
   </g>
  </g>
 </g>
 <defs>
  <clipPath id="p84fb3145d0">
   <rect height="292.84" width="411.73" x="38.27" y="10.8"/>
  </clipPath>
 </defs>
</svg>
