<?xml version="1.0" encoding="utf-8" standalone="no"?>
<!DOCTYPE svg PUBLIC "-//W3C//DTD SVG 1.1//EN"
  "http://www.w3.org/Graphics/SVG/1.1/DTD/svg11.dtd">
<svg height="345.6pt" version="1.1" viewBox="0 0 460.8 345.6" width="460.8pt" xmlns="http://www.w3.org/2000/svg" xmlns:xlink="http://www.w3.org/1999/xlink">
 <metadata>
  <rdf:RDF xmlns:cc="http://creativecommons.org/ns#" xmlns:dc="http://purl.org/dc/elements/1.1/" xmlns:rdf="http://www.w3.org/1999/02/22-rdf-syntax-ns#">
   <cc:Work>
    <dc:type rdf:resource="http://purl.org/dc/dcmitype/StillImage"/>
    <dc:date>2021-12-21T22:13:19.546623</dc:date>
    <dc:format>image/svg+xml</dc:format>
    <dc:creator>
     <cc:Agent>
      <dc:title>Matplotlib v3.4.3, https://matplotlib.org/</dc:title>
     </cc:Agent>
    </dc:creator>
   </cc:Work>
  </rdf:RDF>
 </metadata>
 <defs>
  <style type="text/css">*{stroke-linecap:butt;stroke-linejoin:round;}</style>
 </defs>
 <g id="figure_1">
  <g id="patch_1">
   <path d="M 0 345.6 
L 460.8 345.6 
L 460.8 0 
L 0 0 
z
" style="fill:#ffffff;"/>
  </g>
  <g id="axes_1">
   <g id="patch_2">
    <path d="M 47.81 303.64 
L 346.9252 303.64 
L 346.9252 25.44 
L 47.81 25.44 
z
" style="fill:#ffffff;"/>
   </g>
   <g id="PolyCollection_1">
    <defs>
     <path d="M 68.142507 -54.605455 
L 62.374266 -54.605455 
L 62.227083 -57.160092 
L 62.089937 -59.714729 
L 61.964206 -62.269366 
L 61.851 -64.824004 
L 61.751128 -67.378641 
L 61.665078 -69.933278 
L 61.593003 -72.487916 
L 61.534729 -75.042553 
L 61.489761 -77.59719 
L 61.457318 -80.151827 
L 61.436364 -82.706465 
L 61.42565 -85.261102 
L 61.42377 -87.815739 
L 61.429206 -90.370376 
L 61.44039 -92.925014 
L 61.455744 -95.479651 
L 61.473736 -98.034288 
L 61.492917 -100.588926 
L 61.51195 -103.143563 
L 61.52964 -105.6982 
L 61.544942 -108.252837 
L 61.556974 -110.807475 
L 61.565007 -113.362112 
L 61.568465 -115.916749 
L 61.566907 -118.471387 
L 61.560009 -121.026024 
L 61.547553 -123.580661 
L 61.5294 -126.135298 
L 61.505485 -128.689936 
L 61.475794 -131.244573 
L 61.440365 -133.79921 
L 61.399273 -136.353848 
L 61.352636 -138.908485 
L 61.300612 -141.463122 
L 61.2434 -144.017759 
L 61.181247 -146.572397 
L 61.114448 -149.127034 
L 61.043345 -151.681671 
L 60.968325 -154.236309 
L 60.889817 -156.790946 
L 60.808274 -159.345583 
L 60.724169 -161.90022 
L 60.637968 -164.454858 
L 60.550116 -167.009495 
L 60.461016 -169.564132 
L 60.371009 -172.11877 
L 60.280352 -174.673407 
L 60.189209 -177.228044 
L 60.097633 -179.782681 
L 60.005564 -182.337319 
L 59.912825 -184.891956 
L 59.819129 -187.446593 
L 59.724086 -190.00123 
L 59.627221 -192.555868 
L 59.527988 -195.110505 
L 59.425798 -197.665142 
L 59.320039 -200.21978 
L 59.210102 -202.774417 
L 59.095411 -205.329054 
L 58.975445 -207.883691 
L 58.849766 -210.438329 
L 58.718039 -212.992966 
L 58.580056 -215.547603 
L 58.435752 -218.102241 
L 58.285215 -220.656878 
L 58.128703 -223.211515 
L 57.96664 -225.766152 
L 57.799621 -228.32079 
L 57.628406 -230.875427 
L 57.453907 -233.430064 
L 57.277179 -235.984702 
L 57.099396 -238.539339 
L 56.921837 -241.093976 
L 56.74586 -243.648613 
L 56.572887 -246.203251 
L 56.404381 -248.757888 
L 56.241836 -251.312525 
L 56.086766 -253.867163 
L 55.940698 -256.4218 
L 55.805178 -258.976437 
L 55.681771 -261.531074 
L 55.572071 -264.085712 
L 55.477711 -266.640349 
L 55.400366 -269.194986 
L 55.341763 -271.749624 
L 55.303669 -274.304261 
L 55.28788 -276.858898 
L 55.296196 -279.413535 
L 55.33038 -281.968173 
L 55.392107 -284.52281 
L 55.482903 -287.077447 
L 55.604072 -289.632084 
L 55.756621 -292.186722 
L 55.941181 -294.741359 
L 56.157935 -297.295996 
L 56.406556 -299.850634 
L 56.686154 -302.405271 
L 56.995251 -304.959908 
L 57.331771 -307.514545 
L 73.185002 -307.514545 
L 73.185002 -307.514545 
L 73.521522 -304.959908 
L 73.830619 -302.405271 
L 74.110217 -299.850634 
L 74.358838 -297.295996 
L 74.575593 -294.741359 
L 74.760153 -292.186722 
L 74.912702 -289.632084 
L 75.033871 -287.077447 
L 75.124667 -284.52281 
L 75.186394 -281.968173 
L 75.220577 -279.413535 
L 75.228893 -276.858898 
L 75.213105 -274.304261 
L 75.17501 -271.749624 
L 75.116407 -269.194986 
L 75.039063 -266.640349 
L 74.944702 -264.085712 
L 74.835002 -261.531074 
L 74.711595 -258.976437 
L 74.576075 -256.4218 
L 74.430008 -253.867163 
L 74.274937 -251.312525 
L 74.112393 -248.757888 
L 73.943887 -246.203251 
L 73.770913 -243.648613 
L 73.594936 -241.093976 
L 73.417377 -238.539339 
L 73.239594 -235.984702 
L 73.062866 -233.430064 
L 72.888368 -230.875427 
L 72.717152 -228.32079 
L 72.550134 -225.766152 
L 72.38807 -223.211515 
L 72.231558 -220.656878 
L 72.081022 -218.102241 
L 71.936717 -215.547603 
L 71.798735 -212.992966 
L 71.667008 -210.438329 
L 71.541328 -207.883691 
L 71.421362 -205.329054 
L 71.306671 -202.774417 
L 71.196734 -200.21978 
L 71.090975 -197.665142 
L 70.988785 -195.110505 
L 70.889553 -192.555868 
L 70.792687 -190.00123 
L 70.697644 -187.446593 
L 70.603948 -184.891956 
L 70.511209 -182.337319 
L 70.41914 -179.782681 
L 70.327564 -177.228044 
L 70.236421 -174.673407 
L 70.145765 -172.11877 
L 70.055757 -169.564132 
L 69.966658 -167.009495 
L 69.878806 -164.454858 
L 69.792604 -161.90022 
L 69.708499 -159.345583 
L 69.626957 -156.790946 
L 69.548448 -154.236309 
L 69.473429 -151.681671 
L 69.402325 -149.127034 
L 69.335526 -146.572397 
L 69.273373 -144.017759 
L 69.216161 -141.463122 
L 69.164137 -138.908485 
L 69.1175 -136.353848 
L 69.076409 -133.79921 
L 69.040979 -131.244573 
L 69.011289 -128.689936 
L 68.987373 -126.135298 
L 68.969221 -123.580661 
L 68.956764 -121.026024 
L 68.949867 -118.471387 
L 68.948308 -115.916749 
L 68.951766 -113.362112 
L 68.9598 -110.807475 
L 68.971831 -108.252837 
L 68.987133 -105.6982 
L 69.004823 -103.143563 
L 69.023856 -100.588926 
L 69.043037 -98.034288 
L 69.061029 -95.479651 
L 69.076384 -92.925014 
L 69.087567 -90.370376 
L 69.093004 -87.815739 
L 69.091123 -85.261102 
L 69.08041 -82.706465 
L 69.059455 -80.151827 
L 69.027012 -77.59719 
L 68.982045 -75.042553 
L 68.92377 -72.487916 
L 68.851696 -69.933278 
L 68.765645 -67.378641 
L 68.665774 -64.824004 
L 68.552567 -62.269366 
L 68.426836 -59.714729 
L 68.28969 -57.160092 
L 68.142507 -54.605455 
z
" id="m16fa8ff0a6" style="stroke:#4c4c4c;stroke-width:1.5;"/>
    </defs>
    <g clip-path="url(#pb2d1fa48d8)">
     <use style="fill:#df7f20;stroke:#4c4c4c;stroke-width:1.5;" x="0" xlink:href="#m16fa8ff0a6" y="345.6"/>
    </g>
   </g>
   <g id="PolyCollection_2">
    <defs>
     <path d="M 163.053506 -54.605455 
L 156.902894 -54.605455 
L 156.775124 -57.160092 
L 156.661533 -59.714729 
L 156.563367 -62.269366 
L 156.481546 -64.824004 
L 156.416642 -67.378641 
L 156.368867 -69.933278 
L 156.338078 -72.487916 
L 156.323788 -75.042553 
L 156.325191 -77.59719 
L 156.341194 -80.151827 
L 156.370457 -82.706465 
L 156.411441 -85.261102 
L 156.462452 -87.815739 
L 156.521693 -90.370376 
L 156.587313 -92.925014 
L 156.657453 -95.479651 
L 156.730289 -98.034288 
L 156.80407 -100.588926 
L 156.877151 -103.143563 
L 156.948013 -105.6982 
L 157.015292 -108.252837 
L 157.077781 -110.807475 
L 157.134447 -113.362112 
L 157.184427 -115.916749 
L 157.227027 -118.471387 
L 157.261719 -121.026024 
L 157.288132 -123.580661 
L 157.306043 -126.135298 
L 157.315366 -128.689936 
L 157.316144 -131.244573 
L 157.308538 -133.79921 
L 157.292818 -136.353848 
L 157.269354 -138.908485 
L 157.238608 -141.463122 
L 157.201126 -144.017759 
L 157.157525 -146.572397 
L 157.10849 -149.127034 
L 157.054758 -151.681671 
L 156.997106 -154.236309 
L 156.936342 -156.790946 
L 156.873285 -159.345583 
L 156.808751 -161.90022 
L 156.743538 -164.454858 
L 156.678405 -167.009495 
L 156.614058 -169.564132 
L 156.551132 -172.11877 
L 156.490177 -174.673407 
L 156.431644 -177.228044 
L 156.375876 -179.782681 
L 156.323098 -182.337319 
L 156.273411 -184.891956 
L 156.226793 -187.446593 
L 156.183093 -190.00123 
L 156.142036 -192.555868 
L 156.103227 -195.110505 
L 156.066154 -197.665142 
L 156.030199 -200.21978 
L 155.994639 -202.774417 
L 155.95866 -205.329054 
L 155.921358 -207.883691 
L 155.881753 -210.438329 
L 155.838793 -212.992966 
L 155.791362 -215.547603 
L 155.738289 -218.102241 
L 155.678355 -220.656878 
L 155.610304 -223.211515 
L 155.532854 -225.766152 
L 155.44471 -228.32079 
L 155.344586 -230.875427 
L 155.231223 -233.430064 
L 155.10342 -235.984702 
L 154.960072 -238.539339 
L 154.800206 -241.093976 
L 154.623035 -243.648613 
L 154.428015 -246.203251 
L 154.214901 -248.757888 
L 153.983823 -251.312525 
L 153.735344 -253.867163 
L 153.470532 -256.4218 
L 153.191019 -258.976437 
L 152.899047 -261.531074 
L 152.597509 -264.085712 
L 152.289956 -266.640349 
L 151.98059 -269.194986 
L 151.674224 -271.749624 
L 151.376214 -274.304261 
L 151.092352 -276.858898 
L 150.828739 -279.413535 
L 150.591619 -281.968173 
L 150.387197 -284.52281 
L 150.221432 -287.077447 
L 150.099837 -289.632084 
L 150.02726 -292.186722 
L 150.007693 -294.741359 
L 150.044099 -297.295996 
L 150.138265 -299.850634 
L 150.290705 -302.405271 
L 150.500604 -304.959908 
L 150.765817 -307.514545 
L 169.190583 -307.514545 
L 169.190583 -307.514545 
L 169.455796 -304.959908 
L 169.665695 -302.405271 
L 169.818135 -299.850634 
L 169.912301 -297.295996 
L 169.948707 -294.741359 
L 169.92914 -292.186722 
L 169.856563 -289.632084 
L 169.734968 -287.077447 
L 169.569203 -284.52281 
L 169.364781 -281.968173 
L 169.127661 -279.413535 
L 168.864048 -276.858898 
L 168.580186 -274.304261 
L 168.282176 -271.749624 
L 167.97581 -269.194986 
L 167.666444 -266.640349 
L 167.358891 -264.085712 
L 167.057353 -261.531074 
L 166.765381 -258.976437 
L 166.485868 -256.4218 
L 166.221056 -253.867163 
L 165.972577 -251.312525 
L 165.741499 -248.757888 
L 165.528385 -246.203251 
L 165.333365 -243.648613 
L 165.156194 -241.093976 
L 164.996328 -238.539339 
L 164.85298 -235.984702 
L 164.725177 -233.430064 
L 164.611814 -230.875427 
L 164.51169 -228.32079 
L 164.423546 -225.766152 
L 164.346096 -223.211515 
L 164.278045 -220.656878 
L 164.218111 -218.102241 
L 164.165038 -215.547603 
L 164.117607 -212.992966 
L 164.074647 -210.438329 
L 164.035042 -207.883691 
L 163.99774 -205.329054 
L 163.961761 -202.774417 
L 163.926201 -200.21978 
L 163.890246 -197.665142 
L 163.853173 -195.110505 
L 163.814364 -192.555868 
L 163.773307 -190.00123 
L 163.729607 -187.446593 
L 163.682989 -184.891956 
L 163.633302 -182.337319 
L 163.580524 -179.782681 
L 163.524756 -177.228044 
L 163.466223 -174.673407 
L 163.405268 -172.11877 
L 163.342342 -169.564132 
L 163.277995 -167.009495 
L 163.212862 -164.454858 
L 163.147649 -161.90022 
L 163.083115 -159.345583 
L 163.020058 -156.790946 
L 162.959294 -154.236309 
L 162.901642 -151.681671 
L 162.84791 -149.127034 
L 162.798875 -146.572397 
L 162.755274 -144.017759 
L 162.717792 -141.463122 
L 162.687046 -138.908485 
L 162.663582 -136.353848 
L 162.647862 -133.79921 
L 162.640256 -131.244573 
L 162.641034 -128.689936 
L 162.650357 -126.135298 
L 162.668268 -123.580661 
L 162.694681 -121.026024 
L 162.729373 -118.471387 
L 162.771973 -115.916749 
L 162.821953 -113.362112 
L 162.878619 -110.807475 
L 162.941108 -108.252837 
L 163.008387 -105.6982 
L 163.079249 -103.143563 
L 163.15233 -100.588926 
L 163.226111 -98.034288 
L 163.298947 -95.479651 
L 163.369087 -92.925014 
L 163.434707 -90.370376 
L 163.493948 -87.815739 
L 163.544959 -85.261102 
L 163.585943 -82.706465 
L 163.615206 -80.151827 
L 163.631209 -77.59719 
L 163.632612 -75.042553 
L 163.618322 -72.487916 
L 163.587533 -69.933278 
L 163.539758 -67.378641 
L 163.474854 -64.824004 
L 163.393033 -62.269366 
L 163.294867 -59.714729 
L 163.181276 -57.160092 
L 163.053506 -54.605455 
z
" id="m6ffca70a20" style="stroke:#4c4c4c;stroke-width:1.5;"/>
    </defs>
    <g clip-path="url(#pb2d1fa48d8)">
     <use style="fill:#2020df;stroke:#4c4c4c;stroke-width:1.5;" x="0" xlink:href="#m6ffca70a20" y="345.6"/>
    </g>
   </g>
   <g id="PolyCollection_3">
    <defs>
     <path d="M 183.525652 -54.605455 
L 176.312775 -54.605455 
L 176.154831 -57.160092 
L 176.013064 -59.714729 
L 175.888894 -62.269366 
L 175.783329 -64.824004 
L 175.696949 -67.378641 
L 175.62989 -69.933278 
L 175.581865 -72.487916 
L 175.552182 -75.042553 
L 175.539788 -77.59719 
L 175.543312 -80.151827 
L 175.561128 -82.706465 
L 175.591412 -85.261102 
L 175.632203 -87.815739 
L 175.681471 -90.370376 
L 175.737171 -92.925014 
L 175.797294 -95.479651 
L 175.859921 -98.034288 
L 175.923252 -100.588926 
L 175.985645 -103.143563 
L 176.045634 -105.6982 
L 176.101943 -108.252837 
L 176.1535 -110.807475 
L 176.199434 -113.362112 
L 176.239073 -115.916749 
L 176.271939 -118.471387 
L 176.297735 -121.026024 
L 176.316332 -123.580661 
L 176.327756 -126.135298 
L 176.332166 -128.689936 
L 176.329837 -131.244573 
L 176.321144 -133.79921 
L 176.306537 -136.353848 
L 176.286522 -138.908485 
L 176.261641 -141.463122 
L 176.232456 -144.017759 
L 176.199526 -146.572397 
L 176.163393 -149.127034 
L 176.124574 -151.681671 
L 176.083543 -154.236309 
L 176.040732 -156.790946 
L 175.996527 -159.345583 
L 175.951266 -161.90022 
L 175.90525 -164.454858 
L 175.858747 -167.009495 
L 175.812003 -169.564132 
L 175.765253 -172.11877 
L 175.718731 -174.673407 
L 175.672676 -177.228044 
L 175.627344 -179.782681 
L 175.583005 -182.337319 
L 175.53994 -184.891956 
L 175.498439 -187.446593 
L 175.458784 -190.00123 
L 175.421232 -192.555868 
L 175.385999 -195.110505 
L 175.353235 -197.665142 
L 175.323001 -200.21978 
L 175.295246 -202.774417 
L 175.26979 -205.329054 
L 175.246304 -207.883691 
L 175.224302 -210.438329 
L 175.203133 -212.992966 
L 175.18199 -215.547603 
L 175.15991 -218.102241 
L 175.135801 -220.656878 
L 175.108455 -223.211515 
L 175.076582 -225.766152 
L 175.038843 -228.32079 
L 174.993887 -230.875427 
L 174.940388 -233.430064 
L 174.877093 -235.984702 
L 174.802858 -238.539339 
L 174.7167 -241.093976 
L 174.617835 -243.648613 
L 174.505728 -246.203251 
L 174.380131 -248.757888 
L 174.241133 -251.312525 
L 174.089193 -253.867163 
L 173.925186 -256.4218 
L 173.750427 -258.976437 
L 173.566702 -261.531074 
L 173.376279 -264.085712 
L 173.181913 -266.640349 
L 172.986827 -269.194986 
L 172.794681 -271.749624 
L 172.609521 -274.304261 
L 172.435696 -276.858898 
L 172.277765 -279.413535 
L 172.140375 -281.968173 
L 172.028126 -284.52281 
L 171.945418 -287.077447 
L 171.896295 -289.632084 
L 171.884288 -292.186722 
L 171.912266 -294.741359 
L 171.9823 -297.295996 
L 172.095556 -299.850634 
L 172.252219 -302.405271 
L 172.451448 -304.959908 
L 172.69138 -307.514545 
L 187.147046 -307.514545 
L 187.147046 -307.514545 
L 187.386979 -304.959908 
L 187.586208 -302.405271 
L 187.74287 -299.850634 
L 187.856127 -297.295996 
L 187.926161 -294.741359 
L 187.954138 -292.186722 
L 187.942132 -289.632084 
L 187.893009 -287.077447 
L 187.810301 -284.52281 
L 187.698052 -281.968173 
L 187.560662 -279.413535 
L 187.402731 -276.858898 
L 187.228906 -274.304261 
L 187.043745 -271.749624 
L 186.8516 -269.194986 
L 186.656514 -266.640349 
L 186.462147 -264.085712 
L 186.271725 -261.531074 
L 186.088 -258.976437 
L 185.913241 -256.4218 
L 185.749233 -253.867163 
L 185.597294 -251.312525 
L 185.458295 -248.757888 
L 185.332699 -246.203251 
L 185.220591 -243.648613 
L 185.121727 -241.093976 
L 185.035569 -238.539339 
L 184.961334 -235.984702 
L 184.898038 -233.430064 
L 184.84454 -230.875427 
L 184.799583 -228.32079 
L 184.761845 -225.766152 
L 184.729972 -223.211515 
L 184.702626 -220.656878 
L 184.678516 -218.102241 
L 184.656437 -215.547603 
L 184.635294 -212.992966 
L 184.614125 -210.438329 
L 184.592122 -207.883691 
L 184.568636 -205.329054 
L 184.54318 -202.774417 
L 184.515426 -200.21978 
L 184.485192 -197.665142 
L 184.452428 -195.110505 
L 184.417195 -192.555868 
L 184.379643 -190.00123 
L 184.339987 -187.446593 
L 184.298486 -184.891956 
L 184.255422 -182.337319 
L 184.211082 -179.782681 
L 184.165751 -177.228044 
L 184.119696 -174.673407 
L 184.073173 -172.11877 
L 184.026423 -169.564132 
L 183.97968 -167.009495 
L 183.933177 -164.454858 
L 183.887161 -161.90022 
L 183.8419 -159.345583 
L 183.797694 -156.790946 
L 183.754884 -154.236309 
L 183.713853 -151.681671 
L 183.675033 -149.127034 
L 183.638901 -146.572397 
L 183.60597 -144.017759 
L 183.576785 -141.463122 
L 183.551905 -138.908485 
L 183.53189 -136.353848 
L 183.517282 -133.79921 
L 183.508589 -131.244573 
L 183.506261 -128.689936 
L 183.510671 -126.135298 
L 183.522094 -123.580661 
L 183.540692 -121.026024 
L 183.566488 -118.471387 
L 183.599354 -115.916749 
L 183.638993 -113.362112 
L 183.684927 -110.807475 
L 183.736483 -108.252837 
L 183.792793 -105.6982 
L 183.852781 -103.143563 
L 183.915174 -100.588926 
L 183.978506 -98.034288 
L 184.041132 -95.479651 
L 184.101256 -92.925014 
L 184.156955 -90.370376 
L 184.206224 -87.815739 
L 184.247015 -85.261102 
L 184.277298 -82.706465 
L 184.295115 -80.151827 
L 184.298639 -77.59719 
L 184.286244 -75.042553 
L 184.256562 -72.487916 
L 184.208536 -69.933278 
L 184.141478 -67.378641 
L 184.055097 -64.824004 
L 183.949533 -62.269366 
L 183.825363 -59.714729 
L 183.683595 -57.160092 
L 183.525652 -54.605455 
z
" id="mae1d5dd3a6" style="stroke:#4c4c4c;stroke-width:1.5;"/>
    </defs>
    <g clip-path="url(#pb2d1fa48d8)">
     <use style="fill:#20dfdf;stroke:#4c4c4c;stroke-width:1.5;" x="0" xlink:href="#mae1d5dd3a6" y="345.6"/>
    </g>
   </g>
   <g id="PolyCollection_4">
    <defs>
     <path d="M 237.370067 -54.605455 
L 232.143933 -54.605455 
L 232.003953 -57.160092 
L 231.875202 -59.714729 
L 231.75915 -62.269366 
L 231.65697 -64.824004 
L 231.569518 -67.378641 
L 231.497322 -69.933278 
L 231.440592 -72.487916 
L 231.399229 -75.042553 
L 231.372856 -77.59719 
L 231.360841 -80.151827 
L 231.362335 -82.706465 
L 231.376307 -85.261102 
L 231.401578 -87.815739 
L 231.436857 -90.370376 
L 231.480773 -92.925014 
L 231.531904 -95.479651 
L 231.588805 -98.034288 
L 231.65003 -100.588926 
L 231.714162 -103.143563 
L 231.779827 -105.6982 
L 231.845719 -108.252837 
L 231.910618 -110.807475 
L 231.973408 -113.362112 
L 232.033093 -115.916749 
L 232.088806 -118.471387 
L 232.139823 -121.026024 
L 232.185567 -123.580661 
L 232.225606 -126.135298 
L 232.259656 -128.689936 
L 232.287565 -131.244573 
L 232.309302 -133.79921 
L 232.324945 -136.353848 
L 232.334654 -138.908485 
L 232.338655 -141.463122 
L 232.337217 -144.017759 
L 232.330629 -146.572397 
L 232.319186 -149.127034 
L 232.303165 -151.681671 
L 232.282824 -154.236309 
L 232.258385 -156.790946 
L 232.230035 -159.345583 
L 232.197926 -161.90022 
L 232.162178 -164.454858 
L 232.122889 -167.009495 
L 232.080139 -169.564132 
L 232.034006 -172.11877 
L 231.984569 -174.673407 
L 231.931921 -177.228044 
L 231.876178 -179.782681 
L 231.817476 -182.337319 
L 231.755982 -184.891956 
L 231.691885 -187.446593 
L 231.6254 -190.00123 
L 231.556755 -192.555868 
L 231.486182 -195.110505 
L 231.413912 -197.665142 
L 231.340155 -200.21978 
L 231.265088 -202.774417 
L 231.188841 -205.329054 
L 231.111484 -207.883691 
L 231.033006 -210.438329 
L 230.953308 -212.992966 
L 230.872184 -215.547603 
L 230.789313 -218.102241 
L 230.704247 -220.656878 
L 230.616403 -223.211515 
L 230.525052 -225.766152 
L 230.429321 -228.32079 
L 230.328189 -230.875427 
L 230.220494 -233.430064 
L 230.104939 -235.984702 
L 229.980113 -238.539339 
L 229.84452 -241.093976 
L 229.696617 -243.648613 
L 229.534866 -246.203251 
L 229.357803 -248.757888 
L 229.164124 -251.312525 
L 228.952777 -253.867163 
L 228.723078 -256.4218 
L 228.474829 -258.976437 
L 228.208444 -261.531074 
L 227.925067 -264.085712 
L 227.626682 -266.640349 
L 227.316201 -269.194986 
L 226.997522 -271.749624 
L 226.675539 -274.304261 
L 226.356105 -276.858898 
L 226.045945 -279.413535 
L 225.752499 -281.968173 
L 225.483711 -284.52281 
L 225.247763 -287.077447 
L 225.052772 -289.632084 
L 224.906444 -292.186722 
L 224.815732 -294.741359 
L 224.786493 -297.295996 
L 224.823178 -299.850634 
L 224.928575 -302.405271 
L 225.103622 -304.959908 
L 225.347302 -307.514545 
L 244.166698 -307.514545 
L 244.166698 -307.514545 
L 244.410378 -304.959908 
L 244.585425 -302.405271 
L 244.690822 -299.850634 
L 244.727507 -297.295996 
L 244.698268 -294.741359 
L 244.607556 -292.186722 
L 244.461228 -289.632084 
L 244.266237 -287.077447 
L 244.030289 -284.52281 
L 243.761501 -281.968173 
L 243.468055 -279.413535 
L 243.157895 -276.858898 
L 242.838461 -274.304261 
L 242.516478 -271.749624 
L 242.197799 -269.194986 
L 241.887318 -266.640349 
L 241.588933 -264.085712 
L 241.305556 -261.531074 
L 241.039171 -258.976437 
L 240.790922 -256.4218 
L 240.561223 -253.867163 
L 240.349876 -251.312525 
L 240.156197 -248.757888 
L 239.979134 -246.203251 
L 239.817383 -243.648613 
L 239.66948 -241.093976 
L 239.533887 -238.539339 
L 239.409061 -235.984702 
L 239.293506 -233.430064 
L 239.185811 -230.875427 
L 239.084679 -228.32079 
L 238.988948 -225.766152 
L 238.897597 -223.211515 
L 238.809753 -220.656878 
L 238.724687 -218.102241 
L 238.641816 -215.547603 
L 238.560692 -212.992966 
L 238.480994 -210.438329 
L 238.402516 -207.883691 
L 238.325159 -205.329054 
L 238.248912 -202.774417 
L 238.173845 -200.21978 
L 238.100088 -197.665142 
L 238.027818 -195.110505 
L 237.957245 -192.555868 
L 237.8886 -190.00123 
L 237.822115 -187.446593 
L 237.758018 -184.891956 
L 237.696524 -182.337319 
L 237.637822 -179.782681 
L 237.582079 -177.228044 
L 237.529431 -174.673407 
L 237.479994 -172.11877 
L 237.433861 -169.564132 
L 237.391111 -167.009495 
L 237.351822 -164.454858 
L 237.316074 -161.90022 
L 237.283965 -159.345583 
L 237.255615 -156.790946 
L 237.231176 -154.236309 
L 237.210835 -151.681671 
L 237.194814 -149.127034 
L 237.183371 -146.572397 
L 237.176783 -144.017759 
L 237.175345 -141.463122 
L 237.179346 -138.908485 
L 237.189055 -136.353848 
L 237.204698 -133.79921 
L 237.226435 -131.244573 
L 237.254344 -128.689936 
L 237.288394 -126.135298 
L 237.328433 -123.580661 
L 237.374177 -121.026024 
L 237.425194 -118.471387 
L 237.480907 -115.916749 
L 237.540592 -113.362112 
L 237.603382 -110.807475 
L 237.668281 -108.252837 
L 237.734173 -105.6982 
L 237.799838 -103.143563 
L 237.86397 -100.588926 
L 237.925195 -98.034288 
L 237.982096 -95.479651 
L 238.033227 -92.925014 
L 238.077143 -90.370376 
L 238.112422 -87.815739 
L 238.137693 -85.261102 
L 238.151665 -82.706465 
L 238.153159 -80.151827 
L 238.141144 -77.59719 
L 238.114771 -75.042553 
L 238.073408 -72.487916 
L 238.016678 -69.933278 
L 237.944482 -67.378641 
L 237.85703 -64.824004 
L 237.75485 -62.269366 
L 237.638798 -59.714729 
L 237.510047 -57.160092 
L 237.370067 -54.605455 
z
" id="me269ba8697" style="stroke:#4c4c4c;stroke-width:1.5;"/>
    </defs>
    <g clip-path="url(#pb2d1fa48d8)">
     <use style="fill:#2020df;stroke:#4c4c4c;stroke-width:1.5;" x="0" xlink:href="#me269ba8697" y="345.6"/>
    </g>
   </g>
   <g id="PolyCollection_5">
    <defs>
     <path d="M 257.414731 -54.605455 
L 251.981295 -54.605455 
L 251.804824 -57.160092 
L 251.640077 -59.714729 
L 251.48898 -62.269366 
L 251.352977 -64.824004 
L 251.232992 -67.378641 
L 251.129413 -69.933278 
L 251.04211 -72.487916 
L 250.970472 -75.042553 
L 250.913472 -77.59719 
L 250.869743 -80.151827 
L 250.837674 -82.706465 
L 250.815502 -85.261102 
L 250.801409 -87.815739 
L 250.793611 -90.370376 
L 250.790434 -92.925014 
L 250.790383 -95.479651 
L 250.792187 -98.034288 
L 250.794827 -100.588926 
L 250.797553 -103.143563 
L 250.799876 -105.6982 
L 250.801549 -108.252837 
L 250.802539 -110.807475 
L 250.802979 -113.362112 
L 250.803127 -115.916749 
L 250.803312 -118.471387 
L 250.803886 -121.026024 
L 250.805181 -123.580661 
L 250.807467 -126.135298 
L 250.810925 -128.689936 
L 250.815629 -131.244573 
L 250.821535 -133.79921 
L 250.828488 -136.353848 
L 250.836235 -138.908485 
L 250.844444 -141.463122 
L 250.85274 -144.017759 
L 250.860731 -146.572397 
L 250.868046 -149.127034 
L 250.874362 -151.681671 
L 250.879436 -154.236309 
L 250.883123 -156.790946 
L 250.885388 -159.345583 
L 250.886314 -161.90022 
L 250.88609 -164.454858 
L 250.885004 -167.009495 
L 250.88342 -169.564132 
L 250.881753 -172.11877 
L 250.880433 -174.673407 
L 250.879885 -177.228044 
L 250.880485 -179.782681 
L 250.88254 -182.337319 
L 250.886262 -184.891956 
L 250.891743 -187.446593 
L 250.898952 -190.00123 
L 250.907719 -192.555868 
L 250.917746 -195.110505 
L 250.928607 -197.665142 
L 250.939767 -200.21978 
L 250.950599 -202.774417 
L 250.9604 -205.329054 
L 250.968421 -207.883691 
L 250.973879 -210.438329 
L 250.975982 -212.992966 
L 250.973936 -215.547603 
L 250.966958 -218.102241 
L 250.954274 -220.656878 
L 250.935114 -223.211515 
L 250.908699 -225.766152 
L 250.874227 -228.32079 
L 250.830846 -230.875427 
L 250.777637 -233.430064 
L 250.713589 -235.984702 
L 250.637588 -238.539339 
L 250.548405 -241.093976 
L 250.444706 -243.648613 
L 250.325073 -246.203251 
L 250.188046 -248.757888 
L 250.03219 -251.312525 
L 249.856188 -253.867163 
L 249.658948 -256.4218 
L 249.439747 -258.976437 
L 249.198385 -261.531074 
L 248.935347 -264.085712 
L 248.651975 -266.640349 
L 248.350624 -269.194986 
L 248.034788 -271.749624 
L 247.709191 -274.304261 
L 247.379812 -276.858898 
L 247.053847 -279.413535 
L 246.739573 -281.968173 
L 246.446134 -284.52281 
L 246.183234 -287.077447 
L 245.960742 -289.632084 
L 245.788247 -292.186722 
L 245.674566 -294.741359 
L 245.627251 -297.295996 
L 245.65212 -299.850634 
L 245.752865 -302.405271 
L 245.930753 -304.959908 
L 246.18446 -307.514545 
L 263.211567 -307.514545 
L 263.211567 -307.514545 
L 263.465274 -304.959908 
L 263.643162 -302.405271 
L 263.743907 -299.850634 
L 263.768776 -297.295996 
L 263.721461 -294.741359 
L 263.60778 -292.186722 
L 263.435285 -289.632084 
L 263.212793 -287.077447 
L 262.949892 -284.52281 
L 262.656454 -281.968173 
L 262.34218 -279.413535 
L 262.016214 -276.858898 
L 261.686836 -274.304261 
L 261.361238 -271.749624 
L 261.045402 -269.194986 
L 260.744051 -266.640349 
L 260.46068 -264.085712 
L 260.197642 -261.531074 
L 259.956279 -258.976437 
L 259.737079 -256.4218 
L 259.539839 -253.867163 
L 259.363836 -251.312525 
L 259.207981 -248.757888 
L 259.070954 -246.203251 
L 258.95132 -243.648613 
L 258.847621 -241.093976 
L 258.758438 -238.539339 
L 258.682437 -235.984702 
L 258.61839 -233.430064 
L 258.565181 -230.875427 
L 258.5218 -228.32079 
L 258.487327 -225.766152 
L 258.460913 -223.211515 
L 258.441753 -220.656878 
L 258.429069 -218.102241 
L 258.422091 -215.547603 
L 258.420045 -212.992966 
L 258.422147 -210.438329 
L 258.427606 -207.883691 
L 258.435626 -205.329054 
L 258.445428 -202.774417 
L 258.456259 -200.21978 
L 258.46742 -197.665142 
L 258.478281 -195.110505 
L 258.488308 -192.555868 
L 258.497075 -190.00123 
L 258.504283 -187.446593 
L 258.509765 -184.891956 
L 258.513486 -182.337319 
L 258.515542 -179.782681 
L 258.516142 -177.228044 
L 258.515593 -174.673407 
L 258.514274 -172.11877 
L 258.512606 -169.564132 
L 258.511023 -167.009495 
L 258.509937 -164.454858 
L 258.509713 -161.90022 
L 258.510638 -159.345583 
L 258.512904 -156.790946 
L 258.51659 -154.236309 
L 258.521665 -151.681671 
L 258.527981 -149.127034 
L 258.535295 -146.572397 
L 258.543287 -144.017759 
L 258.551583 -141.463122 
L 258.559792 -138.908485 
L 258.567538 -136.353848 
L 258.574491 -133.79921 
L 258.580397 -131.244573 
L 258.585101 -128.689936 
L 258.58856 -126.135298 
L 258.590846 -123.580661 
L 258.592141 -121.026024 
L 258.592715 -118.471387 
L 258.5929 -115.916749 
L 258.593047 -113.362112 
L 258.593488 -110.807475 
L 258.594477 -108.252837 
L 258.596151 -105.6982 
L 258.598474 -103.143563 
L 258.6012 -100.588926 
L 258.60384 -98.034288 
L 258.605643 -95.479651 
L 258.605593 -92.925014 
L 258.602416 -90.370376 
L 258.594617 -87.815739 
L 258.580524 -85.261102 
L 258.558353 -82.706465 
L 258.526284 -80.151827 
L 258.482555 -77.59719 
L 258.425554 -75.042553 
L 258.353916 -72.487916 
L 258.266613 -69.933278 
L 258.163035 -67.378641 
L 258.043049 -64.824004 
L 257.907046 -62.269366 
L 257.755949 -59.714729 
L 257.591203 -57.160092 
L 257.414731 -54.605455 
z
" id="m27abaae505" style="stroke:#4c4c4c;stroke-width:1.5;"/>
    </defs>
    <g clip-path="url(#pb2d1fa48d8)">
     <use style="fill:#20dfdf;stroke:#4c4c4c;stroke-width:1.5;" x="0" xlink:href="#m27abaae505" y="345.6"/>
    </g>
   </g>
   <g id="PolyCollection_6">
    <defs>
     <path d="M 311.561854 -54.605455 
L 307.509746 -54.605455 
L 307.388351 -57.160092 
L 307.275511 -59.714729 
L 307.172613 -62.269366 
L 307.080802 -64.824004 
L 307.000951 -67.378641 
L 306.933656 -69.933278 
L 306.879228 -72.487916 
L 306.837705 -75.042553 
L 306.808862 -77.59719 
L 306.792235 -80.151827 
L 306.787142 -82.706465 
L 306.792707 -85.261102 
L 306.807893 -87.815739 
L 306.831526 -90.370376 
L 306.862322 -92.925014 
L 306.898921 -95.479651 
L 306.939912 -98.034288 
L 306.983869 -100.588926 
L 307.029372 -103.143563 
L 307.075047 -105.6982 
L 307.119591 -108.252837 
L 307.161801 -110.807475 
L 307.200603 -113.362112 
L 307.235072 -115.916749 
L 307.264451 -118.471387 
L 307.288171 -121.026024 
L 307.30585 -123.580661 
L 307.317308 -126.135298 
L 307.322554 -128.689936 
L 307.321787 -131.244573 
L 307.315379 -133.79921 
L 307.303859 -136.353848 
L 307.287892 -138.908485 
L 307.268255 -141.463122 
L 307.245807 -144.017759 
L 307.221462 -146.572397 
L 307.196152 -149.127034 
L 307.170794 -151.681671 
L 307.146255 -154.236309 
L 307.123319 -156.790946 
L 307.10265 -159.345583 
L 307.084764 -161.90022 
L 307.070006 -164.454858 
L 307.058528 -167.009495 
L 307.050285 -169.564132 
L 307.045029 -172.11877 
L 307.042322 -174.673407 
L 307.04156 -177.228044 
L 307.041997 -179.782681 
L 307.042788 -182.337319 
L 307.043035 -184.891956 
L 307.041833 -187.446593 
L 307.038324 -190.00123 
L 307.031742 -192.555868 
L 307.021452 -195.110505 
L 307.006987 -197.665142 
L 306.988068 -200.21978 
L 306.964607 -202.774417 
L 306.936708 -205.329054 
L 306.904639 -207.883691 
L 306.868805 -210.438329 
L 306.829695 -212.992966 
L 306.787831 -215.547603 
L 306.743707 -218.102241 
L 306.69772 -220.656878 
L 306.650109 -223.211515 
L 306.600891 -225.766152 
L 306.549814 -228.32079 
L 306.496309 -230.875427 
L 306.439465 -233.430064 
L 306.378017 -235.984702 
L 306.310355 -238.539339 
L 306.23455 -241.093976 
L 306.148407 -243.648613 
L 306.049534 -246.203251 
L 305.935442 -248.757888 
L 305.803659 -251.312525 
L 305.651868 -253.867163 
L 305.478061 -256.4218 
L 305.280704 -258.976437 
L 305.05891 -261.531074 
L 304.812607 -264.085712 
L 304.542694 -266.640349 
L 304.251179 -269.194986 
L 303.941269 -271.749624 
L 303.617429 -274.304261 
L 303.28537 -276.858898 
L 302.951975 -279.413535 
L 302.625149 -281.968173 
L 302.313595 -284.52281 
L 302.026521 -287.077447 
L 301.773285 -289.632084 
L 301.562991 -292.186722 
L 301.404074 -294.741359 
L 301.30387 -297.295996 
L 301.268234 -299.850634 
L 301.301196 -302.405271 
L 301.404717 -304.959908 
L 301.578537 -307.514545 
L 317.493063 -307.514545 
L 317.493063 -307.514545 
L 317.666883 -304.959908 
L 317.770404 -302.405271 
L 317.803366 -299.850634 
L 317.76773 -297.295996 
L 317.667526 -294.741359 
L 317.508609 -292.186722 
L 317.298315 -289.632084 
L 317.045079 -287.077447 
L 316.758005 -284.52281 
L 316.446451 -281.968173 
L 316.119625 -279.413535 
L 315.78623 -276.858898 
L 315.454171 -274.304261 
L 315.130331 -271.749624 
L 314.820421 -269.194986 
L 314.528906 -266.640349 
L 314.258993 -264.085712 
L 314.01269 -261.531074 
L 313.790896 -258.976437 
L 313.593539 -256.4218 
L 313.419732 -253.867163 
L 313.267941 -251.312525 
L 313.136158 -248.757888 
L 313.022066 -246.203251 
L 312.923193 -243.648613 
L 312.83705 -241.093976 
L 312.761245 -238.539339 
L 312.693583 -235.984702 
L 312.632135 -233.430064 
L 312.575291 -230.875427 
L 312.521786 -228.32079 
L 312.470709 -225.766152 
L 312.421491 -223.211515 
L 312.37388 -220.656878 
L 312.327893 -218.102241 
L 312.283769 -215.547603 
L 312.241905 -212.992966 
L 312.202795 -210.438329 
L 312.166961 -207.883691 
L 312.134892 -205.329054 
L 312.106993 -202.774417 
L 312.083532 -200.21978 
L 312.064613 -197.665142 
L 312.050148 -195.110505 
L 312.039858 -192.555868 
L 312.033276 -190.00123 
L 312.029767 -187.446593 
L 312.028565 -184.891956 
L 312.028812 -182.337319 
L 312.029603 -179.782681 
L 312.03004 -177.228044 
L 312.029278 -174.673407 
L 312.026571 -172.11877 
L 312.021315 -169.564132 
L 312.013072 -167.009495 
L 312.001594 -164.454858 
L 311.986836 -161.90022 
L 311.96895 -159.345583 
L 311.948281 -156.790946 
L 311.925345 -154.236309 
L 311.900806 -151.681671 
L 311.875448 -149.127034 
L 311.850138 -146.572397 
L 311.825793 -144.017759 
L 311.803345 -141.463122 
L 311.783708 -138.908485 
L 311.767741 -136.353848 
L 311.756221 -133.79921 
L 311.749813 -131.244573 
L 311.749046 -128.689936 
L 311.754292 -126.135298 
L 311.76575 -123.580661 
L 311.783429 -121.026024 
L 311.807149 -118.471387 
L 311.836528 -115.916749 
L 311.870997 -113.362112 
L 311.909799 -110.807475 
L 311.952009 -108.252837 
L 311.996553 -105.6982 
L 312.042228 -103.143563 
L 312.087731 -100.588926 
L 312.131688 -98.034288 
L 312.172679 -95.479651 
L 312.209278 -92.925014 
L 312.240074 -90.370376 
L 312.263707 -87.815739 
L 312.278893 -85.261102 
L 312.284458 -82.706465 
L 312.279365 -80.151827 
L 312.262738 -77.59719 
L 312.233895 -75.042553 
L 312.192372 -72.487916 
L 312.137944 -69.933278 
L 312.070649 -67.378641 
L 311.990798 -64.824004 
L 311.898987 -62.269366 
L 311.796089 -59.714729 
L 311.683249 -57.160092 
L 311.561854 -54.605455 
z
" id="m5c7ea5c2cb" style="stroke:#4c4c4c;stroke-width:1.5;"/>
    </defs>
    <g clip-path="url(#pb2d1fa48d8)">
     <use style="fill:#2020df;stroke:#4c4c4c;stroke-width:1.5;" x="0" xlink:href="#m5c7ea5c2cb" y="345.6"/>
    </g>
   </g>
   <g id="PolyCollection_7">
    <defs>
     <path d="M 331.383413 -54.605455 
L 327.570214 -54.605455 
L 327.453014 -57.160092 
L 327.348624 -59.714729 
L 327.258395 -62.269366 
L 327.183099 -64.824004 
L 327.122925 -67.378641 
L 327.077508 -69.933278 
L 327.045994 -72.487916 
L 327.027121 -75.042553 
L 327.019323 -77.59719 
L 327.020837 -80.151827 
L 327.029811 -82.706465 
L 327.044406 -85.261102 
L 327.062878 -87.815739 
L 327.083656 -90.370376 
L 327.105389 -92.925014 
L 327.126987 -95.479651 
L 327.147627 -98.034288 
L 327.166762 -100.588926 
L 327.184094 -103.143563 
L 327.199549 -105.6982 
L 327.213232 -108.252837 
L 327.225382 -110.807475 
L 327.236316 -113.362112 
L 327.246377 -115.916749 
L 327.255885 -118.471387 
L 327.265089 -121.026024 
L 327.274137 -123.580661 
L 327.283049 -126.135298 
L 327.291704 -128.689936 
L 327.299844 -131.244573 
L 327.307087 -133.79921 
L 327.312953 -136.353848 
L 327.316901 -138.908485 
L 327.318371 -141.463122 
L 327.316832 -144.017759 
L 327.311827 -146.572397 
L 327.303019 -149.127034 
L 327.290228 -151.681671 
L 327.273453 -154.236309 
L 327.252889 -156.790946 
L 327.228928 -159.345583 
L 327.202142 -161.90022 
L 327.173259 -164.454858 
L 327.143123 -167.009495 
L 327.112648 -169.564132 
L 327.082768 -172.11877 
L 327.054381 -174.673407 
L 327.028302 -177.228044 
L 327.005211 -179.782681 
L 326.985616 -182.337319 
L 326.969827 -184.891956 
L 326.957927 -187.446593 
L 326.949776 -190.00123 
L 326.945007 -192.555868 
L 326.943048 -195.110505 
L 326.943145 -197.665142 
L 326.944406 -200.21978 
L 326.945841 -202.774417 
L 326.946418 -205.329054 
L 326.945116 -207.883691 
L 326.940975 -210.438329 
L 326.933146 -212.992966 
L 326.920928 -215.547603 
L 326.903787 -218.102241 
L 326.881368 -220.656878 
L 326.853474 -223.211515 
L 326.820035 -225.766152 
L 326.781052 -228.32079 
L 326.736516 -230.875427 
L 326.686328 -233.430064 
L 326.630192 -235.984702 
L 326.567512 -238.539339 
L 326.497296 -241.093976 
L 326.418068 -243.648613 
L 326.327799 -246.203251 
L 326.22388 -248.757888 
L 326.103128 -251.312525 
L 325.961844 -253.867163 
L 325.795946 -256.4218 
L 325.601154 -258.976437 
L 325.373262 -261.531074 
L 325.108478 -264.085712 
L 324.80383 -266.640349 
L 324.457618 -269.194986 
L 324.069884 -271.749624 
L 323.642867 -274.304261 
L 323.181388 -276.858898 
L 322.693122 -279.413535 
L 322.188693 -281.968173 
L 321.681562 -284.52281 
L 321.187662 -287.077447 
L 320.724781 -289.632084 
L 320.311701 -292.186722 
L 319.967147 -294.741359 
L 319.708611 -297.295996 
L 319.551158 -299.850634 
L 319.506307 -302.405271 
L 319.581115 -304.959908 
L 319.777547 -307.514545 
L 339.17608 -307.514545 
L 339.17608 -307.514545 
L 339.372512 -304.959908 
L 339.44732 -302.405271 
L 339.402469 -299.850634 
L 339.245016 -297.295996 
L 338.98648 -294.741359 
L 338.641926 -292.186722 
L 338.228845 -289.632084 
L 337.765964 -287.077447 
L 337.272064 -284.52281 
L 336.764933 -281.968173 
L 336.260505 -279.413535 
L 335.772239 -276.858898 
L 335.31076 -274.304261 
L 334.883743 -271.749624 
L 334.496009 -269.194986 
L 334.149797 -266.640349 
L 333.845149 -264.085712 
L 333.580365 -261.531074 
L 333.352473 -258.976437 
L 333.15768 -256.4218 
L 332.991782 -253.867163 
L 332.850499 -251.312525 
L 332.729746 -248.757888 
L 332.625828 -246.203251 
L 332.535559 -243.648613 
L 332.45633 -241.093976 
L 332.386115 -238.539339 
L 332.323435 -235.984702 
L 332.267298 -233.430064 
L 332.21711 -230.875427 
L 332.172575 -228.32079 
L 332.133591 -225.766152 
L 332.100153 -223.211515 
L 332.072259 -220.656878 
L 332.04984 -218.102241 
L 332.032699 -215.547603 
L 332.02048 -212.992966 
L 332.012652 -210.438329 
L 332.008511 -207.883691 
L 332.007208 -205.329054 
L 332.007786 -202.774417 
L 332.009221 -200.21978 
L 332.010482 -197.665142 
L 332.010579 -195.110505 
L 332.00862 -192.555868 
L 332.003851 -190.00123 
L 331.9957 -187.446593 
L 331.9838 -184.891956 
L 331.96801 -182.337319 
L 331.948416 -179.782681 
L 331.925325 -177.228044 
L 331.899245 -174.673407 
L 331.870859 -172.11877 
L 331.840978 -169.564132 
L 331.810503 -167.009495 
L 331.780367 -164.454858 
L 331.751484 -161.90022 
L 331.724699 -159.345583 
L 331.700738 -156.790946 
L 331.680174 -154.236309 
L 331.663399 -151.681671 
L 331.650607 -149.127034 
L 331.6418 -146.572397 
L 331.636795 -144.017759 
L 331.635255 -141.463122 
L 331.636725 -138.908485 
L 331.640673 -136.353848 
L 331.64654 -133.79921 
L 331.653783 -131.244573 
L 331.661923 -128.689936 
L 331.670578 -126.135298 
L 331.679489 -123.580661 
L 331.688538 -121.026024 
L 331.697742 -118.471387 
L 331.707249 -115.916749 
L 331.71731 -113.362112 
L 331.728244 -110.807475 
L 331.740395 -108.252837 
L 331.754078 -105.6982 
L 331.769533 -103.143563 
L 331.786865 -100.588926 
L 331.805999 -98.034288 
L 331.82664 -95.479651 
L 331.848237 -92.925014 
L 331.869971 -90.370376 
L 331.890749 -87.815739 
L 331.909221 -85.261102 
L 331.923816 -82.706465 
L 331.93279 -80.151827 
L 331.934304 -77.59719 
L 331.926505 -75.042553 
L 331.907632 -72.487916 
L 331.876118 -69.933278 
L 331.830702 -67.378641 
L 331.770528 -64.824004 
L 331.695232 -62.269366 
L 331.605003 -59.714729 
L 331.500613 -57.160092 
L 331.383413 -54.605455 
z
" id="m5783123b1e" style="stroke:#4c4c4c;stroke-width:1.5;"/>
    </defs>
    <g clip-path="url(#pb2d1fa48d8)">
     <use style="fill:#20dfdf;stroke:#4c4c4c;stroke-width:1.5;" x="0" xlink:href="#m5783123b1e" y="345.6"/>
    </g>
   </g>
   <g id="patch_3">
    <path clip-path="url(#pb2d1fa48d8)" d="M 85.1994 325.482149 
L 85.1994 325.482149 
L 85.1994 325.482149 
L 85.1994 325.482149 
z
" style="fill:#df7f20;stroke:#4c4c4c;stroke-linejoin:miter;stroke-width:0.75;"/>
   </g>
   <g id="patch_4">
    <path clip-path="url(#pb2d1fa48d8)" d="M 85.1994 325.482149 
L 85.1994 325.482149 
L 85.1994 325.482149 
L 85.1994 325.482149 
z
" style="fill:#2020df;stroke:#4c4c4c;stroke-linejoin:miter;stroke-width:0.75;"/>
   </g>
   <g id="patch_5">
    <path clip-path="url(#pb2d1fa48d8)" d="M 85.1994 325.482149 
L 85.1994 325.482149 
L 85.1994 325.482149 
L 85.1994 325.482149 
z
" style="fill:#20dfdf;stroke:#4c4c4c;stroke-linejoin:miter;stroke-width:0.75;"/>
   </g>
   <g id="matplotlib.axis_1">
    <g id="xtick_1">
     <g id="line2d_1">
      <defs>
       <path d="M 0 0 
L 0 3.5 
" id="md5b3a55cef" style="stroke:#000000;stroke-width:0.8;"/>
      </defs>
      <g>
       <use style="stroke:#000000;stroke-width:0.8;" x="85.1994" xlink:href="#md5b3a55cef" y="303.64"/>
      </g>
     </g>
     <g id="text_1">
      <!-- big -->
      <g transform="translate(77.4619 318.238437)scale(0.1 -0.1)">
       <defs>
        <path d="M 3116 1747 
Q 3116 2381 2855 2742 
Q 2594 3103 2138 3103 
Q 1681 3103 1420 2742 
Q 1159 2381 1159 1747 
Q 1159 1113 1420 752 
Q 1681 391 2138 391 
Q 2594 391 2855 752 
Q 3116 1113 3116 1747 
z
M 1159 2969 
Q 1341 3281 1617 3432 
Q 1894 3584 2278 3584 
Q 2916 3584 3314 3078 
Q 3713 2572 3713 1747 
Q 3713 922 3314 415 
Q 2916 -91 2278 -91 
Q 1894 -91 1617 61 
Q 1341 213 1159 525 
L 1159 0 
L 581 0 
L 581 4863 
L 1159 4863 
L 1159 2969 
z
" id="DejaVuSans-62" transform="scale(0.015625)"/>
        <path d="M 603 3500 
L 1178 3500 
L 1178 0 
L 603 0 
L 603 3500 
z
M 603 4863 
L 1178 4863 
L 1178 4134 
L 603 4134 
L 603 4863 
z
" id="DejaVuSans-69" transform="scale(0.015625)"/>
        <path d="M 2906 1791 
Q 2906 2416 2648 2759 
Q 2391 3103 1925 3103 
Q 1463 3103 1205 2759 
Q 947 2416 947 1791 
Q 947 1169 1205 825 
Q 1463 481 1925 481 
Q 2391 481 2648 825 
Q 2906 1169 2906 1791 
z
M 3481 434 
Q 3481 -459 3084 -895 
Q 2688 -1331 1869 -1331 
Q 1566 -1331 1297 -1286 
Q 1028 -1241 775 -1147 
L 775 -588 
Q 1028 -725 1275 -790 
Q 1522 -856 1778 -856 
Q 2344 -856 2625 -561 
Q 2906 -266 2906 331 
L 2906 616 
Q 2728 306 2450 153 
Q 2172 0 1784 0 
Q 1141 0 747 490 
Q 353 981 353 1791 
Q 353 2603 747 3093 
Q 1141 3584 1784 3584 
Q 2172 3584 2450 3431 
Q 2728 3278 2906 2969 
L 2906 3500 
L 3481 3500 
L 3481 434 
z
" id="DejaVuSans-67" transform="scale(0.015625)"/>
       </defs>
       <use xlink:href="#DejaVuSans-62"/>
       <use x="63.476562" xlink:href="#DejaVuSans-69"/>
       <use x="91.259766" xlink:href="#DejaVuSans-67"/>
      </g>
     </g>
    </g>
    <g id="xtick_2">
     <g id="line2d_2">
      <g>
       <use style="stroke:#000000;stroke-width:0.8;" x="159.9782" xlink:href="#md5b3a55cef" y="303.64"/>
      </g>
     </g>
     <g id="text_2">
      <!-- 2 -->
      <g transform="translate(156.79695 318.238437)scale(0.1 -0.1)">
       <defs>
        <path d="M 1228 531 
L 3431 531 
L 3431 0 
L 469 0 
L 469 531 
Q 828 903 1448 1529 
Q 2069 2156 2228 2338 
Q 2531 2678 2651 2914 
Q 2772 3150 2772 3378 
Q 2772 3750 2511 3984 
Q 2250 4219 1831 4219 
Q 1534 4219 1204 4116 
Q 875 4013 500 3803 
L 500 4441 
Q 881 4594 1212 4672 
Q 1544 4750 1819 4750 
Q 2544 4750 2975 4387 
Q 3406 4025 3406 3419 
Q 3406 3131 3298 2873 
Q 3191 2616 2906 2266 
Q 2828 2175 2409 1742 
Q 1991 1309 1228 531 
z
" id="DejaVuSans-32" transform="scale(0.015625)"/>
       </defs>
       <use xlink:href="#DejaVuSans-32"/>
      </g>
     </g>
    </g>
    <g id="xtick_3">
     <g id="line2d_3">
      <g>
       <use style="stroke:#000000;stroke-width:0.8;" x="234.757" xlink:href="#md5b3a55cef" y="303.64"/>
      </g>
     </g>
     <g id="text_3">
      <!-- 3 -->
      <g transform="translate(231.57575 318.238437)scale(0.1 -0.1)">
       <defs>
        <path d="M 2597 2516 
Q 3050 2419 3304 2112 
Q 3559 1806 3559 1356 
Q 3559 666 3084 287 
Q 2609 -91 1734 -91 
Q 1441 -91 1130 -33 
Q 819 25 488 141 
L 488 750 
Q 750 597 1062 519 
Q 1375 441 1716 441 
Q 2309 441 2620 675 
Q 2931 909 2931 1356 
Q 2931 1769 2642 2001 
Q 2353 2234 1838 2234 
L 1294 2234 
L 1294 2753 
L 1863 2753 
Q 2328 2753 2575 2939 
Q 2822 3125 2822 3475 
Q 2822 3834 2567 4026 
Q 2313 4219 1838 4219 
Q 1578 4219 1281 4162 
Q 984 4106 628 3988 
L 628 4550 
Q 988 4650 1302 4700 
Q 1616 4750 1894 4750 
Q 2613 4750 3031 4423 
Q 3450 4097 3450 3541 
Q 3450 3153 3228 2886 
Q 3006 2619 2597 2516 
z
" id="DejaVuSans-33" transform="scale(0.015625)"/>
       </defs>
       <use xlink:href="#DejaVuSans-33"/>
      </g>
     </g>
    </g>
    <g id="xtick_4">
     <g id="line2d_4">
      <g>
       <use style="stroke:#000000;stroke-width:0.8;" x="309.5358" xlink:href="#md5b3a55cef" y="303.64"/>
      </g>
     </g>
     <g id="text_4">
      <!-- 4 -->
      <g transform="translate(306.35455 318.238437)scale(0.1 -0.1)">
       <defs>
        <path d="M 2419 4116 
L 825 1625 
L 2419 1625 
L 2419 4116 
z
M 2253 4666 
L 3047 4666 
L 3047 1625 
L 3713 1625 
L 3713 1100 
L 3047 1100 
L 3047 0 
L 2419 0 
L 2419 1100 
L 313 1100 
L 313 1709 
L 2253 4666 
z
" id="DejaVuSans-34" transform="scale(0.015625)"/>
       </defs>
       <use xlink:href="#DejaVuSans-34"/>
      </g>
     </g>
    </g>
    <g id="text_5">
     <!-- Number of splits -->
     <g transform="translate(156.162131 331.916562)scale(0.1 -0.1)">
      <defs>
       <path d="M 628 4666 
L 1478 4666 
L 3547 763 
L 3547 4666 
L 4159 4666 
L 4159 0 
L 3309 0 
L 1241 3903 
L 1241 0 
L 628 0 
L 628 4666 
z
" id="DejaVuSans-4e" transform="scale(0.015625)"/>
       <path d="M 544 1381 
L 544 3500 
L 1119 3500 
L 1119 1403 
Q 1119 906 1312 657 
Q 1506 409 1894 409 
Q 2359 409 2629 706 
Q 2900 1003 2900 1516 
L 2900 3500 
L 3475 3500 
L 3475 0 
L 2900 0 
L 2900 538 
Q 2691 219 2414 64 
Q 2138 -91 1772 -91 
Q 1169 -91 856 284 
Q 544 659 544 1381 
z
M 1991 3584 
L 1991 3584 
z
" id="DejaVuSans-75" transform="scale(0.015625)"/>
       <path d="M 3328 2828 
Q 3544 3216 3844 3400 
Q 4144 3584 4550 3584 
Q 5097 3584 5394 3201 
Q 5691 2819 5691 2113 
L 5691 0 
L 5113 0 
L 5113 2094 
Q 5113 2597 4934 2840 
Q 4756 3084 4391 3084 
Q 3944 3084 3684 2787 
Q 3425 2491 3425 1978 
L 3425 0 
L 2847 0 
L 2847 2094 
Q 2847 2600 2669 2842 
Q 2491 3084 2119 3084 
Q 1678 3084 1418 2786 
Q 1159 2488 1159 1978 
L 1159 0 
L 581 0 
L 581 3500 
L 1159 3500 
L 1159 2956 
Q 1356 3278 1631 3431 
Q 1906 3584 2284 3584 
Q 2666 3584 2933 3390 
Q 3200 3197 3328 2828 
z
" id="DejaVuSans-6d" transform="scale(0.015625)"/>
       <path d="M 3597 1894 
L 3597 1613 
L 953 1613 
Q 991 1019 1311 708 
Q 1631 397 2203 397 
Q 2534 397 2845 478 
Q 3156 559 3463 722 
L 3463 178 
Q 3153 47 2828 -22 
Q 2503 -91 2169 -91 
Q 1331 -91 842 396 
Q 353 884 353 1716 
Q 353 2575 817 3079 
Q 1281 3584 2069 3584 
Q 2775 3584 3186 3129 
Q 3597 2675 3597 1894 
z
M 3022 2063 
Q 3016 2534 2758 2815 
Q 2500 3097 2075 3097 
Q 1594 3097 1305 2825 
Q 1016 2553 972 2059 
L 3022 2063 
z
" id="DejaVuSans-65" transform="scale(0.015625)"/>
       <path d="M 2631 2963 
Q 2534 3019 2420 3045 
Q 2306 3072 2169 3072 
Q 1681 3072 1420 2755 
Q 1159 2438 1159 1844 
L 1159 0 
L 581 0 
L 581 3500 
L 1159 3500 
L 1159 2956 
Q 1341 3275 1631 3429 
Q 1922 3584 2338 3584 
Q 2397 3584 2469 3576 
Q 2541 3569 2628 3553 
L 2631 2963 
z
" id="DejaVuSans-72" transform="scale(0.015625)"/>
       <path id="DejaVuSans-20" transform="scale(0.015625)"/>
       <path d="M 1959 3097 
Q 1497 3097 1228 2736 
Q 959 2375 959 1747 
Q 959 1119 1226 758 
Q 1494 397 1959 397 
Q 2419 397 2687 759 
Q 2956 1122 2956 1747 
Q 2956 2369 2687 2733 
Q 2419 3097 1959 3097 
z
M 1959 3584 
Q 2709 3584 3137 3096 
Q 3566 2609 3566 1747 
Q 3566 888 3137 398 
Q 2709 -91 1959 -91 
Q 1206 -91 779 398 
Q 353 888 353 1747 
Q 353 2609 779 3096 
Q 1206 3584 1959 3584 
z
" id="DejaVuSans-6f" transform="scale(0.015625)"/>
       <path d="M 2375 4863 
L 2375 4384 
L 1825 4384 
Q 1516 4384 1395 4259 
Q 1275 4134 1275 3809 
L 1275 3500 
L 2222 3500 
L 2222 3053 
L 1275 3053 
L 1275 0 
L 697 0 
L 697 3053 
L 147 3053 
L 147 3500 
L 697 3500 
L 697 3744 
Q 697 4328 969 4595 
Q 1241 4863 1831 4863 
L 2375 4863 
z
" id="DejaVuSans-66" transform="scale(0.015625)"/>
       <path d="M 2834 3397 
L 2834 2853 
Q 2591 2978 2328 3040 
Q 2066 3103 1784 3103 
Q 1356 3103 1142 2972 
Q 928 2841 928 2578 
Q 928 2378 1081 2264 
Q 1234 2150 1697 2047 
L 1894 2003 
Q 2506 1872 2764 1633 
Q 3022 1394 3022 966 
Q 3022 478 2636 193 
Q 2250 -91 1575 -91 
Q 1294 -91 989 -36 
Q 684 19 347 128 
L 347 722 
Q 666 556 975 473 
Q 1284 391 1588 391 
Q 1994 391 2212 530 
Q 2431 669 2431 922 
Q 2431 1156 2273 1281 
Q 2116 1406 1581 1522 
L 1381 1569 
Q 847 1681 609 1914 
Q 372 2147 372 2553 
Q 372 3047 722 3315 
Q 1072 3584 1716 3584 
Q 2034 3584 2315 3537 
Q 2597 3491 2834 3397 
z
" id="DejaVuSans-73" transform="scale(0.015625)"/>
       <path d="M 1159 525 
L 1159 -1331 
L 581 -1331 
L 581 3500 
L 1159 3500 
L 1159 2969 
Q 1341 3281 1617 3432 
Q 1894 3584 2278 3584 
Q 2916 3584 3314 3078 
Q 3713 2572 3713 1747 
Q 3713 922 3314 415 
Q 2916 -91 2278 -91 
Q 1894 -91 1617 61 
Q 1341 213 1159 525 
z
M 3116 1747 
Q 3116 2381 2855 2742 
Q 2594 3103 2138 3103 
Q 1681 3103 1420 2742 
Q 1159 2381 1159 1747 
Q 1159 1113 1420 752 
Q 1681 391 2138 391 
Q 2594 391 2855 752 
Q 3116 1113 3116 1747 
z
" id="DejaVuSans-70" transform="scale(0.015625)"/>
       <path d="M 603 4863 
L 1178 4863 
L 1178 0 
L 603 0 
L 603 4863 
z
" id="DejaVuSans-6c" transform="scale(0.015625)"/>
       <path d="M 1172 4494 
L 1172 3500 
L 2356 3500 
L 2356 3053 
L 1172 3053 
L 1172 1153 
Q 1172 725 1289 603 
Q 1406 481 1766 481 
L 2356 481 
L 2356 0 
L 1766 0 
Q 1100 0 847 248 
Q 594 497 594 1153 
L 594 3053 
L 172 3053 
L 172 3500 
L 594 3500 
L 594 4494 
L 1172 4494 
z
" id="DejaVuSans-74" transform="scale(0.015625)"/>
      </defs>
      <use xlink:href="#DejaVuSans-4e"/>
      <use x="74.804688" xlink:href="#DejaVuSans-75"/>
      <use x="138.183594" xlink:href="#DejaVuSans-6d"/>
      <use x="235.595703" xlink:href="#DejaVuSans-62"/>
      <use x="299.072266" xlink:href="#DejaVuSans-65"/>
      <use x="360.595703" xlink:href="#DejaVuSans-72"/>
      <use x="401.708984" xlink:href="#DejaVuSans-20"/>
      <use x="433.496094" xlink:href="#DejaVuSans-6f"/>
      <use x="494.677734" xlink:href="#DejaVuSans-66"/>
      <use x="529.882812" xlink:href="#DejaVuSans-20"/>
      <use x="561.669922" xlink:href="#DejaVuSans-73"/>
      <use x="613.769531" xlink:href="#DejaVuSans-70"/>
      <use x="677.246094" xlink:href="#DejaVuSans-6c"/>
      <use x="705.029297" xlink:href="#DejaVuSans-69"/>
      <use x="732.8125" xlink:href="#DejaVuSans-74"/>
      <use x="772.021484" xlink:href="#DejaVuSans-73"/>
     </g>
    </g>
   </g>
   <g id="matplotlib.axis_2">
    <g id="ytick_1">
     <g id="line2d_5">
      <defs>
       <path d="M 0 0 
L -3.5 0 
" id="m5a166754ba" style="stroke:#000000;stroke-width:0.8;"/>
      </defs>
      <g>
       <use style="stroke:#000000;stroke-width:0.8;" x="47.81" xlink:href="#m5a166754ba" y="268.00281"/>
      </g>
     </g>
     <g id="text_6">
      <!-- 0.2 -->
      <g transform="translate(24.906875 271.802029)scale(0.1 -0.1)">
       <defs>
        <path d="M 2034 4250 
Q 1547 4250 1301 3770 
Q 1056 3291 1056 2328 
Q 1056 1369 1301 889 
Q 1547 409 2034 409 
Q 2525 409 2770 889 
Q 3016 1369 3016 2328 
Q 3016 3291 2770 3770 
Q 2525 4250 2034 4250 
z
M 2034 4750 
Q 2819 4750 3233 4129 
Q 3647 3509 3647 2328 
Q 3647 1150 3233 529 
Q 2819 -91 2034 -91 
Q 1250 -91 836 529 
Q 422 1150 422 2328 
Q 422 3509 836 4129 
Q 1250 4750 2034 4750 
z
" id="DejaVuSans-30" transform="scale(0.015625)"/>
        <path d="M 684 794 
L 1344 794 
L 1344 0 
L 684 0 
L 684 794 
z
" id="DejaVuSans-2e" transform="scale(0.015625)"/>
       </defs>
       <use xlink:href="#DejaVuSans-30"/>
       <use x="63.623047" xlink:href="#DejaVuSans-2e"/>
       <use x="95.410156" xlink:href="#DejaVuSans-32"/>
      </g>
     </g>
    </g>
    <g id="ytick_2">
     <g id="line2d_6">
      <g>
       <use style="stroke:#000000;stroke-width:0.8;" x="47.81" xlink:href="#m5a166754ba" y="210.523471"/>
      </g>
     </g>
     <g id="text_7">
      <!-- 0.4 -->
      <g transform="translate(24.906875 214.32269)scale(0.1 -0.1)">
       <use xlink:href="#DejaVuSans-30"/>
       <use x="63.623047" xlink:href="#DejaVuSans-2e"/>
       <use x="95.410156" xlink:href="#DejaVuSans-34"/>
      </g>
     </g>
    </g>
    <g id="ytick_3">
     <g id="line2d_7">
      <g>
       <use style="stroke:#000000;stroke-width:0.8;" x="47.81" xlink:href="#m5a166754ba" y="153.044132"/>
      </g>
     </g>
     <g id="text_8">
      <!-- 0.6 -->
      <g transform="translate(24.906875 156.843351)scale(0.1 -0.1)">
       <defs>
        <path d="M 2113 2584 
Q 1688 2584 1439 2293 
Q 1191 2003 1191 1497 
Q 1191 994 1439 701 
Q 1688 409 2113 409 
Q 2538 409 2786 701 
Q 3034 994 3034 1497 
Q 3034 2003 2786 2293 
Q 2538 2584 2113 2584 
z
M 3366 4563 
L 3366 3988 
Q 3128 4100 2886 4159 
Q 2644 4219 2406 4219 
Q 1781 4219 1451 3797 
Q 1122 3375 1075 2522 
Q 1259 2794 1537 2939 
Q 1816 3084 2150 3084 
Q 2853 3084 3261 2657 
Q 3669 2231 3669 1497 
Q 3669 778 3244 343 
Q 2819 -91 2113 -91 
Q 1303 -91 875 529 
Q 447 1150 447 2328 
Q 447 3434 972 4092 
Q 1497 4750 2381 4750 
Q 2619 4750 2861 4703 
Q 3103 4656 3366 4563 
z
" id="DejaVuSans-36" transform="scale(0.015625)"/>
       </defs>
       <use xlink:href="#DejaVuSans-30"/>
       <use x="63.623047" xlink:href="#DejaVuSans-2e"/>
       <use x="95.410156" xlink:href="#DejaVuSans-36"/>
      </g>
     </g>
    </g>
    <g id="ytick_4">
     <g id="line2d_8">
      <g>
       <use style="stroke:#000000;stroke-width:0.8;" x="47.81" xlink:href="#m5a166754ba" y="95.564793"/>
      </g>
     </g>
     <g id="text_9">
      <!-- 0.8 -->
      <g transform="translate(24.906875 99.364012)scale(0.1 -0.1)">
       <defs>
        <path d="M 2034 2216 
Q 1584 2216 1326 1975 
Q 1069 1734 1069 1313 
Q 1069 891 1326 650 
Q 1584 409 2034 409 
Q 2484 409 2743 651 
Q 3003 894 3003 1313 
Q 3003 1734 2745 1975 
Q 2488 2216 2034 2216 
z
M 1403 2484 
Q 997 2584 770 2862 
Q 544 3141 544 3541 
Q 544 4100 942 4425 
Q 1341 4750 2034 4750 
Q 2731 4750 3128 4425 
Q 3525 4100 3525 3541 
Q 3525 3141 3298 2862 
Q 3072 2584 2669 2484 
Q 3125 2378 3379 2068 
Q 3634 1759 3634 1313 
Q 3634 634 3220 271 
Q 2806 -91 2034 -91 
Q 1263 -91 848 271 
Q 434 634 434 1313 
Q 434 1759 690 2068 
Q 947 2378 1403 2484 
z
M 1172 3481 
Q 1172 3119 1398 2916 
Q 1625 2713 2034 2713 
Q 2441 2713 2670 2916 
Q 2900 3119 2900 3481 
Q 2900 3844 2670 4047 
Q 2441 4250 2034 4250 
Q 1625 4250 1398 4047 
Q 1172 3844 1172 3481 
z
" id="DejaVuSans-38" transform="scale(0.015625)"/>
       </defs>
       <use xlink:href="#DejaVuSans-30"/>
       <use x="63.623047" xlink:href="#DejaVuSans-2e"/>
       <use x="95.410156" xlink:href="#DejaVuSans-38"/>
      </g>
     </g>
    </g>
    <g id="ytick_5">
     <g id="line2d_9">
      <g>
       <use style="stroke:#000000;stroke-width:0.8;" x="47.81" xlink:href="#m5a166754ba" y="38.085455"/>
      </g>
     </g>
     <g id="text_10">
      <!-- 1.0 -->
      <g transform="translate(24.906875 41.884673)scale(0.1 -0.1)">
       <defs>
        <path d="M 794 531 
L 1825 531 
L 1825 4091 
L 703 3866 
L 703 4441 
L 1819 4666 
L 2450 4666 
L 2450 531 
L 3481 531 
L 3481 0 
L 794 0 
L 794 531 
z
" id="DejaVuSans-31" transform="scale(0.015625)"/>
       </defs>
       <use xlink:href="#DejaVuSans-31"/>
       <use x="63.623047" xlink:href="#DejaVuSans-2e"/>
       <use x="95.410156" xlink:href="#DejaVuSans-30"/>
      </g>
     </g>
    </g>
    <g id="text_11">
     <!-- Credibility Index -->
     <g transform="translate(18.827188 205.230625)rotate(-90)scale(0.1 -0.1)">
      <defs>
       <path d="M 4122 4306 
L 4122 3641 
Q 3803 3938 3442 4084 
Q 3081 4231 2675 4231 
Q 1875 4231 1450 3742 
Q 1025 3253 1025 2328 
Q 1025 1406 1450 917 
Q 1875 428 2675 428 
Q 3081 428 3442 575 
Q 3803 722 4122 1019 
L 4122 359 
Q 3791 134 3420 21 
Q 3050 -91 2638 -91 
Q 1578 -91 968 557 
Q 359 1206 359 2328 
Q 359 3453 968 4101 
Q 1578 4750 2638 4750 
Q 3056 4750 3426 4639 
Q 3797 4528 4122 4306 
z
" id="DejaVuSans-43" transform="scale(0.015625)"/>
       <path d="M 2906 2969 
L 2906 4863 
L 3481 4863 
L 3481 0 
L 2906 0 
L 2906 525 
Q 2725 213 2448 61 
Q 2172 -91 1784 -91 
Q 1150 -91 751 415 
Q 353 922 353 1747 
Q 353 2572 751 3078 
Q 1150 3584 1784 3584 
Q 2172 3584 2448 3432 
Q 2725 3281 2906 2969 
z
M 947 1747 
Q 947 1113 1208 752 
Q 1469 391 1925 391 
Q 2381 391 2643 752 
Q 2906 1113 2906 1747 
Q 2906 2381 2643 2742 
Q 2381 3103 1925 3103 
Q 1469 3103 1208 2742 
Q 947 2381 947 1747 
z
" id="DejaVuSans-64" transform="scale(0.015625)"/>
       <path d="M 2059 -325 
Q 1816 -950 1584 -1140 
Q 1353 -1331 966 -1331 
L 506 -1331 
L 506 -850 
L 844 -850 
Q 1081 -850 1212 -737 
Q 1344 -625 1503 -206 
L 1606 56 
L 191 3500 
L 800 3500 
L 1894 763 
L 2988 3500 
L 3597 3500 
L 2059 -325 
z
" id="DejaVuSans-79" transform="scale(0.015625)"/>
       <path d="M 628 4666 
L 1259 4666 
L 1259 0 
L 628 0 
L 628 4666 
z
" id="DejaVuSans-49" transform="scale(0.015625)"/>
       <path d="M 3513 2113 
L 3513 0 
L 2938 0 
L 2938 2094 
Q 2938 2591 2744 2837 
Q 2550 3084 2163 3084 
Q 1697 3084 1428 2787 
Q 1159 2491 1159 1978 
L 1159 0 
L 581 0 
L 581 3500 
L 1159 3500 
L 1159 2956 
Q 1366 3272 1645 3428 
Q 1925 3584 2291 3584 
Q 2894 3584 3203 3211 
Q 3513 2838 3513 2113 
z
" id="DejaVuSans-6e" transform="scale(0.015625)"/>
       <path d="M 3513 3500 
L 2247 1797 
L 3578 0 
L 2900 0 
L 1881 1375 
L 863 0 
L 184 0 
L 1544 1831 
L 300 3500 
L 978 3500 
L 1906 2253 
L 2834 3500 
L 3513 3500 
z
" id="DejaVuSans-78" transform="scale(0.015625)"/>
      </defs>
      <use xlink:href="#DejaVuSans-43"/>
      <use x="69.824219" xlink:href="#DejaVuSans-72"/>
      <use x="108.6875" xlink:href="#DejaVuSans-65"/>
      <use x="170.210938" xlink:href="#DejaVuSans-64"/>
      <use x="233.6875" xlink:href="#DejaVuSans-69"/>
      <use x="261.470703" xlink:href="#DejaVuSans-62"/>
      <use x="324.947266" xlink:href="#DejaVuSans-69"/>
      <use x="352.730469" xlink:href="#DejaVuSans-6c"/>
      <use x="380.513672" xlink:href="#DejaVuSans-69"/>
      <use x="408.296875" xlink:href="#DejaVuSans-74"/>
      <use x="447.505859" xlink:href="#DejaVuSans-79"/>
      <use x="506.685547" xlink:href="#DejaVuSans-20"/>
      <use x="538.472656" xlink:href="#DejaVuSans-49"/>
      <use x="567.964844" xlink:href="#DejaVuSans-6e"/>
      <use x="631.34375" xlink:href="#DejaVuSans-64"/>
      <use x="694.820312" xlink:href="#DejaVuSans-65"/>
      <use x="754.59375" xlink:href="#DejaVuSans-78"/>
     </g>
    </g>
   </g>
   <g id="line2d_10">
    <path clip-path="url(#pb2d1fa48d8)" d="M 65.258387 290.994545 
L 65.258387 38.085455 
" style="fill:none;stroke:#4c4c4c;stroke-linecap:square;stroke-width:1.5;"/>
   </g>
   <g id="line2d_11">
    <path clip-path="url(#pb2d1fa48d8)" d="M 65.258387 176.035868 
L 65.258387 61.07719 
" style="fill:none;stroke:#4c4c4c;stroke-linecap:square;stroke-width:4.5;"/>
   </g>
   <g id="line2d_12">
    <path clip-path="url(#pb2d1fa48d8)" d="M 159.9782 290.994545 
L 159.9782 38.085455 
" style="fill:none;stroke:#4c4c4c;stroke-linecap:square;stroke-width:1.5;"/>
   </g>
   <g id="line2d_13">
    <path clip-path="url(#pb2d1fa48d8)" d="M 159.9782 187.531736 
L 159.9782 49.581322 
" style="fill:none;stroke:#4c4c4c;stroke-linecap:square;stroke-width:4.5;"/>
   </g>
   <g id="line2d_14">
    <path clip-path="url(#pb2d1fa48d8)" d="M 179.919213 290.994545 
L 179.919213 38.085455 
" style="fill:none;stroke:#4c4c4c;stroke-linecap:square;stroke-width:1.5;"/>
   </g>
   <g id="line2d_15">
    <path clip-path="url(#pb2d1fa48d8)" d="M 179.919213 222.019339 
L 179.919213 49.581322 
" style="fill:none;stroke:#4c4c4c;stroke-linecap:square;stroke-width:4.5;"/>
   </g>
   <g id="line2d_16">
    <path clip-path="url(#pb2d1fa48d8)" d="M 234.757 290.994545 
L 234.757 38.085455 
" style="fill:none;stroke:#4c4c4c;stroke-linecap:square;stroke-width:1.5;"/>
   </g>
   <g id="line2d_17">
    <path clip-path="url(#pb2d1fa48d8)" d="M 234.757 187.531736 
L 234.757 38.085455 
" style="fill:none;stroke:#4c4c4c;stroke-linecap:square;stroke-width:4.5;"/>
   </g>
   <g id="line2d_18">
    <path clip-path="url(#pb2d1fa48d8)" d="M 254.698013 290.994545 
L 254.698013 38.085455 
" style="fill:none;stroke:#4c4c4c;stroke-linecap:square;stroke-width:1.5;"/>
   </g>
   <g id="line2d_19">
    <path clip-path="url(#pb2d1fa48d8)" d="M 254.698013 210.523471 
L 254.698013 49.581322 
" style="fill:none;stroke:#4c4c4c;stroke-linecap:square;stroke-width:4.5;"/>
   </g>
   <g id="line2d_20">
    <path clip-path="url(#pb2d1fa48d8)" d="M 309.5358 290.994545 
L 309.5358 38.085455 
" style="fill:none;stroke:#4c4c4c;stroke-linecap:square;stroke-width:1.5;"/>
   </g>
   <g id="line2d_21">
    <path clip-path="url(#pb2d1fa48d8)" d="M 309.5358 187.531736 
L 309.5358 38.085455 
" style="fill:none;stroke:#4c4c4c;stroke-linecap:square;stroke-width:4.5;"/>
   </g>
   <g id="line2d_22">
    <path clip-path="url(#pb2d1fa48d8)" d="M 329.476813 290.994545 
L 329.476813 38.085455 
" style="fill:none;stroke:#4c4c4c;stroke-linecap:square;stroke-width:1.5;"/>
   </g>
   <g id="line2d_23">
    <path clip-path="url(#pb2d1fa48d8)" d="M 329.476813 176.035868 
L 329.476813 38.085455 
" style="fill:none;stroke:#4c4c4c;stroke-linecap:square;stroke-width:4.5;"/>
   </g>
   <g id="patch_6">
    <path d="M 47.81 303.64 
L 47.81 25.44 
" style="fill:none;stroke:#000000;stroke-linecap:square;stroke-linejoin:miter;stroke-width:0.8;"/>
   </g>
   <g id="patch_7">
    <path d="M 346.9252 303.64 
L 346.9252 25.44 
" style="fill:none;stroke:#000000;stroke-linecap:square;stroke-linejoin:miter;stroke-width:0.8;"/>
   </g>
   <g id="patch_8">
    <path d="M 47.81 303.64 
L 346.9252 303.64 
" style="fill:none;stroke:#000000;stroke-linecap:square;stroke-linejoin:miter;stroke-width:0.8;"/>
   </g>
   <g id="patch_9">
    <path d="M 47.81 25.44 
L 346.9252 25.44 
" style="fill:none;stroke:#000000;stroke-linecap:square;stroke-linejoin:miter;stroke-width:0.8;"/>
   </g>
   <g id="PathCollection_1">
    <defs>
     <path d="M 0 1.5 
C 0.397805 1.5 0.77937 1.341951 1.06066 1.06066 
C 1.341951 0.77937 1.5 0.397805 1.5 0 
C 1.5 -0.397805 1.341951 -0.77937 1.06066 -1.06066 
C 0.77937 -1.341951 0.397805 -1.5 0 -1.5 
C -0.397805 -1.5 -0.77937 -1.341951 -1.06066 -1.06066 
C -1.341951 -0.77937 -1.5 -0.397805 -1.5 0 
C -1.5 0.397805 -1.341951 0.77937 -1.06066 1.06066 
C -0.77937 1.341951 -0.397805 1.5 0 1.5 
z
" id="mfb5a226bca" style="stroke:#4c4c4c;"/>
    </defs>
    <g clip-path="url(#pb2d1fa48d8)">
     <use style="fill:#ffffff;stroke:#4c4c4c;" x="65.258387" xlink:href="#mfb5a226bca" y="107.060661"/>
    </g>
   </g>
   <g id="PathCollection_2">
    <g clip-path="url(#pb2d1fa48d8)">
     <use style="fill:#ffffff;stroke:#4c4c4c;" x="159.9782" xlink:href="#mfb5a226bca" y="95.564793"/>
    </g>
   </g>
   <g id="PathCollection_3">
    <g clip-path="url(#pb2d1fa48d8)">
     <use style="fill:#ffffff;stroke:#4c4c4c;" x="179.919213" xlink:href="#mfb5a226bca" y="130.052397"/>
    </g>
   </g>
   <g id="PathCollection_4">
    <g clip-path="url(#pb2d1fa48d8)">
     <use style="fill:#ffffff;stroke:#4c4c4c;" x="234.757" xlink:href="#mfb5a226bca" y="84.068926"/>
    </g>
   </g>
   <g id="PathCollection_5">
    <g clip-path="url(#pb2d1fa48d8)">
     <use style="fill:#ffffff;stroke:#4c4c4c;" x="254.698013" xlink:href="#mfb5a226bca" y="118.556529"/>
    </g>
   </g>
   <g id="PathCollection_6">
    <g clip-path="url(#pb2d1fa48d8)">
     <use style="fill:#ffffff;stroke:#4c4c4c;" x="309.5358" xlink:href="#mfb5a226bca" y="84.068926"/>
    </g>
   </g>
   <g id="PathCollection_7">
    <g clip-path="url(#pb2d1fa48d8)">
     <use style="fill:#ffffff;stroke:#4c4c4c;" x="329.476813" xlink:href="#mfb5a226bca" y="72.573058"/>
    </g>
   </g>
   <g id="text_12">
    <!-- Distribution of the consensus estimated components -->
    <g transform="translate(38.473538 19.44)scale(0.12 -0.12)">
     <defs>
      <path d="M 1259 4147 
L 1259 519 
L 2022 519 
Q 2988 519 3436 956 
Q 3884 1394 3884 2338 
Q 3884 3275 3436 3711 
Q 2988 4147 2022 4147 
L 1259 4147 
z
M 628 4666 
L 1925 4666 
Q 3281 4666 3915 4102 
Q 4550 3538 4550 2338 
Q 4550 1131 3912 565 
Q 3275 0 1925 0 
L 628 0 
L 628 4666 
z
" id="DejaVuSans-44" transform="scale(0.015625)"/>
      <path d="M 3513 2113 
L 3513 0 
L 2938 0 
L 2938 2094 
Q 2938 2591 2744 2837 
Q 2550 3084 2163 3084 
Q 1697 3084 1428 2787 
Q 1159 2491 1159 1978 
L 1159 0 
L 581 0 
L 581 4863 
L 1159 4863 
L 1159 2956 
Q 1366 3272 1645 3428 
Q 1925 3584 2291 3584 
Q 2894 3584 3203 3211 
Q 3513 2838 3513 2113 
z
" id="DejaVuSans-68" transform="scale(0.015625)"/>
      <path d="M 3122 3366 
L 3122 2828 
Q 2878 2963 2633 3030 
Q 2388 3097 2138 3097 
Q 1578 3097 1268 2742 
Q 959 2388 959 1747 
Q 959 1106 1268 751 
Q 1578 397 2138 397 
Q 2388 397 2633 464 
Q 2878 531 3122 666 
L 3122 134 
Q 2881 22 2623 -34 
Q 2366 -91 2075 -91 
Q 1284 -91 818 406 
Q 353 903 353 1747 
Q 353 2603 823 3093 
Q 1294 3584 2113 3584 
Q 2378 3584 2631 3529 
Q 2884 3475 3122 3366 
z
" id="DejaVuSans-63" transform="scale(0.015625)"/>
      <path d="M 2194 1759 
Q 1497 1759 1228 1600 
Q 959 1441 959 1056 
Q 959 750 1161 570 
Q 1363 391 1709 391 
Q 2188 391 2477 730 
Q 2766 1069 2766 1631 
L 2766 1759 
L 2194 1759 
z
M 3341 1997 
L 3341 0 
L 2766 0 
L 2766 531 
Q 2569 213 2275 61 
Q 1981 -91 1556 -91 
Q 1019 -91 701 211 
Q 384 513 384 1019 
Q 384 1609 779 1909 
Q 1175 2209 1959 2209 
L 2766 2209 
L 2766 2266 
Q 2766 2663 2505 2880 
Q 2244 3097 1772 3097 
Q 1472 3097 1187 3025 
Q 903 2953 641 2809 
L 641 3341 
Q 956 3463 1253 3523 
Q 1550 3584 1831 3584 
Q 2591 3584 2966 3190 
Q 3341 2797 3341 1997 
z
" id="DejaVuSans-61" transform="scale(0.015625)"/>
     </defs>
     <use xlink:href="#DejaVuSans-44"/>
     <use x="77.001953" xlink:href="#DejaVuSans-69"/>
     <use x="104.785156" xlink:href="#DejaVuSans-73"/>
     <use x="156.884766" xlink:href="#DejaVuSans-74"/>
     <use x="196.09375" xlink:href="#DejaVuSans-72"/>
     <use x="237.207031" xlink:href="#DejaVuSans-69"/>
     <use x="264.990234" xlink:href="#DejaVuSans-62"/>
     <use x="328.466797" xlink:href="#DejaVuSans-75"/>
     <use x="391.845703" xlink:href="#DejaVuSans-74"/>
     <use x="431.054688" xlink:href="#DejaVuSans-69"/>
     <use x="458.837891" xlink:href="#DejaVuSans-6f"/>
     <use x="520.019531" xlink:href="#DejaVuSans-6e"/>
     <use x="583.398438" xlink:href="#DejaVuSans-20"/>
     <use x="615.185547" xlink:href="#DejaVuSans-6f"/>
     <use x="676.367188" xlink:href="#DejaVuSans-66"/>
     <use x="711.572266" xlink:href="#DejaVuSans-20"/>
     <use x="743.359375" xlink:href="#DejaVuSans-74"/>
     <use x="782.568359" xlink:href="#DejaVuSans-68"/>
     <use x="845.947266" xlink:href="#DejaVuSans-65"/>
     <use x="907.470703" xlink:href="#DejaVuSans-20"/>
     <use x="939.257812" xlink:href="#DejaVuSans-63"/>
     <use x="994.238281" xlink:href="#DejaVuSans-6f"/>
     <use x="1055.419922" xlink:href="#DejaVuSans-6e"/>
     <use x="1118.798828" xlink:href="#DejaVuSans-73"/>
     <use x="1170.898438" xlink:href="#DejaVuSans-65"/>
     <use x="1232.421875" xlink:href="#DejaVuSans-6e"/>
     <use x="1295.800781" xlink:href="#DejaVuSans-73"/>
     <use x="1347.900391" xlink:href="#DejaVuSans-75"/>
     <use x="1411.279297" xlink:href="#DejaVuSans-73"/>
     <use x="1463.378906" xlink:href="#DejaVuSans-20"/>
     <use x="1495.166016" xlink:href="#DejaVuSans-65"/>
     <use x="1556.689453" xlink:href="#DejaVuSans-73"/>
     <use x="1608.789062" xlink:href="#DejaVuSans-74"/>
     <use x="1647.998047" xlink:href="#DejaVuSans-69"/>
     <use x="1675.78125" xlink:href="#DejaVuSans-6d"/>
     <use x="1773.193359" xlink:href="#DejaVuSans-61"/>
     <use x="1834.472656" xlink:href="#DejaVuSans-74"/>
     <use x="1873.681641" xlink:href="#DejaVuSans-65"/>
     <use x="1935.205078" xlink:href="#DejaVuSans-64"/>
     <use x="1998.681641" xlink:href="#DejaVuSans-20"/>
     <use x="2030.46875" xlink:href="#DejaVuSans-63"/>
     <use x="2085.449219" xlink:href="#DejaVuSans-6f"/>
     <use x="2146.630859" xlink:href="#DejaVuSans-6d"/>
     <use x="2244.042969" xlink:href="#DejaVuSans-70"/>
     <use x="2307.519531" xlink:href="#DejaVuSans-6f"/>
     <use x="2368.701172" xlink:href="#DejaVuSans-6e"/>
     <use x="2432.080078" xlink:href="#DejaVuSans-65"/>
     <use x="2493.603516" xlink:href="#DejaVuSans-6e"/>
     <use x="2556.982422" xlink:href="#DejaVuSans-74"/>
     <use x="2596.191406" xlink:href="#DejaVuSans-73"/>
    </g>
   </g>
   <g id="legend_1">
    <g id="patch_10">
     <path d="M 365.889808 77.474375 
L 445.658558 77.474375 
Q 447.658558 77.474375 447.658558 75.474375 
L 447.658558 32.44 
Q 447.658558 30.44 445.658558 30.44 
L 365.889808 30.44 
Q 363.889808 30.44 363.889808 32.44 
L 363.889808 75.474375 
Q 363.889808 77.474375 365.889808 77.474375 
z
" style="fill:#ffffff;opacity:0.8;stroke:#cccccc;stroke-linejoin:miter;"/>
    </g>
    <g id="patch_11">
     <path d="M 367.889808 42.038437 
L 387.889808 42.038437 
L 387.889808 35.038437 
L 367.889808 35.038437 
z
" style="fill:#df7f20;stroke:#4c4c4c;stroke-linejoin:miter;stroke-width:0.75;"/>
    </g>
    <g id="text_13">
     <!-- big -->
     <g transform="translate(395.889808 42.038437)scale(0.1 -0.1)">
      <use xlink:href="#DejaVuSans-62"/>
      <use x="63.476562" xlink:href="#DejaVuSans-69"/>
      <use x="91.259766" xlink:href="#DejaVuSans-67"/>
     </g>
    </g>
    <g id="patch_12">
     <path d="M 367.889808 56.716562 
L 387.889808 56.716562 
L 387.889808 49.716562 
L 367.889808 49.716562 
z
" style="fill:#2020df;stroke:#4c4c4c;stroke-linejoin:miter;stroke-width:0.75;"/>
    </g>
    <g id="text_14">
     <!-- Clustered -->
     <g transform="translate(395.889808 56.716562)scale(0.1 -0.1)">
      <use xlink:href="#DejaVuSans-43"/>
      <use x="69.824219" xlink:href="#DejaVuSans-6c"/>
      <use x="97.607422" xlink:href="#DejaVuSans-75"/>
      <use x="160.986328" xlink:href="#DejaVuSans-73"/>
      <use x="213.085938" xlink:href="#DejaVuSans-74"/>
      <use x="252.294922" xlink:href="#DejaVuSans-65"/>
      <use x="313.818359" xlink:href="#DejaVuSans-72"/>
      <use x="352.681641" xlink:href="#DejaVuSans-65"/>
      <use x="414.205078" xlink:href="#DejaVuSans-64"/>
     </g>
    </g>
    <g id="patch_13">
     <path d="M 367.889808 71.394687 
L 387.889808 71.394687 
L 387.889808 64.394687 
L 367.889808 64.394687 
z
" style="fill:#20dfdf;stroke:#4c4c4c;stroke-linejoin:miter;stroke-width:0.75;"/>
    </g>
    <g id="text_15">
     <!-- Random -->
     <g transform="translate(395.889808 71.394687)scale(0.1 -0.1)">
      <defs>
       <path d="M 2841 2188 
Q 3044 2119 3236 1894 
Q 3428 1669 3622 1275 
L 4263 0 
L 3584 0 
L 2988 1197 
Q 2756 1666 2539 1819 
Q 2322 1972 1947 1972 
L 1259 1972 
L 1259 0 
L 628 0 
L 628 4666 
L 2053 4666 
Q 2853 4666 3247 4331 
Q 3641 3997 3641 3322 
Q 3641 2881 3436 2590 
Q 3231 2300 2841 2188 
z
M 1259 4147 
L 1259 2491 
L 2053 2491 
Q 2509 2491 2742 2702 
Q 2975 2913 2975 3322 
Q 2975 3731 2742 3939 
Q 2509 4147 2053 4147 
L 1259 4147 
z
" id="DejaVuSans-52" transform="scale(0.015625)"/>
      </defs>
      <use xlink:href="#DejaVuSans-52"/>
      <use x="67.232422" xlink:href="#DejaVuSans-61"/>
      <use x="128.511719" xlink:href="#DejaVuSans-6e"/>
      <use x="191.890625" xlink:href="#DejaVuSans-64"/>
      <use x="255.367188" xlink:href="#DejaVuSans-6f"/>
      <use x="316.548828" xlink:href="#DejaVuSans-6d"/>
     </g>
    </g>
   </g>
  </g>
 </g>
 <defs>
  <clipPath id="pb2d1fa48d8">
   <rect height="278.2" width="299.1152" x="47.81" y="25.44"/>
  </clipPath>
 </defs>
</svg>
