<?xml version="1.0" encoding="utf-8" standalone="no"?>
<!DOCTYPE svg PUBLIC "-//W3C//DTD SVG 1.1//EN"
  "http://www.w3.org/Graphics/SVG/1.1/DTD/svg11.dtd">
<svg height="345.6pt" version="1.1" viewBox="0 0 460.8 345.6" width="460.8pt" xmlns="http://www.w3.org/2000/svg" xmlns:xlink="http://www.w3.org/1999/xlink">
 <metadata>
  <rdf:RDF xmlns:cc="http://creativecommons.org/ns#" xmlns:dc="http://purl.org/dc/elements/1.1/" xmlns:rdf="http://www.w3.org/1999/02/22-rdf-syntax-ns#">
   <cc:Work>
    <dc:type rdf:resource="http://purl.org/dc/dcmitype/StillImage"/>
    <dc:date>2021-12-06T13:50:45.656601</dc:date>
    <dc:format>image/svg+xml</dc:format>
    <dc:creator>
     <cc:Agent>
      <dc:title>Matplotlib v3.4.3, https://matplotlib.org/</dc:title>
     </cc:Agent>
    </dc:creator>
   </cc:Work>
  </rdf:RDF>
 </metadata>
 <defs>
  <style type="text/css">*{stroke-linecap:butt;stroke-linejoin:round;}</style>
 </defs>
 <g id="figure_1">
  <g id="patch_1">
   <path d="M 0 345.6 
L 460.8 345.6 
L 460.8 0 
L 0 0 
z
" style="fill:#ffffff;"/>
  </g>
  <g id="axes_1">
   <g id="patch_2">
    <path d="M 38.27 303.64 
L 450 303.64 
L 450 10.8 
L 38.27 10.8 
z
" style="fill:#ffffff;"/>
   </g>
   <g id="matplotlib.axis_1">
    <g id="xtick_1">
     <g id="line2d_1">
      <defs>
       <path d="M 0 0 
L 0 3.5 
" id="ma466009c59" style="stroke:#000000;stroke-width:0.8;"/>
      </defs>
      <g>
       <use style="stroke:#000000;stroke-width:0.8;" x="56.985" xlink:href="#ma466009c59" y="303.64"/>
      </g>
     </g>
     <g id="text_1">
      <!-- 0.0 -->
      <g transform="translate(49.033437 318.238437)scale(0.1 -0.1)">
       <defs>
        <path d="M 2034 4250 
Q 1547 4250 1301 3770 
Q 1056 3291 1056 2328 
Q 1056 1369 1301 889 
Q 1547 409 2034 409 
Q 2525 409 2770 889 
Q 3016 1369 3016 2328 
Q 3016 3291 2770 3770 
Q 2525 4250 2034 4250 
z
M 2034 4750 
Q 2819 4750 3233 4129 
Q 3647 3509 3647 2328 
Q 3647 1150 3233 529 
Q 2819 -91 2034 -91 
Q 1250 -91 836 529 
Q 422 1150 422 2328 
Q 422 3509 836 4129 
Q 1250 4750 2034 4750 
z
" id="DejaVuSans-30" transform="scale(0.015625)"/>
        <path d="M 684 794 
L 1344 794 
L 1344 0 
L 684 0 
L 684 794 
z
" id="DejaVuSans-2e" transform="scale(0.015625)"/>
       </defs>
       <use xlink:href="#DejaVuSans-30"/>
       <use x="63.623047" xlink:href="#DejaVuSans-2e"/>
       <use x="95.410156" xlink:href="#DejaVuSans-30"/>
      </g>
     </g>
    </g>
    <g id="xtick_2">
     <g id="line2d_2">
      <g>
       <use style="stroke:#000000;stroke-width:0.8;" x="131.845" xlink:href="#ma466009c59" y="303.64"/>
      </g>
     </g>
     <g id="text_2">
      <!-- 0.2 -->
      <g transform="translate(123.893438 318.238437)scale(0.1 -0.1)">
       <defs>
        <path d="M 1228 531 
L 3431 531 
L 3431 0 
L 469 0 
L 469 531 
Q 828 903 1448 1529 
Q 2069 2156 2228 2338 
Q 2531 2678 2651 2914 
Q 2772 3150 2772 3378 
Q 2772 3750 2511 3984 
Q 2250 4219 1831 4219 
Q 1534 4219 1204 4116 
Q 875 4013 500 3803 
L 500 4441 
Q 881 4594 1212 4672 
Q 1544 4750 1819 4750 
Q 2544 4750 2975 4387 
Q 3406 4025 3406 3419 
Q 3406 3131 3298 2873 
Q 3191 2616 2906 2266 
Q 2828 2175 2409 1742 
Q 1991 1309 1228 531 
z
" id="DejaVuSans-32" transform="scale(0.015625)"/>
       </defs>
       <use xlink:href="#DejaVuSans-30"/>
       <use x="63.623047" xlink:href="#DejaVuSans-2e"/>
       <use x="95.410156" xlink:href="#DejaVuSans-32"/>
      </g>
     </g>
    </g>
    <g id="xtick_3">
     <g id="line2d_3">
      <g>
       <use style="stroke:#000000;stroke-width:0.8;" x="206.705" xlink:href="#ma466009c59" y="303.64"/>
      </g>
     </g>
     <g id="text_3">
      <!-- 0.4 -->
      <g transform="translate(198.753438 318.238437)scale(0.1 -0.1)">
       <defs>
        <path d="M 2419 4116 
L 825 1625 
L 2419 1625 
L 2419 4116 
z
M 2253 4666 
L 3047 4666 
L 3047 1625 
L 3713 1625 
L 3713 1100 
L 3047 1100 
L 3047 0 
L 2419 0 
L 2419 1100 
L 313 1100 
L 313 1709 
L 2253 4666 
z
" id="DejaVuSans-34" transform="scale(0.015625)"/>
       </defs>
       <use xlink:href="#DejaVuSans-30"/>
       <use x="63.623047" xlink:href="#DejaVuSans-2e"/>
       <use x="95.410156" xlink:href="#DejaVuSans-34"/>
      </g>
     </g>
    </g>
    <g id="xtick_4">
     <g id="line2d_4">
      <g>
       <use style="stroke:#000000;stroke-width:0.8;" x="281.565" xlink:href="#ma466009c59" y="303.64"/>
      </g>
     </g>
     <g id="text_4">
      <!-- 0.6 -->
      <g transform="translate(273.613438 318.238437)scale(0.1 -0.1)">
       <defs>
        <path d="M 2113 2584 
Q 1688 2584 1439 2293 
Q 1191 2003 1191 1497 
Q 1191 994 1439 701 
Q 1688 409 2113 409 
Q 2538 409 2786 701 
Q 3034 994 3034 1497 
Q 3034 2003 2786 2293 
Q 2538 2584 2113 2584 
z
M 3366 4563 
L 3366 3988 
Q 3128 4100 2886 4159 
Q 2644 4219 2406 4219 
Q 1781 4219 1451 3797 
Q 1122 3375 1075 2522 
Q 1259 2794 1537 2939 
Q 1816 3084 2150 3084 
Q 2853 3084 3261 2657 
Q 3669 2231 3669 1497 
Q 3669 778 3244 343 
Q 2819 -91 2113 -91 
Q 1303 -91 875 529 
Q 447 1150 447 2328 
Q 447 3434 972 4092 
Q 1497 4750 2381 4750 
Q 2619 4750 2861 4703 
Q 3103 4656 3366 4563 
z
" id="DejaVuSans-36" transform="scale(0.015625)"/>
       </defs>
       <use xlink:href="#DejaVuSans-30"/>
       <use x="63.623047" xlink:href="#DejaVuSans-2e"/>
       <use x="95.410156" xlink:href="#DejaVuSans-36"/>
      </g>
     </g>
    </g>
    <g id="xtick_5">
     <g id="line2d_5">
      <g>
       <use style="stroke:#000000;stroke-width:0.8;" x="356.425" xlink:href="#ma466009c59" y="303.64"/>
      </g>
     </g>
     <g id="text_5">
      <!-- 0.8 -->
      <g transform="translate(348.473437 318.238437)scale(0.1 -0.1)">
       <defs>
        <path d="M 2034 2216 
Q 1584 2216 1326 1975 
Q 1069 1734 1069 1313 
Q 1069 891 1326 650 
Q 1584 409 2034 409 
Q 2484 409 2743 651 
Q 3003 894 3003 1313 
Q 3003 1734 2745 1975 
Q 2488 2216 2034 2216 
z
M 1403 2484 
Q 997 2584 770 2862 
Q 544 3141 544 3541 
Q 544 4100 942 4425 
Q 1341 4750 2034 4750 
Q 2731 4750 3128 4425 
Q 3525 4100 3525 3541 
Q 3525 3141 3298 2862 
Q 3072 2584 2669 2484 
Q 3125 2378 3379 2068 
Q 3634 1759 3634 1313 
Q 3634 634 3220 271 
Q 2806 -91 2034 -91 
Q 1263 -91 848 271 
Q 434 634 434 1313 
Q 434 1759 690 2068 
Q 947 2378 1403 2484 
z
M 1172 3481 
Q 1172 3119 1398 2916 
Q 1625 2713 2034 2713 
Q 2441 2713 2670 2916 
Q 2900 3119 2900 3481 
Q 2900 3844 2670 4047 
Q 2441 4250 2034 4250 
Q 1625 4250 1398 4047 
Q 1172 3844 1172 3481 
z
" id="DejaVuSans-38" transform="scale(0.015625)"/>
       </defs>
       <use xlink:href="#DejaVuSans-30"/>
       <use x="63.623047" xlink:href="#DejaVuSans-2e"/>
       <use x="95.410156" xlink:href="#DejaVuSans-38"/>
      </g>
     </g>
    </g>
    <g id="xtick_6">
     <g id="line2d_6">
      <g>
       <use style="stroke:#000000;stroke-width:0.8;" x="431.285" xlink:href="#ma466009c59" y="303.64"/>
      </g>
     </g>
     <g id="text_6">
      <!-- 1.0 -->
      <g transform="translate(423.333438 318.238437)scale(0.1 -0.1)">
       <defs>
        <path d="M 794 531 
L 1825 531 
L 1825 4091 
L 703 3866 
L 703 4441 
L 1819 4666 
L 2450 4666 
L 2450 531 
L 3481 531 
L 3481 0 
L 794 0 
L 794 531 
z
" id="DejaVuSans-31" transform="scale(0.015625)"/>
       </defs>
       <use xlink:href="#DejaVuSans-31"/>
       <use x="63.623047" xlink:href="#DejaVuSans-2e"/>
       <use x="95.410156" xlink:href="#DejaVuSans-30"/>
      </g>
     </g>
    </g>
    <g id="text_7">
     <!-- Credibility index -->
     <g transform="translate(203.530313 331.916562)scale(0.1 -0.1)">
      <defs>
       <path d="M 4122 4306 
L 4122 3641 
Q 3803 3938 3442 4084 
Q 3081 4231 2675 4231 
Q 1875 4231 1450 3742 
Q 1025 3253 1025 2328 
Q 1025 1406 1450 917 
Q 1875 428 2675 428 
Q 3081 428 3442 575 
Q 3803 722 4122 1019 
L 4122 359 
Q 3791 134 3420 21 
Q 3050 -91 2638 -91 
Q 1578 -91 968 557 
Q 359 1206 359 2328 
Q 359 3453 968 4101 
Q 1578 4750 2638 4750 
Q 3056 4750 3426 4639 
Q 3797 4528 4122 4306 
z
" id="DejaVuSans-43" transform="scale(0.015625)"/>
       <path d="M 2631 2963 
Q 2534 3019 2420 3045 
Q 2306 3072 2169 3072 
Q 1681 3072 1420 2755 
Q 1159 2438 1159 1844 
L 1159 0 
L 581 0 
L 581 3500 
L 1159 3500 
L 1159 2956 
Q 1341 3275 1631 3429 
Q 1922 3584 2338 3584 
Q 2397 3584 2469 3576 
Q 2541 3569 2628 3553 
L 2631 2963 
z
" id="DejaVuSans-72" transform="scale(0.015625)"/>
       <path d="M 3597 1894 
L 3597 1613 
L 953 1613 
Q 991 1019 1311 708 
Q 1631 397 2203 397 
Q 2534 397 2845 478 
Q 3156 559 3463 722 
L 3463 178 
Q 3153 47 2828 -22 
Q 2503 -91 2169 -91 
Q 1331 -91 842 396 
Q 353 884 353 1716 
Q 353 2575 817 3079 
Q 1281 3584 2069 3584 
Q 2775 3584 3186 3129 
Q 3597 2675 3597 1894 
z
M 3022 2063 
Q 3016 2534 2758 2815 
Q 2500 3097 2075 3097 
Q 1594 3097 1305 2825 
Q 1016 2553 972 2059 
L 3022 2063 
z
" id="DejaVuSans-65" transform="scale(0.015625)"/>
       <path d="M 2906 2969 
L 2906 4863 
L 3481 4863 
L 3481 0 
L 2906 0 
L 2906 525 
Q 2725 213 2448 61 
Q 2172 -91 1784 -91 
Q 1150 -91 751 415 
Q 353 922 353 1747 
Q 353 2572 751 3078 
Q 1150 3584 1784 3584 
Q 2172 3584 2448 3432 
Q 2725 3281 2906 2969 
z
M 947 1747 
Q 947 1113 1208 752 
Q 1469 391 1925 391 
Q 2381 391 2643 752 
Q 2906 1113 2906 1747 
Q 2906 2381 2643 2742 
Q 2381 3103 1925 3103 
Q 1469 3103 1208 2742 
Q 947 2381 947 1747 
z
" id="DejaVuSans-64" transform="scale(0.015625)"/>
       <path d="M 603 3500 
L 1178 3500 
L 1178 0 
L 603 0 
L 603 3500 
z
M 603 4863 
L 1178 4863 
L 1178 4134 
L 603 4134 
L 603 4863 
z
" id="DejaVuSans-69" transform="scale(0.015625)"/>
       <path d="M 3116 1747 
Q 3116 2381 2855 2742 
Q 2594 3103 2138 3103 
Q 1681 3103 1420 2742 
Q 1159 2381 1159 1747 
Q 1159 1113 1420 752 
Q 1681 391 2138 391 
Q 2594 391 2855 752 
Q 3116 1113 3116 1747 
z
M 1159 2969 
Q 1341 3281 1617 3432 
Q 1894 3584 2278 3584 
Q 2916 3584 3314 3078 
Q 3713 2572 3713 1747 
Q 3713 922 3314 415 
Q 2916 -91 2278 -91 
Q 1894 -91 1617 61 
Q 1341 213 1159 525 
L 1159 0 
L 581 0 
L 581 4863 
L 1159 4863 
L 1159 2969 
z
" id="DejaVuSans-62" transform="scale(0.015625)"/>
       <path d="M 603 4863 
L 1178 4863 
L 1178 0 
L 603 0 
L 603 4863 
z
" id="DejaVuSans-6c" transform="scale(0.015625)"/>
       <path d="M 1172 4494 
L 1172 3500 
L 2356 3500 
L 2356 3053 
L 1172 3053 
L 1172 1153 
Q 1172 725 1289 603 
Q 1406 481 1766 481 
L 2356 481 
L 2356 0 
L 1766 0 
Q 1100 0 847 248 
Q 594 497 594 1153 
L 594 3053 
L 172 3053 
L 172 3500 
L 594 3500 
L 594 4494 
L 1172 4494 
z
" id="DejaVuSans-74" transform="scale(0.015625)"/>
       <path d="M 2059 -325 
Q 1816 -950 1584 -1140 
Q 1353 -1331 966 -1331 
L 506 -1331 
L 506 -850 
L 844 -850 
Q 1081 -850 1212 -737 
Q 1344 -625 1503 -206 
L 1606 56 
L 191 3500 
L 800 3500 
L 1894 763 
L 2988 3500 
L 3597 3500 
L 2059 -325 
z
" id="DejaVuSans-79" transform="scale(0.015625)"/>
       <path id="DejaVuSans-20" transform="scale(0.015625)"/>
       <path d="M 3513 2113 
L 3513 0 
L 2938 0 
L 2938 2094 
Q 2938 2591 2744 2837 
Q 2550 3084 2163 3084 
Q 1697 3084 1428 2787 
Q 1159 2491 1159 1978 
L 1159 0 
L 581 0 
L 581 3500 
L 1159 3500 
L 1159 2956 
Q 1366 3272 1645 3428 
Q 1925 3584 2291 3584 
Q 2894 3584 3203 3211 
Q 3513 2838 3513 2113 
z
" id="DejaVuSans-6e" transform="scale(0.015625)"/>
       <path d="M 3513 3500 
L 2247 1797 
L 3578 0 
L 2900 0 
L 1881 1375 
L 863 0 
L 184 0 
L 1544 1831 
L 300 3500 
L 978 3500 
L 1906 2253 
L 2834 3500 
L 3513 3500 
z
" id="DejaVuSans-78" transform="scale(0.015625)"/>
      </defs>
      <use xlink:href="#DejaVuSans-43"/>
      <use x="69.824219" xlink:href="#DejaVuSans-72"/>
      <use x="108.6875" xlink:href="#DejaVuSans-65"/>
      <use x="170.210938" xlink:href="#DejaVuSans-64"/>
      <use x="233.6875" xlink:href="#DejaVuSans-69"/>
      <use x="261.470703" xlink:href="#DejaVuSans-62"/>
      <use x="324.947266" xlink:href="#DejaVuSans-69"/>
      <use x="352.730469" xlink:href="#DejaVuSans-6c"/>
      <use x="380.513672" xlink:href="#DejaVuSans-69"/>
      <use x="408.296875" xlink:href="#DejaVuSans-74"/>
      <use x="447.505859" xlink:href="#DejaVuSans-79"/>
      <use x="506.685547" xlink:href="#DejaVuSans-20"/>
      <use x="538.472656" xlink:href="#DejaVuSans-69"/>
      <use x="566.255859" xlink:href="#DejaVuSans-6e"/>
      <use x="629.634766" xlink:href="#DejaVuSans-64"/>
      <use x="693.111328" xlink:href="#DejaVuSans-65"/>
      <use x="752.884766" xlink:href="#DejaVuSans-78"/>
     </g>
    </g>
   </g>
   <g id="matplotlib.axis_2">
    <g id="ytick_1">
     <g id="line2d_7">
      <defs>
       <path d="M 0 0 
L -3.5 0 
" id="m340d496afc" style="stroke:#000000;stroke-width:0.8;"/>
      </defs>
      <g>
       <use style="stroke:#000000;stroke-width:0.8;" x="38.27" xlink:href="#m340d496afc" y="303.64"/>
      </g>
     </g>
     <g id="text_8">
      <!-- 0 -->
      <g transform="translate(24.9075 307.439219)scale(0.1 -0.1)">
       <use xlink:href="#DejaVuSans-30"/>
      </g>
     </g>
    </g>
    <g id="ytick_2">
     <g id="line2d_8">
      <g>
       <use style="stroke:#000000;stroke-width:0.8;" x="38.27" xlink:href="#m340d496afc" y="239.748859"/>
      </g>
     </g>
     <g id="text_9">
      <!-- 1 -->
      <g transform="translate(24.9075 243.548078)scale(0.1 -0.1)">
       <use xlink:href="#DejaVuSans-31"/>
      </g>
     </g>
    </g>
    <g id="ytick_3">
     <g id="line2d_9">
      <g>
       <use style="stroke:#000000;stroke-width:0.8;" x="38.27" xlink:href="#m340d496afc" y="175.857718"/>
      </g>
     </g>
     <g id="text_10">
      <!-- 2 -->
      <g transform="translate(24.9075 179.656937)scale(0.1 -0.1)">
       <use xlink:href="#DejaVuSans-32"/>
      </g>
     </g>
    </g>
    <g id="ytick_4">
     <g id="line2d_10">
      <g>
       <use style="stroke:#000000;stroke-width:0.8;" x="38.27" xlink:href="#m340d496afc" y="111.966577"/>
      </g>
     </g>
     <g id="text_11">
      <!-- 3 -->
      <g transform="translate(24.9075 115.765796)scale(0.1 -0.1)">
       <defs>
        <path d="M 2597 2516 
Q 3050 2419 3304 2112 
Q 3559 1806 3559 1356 
Q 3559 666 3084 287 
Q 2609 -91 1734 -91 
Q 1441 -91 1130 -33 
Q 819 25 488 141 
L 488 750 
Q 750 597 1062 519 
Q 1375 441 1716 441 
Q 2309 441 2620 675 
Q 2931 909 2931 1356 
Q 2931 1769 2642 2001 
Q 2353 2234 1838 2234 
L 1294 2234 
L 1294 2753 
L 1863 2753 
Q 2328 2753 2575 2939 
Q 2822 3125 2822 3475 
Q 2822 3834 2567 4026 
Q 2313 4219 1838 4219 
Q 1578 4219 1281 4162 
Q 984 4106 628 3988 
L 628 4550 
Q 988 4650 1302 4700 
Q 1616 4750 1894 4750 
Q 2613 4750 3031 4423 
Q 3450 4097 3450 3541 
Q 3450 3153 3228 2886 
Q 3006 2619 2597 2516 
z
" id="DejaVuSans-33" transform="scale(0.015625)"/>
       </defs>
       <use xlink:href="#DejaVuSans-33"/>
      </g>
     </g>
    </g>
    <g id="ytick_5">
     <g id="line2d_11">
      <g>
       <use style="stroke:#000000;stroke-width:0.8;" x="38.27" xlink:href="#m340d496afc" y="48.075436"/>
      </g>
     </g>
     <g id="text_12">
      <!-- 4 -->
      <g transform="translate(24.9075 51.874655)scale(0.1 -0.1)">
       <use xlink:href="#DejaVuSans-34"/>
      </g>
     </g>
    </g>
    <g id="text_13">
     <!-- Density -->
     <g transform="translate(18.827813 176.228594)rotate(-90)scale(0.1 -0.1)">
      <defs>
       <path d="M 1259 4147 
L 1259 519 
L 2022 519 
Q 2988 519 3436 956 
Q 3884 1394 3884 2338 
Q 3884 3275 3436 3711 
Q 2988 4147 2022 4147 
L 1259 4147 
z
M 628 4666 
L 1925 4666 
Q 3281 4666 3915 4102 
Q 4550 3538 4550 2338 
Q 4550 1131 3912 565 
Q 3275 0 1925 0 
L 628 0 
L 628 4666 
z
" id="DejaVuSans-44" transform="scale(0.015625)"/>
       <path d="M 2834 3397 
L 2834 2853 
Q 2591 2978 2328 3040 
Q 2066 3103 1784 3103 
Q 1356 3103 1142 2972 
Q 928 2841 928 2578 
Q 928 2378 1081 2264 
Q 1234 2150 1697 2047 
L 1894 2003 
Q 2506 1872 2764 1633 
Q 3022 1394 3022 966 
Q 3022 478 2636 193 
Q 2250 -91 1575 -91 
Q 1294 -91 989 -36 
Q 684 19 347 128 
L 347 722 
Q 666 556 975 473 
Q 1284 391 1588 391 
Q 1994 391 2212 530 
Q 2431 669 2431 922 
Q 2431 1156 2273 1281 
Q 2116 1406 1581 1522 
L 1381 1569 
Q 847 1681 609 1914 
Q 372 2147 372 2553 
Q 372 3047 722 3315 
Q 1072 3584 1716 3584 
Q 2034 3584 2315 3537 
Q 2597 3491 2834 3397 
z
" id="DejaVuSans-73" transform="scale(0.015625)"/>
      </defs>
      <use xlink:href="#DejaVuSans-44"/>
      <use x="77.001953" xlink:href="#DejaVuSans-65"/>
      <use x="138.525391" xlink:href="#DejaVuSans-6e"/>
      <use x="201.904297" xlink:href="#DejaVuSans-73"/>
      <use x="254.003906" xlink:href="#DejaVuSans-69"/>
      <use x="281.787109" xlink:href="#DejaVuSans-74"/>
      <use x="320.996094" xlink:href="#DejaVuSans-79"/>
     </g>
    </g>
   </g>
   <g id="line2d_12">
    <path clip-path="url(#p5152a545bd)" d="M 56.985 301.916341 
L 60.746809 300.806119 
L 62.627714 300.062137 
L 64.508618 299.168965 
L 66.389523 298.109611 
L 68.270427 296.868422 
L 70.151332 295.432008 
L 72.032236 293.790223 
L 73.913141 291.937158 
L 75.794045 289.872059 
L 77.67495 287.600119 
L 81.436759 282.489422 
L 85.198568 276.780204 
L 94.60309 261.848277 
L 98.364899 256.536867 
L 100.245804 254.183417 
L 102.126709 252.069604 
L 104.007613 250.214794 
L 105.888518 248.630492 
L 107.769422 247.320488 
L 109.650327 246.281429 
L 111.531231 245.503758 
L 113.412136 244.972931 
L 115.29304 244.670794 
L 117.173945 244.577001 
L 119.054849 244.670373 
L 120.935754 244.930089 
L 122.816658 245.336635 
L 126.578467 246.522425 
L 130.340276 248.115851 
L 134.102085 250.039689 
L 137.863894 252.238934 
L 141.625704 254.664321 
L 147.268417 258.597365 
L 156.67294 265.266755 
L 160.434749 267.698538 
L 164.196558 269.85786 
L 167.958367 271.673722 
L 171.720176 273.101813 
L 175.481985 274.1312 
L 179.243794 274.787244 
L 183.005603 275.129038 
L 186.767412 275.240547 
L 194.29103 275.143626 
L 203.695553 275.079419 
L 211.219171 275.048139 
L 214.98098 274.859029 
L 218.742789 274.438556 
L 222.504598 273.71667 
L 226.266407 272.655504 
L 230.028216 271.258491 
L 233.790025 269.571737 
L 239.432739 266.684849 
L 246.956357 262.734943 
L 250.718166 260.943984 
L 254.479975 259.371207 
L 258.241784 258.053557 
L 262.003593 257.004268 
L 265.765402 256.221017 
L 269.527211 255.694032 
L 273.28902 255.411048 
L 277.050829 255.357839 
L 280.812638 255.515378 
L 284.574447 255.856302 
L 290.217161 256.62824 
L 310.907111 259.881413 
L 314.66892 260.195086 
L 318.430729 260.298075 
L 322.192538 260.115926 
L 325.954347 259.572512 
L 329.716156 258.607419 
L 333.477965 257.195526 
L 337.239774 255.362314 
L 341.001583 253.188623 
L 346.644296 249.572929 
L 352.28701 245.96057 
L 357.929724 242.672759 
L 367.334246 237.5208 
L 371.096055 235.030733 
L 372.97696 233.556452 
L 374.857864 231.8788 
L 376.738769 229.960744 
L 378.619673 227.767256 
L 380.500578 225.266318 
L 382.381482 222.429846 
L 384.262387 219.23455 
L 386.143291 215.66276 
L 388.024196 211.703256 
L 389.905101 207.352115 
L 391.786005 202.613629 
L 393.66691 197.501282 
L 397.428719 186.261102 
L 401.190528 173.962424 
L 408.714146 148.564818 
L 410.59505 142.656671 
L 412.475955 137.178239 
L 414.356859 132.267937 
L 416.237764 128.064812 
L 418.118668 124.703664 
L 419.999573 122.309718 
L 421.880477 120.993109 
L 423.761382 120.843508 
L 425.642286 121.925226 
L 427.523191 124.273141 
L 429.404095 127.889772 
L 431.285 132.743739 
L 431.285 132.743739 
" style="fill:none;stroke:#0000ff;stroke-linecap:square;stroke-width:1.5;"/>
   </g>
   <g id="line2d_13">
    <path clip-path="url(#p5152a545bd)" d="M 56.985 302.922487 
L 60.746809 302.335967 
L 64.508618 301.382556 
L 66.389523 300.723052 
L 68.270427 299.915664 
L 70.151332 298.940905 
L 72.032236 297.780446 
L 73.913141 296.418235 
L 75.794045 294.841717 
L 77.67495 293.043071 
L 79.555854 291.020396 
L 81.436759 288.778722 
L 83.317663 286.330771 
L 87.079472 280.907407 
L 92.722186 271.994914 
L 96.483995 266.085993 
L 100.245804 260.685362 
L 102.126709 258.292701 
L 104.007613 256.154965 
L 105.888518 254.298626 
L 107.769422 252.740083 
L 109.650327 251.485165 
L 111.531231 250.529218 
L 113.412136 249.857751 
L 115.29304 249.447603 
L 117.173945 249.268556 
L 119.054849 249.285262 
L 120.935754 249.459397 
L 124.697563 250.125007 
L 135.98299 252.542872 
L 147.268417 254.521975 
L 151.030226 255.52707 
L 154.792035 256.873323 
L 158.553844 258.573518 
L 162.315653 260.572632 
L 167.958367 263.895313 
L 173.60108 267.228164 
L 177.362889 269.275249 
L 181.124698 271.09951 
L 184.886508 272.662626 
L 188.648317 273.944555 
L 192.410126 274.932136 
L 196.171935 275.612655 
L 199.933744 275.975624 
L 203.695553 276.021873 
L 207.457362 275.775249 
L 211.219171 275.290481 
L 218.742789 273.961811 
L 224.385503 273.043696 
L 228.147312 272.609107 
L 231.909121 272.342027 
L 237.551834 272.186219 
L 246.956357 271.997198 
L 250.718166 271.735485 
L 254.479975 271.300368 
L 258.241784 270.685077 
L 263.884497 269.466362 
L 269.527211 267.98862 
L 277.050829 265.739433 
L 282.693543 263.810301 
L 288.336256 261.582857 
L 293.97897 259.061168 
L 301.502588 255.620377 
L 305.264397 254.117964 
L 309.026206 252.899044 
L 312.788015 252.005263 
L 316.549824 251.404863 
L 322.192538 250.82745 
L 327.835251 250.230886 
L 331.59706 249.640642 
L 335.358869 248.846331 
L 341.001583 247.325892 
L 348.525201 244.976936 
L 357.929724 241.862204 
L 363.572437 239.745514 
L 367.334246 238.083754 
L 371.096055 236.098325 
L 372.97696 234.942165 
L 374.857864 233.6501 
L 376.738769 232.198708 
L 378.619673 230.561816 
L 380.500578 228.710424 
L 382.381482 226.612755 
L 384.262387 224.234442 
L 386.143291 221.538905 
L 388.024196 218.487991 
L 389.905101 215.042944 
L 391.786005 211.165808 
L 393.66691 206.821328 
L 395.547814 201.979432 
L 397.428719 196.618298 
L 399.309623 190.727979 
L 401.190528 184.314448 
L 403.071432 177.403862 
L 406.833241 162.321436 
L 414.356859 130.392465 
L 416.237764 123.075968 
L 418.118668 116.475072 
L 419.999573 110.832826 
L 421.880477 106.385471 
L 423.761382 103.349711 
L 425.642286 101.909913 
L 427.523191 102.20622 
L 429.404095 104.324586 
L 431.285 108.289636 
L 431.285 108.289636 
" style="fill:none;stroke:#0000ff;stroke-dasharray:5.55,2.4;stroke-dashoffset:0;stroke-width:1.5;"/>
   </g>
   <g id="line2d_14">
    <path clip-path="url(#p5152a545bd)" d="M 56.985 303.204776 
L 60.746809 302.790443 
L 64.508618 302.071435 
L 66.389523 301.552315 
L 68.270427 300.899202 
L 70.151332 300.090416 
L 72.032236 299.104663 
L 73.913141 297.922299 
L 75.794045 296.526762 
L 77.67495 294.906113 
L 79.555854 293.054543 
L 81.436759 290.973727 
L 83.317663 288.673878 
L 87.079472 283.503747 
L 90.841281 277.805506 
L 96.483995 269.105287 
L 100.245804 263.816643 
L 102.126709 261.464759 
L 104.007613 259.352225 
L 105.888518 257.499713 
L 107.769422 255.916997 
L 109.650327 254.603131 
L 111.531231 253.547308 
L 113.412136 252.730291 
L 115.29304 252.12627 
L 117.173945 251.704983 
L 119.054849 251.433924 
L 122.816658 251.213941 
L 128.459372 251.287639 
L 137.863894 251.674129 
L 141.625704 252.018397 
L 145.387513 252.648357 
L 147.268417 253.111035 
L 149.149322 253.689464 
L 151.030226 254.391945 
L 152.911131 255.221994 
L 156.67294 257.251557 
L 160.434749 259.694753 
L 171.720176 267.58502 
L 173.60108 268.679092 
L 175.481985 269.644098 
L 177.362889 270.465463 
L 179.243794 271.13472 
L 181.124698 271.649597 
L 183.005603 272.013679 
L 184.886508 272.235703 
L 186.767412 272.328541 
L 190.529221 272.191468 
L 194.29103 271.740882 
L 199.933744 270.747016 
L 209.338266 268.783917 
L 214.98098 267.451742 
L 220.623693 265.897933 
L 226.266407 264.052334 
L 231.909121 261.943837 
L 239.432739 259.085324 
L 243.194548 257.897794 
L 246.956357 257.06724 
L 248.837261 256.830077 
L 250.718166 256.731073 
L 252.59907 256.780637 
L 254.479975 256.98499 
L 256.360879 257.345638 
L 258.241784 257.859067 
L 260.122688 258.516663 
L 263.884497 260.20549 
L 267.646307 262.251902 
L 275.169925 266.541517 
L 278.931734 268.313799 
L 280.812638 269.013422 
L 282.693543 269.560887 
L 284.574447 269.940484 
L 286.455352 270.141167 
L 288.336256 270.156817 
L 290.217161 269.986337 
L 292.098065 269.633574 
L 293.97897 269.107062 
L 295.859874 268.4196 
L 297.740779 267.587675 
L 301.502588 265.570572 
L 305.264397 263.233022 
L 314.66892 257.170932 
L 318.430729 255.054191 
L 322.192538 253.277494 
L 325.954347 251.915573 
L 327.835251 251.408622 
L 329.716156 251.025334 
L 331.59706 250.769696 
L 333.477965 250.643807 
L 335.358869 250.647354 
L 337.239774 250.777081 
L 341.001583 251.384578 
L 344.763392 252.366981 
L 356.048819 255.777185 
L 357.929724 256.128902 
L 359.810628 256.347604 
L 361.691533 256.410016 
L 363.572437 256.294874 
L 365.453342 255.982807 
L 367.334246 255.456097 
L 369.215151 254.69835 
L 371.096055 253.694148 
L 372.97696 252.428724 
L 374.857864 250.887668 
L 376.738769 249.056665 
L 378.619673 246.921223 
L 380.500578 244.466351 
L 382.381482 241.676133 
L 384.262387 238.53318 
L 386.143291 235.017961 
L 388.024196 231.108115 
L 389.905101 226.777857 
L 391.786005 221.997723 
L 393.66691 216.734908 
L 395.547814 210.954509 
L 397.428719 204.621926 
L 399.309623 197.70664 
L 401.190528 190.187431 
L 403.071432 182.058882 
L 404.952337 173.338858 
L 408.714146 154.3587 
L 416.237764 114.290108 
L 418.118668 105.210202 
L 419.999573 97.123846 
L 421.880477 90.366492 
L 423.761382 85.259441 
L 425.642286 82.088833 
L 427.523191 81.085164 
L 429.404095 82.405255 
L 431.285 86.118472 
L 431.285 86.118472 
" style="fill:none;stroke:#0000ff;stroke-dasharray:9.6,2.4,1.5,2.4;stroke-dashoffset:0;stroke-width:1.5;"/>
   </g>
   <g id="line2d_15">
    <path clip-path="url(#p5152a545bd)" d="M 56.985 301.662419 
L 58.865905 301.101229 
L 60.746809 300.413007 
L 62.627714 299.578578 
L 64.508618 298.578419 
L 66.389523 297.393357 
L 68.270427 296.005395 
L 70.151332 294.398653 
L 72.032236 292.56037 
L 73.913141 290.481935 
L 75.794045 288.159874 
L 77.67495 285.596722 
L 79.555854 282.801728 
L 83.317663 276.58918 
L 87.079472 269.739805 
L 96.483995 252.08404 
L 100.245804 245.844897 
L 102.126709 243.082055 
L 104.007613 240.601514 
L 105.888518 238.427284 
L 107.769422 236.575329 
L 109.650327 235.053558 
L 111.531231 233.862205 
L 113.412136 232.994539 
L 115.29304 232.437821 
L 117.173945 232.174449 
L 119.054849 232.183168 
L 120.935754 232.440285 
L 122.816658 232.920791 
L 124.697563 233.599341 
L 126.578467 234.45104 
L 128.459372 235.452019 
L 132.221181 237.813428 
L 135.98299 240.522215 
L 141.625704 244.937523 
L 149.149322 250.869716 
L 152.911131 253.627438 
L 156.67294 256.138516 
L 160.434749 258.350904 
L 164.196558 260.241546 
L 167.958367 261.815938 
L 171.720176 263.10174 
L 175.481985 264.137776 
L 179.243794 264.961392 
L 183.005603 265.597724 
L 186.767412 266.053706 
L 190.529221 266.318082 
L 194.29103 266.366874 
L 198.052839 266.172465 
L 201.814648 265.713882 
L 205.576457 264.986127 
L 209.338266 264.007036 
L 213.100075 262.820779 
L 228.147312 257.674671 
L 231.909121 256.784033 
L 235.67093 256.207892 
L 239.432739 255.963403 
L 243.194548 256.017789 
L 248.837261 256.470446 
L 254.479975 256.984776 
L 258.241784 257.130664 
L 262.003593 256.9854 
L 265.765402 256.483944 
L 269.527211 255.618258 
L 273.28902 254.438219 
L 278.931734 252.304205 
L 284.574447 250.141434 
L 288.336256 248.915226 
L 292.098065 247.996332 
L 295.859874 247.462837 
L 299.621683 247.353016 
L 303.383492 247.66422 
L 307.145302 248.354916 
L 310.907111 249.349015 
L 316.549824 251.175121 
L 322.192538 253.019484 
L 325.954347 254.038599 
L 329.716156 254.750732 
L 333.477965 255.064237 
L 335.358869 255.051746 
L 337.239774 254.920418 
L 339.120678 254.668649 
L 341.001583 254.297089 
L 344.763392 253.207587 
L 348.525201 251.695627 
L 352.28701 249.82693 
L 356.048819 247.678707 
L 361.691533 244.097229 
L 367.334246 240.247313 
L 372.97696 236.15367 
L 376.738769 233.188698 
L 380.500578 229.881701 
L 382.381482 228.042742 
L 384.262387 226.045308 
L 386.143291 223.862392 
L 388.024196 221.467979 
L 389.905101 218.838751 
L 391.786005 215.955987 
L 393.66691 212.807591 
L 395.547814 209.390125 
L 399.309623 201.789014 
L 403.071432 193.36575 
L 410.59505 176.042467 
L 412.475955 172.147087 
L 414.356859 168.645612 
L 416.237764 165.653307 
L 418.118668 163.281692 
L 419.999573 161.633856 
L 421.880477 160.799821 
L 423.761382 160.85222 
L 425.642286 161.842545 
L 427.523191 163.798212 
L 429.404095 166.720629 
L 431.285 170.584428 
L 431.285 170.584428 
" style="fill:none;stroke:#00ffff;stroke-linecap:square;stroke-width:1.5;"/>
   </g>
   <g id="line2d_16">
    <path clip-path="url(#p5152a545bd)" d="M 56.985 303.334495 
L 60.746809 303.013755 
L 64.508618 302.43078 
L 66.389523 301.996646 
L 68.270427 301.439236 
L 70.151332 300.735456 
L 72.032236 299.861698 
L 73.913141 298.795067 
L 75.794045 297.514844 
L 77.67495 296.004125 
L 79.555854 294.251505 
L 81.436759 292.252672 
L 83.317663 290.011727 
L 85.198568 287.542088 
L 88.960377 282.018313 
L 94.60309 272.871019 
L 98.364899 266.783686 
L 102.126709 261.177808 
L 104.007613 258.659101 
L 105.888518 256.369956 
L 107.769422 254.329864 
L 109.650327 252.550253 
L 111.531231 251.035458 
L 113.412136 249.784052 
L 115.29304 248.790309 
L 117.173945 248.045573 
L 119.054849 247.539365 
L 120.935754 247.260083 
L 122.816658 247.195251 
L 124.697563 247.331347 
L 126.578467 247.653304 
L 128.459372 248.143835 
L 130.340276 248.782772 
L 134.102085 250.408316 
L 143.506608 255.074302 
L 147.268417 256.522423 
L 149.149322 257.060407 
L 151.030226 257.45919 
L 152.911131 257.715705 
L 154.792035 257.832969 
L 156.67294 257.819096 
L 160.434749 257.447916 
L 164.196558 256.717268 
L 167.958367 255.739391 
L 173.60108 253.987613 
L 188.648317 248.959212 
L 192.410126 248.06257 
L 196.171935 247.547279 
L 198.052839 247.465907 
L 199.933744 247.513531 
L 201.814648 247.693244 
L 203.695553 248.002951 
L 207.457362 248.97663 
L 211.219171 250.312211 
L 220.623693 253.971897 
L 224.385503 255.075272 
L 228.147312 255.808532 
L 231.909121 256.169023 
L 235.67093 256.215635 
L 239.432739 256.037725 
L 246.956357 255.34912 
L 256.360879 254.437573 
L 262.003593 254.111284 
L 265.765402 254.09254 
L 269.527211 254.300575 
L 273.28902 254.778571 
L 277.050829 255.537644 
L 280.812638 256.544423 
L 288.336256 258.948726 
L 293.97897 260.628909 
L 297.740779 261.500627 
L 301.502588 262.119448 
L 305.264397 262.488105 
L 309.026206 262.633651 
L 312.788015 262.582836 
L 316.549824 262.345445 
L 320.311633 261.915037 
L 324.073442 261.286551 
L 329.716156 260.026832 
L 339.120678 257.716793 
L 344.763392 256.636898 
L 354.167915 255.108854 
L 357.929724 254.213981 
L 361.691533 252.928489 
L 363.572437 252.100469 
L 365.453342 251.132944 
L 367.334246 250.016701 
L 369.215151 248.744361 
L 371.096055 247.309949 
L 372.97696 245.70846 
L 374.857864 243.935453 
L 376.738769 241.986684 
L 378.619673 239.857751 
L 380.500578 237.543715 
L 382.381482 235.038623 
L 384.262387 232.334898 
L 386.143291 229.422573 
L 388.024196 226.288414 
L 389.905101 222.915036 
L 391.786005 219.280201 
L 393.66691 215.356555 
L 395.547814 211.112104 
L 397.428719 206.511742 
L 399.309623 201.520086 
L 401.190528 196.105777 
L 403.071432 190.247216 
L 404.952337 183.939507 
L 408.714146 170.086394 
L 418.118668 133.506189 
L 419.999573 127.499102 
L 421.880477 122.566805 
L 423.761382 118.99238 
L 425.642286 117.030427 
L 427.523191 116.887351 
L 429.404095 118.7038 
L 431.285 122.541134 
L 431.285 122.541134 
" style="fill:none;stroke:#00ffff;stroke-dasharray:5.55,2.4;stroke-dashoffset:0;stroke-width:1.5;"/>
   </g>
   <g id="line2d_17">
    <path clip-path="url(#p5152a545bd)" d="M 61.631453 303.301258 
L 65.346564 302.888926 
L 67.20412 302.552694 
L 69.061675 302.095109 
L 70.919231 301.485463 
L 72.776786 300.690439 
L 74.634342 299.675826 
L 76.491897 298.408923 
L 78.349453 296.861512 
L 80.207008 295.013237 
L 82.064564 292.855058 
L 83.922119 290.392383 
L 85.779675 287.647424 
L 89.494786 281.488803 
L 96.925008 268.556233 
L 98.782564 265.700204 
L 100.640119 263.151446 
L 102.497675 260.962364 
L 104.35523 259.16427 
L 106.212786 257.766311 
L 108.070341 256.756559 
L 109.927897 256.105028 
L 111.785452 255.768147 
L 113.643008 255.69408 
L 115.500563 255.828192 
L 119.215674 256.517373 
L 122.930785 257.505041 
L 130.361007 259.791195 
L 135.933674 261.748623 
L 143.363896 264.70761 
L 148.936562 266.892374 
L 152.651673 268.137774 
L 156.366784 269.111387 
L 160.081895 269.763334 
L 163.797006 270.083628 
L 167.512117 270.098704 
L 171.227228 269.86212 
L 176.799895 269.185452 
L 191.660339 267.036535 
L 195.37545 266.724812 
L 199.090561 266.612745 
L 202.805672 266.747956 
L 206.520783 267.156831 
L 210.235894 267.829735 
L 215.808561 269.198003 
L 221.381227 270.636423 
L 225.096338 271.366868 
L 226.953894 271.60008 
L 228.811449 271.720509 
L 230.669005 271.713721 
L 232.52656 271.569972 
L 234.384116 271.285176 
L 236.241671 270.86157 
L 239.956782 269.639602 
L 243.671893 268.046117 
L 251.102115 264.596341 
L 254.817226 263.146581 
L 258.532337 262.045492 
L 262.247449 261.311293 
L 265.96256 260.89512 
L 269.677671 260.714541 
L 275.250337 260.714189 
L 280.823004 260.922982 
L 284.538115 261.200888 
L 288.253226 261.650021 
L 291.968337 262.321352 
L 295.683448 263.226296 
L 306.828781 266.404533 
L 310.543892 267.029464 
L 312.401447 267.158264 
L 314.259003 267.145678 
L 316.116558 266.984738 
L 317.974114 266.674607 
L 319.831669 266.220367 
L 321.689225 265.632465 
L 325.404336 264.119338 
L 329.119447 262.292758 
L 336.549669 258.43324 
L 340.26478 256.738068 
L 343.979891 255.362145 
L 347.695002 254.358253 
L 351.410113 253.714105 
L 355.125224 253.351876 
L 364.413002 252.683777 
L 368.128113 252.01512 
L 369.985668 251.504411 
L 371.843224 250.852476 
L 373.700779 250.044969 
L 375.558335 249.069572 
L 377.41589 247.914773 
L 379.273446 246.568113 
L 381.131001 245.01397 
L 382.988557 243.231011 
L 384.846112 241.189465 
L 386.703668 238.848421 
L 388.561223 236.153364 
L 390.418779 233.034203 
L 392.276334 229.404095 
L 394.13389 225.159419 
L 395.991445 220.181312 
L 397.849001 214.339263 
L 399.706556 207.497236 
L 401.564112 199.522762 
L 403.421667 190.299246 
L 405.279223 179.741409 
L 407.136778 167.813288 
L 408.994334 154.547642 
L 410.851889 140.064895 
L 414.567 108.458699 
L 418.282111 76.155065 
L 420.139667 61.186496 
L 421.997222 47.915724 
L 423.854778 37.041204 
L 425.712333 29.213043 
L 427.569889 24.978276 
L 429.427444 24.730214 
L 431.285 28.668116 
L 431.285 28.668116 
" style="fill:none;stroke:#00ffff;stroke-dasharray:9.6,2.4,1.5,2.4;stroke-dashoffset:0;stroke-width:1.5;"/>
   </g>
   <g id="line2d_18">
    <path clip-path="url(#p5152a545bd)" d="M 56.985 302.735056 
L 60.746809 302.150888 
L 64.508618 301.279304 
L 68.270427 300.032169 
L 70.151332 299.239682 
L 72.032236 298.32051 
L 73.913141 297.265431 
L 75.794045 296.06686 
L 77.67495 294.719327 
L 79.555854 293.219938 
L 81.436759 291.568777 
L 85.198568 287.828285 
L 88.960377 283.568253 
L 92.722186 278.916725 
L 104.007613 264.572491 
L 107.769422 260.420092 
L 109.650327 258.585044 
L 111.531231 256.940769 
L 113.412136 255.505819 
L 115.29304 254.295105 
L 117.173945 253.319589 
L 119.054849 252.586073 
L 120.935754 252.097078 
L 122.816658 251.850822 
L 124.697563 251.841285 
L 126.578467 252.058379 
L 128.459372 252.48821 
L 130.340276 253.113433 
L 132.221181 253.913694 
L 134.102085 254.866149 
L 137.863894 257.127353 
L 143.506608 261.013841 
L 149.149322 264.886227 
L 152.911131 267.175966 
L 156.67294 269.088624 
L 160.434749 270.546853 
L 162.315653 271.091502 
L 164.196558 271.509677 
L 166.077462 271.800911 
L 167.958367 271.966297 
L 169.839271 272.008411 
L 171.720176 271.931317 
L 175.481985 271.443668 
L 179.243794 270.569456 
L 183.005603 269.406538 
L 192.410126 266.168923 
L 196.171935 265.183928 
L 198.052839 264.83756 
L 199.933744 264.607501 
L 201.814648 264.502181 
L 203.695553 264.524423 
L 205.576457 264.670857 
L 209.338266 265.290404 
L 214.98098 266.70537 
L 218.742789 267.608729 
L 220.623693 267.941676 
L 222.504598 268.14962 
L 224.385503 268.202392 
L 226.266407 268.075029 
L 228.147312 267.749047 
L 230.028216 267.213416 
L 231.909121 266.465176 
L 233.790025 265.509691 
L 235.67093 264.36051 
L 237.551834 263.038865 
L 241.313643 259.996198 
L 250.718166 251.854141 
L 252.59907 250.457297 
L 254.479975 249.220052 
L 256.360879 248.167579 
L 258.241784 247.318036 
L 260.122688 246.681886 
L 262.003593 246.261483 
L 263.884497 246.050956 
L 265.765402 246.036382 
L 267.646307 246.196257 
L 271.408116 246.920275 
L 280.812638 249.274146 
L 282.693543 249.513325 
L 284.574447 249.595707 
L 286.455352 249.499997 
L 288.336256 249.213845 
L 290.217161 248.734641 
L 292.098065 248.06981 
L 293.97897 247.236557 
L 297.740779 245.176821 
L 305.264397 240.570447 
L 309.026206 238.662145 
L 310.907111 237.90908 
L 312.788015 237.304524 
L 314.66892 236.844776 
L 318.430729 236.286188 
L 325.954347 235.566445 
L 327.835251 235.187147 
L 329.716156 234.629522 
L 331.59706 233.852685 
L 333.477965 232.824684 
L 335.358869 231.524413 
L 337.239774 229.942921 
L 339.120678 228.084076 
L 341.001583 225.964554 
L 342.882487 223.613198 
L 346.644296 218.383297 
L 354.167915 207.383183 
L 356.048819 204.877919 
L 357.929724 202.585458 
L 359.810628 200.552581 
L 361.691533 198.816911 
L 363.572437 197.405535 
L 365.453342 196.33404 
L 367.334246 195.605975 
L 369.215151 195.212756 
L 371.096055 195.133988 
L 372.97696 195.338201 
L 374.857864 195.783956 
L 376.738769 196.421285 
L 380.500578 198.038806 
L 384.262387 199.691993 
L 386.143291 200.372625 
L 388.024196 200.876876 
L 389.905101 201.153221 
L 391.786005 201.159006 
L 393.66691 200.862434 
L 395.547814 200.244287 
L 397.428719 199.29931 
L 399.309623 198.037187 
L 401.190528 196.483051 
L 403.071432 194.677466 
L 406.833241 190.547298 
L 410.59505 186.242927 
L 412.475955 184.254893 
L 414.356859 182.50929 
L 416.237764 181.106402 
L 418.118668 180.142366 
L 419.999573 179.705292 
L 421.880477 179.871546 
L 423.761382 180.702379 
L 425.642286 182.241085 
L 427.523191 184.510856 
L 429.404095 187.51347 
L 431.285 191.22891 
L 431.285 191.22891 
" style="fill:none;stroke:#ff7f00;stroke-dasharray:1.5,2.475;stroke-dashoffset:0;stroke-width:1.5;"/>
   </g>
   <g id="patch_3">
    <path d="M 38.27 303.64 
L 38.27 10.8 
" style="fill:none;stroke:#000000;stroke-linecap:square;stroke-linejoin:miter;stroke-width:0.8;"/>
   </g>
   <g id="patch_4">
    <path d="M 450 303.64 
L 450 10.8 
" style="fill:none;stroke:#000000;stroke-linecap:square;stroke-linejoin:miter;stroke-width:0.8;"/>
   </g>
   <g id="patch_5">
    <path d="M 38.27 303.64 
L 450 303.64 
" style="fill:none;stroke:#000000;stroke-linecap:square;stroke-linejoin:miter;stroke-width:0.8;"/>
   </g>
   <g id="patch_6">
    <path d="M 38.27 10.8 
L 450 10.8 
" style="fill:none;stroke:#000000;stroke-linecap:square;stroke-linejoin:miter;stroke-width:0.8;"/>
   </g>
   <g id="legend_1">
    <g id="patch_7">
     <path d="M 45.27 199.931562 
L 146.693438 199.931562 
Q 148.693438 199.931562 148.693438 197.931562 
L 148.693438 17.8 
Q 148.693438 15.8 146.693438 15.8 
L 45.27 15.8 
Q 43.27 15.8 43.27 17.8 
L 43.27 197.931562 
Q 43.27 199.931562 45.27 199.931562 
z
" style="fill:#ffffff;opacity:0.8;stroke:#cccccc;stroke-linejoin:miter;"/>
    </g>
    <g id="line2d_19">
     <path d="M 47.27 30.537188 
L 67.27 30.537188 
" style="fill:none;stroke:#0000ff;stroke-linecap:square;stroke-width:1.5;"/>
    </g>
    <g id="line2d_20"/>
    <g id="text_14">
     <!-- 2 Clustered  -->
     <g transform="translate(75.27 27.398438)scale(0.1 -0.1)">
      <defs>
       <path d="M 544 1381 
L 544 3500 
L 1119 3500 
L 1119 1403 
Q 1119 906 1312 657 
Q 1506 409 1894 409 
Q 2359 409 2629 706 
Q 2900 1003 2900 1516 
L 2900 3500 
L 3475 3500 
L 3475 0 
L 2900 0 
L 2900 538 
Q 2691 219 2414 64 
Q 2138 -91 1772 -91 
Q 1169 -91 856 284 
Q 544 659 544 1381 
z
M 1991 3584 
L 1991 3584 
z
" id="DejaVuSans-75" transform="scale(0.015625)"/>
      </defs>
      <use xlink:href="#DejaVuSans-32"/>
      <use x="63.623047" xlink:href="#DejaVuSans-20"/>
      <use x="95.410156" xlink:href="#DejaVuSans-43"/>
      <use x="165.234375" xlink:href="#DejaVuSans-6c"/>
      <use x="193.017578" xlink:href="#DejaVuSans-75"/>
      <use x="256.396484" xlink:href="#DejaVuSans-73"/>
      <use x="308.496094" xlink:href="#DejaVuSans-74"/>
      <use x="347.705078" xlink:href="#DejaVuSans-65"/>
      <use x="409.228516" xlink:href="#DejaVuSans-72"/>
      <use x="448.091797" xlink:href="#DejaVuSans-65"/>
      <use x="509.615234" xlink:href="#DejaVuSans-64"/>
      <use x="573.091797" xlink:href="#DejaVuSans-20"/>
     </g>
     <!--  n=314 -->
     <g transform="translate(75.27 38.59625)scale(0.1 -0.1)">
      <defs>
       <path d="M 678 2906 
L 4684 2906 
L 4684 2381 
L 678 2381 
L 678 2906 
z
M 678 1631 
L 4684 1631 
L 4684 1100 
L 678 1100 
L 678 1631 
z
" id="DejaVuSans-3d" transform="scale(0.015625)"/>
      </defs>
      <use xlink:href="#DejaVuSans-20"/>
      <use x="31.787109" xlink:href="#DejaVuSans-6e"/>
      <use x="95.166016" xlink:href="#DejaVuSans-3d"/>
      <use x="178.955078" xlink:href="#DejaVuSans-33"/>
      <use x="242.578125" xlink:href="#DejaVuSans-31"/>
      <use x="306.201172" xlink:href="#DejaVuSans-34"/>
     </g>
    </g>
    <g id="line2d_21">
     <path d="M 47.27 56.413125 
L 67.27 56.413125 
" style="fill:none;stroke:#0000ff;stroke-dasharray:5.55,2.4;stroke-dashoffset:0;stroke-width:1.5;"/>
    </g>
    <g id="line2d_22"/>
    <g id="text_15">
     <!-- 3 Clustered  -->
     <g transform="translate(75.27 53.274375)scale(0.1 -0.1)">
      <use xlink:href="#DejaVuSans-33"/>
      <use x="63.623047" xlink:href="#DejaVuSans-20"/>
      <use x="95.410156" xlink:href="#DejaVuSans-43"/>
      <use x="165.234375" xlink:href="#DejaVuSans-6c"/>
      <use x="193.017578" xlink:href="#DejaVuSans-75"/>
      <use x="256.396484" xlink:href="#DejaVuSans-73"/>
      <use x="308.496094" xlink:href="#DejaVuSans-74"/>
      <use x="347.705078" xlink:href="#DejaVuSans-65"/>
      <use x="409.228516" xlink:href="#DejaVuSans-72"/>
      <use x="448.091797" xlink:href="#DejaVuSans-65"/>
      <use x="509.615234" xlink:href="#DejaVuSans-64"/>
      <use x="573.091797" xlink:href="#DejaVuSans-20"/>
     </g>
     <!--  n=460 -->
     <g transform="translate(75.27 64.472187)scale(0.1 -0.1)">
      <use xlink:href="#DejaVuSans-20"/>
      <use x="31.787109" xlink:href="#DejaVuSans-6e"/>
      <use x="95.166016" xlink:href="#DejaVuSans-3d"/>
      <use x="178.955078" xlink:href="#DejaVuSans-34"/>
      <use x="242.578125" xlink:href="#DejaVuSans-36"/>
      <use x="306.201172" xlink:href="#DejaVuSans-30"/>
     </g>
    </g>
    <g id="line2d_23">
     <path d="M 47.27 82.289062 
L 67.27 82.289062 
" style="fill:none;stroke:#0000ff;stroke-dasharray:9.6,2.4,1.5,2.4;stroke-dashoffset:0;stroke-width:1.5;"/>
    </g>
    <g id="line2d_24"/>
    <g id="text_16">
     <!-- 4 Clustered  -->
     <g transform="translate(75.27 79.150312)scale(0.1 -0.1)">
      <use xlink:href="#DejaVuSans-34"/>
      <use x="63.623047" xlink:href="#DejaVuSans-20"/>
      <use x="95.410156" xlink:href="#DejaVuSans-43"/>
      <use x="165.234375" xlink:href="#DejaVuSans-6c"/>
      <use x="193.017578" xlink:href="#DejaVuSans-75"/>
      <use x="256.396484" xlink:href="#DejaVuSans-73"/>
      <use x="308.496094" xlink:href="#DejaVuSans-74"/>
      <use x="347.705078" xlink:href="#DejaVuSans-65"/>
      <use x="409.228516" xlink:href="#DejaVuSans-72"/>
      <use x="448.091797" xlink:href="#DejaVuSans-65"/>
      <use x="509.615234" xlink:href="#DejaVuSans-64"/>
      <use x="573.091797" xlink:href="#DejaVuSans-20"/>
     </g>
     <!--  n=636 -->
     <g transform="translate(75.27 90.348125)scale(0.1 -0.1)">
      <use xlink:href="#DejaVuSans-20"/>
      <use x="31.787109" xlink:href="#DejaVuSans-6e"/>
      <use x="95.166016" xlink:href="#DejaVuSans-3d"/>
      <use x="178.955078" xlink:href="#DejaVuSans-36"/>
      <use x="242.578125" xlink:href="#DejaVuSans-33"/>
      <use x="306.201172" xlink:href="#DejaVuSans-36"/>
     </g>
    </g>
    <g id="line2d_25">
     <path d="M 47.27 108.165 
L 67.27 108.165 
" style="fill:none;stroke:#00ffff;stroke-linecap:square;stroke-width:1.5;"/>
    </g>
    <g id="line2d_26"/>
    <g id="text_17">
     <!-- 2 Random  -->
     <g transform="translate(75.27 105.02625)scale(0.1 -0.1)">
      <defs>
       <path d="M 2841 2188 
Q 3044 2119 3236 1894 
Q 3428 1669 3622 1275 
L 4263 0 
L 3584 0 
L 2988 1197 
Q 2756 1666 2539 1819 
Q 2322 1972 1947 1972 
L 1259 1972 
L 1259 0 
L 628 0 
L 628 4666 
L 2053 4666 
Q 2853 4666 3247 4331 
Q 3641 3997 3641 3322 
Q 3641 2881 3436 2590 
Q 3231 2300 2841 2188 
z
M 1259 4147 
L 1259 2491 
L 2053 2491 
Q 2509 2491 2742 2702 
Q 2975 2913 2975 3322 
Q 2975 3731 2742 3939 
Q 2509 4147 2053 4147 
L 1259 4147 
z
" id="DejaVuSans-52" transform="scale(0.015625)"/>
       <path d="M 2194 1759 
Q 1497 1759 1228 1600 
Q 959 1441 959 1056 
Q 959 750 1161 570 
Q 1363 391 1709 391 
Q 2188 391 2477 730 
Q 2766 1069 2766 1631 
L 2766 1759 
L 2194 1759 
z
M 3341 1997 
L 3341 0 
L 2766 0 
L 2766 531 
Q 2569 213 2275 61 
Q 1981 -91 1556 -91 
Q 1019 -91 701 211 
Q 384 513 384 1019 
Q 384 1609 779 1909 
Q 1175 2209 1959 2209 
L 2766 2209 
L 2766 2266 
Q 2766 2663 2505 2880 
Q 2244 3097 1772 3097 
Q 1472 3097 1187 3025 
Q 903 2953 641 2809 
L 641 3341 
Q 956 3463 1253 3523 
Q 1550 3584 1831 3584 
Q 2591 3584 2966 3190 
Q 3341 2797 3341 1997 
z
" id="DejaVuSans-61" transform="scale(0.015625)"/>
       <path d="M 1959 3097 
Q 1497 3097 1228 2736 
Q 959 2375 959 1747 
Q 959 1119 1226 758 
Q 1494 397 1959 397 
Q 2419 397 2687 759 
Q 2956 1122 2956 1747 
Q 2956 2369 2687 2733 
Q 2419 3097 1959 3097 
z
M 1959 3584 
Q 2709 3584 3137 3096 
Q 3566 2609 3566 1747 
Q 3566 888 3137 398 
Q 2709 -91 1959 -91 
Q 1206 -91 779 398 
Q 353 888 353 1747 
Q 353 2609 779 3096 
Q 1206 3584 1959 3584 
z
" id="DejaVuSans-6f" transform="scale(0.015625)"/>
       <path d="M 3328 2828 
Q 3544 3216 3844 3400 
Q 4144 3584 4550 3584 
Q 5097 3584 5394 3201 
Q 5691 2819 5691 2113 
L 5691 0 
L 5113 0 
L 5113 2094 
Q 5113 2597 4934 2840 
Q 4756 3084 4391 3084 
Q 3944 3084 3684 2787 
Q 3425 2491 3425 1978 
L 3425 0 
L 2847 0 
L 2847 2094 
Q 2847 2600 2669 2842 
Q 2491 3084 2119 3084 
Q 1678 3084 1418 2786 
Q 1159 2488 1159 1978 
L 1159 0 
L 581 0 
L 581 3500 
L 1159 3500 
L 1159 2956 
Q 1356 3278 1631 3431 
Q 1906 3584 2284 3584 
Q 2666 3584 2933 3390 
Q 3200 3197 3328 2828 
z
" id="DejaVuSans-6d" transform="scale(0.015625)"/>
      </defs>
      <use xlink:href="#DejaVuSans-32"/>
      <use x="63.623047" xlink:href="#DejaVuSans-20"/>
      <use x="95.410156" xlink:href="#DejaVuSans-52"/>
      <use x="162.642578" xlink:href="#DejaVuSans-61"/>
      <use x="223.921875" xlink:href="#DejaVuSans-6e"/>
      <use x="287.300781" xlink:href="#DejaVuSans-64"/>
      <use x="350.777344" xlink:href="#DejaVuSans-6f"/>
      <use x="411.958984" xlink:href="#DejaVuSans-6d"/>
      <use x="509.371094" xlink:href="#DejaVuSans-20"/>
     </g>
     <!--  n=313 -->
     <g transform="translate(75.27 116.224063)scale(0.1 -0.1)">
      <use xlink:href="#DejaVuSans-20"/>
      <use x="31.787109" xlink:href="#DejaVuSans-6e"/>
      <use x="95.166016" xlink:href="#DejaVuSans-3d"/>
      <use x="178.955078" xlink:href="#DejaVuSans-33"/>
      <use x="242.578125" xlink:href="#DejaVuSans-31"/>
      <use x="306.201172" xlink:href="#DejaVuSans-33"/>
     </g>
    </g>
    <g id="line2d_27">
     <path d="M 47.27 134.040938 
L 67.27 134.040938 
" style="fill:none;stroke:#00ffff;stroke-dasharray:5.55,2.4;stroke-dashoffset:0;stroke-width:1.5;"/>
    </g>
    <g id="line2d_28"/>
    <g id="text_18">
     <!-- 3 Random  -->
     <g transform="translate(75.27 130.902188)scale(0.1 -0.1)">
      <use xlink:href="#DejaVuSans-33"/>
      <use x="63.623047" xlink:href="#DejaVuSans-20"/>
      <use x="95.410156" xlink:href="#DejaVuSans-52"/>
      <use x="162.642578" xlink:href="#DejaVuSans-61"/>
      <use x="223.921875" xlink:href="#DejaVuSans-6e"/>
      <use x="287.300781" xlink:href="#DejaVuSans-64"/>
      <use x="350.777344" xlink:href="#DejaVuSans-6f"/>
      <use x="411.958984" xlink:href="#DejaVuSans-6d"/>
      <use x="509.371094" xlink:href="#DejaVuSans-20"/>
     </g>
     <!--  n=741 -->
     <g transform="translate(75.27 142.1)scale(0.1 -0.1)">
      <defs>
       <path d="M 525 4666 
L 3525 4666 
L 3525 4397 
L 1831 0 
L 1172 0 
L 2766 4134 
L 525 4134 
L 525 4666 
z
" id="DejaVuSans-37" transform="scale(0.015625)"/>
      </defs>
      <use xlink:href="#DejaVuSans-20"/>
      <use x="31.787109" xlink:href="#DejaVuSans-6e"/>
      <use x="95.166016" xlink:href="#DejaVuSans-3d"/>
      <use x="178.955078" xlink:href="#DejaVuSans-37"/>
      <use x="242.578125" xlink:href="#DejaVuSans-34"/>
      <use x="306.201172" xlink:href="#DejaVuSans-31"/>
     </g>
    </g>
    <g id="line2d_29">
     <path d="M 47.27 159.916875 
L 67.27 159.916875 
" style="fill:none;stroke:#00ffff;stroke-dasharray:9.6,2.4,1.5,2.4;stroke-dashoffset:0;stroke-width:1.5;"/>
    </g>
    <g id="line2d_30"/>
    <g id="text_19">
     <!-- 4 Random  -->
     <g transform="translate(75.27 156.778125)scale(0.1 -0.1)">
      <use xlink:href="#DejaVuSans-34"/>
      <use x="63.623047" xlink:href="#DejaVuSans-20"/>
      <use x="95.410156" xlink:href="#DejaVuSans-52"/>
      <use x="162.642578" xlink:href="#DejaVuSans-61"/>
      <use x="223.921875" xlink:href="#DejaVuSans-6e"/>
      <use x="287.300781" xlink:href="#DejaVuSans-64"/>
      <use x="350.777344" xlink:href="#DejaVuSans-6f"/>
      <use x="411.958984" xlink:href="#DejaVuSans-6d"/>
      <use x="509.371094" xlink:href="#DejaVuSans-20"/>
     </g>
     <!--  n=1250 -->
     <g transform="translate(75.27 167.975938)scale(0.1 -0.1)">
      <defs>
       <path d="M 691 4666 
L 3169 4666 
L 3169 4134 
L 1269 4134 
L 1269 2991 
Q 1406 3038 1543 3061 
Q 1681 3084 1819 3084 
Q 2600 3084 3056 2656 
Q 3513 2228 3513 1497 
Q 3513 744 3044 326 
Q 2575 -91 1722 -91 
Q 1428 -91 1123 -41 
Q 819 9 494 109 
L 494 744 
Q 775 591 1075 516 
Q 1375 441 1709 441 
Q 2250 441 2565 725 
Q 2881 1009 2881 1497 
Q 2881 1984 2565 2268 
Q 2250 2553 1709 2553 
Q 1456 2553 1204 2497 
Q 953 2441 691 2322 
L 691 4666 
z
" id="DejaVuSans-35" transform="scale(0.015625)"/>
      </defs>
      <use xlink:href="#DejaVuSans-20"/>
      <use x="31.787109" xlink:href="#DejaVuSans-6e"/>
      <use x="95.166016" xlink:href="#DejaVuSans-3d"/>
      <use x="178.955078" xlink:href="#DejaVuSans-31"/>
      <use x="242.578125" xlink:href="#DejaVuSans-32"/>
      <use x="306.201172" xlink:href="#DejaVuSans-35"/>
      <use x="369.824219" xlink:href="#DejaVuSans-30"/>
     </g>
    </g>
    <g id="line2d_31">
     <path d="M 47.27 185.792812 
L 67.27 185.792812 
" style="fill:none;stroke:#ff7f00;stroke-dasharray:1.5,2.475;stroke-dashoffset:0;stroke-width:1.5;"/>
    </g>
    <g id="line2d_32"/>
    <g id="text_20">
     <!-- All Credibility  -->
     <g transform="translate(75.27 182.654063)scale(0.1 -0.1)">
      <defs>
       <path d="M 2188 4044 
L 1331 1722 
L 3047 1722 
L 2188 4044 
z
M 1831 4666 
L 2547 4666 
L 4325 0 
L 3669 0 
L 3244 1197 
L 1141 1197 
L 716 0 
L 50 0 
L 1831 4666 
z
" id="DejaVuSans-41" transform="scale(0.015625)"/>
      </defs>
      <use xlink:href="#DejaVuSans-41"/>
      <use x="68.408203" xlink:href="#DejaVuSans-6c"/>
      <use x="96.191406" xlink:href="#DejaVuSans-6c"/>
      <use x="123.974609" xlink:href="#DejaVuSans-20"/>
      <use x="155.761719" xlink:href="#DejaVuSans-43"/>
      <use x="225.585938" xlink:href="#DejaVuSans-72"/>
      <use x="264.449219" xlink:href="#DejaVuSans-65"/>
      <use x="325.972656" xlink:href="#DejaVuSans-64"/>
      <use x="389.449219" xlink:href="#DejaVuSans-69"/>
      <use x="417.232422" xlink:href="#DejaVuSans-62"/>
      <use x="480.708984" xlink:href="#DejaVuSans-69"/>
      <use x="508.492188" xlink:href="#DejaVuSans-6c"/>
      <use x="536.275391" xlink:href="#DejaVuSans-69"/>
      <use x="564.058594" xlink:href="#DejaVuSans-74"/>
      <use x="603.267578" xlink:href="#DejaVuSans-79"/>
      <use x="662.447266" xlink:href="#DejaVuSans-20"/>
     </g>
     <!--   n=171 -->
     <g transform="translate(75.27 193.851875)scale(0.1 -0.1)">
      <use xlink:href="#DejaVuSans-20"/>
      <use x="31.787109" xlink:href="#DejaVuSans-20"/>
      <use x="63.574219" xlink:href="#DejaVuSans-6e"/>
      <use x="126.953125" xlink:href="#DejaVuSans-3d"/>
      <use x="210.742188" xlink:href="#DejaVuSans-31"/>
      <use x="274.365234" xlink:href="#DejaVuSans-37"/>
      <use x="337.988281" xlink:href="#DejaVuSans-31"/>
     </g>
    </g>
   </g>
  </g>
 </g>
 <defs>
  <clipPath id="p5152a545bd">
   <rect height="292.84" width="411.73" x="38.27" y="10.8"/>
  </clipPath>
 </defs>
</svg>
