<?xml version="1.0" encoding="utf-8" standalone="no"?>
<!DOCTYPE svg PUBLIC "-//W3C//DTD SVG 1.1//EN"
  "http://www.w3.org/Graphics/SVG/1.1/DTD/svg11.dtd">
<svg height="345.6pt" version="1.1" viewBox="0 0 460.8 345.6" width="460.8pt" xmlns="http://www.w3.org/2000/svg" xmlns:xlink="http://www.w3.org/1999/xlink">
 <metadata>
  <rdf:RDF xmlns:cc="http://creativecommons.org/ns#" xmlns:dc="http://purl.org/dc/elements/1.1/" xmlns:rdf="http://www.w3.org/1999/02/22-rdf-syntax-ns#">
   <cc:Work>
    <dc:type rdf:resource="http://purl.org/dc/dcmitype/StillImage"/>
    <dc:date>2021-12-06T09:46:20.597645</dc:date>
    <dc:format>image/svg+xml</dc:format>
    <dc:creator>
     <cc:Agent>
      <dc:title>Matplotlib v3.4.3, https://matplotlib.org/</dc:title>
     </cc:Agent>
    </dc:creator>
   </cc:Work>
  </rdf:RDF>
 </metadata>
 <defs>
  <style type="text/css">*{stroke-linecap:butt;stroke-linejoin:round;}</style>
 </defs>
 <g id="figure_1">
  <g id="patch_1">
   <path d="M 0 345.6 
L 460.8 345.6 
L 460.8 0 
L 0 0 
z
" style="fill:#ffffff;"/>
  </g>
  <g id="axes_1">
   <g id="patch_2">
    <path d="M 38.27 303.64 
L 450 303.64 
L 450 10.8 
L 38.27 10.8 
z
" style="fill:#ffffff;"/>
   </g>
   <g id="matplotlib.axis_1">
    <g id="xtick_1">
     <g id="line2d_1">
      <defs>
       <path d="M 0 0 
L 0 3.5 
" id="md6da6c7225" style="stroke:#000000;stroke-width:0.8;"/>
      </defs>
      <g>
       <use style="stroke:#000000;stroke-width:0.8;" x="56.985" xlink:href="#md6da6c7225" y="303.64"/>
      </g>
     </g>
     <g id="text_1">
      <!-- 0.0 -->
      <g transform="translate(49.033437 318.238437)scale(0.1 -0.1)">
       <defs>
        <path d="M 2034 4250 
Q 1547 4250 1301 3770 
Q 1056 3291 1056 2328 
Q 1056 1369 1301 889 
Q 1547 409 2034 409 
Q 2525 409 2770 889 
Q 3016 1369 3016 2328 
Q 3016 3291 2770 3770 
Q 2525 4250 2034 4250 
z
M 2034 4750 
Q 2819 4750 3233 4129 
Q 3647 3509 3647 2328 
Q 3647 1150 3233 529 
Q 2819 -91 2034 -91 
Q 1250 -91 836 529 
Q 422 1150 422 2328 
Q 422 3509 836 4129 
Q 1250 4750 2034 4750 
z
" id="DejaVuSans-30" transform="scale(0.015625)"/>
        <path d="M 684 794 
L 1344 794 
L 1344 0 
L 684 0 
L 684 794 
z
" id="DejaVuSans-2e" transform="scale(0.015625)"/>
       </defs>
       <use xlink:href="#DejaVuSans-30"/>
       <use x="63.623047" xlink:href="#DejaVuSans-2e"/>
       <use x="95.410156" xlink:href="#DejaVuSans-30"/>
      </g>
     </g>
    </g>
    <g id="xtick_2">
     <g id="line2d_2">
      <g>
       <use style="stroke:#000000;stroke-width:0.8;" x="131.845" xlink:href="#md6da6c7225" y="303.64"/>
      </g>
     </g>
     <g id="text_2">
      <!-- 0.2 -->
      <g transform="translate(123.893438 318.238437)scale(0.1 -0.1)">
       <defs>
        <path d="M 1228 531 
L 3431 531 
L 3431 0 
L 469 0 
L 469 531 
Q 828 903 1448 1529 
Q 2069 2156 2228 2338 
Q 2531 2678 2651 2914 
Q 2772 3150 2772 3378 
Q 2772 3750 2511 3984 
Q 2250 4219 1831 4219 
Q 1534 4219 1204 4116 
Q 875 4013 500 3803 
L 500 4441 
Q 881 4594 1212 4672 
Q 1544 4750 1819 4750 
Q 2544 4750 2975 4387 
Q 3406 4025 3406 3419 
Q 3406 3131 3298 2873 
Q 3191 2616 2906 2266 
Q 2828 2175 2409 1742 
Q 1991 1309 1228 531 
z
" id="DejaVuSans-32" transform="scale(0.015625)"/>
       </defs>
       <use xlink:href="#DejaVuSans-30"/>
       <use x="63.623047" xlink:href="#DejaVuSans-2e"/>
       <use x="95.410156" xlink:href="#DejaVuSans-32"/>
      </g>
     </g>
    </g>
    <g id="xtick_3">
     <g id="line2d_3">
      <g>
       <use style="stroke:#000000;stroke-width:0.8;" x="206.705" xlink:href="#md6da6c7225" y="303.64"/>
      </g>
     </g>
     <g id="text_3">
      <!-- 0.4 -->
      <g transform="translate(198.753438 318.238437)scale(0.1 -0.1)">
       <defs>
        <path d="M 2419 4116 
L 825 1625 
L 2419 1625 
L 2419 4116 
z
M 2253 4666 
L 3047 4666 
L 3047 1625 
L 3713 1625 
L 3713 1100 
L 3047 1100 
L 3047 0 
L 2419 0 
L 2419 1100 
L 313 1100 
L 313 1709 
L 2253 4666 
z
" id="DejaVuSans-34" transform="scale(0.015625)"/>
       </defs>
       <use xlink:href="#DejaVuSans-30"/>
       <use x="63.623047" xlink:href="#DejaVuSans-2e"/>
       <use x="95.410156" xlink:href="#DejaVuSans-34"/>
      </g>
     </g>
    </g>
    <g id="xtick_4">
     <g id="line2d_4">
      <g>
       <use style="stroke:#000000;stroke-width:0.8;" x="281.565" xlink:href="#md6da6c7225" y="303.64"/>
      </g>
     </g>
     <g id="text_4">
      <!-- 0.6 -->
      <g transform="translate(273.613438 318.238437)scale(0.1 -0.1)">
       <defs>
        <path d="M 2113 2584 
Q 1688 2584 1439 2293 
Q 1191 2003 1191 1497 
Q 1191 994 1439 701 
Q 1688 409 2113 409 
Q 2538 409 2786 701 
Q 3034 994 3034 1497 
Q 3034 2003 2786 2293 
Q 2538 2584 2113 2584 
z
M 3366 4563 
L 3366 3988 
Q 3128 4100 2886 4159 
Q 2644 4219 2406 4219 
Q 1781 4219 1451 3797 
Q 1122 3375 1075 2522 
Q 1259 2794 1537 2939 
Q 1816 3084 2150 3084 
Q 2853 3084 3261 2657 
Q 3669 2231 3669 1497 
Q 3669 778 3244 343 
Q 2819 -91 2113 -91 
Q 1303 -91 875 529 
Q 447 1150 447 2328 
Q 447 3434 972 4092 
Q 1497 4750 2381 4750 
Q 2619 4750 2861 4703 
Q 3103 4656 3366 4563 
z
" id="DejaVuSans-36" transform="scale(0.015625)"/>
       </defs>
       <use xlink:href="#DejaVuSans-30"/>
       <use x="63.623047" xlink:href="#DejaVuSans-2e"/>
       <use x="95.410156" xlink:href="#DejaVuSans-36"/>
      </g>
     </g>
    </g>
    <g id="xtick_5">
     <g id="line2d_5">
      <g>
       <use style="stroke:#000000;stroke-width:0.8;" x="356.425" xlink:href="#md6da6c7225" y="303.64"/>
      </g>
     </g>
     <g id="text_5">
      <!-- 0.8 -->
      <g transform="translate(348.473437 318.238437)scale(0.1 -0.1)">
       <defs>
        <path d="M 2034 2216 
Q 1584 2216 1326 1975 
Q 1069 1734 1069 1313 
Q 1069 891 1326 650 
Q 1584 409 2034 409 
Q 2484 409 2743 651 
Q 3003 894 3003 1313 
Q 3003 1734 2745 1975 
Q 2488 2216 2034 2216 
z
M 1403 2484 
Q 997 2584 770 2862 
Q 544 3141 544 3541 
Q 544 4100 942 4425 
Q 1341 4750 2034 4750 
Q 2731 4750 3128 4425 
Q 3525 4100 3525 3541 
Q 3525 3141 3298 2862 
Q 3072 2584 2669 2484 
Q 3125 2378 3379 2068 
Q 3634 1759 3634 1313 
Q 3634 634 3220 271 
Q 2806 -91 2034 -91 
Q 1263 -91 848 271 
Q 434 634 434 1313 
Q 434 1759 690 2068 
Q 947 2378 1403 2484 
z
M 1172 3481 
Q 1172 3119 1398 2916 
Q 1625 2713 2034 2713 
Q 2441 2713 2670 2916 
Q 2900 3119 2900 3481 
Q 2900 3844 2670 4047 
Q 2441 4250 2034 4250 
Q 1625 4250 1398 4047 
Q 1172 3844 1172 3481 
z
" id="DejaVuSans-38" transform="scale(0.015625)"/>
       </defs>
       <use xlink:href="#DejaVuSans-30"/>
       <use x="63.623047" xlink:href="#DejaVuSans-2e"/>
       <use x="95.410156" xlink:href="#DejaVuSans-38"/>
      </g>
     </g>
    </g>
    <g id="xtick_6">
     <g id="line2d_6">
      <g>
       <use style="stroke:#000000;stroke-width:0.8;" x="431.285" xlink:href="#md6da6c7225" y="303.64"/>
      </g>
     </g>
     <g id="text_6">
      <!-- 1.0 -->
      <g transform="translate(423.333438 318.238437)scale(0.1 -0.1)">
       <defs>
        <path d="M 794 531 
L 1825 531 
L 1825 4091 
L 703 3866 
L 703 4441 
L 1819 4666 
L 2450 4666 
L 2450 531 
L 3481 531 
L 3481 0 
L 794 0 
L 794 531 
z
" id="DejaVuSans-31" transform="scale(0.015625)"/>
       </defs>
       <use xlink:href="#DejaVuSans-31"/>
       <use x="63.623047" xlink:href="#DejaVuSans-2e"/>
       <use x="95.410156" xlink:href="#DejaVuSans-30"/>
      </g>
     </g>
    </g>
    <g id="text_7">
     <!-- Credibility index -->
     <g transform="translate(203.530313 331.916562)scale(0.1 -0.1)">
      <defs>
       <path d="M 4122 4306 
L 4122 3641 
Q 3803 3938 3442 4084 
Q 3081 4231 2675 4231 
Q 1875 4231 1450 3742 
Q 1025 3253 1025 2328 
Q 1025 1406 1450 917 
Q 1875 428 2675 428 
Q 3081 428 3442 575 
Q 3803 722 4122 1019 
L 4122 359 
Q 3791 134 3420 21 
Q 3050 -91 2638 -91 
Q 1578 -91 968 557 
Q 359 1206 359 2328 
Q 359 3453 968 4101 
Q 1578 4750 2638 4750 
Q 3056 4750 3426 4639 
Q 3797 4528 4122 4306 
z
" id="DejaVuSans-43" transform="scale(0.015625)"/>
       <path d="M 2631 2963 
Q 2534 3019 2420 3045 
Q 2306 3072 2169 3072 
Q 1681 3072 1420 2755 
Q 1159 2438 1159 1844 
L 1159 0 
L 581 0 
L 581 3500 
L 1159 3500 
L 1159 2956 
Q 1341 3275 1631 3429 
Q 1922 3584 2338 3584 
Q 2397 3584 2469 3576 
Q 2541 3569 2628 3553 
L 2631 2963 
z
" id="DejaVuSans-72" transform="scale(0.015625)"/>
       <path d="M 3597 1894 
L 3597 1613 
L 953 1613 
Q 991 1019 1311 708 
Q 1631 397 2203 397 
Q 2534 397 2845 478 
Q 3156 559 3463 722 
L 3463 178 
Q 3153 47 2828 -22 
Q 2503 -91 2169 -91 
Q 1331 -91 842 396 
Q 353 884 353 1716 
Q 353 2575 817 3079 
Q 1281 3584 2069 3584 
Q 2775 3584 3186 3129 
Q 3597 2675 3597 1894 
z
M 3022 2063 
Q 3016 2534 2758 2815 
Q 2500 3097 2075 3097 
Q 1594 3097 1305 2825 
Q 1016 2553 972 2059 
L 3022 2063 
z
" id="DejaVuSans-65" transform="scale(0.015625)"/>
       <path d="M 2906 2969 
L 2906 4863 
L 3481 4863 
L 3481 0 
L 2906 0 
L 2906 525 
Q 2725 213 2448 61 
Q 2172 -91 1784 -91 
Q 1150 -91 751 415 
Q 353 922 353 1747 
Q 353 2572 751 3078 
Q 1150 3584 1784 3584 
Q 2172 3584 2448 3432 
Q 2725 3281 2906 2969 
z
M 947 1747 
Q 947 1113 1208 752 
Q 1469 391 1925 391 
Q 2381 391 2643 752 
Q 2906 1113 2906 1747 
Q 2906 2381 2643 2742 
Q 2381 3103 1925 3103 
Q 1469 3103 1208 2742 
Q 947 2381 947 1747 
z
" id="DejaVuSans-64" transform="scale(0.015625)"/>
       <path d="M 603 3500 
L 1178 3500 
L 1178 0 
L 603 0 
L 603 3500 
z
M 603 4863 
L 1178 4863 
L 1178 4134 
L 603 4134 
L 603 4863 
z
" id="DejaVuSans-69" transform="scale(0.015625)"/>
       <path d="M 3116 1747 
Q 3116 2381 2855 2742 
Q 2594 3103 2138 3103 
Q 1681 3103 1420 2742 
Q 1159 2381 1159 1747 
Q 1159 1113 1420 752 
Q 1681 391 2138 391 
Q 2594 391 2855 752 
Q 3116 1113 3116 1747 
z
M 1159 2969 
Q 1341 3281 1617 3432 
Q 1894 3584 2278 3584 
Q 2916 3584 3314 3078 
Q 3713 2572 3713 1747 
Q 3713 922 3314 415 
Q 2916 -91 2278 -91 
Q 1894 -91 1617 61 
Q 1341 213 1159 525 
L 1159 0 
L 581 0 
L 581 4863 
L 1159 4863 
L 1159 2969 
z
" id="DejaVuSans-62" transform="scale(0.015625)"/>
       <path d="M 603 4863 
L 1178 4863 
L 1178 0 
L 603 0 
L 603 4863 
z
" id="DejaVuSans-6c" transform="scale(0.015625)"/>
       <path d="M 1172 4494 
L 1172 3500 
L 2356 3500 
L 2356 3053 
L 1172 3053 
L 1172 1153 
Q 1172 725 1289 603 
Q 1406 481 1766 481 
L 2356 481 
L 2356 0 
L 1766 0 
Q 1100 0 847 248 
Q 594 497 594 1153 
L 594 3053 
L 172 3053 
L 172 3500 
L 594 3500 
L 594 4494 
L 1172 4494 
z
" id="DejaVuSans-74" transform="scale(0.015625)"/>
       <path d="M 2059 -325 
Q 1816 -950 1584 -1140 
Q 1353 -1331 966 -1331 
L 506 -1331 
L 506 -850 
L 844 -850 
Q 1081 -850 1212 -737 
Q 1344 -625 1503 -206 
L 1606 56 
L 191 3500 
L 800 3500 
L 1894 763 
L 2988 3500 
L 3597 3500 
L 2059 -325 
z
" id="DejaVuSans-79" transform="scale(0.015625)"/>
       <path id="DejaVuSans-20" transform="scale(0.015625)"/>
       <path d="M 3513 2113 
L 3513 0 
L 2938 0 
L 2938 2094 
Q 2938 2591 2744 2837 
Q 2550 3084 2163 3084 
Q 1697 3084 1428 2787 
Q 1159 2491 1159 1978 
L 1159 0 
L 581 0 
L 581 3500 
L 1159 3500 
L 1159 2956 
Q 1366 3272 1645 3428 
Q 1925 3584 2291 3584 
Q 2894 3584 3203 3211 
Q 3513 2838 3513 2113 
z
" id="DejaVuSans-6e" transform="scale(0.015625)"/>
       <path d="M 3513 3500 
L 2247 1797 
L 3578 0 
L 2900 0 
L 1881 1375 
L 863 0 
L 184 0 
L 1544 1831 
L 300 3500 
L 978 3500 
L 1906 2253 
L 2834 3500 
L 3513 3500 
z
" id="DejaVuSans-78" transform="scale(0.015625)"/>
      </defs>
      <use xlink:href="#DejaVuSans-43"/>
      <use x="69.824219" xlink:href="#DejaVuSans-72"/>
      <use x="108.6875" xlink:href="#DejaVuSans-65"/>
      <use x="170.210938" xlink:href="#DejaVuSans-64"/>
      <use x="233.6875" xlink:href="#DejaVuSans-69"/>
      <use x="261.470703" xlink:href="#DejaVuSans-62"/>
      <use x="324.947266" xlink:href="#DejaVuSans-69"/>
      <use x="352.730469" xlink:href="#DejaVuSans-6c"/>
      <use x="380.513672" xlink:href="#DejaVuSans-69"/>
      <use x="408.296875" xlink:href="#DejaVuSans-74"/>
      <use x="447.505859" xlink:href="#DejaVuSans-79"/>
      <use x="506.685547" xlink:href="#DejaVuSans-20"/>
      <use x="538.472656" xlink:href="#DejaVuSans-69"/>
      <use x="566.255859" xlink:href="#DejaVuSans-6e"/>
      <use x="629.634766" xlink:href="#DejaVuSans-64"/>
      <use x="693.111328" xlink:href="#DejaVuSans-65"/>
      <use x="752.884766" xlink:href="#DejaVuSans-78"/>
     </g>
    </g>
   </g>
   <g id="matplotlib.axis_2">
    <g id="ytick_1">
     <g id="line2d_7">
      <defs>
       <path d="M 0 0 
L -3.5 0 
" id="mdbd6c391d0" style="stroke:#000000;stroke-width:0.8;"/>
      </defs>
      <g>
       <use style="stroke:#000000;stroke-width:0.8;" x="38.27" xlink:href="#mdbd6c391d0" y="303.64"/>
      </g>
     </g>
     <g id="text_8">
      <!-- 0 -->
      <g transform="translate(24.9075 307.439219)scale(0.1 -0.1)">
       <use xlink:href="#DejaVuSans-30"/>
      </g>
     </g>
    </g>
    <g id="ytick_2">
     <g id="line2d_8">
      <g>
       <use style="stroke:#000000;stroke-width:0.8;" x="38.27" xlink:href="#mdbd6c391d0" y="239.663503"/>
      </g>
     </g>
     <g id="text_9">
      <!-- 1 -->
      <g transform="translate(24.9075 243.462721)scale(0.1 -0.1)">
       <use xlink:href="#DejaVuSans-31"/>
      </g>
     </g>
    </g>
    <g id="ytick_3">
     <g id="line2d_9">
      <g>
       <use style="stroke:#000000;stroke-width:0.8;" x="38.27" xlink:href="#mdbd6c391d0" y="175.687005"/>
      </g>
     </g>
     <g id="text_10">
      <!-- 2 -->
      <g transform="translate(24.9075 179.486224)scale(0.1 -0.1)">
       <use xlink:href="#DejaVuSans-32"/>
      </g>
     </g>
    </g>
    <g id="ytick_4">
     <g id="line2d_10">
      <g>
       <use style="stroke:#000000;stroke-width:0.8;" x="38.27" xlink:href="#mdbd6c391d0" y="111.710508"/>
      </g>
     </g>
     <g id="text_11">
      <!-- 3 -->
      <g transform="translate(24.9075 115.509727)scale(0.1 -0.1)">
       <defs>
        <path d="M 2597 2516 
Q 3050 2419 3304 2112 
Q 3559 1806 3559 1356 
Q 3559 666 3084 287 
Q 2609 -91 1734 -91 
Q 1441 -91 1130 -33 
Q 819 25 488 141 
L 488 750 
Q 750 597 1062 519 
Q 1375 441 1716 441 
Q 2309 441 2620 675 
Q 2931 909 2931 1356 
Q 2931 1769 2642 2001 
Q 2353 2234 1838 2234 
L 1294 2234 
L 1294 2753 
L 1863 2753 
Q 2328 2753 2575 2939 
Q 2822 3125 2822 3475 
Q 2822 3834 2567 4026 
Q 2313 4219 1838 4219 
Q 1578 4219 1281 4162 
Q 984 4106 628 3988 
L 628 4550 
Q 988 4650 1302 4700 
Q 1616 4750 1894 4750 
Q 2613 4750 3031 4423 
Q 3450 4097 3450 3541 
Q 3450 3153 3228 2886 
Q 3006 2619 2597 2516 
z
" id="DejaVuSans-33" transform="scale(0.015625)"/>
       </defs>
       <use xlink:href="#DejaVuSans-33"/>
      </g>
     </g>
    </g>
    <g id="ytick_5">
     <g id="line2d_11">
      <g>
       <use style="stroke:#000000;stroke-width:0.8;" x="38.27" xlink:href="#mdbd6c391d0" y="47.73401"/>
      </g>
     </g>
     <g id="text_12">
      <!-- 4 -->
      <g transform="translate(24.9075 51.533229)scale(0.1 -0.1)">
       <use xlink:href="#DejaVuSans-34"/>
      </g>
     </g>
    </g>
    <g id="text_13">
     <!-- Density -->
     <g transform="translate(18.827813 176.228594)rotate(-90)scale(0.1 -0.1)">
      <defs>
       <path d="M 1259 4147 
L 1259 519 
L 2022 519 
Q 2988 519 3436 956 
Q 3884 1394 3884 2338 
Q 3884 3275 3436 3711 
Q 2988 4147 2022 4147 
L 1259 4147 
z
M 628 4666 
L 1925 4666 
Q 3281 4666 3915 4102 
Q 4550 3538 4550 2338 
Q 4550 1131 3912 565 
Q 3275 0 1925 0 
L 628 0 
L 628 4666 
z
" id="DejaVuSans-44" transform="scale(0.015625)"/>
       <path d="M 2834 3397 
L 2834 2853 
Q 2591 2978 2328 3040 
Q 2066 3103 1784 3103 
Q 1356 3103 1142 2972 
Q 928 2841 928 2578 
Q 928 2378 1081 2264 
Q 1234 2150 1697 2047 
L 1894 2003 
Q 2506 1872 2764 1633 
Q 3022 1394 3022 966 
Q 3022 478 2636 193 
Q 2250 -91 1575 -91 
Q 1294 -91 989 -36 
Q 684 19 347 128 
L 347 722 
Q 666 556 975 473 
Q 1284 391 1588 391 
Q 1994 391 2212 530 
Q 2431 669 2431 922 
Q 2431 1156 2273 1281 
Q 2116 1406 1581 1522 
L 1381 1569 
Q 847 1681 609 1914 
Q 372 2147 372 2553 
Q 372 3047 722 3315 
Q 1072 3584 1716 3584 
Q 2034 3584 2315 3537 
Q 2597 3491 2834 3397 
z
" id="DejaVuSans-73" transform="scale(0.015625)"/>
      </defs>
      <use xlink:href="#DejaVuSans-44"/>
      <use x="77.001953" xlink:href="#DejaVuSans-65"/>
      <use x="138.525391" xlink:href="#DejaVuSans-6e"/>
      <use x="201.904297" xlink:href="#DejaVuSans-73"/>
      <use x="254.003906" xlink:href="#DejaVuSans-69"/>
      <use x="281.787109" xlink:href="#DejaVuSans-74"/>
      <use x="320.996094" xlink:href="#DejaVuSans-79"/>
     </g>
    </g>
   </g>
   <g id="line2d_12">
    <path clip-path="url(#p02964a8c13)" d="M 56.985 301.914038 
L 60.746809 300.802333 
L 62.627714 300.057357 
L 64.508618 299.162991 
L 66.389523 298.102222 
L 68.270427 296.859376 
L 70.151332 295.421042 
L 72.032236 293.777064 
L 73.913141 291.921523 
L 75.794045 289.853665 
L 77.67495 287.57869 
L 81.436759 282.461165 
L 85.198568 276.74432 
L 94.60309 261.792445 
L 98.364899 256.473938 
L 100.245804 254.117344 
L 102.126709 252.000707 
L 104.007613 250.143419 
L 105.888518 248.557001 
L 107.769422 247.245247 
L 109.650327 246.204799 
L 111.531231 245.42609 
L 113.412136 244.894554 
L 115.29304 244.592013 
L 117.173945 244.498095 
L 119.054849 244.591592 
L 120.935754 244.851654 
L 122.816658 245.258744 
L 126.578467 246.446117 
L 130.340276 248.041672 
L 134.102085 249.968081 
L 137.863894 252.170264 
L 141.625704 254.598891 
L 147.268417 258.53719 
L 156.67294 265.21549 
L 160.434749 267.650521 
L 164.196558 269.812729 
L 167.958367 271.631016 
L 171.720176 273.061015 
L 175.481985 274.091777 
L 179.243794 274.748698 
L 183.005603 275.090948 
L 186.767412 275.202607 
L 194.29103 275.105556 
L 203.695553 275.041263 
L 211.219171 275.009941 
L 214.98098 274.820579 
L 218.742789 274.399544 
L 222.504598 273.676694 
L 226.266407 272.61411 
L 230.028216 271.21523 
L 233.790025 269.526223 
L 239.432739 266.635478 
L 246.956357 262.680296 
L 250.718166 260.886944 
L 254.479975 259.312066 
L 258.241784 257.992655 
L 262.003593 256.941965 
L 265.765402 256.157667 
L 269.527211 255.629977 
L 273.28902 255.346616 
L 277.050829 255.293336 
L 280.812638 255.451085 
L 284.574447 255.792465 
L 290.217161 256.565434 
L 310.907111 259.822953 
L 314.66892 260.137045 
L 318.430729 260.240172 
L 322.192538 260.057779 
L 325.954347 259.513639 
L 329.716156 258.547257 
L 333.477965 257.133478 
L 337.239774 255.297817 
L 341.001583 253.121221 
L 346.644296 249.500697 
L 352.28701 245.883512 
L 357.929724 242.591308 
L 367.334246 237.432467 
L 371.096055 234.939074 
L 372.97696 233.462823 
L 374.857864 231.78293 
L 376.738769 229.862311 
L 378.619673 227.665892 
L 380.500578 225.161614 
L 382.381482 222.321352 
L 384.262387 219.121787 
L 386.143291 215.545226 
L 388.024196 211.580431 
L 389.905101 207.223477 
L 391.786005 202.478662 
L 393.66691 197.359484 
L 397.428719 186.104287 
L 401.190528 173.789179 
L 408.714146 148.357642 
L 410.59505 142.441603 
L 412.475955 136.955852 
L 414.356859 132.03899 
L 416.237764 127.83025 
L 418.118668 124.464612 
L 419.999573 122.067467 
L 421.880477 120.749099 
L 423.761382 120.599298 
L 425.642286 121.682461 
L 427.523191 124.033513 
L 429.404095 127.654975 
L 431.285 132.515428 
L 431.285 132.515428 
" style="fill:none;stroke:#0000ff;stroke-linecap:square;stroke-width:1.5;"/>
   </g>
   <g id="line2d_13">
    <path clip-path="url(#p02964a8c13)" d="M 56.985 302.921528 
L 60.746809 302.334225 
L 64.508618 301.37954 
L 66.389523 300.719155 
L 68.270427 299.910688 
L 70.151332 298.934627 
L 72.032236 297.772618 
L 73.913141 296.408587 
L 75.794045 294.829963 
L 77.67495 293.028914 
L 79.555854 291.003537 
L 81.436759 288.758868 
L 83.317663 286.307646 
L 87.079472 280.877037 
L 92.722186 271.952637 
L 96.483995 266.035822 
L 100.245804 260.627976 
L 102.126709 258.232119 
L 104.007613 256.091527 
L 105.888518 254.232708 
L 107.769422 252.672082 
L 109.650327 251.415488 
L 111.531231 250.458264 
L 113.412136 249.785899 
L 115.29304 249.375204 
L 117.173945 249.195917 
L 119.054849 249.212646 
L 120.935754 249.387014 
L 124.697563 250.053512 
L 135.98299 252.474608 
L 147.268417 254.456355 
L 151.030226 255.462793 
L 154.792035 256.810844 
L 158.553844 258.513311 
L 162.315653 260.515095 
L 167.958367 263.842215 
L 173.60108 267.179519 
L 177.362889 269.229338 
L 181.124698 271.056037 
L 184.886508 272.621241 
L 188.648317 273.904883 
L 192.410126 274.893783 
L 196.171935 275.575211 
L 199.933744 275.938666 
L 203.695553 275.984976 
L 207.457362 275.738022 
L 211.219171 275.252607 
L 218.742789 273.922162 
L 224.385503 273.00282 
L 228.147312 272.56765 
L 231.909121 272.300214 
L 237.551834 272.144198 
L 246.956357 271.954925 
L 250.718166 271.692862 
L 254.479975 271.257163 
L 258.241784 270.641051 
L 263.884497 269.420707 
L 269.527211 267.940991 
L 277.050829 265.6888 
L 282.693543 263.75709 
L 288.336256 261.52667 
L 293.97897 259.001612 
L 301.502588 255.556225 
L 305.264397 254.051804 
L 309.026206 252.831256 
L 312.788015 251.93628 
L 316.549824 251.335078 
L 322.192538 250.756894 
L 327.835251 250.159533 
L 331.59706 249.568501 
L 335.358869 248.773129 
L 341.001583 247.250658 
L 348.525201 244.898564 
L 357.929724 241.779671 
L 363.572437 239.660153 
L 367.334246 237.996173 
L 371.096055 236.008091 
L 372.97696 234.850388 
L 374.857864 233.556595 
L 376.738769 232.103265 
L 378.619673 230.464186 
L 380.500578 228.61032 
L 382.381482 226.509849 
L 384.262387 224.128359 
L 386.143291 221.429221 
L 388.024196 218.37423 
L 389.905101 214.924581 
L 391.786005 211.042266 
L 393.66691 206.691982 
L 395.547814 201.843617 
L 397.428719 196.475321 
L 399.309623 190.577132 
L 401.190528 184.155034 
L 403.071432 177.235215 
L 406.833241 162.13264 
L 414.356859 130.161013 
L 416.237764 122.834741 
L 418.118668 116.225026 
L 419.999573 110.575243 
L 421.880477 106.121945 
L 423.761382 103.08213 
L 425.642286 101.640408 
L 427.523191 101.937111 
L 429.404095 104.058308 
L 431.285 108.028654 
L 431.285 108.028654 
" style="fill:none;stroke:#0000ff;stroke-dasharray:5.55,2.4;stroke-dashoffset:0;stroke-width:1.5;"/>
   </g>
   <g id="line2d_14">
    <path clip-path="url(#p02964a8c13)" d="M 56.985 303.204194 
L 60.746809 302.789308 
L 64.508618 302.06934 
L 66.389523 301.549526 
L 68.270427 300.89554 
L 70.151332 300.085674 
L 72.032236 299.098604 
L 73.913141 297.91466 
L 75.794045 296.517259 
L 77.67495 294.894445 
L 79.555854 293.040401 
L 81.436759 290.956805 
L 83.317663 288.653884 
L 87.079472 283.476845 
L 90.841281 277.770992 
L 96.483995 269.05915 
L 100.245804 263.763441 
L 102.126709 261.408414 
L 104.007613 259.293058 
L 105.888518 257.438071 
L 107.769422 255.853241 
L 109.650327 254.537619 
L 111.531231 253.480385 
L 113.412136 252.662277 
L 115.29304 252.057449 
L 117.173945 251.635599 
L 119.054849 251.364179 
L 122.816658 251.143901 
L 128.459372 251.217698 
L 137.863894 251.604704 
L 141.625704 251.949433 
L 145.387513 252.580234 
L 147.268417 253.04353 
L 149.149322 253.622732 
L 151.030226 254.326152 
L 152.911131 255.15731 
L 156.67294 257.189584 
L 160.434749 259.636044 
L 171.720176 267.536852 
L 173.60108 268.632385 
L 175.481985 269.59868 
L 177.362889 270.421143 
L 179.243794 271.091294 
L 181.124698 271.606859 
L 183.005603 271.971427 
L 184.886508 272.193748 
L 186.767412 272.28671 
L 190.529221 272.149454 
L 194.29103 271.698266 
L 199.933744 270.703072 
L 209.338266 268.73735 
L 214.98098 267.403395 
L 220.623693 265.84751 
L 226.266407 263.999446 
L 231.909121 261.888132 
L 239.432739 259.0258 
L 243.194548 257.836684 
L 246.956357 257.00502 
L 248.837261 256.767541 
L 250.718166 256.668404 
L 252.59907 256.718035 
L 254.479975 256.922661 
L 256.360879 257.28379 
L 258.241784 257.797905 
L 260.122688 258.45638 
L 263.884497 260.147463 
L 267.646307 262.196608 
L 275.169925 266.491955 
L 278.931734 268.266605 
L 280.812638 268.967162 
L 282.693543 269.515358 
L 284.574447 269.895463 
L 286.455352 270.096414 
L 288.336256 270.112084 
L 290.217161 269.941377 
L 292.098065 269.588143 
L 293.97897 269.060928 
L 295.859874 268.372546 
L 297.740779 267.53951 
L 301.502588 265.519712 
L 305.264397 263.17904 
L 314.66892 257.108851 
L 318.430729 254.989282 
L 322.192538 253.210212 
L 325.954347 251.846471 
L 327.835251 251.338843 
L 329.716156 250.955042 
L 331.59706 250.699063 
L 333.477965 250.573006 
L 335.358869 250.576558 
L 337.239774 250.706458 
L 341.001583 251.314767 
L 344.763392 252.298482 
L 356.048819 255.713242 
L 357.929724 256.065429 
L 359.810628 256.284423 
L 361.691533 256.346919 
L 363.572437 256.231622 
L 365.453342 255.919139 
L 367.334246 255.391725 
L 369.215151 254.632966 
L 371.096055 253.627422 
L 372.97696 252.360308 
L 374.857864 250.817193 
L 376.738769 248.983744 
L 378.619673 246.845449 
L 380.500578 244.387297 
L 382.381482 241.593352 
L 384.262387 238.446199 
L 386.143291 234.926285 
L 388.024196 231.011215 
L 389.905101 226.675172 
L 391.786005 221.888651 
L 393.66691 216.618806 
L 395.547814 210.830685 
L 397.428719 204.489641 
L 399.309623 197.565117 
L 401.190528 190.035862 
L 403.071432 181.896454 
L 404.952337 173.16478 
L 408.714146 154.159265 
L 416.237764 114.037143 
L 418.118668 104.945106 
L 419.999573 96.847948 
L 421.880477 90.081566 
L 423.761382 84.967692 
L 425.642286 81.792848 
L 427.523191 80.787839 
L 429.404095 82.109693 
L 431.285 85.827871 
L 431.285 85.827871 
" style="fill:none;stroke:#0000ff;stroke-dasharray:9.6,2.4,1.5,2.4;stroke-dashoffset:0;stroke-width:1.5;"/>
   </g>
   <g id="line2d_15">
    <path clip-path="url(#p02964a8c13)" d="M 56.985 301.659777 
L 58.865905 301.097837 
L 60.746809 300.408696 
L 62.627714 299.573152 
L 64.508618 298.571657 
L 66.389523 297.385012 
L 68.270427 295.995196 
L 70.151332 294.386307 
L 72.032236 292.545568 
L 73.913141 290.464357 
L 75.794045 288.139193 
L 77.67495 285.572617 
L 79.555854 282.773889 
L 83.317663 276.553041 
L 87.079472 269.694515 
L 96.483995 252.015163 
L 100.245804 245.767685 
L 102.126709 243.001152 
L 104.007613 240.517296 
L 105.888518 238.340162 
L 107.769422 236.485733 
L 109.650327 234.961928 
L 111.531231 233.768984 
L 113.412136 232.900159 
L 115.29304 232.342698 
L 117.173945 232.078974 
L 119.054849 232.087705 
L 120.935754 232.345165 
L 122.816658 232.826312 
L 124.697563 233.505769 
L 126.578467 234.358606 
L 128.459372 235.360922 
L 132.221181 237.725486 
L 135.98299 240.437892 
L 141.625704 244.859099 
L 149.149322 250.799216 
L 152.911131 253.560623 
L 156.67294 256.075056 
L 160.434749 258.290399 
L 164.196558 260.183567 
L 167.958367 261.760062 
L 171.720176 263.047582 
L 175.481985 264.085003 
L 179.243794 264.909719 
L 183.005603 265.5469 
L 186.767412 266.003492 
L 190.529221 266.268221 
L 194.29103 266.317078 
L 198.052839 266.12241 
L 201.814648 265.663214 
L 205.576457 264.934487 
L 209.338266 263.954088 
L 213.100075 262.766246 
L 228.147312 257.613263 
L 231.909121 256.721435 
L 235.67093 256.144524 
L 239.432739 255.899709 
L 243.194548 255.954168 
L 248.837261 256.40743 
L 254.479975 256.922446 
L 258.241784 257.068529 
L 262.003593 256.923071 
L 265.765402 256.420945 
L 269.527211 255.554103 
L 273.28902 254.372488 
L 278.931734 252.235622 
L 284.574447 250.069962 
L 288.336256 248.842116 
L 292.098065 247.921994 
L 295.859874 247.387786 
L 299.621683 247.277819 
L 303.383492 247.589438 
L 307.145302 248.281057 
L 310.907111 249.276484 
L 316.549824 251.10503 
L 322.192538 252.951857 
L 325.954347 253.972334 
L 329.716156 254.685417 
L 333.477965 254.999342 
L 335.358869 254.986834 
L 337.239774 254.85533 
L 339.120678 254.603225 
L 341.001583 254.231168 
L 344.763392 253.140211 
L 348.525201 251.626231 
L 352.28701 249.755037 
L 356.048819 247.603945 
L 361.691533 244.017682 
L 367.334246 240.162622 
L 372.97696 236.063511 
L 376.738769 233.094578 
L 380.500578 229.783163 
L 382.381482 227.941747 
L 384.262387 225.941644 
L 386.143291 223.755812 
L 388.024196 221.3582 
L 389.905101 218.725459 
L 391.786005 215.838844 
L 393.66691 212.686242 
L 395.547814 209.26421 
L 399.309623 201.652944 
L 403.071432 193.218427 
L 410.59505 175.872001 
L 412.475955 171.971417 
L 414.356859 168.465264 
L 416.237764 165.468961 
L 418.118668 163.094178 
L 419.999573 161.444141 
L 421.880477 160.608992 
L 423.761382 160.66146 
L 425.642286 161.653109 
L 427.523191 163.611388 
L 429.404095 166.53771 
L 431.285 170.40667 
L 431.285 170.40667 
" style="fill:none;stroke:#00ffff;stroke-linecap:square;stroke-width:1.5;"/>
   </g>
   <g id="line2d_16">
    <path clip-path="url(#p02964a8c13)" d="M 56.985 303.332468 
L 60.746809 303.010026 
L 64.508618 302.424323 
L 66.389523 301.988336 
L 68.270427 301.428696 
L 70.151332 300.722275 
L 72.032236 299.845441 
L 73.913141 298.775284 
L 75.794045 297.49108 
L 77.67495 295.975935 
L 79.555854 294.218463 
L 81.436759 292.214383 
L 83.317663 289.967835 
L 85.198568 287.492283 
L 88.960377 281.955968 
L 94.60309 272.788909 
L 98.364899 266.688434 
L 102.126709 261.070007 
L 104.007613 258.545412 
L 105.888518 256.250725 
L 107.769422 254.205506 
L 109.650327 252.421244 
L 111.531231 250.902327 
L 113.412136 249.647372 
L 115.29304 248.650681 
L 117.173945 247.90361 
L 119.054849 247.395674 
L 120.935754 247.115246 
L 122.816658 247.049814 
L 124.697563 247.185802 
L 126.578467 247.50808 
L 128.459372 247.999294 
L 130.340276 248.639206 
L 134.102085 250.267314 
L 143.506608 254.940828 
L 147.268417 256.391613 
L 149.149322 256.930737 
L 151.030226 257.330497 
L 152.911131 257.587799 
L 154.792035 257.705638 
L 156.67294 257.692107 
L 160.434749 257.320865 
L 164.196558 256.589153 
L 167.958367 255.609322 
L 173.60108 253.853443 
L 188.648317 248.814173 
L 192.410126 247.916143 
L 196.171935 247.400279 
L 198.052839 247.318932 
L 199.933744 247.366783 
L 201.814648 247.546914 
L 203.695553 247.857214 
L 207.457362 248.832533 
L 211.219171 250.170215 
L 220.623693 253.836012 
L 224.385503 254.941701 
L 228.147312 255.676924 
L 231.909121 256.03887 
L 235.67093 256.086333 
L 239.432739 255.908664 
L 246.956357 255.219169 
L 256.360879 254.305935 
L 262.003593 253.979427 
L 265.765402 253.961101 
L 269.527211 254.170047 
L 273.28902 254.649425 
L 277.050829 255.410278 
L 280.812638 256.419127 
L 288.336256 258.827988 
L 293.97897 260.511539 
L 297.740779 261.385283 
L 301.502588 262.005803 
L 305.264397 262.375682 
L 309.026206 262.521842 
L 312.788015 262.470966 
L 316.549824 262.232874 
L 320.311633 261.801253 
L 324.073442 261.171227 
L 329.716156 259.908948 
L 339.120678 257.59455 
L 344.763392 256.5121 
L 354.167915 254.98298 
L 357.929724 254.091746 
L 361.691533 252.815391 
L 363.572437 251.995047 
L 365.453342 251.03795 
L 367.334246 249.935456 
L 369.215151 248.680763 
L 371.096055 247.268449 
L 372.97696 245.693983 
L 374.857864 243.953265 
L 376.738769 242.042189 
L 378.619673 239.956228 
L 380.500578 237.689994 
L 382.381482 235.236721 
L 384.262387 232.587636 
L 386.143291 229.731198 
L 388.024196 226.65227 
L 389.905101 223.331309 
L 391.786005 219.743776 
L 393.66691 215.860012 
L 395.547814 211.645867 
L 397.428719 207.064384 
L 399.309623 202.078778 
L 401.190528 196.656855 
L 403.071432 190.776827 
L 404.952337 184.434283 
L 408.714146 170.476526 
L 418.118668 133.53464 
L 419.999573 127.458011 
L 421.880477 122.462005 
L 423.761382 118.831047 
L 425.642286 116.82063 
L 427.523191 116.63763 
L 429.404095 118.422793 
L 431.285 122.237266 
L 431.285 122.237266 
" style="fill:none;stroke:#00ffff;stroke-dasharray:5.55,2.4;stroke-dashoffset:0;stroke-width:1.5;"/>
   </g>
   <g id="line2d_17">
    <path clip-path="url(#p02964a8c13)" d="M 61.644969 303.301239 
L 65.359944 302.888719 
L 67.217431 302.552292 
L 69.074919 302.094411 
L 70.932407 301.484337 
L 72.789894 300.688721 
L 74.647382 299.673326 
L 76.504869 298.40543 
L 78.362357 296.856809 
L 80.219845 295.00712 
L 82.077332 292.847362 
L 83.93482 290.383006 
L 85.792307 287.636358 
L 89.507283 281.474806 
L 96.937233 268.54165 
L 98.79472 265.687043 
L 100.652208 263.140328 
L 102.509696 260.953815 
L 104.367183 259.15868 
L 106.224671 257.763906 
L 108.082158 256.757388 
L 109.939646 256.108969 
L 111.797134 255.77493 
L 113.654621 255.703321 
L 115.512109 255.839438 
L 119.227084 256.531202 
L 122.942059 257.519783 
L 130.37201 259.804506 
L 135.944472 261.757632 
L 143.374423 264.69654 
L 148.946886 266.840297 
L 152.661861 268.038053 
L 156.376836 268.944758 
L 160.091811 269.51215 
L 163.806786 269.737412 
L 167.521761 269.659704 
L 171.236737 269.34852 
L 176.809199 268.624902 
L 187.954125 267.099035 
L 193.526588 266.606796 
L 197.241563 266.471611 
L 200.956538 266.544099 
L 204.671513 266.861792 
L 208.386489 267.437192 
L 212.101464 268.242395 
L 223.246389 271.048865 
L 226.961365 271.61071 
L 228.818852 271.731088 
L 230.67634 271.724075 
L 232.533827 271.579968 
L 234.391315 271.294714 
L 236.248803 270.870583 
L 239.963778 269.6475 
L 243.678753 268.05305 
L 251.108703 264.602701 
L 254.823678 263.153463 
L 258.538654 262.053271 
L 262.253629 261.32011 
L 265.968604 260.904897 
L 269.683579 260.725048 
L 275.256042 260.725249 
L 280.828505 260.934056 
L 284.54348 261.211834 
L 288.258455 261.66088 
L 291.97343 262.332273 
L 295.688406 263.237474 
L 306.833331 266.416299 
L 310.548306 267.040193 
L 312.405794 267.167889 
L 314.263282 267.153625 
L 316.120769 266.99024 
L 317.978257 266.676648 
L 319.835744 266.217618 
L 321.693232 265.623209 
L 325.408207 264.090044 
L 329.123182 262.230523 
L 338.41062 257.329905 
L 342.125595 255.692911 
L 345.840571 254.406652 
L 349.555546 253.506886 
L 353.270521 252.963864 
L 356.985496 252.680445 
L 364.415447 252.222085 
L 368.130422 251.64167 
L 369.987909 251.178745 
L 371.845397 250.574456 
L 373.702885 249.812819 
L 375.560372 248.880222 
L 377.41786 247.764245 
L 379.275347 246.451902 
L 381.132835 244.927396 
L 382.990323 243.169512 
L 384.84781 241.14882 
L 386.705298 238.824903 
L 388.562785 236.143819 
L 390.420273 233.036071 
L 392.277761 229.415379 
L 394.135248 225.17862 
L 395.992736 220.20734 
L 397.850223 214.371325 
L 399.707711 207.534724 
L 401.565198 199.565137 
L 403.422686 190.345928 
L 405.280174 179.79168 
L 407.137661 167.866224 
L 408.995149 154.60207 
L 410.852636 140.119401 
L 414.567612 108.508428 
L 418.282587 76.193529 
L 420.140074 61.217544 
L 421.997562 47.938848 
L 423.85505 37.056563 
L 425.712537 29.221513 
L 427.570025 24.981411 
L 429.427512 24.730118 
L 431.285 28.667245 
L 431.285 28.667245 
" style="fill:none;stroke:#00ffff;stroke-dasharray:9.6,2.4,1.5,2.4;stroke-dashoffset:0;stroke-width:1.5;"/>
   </g>
   <g id="line2d_18">
    <path clip-path="url(#p02964a8c13)" d="M 56.985 302.733847 
L 60.746809 302.148899 
L 64.508618 301.27615 
L 68.270427 300.027349 
L 70.151332 299.233803 
L 72.032236 298.313403 
L 73.913141 297.256915 
L 75.794045 296.056742 
L 77.67495 294.707409 
L 79.555854 293.206017 
L 81.436759 291.55265 
L 85.198568 287.807161 
L 88.960377 283.541438 
L 92.722186 278.883696 
L 104.007613 264.520298 
L 107.769422 260.362352 
L 109.650327 258.524853 
L 111.531231 256.87838 
L 113.412136 255.441514 
L 115.29304 254.229182 
L 117.173945 253.252363 
L 119.054849 252.517866 
L 120.935754 252.028219 
L 122.816658 251.781633 
L 124.697563 251.772083 
L 126.578467 251.989467 
L 128.459372 252.419873 
L 130.340276 253.045931 
L 132.221181 253.847261 
L 134.102085 254.800989 
L 137.863894 257.065214 
L 143.506608 260.956894 
L 149.149322 264.834453 
L 152.911131 267.127252 
L 156.67294 269.042465 
L 160.434749 270.502642 
L 162.315653 271.048019 
L 164.196558 271.466752 
L 166.077462 271.758375 
L 167.958367 271.923982 
L 169.839271 271.966152 
L 171.720176 271.888955 
L 175.481985 271.400654 
L 179.243794 270.525275 
L 183.005603 269.360803 
L 192.410126 266.118863 
L 196.171935 265.132552 
L 198.052839 264.785721 
L 199.933744 264.555355 
L 201.814648 264.449895 
L 203.695553 264.472166 
L 205.576457 264.618796 
L 209.338266 265.23917 
L 214.98098 266.656027 
L 218.742789 267.560593 
L 220.623693 267.893984 
L 222.504598 268.102207 
L 224.385503 268.155049 
L 226.266407 268.027515 
L 228.147312 267.701098 
L 230.028216 267.164751 
L 231.909121 266.415512 
L 233.790025 265.458751 
L 235.67093 264.308034 
L 237.551834 262.984623 
L 241.313643 259.937891 
L 250.718166 251.784957 
L 252.59907 250.386247 
L 254.479975 249.147349 
L 256.360879 248.093469 
L 258.241784 247.242792 
L 260.122688 246.605792 
L 262.003593 246.184827 
L 263.884497 245.974019 
L 265.765402 245.959426 
L 267.646307 246.119514 
L 271.408116 246.8445 
L 280.812638 249.201515 
L 282.693543 249.441014 
L 284.574447 249.523506 
L 286.455352 249.427668 
L 288.336256 249.141134 
L 290.217161 248.661289 
L 292.098065 247.995571 
L 293.97897 247.161204 
L 297.740779 245.098716 
L 305.264397 240.486188 
L 309.026206 238.575336 
L 310.907111 237.821265 
L 312.788015 237.215902 
L 314.66892 236.75554 
L 318.430729 236.196206 
L 325.954347 235.475501 
L 327.835251 235.095697 
L 329.716156 234.537326 
L 331.59706 233.759451 
L 333.477965 232.730077 
L 335.358869 231.428069 
L 337.239774 229.844464 
L 339.120678 227.983135 
L 341.001583 225.860782 
L 342.882487 223.506285 
L 346.644296 218.269397 
L 354.167915 207.254588 
L 356.048819 204.745976 
L 357.929724 202.450453 
L 359.810628 200.41486 
L 361.691533 198.676871 
L 363.572437 197.263609 
L 365.453342 196.190683 
L 367.334246 195.461646 
L 369.215151 195.067901 
L 371.096055 194.989028 
L 372.97696 195.193514 
L 374.857864 195.639864 
L 376.738769 196.278044 
L 380.500578 197.897727 
L 384.262387 199.553122 
L 386.143291 200.234663 
L 388.024196 200.739588 
L 389.905101 201.016302 
L 391.786005 201.022095 
L 393.66691 200.725127 
L 395.547814 200.106154 
L 397.428719 199.159915 
L 399.309623 197.896106 
L 401.190528 196.339893 
L 403.071432 194.531896 
L 406.833241 190.39621 
L 410.59505 186.086089 
L 412.475955 184.095399 
L 414.356859 182.347463 
L 416.237764 180.942701 
L 418.118668 179.977378 
L 419.999573 179.539719 
L 421.880477 179.706196 
L 423.761382 180.538139 
L 425.642286 182.0789 
L 427.523191 184.351703 
L 429.404095 187.358329 
L 431.285 191.078733 
L 431.285 191.078733 
" style="fill:none;stroke:#ff7f00;stroke-dasharray:1.5,2.475;stroke-dashoffset:0;stroke-width:1.5;"/>
   </g>
   <g id="patch_3">
    <path d="M 38.27 303.64 
L 38.27 10.8 
" style="fill:none;stroke:#000000;stroke-linecap:square;stroke-linejoin:miter;stroke-width:0.8;"/>
   </g>
   <g id="patch_4">
    <path d="M 450 303.64 
L 450 10.8 
" style="fill:none;stroke:#000000;stroke-linecap:square;stroke-linejoin:miter;stroke-width:0.8;"/>
   </g>
   <g id="patch_5">
    <path d="M 38.27 303.64 
L 450 303.64 
" style="fill:none;stroke:#000000;stroke-linecap:square;stroke-linejoin:miter;stroke-width:0.8;"/>
   </g>
   <g id="patch_6">
    <path d="M 38.27 10.8 
L 450 10.8 
" style="fill:none;stroke:#000000;stroke-linecap:square;stroke-linejoin:miter;stroke-width:0.8;"/>
   </g>
   <g id="legend_1">
    <g id="patch_7">
     <path d="M 45.27 199.931562 
L 146.693438 199.931562 
Q 148.693438 199.931562 148.693438 197.931562 
L 148.693438 17.8 
Q 148.693438 15.8 146.693438 15.8 
L 45.27 15.8 
Q 43.27 15.8 43.27 17.8 
L 43.27 197.931562 
Q 43.27 199.931562 45.27 199.931562 
z
" style="fill:#ffffff;opacity:0.8;stroke:#cccccc;stroke-linejoin:miter;"/>
    </g>
    <g id="line2d_19">
     <path d="M 47.27 30.537188 
L 67.27 30.537188 
" style="fill:none;stroke:#0000ff;stroke-linecap:square;stroke-width:1.5;"/>
    </g>
    <g id="line2d_20"/>
    <g id="text_14">
     <!-- 2 Clustered  -->
     <g transform="translate(75.27 27.398438)scale(0.1 -0.1)">
      <defs>
       <path d="M 544 1381 
L 544 3500 
L 1119 3500 
L 1119 1403 
Q 1119 906 1312 657 
Q 1506 409 1894 409 
Q 2359 409 2629 706 
Q 2900 1003 2900 1516 
L 2900 3500 
L 3475 3500 
L 3475 0 
L 2900 0 
L 2900 538 
Q 2691 219 2414 64 
Q 2138 -91 1772 -91 
Q 1169 -91 856 284 
Q 544 659 544 1381 
z
M 1991 3584 
L 1991 3584 
z
" id="DejaVuSans-75" transform="scale(0.015625)"/>
      </defs>
      <use xlink:href="#DejaVuSans-32"/>
      <use x="63.623047" xlink:href="#DejaVuSans-20"/>
      <use x="95.410156" xlink:href="#DejaVuSans-43"/>
      <use x="165.234375" xlink:href="#DejaVuSans-6c"/>
      <use x="193.017578" xlink:href="#DejaVuSans-75"/>
      <use x="256.396484" xlink:href="#DejaVuSans-73"/>
      <use x="308.496094" xlink:href="#DejaVuSans-74"/>
      <use x="347.705078" xlink:href="#DejaVuSans-65"/>
      <use x="409.228516" xlink:href="#DejaVuSans-72"/>
      <use x="448.091797" xlink:href="#DejaVuSans-65"/>
      <use x="509.615234" xlink:href="#DejaVuSans-64"/>
      <use x="573.091797" xlink:href="#DejaVuSans-20"/>
     </g>
     <!--  n=314 -->
     <g transform="translate(75.27 38.59625)scale(0.1 -0.1)">
      <defs>
       <path d="M 678 2906 
L 4684 2906 
L 4684 2381 
L 678 2381 
L 678 2906 
z
M 678 1631 
L 4684 1631 
L 4684 1100 
L 678 1100 
L 678 1631 
z
" id="DejaVuSans-3d" transform="scale(0.015625)"/>
      </defs>
      <use xlink:href="#DejaVuSans-20"/>
      <use x="31.787109" xlink:href="#DejaVuSans-6e"/>
      <use x="95.166016" xlink:href="#DejaVuSans-3d"/>
      <use x="178.955078" xlink:href="#DejaVuSans-33"/>
      <use x="242.578125" xlink:href="#DejaVuSans-31"/>
      <use x="306.201172" xlink:href="#DejaVuSans-34"/>
     </g>
    </g>
    <g id="line2d_21">
     <path d="M 47.27 56.413125 
L 67.27 56.413125 
" style="fill:none;stroke:#0000ff;stroke-dasharray:5.55,2.4;stroke-dashoffset:0;stroke-width:1.5;"/>
    </g>
    <g id="line2d_22"/>
    <g id="text_15">
     <!-- 3 Clustered  -->
     <g transform="translate(75.27 53.274375)scale(0.1 -0.1)">
      <use xlink:href="#DejaVuSans-33"/>
      <use x="63.623047" xlink:href="#DejaVuSans-20"/>
      <use x="95.410156" xlink:href="#DejaVuSans-43"/>
      <use x="165.234375" xlink:href="#DejaVuSans-6c"/>
      <use x="193.017578" xlink:href="#DejaVuSans-75"/>
      <use x="256.396484" xlink:href="#DejaVuSans-73"/>
      <use x="308.496094" xlink:href="#DejaVuSans-74"/>
      <use x="347.705078" xlink:href="#DejaVuSans-65"/>
      <use x="409.228516" xlink:href="#DejaVuSans-72"/>
      <use x="448.091797" xlink:href="#DejaVuSans-65"/>
      <use x="509.615234" xlink:href="#DejaVuSans-64"/>
      <use x="573.091797" xlink:href="#DejaVuSans-20"/>
     </g>
     <!--  n=460 -->
     <g transform="translate(75.27 64.472187)scale(0.1 -0.1)">
      <use xlink:href="#DejaVuSans-20"/>
      <use x="31.787109" xlink:href="#DejaVuSans-6e"/>
      <use x="95.166016" xlink:href="#DejaVuSans-3d"/>
      <use x="178.955078" xlink:href="#DejaVuSans-34"/>
      <use x="242.578125" xlink:href="#DejaVuSans-36"/>
      <use x="306.201172" xlink:href="#DejaVuSans-30"/>
     </g>
    </g>
    <g id="line2d_23">
     <path d="M 47.27 82.289062 
L 67.27 82.289062 
" style="fill:none;stroke:#0000ff;stroke-dasharray:9.6,2.4,1.5,2.4;stroke-dashoffset:0;stroke-width:1.5;"/>
    </g>
    <g id="line2d_24"/>
    <g id="text_16">
     <!-- 4 Clustered  -->
     <g transform="translate(75.27 79.150312)scale(0.1 -0.1)">
      <use xlink:href="#DejaVuSans-34"/>
      <use x="63.623047" xlink:href="#DejaVuSans-20"/>
      <use x="95.410156" xlink:href="#DejaVuSans-43"/>
      <use x="165.234375" xlink:href="#DejaVuSans-6c"/>
      <use x="193.017578" xlink:href="#DejaVuSans-75"/>
      <use x="256.396484" xlink:href="#DejaVuSans-73"/>
      <use x="308.496094" xlink:href="#DejaVuSans-74"/>
      <use x="347.705078" xlink:href="#DejaVuSans-65"/>
      <use x="409.228516" xlink:href="#DejaVuSans-72"/>
      <use x="448.091797" xlink:href="#DejaVuSans-65"/>
      <use x="509.615234" xlink:href="#DejaVuSans-64"/>
      <use x="573.091797" xlink:href="#DejaVuSans-20"/>
     </g>
     <!--  n=636 -->
     <g transform="translate(75.27 90.348125)scale(0.1 -0.1)">
      <use xlink:href="#DejaVuSans-20"/>
      <use x="31.787109" xlink:href="#DejaVuSans-6e"/>
      <use x="95.166016" xlink:href="#DejaVuSans-3d"/>
      <use x="178.955078" xlink:href="#DejaVuSans-36"/>
      <use x="242.578125" xlink:href="#DejaVuSans-33"/>
      <use x="306.201172" xlink:href="#DejaVuSans-36"/>
     </g>
    </g>
    <g id="line2d_25">
     <path d="M 47.27 108.165 
L 67.27 108.165 
" style="fill:none;stroke:#00ffff;stroke-linecap:square;stroke-width:1.5;"/>
    </g>
    <g id="line2d_26"/>
    <g id="text_17">
     <!-- 2 Random  -->
     <g transform="translate(75.27 105.02625)scale(0.1 -0.1)">
      <defs>
       <path d="M 2841 2188 
Q 3044 2119 3236 1894 
Q 3428 1669 3622 1275 
L 4263 0 
L 3584 0 
L 2988 1197 
Q 2756 1666 2539 1819 
Q 2322 1972 1947 1972 
L 1259 1972 
L 1259 0 
L 628 0 
L 628 4666 
L 2053 4666 
Q 2853 4666 3247 4331 
Q 3641 3997 3641 3322 
Q 3641 2881 3436 2590 
Q 3231 2300 2841 2188 
z
M 1259 4147 
L 1259 2491 
L 2053 2491 
Q 2509 2491 2742 2702 
Q 2975 2913 2975 3322 
Q 2975 3731 2742 3939 
Q 2509 4147 2053 4147 
L 1259 4147 
z
" id="DejaVuSans-52" transform="scale(0.015625)"/>
       <path d="M 2194 1759 
Q 1497 1759 1228 1600 
Q 959 1441 959 1056 
Q 959 750 1161 570 
Q 1363 391 1709 391 
Q 2188 391 2477 730 
Q 2766 1069 2766 1631 
L 2766 1759 
L 2194 1759 
z
M 3341 1997 
L 3341 0 
L 2766 0 
L 2766 531 
Q 2569 213 2275 61 
Q 1981 -91 1556 -91 
Q 1019 -91 701 211 
Q 384 513 384 1019 
Q 384 1609 779 1909 
Q 1175 2209 1959 2209 
L 2766 2209 
L 2766 2266 
Q 2766 2663 2505 2880 
Q 2244 3097 1772 3097 
Q 1472 3097 1187 3025 
Q 903 2953 641 2809 
L 641 3341 
Q 956 3463 1253 3523 
Q 1550 3584 1831 3584 
Q 2591 3584 2966 3190 
Q 3341 2797 3341 1997 
z
" id="DejaVuSans-61" transform="scale(0.015625)"/>
       <path d="M 1959 3097 
Q 1497 3097 1228 2736 
Q 959 2375 959 1747 
Q 959 1119 1226 758 
Q 1494 397 1959 397 
Q 2419 397 2687 759 
Q 2956 1122 2956 1747 
Q 2956 2369 2687 2733 
Q 2419 3097 1959 3097 
z
M 1959 3584 
Q 2709 3584 3137 3096 
Q 3566 2609 3566 1747 
Q 3566 888 3137 398 
Q 2709 -91 1959 -91 
Q 1206 -91 779 398 
Q 353 888 353 1747 
Q 353 2609 779 3096 
Q 1206 3584 1959 3584 
z
" id="DejaVuSans-6f" transform="scale(0.015625)"/>
       <path d="M 3328 2828 
Q 3544 3216 3844 3400 
Q 4144 3584 4550 3584 
Q 5097 3584 5394 3201 
Q 5691 2819 5691 2113 
L 5691 0 
L 5113 0 
L 5113 2094 
Q 5113 2597 4934 2840 
Q 4756 3084 4391 3084 
Q 3944 3084 3684 2787 
Q 3425 2491 3425 1978 
L 3425 0 
L 2847 0 
L 2847 2094 
Q 2847 2600 2669 2842 
Q 2491 3084 2119 3084 
Q 1678 3084 1418 2786 
Q 1159 2488 1159 1978 
L 1159 0 
L 581 0 
L 581 3500 
L 1159 3500 
L 1159 2956 
Q 1356 3278 1631 3431 
Q 1906 3584 2284 3584 
Q 2666 3584 2933 3390 
Q 3200 3197 3328 2828 
z
" id="DejaVuSans-6d" transform="scale(0.015625)"/>
      </defs>
      <use xlink:href="#DejaVuSans-32"/>
      <use x="63.623047" xlink:href="#DejaVuSans-20"/>
      <use x="95.410156" xlink:href="#DejaVuSans-52"/>
      <use x="162.642578" xlink:href="#DejaVuSans-61"/>
      <use x="223.921875" xlink:href="#DejaVuSans-6e"/>
      <use x="287.300781" xlink:href="#DejaVuSans-64"/>
      <use x="350.777344" xlink:href="#DejaVuSans-6f"/>
      <use x="411.958984" xlink:href="#DejaVuSans-6d"/>
      <use x="509.371094" xlink:href="#DejaVuSans-20"/>
     </g>
     <!--  n=313 -->
     <g transform="translate(75.27 116.224063)scale(0.1 -0.1)">
      <use xlink:href="#DejaVuSans-20"/>
      <use x="31.787109" xlink:href="#DejaVuSans-6e"/>
      <use x="95.166016" xlink:href="#DejaVuSans-3d"/>
      <use x="178.955078" xlink:href="#DejaVuSans-33"/>
      <use x="242.578125" xlink:href="#DejaVuSans-31"/>
      <use x="306.201172" xlink:href="#DejaVuSans-33"/>
     </g>
    </g>
    <g id="line2d_27">
     <path d="M 47.27 134.040938 
L 67.27 134.040938 
" style="fill:none;stroke:#00ffff;stroke-dasharray:5.55,2.4;stroke-dashoffset:0;stroke-width:1.5;"/>
    </g>
    <g id="line2d_28"/>
    <g id="text_18">
     <!-- 3 Random  -->
     <g transform="translate(75.27 130.902188)scale(0.1 -0.1)">
      <use xlink:href="#DejaVuSans-33"/>
      <use x="63.623047" xlink:href="#DejaVuSans-20"/>
      <use x="95.410156" xlink:href="#DejaVuSans-52"/>
      <use x="162.642578" xlink:href="#DejaVuSans-61"/>
      <use x="223.921875" xlink:href="#DejaVuSans-6e"/>
      <use x="287.300781" xlink:href="#DejaVuSans-64"/>
      <use x="350.777344" xlink:href="#DejaVuSans-6f"/>
      <use x="411.958984" xlink:href="#DejaVuSans-6d"/>
      <use x="509.371094" xlink:href="#DejaVuSans-20"/>
     </g>
     <!--  n=740 -->
     <g transform="translate(75.27 142.1)scale(0.1 -0.1)">
      <defs>
       <path d="M 525 4666 
L 3525 4666 
L 3525 4397 
L 1831 0 
L 1172 0 
L 2766 4134 
L 525 4134 
L 525 4666 
z
" id="DejaVuSans-37" transform="scale(0.015625)"/>
      </defs>
      <use xlink:href="#DejaVuSans-20"/>
      <use x="31.787109" xlink:href="#DejaVuSans-6e"/>
      <use x="95.166016" xlink:href="#DejaVuSans-3d"/>
      <use x="178.955078" xlink:href="#DejaVuSans-37"/>
      <use x="242.578125" xlink:href="#DejaVuSans-34"/>
      <use x="306.201172" xlink:href="#DejaVuSans-30"/>
     </g>
    </g>
    <g id="line2d_29">
     <path d="M 47.27 159.916875 
L 67.27 159.916875 
" style="fill:none;stroke:#00ffff;stroke-dasharray:9.6,2.4,1.5,2.4;stroke-dashoffset:0;stroke-width:1.5;"/>
    </g>
    <g id="line2d_30"/>
    <g id="text_19">
     <!-- 4 Random  -->
     <g transform="translate(75.27 156.778125)scale(0.1 -0.1)">
      <use xlink:href="#DejaVuSans-34"/>
      <use x="63.623047" xlink:href="#DejaVuSans-20"/>
      <use x="95.410156" xlink:href="#DejaVuSans-52"/>
      <use x="162.642578" xlink:href="#DejaVuSans-61"/>
      <use x="223.921875" xlink:href="#DejaVuSans-6e"/>
      <use x="287.300781" xlink:href="#DejaVuSans-64"/>
      <use x="350.777344" xlink:href="#DejaVuSans-6f"/>
      <use x="411.958984" xlink:href="#DejaVuSans-6d"/>
      <use x="509.371094" xlink:href="#DejaVuSans-20"/>
     </g>
     <!--  n=1252 -->
     <g transform="translate(75.27 167.975938)scale(0.1 -0.1)">
      <defs>
       <path d="M 691 4666 
L 3169 4666 
L 3169 4134 
L 1269 4134 
L 1269 2991 
Q 1406 3038 1543 3061 
Q 1681 3084 1819 3084 
Q 2600 3084 3056 2656 
Q 3513 2228 3513 1497 
Q 3513 744 3044 326 
Q 2575 -91 1722 -91 
Q 1428 -91 1123 -41 
Q 819 9 494 109 
L 494 744 
Q 775 591 1075 516 
Q 1375 441 1709 441 
Q 2250 441 2565 725 
Q 2881 1009 2881 1497 
Q 2881 1984 2565 2268 
Q 2250 2553 1709 2553 
Q 1456 2553 1204 2497 
Q 953 2441 691 2322 
L 691 4666 
z
" id="DejaVuSans-35" transform="scale(0.015625)"/>
      </defs>
      <use xlink:href="#DejaVuSans-20"/>
      <use x="31.787109" xlink:href="#DejaVuSans-6e"/>
      <use x="95.166016" xlink:href="#DejaVuSans-3d"/>
      <use x="178.955078" xlink:href="#DejaVuSans-31"/>
      <use x="242.578125" xlink:href="#DejaVuSans-32"/>
      <use x="306.201172" xlink:href="#DejaVuSans-35"/>
      <use x="369.824219" xlink:href="#DejaVuSans-32"/>
     </g>
    </g>
    <g id="line2d_31">
     <path d="M 47.27 185.792812 
L 67.27 185.792812 
" style="fill:none;stroke:#ff7f00;stroke-dasharray:1.5,2.475;stroke-dashoffset:0;stroke-width:1.5;"/>
    </g>
    <g id="line2d_32"/>
    <g id="text_20">
     <!-- All Credibility  -->
     <g transform="translate(75.27 182.654063)scale(0.1 -0.1)">
      <defs>
       <path d="M 2188 4044 
L 1331 1722 
L 3047 1722 
L 2188 4044 
z
M 1831 4666 
L 2547 4666 
L 4325 0 
L 3669 0 
L 3244 1197 
L 1141 1197 
L 716 0 
L 50 0 
L 1831 4666 
z
" id="DejaVuSans-41" transform="scale(0.015625)"/>
      </defs>
      <use xlink:href="#DejaVuSans-41"/>
      <use x="68.408203" xlink:href="#DejaVuSans-6c"/>
      <use x="96.191406" xlink:href="#DejaVuSans-6c"/>
      <use x="123.974609" xlink:href="#DejaVuSans-20"/>
      <use x="155.761719" xlink:href="#DejaVuSans-43"/>
      <use x="225.585938" xlink:href="#DejaVuSans-72"/>
      <use x="264.449219" xlink:href="#DejaVuSans-65"/>
      <use x="325.972656" xlink:href="#DejaVuSans-64"/>
      <use x="389.449219" xlink:href="#DejaVuSans-69"/>
      <use x="417.232422" xlink:href="#DejaVuSans-62"/>
      <use x="480.708984" xlink:href="#DejaVuSans-69"/>
      <use x="508.492188" xlink:href="#DejaVuSans-6c"/>
      <use x="536.275391" xlink:href="#DejaVuSans-69"/>
      <use x="564.058594" xlink:href="#DejaVuSans-74"/>
      <use x="603.267578" xlink:href="#DejaVuSans-79"/>
      <use x="662.447266" xlink:href="#DejaVuSans-20"/>
     </g>
     <!--   n=171 -->
     <g transform="translate(75.27 193.851875)scale(0.1 -0.1)">
      <use xlink:href="#DejaVuSans-20"/>
      <use x="31.787109" xlink:href="#DejaVuSans-20"/>
      <use x="63.574219" xlink:href="#DejaVuSans-6e"/>
      <use x="126.953125" xlink:href="#DejaVuSans-3d"/>
      <use x="210.742188" xlink:href="#DejaVuSans-31"/>
      <use x="274.365234" xlink:href="#DejaVuSans-37"/>
      <use x="337.988281" xlink:href="#DejaVuSans-31"/>
     </g>
    </g>
   </g>
  </g>
 </g>
 <defs>
  <clipPath id="p02964a8c13">
   <rect height="292.84" width="411.73" x="38.27" y="10.8"/>
  </clipPath>
 </defs>
</svg>
