<?xml version="1.0" encoding="utf-8" standalone="no"?>
<!DOCTYPE svg PUBLIC "-//W3C//DTD SVG 1.1//EN"
  "http://www.w3.org/Graphics/SVG/1.1/DTD/svg11.dtd">
<svg height="345.6pt" version="1.1" viewBox="0 0 460.8 345.6" width="460.8pt" xmlns="http://www.w3.org/2000/svg" xmlns:xlink="http://www.w3.org/1999/xlink">
 <metadata>
  <rdf:RDF xmlns:cc="http://creativecommons.org/ns#" xmlns:dc="http://purl.org/dc/elements/1.1/" xmlns:rdf="http://www.w3.org/1999/02/22-rdf-syntax-ns#">
   <cc:Work>
    <dc:type rdf:resource="http://purl.org/dc/dcmitype/StillImage"/>
    <dc:date>2021-12-21T22:13:19.701728</dc:date>
    <dc:format>image/svg+xml</dc:format>
    <dc:creator>
     <cc:Agent>
      <dc:title>Matplotlib v3.4.3, https://matplotlib.org/</dc:title>
     </cc:Agent>
    </dc:creator>
   </cc:Work>
  </rdf:RDF>
 </metadata>
 <defs>
  <style type="text/css">*{stroke-linecap:butt;stroke-linejoin:round;}</style>
 </defs>
 <g id="figure_1">
  <g id="patch_1">
   <path d="M 0 345.6 
L 460.8 345.6 
L 460.8 0 
L 0 0 
z
" style="fill:#ffffff;"/>
  </g>
  <g id="axes_1">
   <g id="patch_2">
    <path d="M 47.81 303.64 
L 349.245392 303.64 
L 349.245392 25.44 
L 47.81 25.44 
z
" style="fill:#ffffff;"/>
   </g>
   <g id="PolyCollection_1">
    <defs>
     <path d="M 98.049232 -54.605455 
L 85.65259 -54.605455 
L 85.137547 -57.160092 
L 84.679656 -59.714729 
L 84.283945 -62.269366 
L 83.954123 -64.824004 
L 83.692494 -67.378641 
L 83.499913 -69.933278 
L 83.375802 -72.487916 
L 83.318199 -75.042553 
L 83.323853 -77.59719 
L 83.38836 -80.151827 
L 83.506323 -82.706465 
L 83.67153 -85.261102 
L 83.877156 -87.815739 
L 84.115957 -90.370376 
L 84.380472 -92.925014 
L 84.663208 -95.479651 
L 84.956813 -98.034288 
L 85.254228 -100.588926 
L 85.548817 -103.143563 
L 85.834466 -105.6982 
L 86.105667 -108.252837 
L 86.357564 -110.807475 
L 86.585986 -113.362112 
L 86.787455 -115.916749 
L 86.959177 -118.471387 
L 87.099022 -121.026024 
L 87.205494 -123.580661 
L 87.277693 -126.135298 
L 87.315274 -128.689936 
L 87.31841 -131.244573 
L 87.28775 -133.79921 
L 87.224382 -136.353848 
L 87.129799 -138.908485 
L 87.005862 -141.463122 
L 86.854769 -144.017759 
L 86.679015 -146.572397 
L 86.481354 -149.127034 
L 86.264756 -151.681671 
L 86.032361 -154.236309 
L 85.787419 -156.790946 
L 85.533234 -159.345583 
L 85.273098 -161.90022 
L 85.010222 -164.454858 
L 84.74767 -167.009495 
L 84.488285 -169.564132 
L 84.234627 -172.11877 
L 83.988915 -174.673407 
L 83.752967 -177.228044 
L 83.528164 -179.782681 
L 83.315414 -182.337319 
L 83.115128 -184.891956 
L 82.927209 -187.446593 
L 82.751052 -190.00123 
L 82.58555 -192.555868 
L 82.429109 -195.110505 
L 82.279669 -197.665142 
L 82.134732 -200.21978 
L 81.99139 -202.774417 
L 81.846355 -205.329054 
L 81.69599 -207.883691 
L 81.536341 -210.438329 
L 81.363167 -212.992966 
L 81.171972 -215.547603 
L 80.958033 -218.102241 
L 80.716438 -220.656878 
L 80.442123 -223.211515 
L 80.129919 -225.766152 
L 79.77461 -228.32079 
L 79.371006 -230.875427 
L 78.914036 -233.430064 
L 78.398861 -235.984702 
L 77.82102 -238.539339 
L 77.176596 -241.093976 
L 76.462416 -243.648613 
L 75.676283 -246.203251 
L 74.817217 -248.757888 
L 73.885734 -251.312525 
L 72.884108 -253.867163 
L 71.816645 -256.4218 
L 70.689918 -258.976437 
L 69.512974 -261.531074 
L 68.297465 -264.085712 
L 67.05771 -266.640349 
L 65.810647 -269.194986 
L 64.575679 -271.749624 
L 63.37439 -274.304261 
L 62.230137 -276.858898 
L 61.167506 -279.413535 
L 60.211669 -281.968173 
L 59.387634 -284.52281 
L 58.719435 -287.077447 
L 58.22928 -289.632084 
L 57.93672 -292.186722 
L 57.857846 -294.741359 
L 58.004598 -297.295996 
L 58.384183 -299.850634 
L 58.998672 -302.405271 
L 59.844782 -304.959908 
L 60.913863 -307.514545 
L 98.049232 -307.514545 
L 98.049232 -307.514545 
L 98.049232 -304.959908 
L 98.049232 -302.405271 
L 98.049232 -299.850634 
L 98.049232 -297.295996 
L 98.049232 -294.741359 
L 98.049232 -292.186722 
L 98.049232 -289.632084 
L 98.049232 -287.077447 
L 98.049232 -284.52281 
L 98.049232 -281.968173 
L 98.049232 -279.413535 
L 98.049232 -276.858898 
L 98.049232 -274.304261 
L 98.049232 -271.749624 
L 98.049232 -269.194986 
L 98.049232 -266.640349 
L 98.049232 -264.085712 
L 98.049232 -261.531074 
L 98.049232 -258.976437 
L 98.049232 -256.4218 
L 98.049232 -253.867163 
L 98.049232 -251.312525 
L 98.049232 -248.757888 
L 98.049232 -246.203251 
L 98.049232 -243.648613 
L 98.049232 -241.093976 
L 98.049232 -238.539339 
L 98.049232 -235.984702 
L 98.049232 -233.430064 
L 98.049232 -230.875427 
L 98.049232 -228.32079 
L 98.049232 -225.766152 
L 98.049232 -223.211515 
L 98.049232 -220.656878 
L 98.049232 -218.102241 
L 98.049232 -215.547603 
L 98.049232 -212.992966 
L 98.049232 -210.438329 
L 98.049232 -207.883691 
L 98.049232 -205.329054 
L 98.049232 -202.774417 
L 98.049232 -200.21978 
L 98.049232 -197.665142 
L 98.049232 -195.110505 
L 98.049232 -192.555868 
L 98.049232 -190.00123 
L 98.049232 -187.446593 
L 98.049232 -184.891956 
L 98.049232 -182.337319 
L 98.049232 -179.782681 
L 98.049232 -177.228044 
L 98.049232 -174.673407 
L 98.049232 -172.11877 
L 98.049232 -169.564132 
L 98.049232 -167.009495 
L 98.049232 -164.454858 
L 98.049232 -161.90022 
L 98.049232 -159.345583 
L 98.049232 -156.790946 
L 98.049232 -154.236309 
L 98.049232 -151.681671 
L 98.049232 -149.127034 
L 98.049232 -146.572397 
L 98.049232 -144.017759 
L 98.049232 -141.463122 
L 98.049232 -138.908485 
L 98.049232 -136.353848 
L 98.049232 -133.79921 
L 98.049232 -131.244573 
L 98.049232 -128.689936 
L 98.049232 -126.135298 
L 98.049232 -123.580661 
L 98.049232 -121.026024 
L 98.049232 -118.471387 
L 98.049232 -115.916749 
L 98.049232 -113.362112 
L 98.049232 -110.807475 
L 98.049232 -108.252837 
L 98.049232 -105.6982 
L 98.049232 -103.143563 
L 98.049232 -100.588926 
L 98.049232 -98.034288 
L 98.049232 -95.479651 
L 98.049232 -92.925014 
L 98.049232 -90.370376 
L 98.049232 -87.815739 
L 98.049232 -85.261102 
L 98.049232 -82.706465 
L 98.049232 -80.151827 
L 98.049232 -77.59719 
L 98.049232 -75.042553 
L 98.049232 -72.487916 
L 98.049232 -69.933278 
L 98.049232 -67.378641 
L 98.049232 -64.824004 
L 98.049232 -62.269366 
L 98.049232 -59.714729 
L 98.049232 -57.160092 
L 98.049232 -54.605455 
z
" id="m21cc540725" style="stroke:#4c4c4c;stroke-width:1.5;"/>
    </defs>
    <g clip-path="url(#p1f6e87edc0)">
     <use style="fill:#2020df;stroke:#4c4c4c;stroke-width:1.5;" x="0" xlink:href="#m21cc540725" y="345.6"/>
    </g>
   </g>
   <g id="PolyCollection_2">
    <defs>
     <path d="M 112.586885 -54.605455 
L 98.049232 -54.605455 
L 98.049232 -57.160092 
L 98.049232 -59.714729 
L 98.049232 -62.269366 
L 98.049232 -64.824004 
L 98.049232 -67.378641 
L 98.049232 -69.933278 
L 98.049232 -72.487916 
L 98.049232 -75.042553 
L 98.049232 -77.59719 
L 98.049232 -80.151827 
L 98.049232 -82.706465 
L 98.049232 -85.261102 
L 98.049232 -87.815739 
L 98.049232 -90.370376 
L 98.049232 -92.925014 
L 98.049232 -95.479651 
L 98.049232 -98.034288 
L 98.049232 -100.588926 
L 98.049232 -103.143563 
L 98.049232 -105.6982 
L 98.049232 -108.252837 
L 98.049232 -110.807475 
L 98.049232 -113.362112 
L 98.049232 -115.916749 
L 98.049232 -118.471387 
L 98.049232 -121.026024 
L 98.049232 -123.580661 
L 98.049232 -126.135298 
L 98.049232 -128.689936 
L 98.049232 -131.244573 
L 98.049232 -133.79921 
L 98.049232 -136.353848 
L 98.049232 -138.908485 
L 98.049232 -141.463122 
L 98.049232 -144.017759 
L 98.049232 -146.572397 
L 98.049232 -149.127034 
L 98.049232 -151.681671 
L 98.049232 -154.236309 
L 98.049232 -156.790946 
L 98.049232 -159.345583 
L 98.049232 -161.90022 
L 98.049232 -164.454858 
L 98.049232 -167.009495 
L 98.049232 -169.564132 
L 98.049232 -172.11877 
L 98.049232 -174.673407 
L 98.049232 -177.228044 
L 98.049232 -179.782681 
L 98.049232 -182.337319 
L 98.049232 -184.891956 
L 98.049232 -187.446593 
L 98.049232 -190.00123 
L 98.049232 -192.555868 
L 98.049232 -195.110505 
L 98.049232 -197.665142 
L 98.049232 -200.21978 
L 98.049232 -202.774417 
L 98.049232 -205.329054 
L 98.049232 -207.883691 
L 98.049232 -210.438329 
L 98.049232 -212.992966 
L 98.049232 -215.547603 
L 98.049232 -218.102241 
L 98.049232 -220.656878 
L 98.049232 -223.211515 
L 98.049232 -225.766152 
L 98.049232 -228.32079 
L 98.049232 -230.875427 
L 98.049232 -233.430064 
L 98.049232 -235.984702 
L 98.049232 -238.539339 
L 98.049232 -241.093976 
L 98.049232 -243.648613 
L 98.049232 -246.203251 
L 98.049232 -248.757888 
L 98.049232 -251.312525 
L 98.049232 -253.867163 
L 98.049232 -256.4218 
L 98.049232 -258.976437 
L 98.049232 -261.531074 
L 98.049232 -264.085712 
L 98.049232 -266.640349 
L 98.049232 -269.194986 
L 98.049232 -271.749624 
L 98.049232 -274.304261 
L 98.049232 -276.858898 
L 98.049232 -279.413535 
L 98.049232 -281.968173 
L 98.049232 -284.52281 
L 98.049232 -287.077447 
L 98.049232 -289.632084 
L 98.049232 -292.186722 
L 98.049232 -294.741359 
L 98.049232 -297.295996 
L 98.049232 -299.850634 
L 98.049232 -302.405271 
L 98.049232 -304.959908 
L 98.049232 -307.514545 
L 127.184825 -307.514545 
L 127.184825 -307.514545 
L 128.151998 -304.959908 
L 128.955097 -302.405271 
L 129.586608 -299.850634 
L 130.043148 -297.295996 
L 130.325456 -294.741359 
L 130.438235 -292.186722 
L 130.389837 -289.632084 
L 130.191822 -287.077447 
L 129.858422 -284.52281 
L 129.405943 -281.968173 
L 128.852121 -279.413535 
L 128.215496 -276.858898 
L 127.514803 -274.304261 
L 126.768416 -271.749624 
L 125.993873 -269.194986 
L 125.207474 -266.640349 
L 124.423978 -264.085712 
L 123.65638 -261.531074 
L 122.915779 -258.976437 
L 122.211321 -256.4218 
L 121.550202 -253.867163 
L 120.93773 -251.312525 
L 120.377423 -248.757888 
L 119.87114 -246.203251 
L 119.419232 -243.648613 
L 119.020707 -241.093976 
L 118.673401 -238.539339 
L 118.374159 -235.984702 
L 118.119012 -233.430064 
L 117.903357 -230.875427 
L 117.722137 -228.32079 
L 117.570011 -225.766152 
L 117.441532 -223.211515 
L 117.331298 -220.656878 
L 117.234112 -218.102241 
L 117.145111 -215.547603 
L 117.05988 -212.992966 
L 116.97455 -210.438329 
L 116.885856 -207.883691 
L 116.791183 -205.329054 
L 116.68857 -202.774417 
L 116.576691 -200.21978 
L 116.454816 -197.665142 
L 116.322744 -195.110505 
L 116.180719 -192.555868 
L 116.029347 -190.00123 
L 115.869493 -187.446593 
L 115.702202 -184.891956 
L 115.528608 -182.337319 
L 115.349874 -179.782681 
L 115.16714 -177.228044 
L 114.981493 -174.673407 
L 114.793958 -172.11877 
L 114.605508 -169.564132 
L 114.417083 -167.009495 
L 114.229629 -164.454858 
L 114.044138 -161.90022 
L 113.86169 -159.345583 
L 113.683496 -156.790946 
L 113.510924 -154.236309 
L 113.345528 -151.681671 
L 113.189045 -149.127034 
L 113.043395 -146.572397 
L 112.910651 -144.017759 
L 112.793005 -141.463122 
L 112.692711 -138.908485 
L 112.612029 -136.353848 
L 112.553146 -133.79921 
L 112.518105 -131.244573 
L 112.508719 -128.689936 
L 112.526494 -126.135298 
L 112.572544 -123.580661 
L 112.647512 -121.026024 
L 112.751496 -118.471387 
L 112.88398 -115.916749 
L 113.043766 -113.362112 
L 113.228925 -110.807475 
L 113.436753 -108.252837 
L 113.663737 -105.6982 
L 113.905552 -103.143563 
L 114.15706 -100.588926 
L 114.412351 -98.034288 
L 114.6648 -95.479651 
L 114.907161 -92.925014 
L 115.131687 -90.370376 
L 115.330288 -87.815739 
L 115.49472 -85.261102 
L 115.616792 -82.706465 
L 115.68861 -80.151827 
L 115.702817 -77.59719 
L 115.652854 -75.042553 
L 115.533202 -72.487916 
L 115.339611 -69.933278 
L 115.069296 -67.378641 
L 114.721093 -64.824004 
L 114.295562 -62.269366 
L 113.795027 -59.714729 
L 113.223559 -57.160092 
L 112.586885 -54.605455 
z
" id="m59dce9887f" style="stroke:#4c4c4c;stroke-width:1.5;"/>
    </defs>
    <g clip-path="url(#p1f6e87edc0)">
     <use style="fill:#20dfdf;stroke:#4c4c4c;stroke-width:1.5;" x="0" xlink:href="#m59dce9887f" y="345.6"/>
    </g>
   </g>
   <g id="PolyCollection_3">
    <defs>
     <path d="M 198.527696 -54.605455 
L 187.994351 -54.605455 
L 187.430089 -57.160092 
L 186.91109 -59.714729 
L 186.443281 -62.269366 
L 186.031391 -64.824004 
L 185.678867 -67.378641 
L 185.387844 -69.933278 
L 185.159163 -72.487916 
L 184.99243 -75.042553 
L 184.88612 -77.59719 
L 184.837687 -80.151827 
L 184.843709 -82.706465 
L 184.900029 -85.261102 
L 185.001896 -87.815739 
L 185.144108 -90.370376 
L 185.321136 -92.925014 
L 185.527247 -95.479651 
L 185.756614 -98.034288 
L 186.003417 -100.588926 
L 186.261933 -103.143563 
L 186.526629 -105.6982 
L 186.792241 -108.252837 
L 187.053852 -110.807475 
L 187.306962 -113.362112 
L 187.547552 -115.916749 
L 187.772132 -118.471387 
L 187.977784 -121.026024 
L 188.162177 -123.580661 
L 188.323579 -126.135298 
L 188.460835 -128.689936 
L 188.573334 -131.244573 
L 188.660958 -133.79921 
L 188.724014 -136.353848 
L 188.763151 -138.908485 
L 188.779281 -141.463122 
L 188.773484 -144.017759 
L 188.74693 -146.572397 
L 188.700799 -149.127034 
L 188.636221 -151.681671 
L 188.554226 -154.236309 
L 188.455711 -156.790946 
L 188.341431 -159.345583 
L 188.211998 -161.90022 
L 188.067898 -164.454858 
L 187.909521 -167.009495 
L 187.737197 -169.564132 
L 187.551231 -172.11877 
L 187.351949 -174.673407 
L 187.139727 -177.228044 
L 186.915023 -179.782681 
L 186.678395 -182.337319 
L 186.430509 -184.891956 
L 186.172135 -187.446593 
L 185.904132 -190.00123 
L 185.627419 -192.555868 
L 185.34294 -195.110505 
L 185.051618 -197.665142 
L 184.754299 -200.21978 
L 184.451702 -202.774417 
L 184.144351 -205.329054 
L 183.832521 -207.883691 
L 183.516174 -210.438329 
L 183.194907 -212.992966 
L 182.867895 -215.547603 
L 182.533841 -218.102241 
L 182.19094 -220.656878 
L 181.836834 -223.211515 
L 181.468596 -225.766152 
L 181.082702 -228.32079 
L 180.675039 -230.875427 
L 180.240916 -233.430064 
L 179.775109 -235.984702 
L 179.271934 -238.539339 
L 178.725356 -241.093976 
L 178.129153 -243.648613 
L 177.477129 -246.203251 
L 176.763386 -248.757888 
L 175.982658 -251.312525 
L 175.130712 -253.867163 
L 174.20479 -256.4218 
L 173.204094 -258.976437 
L 172.130289 -261.531074 
L 170.987986 -264.085712 
L 169.785187 -266.640349 
L 168.533633 -269.194986 
L 167.249029 -271.749624 
L 165.951104 -274.304261 
L 164.663458 -276.858898 
L 163.413196 -279.413535 
L 162.230306 -281.968173 
L 161.146812 -284.52281 
L 160.195701 -287.077447 
L 159.409685 -289.632084 
L 158.819834 -292.186722 
L 158.454174 -294.741359 
L 158.33631 -297.295996 
L 158.484188 -299.850634 
L 158.909047 -302.405271 
L 159.614666 -304.959908 
L 160.596946 -307.514545 
L 198.527696 -307.514545 
L 198.527696 -307.514545 
L 198.527696 -304.959908 
L 198.527696 -302.405271 
L 198.527696 -299.850634 
L 198.527696 -297.295996 
L 198.527696 -294.741359 
L 198.527696 -292.186722 
L 198.527696 -289.632084 
L 198.527696 -287.077447 
L 198.527696 -284.52281 
L 198.527696 -281.968173 
L 198.527696 -279.413535 
L 198.527696 -276.858898 
L 198.527696 -274.304261 
L 198.527696 -271.749624 
L 198.527696 -269.194986 
L 198.527696 -266.640349 
L 198.527696 -264.085712 
L 198.527696 -261.531074 
L 198.527696 -258.976437 
L 198.527696 -256.4218 
L 198.527696 -253.867163 
L 198.527696 -251.312525 
L 198.527696 -248.757888 
L 198.527696 -246.203251 
L 198.527696 -243.648613 
L 198.527696 -241.093976 
L 198.527696 -238.539339 
L 198.527696 -235.984702 
L 198.527696 -233.430064 
L 198.527696 -230.875427 
L 198.527696 -228.32079 
L 198.527696 -225.766152 
L 198.527696 -223.211515 
L 198.527696 -220.656878 
L 198.527696 -218.102241 
L 198.527696 -215.547603 
L 198.527696 -212.992966 
L 198.527696 -210.438329 
L 198.527696 -207.883691 
L 198.527696 -205.329054 
L 198.527696 -202.774417 
L 198.527696 -200.21978 
L 198.527696 -197.665142 
L 198.527696 -195.110505 
L 198.527696 -192.555868 
L 198.527696 -190.00123 
L 198.527696 -187.446593 
L 198.527696 -184.891956 
L 198.527696 -182.337319 
L 198.527696 -179.782681 
L 198.527696 -177.228044 
L 198.527696 -174.673407 
L 198.527696 -172.11877 
L 198.527696 -169.564132 
L 198.527696 -167.009495 
L 198.527696 -164.454858 
L 198.527696 -161.90022 
L 198.527696 -159.345583 
L 198.527696 -156.790946 
L 198.527696 -154.236309 
L 198.527696 -151.681671 
L 198.527696 -149.127034 
L 198.527696 -146.572397 
L 198.527696 -144.017759 
L 198.527696 -141.463122 
L 198.527696 -138.908485 
L 198.527696 -136.353848 
L 198.527696 -133.79921 
L 198.527696 -131.244573 
L 198.527696 -128.689936 
L 198.527696 -126.135298 
L 198.527696 -123.580661 
L 198.527696 -121.026024 
L 198.527696 -118.471387 
L 198.527696 -115.916749 
L 198.527696 -113.362112 
L 198.527696 -110.807475 
L 198.527696 -108.252837 
L 198.527696 -105.6982 
L 198.527696 -103.143563 
L 198.527696 -100.588926 
L 198.527696 -98.034288 
L 198.527696 -95.479651 
L 198.527696 -92.925014 
L 198.527696 -90.370376 
L 198.527696 -87.815739 
L 198.527696 -85.261102 
L 198.527696 -82.706465 
L 198.527696 -80.151827 
L 198.527696 -77.59719 
L 198.527696 -75.042553 
L 198.527696 -72.487916 
L 198.527696 -69.933278 
L 198.527696 -67.378641 
L 198.527696 -64.824004 
L 198.527696 -62.269366 
L 198.527696 -59.714729 
L 198.527696 -57.160092 
L 198.527696 -54.605455 
z
" id="m1113dc6efe" style="stroke:#4c4c4c;stroke-width:1.5;"/>
    </defs>
    <g clip-path="url(#p1f6e87edc0)">
     <use style="fill:#2020df;stroke:#4c4c4c;stroke-width:1.5;" x="0" xlink:href="#m1113dc6efe" y="345.6"/>
    </g>
   </g>
   <g id="PolyCollection_4">
    <defs>
     <path d="M 209.478861 -54.605455 
L 198.527696 -54.605455 
L 198.527696 -57.160092 
L 198.527696 -59.714729 
L 198.527696 -62.269366 
L 198.527696 -64.824004 
L 198.527696 -67.378641 
L 198.527696 -69.933278 
L 198.527696 -72.487916 
L 198.527696 -75.042553 
L 198.527696 -77.59719 
L 198.527696 -80.151827 
L 198.527696 -82.706465 
L 198.527696 -85.261102 
L 198.527696 -87.815739 
L 198.527696 -90.370376 
L 198.527696 -92.925014 
L 198.527696 -95.479651 
L 198.527696 -98.034288 
L 198.527696 -100.588926 
L 198.527696 -103.143563 
L 198.527696 -105.6982 
L 198.527696 -108.252837 
L 198.527696 -110.807475 
L 198.527696 -113.362112 
L 198.527696 -115.916749 
L 198.527696 -118.471387 
L 198.527696 -121.026024 
L 198.527696 -123.580661 
L 198.527696 -126.135298 
L 198.527696 -128.689936 
L 198.527696 -131.244573 
L 198.527696 -133.79921 
L 198.527696 -136.353848 
L 198.527696 -138.908485 
L 198.527696 -141.463122 
L 198.527696 -144.017759 
L 198.527696 -146.572397 
L 198.527696 -149.127034 
L 198.527696 -151.681671 
L 198.527696 -154.236309 
L 198.527696 -156.790946 
L 198.527696 -159.345583 
L 198.527696 -161.90022 
L 198.527696 -164.454858 
L 198.527696 -167.009495 
L 198.527696 -169.564132 
L 198.527696 -172.11877 
L 198.527696 -174.673407 
L 198.527696 -177.228044 
L 198.527696 -179.782681 
L 198.527696 -182.337319 
L 198.527696 -184.891956 
L 198.527696 -187.446593 
L 198.527696 -190.00123 
L 198.527696 -192.555868 
L 198.527696 -195.110505 
L 198.527696 -197.665142 
L 198.527696 -200.21978 
L 198.527696 -202.774417 
L 198.527696 -205.329054 
L 198.527696 -207.883691 
L 198.527696 -210.438329 
L 198.527696 -212.992966 
L 198.527696 -215.547603 
L 198.527696 -218.102241 
L 198.527696 -220.656878 
L 198.527696 -223.211515 
L 198.527696 -225.766152 
L 198.527696 -228.32079 
L 198.527696 -230.875427 
L 198.527696 -233.430064 
L 198.527696 -235.984702 
L 198.527696 -238.539339 
L 198.527696 -241.093976 
L 198.527696 -243.648613 
L 198.527696 -246.203251 
L 198.527696 -248.757888 
L 198.527696 -251.312525 
L 198.527696 -253.867163 
L 198.527696 -256.4218 
L 198.527696 -258.976437 
L 198.527696 -261.531074 
L 198.527696 -264.085712 
L 198.527696 -266.640349 
L 198.527696 -269.194986 
L 198.527696 -271.749624 
L 198.527696 -274.304261 
L 198.527696 -276.858898 
L 198.527696 -279.413535 
L 198.527696 -281.968173 
L 198.527696 -284.52281 
L 198.527696 -287.077447 
L 198.527696 -289.632084 
L 198.527696 -292.186722 
L 198.527696 -294.741359 
L 198.527696 -297.295996 
L 198.527696 -299.850634 
L 198.527696 -302.405271 
L 198.527696 -304.959908 
L 198.527696 -307.514545 
L 232.846063 -307.514545 
L 232.846063 -307.514545 
L 233.868763 -304.959908 
L 234.585835 -302.405271 
L 234.991941 -299.850634 
L 235.092189 -297.295996 
L 234.901459 -294.741359 
L 234.44321 -292.186722 
L 233.747878 -289.632084 
L 232.851006 -287.077447 
L 231.791246 -284.52281 
L 230.608388 -281.968173 
L 229.34154 -279.413535 
L 228.027565 -276.858898 
L 226.699831 -274.304261 
L 225.387338 -271.749624 
L 224.114195 -269.194986 
L 222.89944 -266.640349 
L 221.757163 -264.085712 
L 220.696849 -261.531074 
L 219.72391 -258.976437 
L 218.840307 -256.4218 
L 218.045227 -253.867163 
L 217.335756 -251.312525 
L 216.707499 -248.757888 
L 216.155139 -246.203251 
L 215.672893 -243.648613 
L 215.254879 -241.093976 
L 214.895381 -238.539339 
L 214.589019 -235.984702 
L 214.330842 -233.430064 
L 214.116355 -230.875427 
L 213.941485 -228.32079 
L 213.802525 -225.766152 
L 213.696047 -223.211515 
L 213.618812 -220.656878 
L 213.567682 -218.102241 
L 213.539554 -215.547603 
L 213.531307 -212.992966 
L 213.539783 -210.438329 
L 213.561786 -207.883691 
L 213.594117 -205.329054 
L 213.633627 -202.774417 
L 213.677289 -200.21978 
L 213.722277 -197.665142 
L 213.766059 -195.110505 
L 213.806476 -192.555868 
L 213.841818 -190.00123 
L 213.870875 -187.446593 
L 213.892972 -184.891956 
L 213.907972 -182.337319 
L 213.916258 -179.782681 
L 213.918677 -177.228044 
L 213.916465 -174.673407 
L 213.911148 -172.11877 
L 213.904424 -169.564132 
L 213.898041 -167.009495 
L 213.893665 -164.454858 
L 213.892762 -161.90022 
L 213.896491 -159.345583 
L 213.905624 -156.790946 
L 213.920485 -154.236309 
L 213.940939 -151.681671 
L 213.966399 -149.127034 
L 213.995884 -146.572397 
L 214.028098 -144.017759 
L 214.06154 -141.463122 
L 214.094632 -138.908485 
L 214.125857 -136.353848 
L 214.153885 -133.79921 
L 214.177692 -131.244573 
L 214.196654 -128.689936 
L 214.210595 -126.135298 
L 214.219811 -123.580661 
L 214.22503 -121.026024 
L 214.227345 -118.471387 
L 214.22809 -115.916749 
L 214.228685 -113.362112 
L 214.230459 -110.807475 
L 214.234449 -108.252837 
L 214.241195 -105.6982 
L 214.250559 -103.143563 
L 214.261547 -100.588926 
L 214.272189 -98.034288 
L 214.279459 -95.479651 
L 214.279255 -92.925014 
L 214.26645 -90.370376 
L 214.235014 -87.815739 
L 214.178205 -85.261102 
L 214.08883 -82.706465 
L 213.959559 -80.151827 
L 213.783287 -77.59719 
L 213.553516 -75.042553 
L 213.264741 -72.487916 
L 212.91282 -69.933278 
L 212.495292 -67.378641 
L 212.011627 -64.824004 
L 211.463396 -62.269366 
L 210.85432 -59.714729 
L 210.190223 -57.160092 
L 209.478861 -54.605455 
z
" id="mc38e2172a4" style="stroke:#4c4c4c;stroke-width:1.5;"/>
    </defs>
    <g clip-path="url(#p1f6e87edc0)">
     <use style="fill:#20dfdf;stroke:#4c4c4c;stroke-width:1.5;" x="0" xlink:href="#mc38e2172a4" y="345.6"/>
    </g>
   </g>
   <g id="PolyCollection_5">
    <defs>
     <path d="M 299.00616 -54.605455 
L 290.839083 -54.605455 
L 290.349736 -57.160092 
L 289.894873 -59.714729 
L 289.48009 -62.269366 
L 289.109994 -64.824004 
L 288.788114 -67.378641 
L 288.516845 -69.933278 
L 288.297445 -72.487916 
L 288.130064 -75.042553 
L 288.013799 -77.59719 
L 287.946776 -80.151827 
L 287.926243 -82.706465 
L 287.948678 -85.261102 
L 288.009894 -87.815739 
L 288.105156 -90.370376 
L 288.229295 -92.925014 
L 288.376826 -95.479651 
L 288.542066 -98.034288 
L 288.719255 -100.588926 
L 288.902679 -103.143563 
L 289.086797 -105.6982 
L 289.266355 -108.252837 
L 289.436507 -110.807475 
L 289.592918 -113.362112 
L 289.731862 -115.916749 
L 289.850292 -118.471387 
L 289.945904 -121.026024 
L 290.017172 -123.580661 
L 290.063357 -126.135298 
L 290.084506 -128.689936 
L 290.081415 -131.244573 
L 290.055583 -133.79921 
L 290.009145 -136.353848 
L 289.944782 -138.908485 
L 289.865623 -141.463122 
L 289.775136 -144.017759 
L 289.677 -146.572397 
L 289.574973 -149.127034 
L 289.472754 -151.681671 
L 289.37384 -154.236309 
L 289.281385 -156.790946 
L 289.198067 -159.345583 
L 289.125969 -161.90022 
L 289.066477 -164.454858 
L 289.02021 -167.009495 
L 288.98698 -169.564132 
L 288.965792 -172.11877 
L 288.954884 -174.673407 
L 288.951812 -177.228044 
L 288.953572 -179.782681 
L 288.956762 -182.337319 
L 288.957756 -184.891956 
L 288.952912 -187.446593 
L 288.938767 -190.00123 
L 288.912232 -192.555868 
L 288.870753 -195.110505 
L 288.812446 -197.665142 
L 288.736181 -200.21978 
L 288.641611 -202.774417 
L 288.529148 -205.329054 
L 288.39988 -207.883691 
L 288.25543 -210.438329 
L 288.097776 -212.992966 
L 287.929023 -215.547603 
L 287.751157 -218.102241 
L 287.565782 -220.656878 
L 287.373859 -223.211515 
L 287.175463 -225.766152 
L 286.96957 -228.32079 
L 286.753889 -230.875427 
L 286.524749 -233.430064 
L 286.277051 -235.984702 
L 286.004303 -238.539339 
L 285.698732 -241.093976 
L 285.351486 -243.648613 
L 284.952928 -246.203251 
L 284.49302 -248.757888 
L 283.961799 -251.312525 
L 283.349924 -253.867163 
L 282.649301 -256.4218 
L 281.85375 -258.976437 
L 280.959692 -261.531074 
L 279.966838 -264.085712 
L 278.878815 -266.640349 
L 277.703706 -269.194986 
L 276.454451 -271.749624 
L 275.149043 -274.304261 
L 273.810505 -276.858898 
L 272.466581 -279.413535 
L 271.149136 -281.968173 
L 269.893254 -284.52281 
L 268.736052 -287.077447 
L 267.715248 -289.632084 
L 266.867549 -292.186722 
L 266.226948 -294.741359 
L 265.823026 -297.295996 
L 265.679373 -299.850634 
L 265.812245 -302.405271 
L 266.229542 -304.959908 
L 266.930213 -307.514545 
L 299.00616 -307.514545 
L 299.00616 -307.514545 
L 299.00616 -304.959908 
L 299.00616 -302.405271 
L 299.00616 -299.850634 
L 299.00616 -297.295996 
L 299.00616 -294.741359 
L 299.00616 -292.186722 
L 299.00616 -289.632084 
L 299.00616 -287.077447 
L 299.00616 -284.52281 
L 299.00616 -281.968173 
L 299.00616 -279.413535 
L 299.00616 -276.858898 
L 299.00616 -274.304261 
L 299.00616 -271.749624 
L 299.00616 -269.194986 
L 299.00616 -266.640349 
L 299.00616 -264.085712 
L 299.00616 -261.531074 
L 299.00616 -258.976437 
L 299.00616 -256.4218 
L 299.00616 -253.867163 
L 299.00616 -251.312525 
L 299.00616 -248.757888 
L 299.00616 -246.203251 
L 299.00616 -243.648613 
L 299.00616 -241.093976 
L 299.00616 -238.539339 
L 299.00616 -235.984702 
L 299.00616 -233.430064 
L 299.00616 -230.875427 
L 299.00616 -228.32079 
L 299.00616 -225.766152 
L 299.00616 -223.211515 
L 299.00616 -220.656878 
L 299.00616 -218.102241 
L 299.00616 -215.547603 
L 299.00616 -212.992966 
L 299.00616 -210.438329 
L 299.00616 -207.883691 
L 299.00616 -205.329054 
L 299.00616 -202.774417 
L 299.00616 -200.21978 
L 299.00616 -197.665142 
L 299.00616 -195.110505 
L 299.00616 -192.555868 
L 299.00616 -190.00123 
L 299.00616 -187.446593 
L 299.00616 -184.891956 
L 299.00616 -182.337319 
L 299.00616 -179.782681 
L 299.00616 -177.228044 
L 299.00616 -174.673407 
L 299.00616 -172.11877 
L 299.00616 -169.564132 
L 299.00616 -167.009495 
L 299.00616 -164.454858 
L 299.00616 -161.90022 
L 299.00616 -159.345583 
L 299.00616 -156.790946 
L 299.00616 -154.236309 
L 299.00616 -151.681671 
L 299.00616 -149.127034 
L 299.00616 -146.572397 
L 299.00616 -144.017759 
L 299.00616 -141.463122 
L 299.00616 -138.908485 
L 299.00616 -136.353848 
L 299.00616 -133.79921 
L 299.00616 -131.244573 
L 299.00616 -128.689936 
L 299.00616 -126.135298 
L 299.00616 -123.580661 
L 299.00616 -121.026024 
L 299.00616 -118.471387 
L 299.00616 -115.916749 
L 299.00616 -113.362112 
L 299.00616 -110.807475 
L 299.00616 -108.252837 
L 299.00616 -105.6982 
L 299.00616 -103.143563 
L 299.00616 -100.588926 
L 299.00616 -98.034288 
L 299.00616 -95.479651 
L 299.00616 -92.925014 
L 299.00616 -90.370376 
L 299.00616 -87.815739 
L 299.00616 -85.261102 
L 299.00616 -82.706465 
L 299.00616 -80.151827 
L 299.00616 -77.59719 
L 299.00616 -75.042553 
L 299.00616 -72.487916 
L 299.00616 -69.933278 
L 299.00616 -67.378641 
L 299.00616 -64.824004 
L 299.00616 -62.269366 
L 299.00616 -59.714729 
L 299.00616 -57.160092 
L 299.00616 -54.605455 
z
" id="m5b05245e70" style="stroke:#4c4c4c;stroke-width:1.5;"/>
    </defs>
    <g clip-path="url(#p1f6e87edc0)">
     <use style="fill:#2020df;stroke:#4c4c4c;stroke-width:1.5;" x="0" xlink:href="#m5b05245e70" y="345.6"/>
    </g>
   </g>
   <g id="PolyCollection_6">
    <defs>
     <path d="M 306.691716 -54.605455 
L 299.00616 -54.605455 
L 299.00616 -57.160092 
L 299.00616 -59.714729 
L 299.00616 -62.269366 
L 299.00616 -64.824004 
L 299.00616 -67.378641 
L 299.00616 -69.933278 
L 299.00616 -72.487916 
L 299.00616 -75.042553 
L 299.00616 -77.59719 
L 299.00616 -80.151827 
L 299.00616 -82.706465 
L 299.00616 -85.261102 
L 299.00616 -87.815739 
L 299.00616 -90.370376 
L 299.00616 -92.925014 
L 299.00616 -95.479651 
L 299.00616 -98.034288 
L 299.00616 -100.588926 
L 299.00616 -103.143563 
L 299.00616 -105.6982 
L 299.00616 -108.252837 
L 299.00616 -110.807475 
L 299.00616 -113.362112 
L 299.00616 -115.916749 
L 299.00616 -118.471387 
L 299.00616 -121.026024 
L 299.00616 -123.580661 
L 299.00616 -126.135298 
L 299.00616 -128.689936 
L 299.00616 -131.244573 
L 299.00616 -133.79921 
L 299.00616 -136.353848 
L 299.00616 -138.908485 
L 299.00616 -141.463122 
L 299.00616 -144.017759 
L 299.00616 -146.572397 
L 299.00616 -149.127034 
L 299.00616 -151.681671 
L 299.00616 -154.236309 
L 299.00616 -156.790946 
L 299.00616 -159.345583 
L 299.00616 -161.90022 
L 299.00616 -164.454858 
L 299.00616 -167.009495 
L 299.00616 -169.564132 
L 299.00616 -172.11877 
L 299.00616 -174.673407 
L 299.00616 -177.228044 
L 299.00616 -179.782681 
L 299.00616 -182.337319 
L 299.00616 -184.891956 
L 299.00616 -187.446593 
L 299.00616 -190.00123 
L 299.00616 -192.555868 
L 299.00616 -195.110505 
L 299.00616 -197.665142 
L 299.00616 -200.21978 
L 299.00616 -202.774417 
L 299.00616 -205.329054 
L 299.00616 -207.883691 
L 299.00616 -210.438329 
L 299.00616 -212.992966 
L 299.00616 -215.547603 
L 299.00616 -218.102241 
L 299.00616 -220.656878 
L 299.00616 -223.211515 
L 299.00616 -225.766152 
L 299.00616 -228.32079 
L 299.00616 -230.875427 
L 299.00616 -233.430064 
L 299.00616 -235.984702 
L 299.00616 -238.539339 
L 299.00616 -241.093976 
L 299.00616 -243.648613 
L 299.00616 -246.203251 
L 299.00616 -248.757888 
L 299.00616 -251.312525 
L 299.00616 -253.867163 
L 299.00616 -256.4218 
L 299.00616 -258.976437 
L 299.00616 -261.531074 
L 299.00616 -264.085712 
L 299.00616 -266.640349 
L 299.00616 -269.194986 
L 299.00616 -271.749624 
L 299.00616 -274.304261 
L 299.00616 -276.858898 
L 299.00616 -279.413535 
L 299.00616 -281.968173 
L 299.00616 -284.52281 
L 299.00616 -287.077447 
L 299.00616 -289.632084 
L 299.00616 -292.186722 
L 299.00616 -294.741359 
L 299.00616 -297.295996 
L 299.00616 -299.850634 
L 299.00616 -302.405271 
L 299.00616 -304.959908 
L 299.00616 -307.514545 
L 338.104169 -307.514545 
L 338.104169 -307.514545 
L 338.895992 -304.959908 
L 339.197546 -302.405271 
L 339.01675 -299.850634 
L 338.382051 -297.295996 
L 337.339887 -294.741359 
L 335.950978 -292.186722 
L 334.285841 -289.632084 
L 332.419954 -287.077447 
L 330.429031 -284.52281 
L 328.384772 -281.968173 
L 326.351406 -279.413535 
L 324.383191 -276.858898 
L 322.522959 -274.304261 
L 320.801642 -271.749624 
L 319.238675 -269.194986 
L 317.843083 -266.640349 
L 316.615039 -264.085712 
L 315.547688 -261.531074 
L 314.629049 -258.976437 
L 313.843836 -256.4218 
L 313.175096 -253.867163 
L 312.60558 -251.312525 
L 312.118822 -248.757888 
L 311.699922 -246.203251 
L 311.336047 -243.648613 
L 311.016674 -241.093976 
L 310.733633 -238.539339 
L 310.480969 -235.984702 
L 310.254681 -233.430064 
L 310.052372 -230.875427 
L 309.87285 -228.32079 
L 309.715704 -225.766152 
L 309.580913 -223.211515 
L 309.468472 -220.656878 
L 309.378099 -218.102241 
L 309.309005 -215.547603 
L 309.259752 -212.992966 
L 309.228194 -210.438329 
L 309.211501 -207.883691 
L 309.206252 -205.329054 
L 309.20858 -202.774417 
L 309.214365 -200.21978 
L 309.219447 -197.665142 
L 309.219839 -195.110505 
L 309.21194 -192.555868 
L 309.192717 -190.00123 
L 309.159859 -187.446593 
L 309.111892 -184.891956 
L 309.048243 -182.337319 
L 308.969258 -179.782681 
L 308.876176 -177.228044 
L 308.77105 -174.673407 
L 308.656623 -172.11877 
L 308.536174 -169.564132 
L 308.413329 -167.009495 
L 308.291849 -164.454858 
L 308.175421 -161.90022 
L 308.067447 -159.345583 
L 307.97086 -156.790946 
L 307.887967 -154.236309 
L 307.820345 -151.681671 
L 307.768783 -149.127034 
L 307.73328 -146.572397 
L 307.713105 -144.017759 
L 307.706899 -141.463122 
L 307.712825 -138.908485 
L 307.72874 -136.353848 
L 307.752386 -133.79921 
L 307.781582 -131.244573 
L 307.814395 -128.689936 
L 307.849284 -126.135298 
L 307.885208 -123.580661 
L 307.921682 -121.026024 
L 307.958784 -118.471387 
L 307.997108 -115.916749 
L 308.037665 -113.362112 
L 308.081741 -110.807475 
L 308.130718 -108.252837 
L 308.185877 -105.6982 
L 308.248175 -103.143563 
L 308.31804 -100.588926 
L 308.395172 -98.034288 
L 308.478375 -95.479651 
L 308.565435 -92.925014 
L 308.653044 -90.370376 
L 308.7368 -87.815739 
L 308.811262 -85.261102 
L 308.870093 -82.706465 
L 308.906269 -80.151827 
L 308.912371 -77.59719 
L 308.880936 -75.042553 
L 308.804858 -72.487916 
L 308.677824 -69.933278 
L 308.49475 -67.378641 
L 308.252187 -64.824004 
L 307.948666 -62.269366 
L 307.58495 -59.714729 
L 307.164152 -57.160092 
L 306.691716 -54.605455 
z
" id="mc1f22a35cf" style="stroke:#4c4c4c;stroke-width:1.5;"/>
    </defs>
    <g clip-path="url(#p1f6e87edc0)">
     <use style="fill:#20dfdf;stroke:#4c4c4c;stroke-width:1.5;" x="0" xlink:href="#mc1f22a35cf" y="345.6"/>
    </g>
   </g>
   <g id="patch_3">
    <path clip-path="url(#p1f6e87edc0)" d="M 98.049232 325.482149 
L 98.049232 325.482149 
L 98.049232 325.482149 
L 98.049232 325.482149 
z
" style="fill:#2020df;stroke:#4c4c4c;stroke-linejoin:miter;stroke-width:0.75;"/>
   </g>
   <g id="patch_4">
    <path clip-path="url(#p1f6e87edc0)" d="M 98.049232 325.482149 
L 98.049232 325.482149 
L 98.049232 325.482149 
L 98.049232 325.482149 
z
" style="fill:#20dfdf;stroke:#4c4c4c;stroke-linejoin:miter;stroke-width:0.75;"/>
   </g>
   <g id="matplotlib.axis_1">
    <g id="xtick_1">
     <g id="line2d_1">
      <defs>
       <path d="M 0 0 
L 0 3.5 
" id="me5a6f2b100" style="stroke:#000000;stroke-width:0.8;"/>
      </defs>
      <g>
       <use style="stroke:#000000;stroke-width:0.8;" x="98.049232" xlink:href="#me5a6f2b100" y="303.64"/>
      </g>
     </g>
     <g id="text_1">
      <!-- 2 -->
      <g transform="translate(94.867982 318.238437)scale(0.1 -0.1)">
       <defs>
        <path d="M 1228 531 
L 3431 531 
L 3431 0 
L 469 0 
L 469 531 
Q 828 903 1448 1529 
Q 2069 2156 2228 2338 
Q 2531 2678 2651 2914 
Q 2772 3150 2772 3378 
Q 2772 3750 2511 3984 
Q 2250 4219 1831 4219 
Q 1534 4219 1204 4116 
Q 875 4013 500 3803 
L 500 4441 
Q 881 4594 1212 4672 
Q 1544 4750 1819 4750 
Q 2544 4750 2975 4387 
Q 3406 4025 3406 3419 
Q 3406 3131 3298 2873 
Q 3191 2616 2906 2266 
Q 2828 2175 2409 1742 
Q 1991 1309 1228 531 
z
" id="DejaVuSans-32" transform="scale(0.015625)"/>
       </defs>
       <use xlink:href="#DejaVuSans-32"/>
      </g>
     </g>
    </g>
    <g id="xtick_2">
     <g id="line2d_2">
      <g>
       <use style="stroke:#000000;stroke-width:0.8;" x="198.527696" xlink:href="#me5a6f2b100" y="303.64"/>
      </g>
     </g>
     <g id="text_2">
      <!-- 3 -->
      <g transform="translate(195.346446 318.238437)scale(0.1 -0.1)">
       <defs>
        <path d="M 2597 2516 
Q 3050 2419 3304 2112 
Q 3559 1806 3559 1356 
Q 3559 666 3084 287 
Q 2609 -91 1734 -91 
Q 1441 -91 1130 -33 
Q 819 25 488 141 
L 488 750 
Q 750 597 1062 519 
Q 1375 441 1716 441 
Q 2309 441 2620 675 
Q 2931 909 2931 1356 
Q 2931 1769 2642 2001 
Q 2353 2234 1838 2234 
L 1294 2234 
L 1294 2753 
L 1863 2753 
Q 2328 2753 2575 2939 
Q 2822 3125 2822 3475 
Q 2822 3834 2567 4026 
Q 2313 4219 1838 4219 
Q 1578 4219 1281 4162 
Q 984 4106 628 3988 
L 628 4550 
Q 988 4650 1302 4700 
Q 1616 4750 1894 4750 
Q 2613 4750 3031 4423 
Q 3450 4097 3450 3541 
Q 3450 3153 3228 2886 
Q 3006 2619 2597 2516 
z
" id="DejaVuSans-33" transform="scale(0.015625)"/>
       </defs>
       <use xlink:href="#DejaVuSans-33"/>
      </g>
     </g>
    </g>
    <g id="xtick_3">
     <g id="line2d_3">
      <g>
       <use style="stroke:#000000;stroke-width:0.8;" x="299.00616" xlink:href="#me5a6f2b100" y="303.64"/>
      </g>
     </g>
     <g id="text_3">
      <!-- 4 -->
      <g transform="translate(295.82491 318.238437)scale(0.1 -0.1)">
       <defs>
        <path d="M 2419 4116 
L 825 1625 
L 2419 1625 
L 2419 4116 
z
M 2253 4666 
L 3047 4666 
L 3047 1625 
L 3713 1625 
L 3713 1100 
L 3047 1100 
L 3047 0 
L 2419 0 
L 2419 1100 
L 313 1100 
L 313 1709 
L 2253 4666 
z
" id="DejaVuSans-34" transform="scale(0.015625)"/>
       </defs>
       <use xlink:href="#DejaVuSans-34"/>
      </g>
     </g>
    </g>
    <g id="text_4">
     <!-- Number of splits -->
     <g transform="translate(157.322227 331.916562)scale(0.1 -0.1)">
      <defs>
       <path d="M 628 4666 
L 1478 4666 
L 3547 763 
L 3547 4666 
L 4159 4666 
L 4159 0 
L 3309 0 
L 1241 3903 
L 1241 0 
L 628 0 
L 628 4666 
z
" id="DejaVuSans-4e" transform="scale(0.015625)"/>
       <path d="M 544 1381 
L 544 3500 
L 1119 3500 
L 1119 1403 
Q 1119 906 1312 657 
Q 1506 409 1894 409 
Q 2359 409 2629 706 
Q 2900 1003 2900 1516 
L 2900 3500 
L 3475 3500 
L 3475 0 
L 2900 0 
L 2900 538 
Q 2691 219 2414 64 
Q 2138 -91 1772 -91 
Q 1169 -91 856 284 
Q 544 659 544 1381 
z
M 1991 3584 
L 1991 3584 
z
" id="DejaVuSans-75" transform="scale(0.015625)"/>
       <path d="M 3328 2828 
Q 3544 3216 3844 3400 
Q 4144 3584 4550 3584 
Q 5097 3584 5394 3201 
Q 5691 2819 5691 2113 
L 5691 0 
L 5113 0 
L 5113 2094 
Q 5113 2597 4934 2840 
Q 4756 3084 4391 3084 
Q 3944 3084 3684 2787 
Q 3425 2491 3425 1978 
L 3425 0 
L 2847 0 
L 2847 2094 
Q 2847 2600 2669 2842 
Q 2491 3084 2119 3084 
Q 1678 3084 1418 2786 
Q 1159 2488 1159 1978 
L 1159 0 
L 581 0 
L 581 3500 
L 1159 3500 
L 1159 2956 
Q 1356 3278 1631 3431 
Q 1906 3584 2284 3584 
Q 2666 3584 2933 3390 
Q 3200 3197 3328 2828 
z
" id="DejaVuSans-6d" transform="scale(0.015625)"/>
       <path d="M 3116 1747 
Q 3116 2381 2855 2742 
Q 2594 3103 2138 3103 
Q 1681 3103 1420 2742 
Q 1159 2381 1159 1747 
Q 1159 1113 1420 752 
Q 1681 391 2138 391 
Q 2594 391 2855 752 
Q 3116 1113 3116 1747 
z
M 1159 2969 
Q 1341 3281 1617 3432 
Q 1894 3584 2278 3584 
Q 2916 3584 3314 3078 
Q 3713 2572 3713 1747 
Q 3713 922 3314 415 
Q 2916 -91 2278 -91 
Q 1894 -91 1617 61 
Q 1341 213 1159 525 
L 1159 0 
L 581 0 
L 581 4863 
L 1159 4863 
L 1159 2969 
z
" id="DejaVuSans-62" transform="scale(0.015625)"/>
       <path d="M 3597 1894 
L 3597 1613 
L 953 1613 
Q 991 1019 1311 708 
Q 1631 397 2203 397 
Q 2534 397 2845 478 
Q 3156 559 3463 722 
L 3463 178 
Q 3153 47 2828 -22 
Q 2503 -91 2169 -91 
Q 1331 -91 842 396 
Q 353 884 353 1716 
Q 353 2575 817 3079 
Q 1281 3584 2069 3584 
Q 2775 3584 3186 3129 
Q 3597 2675 3597 1894 
z
M 3022 2063 
Q 3016 2534 2758 2815 
Q 2500 3097 2075 3097 
Q 1594 3097 1305 2825 
Q 1016 2553 972 2059 
L 3022 2063 
z
" id="DejaVuSans-65" transform="scale(0.015625)"/>
       <path d="M 2631 2963 
Q 2534 3019 2420 3045 
Q 2306 3072 2169 3072 
Q 1681 3072 1420 2755 
Q 1159 2438 1159 1844 
L 1159 0 
L 581 0 
L 581 3500 
L 1159 3500 
L 1159 2956 
Q 1341 3275 1631 3429 
Q 1922 3584 2338 3584 
Q 2397 3584 2469 3576 
Q 2541 3569 2628 3553 
L 2631 2963 
z
" id="DejaVuSans-72" transform="scale(0.015625)"/>
       <path id="DejaVuSans-20" transform="scale(0.015625)"/>
       <path d="M 1959 3097 
Q 1497 3097 1228 2736 
Q 959 2375 959 1747 
Q 959 1119 1226 758 
Q 1494 397 1959 397 
Q 2419 397 2687 759 
Q 2956 1122 2956 1747 
Q 2956 2369 2687 2733 
Q 2419 3097 1959 3097 
z
M 1959 3584 
Q 2709 3584 3137 3096 
Q 3566 2609 3566 1747 
Q 3566 888 3137 398 
Q 2709 -91 1959 -91 
Q 1206 -91 779 398 
Q 353 888 353 1747 
Q 353 2609 779 3096 
Q 1206 3584 1959 3584 
z
" id="DejaVuSans-6f" transform="scale(0.015625)"/>
       <path d="M 2375 4863 
L 2375 4384 
L 1825 4384 
Q 1516 4384 1395 4259 
Q 1275 4134 1275 3809 
L 1275 3500 
L 2222 3500 
L 2222 3053 
L 1275 3053 
L 1275 0 
L 697 0 
L 697 3053 
L 147 3053 
L 147 3500 
L 697 3500 
L 697 3744 
Q 697 4328 969 4595 
Q 1241 4863 1831 4863 
L 2375 4863 
z
" id="DejaVuSans-66" transform="scale(0.015625)"/>
       <path d="M 2834 3397 
L 2834 2853 
Q 2591 2978 2328 3040 
Q 2066 3103 1784 3103 
Q 1356 3103 1142 2972 
Q 928 2841 928 2578 
Q 928 2378 1081 2264 
Q 1234 2150 1697 2047 
L 1894 2003 
Q 2506 1872 2764 1633 
Q 3022 1394 3022 966 
Q 3022 478 2636 193 
Q 2250 -91 1575 -91 
Q 1294 -91 989 -36 
Q 684 19 347 128 
L 347 722 
Q 666 556 975 473 
Q 1284 391 1588 391 
Q 1994 391 2212 530 
Q 2431 669 2431 922 
Q 2431 1156 2273 1281 
Q 2116 1406 1581 1522 
L 1381 1569 
Q 847 1681 609 1914 
Q 372 2147 372 2553 
Q 372 3047 722 3315 
Q 1072 3584 1716 3584 
Q 2034 3584 2315 3537 
Q 2597 3491 2834 3397 
z
" id="DejaVuSans-73" transform="scale(0.015625)"/>
       <path d="M 1159 525 
L 1159 -1331 
L 581 -1331 
L 581 3500 
L 1159 3500 
L 1159 2969 
Q 1341 3281 1617 3432 
Q 1894 3584 2278 3584 
Q 2916 3584 3314 3078 
Q 3713 2572 3713 1747 
Q 3713 922 3314 415 
Q 2916 -91 2278 -91 
Q 1894 -91 1617 61 
Q 1341 213 1159 525 
z
M 3116 1747 
Q 3116 2381 2855 2742 
Q 2594 3103 2138 3103 
Q 1681 3103 1420 2742 
Q 1159 2381 1159 1747 
Q 1159 1113 1420 752 
Q 1681 391 2138 391 
Q 2594 391 2855 752 
Q 3116 1113 3116 1747 
z
" id="DejaVuSans-70" transform="scale(0.015625)"/>
       <path d="M 603 4863 
L 1178 4863 
L 1178 0 
L 603 0 
L 603 4863 
z
" id="DejaVuSans-6c" transform="scale(0.015625)"/>
       <path d="M 603 3500 
L 1178 3500 
L 1178 0 
L 603 0 
L 603 3500 
z
M 603 4863 
L 1178 4863 
L 1178 4134 
L 603 4134 
L 603 4863 
z
" id="DejaVuSans-69" transform="scale(0.015625)"/>
       <path d="M 1172 4494 
L 1172 3500 
L 2356 3500 
L 2356 3053 
L 1172 3053 
L 1172 1153 
Q 1172 725 1289 603 
Q 1406 481 1766 481 
L 2356 481 
L 2356 0 
L 1766 0 
Q 1100 0 847 248 
Q 594 497 594 1153 
L 594 3053 
L 172 3053 
L 172 3500 
L 594 3500 
L 594 4494 
L 1172 4494 
z
" id="DejaVuSans-74" transform="scale(0.015625)"/>
      </defs>
      <use xlink:href="#DejaVuSans-4e"/>
      <use x="74.804688" xlink:href="#DejaVuSans-75"/>
      <use x="138.183594" xlink:href="#DejaVuSans-6d"/>
      <use x="235.595703" xlink:href="#DejaVuSans-62"/>
      <use x="299.072266" xlink:href="#DejaVuSans-65"/>
      <use x="360.595703" xlink:href="#DejaVuSans-72"/>
      <use x="401.708984" xlink:href="#DejaVuSans-20"/>
      <use x="433.496094" xlink:href="#DejaVuSans-6f"/>
      <use x="494.677734" xlink:href="#DejaVuSans-66"/>
      <use x="529.882812" xlink:href="#DejaVuSans-20"/>
      <use x="561.669922" xlink:href="#DejaVuSans-73"/>
      <use x="613.769531" xlink:href="#DejaVuSans-70"/>
      <use x="677.246094" xlink:href="#DejaVuSans-6c"/>
      <use x="705.029297" xlink:href="#DejaVuSans-69"/>
      <use x="732.8125" xlink:href="#DejaVuSans-74"/>
      <use x="772.021484" xlink:href="#DejaVuSans-73"/>
     </g>
    </g>
   </g>
   <g id="matplotlib.axis_2">
    <g id="ytick_1">
     <g id="line2d_4">
      <defs>
       <path d="M 0 0 
L -3.5 0 
" id="mdee3740a7a" style="stroke:#000000;stroke-width:0.8;"/>
      </defs>
      <g>
       <use style="stroke:#000000;stroke-width:0.8;" x="47.81" xlink:href="#mdee3740a7a" y="268.00281"/>
      </g>
     </g>
     <g id="text_5">
      <!-- 0.2 -->
      <g transform="translate(24.906875 271.802029)scale(0.1 -0.1)">
       <defs>
        <path d="M 2034 4250 
Q 1547 4250 1301 3770 
Q 1056 3291 1056 2328 
Q 1056 1369 1301 889 
Q 1547 409 2034 409 
Q 2525 409 2770 889 
Q 3016 1369 3016 2328 
Q 3016 3291 2770 3770 
Q 2525 4250 2034 4250 
z
M 2034 4750 
Q 2819 4750 3233 4129 
Q 3647 3509 3647 2328 
Q 3647 1150 3233 529 
Q 2819 -91 2034 -91 
Q 1250 -91 836 529 
Q 422 1150 422 2328 
Q 422 3509 836 4129 
Q 1250 4750 2034 4750 
z
" id="DejaVuSans-30" transform="scale(0.015625)"/>
        <path d="M 684 794 
L 1344 794 
L 1344 0 
L 684 0 
L 684 794 
z
" id="DejaVuSans-2e" transform="scale(0.015625)"/>
       </defs>
       <use xlink:href="#DejaVuSans-30"/>
       <use x="63.623047" xlink:href="#DejaVuSans-2e"/>
       <use x="95.410156" xlink:href="#DejaVuSans-32"/>
      </g>
     </g>
    </g>
    <g id="ytick_2">
     <g id="line2d_5">
      <g>
       <use style="stroke:#000000;stroke-width:0.8;" x="47.81" xlink:href="#mdee3740a7a" y="210.523471"/>
      </g>
     </g>
     <g id="text_6">
      <!-- 0.4 -->
      <g transform="translate(24.906875 214.32269)scale(0.1 -0.1)">
       <use xlink:href="#DejaVuSans-30"/>
       <use x="63.623047" xlink:href="#DejaVuSans-2e"/>
       <use x="95.410156" xlink:href="#DejaVuSans-34"/>
      </g>
     </g>
    </g>
    <g id="ytick_3">
     <g id="line2d_6">
      <g>
       <use style="stroke:#000000;stroke-width:0.8;" x="47.81" xlink:href="#mdee3740a7a" y="153.044132"/>
      </g>
     </g>
     <g id="text_7">
      <!-- 0.6 -->
      <g transform="translate(24.906875 156.843351)scale(0.1 -0.1)">
       <defs>
        <path d="M 2113 2584 
Q 1688 2584 1439 2293 
Q 1191 2003 1191 1497 
Q 1191 994 1439 701 
Q 1688 409 2113 409 
Q 2538 409 2786 701 
Q 3034 994 3034 1497 
Q 3034 2003 2786 2293 
Q 2538 2584 2113 2584 
z
M 3366 4563 
L 3366 3988 
Q 3128 4100 2886 4159 
Q 2644 4219 2406 4219 
Q 1781 4219 1451 3797 
Q 1122 3375 1075 2522 
Q 1259 2794 1537 2939 
Q 1816 3084 2150 3084 
Q 2853 3084 3261 2657 
Q 3669 2231 3669 1497 
Q 3669 778 3244 343 
Q 2819 -91 2113 -91 
Q 1303 -91 875 529 
Q 447 1150 447 2328 
Q 447 3434 972 4092 
Q 1497 4750 2381 4750 
Q 2619 4750 2861 4703 
Q 3103 4656 3366 4563 
z
" id="DejaVuSans-36" transform="scale(0.015625)"/>
       </defs>
       <use xlink:href="#DejaVuSans-30"/>
       <use x="63.623047" xlink:href="#DejaVuSans-2e"/>
       <use x="95.410156" xlink:href="#DejaVuSans-36"/>
      </g>
     </g>
    </g>
    <g id="ytick_4">
     <g id="line2d_7">
      <g>
       <use style="stroke:#000000;stroke-width:0.8;" x="47.81" xlink:href="#mdee3740a7a" y="95.564793"/>
      </g>
     </g>
     <g id="text_8">
      <!-- 0.8 -->
      <g transform="translate(24.906875 99.364012)scale(0.1 -0.1)">
       <defs>
        <path d="M 2034 2216 
Q 1584 2216 1326 1975 
Q 1069 1734 1069 1313 
Q 1069 891 1326 650 
Q 1584 409 2034 409 
Q 2484 409 2743 651 
Q 3003 894 3003 1313 
Q 3003 1734 2745 1975 
Q 2488 2216 2034 2216 
z
M 1403 2484 
Q 997 2584 770 2862 
Q 544 3141 544 3541 
Q 544 4100 942 4425 
Q 1341 4750 2034 4750 
Q 2731 4750 3128 4425 
Q 3525 4100 3525 3541 
Q 3525 3141 3298 2862 
Q 3072 2584 2669 2484 
Q 3125 2378 3379 2068 
Q 3634 1759 3634 1313 
Q 3634 634 3220 271 
Q 2806 -91 2034 -91 
Q 1263 -91 848 271 
Q 434 634 434 1313 
Q 434 1759 690 2068 
Q 947 2378 1403 2484 
z
M 1172 3481 
Q 1172 3119 1398 2916 
Q 1625 2713 2034 2713 
Q 2441 2713 2670 2916 
Q 2900 3119 2900 3481 
Q 2900 3844 2670 4047 
Q 2441 4250 2034 4250 
Q 1625 4250 1398 4047 
Q 1172 3844 1172 3481 
z
" id="DejaVuSans-38" transform="scale(0.015625)"/>
       </defs>
       <use xlink:href="#DejaVuSans-30"/>
       <use x="63.623047" xlink:href="#DejaVuSans-2e"/>
       <use x="95.410156" xlink:href="#DejaVuSans-38"/>
      </g>
     </g>
    </g>
    <g id="ytick_5">
     <g id="line2d_8">
      <g>
       <use style="stroke:#000000;stroke-width:0.8;" x="47.81" xlink:href="#mdee3740a7a" y="38.085455"/>
      </g>
     </g>
     <g id="text_9">
      <!-- 1.0 -->
      <g transform="translate(24.906875 41.884673)scale(0.1 -0.1)">
       <defs>
        <path d="M 794 531 
L 1825 531 
L 1825 4091 
L 703 3866 
L 703 4441 
L 1819 4666 
L 2450 4666 
L 2450 531 
L 3481 531 
L 3481 0 
L 794 0 
L 794 531 
z
" id="DejaVuSans-31" transform="scale(0.015625)"/>
       </defs>
       <use xlink:href="#DejaVuSans-31"/>
       <use x="63.623047" xlink:href="#DejaVuSans-2e"/>
       <use x="95.410156" xlink:href="#DejaVuSans-30"/>
      </g>
     </g>
    </g>
    <g id="text_10">
     <!-- Credibility Index -->
     <g transform="translate(18.827187 205.230625)rotate(-90)scale(0.1 -0.1)">
      <defs>
       <path d="M 4122 4306 
L 4122 3641 
Q 3803 3938 3442 4084 
Q 3081 4231 2675 4231 
Q 1875 4231 1450 3742 
Q 1025 3253 1025 2328 
Q 1025 1406 1450 917 
Q 1875 428 2675 428 
Q 3081 428 3442 575 
Q 3803 722 4122 1019 
L 4122 359 
Q 3791 134 3420 21 
Q 3050 -91 2638 -91 
Q 1578 -91 968 557 
Q 359 1206 359 2328 
Q 359 3453 968 4101 
Q 1578 4750 2638 4750 
Q 3056 4750 3426 4639 
Q 3797 4528 4122 4306 
z
" id="DejaVuSans-43" transform="scale(0.015625)"/>
       <path d="M 2906 2969 
L 2906 4863 
L 3481 4863 
L 3481 0 
L 2906 0 
L 2906 525 
Q 2725 213 2448 61 
Q 2172 -91 1784 -91 
Q 1150 -91 751 415 
Q 353 922 353 1747 
Q 353 2572 751 3078 
Q 1150 3584 1784 3584 
Q 2172 3584 2448 3432 
Q 2725 3281 2906 2969 
z
M 947 1747 
Q 947 1113 1208 752 
Q 1469 391 1925 391 
Q 2381 391 2643 752 
Q 2906 1113 2906 1747 
Q 2906 2381 2643 2742 
Q 2381 3103 1925 3103 
Q 1469 3103 1208 2742 
Q 947 2381 947 1747 
z
" id="DejaVuSans-64" transform="scale(0.015625)"/>
       <path d="M 2059 -325 
Q 1816 -950 1584 -1140 
Q 1353 -1331 966 -1331 
L 506 -1331 
L 506 -850 
L 844 -850 
Q 1081 -850 1212 -737 
Q 1344 -625 1503 -206 
L 1606 56 
L 191 3500 
L 800 3500 
L 1894 763 
L 2988 3500 
L 3597 3500 
L 2059 -325 
z
" id="DejaVuSans-79" transform="scale(0.015625)"/>
       <path d="M 628 4666 
L 1259 4666 
L 1259 0 
L 628 0 
L 628 4666 
z
" id="DejaVuSans-49" transform="scale(0.015625)"/>
       <path d="M 3513 2113 
L 3513 0 
L 2938 0 
L 2938 2094 
Q 2938 2591 2744 2837 
Q 2550 3084 2163 3084 
Q 1697 3084 1428 2787 
Q 1159 2491 1159 1978 
L 1159 0 
L 581 0 
L 581 3500 
L 1159 3500 
L 1159 2956 
Q 1366 3272 1645 3428 
Q 1925 3584 2291 3584 
Q 2894 3584 3203 3211 
Q 3513 2838 3513 2113 
z
" id="DejaVuSans-6e" transform="scale(0.015625)"/>
       <path d="M 3513 3500 
L 2247 1797 
L 3578 0 
L 2900 0 
L 1881 1375 
L 863 0 
L 184 0 
L 1544 1831 
L 300 3500 
L 978 3500 
L 1906 2253 
L 2834 3500 
L 3513 3500 
z
" id="DejaVuSans-78" transform="scale(0.015625)"/>
      </defs>
      <use xlink:href="#DejaVuSans-43"/>
      <use x="69.824219" xlink:href="#DejaVuSans-72"/>
      <use x="108.6875" xlink:href="#DejaVuSans-65"/>
      <use x="170.210938" xlink:href="#DejaVuSans-64"/>
      <use x="233.6875" xlink:href="#DejaVuSans-69"/>
      <use x="261.470703" xlink:href="#DejaVuSans-62"/>
      <use x="324.947266" xlink:href="#DejaVuSans-69"/>
      <use x="352.730469" xlink:href="#DejaVuSans-6c"/>
      <use x="380.513672" xlink:href="#DejaVuSans-69"/>
      <use x="408.296875" xlink:href="#DejaVuSans-74"/>
      <use x="447.505859" xlink:href="#DejaVuSans-79"/>
      <use x="506.685547" xlink:href="#DejaVuSans-20"/>
      <use x="538.472656" xlink:href="#DejaVuSans-49"/>
      <use x="567.964844" xlink:href="#DejaVuSans-6e"/>
      <use x="631.34375" xlink:href="#DejaVuSans-64"/>
      <use x="694.820312" xlink:href="#DejaVuSans-65"/>
      <use x="754.59375" xlink:href="#DejaVuSans-78"/>
     </g>
    </g>
   </g>
   <g id="line2d_9">
    <path clip-path="url(#p1f6e87edc0)" d="M 98.049232 290.994545 
L 98.049232 38.085455 
" style="fill:none;stroke:#4c4c4c;stroke-linecap:square;stroke-width:1.5;"/>
   </g>
   <g id="line2d_10">
    <path clip-path="url(#p1f6e87edc0)" d="M 98.049232 210.523471 
L 98.049232 49.581322 
" style="fill:none;stroke:#4c4c4c;stroke-linecap:square;stroke-width:4.5;"/>
   </g>
   <g id="line2d_11">
    <path clip-path="url(#p1f6e87edc0)" d="M 198.527696 290.994545 
L 198.527696 38.085455 
" style="fill:none;stroke:#4c4c4c;stroke-linecap:square;stroke-width:1.5;"/>
   </g>
   <g id="line2d_12">
    <path clip-path="url(#p1f6e87edc0)" d="M 198.527696 210.523471 
L 198.527696 49.581322 
" style="fill:none;stroke:#4c4c4c;stroke-linecap:square;stroke-width:4.5;"/>
   </g>
   <g id="line2d_13">
    <path clip-path="url(#p1f6e87edc0)" d="M 299.00616 290.994545 
L 299.00616 38.085455 
" style="fill:none;stroke:#4c4c4c;stroke-linecap:square;stroke-width:1.5;"/>
   </g>
   <g id="line2d_14">
    <path clip-path="url(#p1f6e87edc0)" d="M 299.00616 187.531736 
L 299.00616 38.085455 
" style="fill:none;stroke:#4c4c4c;stroke-linecap:square;stroke-width:4.5;"/>
   </g>
   <g id="patch_5">
    <path d="M 47.81 303.64 
L 47.81 25.44 
" style="fill:none;stroke:#000000;stroke-linecap:square;stroke-linejoin:miter;stroke-width:0.8;"/>
   </g>
   <g id="patch_6">
    <path d="M 349.245392 303.64 
L 349.245392 25.44 
" style="fill:none;stroke:#000000;stroke-linecap:square;stroke-linejoin:miter;stroke-width:0.8;"/>
   </g>
   <g id="patch_7">
    <path d="M 47.81 303.64 
L 349.245392 303.64 
" style="fill:none;stroke:#000000;stroke-linecap:square;stroke-linejoin:miter;stroke-width:0.8;"/>
   </g>
   <g id="patch_8">
    <path d="M 47.81 25.44 
L 349.245392 25.44 
" style="fill:none;stroke:#000000;stroke-linecap:square;stroke-linejoin:miter;stroke-width:0.8;"/>
   </g>
   <g id="PathCollection_1">
    <defs>
     <path d="M 0 1.5 
C 0.397805 1.5 0.77937 1.341951 1.06066 1.06066 
C 1.341951 0.77937 1.5 0.397805 1.5 0 
C 1.5 -0.397805 1.341951 -0.77937 1.06066 -1.06066 
C 0.77937 -1.341951 0.397805 -1.5 0 -1.5 
C -0.397805 -1.5 -0.77937 -1.341951 -1.06066 -1.06066 
C -1.341951 -0.77937 -1.5 -0.397805 -1.5 0 
C -1.5 0.397805 -1.341951 0.77937 -1.06066 1.06066 
C -0.77937 1.341951 -0.397805 1.5 0 1.5 
z
" id="m5a03d890cf" style="stroke:#4c4c4c;"/>
    </defs>
    <g clip-path="url(#p1f6e87edc0)">
     <use style="fill:#ffffff;stroke:#4c4c4c;" x="98.049232" xlink:href="#m5a03d890cf" y="107.060661"/>
    </g>
   </g>
   <g id="PathCollection_2">
    <g clip-path="url(#p1f6e87edc0)">
     <use style="fill:#ffffff;stroke:#4c4c4c;" x="198.527696" xlink:href="#m5a03d890cf" y="107.060661"/>
    </g>
   </g>
   <g id="PathCollection_3">
    <g clip-path="url(#p1f6e87edc0)">
     <use style="fill:#ffffff;stroke:#4c4c4c;" x="299.00616" xlink:href="#m5a03d890cf" y="84.068926"/>
    </g>
   </g>
   <g id="text_11">
    <!-- Distribution of the consensus estimated components -->
    <g transform="translate(39.633634 19.44)scale(0.12 -0.12)">
     <defs>
      <path d="M 1259 4147 
L 1259 519 
L 2022 519 
Q 2988 519 3436 956 
Q 3884 1394 3884 2338 
Q 3884 3275 3436 3711 
Q 2988 4147 2022 4147 
L 1259 4147 
z
M 628 4666 
L 1925 4666 
Q 3281 4666 3915 4102 
Q 4550 3538 4550 2338 
Q 4550 1131 3912 565 
Q 3275 0 1925 0 
L 628 0 
L 628 4666 
z
" id="DejaVuSans-44" transform="scale(0.015625)"/>
      <path d="M 3513 2113 
L 3513 0 
L 2938 0 
L 2938 2094 
Q 2938 2591 2744 2837 
Q 2550 3084 2163 3084 
Q 1697 3084 1428 2787 
Q 1159 2491 1159 1978 
L 1159 0 
L 581 0 
L 581 4863 
L 1159 4863 
L 1159 2956 
Q 1366 3272 1645 3428 
Q 1925 3584 2291 3584 
Q 2894 3584 3203 3211 
Q 3513 2838 3513 2113 
z
" id="DejaVuSans-68" transform="scale(0.015625)"/>
      <path d="M 3122 3366 
L 3122 2828 
Q 2878 2963 2633 3030 
Q 2388 3097 2138 3097 
Q 1578 3097 1268 2742 
Q 959 2388 959 1747 
Q 959 1106 1268 751 
Q 1578 397 2138 397 
Q 2388 397 2633 464 
Q 2878 531 3122 666 
L 3122 134 
Q 2881 22 2623 -34 
Q 2366 -91 2075 -91 
Q 1284 -91 818 406 
Q 353 903 353 1747 
Q 353 2603 823 3093 
Q 1294 3584 2113 3584 
Q 2378 3584 2631 3529 
Q 2884 3475 3122 3366 
z
" id="DejaVuSans-63" transform="scale(0.015625)"/>
      <path d="M 2194 1759 
Q 1497 1759 1228 1600 
Q 959 1441 959 1056 
Q 959 750 1161 570 
Q 1363 391 1709 391 
Q 2188 391 2477 730 
Q 2766 1069 2766 1631 
L 2766 1759 
L 2194 1759 
z
M 3341 1997 
L 3341 0 
L 2766 0 
L 2766 531 
Q 2569 213 2275 61 
Q 1981 -91 1556 -91 
Q 1019 -91 701 211 
Q 384 513 384 1019 
Q 384 1609 779 1909 
Q 1175 2209 1959 2209 
L 2766 2209 
L 2766 2266 
Q 2766 2663 2505 2880 
Q 2244 3097 1772 3097 
Q 1472 3097 1187 3025 
Q 903 2953 641 2809 
L 641 3341 
Q 956 3463 1253 3523 
Q 1550 3584 1831 3584 
Q 2591 3584 2966 3190 
Q 3341 2797 3341 1997 
z
" id="DejaVuSans-61" transform="scale(0.015625)"/>
     </defs>
     <use xlink:href="#DejaVuSans-44"/>
     <use x="77.001953" xlink:href="#DejaVuSans-69"/>
     <use x="104.785156" xlink:href="#DejaVuSans-73"/>
     <use x="156.884766" xlink:href="#DejaVuSans-74"/>
     <use x="196.09375" xlink:href="#DejaVuSans-72"/>
     <use x="237.207031" xlink:href="#DejaVuSans-69"/>
     <use x="264.990234" xlink:href="#DejaVuSans-62"/>
     <use x="328.466797" xlink:href="#DejaVuSans-75"/>
     <use x="391.845703" xlink:href="#DejaVuSans-74"/>
     <use x="431.054688" xlink:href="#DejaVuSans-69"/>
     <use x="458.837891" xlink:href="#DejaVuSans-6f"/>
     <use x="520.019531" xlink:href="#DejaVuSans-6e"/>
     <use x="583.398438" xlink:href="#DejaVuSans-20"/>
     <use x="615.185547" xlink:href="#DejaVuSans-6f"/>
     <use x="676.367188" xlink:href="#DejaVuSans-66"/>
     <use x="711.572266" xlink:href="#DejaVuSans-20"/>
     <use x="743.359375" xlink:href="#DejaVuSans-74"/>
     <use x="782.568359" xlink:href="#DejaVuSans-68"/>
     <use x="845.947266" xlink:href="#DejaVuSans-65"/>
     <use x="907.470703" xlink:href="#DejaVuSans-20"/>
     <use x="939.257812" xlink:href="#DejaVuSans-63"/>
     <use x="994.238281" xlink:href="#DejaVuSans-6f"/>
     <use x="1055.419922" xlink:href="#DejaVuSans-6e"/>
     <use x="1118.798828" xlink:href="#DejaVuSans-73"/>
     <use x="1170.898438" xlink:href="#DejaVuSans-65"/>
     <use x="1232.421875" xlink:href="#DejaVuSans-6e"/>
     <use x="1295.800781" xlink:href="#DejaVuSans-73"/>
     <use x="1347.900391" xlink:href="#DejaVuSans-75"/>
     <use x="1411.279297" xlink:href="#DejaVuSans-73"/>
     <use x="1463.378906" xlink:href="#DejaVuSans-20"/>
     <use x="1495.166016" xlink:href="#DejaVuSans-65"/>
     <use x="1556.689453" xlink:href="#DejaVuSans-73"/>
     <use x="1608.789062" xlink:href="#DejaVuSans-74"/>
     <use x="1647.998047" xlink:href="#DejaVuSans-69"/>
     <use x="1675.78125" xlink:href="#DejaVuSans-6d"/>
     <use x="1773.193359" xlink:href="#DejaVuSans-61"/>
     <use x="1834.472656" xlink:href="#DejaVuSans-74"/>
     <use x="1873.681641" xlink:href="#DejaVuSans-65"/>
     <use x="1935.205078" xlink:href="#DejaVuSans-64"/>
     <use x="1998.681641" xlink:href="#DejaVuSans-20"/>
     <use x="2030.46875" xlink:href="#DejaVuSans-63"/>
     <use x="2085.449219" xlink:href="#DejaVuSans-6f"/>
     <use x="2146.630859" xlink:href="#DejaVuSans-6d"/>
     <use x="2244.042969" xlink:href="#DejaVuSans-70"/>
     <use x="2307.519531" xlink:href="#DejaVuSans-6f"/>
     <use x="2368.701172" xlink:href="#DejaVuSans-6e"/>
     <use x="2432.080078" xlink:href="#DejaVuSans-65"/>
     <use x="2493.603516" xlink:href="#DejaVuSans-6e"/>
     <use x="2556.982422" xlink:href="#DejaVuSans-74"/>
     <use x="2596.191406" xlink:href="#DejaVuSans-73"/>
    </g>
   </g>
   <g id="legend_1">
    <g id="patch_9">
     <path d="M 368.302808 62.79625 
L 448.071558 62.79625 
Q 450.071558 62.79625 450.071558 60.79625 
L 450.071558 32.44 
Q 450.071558 30.44 448.071558 30.44 
L 368.302808 30.44 
Q 366.302808 30.44 366.302808 32.44 
L 366.302808 60.79625 
Q 366.302808 62.79625 368.302808 62.79625 
z
" style="fill:#ffffff;opacity:0.8;stroke:#cccccc;stroke-linejoin:miter;"/>
    </g>
    <g id="patch_10">
     <path d="M 370.302808 42.038437 
L 390.302808 42.038437 
L 390.302808 35.038437 
L 370.302808 35.038437 
z
" style="fill:#2020df;stroke:#4c4c4c;stroke-linejoin:miter;stroke-width:0.75;"/>
    </g>
    <g id="text_12">
     <!-- Clustered -->
     <g transform="translate(398.302808 42.038437)scale(0.1 -0.1)">
      <use xlink:href="#DejaVuSans-43"/>
      <use x="69.824219" xlink:href="#DejaVuSans-6c"/>
      <use x="97.607422" xlink:href="#DejaVuSans-75"/>
      <use x="160.986328" xlink:href="#DejaVuSans-73"/>
      <use x="213.085938" xlink:href="#DejaVuSans-74"/>
      <use x="252.294922" xlink:href="#DejaVuSans-65"/>
      <use x="313.818359" xlink:href="#DejaVuSans-72"/>
      <use x="352.681641" xlink:href="#DejaVuSans-65"/>
      <use x="414.205078" xlink:href="#DejaVuSans-64"/>
     </g>
    </g>
    <g id="patch_11">
     <path d="M 370.302808 56.716563 
L 390.302808 56.716563 
L 390.302808 49.716563 
L 370.302808 49.716563 
z
" style="fill:#20dfdf;stroke:#4c4c4c;stroke-linejoin:miter;stroke-width:0.75;"/>
    </g>
    <g id="text_13">
     <!-- Random -->
     <g transform="translate(398.302808 56.716563)scale(0.1 -0.1)">
      <defs>
       <path d="M 2841 2188 
Q 3044 2119 3236 1894 
Q 3428 1669 3622 1275 
L 4263 0 
L 3584 0 
L 2988 1197 
Q 2756 1666 2539 1819 
Q 2322 1972 1947 1972 
L 1259 1972 
L 1259 0 
L 628 0 
L 628 4666 
L 2053 4666 
Q 2853 4666 3247 4331 
Q 3641 3997 3641 3322 
Q 3641 2881 3436 2590 
Q 3231 2300 2841 2188 
z
M 1259 4147 
L 1259 2491 
L 2053 2491 
Q 2509 2491 2742 2702 
Q 2975 2913 2975 3322 
Q 2975 3731 2742 3939 
Q 2509 4147 2053 4147 
L 1259 4147 
z
" id="DejaVuSans-52" transform="scale(0.015625)"/>
      </defs>
      <use xlink:href="#DejaVuSans-52"/>
      <use x="67.232422" xlink:href="#DejaVuSans-61"/>
      <use x="128.511719" xlink:href="#DejaVuSans-6e"/>
      <use x="191.890625" xlink:href="#DejaVuSans-64"/>
      <use x="255.367188" xlink:href="#DejaVuSans-6f"/>
      <use x="316.548828" xlink:href="#DejaVuSans-6d"/>
     </g>
    </g>
   </g>
  </g>
 </g>
 <defs>
  <clipPath id="p1f6e87edc0">
   <rect height="278.2" width="301.435392" x="47.81" y="25.44"/>
  </clipPath>
 </defs>
</svg>
