<?xml version="1.0" encoding="utf-8" standalone="no"?>
<!DOCTYPE svg PUBLIC "-//W3C//DTD SVG 1.1//EN"
  "http://www.w3.org/Graphics/SVG/1.1/DTD/svg11.dtd">
<svg height="418.65645pt" version="1.1" viewBox="0 0 939.9495 418.65645" width="939.9495pt" xmlns="http://www.w3.org/2000/svg" xmlns:xlink="http://www.w3.org/1999/xlink">
 <metadata>
  <rdf:RDF xmlns:cc="http://creativecommons.org/ns#" xmlns:dc="http://purl.org/dc/elements/1.1/" xmlns:rdf="http://www.w3.org/1999/02/22-rdf-syntax-ns#">
   <cc:Work>
    <dc:type rdf:resource="http://purl.org/dc/dcmitype/StillImage"/>
    <dc:date>2021-12-06T13:50:57.816152</dc:date>
    <dc:format>image/svg+xml</dc:format>
    <dc:creator>
     <cc:Agent>
      <dc:title>Matplotlib v3.4.3, https://matplotlib.org/</dc:title>
     </cc:Agent>
    </dc:creator>
   </cc:Work>
  </rdf:RDF>
 </metadata>
 <defs>
  <style type="text/css">*{stroke-linecap:butt;stroke-linejoin:round;}</style>
 </defs>
 <g id="figure_1">
  <g id="patch_1">
   <path d="M 0 418.65645 
L 939.9495 418.65645 
L 939.9495 0 
L 0 0 
z
" style="fill:#ffffff;"/>
  </g>
  <g id="axes_1">
   <g id="patch_2">
    <path d="M 65.37 344.5332 
L 902.37 344.5332 
L 902.37 67.3332 
L 65.37 67.3332 
z
" style="fill:#eaeaf2;"/>
   </g>
   <g id="matplotlib.axis_1">
    <g id="xtick_1">
     <g id="line2d_1">
      <path clip-path="url(#pd1639098d0)" d="M 181.71879 344.5332 
L 181.71879 67.3332 
" style="fill:none;stroke:#ffffff;stroke-linecap:round;"/>
     </g>
     <g id="text_1">
      <!-- 0.0 -->
      <g style="fill:#262626;" transform="translate(160.726665 374.093075)scale(0.264 -0.264)">
       <defs>
        <path d="M 2034 4250 
Q 1547 4250 1301 3770 
Q 1056 3291 1056 2328 
Q 1056 1369 1301 889 
Q 1547 409 2034 409 
Q 2525 409 2770 889 
Q 3016 1369 3016 2328 
Q 3016 3291 2770 3770 
Q 2525 4250 2034 4250 
z
M 2034 4750 
Q 2819 4750 3233 4129 
Q 3647 3509 3647 2328 
Q 3647 1150 3233 529 
Q 2819 -91 2034 -91 
Q 1250 -91 836 529 
Q 422 1150 422 2328 
Q 422 3509 836 4129 
Q 1250 4750 2034 4750 
z
" id="DejaVuSans-30" transform="scale(0.015625)"/>
        <path d="M 684 794 
L 1344 794 
L 1344 0 
L 684 0 
L 684 794 
z
" id="DejaVuSans-2e" transform="scale(0.015625)"/>
       </defs>
       <use xlink:href="#DejaVuSans-30"/>
       <use x="63.623047" xlink:href="#DejaVuSans-2e"/>
       <use x="95.410156" xlink:href="#DejaVuSans-30"/>
      </g>
     </g>
    </g>
    <g id="xtick_2">
     <g id="line2d_2">
      <path clip-path="url(#pd1639098d0)" d="M 307.535505 344.5332 
L 307.535505 67.3332 
" style="fill:none;stroke:#ffffff;stroke-linecap:round;"/>
     </g>
     <g id="text_2">
      <!-- 0.2 -->
      <g style="fill:#262626;" transform="translate(286.54338 374.093075)scale(0.264 -0.264)">
       <defs>
        <path d="M 1228 531 
L 3431 531 
L 3431 0 
L 469 0 
L 469 531 
Q 828 903 1448 1529 
Q 2069 2156 2228 2338 
Q 2531 2678 2651 2914 
Q 2772 3150 2772 3378 
Q 2772 3750 2511 3984 
Q 2250 4219 1831 4219 
Q 1534 4219 1204 4116 
Q 875 4013 500 3803 
L 500 4441 
Q 881 4594 1212 4672 
Q 1544 4750 1819 4750 
Q 2544 4750 2975 4387 
Q 3406 4025 3406 3419 
Q 3406 3131 3298 2873 
Q 3191 2616 2906 2266 
Q 2828 2175 2409 1742 
Q 1991 1309 1228 531 
z
" id="DejaVuSans-32" transform="scale(0.015625)"/>
       </defs>
       <use xlink:href="#DejaVuSans-30"/>
       <use x="63.623047" xlink:href="#DejaVuSans-2e"/>
       <use x="95.410156" xlink:href="#DejaVuSans-32"/>
      </g>
     </g>
    </g>
    <g id="xtick_3">
     <g id="line2d_3">
      <path clip-path="url(#pd1639098d0)" d="M 433.35222 344.5332 
L 433.35222 67.3332 
" style="fill:none;stroke:#ffffff;stroke-linecap:round;"/>
     </g>
     <g id="text_3">
      <!-- 0.4 -->
      <g style="fill:#262626;" transform="translate(412.360095 374.093075)scale(0.264 -0.264)">
       <defs>
        <path d="M 2419 4116 
L 825 1625 
L 2419 1625 
L 2419 4116 
z
M 2253 4666 
L 3047 4666 
L 3047 1625 
L 3713 1625 
L 3713 1100 
L 3047 1100 
L 3047 0 
L 2419 0 
L 2419 1100 
L 313 1100 
L 313 1709 
L 2253 4666 
z
" id="DejaVuSans-34" transform="scale(0.015625)"/>
       </defs>
       <use xlink:href="#DejaVuSans-30"/>
       <use x="63.623047" xlink:href="#DejaVuSans-2e"/>
       <use x="95.410156" xlink:href="#DejaVuSans-34"/>
      </g>
     </g>
    </g>
    <g id="xtick_4">
     <g id="line2d_4">
      <path clip-path="url(#pd1639098d0)" d="M 559.168935 344.5332 
L 559.168935 67.3332 
" style="fill:none;stroke:#ffffff;stroke-linecap:round;"/>
     </g>
     <g id="text_4">
      <!-- 0.6 -->
      <g style="fill:#262626;" transform="translate(538.17681 374.093075)scale(0.264 -0.264)">
       <defs>
        <path d="M 2113 2584 
Q 1688 2584 1439 2293 
Q 1191 2003 1191 1497 
Q 1191 994 1439 701 
Q 1688 409 2113 409 
Q 2538 409 2786 701 
Q 3034 994 3034 1497 
Q 3034 2003 2786 2293 
Q 2538 2584 2113 2584 
z
M 3366 4563 
L 3366 3988 
Q 3128 4100 2886 4159 
Q 2644 4219 2406 4219 
Q 1781 4219 1451 3797 
Q 1122 3375 1075 2522 
Q 1259 2794 1537 2939 
Q 1816 3084 2150 3084 
Q 2853 3084 3261 2657 
Q 3669 2231 3669 1497 
Q 3669 778 3244 343 
Q 2819 -91 2113 -91 
Q 1303 -91 875 529 
Q 447 1150 447 2328 
Q 447 3434 972 4092 
Q 1497 4750 2381 4750 
Q 2619 4750 2861 4703 
Q 3103 4656 3366 4563 
z
" id="DejaVuSans-36" transform="scale(0.015625)"/>
       </defs>
       <use xlink:href="#DejaVuSans-30"/>
       <use x="63.623047" xlink:href="#DejaVuSans-2e"/>
       <use x="95.410156" xlink:href="#DejaVuSans-36"/>
      </g>
     </g>
    </g>
    <g id="xtick_5">
     <g id="line2d_5">
      <path clip-path="url(#pd1639098d0)" d="M 684.985649 344.5332 
L 684.985649 67.3332 
" style="fill:none;stroke:#ffffff;stroke-linecap:round;"/>
     </g>
     <g id="text_5">
      <!-- 0.8 -->
      <g style="fill:#262626;" transform="translate(663.993524 374.093075)scale(0.264 -0.264)">
       <defs>
        <path d="M 2034 2216 
Q 1584 2216 1326 1975 
Q 1069 1734 1069 1313 
Q 1069 891 1326 650 
Q 1584 409 2034 409 
Q 2484 409 2743 651 
Q 3003 894 3003 1313 
Q 3003 1734 2745 1975 
Q 2488 2216 2034 2216 
z
M 1403 2484 
Q 997 2584 770 2862 
Q 544 3141 544 3541 
Q 544 4100 942 4425 
Q 1341 4750 2034 4750 
Q 2731 4750 3128 4425 
Q 3525 4100 3525 3541 
Q 3525 3141 3298 2862 
Q 3072 2584 2669 2484 
Q 3125 2378 3379 2068 
Q 3634 1759 3634 1313 
Q 3634 634 3220 271 
Q 2806 -91 2034 -91 
Q 1263 -91 848 271 
Q 434 634 434 1313 
Q 434 1759 690 2068 
Q 947 2378 1403 2484 
z
M 1172 3481 
Q 1172 3119 1398 2916 
Q 1625 2713 2034 2713 
Q 2441 2713 2670 2916 
Q 2900 3119 2900 3481 
Q 2900 3844 2670 4047 
Q 2441 4250 2034 4250 
Q 1625 4250 1398 4047 
Q 1172 3844 1172 3481 
z
" id="DejaVuSans-38" transform="scale(0.015625)"/>
       </defs>
       <use xlink:href="#DejaVuSans-30"/>
       <use x="63.623047" xlink:href="#DejaVuSans-2e"/>
       <use x="95.410156" xlink:href="#DejaVuSans-38"/>
      </g>
     </g>
    </g>
    <g id="xtick_6">
     <g id="line2d_6">
      <path clip-path="url(#pd1639098d0)" d="M 810.802364 344.5332 
L 810.802364 67.3332 
" style="fill:none;stroke:#ffffff;stroke-linecap:round;"/>
     </g>
     <g id="text_6">
      <!-- 1.0 -->
      <g style="fill:#262626;" transform="translate(789.810239 374.093075)scale(0.264 -0.264)">
       <defs>
        <path d="M 794 531 
L 1825 531 
L 1825 4091 
L 703 3866 
L 703 4441 
L 1819 4666 
L 2450 4666 
L 2450 531 
L 3481 531 
L 3481 0 
L 794 0 
L 794 531 
z
" id="DejaVuSans-31" transform="scale(0.015625)"/>
       </defs>
       <use xlink:href="#DejaVuSans-31"/>
       <use x="63.623047" xlink:href="#DejaVuSans-2e"/>
       <use x="95.410156" xlink:href="#DejaVuSans-30"/>
      </g>
     </g>
    </g>
    <g id="text_7">
     <!-- Pearson's correlation -->
     <g style="fill:#262626;" transform="translate(333.36975 405.46695)scale(0.288 -0.288)">
      <defs>
       <path d="M 1259 4147 
L 1259 2394 
L 2053 2394 
Q 2494 2394 2734 2622 
Q 2975 2850 2975 3272 
Q 2975 3691 2734 3919 
Q 2494 4147 2053 4147 
L 1259 4147 
z
M 628 4666 
L 2053 4666 
Q 2838 4666 3239 4311 
Q 3641 3956 3641 3272 
Q 3641 2581 3239 2228 
Q 2838 1875 2053 1875 
L 1259 1875 
L 1259 0 
L 628 0 
L 628 4666 
z
" id="DejaVuSans-50" transform="scale(0.015625)"/>
       <path d="M 3597 1894 
L 3597 1613 
L 953 1613 
Q 991 1019 1311 708 
Q 1631 397 2203 397 
Q 2534 397 2845 478 
Q 3156 559 3463 722 
L 3463 178 
Q 3153 47 2828 -22 
Q 2503 -91 2169 -91 
Q 1331 -91 842 396 
Q 353 884 353 1716 
Q 353 2575 817 3079 
Q 1281 3584 2069 3584 
Q 2775 3584 3186 3129 
Q 3597 2675 3597 1894 
z
M 3022 2063 
Q 3016 2534 2758 2815 
Q 2500 3097 2075 3097 
Q 1594 3097 1305 2825 
Q 1016 2553 972 2059 
L 3022 2063 
z
" id="DejaVuSans-65" transform="scale(0.015625)"/>
       <path d="M 2194 1759 
Q 1497 1759 1228 1600 
Q 959 1441 959 1056 
Q 959 750 1161 570 
Q 1363 391 1709 391 
Q 2188 391 2477 730 
Q 2766 1069 2766 1631 
L 2766 1759 
L 2194 1759 
z
M 3341 1997 
L 3341 0 
L 2766 0 
L 2766 531 
Q 2569 213 2275 61 
Q 1981 -91 1556 -91 
Q 1019 -91 701 211 
Q 384 513 384 1019 
Q 384 1609 779 1909 
Q 1175 2209 1959 2209 
L 2766 2209 
L 2766 2266 
Q 2766 2663 2505 2880 
Q 2244 3097 1772 3097 
Q 1472 3097 1187 3025 
Q 903 2953 641 2809 
L 641 3341 
Q 956 3463 1253 3523 
Q 1550 3584 1831 3584 
Q 2591 3584 2966 3190 
Q 3341 2797 3341 1997 
z
" id="DejaVuSans-61" transform="scale(0.015625)"/>
       <path d="M 2631 2963 
Q 2534 3019 2420 3045 
Q 2306 3072 2169 3072 
Q 1681 3072 1420 2755 
Q 1159 2438 1159 1844 
L 1159 0 
L 581 0 
L 581 3500 
L 1159 3500 
L 1159 2956 
Q 1341 3275 1631 3429 
Q 1922 3584 2338 3584 
Q 2397 3584 2469 3576 
Q 2541 3569 2628 3553 
L 2631 2963 
z
" id="DejaVuSans-72" transform="scale(0.015625)"/>
       <path d="M 2834 3397 
L 2834 2853 
Q 2591 2978 2328 3040 
Q 2066 3103 1784 3103 
Q 1356 3103 1142 2972 
Q 928 2841 928 2578 
Q 928 2378 1081 2264 
Q 1234 2150 1697 2047 
L 1894 2003 
Q 2506 1872 2764 1633 
Q 3022 1394 3022 966 
Q 3022 478 2636 193 
Q 2250 -91 1575 -91 
Q 1294 -91 989 -36 
Q 684 19 347 128 
L 347 722 
Q 666 556 975 473 
Q 1284 391 1588 391 
Q 1994 391 2212 530 
Q 2431 669 2431 922 
Q 2431 1156 2273 1281 
Q 2116 1406 1581 1522 
L 1381 1569 
Q 847 1681 609 1914 
Q 372 2147 372 2553 
Q 372 3047 722 3315 
Q 1072 3584 1716 3584 
Q 2034 3584 2315 3537 
Q 2597 3491 2834 3397 
z
" id="DejaVuSans-73" transform="scale(0.015625)"/>
       <path d="M 1959 3097 
Q 1497 3097 1228 2736 
Q 959 2375 959 1747 
Q 959 1119 1226 758 
Q 1494 397 1959 397 
Q 2419 397 2687 759 
Q 2956 1122 2956 1747 
Q 2956 2369 2687 2733 
Q 2419 3097 1959 3097 
z
M 1959 3584 
Q 2709 3584 3137 3096 
Q 3566 2609 3566 1747 
Q 3566 888 3137 398 
Q 2709 -91 1959 -91 
Q 1206 -91 779 398 
Q 353 888 353 1747 
Q 353 2609 779 3096 
Q 1206 3584 1959 3584 
z
" id="DejaVuSans-6f" transform="scale(0.015625)"/>
       <path d="M 3513 2113 
L 3513 0 
L 2938 0 
L 2938 2094 
Q 2938 2591 2744 2837 
Q 2550 3084 2163 3084 
Q 1697 3084 1428 2787 
Q 1159 2491 1159 1978 
L 1159 0 
L 581 0 
L 581 3500 
L 1159 3500 
L 1159 2956 
Q 1366 3272 1645 3428 
Q 1925 3584 2291 3584 
Q 2894 3584 3203 3211 
Q 3513 2838 3513 2113 
z
" id="DejaVuSans-6e" transform="scale(0.015625)"/>
       <path d="M 1147 4666 
L 1147 2931 
L 616 2931 
L 616 4666 
L 1147 4666 
z
" id="DejaVuSans-27" transform="scale(0.015625)"/>
       <path id="DejaVuSans-20" transform="scale(0.015625)"/>
       <path d="M 3122 3366 
L 3122 2828 
Q 2878 2963 2633 3030 
Q 2388 3097 2138 3097 
Q 1578 3097 1268 2742 
Q 959 2388 959 1747 
Q 959 1106 1268 751 
Q 1578 397 2138 397 
Q 2388 397 2633 464 
Q 2878 531 3122 666 
L 3122 134 
Q 2881 22 2623 -34 
Q 2366 -91 2075 -91 
Q 1284 -91 818 406 
Q 353 903 353 1747 
Q 353 2603 823 3093 
Q 1294 3584 2113 3584 
Q 2378 3584 2631 3529 
Q 2884 3475 3122 3366 
z
" id="DejaVuSans-63" transform="scale(0.015625)"/>
       <path d="M 603 4863 
L 1178 4863 
L 1178 0 
L 603 0 
L 603 4863 
z
" id="DejaVuSans-6c" transform="scale(0.015625)"/>
       <path d="M 1172 4494 
L 1172 3500 
L 2356 3500 
L 2356 3053 
L 1172 3053 
L 1172 1153 
Q 1172 725 1289 603 
Q 1406 481 1766 481 
L 2356 481 
L 2356 0 
L 1766 0 
Q 1100 0 847 248 
Q 594 497 594 1153 
L 594 3053 
L 172 3053 
L 172 3500 
L 594 3500 
L 594 4494 
L 1172 4494 
z
" id="DejaVuSans-74" transform="scale(0.015625)"/>
       <path d="M 603 3500 
L 1178 3500 
L 1178 0 
L 603 0 
L 603 3500 
z
M 603 4863 
L 1178 4863 
L 1178 4134 
L 603 4134 
L 603 4863 
z
" id="DejaVuSans-69" transform="scale(0.015625)"/>
      </defs>
      <use xlink:href="#DejaVuSans-50"/>
      <use x="56.677734" xlink:href="#DejaVuSans-65"/>
      <use x="118.201172" xlink:href="#DejaVuSans-61"/>
      <use x="179.480469" xlink:href="#DejaVuSans-72"/>
      <use x="220.59375" xlink:href="#DejaVuSans-73"/>
      <use x="272.693359" xlink:href="#DejaVuSans-6f"/>
      <use x="333.875" xlink:href="#DejaVuSans-6e"/>
      <use x="397.253906" xlink:href="#DejaVuSans-27"/>
      <use x="424.744141" xlink:href="#DejaVuSans-73"/>
      <use x="476.84375" xlink:href="#DejaVuSans-20"/>
      <use x="508.630859" xlink:href="#DejaVuSans-63"/>
      <use x="563.611328" xlink:href="#DejaVuSans-6f"/>
      <use x="624.792969" xlink:href="#DejaVuSans-72"/>
      <use x="664.15625" xlink:href="#DejaVuSans-72"/>
      <use x="703.019531" xlink:href="#DejaVuSans-65"/>
      <use x="764.542969" xlink:href="#DejaVuSans-6c"/>
      <use x="792.326172" xlink:href="#DejaVuSans-61"/>
      <use x="853.605469" xlink:href="#DejaVuSans-74"/>
      <use x="892.814453" xlink:href="#DejaVuSans-69"/>
      <use x="920.597656" xlink:href="#DejaVuSans-6f"/>
      <use x="981.779297" xlink:href="#DejaVuSans-6e"/>
     </g>
    </g>
   </g>
   <g id="matplotlib.axis_2">
    <g id="ytick_1">
     <g id="line2d_7">
      <path clip-path="url(#pd1639098d0)" d="M 65.37 344.5332 
L 902.37 344.5332 
" style="fill:none;stroke:#ffffff;stroke-linecap:round;"/>
     </g>
     <g id="text_8">
      <!-- 0 -->
      <g style="fill:#262626;" transform="translate(39.073 354.563138)scale(0.264 -0.264)">
       <use xlink:href="#DejaVuSans-30"/>
      </g>
     </g>
    </g>
    <g id="ytick_2">
     <g id="line2d_8">
      <path clip-path="url(#pd1639098d0)" d="M 65.37 243.122083 
L 902.37 243.122083 
" style="fill:none;stroke:#ffffff;stroke-linecap:round;"/>
     </g>
     <g id="text_9">
      <!-- 2 -->
      <g style="fill:#262626;" transform="translate(39.073 253.152021)scale(0.264 -0.264)">
       <use xlink:href="#DejaVuSans-32"/>
      </g>
     </g>
    </g>
    <g id="ytick_3">
     <g id="line2d_9">
      <path clip-path="url(#pd1639098d0)" d="M 65.37 141.710967 
L 902.37 141.710967 
" style="fill:none;stroke:#ffffff;stroke-linecap:round;"/>
     </g>
     <g id="text_10">
      <!-- 4 -->
      <g style="fill:#262626;" transform="translate(39.073 151.740904)scale(0.264 -0.264)">
       <use xlink:href="#DejaVuSans-34"/>
      </g>
     </g>
    </g>
    <g id="text_11">
     <!-- Density -->
     <g style="fill:#262626;" transform="translate(29.0835 260.67795)rotate(-90)scale(0.288 -0.288)">
      <defs>
       <path d="M 1259 4147 
L 1259 519 
L 2022 519 
Q 2988 519 3436 956 
Q 3884 1394 3884 2338 
Q 3884 3275 3436 3711 
Q 2988 4147 2022 4147 
L 1259 4147 
z
M 628 4666 
L 1925 4666 
Q 3281 4666 3915 4102 
Q 4550 3538 4550 2338 
Q 4550 1131 3912 565 
Q 3275 0 1925 0 
L 628 0 
L 628 4666 
z
" id="DejaVuSans-44" transform="scale(0.015625)"/>
       <path d="M 2059 -325 
Q 1816 -950 1584 -1140 
Q 1353 -1331 966 -1331 
L 506 -1331 
L 506 -850 
L 844 -850 
Q 1081 -850 1212 -737 
Q 1344 -625 1503 -206 
L 1606 56 
L 191 3500 
L 800 3500 
L 1894 763 
L 2988 3500 
L 3597 3500 
L 2059 -325 
z
" id="DejaVuSans-79" transform="scale(0.015625)"/>
      </defs>
      <use xlink:href="#DejaVuSans-44"/>
      <use x="77.001953" xlink:href="#DejaVuSans-65"/>
      <use x="138.525391" xlink:href="#DejaVuSans-6e"/>
      <use x="201.904297" xlink:href="#DejaVuSans-73"/>
      <use x="254.003906" xlink:href="#DejaVuSans-69"/>
      <use x="281.787109" xlink:href="#DejaVuSans-74"/>
      <use x="320.996094" xlink:href="#DejaVuSans-79"/>
     </g>
    </g>
   </g>
   <g id="line2d_10">
    <path clip-path="url(#pd1639098d0)" d="M 158.734212 344.506348 
L 180.008293 344.364786 
L 194.191013 344.089562 
L 208.373733 343.572938 
L 222.556453 342.800444 
L 243.830534 341.359751 
L 297.015735 337.63525 
L 307.652775 337.154879 
L 318.289815 336.862934 
L 332.472536 336.698849 
L 346.655256 336.744962 
L 357.292296 336.983125 
L 367.929336 337.467504 
L 382.112056 338.441329 
L 396.294777 339.433673 
L 406.931817 339.909114 
L 417.568857 340.063428 
L 431.751577 339.947759 
L 445.934298 339.915344 
L 456.571338 340.189618 
L 467.208378 340.756972 
L 499.119499 342.815316 
L 506.210859 342.955696 
L 513.302219 342.838532 
L 520.393579 342.387773 
L 523.939259 342.010354 
L 527.484939 341.515696 
L 531.030619 340.891146 
L 534.576299 340.123783 
L 538.121979 339.200809 
L 541.667659 338.110059 
L 545.213339 336.84059 
L 548.75902 335.383319 
L 552.3047 333.731674 
L 555.85038 331.882207 
L 559.39606 329.83511 
L 562.94174 327.594588 
L 566.48742 325.169037 
L 570.0331 322.570994 
L 577.12446 316.92622 
L 584.21582 310.825802 
L 594.85286 301.231516 
L 609.035581 288.405051 
L 626.763981 272.570087 
L 633.855341 265.804302 
L 637.401021 262.167628 
L 640.946701 258.286695 
L 644.492381 254.097278 
L 648.038061 249.530183 
L 651.583741 244.513163 
L 655.129422 238.973653 
L 658.675102 232.842391 
L 662.220782 226.057946 
L 665.766462 218.57204 
L 669.312142 210.355464 
L 672.857822 201.40425 
L 676.403502 191.745685 
L 679.949182 181.443634 
L 683.494862 170.60261 
L 690.586222 147.936266 
L 697.677582 125.421578 
L 701.223262 114.896959 
L 704.768942 105.264233 
L 708.314623 96.831774 
L 711.860303 89.895568 
L 715.405983 84.724376 
L 718.951663 81.545471 
L 722.497343 80.531977 
L 726.043023 81.792744 
L 729.588703 85.365532 
L 733.134383 91.21402 
L 736.680063 99.22889 
L 740.225743 109.232884 
L 743.771423 120.989482 
L 747.317103 134.21452 
L 750.862783 148.58993 
L 757.954143 179.439428 
L 765.045504 210.876445 
L 768.591184 226.06931 
L 772.136864 240.585609 
L 775.682544 254.236414 
L 779.228224 266.880275 
L 782.773904 278.422623 
L 786.319584 288.812972 
L 789.865264 298.040398 
L 793.410944 306.127824 
L 796.956624 313.125614 
L 800.502304 319.104983 
L 804.047984 324.151605 
L 807.593664 328.359748 
L 811.139344 331.82717 
L 814.685025 334.650884 
L 818.230705 336.923862 
L 821.776385 338.732638 
L 825.322065 340.155737 
L 828.867745 341.262837 
L 832.413425 342.114509 
L 835.959105 342.762425 
L 839.504785 343.249895 
L 846.596145 343.879551 
L 853.687505 344.213708 
L 864.324545 344.432244 
L 864.324545 344.432244 
" style="fill:none;stroke:#0000ff;stroke-linecap:round;stroke-width:1.5;"/>
   </g>
   <g id="line2d_11">
    <path clip-path="url(#pd1639098d0)" d="M 165.460019 344.50353 
L 185.719875 344.340379 
L 199.226445 344.002426 
L 209.356373 343.525433 
L 219.486301 342.797443 
L 229.616228 341.811672 
L 246.499441 339.823688 
L 256.629369 338.718925 
L 263.382654 338.164061 
L 270.135939 337.829667 
L 276.889224 337.758584 
L 283.642509 337.96378 
L 290.395795 338.423426 
L 300.525722 339.461884 
L 317.408935 341.393097 
L 324.16222 341.974226 
L 330.915506 342.343981 
L 337.668791 342.467053 
L 344.422076 342.334708 
L 351.175361 341.964382 
L 357.928646 341.397995 
L 371.435216 339.943787 
L 381.565144 338.888704 
L 388.318429 338.342626 
L 395.071714 337.979552 
L 401.825 337.816193 
L 408.578285 337.840005 
L 418.708213 338.144277 
L 452.474638 339.575338 
L 462.604566 339.695399 
L 469.357851 339.615383 
L 476.111136 339.363307 
L 482.864421 338.892201 
L 489.617707 338.152841 
L 496.370992 337.102328 
L 503.124277 335.713424 
L 509.877562 333.982583 
L 516.630847 331.935019 
L 523.384132 329.625344 
L 533.51406 325.845536 
L 553.773916 318.143585 
L 567.280486 313.029762 
L 574.033771 310.166326 
L 577.410414 308.572585 
L 580.787056 306.834862 
L 584.163699 304.92721 
L 587.540341 302.825869 
L 590.916984 300.510206 
L 594.293626 297.963398 
L 597.670269 295.172804 
L 601.046912 292.129992 
L 604.423554 288.830429 
L 607.800197 285.272847 
L 611.176839 281.458355 
L 614.553482 277.389357 
L 617.930125 273.068377 
L 621.306767 268.496888 
L 624.68341 263.67424 
L 628.060052 258.596799 
L 631.436695 253.257387 
L 634.813337 247.645084 
L 638.18998 241.745495 
L 641.566623 235.54149 
L 644.943265 229.014478 
L 648.319908 222.146194 
L 651.69655 214.921004 
L 655.073193 207.328649 
L 658.449835 199.367355 
L 661.826478 191.047183 
L 668.579763 173.449932 
L 678.709691 145.652011 
L 685.462976 127.511602 
L 688.839619 119.042159 
L 692.216261 111.233009 
L 695.592904 104.292841 
L 698.969546 98.432572 
L 702.346189 93.856619 
L 705.722831 90.753509 
L 709.099474 89.286353 
L 712.476117 89.583809 
L 715.852759 91.73213 
L 719.229402 95.768919 
L 722.606044 101.679069 
L 725.982687 109.393283 
L 729.35933 118.789344 
L 732.735972 129.696147 
L 736.112615 141.900287 
L 739.489257 155.154795 
L 742.8659 169.18948 
L 759.749113 241.397431 
L 763.125755 254.530175 
L 766.502398 266.794066 
L 769.87904 278.080054 
L 773.255683 288.319014 
L 776.632326 297.479417 
L 780.008968 305.56348 
L 783.385611 312.602246 
L 786.762253 318.650009 
L 790.138896 323.778528 
L 793.515538 328.071367 
L 796.892181 331.618688 
L 800.268824 334.5127 
L 803.645466 336.843889 
L 807.022109 338.698107 
L 810.398751 340.154483 
L 813.775394 341.284112 
L 817.152036 342.149403 
L 820.528679 342.803988 
L 823.905322 343.293044 
L 830.658607 343.916894 
L 837.411892 344.240741 
L 837.411892 344.240741 
" style="fill:none;stroke:#0000ff;stroke-dasharray:5.55,2.4;stroke-dashoffset:0;stroke-width:1.5;"/>
   </g>
   <g id="line2d_12">
    <path clip-path="url(#pd1639098d0)" d="M 175.365864 344.501416 
L 194.666151 344.309635 
L 207.533008 343.928748 
L 220.399866 343.253679 
L 242.916867 341.894867 
L 249.350296 341.705524 
L 255.783724 341.681318 
L 262.217153 341.824729 
L 271.867296 342.283286 
L 287.950868 343.180049 
L 294.384297 343.385895 
L 300.817726 343.417588 
L 307.251155 343.233259 
L 313.684584 342.805638 
L 320.118013 342.127635 
L 326.551441 341.220725 
L 336.201585 339.567204 
L 345.851728 337.876233 
L 352.285157 336.936701 
L 358.718585 336.272783 
L 365.152014 335.94048 
L 371.585443 335.933655 
L 378.018872 336.187776 
L 390.885729 337.062529 
L 400.535873 337.66951 
L 413.40273 338.208518 
L 429.486302 338.860791 
L 442.35316 339.669474 
L 452.003303 340.256677 
L 458.436732 340.45271 
L 464.870161 340.349326 
L 468.086875 340.148451 
L 471.30359 339.830851 
L 474.520304 339.385744 
L 477.737018 338.804361 
L 480.953733 338.080059 
L 484.170447 337.208351 
L 487.387162 336.186876 
L 490.603876 335.015363 
L 493.82059 333.695613 
L 497.037305 332.231552 
L 500.254019 330.629351 
L 506.687448 327.047703 
L 513.120877 323.053226 
L 522.77102 316.626975 
L 532.421163 310.262722 
L 538.854592 306.350371 
L 545.288021 302.794105 
L 554.938164 297.921201 
L 561.371593 294.607495 
L 564.588307 292.797567 
L 567.805022 290.821271 
L 571.021736 288.63294 
L 574.238451 286.191752 
L 577.455165 283.463439 
L 580.671879 280.421309 
L 583.888594 277.046513 
L 587.105308 273.327555 
L 590.322023 269.25915 
L 593.538737 264.840582 
L 596.755451 260.073755 
L 599.972166 254.961192 
L 603.18888 249.504213 
L 606.405595 243.701553 
L 609.622309 237.548611 
L 612.839023 231.037516 
L 616.055738 224.158104 
L 619.272452 216.899828 
L 622.489167 209.254555 
L 625.705881 201.220069 
L 628.922595 192.804062 
L 635.356024 174.932443 
L 641.789453 156.048501 
L 648.222882 136.92979 
L 651.439596 127.630115 
L 654.656311 118.730334 
L 657.873025 110.418712 
L 661.08974 102.89074 
L 664.306454 96.341982 
L 667.523168 90.960454 
L 670.739883 86.918961 
L 673.956597 84.367789 
L 677.173312 83.42812 
L 680.390026 84.186484 
L 683.60674 86.690509 
L 686.823455 90.946164 
L 690.040169 96.916618 
L 693.256884 104.52278 
L 696.473598 113.645516 
L 699.690312 124.129461 
L 702.907027 135.78827 
L 706.123741 148.411091 
L 709.340456 161.769936 
L 715.773884 189.745842 
L 722.207313 217.851668 
L 725.424028 231.424252 
L 728.640742 244.43857 
L 731.857456 256.751118 
L 735.074171 268.249196 
L 738.290885 278.851497 
L 741.5076 288.507334 
L 744.724314 297.194689 
L 747.941028 304.917313 
L 751.157743 311.701157 
L 754.374457 317.590383 
L 757.591172 322.643223 
L 760.807886 326.927906 
L 764.0246 330.518838 
L 767.241315 333.493176 
L 770.458029 335.927891 
L 773.674744 337.897383 
L 776.891458 339.471633 
L 780.108173 340.714912 
L 783.324887 341.684963 
L 786.541601 342.432626 
L 789.758316 343.001808 
L 796.191745 343.74747 
L 802.625173 344.148948 
L 812.275317 344.413395 
L 815.492031 344.453982 
L 815.492031 344.453982 
" style="fill:none;stroke:#0000ff;stroke-dasharray:9.6,2.4,1.5,2.4;stroke-dashoffset:0;stroke-width:1.5;"/>
   </g>
   <g id="line2d_13">
    <path clip-path="url(#pd1639098d0)" d="M 103.415455 344.492812 
L 126.355347 344.298276 
L 141.648608 343.916015 
L 153.118554 343.389286 
L 164.5885 342.596519 
L 176.058446 341.532941 
L 191.351708 339.831092 
L 206.644969 338.171628 
L 214.2916 337.509569 
L 221.938231 337.026731 
L 229.584861 336.749763 
L 237.231492 336.680005 
L 244.878123 336.79364 
L 256.348069 337.207703 
L 283.111276 338.342061 
L 294.581223 338.582962 
L 309.874484 338.629968 
L 332.814376 338.401814 
L 348.107638 338.113162 
L 359.577584 337.698909 
L 367.224214 337.261191 
L 374.870845 336.664718 
L 382.517476 335.90717 
L 393.987422 334.528782 
L 413.103999 332.085043 
L 420.750629 331.262798 
L 428.39726 330.610299 
L 436.043891 330.144807 
L 447.513837 329.753653 
L 474.277044 329.163628 
L 481.923675 328.726127 
L 489.570306 328.054362 
L 497.216937 327.117763 
L 504.863567 325.904328 
L 512.510198 324.411739 
L 520.156829 322.633935 
L 527.80346 320.545463 
L 535.45009 318.086827 
L 539.273406 316.688161 
L 543.096721 315.154372 
L 546.920036 313.465184 
L 550.743352 311.597744 
L 554.566667 309.527047 
L 558.389982 307.226484 
L 562.213298 304.668503 
L 566.036613 301.82534 
L 569.859928 298.669813 
L 573.683244 295.176138 
L 577.506559 291.320775 
L 581.329875 287.083256 
L 585.15319 282.447041 
L 588.976505 277.400354 
L 592.799821 271.937041 
L 596.623136 266.057447 
L 600.446451 259.769293 
L 604.269767 253.088566 
L 608.093082 246.040385 
L 611.916397 238.659791 
L 619.563028 223.094966 
L 638.679605 182.90329 
L 642.50292 175.404974 
L 646.326236 168.343399 
L 650.149551 161.8324 
L 653.972866 155.982122 
L 657.796182 150.895628 
L 661.619497 146.665606 
L 665.442812 143.371362 
L 669.266128 141.076262 
L 673.089443 139.825783 
L 676.912759 139.646257 
L 680.736074 140.544372 
L 684.559389 142.50743 
L 688.382705 145.504293 
L 692.20602 149.486944 
L 696.029335 154.392501 
L 699.852651 160.14556 
L 703.675966 166.660695 
L 707.499281 173.844975 
L 711.322597 181.600378 
L 715.145912 189.826019 
L 722.792543 207.281749 
L 741.90912 252.293498 
L 745.732435 260.845455 
L 749.55575 269.080825 
L 753.379066 276.943903 
L 757.202381 284.387828 
L 761.025696 291.374972 
L 764.849012 297.877157 
L 768.672327 303.87569 
L 772.495643 309.361172 
L 776.318958 314.333086 
L 780.142273 318.799155 
L 783.965589 322.774504 
L 787.788904 326.280652 
L 791.612219 329.344379 
L 795.435535 331.996527 
L 799.25885 334.270789 
L 803.082165 336.202529 
L 806.905481 337.827688 
L 810.728796 339.181815 
L 814.552112 340.299243 
L 818.375427 341.212428 
L 822.198742 341.95146 
L 826.022058 342.543729 
L 833.668688 343.383104 
L 841.315319 343.891951 
L 848.96195 344.188507 
L 860.431896 344.406468 
L 864.255211 344.444092 
L 864.255211 344.444092 
" style="fill:none;stroke:#00ffff;stroke-linecap:round;stroke-width:1.5;"/>
   </g>
   <g id="line2d_14">
    <path clip-path="url(#pd1639098d0)" d="M 155.951756 344.507518 
L 179.389967 344.358809 
L 196.131546 344.022699 
L 209.524809 343.512565 
L 222.918073 342.752541 
L 239.659652 341.516274 
L 273.14281 338.911527 
L 286.536073 338.137555 
L 303.277652 337.455547 
L 316.670916 336.912562 
L 326.715863 336.265253 
L 333.412495 335.617428 
L 340.109126 334.742045 
L 346.805758 333.607827 
L 353.50239 332.201469 
L 360.199021 330.528253 
L 366.895653 328.60959 
L 373.592285 326.47808 
L 383.637232 322.963659 
L 393.68218 319.171478 
L 407.075443 313.824405 
L 423.817022 306.849647 
L 440.558601 299.894858 
L 450.603549 296.010258 
L 457.30018 293.648604 
L 463.996812 291.514894 
L 470.693443 289.621308 
L 477.390075 287.944549 
L 497.47997 283.304627 
L 504.176602 281.348995 
L 507.524917 280.17243 
L 510.873233 278.822044 
L 514.221549 277.266706 
L 517.569865 275.476241 
L 520.918181 273.422449 
L 524.266497 271.080207 
L 527.614812 268.428623 
L 530.963128 265.452211 
L 534.311444 262.142023 
L 537.65976 258.496701 
L 541.008076 254.523368 
L 544.356391 250.238326 
L 547.704707 245.667469 
L 551.053023 240.846396 
L 557.749655 230.642691 
L 571.142918 209.743252 
L 574.491234 204.840115 
L 577.83955 200.217571 
L 581.187866 195.947658 
L 584.536181 192.096742 
L 587.884497 188.723577 
L 591.232813 185.877636 
L 594.581129 183.597763 
L 597.929445 181.911216 
L 601.27776 180.833118 
L 604.626076 180.366345 
L 607.974392 180.501833 
L 611.322708 181.219286 
L 614.671024 182.488242 
L 618.01934 184.26944 
L 621.367655 186.516443 
L 624.715971 189.177418 
L 628.064287 192.197027 
L 631.412603 195.518345 
L 634.760919 199.084731 
L 641.45755 206.737972 
L 651.502498 218.836073 
L 664.895761 234.901274 
L 678.289024 250.491584 
L 691.682288 266.1973 
L 701.727235 278.384879 
L 718.468814 298.923647 
L 725.165446 306.724983 
L 731.862077 313.975153 
L 735.210393 317.334493 
L 738.558709 320.491334 
L 741.907025 323.431603 
L 745.255341 326.145567 
L 748.603657 328.627926 
L 751.951972 330.877702 
L 755.300288 332.89796 
L 758.648604 334.695387 
L 761.99692 336.279775 
L 765.345236 337.663434 
L 768.693551 338.860583 
L 772.041867 339.886738 
L 775.390183 340.75814 
L 778.738499 341.491236 
L 785.435131 342.60669 
L 792.131762 343.353636 
L 798.828394 343.83535 
L 808.873341 344.235789 
L 822.266605 344.449028 
L 822.266605 344.449028 
" style="fill:none;stroke:#00ffff;stroke-dasharray:5.55,2.4;stroke-dashoffset:0;stroke-width:1.5;"/>
   </g>
   <g id="line2d_15">
    <path clip-path="url(#pd1639098d0)" d="M 157.72747 344.506079 
L 180.527139 344.354761 
L 193.555522 344.101945 
L 206.583904 343.622434 
L 216.355191 343.066585 
L 226.126478 342.326743 
L 239.15486 341.083128 
L 258.697434 338.902197 
L 304.296772 333.626836 
L 310.810963 332.580998 
L 317.325154 331.310106 
L 323.839345 329.753045 
L 330.353537 327.856643 
L 336.867728 325.58082 
L 343.381919 322.90179 
L 349.89611 319.813143 
L 356.410301 316.325388 
L 362.924493 312.46505 
L 369.438684 308.274353 
L 375.952875 303.811986 
L 385.724162 296.781543 
L 398.752544 287.320017 
L 405.266735 282.820776 
L 411.780926 278.633653 
L 418.295118 274.851955 
L 424.809309 271.529832 
L 431.3235 268.670246 
L 437.837691 266.220496 
L 444.351882 264.077496 
L 463.894456 258.055058 
L 470.408647 255.722507 
L 476.922838 253.067877 
L 483.43703 250.053139 
L 489.951221 246.673525 
L 496.465412 242.948892 
L 502.979603 238.91825 
L 509.493794 234.64116 
L 529.036368 221.425537 
L 535.550559 217.481387 
L 538.807655 215.728235 
L 542.06475 214.165103 
L 545.321846 212.82428 
L 548.578941 211.736022 
L 551.836037 210.927356 
L 555.093133 210.420948 
L 558.350228 210.234115 
L 561.607324 210.378036 
L 564.864419 210.857202 
L 568.121515 211.66916 
L 571.378611 212.804541 
L 574.635706 214.247386 
L 577.892802 215.975747 
L 581.149897 217.962535 
L 584.406993 220.176555 
L 587.664089 222.583695 
L 594.17828 227.833912 
L 603.949567 236.27715 
L 613.720853 244.713429 
L 620.235045 250.092861 
L 626.749236 255.219778 
L 636.520523 262.508884 
L 659.320192 279.154069 
L 665.834383 284.184047 
L 675.60567 292.07931 
L 688.634052 303.058329 
L 698.405339 311.263116 
L 704.91953 316.506239 
L 711.433721 321.428876 
L 717.947912 325.925093 
L 721.205008 327.986534 
L 724.462104 329.913035 
L 727.719199 331.6994 
L 730.976295 333.34266 
L 734.23339 334.842059 
L 737.490486 336.198962 
L 740.747582 337.416697 
L 744.004677 338.500339 
L 747.261773 339.456456 
L 753.775964 341.018089 
L 760.290155 342.172804 
L 766.804346 342.997092 
L 773.318537 343.564954 
L 779.832729 343.942394 
L 789.604015 344.268507 
L 802.632398 344.452534 
L 805.889493 344.474529 
L 805.889493 344.474529 
" style="fill:none;stroke:#00ffff;stroke-dasharray:9.6,2.4,1.5,2.4;stroke-dashoffset:0;stroke-width:1.5;"/>
   </g>
   <g id="patch_3">
    <path d="M 65.37 344.5332 
L 65.37 67.3332 
" style="fill:none;stroke:#ffffff;stroke-linecap:square;stroke-linejoin:miter;stroke-width:1.25;"/>
   </g>
   <g id="patch_4">
    <path d="M 902.37 344.5332 
L 902.37 67.3332 
" style="fill:none;stroke:#ffffff;stroke-linecap:square;stroke-linejoin:miter;stroke-width:1.25;"/>
   </g>
   <g id="patch_5">
    <path d="M 65.37 344.5332 
L 902.37 344.5332 
" style="fill:none;stroke:#ffffff;stroke-linecap:square;stroke-linejoin:miter;stroke-width:1.25;"/>
   </g>
   <g id="patch_6">
    <path d="M 65.37 67.3332 
L 902.37 67.3332 
" style="fill:none;stroke:#ffffff;stroke-linecap:square;stroke-linejoin:miter;stroke-width:1.25;"/>
   </g>
   <g id="text_12">
    <!-- Density plot of highest correlation for every estimated source  -->
    <g style="fill:#262626;" transform="translate(34.9905 29.0835)scale(0.288 -0.288)">
     <defs>
      <path d="M 1159 525 
L 1159 -1331 
L 581 -1331 
L 581 3500 
L 1159 3500 
L 1159 2969 
Q 1341 3281 1617 3432 
Q 1894 3584 2278 3584 
Q 2916 3584 3314 3078 
Q 3713 2572 3713 1747 
Q 3713 922 3314 415 
Q 2916 -91 2278 -91 
Q 1894 -91 1617 61 
Q 1341 213 1159 525 
z
M 3116 1747 
Q 3116 2381 2855 2742 
Q 2594 3103 2138 3103 
Q 1681 3103 1420 2742 
Q 1159 2381 1159 1747 
Q 1159 1113 1420 752 
Q 1681 391 2138 391 
Q 2594 391 2855 752 
Q 3116 1113 3116 1747 
z
" id="DejaVuSans-70" transform="scale(0.015625)"/>
      <path d="M 2375 4863 
L 2375 4384 
L 1825 4384 
Q 1516 4384 1395 4259 
Q 1275 4134 1275 3809 
L 1275 3500 
L 2222 3500 
L 2222 3053 
L 1275 3053 
L 1275 0 
L 697 0 
L 697 3053 
L 147 3053 
L 147 3500 
L 697 3500 
L 697 3744 
Q 697 4328 969 4595 
Q 1241 4863 1831 4863 
L 2375 4863 
z
" id="DejaVuSans-66" transform="scale(0.015625)"/>
      <path d="M 3513 2113 
L 3513 0 
L 2938 0 
L 2938 2094 
Q 2938 2591 2744 2837 
Q 2550 3084 2163 3084 
Q 1697 3084 1428 2787 
Q 1159 2491 1159 1978 
L 1159 0 
L 581 0 
L 581 4863 
L 1159 4863 
L 1159 2956 
Q 1366 3272 1645 3428 
Q 1925 3584 2291 3584 
Q 2894 3584 3203 3211 
Q 3513 2838 3513 2113 
z
" id="DejaVuSans-68" transform="scale(0.015625)"/>
      <path d="M 2906 1791 
Q 2906 2416 2648 2759 
Q 2391 3103 1925 3103 
Q 1463 3103 1205 2759 
Q 947 2416 947 1791 
Q 947 1169 1205 825 
Q 1463 481 1925 481 
Q 2391 481 2648 825 
Q 2906 1169 2906 1791 
z
M 3481 434 
Q 3481 -459 3084 -895 
Q 2688 -1331 1869 -1331 
Q 1566 -1331 1297 -1286 
Q 1028 -1241 775 -1147 
L 775 -588 
Q 1028 -725 1275 -790 
Q 1522 -856 1778 -856 
Q 2344 -856 2625 -561 
Q 2906 -266 2906 331 
L 2906 616 
Q 2728 306 2450 153 
Q 2172 0 1784 0 
Q 1141 0 747 490 
Q 353 981 353 1791 
Q 353 2603 747 3093 
Q 1141 3584 1784 3584 
Q 2172 3584 2450 3431 
Q 2728 3278 2906 2969 
L 2906 3500 
L 3481 3500 
L 3481 434 
z
" id="DejaVuSans-67" transform="scale(0.015625)"/>
      <path d="M 191 3500 
L 800 3500 
L 1894 563 
L 2988 3500 
L 3597 3500 
L 2284 0 
L 1503 0 
L 191 3500 
z
" id="DejaVuSans-76" transform="scale(0.015625)"/>
      <path d="M 3328 2828 
Q 3544 3216 3844 3400 
Q 4144 3584 4550 3584 
Q 5097 3584 5394 3201 
Q 5691 2819 5691 2113 
L 5691 0 
L 5113 0 
L 5113 2094 
Q 5113 2597 4934 2840 
Q 4756 3084 4391 3084 
Q 3944 3084 3684 2787 
Q 3425 2491 3425 1978 
L 3425 0 
L 2847 0 
L 2847 2094 
Q 2847 2600 2669 2842 
Q 2491 3084 2119 3084 
Q 1678 3084 1418 2786 
Q 1159 2488 1159 1978 
L 1159 0 
L 581 0 
L 581 3500 
L 1159 3500 
L 1159 2956 
Q 1356 3278 1631 3431 
Q 1906 3584 2284 3584 
Q 2666 3584 2933 3390 
Q 3200 3197 3328 2828 
z
" id="DejaVuSans-6d" transform="scale(0.015625)"/>
      <path d="M 2906 2969 
L 2906 4863 
L 3481 4863 
L 3481 0 
L 2906 0 
L 2906 525 
Q 2725 213 2448 61 
Q 2172 -91 1784 -91 
Q 1150 -91 751 415 
Q 353 922 353 1747 
Q 353 2572 751 3078 
Q 1150 3584 1784 3584 
Q 2172 3584 2448 3432 
Q 2725 3281 2906 2969 
z
M 947 1747 
Q 947 1113 1208 752 
Q 1469 391 1925 391 
Q 2381 391 2643 752 
Q 2906 1113 2906 1747 
Q 2906 2381 2643 2742 
Q 2381 3103 1925 3103 
Q 1469 3103 1208 2742 
Q 947 2381 947 1747 
z
" id="DejaVuSans-64" transform="scale(0.015625)"/>
      <path d="M 544 1381 
L 544 3500 
L 1119 3500 
L 1119 1403 
Q 1119 906 1312 657 
Q 1506 409 1894 409 
Q 2359 409 2629 706 
Q 2900 1003 2900 1516 
L 2900 3500 
L 3475 3500 
L 3475 0 
L 2900 0 
L 2900 538 
Q 2691 219 2414 64 
Q 2138 -91 1772 -91 
Q 1169 -91 856 284 
Q 544 659 544 1381 
z
M 1991 3584 
L 1991 3584 
z
" id="DejaVuSans-75" transform="scale(0.015625)"/>
     </defs>
     <use xlink:href="#DejaVuSans-44"/>
     <use x="77.001953" xlink:href="#DejaVuSans-65"/>
     <use x="138.525391" xlink:href="#DejaVuSans-6e"/>
     <use x="201.904297" xlink:href="#DejaVuSans-73"/>
     <use x="254.003906" xlink:href="#DejaVuSans-69"/>
     <use x="281.787109" xlink:href="#DejaVuSans-74"/>
     <use x="320.996094" xlink:href="#DejaVuSans-79"/>
     <use x="380.175781" xlink:href="#DejaVuSans-20"/>
     <use x="411.962891" xlink:href="#DejaVuSans-70"/>
     <use x="475.439453" xlink:href="#DejaVuSans-6c"/>
     <use x="503.222656" xlink:href="#DejaVuSans-6f"/>
     <use x="564.404297" xlink:href="#DejaVuSans-74"/>
     <use x="603.613281" xlink:href="#DejaVuSans-20"/>
     <use x="635.400391" xlink:href="#DejaVuSans-6f"/>
     <use x="696.582031" xlink:href="#DejaVuSans-66"/>
     <use x="731.787109" xlink:href="#DejaVuSans-20"/>
     <use x="763.574219" xlink:href="#DejaVuSans-68"/>
     <use x="826.953125" xlink:href="#DejaVuSans-69"/>
     <use x="854.736328" xlink:href="#DejaVuSans-67"/>
     <use x="918.212891" xlink:href="#DejaVuSans-68"/>
     <use x="981.591797" xlink:href="#DejaVuSans-65"/>
     <use x="1043.115234" xlink:href="#DejaVuSans-73"/>
     <use x="1095.214844" xlink:href="#DejaVuSans-74"/>
     <use x="1134.423828" xlink:href="#DejaVuSans-20"/>
     <use x="1166.210938" xlink:href="#DejaVuSans-63"/>
     <use x="1221.191406" xlink:href="#DejaVuSans-6f"/>
     <use x="1282.373047" xlink:href="#DejaVuSans-72"/>
     <use x="1321.736328" xlink:href="#DejaVuSans-72"/>
     <use x="1360.599609" xlink:href="#DejaVuSans-65"/>
     <use x="1422.123047" xlink:href="#DejaVuSans-6c"/>
     <use x="1449.90625" xlink:href="#DejaVuSans-61"/>
     <use x="1511.185547" xlink:href="#DejaVuSans-74"/>
     <use x="1550.394531" xlink:href="#DejaVuSans-69"/>
     <use x="1578.177734" xlink:href="#DejaVuSans-6f"/>
     <use x="1639.359375" xlink:href="#DejaVuSans-6e"/>
     <use x="1702.738281" xlink:href="#DejaVuSans-20"/>
     <use x="1734.525391" xlink:href="#DejaVuSans-66"/>
     <use x="1769.730469" xlink:href="#DejaVuSans-6f"/>
     <use x="1830.912109" xlink:href="#DejaVuSans-72"/>
     <use x="1872.025391" xlink:href="#DejaVuSans-20"/>
     <use x="1903.8125" xlink:href="#DejaVuSans-65"/>
     <use x="1965.335938" xlink:href="#DejaVuSans-76"/>
     <use x="2024.515625" xlink:href="#DejaVuSans-65"/>
     <use x="2086.039062" xlink:href="#DejaVuSans-72"/>
     <use x="2127.152344" xlink:href="#DejaVuSans-79"/>
     <use x="2186.332031" xlink:href="#DejaVuSans-20"/>
     <use x="2218.119141" xlink:href="#DejaVuSans-65"/>
     <use x="2279.642578" xlink:href="#DejaVuSans-73"/>
     <use x="2331.742188" xlink:href="#DejaVuSans-74"/>
     <use x="2370.951172" xlink:href="#DejaVuSans-69"/>
     <use x="2398.734375" xlink:href="#DejaVuSans-6d"/>
     <use x="2496.146484" xlink:href="#DejaVuSans-61"/>
     <use x="2557.425781" xlink:href="#DejaVuSans-74"/>
     <use x="2596.634766" xlink:href="#DejaVuSans-65"/>
     <use x="2658.158203" xlink:href="#DejaVuSans-64"/>
     <use x="2721.634766" xlink:href="#DejaVuSans-20"/>
     <use x="2753.421875" xlink:href="#DejaVuSans-73"/>
     <use x="2805.521484" xlink:href="#DejaVuSans-6f"/>
     <use x="2866.703125" xlink:href="#DejaVuSans-75"/>
     <use x="2930.082031" xlink:href="#DejaVuSans-72"/>
     <use x="2968.945312" xlink:href="#DejaVuSans-63"/>
     <use x="3023.925781" xlink:href="#DejaVuSans-65"/>
     <use x="3085.449219" xlink:href="#DejaVuSans-20"/>
    </g>
    <!--  in the sample data -->
    <g style="fill:#262626;" transform="translate(344.0145 61.3332)scale(0.288 -0.288)">
     <use xlink:href="#DejaVuSans-20"/>
     <use x="31.787109" xlink:href="#DejaVuSans-69"/>
     <use x="59.570312" xlink:href="#DejaVuSans-6e"/>
     <use x="122.949219" xlink:href="#DejaVuSans-20"/>
     <use x="154.736328" xlink:href="#DejaVuSans-74"/>
     <use x="193.945312" xlink:href="#DejaVuSans-68"/>
     <use x="257.324219" xlink:href="#DejaVuSans-65"/>
     <use x="318.847656" xlink:href="#DejaVuSans-20"/>
     <use x="350.634766" xlink:href="#DejaVuSans-73"/>
     <use x="402.734375" xlink:href="#DejaVuSans-61"/>
     <use x="464.013672" xlink:href="#DejaVuSans-6d"/>
     <use x="561.425781" xlink:href="#DejaVuSans-70"/>
     <use x="624.902344" xlink:href="#DejaVuSans-6c"/>
     <use x="652.685547" xlink:href="#DejaVuSans-65"/>
     <use x="714.208984" xlink:href="#DejaVuSans-20"/>
     <use x="745.996094" xlink:href="#DejaVuSans-64"/>
     <use x="809.472656" xlink:href="#DejaVuSans-61"/>
     <use x="870.751953" xlink:href="#DejaVuSans-74"/>
     <use x="909.960938" xlink:href="#DejaVuSans-61"/>
    </g>
   </g>
   <g id="legend_1">
    <g id="patch_7">
     <path d="M 83.85 320.9547 
L 319.62675 320.9547 
Q 324.90675 320.9547 324.90675 315.6747 
L 324.90675 85.8132 
Q 324.90675 80.5332 319.62675 80.5332 
L 83.85 80.5332 
Q 78.57 80.5332 78.57 85.8132 
L 78.57 315.6747 
Q 78.57 320.9547 83.85 320.9547 
z
" style="fill:#eaeaf2;opacity:0.8;stroke:#cccccc;stroke-linejoin:miter;"/>
    </g>
    <g id="line2d_16">
     <path d="M 89.13 101.913075 
L 141.93 101.913075 
" style="fill:none;stroke:#0000ff;stroke-linecap:round;stroke-width:1.5;"/>
    </g>
    <g id="line2d_17"/>
    <g id="text_13">
     <!-- 2 Clustered -->
     <g style="fill:#262626;" transform="translate(163.05 111.153075)scale(0.264 -0.264)">
      <defs>
       <path d="M 4122 4306 
L 4122 3641 
Q 3803 3938 3442 4084 
Q 3081 4231 2675 4231 
Q 1875 4231 1450 3742 
Q 1025 3253 1025 2328 
Q 1025 1406 1450 917 
Q 1875 428 2675 428 
Q 3081 428 3442 575 
Q 3803 722 4122 1019 
L 4122 359 
Q 3791 134 3420 21 
Q 3050 -91 2638 -91 
Q 1578 -91 968 557 
Q 359 1206 359 2328 
Q 359 3453 968 4101 
Q 1578 4750 2638 4750 
Q 3056 4750 3426 4639 
Q 3797 4528 4122 4306 
z
" id="DejaVuSans-43" transform="scale(0.015625)"/>
      </defs>
      <use xlink:href="#DejaVuSans-32"/>
      <use x="63.623047" xlink:href="#DejaVuSans-20"/>
      <use x="95.410156" xlink:href="#DejaVuSans-43"/>
      <use x="165.234375" xlink:href="#DejaVuSans-6c"/>
      <use x="193.017578" xlink:href="#DejaVuSans-75"/>
      <use x="256.396484" xlink:href="#DejaVuSans-73"/>
      <use x="308.496094" xlink:href="#DejaVuSans-74"/>
      <use x="347.705078" xlink:href="#DejaVuSans-65"/>
      <use x="409.228516" xlink:href="#DejaVuSans-72"/>
      <use x="448.091797" xlink:href="#DejaVuSans-65"/>
      <use x="509.615234" xlink:href="#DejaVuSans-64"/>
     </g>
    </g>
    <g id="line2d_18">
     <path d="M 89.13 140.663325 
L 141.93 140.663325 
" style="fill:none;stroke:#0000ff;stroke-dasharray:5.55,2.4;stroke-dashoffset:0;stroke-width:1.5;"/>
    </g>
    <g id="line2d_19"/>
    <g id="text_14">
     <!-- 3 Clustered -->
     <g style="fill:#262626;" transform="translate(163.05 149.903325)scale(0.264 -0.264)">
      <defs>
       <path d="M 2597 2516 
Q 3050 2419 3304 2112 
Q 3559 1806 3559 1356 
Q 3559 666 3084 287 
Q 2609 -91 1734 -91 
Q 1441 -91 1130 -33 
Q 819 25 488 141 
L 488 750 
Q 750 597 1062 519 
Q 1375 441 1716 441 
Q 2309 441 2620 675 
Q 2931 909 2931 1356 
Q 2931 1769 2642 2001 
Q 2353 2234 1838 2234 
L 1294 2234 
L 1294 2753 
L 1863 2753 
Q 2328 2753 2575 2939 
Q 2822 3125 2822 3475 
Q 2822 3834 2567 4026 
Q 2313 4219 1838 4219 
Q 1578 4219 1281 4162 
Q 984 4106 628 3988 
L 628 4550 
Q 988 4650 1302 4700 
Q 1616 4750 1894 4750 
Q 2613 4750 3031 4423 
Q 3450 4097 3450 3541 
Q 3450 3153 3228 2886 
Q 3006 2619 2597 2516 
z
" id="DejaVuSans-33" transform="scale(0.015625)"/>
      </defs>
      <use xlink:href="#DejaVuSans-33"/>
      <use x="63.623047" xlink:href="#DejaVuSans-20"/>
      <use x="95.410156" xlink:href="#DejaVuSans-43"/>
      <use x="165.234375" xlink:href="#DejaVuSans-6c"/>
      <use x="193.017578" xlink:href="#DejaVuSans-75"/>
      <use x="256.396484" xlink:href="#DejaVuSans-73"/>
      <use x="308.496094" xlink:href="#DejaVuSans-74"/>
      <use x="347.705078" xlink:href="#DejaVuSans-65"/>
      <use x="409.228516" xlink:href="#DejaVuSans-72"/>
      <use x="448.091797" xlink:href="#DejaVuSans-65"/>
      <use x="509.615234" xlink:href="#DejaVuSans-64"/>
     </g>
    </g>
    <g id="line2d_20">
     <path d="M 89.13 179.413575 
L 141.93 179.413575 
" style="fill:none;stroke:#0000ff;stroke-dasharray:9.6,2.4,1.5,2.4;stroke-dashoffset:0;stroke-width:1.5;"/>
    </g>
    <g id="line2d_21"/>
    <g id="text_15">
     <!-- 4 Clustered -->
     <g style="fill:#262626;" transform="translate(163.05 188.653575)scale(0.264 -0.264)">
      <use xlink:href="#DejaVuSans-34"/>
      <use x="63.623047" xlink:href="#DejaVuSans-20"/>
      <use x="95.410156" xlink:href="#DejaVuSans-43"/>
      <use x="165.234375" xlink:href="#DejaVuSans-6c"/>
      <use x="193.017578" xlink:href="#DejaVuSans-75"/>
      <use x="256.396484" xlink:href="#DejaVuSans-73"/>
      <use x="308.496094" xlink:href="#DejaVuSans-74"/>
      <use x="347.705078" xlink:href="#DejaVuSans-65"/>
      <use x="409.228516" xlink:href="#DejaVuSans-72"/>
      <use x="448.091797" xlink:href="#DejaVuSans-65"/>
      <use x="509.615234" xlink:href="#DejaVuSans-64"/>
     </g>
    </g>
    <g id="line2d_22">
     <path d="M 89.13 218.163825 
L 141.93 218.163825 
" style="fill:none;stroke:#00ffff;stroke-linecap:round;stroke-width:1.5;"/>
    </g>
    <g id="line2d_23"/>
    <g id="text_16">
     <!-- 2 Random -->
     <g style="fill:#262626;" transform="translate(163.05 227.403825)scale(0.264 -0.264)">
      <defs>
       <path d="M 2841 2188 
Q 3044 2119 3236 1894 
Q 3428 1669 3622 1275 
L 4263 0 
L 3584 0 
L 2988 1197 
Q 2756 1666 2539 1819 
Q 2322 1972 1947 1972 
L 1259 1972 
L 1259 0 
L 628 0 
L 628 4666 
L 2053 4666 
Q 2853 4666 3247 4331 
Q 3641 3997 3641 3322 
Q 3641 2881 3436 2590 
Q 3231 2300 2841 2188 
z
M 1259 4147 
L 1259 2491 
L 2053 2491 
Q 2509 2491 2742 2702 
Q 2975 2913 2975 3322 
Q 2975 3731 2742 3939 
Q 2509 4147 2053 4147 
L 1259 4147 
z
" id="DejaVuSans-52" transform="scale(0.015625)"/>
      </defs>
      <use xlink:href="#DejaVuSans-32"/>
      <use x="63.623047" xlink:href="#DejaVuSans-20"/>
      <use x="95.410156" xlink:href="#DejaVuSans-52"/>
      <use x="162.642578" xlink:href="#DejaVuSans-61"/>
      <use x="223.921875" xlink:href="#DejaVuSans-6e"/>
      <use x="287.300781" xlink:href="#DejaVuSans-64"/>
      <use x="350.777344" xlink:href="#DejaVuSans-6f"/>
      <use x="411.958984" xlink:href="#DejaVuSans-6d"/>
     </g>
    </g>
    <g id="line2d_24">
     <path d="M 89.13 256.914075 
L 141.93 256.914075 
" style="fill:none;stroke:#00ffff;stroke-dasharray:5.55,2.4;stroke-dashoffset:0;stroke-width:1.5;"/>
    </g>
    <g id="line2d_25"/>
    <g id="text_17">
     <!-- 3 Random -->
     <g style="fill:#262626;" transform="translate(163.05 266.154075)scale(0.264 -0.264)">
      <use xlink:href="#DejaVuSans-33"/>
      <use x="63.623047" xlink:href="#DejaVuSans-20"/>
      <use x="95.410156" xlink:href="#DejaVuSans-52"/>
      <use x="162.642578" xlink:href="#DejaVuSans-61"/>
      <use x="223.921875" xlink:href="#DejaVuSans-6e"/>
      <use x="287.300781" xlink:href="#DejaVuSans-64"/>
      <use x="350.777344" xlink:href="#DejaVuSans-6f"/>
      <use x="411.958984" xlink:href="#DejaVuSans-6d"/>
     </g>
    </g>
    <g id="line2d_26">
     <path d="M 89.13 295.664325 
L 141.93 295.664325 
" style="fill:none;stroke:#00ffff;stroke-dasharray:9.6,2.4,1.5,2.4;stroke-dashoffset:0;stroke-width:1.5;"/>
    </g>
    <g id="line2d_27"/>
    <g id="text_18">
     <!-- 4 Random -->
     <g style="fill:#262626;" transform="translate(163.05 304.904325)scale(0.264 -0.264)">
      <use xlink:href="#DejaVuSans-34"/>
      <use x="63.623047" xlink:href="#DejaVuSans-20"/>
      <use x="95.410156" xlink:href="#DejaVuSans-52"/>
      <use x="162.642578" xlink:href="#DejaVuSans-61"/>
      <use x="223.921875" xlink:href="#DejaVuSans-6e"/>
      <use x="287.300781" xlink:href="#DejaVuSans-64"/>
      <use x="350.777344" xlink:href="#DejaVuSans-6f"/>
      <use x="411.958984" xlink:href="#DejaVuSans-6d"/>
     </g>
    </g>
   </g>
  </g>
 </g>
 <defs>
  <clipPath id="pd1639098d0">
   <rect height="277.2" width="837" x="65.37" y="67.3332"/>
  </clipPath>
 </defs>
</svg>
