<?xml version="1.0" encoding="utf-8" standalone="no"?>
<!DOCTYPE svg PUBLIC "-//W3C//DTD SVG 1.1//EN"
  "http://www.w3.org/Graphics/SVG/1.1/DTD/svg11.dtd">
<svg height="360pt" version="1.1" viewBox="0 0 1080 360" width="1080pt" xmlns="http://www.w3.org/2000/svg" xmlns:xlink="http://www.w3.org/1999/xlink">
 <metadata>
  <rdf:RDF xmlns:cc="http://creativecommons.org/ns#" xmlns:dc="http://purl.org/dc/elements/1.1/" xmlns:rdf="http://www.w3.org/1999/02/22-rdf-syntax-ns#">
   <cc:Work>
    <dc:type rdf:resource="http://purl.org/dc/dcmitype/StillImage"/>
    <dc:date>2021-12-06T09:46:32.041606</dc:date>
    <dc:format>image/svg+xml</dc:format>
    <dc:creator>
     <cc:Agent>
      <dc:title>Matplotlib v3.4.3, https://matplotlib.org/</dc:title>
     </cc:Agent>
    </dc:creator>
   </cc:Work>
  </rdf:RDF>
 </metadata>
 <defs>
  <style type="text/css">*{stroke-linecap:butt;stroke-linejoin:round;}</style>
 </defs>
 <g id="figure_1">
  <g id="patch_1">
   <path d="M 0 360 
L 1080 360 
L 1080 0 
L 0 0 
z
" style="fill:#ffffff;"/>
  </g>
  <g id="axes_1">
   <g id="patch_2">
    <path d="M 135 320.4 
L 972 320.4 
L 972 43.2 
L 135 43.2 
z
" style="fill:#ffffff;"/>
   </g>
   <g id="matplotlib.axis_1">
    <g id="xtick_1">
     <g id="line2d_1">
      <defs>
       <path d="M 0 0 
L 0 3.5 
" id="mb9f5ccdcb1" style="stroke:#000000;stroke-width:0.8;"/>
      </defs>
      <g>
       <use style="stroke:#000000;stroke-width:0.8;" x="251.34879" xlink:href="#mb9f5ccdcb1" y="320.4"/>
      </g>
     </g>
     <g id="text_1">
      <!-- 0.0 -->
      <g transform="translate(243.397228 334.998438)scale(0.1 -0.1)">
       <defs>
        <path d="M 2034 4250 
Q 1547 4250 1301 3770 
Q 1056 3291 1056 2328 
Q 1056 1369 1301 889 
Q 1547 409 2034 409 
Q 2525 409 2770 889 
Q 3016 1369 3016 2328 
Q 3016 3291 2770 3770 
Q 2525 4250 2034 4250 
z
M 2034 4750 
Q 2819 4750 3233 4129 
Q 3647 3509 3647 2328 
Q 3647 1150 3233 529 
Q 2819 -91 2034 -91 
Q 1250 -91 836 529 
Q 422 1150 422 2328 
Q 422 3509 836 4129 
Q 1250 4750 2034 4750 
z
" id="DejaVuSans-30" transform="scale(0.015625)"/>
        <path d="M 684 794 
L 1344 794 
L 1344 0 
L 684 0 
L 684 794 
z
" id="DejaVuSans-2e" transform="scale(0.015625)"/>
       </defs>
       <use xlink:href="#DejaVuSans-30"/>
       <use x="63.623047" xlink:href="#DejaVuSans-2e"/>
       <use x="95.410156" xlink:href="#DejaVuSans-30"/>
      </g>
     </g>
    </g>
    <g id="xtick_2">
     <g id="line2d_2">
      <g>
       <use style="stroke:#000000;stroke-width:0.8;" x="377.165505" xlink:href="#mb9f5ccdcb1" y="320.4"/>
      </g>
     </g>
     <g id="text_2">
      <!-- 0.2 -->
      <g transform="translate(369.213943 334.998438)scale(0.1 -0.1)">
       <defs>
        <path d="M 1228 531 
L 3431 531 
L 3431 0 
L 469 0 
L 469 531 
Q 828 903 1448 1529 
Q 2069 2156 2228 2338 
Q 2531 2678 2651 2914 
Q 2772 3150 2772 3378 
Q 2772 3750 2511 3984 
Q 2250 4219 1831 4219 
Q 1534 4219 1204 4116 
Q 875 4013 500 3803 
L 500 4441 
Q 881 4594 1212 4672 
Q 1544 4750 1819 4750 
Q 2544 4750 2975 4387 
Q 3406 4025 3406 3419 
Q 3406 3131 3298 2873 
Q 3191 2616 2906 2266 
Q 2828 2175 2409 1742 
Q 1991 1309 1228 531 
z
" id="DejaVuSans-32" transform="scale(0.015625)"/>
       </defs>
       <use xlink:href="#DejaVuSans-30"/>
       <use x="63.623047" xlink:href="#DejaVuSans-2e"/>
       <use x="95.410156" xlink:href="#DejaVuSans-32"/>
      </g>
     </g>
    </g>
    <g id="xtick_3">
     <g id="line2d_3">
      <g>
       <use style="stroke:#000000;stroke-width:0.8;" x="502.98222" xlink:href="#mb9f5ccdcb1" y="320.4"/>
      </g>
     </g>
     <g id="text_3">
      <!-- 0.4 -->
      <g transform="translate(495.030657 334.998438)scale(0.1 -0.1)">
       <defs>
        <path d="M 2419 4116 
L 825 1625 
L 2419 1625 
L 2419 4116 
z
M 2253 4666 
L 3047 4666 
L 3047 1625 
L 3713 1625 
L 3713 1100 
L 3047 1100 
L 3047 0 
L 2419 0 
L 2419 1100 
L 313 1100 
L 313 1709 
L 2253 4666 
z
" id="DejaVuSans-34" transform="scale(0.015625)"/>
       </defs>
       <use xlink:href="#DejaVuSans-30"/>
       <use x="63.623047" xlink:href="#DejaVuSans-2e"/>
       <use x="95.410156" xlink:href="#DejaVuSans-34"/>
      </g>
     </g>
    </g>
    <g id="xtick_4">
     <g id="line2d_4">
      <g>
       <use style="stroke:#000000;stroke-width:0.8;" x="628.798935" xlink:href="#mb9f5ccdcb1" y="320.4"/>
      </g>
     </g>
     <g id="text_4">
      <!-- 0.6 -->
      <g transform="translate(620.847372 334.998438)scale(0.1 -0.1)">
       <defs>
        <path d="M 2113 2584 
Q 1688 2584 1439 2293 
Q 1191 2003 1191 1497 
Q 1191 994 1439 701 
Q 1688 409 2113 409 
Q 2538 409 2786 701 
Q 3034 994 3034 1497 
Q 3034 2003 2786 2293 
Q 2538 2584 2113 2584 
z
M 3366 4563 
L 3366 3988 
Q 3128 4100 2886 4159 
Q 2644 4219 2406 4219 
Q 1781 4219 1451 3797 
Q 1122 3375 1075 2522 
Q 1259 2794 1537 2939 
Q 1816 3084 2150 3084 
Q 2853 3084 3261 2657 
Q 3669 2231 3669 1497 
Q 3669 778 3244 343 
Q 2819 -91 2113 -91 
Q 1303 -91 875 529 
Q 447 1150 447 2328 
Q 447 3434 972 4092 
Q 1497 4750 2381 4750 
Q 2619 4750 2861 4703 
Q 3103 4656 3366 4563 
z
" id="DejaVuSans-36" transform="scale(0.015625)"/>
       </defs>
       <use xlink:href="#DejaVuSans-30"/>
       <use x="63.623047" xlink:href="#DejaVuSans-2e"/>
       <use x="95.410156" xlink:href="#DejaVuSans-36"/>
      </g>
     </g>
    </g>
    <g id="xtick_5">
     <g id="line2d_5">
      <g>
       <use style="stroke:#000000;stroke-width:0.8;" x="754.615649" xlink:href="#mb9f5ccdcb1" y="320.4"/>
      </g>
     </g>
     <g id="text_5">
      <!-- 0.8 -->
      <g transform="translate(746.664087 334.998438)scale(0.1 -0.1)">
       <defs>
        <path d="M 2034 2216 
Q 1584 2216 1326 1975 
Q 1069 1734 1069 1313 
Q 1069 891 1326 650 
Q 1584 409 2034 409 
Q 2484 409 2743 651 
Q 3003 894 3003 1313 
Q 3003 1734 2745 1975 
Q 2488 2216 2034 2216 
z
M 1403 2484 
Q 997 2584 770 2862 
Q 544 3141 544 3541 
Q 544 4100 942 4425 
Q 1341 4750 2034 4750 
Q 2731 4750 3128 4425 
Q 3525 4100 3525 3541 
Q 3525 3141 3298 2862 
Q 3072 2584 2669 2484 
Q 3125 2378 3379 2068 
Q 3634 1759 3634 1313 
Q 3634 634 3220 271 
Q 2806 -91 2034 -91 
Q 1263 -91 848 271 
Q 434 634 434 1313 
Q 434 1759 690 2068 
Q 947 2378 1403 2484 
z
M 1172 3481 
Q 1172 3119 1398 2916 
Q 1625 2713 2034 2713 
Q 2441 2713 2670 2916 
Q 2900 3119 2900 3481 
Q 2900 3844 2670 4047 
Q 2441 4250 2034 4250 
Q 1625 4250 1398 4047 
Q 1172 3844 1172 3481 
z
" id="DejaVuSans-38" transform="scale(0.015625)"/>
       </defs>
       <use xlink:href="#DejaVuSans-30"/>
       <use x="63.623047" xlink:href="#DejaVuSans-2e"/>
       <use x="95.410156" xlink:href="#DejaVuSans-38"/>
      </g>
     </g>
    </g>
    <g id="xtick_6">
     <g id="line2d_6">
      <g>
       <use style="stroke:#000000;stroke-width:0.8;" x="880.432364" xlink:href="#mb9f5ccdcb1" y="320.4"/>
      </g>
     </g>
     <g id="text_6">
      <!-- 1.0 -->
      <g transform="translate(872.480802 334.998438)scale(0.1 -0.1)">
       <defs>
        <path d="M 794 531 
L 1825 531 
L 1825 4091 
L 703 3866 
L 703 4441 
L 1819 4666 
L 2450 4666 
L 2450 531 
L 3481 531 
L 3481 0 
L 794 0 
L 794 531 
z
" id="DejaVuSans-31" transform="scale(0.015625)"/>
       </defs>
       <use xlink:href="#DejaVuSans-31"/>
       <use x="63.623047" xlink:href="#DejaVuSans-2e"/>
       <use x="95.410156" xlink:href="#DejaVuSans-30"/>
      </g>
     </g>
    </g>
    <g id="text_7">
     <!-- Pearson's correlation -->
     <g transform="translate(501.242969 348.676562)scale(0.1 -0.1)">
      <defs>
       <path d="M 1259 4147 
L 1259 2394 
L 2053 2394 
Q 2494 2394 2734 2622 
Q 2975 2850 2975 3272 
Q 2975 3691 2734 3919 
Q 2494 4147 2053 4147 
L 1259 4147 
z
M 628 4666 
L 2053 4666 
Q 2838 4666 3239 4311 
Q 3641 3956 3641 3272 
Q 3641 2581 3239 2228 
Q 2838 1875 2053 1875 
L 1259 1875 
L 1259 0 
L 628 0 
L 628 4666 
z
" id="DejaVuSans-50" transform="scale(0.015625)"/>
       <path d="M 3597 1894 
L 3597 1613 
L 953 1613 
Q 991 1019 1311 708 
Q 1631 397 2203 397 
Q 2534 397 2845 478 
Q 3156 559 3463 722 
L 3463 178 
Q 3153 47 2828 -22 
Q 2503 -91 2169 -91 
Q 1331 -91 842 396 
Q 353 884 353 1716 
Q 353 2575 817 3079 
Q 1281 3584 2069 3584 
Q 2775 3584 3186 3129 
Q 3597 2675 3597 1894 
z
M 3022 2063 
Q 3016 2534 2758 2815 
Q 2500 3097 2075 3097 
Q 1594 3097 1305 2825 
Q 1016 2553 972 2059 
L 3022 2063 
z
" id="DejaVuSans-65" transform="scale(0.015625)"/>
       <path d="M 2194 1759 
Q 1497 1759 1228 1600 
Q 959 1441 959 1056 
Q 959 750 1161 570 
Q 1363 391 1709 391 
Q 2188 391 2477 730 
Q 2766 1069 2766 1631 
L 2766 1759 
L 2194 1759 
z
M 3341 1997 
L 3341 0 
L 2766 0 
L 2766 531 
Q 2569 213 2275 61 
Q 1981 -91 1556 -91 
Q 1019 -91 701 211 
Q 384 513 384 1019 
Q 384 1609 779 1909 
Q 1175 2209 1959 2209 
L 2766 2209 
L 2766 2266 
Q 2766 2663 2505 2880 
Q 2244 3097 1772 3097 
Q 1472 3097 1187 3025 
Q 903 2953 641 2809 
L 641 3341 
Q 956 3463 1253 3523 
Q 1550 3584 1831 3584 
Q 2591 3584 2966 3190 
Q 3341 2797 3341 1997 
z
" id="DejaVuSans-61" transform="scale(0.015625)"/>
       <path d="M 2631 2963 
Q 2534 3019 2420 3045 
Q 2306 3072 2169 3072 
Q 1681 3072 1420 2755 
Q 1159 2438 1159 1844 
L 1159 0 
L 581 0 
L 581 3500 
L 1159 3500 
L 1159 2956 
Q 1341 3275 1631 3429 
Q 1922 3584 2338 3584 
Q 2397 3584 2469 3576 
Q 2541 3569 2628 3553 
L 2631 2963 
z
" id="DejaVuSans-72" transform="scale(0.015625)"/>
       <path d="M 2834 3397 
L 2834 2853 
Q 2591 2978 2328 3040 
Q 2066 3103 1784 3103 
Q 1356 3103 1142 2972 
Q 928 2841 928 2578 
Q 928 2378 1081 2264 
Q 1234 2150 1697 2047 
L 1894 2003 
Q 2506 1872 2764 1633 
Q 3022 1394 3022 966 
Q 3022 478 2636 193 
Q 2250 -91 1575 -91 
Q 1294 -91 989 -36 
Q 684 19 347 128 
L 347 722 
Q 666 556 975 473 
Q 1284 391 1588 391 
Q 1994 391 2212 530 
Q 2431 669 2431 922 
Q 2431 1156 2273 1281 
Q 2116 1406 1581 1522 
L 1381 1569 
Q 847 1681 609 1914 
Q 372 2147 372 2553 
Q 372 3047 722 3315 
Q 1072 3584 1716 3584 
Q 2034 3584 2315 3537 
Q 2597 3491 2834 3397 
z
" id="DejaVuSans-73" transform="scale(0.015625)"/>
       <path d="M 1959 3097 
Q 1497 3097 1228 2736 
Q 959 2375 959 1747 
Q 959 1119 1226 758 
Q 1494 397 1959 397 
Q 2419 397 2687 759 
Q 2956 1122 2956 1747 
Q 2956 2369 2687 2733 
Q 2419 3097 1959 3097 
z
M 1959 3584 
Q 2709 3584 3137 3096 
Q 3566 2609 3566 1747 
Q 3566 888 3137 398 
Q 2709 -91 1959 -91 
Q 1206 -91 779 398 
Q 353 888 353 1747 
Q 353 2609 779 3096 
Q 1206 3584 1959 3584 
z
" id="DejaVuSans-6f" transform="scale(0.015625)"/>
       <path d="M 3513 2113 
L 3513 0 
L 2938 0 
L 2938 2094 
Q 2938 2591 2744 2837 
Q 2550 3084 2163 3084 
Q 1697 3084 1428 2787 
Q 1159 2491 1159 1978 
L 1159 0 
L 581 0 
L 581 3500 
L 1159 3500 
L 1159 2956 
Q 1366 3272 1645 3428 
Q 1925 3584 2291 3584 
Q 2894 3584 3203 3211 
Q 3513 2838 3513 2113 
z
" id="DejaVuSans-6e" transform="scale(0.015625)"/>
       <path d="M 1147 4666 
L 1147 2931 
L 616 2931 
L 616 4666 
L 1147 4666 
z
" id="DejaVuSans-27" transform="scale(0.015625)"/>
       <path id="DejaVuSans-20" transform="scale(0.015625)"/>
       <path d="M 3122 3366 
L 3122 2828 
Q 2878 2963 2633 3030 
Q 2388 3097 2138 3097 
Q 1578 3097 1268 2742 
Q 959 2388 959 1747 
Q 959 1106 1268 751 
Q 1578 397 2138 397 
Q 2388 397 2633 464 
Q 2878 531 3122 666 
L 3122 134 
Q 2881 22 2623 -34 
Q 2366 -91 2075 -91 
Q 1284 -91 818 406 
Q 353 903 353 1747 
Q 353 2603 823 3093 
Q 1294 3584 2113 3584 
Q 2378 3584 2631 3529 
Q 2884 3475 3122 3366 
z
" id="DejaVuSans-63" transform="scale(0.015625)"/>
       <path d="M 603 4863 
L 1178 4863 
L 1178 0 
L 603 0 
L 603 4863 
z
" id="DejaVuSans-6c" transform="scale(0.015625)"/>
       <path d="M 1172 4494 
L 1172 3500 
L 2356 3500 
L 2356 3053 
L 1172 3053 
L 1172 1153 
Q 1172 725 1289 603 
Q 1406 481 1766 481 
L 2356 481 
L 2356 0 
L 1766 0 
Q 1100 0 847 248 
Q 594 497 594 1153 
L 594 3053 
L 172 3053 
L 172 3500 
L 594 3500 
L 594 4494 
L 1172 4494 
z
" id="DejaVuSans-74" transform="scale(0.015625)"/>
       <path d="M 603 3500 
L 1178 3500 
L 1178 0 
L 603 0 
L 603 3500 
z
M 603 4863 
L 1178 4863 
L 1178 4134 
L 603 4134 
L 603 4863 
z
" id="DejaVuSans-69" transform="scale(0.015625)"/>
      </defs>
      <use xlink:href="#DejaVuSans-50"/>
      <use x="56.677734" xlink:href="#DejaVuSans-65"/>
      <use x="118.201172" xlink:href="#DejaVuSans-61"/>
      <use x="179.480469" xlink:href="#DejaVuSans-72"/>
      <use x="220.59375" xlink:href="#DejaVuSans-73"/>
      <use x="272.693359" xlink:href="#DejaVuSans-6f"/>
      <use x="333.875" xlink:href="#DejaVuSans-6e"/>
      <use x="397.253906" xlink:href="#DejaVuSans-27"/>
      <use x="424.744141" xlink:href="#DejaVuSans-73"/>
      <use x="476.84375" xlink:href="#DejaVuSans-20"/>
      <use x="508.630859" xlink:href="#DejaVuSans-63"/>
      <use x="563.611328" xlink:href="#DejaVuSans-6f"/>
      <use x="624.792969" xlink:href="#DejaVuSans-72"/>
      <use x="664.15625" xlink:href="#DejaVuSans-72"/>
      <use x="703.019531" xlink:href="#DejaVuSans-65"/>
      <use x="764.542969" xlink:href="#DejaVuSans-6c"/>
      <use x="792.326172" xlink:href="#DejaVuSans-61"/>
      <use x="853.605469" xlink:href="#DejaVuSans-74"/>
      <use x="892.814453" xlink:href="#DejaVuSans-69"/>
      <use x="920.597656" xlink:href="#DejaVuSans-6f"/>
      <use x="981.779297" xlink:href="#DejaVuSans-6e"/>
     </g>
    </g>
   </g>
   <g id="matplotlib.axis_2">
    <g id="ytick_1">
     <g id="line2d_7">
      <defs>
       <path d="M 0 0 
L -3.5 0 
" id="m0a8ae96815" style="stroke:#000000;stroke-width:0.8;"/>
      </defs>
      <g>
       <use style="stroke:#000000;stroke-width:0.8;" x="135" xlink:href="#m0a8ae96815" y="320.4"/>
      </g>
     </g>
     <g id="text_8">
      <!-- 0 -->
      <g transform="translate(121.6375 324.199219)scale(0.1 -0.1)">
       <use xlink:href="#DejaVuSans-30"/>
      </g>
     </g>
    </g>
    <g id="ytick_2">
     <g id="line2d_8">
      <g>
       <use style="stroke:#000000;stroke-width:0.8;" x="135" xlink:href="#m0a8ae96815" y="269.694442"/>
      </g>
     </g>
     <g id="text_9">
      <!-- 1 -->
      <g transform="translate(121.6375 273.49366)scale(0.1 -0.1)">
       <use xlink:href="#DejaVuSans-31"/>
      </g>
     </g>
    </g>
    <g id="ytick_3">
     <g id="line2d_9">
      <g>
       <use style="stroke:#000000;stroke-width:0.8;" x="135" xlink:href="#m0a8ae96815" y="218.988883"/>
      </g>
     </g>
     <g id="text_10">
      <!-- 2 -->
      <g transform="translate(121.6375 222.788102)scale(0.1 -0.1)">
       <use xlink:href="#DejaVuSans-32"/>
      </g>
     </g>
    </g>
    <g id="ytick_4">
     <g id="line2d_10">
      <g>
       <use style="stroke:#000000;stroke-width:0.8;" x="135" xlink:href="#m0a8ae96815" y="168.283325"/>
      </g>
     </g>
     <g id="text_11">
      <!-- 3 -->
      <g transform="translate(121.6375 172.082544)scale(0.1 -0.1)">
       <defs>
        <path d="M 2597 2516 
Q 3050 2419 3304 2112 
Q 3559 1806 3559 1356 
Q 3559 666 3084 287 
Q 2609 -91 1734 -91 
Q 1441 -91 1130 -33 
Q 819 25 488 141 
L 488 750 
Q 750 597 1062 519 
Q 1375 441 1716 441 
Q 2309 441 2620 675 
Q 2931 909 2931 1356 
Q 2931 1769 2642 2001 
Q 2353 2234 1838 2234 
L 1294 2234 
L 1294 2753 
L 1863 2753 
Q 2328 2753 2575 2939 
Q 2822 3125 2822 3475 
Q 2822 3834 2567 4026 
Q 2313 4219 1838 4219 
Q 1578 4219 1281 4162 
Q 984 4106 628 3988 
L 628 4550 
Q 988 4650 1302 4700 
Q 1616 4750 1894 4750 
Q 2613 4750 3031 4423 
Q 3450 4097 3450 3541 
Q 3450 3153 3228 2886 
Q 3006 2619 2597 2516 
z
" id="DejaVuSans-33" transform="scale(0.015625)"/>
       </defs>
       <use xlink:href="#DejaVuSans-33"/>
      </g>
     </g>
    </g>
    <g id="ytick_5">
     <g id="line2d_11">
      <g>
       <use style="stroke:#000000;stroke-width:0.8;" x="135" xlink:href="#m0a8ae96815" y="117.577767"/>
      </g>
     </g>
     <g id="text_12">
      <!-- 4 -->
      <g transform="translate(121.6375 121.376985)scale(0.1 -0.1)">
       <use xlink:href="#DejaVuSans-34"/>
      </g>
     </g>
    </g>
    <g id="ytick_6">
     <g id="line2d_12">
      <g>
       <use style="stroke:#000000;stroke-width:0.8;" x="135" xlink:href="#m0a8ae96815" y="66.872208"/>
      </g>
     </g>
     <g id="text_13">
      <!-- 5 -->
      <g transform="translate(121.6375 70.671427)scale(0.1 -0.1)">
       <defs>
        <path d="M 691 4666 
L 3169 4666 
L 3169 4134 
L 1269 4134 
L 1269 2991 
Q 1406 3038 1543 3061 
Q 1681 3084 1819 3084 
Q 2600 3084 3056 2656 
Q 3513 2228 3513 1497 
Q 3513 744 3044 326 
Q 2575 -91 1722 -91 
Q 1428 -91 1123 -41 
Q 819 9 494 109 
L 494 744 
Q 775 591 1075 516 
Q 1375 441 1709 441 
Q 2250 441 2565 725 
Q 2881 1009 2881 1497 
Q 2881 1984 2565 2268 
Q 2250 2553 1709 2553 
Q 1456 2553 1204 2497 
Q 953 2441 691 2322 
L 691 4666 
z
" id="DejaVuSans-35" transform="scale(0.015625)"/>
       </defs>
       <use xlink:href="#DejaVuSans-35"/>
      </g>
     </g>
    </g>
    <g id="text_14">
     <!-- Density -->
     <g transform="translate(115.557812 200.808594)rotate(-90)scale(0.1 -0.1)">
      <defs>
       <path d="M 1259 4147 
L 1259 519 
L 2022 519 
Q 2988 519 3436 956 
Q 3884 1394 3884 2338 
Q 3884 3275 3436 3711 
Q 2988 4147 2022 4147 
L 1259 4147 
z
M 628 4666 
L 1925 4666 
Q 3281 4666 3915 4102 
Q 4550 3538 4550 2338 
Q 4550 1131 3912 565 
Q 3275 0 1925 0 
L 628 0 
L 628 4666 
z
" id="DejaVuSans-44" transform="scale(0.015625)"/>
       <path d="M 2059 -325 
Q 1816 -950 1584 -1140 
Q 1353 -1331 966 -1331 
L 506 -1331 
L 506 -850 
L 844 -850 
Q 1081 -850 1212 -737 
Q 1344 -625 1503 -206 
L 1606 56 
L 191 3500 
L 800 3500 
L 1894 763 
L 2988 3500 
L 3597 3500 
L 2059 -325 
z
" id="DejaVuSans-79" transform="scale(0.015625)"/>
      </defs>
      <use xlink:href="#DejaVuSans-44"/>
      <use x="77.001953" xlink:href="#DejaVuSans-65"/>
      <use x="138.525391" xlink:href="#DejaVuSans-6e"/>
      <use x="201.904297" xlink:href="#DejaVuSans-73"/>
      <use x="254.003906" xlink:href="#DejaVuSans-69"/>
      <use x="281.787109" xlink:href="#DejaVuSans-74"/>
      <use x="320.996094" xlink:href="#DejaVuSans-79"/>
     </g>
    </g>
   </g>
   <g id="line2d_13">
    <path clip-path="url(#p463628e0c3)" d="M 228.364212 320.373148 
L 249.638293 320.231586 
L 263.821013 319.956362 
L 278.003733 319.439738 
L 292.186453 318.667244 
L 313.460534 317.226551 
L 366.645735 313.50205 
L 377.282775 313.021679 
L 387.919815 312.729734 
L 402.102536 312.565649 
L 416.285256 312.611762 
L 426.922296 312.849925 
L 437.559336 313.334304 
L 451.742056 314.308129 
L 465.924777 315.300473 
L 476.561817 315.775914 
L 487.198857 315.930228 
L 501.381577 315.814559 
L 515.564298 315.782144 
L 526.201338 316.056418 
L 536.838378 316.623772 
L 568.749499 318.682116 
L 575.840859 318.822496 
L 582.932219 318.705332 
L 590.023579 318.254573 
L 593.569259 317.877154 
L 597.114939 317.382496 
L 600.660619 316.757946 
L 604.206299 315.990583 
L 607.751979 315.067609 
L 611.297659 313.976859 
L 614.843339 312.70739 
L 618.38902 311.250119 
L 621.9347 309.598474 
L 625.48038 307.749007 
L 629.02606 305.70191 
L 632.57174 303.461388 
L 636.11742 301.035837 
L 639.6631 298.437794 
L 646.75446 292.79302 
L 653.84582 286.692602 
L 664.48286 277.098316 
L 678.665581 264.271851 
L 696.393981 248.436887 
L 703.485341 241.671102 
L 707.031021 238.034428 
L 710.576701 234.153495 
L 714.122381 229.964078 
L 717.668061 225.396983 
L 721.213741 220.379963 
L 724.759422 214.840453 
L 728.305102 208.709191 
L 731.850782 201.924746 
L 735.396462 194.43884 
L 738.942142 186.222264 
L 742.487822 177.27105 
L 746.033502 167.612485 
L 749.579182 157.310434 
L 753.124862 146.46941 
L 760.216222 123.803066 
L 767.307582 101.288378 
L 770.853262 90.763759 
L 774.398942 81.131033 
L 777.944623 72.698574 
L 781.490303 65.762368 
L 785.035983 60.591176 
L 788.581663 57.412271 
L 792.127343 56.398777 
L 795.673023 57.659544 
L 799.218703 61.232332 
L 802.764383 67.08082 
L 806.310063 75.09569 
L 809.855743 85.099684 
L 813.401423 96.856282 
L 816.947103 110.08132 
L 820.492783 124.45673 
L 827.584143 155.306228 
L 834.675504 186.743245 
L 838.221184 201.93611 
L 841.766864 216.452409 
L 845.312544 230.103214 
L 848.858224 242.747075 
L 852.403904 254.289423 
L 855.949584 264.679772 
L 859.495264 273.907198 
L 863.040944 281.994624 
L 866.586624 288.992414 
L 870.132304 294.971783 
L 873.677984 300.018405 
L 877.223664 304.226548 
L 880.769344 307.69397 
L 884.315025 310.517684 
L 887.860705 312.790662 
L 891.406385 314.599438 
L 894.952065 316.022537 
L 898.497745 317.129637 
L 902.043425 317.981309 
L 905.589105 318.629225 
L 909.134785 319.116695 
L 916.226145 319.746351 
L 923.317505 320.080508 
L 933.954545 320.299044 
L 933.954545 320.299044 
" style="fill:none;stroke:#0000ff;stroke-linecap:square;stroke-width:1.5;"/>
   </g>
   <g id="line2d_14">
    <path clip-path="url(#p463628e0c3)" d="M 235.090019 320.37033 
L 255.349875 320.207179 
L 268.856445 319.869226 
L 278.986373 319.392233 
L 289.116301 318.664243 
L 299.246228 317.678472 
L 316.129441 315.690488 
L 326.259369 314.585725 
L 333.012654 314.030861 
L 339.765939 313.696467 
L 346.519224 313.625384 
L 353.272509 313.83058 
L 360.025795 314.290226 
L 370.155722 315.328684 
L 387.038935 317.259897 
L 393.79222 317.841026 
L 400.545506 318.210781 
L 407.298791 318.333853 
L 414.052076 318.201508 
L 420.805361 317.831182 
L 427.558646 317.264795 
L 441.065216 315.810587 
L 451.195144 314.755504 
L 457.948429 314.209426 
L 464.701714 313.846352 
L 471.455 313.682993 
L 478.208285 313.706805 
L 488.338213 314.011077 
L 522.104638 315.442138 
L 532.234566 315.562199 
L 538.987851 315.482183 
L 545.741136 315.230107 
L 552.494421 314.759001 
L 559.247707 314.019641 
L 566.000992 312.969128 
L 572.754277 311.580224 
L 579.507562 309.849383 
L 586.260847 307.801819 
L 593.014132 305.492144 
L 603.14406 301.712336 
L 623.403916 294.010385 
L 636.910486 288.896562 
L 643.663771 286.033126 
L 647.040414 284.439385 
L 650.417056 282.701662 
L 653.793699 280.79401 
L 657.170341 278.692669 
L 660.546984 276.377006 
L 663.923626 273.830198 
L 667.300269 271.039604 
L 670.676912 267.996792 
L 674.053554 264.697229 
L 677.430197 261.139647 
L 680.806839 257.325155 
L 684.183482 253.256157 
L 687.560125 248.935177 
L 690.936767 244.363688 
L 694.31341 239.54104 
L 697.690052 234.463599 
L 701.066695 229.124187 
L 704.443337 223.511884 
L 707.81998 217.612295 
L 711.196623 211.40829 
L 714.573265 204.881278 
L 717.949908 198.012994 
L 721.32655 190.787804 
L 724.703193 183.195449 
L 728.079835 175.234155 
L 731.456478 166.913983 
L 738.209763 149.316732 
L 748.339691 121.518811 
L 755.092976 103.378402 
L 758.469619 94.908959 
L 761.846261 87.099809 
L 765.222904 80.159641 
L 768.599546 74.299372 
L 771.976189 69.723419 
L 775.352831 66.620309 
L 778.729474 65.153153 
L 782.106117 65.450609 
L 785.482759 67.59893 
L 788.859402 71.635719 
L 792.236044 77.545869 
L 795.612687 85.260083 
L 798.98933 94.656144 
L 802.365972 105.562947 
L 805.742615 117.767087 
L 809.119257 131.021595 
L 812.4959 145.05628 
L 829.379113 217.264231 
L 832.755755 230.396975 
L 836.132398 242.660866 
L 839.50904 253.946854 
L 842.885683 264.185814 
L 846.262326 273.346217 
L 849.638968 281.43028 
L 853.015611 288.469046 
L 856.392253 294.516809 
L 859.768896 299.645328 
L 863.145538 303.938167 
L 866.522181 307.485488 
L 869.898824 310.3795 
L 873.275466 312.710689 
L 876.652109 314.564907 
L 880.028751 316.021283 
L 883.405394 317.150912 
L 886.782036 318.016203 
L 890.158679 318.670788 
L 893.535322 319.159844 
L 900.288607 319.783694 
L 907.041892 320.107541 
L 907.041892 320.107541 
" style="fill:none;stroke:#0000ff;stroke-dasharray:5.55,2.4;stroke-dashoffset:0;stroke-width:1.5;"/>
   </g>
   <g id="line2d_15">
    <path clip-path="url(#p463628e0c3)" d="M 244.995864 320.368216 
L 264.296151 320.176435 
L 277.163008 319.795548 
L 290.029866 319.120479 
L 312.546867 317.761667 
L 318.980296 317.572324 
L 325.413724 317.548118 
L 331.847153 317.691529 
L 341.497296 318.150086 
L 357.580868 319.046849 
L 364.014297 319.252695 
L 370.447726 319.284388 
L 376.881155 319.100059 
L 383.314584 318.672438 
L 389.748013 317.994435 
L 396.181441 317.087525 
L 405.831585 315.434004 
L 415.481728 313.743033 
L 421.915157 312.803501 
L 428.348585 312.139583 
L 434.782014 311.80728 
L 441.215443 311.800455 
L 447.648872 312.054576 
L 460.515729 312.929329 
L 470.165873 313.53631 
L 483.03273 314.075318 
L 499.116302 314.727591 
L 511.98316 315.536274 
L 521.633303 316.123477 
L 528.066732 316.31951 
L 534.500161 316.216126 
L 537.716875 316.015251 
L 540.93359 315.697651 
L 544.150304 315.252544 
L 547.367018 314.671161 
L 550.583733 313.946859 
L 553.800447 313.075151 
L 557.017162 312.053676 
L 560.233876 310.882163 
L 563.45059 309.562413 
L 566.667305 308.098352 
L 569.884019 306.496151 
L 576.317448 302.914503 
L 582.750877 298.920026 
L 592.40102 292.493775 
L 602.051163 286.129522 
L 608.484592 282.217171 
L 614.918021 278.660905 
L 624.568164 273.788001 
L 631.001593 270.474295 
L 634.218307 268.664367 
L 637.435022 266.688071 
L 640.651736 264.49974 
L 643.868451 262.058552 
L 647.085165 259.330239 
L 650.301879 256.288109 
L 653.518594 252.913313 
L 656.735308 249.194355 
L 659.952023 245.12595 
L 663.168737 240.707382 
L 666.385451 235.940555 
L 669.602166 230.827992 
L 672.81888 225.371013 
L 676.035595 219.568353 
L 679.252309 213.415411 
L 682.469023 206.904316 
L 685.685738 200.024904 
L 688.902452 192.766628 
L 692.119167 185.121355 
L 695.335881 177.086869 
L 698.552595 168.670862 
L 704.986024 150.799243 
L 711.419453 131.915301 
L 717.852882 112.79659 
L 721.069596 103.496915 
L 724.286311 94.597134 
L 727.503025 86.285512 
L 730.71974 78.75754 
L 733.936454 72.208782 
L 737.153168 66.827254 
L 740.369883 62.785761 
L 743.586597 60.234589 
L 746.803312 59.29492 
L 750.020026 60.053284 
L 753.23674 62.557309 
L 756.453455 66.812964 
L 759.670169 72.783418 
L 762.886884 80.38958 
L 766.103598 89.512316 
L 769.320312 99.996261 
L 772.537027 111.65507 
L 775.753741 124.277891 
L 778.970456 137.636736 
L 785.403884 165.612642 
L 791.837313 193.718468 
L 795.054028 207.291052 
L 798.270742 220.30537 
L 801.487456 232.617918 
L 804.704171 244.115996 
L 807.920885 254.718297 
L 811.1376 264.374134 
L 814.354314 273.061489 
L 817.571028 280.784113 
L 820.787743 287.567957 
L 824.004457 293.457183 
L 827.221172 298.510023 
L 830.437886 302.794706 
L 833.6546 306.385638 
L 836.871315 309.359976 
L 840.088029 311.794691 
L 843.304744 313.764183 
L 846.521458 315.338433 
L 849.738173 316.581712 
L 852.954887 317.551763 
L 856.171601 318.299426 
L 859.388316 318.868608 
L 865.821745 319.61427 
L 872.255173 320.015748 
L 881.905317 320.280195 
L 885.122031 320.320782 
L 885.122031 320.320782 
" style="fill:none;stroke:#0000ff;stroke-dasharray:9.6,2.4,1.5,2.4;stroke-dashoffset:0;stroke-width:1.5;"/>
   </g>
   <g id="line2d_16">
    <path clip-path="url(#p463628e0c3)" d="M 173.045455 320.359612 
L 195.985347 320.165076 
L 211.278608 319.782815 
L 222.748554 319.256086 
L 234.2185 318.463319 
L 245.688446 317.399741 
L 260.981708 315.697892 
L 276.274969 314.038428 
L 283.9216 313.376369 
L 291.568231 312.893531 
L 299.214861 312.616563 
L 306.861492 312.546805 
L 314.508123 312.66044 
L 325.978069 313.074503 
L 352.741276 314.208861 
L 364.211223 314.449762 
L 379.504484 314.496768 
L 402.444376 314.268614 
L 417.737638 313.979962 
L 429.207584 313.565709 
L 436.854214 313.127991 
L 444.500845 312.531518 
L 452.147476 311.77397 
L 463.617422 310.395582 
L 482.733999 307.951843 
L 490.380629 307.129598 
L 498.02726 306.477099 
L 505.673891 306.011607 
L 517.143837 305.620453 
L 543.907044 305.030428 
L 551.553675 304.592927 
L 559.200306 303.921162 
L 566.846937 302.984563 
L 574.493567 301.771128 
L 582.140198 300.278539 
L 589.786829 298.500735 
L 597.43346 296.412263 
L 605.08009 293.953627 
L 608.903406 292.554961 
L 612.726721 291.021172 
L 616.550036 289.331984 
L 620.373352 287.464544 
L 624.196667 285.393847 
L 628.019982 283.093284 
L 631.843298 280.535303 
L 635.666613 277.69214 
L 639.489928 274.536613 
L 643.313244 271.042938 
L 647.136559 267.187575 
L 650.959875 262.950056 
L 654.78319 258.313841 
L 658.606505 253.267154 
L 662.429821 247.803841 
L 666.253136 241.924247 
L 670.076451 235.636093 
L 673.899767 228.955366 
L 677.723082 221.907185 
L 681.546397 214.526591 
L 689.193028 198.961766 
L 708.309605 158.77009 
L 712.13292 151.271774 
L 715.956236 144.210199 
L 719.779551 137.6992 
L 723.602866 131.848922 
L 727.426182 126.762428 
L 731.249497 122.532406 
L 735.072812 119.238162 
L 738.896128 116.943062 
L 742.719443 115.692583 
L 746.542759 115.513057 
L 750.366074 116.411172 
L 754.189389 118.37423 
L 758.012705 121.371093 
L 761.83602 125.353744 
L 765.659335 130.259301 
L 769.482651 136.01236 
L 773.305966 142.527495 
L 777.129281 149.711775 
L 780.952597 157.467178 
L 784.775912 165.692819 
L 792.422543 183.148549 
L 811.53912 228.160298 
L 815.362435 236.712255 
L 819.18575 244.947625 
L 823.009066 252.810703 
L 826.832381 260.254628 
L 830.655696 267.241772 
L 834.479012 273.743957 
L 838.302327 279.74249 
L 842.125643 285.227972 
L 845.948958 290.199886 
L 849.772273 294.665955 
L 853.595589 298.641304 
L 857.418904 302.147452 
L 861.242219 305.211179 
L 865.065535 307.863327 
L 868.88885 310.137589 
L 872.712165 312.069329 
L 876.535481 313.694488 
L 880.358796 315.048615 
L 884.182112 316.166043 
L 888.005427 317.079228 
L 891.828742 317.81826 
L 895.652058 318.410529 
L 903.298688 319.249904 
L 910.945319 319.758751 
L 918.59195 320.055307 
L 930.061896 320.273268 
L 933.885211 320.310892 
L 933.885211 320.310892 
" style="fill:none;stroke:#00ffff;stroke-linecap:square;stroke-width:1.5;"/>
   </g>
   <g id="line2d_17">
    <path clip-path="url(#p463628e0c3)" d="M 225.581756 320.374318 
L 249.019967 320.225609 
L 265.761546 319.889499 
L 279.154809 319.379365 
L 292.548073 318.619341 
L 309.289652 317.383074 
L 342.77281 314.778327 
L 356.166073 314.004355 
L 372.907652 313.322347 
L 386.300916 312.779362 
L 396.345863 312.132053 
L 403.042495 311.484228 
L 409.739126 310.608845 
L 416.435758 309.474627 
L 423.13239 308.068269 
L 429.829021 306.395053 
L 436.525653 304.47639 
L 443.222285 302.34488 
L 453.267232 298.830459 
L 463.31218 295.038278 
L 476.705443 289.691205 
L 493.447022 282.716447 
L 510.188601 275.761658 
L 520.233549 271.877058 
L 526.93018 269.515404 
L 533.626812 267.381694 
L 540.323443 265.488108 
L 547.020075 263.811349 
L 567.10997 259.171427 
L 573.806602 257.215795 
L 577.154917 256.03923 
L 580.503233 254.688844 
L 583.851549 253.133506 
L 587.199865 251.343041 
L 590.548181 249.289249 
L 593.896497 246.947007 
L 597.244812 244.295423 
L 600.593128 241.319011 
L 603.941444 238.008823 
L 607.28976 234.363501 
L 610.638076 230.390168 
L 613.986391 226.105126 
L 617.334707 221.534269 
L 620.683023 216.713196 
L 627.379655 206.509491 
L 640.772918 185.610052 
L 644.121234 180.706915 
L 647.46955 176.084371 
L 650.817866 171.814458 
L 654.166181 167.963542 
L 657.514497 164.590377 
L 660.862813 161.744436 
L 664.211129 159.464563 
L 667.559445 157.778016 
L 670.90776 156.699918 
L 674.256076 156.233145 
L 677.604392 156.368633 
L 680.952708 157.086086 
L 684.301024 158.355042 
L 687.64934 160.13624 
L 690.997655 162.383243 
L 694.345971 165.044218 
L 697.694287 168.063827 
L 701.042603 171.385145 
L 704.390919 174.951531 
L 711.08755 182.604772 
L 721.132498 194.702873 
L 734.525761 210.768074 
L 747.919024 226.358384 
L 761.312288 242.0641 
L 771.357235 254.251679 
L 788.098814 274.790447 
L 794.795446 282.591783 
L 801.492077 289.841953 
L 804.840393 293.201293 
L 808.188709 296.358134 
L 811.537025 299.298403 
L 814.885341 302.012367 
L 818.233657 304.494726 
L 821.581972 306.744502 
L 824.930288 308.76476 
L 828.278604 310.562187 
L 831.62692 312.146575 
L 834.975236 313.530234 
L 838.323551 314.727383 
L 841.671867 315.753538 
L 845.020183 316.62494 
L 848.368499 317.358036 
L 855.065131 318.47349 
L 861.761762 319.220436 
L 868.458394 319.70215 
L 878.503341 320.102589 
L 891.896605 320.315828 
L 891.896605 320.315828 
" style="fill:none;stroke:#00ffff;stroke-dasharray:5.55,2.4;stroke-dashoffset:0;stroke-width:1.5;"/>
   </g>
   <g id="line2d_18">
    <path clip-path="url(#p463628e0c3)" d="M 227.35747 320.372879 
L 250.157139 320.221561 
L 263.185522 319.968745 
L 276.213904 319.489234 
L 285.985191 318.933385 
L 295.756478 318.193543 
L 308.78486 316.949928 
L 328.327434 314.768997 
L 373.926772 309.493636 
L 380.440963 308.447798 
L 386.955154 307.176906 
L 393.469345 305.619845 
L 399.983537 303.723443 
L 406.497728 301.44762 
L 413.011919 298.76859 
L 419.52611 295.679943 
L 426.040301 292.192188 
L 432.554493 288.33185 
L 439.068684 284.141153 
L 445.582875 279.678786 
L 455.354162 272.648343 
L 468.382544 263.186817 
L 474.896735 258.687576 
L 481.410926 254.500453 
L 487.925118 250.718755 
L 494.439309 247.396632 
L 500.9535 244.537046 
L 507.467691 242.087296 
L 513.981882 239.944296 
L 533.524456 233.921858 
L 540.038647 231.589307 
L 546.552838 228.934677 
L 553.06703 225.919939 
L 559.581221 222.540325 
L 566.095412 218.815692 
L 572.609603 214.78505 
L 579.123794 210.50796 
L 598.666368 197.292337 
L 605.180559 193.348187 
L 608.437655 191.595035 
L 611.69475 190.031903 
L 614.951846 188.69108 
L 618.208941 187.602822 
L 621.466037 186.794156 
L 624.723133 186.287748 
L 627.980228 186.100915 
L 631.237324 186.244836 
L 634.494419 186.724002 
L 637.751515 187.53596 
L 641.008611 188.671341 
L 644.265706 190.114186 
L 647.522802 191.842547 
L 650.779897 193.829335 
L 654.036993 196.043355 
L 657.294089 198.450495 
L 663.80828 203.700712 
L 673.579567 212.14395 
L 683.350853 220.580229 
L 689.865045 225.959661 
L 696.379236 231.086578 
L 706.150523 238.375684 
L 728.950192 255.020869 
L 735.464383 260.050847 
L 745.23567 267.94611 
L 758.264052 278.925129 
L 768.035339 287.129916 
L 774.54953 292.373039 
L 781.063721 297.295676 
L 787.577912 301.791893 
L 790.835008 303.853334 
L 794.092104 305.779835 
L 797.349199 307.5662 
L 800.606295 309.20946 
L 803.86339 310.708859 
L 807.120486 312.065762 
L 810.377582 313.283497 
L 813.634677 314.367139 
L 816.891773 315.323256 
L 823.405964 316.884889 
L 829.920155 318.039604 
L 836.434346 318.863892 
L 842.948537 319.431754 
L 849.462729 319.809194 
L 859.234015 320.135307 
L 872.262398 320.319334 
L 875.519493 320.341329 
L 875.519493 320.341329 
" style="fill:none;stroke:#00ffff;stroke-dasharray:9.6,2.4,1.5,2.4;stroke-dashoffset:0;stroke-width:1.5;"/>
   </g>
   <g id="patch_3">
    <path d="M 135 320.4 
L 135 43.2 
" style="fill:none;stroke:#000000;stroke-linecap:square;stroke-linejoin:miter;stroke-width:0.8;"/>
   </g>
   <g id="patch_4">
    <path d="M 972 320.4 
L 972 43.2 
" style="fill:none;stroke:#000000;stroke-linecap:square;stroke-linejoin:miter;stroke-width:0.8;"/>
   </g>
   <g id="patch_5">
    <path d="M 135 320.4 
L 972 320.4 
" style="fill:none;stroke:#000000;stroke-linecap:square;stroke-linejoin:miter;stroke-width:0.8;"/>
   </g>
   <g id="patch_6">
    <path d="M 135 43.2 
L 972 43.2 
" style="fill:none;stroke:#000000;stroke-linecap:square;stroke-linejoin:miter;stroke-width:0.8;"/>
   </g>
   <g id="text_15">
    <!-- Density plot of highest correlation for every estimated source  -->
    <g transform="translate(366.466875 23.762625)scale(0.12 -0.12)">
     <defs>
      <path d="M 1159 525 
L 1159 -1331 
L 581 -1331 
L 581 3500 
L 1159 3500 
L 1159 2969 
Q 1341 3281 1617 3432 
Q 1894 3584 2278 3584 
Q 2916 3584 3314 3078 
Q 3713 2572 3713 1747 
Q 3713 922 3314 415 
Q 2916 -91 2278 -91 
Q 1894 -91 1617 61 
Q 1341 213 1159 525 
z
M 3116 1747 
Q 3116 2381 2855 2742 
Q 2594 3103 2138 3103 
Q 1681 3103 1420 2742 
Q 1159 2381 1159 1747 
Q 1159 1113 1420 752 
Q 1681 391 2138 391 
Q 2594 391 2855 752 
Q 3116 1113 3116 1747 
z
" id="DejaVuSans-70" transform="scale(0.015625)"/>
      <path d="M 2375 4863 
L 2375 4384 
L 1825 4384 
Q 1516 4384 1395 4259 
Q 1275 4134 1275 3809 
L 1275 3500 
L 2222 3500 
L 2222 3053 
L 1275 3053 
L 1275 0 
L 697 0 
L 697 3053 
L 147 3053 
L 147 3500 
L 697 3500 
L 697 3744 
Q 697 4328 969 4595 
Q 1241 4863 1831 4863 
L 2375 4863 
z
" id="DejaVuSans-66" transform="scale(0.015625)"/>
      <path d="M 3513 2113 
L 3513 0 
L 2938 0 
L 2938 2094 
Q 2938 2591 2744 2837 
Q 2550 3084 2163 3084 
Q 1697 3084 1428 2787 
Q 1159 2491 1159 1978 
L 1159 0 
L 581 0 
L 581 4863 
L 1159 4863 
L 1159 2956 
Q 1366 3272 1645 3428 
Q 1925 3584 2291 3584 
Q 2894 3584 3203 3211 
Q 3513 2838 3513 2113 
z
" id="DejaVuSans-68" transform="scale(0.015625)"/>
      <path d="M 2906 1791 
Q 2906 2416 2648 2759 
Q 2391 3103 1925 3103 
Q 1463 3103 1205 2759 
Q 947 2416 947 1791 
Q 947 1169 1205 825 
Q 1463 481 1925 481 
Q 2391 481 2648 825 
Q 2906 1169 2906 1791 
z
M 3481 434 
Q 3481 -459 3084 -895 
Q 2688 -1331 1869 -1331 
Q 1566 -1331 1297 -1286 
Q 1028 -1241 775 -1147 
L 775 -588 
Q 1028 -725 1275 -790 
Q 1522 -856 1778 -856 
Q 2344 -856 2625 -561 
Q 2906 -266 2906 331 
L 2906 616 
Q 2728 306 2450 153 
Q 2172 0 1784 0 
Q 1141 0 747 490 
Q 353 981 353 1791 
Q 353 2603 747 3093 
Q 1141 3584 1784 3584 
Q 2172 3584 2450 3431 
Q 2728 3278 2906 2969 
L 2906 3500 
L 3481 3500 
L 3481 434 
z
" id="DejaVuSans-67" transform="scale(0.015625)"/>
      <path d="M 191 3500 
L 800 3500 
L 1894 563 
L 2988 3500 
L 3597 3500 
L 2284 0 
L 1503 0 
L 191 3500 
z
" id="DejaVuSans-76" transform="scale(0.015625)"/>
      <path d="M 3328 2828 
Q 3544 3216 3844 3400 
Q 4144 3584 4550 3584 
Q 5097 3584 5394 3201 
Q 5691 2819 5691 2113 
L 5691 0 
L 5113 0 
L 5113 2094 
Q 5113 2597 4934 2840 
Q 4756 3084 4391 3084 
Q 3944 3084 3684 2787 
Q 3425 2491 3425 1978 
L 3425 0 
L 2847 0 
L 2847 2094 
Q 2847 2600 2669 2842 
Q 2491 3084 2119 3084 
Q 1678 3084 1418 2786 
Q 1159 2488 1159 1978 
L 1159 0 
L 581 0 
L 581 3500 
L 1159 3500 
L 1159 2956 
Q 1356 3278 1631 3431 
Q 1906 3584 2284 3584 
Q 2666 3584 2933 3390 
Q 3200 3197 3328 2828 
z
" id="DejaVuSans-6d" transform="scale(0.015625)"/>
      <path d="M 2906 2969 
L 2906 4863 
L 3481 4863 
L 3481 0 
L 2906 0 
L 2906 525 
Q 2725 213 2448 61 
Q 2172 -91 1784 -91 
Q 1150 -91 751 415 
Q 353 922 353 1747 
Q 353 2572 751 3078 
Q 1150 3584 1784 3584 
Q 2172 3584 2448 3432 
Q 2725 3281 2906 2969 
z
M 947 1747 
Q 947 1113 1208 752 
Q 1469 391 1925 391 
Q 2381 391 2643 752 
Q 2906 1113 2906 1747 
Q 2906 2381 2643 2742 
Q 2381 3103 1925 3103 
Q 1469 3103 1208 2742 
Q 947 2381 947 1747 
z
" id="DejaVuSans-64" transform="scale(0.015625)"/>
      <path d="M 544 1381 
L 544 3500 
L 1119 3500 
L 1119 1403 
Q 1119 906 1312 657 
Q 1506 409 1894 409 
Q 2359 409 2629 706 
Q 2900 1003 2900 1516 
L 2900 3500 
L 3475 3500 
L 3475 0 
L 2900 0 
L 2900 538 
Q 2691 219 2414 64 
Q 2138 -91 1772 -91 
Q 1169 -91 856 284 
Q 544 659 544 1381 
z
M 1991 3584 
L 1991 3584 
z
" id="DejaVuSans-75" transform="scale(0.015625)"/>
     </defs>
     <use xlink:href="#DejaVuSans-44"/>
     <use x="77.001953" xlink:href="#DejaVuSans-65"/>
     <use x="138.525391" xlink:href="#DejaVuSans-6e"/>
     <use x="201.904297" xlink:href="#DejaVuSans-73"/>
     <use x="254.003906" xlink:href="#DejaVuSans-69"/>
     <use x="281.787109" xlink:href="#DejaVuSans-74"/>
     <use x="320.996094" xlink:href="#DejaVuSans-79"/>
     <use x="380.175781" xlink:href="#DejaVuSans-20"/>
     <use x="411.962891" xlink:href="#DejaVuSans-70"/>
     <use x="475.439453" xlink:href="#DejaVuSans-6c"/>
     <use x="503.222656" xlink:href="#DejaVuSans-6f"/>
     <use x="564.404297" xlink:href="#DejaVuSans-74"/>
     <use x="603.613281" xlink:href="#DejaVuSans-20"/>
     <use x="635.400391" xlink:href="#DejaVuSans-6f"/>
     <use x="696.582031" xlink:href="#DejaVuSans-66"/>
     <use x="731.787109" xlink:href="#DejaVuSans-20"/>
     <use x="763.574219" xlink:href="#DejaVuSans-68"/>
     <use x="826.953125" xlink:href="#DejaVuSans-69"/>
     <use x="854.736328" xlink:href="#DejaVuSans-67"/>
     <use x="918.212891" xlink:href="#DejaVuSans-68"/>
     <use x="981.591797" xlink:href="#DejaVuSans-65"/>
     <use x="1043.115234" xlink:href="#DejaVuSans-73"/>
     <use x="1095.214844" xlink:href="#DejaVuSans-74"/>
     <use x="1134.423828" xlink:href="#DejaVuSans-20"/>
     <use x="1166.210938" xlink:href="#DejaVuSans-63"/>
     <use x="1221.191406" xlink:href="#DejaVuSans-6f"/>
     <use x="1282.373047" xlink:href="#DejaVuSans-72"/>
     <use x="1321.736328" xlink:href="#DejaVuSans-72"/>
     <use x="1360.599609" xlink:href="#DejaVuSans-65"/>
     <use x="1422.123047" xlink:href="#DejaVuSans-6c"/>
     <use x="1449.90625" xlink:href="#DejaVuSans-61"/>
     <use x="1511.185547" xlink:href="#DejaVuSans-74"/>
     <use x="1550.394531" xlink:href="#DejaVuSans-69"/>
     <use x="1578.177734" xlink:href="#DejaVuSans-6f"/>
     <use x="1639.359375" xlink:href="#DejaVuSans-6e"/>
     <use x="1702.738281" xlink:href="#DejaVuSans-20"/>
     <use x="1734.525391" xlink:href="#DejaVuSans-66"/>
     <use x="1769.730469" xlink:href="#DejaVuSans-6f"/>
     <use x="1830.912109" xlink:href="#DejaVuSans-72"/>
     <use x="1872.025391" xlink:href="#DejaVuSans-20"/>
     <use x="1903.8125" xlink:href="#DejaVuSans-65"/>
     <use x="1965.335938" xlink:href="#DejaVuSans-76"/>
     <use x="2024.515625" xlink:href="#DejaVuSans-65"/>
     <use x="2086.039062" xlink:href="#DejaVuSans-72"/>
     <use x="2127.152344" xlink:href="#DejaVuSans-79"/>
     <use x="2186.332031" xlink:href="#DejaVuSans-20"/>
     <use x="2218.119141" xlink:href="#DejaVuSans-65"/>
     <use x="2279.642578" xlink:href="#DejaVuSans-73"/>
     <use x="2331.742188" xlink:href="#DejaVuSans-74"/>
     <use x="2370.951172" xlink:href="#DejaVuSans-69"/>
     <use x="2398.734375" xlink:href="#DejaVuSans-6d"/>
     <use x="2496.146484" xlink:href="#DejaVuSans-61"/>
     <use x="2557.425781" xlink:href="#DejaVuSans-74"/>
     <use x="2596.634766" xlink:href="#DejaVuSans-65"/>
     <use x="2658.158203" xlink:href="#DejaVuSans-64"/>
     <use x="2721.634766" xlink:href="#DejaVuSans-20"/>
     <use x="2753.421875" xlink:href="#DejaVuSans-73"/>
     <use x="2805.521484" xlink:href="#DejaVuSans-6f"/>
     <use x="2866.703125" xlink:href="#DejaVuSans-75"/>
     <use x="2930.082031" xlink:href="#DejaVuSans-72"/>
     <use x="2968.945312" xlink:href="#DejaVuSans-63"/>
     <use x="3023.925781" xlink:href="#DejaVuSans-65"/>
     <use x="3085.449219" xlink:href="#DejaVuSans-20"/>
    </g>
    <!--  in the sample data -->
    <g transform="translate(495.226875 37.2)scale(0.12 -0.12)">
     <use xlink:href="#DejaVuSans-20"/>
     <use x="31.787109" xlink:href="#DejaVuSans-69"/>
     <use x="59.570312" xlink:href="#DejaVuSans-6e"/>
     <use x="122.949219" xlink:href="#DejaVuSans-20"/>
     <use x="154.736328" xlink:href="#DejaVuSans-74"/>
     <use x="193.945312" xlink:href="#DejaVuSans-68"/>
     <use x="257.324219" xlink:href="#DejaVuSans-65"/>
     <use x="318.847656" xlink:href="#DejaVuSans-20"/>
     <use x="350.634766" xlink:href="#DejaVuSans-73"/>
     <use x="402.734375" xlink:href="#DejaVuSans-61"/>
     <use x="464.013672" xlink:href="#DejaVuSans-6d"/>
     <use x="561.425781" xlink:href="#DejaVuSans-70"/>
     <use x="624.902344" xlink:href="#DejaVuSans-6c"/>
     <use x="652.685547" xlink:href="#DejaVuSans-65"/>
     <use x="714.208984" xlink:href="#DejaVuSans-20"/>
     <use x="745.996094" xlink:href="#DejaVuSans-64"/>
     <use x="809.472656" xlink:href="#DejaVuSans-61"/>
     <use x="870.751953" xlink:href="#DejaVuSans-74"/>
     <use x="909.960938" xlink:href="#DejaVuSans-61"/>
    </g>
   </g>
   <g id="legend_1">
    <g id="patch_7">
     <path d="M 875.690625 139.26875 
L 965 139.26875 
Q 967 139.26875 967 137.26875 
L 967 50.2 
Q 967 48.2 965 48.2 
L 875.690625 48.2 
Q 873.690625 48.2 873.690625 50.2 
L 873.690625 137.26875 
Q 873.690625 139.26875 875.690625 139.26875 
z
" style="fill:#ffffff;opacity:0.8;stroke:#cccccc;stroke-linejoin:miter;"/>
    </g>
    <g id="line2d_19">
     <path d="M 877.690625 56.298437 
L 897.690625 56.298437 
" style="fill:none;stroke:#0000ff;stroke-linecap:square;stroke-width:1.5;"/>
    </g>
    <g id="line2d_20"/>
    <g id="text_16">
     <!-- 2 Clustered -->
     <g transform="translate(905.690625 59.798437)scale(0.1 -0.1)">
      <defs>
       <path d="M 4122 4306 
L 4122 3641 
Q 3803 3938 3442 4084 
Q 3081 4231 2675 4231 
Q 1875 4231 1450 3742 
Q 1025 3253 1025 2328 
Q 1025 1406 1450 917 
Q 1875 428 2675 428 
Q 3081 428 3442 575 
Q 3803 722 4122 1019 
L 4122 359 
Q 3791 134 3420 21 
Q 3050 -91 2638 -91 
Q 1578 -91 968 557 
Q 359 1206 359 2328 
Q 359 3453 968 4101 
Q 1578 4750 2638 4750 
Q 3056 4750 3426 4639 
Q 3797 4528 4122 4306 
z
" id="DejaVuSans-43" transform="scale(0.015625)"/>
      </defs>
      <use xlink:href="#DejaVuSans-32"/>
      <use x="63.623047" xlink:href="#DejaVuSans-20"/>
      <use x="95.410156" xlink:href="#DejaVuSans-43"/>
      <use x="165.234375" xlink:href="#DejaVuSans-6c"/>
      <use x="193.017578" xlink:href="#DejaVuSans-75"/>
      <use x="256.396484" xlink:href="#DejaVuSans-73"/>
      <use x="308.496094" xlink:href="#DejaVuSans-74"/>
      <use x="347.705078" xlink:href="#DejaVuSans-65"/>
      <use x="409.228516" xlink:href="#DejaVuSans-72"/>
      <use x="448.091797" xlink:href="#DejaVuSans-65"/>
      <use x="509.615234" xlink:href="#DejaVuSans-64"/>
     </g>
    </g>
    <g id="line2d_21">
     <path d="M 877.690625 70.976562 
L 897.690625 70.976562 
" style="fill:none;stroke:#0000ff;stroke-dasharray:5.55,2.4;stroke-dashoffset:0;stroke-width:1.5;"/>
    </g>
    <g id="line2d_22"/>
    <g id="text_17">
     <!-- 3 Clustered -->
     <g transform="translate(905.690625 74.476562)scale(0.1 -0.1)">
      <use xlink:href="#DejaVuSans-33"/>
      <use x="63.623047" xlink:href="#DejaVuSans-20"/>
      <use x="95.410156" xlink:href="#DejaVuSans-43"/>
      <use x="165.234375" xlink:href="#DejaVuSans-6c"/>
      <use x="193.017578" xlink:href="#DejaVuSans-75"/>
      <use x="256.396484" xlink:href="#DejaVuSans-73"/>
      <use x="308.496094" xlink:href="#DejaVuSans-74"/>
      <use x="347.705078" xlink:href="#DejaVuSans-65"/>
      <use x="409.228516" xlink:href="#DejaVuSans-72"/>
      <use x="448.091797" xlink:href="#DejaVuSans-65"/>
      <use x="509.615234" xlink:href="#DejaVuSans-64"/>
     </g>
    </g>
    <g id="line2d_23">
     <path d="M 877.690625 85.654687 
L 897.690625 85.654687 
" style="fill:none;stroke:#0000ff;stroke-dasharray:9.6,2.4,1.5,2.4;stroke-dashoffset:0;stroke-width:1.5;"/>
    </g>
    <g id="line2d_24"/>
    <g id="text_18">
     <!-- 4 Clustered -->
     <g transform="translate(905.690625 89.154687)scale(0.1 -0.1)">
      <use xlink:href="#DejaVuSans-34"/>
      <use x="63.623047" xlink:href="#DejaVuSans-20"/>
      <use x="95.410156" xlink:href="#DejaVuSans-43"/>
      <use x="165.234375" xlink:href="#DejaVuSans-6c"/>
      <use x="193.017578" xlink:href="#DejaVuSans-75"/>
      <use x="256.396484" xlink:href="#DejaVuSans-73"/>
      <use x="308.496094" xlink:href="#DejaVuSans-74"/>
      <use x="347.705078" xlink:href="#DejaVuSans-65"/>
      <use x="409.228516" xlink:href="#DejaVuSans-72"/>
      <use x="448.091797" xlink:href="#DejaVuSans-65"/>
      <use x="509.615234" xlink:href="#DejaVuSans-64"/>
     </g>
    </g>
    <g id="line2d_25">
     <path d="M 877.690625 100.332812 
L 897.690625 100.332812 
" style="fill:none;stroke:#00ffff;stroke-linecap:square;stroke-width:1.5;"/>
    </g>
    <g id="line2d_26"/>
    <g id="text_19">
     <!-- 2 Random -->
     <g transform="translate(905.690625 103.832812)scale(0.1 -0.1)">
      <defs>
       <path d="M 2841 2188 
Q 3044 2119 3236 1894 
Q 3428 1669 3622 1275 
L 4263 0 
L 3584 0 
L 2988 1197 
Q 2756 1666 2539 1819 
Q 2322 1972 1947 1972 
L 1259 1972 
L 1259 0 
L 628 0 
L 628 4666 
L 2053 4666 
Q 2853 4666 3247 4331 
Q 3641 3997 3641 3322 
Q 3641 2881 3436 2590 
Q 3231 2300 2841 2188 
z
M 1259 4147 
L 1259 2491 
L 2053 2491 
Q 2509 2491 2742 2702 
Q 2975 2913 2975 3322 
Q 2975 3731 2742 3939 
Q 2509 4147 2053 4147 
L 1259 4147 
z
" id="DejaVuSans-52" transform="scale(0.015625)"/>
      </defs>
      <use xlink:href="#DejaVuSans-32"/>
      <use x="63.623047" xlink:href="#DejaVuSans-20"/>
      <use x="95.410156" xlink:href="#DejaVuSans-52"/>
      <use x="162.642578" xlink:href="#DejaVuSans-61"/>
      <use x="223.921875" xlink:href="#DejaVuSans-6e"/>
      <use x="287.300781" xlink:href="#DejaVuSans-64"/>
      <use x="350.777344" xlink:href="#DejaVuSans-6f"/>
      <use x="411.958984" xlink:href="#DejaVuSans-6d"/>
     </g>
    </g>
    <g id="line2d_27">
     <path d="M 877.690625 115.010937 
L 897.690625 115.010937 
" style="fill:none;stroke:#00ffff;stroke-dasharray:5.55,2.4;stroke-dashoffset:0;stroke-width:1.5;"/>
    </g>
    <g id="line2d_28"/>
    <g id="text_20">
     <!-- 3 Random -->
     <g transform="translate(905.690625 118.510937)scale(0.1 -0.1)">
      <use xlink:href="#DejaVuSans-33"/>
      <use x="63.623047" xlink:href="#DejaVuSans-20"/>
      <use x="95.410156" xlink:href="#DejaVuSans-52"/>
      <use x="162.642578" xlink:href="#DejaVuSans-61"/>
      <use x="223.921875" xlink:href="#DejaVuSans-6e"/>
      <use x="287.300781" xlink:href="#DejaVuSans-64"/>
      <use x="350.777344" xlink:href="#DejaVuSans-6f"/>
      <use x="411.958984" xlink:href="#DejaVuSans-6d"/>
     </g>
    </g>
    <g id="line2d_29">
     <path d="M 877.690625 129.689062 
L 897.690625 129.689062 
" style="fill:none;stroke:#00ffff;stroke-dasharray:9.6,2.4,1.5,2.4;stroke-dashoffset:0;stroke-width:1.5;"/>
    </g>
    <g id="line2d_30"/>
    <g id="text_21">
     <!-- 4 Random -->
     <g transform="translate(905.690625 133.189062)scale(0.1 -0.1)">
      <use xlink:href="#DejaVuSans-34"/>
      <use x="63.623047" xlink:href="#DejaVuSans-20"/>
      <use x="95.410156" xlink:href="#DejaVuSans-52"/>
      <use x="162.642578" xlink:href="#DejaVuSans-61"/>
      <use x="223.921875" xlink:href="#DejaVuSans-6e"/>
      <use x="287.300781" xlink:href="#DejaVuSans-64"/>
      <use x="350.777344" xlink:href="#DejaVuSans-6f"/>
      <use x="411.958984" xlink:href="#DejaVuSans-6d"/>
     </g>
    </g>
   </g>
  </g>
 </g>
 <defs>
  <clipPath id="p463628e0c3">
   <rect height="277.2" width="837" x="135" y="43.2"/>
  </clipPath>
 </defs>
</svg>
