<?xml version="1.0" encoding="utf-8" standalone="no"?>
<!DOCTYPE svg PUBLIC "-//W3C//DTD SVG 1.1//EN"
  "http://www.w3.org/Graphics/SVG/1.1/DTD/svg11.dtd">
<svg height="300.989344pt" version="1.1" viewBox="0 0 541.34125 300.989344" width="541.34125pt" xmlns="http://www.w3.org/2000/svg" xmlns:xlink="http://www.w3.org/1999/xlink">
 <metadata>
  <rdf:RDF xmlns:cc="http://creativecommons.org/ns#" xmlns:dc="http://purl.org/dc/elements/1.1/" xmlns:rdf="http://www.w3.org/1999/02/22-rdf-syntax-ns#">
   <cc:Work>
    <dc:type rdf:resource="http://purl.org/dc/dcmitype/StillImage"/>
    <dc:date>2021-11-22T19:40:36.125795</dc:date>
    <dc:format>image/svg+xml</dc:format>
    <dc:creator>
     <cc:Agent>
      <dc:title>Matplotlib v3.4.3, https://matplotlib.org/</dc:title>
     </cc:Agent>
    </dc:creator>
   </cc:Work>
  </rdf:RDF>
 </metadata>
 <defs>
  <style type="text/css">*{stroke-linecap:butt;stroke-linejoin:round;}</style>
 </defs>
 <g id="figure_1">
  <g id="patch_1">
   <path d="M 0 300.989344 
L 541.34125 300.989344 
L 541.34125 0 
L 0 0 
z
" style="fill:#ffffff;"/>
  </g>
  <g id="axes_1">
   <g id="patch_2">
    <path d="M 43.78125 68.849654 
L 121.416033 68.849654 
L 121.416033 10.999219 
L 43.78125 10.999219 
z
" style="fill:#ffffff;"/>
   </g>
   <g id="patch_3">
    <path clip-path="url(#pccc174b05e)" d="M 47.310104 68.849654 
L 67.474982 68.849654 
L 67.474982 68.849654 
L 47.310104 68.849654 
z
"/>
   </g>
   <g id="patch_4">
    <path clip-path="url(#pccc174b05e)" d="M 72.516202 68.849654 
L 92.681081 68.849654 
L 92.681081 25.008611 
L 72.516202 25.008611 
z
"/>
   </g>
   <g id="patch_5">
    <path clip-path="url(#pccc174b05e)" d="M 97.7223 68.849654 
L 117.887179 68.849654 
L 117.887179 26.23495 
L 97.7223 26.23495 
z
"/>
   </g>
   <g id="patch_6">
    <path clip-path="url(#pccc174b05e)" d="M 47.310104 68.849654 
L 67.474982 68.849654 
L 67.474982 68.849654 
L 47.310104 68.849654 
z
"/>
   </g>
   <g id="patch_7">
    <path clip-path="url(#pccc174b05e)" d="M 72.516202 25.008611 
L 92.681081 25.008611 
L 92.681081 20.137384 
L 72.516202 20.137384 
z
"/>
   </g>
   <g id="patch_8">
    <path clip-path="url(#pccc174b05e)" d="M 97.7223 26.23495 
L 117.887179 26.23495 
L 117.887179 21.499982 
L 97.7223 21.499982 
z
"/>
   </g>
   <g id="matplotlib.axis_1"/>
   <g id="matplotlib.axis_2">
    <g id="ytick_1">
     <g id="line2d_1">
      <defs>
       <path d="M 0 0 
L -3.5 0 
" id="m10b2e47e62" style="stroke:#000000;stroke-width:0.8;"/>
      </defs>
      <g>
       <use style="stroke:#000000;stroke-width:0.8;" x="43.78125" xlink:href="#m10b2e47e62" y="68.849654"/>
      </g>
     </g>
     <g id="text_1">
      <!-- 0.00 -->
      <g transform="translate(14.515625 72.648872)scale(0.1 -0.1)">
       <defs>
        <path d="M 2034 4250 
Q 1547 4250 1301 3770 
Q 1056 3291 1056 2328 
Q 1056 1369 1301 889 
Q 1547 409 2034 409 
Q 2525 409 2770 889 
Q 3016 1369 3016 2328 
Q 3016 3291 2770 3770 
Q 2525 4250 2034 4250 
z
M 2034 4750 
Q 2819 4750 3233 4129 
Q 3647 3509 3647 2328 
Q 3647 1150 3233 529 
Q 2819 -91 2034 -91 
Q 1250 -91 836 529 
Q 422 1150 422 2328 
Q 422 3509 836 4129 
Q 1250 4750 2034 4750 
z
" id="DejaVuSans-30" transform="scale(0.015625)"/>
        <path d="M 684 794 
L 1344 794 
L 1344 0 
L 684 0 
L 684 794 
z
" id="DejaVuSans-2e" transform="scale(0.015625)"/>
       </defs>
       <use xlink:href="#DejaVuSans-30"/>
       <use x="63.623047" xlink:href="#DejaVuSans-2e"/>
       <use x="95.410156" xlink:href="#DejaVuSans-30"/>
       <use x="159.033203" xlink:href="#DejaVuSans-30"/>
      </g>
     </g>
    </g>
    <g id="ytick_2">
     <g id="line2d_2">
      <g>
       <use style="stroke:#000000;stroke-width:0.8;" x="43.78125" xlink:href="#m10b2e47e62" y="51.215632"/>
      </g>
     </g>
     <g id="text_2">
      <!-- 0.25 -->
      <g transform="translate(14.515625 55.014851)scale(0.1 -0.1)">
       <defs>
        <path d="M 1228 531 
L 3431 531 
L 3431 0 
L 469 0 
L 469 531 
Q 828 903 1448 1529 
Q 2069 2156 2228 2338 
Q 2531 2678 2651 2914 
Q 2772 3150 2772 3378 
Q 2772 3750 2511 3984 
Q 2250 4219 1831 4219 
Q 1534 4219 1204 4116 
Q 875 4013 500 3803 
L 500 4441 
Q 881 4594 1212 4672 
Q 1544 4750 1819 4750 
Q 2544 4750 2975 4387 
Q 3406 4025 3406 3419 
Q 3406 3131 3298 2873 
Q 3191 2616 2906 2266 
Q 2828 2175 2409 1742 
Q 1991 1309 1228 531 
z
" id="DejaVuSans-32" transform="scale(0.015625)"/>
        <path d="M 691 4666 
L 3169 4666 
L 3169 4134 
L 1269 4134 
L 1269 2991 
Q 1406 3038 1543 3061 
Q 1681 3084 1819 3084 
Q 2600 3084 3056 2656 
Q 3513 2228 3513 1497 
Q 3513 744 3044 326 
Q 2575 -91 1722 -91 
Q 1428 -91 1123 -41 
Q 819 9 494 109 
L 494 744 
Q 775 591 1075 516 
Q 1375 441 1709 441 
Q 2250 441 2565 725 
Q 2881 1009 2881 1497 
Q 2881 1984 2565 2268 
Q 2250 2553 1709 2553 
Q 1456 2553 1204 2497 
Q 953 2441 691 2322 
L 691 4666 
z
" id="DejaVuSans-35" transform="scale(0.015625)"/>
       </defs>
       <use xlink:href="#DejaVuSans-30"/>
       <use x="63.623047" xlink:href="#DejaVuSans-2e"/>
       <use x="95.410156" xlink:href="#DejaVuSans-32"/>
       <use x="159.033203" xlink:href="#DejaVuSans-35"/>
      </g>
     </g>
    </g>
    <g id="ytick_3">
     <g id="line2d_3">
      <g>
       <use style="stroke:#000000;stroke-width:0.8;" x="43.78125" xlink:href="#m10b2e47e62" y="33.58161"/>
      </g>
     </g>
     <g id="text_3">
      <!-- 0.50 -->
      <g transform="translate(14.515625 37.380829)scale(0.1 -0.1)">
       <use xlink:href="#DejaVuSans-30"/>
       <use x="63.623047" xlink:href="#DejaVuSans-2e"/>
       <use x="95.410156" xlink:href="#DejaVuSans-35"/>
       <use x="159.033203" xlink:href="#DejaVuSans-30"/>
      </g>
     </g>
    </g>
    <g id="ytick_4">
     <g id="line2d_4">
      <g>
       <use style="stroke:#000000;stroke-width:0.8;" x="43.78125" xlink:href="#m10b2e47e62" y="15.947589"/>
      </g>
     </g>
     <g id="text_4">
      <!-- 0.75 -->
      <g transform="translate(14.515625 19.746807)scale(0.1 -0.1)">
       <defs>
        <path d="M 525 4666 
L 3525 4666 
L 3525 4397 
L 1831 0 
L 1172 0 
L 2766 4134 
L 525 4134 
L 525 4666 
z
" id="DejaVuSans-37" transform="scale(0.015625)"/>
       </defs>
       <use xlink:href="#DejaVuSans-30"/>
       <use x="63.623047" xlink:href="#DejaVuSans-2e"/>
       <use x="95.410156" xlink:href="#DejaVuSans-37"/>
       <use x="159.033203" xlink:href="#DejaVuSans-35"/>
      </g>
     </g>
    </g>
   </g>
   <g id="patch_9">
    <path d="M 43.78125 68.849654 
L 43.78125 10.999219 
" style="fill:none;stroke:#000000;stroke-linecap:square;stroke-linejoin:miter;stroke-width:0.8;"/>
   </g>
   <g id="patch_10">
    <path d="M 121.416033 68.849654 
L 121.416033 10.999219 
" style="fill:none;stroke:#000000;stroke-linecap:square;stroke-linejoin:miter;stroke-width:0.8;"/>
   </g>
   <g id="patch_11">
    <path d="M 43.78125 68.849654 
L 121.416033 68.849654 
" style="fill:none;stroke:#000000;stroke-linecap:square;stroke-linejoin:miter;stroke-width:0.8;"/>
   </g>
   <g id="patch_12">
    <path d="M 43.78125 10.999219 
L 121.416033 10.999219 
" style="fill:none;stroke:#000000;stroke-linecap:square;stroke-linejoin:miter;stroke-width:0.8;"/>
   </g>
  </g>
  <g id="axes_2">
   <g id="patch_13">
    <path d="M 136.942989 68.849654 
L 214.577772 68.849654 
L 214.577772 10.999219 
L 136.942989 10.999219 
z
" style="fill:#ffffff;"/>
   </g>
   <g id="patch_14">
    <path clip-path="url(#p21e4c950f8)" d="M 140.471843 68.849654 
L 160.636721 68.849654 
L 160.636721 64.990141 
L 140.471843 64.990141 
z
"/>
   </g>
   <g id="patch_15">
    <path clip-path="url(#p21e4c950f8)" d="M 165.677941 68.849654 
L 185.84282 68.849654 
L 185.84282 24.824081 
L 165.677941 24.824081 
z
"/>
   </g>
   <g id="patch_16">
    <path clip-path="url(#p21e4c950f8)" d="M 190.884039 68.849654 
L 211.048918 68.849654 
L 211.048918 25.549391 
L 190.884039 25.549391 
z
"/>
   </g>
   <g id="patch_17">
    <path clip-path="url(#p21e4c950f8)" d="M 140.471843 64.990141 
L 160.636721 64.990141 
L 160.636721 64.561306 
L 140.471843 64.561306 
z
"/>
   </g>
   <g id="patch_18">
    <path clip-path="url(#p21e4c950f8)" d="M 165.677941 24.824081 
L 185.84282 24.824081 
L 185.84282 19.932351 
L 165.677941 19.932351 
z
"/>
   </g>
   <g id="patch_19">
    <path clip-path="url(#p21e4c950f8)" d="M 190.884039 25.549391 
L 211.048918 25.549391 
L 211.048918 20.738251 
L 190.884039 20.738251 
z
"/>
   </g>
   <g id="matplotlib.axis_3"/>
   <g id="matplotlib.axis_4">
    <g id="ytick_5">
     <g id="line2d_5">
      <g>
       <use style="stroke:#000000;stroke-width:0.8;" x="136.942989" xlink:href="#m10b2e47e62" y="68.849654"/>
      </g>
     </g>
    </g>
    <g id="ytick_6">
     <g id="line2d_6">
      <g>
       <use style="stroke:#000000;stroke-width:0.8;" x="136.942989" xlink:href="#m10b2e47e62" y="51.215632"/>
      </g>
     </g>
    </g>
    <g id="ytick_7">
     <g id="line2d_7">
      <g>
       <use style="stroke:#000000;stroke-width:0.8;" x="136.942989" xlink:href="#m10b2e47e62" y="33.58161"/>
      </g>
     </g>
    </g>
    <g id="ytick_8">
     <g id="line2d_8">
      <g>
       <use style="stroke:#000000;stroke-width:0.8;" x="136.942989" xlink:href="#m10b2e47e62" y="15.947589"/>
      </g>
     </g>
    </g>
   </g>
   <g id="patch_20">
    <path d="M 136.942989 68.849654 
L 136.942989 10.999219 
" style="fill:none;stroke:#000000;stroke-linecap:square;stroke-linejoin:miter;stroke-width:0.8;"/>
   </g>
   <g id="patch_21">
    <path d="M 214.577772 68.849654 
L 214.577772 10.999219 
" style="fill:none;stroke:#000000;stroke-linecap:square;stroke-linejoin:miter;stroke-width:0.8;"/>
   </g>
   <g id="patch_22">
    <path d="M 136.942989 68.849654 
L 214.577772 68.849654 
" style="fill:none;stroke:#000000;stroke-linecap:square;stroke-linejoin:miter;stroke-width:0.8;"/>
   </g>
   <g id="patch_23">
    <path d="M 136.942989 10.999219 
L 214.577772 10.999219 
" style="fill:none;stroke:#000000;stroke-linecap:square;stroke-linejoin:miter;stroke-width:0.8;"/>
   </g>
  </g>
  <g id="axes_3">
   <g id="patch_24">
    <path d="M 230.104728 68.849654 
L 307.739511 68.849654 
L 307.739511 10.999219 
L 230.104728 10.999219 
z
" style="fill:#ffffff;"/>
   </g>
   <g id="patch_25">
    <path clip-path="url(#p4bc18d0dc5)" d="M 233.633582 68.849654 
L 253.798461 68.849654 
L 253.798461 65.105916 
L 233.633582 65.105916 
z
"/>
   </g>
   <g id="patch_26">
    <path clip-path="url(#p4bc18d0dc5)" d="M 258.83968 68.849654 
L 279.004559 68.849654 
L 279.004559 25.891259 
L 258.83968 25.891259 
z
"/>
   </g>
   <g id="patch_27">
    <path clip-path="url(#p4bc18d0dc5)" d="M 284.045779 68.849654 
L 304.210657 68.849654 
L 304.210657 25.180762 
L 284.045779 25.180762 
z
"/>
   </g>
   <g id="patch_28">
    <path clip-path="url(#p4bc18d0dc5)" d="M 233.633582 65.105916 
L 253.798461 65.105916 
L 253.798461 64.689945 
L 233.633582 64.689945 
z
"/>
   </g>
   <g id="patch_29">
    <path clip-path="url(#p4bc18d0dc5)" d="M 258.83968 25.891259 
L 279.004559 25.891259 
L 279.004559 21.118104 
L 258.83968 21.118104 
z
"/>
   </g>
   <g id="patch_30">
    <path clip-path="url(#p4bc18d0dc5)" d="M 284.045779 25.180762 
L 304.210657 25.180762 
L 304.210657 20.328663 
L 284.045779 20.328663 
z
"/>
   </g>
   <g id="matplotlib.axis_5"/>
   <g id="matplotlib.axis_6">
    <g id="ytick_9">
     <g id="line2d_9">
      <g>
       <use style="stroke:#000000;stroke-width:0.8;" x="230.104728" xlink:href="#m10b2e47e62" y="68.849654"/>
      </g>
     </g>
    </g>
    <g id="ytick_10">
     <g id="line2d_10">
      <g>
       <use style="stroke:#000000;stroke-width:0.8;" x="230.104728" xlink:href="#m10b2e47e62" y="51.215632"/>
      </g>
     </g>
    </g>
    <g id="ytick_11">
     <g id="line2d_11">
      <g>
       <use style="stroke:#000000;stroke-width:0.8;" x="230.104728" xlink:href="#m10b2e47e62" y="33.58161"/>
      </g>
     </g>
    </g>
    <g id="ytick_12">
     <g id="line2d_12">
      <g>
       <use style="stroke:#000000;stroke-width:0.8;" x="230.104728" xlink:href="#m10b2e47e62" y="15.947589"/>
      </g>
     </g>
    </g>
   </g>
   <g id="patch_31">
    <path d="M 230.104728 68.849654 
L 230.104728 10.999219 
" style="fill:none;stroke:#000000;stroke-linecap:square;stroke-linejoin:miter;stroke-width:0.8;"/>
   </g>
   <g id="patch_32">
    <path d="M 307.739511 68.849654 
L 307.739511 10.999219 
" style="fill:none;stroke:#000000;stroke-linecap:square;stroke-linejoin:miter;stroke-width:0.8;"/>
   </g>
   <g id="patch_33">
    <path d="M 230.104728 68.849654 
L 307.739511 68.849654 
" style="fill:none;stroke:#000000;stroke-linecap:square;stroke-linejoin:miter;stroke-width:0.8;"/>
   </g>
   <g id="patch_34">
    <path d="M 230.104728 10.999219 
L 307.739511 10.999219 
" style="fill:none;stroke:#000000;stroke-linecap:square;stroke-linejoin:miter;stroke-width:0.8;"/>
   </g>
  </g>
  <g id="axes_4">
   <g id="patch_35">
    <path d="M 323.266467 68.849654 
L 400.90125 68.849654 
L 400.90125 10.999219 
L 323.266467 10.999219 
z
" style="fill:#ffffff;"/>
   </g>
   <g id="patch_36">
    <path clip-path="url(#p6ce450c253)" d="M 326.795321 68.849654 
L 336.53009 68.849654 
L 336.53009 34.33547 
L 326.795321 34.33547 
z
"/>
   </g>
   <g id="patch_37">
    <path clip-path="url(#p6ce450c253)" d="M 338.963782 68.849654 
L 348.698551 68.849654 
L 348.698551 34.918866 
L 338.963782 34.918866 
z
"/>
   </g>
   <g id="patch_38">
    <path clip-path="url(#p6ce450c253)" d="M 351.132244 68.849654 
L 360.867013 68.849654 
L 360.867013 20.385553 
L 351.132244 20.385553 
z
"/>
   </g>
   <g id="patch_39">
    <path clip-path="url(#p6ce450c253)" d="M 363.300705 68.849654 
L 373.035474 68.849654 
L 373.035474 68.849654 
L 363.300705 68.849654 
z
"/>
   </g>
   <g id="patch_40">
    <path clip-path="url(#p6ce450c253)" d="M 375.469166 68.849654 
L 385.203935 68.849654 
L 385.203935 26.586394 
L 375.469166 26.586394 
z
"/>
   </g>
   <g id="patch_41">
    <path clip-path="url(#p6ce450c253)" d="M 387.637627 68.849654 
L 397.372396 68.849654 
L 397.372396 24.167302 
L 387.637627 24.167302 
z
"/>
   </g>
   <g id="patch_42">
    <path clip-path="url(#p6ce450c253)" d="M 326.795321 34.33547 
L 336.53009 34.33547 
L 336.53009 30.500561 
L 326.795321 30.500561 
z
" style="fill:#1b9e77;"/>
   </g>
   <g id="patch_43">
    <path clip-path="url(#p6ce450c253)" d="M 338.963782 34.918866 
L 348.698551 34.918866 
L 348.698551 31.148778 
L 338.963782 31.148778 
z
" style="fill:#1b9e77;"/>
   </g>
   <g id="patch_44">
    <path clip-path="url(#p6ce450c253)" d="M 351.132244 20.385553 
L 360.867013 20.385553 
L 360.867013 15.000653 
L 351.132244 15.000653 
z
" style="fill:#1b9e77;"/>
   </g>
   <g id="patch_45">
    <path clip-path="url(#p6ce450c253)" d="M 363.300705 68.849654 
L 373.035474 68.849654 
L 373.035474 68.849654 
L 363.300705 68.849654 
z
"/>
   </g>
   <g id="patch_46">
    <path clip-path="url(#p6ce450c253)" d="M 375.469166 26.586394 
L 385.203935 26.586394 
L 385.203935 21.890476 
L 375.469166 21.890476 
z
"/>
   </g>
   <g id="patch_47">
    <path clip-path="url(#p6ce450c253)" d="M 387.637627 24.167302 
L 397.372396 24.167302 
L 397.372396 19.202596 
L 387.637627 19.202596 
z
"/>
   </g>
   <g id="matplotlib.axis_7"/>
   <g id="matplotlib.axis_8">
    <g id="ytick_13">
     <g id="line2d_13">
      <g>
       <use style="stroke:#000000;stroke-width:0.8;" x="323.266467" xlink:href="#m10b2e47e62" y="68.849654"/>
      </g>
     </g>
    </g>
    <g id="ytick_14">
     <g id="line2d_14">
      <g>
       <use style="stroke:#000000;stroke-width:0.8;" x="323.266467" xlink:href="#m10b2e47e62" y="51.215632"/>
      </g>
     </g>
    </g>
    <g id="ytick_15">
     <g id="line2d_15">
      <g>
       <use style="stroke:#000000;stroke-width:0.8;" x="323.266467" xlink:href="#m10b2e47e62" y="33.58161"/>
      </g>
     </g>
    </g>
    <g id="ytick_16">
     <g id="line2d_16">
      <g>
       <use style="stroke:#000000;stroke-width:0.8;" x="323.266467" xlink:href="#m10b2e47e62" y="15.947589"/>
      </g>
     </g>
    </g>
   </g>
   <g id="patch_48">
    <path d="M 323.266467 68.849654 
L 323.266467 10.999219 
" style="fill:none;stroke:#000000;stroke-linecap:square;stroke-linejoin:miter;stroke-width:0.8;"/>
   </g>
   <g id="patch_49">
    <path d="M 400.90125 68.849654 
L 400.90125 10.999219 
" style="fill:none;stroke:#000000;stroke-linecap:square;stroke-linejoin:miter;stroke-width:0.8;"/>
   </g>
   <g id="patch_50">
    <path d="M 323.266467 68.849654 
L 400.90125 68.849654 
" style="fill:none;stroke:#000000;stroke-linecap:square;stroke-linejoin:miter;stroke-width:0.8;"/>
   </g>
   <g id="patch_51">
    <path d="M 323.266467 10.999219 
L 400.90125 10.999219 
" style="fill:none;stroke:#000000;stroke-linecap:square;stroke-linejoin:miter;stroke-width:0.8;"/>
   </g>
  </g>
  <g id="axes_5">
   <g id="patch_52">
    <path d="M 43.78125 138.270175 
L 121.416033 138.270175 
L 121.416033 80.41974 
L 43.78125 80.41974 
z
" style="fill:#ffffff;"/>
   </g>
   <g id="patch_53">
    <path clip-path="url(#pd145dcc60b)" d="M 47.310104 138.270175 
L 67.474982 138.270175 
L 67.474982 111.194825 
L 47.310104 111.194825 
z
" style="fill:#d95f02;"/>
   </g>
   <g id="patch_54">
    <path clip-path="url(#pd145dcc60b)" d="M 72.516202 138.270175 
L 92.681081 138.270175 
L 92.681081 96.877405 
L 72.516202 96.877405 
z
"/>
   </g>
   <g id="patch_55">
    <path clip-path="url(#pd145dcc60b)" d="M 97.7223 138.270175 
L 117.887179 138.270175 
L 117.887179 94.129232 
L 97.7223 94.129232 
z
"/>
   </g>
   <g id="patch_56">
    <path clip-path="url(#pd145dcc60b)" d="M 47.310104 111.194825 
L 67.474982 111.194825 
L 67.474982 108.186453 
L 47.310104 108.186453 
z
" style="fill:#1b9e77;"/>
   </g>
   <g id="patch_57">
    <path clip-path="url(#pd145dcc60b)" d="M 72.516202 96.877405 
L 92.681081 96.877405 
L 92.681081 92.278208 
L 72.516202 92.278208 
z
" style="fill:#1b9e77;"/>
   </g>
   <g id="patch_58">
    <path clip-path="url(#pd145dcc60b)" d="M 97.7223 94.129232 
L 117.887179 94.129232 
L 117.887179 89.224683 
L 97.7223 89.224683 
z
" style="fill:#d95f02;"/>
   </g>
   <g id="matplotlib.axis_9"/>
   <g id="matplotlib.axis_10">
    <g id="ytick_17">
     <g id="line2d_17">
      <g>
       <use style="stroke:#000000;stroke-width:0.8;" x="43.78125" xlink:href="#m10b2e47e62" y="138.270175"/>
      </g>
     </g>
     <g id="text_5">
      <!-- 0.00 -->
      <g transform="translate(14.515625 142.069394)scale(0.1 -0.1)">
       <use xlink:href="#DejaVuSans-30"/>
       <use x="63.623047" xlink:href="#DejaVuSans-2e"/>
       <use x="95.410156" xlink:href="#DejaVuSans-30"/>
       <use x="159.033203" xlink:href="#DejaVuSans-30"/>
      </g>
     </g>
    </g>
    <g id="ytick_18">
     <g id="line2d_18">
      <g>
       <use style="stroke:#000000;stroke-width:0.8;" x="43.78125" xlink:href="#m10b2e47e62" y="120.636154"/>
      </g>
     </g>
     <g id="text_6">
      <!-- 0.25 -->
      <g transform="translate(14.515625 124.435372)scale(0.1 -0.1)">
       <use xlink:href="#DejaVuSans-30"/>
       <use x="63.623047" xlink:href="#DejaVuSans-2e"/>
       <use x="95.410156" xlink:href="#DejaVuSans-32"/>
       <use x="159.033203" xlink:href="#DejaVuSans-35"/>
      </g>
     </g>
    </g>
    <g id="ytick_19">
     <g id="line2d_19">
      <g>
       <use style="stroke:#000000;stroke-width:0.8;" x="43.78125" xlink:href="#m10b2e47e62" y="103.002132"/>
      </g>
     </g>
     <g id="text_7">
      <!-- 0.50 -->
      <g transform="translate(14.515625 106.801351)scale(0.1 -0.1)">
       <use xlink:href="#DejaVuSans-30"/>
       <use x="63.623047" xlink:href="#DejaVuSans-2e"/>
       <use x="95.410156" xlink:href="#DejaVuSans-35"/>
       <use x="159.033203" xlink:href="#DejaVuSans-30"/>
      </g>
     </g>
    </g>
    <g id="ytick_20">
     <g id="line2d_20">
      <g>
       <use style="stroke:#000000;stroke-width:0.8;" x="43.78125" xlink:href="#m10b2e47e62" y="85.36811"/>
      </g>
     </g>
     <g id="text_8">
      <!-- 0.75 -->
      <g transform="translate(14.515625 89.167329)scale(0.1 -0.1)">
       <use xlink:href="#DejaVuSans-30"/>
       <use x="63.623047" xlink:href="#DejaVuSans-2e"/>
       <use x="95.410156" xlink:href="#DejaVuSans-37"/>
       <use x="159.033203" xlink:href="#DejaVuSans-35"/>
      </g>
     </g>
    </g>
   </g>
   <g id="patch_59">
    <path d="M 43.78125 138.270175 
L 43.78125 80.41974 
" style="fill:none;stroke:#000000;stroke-linecap:square;stroke-linejoin:miter;stroke-width:0.8;"/>
   </g>
   <g id="patch_60">
    <path d="M 121.416033 138.270175 
L 121.416033 80.41974 
" style="fill:none;stroke:#000000;stroke-linecap:square;stroke-linejoin:miter;stroke-width:0.8;"/>
   </g>
   <g id="patch_61">
    <path d="M 43.78125 138.270175 
L 121.416033 138.270175 
" style="fill:none;stroke:#000000;stroke-linecap:square;stroke-linejoin:miter;stroke-width:0.8;"/>
   </g>
   <g id="patch_62">
    <path d="M 43.78125 80.41974 
L 121.416033 80.41974 
" style="fill:none;stroke:#000000;stroke-linecap:square;stroke-linejoin:miter;stroke-width:0.8;"/>
   </g>
  </g>
  <g id="axes_6">
   <g id="patch_63">
    <path d="M 136.942989 138.270175 
L 214.577772 138.270175 
L 214.577772 80.41974 
L 136.942989 80.41974 
z
" style="fill:#ffffff;"/>
   </g>
   <g id="patch_64">
    <path clip-path="url(#peb7063f8e3)" d="M 140.471843 138.270175 
L 160.636721 138.270175 
L 160.636721 106.779334 
L 140.471843 106.779334 
z
"/>
   </g>
   <g id="patch_65">
    <path clip-path="url(#peb7063f8e3)" d="M 165.677941 138.270175 
L 185.84282 138.270175 
L 185.84282 94.249035 
L 165.677941 94.249035 
z
"/>
   </g>
   <g id="patch_66">
    <path clip-path="url(#peb7063f8e3)" d="M 190.884039 138.270175 
L 211.048918 138.270175 
L 211.048918 94.213378 
L 190.884039 94.213378 
z
"/>
   </g>
   <g id="patch_67">
    <path clip-path="url(#peb7063f8e3)" d="M 140.471843 106.779334 
L 160.636721 106.779334 
L 160.636721 103.280352 
L 140.471843 103.280352 
z
" style="fill:#1b9e77;"/>
   </g>
   <g id="patch_68">
    <path clip-path="url(#peb7063f8e3)" d="M 165.677941 94.249035 
L 185.84282 94.249035 
L 185.84282 89.357797 
L 165.677941 89.357797 
z
" style="fill:#1b9e77;"/>
   </g>
   <g id="patch_69">
    <path clip-path="url(#peb7063f8e3)" d="M 190.884039 94.213378 
L 211.048918 94.213378 
L 211.048918 89.318178 
L 190.884039 89.318178 
z
"/>
   </g>
   <g id="matplotlib.axis_11"/>
   <g id="matplotlib.axis_12">
    <g id="ytick_21">
     <g id="line2d_21">
      <g>
       <use style="stroke:#000000;stroke-width:0.8;" x="136.942989" xlink:href="#m10b2e47e62" y="138.270175"/>
      </g>
     </g>
    </g>
    <g id="ytick_22">
     <g id="line2d_22">
      <g>
       <use style="stroke:#000000;stroke-width:0.8;" x="136.942989" xlink:href="#m10b2e47e62" y="120.636154"/>
      </g>
     </g>
    </g>
    <g id="ytick_23">
     <g id="line2d_23">
      <g>
       <use style="stroke:#000000;stroke-width:0.8;" x="136.942989" xlink:href="#m10b2e47e62" y="103.002132"/>
      </g>
     </g>
    </g>
    <g id="ytick_24">
     <g id="line2d_24">
      <g>
       <use style="stroke:#000000;stroke-width:0.8;" x="136.942989" xlink:href="#m10b2e47e62" y="85.36811"/>
      </g>
     </g>
    </g>
   </g>
   <g id="patch_70">
    <path d="M 136.942989 138.270175 
L 136.942989 80.41974 
" style="fill:none;stroke:#000000;stroke-linecap:square;stroke-linejoin:miter;stroke-width:0.8;"/>
   </g>
   <g id="patch_71">
    <path d="M 214.577772 138.270175 
L 214.577772 80.41974 
" style="fill:none;stroke:#000000;stroke-linecap:square;stroke-linejoin:miter;stroke-width:0.8;"/>
   </g>
   <g id="patch_72">
    <path d="M 136.942989 138.270175 
L 214.577772 138.270175 
" style="fill:none;stroke:#000000;stroke-linecap:square;stroke-linejoin:miter;stroke-width:0.8;"/>
   </g>
   <g id="patch_73">
    <path d="M 136.942989 80.41974 
L 214.577772 80.41974 
" style="fill:none;stroke:#000000;stroke-linecap:square;stroke-linejoin:miter;stroke-width:0.8;"/>
   </g>
  </g>
  <g id="axes_7">
   <g id="patch_74">
    <path d="M 230.104728 138.270175 
L 307.739511 138.270175 
L 307.739511 80.41974 
L 230.104728 80.41974 
z
" style="fill:#ffffff;"/>
   </g>
   <g id="patch_75">
    <path clip-path="url(#pb14c39c4a0)" d="M 233.633582 138.270175 
L 253.798461 138.270175 
L 253.798461 103.06719 
L 233.633582 103.06719 
z
" style="fill:#d95f02;"/>
   </g>
   <g id="patch_76">
    <path clip-path="url(#pb14c39c4a0)" d="M 258.83968 138.270175 
L 279.004559 138.270175 
L 279.004559 92.090804 
L 258.83968 92.090804 
z
"/>
   </g>
   <g id="patch_77">
    <path clip-path="url(#pb14c39c4a0)" d="M 284.045779 138.270175 
L 304.210657 138.270175 
L 304.210657 90.36903 
L 284.045779 90.36903 
z
"/>
   </g>
   <g id="patch_78">
    <path clip-path="url(#pb14c39c4a0)" d="M 233.633582 103.06719 
L 253.798461 103.06719 
L 253.798461 99.155747 
L 233.633582 99.155747 
z
" style="fill:#1b9e77;"/>
   </g>
   <g id="patch_79">
    <path clip-path="url(#pb14c39c4a0)" d="M 258.83968 92.090804 
L 279.004559 92.090804 
L 279.004559 86.959763 
L 258.83968 86.959763 
z
" style="fill:#1b9e77;"/>
   </g>
   <g id="patch_80">
    <path clip-path="url(#pb14c39c4a0)" d="M 284.045779 90.36903 
L 304.210657 90.36903 
L 304.210657 85.046681 
L 284.045779 85.046681 
z
" style="fill:#d95f02;"/>
   </g>
   <g id="matplotlib.axis_13"/>
   <g id="matplotlib.axis_14">
    <g id="ytick_25">
     <g id="line2d_25">
      <g>
       <use style="stroke:#000000;stroke-width:0.8;" x="230.104728" xlink:href="#m10b2e47e62" y="138.270175"/>
      </g>
     </g>
    </g>
    <g id="ytick_26">
     <g id="line2d_26">
      <g>
       <use style="stroke:#000000;stroke-width:0.8;" x="230.104728" xlink:href="#m10b2e47e62" y="120.636154"/>
      </g>
     </g>
    </g>
    <g id="ytick_27">
     <g id="line2d_27">
      <g>
       <use style="stroke:#000000;stroke-width:0.8;" x="230.104728" xlink:href="#m10b2e47e62" y="103.002132"/>
      </g>
     </g>
    </g>
    <g id="ytick_28">
     <g id="line2d_28">
      <g>
       <use style="stroke:#000000;stroke-width:0.8;" x="230.104728" xlink:href="#m10b2e47e62" y="85.36811"/>
      </g>
     </g>
    </g>
   </g>
   <g id="patch_81">
    <path d="M 230.104728 138.270175 
L 230.104728 80.41974 
" style="fill:none;stroke:#000000;stroke-linecap:square;stroke-linejoin:miter;stroke-width:0.8;"/>
   </g>
   <g id="patch_82">
    <path d="M 307.739511 138.270175 
L 307.739511 80.41974 
" style="fill:none;stroke:#000000;stroke-linecap:square;stroke-linejoin:miter;stroke-width:0.8;"/>
   </g>
   <g id="patch_83">
    <path d="M 230.104728 138.270175 
L 307.739511 138.270175 
" style="fill:none;stroke:#000000;stroke-linecap:square;stroke-linejoin:miter;stroke-width:0.8;"/>
   </g>
   <g id="patch_84">
    <path d="M 230.104728 80.41974 
L 307.739511 80.41974 
" style="fill:none;stroke:#000000;stroke-linecap:square;stroke-linejoin:miter;stroke-width:0.8;"/>
   </g>
  </g>
  <g id="axes_8">
   <g id="patch_85">
    <path d="M 323.266467 138.270175 
L 400.90125 138.270175 
L 400.90125 80.41974 
L 323.266467 80.41974 
z
" style="fill:#ffffff;"/>
   </g>
   <g id="patch_86">
    <path clip-path="url(#pde8d727cf0)" d="M 326.795321 138.270175 
L 346.9602 138.270175 
L 346.9602 106.861296 
L 326.795321 106.861296 
z
" style="fill:#d95f02;"/>
   </g>
   <g id="patch_87">
    <path clip-path="url(#pde8d727cf0)" d="M 352.001419 138.270175 
L 372.166298 138.270175 
L 372.166298 94.737712 
L 352.001419 94.737712 
z
"/>
   </g>
   <g id="patch_88">
    <path clip-path="url(#pde8d727cf0)" d="M 377.207518 138.270175 
L 397.372396 138.270175 
L 397.372396 96.87987 
L 377.207518 96.87987 
z
"/>
   </g>
   <g id="patch_89">
    <path clip-path="url(#pde8d727cf0)" d="M 326.795321 106.861296 
L 346.9602 106.861296 
L 346.9602 103.371421 
L 326.795321 103.371421 
z
" style="fill:#1b9e77;"/>
   </g>
   <g id="patch_90">
    <path clip-path="url(#pde8d727cf0)" d="M 352.001419 94.737712 
L 372.166298 94.737712 
L 372.166298 89.900771 
L 352.001419 89.900771 
z
" style="fill:#1b9e77;"/>
   </g>
   <g id="patch_91">
    <path clip-path="url(#pde8d727cf0)" d="M 377.207518 96.87987 
L 397.372396 96.87987 
L 397.372396 92.280947 
L 377.207518 92.280947 
z
" style="fill:#d95f02;"/>
   </g>
   <g id="matplotlib.axis_15"/>
   <g id="matplotlib.axis_16">
    <g id="ytick_29">
     <g id="line2d_29">
      <g>
       <use style="stroke:#000000;stroke-width:0.8;" x="323.266467" xlink:href="#m10b2e47e62" y="138.270175"/>
      </g>
     </g>
    </g>
    <g id="ytick_30">
     <g id="line2d_30">
      <g>
       <use style="stroke:#000000;stroke-width:0.8;" x="323.266467" xlink:href="#m10b2e47e62" y="120.636154"/>
      </g>
     </g>
    </g>
    <g id="ytick_31">
     <g id="line2d_31">
      <g>
       <use style="stroke:#000000;stroke-width:0.8;" x="323.266467" xlink:href="#m10b2e47e62" y="103.002132"/>
      </g>
     </g>
    </g>
    <g id="ytick_32">
     <g id="line2d_32">
      <g>
       <use style="stroke:#000000;stroke-width:0.8;" x="323.266467" xlink:href="#m10b2e47e62" y="85.36811"/>
      </g>
     </g>
    </g>
   </g>
   <g id="patch_92">
    <path d="M 323.266467 138.270175 
L 323.266467 80.41974 
" style="fill:none;stroke:#000000;stroke-linecap:square;stroke-linejoin:miter;stroke-width:0.8;"/>
   </g>
   <g id="patch_93">
    <path d="M 400.90125 138.270175 
L 400.90125 80.41974 
" style="fill:none;stroke:#000000;stroke-linecap:square;stroke-linejoin:miter;stroke-width:0.8;"/>
   </g>
   <g id="patch_94">
    <path d="M 323.266467 138.270175 
L 400.90125 138.270175 
" style="fill:none;stroke:#000000;stroke-linecap:square;stroke-linejoin:miter;stroke-width:0.8;"/>
   </g>
   <g id="patch_95">
    <path d="M 323.266467 80.41974 
L 400.90125 80.41974 
" style="fill:none;stroke:#000000;stroke-linecap:square;stroke-linejoin:miter;stroke-width:0.8;"/>
   </g>
  </g>
  <g id="axes_9">
   <g id="patch_96">
    <path d="M 43.78125 207.690697 
L 121.416033 207.690697 
L 121.416033 149.840262 
L 43.78125 149.840262 
z
" style="fill:#ffffff;"/>
   </g>
   <g id="patch_97">
    <path clip-path="url(#p4f0f7925ca)" d="M 47.310104 207.690697 
L 67.474982 207.690697 
L 67.474982 176.325008 
L 47.310104 176.325008 
z
"/>
   </g>
   <g id="patch_98">
    <path clip-path="url(#p4f0f7925ca)" d="M 72.516202 207.690697 
L 92.681081 207.690697 
L 92.681081 165.958676 
L 72.516202 165.958676 
z
"/>
   </g>
   <g id="patch_99">
    <path clip-path="url(#p4f0f7925ca)" d="M 97.7223 207.690697 
L 117.887179 207.690697 
L 117.887179 165.075993 
L 97.7223 165.075993 
z
"/>
   </g>
   <g id="patch_100">
    <path clip-path="url(#p4f0f7925ca)" d="M 47.310104 176.325008 
L 67.474982 176.325008 
L 67.474982 172.839931 
L 47.310104 172.839931 
z
" style="fill:#1b9e77;"/>
   </g>
   <g id="patch_101">
    <path clip-path="url(#p4f0f7925ca)" d="M 72.516202 165.958676 
L 92.681081 165.958676 
L 92.681081 161.321784 
L 72.516202 161.321784 
z
" style="fill:#1b9e77;"/>
   </g>
   <g id="patch_102">
    <path clip-path="url(#p4f0f7925ca)" d="M 97.7223 165.075993 
L 117.887179 165.075993 
L 117.887179 160.341026 
L 97.7223 160.341026 
z
"/>
   </g>
   <g id="matplotlib.axis_17"/>
   <g id="matplotlib.axis_18">
    <g id="ytick_33">
     <g id="line2d_33">
      <g>
       <use style="stroke:#000000;stroke-width:0.8;" x="43.78125" xlink:href="#m10b2e47e62" y="207.690697"/>
      </g>
     </g>
     <g id="text_9">
      <!-- 0.00 -->
      <g transform="translate(14.515625 211.489916)scale(0.1 -0.1)">
       <use xlink:href="#DejaVuSans-30"/>
       <use x="63.623047" xlink:href="#DejaVuSans-2e"/>
       <use x="95.410156" xlink:href="#DejaVuSans-30"/>
       <use x="159.033203" xlink:href="#DejaVuSans-30"/>
      </g>
     </g>
    </g>
    <g id="ytick_34">
     <g id="line2d_34">
      <g>
       <use style="stroke:#000000;stroke-width:0.8;" x="43.78125" xlink:href="#m10b2e47e62" y="190.056675"/>
      </g>
     </g>
     <g id="text_10">
      <!-- 0.25 -->
      <g transform="translate(14.515625 193.855894)scale(0.1 -0.1)">
       <use xlink:href="#DejaVuSans-30"/>
       <use x="63.623047" xlink:href="#DejaVuSans-2e"/>
       <use x="95.410156" xlink:href="#DejaVuSans-32"/>
       <use x="159.033203" xlink:href="#DejaVuSans-35"/>
      </g>
     </g>
    </g>
    <g id="ytick_35">
     <g id="line2d_35">
      <g>
       <use style="stroke:#000000;stroke-width:0.8;" x="43.78125" xlink:href="#m10b2e47e62" y="172.422654"/>
      </g>
     </g>
     <g id="text_11">
      <!-- 0.50 -->
      <g transform="translate(14.515625 176.221872)scale(0.1 -0.1)">
       <use xlink:href="#DejaVuSans-30"/>
       <use x="63.623047" xlink:href="#DejaVuSans-2e"/>
       <use x="95.410156" xlink:href="#DejaVuSans-35"/>
       <use x="159.033203" xlink:href="#DejaVuSans-30"/>
      </g>
     </g>
    </g>
    <g id="ytick_36">
     <g id="line2d_36">
      <g>
       <use style="stroke:#000000;stroke-width:0.8;" x="43.78125" xlink:href="#m10b2e47e62" y="154.788632"/>
      </g>
     </g>
     <g id="text_12">
      <!-- 0.75 -->
      <g transform="translate(14.515625 158.587851)scale(0.1 -0.1)">
       <use xlink:href="#DejaVuSans-30"/>
       <use x="63.623047" xlink:href="#DejaVuSans-2e"/>
       <use x="95.410156" xlink:href="#DejaVuSans-37"/>
       <use x="159.033203" xlink:href="#DejaVuSans-35"/>
      </g>
     </g>
    </g>
   </g>
   <g id="patch_103">
    <path d="M 43.78125 207.690697 
L 43.78125 149.840262 
" style="fill:none;stroke:#000000;stroke-linecap:square;stroke-linejoin:miter;stroke-width:0.8;"/>
   </g>
   <g id="patch_104">
    <path d="M 121.416033 207.690697 
L 121.416033 149.840262 
" style="fill:none;stroke:#000000;stroke-linecap:square;stroke-linejoin:miter;stroke-width:0.8;"/>
   </g>
   <g id="patch_105">
    <path d="M 43.78125 207.690697 
L 121.416033 207.690697 
" style="fill:none;stroke:#000000;stroke-linecap:square;stroke-linejoin:miter;stroke-width:0.8;"/>
   </g>
   <g id="patch_106">
    <path d="M 43.78125 149.840262 
L 121.416033 149.840262 
" style="fill:none;stroke:#000000;stroke-linecap:square;stroke-linejoin:miter;stroke-width:0.8;"/>
   </g>
  </g>
  <g id="axes_10">
   <g id="patch_107">
    <path d="M 136.942989 207.690697 
L 214.577772 207.690697 
L 214.577772 149.840262 
L 136.942989 149.840262 
z
" style="fill:#ffffff;"/>
   </g>
   <g id="patch_108">
    <path clip-path="url(#p87ad4842fe)" d="M 140.471843 207.690697 
L 160.636721 207.690697 
L 160.636721 173.661691 
L 140.471843 173.661691 
z
" style="fill:#d95f02;"/>
   </g>
   <g id="patch_109">
    <path clip-path="url(#p87ad4842fe)" d="M 165.677941 207.690697 
L 185.84282 207.690697 
L 185.84282 163.276999 
L 165.677941 163.276999 
z
"/>
   </g>
   <g id="patch_110">
    <path clip-path="url(#p87ad4842fe)" d="M 190.884039 207.690697 
L 211.048918 207.690697 
L 211.048918 163.978753 
L 190.884039 163.978753 
z
"/>
   </g>
   <g id="patch_111">
    <path clip-path="url(#p87ad4842fe)" d="M 140.471843 173.661691 
L 160.636721 173.661691 
L 160.636721 169.880691 
L 140.471843 169.880691 
z
" style="fill:#7570b3;"/>
   </g>
   <g id="patch_112">
    <path clip-path="url(#p87ad4842fe)" d="M 165.677941 163.276999 
L 185.84282 163.276999 
L 185.84282 158.342144 
L 165.677941 158.342144 
z
" style="fill:#d95f02;"/>
   </g>
   <g id="patch_113">
    <path clip-path="url(#p87ad4842fe)" d="M 190.884039 163.978753 
L 211.048918 163.978753 
L 211.048918 159.12187 
L 190.884039 159.12187 
z
" style="fill:#7570b3;"/>
   </g>
   <g id="matplotlib.axis_19"/>
   <g id="matplotlib.axis_20">
    <g id="ytick_37">
     <g id="line2d_37">
      <g>
       <use style="stroke:#000000;stroke-width:0.8;" x="136.942989" xlink:href="#m10b2e47e62" y="207.690697"/>
      </g>
     </g>
    </g>
    <g id="ytick_38">
     <g id="line2d_38">
      <g>
       <use style="stroke:#000000;stroke-width:0.8;" x="136.942989" xlink:href="#m10b2e47e62" y="190.056675"/>
      </g>
     </g>
    </g>
    <g id="ytick_39">
     <g id="line2d_39">
      <g>
       <use style="stroke:#000000;stroke-width:0.8;" x="136.942989" xlink:href="#m10b2e47e62" y="172.422654"/>
      </g>
     </g>
    </g>
    <g id="ytick_40">
     <g id="line2d_40">
      <g>
       <use style="stroke:#000000;stroke-width:0.8;" x="136.942989" xlink:href="#m10b2e47e62" y="154.788632"/>
      </g>
     </g>
    </g>
   </g>
   <g id="patch_114">
    <path d="M 136.942989 207.690697 
L 136.942989 149.840262 
" style="fill:none;stroke:#000000;stroke-linecap:square;stroke-linejoin:miter;stroke-width:0.8;"/>
   </g>
   <g id="patch_115">
    <path d="M 214.577772 207.690697 
L 214.577772 149.840262 
" style="fill:none;stroke:#000000;stroke-linecap:square;stroke-linejoin:miter;stroke-width:0.8;"/>
   </g>
   <g id="patch_116">
    <path d="M 136.942989 207.690697 
L 214.577772 207.690697 
" style="fill:none;stroke:#000000;stroke-linecap:square;stroke-linejoin:miter;stroke-width:0.8;"/>
   </g>
   <g id="patch_117">
    <path d="M 136.942989 149.840262 
L 214.577772 149.840262 
" style="fill:none;stroke:#000000;stroke-linecap:square;stroke-linejoin:miter;stroke-width:0.8;"/>
   </g>
  </g>
  <g id="axes_11">
   <g id="patch_118">
    <path d="M 230.104728 207.690697 
L 307.739511 207.690697 
L 307.739511 149.840262 
L 230.104728 149.840262 
z
" style="fill:#ffffff;"/>
   </g>
   <g id="patch_119">
    <path clip-path="url(#pf2a9e0d4ae)" d="M 233.633582 207.690697 
L 253.798461 207.690697 
L 253.798461 175.250977 
L 233.633582 175.250977 
z
" style="fill:#d95f02;"/>
   </g>
   <g id="patch_120">
    <path clip-path="url(#pf2a9e0d4ae)" d="M 258.83968 207.690697 
L 279.004559 207.690697 
L 279.004559 165.047684 
L 258.83968 165.047684 
z
"/>
   </g>
   <g id="patch_121">
    <path clip-path="url(#pf2a9e0d4ae)" d="M 284.045779 207.690697 
L 304.210657 207.690697 
L 304.210657 165.475188 
L 284.045779 165.475188 
z
"/>
   </g>
   <g id="patch_122">
    <path clip-path="url(#pf2a9e0d4ae)" d="M 233.633582 175.250977 
L 253.798461 175.250977 
L 253.798461 171.646563 
L 233.633582 171.646563 
z
" style="fill:#1b9e77;"/>
   </g>
   <g id="patch_123">
    <path clip-path="url(#pf2a9e0d4ae)" d="M 258.83968 165.047684 
L 279.004559 165.047684 
L 279.004559 160.309571 
L 258.83968 160.309571 
z
" style="fill:#1b9e77;"/>
   </g>
   <g id="patch_124">
    <path clip-path="url(#pf2a9e0d4ae)" d="M 284.045779 165.475188 
L 304.210657 165.475188 
L 304.210657 160.784576 
L 284.045779 160.784576 
z
" style="fill:#d95f02;"/>
   </g>
   <g id="matplotlib.axis_21"/>
   <g id="matplotlib.axis_22">
    <g id="ytick_41">
     <g id="line2d_41">
      <g>
       <use style="stroke:#000000;stroke-width:0.8;" x="230.104728" xlink:href="#m10b2e47e62" y="207.690697"/>
      </g>
     </g>
    </g>
    <g id="ytick_42">
     <g id="line2d_42">
      <g>
       <use style="stroke:#000000;stroke-width:0.8;" x="230.104728" xlink:href="#m10b2e47e62" y="190.056675"/>
      </g>
     </g>
    </g>
    <g id="ytick_43">
     <g id="line2d_43">
      <g>
       <use style="stroke:#000000;stroke-width:0.8;" x="230.104728" xlink:href="#m10b2e47e62" y="172.422654"/>
      </g>
     </g>
    </g>
    <g id="ytick_44">
     <g id="line2d_44">
      <g>
       <use style="stroke:#000000;stroke-width:0.8;" x="230.104728" xlink:href="#m10b2e47e62" y="154.788632"/>
      </g>
     </g>
    </g>
   </g>
   <g id="patch_125">
    <path d="M 230.104728 207.690697 
L 230.104728 149.840262 
" style="fill:none;stroke:#000000;stroke-linecap:square;stroke-linejoin:miter;stroke-width:0.8;"/>
   </g>
   <g id="patch_126">
    <path d="M 307.739511 207.690697 
L 307.739511 149.840262 
" style="fill:none;stroke:#000000;stroke-linecap:square;stroke-linejoin:miter;stroke-width:0.8;"/>
   </g>
   <g id="patch_127">
    <path d="M 230.104728 207.690697 
L 307.739511 207.690697 
" style="fill:none;stroke:#000000;stroke-linecap:square;stroke-linejoin:miter;stroke-width:0.8;"/>
   </g>
   <g id="patch_128">
    <path d="M 230.104728 149.840262 
L 307.739511 149.840262 
" style="fill:none;stroke:#000000;stroke-linecap:square;stroke-linejoin:miter;stroke-width:0.8;"/>
   </g>
  </g>
  <g id="axes_12">
   <g id="patch_129">
    <path d="M 323.266467 207.690697 
L 400.90125 207.690697 
L 400.90125 149.840262 
L 323.266467 149.840262 
z
" style="fill:#ffffff;"/>
   </g>
   <g id="patch_130">
    <path clip-path="url(#p746d7341a2)" d="M 326.795321 207.690697 
L 346.9602 207.690697 
L 346.9602 171.771746 
L 326.795321 171.771746 
z
"/>
   </g>
   <g id="patch_131">
    <path clip-path="url(#p746d7341a2)" d="M 352.001419 207.690697 
L 372.166298 207.690697 
L 372.166298 164.757763 
L 352.001419 164.757763 
z
"/>
   </g>
   <g id="patch_132">
    <path clip-path="url(#p746d7341a2)" d="M 377.207518 207.690697 
L 397.372396 207.690697 
L 397.372396 163.849655 
L 377.207518 163.849655 
z
"/>
   </g>
   <g id="patch_133">
    <path clip-path="url(#p746d7341a2)" d="M 326.795321 171.771746 
L 346.9602 171.771746 
L 346.9602 167.780751 
L 326.795321 167.780751 
z
" style="fill:#1b9e77;"/>
   </g>
   <g id="patch_134">
    <path clip-path="url(#p746d7341a2)" d="M 352.001419 164.757763 
L 372.166298 164.757763 
L 372.166298 159.987437 
L 352.001419 159.987437 
z
" style="fill:#1b9e77;"/>
   </g>
   <g id="patch_135">
    <path clip-path="url(#p746d7341a2)" d="M 377.207518 163.849655 
L 397.372396 163.849655 
L 397.372396 158.978428 
L 377.207518 158.978428 
z
"/>
   </g>
   <g id="matplotlib.axis_23"/>
   <g id="matplotlib.axis_24">
    <g id="ytick_45">
     <g id="line2d_45">
      <g>
       <use style="stroke:#000000;stroke-width:0.8;" x="323.266467" xlink:href="#m10b2e47e62" y="207.690697"/>
      </g>
     </g>
    </g>
    <g id="ytick_46">
     <g id="line2d_46">
      <g>
       <use style="stroke:#000000;stroke-width:0.8;" x="323.266467" xlink:href="#m10b2e47e62" y="190.056675"/>
      </g>
     </g>
    </g>
    <g id="ytick_47">
     <g id="line2d_47">
      <g>
       <use style="stroke:#000000;stroke-width:0.8;" x="323.266467" xlink:href="#m10b2e47e62" y="172.422654"/>
      </g>
     </g>
    </g>
    <g id="ytick_48">
     <g id="line2d_48">
      <g>
       <use style="stroke:#000000;stroke-width:0.8;" x="323.266467" xlink:href="#m10b2e47e62" y="154.788632"/>
      </g>
     </g>
    </g>
   </g>
   <g id="patch_136">
    <path d="M 323.266467 207.690697 
L 323.266467 149.840262 
" style="fill:none;stroke:#000000;stroke-linecap:square;stroke-linejoin:miter;stroke-width:0.8;"/>
   </g>
   <g id="patch_137">
    <path d="M 400.90125 207.690697 
L 400.90125 149.840262 
" style="fill:none;stroke:#000000;stroke-linecap:square;stroke-linejoin:miter;stroke-width:0.8;"/>
   </g>
   <g id="patch_138">
    <path d="M 323.266467 207.690697 
L 400.90125 207.690697 
" style="fill:none;stroke:#000000;stroke-linecap:square;stroke-linejoin:miter;stroke-width:0.8;"/>
   </g>
   <g id="patch_139">
    <path d="M 323.266467 149.840262 
L 400.90125 149.840262 
" style="fill:none;stroke:#000000;stroke-linecap:square;stroke-linejoin:miter;stroke-width:0.8;"/>
   </g>
  </g>
  <g id="axes_13">
   <g id="patch_140">
    <path d="M 43.78125 277.111219 
L 121.416033 277.111219 
L 121.416033 219.260784 
L 43.78125 219.260784 
z
" style="fill:#ffffff;"/>
   </g>
   <g id="patch_141">
    <path clip-path="url(#pe9e29f1909)" d="M 47.310104 277.111219 
L 67.474982 277.111219 
L 67.474982 240.021137 
L 47.310104 240.021137 
z
"/>
   </g>
   <g id="patch_142">
    <path clip-path="url(#pe9e29f1909)" d="M 72.516202 277.111219 
L 92.681081 277.111219 
L 92.681081 234.558659 
L 72.516202 234.558659 
z
"/>
   </g>
   <g id="patch_143">
    <path clip-path="url(#pe9e29f1909)" d="M 97.7223 277.111219 
L 117.887179 277.111219 
L 117.887179 231.514961 
L 97.7223 231.514961 
z
"/>
   </g>
   <g id="patch_144">
    <path clip-path="url(#pe9e29f1909)" d="M 47.310104 240.021137 
L 67.474982 240.021137 
L 67.474982 235.900017 
L 47.310104 235.900017 
z
" style="fill:#1b9e77;"/>
   </g>
   <g id="patch_145">
    <path clip-path="url(#pe9e29f1909)" d="M 72.516202 234.558659 
L 92.681081 234.558659 
L 92.681081 229.830597 
L 72.516202 229.830597 
z
" style="fill:#1b9e77;"/>
   </g>
   <g id="patch_146">
    <path clip-path="url(#pe9e29f1909)" d="M 97.7223 231.514961 
L 117.887179 231.514961 
L 117.887179 226.448711 
L 97.7223 226.448711 
z
"/>
   </g>
   <g id="matplotlib.axis_25"/>
   <g id="matplotlib.axis_26">
    <g id="ytick_49">
     <g id="line2d_49">
      <g>
       <use style="stroke:#000000;stroke-width:0.8;" x="43.78125" xlink:href="#m10b2e47e62" y="277.111219"/>
      </g>
     </g>
     <g id="text_13">
      <!-- 0.00 -->
      <g transform="translate(14.515625 280.910438)scale(0.1 -0.1)">
       <use xlink:href="#DejaVuSans-30"/>
       <use x="63.623047" xlink:href="#DejaVuSans-2e"/>
       <use x="95.410156" xlink:href="#DejaVuSans-30"/>
       <use x="159.033203" xlink:href="#DejaVuSans-30"/>
      </g>
     </g>
    </g>
    <g id="ytick_50">
     <g id="line2d_50">
      <g>
       <use style="stroke:#000000;stroke-width:0.8;" x="43.78125" xlink:href="#m10b2e47e62" y="259.477197"/>
      </g>
     </g>
     <g id="text_14">
      <!-- 0.25 -->
      <g transform="translate(14.515625 263.276416)scale(0.1 -0.1)">
       <use xlink:href="#DejaVuSans-30"/>
       <use x="63.623047" xlink:href="#DejaVuSans-2e"/>
       <use x="95.410156" xlink:href="#DejaVuSans-32"/>
       <use x="159.033203" xlink:href="#DejaVuSans-35"/>
      </g>
     </g>
    </g>
    <g id="ytick_51">
     <g id="line2d_51">
      <g>
       <use style="stroke:#000000;stroke-width:0.8;" x="43.78125" xlink:href="#m10b2e47e62" y="241.843175"/>
      </g>
     </g>
     <g id="text_15">
      <!-- 0.50 -->
      <g transform="translate(14.515625 245.642394)scale(0.1 -0.1)">
       <use xlink:href="#DejaVuSans-30"/>
       <use x="63.623047" xlink:href="#DejaVuSans-2e"/>
       <use x="95.410156" xlink:href="#DejaVuSans-35"/>
       <use x="159.033203" xlink:href="#DejaVuSans-30"/>
      </g>
     </g>
    </g>
    <g id="ytick_52">
     <g id="line2d_52">
      <g>
       <use style="stroke:#000000;stroke-width:0.8;" x="43.78125" xlink:href="#m10b2e47e62" y="224.209154"/>
      </g>
     </g>
     <g id="text_16">
      <!-- 0.75 -->
      <g transform="translate(14.515625 228.008373)scale(0.1 -0.1)">
       <use xlink:href="#DejaVuSans-30"/>
       <use x="63.623047" xlink:href="#DejaVuSans-2e"/>
       <use x="95.410156" xlink:href="#DejaVuSans-37"/>
       <use x="159.033203" xlink:href="#DejaVuSans-35"/>
      </g>
     </g>
    </g>
   </g>
   <g id="patch_147">
    <path d="M 43.78125 277.111219 
L 43.78125 219.260784 
" style="fill:none;stroke:#000000;stroke-linecap:square;stroke-linejoin:miter;stroke-width:0.8;"/>
   </g>
   <g id="patch_148">
    <path d="M 121.416033 277.111219 
L 121.416033 219.260784 
" style="fill:none;stroke:#000000;stroke-linecap:square;stroke-linejoin:miter;stroke-width:0.8;"/>
   </g>
   <g id="patch_149">
    <path d="M 43.78125 277.111219 
L 121.416033 277.111219 
" style="fill:none;stroke:#000000;stroke-linecap:square;stroke-linejoin:miter;stroke-width:0.8;"/>
   </g>
   <g id="patch_150">
    <path d="M 43.78125 219.260784 
L 121.416033 219.260784 
" style="fill:none;stroke:#000000;stroke-linecap:square;stroke-linejoin:miter;stroke-width:0.8;"/>
   </g>
  </g>
  <g id="axes_14">
   <g id="patch_151">
    <path d="M 136.942989 277.111219 
L 214.577772 277.111219 
L 214.577772 219.260784 
L 136.942989 219.260784 
z
" style="fill:#ffffff;"/>
   </g>
   <g id="patch_152">
    <path clip-path="url(#p2f31342a35)" d="M 140.471843 277.111219 
L 160.636721 277.111219 
L 160.636721 234.439856 
L 140.471843 234.439856 
z
" style="fill:#d95f02;"/>
   </g>
   <g id="patch_153">
    <path clip-path="url(#p2f31342a35)" d="M 165.677941 277.111219 
L 185.84282 277.111219 
L 185.84282 231.565779 
L 165.677941 231.565779 
z
"/>
   </g>
   <g id="patch_154">
    <path clip-path="url(#p2f31342a35)" d="M 190.884039 277.111219 
L 211.048918 277.111219 
L 211.048918 227.525132 
L 190.884039 227.525132 
z
"/>
   </g>
   <g id="patch_155">
    <path clip-path="url(#p2f31342a35)" d="M 140.471843 234.439856 
L 160.636721 234.439856 
L 160.636721 229.698594 
L 140.471843 229.698594 
z
" style="fill:#1b9e77;"/>
   </g>
   <g id="patch_156">
    <path clip-path="url(#p2f31342a35)" d="M 165.677941 231.565779 
L 185.84282 231.565779 
L 185.84282 226.505174 
L 165.677941 226.505174 
z
" style="fill:#1b9e77;"/>
   </g>
   <g id="patch_157">
    <path clip-path="url(#p2f31342a35)" d="M 190.884039 227.525132 
L 211.048918 227.525132 
L 211.048918 222.015567 
L 190.884039 222.015567 
z
" style="fill:#d95f02;"/>
   </g>
   <g id="matplotlib.axis_27"/>
   <g id="matplotlib.axis_28">
    <g id="ytick_53">
     <g id="line2d_53">
      <g>
       <use style="stroke:#000000;stroke-width:0.8;" x="136.942989" xlink:href="#m10b2e47e62" y="277.111219"/>
      </g>
     </g>
    </g>
    <g id="ytick_54">
     <g id="line2d_54">
      <g>
       <use style="stroke:#000000;stroke-width:0.8;" x="136.942989" xlink:href="#m10b2e47e62" y="259.477197"/>
      </g>
     </g>
    </g>
    <g id="ytick_55">
     <g id="line2d_55">
      <g>
       <use style="stroke:#000000;stroke-width:0.8;" x="136.942989" xlink:href="#m10b2e47e62" y="241.843175"/>
      </g>
     </g>
    </g>
    <g id="ytick_56">
     <g id="line2d_56">
      <g>
       <use style="stroke:#000000;stroke-width:0.8;" x="136.942989" xlink:href="#m10b2e47e62" y="224.209154"/>
      </g>
     </g>
    </g>
   </g>
   <g id="patch_158">
    <path d="M 136.942989 277.111219 
L 136.942989 219.260784 
" style="fill:none;stroke:#000000;stroke-linecap:square;stroke-linejoin:miter;stroke-width:0.8;"/>
   </g>
   <g id="patch_159">
    <path d="M 214.577772 277.111219 
L 214.577772 219.260784 
" style="fill:none;stroke:#000000;stroke-linecap:square;stroke-linejoin:miter;stroke-width:0.8;"/>
   </g>
   <g id="patch_160">
    <path d="M 136.942989 277.111219 
L 214.577772 277.111219 
" style="fill:none;stroke:#000000;stroke-linecap:square;stroke-linejoin:miter;stroke-width:0.8;"/>
   </g>
   <g id="patch_161">
    <path d="M 136.942989 219.260784 
L 214.577772 219.260784 
" style="fill:none;stroke:#000000;stroke-linecap:square;stroke-linejoin:miter;stroke-width:0.8;"/>
   </g>
  </g>
  <g id="axes_15">
   <g id="patch_162">
    <path d="M 230.104728 277.111219 
L 307.739511 277.111219 
L 307.739511 219.260784 
L 230.104728 219.260784 
z
" style="fill:#ffffff;"/>
   </g>
   <g id="patch_163">
    <path clip-path="url(#p5f3ad3e19a)" d="M 233.633582 277.111219 
L 253.798461 277.111219 
L 253.798461 237.691766 
L 233.633582 237.691766 
z
"/>
   </g>
   <g id="patch_164">
    <path clip-path="url(#p5f3ad3e19a)" d="M 258.83968 277.111219 
L 279.004559 277.111219 
L 279.004559 233.76873 
L 258.83968 233.76873 
z
"/>
   </g>
   <g id="patch_165">
    <path clip-path="url(#p5f3ad3e19a)" d="M 284.045779 277.111219 
L 304.210657 277.111219 
L 304.210657 233.442327 
L 284.045779 233.442327 
z
"/>
   </g>
   <g id="patch_166">
    <path clip-path="url(#p5f3ad3e19a)" d="M 233.633582 237.691766 
L 253.798461 237.691766 
L 253.798461 233.311827 
L 233.633582 233.311827 
z
" style="fill:#1b9e77;"/>
   </g>
   <g id="patch_167">
    <path clip-path="url(#p5f3ad3e19a)" d="M 258.83968 233.76873 
L 279.004559 233.76873 
L 279.004559 228.952898 
L 258.83968 228.952898 
z
" style="fill:#1b9e77;"/>
   </g>
   <g id="patch_168">
    <path clip-path="url(#p5f3ad3e19a)" d="M 284.045779 233.442327 
L 304.210657 233.442327 
L 304.210657 228.590228 
L 284.045779 228.590228 
z
"/>
   </g>
   <g id="matplotlib.axis_29"/>
   <g id="matplotlib.axis_30">
    <g id="ytick_57">
     <g id="line2d_57">
      <g>
       <use style="stroke:#000000;stroke-width:0.8;" x="230.104728" xlink:href="#m10b2e47e62" y="277.111219"/>
      </g>
     </g>
    </g>
    <g id="ytick_58">
     <g id="line2d_58">
      <g>
       <use style="stroke:#000000;stroke-width:0.8;" x="230.104728" xlink:href="#m10b2e47e62" y="259.477197"/>
      </g>
     </g>
    </g>
    <g id="ytick_59">
     <g id="line2d_59">
      <g>
       <use style="stroke:#000000;stroke-width:0.8;" x="230.104728" xlink:href="#m10b2e47e62" y="241.843175"/>
      </g>
     </g>
    </g>
    <g id="ytick_60">
     <g id="line2d_60">
      <g>
       <use style="stroke:#000000;stroke-width:0.8;" x="230.104728" xlink:href="#m10b2e47e62" y="224.209154"/>
      </g>
     </g>
    </g>
   </g>
   <g id="patch_169">
    <path d="M 230.104728 277.111219 
L 230.104728 219.260784 
" style="fill:none;stroke:#000000;stroke-linecap:square;stroke-linejoin:miter;stroke-width:0.8;"/>
   </g>
   <g id="patch_170">
    <path d="M 307.739511 277.111219 
L 307.739511 219.260784 
" style="fill:none;stroke:#000000;stroke-linecap:square;stroke-linejoin:miter;stroke-width:0.8;"/>
   </g>
   <g id="patch_171">
    <path d="M 230.104728 277.111219 
L 307.739511 277.111219 
" style="fill:none;stroke:#000000;stroke-linecap:square;stroke-linejoin:miter;stroke-width:0.8;"/>
   </g>
   <g id="patch_172">
    <path d="M 230.104728 219.260784 
L 307.739511 219.260784 
" style="fill:none;stroke:#000000;stroke-linecap:square;stroke-linejoin:miter;stroke-width:0.8;"/>
   </g>
  </g>
  <g id="axes_16">
   <g id="patch_173">
    <path d="M 323.266467 277.111219 
L 400.90125 277.111219 
L 400.90125 219.260784 
L 323.266467 219.260784 
z
" style="fill:#ffffff;"/>
   </g>
   <g id="patch_174">
    <path clip-path="url(#p07eaaadd3a)" d="M 326.795321 277.111219 
L 336.53009 277.111219 
L 336.53009 235.452442 
L 326.795321 235.452442 
z
" style="fill:#d95f02;"/>
   </g>
   <g id="patch_175">
    <path clip-path="url(#p07eaaadd3a)" d="M 338.963782 277.111219 
L 348.698551 277.111219 
L 348.698551 238.270431 
L 338.963782 238.270431 
z
" style="fill:#d95f02;"/>
   </g>
   <g id="patch_176">
    <path clip-path="url(#p07eaaadd3a)" d="M 351.132244 277.111219 
L 360.867013 277.111219 
L 360.867013 228.433332 
L 351.132244 228.433332 
z
" style="fill:#7570b3;"/>
   </g>
   <g id="patch_177">
    <path clip-path="url(#p07eaaadd3a)" d="M 363.300705 277.111219 
L 373.035474 277.111219 
L 373.035474 230.527479 
L 363.300705 230.527479 
z
"/>
   </g>
   <g id="patch_178">
    <path clip-path="url(#p07eaaadd3a)" d="M 375.469166 277.111219 
L 385.203935 277.111219 
L 385.203935 228.973413 
L 375.469166 228.973413 
z
"/>
   </g>
   <g id="patch_179">
    <path clip-path="url(#p07eaaadd3a)" d="M 387.637627 277.111219 
L 397.372396 277.111219 
L 397.372396 235.83323 
L 387.637627 235.83323 
z
"/>
   </g>
   <g id="patch_180">
    <path clip-path="url(#p07eaaadd3a)" d="M 326.795321 235.452442 
L 336.53009 235.452442 
L 336.53009 230.823689 
L 326.795321 230.823689 
z
" style="fill:#1b9e77;"/>
   </g>
   <g id="patch_181">
    <path clip-path="url(#p07eaaadd3a)" d="M 338.963782 238.270431 
L 348.698551 238.270431 
L 348.698551 233.954788 
L 338.963782 233.954788 
z
" style="fill:#7570b3;"/>
   </g>
   <g id="patch_182">
    <path clip-path="url(#p07eaaadd3a)" d="M 351.132244 228.433332 
L 360.867013 228.433332 
L 360.867013 223.024678 
L 351.132244 223.024678 
z
" style="fill:#1b9e77;"/>
   </g>
   <g id="patch_183">
    <path clip-path="url(#p07eaaadd3a)" d="M 363.300705 230.527479 
L 373.035474 230.527479 
L 373.035474 225.351508 
L 363.300705 225.351508 
z
" style="fill:#1b9e77;"/>
   </g>
   <g id="patch_184">
    <path clip-path="url(#p07eaaadd3a)" d="M 375.469166 228.973413 
L 385.203935 228.973413 
L 385.203935 223.624768 
L 375.469166 223.624768 
z
" style="fill:#d95f02;"/>
   </g>
   <g id="patch_185">
    <path clip-path="url(#p07eaaadd3a)" d="M 387.637627 235.83323 
L 397.372396 235.83323 
L 397.372396 231.246786 
L 387.637627 231.246786 
z
" style="fill:#7570b3;"/>
   </g>
   <g id="matplotlib.axis_31"/>
   <g id="matplotlib.axis_32">
    <g id="ytick_61">
     <g id="line2d_61">
      <g>
       <use style="stroke:#000000;stroke-width:0.8;" x="323.266467" xlink:href="#m10b2e47e62" y="277.111219"/>
      </g>
     </g>
    </g>
    <g id="ytick_62">
     <g id="line2d_62">
      <g>
       <use style="stroke:#000000;stroke-width:0.8;" x="323.266467" xlink:href="#m10b2e47e62" y="259.477197"/>
      </g>
     </g>
    </g>
    <g id="ytick_63">
     <g id="line2d_63">
      <g>
       <use style="stroke:#000000;stroke-width:0.8;" x="323.266467" xlink:href="#m10b2e47e62" y="241.843175"/>
      </g>
     </g>
    </g>
    <g id="ytick_64">
     <g id="line2d_64">
      <g>
       <use style="stroke:#000000;stroke-width:0.8;" x="323.266467" xlink:href="#m10b2e47e62" y="224.209154"/>
      </g>
     </g>
    </g>
   </g>
   <g id="patch_186">
    <path d="M 323.266467 277.111219 
L 323.266467 219.260784 
" style="fill:none;stroke:#000000;stroke-linecap:square;stroke-linejoin:miter;stroke-width:0.8;"/>
   </g>
   <g id="patch_187">
    <path d="M 400.90125 277.111219 
L 400.90125 219.260784 
" style="fill:none;stroke:#000000;stroke-linecap:square;stroke-linejoin:miter;stroke-width:0.8;"/>
   </g>
   <g id="patch_188">
    <path d="M 323.266467 277.111219 
L 400.90125 277.111219 
" style="fill:none;stroke:#000000;stroke-linecap:square;stroke-linejoin:miter;stroke-width:0.8;"/>
   </g>
   <g id="patch_189">
    <path d="M 323.266467 219.260784 
L 400.90125 219.260784 
" style="fill:none;stroke:#000000;stroke-linecap:square;stroke-linejoin:miter;stroke-width:0.8;"/>
   </g>
  </g>
  <g id="axes_17">
   <g id="matplotlib.axis_33">
    <g id="xtick_1">
     <g id="text_17">
      <!-- 0.0 -->
      <g style="opacity:0;" transform="translate(35.829688 291.709656)scale(0.1 -0.1)">
       <use xlink:href="#DejaVuSans-30"/>
       <use x="63.623047" xlink:href="#DejaVuSans-2e"/>
       <use x="95.410156" xlink:href="#DejaVuSans-30"/>
      </g>
     </g>
    </g>
    <g id="xtick_2">
     <g id="text_18">
      <!-- 0.2 -->
      <g style="opacity:0;" transform="translate(107.253688 291.709656)scale(0.1 -0.1)">
       <use xlink:href="#DejaVuSans-30"/>
       <use x="63.623047" xlink:href="#DejaVuSans-2e"/>
       <use x="95.410156" xlink:href="#DejaVuSans-32"/>
      </g>
     </g>
    </g>
    <g id="xtick_3">
     <g id="text_19">
      <!-- 0.4 -->
      <g style="opacity:0;" transform="translate(178.677688 291.709656)scale(0.1 -0.1)">
       <defs>
        <path d="M 2419 4116 
L 825 1625 
L 2419 1625 
L 2419 4116 
z
M 2253 4666 
L 3047 4666 
L 3047 1625 
L 3713 1625 
L 3713 1100 
L 3047 1100 
L 3047 0 
L 2419 0 
L 2419 1100 
L 313 1100 
L 313 1709 
L 2253 4666 
z
" id="DejaVuSans-34" transform="scale(0.015625)"/>
       </defs>
       <use xlink:href="#DejaVuSans-30"/>
       <use x="63.623047" xlink:href="#DejaVuSans-2e"/>
       <use x="95.410156" xlink:href="#DejaVuSans-34"/>
      </g>
     </g>
    </g>
    <g id="xtick_4">
     <g id="text_20">
      <!-- 0.6 -->
      <g style="opacity:0;" transform="translate(250.101688 291.709656)scale(0.1 -0.1)">
       <defs>
        <path d="M 2113 2584 
Q 1688 2584 1439 2293 
Q 1191 2003 1191 1497 
Q 1191 994 1439 701 
Q 1688 409 2113 409 
Q 2538 409 2786 701 
Q 3034 994 3034 1497 
Q 3034 2003 2786 2293 
Q 2538 2584 2113 2584 
z
M 3366 4563 
L 3366 3988 
Q 3128 4100 2886 4159 
Q 2644 4219 2406 4219 
Q 1781 4219 1451 3797 
Q 1122 3375 1075 2522 
Q 1259 2794 1537 2939 
Q 1816 3084 2150 3084 
Q 2853 3084 3261 2657 
Q 3669 2231 3669 1497 
Q 3669 778 3244 343 
Q 2819 -91 2113 -91 
Q 1303 -91 875 529 
Q 447 1150 447 2328 
Q 447 3434 972 4092 
Q 1497 4750 2381 4750 
Q 2619 4750 2861 4703 
Q 3103 4656 3366 4563 
z
" id="DejaVuSans-36" transform="scale(0.015625)"/>
       </defs>
       <use xlink:href="#DejaVuSans-30"/>
       <use x="63.623047" xlink:href="#DejaVuSans-2e"/>
       <use x="95.410156" xlink:href="#DejaVuSans-36"/>
      </g>
     </g>
    </g>
    <g id="xtick_5">
     <g id="text_21">
      <!-- 0.8 -->
      <g style="opacity:0;" transform="translate(321.525688 291.709656)scale(0.1 -0.1)">
       <defs>
        <path d="M 2034 2216 
Q 1584 2216 1326 1975 
Q 1069 1734 1069 1313 
Q 1069 891 1326 650 
Q 1584 409 2034 409 
Q 2484 409 2743 651 
Q 3003 894 3003 1313 
Q 3003 1734 2745 1975 
Q 2488 2216 2034 2216 
z
M 1403 2484 
Q 997 2584 770 2862 
Q 544 3141 544 3541 
Q 544 4100 942 4425 
Q 1341 4750 2034 4750 
Q 2731 4750 3128 4425 
Q 3525 4100 3525 3541 
Q 3525 3141 3298 2862 
Q 3072 2584 2669 2484 
Q 3125 2378 3379 2068 
Q 3634 1759 3634 1313 
Q 3634 634 3220 271 
Q 2806 -91 2034 -91 
Q 1263 -91 848 271 
Q 434 634 434 1313 
Q 434 1759 690 2068 
Q 947 2378 1403 2484 
z
M 1172 3481 
Q 1172 3119 1398 2916 
Q 1625 2713 2034 2713 
Q 2441 2713 2670 2916 
Q 2900 3119 2900 3481 
Q 2900 3844 2670 4047 
Q 2441 4250 2034 4250 
Q 1625 4250 1398 4047 
Q 1172 3844 1172 3481 
z
" id="DejaVuSans-38" transform="scale(0.015625)"/>
       </defs>
       <use xlink:href="#DejaVuSans-30"/>
       <use x="63.623047" xlink:href="#DejaVuSans-2e"/>
       <use x="95.410156" xlink:href="#DejaVuSans-38"/>
      </g>
     </g>
    </g>
    <g id="xtick_6">
     <g id="text_22">
      <!-- 1.0 -->
      <g style="opacity:0;" transform="translate(392.949688 291.709656)scale(0.1 -0.1)">
       <defs>
        <path d="M 794 531 
L 1825 531 
L 1825 4091 
L 703 3866 
L 703 4441 
L 1819 4666 
L 2450 4666 
L 2450 531 
L 3481 531 
L 3481 0 
L 794 0 
L 794 531 
z
" id="DejaVuSans-31" transform="scale(0.015625)"/>
       </defs>
       <use xlink:href="#DejaVuSans-31"/>
       <use x="63.623047" xlink:href="#DejaVuSans-2e"/>
       <use x="95.410156" xlink:href="#DejaVuSans-30"/>
      </g>
     </g>
    </g>
   </g>
   <g id="matplotlib.axis_34">
    <g id="ytick_65">
     <g id="text_23">
      <!-- 0.0 -->
      <g style="opacity:0;" transform="translate(20.878125 280.910437)scale(0.1 -0.1)">
       <use xlink:href="#DejaVuSans-30"/>
       <use x="63.623047" xlink:href="#DejaVuSans-2e"/>
       <use x="95.410156" xlink:href="#DejaVuSans-30"/>
      </g>
     </g>
    </g>
    <g id="ytick_66">
     <g id="text_24">
      <!-- 0.2 -->
      <g style="opacity:0;" transform="translate(20.878125 227.688037)scale(0.1 -0.1)">
       <use xlink:href="#DejaVuSans-30"/>
       <use x="63.623047" xlink:href="#DejaVuSans-2e"/>
       <use x="95.410156" xlink:href="#DejaVuSans-32"/>
      </g>
     </g>
    </g>
    <g id="ytick_67">
     <g id="text_25">
      <!-- 0.4 -->
      <g style="opacity:0;" transform="translate(20.878125 174.465637)scale(0.1 -0.1)">
       <use xlink:href="#DejaVuSans-30"/>
       <use x="63.623047" xlink:href="#DejaVuSans-2e"/>
       <use x="95.410156" xlink:href="#DejaVuSans-34"/>
      </g>
     </g>
    </g>
    <g id="ytick_68">
     <g id="text_26">
      <!-- 0.6 -->
      <g style="opacity:0;" transform="translate(20.878125 121.243237)scale(0.1 -0.1)">
       <use xlink:href="#DejaVuSans-30"/>
       <use x="63.623047" xlink:href="#DejaVuSans-2e"/>
       <use x="95.410156" xlink:href="#DejaVuSans-36"/>
      </g>
     </g>
    </g>
    <g id="ytick_69">
     <g id="text_27">
      <!-- 0.8 -->
      <g style="opacity:0;" transform="translate(20.878125 68.020837)scale(0.1 -0.1)">
       <use xlink:href="#DejaVuSans-30"/>
       <use x="63.623047" xlink:href="#DejaVuSans-2e"/>
       <use x="95.410156" xlink:href="#DejaVuSans-38"/>
      </g>
     </g>
    </g>
    <g id="ytick_70">
     <g id="text_28">
      <!-- 1.0 -->
      <g style="opacity:0;" transform="translate(20.878125 14.798437)scale(0.1 -0.1)">
       <use xlink:href="#DejaVuSans-31"/>
       <use x="63.623047" xlink:href="#DejaVuSans-2e"/>
       <use x="95.410156" xlink:href="#DejaVuSans-30"/>
      </g>
     </g>
    </g>
    <g id="text_29">
     <!-- Pearsons correlation -->
     <g transform="translate(14.798438 194.938031)rotate(-90)scale(0.1 -0.1)">
      <defs>
       <path d="M 1259 4147 
L 1259 2394 
L 2053 2394 
Q 2494 2394 2734 2622 
Q 2975 2850 2975 3272 
Q 2975 3691 2734 3919 
Q 2494 4147 2053 4147 
L 1259 4147 
z
M 628 4666 
L 2053 4666 
Q 2838 4666 3239 4311 
Q 3641 3956 3641 3272 
Q 3641 2581 3239 2228 
Q 2838 1875 2053 1875 
L 1259 1875 
L 1259 0 
L 628 0 
L 628 4666 
z
" id="DejaVuSans-50" transform="scale(0.015625)"/>
       <path d="M 3597 1894 
L 3597 1613 
L 953 1613 
Q 991 1019 1311 708 
Q 1631 397 2203 397 
Q 2534 397 2845 478 
Q 3156 559 3463 722 
L 3463 178 
Q 3153 47 2828 -22 
Q 2503 -91 2169 -91 
Q 1331 -91 842 396 
Q 353 884 353 1716 
Q 353 2575 817 3079 
Q 1281 3584 2069 3584 
Q 2775 3584 3186 3129 
Q 3597 2675 3597 1894 
z
M 3022 2063 
Q 3016 2534 2758 2815 
Q 2500 3097 2075 3097 
Q 1594 3097 1305 2825 
Q 1016 2553 972 2059 
L 3022 2063 
z
" id="DejaVuSans-65" transform="scale(0.015625)"/>
       <path d="M 2194 1759 
Q 1497 1759 1228 1600 
Q 959 1441 959 1056 
Q 959 750 1161 570 
Q 1363 391 1709 391 
Q 2188 391 2477 730 
Q 2766 1069 2766 1631 
L 2766 1759 
L 2194 1759 
z
M 3341 1997 
L 3341 0 
L 2766 0 
L 2766 531 
Q 2569 213 2275 61 
Q 1981 -91 1556 -91 
Q 1019 -91 701 211 
Q 384 513 384 1019 
Q 384 1609 779 1909 
Q 1175 2209 1959 2209 
L 2766 2209 
L 2766 2266 
Q 2766 2663 2505 2880 
Q 2244 3097 1772 3097 
Q 1472 3097 1187 3025 
Q 903 2953 641 2809 
L 641 3341 
Q 956 3463 1253 3523 
Q 1550 3584 1831 3584 
Q 2591 3584 2966 3190 
Q 3341 2797 3341 1997 
z
" id="DejaVuSans-61" transform="scale(0.015625)"/>
       <path d="M 2631 2963 
Q 2534 3019 2420 3045 
Q 2306 3072 2169 3072 
Q 1681 3072 1420 2755 
Q 1159 2438 1159 1844 
L 1159 0 
L 581 0 
L 581 3500 
L 1159 3500 
L 1159 2956 
Q 1341 3275 1631 3429 
Q 1922 3584 2338 3584 
Q 2397 3584 2469 3576 
Q 2541 3569 2628 3553 
L 2631 2963 
z
" id="DejaVuSans-72" transform="scale(0.015625)"/>
       <path d="M 2834 3397 
L 2834 2853 
Q 2591 2978 2328 3040 
Q 2066 3103 1784 3103 
Q 1356 3103 1142 2972 
Q 928 2841 928 2578 
Q 928 2378 1081 2264 
Q 1234 2150 1697 2047 
L 1894 2003 
Q 2506 1872 2764 1633 
Q 3022 1394 3022 966 
Q 3022 478 2636 193 
Q 2250 -91 1575 -91 
Q 1294 -91 989 -36 
Q 684 19 347 128 
L 347 722 
Q 666 556 975 473 
Q 1284 391 1588 391 
Q 1994 391 2212 530 
Q 2431 669 2431 922 
Q 2431 1156 2273 1281 
Q 2116 1406 1581 1522 
L 1381 1569 
Q 847 1681 609 1914 
Q 372 2147 372 2553 
Q 372 3047 722 3315 
Q 1072 3584 1716 3584 
Q 2034 3584 2315 3537 
Q 2597 3491 2834 3397 
z
" id="DejaVuSans-73" transform="scale(0.015625)"/>
       <path d="M 1959 3097 
Q 1497 3097 1228 2736 
Q 959 2375 959 1747 
Q 959 1119 1226 758 
Q 1494 397 1959 397 
Q 2419 397 2687 759 
Q 2956 1122 2956 1747 
Q 2956 2369 2687 2733 
Q 2419 3097 1959 3097 
z
M 1959 3584 
Q 2709 3584 3137 3096 
Q 3566 2609 3566 1747 
Q 3566 888 3137 398 
Q 2709 -91 1959 -91 
Q 1206 -91 779 398 
Q 353 888 353 1747 
Q 353 2609 779 3096 
Q 1206 3584 1959 3584 
z
" id="DejaVuSans-6f" transform="scale(0.015625)"/>
       <path d="M 3513 2113 
L 3513 0 
L 2938 0 
L 2938 2094 
Q 2938 2591 2744 2837 
Q 2550 3084 2163 3084 
Q 1697 3084 1428 2787 
Q 1159 2491 1159 1978 
L 1159 0 
L 581 0 
L 581 3500 
L 1159 3500 
L 1159 2956 
Q 1366 3272 1645 3428 
Q 1925 3584 2291 3584 
Q 2894 3584 3203 3211 
Q 3513 2838 3513 2113 
z
" id="DejaVuSans-6e" transform="scale(0.015625)"/>
       <path id="DejaVuSans-20" transform="scale(0.015625)"/>
       <path d="M 3122 3366 
L 3122 2828 
Q 2878 2963 2633 3030 
Q 2388 3097 2138 3097 
Q 1578 3097 1268 2742 
Q 959 2388 959 1747 
Q 959 1106 1268 751 
Q 1578 397 2138 397 
Q 2388 397 2633 464 
Q 2878 531 3122 666 
L 3122 134 
Q 2881 22 2623 -34 
Q 2366 -91 2075 -91 
Q 1284 -91 818 406 
Q 353 903 353 1747 
Q 353 2603 823 3093 
Q 1294 3584 2113 3584 
Q 2378 3584 2631 3529 
Q 2884 3475 3122 3366 
z
" id="DejaVuSans-63" transform="scale(0.015625)"/>
       <path d="M 603 4863 
L 1178 4863 
L 1178 0 
L 603 0 
L 603 4863 
z
" id="DejaVuSans-6c" transform="scale(0.015625)"/>
       <path d="M 1172 4494 
L 1172 3500 
L 2356 3500 
L 2356 3053 
L 1172 3053 
L 1172 1153 
Q 1172 725 1289 603 
Q 1406 481 1766 481 
L 2356 481 
L 2356 0 
L 1766 0 
Q 1100 0 847 248 
Q 594 497 594 1153 
L 594 3053 
L 172 3053 
L 172 3500 
L 594 3500 
L 594 4494 
L 1172 4494 
z
" id="DejaVuSans-74" transform="scale(0.015625)"/>
       <path d="M 603 3500 
L 1178 3500 
L 1178 0 
L 603 0 
L 603 3500 
z
M 603 4863 
L 1178 4863 
L 1178 4134 
L 603 4134 
L 603 4863 
z
" id="DejaVuSans-69" transform="scale(0.015625)"/>
      </defs>
      <use xlink:href="#DejaVuSans-50"/>
      <use x="56.677734" xlink:href="#DejaVuSans-65"/>
      <use x="118.201172" xlink:href="#DejaVuSans-61"/>
      <use x="179.480469" xlink:href="#DejaVuSans-72"/>
      <use x="220.59375" xlink:href="#DejaVuSans-73"/>
      <use x="272.693359" xlink:href="#DejaVuSans-6f"/>
      <use x="333.875" xlink:href="#DejaVuSans-6e"/>
      <use x="397.253906" xlink:href="#DejaVuSans-73"/>
      <use x="449.353516" xlink:href="#DejaVuSans-20"/>
      <use x="481.140625" xlink:href="#DejaVuSans-63"/>
      <use x="536.121094" xlink:href="#DejaVuSans-6f"/>
      <use x="597.302734" xlink:href="#DejaVuSans-72"/>
      <use x="636.666016" xlink:href="#DejaVuSans-72"/>
      <use x="675.529297" xlink:href="#DejaVuSans-65"/>
      <use x="737.052734" xlink:href="#DejaVuSans-6c"/>
      <use x="764.835938" xlink:href="#DejaVuSans-61"/>
      <use x="826.115234" xlink:href="#DejaVuSans-74"/>
      <use x="865.324219" xlink:href="#DejaVuSans-69"/>
      <use x="893.107422" xlink:href="#DejaVuSans-6f"/>
      <use x="954.289062" xlink:href="#DejaVuSans-6e"/>
     </g>
    </g>
   </g>
  </g>
  <g id="legend_1">
   <g id="patch_190">
    <path d="M 412.663125 72.799719 
L 534.14125 72.799719 
Q 536.14125 72.799719 536.14125 70.799719 
L 536.14125 13.087219 
Q 536.14125 11.087219 534.14125 11.087219 
L 412.663125 11.087219 
Q 410.663125 11.087219 410.663125 13.087219 
L 410.663125 70.799719 
Q 410.663125 72.799719 412.663125 72.799719 
z
" style="fill:#4c4c4c;opacity:0.5;stroke:#4c4c4c;stroke-linejoin:miter;"/>
   </g>
   <g id="patch_191">
    <path d="M 410.663125 70.799719 
L 532.14125 70.799719 
Q 534.14125 70.799719 534.14125 68.799719 
L 534.14125 11.087219 
Q 534.14125 9.087219 532.14125 9.087219 
L 410.663125 9.087219 
Q 408.663125 9.087219 408.663125 11.087219 
L 408.663125 68.799719 
Q 408.663125 70.799719 410.663125 70.799719 
z
" style="fill:#ffffff;stroke:#cccccc;stroke-linejoin:miter;"/>
   </g>
   <g id="patch_192">
    <path d="M 412.663125 20.685656 
L 432.663125 20.685656 
L 432.663125 13.685656 
L 412.663125 13.685656 
z
" style="stroke:#000000;stroke-linejoin:miter;"/>
   </g>
   <g id="text_30">
    <!-- big -->
    <g transform="translate(440.663125 20.685656)scale(0.1 -0.1)">
     <defs>
      <path d="M 3116 1747 
Q 3116 2381 2855 2742 
Q 2594 3103 2138 3103 
Q 1681 3103 1420 2742 
Q 1159 2381 1159 1747 
Q 1159 1113 1420 752 
Q 1681 391 2138 391 
Q 2594 391 2855 752 
Q 3116 1113 3116 1747 
z
M 1159 2969 
Q 1341 3281 1617 3432 
Q 1894 3584 2278 3584 
Q 2916 3584 3314 3078 
Q 3713 2572 3713 1747 
Q 3713 922 3314 415 
Q 2916 -91 2278 -91 
Q 1894 -91 1617 61 
Q 1341 213 1159 525 
L 1159 0 
L 581 0 
L 581 4863 
L 1159 4863 
L 1159 2969 
z
" id="DejaVuSans-62" transform="scale(0.015625)"/>
      <path d="M 2906 1791 
Q 2906 2416 2648 2759 
Q 2391 3103 1925 3103 
Q 1463 3103 1205 2759 
Q 947 2416 947 1791 
Q 947 1169 1205 825 
Q 1463 481 1925 481 
Q 2391 481 2648 825 
Q 2906 1169 2906 1791 
z
M 3481 434 
Q 3481 -459 3084 -895 
Q 2688 -1331 1869 -1331 
Q 1566 -1331 1297 -1286 
Q 1028 -1241 775 -1147 
L 775 -588 
Q 1028 -725 1275 -790 
Q 1522 -856 1778 -856 
Q 2344 -856 2625 -561 
Q 2906 -266 2906 331 
L 2906 616 
Q 2728 306 2450 153 
Q 2172 0 1784 0 
Q 1141 0 747 490 
Q 353 981 353 1791 
Q 353 2603 747 3093 
Q 1141 3584 1784 3584 
Q 2172 3584 2450 3431 
Q 2728 3278 2906 2969 
L 2906 3500 
L 3481 3500 
L 3481 434 
z
" id="DejaVuSans-67" transform="scale(0.015625)"/>
     </defs>
     <use xlink:href="#DejaVuSans-62"/>
     <use x="63.476562" xlink:href="#DejaVuSans-69"/>
     <use x="91.259766" xlink:href="#DejaVuSans-67"/>
    </g>
   </g>
   <g id="patch_193">
    <path d="M 412.663125 35.363781 
L 432.663125 35.363781 
L 432.663125 28.363781 
L 412.663125 28.363781 
z
" style="fill:#1b9e77;stroke:#1b9e77;stroke-linejoin:miter;"/>
   </g>
   <g id="text_31">
    <!-- Breast cancer -->
    <g transform="translate(440.663125 35.363781)scale(0.1 -0.1)">
     <defs>
      <path d="M 1259 2228 
L 1259 519 
L 2272 519 
Q 2781 519 3026 730 
Q 3272 941 3272 1375 
Q 3272 1813 3026 2020 
Q 2781 2228 2272 2228 
L 1259 2228 
z
M 1259 4147 
L 1259 2741 
L 2194 2741 
Q 2656 2741 2882 2914 
Q 3109 3088 3109 3444 
Q 3109 3797 2882 3972 
Q 2656 4147 2194 4147 
L 1259 4147 
z
M 628 4666 
L 2241 4666 
Q 2963 4666 3353 4366 
Q 3744 4066 3744 3513 
Q 3744 3084 3544 2831 
Q 3344 2578 2956 2516 
Q 3422 2416 3680 2098 
Q 3938 1781 3938 1306 
Q 3938 681 3513 340 
Q 3088 0 2303 0 
L 628 0 
L 628 4666 
z
" id="DejaVuSans-42" transform="scale(0.015625)"/>
     </defs>
     <use xlink:href="#DejaVuSans-42"/>
     <use x="68.603516" xlink:href="#DejaVuSans-72"/>
     <use x="107.466797" xlink:href="#DejaVuSans-65"/>
     <use x="168.990234" xlink:href="#DejaVuSans-61"/>
     <use x="230.269531" xlink:href="#DejaVuSans-73"/>
     <use x="282.369141" xlink:href="#DejaVuSans-74"/>
     <use x="321.578125" xlink:href="#DejaVuSans-20"/>
     <use x="353.365234" xlink:href="#DejaVuSans-63"/>
     <use x="408.345703" xlink:href="#DejaVuSans-61"/>
     <use x="469.625" xlink:href="#DejaVuSans-6e"/>
     <use x="533.003906" xlink:href="#DejaVuSans-63"/>
     <use x="587.984375" xlink:href="#DejaVuSans-65"/>
     <use x="649.507812" xlink:href="#DejaVuSans-72"/>
    </g>
   </g>
   <g id="patch_194">
    <path d="M 412.663125 50.041906 
L 432.663125 50.041906 
L 432.663125 43.041906 
L 412.663125 43.041906 
z
" style="fill:#d95f02;stroke:#d95f02;stroke-linejoin:miter;"/>
   </g>
   <g id="text_32">
    <!-- Leukemia -->
    <g transform="translate(440.663125 50.041906)scale(0.1 -0.1)">
     <defs>
      <path d="M 628 4666 
L 1259 4666 
L 1259 531 
L 3531 531 
L 3531 0 
L 628 0 
L 628 4666 
z
" id="DejaVuSans-4c" transform="scale(0.015625)"/>
      <path d="M 544 1381 
L 544 3500 
L 1119 3500 
L 1119 1403 
Q 1119 906 1312 657 
Q 1506 409 1894 409 
Q 2359 409 2629 706 
Q 2900 1003 2900 1516 
L 2900 3500 
L 3475 3500 
L 3475 0 
L 2900 0 
L 2900 538 
Q 2691 219 2414 64 
Q 2138 -91 1772 -91 
Q 1169 -91 856 284 
Q 544 659 544 1381 
z
M 1991 3584 
L 1991 3584 
z
" id="DejaVuSans-75" transform="scale(0.015625)"/>
      <path d="M 581 4863 
L 1159 4863 
L 1159 1991 
L 2875 3500 
L 3609 3500 
L 1753 1863 
L 3688 0 
L 2938 0 
L 1159 1709 
L 1159 0 
L 581 0 
L 581 4863 
z
" id="DejaVuSans-6b" transform="scale(0.015625)"/>
      <path d="M 3328 2828 
Q 3544 3216 3844 3400 
Q 4144 3584 4550 3584 
Q 5097 3584 5394 3201 
Q 5691 2819 5691 2113 
L 5691 0 
L 5113 0 
L 5113 2094 
Q 5113 2597 4934 2840 
Q 4756 3084 4391 3084 
Q 3944 3084 3684 2787 
Q 3425 2491 3425 1978 
L 3425 0 
L 2847 0 
L 2847 2094 
Q 2847 2600 2669 2842 
Q 2491 3084 2119 3084 
Q 1678 3084 1418 2786 
Q 1159 2488 1159 1978 
L 1159 0 
L 581 0 
L 581 3500 
L 1159 3500 
L 1159 2956 
Q 1356 3278 1631 3431 
Q 1906 3584 2284 3584 
Q 2666 3584 2933 3390 
Q 3200 3197 3328 2828 
z
" id="DejaVuSans-6d" transform="scale(0.015625)"/>
     </defs>
     <use xlink:href="#DejaVuSans-4c"/>
     <use x="53.962891" xlink:href="#DejaVuSans-65"/>
     <use x="115.486328" xlink:href="#DejaVuSans-75"/>
     <use x="178.865234" xlink:href="#DejaVuSans-6b"/>
     <use x="233.150391" xlink:href="#DejaVuSans-65"/>
     <use x="294.673828" xlink:href="#DejaVuSans-6d"/>
     <use x="392.085938" xlink:href="#DejaVuSans-69"/>
     <use x="419.869141" xlink:href="#DejaVuSans-61"/>
    </g>
   </g>
   <g id="patch_195">
    <path d="M 412.663125 64.720031 
L 432.663125 64.720031 
L 432.663125 57.720031 
L 412.663125 57.720031 
z
" style="fill:#7570b3;stroke:#7570b3;stroke-linejoin:miter;"/>
   </g>
   <g id="text_33">
    <!-- Multiple myeloma -->
    <g transform="translate(440.663125 64.720031)scale(0.1 -0.1)">
     <defs>
      <path d="M 628 4666 
L 1569 4666 
L 2759 1491 
L 3956 4666 
L 4897 4666 
L 4897 0 
L 4281 0 
L 4281 4097 
L 3078 897 
L 2444 897 
L 1241 4097 
L 1241 0 
L 628 0 
L 628 4666 
z
" id="DejaVuSans-4d" transform="scale(0.015625)"/>
      <path d="M 1159 525 
L 1159 -1331 
L 581 -1331 
L 581 3500 
L 1159 3500 
L 1159 2969 
Q 1341 3281 1617 3432 
Q 1894 3584 2278 3584 
Q 2916 3584 3314 3078 
Q 3713 2572 3713 1747 
Q 3713 922 3314 415 
Q 2916 -91 2278 -91 
Q 1894 -91 1617 61 
Q 1341 213 1159 525 
z
M 3116 1747 
Q 3116 2381 2855 2742 
Q 2594 3103 2138 3103 
Q 1681 3103 1420 2742 
Q 1159 2381 1159 1747 
Q 1159 1113 1420 752 
Q 1681 391 2138 391 
Q 2594 391 2855 752 
Q 3116 1113 3116 1747 
z
" id="DejaVuSans-70" transform="scale(0.015625)"/>
      <path d="M 2059 -325 
Q 1816 -950 1584 -1140 
Q 1353 -1331 966 -1331 
L 506 -1331 
L 506 -850 
L 844 -850 
Q 1081 -850 1212 -737 
Q 1344 -625 1503 -206 
L 1606 56 
L 191 3500 
L 800 3500 
L 1894 763 
L 2988 3500 
L 3597 3500 
L 2059 -325 
z
" id="DejaVuSans-79" transform="scale(0.015625)"/>
     </defs>
     <use xlink:href="#DejaVuSans-4d"/>
     <use x="86.279297" xlink:href="#DejaVuSans-75"/>
     <use x="149.658203" xlink:href="#DejaVuSans-6c"/>
     <use x="177.441406" xlink:href="#DejaVuSans-74"/>
     <use x="216.650391" xlink:href="#DejaVuSans-69"/>
     <use x="244.433594" xlink:href="#DejaVuSans-70"/>
     <use x="307.910156" xlink:href="#DejaVuSans-6c"/>
     <use x="335.693359" xlink:href="#DejaVuSans-65"/>
     <use x="397.216797" xlink:href="#DejaVuSans-20"/>
     <use x="429.003906" xlink:href="#DejaVuSans-6d"/>
     <use x="526.416016" xlink:href="#DejaVuSans-79"/>
     <use x="585.595703" xlink:href="#DejaVuSans-65"/>
     <use x="647.119141" xlink:href="#DejaVuSans-6c"/>
     <use x="674.902344" xlink:href="#DejaVuSans-6f"/>
     <use x="736.083984" xlink:href="#DejaVuSans-6d"/>
     <use x="833.496094" xlink:href="#DejaVuSans-61"/>
    </g>
   </g>
  </g>
 </g>
 <defs>
  <clipPath id="pccc174b05e">
   <rect height="57.850435" width="77.634783" x="43.78125" y="10.999219"/>
  </clipPath>
  <clipPath id="p21e4c950f8">
   <rect height="57.850435" width="77.634783" x="136.942989" y="10.999219"/>
  </clipPath>
  <clipPath id="p4bc18d0dc5">
   <rect height="57.850435" width="77.634783" x="230.104728" y="10.999219"/>
  </clipPath>
  <clipPath id="p6ce450c253">
   <rect height="57.850435" width="77.634783" x="323.266467" y="10.999219"/>
  </clipPath>
  <clipPath id="pd145dcc60b">
   <rect height="57.850435" width="77.634783" x="43.78125" y="80.41974"/>
  </clipPath>
  <clipPath id="peb7063f8e3">
   <rect height="57.850435" width="77.634783" x="136.942989" y="80.41974"/>
  </clipPath>
  <clipPath id="pb14c39c4a0">
   <rect height="57.850435" width="77.634783" x="230.104728" y="80.41974"/>
  </clipPath>
  <clipPath id="pde8d727cf0">
   <rect height="57.850435" width="77.634783" x="323.266467" y="80.41974"/>
  </clipPath>
  <clipPath id="p4f0f7925ca">
   <rect height="57.850435" width="77.634783" x="43.78125" y="149.840262"/>
  </clipPath>
  <clipPath id="p87ad4842fe">
   <rect height="57.850435" width="77.634783" x="136.942989" y="149.840262"/>
  </clipPath>
  <clipPath id="pf2a9e0d4ae">
   <rect height="57.850435" width="77.634783" x="230.104728" y="149.840262"/>
  </clipPath>
  <clipPath id="p746d7341a2">
   <rect height="57.850435" width="77.634783" x="323.266467" y="149.840262"/>
  </clipPath>
  <clipPath id="pe9e29f1909">
   <rect height="57.850435" width="77.634783" x="43.78125" y="219.260784"/>
  </clipPath>
  <clipPath id="p2f31342a35">
   <rect height="57.850435" width="77.634783" x="136.942989" y="219.260784"/>
  </clipPath>
  <clipPath id="p5f3ad3e19a">
   <rect height="57.850435" width="77.634783" x="230.104728" y="219.260784"/>
  </clipPath>
  <clipPath id="p07eaaadd3a">
   <rect height="57.850435" width="77.634783" x="323.266467" y="219.260784"/>
  </clipPath>
 </defs>
</svg>
