<?xml version="1.0" encoding="utf-8" standalone="no"?>
<!DOCTYPE svg PUBLIC "-//W3C//DTD SVG 1.1//EN"
  "http://www.w3.org/Graphics/SVG/1.1/DTD/svg11.dtd">
<svg height="345.6pt" version="1.1" viewBox="0 0 460.8 345.6" width="460.8pt" xmlns="http://www.w3.org/2000/svg" xmlns:xlink="http://www.w3.org/1999/xlink">
 <metadata>
  <rdf:RDF xmlns:cc="http://creativecommons.org/ns#" xmlns:dc="http://purl.org/dc/elements/1.1/" xmlns:rdf="http://www.w3.org/1999/02/22-rdf-syntax-ns#">
   <cc:Work>
    <dc:type rdf:resource="http://purl.org/dc/dcmitype/StillImage"/>
    <dc:date>2021-11-24T22:48:18.837721</dc:date>
    <dc:format>image/svg+xml</dc:format>
    <dc:creator>
     <cc:Agent>
      <dc:title>Matplotlib v3.4.3, https://matplotlib.org/</dc:title>
     </cc:Agent>
    </dc:creator>
   </cc:Work>
  </rdf:RDF>
 </metadata>
 <defs>
  <style type="text/css">*{stroke-linecap:butt;stroke-linejoin:round;}</style>
 </defs>
 <g id="figure_1">
  <g id="patch_1">
   <path d="M 0 345.6 
L 460.8 345.6 
L 460.8 0 
L 0 0 
z
" style="fill:#ffffff;"/>
  </g>
  <g id="axes_1">
   <g id="patch_2">
    <path d="M 47.81 303.64 
L 442.035 303.64 
L 442.035 37.968 
L 47.81 37.968 
z
" style="fill:#ffffff;"/>
   </g>
   <g id="PolyCollection_1">
    <path clip-path="url(#p733f280d92)" d="M -24.727057 303.497592 
L -24.727057 303.64 
L -21.779287 303.64 
L -18.831518 303.64 
L -15.883748 303.64 
L -12.935979 303.64 
L -9.98821 303.64 
L -7.04044 303.64 
L -4.092671 303.64 
L -1.144901 303.64 
L 1.802868 303.64 
L 4.750637 303.64 
L 7.698407 303.64 
L 10.646176 303.64 
L 13.593946 303.64 
L 16.541715 303.64 
L 19.489485 303.64 
L 22.437254 303.64 
L 25.385023 303.64 
L 28.332793 303.64 
L 31.280562 303.64 
L 34.228332 303.64 
L 37.176101 303.64 
L 40.12387 303.64 
L 43.07164 303.64 
L 46.019409 303.64 
L 48.967179 303.64 
L 51.914948 303.64 
L 54.862717 303.64 
L 57.810487 303.64 
L 60.758256 303.64 
L 63.706026 303.64 
L 66.653795 303.64 
L 69.601565 303.64 
L 72.549334 303.64 
L 75.497103 303.64 
L 78.444873 303.64 
L 81.392642 303.64 
L 84.340412 303.64 
L 87.288181 303.64 
L 90.23595 303.64 
L 93.18372 303.64 
L 96.131489 303.64 
L 99.079259 303.64 
L 102.027028 303.64 
L 104.974798 303.64 
L 107.922567 303.64 
L 110.870336 303.64 
L 113.818106 303.64 
L 116.765875 303.64 
L 119.713645 303.64 
L 122.661414 303.64 
L 125.609183 303.64 
L 128.556953 303.64 
L 131.504722 303.64 
L 134.452492 303.64 
L 137.400261 303.64 
L 140.34803 303.64 
L 143.2958 303.64 
L 146.243569 303.64 
L 149.191339 303.64 
L 152.139108 303.64 
L 155.086878 303.64 
L 158.034647 303.64 
L 160.982416 303.64 
L 163.930186 303.64 
L 166.877955 303.64 
L 169.825725 303.64 
L 172.773494 303.64 
L 175.721263 303.64 
L 178.669033 303.64 
L 181.616802 303.64 
L 184.564572 303.64 
L 187.512341 303.64 
L 190.460111 303.64 
L 193.40788 303.64 
L 196.355649 303.64 
L 199.303419 303.64 
L 202.251188 303.64 
L 205.198958 303.64 
L 208.146727 303.64 
L 211.094496 303.64 
L 214.042266 303.64 
L 216.990035 303.64 
L 219.937805 303.64 
L 222.885574 303.64 
L 225.833343 303.64 
L 228.781113 303.64 
L 231.728882 303.64 
L 234.676652 303.64 
L 237.624421 303.64 
L 240.572191 303.64 
L 243.51996 303.64 
L 246.467729 303.64 
L 249.415499 303.64 
L 252.363268 303.64 
L 255.311038 303.64 
L 258.258807 303.64 
L 261.206576 303.64 
L 264.154346 303.64 
L 267.102115 303.64 
L 270.049885 303.64 
L 272.997654 303.64 
L 275.945424 303.64 
L 278.893193 303.64 
L 281.840962 303.64 
L 284.788732 303.64 
L 287.736501 303.64 
L 290.684271 303.64 
L 293.63204 303.64 
L 296.579809 303.64 
L 299.527579 303.64 
L 302.475348 303.64 
L 305.423118 303.64 
L 308.370887 303.64 
L 311.318657 303.64 
L 314.266426 303.64 
L 317.214195 303.64 
L 320.161965 303.64 
L 323.109734 303.64 
L 326.057504 303.64 
L 329.005273 303.64 
L 331.953042 303.64 
L 334.900812 303.64 
L 337.848581 303.64 
L 340.796351 303.64 
L 343.74412 303.64 
L 346.691889 303.64 
L 349.639659 303.64 
L 352.587428 303.64 
L 355.535198 303.64 
L 358.482967 303.64 
L 361.430737 303.64 
L 364.378506 303.64 
L 367.326275 303.64 
L 370.274045 303.64 
L 373.221814 303.64 
L 376.169584 303.64 
L 379.117353 303.64 
L 382.065122 303.64 
L 385.012892 303.64 
L 387.960661 303.64 
L 390.908431 303.64 
L 393.8562 303.64 
L 396.80397 303.64 
L 399.751739 303.64 
L 402.699508 303.64 
L 405.647278 303.64 
L 408.595047 303.64 
L 411.542817 303.64 
L 414.490586 303.64 
L 417.438355 303.64 
L 420.386125 303.64 
L 423.333894 303.64 
L 426.281664 303.64 
L 429.229433 303.64 
L 432.177202 303.64 
L 435.124972 303.64 
L 438.072741 303.64 
L 441.020511 303.64 
L 443.96828 303.64 
L 446.91605 303.64 
L 449.863819 303.64 
L 452.811588 303.64 
L 455.759358 303.64 
L 458.707127 303.64 
L 461.654897 303.64 
L 464.602666 303.64 
L 467.550435 303.64 
L 470.498205 303.64 
L 473.445974 303.64 
L 476.393744 303.64 
L 479.341513 303.64 
L 482.289283 303.64 
L 485.237052 303.64 
L 488.184821 303.64 
L 491.132591 303.64 
L 494.08036 303.64 
L 497.02813 303.64 
L 499.975899 303.64 
L 502.923668 303.64 
L 505.871438 303.64 
L 508.819207 303.64 
L 511.766977 303.64 
L 514.714746 303.64 
L 517.662515 303.64 
L 520.610285 303.64 
L 523.558054 303.64 
L 526.505824 303.64 
L 529.453593 303.64 
L 532.401363 303.64 
L 535.349132 303.64 
L 538.296901 303.64 
L 541.244671 303.64 
L 544.19244 303.64 
L 547.14021 303.64 
L 550.087979 303.64 
L 553.035748 303.64 
L 555.983518 303.64 
L 558.931287 303.64 
L 561.879057 303.64 
L 561.879057 302.824532 
L 561.879057 302.824532 
L 558.931287 302.620754 
L 555.983518 302.372765 
L 553.035748 302.072731 
L 550.087979 301.711845 
L 547.14021 301.280308 
L 544.19244 300.76732 
L 541.244671 300.161105 
L 538.296901 299.448964 
L 535.349132 298.61737 
L 532.401363 297.652091 
L 529.453593 296.538376 
L 526.505824 295.261173 
L 523.558054 293.805396 
L 520.610285 292.156251 
L 517.662515 290.299591 
L 514.714746 288.222323 
L 511.766977 285.91284 
L 508.819207 283.361481 
L 505.871438 280.561004 
L 502.923668 277.507055 
L 499.975899 274.198621 
L 497.02813 270.63845 
L 494.08036 266.83342 
L 491.132591 262.794843 
L 488.184821 258.538677 
L 485.237052 254.085643 
L 482.289283 249.46123 
L 479.341513 244.695567 
L 476.393744 239.823172 
L 473.445974 234.88257 
L 470.498205 229.915771 
L 467.550435 224.967633 
L 464.602666 220.085116 
L 461.654897 215.31643 
L 458.707127 210.710124 
L 455.759358 206.314122 
L 452.811588 202.174731 
L 449.863819 198.335674 
L 446.91605 194.837145 
L 443.96828 191.714945 
L 441.020511 188.9997 
L 438.072741 186.716213 
L 435.124972 184.882943 
L 432.177202 183.511651 
L 429.229433 182.607199 
L 426.281664 182.167535 
L 423.333894 182.183832 
L 420.386125 182.640803 
L 417.438355 183.517158 
L 414.490586 184.786196 
L 411.542817 186.41651 
L 408.595047 188.37278 
L 405.647278 190.616627 
L 402.699508 193.107505 
L 399.751739 195.803602 
L 396.80397 198.662714 
L 393.8562 201.643093 
L 390.908431 204.704223 
L 387.960661 207.807518 
L 385.012892 210.916924 
L 382.065122 213.999423 
L 379.117353 217.025421 
L 376.169584 219.96902 
L 373.221814 222.80819 
L 370.274045 225.524823 
L 367.326275 228.104691 
L 364.378506 230.537323 
L 361.430737 232.815789 
L 358.482967 234.936439 
L 355.535198 236.898576 
L 352.587428 238.704107 
L 349.639659 240.357161 
L 346.691889 241.863704 
L 343.74412 243.231162 
L 340.796351 244.468055 
L 337.848581 245.58365 
L 334.900812 246.587657 
L 331.953042 247.489955 
L 329.005273 248.300359 
L 326.057504 249.028434 
L 323.109734 249.683349 
L 320.161965 250.273773 
L 317.214195 250.807811 
L 314.266426 251.292974 
L 311.318657 251.736173 
L 308.370887 252.143746 
L 305.423118 252.521496 
L 302.475348 252.874737 
L 299.527579 253.20835 
L 296.579809 253.526839 
L 293.63204 253.834373 
L 290.684271 254.134827 
L 287.736501 254.4318 
L 284.788732 254.728628 
L 281.840962 255.028374 
L 278.893193 255.333803 
L 275.945424 255.647343 
L 272.997654 255.971036 
L 270.049885 256.306481 
L 267.102115 256.654767 
L 264.154346 257.016415 
L 261.206576 257.391317 
L 258.258807 257.778689 
L 255.311038 258.17704 
L 252.363268 258.584152 
L 249.415499 258.997091 
L 246.467729 259.412235 
L 243.51996 259.82533 
L 240.572191 260.231572 
L 237.624421 260.625714 
L 234.676652 261.002192 
L 231.728882 261.355281 
L 228.781113 261.679252 
L 225.833343 261.968554 
L 222.885574 262.217989 
L 219.937805 262.422901 
L 216.990035 262.579338 
L 214.042266 262.684222 
L 211.094496 262.735484 
L 208.146727 262.732183 
L 205.198958 262.674595 
L 202.251188 262.564263 
L 199.303419 262.404024 
L 196.355649 262.19799 
L 193.40788 261.951494 
L 190.460111 261.671007 
L 187.512341 261.364017 
L 184.564572 261.038882 
L 181.616802 260.704656 
L 178.669033 260.370904 
L 175.721263 260.047498 
L 172.773494 259.744411 
L 169.825725 259.471509 
L 166.877955 259.238352 
L 163.930186 259.054011 
L 160.982416 258.926896 
L 158.034647 258.864612 
L 155.086878 258.873841 
L 152.139108 258.960244 
L 149.191339 259.128405 
L 146.243569 259.381786 
L 143.2958 259.722729 
L 140.34803 260.152463 
L 137.400261 260.671152 
L 134.452492 261.277942 
L 131.504722 261.971043 
L 128.556953 262.747802 
L 125.609183 263.604797 
L 122.661414 264.537923 
L 119.713645 265.54249 
L 116.765875 266.613303 
L 113.818106 267.744747 
L 110.870336 268.930866 
L 107.922567 270.165426 
L 104.974798 271.441983 
L 102.027028 272.753932 
L 99.079259 274.094566 
L 96.131489 275.457115 
L 93.18372 276.834794 
L 90.23595 278.220845 
L 87.288181 279.608581 
L 84.340412 280.99143 
L 81.392642 282.362982 
L 78.444873 283.717039 
L 75.497103 285.047661 
L 72.549334 286.349221 
L 69.601565 287.616458 
L 66.653795 288.844523 
L 63.706026 290.029028 
L 60.758256 291.166088 
L 57.810487 292.252361 
L 54.862717 293.285071 
L 51.914948 294.262033 
L 48.967179 295.181661 
L 46.019409 296.042964 
L 43.07164 296.84554 
L 40.12387 297.589553 
L 37.176101 298.275699 
L 34.228332 298.905166 
L 31.280562 299.479588 
L 28.332793 300.000992 
L 25.385023 300.471736 
L 22.437254 300.894451 
L 19.489485 301.271979 
L 16.541715 301.607313 
L 13.593946 301.903537 
L 10.646176 302.163773 
L 7.698407 302.391132 
L 4.750637 302.588666 
L 1.802868 302.759335 
L -1.144901 302.905971 
L -4.092671 303.031255 
L -7.04044 303.137697 
L -9.98821 303.227625 
L -12.935979 303.303174 
L -15.883748 303.366287 
L -18.831518 303.418715 
L -21.779287 303.462021 
L -24.727057 303.497592 
z
" style="fill:#1f77b4;fill-opacity:0.4;stroke:#1f77b4;"/>
   </g>
   <g id="PolyCollection_2">
    <path clip-path="url(#p733f280d92)" d="M 38.021879 303.56071 
L 38.021879 303.64 
L 40.497489 303.64 
L 42.973098 303.64 
L 45.448707 303.64 
L 47.924316 303.64 
L 50.399926 303.64 
L 52.875535 303.64 
L 55.351144 303.64 
L 57.826753 303.64 
L 60.302363 303.64 
L 62.777972 303.64 
L 65.253581 303.64 
L 67.72919 303.64 
L 70.2048 303.64 
L 72.680409 303.64 
L 75.156018 303.64 
L 77.631627 303.64 
L 80.107237 303.64 
L 82.582846 303.64 
L 85.058455 303.64 
L 87.534064 303.64 
L 90.009674 303.64 
L 92.485283 303.64 
L 94.960892 303.64 
L 97.436501 303.64 
L 99.912111 303.64 
L 102.38772 303.64 
L 104.863329 303.64 
L 107.338938 303.64 
L 109.814548 303.64 
L 112.290157 303.64 
L 114.765766 303.64 
L 117.241375 303.64 
L 119.716985 303.64 
L 122.192594 303.64 
L 124.668203 303.64 
L 127.143813 303.64 
L 129.619422 303.64 
L 132.095031 303.64 
L 134.57064 303.64 
L 137.04625 303.64 
L 139.521859 303.64 
L 141.997468 303.64 
L 144.473077 303.64 
L 146.948687 303.64 
L 149.424296 303.64 
L 151.899905 303.64 
L 154.375514 303.64 
L 156.851124 303.64 
L 159.326733 303.64 
L 161.802342 303.64 
L 164.277951 303.64 
L 166.753561 303.64 
L 169.22917 303.64 
L 171.704779 303.64 
L 174.180388 303.64 
L 176.655998 303.64 
L 179.131607 303.64 
L 181.607216 303.64 
L 184.082825 303.64 
L 186.558435 303.64 
L 189.034044 303.64 
L 191.509653 303.64 
L 193.985262 303.64 
L 196.460872 303.64 
L 198.936481 303.64 
L 201.41209 303.64 
L 203.887699 303.64 
L 206.363309 303.64 
L 208.838918 303.64 
L 211.314527 303.64 
L 213.790136 303.64 
L 216.265746 303.64 
L 218.741355 303.64 
L 221.216964 303.64 
L 223.692573 303.64 
L 226.168183 303.64 
L 228.643792 303.64 
L 231.119401 303.64 
L 233.59501 303.64 
L 236.07062 303.64 
L 238.546229 303.64 
L 241.021838 303.64 
L 243.497447 303.64 
L 245.973057 303.64 
L 248.448666 303.64 
L 250.924275 303.64 
L 253.399884 303.64 
L 255.875494 303.64 
L 258.351103 303.64 
L 260.826712 303.64 
L 263.302321 303.64 
L 265.777931 303.64 
L 268.25354 303.64 
L 270.729149 303.64 
L 273.204758 303.64 
L 275.680368 303.64 
L 278.155977 303.64 
L 280.631586 303.64 
L 283.107195 303.64 
L 285.582805 303.64 
L 288.058414 303.64 
L 290.534023 303.64 
L 293.009632 303.64 
L 295.485242 303.64 
L 297.960851 303.64 
L 300.43646 303.64 
L 302.912069 303.64 
L 305.387679 303.64 
L 307.863288 303.64 
L 310.338897 303.64 
L 312.814506 303.64 
L 315.290116 303.64 
L 317.765725 303.64 
L 320.241334 303.64 
L 322.716943 303.64 
L 325.192553 303.64 
L 327.668162 303.64 
L 330.143771 303.64 
L 332.61938 303.64 
L 335.09499 303.64 
L 337.570599 303.64 
L 340.046208 303.64 
L 342.521817 303.64 
L 344.997427 303.64 
L 347.473036 303.64 
L 349.948645 303.64 
L 352.424254 303.64 
L 354.899864 303.64 
L 357.375473 303.64 
L 359.851082 303.64 
L 362.326691 303.64 
L 364.802301 303.64 
L 367.27791 303.64 
L 369.753519 303.64 
L 372.229128 303.64 
L 374.704738 303.64 
L 377.180347 303.64 
L 379.655956 303.64 
L 382.131565 303.64 
L 384.607175 303.64 
L 387.082784 303.64 
L 389.558393 303.64 
L 392.034002 303.64 
L 394.509612 303.64 
L 396.985221 303.64 
L 399.46083 303.64 
L 401.936439 303.64 
L 404.412049 303.64 
L 406.887658 303.64 
L 409.363267 303.64 
L 411.838876 303.64 
L 414.314486 303.64 
L 416.790095 303.64 
L 419.265704 303.64 
L 421.741313 303.64 
L 424.216923 303.64 
L 426.692532 303.64 
L 429.168141 303.64 
L 431.64375 303.64 
L 434.11936 303.64 
L 436.594969 303.64 
L 439.070578 303.64 
L 441.546187 303.64 
L 444.021797 303.64 
L 446.497406 303.64 
L 448.973015 303.64 
L 451.448625 303.64 
L 453.924234 303.64 
L 456.399843 303.64 
L 458.875452 303.64 
L 461.351062 303.64 
L 463.826671 303.64 
L 466.30228 303.64 
L 468.777889 303.64 
L 471.253499 303.64 
L 473.729108 303.64 
L 476.204717 303.64 
L 478.680326 303.64 
L 481.155936 303.64 
L 483.631545 303.64 
L 486.107154 303.64 
L 488.582763 303.64 
L 491.058373 303.64 
L 493.533982 303.64 
L 496.009591 303.64 
L 498.4852 303.64 
L 500.96081 303.64 
L 503.436419 303.64 
L 505.912028 303.64 
L 508.387637 303.64 
L 510.863247 303.64 
L 513.338856 303.64 
L 515.814465 303.64 
L 518.290074 303.64 
L 520.765684 303.64 
L 523.241293 303.64 
L 525.716902 303.64 
L 528.192511 303.64 
L 530.668121 303.64 
L 530.668121 301.616768 
L 530.668121 301.616768 
L 528.192511 301.040013 
L 525.716902 300.321734 
L 523.241293 299.434 
L 520.765684 298.345206 
L 518.290074 297.020055 
L 515.814465 295.41967 
L 513.338856 293.501865 
L 510.863247 291.221609 
L 508.387637 288.531688 
L 505.912028 285.383605 
L 503.436419 281.728704 
L 500.96081 277.519536 
L 498.4852 272.711443 
L 496.009591 267.264333 
L 493.533982 261.144612 
L 491.058373 254.327204 
L 488.582763 246.797603 
L 486.107154 238.553855 
L 483.631545 229.608398 
L 481.155936 219.989635 
L 478.680326 209.74317 
L 476.204717 198.932584 
L 473.729108 187.639685 
L 471.253499 175.964156 
L 468.777889 164.022557 
L 466.30228 151.946661 
L 463.826671 139.881142 
L 461.351062 127.980644 
L 458.875452 116.406331 
L 456.399843 105.321998 
L 453.924234 94.889902 
L 451.448625 85.266443 
L 448.973015 76.597886 
L 446.497406 69.016276 
L 444.021797 62.635724 
L 441.546187 57.549216 
L 439.070578 53.826077 
L 436.594969 51.510191 
L 434.11936 50.619048 
L 431.64375 51.143643 
L 429.168141 53.049226 
L 426.692532 56.276835 
L 424.216923 60.74556 
L 421.741313 66.355389 
L 419.265704 72.990528 
L 416.790095 80.523031 
L 414.314486 88.816583 
L 411.838876 97.730289 
L 409.363267 107.122319 
L 406.887658 116.853279 
L 404.412049 126.789211 
L 401.936439 136.804137 
L 399.46083 146.782099 
L 396.985221 156.618666 
L 394.509612 166.221925 
L 392.034002 175.512966 
L 389.558393 184.425921 
L 387.082784 192.907614 
L 384.607175 200.916898 
L 382.131565 208.423745 
L 379.655956 215.408185 
L 377.180347 221.859145 
L 374.704738 227.773268 
L 372.229128 233.153761 
L 369.753519 238.009318 
L 367.27791 242.353146 
L 364.802301 246.202106 
L 362.326691 249.575999 
L 359.851082 252.496961 
L 357.375473 254.988991 
L 354.899864 257.07757 
L 352.424254 258.78937 
L 349.948645 260.152019 
L 347.473036 261.193923 
L 344.997427 261.944099 
L 342.521817 262.432028 
L 340.046208 262.68751 
L 337.570599 262.740508 
L 335.09499 262.62098 
L 332.61938 262.358701 
L 330.143771 261.983076 
L 327.668162 261.522937 
L 325.192553 261.006339 
L 322.716943 260.460359 
L 320.241334 259.91089 
L 317.765725 259.382449 
L 315.290116 258.897982 
L 312.814506 258.478697 
L 310.338897 258.143893 
L 307.863288 257.910808 
L 305.387679 257.794489 
L 302.912069 257.807664 
L 300.43646 257.960646 
L 297.960851 258.261247 
L 295.485242 258.714721 
L 293.009632 259.323736 
L 290.534023 260.088371 
L 288.058414 261.006155 
L 285.582805 262.072141 
L 283.107195 263.279019 
L 280.631586 264.61728 
L 278.155977 266.075409 
L 275.680368 267.64013 
L 273.204758 269.296683 
L 270.729149 271.029132 
L 268.25354 272.820698 
L 265.777931 274.654105 
L 263.302321 276.511934 
L 260.826712 278.376974 
L 258.351103 280.232552 
L 255.875494 282.062849 
L 253.399884 283.853169 
L 250.924275 285.59018 
L 248.448666 287.262102 
L 245.973057 288.858845 
L 243.497447 290.372097 
L 241.021838 291.795354 
L 238.546229 293.123909 
L 236.07062 294.354782 
L 233.59501 295.486624 
L 231.119401 296.519572 
L 228.643792 297.455084 
L 226.168183 298.295753 
L 223.692573 299.045106 
L 221.216964 299.707401 
L 218.741355 300.287423 
L 216.265746 300.790292 
L 213.790136 301.221279 
L 211.314527 301.585643 
L 208.838918 301.888495 
L 206.363309 302.134672 
L 203.887699 302.328648 
L 201.41209 302.474471 
L 198.936481 302.575717 
L 196.460872 302.635478 
L 193.985262 302.656374 
L 191.509653 302.640581 
L 189.034044 302.589886 
L 186.558435 302.505756 
L 184.082825 302.389424 
L 181.607216 302.241983 
L 179.131607 302.064492 
L 176.655998 301.858078 
L 174.180388 301.624048 
L 171.704779 301.363984 
L 169.22917 301.079834 
L 166.753561 300.773986 
L 164.277951 300.44933 
L 161.802342 300.109284 
L 159.326733 299.757808 
L 156.851124 299.399384 
L 154.375514 299.038965 
L 151.899905 298.681907 
L 149.424296 298.33386 
L 146.948687 298.000646 
L 144.473077 297.688116 
L 141.997468 297.401991 
L 139.521859 297.147698 
L 137.04625 296.930209 
L 134.57064 296.75388 
L 132.095031 296.622315 
L 129.619422 296.538241 
L 127.143813 296.503422 
L 124.668203 296.518595 
L 122.192594 296.583446 
L 119.716985 296.696622 
L 117.241375 296.855781 
L 114.765766 297.057668 
L 112.290157 297.29823 
L 109.814548 297.572748 
L 107.338938 297.875995 
L 104.863329 298.202398 
L 102.38772 298.546208 
L 99.912111 298.901666 
L 97.436501 299.263158 
L 94.960892 299.625358 
L 92.485283 299.983349 
L 90.009674 300.332721 
L 87.534064 300.669641 
L 85.058455 300.990904 
L 82.582846 301.293951 
L 80.107237 301.576866 
L 77.631627 301.838359 
L 75.156018 302.077716 
L 72.680409 302.294753 
L 70.2048 302.489742 
L 67.72919 302.66335 
L 65.253581 302.816557 
L 62.777972 302.950588 
L 60.302363 303.066842 
L 57.826753 303.166826 
L 55.351144 303.252101 
L 52.875535 303.324233 
L 50.399926 303.38475 
L 47.924316 303.435113 
L 45.448707 303.476689 
L 42.973098 303.51074 
L 40.497489 303.538406 
L 38.021879 303.56071 
z
" style="fill:#ff7f0e;fill-opacity:0.4;stroke:#ff7f0e;"/>
   </g>
   <g id="matplotlib.axis_1">
    <g id="xtick_1">
     <g id="line2d_1">
      <defs>
       <path d="M 0 0 
L 0 3.5 
" id="mf7d3c7618a" style="stroke:#000000;stroke-width:0.8;"/>
      </defs>
      <g>
       <use style="stroke:#000000;stroke-width:0.8;" x="47.81" xlink:href="#mf7d3c7618a" y="303.64"/>
      </g>
     </g>
     <g id="text_1">
      <!-- 0.0 -->
      <g transform="translate(39.858438 318.238437)scale(0.1 -0.1)">
       <defs>
        <path d="M 2034 4250 
Q 1547 4250 1301 3770 
Q 1056 3291 1056 2328 
Q 1056 1369 1301 889 
Q 1547 409 2034 409 
Q 2525 409 2770 889 
Q 3016 1369 3016 2328 
Q 3016 3291 2770 3770 
Q 2525 4250 2034 4250 
z
M 2034 4750 
Q 2819 4750 3233 4129 
Q 3647 3509 3647 2328 
Q 3647 1150 3233 529 
Q 2819 -91 2034 -91 
Q 1250 -91 836 529 
Q 422 1150 422 2328 
Q 422 3509 836 4129 
Q 1250 4750 2034 4750 
z
" id="DejaVuSans-30" transform="scale(0.015625)"/>
        <path d="M 684 794 
L 1344 794 
L 1344 0 
L 684 0 
L 684 794 
z
" id="DejaVuSans-2e" transform="scale(0.015625)"/>
       </defs>
       <use xlink:href="#DejaVuSans-30"/>
       <use x="63.623047" xlink:href="#DejaVuSans-2e"/>
       <use x="95.410156" xlink:href="#DejaVuSans-30"/>
      </g>
     </g>
    </g>
    <g id="xtick_2">
     <g id="line2d_2">
      <g>
       <use style="stroke:#000000;stroke-width:0.8;" x="126.655" xlink:href="#mf7d3c7618a" y="303.64"/>
      </g>
     </g>
     <g id="text_2">
      <!-- 0.2 -->
      <g transform="translate(118.703438 318.238437)scale(0.1 -0.1)">
       <defs>
        <path d="M 1228 531 
L 3431 531 
L 3431 0 
L 469 0 
L 469 531 
Q 828 903 1448 1529 
Q 2069 2156 2228 2338 
Q 2531 2678 2651 2914 
Q 2772 3150 2772 3378 
Q 2772 3750 2511 3984 
Q 2250 4219 1831 4219 
Q 1534 4219 1204 4116 
Q 875 4013 500 3803 
L 500 4441 
Q 881 4594 1212 4672 
Q 1544 4750 1819 4750 
Q 2544 4750 2975 4387 
Q 3406 4025 3406 3419 
Q 3406 3131 3298 2873 
Q 3191 2616 2906 2266 
Q 2828 2175 2409 1742 
Q 1991 1309 1228 531 
z
" id="DejaVuSans-32" transform="scale(0.015625)"/>
       </defs>
       <use xlink:href="#DejaVuSans-30"/>
       <use x="63.623047" xlink:href="#DejaVuSans-2e"/>
       <use x="95.410156" xlink:href="#DejaVuSans-32"/>
      </g>
     </g>
    </g>
    <g id="xtick_3">
     <g id="line2d_3">
      <g>
       <use style="stroke:#000000;stroke-width:0.8;" x="205.5" xlink:href="#mf7d3c7618a" y="303.64"/>
      </g>
     </g>
     <g id="text_3">
      <!-- 0.4 -->
      <g transform="translate(197.548438 318.238437)scale(0.1 -0.1)">
       <defs>
        <path d="M 2419 4116 
L 825 1625 
L 2419 1625 
L 2419 4116 
z
M 2253 4666 
L 3047 4666 
L 3047 1625 
L 3713 1625 
L 3713 1100 
L 3047 1100 
L 3047 0 
L 2419 0 
L 2419 1100 
L 313 1100 
L 313 1709 
L 2253 4666 
z
" id="DejaVuSans-34" transform="scale(0.015625)"/>
       </defs>
       <use xlink:href="#DejaVuSans-30"/>
       <use x="63.623047" xlink:href="#DejaVuSans-2e"/>
       <use x="95.410156" xlink:href="#DejaVuSans-34"/>
      </g>
     </g>
    </g>
    <g id="xtick_4">
     <g id="line2d_4">
      <g>
       <use style="stroke:#000000;stroke-width:0.8;" x="284.345" xlink:href="#mf7d3c7618a" y="303.64"/>
      </g>
     </g>
     <g id="text_4">
      <!-- 0.6 -->
      <g transform="translate(276.393438 318.238437)scale(0.1 -0.1)">
       <defs>
        <path d="M 2113 2584 
Q 1688 2584 1439 2293 
Q 1191 2003 1191 1497 
Q 1191 994 1439 701 
Q 1688 409 2113 409 
Q 2538 409 2786 701 
Q 3034 994 3034 1497 
Q 3034 2003 2786 2293 
Q 2538 2584 2113 2584 
z
M 3366 4563 
L 3366 3988 
Q 3128 4100 2886 4159 
Q 2644 4219 2406 4219 
Q 1781 4219 1451 3797 
Q 1122 3375 1075 2522 
Q 1259 2794 1537 2939 
Q 1816 3084 2150 3084 
Q 2853 3084 3261 2657 
Q 3669 2231 3669 1497 
Q 3669 778 3244 343 
Q 2819 -91 2113 -91 
Q 1303 -91 875 529 
Q 447 1150 447 2328 
Q 447 3434 972 4092 
Q 1497 4750 2381 4750 
Q 2619 4750 2861 4703 
Q 3103 4656 3366 4563 
z
" id="DejaVuSans-36" transform="scale(0.015625)"/>
       </defs>
       <use xlink:href="#DejaVuSans-30"/>
       <use x="63.623047" xlink:href="#DejaVuSans-2e"/>
       <use x="95.410156" xlink:href="#DejaVuSans-36"/>
      </g>
     </g>
    </g>
    <g id="xtick_5">
     <g id="line2d_5">
      <g>
       <use style="stroke:#000000;stroke-width:0.8;" x="363.19" xlink:href="#mf7d3c7618a" y="303.64"/>
      </g>
     </g>
     <g id="text_5">
      <!-- 0.8 -->
      <g transform="translate(355.238437 318.238437)scale(0.1 -0.1)">
       <defs>
        <path d="M 2034 2216 
Q 1584 2216 1326 1975 
Q 1069 1734 1069 1313 
Q 1069 891 1326 650 
Q 1584 409 2034 409 
Q 2484 409 2743 651 
Q 3003 894 3003 1313 
Q 3003 1734 2745 1975 
Q 2488 2216 2034 2216 
z
M 1403 2484 
Q 997 2584 770 2862 
Q 544 3141 544 3541 
Q 544 4100 942 4425 
Q 1341 4750 2034 4750 
Q 2731 4750 3128 4425 
Q 3525 4100 3525 3541 
Q 3525 3141 3298 2862 
Q 3072 2584 2669 2484 
Q 3125 2378 3379 2068 
Q 3634 1759 3634 1313 
Q 3634 634 3220 271 
Q 2806 -91 2034 -91 
Q 1263 -91 848 271 
Q 434 634 434 1313 
Q 434 1759 690 2068 
Q 947 2378 1403 2484 
z
M 1172 3481 
Q 1172 3119 1398 2916 
Q 1625 2713 2034 2713 
Q 2441 2713 2670 2916 
Q 2900 3119 2900 3481 
Q 2900 3844 2670 4047 
Q 2441 4250 2034 4250 
Q 1625 4250 1398 4047 
Q 1172 3844 1172 3481 
z
" id="DejaVuSans-38" transform="scale(0.015625)"/>
       </defs>
       <use xlink:href="#DejaVuSans-30"/>
       <use x="63.623047" xlink:href="#DejaVuSans-2e"/>
       <use x="95.410156" xlink:href="#DejaVuSans-38"/>
      </g>
     </g>
    </g>
    <g id="xtick_6">
     <g id="line2d_6">
      <g>
       <use style="stroke:#000000;stroke-width:0.8;" x="442.035" xlink:href="#mf7d3c7618a" y="303.64"/>
      </g>
     </g>
     <g id="text_6">
      <!-- 1.0 -->
      <g transform="translate(434.083437 318.238437)scale(0.1 -0.1)">
       <defs>
        <path d="M 794 531 
L 1825 531 
L 1825 4091 
L 703 3866 
L 703 4441 
L 1819 4666 
L 2450 4666 
L 2450 531 
L 3481 531 
L 3481 0 
L 794 0 
L 794 531 
z
" id="DejaVuSans-31" transform="scale(0.015625)"/>
       </defs>
       <use xlink:href="#DejaVuSans-31"/>
       <use x="63.623047" xlink:href="#DejaVuSans-2e"/>
       <use x="95.410156" xlink:href="#DejaVuSans-30"/>
      </g>
     </g>
    </g>
    <g id="text_7">
     <!-- Credibility index -->
     <g transform="translate(204.317812 331.916562)scale(0.1 -0.1)">
      <defs>
       <path d="M 4122 4306 
L 4122 3641 
Q 3803 3938 3442 4084 
Q 3081 4231 2675 4231 
Q 1875 4231 1450 3742 
Q 1025 3253 1025 2328 
Q 1025 1406 1450 917 
Q 1875 428 2675 428 
Q 3081 428 3442 575 
Q 3803 722 4122 1019 
L 4122 359 
Q 3791 134 3420 21 
Q 3050 -91 2638 -91 
Q 1578 -91 968 557 
Q 359 1206 359 2328 
Q 359 3453 968 4101 
Q 1578 4750 2638 4750 
Q 3056 4750 3426 4639 
Q 3797 4528 4122 4306 
z
" id="DejaVuSans-43" transform="scale(0.015625)"/>
       <path d="M 2631 2963 
Q 2534 3019 2420 3045 
Q 2306 3072 2169 3072 
Q 1681 3072 1420 2755 
Q 1159 2438 1159 1844 
L 1159 0 
L 581 0 
L 581 3500 
L 1159 3500 
L 1159 2956 
Q 1341 3275 1631 3429 
Q 1922 3584 2338 3584 
Q 2397 3584 2469 3576 
Q 2541 3569 2628 3553 
L 2631 2963 
z
" id="DejaVuSans-72" transform="scale(0.015625)"/>
       <path d="M 3597 1894 
L 3597 1613 
L 953 1613 
Q 991 1019 1311 708 
Q 1631 397 2203 397 
Q 2534 397 2845 478 
Q 3156 559 3463 722 
L 3463 178 
Q 3153 47 2828 -22 
Q 2503 -91 2169 -91 
Q 1331 -91 842 396 
Q 353 884 353 1716 
Q 353 2575 817 3079 
Q 1281 3584 2069 3584 
Q 2775 3584 3186 3129 
Q 3597 2675 3597 1894 
z
M 3022 2063 
Q 3016 2534 2758 2815 
Q 2500 3097 2075 3097 
Q 1594 3097 1305 2825 
Q 1016 2553 972 2059 
L 3022 2063 
z
" id="DejaVuSans-65" transform="scale(0.015625)"/>
       <path d="M 2906 2969 
L 2906 4863 
L 3481 4863 
L 3481 0 
L 2906 0 
L 2906 525 
Q 2725 213 2448 61 
Q 2172 -91 1784 -91 
Q 1150 -91 751 415 
Q 353 922 353 1747 
Q 353 2572 751 3078 
Q 1150 3584 1784 3584 
Q 2172 3584 2448 3432 
Q 2725 3281 2906 2969 
z
M 947 1747 
Q 947 1113 1208 752 
Q 1469 391 1925 391 
Q 2381 391 2643 752 
Q 2906 1113 2906 1747 
Q 2906 2381 2643 2742 
Q 2381 3103 1925 3103 
Q 1469 3103 1208 2742 
Q 947 2381 947 1747 
z
" id="DejaVuSans-64" transform="scale(0.015625)"/>
       <path d="M 603 3500 
L 1178 3500 
L 1178 0 
L 603 0 
L 603 3500 
z
M 603 4863 
L 1178 4863 
L 1178 4134 
L 603 4134 
L 603 4863 
z
" id="DejaVuSans-69" transform="scale(0.015625)"/>
       <path d="M 3116 1747 
Q 3116 2381 2855 2742 
Q 2594 3103 2138 3103 
Q 1681 3103 1420 2742 
Q 1159 2381 1159 1747 
Q 1159 1113 1420 752 
Q 1681 391 2138 391 
Q 2594 391 2855 752 
Q 3116 1113 3116 1747 
z
M 1159 2969 
Q 1341 3281 1617 3432 
Q 1894 3584 2278 3584 
Q 2916 3584 3314 3078 
Q 3713 2572 3713 1747 
Q 3713 922 3314 415 
Q 2916 -91 2278 -91 
Q 1894 -91 1617 61 
Q 1341 213 1159 525 
L 1159 0 
L 581 0 
L 581 4863 
L 1159 4863 
L 1159 2969 
z
" id="DejaVuSans-62" transform="scale(0.015625)"/>
       <path d="M 603 4863 
L 1178 4863 
L 1178 0 
L 603 0 
L 603 4863 
z
" id="DejaVuSans-6c" transform="scale(0.015625)"/>
       <path d="M 1172 4494 
L 1172 3500 
L 2356 3500 
L 2356 3053 
L 1172 3053 
L 1172 1153 
Q 1172 725 1289 603 
Q 1406 481 1766 481 
L 2356 481 
L 2356 0 
L 1766 0 
Q 1100 0 847 248 
Q 594 497 594 1153 
L 594 3053 
L 172 3053 
L 172 3500 
L 594 3500 
L 594 4494 
L 1172 4494 
z
" id="DejaVuSans-74" transform="scale(0.015625)"/>
       <path d="M 2059 -325 
Q 1816 -950 1584 -1140 
Q 1353 -1331 966 -1331 
L 506 -1331 
L 506 -850 
L 844 -850 
Q 1081 -850 1212 -737 
Q 1344 -625 1503 -206 
L 1606 56 
L 191 3500 
L 800 3500 
L 1894 763 
L 2988 3500 
L 3597 3500 
L 2059 -325 
z
" id="DejaVuSans-79" transform="scale(0.015625)"/>
       <path id="DejaVuSans-20" transform="scale(0.015625)"/>
       <path d="M 3513 2113 
L 3513 0 
L 2938 0 
L 2938 2094 
Q 2938 2591 2744 2837 
Q 2550 3084 2163 3084 
Q 1697 3084 1428 2787 
Q 1159 2491 1159 1978 
L 1159 0 
L 581 0 
L 581 3500 
L 1159 3500 
L 1159 2956 
Q 1366 3272 1645 3428 
Q 1925 3584 2291 3584 
Q 2894 3584 3203 3211 
Q 3513 2838 3513 2113 
z
" id="DejaVuSans-6e" transform="scale(0.015625)"/>
       <path d="M 3513 3500 
L 2247 1797 
L 3578 0 
L 2900 0 
L 1881 1375 
L 863 0 
L 184 0 
L 1544 1831 
L 300 3500 
L 978 3500 
L 1906 2253 
L 2834 3500 
L 3513 3500 
z
" id="DejaVuSans-78" transform="scale(0.015625)"/>
      </defs>
      <use xlink:href="#DejaVuSans-43"/>
      <use x="69.824219" xlink:href="#DejaVuSans-72"/>
      <use x="108.6875" xlink:href="#DejaVuSans-65"/>
      <use x="170.210938" xlink:href="#DejaVuSans-64"/>
      <use x="233.6875" xlink:href="#DejaVuSans-69"/>
      <use x="261.470703" xlink:href="#DejaVuSans-62"/>
      <use x="324.947266" xlink:href="#DejaVuSans-69"/>
      <use x="352.730469" xlink:href="#DejaVuSans-6c"/>
      <use x="380.513672" xlink:href="#DejaVuSans-69"/>
      <use x="408.296875" xlink:href="#DejaVuSans-74"/>
      <use x="447.505859" xlink:href="#DejaVuSans-79"/>
      <use x="506.685547" xlink:href="#DejaVuSans-20"/>
      <use x="538.472656" xlink:href="#DejaVuSans-69"/>
      <use x="566.255859" xlink:href="#DejaVuSans-6e"/>
      <use x="629.634766" xlink:href="#DejaVuSans-64"/>
      <use x="693.111328" xlink:href="#DejaVuSans-65"/>
      <use x="752.884766" xlink:href="#DejaVuSans-78"/>
     </g>
    </g>
   </g>
   <g id="matplotlib.axis_2">
    <g id="ytick_1">
     <g id="line2d_7">
      <defs>
       <path d="M 0 0 
L -3.5 0 
" id="m479f237ff7" style="stroke:#000000;stroke-width:0.8;"/>
      </defs>
      <g>
       <use style="stroke:#000000;stroke-width:0.8;" x="47.81" xlink:href="#m479f237ff7" y="303.64"/>
      </g>
     </g>
     <g id="text_8">
      <!-- 0.0 -->
      <g transform="translate(24.906875 307.439219)scale(0.1 -0.1)">
       <use xlink:href="#DejaVuSans-30"/>
       <use x="63.623047" xlink:href="#DejaVuSans-2e"/>
       <use x="95.410156" xlink:href="#DejaVuSans-30"/>
      </g>
     </g>
    </g>
    <g id="ytick_2">
     <g id="line2d_8">
      <g>
       <use style="stroke:#000000;stroke-width:0.8;" x="47.81" xlink:href="#m479f237ff7" y="270.119939"/>
      </g>
     </g>
     <g id="text_9">
      <!-- 0.5 -->
      <g transform="translate(24.906875 273.919158)scale(0.1 -0.1)">
       <defs>
        <path d="M 691 4666 
L 3169 4666 
L 3169 4134 
L 1269 4134 
L 1269 2991 
Q 1406 3038 1543 3061 
Q 1681 3084 1819 3084 
Q 2600 3084 3056 2656 
Q 3513 2228 3513 1497 
Q 3513 744 3044 326 
Q 2575 -91 1722 -91 
Q 1428 -91 1123 -41 
Q 819 9 494 109 
L 494 744 
Q 775 591 1075 516 
Q 1375 441 1709 441 
Q 2250 441 2565 725 
Q 2881 1009 2881 1497 
Q 2881 1984 2565 2268 
Q 2250 2553 1709 2553 
Q 1456 2553 1204 2497 
Q 953 2441 691 2322 
L 691 4666 
z
" id="DejaVuSans-35" transform="scale(0.015625)"/>
       </defs>
       <use xlink:href="#DejaVuSans-30"/>
       <use x="63.623047" xlink:href="#DejaVuSans-2e"/>
       <use x="95.410156" xlink:href="#DejaVuSans-35"/>
      </g>
     </g>
    </g>
    <g id="ytick_3">
     <g id="line2d_9">
      <g>
       <use style="stroke:#000000;stroke-width:0.8;" x="47.81" xlink:href="#m479f237ff7" y="236.599878"/>
      </g>
     </g>
     <g id="text_10">
      <!-- 1.0 -->
      <g transform="translate(24.906875 240.399097)scale(0.1 -0.1)">
       <use xlink:href="#DejaVuSans-31"/>
       <use x="63.623047" xlink:href="#DejaVuSans-2e"/>
       <use x="95.410156" xlink:href="#DejaVuSans-30"/>
      </g>
     </g>
    </g>
    <g id="ytick_4">
     <g id="line2d_10">
      <g>
       <use style="stroke:#000000;stroke-width:0.8;" x="47.81" xlink:href="#m479f237ff7" y="203.079818"/>
      </g>
     </g>
     <g id="text_11">
      <!-- 1.5 -->
      <g transform="translate(24.906875 206.879036)scale(0.1 -0.1)">
       <use xlink:href="#DejaVuSans-31"/>
       <use x="63.623047" xlink:href="#DejaVuSans-2e"/>
       <use x="95.410156" xlink:href="#DejaVuSans-35"/>
      </g>
     </g>
    </g>
    <g id="ytick_5">
     <g id="line2d_11">
      <g>
       <use style="stroke:#000000;stroke-width:0.8;" x="47.81" xlink:href="#m479f237ff7" y="169.559757"/>
      </g>
     </g>
     <g id="text_12">
      <!-- 2.0 -->
      <g transform="translate(24.906875 173.358975)scale(0.1 -0.1)">
       <use xlink:href="#DejaVuSans-32"/>
       <use x="63.623047" xlink:href="#DejaVuSans-2e"/>
       <use x="95.410156" xlink:href="#DejaVuSans-30"/>
      </g>
     </g>
    </g>
    <g id="ytick_6">
     <g id="line2d_12">
      <g>
       <use style="stroke:#000000;stroke-width:0.8;" x="47.81" xlink:href="#m479f237ff7" y="136.039696"/>
      </g>
     </g>
     <g id="text_13">
      <!-- 2.5 -->
      <g transform="translate(24.906875 139.838915)scale(0.1 -0.1)">
       <use xlink:href="#DejaVuSans-32"/>
       <use x="63.623047" xlink:href="#DejaVuSans-2e"/>
       <use x="95.410156" xlink:href="#DejaVuSans-35"/>
      </g>
     </g>
    </g>
    <g id="ytick_7">
     <g id="line2d_13">
      <g>
       <use style="stroke:#000000;stroke-width:0.8;" x="47.81" xlink:href="#m479f237ff7" y="102.519635"/>
      </g>
     </g>
     <g id="text_14">
      <!-- 3.0 -->
      <g transform="translate(24.906875 106.318854)scale(0.1 -0.1)">
       <defs>
        <path d="M 2597 2516 
Q 3050 2419 3304 2112 
Q 3559 1806 3559 1356 
Q 3559 666 3084 287 
Q 2609 -91 1734 -91 
Q 1441 -91 1130 -33 
Q 819 25 488 141 
L 488 750 
Q 750 597 1062 519 
Q 1375 441 1716 441 
Q 2309 441 2620 675 
Q 2931 909 2931 1356 
Q 2931 1769 2642 2001 
Q 2353 2234 1838 2234 
L 1294 2234 
L 1294 2753 
L 1863 2753 
Q 2328 2753 2575 2939 
Q 2822 3125 2822 3475 
Q 2822 3834 2567 4026 
Q 2313 4219 1838 4219 
Q 1578 4219 1281 4162 
Q 984 4106 628 3988 
L 628 4550 
Q 988 4650 1302 4700 
Q 1616 4750 1894 4750 
Q 2613 4750 3031 4423 
Q 3450 4097 3450 3541 
Q 3450 3153 3228 2886 
Q 3006 2619 2597 2516 
z
" id="DejaVuSans-33" transform="scale(0.015625)"/>
       </defs>
       <use xlink:href="#DejaVuSans-33"/>
       <use x="63.623047" xlink:href="#DejaVuSans-2e"/>
       <use x="95.410156" xlink:href="#DejaVuSans-30"/>
      </g>
     </g>
    </g>
    <g id="ytick_8">
     <g id="line2d_14">
      <g>
       <use style="stroke:#000000;stroke-width:0.8;" x="47.81" xlink:href="#m479f237ff7" y="68.999574"/>
      </g>
     </g>
     <g id="text_15">
      <!-- 3.5 -->
      <g transform="translate(24.906875 72.798793)scale(0.1 -0.1)">
       <use xlink:href="#DejaVuSans-33"/>
       <use x="63.623047" xlink:href="#DejaVuSans-2e"/>
       <use x="95.410156" xlink:href="#DejaVuSans-35"/>
      </g>
     </g>
    </g>
    <g id="text_16">
     <!-- Density -->
     <g transform="translate(18.827187 189.812594)rotate(-90)scale(0.1 -0.1)">
      <defs>
       <path d="M 1259 4147 
L 1259 519 
L 2022 519 
Q 2988 519 3436 956 
Q 3884 1394 3884 2338 
Q 3884 3275 3436 3711 
Q 2988 4147 2022 4147 
L 1259 4147 
z
M 628 4666 
L 1925 4666 
Q 3281 4666 3915 4102 
Q 4550 3538 4550 2338 
Q 4550 1131 3912 565 
Q 3275 0 1925 0 
L 628 0 
L 628 4666 
z
" id="DejaVuSans-44" transform="scale(0.015625)"/>
       <path d="M 2834 3397 
L 2834 2853 
Q 2591 2978 2328 3040 
Q 2066 3103 1784 3103 
Q 1356 3103 1142 2972 
Q 928 2841 928 2578 
Q 928 2378 1081 2264 
Q 1234 2150 1697 2047 
L 1894 2003 
Q 2506 1872 2764 1633 
Q 3022 1394 3022 966 
Q 3022 478 2636 193 
Q 2250 -91 1575 -91 
Q 1294 -91 989 -36 
Q 684 19 347 128 
L 347 722 
Q 666 556 975 473 
Q 1284 391 1588 391 
Q 1994 391 2212 530 
Q 2431 669 2431 922 
Q 2431 1156 2273 1281 
Q 2116 1406 1581 1522 
L 1381 1569 
Q 847 1681 609 1914 
Q 372 2147 372 2553 
Q 372 3047 722 3315 
Q 1072 3584 1716 3584 
Q 2034 3584 2315 3537 
Q 2597 3491 2834 3397 
z
" id="DejaVuSans-73" transform="scale(0.015625)"/>
      </defs>
      <use xlink:href="#DejaVuSans-44"/>
      <use x="77.001953" xlink:href="#DejaVuSans-65"/>
      <use x="138.525391" xlink:href="#DejaVuSans-6e"/>
      <use x="201.904297" xlink:href="#DejaVuSans-73"/>
      <use x="254.003906" xlink:href="#DejaVuSans-69"/>
      <use x="281.787109" xlink:href="#DejaVuSans-74"/>
      <use x="320.996094" xlink:href="#DejaVuSans-79"/>
     </g>
    </g>
   </g>
   <g id="patch_3">
    <path d="M 47.81 303.64 
L 47.81 37.968 
" style="fill:none;stroke:#000000;stroke-linecap:square;stroke-linejoin:miter;stroke-width:0.8;"/>
   </g>
   <g id="patch_4">
    <path d="M 442.035 303.64 
L 442.035 37.968 
" style="fill:none;stroke:#000000;stroke-linecap:square;stroke-linejoin:miter;stroke-width:0.8;"/>
   </g>
   <g id="patch_5">
    <path d="M 47.81 303.64 
L 442.035 303.64 
" style="fill:none;stroke:#000000;stroke-linecap:square;stroke-linejoin:miter;stroke-width:0.8;"/>
   </g>
   <g id="patch_6">
    <path d="M 47.81 37.968 
L 442.035 37.968 
" style="fill:none;stroke:#000000;stroke-linecap:square;stroke-linejoin:miter;stroke-width:0.8;"/>
   </g>
   <g id="text_17">
    <!-- Credibility index consensus vs non consensus  -->
    <g transform="translate(105.81625 18.530625)scale(0.12 -0.12)">
     <defs>
      <path d="M 3122 3366 
L 3122 2828 
Q 2878 2963 2633 3030 
Q 2388 3097 2138 3097 
Q 1578 3097 1268 2742 
Q 959 2388 959 1747 
Q 959 1106 1268 751 
Q 1578 397 2138 397 
Q 2388 397 2633 464 
Q 2878 531 3122 666 
L 3122 134 
Q 2881 22 2623 -34 
Q 2366 -91 2075 -91 
Q 1284 -91 818 406 
Q 353 903 353 1747 
Q 353 2603 823 3093 
Q 1294 3584 2113 3584 
Q 2378 3584 2631 3529 
Q 2884 3475 3122 3366 
z
" id="DejaVuSans-63" transform="scale(0.015625)"/>
      <path d="M 1959 3097 
Q 1497 3097 1228 2736 
Q 959 2375 959 1747 
Q 959 1119 1226 758 
Q 1494 397 1959 397 
Q 2419 397 2687 759 
Q 2956 1122 2956 1747 
Q 2956 2369 2687 2733 
Q 2419 3097 1959 3097 
z
M 1959 3584 
Q 2709 3584 3137 3096 
Q 3566 2609 3566 1747 
Q 3566 888 3137 398 
Q 2709 -91 1959 -91 
Q 1206 -91 779 398 
Q 353 888 353 1747 
Q 353 2609 779 3096 
Q 1206 3584 1959 3584 
z
" id="DejaVuSans-6f" transform="scale(0.015625)"/>
      <path d="M 544 1381 
L 544 3500 
L 1119 3500 
L 1119 1403 
Q 1119 906 1312 657 
Q 1506 409 1894 409 
Q 2359 409 2629 706 
Q 2900 1003 2900 1516 
L 2900 3500 
L 3475 3500 
L 3475 0 
L 2900 0 
L 2900 538 
Q 2691 219 2414 64 
Q 2138 -91 1772 -91 
Q 1169 -91 856 284 
Q 544 659 544 1381 
z
M 1991 3584 
L 1991 3584 
z
" id="DejaVuSans-75" transform="scale(0.015625)"/>
      <path d="M 191 3500 
L 800 3500 
L 1894 563 
L 2988 3500 
L 3597 3500 
L 2284 0 
L 1503 0 
L 191 3500 
z
" id="DejaVuSans-76" transform="scale(0.015625)"/>
     </defs>
     <use xlink:href="#DejaVuSans-43"/>
     <use x="69.824219" xlink:href="#DejaVuSans-72"/>
     <use x="108.6875" xlink:href="#DejaVuSans-65"/>
     <use x="170.210938" xlink:href="#DejaVuSans-64"/>
     <use x="233.6875" xlink:href="#DejaVuSans-69"/>
     <use x="261.470703" xlink:href="#DejaVuSans-62"/>
     <use x="324.947266" xlink:href="#DejaVuSans-69"/>
     <use x="352.730469" xlink:href="#DejaVuSans-6c"/>
     <use x="380.513672" xlink:href="#DejaVuSans-69"/>
     <use x="408.296875" xlink:href="#DejaVuSans-74"/>
     <use x="447.505859" xlink:href="#DejaVuSans-79"/>
     <use x="506.685547" xlink:href="#DejaVuSans-20"/>
     <use x="538.472656" xlink:href="#DejaVuSans-69"/>
     <use x="566.255859" xlink:href="#DejaVuSans-6e"/>
     <use x="629.634766" xlink:href="#DejaVuSans-64"/>
     <use x="693.111328" xlink:href="#DejaVuSans-65"/>
     <use x="752.884766" xlink:href="#DejaVuSans-78"/>
     <use x="812.064453" xlink:href="#DejaVuSans-20"/>
     <use x="843.851562" xlink:href="#DejaVuSans-63"/>
     <use x="898.832031" xlink:href="#DejaVuSans-6f"/>
     <use x="960.013672" xlink:href="#DejaVuSans-6e"/>
     <use x="1023.392578" xlink:href="#DejaVuSans-73"/>
     <use x="1075.492188" xlink:href="#DejaVuSans-65"/>
     <use x="1137.015625" xlink:href="#DejaVuSans-6e"/>
     <use x="1200.394531" xlink:href="#DejaVuSans-73"/>
     <use x="1252.494141" xlink:href="#DejaVuSans-75"/>
     <use x="1315.873047" xlink:href="#DejaVuSans-73"/>
     <use x="1367.972656" xlink:href="#DejaVuSans-20"/>
     <use x="1399.759766" xlink:href="#DejaVuSans-76"/>
     <use x="1458.939453" xlink:href="#DejaVuSans-73"/>
     <use x="1511.039062" xlink:href="#DejaVuSans-20"/>
     <use x="1542.826172" xlink:href="#DejaVuSans-6e"/>
     <use x="1606.205078" xlink:href="#DejaVuSans-6f"/>
     <use x="1667.386719" xlink:href="#DejaVuSans-6e"/>
     <use x="1730.765625" xlink:href="#DejaVuSans-20"/>
     <use x="1762.552734" xlink:href="#DejaVuSans-63"/>
     <use x="1817.533203" xlink:href="#DejaVuSans-6f"/>
     <use x="1878.714844" xlink:href="#DejaVuSans-6e"/>
     <use x="1942.09375" xlink:href="#DejaVuSans-73"/>
     <use x="1994.193359" xlink:href="#DejaVuSans-65"/>
     <use x="2055.716797" xlink:href="#DejaVuSans-6e"/>
     <use x="2119.095703" xlink:href="#DejaVuSans-73"/>
     <use x="2171.195312" xlink:href="#DejaVuSans-75"/>
     <use x="2234.574219" xlink:href="#DejaVuSans-73"/>
     <use x="2286.673828" xlink:href="#DejaVuSans-20"/>
    </g>
    <!-- Set s4 -->
    <g transform="translate(226.219375 31.968)scale(0.12 -0.12)">
     <defs>
      <path d="M 3425 4513 
L 3425 3897 
Q 3066 4069 2747 4153 
Q 2428 4238 2131 4238 
Q 1616 4238 1336 4038 
Q 1056 3838 1056 3469 
Q 1056 3159 1242 3001 
Q 1428 2844 1947 2747 
L 2328 2669 
Q 3034 2534 3370 2195 
Q 3706 1856 3706 1288 
Q 3706 609 3251 259 
Q 2797 -91 1919 -91 
Q 1588 -91 1214 -16 
Q 841 59 441 206 
L 441 856 
Q 825 641 1194 531 
Q 1563 422 1919 422 
Q 2459 422 2753 634 
Q 3047 847 3047 1241 
Q 3047 1584 2836 1778 
Q 2625 1972 2144 2069 
L 1759 2144 
Q 1053 2284 737 2584 
Q 422 2884 422 3419 
Q 422 4038 858 4394 
Q 1294 4750 2059 4750 
Q 2388 4750 2728 4690 
Q 3069 4631 3425 4513 
z
" id="DejaVuSans-53" transform="scale(0.015625)"/>
     </defs>
     <use xlink:href="#DejaVuSans-53"/>
     <use x="63.476562" xlink:href="#DejaVuSans-65"/>
     <use x="125" xlink:href="#DejaVuSans-74"/>
     <use x="164.208984" xlink:href="#DejaVuSans-20"/>
     <use x="195.996094" xlink:href="#DejaVuSans-73"/>
     <use x="248.095703" xlink:href="#DejaVuSans-34"/>
    </g>
   </g>
   <g id="legend_1">
    <g id="patch_7">
     <path d="M 54.81 97.719875 
L 225.352188 97.719875 
Q 227.352188 97.719875 227.352188 95.719875 
L 227.352188 44.968 
Q 227.352188 42.968 225.352188 42.968 
L 54.81 42.968 
Q 52.81 42.968 52.81 44.968 
L 52.81 95.719875 
Q 52.81 97.719875 54.81 97.719875 
z
" style="fill:#ffffff;opacity:0.8;stroke:#cccccc;stroke-linejoin:miter;"/>
    </g>
    <g id="patch_8">
     <path d="M 56.81 61.205187 
L 76.81 61.205187 
L 76.81 54.205187 
L 56.81 54.205187 
z
" style="fill:#1f77b4;fill-opacity:0.4;stroke:#1f77b4;stroke-linejoin:miter;"/>
    </g>
    <g id="text_18">
     <!-- Correlation higher than 0  -->
     <g transform="translate(84.81 54.566437)scale(0.1 -0.1)">
      <defs>
       <path d="M 2194 1759 
Q 1497 1759 1228 1600 
Q 959 1441 959 1056 
Q 959 750 1161 570 
Q 1363 391 1709 391 
Q 2188 391 2477 730 
Q 2766 1069 2766 1631 
L 2766 1759 
L 2194 1759 
z
M 3341 1997 
L 3341 0 
L 2766 0 
L 2766 531 
Q 2569 213 2275 61 
Q 1981 -91 1556 -91 
Q 1019 -91 701 211 
Q 384 513 384 1019 
Q 384 1609 779 1909 
Q 1175 2209 1959 2209 
L 2766 2209 
L 2766 2266 
Q 2766 2663 2505 2880 
Q 2244 3097 1772 3097 
Q 1472 3097 1187 3025 
Q 903 2953 641 2809 
L 641 3341 
Q 956 3463 1253 3523 
Q 1550 3584 1831 3584 
Q 2591 3584 2966 3190 
Q 3341 2797 3341 1997 
z
" id="DejaVuSans-61" transform="scale(0.015625)"/>
       <path d="M 3513 2113 
L 3513 0 
L 2938 0 
L 2938 2094 
Q 2938 2591 2744 2837 
Q 2550 3084 2163 3084 
Q 1697 3084 1428 2787 
Q 1159 2491 1159 1978 
L 1159 0 
L 581 0 
L 581 4863 
L 1159 4863 
L 1159 2956 
Q 1366 3272 1645 3428 
Q 1925 3584 2291 3584 
Q 2894 3584 3203 3211 
Q 3513 2838 3513 2113 
z
" id="DejaVuSans-68" transform="scale(0.015625)"/>
       <path d="M 2906 1791 
Q 2906 2416 2648 2759 
Q 2391 3103 1925 3103 
Q 1463 3103 1205 2759 
Q 947 2416 947 1791 
Q 947 1169 1205 825 
Q 1463 481 1925 481 
Q 2391 481 2648 825 
Q 2906 1169 2906 1791 
z
M 3481 434 
Q 3481 -459 3084 -895 
Q 2688 -1331 1869 -1331 
Q 1566 -1331 1297 -1286 
Q 1028 -1241 775 -1147 
L 775 -588 
Q 1028 -725 1275 -790 
Q 1522 -856 1778 -856 
Q 2344 -856 2625 -561 
Q 2906 -266 2906 331 
L 2906 616 
Q 2728 306 2450 153 
Q 2172 0 1784 0 
Q 1141 0 747 490 
Q 353 981 353 1791 
Q 353 2603 747 3093 
Q 1141 3584 1784 3584 
Q 2172 3584 2450 3431 
Q 2728 3278 2906 2969 
L 2906 3500 
L 3481 3500 
L 3481 434 
z
" id="DejaVuSans-67" transform="scale(0.015625)"/>
      </defs>
      <use xlink:href="#DejaVuSans-43"/>
      <use x="69.824219" xlink:href="#DejaVuSans-6f"/>
      <use x="131.005859" xlink:href="#DejaVuSans-72"/>
      <use x="170.369141" xlink:href="#DejaVuSans-72"/>
      <use x="209.232422" xlink:href="#DejaVuSans-65"/>
      <use x="270.755859" xlink:href="#DejaVuSans-6c"/>
      <use x="298.539062" xlink:href="#DejaVuSans-61"/>
      <use x="359.818359" xlink:href="#DejaVuSans-74"/>
      <use x="399.027344" xlink:href="#DejaVuSans-69"/>
      <use x="426.810547" xlink:href="#DejaVuSans-6f"/>
      <use x="487.992188" xlink:href="#DejaVuSans-6e"/>
      <use x="551.371094" xlink:href="#DejaVuSans-20"/>
      <use x="583.158203" xlink:href="#DejaVuSans-68"/>
      <use x="646.537109" xlink:href="#DejaVuSans-69"/>
      <use x="674.320312" xlink:href="#DejaVuSans-67"/>
      <use x="737.796875" xlink:href="#DejaVuSans-68"/>
      <use x="801.175781" xlink:href="#DejaVuSans-65"/>
      <use x="862.699219" xlink:href="#DejaVuSans-72"/>
      <use x="903.8125" xlink:href="#DejaVuSans-20"/>
      <use x="935.599609" xlink:href="#DejaVuSans-74"/>
      <use x="974.808594" xlink:href="#DejaVuSans-68"/>
      <use x="1038.1875" xlink:href="#DejaVuSans-61"/>
      <use x="1099.466797" xlink:href="#DejaVuSans-6e"/>
      <use x="1162.845703" xlink:href="#DejaVuSans-20"/>
      <use x="1194.632812" xlink:href="#DejaVuSans-30"/>
      <use x="1258.255859" xlink:href="#DejaVuSans-20"/>
     </g>
     <!-- n=201 -->
     <g transform="translate(84.81 65.76425)scale(0.1 -0.1)">
      <defs>
       <path d="M 678 2906 
L 4684 2906 
L 4684 2381 
L 678 2381 
L 678 2906 
z
M 678 1631 
L 4684 1631 
L 4684 1100 
L 678 1100 
L 678 1631 
z
" id="DejaVuSans-3d" transform="scale(0.015625)"/>
      </defs>
      <use xlink:href="#DejaVuSans-6e"/>
      <use x="63.378906" xlink:href="#DejaVuSans-3d"/>
      <use x="147.167969" xlink:href="#DejaVuSans-32"/>
      <use x="210.791016" xlink:href="#DejaVuSans-30"/>
      <use x="274.414062" xlink:href="#DejaVuSans-31"/>
     </g>
    </g>
    <g id="patch_9">
     <path d="M 56.81 87.081125 
L 76.81 87.081125 
L 76.81 80.081125 
L 56.81 80.081125 
z
" style="fill:#ff7f0e;fill-opacity:0.4;stroke:#ff7f0e;stroke-linejoin:miter;"/>
    </g>
    <g id="text_19">
     <!-- Correlation higher than 0.8  -->
     <g transform="translate(84.81 80.442375)scale(0.1 -0.1)">
      <use xlink:href="#DejaVuSans-43"/>
      <use x="69.824219" xlink:href="#DejaVuSans-6f"/>
      <use x="131.005859" xlink:href="#DejaVuSans-72"/>
      <use x="170.369141" xlink:href="#DejaVuSans-72"/>
      <use x="209.232422" xlink:href="#DejaVuSans-65"/>
      <use x="270.755859" xlink:href="#DejaVuSans-6c"/>
      <use x="298.539062" xlink:href="#DejaVuSans-61"/>
      <use x="359.818359" xlink:href="#DejaVuSans-74"/>
      <use x="399.027344" xlink:href="#DejaVuSans-69"/>
      <use x="426.810547" xlink:href="#DejaVuSans-6f"/>
      <use x="487.992188" xlink:href="#DejaVuSans-6e"/>
      <use x="551.371094" xlink:href="#DejaVuSans-20"/>
      <use x="583.158203" xlink:href="#DejaVuSans-68"/>
      <use x="646.537109" xlink:href="#DejaVuSans-69"/>
      <use x="674.320312" xlink:href="#DejaVuSans-67"/>
      <use x="737.796875" xlink:href="#DejaVuSans-68"/>
      <use x="801.175781" xlink:href="#DejaVuSans-65"/>
      <use x="862.699219" xlink:href="#DejaVuSans-72"/>
      <use x="903.8125" xlink:href="#DejaVuSans-20"/>
      <use x="935.599609" xlink:href="#DejaVuSans-74"/>
      <use x="974.808594" xlink:href="#DejaVuSans-68"/>
      <use x="1038.1875" xlink:href="#DejaVuSans-61"/>
      <use x="1099.466797" xlink:href="#DejaVuSans-6e"/>
      <use x="1162.845703" xlink:href="#DejaVuSans-20"/>
      <use x="1194.632812" xlink:href="#DejaVuSans-30"/>
      <use x="1258.255859" xlink:href="#DejaVuSans-2e"/>
      <use x="1290.042969" xlink:href="#DejaVuSans-38"/>
      <use x="1353.666016" xlink:href="#DejaVuSans-20"/>
     </g>
     <!-- n=50 -->
     <g transform="translate(84.81 91.640187)scale(0.1 -0.1)">
      <use xlink:href="#DejaVuSans-6e"/>
      <use x="63.378906" xlink:href="#DejaVuSans-3d"/>
      <use x="147.167969" xlink:href="#DejaVuSans-35"/>
      <use x="210.791016" xlink:href="#DejaVuSans-30"/>
     </g>
    </g>
   </g>
  </g>
 </g>
 <defs>
  <clipPath id="p733f280d92">
   <rect height="265.672" width="394.225" x="47.81" y="37.968"/>
  </clipPath>
 </defs>
</svg>
