<?xml version="1.0" encoding="utf-8" standalone="no"?>
<!DOCTYPE svg PUBLIC "-//W3C//DTD SVG 1.1//EN"
  "http://www.w3.org/Graphics/SVG/1.1/DTD/svg11.dtd">
<svg height="345.6pt" version="1.1" viewBox="0 0 460.8 345.6" width="460.8pt" xmlns="http://www.w3.org/2000/svg" xmlns:xlink="http://www.w3.org/1999/xlink">
 <metadata>
  <rdf:RDF xmlns:cc="http://creativecommons.org/ns#" xmlns:dc="http://purl.org/dc/elements/1.1/" xmlns:rdf="http://www.w3.org/1999/02/22-rdf-syntax-ns#">
   <cc:Work>
    <dc:type rdf:resource="http://purl.org/dc/dcmitype/StillImage"/>
    <dc:date>2021-11-24T22:48:19.075018</dc:date>
    <dc:format>image/svg+xml</dc:format>
    <dc:creator>
     <cc:Agent>
      <dc:title>Matplotlib v3.4.3, https://matplotlib.org/</dc:title>
     </cc:Agent>
    </dc:creator>
   </cc:Work>
  </rdf:RDF>
 </metadata>
 <defs>
  <style type="text/css">*{stroke-linecap:butt;stroke-linejoin:round;}</style>
 </defs>
 <g id="figure_1">
  <g id="patch_1">
   <path d="M 0 345.6 
L 460.8 345.6 
L 460.8 0 
L 0 0 
z
" style="fill:#ffffff;"/>
  </g>
  <g id="axes_1">
   <g id="patch_2">
    <path d="M 47.81 303.64 
L 442.035 303.64 
L 442.035 37.968 
L 47.81 37.968 
z
" style="fill:#ffffff;"/>
   </g>
   <g id="PolyCollection_1">
    <path clip-path="url(#p511f4e645c)" d="M -23.534499 303.442196 
L -23.534499 303.64 
L -20.598715 303.64 
L -17.662931 303.64 
L -14.727147 303.64 
L -11.791363 303.64 
L -8.855579 303.64 
L -5.919795 303.64 
L -2.984011 303.64 
L -0.048227 303.64 
L 2.887556 303.64 
L 5.82334 303.64 
L 8.759124 303.64 
L 11.694908 303.64 
L 14.630692 303.64 
L 17.566476 303.64 
L 20.50226 303.64 
L 23.438044 303.64 
L 26.373828 303.64 
L 29.309612 303.64 
L 32.245396 303.64 
L 35.181179 303.64 
L 38.116963 303.64 
L 41.052747 303.64 
L 43.988531 303.64 
L 46.924315 303.64 
L 49.860099 303.64 
L 52.795883 303.64 
L 55.731667 303.64 
L 58.667451 303.64 
L 61.603235 303.64 
L 64.539018 303.64 
L 67.474802 303.64 
L 70.410586 303.64 
L 73.34637 303.64 
L 76.282154 303.64 
L 79.217938 303.64 
L 82.153722 303.64 
L 85.089506 303.64 
L 88.02529 303.64 
L 90.961074 303.64 
L 93.896858 303.64 
L 96.832641 303.64 
L 99.768425 303.64 
L 102.704209 303.64 
L 105.639993 303.64 
L 108.575777 303.64 
L 111.511561 303.64 
L 114.447345 303.64 
L 117.383129 303.64 
L 120.318913 303.64 
L 123.254697 303.64 
L 126.190481 303.64 
L 129.126264 303.64 
L 132.062048 303.64 
L 134.997832 303.64 
L 137.933616 303.64 
L 140.8694 303.64 
L 143.805184 303.64 
L 146.740968 303.64 
L 149.676752 303.64 
L 152.612536 303.64 
L 155.54832 303.64 
L 158.484103 303.64 
L 161.419887 303.64 
L 164.355671 303.64 
L 167.291455 303.64 
L 170.227239 303.64 
L 173.163023 303.64 
L 176.098807 303.64 
L 179.034591 303.64 
L 181.970375 303.64 
L 184.906159 303.64 
L 187.841943 303.64 
L 190.777726 303.64 
L 193.71351 303.64 
L 196.649294 303.64 
L 199.585078 303.64 
L 202.520862 303.64 
L 205.456646 303.64 
L 208.39243 303.64 
L 211.328214 303.64 
L 214.263998 303.64 
L 217.199782 303.64 
L 220.135566 303.64 
L 223.071349 303.64 
L 226.007133 303.64 
L 228.942917 303.64 
L 231.878701 303.64 
L 234.814485 303.64 
L 237.750269 303.64 
L 240.686053 303.64 
L 243.621837 303.64 
L 246.557621 303.64 
L 249.493405 303.64 
L 252.429189 303.64 
L 255.364972 303.64 
L 258.300756 303.64 
L 261.23654 303.64 
L 264.172324 303.64 
L 267.108108 303.64 
L 270.043892 303.64 
L 272.979676 303.64 
L 275.91546 303.64 
L 278.851244 303.64 
L 281.787028 303.64 
L 284.722811 303.64 
L 287.658595 303.64 
L 290.594379 303.64 
L 293.530163 303.64 
L 296.465947 303.64 
L 299.401731 303.64 
L 302.337515 303.64 
L 305.273299 303.64 
L 308.209083 303.64 
L 311.144867 303.64 
L 314.080651 303.64 
L 317.016434 303.64 
L 319.952218 303.64 
L 322.888002 303.64 
L 325.823786 303.64 
L 328.75957 303.64 
L 331.695354 303.64 
L 334.631138 303.64 
L 337.566922 303.64 
L 340.502706 303.64 
L 343.43849 303.64 
L 346.374274 303.64 
L 349.310057 303.64 
L 352.245841 303.64 
L 355.181625 303.64 
L 358.117409 303.64 
L 361.053193 303.64 
L 363.988977 303.64 
L 366.924761 303.64 
L 369.860545 303.64 
L 372.796329 303.64 
L 375.732113 303.64 
L 378.667897 303.64 
L 381.60368 303.64 
L 384.539464 303.64 
L 387.475248 303.64 
L 390.411032 303.64 
L 393.346816 303.64 
L 396.2826 303.64 
L 399.218384 303.64 
L 402.154168 303.64 
L 405.089952 303.64 
L 408.025736 303.64 
L 410.961519 303.64 
L 413.897303 303.64 
L 416.833087 303.64 
L 419.768871 303.64 
L 422.704655 303.64 
L 425.640439 303.64 
L 428.576223 303.64 
L 431.512007 303.64 
L 434.447791 303.64 
L 437.383575 303.64 
L 440.319359 303.64 
L 443.255142 303.64 
L 446.190926 303.64 
L 449.12671 303.64 
L 452.062494 303.64 
L 454.998278 303.64 
L 457.934062 303.64 
L 460.869846 303.64 
L 463.80563 303.64 
L 466.741414 303.64 
L 469.677198 303.64 
L 472.612982 303.64 
L 475.548765 303.64 
L 478.484549 303.64 
L 481.420333 303.64 
L 484.356117 303.64 
L 487.291901 303.64 
L 490.227685 303.64 
L 493.163469 303.64 
L 496.099253 303.64 
L 499.035037 303.64 
L 501.970821 303.64 
L 504.906604 303.64 
L 507.842388 303.64 
L 510.778172 303.64 
L 513.713956 303.64 
L 516.64974 303.64 
L 519.585524 303.64 
L 522.521308 303.64 
L 525.457092 303.64 
L 528.392876 303.64 
L 531.32866 303.64 
L 534.264444 303.64 
L 537.200227 303.64 
L 540.136011 303.64 
L 543.071795 303.64 
L 546.007579 303.64 
L 548.943363 303.64 
L 551.879147 303.64 
L 554.814931 303.64 
L 557.750715 303.64 
L 560.686499 303.64 
L 560.686499 302.326183 
L 560.686499 302.326183 
L 557.750715 301.998677 
L 554.814931 301.600571 
L 551.879147 301.119533 
L 548.943363 300.541769 
L 546.007579 299.852001 
L 543.071795 299.033492 
L 540.136011 298.068104 
L 537.200227 296.936423 
L 534.264444 295.617934 
L 531.32866 294.091271 
L 528.392876 292.33453 
L 525.457092 290.325658 
L 522.521308 288.042917 
L 519.585524 285.465413 
L 516.64974 282.573689 
L 513.713956 279.350375 
L 510.778172 275.780869 
L 507.842388 271.854042 
L 504.906604 267.562952 
L 501.970821 262.905517 
L 499.035037 257.885153 
L 496.099253 252.511333 
L 493.163469 246.800032 
L 490.227685 240.77405 
L 487.291901 234.463178 
L 484.356117 227.904182 
L 481.420333 221.1406 
L 478.484549 214.222332 
L 475.548765 207.205028 
L 472.612982 200.149274 
L 469.677198 193.119587 
L 466.741414 186.183247 
L 463.80563 179.40899 
L 460.869846 172.865596 
L 457.934062 166.62042 
L 454.998278 160.737901 
L 452.062494 155.278111 
L 449.12671 150.295376 
L 446.190926 145.83703 
L 443.255142 141.94234 
L 440.319359 138.641632 
L 437.383575 135.95566 
L 434.447791 133.895233 
L 431.512007 132.461114 
L 428.576223 131.644187 
L 425.640439 131.425893 
L 422.704655 131.778912 
L 419.768871 132.668062 
L 416.833087 134.051387 
L 413.897303 135.881388 
L 410.961519 138.106355 
L 408.025736 140.671759 
L 405.089952 143.521645 
L 402.154168 146.599998 
L 399.218384 149.852025 
L 396.2826 153.225331 
L 393.346816 156.67094 
L 390.411032 160.144162 
L 387.475248 163.605271 
L 384.539464 167.019985 
L 381.60368 170.359765 
L 378.667897 173.601912 
L 375.732113 176.729501 
L 372.796329 179.73114 
L 369.860545 182.600599 
L 366.924761 185.336319 
L 363.988977 187.940828 
L 361.053193 190.420091 
L 358.117409 192.782829 
L 355.181625 195.039814 
L 352.245841 197.203179 
L 349.310057 199.28576 
L 346.374274 201.300486 
L 343.43849 203.259833 
L 340.502706 205.175353 
L 337.566922 207.057298 
L 334.631138 208.914316 
L 331.695354 210.753259 
L 328.75957 212.579068 
L 325.823786 214.394746 
L 322.888002 216.20142 
L 319.952218 217.998462 
L 317.016434 219.783677 
L 314.080651 221.55354 
L 311.144867 223.303467 
L 308.209083 225.028108 
L 305.273299 226.721655 
L 302.337515 228.37814 
L 299.401731 229.991726 
L 296.465947 231.55697 
L 293.530163 233.069055 
L 290.594379 234.523977 
L 287.658595 235.918696 
L 284.722811 237.251228 
L 281.787028 238.520696 
L 278.851244 239.727329 
L 275.91546 240.872419 
L 272.979676 241.958226 
L 270.043892 242.987865 
L 267.108108 243.965144 
L 264.172324 244.8944 
L 261.23654 245.780299 
L 258.300756 246.627653 
L 255.364972 247.441215 
L 252.429189 248.2255 
L 249.493405 248.984606 
L 246.557621 249.722066 
L 243.621837 250.440712 
L 240.686053 251.142574 
L 237.750269 251.828802 
L 234.814485 252.499623 
L 231.878701 253.154323 
L 228.942917 253.791265 
L 226.007133 254.407925 
L 223.071349 255.00097 
L 220.135566 255.566344 
L 217.199782 256.09939 
L 214.263998 256.594982 
L 211.328214 257.047676 
L 208.39243 257.451876 
L 205.456646 257.802009 
L 202.520862 258.092701 
L 199.585078 258.318966 
L 196.649294 258.476382 
L 193.71351 258.561275 
L 190.777726 258.570884 
L 187.841943 258.503519 
L 184.906159 258.358707 
L 181.970375 258.137308 
L 179.034591 257.841615 
L 176.098807 257.475427 
L 173.163023 257.044091 
L 170.227239 256.554505 
L 167.291455 256.015102 
L 164.355671 255.435779 
L 161.419887 254.827805 
L 158.484103 254.203684 
L 155.54832 253.576984 
L 152.612536 252.962139 
L 149.676752 252.374214 
L 146.740968 251.828649 
L 143.805184 251.340983 
L 140.8694 250.926561 
L 137.933616 250.600236 
L 134.997832 250.376069 
L 132.062048 250.267042 
L 129.126264 250.284771 
L 126.190481 250.439259 
L 123.254697 250.738667 
L 120.318913 251.189123 
L 117.383129 251.794573 
L 114.447345 252.55668 
L 111.511561 253.474766 
L 108.575777 254.545815 
L 105.639993 255.764518 
L 102.704209 257.123375 
L 99.768425 258.612845 
L 96.832641 260.221539 
L 93.896858 261.936448 
L 90.961074 263.743216 
L 88.02529 265.626424 
L 85.089506 267.5699 
L 82.153722 269.557035 
L 79.217938 271.5711 
L 76.282154 273.595552 
L 73.34637 275.614331 
L 70.410586 277.612121 
L 67.474802 279.574599 
L 64.539018 281.488632 
L 61.603235 283.342449 
L 58.667451 285.125762 
L 55.731667 286.82986 
L 52.795883 288.447645 
L 49.860099 289.97364 
L 46.924315 291.40396 
L 43.988531 292.736242 
L 41.052747 293.96956 
L 38.116963 295.104301 
L 35.181179 296.142038 
L 32.245396 297.085377 
L 29.309612 297.937805 
L 26.373828 298.703535 
L 23.438044 299.387346 
L 20.50226 299.994437 
L 17.566476 300.530283 
L 14.630692 301.000509 
L 11.694908 301.410774 
L 8.759124 301.766668 
L 5.82334 302.073629 
L 2.887556 302.336876 
L -0.048227 302.561347 
L -2.984011 302.751668 
L -5.919795 302.91212 
L -8.855579 303.046626 
L -11.791363 303.158744 
L -14.727147 303.251674 
L -17.662931 303.328267 
L -20.598715 303.391039 
L -23.534499 303.442196 
z
" style="fill:#1f77b4;fill-opacity:0.4;stroke:#1f77b4;"/>
   </g>
   <g id="PolyCollection_2">
    <defs>
     <path d="M 225.347506 -43.310694 
L 225.347506 -41.96 
L 227.049822 -41.96 
L 228.752139 -41.96 
L 230.454455 -41.96 
L 232.156772 -41.96 
L 233.859088 -41.96 
L 235.561405 -41.96 
L 237.263721 -41.96 
L 238.966038 -41.96 
L 240.668354 -41.96 
L 242.370671 -41.96 
L 244.072987 -41.96 
L 245.775304 -41.96 
L 247.47762 -41.96 
L 249.179937 -41.96 
L 250.882254 -41.96 
L 252.58457 -41.96 
L 254.286887 -41.96 
L 255.989203 -41.96 
L 257.69152 -41.96 
L 259.393836 -41.96 
L 261.096153 -41.96 
L 262.798469 -41.96 
L 264.500786 -41.96 
L 266.203102 -41.96 
L 267.905419 -41.96 
L 269.607735 -41.96 
L 271.310052 -41.96 
L 273.012368 -41.96 
L 274.714685 -41.96 
L 276.417001 -41.96 
L 278.119318 -41.96 
L 279.821634 -41.96 
L 281.523951 -41.96 
L 283.226268 -41.96 
L 284.928584 -41.96 
L 286.630901 -41.96 
L 288.333217 -41.96 
L 290.035534 -41.96 
L 291.73785 -41.96 
L 293.440167 -41.96 
L 295.142483 -41.96 
L 296.8448 -41.96 
L 298.547116 -41.96 
L 300.249433 -41.96 
L 301.951749 -41.96 
L 303.654066 -41.96 
L 305.356382 -41.96 
L 307.058699 -41.96 
L 308.761015 -41.96 
L 310.463332 -41.96 
L 312.165648 -41.96 
L 313.867965 -41.96 
L 315.570282 -41.96 
L 317.272598 -41.96 
L 318.974915 -41.96 
L 320.677231 -41.96 
L 322.379548 -41.96 
L 324.081864 -41.96 
L 325.784181 -41.96 
L 327.486497 -41.96 
L 329.188814 -41.96 
L 330.89113 -41.96 
L 332.593447 -41.96 
L 334.295763 -41.96 
L 335.99808 -41.96 
L 337.700396 -41.96 
L 339.402713 -41.96 
L 341.105029 -41.96 
L 342.807346 -41.96 
L 344.509662 -41.96 
L 346.211979 -41.96 
L 347.914296 -41.96 
L 349.616612 -41.96 
L 351.318929 -41.96 
L 353.021245 -41.96 
L 354.723562 -41.96 
L 356.425878 -41.96 
L 358.128195 -41.96 
L 359.830511 -41.96 
L 361.532828 -41.96 
L 363.235144 -41.96 
L 364.937461 -41.96 
L 366.639777 -41.96 
L 368.342094 -41.96 
L 370.04441 -41.96 
L 371.746727 -41.96 
L 373.449043 -41.96 
L 375.15136 -41.96 
L 376.853676 -41.96 
L 378.555993 -41.96 
L 380.25831 -41.96 
L 381.960626 -41.96 
L 383.662943 -41.96 
L 385.365259 -41.96 
L 387.067576 -41.96 
L 388.769892 -41.96 
L 390.472209 -41.96 
L 392.174525 -41.96 
L 393.876842 -41.96 
L 395.579158 -41.96 
L 397.281475 -41.96 
L 398.983791 -41.96 
L 400.686108 -41.96 
L 402.388424 -41.96 
L 404.090741 -41.96 
L 405.793057 -41.96 
L 407.495374 -41.96 
L 409.19769 -41.96 
L 410.900007 -41.96 
L 412.602324 -41.96 
L 414.30464 -41.96 
L 416.006957 -41.96 
L 417.709273 -41.96 
L 419.41159 -41.96 
L 421.113906 -41.96 
L 422.816223 -41.96 
L 424.518539 -41.96 
L 426.220856 -41.96 
L 427.923172 -41.96 
L 429.625489 -41.96 
L 431.327805 -41.96 
L 433.030122 -41.96 
L 434.732438 -41.96 
L 436.434755 -41.96 
L 438.137071 -41.96 
L 439.839388 -41.96 
L 441.541704 -41.96 
L 443.244021 -41.96 
L 444.946338 -41.96 
L 446.648654 -41.96 
L 448.350971 -41.96 
L 450.053287 -41.96 
L 451.755604 -41.96 
L 453.45792 -41.96 
L 455.160237 -41.96 
L 456.862553 -41.96 
L 458.56487 -41.96 
L 460.267186 -41.96 
L 461.969503 -41.96 
L 463.671819 -41.96 
L 465.374136 -41.96 
L 467.076452 -41.96 
L 468.778769 -41.96 
L 470.481085 -41.96 
L 472.183402 -41.96 
L 473.885718 -41.96 
L 475.588035 -41.96 
L 477.290352 -41.96 
L 478.992668 -41.96 
L 480.694985 -41.96 
L 482.397301 -41.96 
L 484.099618 -41.96 
L 485.801934 -41.96 
L 487.504251 -41.96 
L 489.206567 -41.96 
L 490.908884 -41.96 
L 492.6112 -41.96 
L 494.313517 -41.96 
L 496.015833 -41.96 
L 497.71815 -41.96 
L 499.420466 -41.96 
L 501.122783 -41.96 
L 502.825099 -41.96 
L 504.527416 -41.96 
L 506.229732 -41.96 
L 507.932049 -41.96 
L 509.634366 -41.96 
L 511.336682 -41.96 
L 513.038999 -41.96 
L 514.741315 -41.96 
L 516.443632 -41.96 
L 518.145948 -41.96 
L 519.848265 -41.96 
L 521.550581 -41.96 
L 523.252898 -41.96 
L 524.955214 -41.96 
L 526.657531 -41.96 
L 528.359847 -41.96 
L 530.062164 -41.96 
L 531.76448 -41.96 
L 533.466797 -41.96 
L 535.169113 -41.96 
L 536.87143 -41.96 
L 538.573746 -41.96 
L 540.276063 -41.96 
L 541.97838 -41.96 
L 543.680696 -41.96 
L 545.383013 -41.96 
L 547.085329 -41.96 
L 548.787646 -41.96 
L 550.489962 -41.96 
L 552.192279 -41.96 
L 553.894595 -41.96 
L 555.596912 -41.96 
L 557.299228 -41.96 
L 559.001545 -41.96 
L 560.703861 -41.96 
L 562.406178 -41.96 
L 564.108494 -41.96 
L 564.108494 -43.701652 
L 564.108494 -43.701652 
L 562.406178 -43.94008 
L 560.703861 -44.207316 
L 559.001545 -44.506279 
L 557.299228 -44.840105 
L 555.596912 -45.212158 
L 553.894595 -45.626028 
L 552.192279 -46.085543 
L 550.489962 -46.594766 
L 548.787646 -47.157999 
L 547.085329 -47.779777 
L 545.383013 -48.464868 
L 543.680696 -49.218267 
L 541.97838 -50.045182 
L 540.276063 -50.951028 
L 538.573746 -51.941408 
L 536.87143 -53.022096 
L 535.169113 -54.199013 
L 533.466797 -55.478204 
L 531.76448 -56.865807 
L 530.062164 -58.368017 
L 528.359847 -59.991054 
L 526.657531 -61.741116 
L 524.955214 -63.624337 
L 523.252898 -65.646738 
L 521.550581 -67.814172 
L 519.848265 -70.132272 
L 518.145948 -72.606388 
L 516.443632 -75.241526 
L 514.741315 -78.042286 
L 513.038999 -81.012794 
L 511.336682 -84.156635 
L 509.634366 -87.476787 
L 507.932049 -90.97555 
L 506.229732 -94.654481 
L 504.527416 -98.514328 
L 502.825099 -102.554967 
L 501.122783 -106.77534 
L 499.420466 -111.173403 
L 497.71815 -115.746071 
L 496.015833 -120.489175 
L 494.313517 -125.397423 
L 492.6112 -130.46437 
L 490.908884 -135.682394 
L 489.206567 -141.042686 
L 487.504251 -146.535244 
L 485.801934 -152.148882 
L 484.099618 -157.871248 
L 482.397301 -163.688854 
L 480.694985 -169.58712 
L 478.992668 -175.550424 
L 477.290352 -181.562172 
L 475.588035 -187.604872 
L 473.885718 -193.660228 
L 472.183402 -199.709238 
L 470.481085 -205.732305 
L 468.778769 -211.709361 
L 467.076452 -217.619996 
L 465.374136 -223.443595 
L 463.671819 -229.159485 
L 461.969503 -234.747085 
L 460.267186 -240.186062 
L 458.56487 -245.456483 
L 456.862553 -250.538979 
L 455.160237 -255.414898 
L 453.45792 -260.066459 
L 451.755604 -264.476903 
L 450.053287 -268.630635 
L 448.350971 -272.513359 
L 446.648654 -276.112207 
L 444.946338 -279.415849 
L 443.244021 -282.414596 
L 441.541704 -285.100488 
L 439.839388 -287.467364 
L 438.137071 -289.51092 
L 436.434755 -291.228745 
L 434.732438 -292.62034 
L 433.030122 -293.687122 
L 431.327805 -294.432402 
L 429.625489 -294.861353 
L 427.923172 -294.980952 
L 426.220856 -294.79991 
L 424.518539 -294.328577 
L 422.816223 -293.578837 
L 421.113906 -292.563989 
L 419.41159 -291.298605 
L 417.709273 -289.798385 
L 416.006957 -288.079996 
L 414.30464 -286.160904 
L 412.602324 -284.059198 
L 410.900007 -281.793414 
L 409.19769 -279.382344 
L 407.495374 -276.84486 
L 405.793057 -274.199729 
L 404.090741 -271.465436 
L 402.388424 -268.660009 
L 400.686108 -265.800859 
L 398.983791 -262.90462 
L 397.281475 -259.987012 
L 395.579158 -257.062703 
L 393.876842 -254.145201 
L 392.174525 -251.246748 
L 390.472209 -248.37824 
L 388.769892 -245.549159 
L 387.067576 -242.767526 
L 385.365259 -240.039872 
L 383.662943 -237.371224 
L 381.960626 -234.765114 
L 380.25831 -232.223603 
L 378.555993 -229.747322 
L 376.853676 -227.335528 
L 375.15136 -224.98618 
L 373.449043 -222.696024 
L 371.746727 -220.460691 
L 370.04441 -218.274807 
L 368.342094 -216.132115 
L 366.639777 -214.025599 
L 364.937461 -211.947617 
L 363.235144 -209.890037 
L 361.532828 -207.844377 
L 359.830511 -205.801942 
L 358.128195 -203.753961 
L 356.425878 -201.691722 
L 354.723562 -199.6067 
L 353.021245 -197.49068 
L 351.318929 -195.335868 
L 349.616612 -193.135002 
L 347.914296 -190.881444 
L 346.211979 -188.569265 
L 344.509662 -186.193316 
L 342.807346 -183.749292 
L 341.105029 -181.233774 
L 339.402713 -178.64427 
L 337.700396 -175.979229 
L 335.99808 -173.23806 
L 334.295763 -170.421116 
L 332.593447 -167.529693 
L 330.89113 -164.56599 
L 329.188814 -161.533082 
L 327.486497 -158.434871 
L 325.784181 -155.276026 
L 324.081864 -152.061929 
L 322.379548 -148.798598 
L 320.677231 -145.492618 
L 318.974915 -142.151062 
L 317.272598 -138.781404 
L 315.570282 -135.391445 
L 313.867965 -131.989221 
L 312.165648 -128.582925 
L 310.463332 -125.180821 
L 308.761015 -121.791168 
L 307.058699 -118.42214 
L 305.356382 -115.081757 
L 303.654066 -111.777814 
L 301.951749 -108.517822 
L 300.249433 -105.30895 
L 298.547116 -102.157973 
L 296.8448 -99.071232 
L 295.142483 -96.054592 
L 293.440167 -93.113418 
L 291.73785 -90.252542 
L 290.035534 -87.476255 
L 288.333217 -84.788289 
L 286.630901 -82.191819 
L 284.928584 -79.689457 
L 283.226268 -77.283262 
L 281.523951 -74.974754 
L 279.821634 -72.764925 
L 278.119318 -70.654263 
L 276.417001 -68.642774 
L 274.714685 -66.730009 
L 273.012368 -64.915095 
L 271.310052 -63.196762 
L 269.607735 -61.573381 
L 267.905419 -60.042997 
L 266.203102 -58.603359 
L 264.500786 -57.251961 
L 262.798469 -55.986072 
L 261.096153 -54.80277 
L 259.393836 -53.698981 
L 257.69152 -52.671501 
L 255.989203 -51.717035 
L 254.286887 -50.832222 
L 252.58457 -50.013661 
L 250.882254 -49.257938 
L 249.179937 -48.561648 
L 247.47762 -47.921418 
L 245.775304 -47.333921 
L 244.072987 -46.795899 
L 242.370671 -46.304171 
L 240.668354 -45.855652 
L 238.966038 -45.447359 
L 237.263721 -45.076421 
L 235.561405 -44.740087 
L 233.859088 -44.435728 
L 232.156772 -44.160847 
L 230.454455 -43.913075 
L 228.752139 -43.690175 
L 227.049822 -43.49004 
L 225.347506 -43.310694 
z
" id="m04727a04d7" style="stroke:#ff7f0e;"/>
    </defs>
    <g clip-path="url(#p511f4e645c)">
     <use style="fill:#ff7f0e;fill-opacity:0.4;stroke:#ff7f0e;" x="0" xlink:href="#m04727a04d7" y="345.6"/>
    </g>
   </g>
   <g id="matplotlib.axis_1">
    <g id="xtick_1">
     <g id="line2d_1">
      <defs>
       <path d="M 0 0 
L 0 3.5 
" id="mee103d06ea" style="stroke:#000000;stroke-width:0.8;"/>
      </defs>
      <g>
       <use style="stroke:#000000;stroke-width:0.8;" x="47.81" xlink:href="#mee103d06ea" y="303.64"/>
      </g>
     </g>
     <g id="text_1">
      <!-- 0.0 -->
      <g transform="translate(39.858438 318.238437)scale(0.1 -0.1)">
       <defs>
        <path d="M 2034 4250 
Q 1547 4250 1301 3770 
Q 1056 3291 1056 2328 
Q 1056 1369 1301 889 
Q 1547 409 2034 409 
Q 2525 409 2770 889 
Q 3016 1369 3016 2328 
Q 3016 3291 2770 3770 
Q 2525 4250 2034 4250 
z
M 2034 4750 
Q 2819 4750 3233 4129 
Q 3647 3509 3647 2328 
Q 3647 1150 3233 529 
Q 2819 -91 2034 -91 
Q 1250 -91 836 529 
Q 422 1150 422 2328 
Q 422 3509 836 4129 
Q 1250 4750 2034 4750 
z
" id="DejaVuSans-30" transform="scale(0.015625)"/>
        <path d="M 684 794 
L 1344 794 
L 1344 0 
L 684 0 
L 684 794 
z
" id="DejaVuSans-2e" transform="scale(0.015625)"/>
       </defs>
       <use xlink:href="#DejaVuSans-30"/>
       <use x="63.623047" xlink:href="#DejaVuSans-2e"/>
       <use x="95.410156" xlink:href="#DejaVuSans-30"/>
      </g>
     </g>
    </g>
    <g id="xtick_2">
     <g id="line2d_2">
      <g>
       <use style="stroke:#000000;stroke-width:0.8;" x="126.655" xlink:href="#mee103d06ea" y="303.64"/>
      </g>
     </g>
     <g id="text_2">
      <!-- 0.2 -->
      <g transform="translate(118.703438 318.238437)scale(0.1 -0.1)">
       <defs>
        <path d="M 1228 531 
L 3431 531 
L 3431 0 
L 469 0 
L 469 531 
Q 828 903 1448 1529 
Q 2069 2156 2228 2338 
Q 2531 2678 2651 2914 
Q 2772 3150 2772 3378 
Q 2772 3750 2511 3984 
Q 2250 4219 1831 4219 
Q 1534 4219 1204 4116 
Q 875 4013 500 3803 
L 500 4441 
Q 881 4594 1212 4672 
Q 1544 4750 1819 4750 
Q 2544 4750 2975 4387 
Q 3406 4025 3406 3419 
Q 3406 3131 3298 2873 
Q 3191 2616 2906 2266 
Q 2828 2175 2409 1742 
Q 1991 1309 1228 531 
z
" id="DejaVuSans-32" transform="scale(0.015625)"/>
       </defs>
       <use xlink:href="#DejaVuSans-30"/>
       <use x="63.623047" xlink:href="#DejaVuSans-2e"/>
       <use x="95.410156" xlink:href="#DejaVuSans-32"/>
      </g>
     </g>
    </g>
    <g id="xtick_3">
     <g id="line2d_3">
      <g>
       <use style="stroke:#000000;stroke-width:0.8;" x="205.5" xlink:href="#mee103d06ea" y="303.64"/>
      </g>
     </g>
     <g id="text_3">
      <!-- 0.4 -->
      <g transform="translate(197.548438 318.238437)scale(0.1 -0.1)">
       <defs>
        <path d="M 2419 4116 
L 825 1625 
L 2419 1625 
L 2419 4116 
z
M 2253 4666 
L 3047 4666 
L 3047 1625 
L 3713 1625 
L 3713 1100 
L 3047 1100 
L 3047 0 
L 2419 0 
L 2419 1100 
L 313 1100 
L 313 1709 
L 2253 4666 
z
" id="DejaVuSans-34" transform="scale(0.015625)"/>
       </defs>
       <use xlink:href="#DejaVuSans-30"/>
       <use x="63.623047" xlink:href="#DejaVuSans-2e"/>
       <use x="95.410156" xlink:href="#DejaVuSans-34"/>
      </g>
     </g>
    </g>
    <g id="xtick_4">
     <g id="line2d_4">
      <g>
       <use style="stroke:#000000;stroke-width:0.8;" x="284.345" xlink:href="#mee103d06ea" y="303.64"/>
      </g>
     </g>
     <g id="text_4">
      <!-- 0.6 -->
      <g transform="translate(276.393438 318.238437)scale(0.1 -0.1)">
       <defs>
        <path d="M 2113 2584 
Q 1688 2584 1439 2293 
Q 1191 2003 1191 1497 
Q 1191 994 1439 701 
Q 1688 409 2113 409 
Q 2538 409 2786 701 
Q 3034 994 3034 1497 
Q 3034 2003 2786 2293 
Q 2538 2584 2113 2584 
z
M 3366 4563 
L 3366 3988 
Q 3128 4100 2886 4159 
Q 2644 4219 2406 4219 
Q 1781 4219 1451 3797 
Q 1122 3375 1075 2522 
Q 1259 2794 1537 2939 
Q 1816 3084 2150 3084 
Q 2853 3084 3261 2657 
Q 3669 2231 3669 1497 
Q 3669 778 3244 343 
Q 2819 -91 2113 -91 
Q 1303 -91 875 529 
Q 447 1150 447 2328 
Q 447 3434 972 4092 
Q 1497 4750 2381 4750 
Q 2619 4750 2861 4703 
Q 3103 4656 3366 4563 
z
" id="DejaVuSans-36" transform="scale(0.015625)"/>
       </defs>
       <use xlink:href="#DejaVuSans-30"/>
       <use x="63.623047" xlink:href="#DejaVuSans-2e"/>
       <use x="95.410156" xlink:href="#DejaVuSans-36"/>
      </g>
     </g>
    </g>
    <g id="xtick_5">
     <g id="line2d_5">
      <g>
       <use style="stroke:#000000;stroke-width:0.8;" x="363.19" xlink:href="#mee103d06ea" y="303.64"/>
      </g>
     </g>
     <g id="text_5">
      <!-- 0.8 -->
      <g transform="translate(355.238437 318.238437)scale(0.1 -0.1)">
       <defs>
        <path d="M 2034 2216 
Q 1584 2216 1326 1975 
Q 1069 1734 1069 1313 
Q 1069 891 1326 650 
Q 1584 409 2034 409 
Q 2484 409 2743 651 
Q 3003 894 3003 1313 
Q 3003 1734 2745 1975 
Q 2488 2216 2034 2216 
z
M 1403 2484 
Q 997 2584 770 2862 
Q 544 3141 544 3541 
Q 544 4100 942 4425 
Q 1341 4750 2034 4750 
Q 2731 4750 3128 4425 
Q 3525 4100 3525 3541 
Q 3525 3141 3298 2862 
Q 3072 2584 2669 2484 
Q 3125 2378 3379 2068 
Q 3634 1759 3634 1313 
Q 3634 634 3220 271 
Q 2806 -91 2034 -91 
Q 1263 -91 848 271 
Q 434 634 434 1313 
Q 434 1759 690 2068 
Q 947 2378 1403 2484 
z
M 1172 3481 
Q 1172 3119 1398 2916 
Q 1625 2713 2034 2713 
Q 2441 2713 2670 2916 
Q 2900 3119 2900 3481 
Q 2900 3844 2670 4047 
Q 2441 4250 2034 4250 
Q 1625 4250 1398 4047 
Q 1172 3844 1172 3481 
z
" id="DejaVuSans-38" transform="scale(0.015625)"/>
       </defs>
       <use xlink:href="#DejaVuSans-30"/>
       <use x="63.623047" xlink:href="#DejaVuSans-2e"/>
       <use x="95.410156" xlink:href="#DejaVuSans-38"/>
      </g>
     </g>
    </g>
    <g id="xtick_6">
     <g id="line2d_6">
      <g>
       <use style="stroke:#000000;stroke-width:0.8;" x="442.035" xlink:href="#mee103d06ea" y="303.64"/>
      </g>
     </g>
     <g id="text_6">
      <!-- 1.0 -->
      <g transform="translate(434.083437 318.238437)scale(0.1 -0.1)">
       <defs>
        <path d="M 794 531 
L 1825 531 
L 1825 4091 
L 703 3866 
L 703 4441 
L 1819 4666 
L 2450 4666 
L 2450 531 
L 3481 531 
L 3481 0 
L 794 0 
L 794 531 
z
" id="DejaVuSans-31" transform="scale(0.015625)"/>
       </defs>
       <use xlink:href="#DejaVuSans-31"/>
       <use x="63.623047" xlink:href="#DejaVuSans-2e"/>
       <use x="95.410156" xlink:href="#DejaVuSans-30"/>
      </g>
     </g>
    </g>
    <g id="text_7">
     <!-- Credibility index -->
     <g transform="translate(204.317812 331.916562)scale(0.1 -0.1)">
      <defs>
       <path d="M 4122 4306 
L 4122 3641 
Q 3803 3938 3442 4084 
Q 3081 4231 2675 4231 
Q 1875 4231 1450 3742 
Q 1025 3253 1025 2328 
Q 1025 1406 1450 917 
Q 1875 428 2675 428 
Q 3081 428 3442 575 
Q 3803 722 4122 1019 
L 4122 359 
Q 3791 134 3420 21 
Q 3050 -91 2638 -91 
Q 1578 -91 968 557 
Q 359 1206 359 2328 
Q 359 3453 968 4101 
Q 1578 4750 2638 4750 
Q 3056 4750 3426 4639 
Q 3797 4528 4122 4306 
z
" id="DejaVuSans-43" transform="scale(0.015625)"/>
       <path d="M 2631 2963 
Q 2534 3019 2420 3045 
Q 2306 3072 2169 3072 
Q 1681 3072 1420 2755 
Q 1159 2438 1159 1844 
L 1159 0 
L 581 0 
L 581 3500 
L 1159 3500 
L 1159 2956 
Q 1341 3275 1631 3429 
Q 1922 3584 2338 3584 
Q 2397 3584 2469 3576 
Q 2541 3569 2628 3553 
L 2631 2963 
z
" id="DejaVuSans-72" transform="scale(0.015625)"/>
       <path d="M 3597 1894 
L 3597 1613 
L 953 1613 
Q 991 1019 1311 708 
Q 1631 397 2203 397 
Q 2534 397 2845 478 
Q 3156 559 3463 722 
L 3463 178 
Q 3153 47 2828 -22 
Q 2503 -91 2169 -91 
Q 1331 -91 842 396 
Q 353 884 353 1716 
Q 353 2575 817 3079 
Q 1281 3584 2069 3584 
Q 2775 3584 3186 3129 
Q 3597 2675 3597 1894 
z
M 3022 2063 
Q 3016 2534 2758 2815 
Q 2500 3097 2075 3097 
Q 1594 3097 1305 2825 
Q 1016 2553 972 2059 
L 3022 2063 
z
" id="DejaVuSans-65" transform="scale(0.015625)"/>
       <path d="M 2906 2969 
L 2906 4863 
L 3481 4863 
L 3481 0 
L 2906 0 
L 2906 525 
Q 2725 213 2448 61 
Q 2172 -91 1784 -91 
Q 1150 -91 751 415 
Q 353 922 353 1747 
Q 353 2572 751 3078 
Q 1150 3584 1784 3584 
Q 2172 3584 2448 3432 
Q 2725 3281 2906 2969 
z
M 947 1747 
Q 947 1113 1208 752 
Q 1469 391 1925 391 
Q 2381 391 2643 752 
Q 2906 1113 2906 1747 
Q 2906 2381 2643 2742 
Q 2381 3103 1925 3103 
Q 1469 3103 1208 2742 
Q 947 2381 947 1747 
z
" id="DejaVuSans-64" transform="scale(0.015625)"/>
       <path d="M 603 3500 
L 1178 3500 
L 1178 0 
L 603 0 
L 603 3500 
z
M 603 4863 
L 1178 4863 
L 1178 4134 
L 603 4134 
L 603 4863 
z
" id="DejaVuSans-69" transform="scale(0.015625)"/>
       <path d="M 3116 1747 
Q 3116 2381 2855 2742 
Q 2594 3103 2138 3103 
Q 1681 3103 1420 2742 
Q 1159 2381 1159 1747 
Q 1159 1113 1420 752 
Q 1681 391 2138 391 
Q 2594 391 2855 752 
Q 3116 1113 3116 1747 
z
M 1159 2969 
Q 1341 3281 1617 3432 
Q 1894 3584 2278 3584 
Q 2916 3584 3314 3078 
Q 3713 2572 3713 1747 
Q 3713 922 3314 415 
Q 2916 -91 2278 -91 
Q 1894 -91 1617 61 
Q 1341 213 1159 525 
L 1159 0 
L 581 0 
L 581 4863 
L 1159 4863 
L 1159 2969 
z
" id="DejaVuSans-62" transform="scale(0.015625)"/>
       <path d="M 603 4863 
L 1178 4863 
L 1178 0 
L 603 0 
L 603 4863 
z
" id="DejaVuSans-6c" transform="scale(0.015625)"/>
       <path d="M 1172 4494 
L 1172 3500 
L 2356 3500 
L 2356 3053 
L 1172 3053 
L 1172 1153 
Q 1172 725 1289 603 
Q 1406 481 1766 481 
L 2356 481 
L 2356 0 
L 1766 0 
Q 1100 0 847 248 
Q 594 497 594 1153 
L 594 3053 
L 172 3053 
L 172 3500 
L 594 3500 
L 594 4494 
L 1172 4494 
z
" id="DejaVuSans-74" transform="scale(0.015625)"/>
       <path d="M 2059 -325 
Q 1816 -950 1584 -1140 
Q 1353 -1331 966 -1331 
L 506 -1331 
L 506 -850 
L 844 -850 
Q 1081 -850 1212 -737 
Q 1344 -625 1503 -206 
L 1606 56 
L 191 3500 
L 800 3500 
L 1894 763 
L 2988 3500 
L 3597 3500 
L 2059 -325 
z
" id="DejaVuSans-79" transform="scale(0.015625)"/>
       <path id="DejaVuSans-20" transform="scale(0.015625)"/>
       <path d="M 3513 2113 
L 3513 0 
L 2938 0 
L 2938 2094 
Q 2938 2591 2744 2837 
Q 2550 3084 2163 3084 
Q 1697 3084 1428 2787 
Q 1159 2491 1159 1978 
L 1159 0 
L 581 0 
L 581 3500 
L 1159 3500 
L 1159 2956 
Q 1366 3272 1645 3428 
Q 1925 3584 2291 3584 
Q 2894 3584 3203 3211 
Q 3513 2838 3513 2113 
z
" id="DejaVuSans-6e" transform="scale(0.015625)"/>
       <path d="M 3513 3500 
L 2247 1797 
L 3578 0 
L 2900 0 
L 1881 1375 
L 863 0 
L 184 0 
L 1544 1831 
L 300 3500 
L 978 3500 
L 1906 2253 
L 2834 3500 
L 3513 3500 
z
" id="DejaVuSans-78" transform="scale(0.015625)"/>
      </defs>
      <use xlink:href="#DejaVuSans-43"/>
      <use x="69.824219" xlink:href="#DejaVuSans-72"/>
      <use x="108.6875" xlink:href="#DejaVuSans-65"/>
      <use x="170.210938" xlink:href="#DejaVuSans-64"/>
      <use x="233.6875" xlink:href="#DejaVuSans-69"/>
      <use x="261.470703" xlink:href="#DejaVuSans-62"/>
      <use x="324.947266" xlink:href="#DejaVuSans-69"/>
      <use x="352.730469" xlink:href="#DejaVuSans-6c"/>
      <use x="380.513672" xlink:href="#DejaVuSans-69"/>
      <use x="408.296875" xlink:href="#DejaVuSans-74"/>
      <use x="447.505859" xlink:href="#DejaVuSans-79"/>
      <use x="506.685547" xlink:href="#DejaVuSans-20"/>
      <use x="538.472656" xlink:href="#DejaVuSans-69"/>
      <use x="566.255859" xlink:href="#DejaVuSans-6e"/>
      <use x="629.634766" xlink:href="#DejaVuSans-64"/>
      <use x="693.111328" xlink:href="#DejaVuSans-65"/>
      <use x="752.884766" xlink:href="#DejaVuSans-78"/>
     </g>
    </g>
   </g>
   <g id="matplotlib.axis_2">
    <g id="ytick_1">
     <g id="line2d_7">
      <defs>
       <path d="M 0 0 
L -3.5 0 
" id="m2e8cc1b13f" style="stroke:#000000;stroke-width:0.8;"/>
      </defs>
      <g>
       <use style="stroke:#000000;stroke-width:0.8;" x="47.81" xlink:href="#m2e8cc1b13f" y="303.64"/>
      </g>
     </g>
     <g id="text_8">
      <!-- 0.0 -->
      <g transform="translate(24.906875 307.439219)scale(0.1 -0.1)">
       <use xlink:href="#DejaVuSans-30"/>
       <use x="63.623047" xlink:href="#DejaVuSans-2e"/>
       <use x="95.410156" xlink:href="#DejaVuSans-30"/>
      </g>
     </g>
    </g>
    <g id="ytick_2">
     <g id="line2d_8">
      <g>
       <use style="stroke:#000000;stroke-width:0.8;" x="47.81" xlink:href="#m2e8cc1b13f" y="256.477851"/>
      </g>
     </g>
     <g id="text_9">
      <!-- 0.5 -->
      <g transform="translate(24.906875 260.27707)scale(0.1 -0.1)">
       <defs>
        <path d="M 691 4666 
L 3169 4666 
L 3169 4134 
L 1269 4134 
L 1269 2991 
Q 1406 3038 1543 3061 
Q 1681 3084 1819 3084 
Q 2600 3084 3056 2656 
Q 3513 2228 3513 1497 
Q 3513 744 3044 326 
Q 2575 -91 1722 -91 
Q 1428 -91 1123 -41 
Q 819 9 494 109 
L 494 744 
Q 775 591 1075 516 
Q 1375 441 1709 441 
Q 2250 441 2565 725 
Q 2881 1009 2881 1497 
Q 2881 1984 2565 2268 
Q 2250 2553 1709 2553 
Q 1456 2553 1204 2497 
Q 953 2441 691 2322 
L 691 4666 
z
" id="DejaVuSans-35" transform="scale(0.015625)"/>
       </defs>
       <use xlink:href="#DejaVuSans-30"/>
       <use x="63.623047" xlink:href="#DejaVuSans-2e"/>
       <use x="95.410156" xlink:href="#DejaVuSans-35"/>
      </g>
     </g>
    </g>
    <g id="ytick_3">
     <g id="line2d_9">
      <g>
       <use style="stroke:#000000;stroke-width:0.8;" x="47.81" xlink:href="#m2e8cc1b13f" y="209.315702"/>
      </g>
     </g>
     <g id="text_10">
      <!-- 1.0 -->
      <g transform="translate(24.906875 213.11492)scale(0.1 -0.1)">
       <use xlink:href="#DejaVuSans-31"/>
       <use x="63.623047" xlink:href="#DejaVuSans-2e"/>
       <use x="95.410156" xlink:href="#DejaVuSans-30"/>
      </g>
     </g>
    </g>
    <g id="ytick_4">
     <g id="line2d_10">
      <g>
       <use style="stroke:#000000;stroke-width:0.8;" x="47.81" xlink:href="#m2e8cc1b13f" y="162.153553"/>
      </g>
     </g>
     <g id="text_11">
      <!-- 1.5 -->
      <g transform="translate(24.906875 165.952771)scale(0.1 -0.1)">
       <use xlink:href="#DejaVuSans-31"/>
       <use x="63.623047" xlink:href="#DejaVuSans-2e"/>
       <use x="95.410156" xlink:href="#DejaVuSans-35"/>
      </g>
     </g>
    </g>
    <g id="ytick_5">
     <g id="line2d_11">
      <g>
       <use style="stroke:#000000;stroke-width:0.8;" x="47.81" xlink:href="#m2e8cc1b13f" y="114.991403"/>
      </g>
     </g>
     <g id="text_12">
      <!-- 2.0 -->
      <g transform="translate(24.906875 118.790622)scale(0.1 -0.1)">
       <use xlink:href="#DejaVuSans-32"/>
       <use x="63.623047" xlink:href="#DejaVuSans-2e"/>
       <use x="95.410156" xlink:href="#DejaVuSans-30"/>
      </g>
     </g>
    </g>
    <g id="ytick_6">
     <g id="line2d_12">
      <g>
       <use style="stroke:#000000;stroke-width:0.8;" x="47.81" xlink:href="#m2e8cc1b13f" y="67.829254"/>
      </g>
     </g>
     <g id="text_13">
      <!-- 2.5 -->
      <g transform="translate(24.906875 71.628473)scale(0.1 -0.1)">
       <use xlink:href="#DejaVuSans-32"/>
       <use x="63.623047" xlink:href="#DejaVuSans-2e"/>
       <use x="95.410156" xlink:href="#DejaVuSans-35"/>
      </g>
     </g>
    </g>
    <g id="text_14">
     <!-- Density -->
     <g transform="translate(18.827188 189.812594)rotate(-90)scale(0.1 -0.1)">
      <defs>
       <path d="M 1259 4147 
L 1259 519 
L 2022 519 
Q 2988 519 3436 956 
Q 3884 1394 3884 2338 
Q 3884 3275 3436 3711 
Q 2988 4147 2022 4147 
L 1259 4147 
z
M 628 4666 
L 1925 4666 
Q 3281 4666 3915 4102 
Q 4550 3538 4550 2338 
Q 4550 1131 3912 565 
Q 3275 0 1925 0 
L 628 0 
L 628 4666 
z
" id="DejaVuSans-44" transform="scale(0.015625)"/>
       <path d="M 2834 3397 
L 2834 2853 
Q 2591 2978 2328 3040 
Q 2066 3103 1784 3103 
Q 1356 3103 1142 2972 
Q 928 2841 928 2578 
Q 928 2378 1081 2264 
Q 1234 2150 1697 2047 
L 1894 2003 
Q 2506 1872 2764 1633 
Q 3022 1394 3022 966 
Q 3022 478 2636 193 
Q 2250 -91 1575 -91 
Q 1294 -91 989 -36 
Q 684 19 347 128 
L 347 722 
Q 666 556 975 473 
Q 1284 391 1588 391 
Q 1994 391 2212 530 
Q 2431 669 2431 922 
Q 2431 1156 2273 1281 
Q 2116 1406 1581 1522 
L 1381 1569 
Q 847 1681 609 1914 
Q 372 2147 372 2553 
Q 372 3047 722 3315 
Q 1072 3584 1716 3584 
Q 2034 3584 2315 3537 
Q 2597 3491 2834 3397 
z
" id="DejaVuSans-73" transform="scale(0.015625)"/>
      </defs>
      <use xlink:href="#DejaVuSans-44"/>
      <use x="77.001953" xlink:href="#DejaVuSans-65"/>
      <use x="138.525391" xlink:href="#DejaVuSans-6e"/>
      <use x="201.904297" xlink:href="#DejaVuSans-73"/>
      <use x="254.003906" xlink:href="#DejaVuSans-69"/>
      <use x="281.787109" xlink:href="#DejaVuSans-74"/>
      <use x="320.996094" xlink:href="#DejaVuSans-79"/>
     </g>
    </g>
   </g>
   <g id="patch_3">
    <path d="M 47.81 303.64 
L 47.81 37.968 
" style="fill:none;stroke:#000000;stroke-linecap:square;stroke-linejoin:miter;stroke-width:0.8;"/>
   </g>
   <g id="patch_4">
    <path d="M 442.035 303.64 
L 442.035 37.968 
" style="fill:none;stroke:#000000;stroke-linecap:square;stroke-linejoin:miter;stroke-width:0.8;"/>
   </g>
   <g id="patch_5">
    <path d="M 47.81 303.64 
L 442.035 303.64 
" style="fill:none;stroke:#000000;stroke-linecap:square;stroke-linejoin:miter;stroke-width:0.8;"/>
   </g>
   <g id="patch_6">
    <path d="M 47.81 37.968 
L 442.035 37.968 
" style="fill:none;stroke:#000000;stroke-linecap:square;stroke-linejoin:miter;stroke-width:0.8;"/>
   </g>
   <g id="text_15">
    <!-- Credibility index consensus vs non consensus  -->
    <g transform="translate(105.81625 18.530625)scale(0.12 -0.12)">
     <defs>
      <path d="M 3122 3366 
L 3122 2828 
Q 2878 2963 2633 3030 
Q 2388 3097 2138 3097 
Q 1578 3097 1268 2742 
Q 959 2388 959 1747 
Q 959 1106 1268 751 
Q 1578 397 2138 397 
Q 2388 397 2633 464 
Q 2878 531 3122 666 
L 3122 134 
Q 2881 22 2623 -34 
Q 2366 -91 2075 -91 
Q 1284 -91 818 406 
Q 353 903 353 1747 
Q 353 2603 823 3093 
Q 1294 3584 2113 3584 
Q 2378 3584 2631 3529 
Q 2884 3475 3122 3366 
z
" id="DejaVuSans-63" transform="scale(0.015625)"/>
      <path d="M 1959 3097 
Q 1497 3097 1228 2736 
Q 959 2375 959 1747 
Q 959 1119 1226 758 
Q 1494 397 1959 397 
Q 2419 397 2687 759 
Q 2956 1122 2956 1747 
Q 2956 2369 2687 2733 
Q 2419 3097 1959 3097 
z
M 1959 3584 
Q 2709 3584 3137 3096 
Q 3566 2609 3566 1747 
Q 3566 888 3137 398 
Q 2709 -91 1959 -91 
Q 1206 -91 779 398 
Q 353 888 353 1747 
Q 353 2609 779 3096 
Q 1206 3584 1959 3584 
z
" id="DejaVuSans-6f" transform="scale(0.015625)"/>
      <path d="M 544 1381 
L 544 3500 
L 1119 3500 
L 1119 1403 
Q 1119 906 1312 657 
Q 1506 409 1894 409 
Q 2359 409 2629 706 
Q 2900 1003 2900 1516 
L 2900 3500 
L 3475 3500 
L 3475 0 
L 2900 0 
L 2900 538 
Q 2691 219 2414 64 
Q 2138 -91 1772 -91 
Q 1169 -91 856 284 
Q 544 659 544 1381 
z
M 1991 3584 
L 1991 3584 
z
" id="DejaVuSans-75" transform="scale(0.015625)"/>
      <path d="M 191 3500 
L 800 3500 
L 1894 563 
L 2988 3500 
L 3597 3500 
L 2284 0 
L 1503 0 
L 191 3500 
z
" id="DejaVuSans-76" transform="scale(0.015625)"/>
     </defs>
     <use xlink:href="#DejaVuSans-43"/>
     <use x="69.824219" xlink:href="#DejaVuSans-72"/>
     <use x="108.6875" xlink:href="#DejaVuSans-65"/>
     <use x="170.210938" xlink:href="#DejaVuSans-64"/>
     <use x="233.6875" xlink:href="#DejaVuSans-69"/>
     <use x="261.470703" xlink:href="#DejaVuSans-62"/>
     <use x="324.947266" xlink:href="#DejaVuSans-69"/>
     <use x="352.730469" xlink:href="#DejaVuSans-6c"/>
     <use x="380.513672" xlink:href="#DejaVuSans-69"/>
     <use x="408.296875" xlink:href="#DejaVuSans-74"/>
     <use x="447.505859" xlink:href="#DejaVuSans-79"/>
     <use x="506.685547" xlink:href="#DejaVuSans-20"/>
     <use x="538.472656" xlink:href="#DejaVuSans-69"/>
     <use x="566.255859" xlink:href="#DejaVuSans-6e"/>
     <use x="629.634766" xlink:href="#DejaVuSans-64"/>
     <use x="693.111328" xlink:href="#DejaVuSans-65"/>
     <use x="752.884766" xlink:href="#DejaVuSans-78"/>
     <use x="812.064453" xlink:href="#DejaVuSans-20"/>
     <use x="843.851562" xlink:href="#DejaVuSans-63"/>
     <use x="898.832031" xlink:href="#DejaVuSans-6f"/>
     <use x="960.013672" xlink:href="#DejaVuSans-6e"/>
     <use x="1023.392578" xlink:href="#DejaVuSans-73"/>
     <use x="1075.492188" xlink:href="#DejaVuSans-65"/>
     <use x="1137.015625" xlink:href="#DejaVuSans-6e"/>
     <use x="1200.394531" xlink:href="#DejaVuSans-73"/>
     <use x="1252.494141" xlink:href="#DejaVuSans-75"/>
     <use x="1315.873047" xlink:href="#DejaVuSans-73"/>
     <use x="1367.972656" xlink:href="#DejaVuSans-20"/>
     <use x="1399.759766" xlink:href="#DejaVuSans-76"/>
     <use x="1458.939453" xlink:href="#DejaVuSans-73"/>
     <use x="1511.039062" xlink:href="#DejaVuSans-20"/>
     <use x="1542.826172" xlink:href="#DejaVuSans-6e"/>
     <use x="1606.205078" xlink:href="#DejaVuSans-6f"/>
     <use x="1667.386719" xlink:href="#DejaVuSans-6e"/>
     <use x="1730.765625" xlink:href="#DejaVuSans-20"/>
     <use x="1762.552734" xlink:href="#DejaVuSans-63"/>
     <use x="1817.533203" xlink:href="#DejaVuSans-6f"/>
     <use x="1878.714844" xlink:href="#DejaVuSans-6e"/>
     <use x="1942.09375" xlink:href="#DejaVuSans-73"/>
     <use x="1994.193359" xlink:href="#DejaVuSans-65"/>
     <use x="2055.716797" xlink:href="#DejaVuSans-6e"/>
     <use x="2119.095703" xlink:href="#DejaVuSans-73"/>
     <use x="2171.195312" xlink:href="#DejaVuSans-75"/>
     <use x="2234.574219" xlink:href="#DejaVuSans-73"/>
     <use x="2286.673828" xlink:href="#DejaVuSans-20"/>
    </g>
    <!-- Set s2 -->
    <g transform="translate(226.219375 31.968)scale(0.12 -0.12)">
     <defs>
      <path d="M 3425 4513 
L 3425 3897 
Q 3066 4069 2747 4153 
Q 2428 4238 2131 4238 
Q 1616 4238 1336 4038 
Q 1056 3838 1056 3469 
Q 1056 3159 1242 3001 
Q 1428 2844 1947 2747 
L 2328 2669 
Q 3034 2534 3370 2195 
Q 3706 1856 3706 1288 
Q 3706 609 3251 259 
Q 2797 -91 1919 -91 
Q 1588 -91 1214 -16 
Q 841 59 441 206 
L 441 856 
Q 825 641 1194 531 
Q 1563 422 1919 422 
Q 2459 422 2753 634 
Q 3047 847 3047 1241 
Q 3047 1584 2836 1778 
Q 2625 1972 2144 2069 
L 1759 2144 
Q 1053 2284 737 2584 
Q 422 2884 422 3419 
Q 422 4038 858 4394 
Q 1294 4750 2059 4750 
Q 2388 4750 2728 4690 
Q 3069 4631 3425 4513 
z
" id="DejaVuSans-53" transform="scale(0.015625)"/>
     </defs>
     <use xlink:href="#DejaVuSans-53"/>
     <use x="63.476562" xlink:href="#DejaVuSans-65"/>
     <use x="125" xlink:href="#DejaVuSans-74"/>
     <use x="164.208984" xlink:href="#DejaVuSans-20"/>
     <use x="195.996094" xlink:href="#DejaVuSans-73"/>
     <use x="248.095703" xlink:href="#DejaVuSans-32"/>
    </g>
   </g>
   <g id="legend_1">
    <g id="patch_7">
     <path d="M 54.81 97.719875 
L 225.352188 97.719875 
Q 227.352188 97.719875 227.352188 95.719875 
L 227.352188 44.968 
Q 227.352188 42.968 225.352188 42.968 
L 54.81 42.968 
Q 52.81 42.968 52.81 44.968 
L 52.81 95.719875 
Q 52.81 97.719875 54.81 97.719875 
z
" style="fill:#ffffff;opacity:0.8;stroke:#cccccc;stroke-linejoin:miter;"/>
    </g>
    <g id="patch_8">
     <path d="M 56.81 61.205188 
L 76.81 61.205188 
L 76.81 54.205188 
L 56.81 54.205188 
z
" style="fill:#1f77b4;fill-opacity:0.4;stroke:#1f77b4;stroke-linejoin:miter;"/>
    </g>
    <g id="text_16">
     <!-- Correlation higher than 0  -->
     <g transform="translate(84.81 54.566438)scale(0.1 -0.1)">
      <defs>
       <path d="M 2194 1759 
Q 1497 1759 1228 1600 
Q 959 1441 959 1056 
Q 959 750 1161 570 
Q 1363 391 1709 391 
Q 2188 391 2477 730 
Q 2766 1069 2766 1631 
L 2766 1759 
L 2194 1759 
z
M 3341 1997 
L 3341 0 
L 2766 0 
L 2766 531 
Q 2569 213 2275 61 
Q 1981 -91 1556 -91 
Q 1019 -91 701 211 
Q 384 513 384 1019 
Q 384 1609 779 1909 
Q 1175 2209 1959 2209 
L 2766 2209 
L 2766 2266 
Q 2766 2663 2505 2880 
Q 2244 3097 1772 3097 
Q 1472 3097 1187 3025 
Q 903 2953 641 2809 
L 641 3341 
Q 956 3463 1253 3523 
Q 1550 3584 1831 3584 
Q 2591 3584 2966 3190 
Q 3341 2797 3341 1997 
z
" id="DejaVuSans-61" transform="scale(0.015625)"/>
       <path d="M 3513 2113 
L 3513 0 
L 2938 0 
L 2938 2094 
Q 2938 2591 2744 2837 
Q 2550 3084 2163 3084 
Q 1697 3084 1428 2787 
Q 1159 2491 1159 1978 
L 1159 0 
L 581 0 
L 581 4863 
L 1159 4863 
L 1159 2956 
Q 1366 3272 1645 3428 
Q 1925 3584 2291 3584 
Q 2894 3584 3203 3211 
Q 3513 2838 3513 2113 
z
" id="DejaVuSans-68" transform="scale(0.015625)"/>
       <path d="M 2906 1791 
Q 2906 2416 2648 2759 
Q 2391 3103 1925 3103 
Q 1463 3103 1205 2759 
Q 947 2416 947 1791 
Q 947 1169 1205 825 
Q 1463 481 1925 481 
Q 2391 481 2648 825 
Q 2906 1169 2906 1791 
z
M 3481 434 
Q 3481 -459 3084 -895 
Q 2688 -1331 1869 -1331 
Q 1566 -1331 1297 -1286 
Q 1028 -1241 775 -1147 
L 775 -588 
Q 1028 -725 1275 -790 
Q 1522 -856 1778 -856 
Q 2344 -856 2625 -561 
Q 2906 -266 2906 331 
L 2906 616 
Q 2728 306 2450 153 
Q 2172 0 1784 0 
Q 1141 0 747 490 
Q 353 981 353 1791 
Q 353 2603 747 3093 
Q 1141 3584 1784 3584 
Q 2172 3584 2450 3431 
Q 2728 3278 2906 2969 
L 2906 3500 
L 3481 3500 
L 3481 434 
z
" id="DejaVuSans-67" transform="scale(0.015625)"/>
      </defs>
      <use xlink:href="#DejaVuSans-43"/>
      <use x="69.824219" xlink:href="#DejaVuSans-6f"/>
      <use x="131.005859" xlink:href="#DejaVuSans-72"/>
      <use x="170.369141" xlink:href="#DejaVuSans-72"/>
      <use x="209.232422" xlink:href="#DejaVuSans-65"/>
      <use x="270.755859" xlink:href="#DejaVuSans-6c"/>
      <use x="298.539062" xlink:href="#DejaVuSans-61"/>
      <use x="359.818359" xlink:href="#DejaVuSans-74"/>
      <use x="399.027344" xlink:href="#DejaVuSans-69"/>
      <use x="426.810547" xlink:href="#DejaVuSans-6f"/>
      <use x="487.992188" xlink:href="#DejaVuSans-6e"/>
      <use x="551.371094" xlink:href="#DejaVuSans-20"/>
      <use x="583.158203" xlink:href="#DejaVuSans-68"/>
      <use x="646.537109" xlink:href="#DejaVuSans-69"/>
      <use x="674.320312" xlink:href="#DejaVuSans-67"/>
      <use x="737.796875" xlink:href="#DejaVuSans-68"/>
      <use x="801.175781" xlink:href="#DejaVuSans-65"/>
      <use x="862.699219" xlink:href="#DejaVuSans-72"/>
      <use x="903.8125" xlink:href="#DejaVuSans-20"/>
      <use x="935.599609" xlink:href="#DejaVuSans-74"/>
      <use x="974.808594" xlink:href="#DejaVuSans-68"/>
      <use x="1038.1875" xlink:href="#DejaVuSans-61"/>
      <use x="1099.466797" xlink:href="#DejaVuSans-6e"/>
      <use x="1162.845703" xlink:href="#DejaVuSans-20"/>
      <use x="1194.632812" xlink:href="#DejaVuSans-30"/>
      <use x="1258.255859" xlink:href="#DejaVuSans-20"/>
     </g>
     <!-- n=201 -->
     <g transform="translate(84.81 65.76425)scale(0.1 -0.1)">
      <defs>
       <path d="M 678 2906 
L 4684 2906 
L 4684 2381 
L 678 2381 
L 678 2906 
z
M 678 1631 
L 4684 1631 
L 4684 1100 
L 678 1100 
L 678 1631 
z
" id="DejaVuSans-3d" transform="scale(0.015625)"/>
      </defs>
      <use xlink:href="#DejaVuSans-6e"/>
      <use x="63.378906" xlink:href="#DejaVuSans-3d"/>
      <use x="147.167969" xlink:href="#DejaVuSans-32"/>
      <use x="210.791016" xlink:href="#DejaVuSans-30"/>
      <use x="274.414062" xlink:href="#DejaVuSans-31"/>
     </g>
    </g>
    <g id="patch_9">
     <path d="M 56.81 87.081125 
L 76.81 87.081125 
L 76.81 80.081125 
L 56.81 80.081125 
z
" style="fill:#ff7f0e;fill-opacity:0.4;stroke:#ff7f0e;stroke-linejoin:miter;"/>
    </g>
    <g id="text_17">
     <!-- Correlation higher than 0.8  -->
     <g transform="translate(84.81 80.442375)scale(0.1 -0.1)">
      <use xlink:href="#DejaVuSans-43"/>
      <use x="69.824219" xlink:href="#DejaVuSans-6f"/>
      <use x="131.005859" xlink:href="#DejaVuSans-72"/>
      <use x="170.369141" xlink:href="#DejaVuSans-72"/>
      <use x="209.232422" xlink:href="#DejaVuSans-65"/>
      <use x="270.755859" xlink:href="#DejaVuSans-6c"/>
      <use x="298.539062" xlink:href="#DejaVuSans-61"/>
      <use x="359.818359" xlink:href="#DejaVuSans-74"/>
      <use x="399.027344" xlink:href="#DejaVuSans-69"/>
      <use x="426.810547" xlink:href="#DejaVuSans-6f"/>
      <use x="487.992188" xlink:href="#DejaVuSans-6e"/>
      <use x="551.371094" xlink:href="#DejaVuSans-20"/>
      <use x="583.158203" xlink:href="#DejaVuSans-68"/>
      <use x="646.537109" xlink:href="#DejaVuSans-69"/>
      <use x="674.320312" xlink:href="#DejaVuSans-67"/>
      <use x="737.796875" xlink:href="#DejaVuSans-68"/>
      <use x="801.175781" xlink:href="#DejaVuSans-65"/>
      <use x="862.699219" xlink:href="#DejaVuSans-72"/>
      <use x="903.8125" xlink:href="#DejaVuSans-20"/>
      <use x="935.599609" xlink:href="#DejaVuSans-74"/>
      <use x="974.808594" xlink:href="#DejaVuSans-68"/>
      <use x="1038.1875" xlink:href="#DejaVuSans-61"/>
      <use x="1099.466797" xlink:href="#DejaVuSans-6e"/>
      <use x="1162.845703" xlink:href="#DejaVuSans-20"/>
      <use x="1194.632812" xlink:href="#DejaVuSans-30"/>
      <use x="1258.255859" xlink:href="#DejaVuSans-2e"/>
      <use x="1290.042969" xlink:href="#DejaVuSans-38"/>
      <use x="1353.666016" xlink:href="#DejaVuSans-20"/>
     </g>
     <!-- n=3 -->
     <g transform="translate(84.81 91.640187)scale(0.1 -0.1)">
      <defs>
       <path d="M 2597 2516 
Q 3050 2419 3304 2112 
Q 3559 1806 3559 1356 
Q 3559 666 3084 287 
Q 2609 -91 1734 -91 
Q 1441 -91 1130 -33 
Q 819 25 488 141 
L 488 750 
Q 750 597 1062 519 
Q 1375 441 1716 441 
Q 2309 441 2620 675 
Q 2931 909 2931 1356 
Q 2931 1769 2642 2001 
Q 2353 2234 1838 2234 
L 1294 2234 
L 1294 2753 
L 1863 2753 
Q 2328 2753 2575 2939 
Q 2822 3125 2822 3475 
Q 2822 3834 2567 4026 
Q 2313 4219 1838 4219 
Q 1578 4219 1281 4162 
Q 984 4106 628 3988 
L 628 4550 
Q 988 4650 1302 4700 
Q 1616 4750 1894 4750 
Q 2613 4750 3031 4423 
Q 3450 4097 3450 3541 
Q 3450 3153 3228 2886 
Q 3006 2619 2597 2516 
z
" id="DejaVuSans-33" transform="scale(0.015625)"/>
      </defs>
      <use xlink:href="#DejaVuSans-6e"/>
      <use x="63.378906" xlink:href="#DejaVuSans-3d"/>
      <use x="147.167969" xlink:href="#DejaVuSans-33"/>
     </g>
    </g>
   </g>
  </g>
 </g>
 <defs>
  <clipPath id="p511f4e645c">
   <rect height="265.672" width="394.225" x="47.81" y="37.968"/>
  </clipPath>
 </defs>
</svg>
