<?xml version="1.0" encoding="utf-8" standalone="no"?>
<!DOCTYPE svg PUBLIC "-//W3C//DTD SVG 1.1//EN"
  "http://www.w3.org/Graphics/SVG/1.1/DTD/svg11.dtd">
<svg height="345.6pt" version="1.1" viewBox="0 0 460.8 345.6" width="460.8pt" xmlns="http://www.w3.org/2000/svg" xmlns:xlink="http://www.w3.org/1999/xlink">
 <metadata>
  <rdf:RDF xmlns:cc="http://creativecommons.org/ns#" xmlns:dc="http://purl.org/dc/elements/1.1/" xmlns:rdf="http://www.w3.org/1999/02/22-rdf-syntax-ns#">
   <cc:Work>
    <dc:type rdf:resource="http://purl.org/dc/dcmitype/StillImage"/>
    <dc:date>2021-11-24T22:48:19.195672</dc:date>
    <dc:format>image/svg+xml</dc:format>
    <dc:creator>
     <cc:Agent>
      <dc:title>Matplotlib v3.4.3, https://matplotlib.org/</dc:title>
     </cc:Agent>
    </dc:creator>
   </cc:Work>
  </rdf:RDF>
 </metadata>
 <defs>
  <style type="text/css">*{stroke-linecap:butt;stroke-linejoin:round;}</style>
 </defs>
 <g id="figure_1">
  <g id="patch_1">
   <path d="M 0 345.6 
L 460.8 345.6 
L 460.8 0 
L 0 0 
z
" style="fill:#ffffff;"/>
  </g>
  <g id="axes_1">
   <g id="patch_2">
    <path d="M 54.2 303.64 
L 442.035 303.64 
L 442.035 37.968 
L 54.2 37.968 
z
" style="fill:#ffffff;"/>
   </g>
   <g id="PolyCollection_1">
    <path clip-path="url(#p120615dbb8)" d="M -40.897855 303.308891 
L -40.897855 303.64 
L -37.759307 303.64 
L -34.62076 303.64 
L -31.482213 303.64 
L -28.343666 303.64 
L -25.205118 303.64 
L -22.066571 303.64 
L -18.928024 303.64 
L -15.789476 303.64 
L -12.650929 303.64 
L -9.512382 303.64 
L -6.373835 303.64 
L -3.235287 303.64 
L -0.09674 303.64 
L 3.041807 303.64 
L 6.180355 303.64 
L 9.318902 303.64 
L 12.457449 303.64 
L 15.595996 303.64 
L 18.734544 303.64 
L 21.873091 303.64 
L 25.011638 303.64 
L 28.150186 303.64 
L 31.288733 303.64 
L 34.42728 303.64 
L 37.565827 303.64 
L 40.704375 303.64 
L 43.842922 303.64 
L 46.981469 303.64 
L 50.120017 303.64 
L 53.258564 303.64 
L 56.397111 303.64 
L 59.535658 303.64 
L 62.674206 303.64 
L 65.812753 303.64 
L 68.9513 303.64 
L 72.089848 303.64 
L 75.228395 303.64 
L 78.366942 303.64 
L 81.505489 303.64 
L 84.644037 303.64 
L 87.782584 303.64 
L 90.921131 303.64 
L 94.059679 303.64 
L 97.198226 303.64 
L 100.336773 303.64 
L 103.47532 303.64 
L 106.613868 303.64 
L 109.752415 303.64 
L 112.890962 303.64 
L 116.029509 303.64 
L 119.168057 303.64 
L 122.306604 303.64 
L 125.445151 303.64 
L 128.583699 303.64 
L 131.722246 303.64 
L 134.860793 303.64 
L 137.99934 303.64 
L 141.137888 303.64 
L 144.276435 303.64 
L 147.414982 303.64 
L 150.55353 303.64 
L 153.692077 303.64 
L 156.830624 303.64 
L 159.969171 303.64 
L 163.107719 303.64 
L 166.246266 303.64 
L 169.384813 303.64 
L 172.523361 303.64 
L 175.661908 303.64 
L 178.800455 303.64 
L 181.939002 303.64 
L 185.07755 303.64 
L 188.216097 303.64 
L 191.354644 303.64 
L 194.493192 303.64 
L 197.631739 303.64 
L 200.770286 303.64 
L 203.908833 303.64 
L 207.047381 303.64 
L 210.185928 303.64 
L 213.324475 303.64 
L 216.463023 303.64 
L 219.60157 303.64 
L 222.740117 303.64 
L 225.878664 303.64 
L 229.017212 303.64 
L 232.155759 303.64 
L 235.294306 303.64 
L 238.432854 303.64 
L 241.571401 303.64 
L 244.709948 303.64 
L 247.848495 303.64 
L 250.987043 303.64 
L 254.12559 303.64 
L 257.264137 303.64 
L 260.402685 303.64 
L 263.541232 303.64 
L 266.679779 303.64 
L 269.818326 303.64 
L 272.956874 303.64 
L 276.095421 303.64 
L 279.233968 303.64 
L 282.372515 303.64 
L 285.511063 303.64 
L 288.64961 303.64 
L 291.788157 303.64 
L 294.926705 303.64 
L 298.065252 303.64 
L 301.203799 303.64 
L 304.342346 303.64 
L 307.480894 303.64 
L 310.619441 303.64 
L 313.757988 303.64 
L 316.896536 303.64 
L 320.035083 303.64 
L 323.17363 303.64 
L 326.312177 303.64 
L 329.450725 303.64 
L 332.589272 303.64 
L 335.727819 303.64 
L 338.866367 303.64 
L 342.004914 303.64 
L 345.143461 303.64 
L 348.282008 303.64 
L 351.420556 303.64 
L 354.559103 303.64 
L 357.69765 303.64 
L 360.836198 303.64 
L 363.974745 303.64 
L 367.113292 303.64 
L 370.251839 303.64 
L 373.390387 303.64 
L 376.528934 303.64 
L 379.667481 303.64 
L 382.806029 303.64 
L 385.944576 303.64 
L 389.083123 303.64 
L 392.22167 303.64 
L 395.360218 303.64 
L 398.498765 303.64 
L 401.637312 303.64 
L 404.77586 303.64 
L 407.914407 303.64 
L 411.052954 303.64 
L 414.191501 303.64 
L 417.330049 303.64 
L 420.468596 303.64 
L 423.607143 303.64 
L 426.745691 303.64 
L 429.884238 303.64 
L 433.022785 303.64 
L 436.161332 303.64 
L 439.29988 303.64 
L 442.438427 303.64 
L 445.576974 303.64 
L 448.715521 303.64 
L 451.854069 303.64 
L 454.992616 303.64 
L 458.131163 303.64 
L 461.269711 303.64 
L 464.408258 303.64 
L 467.546805 303.64 
L 470.685352 303.64 
L 473.8239 303.64 
L 476.962447 303.64 
L 480.100994 303.64 
L 483.239542 303.64 
L 486.378089 303.64 
L 489.516636 303.64 
L 492.655183 303.64 
L 495.793731 303.64 
L 498.932278 303.64 
L 502.070825 303.64 
L 505.209373 303.64 
L 508.34792 303.64 
L 511.486467 303.64 
L 514.625014 303.64 
L 517.763562 303.64 
L 520.902109 303.64 
L 524.040656 303.64 
L 527.179204 303.64 
L 530.317751 303.64 
L 533.456298 303.64 
L 536.594845 303.64 
L 539.733393 303.64 
L 542.87194 303.64 
L 546.010487 303.64 
L 549.149035 303.64 
L 552.287582 303.64 
L 555.426129 303.64 
L 558.564676 303.64 
L 561.703224 303.64 
L 564.841771 303.64 
L 567.980318 303.64 
L 571.118866 303.64 
L 574.257413 303.64 
L 577.39596 303.64 
L 580.534507 303.64 
L 583.673055 303.64 
L 583.673055 302.18839 
L 583.673055 302.18839 
L 580.534507 301.86777 
L 577.39596 301.485699 
L 574.257413 301.032586 
L 571.118866 300.497809 
L 567.980318 299.869702 
L 564.841771 299.135559 
L 561.703224 298.281661 
L 558.564676 297.293339 
L 555.426129 296.155062 
L 552.287582 294.850565 
L 549.149035 293.363016 
L 546.010487 291.675219 
L 542.87194 289.769871 
L 539.733393 287.629847 
L 536.594845 285.238534 
L 533.456298 282.580206 
L 530.317751 279.640422 
L 527.179204 276.406463 
L 524.040656 272.867781 
L 520.902109 269.016459 
L 517.763562 264.847672 
L 514.625014 260.360131 
L 511.486467 255.556504 
L 508.34792 250.443786 
L 505.209373 245.033624 
L 502.070825 239.342565 
L 498.932278 233.392216 
L 495.793731 227.209317 
L 492.655183 220.8257 
L 489.516636 214.278133 
L 486.378089 207.608051 
L 483.239542 200.861156 
L 480.100994 194.086908 
L 476.962447 187.337891 
L 473.8239 180.669086 
L 470.685352 174.137044 
L 467.546805 167.79899 
L 464.408258 161.711873 
L 461.269711 155.931379 
L 458.131163 150.510946 
L 454.992616 145.500782 
L 451.854069 140.946946 
L 448.715521 136.890475 
L 445.576974 133.366624 
L 442.438427 130.404199 
L 439.29988 128.025036 
L 436.161332 126.243619 
L 433.022785 125.066844 
L 429.884238 124.493963 
L 426.745691 124.516664 
L 423.607143 125.119331 
L 420.468596 126.279428 
L 417.330049 127.968038 
L 414.191501 130.150505 
L 411.052954 132.787179 
L 407.914407 135.834237 
L 404.77586 139.244549 
L 401.637312 142.968584 
L 398.498765 146.955304 
L 395.360218 151.153052 
L 392.22167 155.510389 
L 389.083123 159.976879 
L 385.944576 164.503796 
L 382.806029 169.044743 
L 379.667481 173.556173 
L 376.528934 177.997817 
L 373.390387 182.332999 
L 370.251839 186.528855 
L 367.113292 190.556454 
L 363.974745 194.390835 
L 360.836198 198.010957 
L 357.69765 201.399587 
L 354.559103 204.543134 
L 351.420556 207.431432 
L 348.282008 210.057504 
L 345.143461 212.417297 
L 342.004914 214.509421 
L 338.866367 216.334879 
L 335.727819 217.896818 
L 332.589272 219.200292 
L 329.450725 220.252044 
L 326.312177 221.060315 
L 323.17363 221.634674 
L 320.035083 221.985874 
L 316.896536 222.125723 
L 313.757988 222.066974 
L 310.619441 221.823229 
L 307.480894 221.408846 
L 304.342346 220.838848 
L 301.203799 220.128834 
L 298.065252 219.294878 
L 294.926705 218.353417 
L 291.788157 217.32113 
L 288.64961 216.214799 
L 285.511063 215.051154 
L 282.372515 213.846707 
L 279.233968 212.617577 
L 276.095421 211.379294 
L 272.956874 210.146616 
L 269.818326 208.933333 
L 266.679779 207.752082 
L 263.541232 206.614176 
L 260.402685 205.529452 
L 257.264137 204.506131 
L 254.12559 203.550723 
L 250.987043 202.667954 
L 247.848495 201.860731 
L 244.709948 201.130153 
L 241.571401 200.475553 
L 238.432854 199.894589 
L 235.294306 199.383369 
L 232.155759 198.93662 
L 229.017212 198.547889 
L 225.878664 198.209769 
L 222.740117 197.914161 
L 219.60157 197.652545 
L 216.463023 197.416271 
L 213.324475 197.196846 
L 210.185928 196.986235 
L 207.047381 196.777133 
L 203.908833 196.563241 
L 200.770286 196.339501 
L 197.631739 196.102318 
L 194.493192 195.84974 
L 191.354644 195.581595 
L 188.216097 195.299594 
L 185.07755 195.007384 
L 181.939002 194.710549 
L 178.800455 194.416573 
L 175.661908 194.134745 
L 172.523361 193.876024 
L 169.384813 193.652853 
L 166.246266 193.478944 
L 163.107719 193.369015 
L 159.969171 193.338503 
L 156.830624 193.403251 
L 153.692077 193.579182 
L 150.55353 193.881951 
L 147.414982 194.32661 
L 144.276435 194.927265 
L 141.137888 195.696754 
L 137.99934 196.646343 
L 134.860793 197.785444 
L 131.722246 199.121383 
L 128.583699 200.659189 
L 125.445151 202.401439 
L 122.306604 204.348155 
L 119.168057 206.496738 
L 116.029509 208.841974 
L 112.890962 211.376078 
L 109.752415 214.088795 
L 106.613868 216.967555 
L 103.47532 219.997664 
L 100.336773 223.162546 
L 97.198226 226.44401 
L 94.059679 229.822557 
L 90.921131 233.277692 
L 87.782584 236.788267 
L 84.644037 240.332813 
L 81.505489 243.889882 
L 78.366942 247.43837 
L 75.228395 250.957828 
L 72.089848 254.428747 
L 68.9513 257.832813 
L 65.812753 261.153133 
L 62.674206 264.374416 
L 59.535658 267.483121 
L 56.397111 270.467564 
L 53.258564 273.317977 
L 50.120017 276.026538 
L 46.981469 278.587355 
L 43.842922 280.996418 
L 40.704375 283.251519 
L 37.565827 285.352148 
L 34.42728 287.299362 
L 31.288733 289.095637 
L 28.150186 290.74471 
L 25.011638 292.25141 
L 21.873091 293.621484 
L 18.734544 294.861426 
L 15.595996 295.978311 
L 12.457449 296.979631 
L 9.318902 297.873148 
L 6.180355 298.666755 
L 3.041807 299.368351 
L -0.09674 299.985732 
L -3.235287 300.526501 
L -6.373835 300.997982 
L -9.512382 301.407167 
L -12.650929 301.760658 
L -15.789476 302.064641 
L -18.928024 302.324855 
L -22.066571 302.546588 
L -25.205118 302.734672 
L -28.343666 302.893489 
L -31.482213 303.026985 
L -34.62076 303.138688 
L -37.759307 303.231735 
L -40.897855 303.308891 
z
" style="fill:#1f77b4;fill-opacity:0.4;stroke:#1f77b4;"/>
   </g>
   <g id="PolyCollection_2">
    <defs>
     <path d="M 177.061478 -43.918749 
L 177.061478 -41.96 
L 179.256788 -41.96 
L 181.452098 -41.96 
L 183.647408 -41.96 
L 185.842717 -41.96 
L 188.038027 -41.96 
L 190.233337 -41.96 
L 192.428647 -41.96 
L 194.623956 -41.96 
L 196.819266 -41.96 
L 199.014576 -41.96 
L 201.209886 -41.96 
L 203.405196 -41.96 
L 205.600505 -41.96 
L 207.795815 -41.96 
L 209.991125 -41.96 
L 212.186435 -41.96 
L 214.381744 -41.96 
L 216.577054 -41.96 
L 218.772364 -41.96 
L 220.967674 -41.96 
L 223.162983 -41.96 
L 225.358293 -41.96 
L 227.553603 -41.96 
L 229.748913 -41.96 
L 231.944222 -41.96 
L 234.139532 -41.96 
L 236.334842 -41.96 
L 238.530152 -41.96 
L 240.725462 -41.96 
L 242.920771 -41.96 
L 245.116081 -41.96 
L 247.311391 -41.96 
L 249.506701 -41.96 
L 251.70201 -41.96 
L 253.89732 -41.96 
L 256.09263 -41.96 
L 258.28794 -41.96 
L 260.483249 -41.96 
L 262.678559 -41.96 
L 264.873869 -41.96 
L 267.069179 -41.96 
L 269.264488 -41.96 
L 271.459798 -41.96 
L 273.655108 -41.96 
L 275.850418 -41.96 
L 278.045728 -41.96 
L 280.241037 -41.96 
L 282.436347 -41.96 
L 284.631657 -41.96 
L 286.826967 -41.96 
L 289.022276 -41.96 
L 291.217586 -41.96 
L 293.412896 -41.96 
L 295.608206 -41.96 
L 297.803515 -41.96 
L 299.998825 -41.96 
L 302.194135 -41.96 
L 304.389445 -41.96 
L 306.584754 -41.96 
L 308.780064 -41.96 
L 310.975374 -41.96 
L 313.170684 -41.96 
L 315.365994 -41.96 
L 317.561303 -41.96 
L 319.756613 -41.96 
L 321.951923 -41.96 
L 324.147233 -41.96 
L 326.342542 -41.96 
L 328.537852 -41.96 
L 330.733162 -41.96 
L 332.928472 -41.96 
L 335.123781 -41.96 
L 337.319091 -41.96 
L 339.514401 -41.96 
L 341.709711 -41.96 
L 343.905021 -41.96 
L 346.10033 -41.96 
L 348.29564 -41.96 
L 350.49095 -41.96 
L 352.68626 -41.96 
L 354.881569 -41.96 
L 357.076879 -41.96 
L 359.272189 -41.96 
L 361.467499 -41.96 
L 363.662808 -41.96 
L 365.858118 -41.96 
L 368.053428 -41.96 
L 370.248738 -41.96 
L 372.444047 -41.96 
L 374.639357 -41.96 
L 376.834667 -41.96 
L 379.029977 -41.96 
L 381.225287 -41.96 
L 383.420596 -41.96 
L 385.615906 -41.96 
L 387.811216 -41.96 
L 390.006526 -41.96 
L 392.201835 -41.96 
L 394.397145 -41.96 
L 396.592455 -41.96 
L 398.787765 -41.96 
L 400.983074 -41.96 
L 403.178384 -41.96 
L 405.373694 -41.96 
L 407.569004 -41.96 
L 409.764313 -41.96 
L 411.959623 -41.96 
L 414.154933 -41.96 
L 416.350243 -41.96 
L 418.545553 -41.96 
L 420.740862 -41.96 
L 422.936172 -41.96 
L 425.131482 -41.96 
L 427.326792 -41.96 
L 429.522101 -41.96 
L 431.717411 -41.96 
L 433.912721 -41.96 
L 436.108031 -41.96 
L 438.30334 -41.96 
L 440.49865 -41.96 
L 442.69396 -41.96 
L 444.88927 -41.96 
L 447.084579 -41.96 
L 449.279889 -41.96 
L 451.475199 -41.96 
L 453.670509 -41.96 
L 455.865819 -41.96 
L 458.061128 -41.96 
L 460.256438 -41.96 
L 462.451748 -41.96 
L 464.647058 -41.96 
L 466.842367 -41.96 
L 469.037677 -41.96 
L 471.232987 -41.96 
L 473.428297 -41.96 
L 475.623606 -41.96 
L 477.818916 -41.96 
L 480.014226 -41.96 
L 482.209536 -41.96 
L 484.404846 -41.96 
L 486.600155 -41.96 
L 488.795465 -41.96 
L 490.990775 -41.96 
L 493.186085 -41.96 
L 495.381394 -41.96 
L 497.576704 -41.96 
L 499.772014 -41.96 
L 501.967324 -41.96 
L 504.162633 -41.96 
L 506.357943 -41.96 
L 508.553253 -41.96 
L 510.748563 -41.96 
L 512.943872 -41.96 
L 515.139182 -41.96 
L 517.334492 -41.96 
L 519.529802 -41.96 
L 521.725112 -41.96 
L 523.920421 -41.96 
L 526.115731 -41.96 
L 528.311041 -41.96 
L 530.506351 -41.96 
L 532.70166 -41.96 
L 534.89697 -41.96 
L 537.09228 -41.96 
L 539.28759 -41.96 
L 541.482899 -41.96 
L 543.678209 -41.96 
L 545.873519 -41.96 
L 548.068829 -41.96 
L 550.264138 -41.96 
L 552.459448 -41.96 
L 554.654758 -41.96 
L 556.850068 -41.96 
L 559.045378 -41.96 
L 561.240687 -41.96 
L 563.435997 -41.96 
L 565.631307 -41.96 
L 567.826617 -41.96 
L 570.021926 -41.96 
L 572.217236 -41.96 
L 574.412546 -41.96 
L 576.607856 -41.96 
L 578.803165 -41.96 
L 580.998475 -41.96 
L 583.193785 -41.96 
L 585.389095 -41.96 
L 587.584404 -41.96 
L 589.779714 -41.96 
L 591.975024 -41.96 
L 594.170334 -41.96 
L 596.365644 -41.96 
L 598.560953 -41.96 
L 600.756263 -41.96 
L 602.951573 -41.96 
L 605.146883 -41.96 
L 607.342192 -41.96 
L 609.537502 -41.96 
L 611.732812 -41.96 
L 613.928122 -41.96 
L 613.928122 -43.918749 
L 613.928122 -43.918749 
L 611.732812 -44.156017 
L 609.537502 -44.418435 
L 607.342192 -44.708199 
L 605.146883 -45.027638 
L 602.951573 -45.379219 
L 600.756263 -45.765545 
L 598.560953 -46.189356 
L 596.365644 -46.653528 
L 594.170334 -47.16107 
L 591.975024 -47.71512 
L 589.779714 -48.318942 
L 587.584404 -48.97592 
L 585.389095 -49.689547 
L 583.193785 -50.463419 
L 580.998475 -51.301223 
L 578.803165 -52.206723 
L 576.607856 -53.183749 
L 574.412546 -54.236178 
L 572.217236 -55.367915 
L 570.021926 -56.58288 
L 567.826617 -57.884976 
L 565.631307 -59.278077 
L 563.435997 -60.765995 
L 561.240687 -62.352458 
L 559.045378 -64.041083 
L 556.850068 -65.835343 
L 554.654758 -67.738541 
L 552.459448 -69.753778 
L 550.264138 -71.88392 
L 548.068829 -74.131571 
L 545.873519 -76.499035 
L 543.678209 -78.988288 
L 541.482899 -81.600945 
L 539.28759 -84.33823 
L 537.09228 -87.200949 
L 534.89697 -90.189457 
L 532.70166 -93.303637 
L 530.506351 -96.542874 
L 528.311041 -99.906033 
L 526.115731 -103.391442 
L 523.920421 -106.996877 
L 521.725112 -110.719549 
L 519.529802 -114.556098 
L 517.334492 -118.502588 
L 515.139182 -122.55451 
L 512.943872 -126.706783 
L 510.748563 -130.95377 
L 508.553253 -135.289287 
L 506.357943 -139.706626 
L 504.162633 -144.198576 
L 501.967324 -148.757458 
L 499.772014 -153.375151 
L 497.576704 -158.043137 
L 495.381394 -162.752538 
L 493.186085 -167.494165 
L 490.990775 -172.258567 
L 488.795465 -177.036083 
L 486.600155 -181.816898 
L 484.404846 -186.5911 
L 482.209536 -191.348738 
L 480.014226 -196.079885 
L 477.818916 -200.774691 
L 475.623606 -205.423452 
L 473.428297 -210.01666 
L 471.232987 -214.545066 
L 469.037677 -218.999731 
L 466.842367 -223.372078 
L 464.647058 -227.653942 
L 462.451748 -231.837612 
L 460.256438 -235.915869 
L 458.061128 -239.882022 
L 455.865819 -243.729935 
L 453.670509 -247.454047 
L 451.475199 -251.049393 
L 449.279889 -254.511608 
L 447.084579 -257.836931 
L 444.88927 -261.022202 
L 442.69396 -264.064852 
L 440.49865 -266.962885 
L 438.30334 -269.714852 
L 436.108031 -272.319829 
L 433.912721 -274.777376 
L 431.717411 -277.087501 
L 429.522101 -279.250615 
L 427.326792 -281.267486 
L 425.131482 -283.139189 
L 422.936172 -284.867051 
L 420.740862 -286.452602 
L 418.545553 -287.897515 
L 416.350243 -289.203555 
L 414.154933 -290.372526 
L 411.959623 -291.406218 
L 409.764313 -292.306358 
L 407.569004 -293.074565 
L 405.373694 -293.712311 
L 403.178384 -294.220879 
L 400.983074 -294.601338 
L 398.787765 -294.854509 
L 396.592455 -294.980952 
L 394.397145 -294.980952 
L 392.201835 -294.854509 
L 390.006526 -294.601338 
L 387.811216 -294.220879 
L 385.615906 -293.712311 
L 383.420596 -293.074565 
L 381.225287 -292.306358 
L 379.029977 -291.406218 
L 376.834667 -290.372526 
L 374.639357 -289.203555 
L 372.444047 -287.897515 
L 370.248738 -286.452602 
L 368.053428 -284.867051 
L 365.858118 -283.139189 
L 363.662808 -281.267486 
L 361.467499 -279.250615 
L 359.272189 -277.087501 
L 357.076879 -274.777376 
L 354.881569 -272.319829 
L 352.68626 -269.714852 
L 350.49095 -266.962885 
L 348.29564 -264.064852 
L 346.10033 -261.022202 
L 343.905021 -257.836931 
L 341.709711 -254.511608 
L 339.514401 -251.049393 
L 337.319091 -247.454047 
L 335.123781 -243.729935 
L 332.928472 -239.882022 
L 330.733162 -235.915869 
L 328.537852 -231.837612 
L 326.342542 -227.653942 
L 324.147233 -223.372078 
L 321.951923 -218.999731 
L 319.756613 -214.545066 
L 317.561303 -210.01666 
L 315.365994 -205.423452 
L 313.170684 -200.774691 
L 310.975374 -196.079885 
L 308.780064 -191.348738 
L 306.584754 -186.5911 
L 304.389445 -181.816898 
L 302.194135 -177.036083 
L 299.998825 -172.258567 
L 297.803515 -167.494165 
L 295.608206 -162.752538 
L 293.412896 -158.043137 
L 291.217586 -153.375151 
L 289.022276 -148.757458 
L 286.826967 -144.198576 
L 284.631657 -139.706626 
L 282.436347 -135.289287 
L 280.241037 -130.95377 
L 278.045728 -126.706783 
L 275.850418 -122.55451 
L 273.655108 -118.502588 
L 271.459798 -114.556098 
L 269.264488 -110.719549 
L 267.069179 -106.996877 
L 264.873869 -103.391442 
L 262.678559 -99.906033 
L 260.483249 -96.542874 
L 258.28794 -93.303637 
L 256.09263 -90.189457 
L 253.89732 -87.200949 
L 251.70201 -84.33823 
L 249.506701 -81.600945 
L 247.311391 -78.988288 
L 245.116081 -76.499035 
L 242.920771 -74.131571 
L 240.725462 -71.88392 
L 238.530152 -69.753778 
L 236.334842 -67.738541 
L 234.139532 -65.835343 
L 231.944222 -64.041083 
L 229.748913 -62.352458 
L 227.553603 -60.765995 
L 225.358293 -59.278077 
L 223.162983 -57.884976 
L 220.967674 -56.58288 
L 218.772364 -55.367915 
L 216.577054 -54.236178 
L 214.381744 -53.183749 
L 212.186435 -52.206723 
L 209.991125 -51.301223 
L 207.795815 -50.463419 
L 205.600505 -49.689547 
L 203.405196 -48.97592 
L 201.209886 -48.318942 
L 199.014576 -47.71512 
L 196.819266 -47.16107 
L 194.623956 -46.653528 
L 192.428647 -46.189356 
L 190.233337 -45.765545 
L 188.038027 -45.379219 
L 185.842717 -45.027638 
L 183.647408 -44.708199 
L 181.452098 -44.418435 
L 179.256788 -44.156017 
L 177.061478 -43.918749 
z
" id="mcdb74184a7" style="stroke:#ff7f0e;"/>
    </defs>
    <g clip-path="url(#p120615dbb8)">
     <use style="fill:#ff7f0e;fill-opacity:0.4;stroke:#ff7f0e;" x="0" xlink:href="#mcdb74184a7" y="345.6"/>
    </g>
   </g>
   <g id="matplotlib.axis_1">
    <g id="xtick_1">
     <g id="line2d_1">
      <defs>
       <path d="M 0 0 
L 0 3.5 
" id="mc9a29b6641" style="stroke:#000000;stroke-width:0.8;"/>
      </defs>
      <g>
       <use style="stroke:#000000;stroke-width:0.8;" x="54.2" xlink:href="#mc9a29b6641" y="303.64"/>
      </g>
     </g>
     <g id="text_1">
      <!-- 0.0 -->
      <g transform="translate(46.248437 318.238437)scale(0.1 -0.1)">
       <defs>
        <path d="M 2034 4250 
Q 1547 4250 1301 3770 
Q 1056 3291 1056 2328 
Q 1056 1369 1301 889 
Q 1547 409 2034 409 
Q 2525 409 2770 889 
Q 3016 1369 3016 2328 
Q 3016 3291 2770 3770 
Q 2525 4250 2034 4250 
z
M 2034 4750 
Q 2819 4750 3233 4129 
Q 3647 3509 3647 2328 
Q 3647 1150 3233 529 
Q 2819 -91 2034 -91 
Q 1250 -91 836 529 
Q 422 1150 422 2328 
Q 422 3509 836 4129 
Q 1250 4750 2034 4750 
z
" id="DejaVuSans-30" transform="scale(0.015625)"/>
        <path d="M 684 794 
L 1344 794 
L 1344 0 
L 684 0 
L 684 794 
z
" id="DejaVuSans-2e" transform="scale(0.015625)"/>
       </defs>
       <use xlink:href="#DejaVuSans-30"/>
       <use x="63.623047" xlink:href="#DejaVuSans-2e"/>
       <use x="95.410156" xlink:href="#DejaVuSans-30"/>
      </g>
     </g>
    </g>
    <g id="xtick_2">
     <g id="line2d_2">
      <g>
       <use style="stroke:#000000;stroke-width:0.8;" x="131.767" xlink:href="#mc9a29b6641" y="303.64"/>
      </g>
     </g>
     <g id="text_2">
      <!-- 0.2 -->
      <g transform="translate(123.815438 318.238437)scale(0.1 -0.1)">
       <defs>
        <path d="M 1228 531 
L 3431 531 
L 3431 0 
L 469 0 
L 469 531 
Q 828 903 1448 1529 
Q 2069 2156 2228 2338 
Q 2531 2678 2651 2914 
Q 2772 3150 2772 3378 
Q 2772 3750 2511 3984 
Q 2250 4219 1831 4219 
Q 1534 4219 1204 4116 
Q 875 4013 500 3803 
L 500 4441 
Q 881 4594 1212 4672 
Q 1544 4750 1819 4750 
Q 2544 4750 2975 4387 
Q 3406 4025 3406 3419 
Q 3406 3131 3298 2873 
Q 3191 2616 2906 2266 
Q 2828 2175 2409 1742 
Q 1991 1309 1228 531 
z
" id="DejaVuSans-32" transform="scale(0.015625)"/>
       </defs>
       <use xlink:href="#DejaVuSans-30"/>
       <use x="63.623047" xlink:href="#DejaVuSans-2e"/>
       <use x="95.410156" xlink:href="#DejaVuSans-32"/>
      </g>
     </g>
    </g>
    <g id="xtick_3">
     <g id="line2d_3">
      <g>
       <use style="stroke:#000000;stroke-width:0.8;" x="209.334" xlink:href="#mc9a29b6641" y="303.64"/>
      </g>
     </g>
     <g id="text_3">
      <!-- 0.4 -->
      <g transform="translate(201.382438 318.238437)scale(0.1 -0.1)">
       <defs>
        <path d="M 2419 4116 
L 825 1625 
L 2419 1625 
L 2419 4116 
z
M 2253 4666 
L 3047 4666 
L 3047 1625 
L 3713 1625 
L 3713 1100 
L 3047 1100 
L 3047 0 
L 2419 0 
L 2419 1100 
L 313 1100 
L 313 1709 
L 2253 4666 
z
" id="DejaVuSans-34" transform="scale(0.015625)"/>
       </defs>
       <use xlink:href="#DejaVuSans-30"/>
       <use x="63.623047" xlink:href="#DejaVuSans-2e"/>
       <use x="95.410156" xlink:href="#DejaVuSans-34"/>
      </g>
     </g>
    </g>
    <g id="xtick_4">
     <g id="line2d_4">
      <g>
       <use style="stroke:#000000;stroke-width:0.8;" x="286.901" xlink:href="#mc9a29b6641" y="303.64"/>
      </g>
     </g>
     <g id="text_4">
      <!-- 0.6 -->
      <g transform="translate(278.949437 318.238437)scale(0.1 -0.1)">
       <defs>
        <path d="M 2113 2584 
Q 1688 2584 1439 2293 
Q 1191 2003 1191 1497 
Q 1191 994 1439 701 
Q 1688 409 2113 409 
Q 2538 409 2786 701 
Q 3034 994 3034 1497 
Q 3034 2003 2786 2293 
Q 2538 2584 2113 2584 
z
M 3366 4563 
L 3366 3988 
Q 3128 4100 2886 4159 
Q 2644 4219 2406 4219 
Q 1781 4219 1451 3797 
Q 1122 3375 1075 2522 
Q 1259 2794 1537 2939 
Q 1816 3084 2150 3084 
Q 2853 3084 3261 2657 
Q 3669 2231 3669 1497 
Q 3669 778 3244 343 
Q 2819 -91 2113 -91 
Q 1303 -91 875 529 
Q 447 1150 447 2328 
Q 447 3434 972 4092 
Q 1497 4750 2381 4750 
Q 2619 4750 2861 4703 
Q 3103 4656 3366 4563 
z
" id="DejaVuSans-36" transform="scale(0.015625)"/>
       </defs>
       <use xlink:href="#DejaVuSans-30"/>
       <use x="63.623047" xlink:href="#DejaVuSans-2e"/>
       <use x="95.410156" xlink:href="#DejaVuSans-36"/>
      </g>
     </g>
    </g>
    <g id="xtick_5">
     <g id="line2d_5">
      <g>
       <use style="stroke:#000000;stroke-width:0.8;" x="364.468" xlink:href="#mc9a29b6641" y="303.64"/>
      </g>
     </g>
     <g id="text_5">
      <!-- 0.8 -->
      <g transform="translate(356.516437 318.238437)scale(0.1 -0.1)">
       <defs>
        <path d="M 2034 2216 
Q 1584 2216 1326 1975 
Q 1069 1734 1069 1313 
Q 1069 891 1326 650 
Q 1584 409 2034 409 
Q 2484 409 2743 651 
Q 3003 894 3003 1313 
Q 3003 1734 2745 1975 
Q 2488 2216 2034 2216 
z
M 1403 2484 
Q 997 2584 770 2862 
Q 544 3141 544 3541 
Q 544 4100 942 4425 
Q 1341 4750 2034 4750 
Q 2731 4750 3128 4425 
Q 3525 4100 3525 3541 
Q 3525 3141 3298 2862 
Q 3072 2584 2669 2484 
Q 3125 2378 3379 2068 
Q 3634 1759 3634 1313 
Q 3634 634 3220 271 
Q 2806 -91 2034 -91 
Q 1263 -91 848 271 
Q 434 634 434 1313 
Q 434 1759 690 2068 
Q 947 2378 1403 2484 
z
M 1172 3481 
Q 1172 3119 1398 2916 
Q 1625 2713 2034 2713 
Q 2441 2713 2670 2916 
Q 2900 3119 2900 3481 
Q 2900 3844 2670 4047 
Q 2441 4250 2034 4250 
Q 1625 4250 1398 4047 
Q 1172 3844 1172 3481 
z
" id="DejaVuSans-38" transform="scale(0.015625)"/>
       </defs>
       <use xlink:href="#DejaVuSans-30"/>
       <use x="63.623047" xlink:href="#DejaVuSans-2e"/>
       <use x="95.410156" xlink:href="#DejaVuSans-38"/>
      </g>
     </g>
    </g>
    <g id="xtick_6">
     <g id="line2d_6">
      <g>
       <use style="stroke:#000000;stroke-width:0.8;" x="442.035" xlink:href="#mc9a29b6641" y="303.64"/>
      </g>
     </g>
     <g id="text_6">
      <!-- 1.0 -->
      <g transform="translate(434.083437 318.238437)scale(0.1 -0.1)">
       <defs>
        <path d="M 794 531 
L 1825 531 
L 1825 4091 
L 703 3866 
L 703 4441 
L 1819 4666 
L 2450 4666 
L 2450 531 
L 3481 531 
L 3481 0 
L 794 0 
L 794 531 
z
" id="DejaVuSans-31" transform="scale(0.015625)"/>
       </defs>
       <use xlink:href="#DejaVuSans-31"/>
       <use x="63.623047" xlink:href="#DejaVuSans-2e"/>
       <use x="95.410156" xlink:href="#DejaVuSans-30"/>
      </g>
     </g>
    </g>
    <g id="text_7">
     <!-- Credibility index -->
     <g transform="translate(207.512812 331.916562)scale(0.1 -0.1)">
      <defs>
       <path d="M 4122 4306 
L 4122 3641 
Q 3803 3938 3442 4084 
Q 3081 4231 2675 4231 
Q 1875 4231 1450 3742 
Q 1025 3253 1025 2328 
Q 1025 1406 1450 917 
Q 1875 428 2675 428 
Q 3081 428 3442 575 
Q 3803 722 4122 1019 
L 4122 359 
Q 3791 134 3420 21 
Q 3050 -91 2638 -91 
Q 1578 -91 968 557 
Q 359 1206 359 2328 
Q 359 3453 968 4101 
Q 1578 4750 2638 4750 
Q 3056 4750 3426 4639 
Q 3797 4528 4122 4306 
z
" id="DejaVuSans-43" transform="scale(0.015625)"/>
       <path d="M 2631 2963 
Q 2534 3019 2420 3045 
Q 2306 3072 2169 3072 
Q 1681 3072 1420 2755 
Q 1159 2438 1159 1844 
L 1159 0 
L 581 0 
L 581 3500 
L 1159 3500 
L 1159 2956 
Q 1341 3275 1631 3429 
Q 1922 3584 2338 3584 
Q 2397 3584 2469 3576 
Q 2541 3569 2628 3553 
L 2631 2963 
z
" id="DejaVuSans-72" transform="scale(0.015625)"/>
       <path d="M 3597 1894 
L 3597 1613 
L 953 1613 
Q 991 1019 1311 708 
Q 1631 397 2203 397 
Q 2534 397 2845 478 
Q 3156 559 3463 722 
L 3463 178 
Q 3153 47 2828 -22 
Q 2503 -91 2169 -91 
Q 1331 -91 842 396 
Q 353 884 353 1716 
Q 353 2575 817 3079 
Q 1281 3584 2069 3584 
Q 2775 3584 3186 3129 
Q 3597 2675 3597 1894 
z
M 3022 2063 
Q 3016 2534 2758 2815 
Q 2500 3097 2075 3097 
Q 1594 3097 1305 2825 
Q 1016 2553 972 2059 
L 3022 2063 
z
" id="DejaVuSans-65" transform="scale(0.015625)"/>
       <path d="M 2906 2969 
L 2906 4863 
L 3481 4863 
L 3481 0 
L 2906 0 
L 2906 525 
Q 2725 213 2448 61 
Q 2172 -91 1784 -91 
Q 1150 -91 751 415 
Q 353 922 353 1747 
Q 353 2572 751 3078 
Q 1150 3584 1784 3584 
Q 2172 3584 2448 3432 
Q 2725 3281 2906 2969 
z
M 947 1747 
Q 947 1113 1208 752 
Q 1469 391 1925 391 
Q 2381 391 2643 752 
Q 2906 1113 2906 1747 
Q 2906 2381 2643 2742 
Q 2381 3103 1925 3103 
Q 1469 3103 1208 2742 
Q 947 2381 947 1747 
z
" id="DejaVuSans-64" transform="scale(0.015625)"/>
       <path d="M 603 3500 
L 1178 3500 
L 1178 0 
L 603 0 
L 603 3500 
z
M 603 4863 
L 1178 4863 
L 1178 4134 
L 603 4134 
L 603 4863 
z
" id="DejaVuSans-69" transform="scale(0.015625)"/>
       <path d="M 3116 1747 
Q 3116 2381 2855 2742 
Q 2594 3103 2138 3103 
Q 1681 3103 1420 2742 
Q 1159 2381 1159 1747 
Q 1159 1113 1420 752 
Q 1681 391 2138 391 
Q 2594 391 2855 752 
Q 3116 1113 3116 1747 
z
M 1159 2969 
Q 1341 3281 1617 3432 
Q 1894 3584 2278 3584 
Q 2916 3584 3314 3078 
Q 3713 2572 3713 1747 
Q 3713 922 3314 415 
Q 2916 -91 2278 -91 
Q 1894 -91 1617 61 
Q 1341 213 1159 525 
L 1159 0 
L 581 0 
L 581 4863 
L 1159 4863 
L 1159 2969 
z
" id="DejaVuSans-62" transform="scale(0.015625)"/>
       <path d="M 603 4863 
L 1178 4863 
L 1178 0 
L 603 0 
L 603 4863 
z
" id="DejaVuSans-6c" transform="scale(0.015625)"/>
       <path d="M 1172 4494 
L 1172 3500 
L 2356 3500 
L 2356 3053 
L 1172 3053 
L 1172 1153 
Q 1172 725 1289 603 
Q 1406 481 1766 481 
L 2356 481 
L 2356 0 
L 1766 0 
Q 1100 0 847 248 
Q 594 497 594 1153 
L 594 3053 
L 172 3053 
L 172 3500 
L 594 3500 
L 594 4494 
L 1172 4494 
z
" id="DejaVuSans-74" transform="scale(0.015625)"/>
       <path d="M 2059 -325 
Q 1816 -950 1584 -1140 
Q 1353 -1331 966 -1331 
L 506 -1331 
L 506 -850 
L 844 -850 
Q 1081 -850 1212 -737 
Q 1344 -625 1503 -206 
L 1606 56 
L 191 3500 
L 800 3500 
L 1894 763 
L 2988 3500 
L 3597 3500 
L 2059 -325 
z
" id="DejaVuSans-79" transform="scale(0.015625)"/>
       <path id="DejaVuSans-20" transform="scale(0.015625)"/>
       <path d="M 3513 2113 
L 3513 0 
L 2938 0 
L 2938 2094 
Q 2938 2591 2744 2837 
Q 2550 3084 2163 3084 
Q 1697 3084 1428 2787 
Q 1159 2491 1159 1978 
L 1159 0 
L 581 0 
L 581 3500 
L 1159 3500 
L 1159 2956 
Q 1366 3272 1645 3428 
Q 1925 3584 2291 3584 
Q 2894 3584 3203 3211 
Q 3513 2838 3513 2113 
z
" id="DejaVuSans-6e" transform="scale(0.015625)"/>
       <path d="M 3513 3500 
L 2247 1797 
L 3578 0 
L 2900 0 
L 1881 1375 
L 863 0 
L 184 0 
L 1544 1831 
L 300 3500 
L 978 3500 
L 1906 2253 
L 2834 3500 
L 3513 3500 
z
" id="DejaVuSans-78" transform="scale(0.015625)"/>
      </defs>
      <use xlink:href="#DejaVuSans-43"/>
      <use x="69.824219" xlink:href="#DejaVuSans-72"/>
      <use x="108.6875" xlink:href="#DejaVuSans-65"/>
      <use x="170.210938" xlink:href="#DejaVuSans-64"/>
      <use x="233.6875" xlink:href="#DejaVuSans-69"/>
      <use x="261.470703" xlink:href="#DejaVuSans-62"/>
      <use x="324.947266" xlink:href="#DejaVuSans-69"/>
      <use x="352.730469" xlink:href="#DejaVuSans-6c"/>
      <use x="380.513672" xlink:href="#DejaVuSans-69"/>
      <use x="408.296875" xlink:href="#DejaVuSans-74"/>
      <use x="447.505859" xlink:href="#DejaVuSans-79"/>
      <use x="506.685547" xlink:href="#DejaVuSans-20"/>
      <use x="538.472656" xlink:href="#DejaVuSans-69"/>
      <use x="566.255859" xlink:href="#DejaVuSans-6e"/>
      <use x="629.634766" xlink:href="#DejaVuSans-64"/>
      <use x="693.111328" xlink:href="#DejaVuSans-65"/>
      <use x="752.884766" xlink:href="#DejaVuSans-78"/>
     </g>
    </g>
   </g>
   <g id="matplotlib.axis_2">
    <g id="ytick_1">
     <g id="line2d_7">
      <defs>
       <path d="M 0 0 
L -3.5 0 
" id="mb8fa75d5f5" style="stroke:#000000;stroke-width:0.8;"/>
      </defs>
      <g>
       <use style="stroke:#000000;stroke-width:0.8;" x="54.2" xlink:href="#mb8fa75d5f5" y="303.64"/>
      </g>
     </g>
     <g id="text_8">
      <!-- 0.00 -->
      <g transform="translate(24.934375 307.439219)scale(0.1 -0.1)">
       <use xlink:href="#DejaVuSans-30"/>
       <use x="63.623047" xlink:href="#DejaVuSans-2e"/>
       <use x="95.410156" xlink:href="#DejaVuSans-30"/>
       <use x="159.033203" xlink:href="#DejaVuSans-30"/>
      </g>
     </g>
    </g>
    <g id="ytick_2">
     <g id="line2d_8">
      <g>
       <use style="stroke:#000000;stroke-width:0.8;" x="54.2" xlink:href="#mb8fa75d5f5" y="271.058765"/>
      </g>
     </g>
     <g id="text_9">
      <!-- 0.25 -->
      <g transform="translate(24.934375 274.857984)scale(0.1 -0.1)">
       <defs>
        <path d="M 691 4666 
L 3169 4666 
L 3169 4134 
L 1269 4134 
L 1269 2991 
Q 1406 3038 1543 3061 
Q 1681 3084 1819 3084 
Q 2600 3084 3056 2656 
Q 3513 2228 3513 1497 
Q 3513 744 3044 326 
Q 2575 -91 1722 -91 
Q 1428 -91 1123 -41 
Q 819 9 494 109 
L 494 744 
Q 775 591 1075 516 
Q 1375 441 1709 441 
Q 2250 441 2565 725 
Q 2881 1009 2881 1497 
Q 2881 1984 2565 2268 
Q 2250 2553 1709 2553 
Q 1456 2553 1204 2497 
Q 953 2441 691 2322 
L 691 4666 
z
" id="DejaVuSans-35" transform="scale(0.015625)"/>
       </defs>
       <use xlink:href="#DejaVuSans-30"/>
       <use x="63.623047" xlink:href="#DejaVuSans-2e"/>
       <use x="95.410156" xlink:href="#DejaVuSans-32"/>
       <use x="159.033203" xlink:href="#DejaVuSans-35"/>
      </g>
     </g>
    </g>
    <g id="ytick_3">
     <g id="line2d_9">
      <g>
       <use style="stroke:#000000;stroke-width:0.8;" x="54.2" xlink:href="#mb8fa75d5f5" y="238.47753"/>
      </g>
     </g>
     <g id="text_10">
      <!-- 0.50 -->
      <g transform="translate(24.934375 242.276749)scale(0.1 -0.1)">
       <use xlink:href="#DejaVuSans-30"/>
       <use x="63.623047" xlink:href="#DejaVuSans-2e"/>
       <use x="95.410156" xlink:href="#DejaVuSans-35"/>
       <use x="159.033203" xlink:href="#DejaVuSans-30"/>
      </g>
     </g>
    </g>
    <g id="ytick_4">
     <g id="line2d_10">
      <g>
       <use style="stroke:#000000;stroke-width:0.8;" x="54.2" xlink:href="#mb8fa75d5f5" y="205.896295"/>
      </g>
     </g>
     <g id="text_11">
      <!-- 0.75 -->
      <g transform="translate(24.934375 209.695514)scale(0.1 -0.1)">
       <defs>
        <path d="M 525 4666 
L 3525 4666 
L 3525 4397 
L 1831 0 
L 1172 0 
L 2766 4134 
L 525 4134 
L 525 4666 
z
" id="DejaVuSans-37" transform="scale(0.015625)"/>
       </defs>
       <use xlink:href="#DejaVuSans-30"/>
       <use x="63.623047" xlink:href="#DejaVuSans-2e"/>
       <use x="95.410156" xlink:href="#DejaVuSans-37"/>
       <use x="159.033203" xlink:href="#DejaVuSans-35"/>
      </g>
     </g>
    </g>
    <g id="ytick_5">
     <g id="line2d_11">
      <g>
       <use style="stroke:#000000;stroke-width:0.8;" x="54.2" xlink:href="#mb8fa75d5f5" y="173.31506"/>
      </g>
     </g>
     <g id="text_12">
      <!-- 1.00 -->
      <g transform="translate(24.934375 177.114279)scale(0.1 -0.1)">
       <use xlink:href="#DejaVuSans-31"/>
       <use x="63.623047" xlink:href="#DejaVuSans-2e"/>
       <use x="95.410156" xlink:href="#DejaVuSans-30"/>
       <use x="159.033203" xlink:href="#DejaVuSans-30"/>
      </g>
     </g>
    </g>
    <g id="ytick_6">
     <g id="line2d_12">
      <g>
       <use style="stroke:#000000;stroke-width:0.8;" x="54.2" xlink:href="#mb8fa75d5f5" y="140.733825"/>
      </g>
     </g>
     <g id="text_13">
      <!-- 1.25 -->
      <g transform="translate(24.934375 144.533044)scale(0.1 -0.1)">
       <use xlink:href="#DejaVuSans-31"/>
       <use x="63.623047" xlink:href="#DejaVuSans-2e"/>
       <use x="95.410156" xlink:href="#DejaVuSans-32"/>
       <use x="159.033203" xlink:href="#DejaVuSans-35"/>
      </g>
     </g>
    </g>
    <g id="ytick_7">
     <g id="line2d_13">
      <g>
       <use style="stroke:#000000;stroke-width:0.8;" x="54.2" xlink:href="#mb8fa75d5f5" y="108.15259"/>
      </g>
     </g>
     <g id="text_14">
      <!-- 1.50 -->
      <g transform="translate(24.934375 111.951809)scale(0.1 -0.1)">
       <use xlink:href="#DejaVuSans-31"/>
       <use x="63.623047" xlink:href="#DejaVuSans-2e"/>
       <use x="95.410156" xlink:href="#DejaVuSans-35"/>
       <use x="159.033203" xlink:href="#DejaVuSans-30"/>
      </g>
     </g>
    </g>
    <g id="ytick_8">
     <g id="line2d_14">
      <g>
       <use style="stroke:#000000;stroke-width:0.8;" x="54.2" xlink:href="#mb8fa75d5f5" y="75.571355"/>
      </g>
     </g>
     <g id="text_15">
      <!-- 1.75 -->
      <g transform="translate(24.934375 79.370574)scale(0.1 -0.1)">
       <use xlink:href="#DejaVuSans-31"/>
       <use x="63.623047" xlink:href="#DejaVuSans-2e"/>
       <use x="95.410156" xlink:href="#DejaVuSans-37"/>
       <use x="159.033203" xlink:href="#DejaVuSans-35"/>
      </g>
     </g>
    </g>
    <g id="ytick_9">
     <g id="line2d_15">
      <g>
       <use style="stroke:#000000;stroke-width:0.8;" x="54.2" xlink:href="#mb8fa75d5f5" y="42.99012"/>
      </g>
     </g>
     <g id="text_16">
      <!-- 2.00 -->
      <g transform="translate(24.934375 46.789339)scale(0.1 -0.1)">
       <use xlink:href="#DejaVuSans-32"/>
       <use x="63.623047" xlink:href="#DejaVuSans-2e"/>
       <use x="95.410156" xlink:href="#DejaVuSans-30"/>
       <use x="159.033203" xlink:href="#DejaVuSans-30"/>
      </g>
     </g>
    </g>
    <g id="text_17">
     <!-- Density -->
     <g transform="translate(18.854687 189.812594)rotate(-90)scale(0.1 -0.1)">
      <defs>
       <path d="M 1259 4147 
L 1259 519 
L 2022 519 
Q 2988 519 3436 956 
Q 3884 1394 3884 2338 
Q 3884 3275 3436 3711 
Q 2988 4147 2022 4147 
L 1259 4147 
z
M 628 4666 
L 1925 4666 
Q 3281 4666 3915 4102 
Q 4550 3538 4550 2338 
Q 4550 1131 3912 565 
Q 3275 0 1925 0 
L 628 0 
L 628 4666 
z
" id="DejaVuSans-44" transform="scale(0.015625)"/>
       <path d="M 2834 3397 
L 2834 2853 
Q 2591 2978 2328 3040 
Q 2066 3103 1784 3103 
Q 1356 3103 1142 2972 
Q 928 2841 928 2578 
Q 928 2378 1081 2264 
Q 1234 2150 1697 2047 
L 1894 2003 
Q 2506 1872 2764 1633 
Q 3022 1394 3022 966 
Q 3022 478 2636 193 
Q 2250 -91 1575 -91 
Q 1294 -91 989 -36 
Q 684 19 347 128 
L 347 722 
Q 666 556 975 473 
Q 1284 391 1588 391 
Q 1994 391 2212 530 
Q 2431 669 2431 922 
Q 2431 1156 2273 1281 
Q 2116 1406 1581 1522 
L 1381 1569 
Q 847 1681 609 1914 
Q 372 2147 372 2553 
Q 372 3047 722 3315 
Q 1072 3584 1716 3584 
Q 2034 3584 2315 3537 
Q 2597 3491 2834 3397 
z
" id="DejaVuSans-73" transform="scale(0.015625)"/>
      </defs>
      <use xlink:href="#DejaVuSans-44"/>
      <use x="77.001953" xlink:href="#DejaVuSans-65"/>
      <use x="138.525391" xlink:href="#DejaVuSans-6e"/>
      <use x="201.904297" xlink:href="#DejaVuSans-73"/>
      <use x="254.003906" xlink:href="#DejaVuSans-69"/>
      <use x="281.787109" xlink:href="#DejaVuSans-74"/>
      <use x="320.996094" xlink:href="#DejaVuSans-79"/>
     </g>
    </g>
   </g>
   <g id="patch_3">
    <path d="M 54.2 303.64 
L 54.2 37.968 
" style="fill:none;stroke:#000000;stroke-linecap:square;stroke-linejoin:miter;stroke-width:0.8;"/>
   </g>
   <g id="patch_4">
    <path d="M 442.035 303.64 
L 442.035 37.968 
" style="fill:none;stroke:#000000;stroke-linecap:square;stroke-linejoin:miter;stroke-width:0.8;"/>
   </g>
   <g id="patch_5">
    <path d="M 54.2 303.64 
L 442.035 303.64 
" style="fill:none;stroke:#000000;stroke-linecap:square;stroke-linejoin:miter;stroke-width:0.8;"/>
   </g>
   <g id="patch_6">
    <path d="M 54.2 37.968 
L 442.035 37.968 
" style="fill:none;stroke:#000000;stroke-linecap:square;stroke-linejoin:miter;stroke-width:0.8;"/>
   </g>
   <g id="text_18">
    <!-- Credibility index consensus vs non consensus  -->
    <g transform="translate(109.01125 18.530625)scale(0.12 -0.12)">
     <defs>
      <path d="M 3122 3366 
L 3122 2828 
Q 2878 2963 2633 3030 
Q 2388 3097 2138 3097 
Q 1578 3097 1268 2742 
Q 959 2388 959 1747 
Q 959 1106 1268 751 
Q 1578 397 2138 397 
Q 2388 397 2633 464 
Q 2878 531 3122 666 
L 3122 134 
Q 2881 22 2623 -34 
Q 2366 -91 2075 -91 
Q 1284 -91 818 406 
Q 353 903 353 1747 
Q 353 2603 823 3093 
Q 1294 3584 2113 3584 
Q 2378 3584 2631 3529 
Q 2884 3475 3122 3366 
z
" id="DejaVuSans-63" transform="scale(0.015625)"/>
      <path d="M 1959 3097 
Q 1497 3097 1228 2736 
Q 959 2375 959 1747 
Q 959 1119 1226 758 
Q 1494 397 1959 397 
Q 2419 397 2687 759 
Q 2956 1122 2956 1747 
Q 2956 2369 2687 2733 
Q 2419 3097 1959 3097 
z
M 1959 3584 
Q 2709 3584 3137 3096 
Q 3566 2609 3566 1747 
Q 3566 888 3137 398 
Q 2709 -91 1959 -91 
Q 1206 -91 779 398 
Q 353 888 353 1747 
Q 353 2609 779 3096 
Q 1206 3584 1959 3584 
z
" id="DejaVuSans-6f" transform="scale(0.015625)"/>
      <path d="M 544 1381 
L 544 3500 
L 1119 3500 
L 1119 1403 
Q 1119 906 1312 657 
Q 1506 409 1894 409 
Q 2359 409 2629 706 
Q 2900 1003 2900 1516 
L 2900 3500 
L 3475 3500 
L 3475 0 
L 2900 0 
L 2900 538 
Q 2691 219 2414 64 
Q 2138 -91 1772 -91 
Q 1169 -91 856 284 
Q 544 659 544 1381 
z
M 1991 3584 
L 1991 3584 
z
" id="DejaVuSans-75" transform="scale(0.015625)"/>
      <path d="M 191 3500 
L 800 3500 
L 1894 563 
L 2988 3500 
L 3597 3500 
L 2284 0 
L 1503 0 
L 191 3500 
z
" id="DejaVuSans-76" transform="scale(0.015625)"/>
     </defs>
     <use xlink:href="#DejaVuSans-43"/>
     <use x="69.824219" xlink:href="#DejaVuSans-72"/>
     <use x="108.6875" xlink:href="#DejaVuSans-65"/>
     <use x="170.210938" xlink:href="#DejaVuSans-64"/>
     <use x="233.6875" xlink:href="#DejaVuSans-69"/>
     <use x="261.470703" xlink:href="#DejaVuSans-62"/>
     <use x="324.947266" xlink:href="#DejaVuSans-69"/>
     <use x="352.730469" xlink:href="#DejaVuSans-6c"/>
     <use x="380.513672" xlink:href="#DejaVuSans-69"/>
     <use x="408.296875" xlink:href="#DejaVuSans-74"/>
     <use x="447.505859" xlink:href="#DejaVuSans-79"/>
     <use x="506.685547" xlink:href="#DejaVuSans-20"/>
     <use x="538.472656" xlink:href="#DejaVuSans-69"/>
     <use x="566.255859" xlink:href="#DejaVuSans-6e"/>
     <use x="629.634766" xlink:href="#DejaVuSans-64"/>
     <use x="693.111328" xlink:href="#DejaVuSans-65"/>
     <use x="752.884766" xlink:href="#DejaVuSans-78"/>
     <use x="812.064453" xlink:href="#DejaVuSans-20"/>
     <use x="843.851562" xlink:href="#DejaVuSans-63"/>
     <use x="898.832031" xlink:href="#DejaVuSans-6f"/>
     <use x="960.013672" xlink:href="#DejaVuSans-6e"/>
     <use x="1023.392578" xlink:href="#DejaVuSans-73"/>
     <use x="1075.492188" xlink:href="#DejaVuSans-65"/>
     <use x="1137.015625" xlink:href="#DejaVuSans-6e"/>
     <use x="1200.394531" xlink:href="#DejaVuSans-73"/>
     <use x="1252.494141" xlink:href="#DejaVuSans-75"/>
     <use x="1315.873047" xlink:href="#DejaVuSans-73"/>
     <use x="1367.972656" xlink:href="#DejaVuSans-20"/>
     <use x="1399.759766" xlink:href="#DejaVuSans-76"/>
     <use x="1458.939453" xlink:href="#DejaVuSans-73"/>
     <use x="1511.039062" xlink:href="#DejaVuSans-20"/>
     <use x="1542.826172" xlink:href="#DejaVuSans-6e"/>
     <use x="1606.205078" xlink:href="#DejaVuSans-6f"/>
     <use x="1667.386719" xlink:href="#DejaVuSans-6e"/>
     <use x="1730.765625" xlink:href="#DejaVuSans-20"/>
     <use x="1762.552734" xlink:href="#DejaVuSans-63"/>
     <use x="1817.533203" xlink:href="#DejaVuSans-6f"/>
     <use x="1878.714844" xlink:href="#DejaVuSans-6e"/>
     <use x="1942.09375" xlink:href="#DejaVuSans-73"/>
     <use x="1994.193359" xlink:href="#DejaVuSans-65"/>
     <use x="2055.716797" xlink:href="#DejaVuSans-6e"/>
     <use x="2119.095703" xlink:href="#DejaVuSans-73"/>
     <use x="2171.195312" xlink:href="#DejaVuSans-75"/>
     <use x="2234.574219" xlink:href="#DejaVuSans-73"/>
     <use x="2286.673828" xlink:href="#DejaVuSans-20"/>
    </g>
    <!-- Set s1 -->
    <g transform="translate(229.414375 31.968)scale(0.12 -0.12)">
     <defs>
      <path d="M 3425 4513 
L 3425 3897 
Q 3066 4069 2747 4153 
Q 2428 4238 2131 4238 
Q 1616 4238 1336 4038 
Q 1056 3838 1056 3469 
Q 1056 3159 1242 3001 
Q 1428 2844 1947 2747 
L 2328 2669 
Q 3034 2534 3370 2195 
Q 3706 1856 3706 1288 
Q 3706 609 3251 259 
Q 2797 -91 1919 -91 
Q 1588 -91 1214 -16 
Q 841 59 441 206 
L 441 856 
Q 825 641 1194 531 
Q 1563 422 1919 422 
Q 2459 422 2753 634 
Q 3047 847 3047 1241 
Q 3047 1584 2836 1778 
Q 2625 1972 2144 2069 
L 1759 2144 
Q 1053 2284 737 2584 
Q 422 2884 422 3419 
Q 422 4038 858 4394 
Q 1294 4750 2059 4750 
Q 2388 4750 2728 4690 
Q 3069 4631 3425 4513 
z
" id="DejaVuSans-53" transform="scale(0.015625)"/>
     </defs>
     <use xlink:href="#DejaVuSans-53"/>
     <use x="63.476562" xlink:href="#DejaVuSans-65"/>
     <use x="125" xlink:href="#DejaVuSans-74"/>
     <use x="164.208984" xlink:href="#DejaVuSans-20"/>
     <use x="195.996094" xlink:href="#DejaVuSans-73"/>
     <use x="248.095703" xlink:href="#DejaVuSans-31"/>
    </g>
   </g>
   <g id="legend_1">
    <g id="patch_7">
     <path d="M 61.2 97.719875 
L 231.742188 97.719875 
Q 233.742188 97.719875 233.742188 95.719875 
L 233.742188 44.968 
Q 233.742188 42.968 231.742188 42.968 
L 61.2 42.968 
Q 59.2 42.968 59.2 44.968 
L 59.2 95.719875 
Q 59.2 97.719875 61.2 97.719875 
z
" style="fill:#ffffff;opacity:0.8;stroke:#cccccc;stroke-linejoin:miter;"/>
    </g>
    <g id="patch_8">
     <path d="M 63.2 61.205188 
L 83.2 61.205188 
L 83.2 54.205188 
L 63.2 54.205188 
z
" style="fill:#1f77b4;fill-opacity:0.4;stroke:#1f77b4;stroke-linejoin:miter;"/>
    </g>
    <g id="text_19">
     <!-- Correlation higher than 0  -->
     <g transform="translate(91.2 54.566438)scale(0.1 -0.1)">
      <defs>
       <path d="M 2194 1759 
Q 1497 1759 1228 1600 
Q 959 1441 959 1056 
Q 959 750 1161 570 
Q 1363 391 1709 391 
Q 2188 391 2477 730 
Q 2766 1069 2766 1631 
L 2766 1759 
L 2194 1759 
z
M 3341 1997 
L 3341 0 
L 2766 0 
L 2766 531 
Q 2569 213 2275 61 
Q 1981 -91 1556 -91 
Q 1019 -91 701 211 
Q 384 513 384 1019 
Q 384 1609 779 1909 
Q 1175 2209 1959 2209 
L 2766 2209 
L 2766 2266 
Q 2766 2663 2505 2880 
Q 2244 3097 1772 3097 
Q 1472 3097 1187 3025 
Q 903 2953 641 2809 
L 641 3341 
Q 956 3463 1253 3523 
Q 1550 3584 1831 3584 
Q 2591 3584 2966 3190 
Q 3341 2797 3341 1997 
z
" id="DejaVuSans-61" transform="scale(0.015625)"/>
       <path d="M 3513 2113 
L 3513 0 
L 2938 0 
L 2938 2094 
Q 2938 2591 2744 2837 
Q 2550 3084 2163 3084 
Q 1697 3084 1428 2787 
Q 1159 2491 1159 1978 
L 1159 0 
L 581 0 
L 581 4863 
L 1159 4863 
L 1159 2956 
Q 1366 3272 1645 3428 
Q 1925 3584 2291 3584 
Q 2894 3584 3203 3211 
Q 3513 2838 3513 2113 
z
" id="DejaVuSans-68" transform="scale(0.015625)"/>
       <path d="M 2906 1791 
Q 2906 2416 2648 2759 
Q 2391 3103 1925 3103 
Q 1463 3103 1205 2759 
Q 947 2416 947 1791 
Q 947 1169 1205 825 
Q 1463 481 1925 481 
Q 2391 481 2648 825 
Q 2906 1169 2906 1791 
z
M 3481 434 
Q 3481 -459 3084 -895 
Q 2688 -1331 1869 -1331 
Q 1566 -1331 1297 -1286 
Q 1028 -1241 775 -1147 
L 775 -588 
Q 1028 -725 1275 -790 
Q 1522 -856 1778 -856 
Q 2344 -856 2625 -561 
Q 2906 -266 2906 331 
L 2906 616 
Q 2728 306 2450 153 
Q 2172 0 1784 0 
Q 1141 0 747 490 
Q 353 981 353 1791 
Q 353 2603 747 3093 
Q 1141 3584 1784 3584 
Q 2172 3584 2450 3431 
Q 2728 3278 2906 2969 
L 2906 3500 
L 3481 3500 
L 3481 434 
z
" id="DejaVuSans-67" transform="scale(0.015625)"/>
      </defs>
      <use xlink:href="#DejaVuSans-43"/>
      <use x="69.824219" xlink:href="#DejaVuSans-6f"/>
      <use x="131.005859" xlink:href="#DejaVuSans-72"/>
      <use x="170.369141" xlink:href="#DejaVuSans-72"/>
      <use x="209.232422" xlink:href="#DejaVuSans-65"/>
      <use x="270.755859" xlink:href="#DejaVuSans-6c"/>
      <use x="298.539062" xlink:href="#DejaVuSans-61"/>
      <use x="359.818359" xlink:href="#DejaVuSans-74"/>
      <use x="399.027344" xlink:href="#DejaVuSans-69"/>
      <use x="426.810547" xlink:href="#DejaVuSans-6f"/>
      <use x="487.992188" xlink:href="#DejaVuSans-6e"/>
      <use x="551.371094" xlink:href="#DejaVuSans-20"/>
      <use x="583.158203" xlink:href="#DejaVuSans-68"/>
      <use x="646.537109" xlink:href="#DejaVuSans-69"/>
      <use x="674.320312" xlink:href="#DejaVuSans-67"/>
      <use x="737.796875" xlink:href="#DejaVuSans-68"/>
      <use x="801.175781" xlink:href="#DejaVuSans-65"/>
      <use x="862.699219" xlink:href="#DejaVuSans-72"/>
      <use x="903.8125" xlink:href="#DejaVuSans-20"/>
      <use x="935.599609" xlink:href="#DejaVuSans-74"/>
      <use x="974.808594" xlink:href="#DejaVuSans-68"/>
      <use x="1038.1875" xlink:href="#DejaVuSans-61"/>
      <use x="1099.466797" xlink:href="#DejaVuSans-6e"/>
      <use x="1162.845703" xlink:href="#DejaVuSans-20"/>
      <use x="1194.632812" xlink:href="#DejaVuSans-30"/>
      <use x="1258.255859" xlink:href="#DejaVuSans-20"/>
     </g>
     <!-- n=131 -->
     <g transform="translate(91.2 65.76425)scale(0.1 -0.1)">
      <defs>
       <path d="M 678 2906 
L 4684 2906 
L 4684 2381 
L 678 2381 
L 678 2906 
z
M 678 1631 
L 4684 1631 
L 4684 1100 
L 678 1100 
L 678 1631 
z
" id="DejaVuSans-3d" transform="scale(0.015625)"/>
       <path d="M 2597 2516 
Q 3050 2419 3304 2112 
Q 3559 1806 3559 1356 
Q 3559 666 3084 287 
Q 2609 -91 1734 -91 
Q 1441 -91 1130 -33 
Q 819 25 488 141 
L 488 750 
Q 750 597 1062 519 
Q 1375 441 1716 441 
Q 2309 441 2620 675 
Q 2931 909 2931 1356 
Q 2931 1769 2642 2001 
Q 2353 2234 1838 2234 
L 1294 2234 
L 1294 2753 
L 1863 2753 
Q 2328 2753 2575 2939 
Q 2822 3125 2822 3475 
Q 2822 3834 2567 4026 
Q 2313 4219 1838 4219 
Q 1578 4219 1281 4162 
Q 984 4106 628 3988 
L 628 4550 
Q 988 4650 1302 4700 
Q 1616 4750 1894 4750 
Q 2613 4750 3031 4423 
Q 3450 4097 3450 3541 
Q 3450 3153 3228 2886 
Q 3006 2619 2597 2516 
z
" id="DejaVuSans-33" transform="scale(0.015625)"/>
      </defs>
      <use xlink:href="#DejaVuSans-6e"/>
      <use x="63.378906" xlink:href="#DejaVuSans-3d"/>
      <use x="147.167969" xlink:href="#DejaVuSans-31"/>
      <use x="210.791016" xlink:href="#DejaVuSans-33"/>
      <use x="274.414062" xlink:href="#DejaVuSans-31"/>
     </g>
    </g>
    <g id="patch_9">
     <path d="M 63.2 87.081125 
L 83.2 87.081125 
L 83.2 80.081125 
L 63.2 80.081125 
z
" style="fill:#ff7f0e;fill-opacity:0.4;stroke:#ff7f0e;stroke-linejoin:miter;"/>
    </g>
    <g id="text_20">
     <!-- Correlation higher than 0.8  -->
     <g transform="translate(91.2 80.442375)scale(0.1 -0.1)">
      <use xlink:href="#DejaVuSans-43"/>
      <use x="69.824219" xlink:href="#DejaVuSans-6f"/>
      <use x="131.005859" xlink:href="#DejaVuSans-72"/>
      <use x="170.369141" xlink:href="#DejaVuSans-72"/>
      <use x="209.232422" xlink:href="#DejaVuSans-65"/>
      <use x="270.755859" xlink:href="#DejaVuSans-6c"/>
      <use x="298.539062" xlink:href="#DejaVuSans-61"/>
      <use x="359.818359" xlink:href="#DejaVuSans-74"/>
      <use x="399.027344" xlink:href="#DejaVuSans-69"/>
      <use x="426.810547" xlink:href="#DejaVuSans-6f"/>
      <use x="487.992188" xlink:href="#DejaVuSans-6e"/>
      <use x="551.371094" xlink:href="#DejaVuSans-20"/>
      <use x="583.158203" xlink:href="#DejaVuSans-68"/>
      <use x="646.537109" xlink:href="#DejaVuSans-69"/>
      <use x="674.320312" xlink:href="#DejaVuSans-67"/>
      <use x="737.796875" xlink:href="#DejaVuSans-68"/>
      <use x="801.175781" xlink:href="#DejaVuSans-65"/>
      <use x="862.699219" xlink:href="#DejaVuSans-72"/>
      <use x="903.8125" xlink:href="#DejaVuSans-20"/>
      <use x="935.599609" xlink:href="#DejaVuSans-74"/>
      <use x="974.808594" xlink:href="#DejaVuSans-68"/>
      <use x="1038.1875" xlink:href="#DejaVuSans-61"/>
      <use x="1099.466797" xlink:href="#DejaVuSans-6e"/>
      <use x="1162.845703" xlink:href="#DejaVuSans-20"/>
      <use x="1194.632812" xlink:href="#DejaVuSans-30"/>
      <use x="1258.255859" xlink:href="#DejaVuSans-2e"/>
      <use x="1290.042969" xlink:href="#DejaVuSans-38"/>
      <use x="1353.666016" xlink:href="#DejaVuSans-20"/>
     </g>
     <!-- n=2 -->
     <g transform="translate(91.2 91.640187)scale(0.1 -0.1)">
      <use xlink:href="#DejaVuSans-6e"/>
      <use x="63.378906" xlink:href="#DejaVuSans-3d"/>
      <use x="147.167969" xlink:href="#DejaVuSans-32"/>
     </g>
    </g>
   </g>
  </g>
 </g>
 <defs>
  <clipPath id="p120615dbb8">
   <rect height="265.672" width="387.835" x="54.2" y="37.968"/>
  </clipPath>
 </defs>
</svg>
