<?xml version="1.0" encoding="utf-8" standalone="no"?>
<!DOCTYPE svg PUBLIC "-//W3C//DTD SVG 1.1//EN"
  "http://www.w3.org/Graphics/SVG/1.1/DTD/svg11.dtd">
<svg height="345.6pt" version="1.1" viewBox="0 0 460.8 345.6" width="460.8pt" xmlns="http://www.w3.org/2000/svg" xmlns:xlink="http://www.w3.org/1999/xlink">
 <metadata>
  <rdf:RDF xmlns:cc="http://creativecommons.org/ns#" xmlns:dc="http://purl.org/dc/elements/1.1/" xmlns:rdf="http://www.w3.org/1999/02/22-rdf-syntax-ns#">
   <cc:Work>
    <dc:type rdf:resource="http://purl.org/dc/dcmitype/StillImage"/>
    <dc:date>2021-11-24T22:48:19.314188</dc:date>
    <dc:format>image/svg+xml</dc:format>
    <dc:creator>
     <cc:Agent>
      <dc:title>Matplotlib v3.4.3, https://matplotlib.org/</dc:title>
     </cc:Agent>
    </dc:creator>
   </cc:Work>
  </rdf:RDF>
 </metadata>
 <defs>
  <style type="text/css">*{stroke-linecap:butt;stroke-linejoin:round;}</style>
 </defs>
 <g id="figure_1">
  <g id="patch_1">
   <path d="M 0 345.6 
L 460.8 345.6 
L 460.8 0 
L 0 0 
z
" style="fill:#ffffff;"/>
  </g>
  <g id="axes_1">
   <g id="patch_2">
    <path d="M 47.81 303.64 
L 442.035 303.64 
L 442.035 37.968 
L 47.81 37.968 
z
" style="fill:#ffffff;"/>
   </g>
   <g id="PolyCollection_1">
    <path clip-path="url(#pdb7c20ba1a)" d="M -21.692477 303.415522 
L -21.692477 303.64 
L -18.775206 303.64 
L -15.857934 303.64 
L -12.940663 303.64 
L -10.023392 303.64 
L -7.106121 303.64 
L -4.18885 303.64 
L -1.271579 303.64 
L 1.645692 303.64 
L 4.562963 303.64 
L 7.480235 303.64 
L 10.397506 303.64 
L 13.314777 303.64 
L 16.232048 303.64 
L 19.149319 303.64 
L 22.06659 303.64 
L 24.983861 303.64 
L 27.901132 303.64 
L 30.818404 303.64 
L 33.735675 303.64 
L 36.652946 303.64 
L 39.570217 303.64 
L 42.487488 303.64 
L 45.404759 303.64 
L 48.32203 303.64 
L 51.239301 303.64 
L 54.156573 303.64 
L 57.073844 303.64 
L 59.991115 303.64 
L 62.908386 303.64 
L 65.825657 303.64 
L 68.742928 303.64 
L 71.660199 303.64 
L 74.57747 303.64 
L 77.494742 303.64 
L 80.412013 303.64 
L 83.329284 303.64 
L 86.246555 303.64 
L 89.163826 303.64 
L 92.081097 303.64 
L 94.998368 303.64 
L 97.915639 303.64 
L 100.83291 303.64 
L 103.750182 303.64 
L 106.667453 303.64 
L 109.584724 303.64 
L 112.501995 303.64 
L 115.419266 303.64 
L 118.336537 303.64 
L 121.253808 303.64 
L 124.171079 303.64 
L 127.088351 303.64 
L 130.005622 303.64 
L 132.922893 303.64 
L 135.840164 303.64 
L 138.757435 303.64 
L 141.674706 303.64 
L 144.591977 303.64 
L 147.509248 303.64 
L 150.42652 303.64 
L 153.343791 303.64 
L 156.261062 303.64 
L 159.178333 303.64 
L 162.095604 303.64 
L 165.012875 303.64 
L 167.930146 303.64 
L 170.847417 303.64 
L 173.764689 303.64 
L 176.68196 303.64 
L 179.599231 303.64 
L 182.516502 303.64 
L 185.433773 303.64 
L 188.351044 303.64 
L 191.268315 303.64 
L 194.185586 303.64 
L 197.102858 303.64 
L 200.020129 303.64 
L 202.9374 303.64 
L 205.854671 303.64 
L 208.771942 303.64 
L 211.689213 303.64 
L 214.606484 303.64 
L 217.523755 303.64 
L 220.441026 303.64 
L 223.358298 303.64 
L 226.275569 303.64 
L 229.19284 303.64 
L 232.110111 303.64 
L 235.027382 303.64 
L 237.944653 303.64 
L 240.861924 303.64 
L 243.779195 303.64 
L 246.696467 303.64 
L 249.613738 303.64 
L 252.531009 303.64 
L 255.44828 303.64 
L 258.365551 303.64 
L 261.282822 303.64 
L 264.200093 303.64 
L 267.117364 303.64 
L 270.034636 303.64 
L 272.951907 303.64 
L 275.869178 303.64 
L 278.786449 303.64 
L 281.70372 303.64 
L 284.620991 303.64 
L 287.538262 303.64 
L 290.455533 303.64 
L 293.372805 303.64 
L 296.290076 303.64 
L 299.207347 303.64 
L 302.124618 303.64 
L 305.041889 303.64 
L 307.95916 303.64 
L 310.876431 303.64 
L 313.793702 303.64 
L 316.710974 303.64 
L 319.628245 303.64 
L 322.545516 303.64 
L 325.462787 303.64 
L 328.380058 303.64 
L 331.297329 303.64 
L 334.2146 303.64 
L 337.131871 303.64 
L 340.049142 303.64 
L 342.966414 303.64 
L 345.883685 303.64 
L 348.800956 303.64 
L 351.718227 303.64 
L 354.635498 303.64 
L 357.552769 303.64 
L 360.47004 303.64 
L 363.387311 303.64 
L 366.304583 303.64 
L 369.221854 303.64 
L 372.139125 303.64 
L 375.056396 303.64 
L 377.973667 303.64 
L 380.890938 303.64 
L 383.808209 303.64 
L 386.72548 303.64 
L 389.642752 303.64 
L 392.560023 303.64 
L 395.477294 303.64 
L 398.394565 303.64 
L 401.311836 303.64 
L 404.229107 303.64 
L 407.146378 303.64 
L 410.063649 303.64 
L 412.980921 303.64 
L 415.898192 303.64 
L 418.815463 303.64 
L 421.732734 303.64 
L 424.650005 303.64 
L 427.567276 303.64 
L 430.484547 303.64 
L 433.401818 303.64 
L 436.31909 303.64 
L 439.236361 303.64 
L 442.153632 303.64 
L 445.070903 303.64 
L 447.988174 303.64 
L 450.905445 303.64 
L 453.822716 303.64 
L 456.739987 303.64 
L 459.657258 303.64 
L 462.57453 303.64 
L 465.491801 303.64 
L 468.409072 303.64 
L 471.326343 303.64 
L 474.243614 303.64 
L 477.160885 303.64 
L 480.078156 303.64 
L 482.995427 303.64 
L 485.912699 303.64 
L 488.82997 303.64 
L 491.747241 303.64 
L 494.664512 303.64 
L 497.581783 303.64 
L 500.499054 303.64 
L 503.416325 303.64 
L 506.333596 303.64 
L 509.250868 303.64 
L 512.168139 303.64 
L 515.08541 303.64 
L 518.002681 303.64 
L 520.919952 303.64 
L 523.837223 303.64 
L 526.754494 303.64 
L 529.671765 303.64 
L 532.589037 303.64 
L 535.506308 303.64 
L 538.423579 303.64 
L 541.34085 303.64 
L 544.258121 303.64 
L 547.175392 303.64 
L 550.092663 303.64 
L 553.009934 303.64 
L 555.927206 303.64 
L 558.844477 303.64 
L 558.844477 302.769879 
L 558.844477 302.769879 
L 555.927206 302.54721 
L 553.009934 302.274946 
L 550.092663 301.944009 
L 547.175392 301.544139 
L 544.258121 301.06385 
L 541.34085 300.490403 
L 538.423579 299.809815 
L 535.506308 299.006907 
L 532.589037 298.065378 
L 529.671765 296.967944 
L 526.754494 295.696517 
L 523.837223 294.232436 
L 520.919952 292.556764 
L 518.002681 290.650627 
L 515.08541 288.495617 
L 512.168139 286.074234 
L 509.250868 283.370369 
L 506.333596 280.369821 
L 503.416325 277.060817 
L 500.499054 273.434546 
L 497.581783 269.485666 
L 494.664512 265.212776 
L 491.747241 260.618834 
L 488.82997 255.711493 
L 485.912699 250.503354 
L 482.995427 245.012093 
L 480.078156 239.260478 
L 477.160885 233.276245 
L 474.243614 227.091833 
L 471.326343 220.743991 
L 468.409072 214.273236 
L 465.491801 207.72321 
L 462.57453 201.139914 
L 459.657258 194.57087 
L 456.739987 188.064226 
L 453.822716 181.66783 
L 450.905445 175.428308 
L 447.988174 169.39018 
L 445.070903 163.595034 
L 442.153632 158.080803 
L 439.236361 152.881145 
L 436.31909 148.024969 
L 433.401818 143.5361 
L 430.484547 139.433105 
L 427.567276 135.729264 
L 424.650005 132.432697 
L 421.732734 129.546609 
L 418.815463 127.069662 
L 415.898192 124.996431 
L 412.980921 123.317927 
L 410.063649 122.022155 
L 407.146378 121.094692 
L 404.229107 120.519241 
L 401.311836 120.278161 
L 398.394565 120.352934 
L 395.477294 120.724568 
L 392.560023 121.373929 
L 389.642752 122.281989 
L 386.72548 123.429996 
L 383.808209 124.799581 
L 380.890938 126.372797 
L 377.973667 128.132112 
L 375.056396 130.060367 
L 372.139125 132.140717 
L 369.221854 134.356563 
L 366.304583 136.691492 
L 363.387311 139.129239 
L 360.47004 141.653665 
L 357.552769 144.248778 
L 354.635498 146.898775 
L 351.718227 149.588121 
L 348.800956 152.301658 
L 345.883685 155.024731 
L 342.966414 157.743332 
L 340.049142 160.444256 
L 337.131871 163.11525 
L 334.2146 165.745157 
L 331.297329 168.324051 
L 328.380058 170.843341 
L 325.462787 173.295859 
L 322.545516 175.675916 
L 319.628245 177.979328 
L 316.710974 180.203413 
L 313.793702 182.346955 
L 310.876431 184.410142 
L 307.95916 186.394477 
L 305.041889 188.302662 
L 302.124618 190.138461 
L 299.207347 191.906549 
L 296.290076 193.612336 
L 293.372805 195.261793 
L 290.455533 196.861254 
L 287.538262 198.417227 
L 284.620991 199.936195 
L 281.70372 201.424434 
L 278.786449 202.887824 
L 275.869178 204.331688 
L 272.951907 205.760645 
L 270.034636 207.178483 
L 267.117364 208.588065 
L 264.200093 209.991265 
L 261.282822 211.388931 
L 258.365551 212.780891 
L 255.44828 214.165986 
L 252.531009 215.542135 
L 249.613738 216.906434 
L 246.696467 218.255271 
L 243.779195 219.584463 
L 240.861924 220.889406 
L 237.944653 222.165223 
L 235.027382 223.406915 
L 232.110111 224.6095 
L 229.19284 225.768135 
L 226.275569 226.878223 
L 223.358298 227.935491 
L 220.441026 228.936049 
L 217.523755 229.876423 
L 214.606484 230.753569 
L 211.689213 231.564865 
L 208.771942 232.3081 
L 205.854671 232.981449 
L 202.9374 233.583452 
L 200.020129 234.113001 
L 197.102858 234.569341 
L 194.185586 234.952081 
L 191.268315 235.261242 
L 188.351044 235.497311 
L 185.433773 235.661329 
L 182.516502 235.754993 
L 179.599231 235.780778 
L 176.68196 235.742066 
L 173.764689 235.643277 
L 170.847417 235.489996 
L 167.930146 235.289075 
L 165.012875 235.048727 
L 162.095604 234.778563 
L 159.178333 234.489607 
L 156.261062 234.19425 
L 153.343791 233.906158 
L 150.42652 233.640116 
L 147.509248 233.41183 
L 144.591977 233.237667 
L 141.674706 233.134353 
L 138.757435 233.11863 
L 135.840164 233.206887 
L 132.922893 233.41477 
L 130.005622 233.756792 
L 127.088351 234.24595 
L 124.171079 234.89336 
L 121.253808 235.707933 
L 118.336537 236.696099 
L 115.419266 237.861585 
L 112.501995 239.205257 
L 109.584724 240.725046 
L 106.667453 242.415937 
L 103.750182 244.270039 
L 100.83291 246.276738 
L 97.915639 248.422905 
L 94.998368 250.693179 
L 92.081097 253.0703 
L 89.163826 255.535483 
L 86.246555 258.068824 
L 83.329284 260.649728 
L 80.412013 263.25733 
L 77.494742 265.870924 
L 74.57747 268.470356 
L 71.660199 271.036397 
L 68.742928 273.551071 
L 65.825657 275.997934 
L 62.908386 278.362305 
L 59.991115 280.631436 
L 57.073844 282.794623 
L 54.156573 284.843268 
L 51.239301 286.770879 
L 48.32203 288.573024 
L 45.404759 290.247238 
L 42.487488 291.792896 
L 39.570217 293.211053 
L 36.652946 294.504257 
L 33.735675 295.676357 
L 30.818404 296.732289 
L 27.901132 297.677871 
L 24.983861 298.519596 
L 22.06659 299.264436 
L 19.149319 299.919663 
L 16.232048 300.49268 
L 13.314777 300.990877 
L 10.397506 301.421504 
L 7.480235 301.791569 
L 4.562963 302.107753 
L 1.645692 302.376345 
L -1.271579 302.603197 
L -4.18885 302.793697 
L -7.106121 302.952756 
L -10.023392 303.084805 
L -12.940663 303.193805 
L -15.857934 303.283268 
L -18.775206 303.356278 
L -21.692477 303.415522 
z
" style="fill:#1f77b4;fill-opacity:0.4;stroke:#1f77b4;"/>
   </g>
   <g id="PolyCollection_2">
    <path clip-path="url(#pdb7c20ba1a)" d="M -6.992817 303.492151 
L -6.992817 303.64 
L -4.14404 303.64 
L -1.295263 303.64 
L 1.553514 303.64 
L 4.402291 303.64 
L 7.251068 303.64 
L 10.099845 303.64 
L 12.948622 303.64 
L 15.797399 303.64 
L 18.646176 303.64 
L 21.494953 303.64 
L 24.343731 303.64 
L 27.192508 303.64 
L 30.041285 303.64 
L 32.890062 303.64 
L 35.738839 303.64 
L 38.587616 303.64 
L 41.436393 303.64 
L 44.28517 303.64 
L 47.133947 303.64 
L 49.982724 303.64 
L 52.831501 303.64 
L 55.680278 303.64 
L 58.529055 303.64 
L 61.377832 303.64 
L 64.226609 303.64 
L 67.075386 303.64 
L 69.924163 303.64 
L 72.77294 303.64 
L 75.621718 303.64 
L 78.470495 303.64 
L 81.319272 303.64 
L 84.168049 303.64 
L 87.016826 303.64 
L 89.865603 303.64 
L 92.71438 303.64 
L 95.563157 303.64 
L 98.411934 303.64 
L 101.260711 303.64 
L 104.109488 303.64 
L 106.958265 303.64 
L 109.807042 303.64 
L 112.655819 303.64 
L 115.504596 303.64 
L 118.353373 303.64 
L 121.20215 303.64 
L 124.050927 303.64 
L 126.899705 303.64 
L 129.748482 303.64 
L 132.597259 303.64 
L 135.446036 303.64 
L 138.294813 303.64 
L 141.14359 303.64 
L 143.992367 303.64 
L 146.841144 303.64 
L 149.689921 303.64 
L 152.538698 303.64 
L 155.387475 303.64 
L 158.236252 303.64 
L 161.085029 303.64 
L 163.933806 303.64 
L 166.782583 303.64 
L 169.63136 303.64 
L 172.480137 303.64 
L 175.328915 303.64 
L 178.177692 303.64 
L 181.026469 303.64 
L 183.875246 303.64 
L 186.724023 303.64 
L 189.5728 303.64 
L 192.421577 303.64 
L 195.270354 303.64 
L 198.119131 303.64 
L 200.967908 303.64 
L 203.816685 303.64 
L 206.665462 303.64 
L 209.514239 303.64 
L 212.363016 303.64 
L 215.211793 303.64 
L 218.06057 303.64 
L 220.909347 303.64 
L 223.758124 303.64 
L 226.606902 303.64 
L 229.455679 303.64 
L 232.304456 303.64 
L 235.153233 303.64 
L 238.00201 303.64 
L 240.850787 303.64 
L 243.699564 303.64 
L 246.548341 303.64 
L 249.397118 303.64 
L 252.245895 303.64 
L 255.094672 303.64 
L 257.943449 303.64 
L 260.792226 303.64 
L 263.641003 303.64 
L 266.48978 303.64 
L 269.338557 303.64 
L 272.187334 303.64 
L 275.036111 303.64 
L 277.884889 303.64 
L 280.733666 303.64 
L 283.582443 303.64 
L 286.43122 303.64 
L 289.279997 303.64 
L 292.128774 303.64 
L 294.977551 303.64 
L 297.826328 303.64 
L 300.675105 303.64 
L 303.523882 303.64 
L 306.372659 303.64 
L 309.221436 303.64 
L 312.070213 303.64 
L 314.91899 303.64 
L 317.767767 303.64 
L 320.616544 303.64 
L 323.465321 303.64 
L 326.314098 303.64 
L 329.162876 303.64 
L 332.011653 303.64 
L 334.86043 303.64 
L 337.709207 303.64 
L 340.557984 303.64 
L 343.406761 303.64 
L 346.255538 303.64 
L 349.104315 303.64 
L 351.953092 303.64 
L 354.801869 303.64 
L 357.650646 303.64 
L 360.499423 303.64 
L 363.3482 303.64 
L 366.196977 303.64 
L 369.045754 303.64 
L 371.894531 303.64 
L 374.743308 303.64 
L 377.592085 303.64 
L 380.440863 303.64 
L 383.28964 303.64 
L 386.138417 303.64 
L 388.987194 303.64 
L 391.835971 303.64 
L 394.684748 303.64 
L 397.533525 303.64 
L 400.382302 303.64 
L 403.231079 303.64 
L 406.079856 303.64 
L 408.928633 303.64 
L 411.77741 303.64 
L 414.626187 303.64 
L 417.474964 303.64 
L 420.323741 303.64 
L 423.172518 303.64 
L 426.021295 303.64 
L 428.870073 303.64 
L 431.71885 303.64 
L 434.567627 303.64 
L 437.416404 303.64 
L 440.265181 303.64 
L 443.113958 303.64 
L 445.962735 303.64 
L 448.811512 303.64 
L 451.660289 303.64 
L 454.509066 303.64 
L 457.357843 303.64 
L 460.20662 303.64 
L 463.055397 303.64 
L 465.904174 303.64 
L 468.752951 303.64 
L 471.601728 303.64 
L 474.450505 303.64 
L 477.299282 303.64 
L 480.14806 303.64 
L 482.996837 303.64 
L 485.845614 303.64 
L 488.694391 303.64 
L 491.543168 303.64 
L 494.391945 303.64 
L 497.240722 303.64 
L 500.089499 303.64 
L 502.938276 303.64 
L 505.787053 303.64 
L 508.63583 303.64 
L 511.484607 303.64 
L 514.333384 303.64 
L 517.182161 303.64 
L 520.030938 303.64 
L 522.879715 303.64 
L 525.728492 303.64 
L 528.577269 303.64 
L 531.426047 303.64 
L 534.274824 303.64 
L 537.123601 303.64 
L 539.972378 303.64 
L 542.821155 303.64 
L 545.669932 303.64 
L 548.518709 303.64 
L 551.367486 303.64 
L 554.216263 303.64 
L 557.06504 303.64 
L 559.913817 303.64 
L 559.913817 302.432289 
L 559.913817 302.432289 
L 557.06504 302.132371 
L 554.216263 301.767442 
L 551.367486 301.325861 
L 548.518709 300.794488 
L 545.669932 300.158613 
L 542.821155 299.40192 
L 539.972378 298.506479 
L 537.123601 297.452778 
L 534.274824 296.219807 
L 531.426047 294.785193 
L 528.577269 293.125392 
L 525.728492 291.21595 
L 522.879715 289.031826 
L 520.030938 286.547791 
L 517.182161 283.738887 
L 514.333384 280.580953 
L 511.484607 277.051205 
L 508.63583 273.128867 
L 505.787053 268.795828 
L 502.938276 264.037321 
L 500.089499 258.842599 
L 497.240722 253.205589 
L 494.391945 247.125495 
L 491.543168 240.607339 
L 488.694391 233.662407 
L 485.845614 226.308572 
L 482.996837 218.570497 
L 480.14806 210.479672 
L 477.299282 202.074294 
L 474.450505 193.398973 
L 471.601728 184.504269 
L 468.752951 175.446052 
L 465.904174 166.284712 
L 463.055397 157.084233 
L 460.20662 147.911141 
L 457.357843 138.833377 
L 454.509066 129.919111 
L 451.660289 121.235543 
L 448.811512 112.847721 
L 445.962735 104.817422 
L 443.113958 97.202116 
L 440.265181 90.054069 
L 437.416404 83.41958 
L 434.567627 77.338403 
L 431.71885 71.84334 
L 428.870073 66.960035 
L 426.021295 62.706943 
L 423.172518 59.095482 
L 420.323741 56.130343 
L 417.474964 53.809932 
L 414.626187 52.126928 
L 411.77741 51.068912 
L 408.928633 50.619048 
L 406.079856 50.756777 
L 403.231079 51.4585 
L 400.382302 52.69822 
L 397.533525 54.448118 
L 394.684748 56.679066 
L 391.835971 59.361037 
L 388.987194 62.463437 
L 386.138417 65.955345 
L 383.28964 69.805669 
L 380.440863 73.983238 
L 377.592085 78.456833 
L 374.743308 83.19519 
L 371.894531 88.166974 
L 369.045754 93.340759 
L 366.196977 98.68502 
L 363.3482 104.168147 
L 360.499423 109.758512 
L 357.650646 115.424565 
L 354.801869 121.13499 
L 351.953092 126.858901 
L 349.104315 132.566088 
L 346.255538 138.227288 
L 343.406761 143.81449 
L 340.557984 149.30125 
L 337.709207 154.663003 
L 334.86043 159.877368 
L 332.011653 164.924423 
L 329.162876 169.786946 
L 326.314098 174.45061 
L 323.465321 178.904127 
L 320.616544 183.139324 
L 317.767767 187.151173 
L 314.91899 190.937743 
L 312.070213 194.500105 
L 309.221436 197.842171 
L 306.372659 200.970484 
L 303.523882 203.89397 
L 300.675105 206.623643 
L 297.826328 209.172287 
L 294.977551 211.554117 
L 292.128774 213.784432 
L 289.279997 215.879255 
L 286.43122 217.854995 
L 283.582443 219.728108 
L 280.733666 221.514786 
L 277.884889 223.230671 
L 275.036111 224.890598 
L 272.187334 226.508377 
L 269.338557 228.096613 
L 266.48978 229.666559 
L 263.641003 231.228022 
L 260.792226 232.789291 
L 257.943449 234.357122 
L 255.094672 235.936737 
L 252.245895 237.531873 
L 249.397118 239.144836 
L 246.548341 240.776596 
L 243.699564 242.426881 
L 240.850787 244.09429 
L 238.00201 245.776406 
L 235.153233 247.469912 
L 232.304456 249.170704 
L 229.455679 250.873993 
L 226.606902 252.574405 
L 223.758124 254.266068 
L 220.909347 255.942694 
L 218.06057 257.597653 
L 215.211793 259.224041 
L 212.363016 260.814754 
L 209.514239 262.362551 
L 206.665462 263.860141 
L 203.816685 265.300258 
L 200.967908 266.675766 
L 198.119131 267.979764 
L 195.270354 269.205711 
L 192.421577 270.347559 
L 189.5728 271.399904 
L 186.724023 272.358137 
L 183.875246 273.218599 
L 181.026469 273.978743 
L 178.177692 274.637271 
L 175.328915 275.194267 
L 172.480137 275.651304 
L 169.63136 276.01152 
L 166.782583 276.279661 
L 163.933806 276.46208 
L 161.085029 276.566691 
L 158.236252 276.602888 
L 155.387475 276.581396 
L 152.538698 276.514102 
L 149.689921 276.413823 
L 146.841144 276.294055 
L 143.992367 276.16868 
L 141.14359 276.051665 
L 138.294813 275.956741 
L 135.446036 275.897087 
L 132.597259 275.885022 
L 129.748482 275.931717 
L 126.899705 276.04694 
L 124.050927 276.238834 
L 121.20215 276.513744 
L 118.353373 276.876095 
L 115.504596 277.32832 
L 112.655819 277.870847 
L 109.807042 278.50214 
L 106.958265 279.218793 
L 104.109488 280.015666 
L 101.260711 280.886074 
L 98.411934 281.821996 
L 95.563157 282.814325 
L 92.71438 283.853123 
L 89.865603 284.927895 
L 87.016826 286.027853 
L 84.168049 287.14218 
L 81.319272 288.260272 
L 78.470495 289.371964 
L 75.621718 290.46772 
L 72.77294 291.538798 
L 69.924163 292.577383 
L 67.075386 293.576675 
L 64.226609 294.530955 
L 61.377832 295.435609 
L 58.529055 296.287123 
L 55.680278 297.083055 
L 52.831501 297.821974 
L 49.982724 298.50339 
L 47.133947 299.12766 
L 44.28517 299.695891 
L 41.436393 300.209827 
L 38.587616 300.671744 
L 35.738839 301.084338 
L 32.890062 301.450621 
L 30.041285 301.773825 
L 27.192508 302.057306 
L 24.343731 302.30447 
L 21.494953 302.518702 
L 18.646176 302.703304 
L 15.797399 302.861452 
L 12.948622 302.996156 
L 10.099845 303.110234 
L 7.251068 303.206296 
L 4.402291 303.286728 
L 1.553514 303.353694 
L -1.295263 303.409136 
L -4.14404 303.454781 
L -6.992817 303.492151 
z
" style="fill:#ff7f0e;fill-opacity:0.4;stroke:#ff7f0e;"/>
   </g>
   <g id="matplotlib.axis_1">
    <g id="xtick_1">
     <g id="line2d_1">
      <defs>
       <path d="M 0 0 
L 0 3.5 
" id="m19c2c289ba" style="stroke:#000000;stroke-width:0.8;"/>
      </defs>
      <g>
       <use style="stroke:#000000;stroke-width:0.8;" x="47.81" xlink:href="#m19c2c289ba" y="303.64"/>
      </g>
     </g>
     <g id="text_1">
      <!-- 0.0 -->
      <g transform="translate(39.858438 318.238437)scale(0.1 -0.1)">
       <defs>
        <path d="M 2034 4250 
Q 1547 4250 1301 3770 
Q 1056 3291 1056 2328 
Q 1056 1369 1301 889 
Q 1547 409 2034 409 
Q 2525 409 2770 889 
Q 3016 1369 3016 2328 
Q 3016 3291 2770 3770 
Q 2525 4250 2034 4250 
z
M 2034 4750 
Q 2819 4750 3233 4129 
Q 3647 3509 3647 2328 
Q 3647 1150 3233 529 
Q 2819 -91 2034 -91 
Q 1250 -91 836 529 
Q 422 1150 422 2328 
Q 422 3509 836 4129 
Q 1250 4750 2034 4750 
z
" id="DejaVuSans-30" transform="scale(0.015625)"/>
        <path d="M 684 794 
L 1344 794 
L 1344 0 
L 684 0 
L 684 794 
z
" id="DejaVuSans-2e" transform="scale(0.015625)"/>
       </defs>
       <use xlink:href="#DejaVuSans-30"/>
       <use x="63.623047" xlink:href="#DejaVuSans-2e"/>
       <use x="95.410156" xlink:href="#DejaVuSans-30"/>
      </g>
     </g>
    </g>
    <g id="xtick_2">
     <g id="line2d_2">
      <g>
       <use style="stroke:#000000;stroke-width:0.8;" x="126.655" xlink:href="#m19c2c289ba" y="303.64"/>
      </g>
     </g>
     <g id="text_2">
      <!-- 0.2 -->
      <g transform="translate(118.703438 318.238437)scale(0.1 -0.1)">
       <defs>
        <path d="M 1228 531 
L 3431 531 
L 3431 0 
L 469 0 
L 469 531 
Q 828 903 1448 1529 
Q 2069 2156 2228 2338 
Q 2531 2678 2651 2914 
Q 2772 3150 2772 3378 
Q 2772 3750 2511 3984 
Q 2250 4219 1831 4219 
Q 1534 4219 1204 4116 
Q 875 4013 500 3803 
L 500 4441 
Q 881 4594 1212 4672 
Q 1544 4750 1819 4750 
Q 2544 4750 2975 4387 
Q 3406 4025 3406 3419 
Q 3406 3131 3298 2873 
Q 3191 2616 2906 2266 
Q 2828 2175 2409 1742 
Q 1991 1309 1228 531 
z
" id="DejaVuSans-32" transform="scale(0.015625)"/>
       </defs>
       <use xlink:href="#DejaVuSans-30"/>
       <use x="63.623047" xlink:href="#DejaVuSans-2e"/>
       <use x="95.410156" xlink:href="#DejaVuSans-32"/>
      </g>
     </g>
    </g>
    <g id="xtick_3">
     <g id="line2d_3">
      <g>
       <use style="stroke:#000000;stroke-width:0.8;" x="205.5" xlink:href="#m19c2c289ba" y="303.64"/>
      </g>
     </g>
     <g id="text_3">
      <!-- 0.4 -->
      <g transform="translate(197.548438 318.238437)scale(0.1 -0.1)">
       <defs>
        <path d="M 2419 4116 
L 825 1625 
L 2419 1625 
L 2419 4116 
z
M 2253 4666 
L 3047 4666 
L 3047 1625 
L 3713 1625 
L 3713 1100 
L 3047 1100 
L 3047 0 
L 2419 0 
L 2419 1100 
L 313 1100 
L 313 1709 
L 2253 4666 
z
" id="DejaVuSans-34" transform="scale(0.015625)"/>
       </defs>
       <use xlink:href="#DejaVuSans-30"/>
       <use x="63.623047" xlink:href="#DejaVuSans-2e"/>
       <use x="95.410156" xlink:href="#DejaVuSans-34"/>
      </g>
     </g>
    </g>
    <g id="xtick_4">
     <g id="line2d_4">
      <g>
       <use style="stroke:#000000;stroke-width:0.8;" x="284.345" xlink:href="#m19c2c289ba" y="303.64"/>
      </g>
     </g>
     <g id="text_4">
      <!-- 0.6 -->
      <g transform="translate(276.393438 318.238437)scale(0.1 -0.1)">
       <defs>
        <path d="M 2113 2584 
Q 1688 2584 1439 2293 
Q 1191 2003 1191 1497 
Q 1191 994 1439 701 
Q 1688 409 2113 409 
Q 2538 409 2786 701 
Q 3034 994 3034 1497 
Q 3034 2003 2786 2293 
Q 2538 2584 2113 2584 
z
M 3366 4563 
L 3366 3988 
Q 3128 4100 2886 4159 
Q 2644 4219 2406 4219 
Q 1781 4219 1451 3797 
Q 1122 3375 1075 2522 
Q 1259 2794 1537 2939 
Q 1816 3084 2150 3084 
Q 2853 3084 3261 2657 
Q 3669 2231 3669 1497 
Q 3669 778 3244 343 
Q 2819 -91 2113 -91 
Q 1303 -91 875 529 
Q 447 1150 447 2328 
Q 447 3434 972 4092 
Q 1497 4750 2381 4750 
Q 2619 4750 2861 4703 
Q 3103 4656 3366 4563 
z
" id="DejaVuSans-36" transform="scale(0.015625)"/>
       </defs>
       <use xlink:href="#DejaVuSans-30"/>
       <use x="63.623047" xlink:href="#DejaVuSans-2e"/>
       <use x="95.410156" xlink:href="#DejaVuSans-36"/>
      </g>
     </g>
    </g>
    <g id="xtick_5">
     <g id="line2d_5">
      <g>
       <use style="stroke:#000000;stroke-width:0.8;" x="363.19" xlink:href="#m19c2c289ba" y="303.64"/>
      </g>
     </g>
     <g id="text_5">
      <!-- 0.8 -->
      <g transform="translate(355.238437 318.238437)scale(0.1 -0.1)">
       <defs>
        <path d="M 2034 2216 
Q 1584 2216 1326 1975 
Q 1069 1734 1069 1313 
Q 1069 891 1326 650 
Q 1584 409 2034 409 
Q 2484 409 2743 651 
Q 3003 894 3003 1313 
Q 3003 1734 2745 1975 
Q 2488 2216 2034 2216 
z
M 1403 2484 
Q 997 2584 770 2862 
Q 544 3141 544 3541 
Q 544 4100 942 4425 
Q 1341 4750 2034 4750 
Q 2731 4750 3128 4425 
Q 3525 4100 3525 3541 
Q 3525 3141 3298 2862 
Q 3072 2584 2669 2484 
Q 3125 2378 3379 2068 
Q 3634 1759 3634 1313 
Q 3634 634 3220 271 
Q 2806 -91 2034 -91 
Q 1263 -91 848 271 
Q 434 634 434 1313 
Q 434 1759 690 2068 
Q 947 2378 1403 2484 
z
M 1172 3481 
Q 1172 3119 1398 2916 
Q 1625 2713 2034 2713 
Q 2441 2713 2670 2916 
Q 2900 3119 2900 3481 
Q 2900 3844 2670 4047 
Q 2441 4250 2034 4250 
Q 1625 4250 1398 4047 
Q 1172 3844 1172 3481 
z
" id="DejaVuSans-38" transform="scale(0.015625)"/>
       </defs>
       <use xlink:href="#DejaVuSans-30"/>
       <use x="63.623047" xlink:href="#DejaVuSans-2e"/>
       <use x="95.410156" xlink:href="#DejaVuSans-38"/>
      </g>
     </g>
    </g>
    <g id="xtick_6">
     <g id="line2d_6">
      <g>
       <use style="stroke:#000000;stroke-width:0.8;" x="442.035" xlink:href="#m19c2c289ba" y="303.64"/>
      </g>
     </g>
     <g id="text_6">
      <!-- 1.0 -->
      <g transform="translate(434.083437 318.238437)scale(0.1 -0.1)">
       <defs>
        <path d="M 794 531 
L 1825 531 
L 1825 4091 
L 703 3866 
L 703 4441 
L 1819 4666 
L 2450 4666 
L 2450 531 
L 3481 531 
L 3481 0 
L 794 0 
L 794 531 
z
" id="DejaVuSans-31" transform="scale(0.015625)"/>
       </defs>
       <use xlink:href="#DejaVuSans-31"/>
       <use x="63.623047" xlink:href="#DejaVuSans-2e"/>
       <use x="95.410156" xlink:href="#DejaVuSans-30"/>
      </g>
     </g>
    </g>
    <g id="text_7">
     <!-- Credibility index -->
     <g transform="translate(204.317812 331.916562)scale(0.1 -0.1)">
      <defs>
       <path d="M 4122 4306 
L 4122 3641 
Q 3803 3938 3442 4084 
Q 3081 4231 2675 4231 
Q 1875 4231 1450 3742 
Q 1025 3253 1025 2328 
Q 1025 1406 1450 917 
Q 1875 428 2675 428 
Q 3081 428 3442 575 
Q 3803 722 4122 1019 
L 4122 359 
Q 3791 134 3420 21 
Q 3050 -91 2638 -91 
Q 1578 -91 968 557 
Q 359 1206 359 2328 
Q 359 3453 968 4101 
Q 1578 4750 2638 4750 
Q 3056 4750 3426 4639 
Q 3797 4528 4122 4306 
z
" id="DejaVuSans-43" transform="scale(0.015625)"/>
       <path d="M 2631 2963 
Q 2534 3019 2420 3045 
Q 2306 3072 2169 3072 
Q 1681 3072 1420 2755 
Q 1159 2438 1159 1844 
L 1159 0 
L 581 0 
L 581 3500 
L 1159 3500 
L 1159 2956 
Q 1341 3275 1631 3429 
Q 1922 3584 2338 3584 
Q 2397 3584 2469 3576 
Q 2541 3569 2628 3553 
L 2631 2963 
z
" id="DejaVuSans-72" transform="scale(0.015625)"/>
       <path d="M 3597 1894 
L 3597 1613 
L 953 1613 
Q 991 1019 1311 708 
Q 1631 397 2203 397 
Q 2534 397 2845 478 
Q 3156 559 3463 722 
L 3463 178 
Q 3153 47 2828 -22 
Q 2503 -91 2169 -91 
Q 1331 -91 842 396 
Q 353 884 353 1716 
Q 353 2575 817 3079 
Q 1281 3584 2069 3584 
Q 2775 3584 3186 3129 
Q 3597 2675 3597 1894 
z
M 3022 2063 
Q 3016 2534 2758 2815 
Q 2500 3097 2075 3097 
Q 1594 3097 1305 2825 
Q 1016 2553 972 2059 
L 3022 2063 
z
" id="DejaVuSans-65" transform="scale(0.015625)"/>
       <path d="M 2906 2969 
L 2906 4863 
L 3481 4863 
L 3481 0 
L 2906 0 
L 2906 525 
Q 2725 213 2448 61 
Q 2172 -91 1784 -91 
Q 1150 -91 751 415 
Q 353 922 353 1747 
Q 353 2572 751 3078 
Q 1150 3584 1784 3584 
Q 2172 3584 2448 3432 
Q 2725 3281 2906 2969 
z
M 947 1747 
Q 947 1113 1208 752 
Q 1469 391 1925 391 
Q 2381 391 2643 752 
Q 2906 1113 2906 1747 
Q 2906 2381 2643 2742 
Q 2381 3103 1925 3103 
Q 1469 3103 1208 2742 
Q 947 2381 947 1747 
z
" id="DejaVuSans-64" transform="scale(0.015625)"/>
       <path d="M 603 3500 
L 1178 3500 
L 1178 0 
L 603 0 
L 603 3500 
z
M 603 4863 
L 1178 4863 
L 1178 4134 
L 603 4134 
L 603 4863 
z
" id="DejaVuSans-69" transform="scale(0.015625)"/>
       <path d="M 3116 1747 
Q 3116 2381 2855 2742 
Q 2594 3103 2138 3103 
Q 1681 3103 1420 2742 
Q 1159 2381 1159 1747 
Q 1159 1113 1420 752 
Q 1681 391 2138 391 
Q 2594 391 2855 752 
Q 3116 1113 3116 1747 
z
M 1159 2969 
Q 1341 3281 1617 3432 
Q 1894 3584 2278 3584 
Q 2916 3584 3314 3078 
Q 3713 2572 3713 1747 
Q 3713 922 3314 415 
Q 2916 -91 2278 -91 
Q 1894 -91 1617 61 
Q 1341 213 1159 525 
L 1159 0 
L 581 0 
L 581 4863 
L 1159 4863 
L 1159 2969 
z
" id="DejaVuSans-62" transform="scale(0.015625)"/>
       <path d="M 603 4863 
L 1178 4863 
L 1178 0 
L 603 0 
L 603 4863 
z
" id="DejaVuSans-6c" transform="scale(0.015625)"/>
       <path d="M 1172 4494 
L 1172 3500 
L 2356 3500 
L 2356 3053 
L 1172 3053 
L 1172 1153 
Q 1172 725 1289 603 
Q 1406 481 1766 481 
L 2356 481 
L 2356 0 
L 1766 0 
Q 1100 0 847 248 
Q 594 497 594 1153 
L 594 3053 
L 172 3053 
L 172 3500 
L 594 3500 
L 594 4494 
L 1172 4494 
z
" id="DejaVuSans-74" transform="scale(0.015625)"/>
       <path d="M 2059 -325 
Q 1816 -950 1584 -1140 
Q 1353 -1331 966 -1331 
L 506 -1331 
L 506 -850 
L 844 -850 
Q 1081 -850 1212 -737 
Q 1344 -625 1503 -206 
L 1606 56 
L 191 3500 
L 800 3500 
L 1894 763 
L 2988 3500 
L 3597 3500 
L 2059 -325 
z
" id="DejaVuSans-79" transform="scale(0.015625)"/>
       <path id="DejaVuSans-20" transform="scale(0.015625)"/>
       <path d="M 3513 2113 
L 3513 0 
L 2938 0 
L 2938 2094 
Q 2938 2591 2744 2837 
Q 2550 3084 2163 3084 
Q 1697 3084 1428 2787 
Q 1159 2491 1159 1978 
L 1159 0 
L 581 0 
L 581 3500 
L 1159 3500 
L 1159 2956 
Q 1366 3272 1645 3428 
Q 1925 3584 2291 3584 
Q 2894 3584 3203 3211 
Q 3513 2838 3513 2113 
z
" id="DejaVuSans-6e" transform="scale(0.015625)"/>
       <path d="M 3513 3500 
L 2247 1797 
L 3578 0 
L 2900 0 
L 1881 1375 
L 863 0 
L 184 0 
L 1544 1831 
L 300 3500 
L 978 3500 
L 1906 2253 
L 2834 3500 
L 3513 3500 
z
" id="DejaVuSans-78" transform="scale(0.015625)"/>
      </defs>
      <use xlink:href="#DejaVuSans-43"/>
      <use x="69.824219" xlink:href="#DejaVuSans-72"/>
      <use x="108.6875" xlink:href="#DejaVuSans-65"/>
      <use x="170.210938" xlink:href="#DejaVuSans-64"/>
      <use x="233.6875" xlink:href="#DejaVuSans-69"/>
      <use x="261.470703" xlink:href="#DejaVuSans-62"/>
      <use x="324.947266" xlink:href="#DejaVuSans-69"/>
      <use x="352.730469" xlink:href="#DejaVuSans-6c"/>
      <use x="380.513672" xlink:href="#DejaVuSans-69"/>
      <use x="408.296875" xlink:href="#DejaVuSans-74"/>
      <use x="447.505859" xlink:href="#DejaVuSans-79"/>
      <use x="506.685547" xlink:href="#DejaVuSans-20"/>
      <use x="538.472656" xlink:href="#DejaVuSans-69"/>
      <use x="566.255859" xlink:href="#DejaVuSans-6e"/>
      <use x="629.634766" xlink:href="#DejaVuSans-64"/>
      <use x="693.111328" xlink:href="#DejaVuSans-65"/>
      <use x="752.884766" xlink:href="#DejaVuSans-78"/>
     </g>
    </g>
   </g>
   <g id="matplotlib.axis_2">
    <g id="ytick_1">
     <g id="line2d_7">
      <defs>
       <path d="M 0 0 
L -3.5 0 
" id="ma4028b1126" style="stroke:#000000;stroke-width:0.8;"/>
      </defs>
      <g>
       <use style="stroke:#000000;stroke-width:0.8;" x="47.81" xlink:href="#ma4028b1126" y="303.64"/>
      </g>
     </g>
     <g id="text_8">
      <!-- 0.0 -->
      <g transform="translate(24.906875 307.439219)scale(0.1 -0.1)">
       <use xlink:href="#DejaVuSans-30"/>
       <use x="63.623047" xlink:href="#DejaVuSans-2e"/>
       <use x="95.410156" xlink:href="#DejaVuSans-30"/>
      </g>
     </g>
    </g>
    <g id="ytick_2">
     <g id="line2d_8">
      <g>
       <use style="stroke:#000000;stroke-width:0.8;" x="47.81" xlink:href="#ma4028b1126" y="245.855878"/>
      </g>
     </g>
     <g id="text_9">
      <!-- 0.5 -->
      <g transform="translate(24.906875 249.655097)scale(0.1 -0.1)">
       <defs>
        <path d="M 691 4666 
L 3169 4666 
L 3169 4134 
L 1269 4134 
L 1269 2991 
Q 1406 3038 1543 3061 
Q 1681 3084 1819 3084 
Q 2600 3084 3056 2656 
Q 3513 2228 3513 1497 
Q 3513 744 3044 326 
Q 2575 -91 1722 -91 
Q 1428 -91 1123 -41 
Q 819 9 494 109 
L 494 744 
Q 775 591 1075 516 
Q 1375 441 1709 441 
Q 2250 441 2565 725 
Q 2881 1009 2881 1497 
Q 2881 1984 2565 2268 
Q 2250 2553 1709 2553 
Q 1456 2553 1204 2497 
Q 953 2441 691 2322 
L 691 4666 
z
" id="DejaVuSans-35" transform="scale(0.015625)"/>
       </defs>
       <use xlink:href="#DejaVuSans-30"/>
       <use x="63.623047" xlink:href="#DejaVuSans-2e"/>
       <use x="95.410156" xlink:href="#DejaVuSans-35"/>
      </g>
     </g>
    </g>
    <g id="ytick_3">
     <g id="line2d_9">
      <g>
       <use style="stroke:#000000;stroke-width:0.8;" x="47.81" xlink:href="#ma4028b1126" y="188.071757"/>
      </g>
     </g>
     <g id="text_10">
      <!-- 1.0 -->
      <g transform="translate(24.906875 191.870975)scale(0.1 -0.1)">
       <use xlink:href="#DejaVuSans-31"/>
       <use x="63.623047" xlink:href="#DejaVuSans-2e"/>
       <use x="95.410156" xlink:href="#DejaVuSans-30"/>
      </g>
     </g>
    </g>
    <g id="ytick_4">
     <g id="line2d_10">
      <g>
       <use style="stroke:#000000;stroke-width:0.8;" x="47.81" xlink:href="#ma4028b1126" y="130.287635"/>
      </g>
     </g>
     <g id="text_11">
      <!-- 1.5 -->
      <g transform="translate(24.906875 134.086854)scale(0.1 -0.1)">
       <use xlink:href="#DejaVuSans-31"/>
       <use x="63.623047" xlink:href="#DejaVuSans-2e"/>
       <use x="95.410156" xlink:href="#DejaVuSans-35"/>
      </g>
     </g>
    </g>
    <g id="ytick_5">
     <g id="line2d_11">
      <g>
       <use style="stroke:#000000;stroke-width:0.8;" x="47.81" xlink:href="#ma4028b1126" y="72.503513"/>
      </g>
     </g>
     <g id="text_12">
      <!-- 2.0 -->
      <g transform="translate(24.906875 76.302732)scale(0.1 -0.1)">
       <use xlink:href="#DejaVuSans-32"/>
       <use x="63.623047" xlink:href="#DejaVuSans-2e"/>
       <use x="95.410156" xlink:href="#DejaVuSans-30"/>
      </g>
     </g>
    </g>
    <g id="text_13">
     <!-- Density -->
     <g transform="translate(18.827187 189.812594)rotate(-90)scale(0.1 -0.1)">
      <defs>
       <path d="M 1259 4147 
L 1259 519 
L 2022 519 
Q 2988 519 3436 956 
Q 3884 1394 3884 2338 
Q 3884 3275 3436 3711 
Q 2988 4147 2022 4147 
L 1259 4147 
z
M 628 4666 
L 1925 4666 
Q 3281 4666 3915 4102 
Q 4550 3538 4550 2338 
Q 4550 1131 3912 565 
Q 3275 0 1925 0 
L 628 0 
L 628 4666 
z
" id="DejaVuSans-44" transform="scale(0.015625)"/>
       <path d="M 2834 3397 
L 2834 2853 
Q 2591 2978 2328 3040 
Q 2066 3103 1784 3103 
Q 1356 3103 1142 2972 
Q 928 2841 928 2578 
Q 928 2378 1081 2264 
Q 1234 2150 1697 2047 
L 1894 2003 
Q 2506 1872 2764 1633 
Q 3022 1394 3022 966 
Q 3022 478 2636 193 
Q 2250 -91 1575 -91 
Q 1294 -91 989 -36 
Q 684 19 347 128 
L 347 722 
Q 666 556 975 473 
Q 1284 391 1588 391 
Q 1994 391 2212 530 
Q 2431 669 2431 922 
Q 2431 1156 2273 1281 
Q 2116 1406 1581 1522 
L 1381 1569 
Q 847 1681 609 1914 
Q 372 2147 372 2553 
Q 372 3047 722 3315 
Q 1072 3584 1716 3584 
Q 2034 3584 2315 3537 
Q 2597 3491 2834 3397 
z
" id="DejaVuSans-73" transform="scale(0.015625)"/>
      </defs>
      <use xlink:href="#DejaVuSans-44"/>
      <use x="77.001953" xlink:href="#DejaVuSans-65"/>
      <use x="138.525391" xlink:href="#DejaVuSans-6e"/>
      <use x="201.904297" xlink:href="#DejaVuSans-73"/>
      <use x="254.003906" xlink:href="#DejaVuSans-69"/>
      <use x="281.787109" xlink:href="#DejaVuSans-74"/>
      <use x="320.996094" xlink:href="#DejaVuSans-79"/>
     </g>
    </g>
   </g>
   <g id="patch_3">
    <path d="M 47.81 303.64 
L 47.81 37.968 
" style="fill:none;stroke:#000000;stroke-linecap:square;stroke-linejoin:miter;stroke-width:0.8;"/>
   </g>
   <g id="patch_4">
    <path d="M 442.035 303.64 
L 442.035 37.968 
" style="fill:none;stroke:#000000;stroke-linecap:square;stroke-linejoin:miter;stroke-width:0.8;"/>
   </g>
   <g id="patch_5">
    <path d="M 47.81 303.64 
L 442.035 303.64 
" style="fill:none;stroke:#000000;stroke-linecap:square;stroke-linejoin:miter;stroke-width:0.8;"/>
   </g>
   <g id="patch_6">
    <path d="M 47.81 37.968 
L 442.035 37.968 
" style="fill:none;stroke:#000000;stroke-linecap:square;stroke-linejoin:miter;stroke-width:0.8;"/>
   </g>
   <g id="text_14">
    <!-- Credibility index consensus vs non consensus  -->
    <g transform="translate(105.81625 18.530625)scale(0.12 -0.12)">
     <defs>
      <path d="M 3122 3366 
L 3122 2828 
Q 2878 2963 2633 3030 
Q 2388 3097 2138 3097 
Q 1578 3097 1268 2742 
Q 959 2388 959 1747 
Q 959 1106 1268 751 
Q 1578 397 2138 397 
Q 2388 397 2633 464 
Q 2878 531 3122 666 
L 3122 134 
Q 2881 22 2623 -34 
Q 2366 -91 2075 -91 
Q 1284 -91 818 406 
Q 353 903 353 1747 
Q 353 2603 823 3093 
Q 1294 3584 2113 3584 
Q 2378 3584 2631 3529 
Q 2884 3475 3122 3366 
z
" id="DejaVuSans-63" transform="scale(0.015625)"/>
      <path d="M 1959 3097 
Q 1497 3097 1228 2736 
Q 959 2375 959 1747 
Q 959 1119 1226 758 
Q 1494 397 1959 397 
Q 2419 397 2687 759 
Q 2956 1122 2956 1747 
Q 2956 2369 2687 2733 
Q 2419 3097 1959 3097 
z
M 1959 3584 
Q 2709 3584 3137 3096 
Q 3566 2609 3566 1747 
Q 3566 888 3137 398 
Q 2709 -91 1959 -91 
Q 1206 -91 779 398 
Q 353 888 353 1747 
Q 353 2609 779 3096 
Q 1206 3584 1959 3584 
z
" id="DejaVuSans-6f" transform="scale(0.015625)"/>
      <path d="M 544 1381 
L 544 3500 
L 1119 3500 
L 1119 1403 
Q 1119 906 1312 657 
Q 1506 409 1894 409 
Q 2359 409 2629 706 
Q 2900 1003 2900 1516 
L 2900 3500 
L 3475 3500 
L 3475 0 
L 2900 0 
L 2900 538 
Q 2691 219 2414 64 
Q 2138 -91 1772 -91 
Q 1169 -91 856 284 
Q 544 659 544 1381 
z
M 1991 3584 
L 1991 3584 
z
" id="DejaVuSans-75" transform="scale(0.015625)"/>
      <path d="M 191 3500 
L 800 3500 
L 1894 563 
L 2988 3500 
L 3597 3500 
L 2284 0 
L 1503 0 
L 191 3500 
z
" id="DejaVuSans-76" transform="scale(0.015625)"/>
     </defs>
     <use xlink:href="#DejaVuSans-43"/>
     <use x="69.824219" xlink:href="#DejaVuSans-72"/>
     <use x="108.6875" xlink:href="#DejaVuSans-65"/>
     <use x="170.210938" xlink:href="#DejaVuSans-64"/>
     <use x="233.6875" xlink:href="#DejaVuSans-69"/>
     <use x="261.470703" xlink:href="#DejaVuSans-62"/>
     <use x="324.947266" xlink:href="#DejaVuSans-69"/>
     <use x="352.730469" xlink:href="#DejaVuSans-6c"/>
     <use x="380.513672" xlink:href="#DejaVuSans-69"/>
     <use x="408.296875" xlink:href="#DejaVuSans-74"/>
     <use x="447.505859" xlink:href="#DejaVuSans-79"/>
     <use x="506.685547" xlink:href="#DejaVuSans-20"/>
     <use x="538.472656" xlink:href="#DejaVuSans-69"/>
     <use x="566.255859" xlink:href="#DejaVuSans-6e"/>
     <use x="629.634766" xlink:href="#DejaVuSans-64"/>
     <use x="693.111328" xlink:href="#DejaVuSans-65"/>
     <use x="752.884766" xlink:href="#DejaVuSans-78"/>
     <use x="812.064453" xlink:href="#DejaVuSans-20"/>
     <use x="843.851562" xlink:href="#DejaVuSans-63"/>
     <use x="898.832031" xlink:href="#DejaVuSans-6f"/>
     <use x="960.013672" xlink:href="#DejaVuSans-6e"/>
     <use x="1023.392578" xlink:href="#DejaVuSans-73"/>
     <use x="1075.492188" xlink:href="#DejaVuSans-65"/>
     <use x="1137.015625" xlink:href="#DejaVuSans-6e"/>
     <use x="1200.394531" xlink:href="#DejaVuSans-73"/>
     <use x="1252.494141" xlink:href="#DejaVuSans-75"/>
     <use x="1315.873047" xlink:href="#DejaVuSans-73"/>
     <use x="1367.972656" xlink:href="#DejaVuSans-20"/>
     <use x="1399.759766" xlink:href="#DejaVuSans-76"/>
     <use x="1458.939453" xlink:href="#DejaVuSans-73"/>
     <use x="1511.039062" xlink:href="#DejaVuSans-20"/>
     <use x="1542.826172" xlink:href="#DejaVuSans-6e"/>
     <use x="1606.205078" xlink:href="#DejaVuSans-6f"/>
     <use x="1667.386719" xlink:href="#DejaVuSans-6e"/>
     <use x="1730.765625" xlink:href="#DejaVuSans-20"/>
     <use x="1762.552734" xlink:href="#DejaVuSans-63"/>
     <use x="1817.533203" xlink:href="#DejaVuSans-6f"/>
     <use x="1878.714844" xlink:href="#DejaVuSans-6e"/>
     <use x="1942.09375" xlink:href="#DejaVuSans-73"/>
     <use x="1994.193359" xlink:href="#DejaVuSans-65"/>
     <use x="2055.716797" xlink:href="#DejaVuSans-6e"/>
     <use x="2119.095703" xlink:href="#DejaVuSans-73"/>
     <use x="2171.195312" xlink:href="#DejaVuSans-75"/>
     <use x="2234.574219" xlink:href="#DejaVuSans-73"/>
     <use x="2286.673828" xlink:href="#DejaVuSans-20"/>
    </g>
    <!-- Set big -->
    <g transform="translate(223.8775 31.968)scale(0.12 -0.12)">
     <defs>
      <path d="M 3425 4513 
L 3425 3897 
Q 3066 4069 2747 4153 
Q 2428 4238 2131 4238 
Q 1616 4238 1336 4038 
Q 1056 3838 1056 3469 
Q 1056 3159 1242 3001 
Q 1428 2844 1947 2747 
L 2328 2669 
Q 3034 2534 3370 2195 
Q 3706 1856 3706 1288 
Q 3706 609 3251 259 
Q 2797 -91 1919 -91 
Q 1588 -91 1214 -16 
Q 841 59 441 206 
L 441 856 
Q 825 641 1194 531 
Q 1563 422 1919 422 
Q 2459 422 2753 634 
Q 3047 847 3047 1241 
Q 3047 1584 2836 1778 
Q 2625 1972 2144 2069 
L 1759 2144 
Q 1053 2284 737 2584 
Q 422 2884 422 3419 
Q 422 4038 858 4394 
Q 1294 4750 2059 4750 
Q 2388 4750 2728 4690 
Q 3069 4631 3425 4513 
z
" id="DejaVuSans-53" transform="scale(0.015625)"/>
      <path d="M 2906 1791 
Q 2906 2416 2648 2759 
Q 2391 3103 1925 3103 
Q 1463 3103 1205 2759 
Q 947 2416 947 1791 
Q 947 1169 1205 825 
Q 1463 481 1925 481 
Q 2391 481 2648 825 
Q 2906 1169 2906 1791 
z
M 3481 434 
Q 3481 -459 3084 -895 
Q 2688 -1331 1869 -1331 
Q 1566 -1331 1297 -1286 
Q 1028 -1241 775 -1147 
L 775 -588 
Q 1028 -725 1275 -790 
Q 1522 -856 1778 -856 
Q 2344 -856 2625 -561 
Q 2906 -266 2906 331 
L 2906 616 
Q 2728 306 2450 153 
Q 2172 0 1784 0 
Q 1141 0 747 490 
Q 353 981 353 1791 
Q 353 2603 747 3093 
Q 1141 3584 1784 3584 
Q 2172 3584 2450 3431 
Q 2728 3278 2906 2969 
L 2906 3500 
L 3481 3500 
L 3481 434 
z
" id="DejaVuSans-67" transform="scale(0.015625)"/>
     </defs>
     <use xlink:href="#DejaVuSans-53"/>
     <use x="63.476562" xlink:href="#DejaVuSans-65"/>
     <use x="125" xlink:href="#DejaVuSans-74"/>
     <use x="164.208984" xlink:href="#DejaVuSans-20"/>
     <use x="195.996094" xlink:href="#DejaVuSans-62"/>
     <use x="259.472656" xlink:href="#DejaVuSans-69"/>
     <use x="287.255859" xlink:href="#DejaVuSans-67"/>
    </g>
   </g>
   <g id="legend_1">
    <g id="patch_7">
     <path d="M 54.81 97.719875 
L 225.352188 97.719875 
Q 227.352188 97.719875 227.352188 95.719875 
L 227.352188 44.968 
Q 227.352188 42.968 225.352188 42.968 
L 54.81 42.968 
Q 52.81 42.968 52.81 44.968 
L 52.81 95.719875 
Q 52.81 97.719875 54.81 97.719875 
z
" style="fill:#ffffff;opacity:0.8;stroke:#cccccc;stroke-linejoin:miter;"/>
    </g>
    <g id="patch_8">
     <path d="M 56.81 61.205188 
L 76.81 61.205188 
L 76.81 54.205188 
L 56.81 54.205188 
z
" style="fill:#1f77b4;fill-opacity:0.4;stroke:#1f77b4;stroke-linejoin:miter;"/>
    </g>
    <g id="text_15">
     <!-- Correlation higher than 0  -->
     <g transform="translate(84.81 54.566438)scale(0.1 -0.1)">
      <defs>
       <path d="M 2194 1759 
Q 1497 1759 1228 1600 
Q 959 1441 959 1056 
Q 959 750 1161 570 
Q 1363 391 1709 391 
Q 2188 391 2477 730 
Q 2766 1069 2766 1631 
L 2766 1759 
L 2194 1759 
z
M 3341 1997 
L 3341 0 
L 2766 0 
L 2766 531 
Q 2569 213 2275 61 
Q 1981 -91 1556 -91 
Q 1019 -91 701 211 
Q 384 513 384 1019 
Q 384 1609 779 1909 
Q 1175 2209 1959 2209 
L 2766 2209 
L 2766 2266 
Q 2766 2663 2505 2880 
Q 2244 3097 1772 3097 
Q 1472 3097 1187 3025 
Q 903 2953 641 2809 
L 641 3341 
Q 956 3463 1253 3523 
Q 1550 3584 1831 3584 
Q 2591 3584 2966 3190 
Q 3341 2797 3341 1997 
z
" id="DejaVuSans-61" transform="scale(0.015625)"/>
       <path d="M 3513 2113 
L 3513 0 
L 2938 0 
L 2938 2094 
Q 2938 2591 2744 2837 
Q 2550 3084 2163 3084 
Q 1697 3084 1428 2787 
Q 1159 2491 1159 1978 
L 1159 0 
L 581 0 
L 581 4863 
L 1159 4863 
L 1159 2956 
Q 1366 3272 1645 3428 
Q 1925 3584 2291 3584 
Q 2894 3584 3203 3211 
Q 3513 2838 3513 2113 
z
" id="DejaVuSans-68" transform="scale(0.015625)"/>
      </defs>
      <use xlink:href="#DejaVuSans-43"/>
      <use x="69.824219" xlink:href="#DejaVuSans-6f"/>
      <use x="131.005859" xlink:href="#DejaVuSans-72"/>
      <use x="170.369141" xlink:href="#DejaVuSans-72"/>
      <use x="209.232422" xlink:href="#DejaVuSans-65"/>
      <use x="270.755859" xlink:href="#DejaVuSans-6c"/>
      <use x="298.539062" xlink:href="#DejaVuSans-61"/>
      <use x="359.818359" xlink:href="#DejaVuSans-74"/>
      <use x="399.027344" xlink:href="#DejaVuSans-69"/>
      <use x="426.810547" xlink:href="#DejaVuSans-6f"/>
      <use x="487.992188" xlink:href="#DejaVuSans-6e"/>
      <use x="551.371094" xlink:href="#DejaVuSans-20"/>
      <use x="583.158203" xlink:href="#DejaVuSans-68"/>
      <use x="646.537109" xlink:href="#DejaVuSans-69"/>
      <use x="674.320312" xlink:href="#DejaVuSans-67"/>
      <use x="737.796875" xlink:href="#DejaVuSans-68"/>
      <use x="801.175781" xlink:href="#DejaVuSans-65"/>
      <use x="862.699219" xlink:href="#DejaVuSans-72"/>
      <use x="903.8125" xlink:href="#DejaVuSans-20"/>
      <use x="935.599609" xlink:href="#DejaVuSans-74"/>
      <use x="974.808594" xlink:href="#DejaVuSans-68"/>
      <use x="1038.1875" xlink:href="#DejaVuSans-61"/>
      <use x="1099.466797" xlink:href="#DejaVuSans-6e"/>
      <use x="1162.845703" xlink:href="#DejaVuSans-20"/>
      <use x="1194.632812" xlink:href="#DejaVuSans-30"/>
      <use x="1258.255859" xlink:href="#DejaVuSans-20"/>
     </g>
     <!-- n=171 -->
     <g transform="translate(84.81 65.76425)scale(0.1 -0.1)">
      <defs>
       <path d="M 678 2906 
L 4684 2906 
L 4684 2381 
L 678 2381 
L 678 2906 
z
M 678 1631 
L 4684 1631 
L 4684 1100 
L 678 1100 
L 678 1631 
z
" id="DejaVuSans-3d" transform="scale(0.015625)"/>
       <path d="M 525 4666 
L 3525 4666 
L 3525 4397 
L 1831 0 
L 1172 0 
L 2766 4134 
L 525 4134 
L 525 4666 
z
" id="DejaVuSans-37" transform="scale(0.015625)"/>
      </defs>
      <use xlink:href="#DejaVuSans-6e"/>
      <use x="63.378906" xlink:href="#DejaVuSans-3d"/>
      <use x="147.167969" xlink:href="#DejaVuSans-31"/>
      <use x="210.791016" xlink:href="#DejaVuSans-37"/>
      <use x="274.414062" xlink:href="#DejaVuSans-31"/>
     </g>
    </g>
    <g id="patch_9">
     <path d="M 56.81 87.081125 
L 76.81 87.081125 
L 76.81 80.081125 
L 56.81 80.081125 
z
" style="fill:#ff7f0e;fill-opacity:0.4;stroke:#ff7f0e;stroke-linejoin:miter;"/>
    </g>
    <g id="text_16">
     <!-- Correlation higher than 0.8  -->
     <g transform="translate(84.81 80.442375)scale(0.1 -0.1)">
      <use xlink:href="#DejaVuSans-43"/>
      <use x="69.824219" xlink:href="#DejaVuSans-6f"/>
      <use x="131.005859" xlink:href="#DejaVuSans-72"/>
      <use x="170.369141" xlink:href="#DejaVuSans-72"/>
      <use x="209.232422" xlink:href="#DejaVuSans-65"/>
      <use x="270.755859" xlink:href="#DejaVuSans-6c"/>
      <use x="298.539062" xlink:href="#DejaVuSans-61"/>
      <use x="359.818359" xlink:href="#DejaVuSans-74"/>
      <use x="399.027344" xlink:href="#DejaVuSans-69"/>
      <use x="426.810547" xlink:href="#DejaVuSans-6f"/>
      <use x="487.992188" xlink:href="#DejaVuSans-6e"/>
      <use x="551.371094" xlink:href="#DejaVuSans-20"/>
      <use x="583.158203" xlink:href="#DejaVuSans-68"/>
      <use x="646.537109" xlink:href="#DejaVuSans-69"/>
      <use x="674.320312" xlink:href="#DejaVuSans-67"/>
      <use x="737.796875" xlink:href="#DejaVuSans-68"/>
      <use x="801.175781" xlink:href="#DejaVuSans-65"/>
      <use x="862.699219" xlink:href="#DejaVuSans-72"/>
      <use x="903.8125" xlink:href="#DejaVuSans-20"/>
      <use x="935.599609" xlink:href="#DejaVuSans-74"/>
      <use x="974.808594" xlink:href="#DejaVuSans-68"/>
      <use x="1038.1875" xlink:href="#DejaVuSans-61"/>
      <use x="1099.466797" xlink:href="#DejaVuSans-6e"/>
      <use x="1162.845703" xlink:href="#DejaVuSans-20"/>
      <use x="1194.632812" xlink:href="#DejaVuSans-30"/>
      <use x="1258.255859" xlink:href="#DejaVuSans-2e"/>
      <use x="1290.042969" xlink:href="#DejaVuSans-38"/>
      <use x="1353.666016" xlink:href="#DejaVuSans-20"/>
     </g>
     <!-- n=54 -->
     <g transform="translate(84.81 91.640187)scale(0.1 -0.1)">
      <use xlink:href="#DejaVuSans-6e"/>
      <use x="63.378906" xlink:href="#DejaVuSans-3d"/>
      <use x="147.167969" xlink:href="#DejaVuSans-35"/>
      <use x="210.791016" xlink:href="#DejaVuSans-34"/>
     </g>
    </g>
   </g>
  </g>
 </g>
 <defs>
  <clipPath id="pdb7c20ba1a">
   <rect height="265.672" width="394.225" x="47.81" y="37.968"/>
  </clipPath>
 </defs>
</svg>
